%TF.GenerationSoftware,KiCad,Pcbnew,6.0.11+dfsg-1~bpo11+1*%
%TF.CreationDate,2023-05-25T08:15:00+00:00*%
%TF.ProjectId,GH4PIN01,47483450-494e-4303-912e-6b696361645f,rev?*%
%TF.SameCoordinates,Original*%
%TF.FileFunction,Legend,Top*%
%TF.FilePolarity,Positive*%
%FSLAX46Y46*%
G04 Gerber Fmt 4.6, Leading zero omitted, Abs format (unit mm)*
G04 Created by KiCad (PCBNEW 6.0.11+dfsg-1~bpo11+1) date 2023-05-25 08:15:00*
%MOMM*%
%LPD*%
G01*
G04 APERTURE LIST*
%ADD10C,0.150000*%
%ADD11C,0.050000*%
%ADD12C,0.120000*%
%ADD13R,1.524000X1.524000*%
G04 APERTURE END LIST*
D10*
%TO.C,J1*%
X20091666Y23937620D02*
X20091666Y23223334D01*
X20044047Y23080477D01*
X19948809Y22985239D01*
X19805952Y22937620D01*
X19710714Y22937620D01*
X21091666Y22937620D02*
X20520238Y22937620D01*
X20805952Y22937620D02*
X20805952Y23937620D01*
X20710714Y23794762D01*
X20615476Y23699524D01*
X20520238Y23651905D01*
%TO.C,J3*%
X4418857Y8211429D02*
X4418857Y9711429D01*
X4418857Y8997143D02*
X5276000Y8997143D01*
X5276000Y8211429D02*
X5276000Y9711429D01*
X5990285Y8997143D02*
X6490285Y8997143D01*
X6704571Y8211429D02*
X5990285Y8211429D01*
X5990285Y9711429D01*
X6704571Y9711429D01*
X7276000Y8640000D02*
X7990285Y8640000D01*
X7133142Y8211429D02*
X7633142Y9711429D01*
X8133142Y8211429D01*
X8633142Y8211429D02*
X8633142Y9711429D01*
X8990285Y9711429D01*
X9204571Y9640000D01*
X9347428Y9497143D01*
X9418857Y9354286D01*
X9490285Y9068572D01*
X9490285Y8854286D01*
X9418857Y8568572D01*
X9347428Y8425715D01*
X9204571Y8282858D01*
X8990285Y8211429D01*
X8633142Y8211429D01*
X10133142Y8997143D02*
X10633142Y8997143D01*
X10847428Y8211429D02*
X10133142Y8211429D01*
X10133142Y9711429D01*
X10847428Y9711429D01*
X12347428Y8211429D02*
X11847428Y8925715D01*
X11490285Y8211429D02*
X11490285Y9711429D01*
X12061714Y9711429D01*
X12204571Y9640000D01*
X12276000Y9568572D01*
X12347428Y9425715D01*
X12347428Y9211429D01*
X12276000Y9068572D01*
X12204571Y8997143D01*
X12061714Y8925715D01*
X11490285Y8925715D01*
X12633142Y8068572D02*
X13776000Y8068572D01*
X14061714Y9568572D02*
X14133142Y9640000D01*
X14276000Y9711429D01*
X14633142Y9711429D01*
X14776000Y9640000D01*
X14847428Y9568572D01*
X14918857Y9425715D01*
X14918857Y9282858D01*
X14847428Y9068572D01*
X13990285Y8211429D01*
X14918857Y8211429D01*
X15418857Y8211429D02*
X16204571Y9211429D01*
X15418857Y9211429D02*
X16204571Y8211429D01*
X17061714Y9711429D02*
X17204571Y9711429D01*
X17347428Y9640000D01*
X17418857Y9568572D01*
X17490285Y9425715D01*
X17561714Y9140000D01*
X17561714Y8782858D01*
X17490285Y8497143D01*
X17418857Y8354286D01*
X17347428Y8282858D01*
X17204571Y8211429D01*
X17061714Y8211429D01*
X16918857Y8282858D01*
X16847428Y8354286D01*
X16776000Y8497143D01*
X16704571Y8782858D01*
X16704571Y9140000D01*
X16776000Y9425715D01*
X16847428Y9568572D01*
X16918857Y9640000D01*
X17061714Y9711429D01*
X18918857Y9711429D02*
X18204571Y9711429D01*
X18133142Y8997143D01*
X18204571Y9068572D01*
X18347428Y9140000D01*
X18704571Y9140000D01*
X18847428Y9068572D01*
X18918857Y8997143D01*
X18990285Y8854286D01*
X18990285Y8497143D01*
X18918857Y8354286D01*
X18847428Y8282858D01*
X18704571Y8211429D01*
X18347428Y8211429D01*
X18204571Y8282858D01*
X18133142Y8354286D01*
X19276000Y8068572D02*
X20418857Y8068572D01*
X20776000Y8211429D02*
X20776000Y9711429D01*
X21347428Y9711429D01*
X21490285Y9640000D01*
X21561714Y9568572D01*
X21633142Y9425715D01*
X21633142Y9211429D01*
X21561714Y9068572D01*
X21490285Y8997143D01*
X21347428Y8925715D01*
X20776000Y8925715D01*
X22204571Y8640000D02*
X22918857Y8640000D01*
X22061714Y8211429D02*
X22561714Y9711429D01*
X23061714Y8211429D01*
X24418857Y8211429D02*
X23918857Y8925715D01*
X23561714Y8211429D02*
X23561714Y9711429D01*
X24133142Y9711429D01*
X24276000Y9640000D01*
X24347428Y9568572D01*
X24418857Y9425715D01*
X24418857Y9211429D01*
X24347428Y9068572D01*
X24276000Y8997143D01*
X24133142Y8925715D01*
X23561714Y8925715D01*
X24990285Y8640000D02*
X25704571Y8640000D01*
X24847428Y8211429D02*
X25347428Y9711429D01*
X25847428Y8211429D01*
X27061714Y8211429D02*
X26347428Y8211429D01*
X26347428Y9711429D01*
X28276000Y8211429D02*
X27561714Y8211429D01*
X27561714Y9711429D01*
X28776000Y8997143D02*
X29276000Y8997143D01*
X29490285Y8211429D02*
X28776000Y8211429D01*
X28776000Y9711429D01*
X29490285Y9711429D01*
X30847428Y8211429D02*
X30133142Y8211429D01*
X30133142Y9711429D01*
D11*
X4587857Y22887810D02*
X4302142Y22887810D01*
X4445000Y22887810D02*
X4445000Y23387810D01*
X4397380Y23316381D01*
X4349761Y23268762D01*
X4302142Y23244953D01*
D10*
%TO.C,J2*%
X19986666Y33047620D02*
X19986666Y32333334D01*
X19939047Y32190477D01*
X19843809Y32095239D01*
X19700952Y32047620D01*
X19605714Y32047620D01*
X20415238Y32952381D02*
X20462857Y33000000D01*
X20558095Y33047620D01*
X20796190Y33047620D01*
X20891428Y33000000D01*
X20939047Y32952381D01*
X20986666Y32857143D01*
X20986666Y32761905D01*
X20939047Y32619048D01*
X20367619Y32047620D01*
X20986666Y32047620D01*
D12*
%TO.C,J1*%
X24660000Y21200000D02*
X22860000Y21200000D01*
X17990000Y21200000D02*
X17990000Y22190000D01*
X24660000Y19750000D02*
X24660000Y21200000D01*
X16190000Y21200000D02*
X17990000Y21200000D01*
X17460000Y16930000D02*
X23390000Y16930000D01*
X16190000Y19750000D02*
X16190000Y21200000D01*
D10*
%TO.C,J3*%
X4826000Y24384000D02*
X9906000Y24384000D01*
X9906000Y11684000D02*
X4826000Y11684000D01*
X4826000Y11684000D02*
X4826000Y24384000D01*
X9906000Y24384000D02*
X9906000Y11684000D01*
D12*
%TO.C,J2*%
X17885000Y30310000D02*
X17885000Y31300000D01*
X24555000Y30310000D02*
X22755000Y30310000D01*
X16085000Y30310000D02*
X17885000Y30310000D01*
X17355000Y26040000D02*
X23285000Y26040000D01*
X16085000Y28860000D02*
X16085000Y30310000D01*
X24555000Y28860000D02*
X24555000Y30310000D01*
%TD*%
D13*
%TO.C,J3*%
X6096000Y23114000D03*
X8636000Y23114000D03*
X6096000Y20574000D03*
X8636000Y20574000D03*
X6096000Y18034000D03*
X8636000Y18034000D03*
X6096000Y15494000D03*
X8636000Y15494000D03*
X6096000Y12954000D03*
X8636000Y12954000D03*
%TD*%
M02*
