  0
SECTION
  2
HEADER
  9
$ANGBASE
  50
0.0
  9
$ANGDIR
  70
1
  9
$MEASUREMENT
  70
0
  0
ENDSEC
  0
SECTION
  2
TABLES
  0
TABLE
  2
LTYPE
  70
4
  0
LTYPE
  5
40F
  2
CONTINUOUS
  70
0
  3
Solid line
  72
65
  73
0
  40
0.0
  0
LTYPE
  5
410
  2
DASHDOT
 70
0
  3
Dash Dot ____ _ ____ _
 72
65
 73
4
 40
2.0
 49
1.25
 49
-0.25
 49
0.25
 49
-0.25
  0
LTYPE
  5
411
  2
DASHED
 70
0
  3
Dashed __ __ __ __ __
 72
65
 73
2
 40
0.75
 49
0.5
 49
-0.25
  0
LTYPE
  5
43B
  2
DOTTED
 70
0
  3
Dotted .  .  .  .
 72
65
 73
2
 40
0.2
 49
0.0
 49
-0.2
  0
ENDTAB
  0
TABLE
  2
STYLE
  70
4
  0
STYLE
  2
KICAD
  70
0
  40
0
  41
1
  42
1
  50
0
  71
0
  3
isocp.shx
  0
STYLE
  2
KICADB
  70
0
  40
0
  41
1
  42
1
  50
0
  71
0
  3
isocp.shx
  0
STYLE
  2
KICADI
  70
0
  40
0
  41
1
  42
1
  50
15
  71
0
  3
isocp.shx
  0
STYLE
  2
KICADBI
  70
0
  40
0
  41
1
  42
1
  50
15
  71
0
  3
isocp.shx
  0
ENDTAB
  0
TABLE
  2
LAYER
  70
1
  0
LAYER
  2
BLACK
  70
0
  62
7
  6
CONTINUOUS
  0
ENDTAB
  0
ENDSEC
  0
SECTION
  2
ENTITIES
0
LINE
8
BLACK
6
CONTINUOUS
10
0.671089
20
0.766574
11
0.674283
21
0.76444
0
LINE
8
BLACK
6
CONTINUOUS
10
0.674283
20
0.76444
11
0.676416
21
0.761247
0
LINE
8
BLACK
6
CONTINUOUS
10
0.676416
20
0.761247
11
0.677165
21
0.75748
0
LINE
8
BLACK
6
CONTINUOUS
10
0.677165
20
0.75748
11
0.677165
21
0.670866
0
LINE
8
BLACK
6
CONTINUOUS
10
0.677165
20
0.670866
11
0.676416
21
0.6671
0
LINE
8
BLACK
6
CONTINUOUS
10
0.676416
20
0.6671
11
0.674283
21
0.663906
0
LINE
8
BLACK
6
CONTINUOUS
10
0.674283
20
0.663906
11
0.671089
21
0.661773
0
LINE
8
BLACK
6
CONTINUOUS
10
0.671089
20
0.661773
11
0.667323
21
0.661024
0
LINE
8
BLACK
6
CONTINUOUS
10
0.667323
20
0.661024
11
0.647638
21
0.661024
0
LINE
8
BLACK
6
CONTINUOUS
10
0.647638
20
0.661024
11
0.643871
21
0.661773
0
LINE
8
BLACK
6
CONTINUOUS
10
0.643871
20
0.661773
11
0.640678
21
0.663906
0
LINE
8
BLACK
6
CONTINUOUS
10
0.640678
20
0.663906
11
0.638544
21
0.6671
0
LINE
8
BLACK
6
CONTINUOUS
10
0.638544
20
0.6671
11
0.637795
21
0.670866
0
LINE
8
BLACK
6
CONTINUOUS
10
0.637795
20
0.670866
11
0.637795
21
0.75748
0
LINE
8
BLACK
6
CONTINUOUS
10
0.637795
20
0.75748
11
0.638544
21
0.761247
0
LINE
8
BLACK
6
CONTINUOUS
10
0.638544
20
0.761247
11
0.640678
21
0.76444
0
LINE
8
BLACK
6
CONTINUOUS
10
0.640678
20
0.76444
11
0.643871
21
0.766574
0
LINE
8
BLACK
6
CONTINUOUS
10
0.643871
20
0.766574
11
0.647638
21
0.767323
0
LINE
8
BLACK
6
CONTINUOUS
10
0.647638
20
0.767323
11
0.667323
21
0.767323
0
LINE
8
BLACK
6
CONTINUOUS
10
0.667323
20
0.767323
11
0.671089
21
0.766574
0
LINE
8
BLACK
6
CONTINUOUS
10
0.964396
20
0.766574
11
0.96759
21
0.76444
0
LINE
8
BLACK
6
CONTINUOUS
10
0.96759
20
0.76444
11
0.969723
21
0.761247
0
LINE
8
BLACK
6
CONTINUOUS
10
0.969723
20
0.761247
11
0.970472
21
0.75748
0
LINE
8
BLACK
6
CONTINUOUS
10
0.970472
20
0.75748
11
0.970472
21
0.670866
0
LINE
8
BLACK
6
CONTINUOUS
10
0.970472
20
0.670866
11
0.969723
21
0.6671
0
LINE
8
BLACK
6
CONTINUOUS
10
0.969723
20
0.6671
11
0.96759
21
0.663906
0
LINE
8
BLACK
6
CONTINUOUS
10
0.96759
20
0.663906
11
0.964396
21
0.661773
0
LINE
8
BLACK
6
CONTINUOUS
10
0.964396
20
0.661773
11
0.96063
21
0.661024
0
LINE
8
BLACK
6
CONTINUOUS
10
0.96063
20
0.661024
11
0.940945
21
0.661024
0
LINE
8
BLACK
6
CONTINUOUS
10
0.940945
20
0.661024
11
0.937178
21
0.661773
0
LINE
8
BLACK
6
CONTINUOUS
10
0.937178
20
0.661773
11
0.933985
21
0.663906
0
LINE
8
BLACK
6
CONTINUOUS
10
0.933985
20
0.663906
11
0.931852
21
0.6671
0
LINE
8
BLACK
6
CONTINUOUS
10
0.931852
20
0.6671
11
0.931102
21
0.670866
0
LINE
8
BLACK
6
CONTINUOUS
10
0.931102
20
0.670866
11
0.931102
21
0.75748
0
LINE
8
BLACK
6
CONTINUOUS
10
0.931102
20
0.75748
11
0.931852
21
0.761247
0
LINE
8
BLACK
6
CONTINUOUS
10
0.931852
20
0.761247
11
0.933985
21
0.76444
0
LINE
8
BLACK
6
CONTINUOUS
10
0.933985
20
0.76444
11
0.937178
21
0.766574
0
LINE
8
BLACK
6
CONTINUOUS
10
0.937178
20
0.766574
11
0.940945
21
0.767323
0
LINE
8
BLACK
6
CONTINUOUS
10
0.940945
20
0.767323
11
0.96063
21
0.767323
0
LINE
8
BLACK
6
CONTINUOUS
10
0.96063
20
0.767323
11
0.964396
21
0.766574
0
LINE
8
BLACK
6
CONTINUOUS
10
0.73848
20
0.873173
11
0.740396
21
0.871892
0
LINE
8
BLACK
6
CONTINUOUS
10
0.740396
20
0.871892
11
0.741676
21
0.869976
0
LINE
8
BLACK
6
CONTINUOUS
10
0.741676
20
0.869976
11
0.742126
21
0.867717
0
LINE
8
BLACK
6
CONTINUOUS
10
0.742126
20
0.867717
11
0.742126
21
0.812598
0
LINE
8
BLACK
6
CONTINUOUS
10
0.742126
20
0.812598
11
0.741676
21
0.810338
0
LINE
8
BLACK
6
CONTINUOUS
10
0.741676
20
0.810338
11
0.740396
21
0.808423
0
LINE
8
BLACK
6
CONTINUOUS
10
0.740396
20
0.808423
11
0.73848
21
0.807142
0
LINE
8
BLACK
6
CONTINUOUS
10
0.73848
20
0.807142
11
0.73622
21
0.806693
0
LINE
8
BLACK
6
CONTINUOUS
10
0.73622
20
0.806693
11
0.724409
21
0.806693
0
LINE
8
BLACK
6
CONTINUOUS
10
0.724409
20
0.806693
11
0.722149
21
0.807142
0
LINE
8
BLACK
6
CONTINUOUS
10
0.722149
20
0.807142
11
0.720234
21
0.808423
0
LINE
8
BLACK
6
CONTINUOUS
10
0.720234
20
0.808423
11
0.718953
21
0.810338
0
LINE
8
BLACK
6
CONTINUOUS
10
0.718953
20
0.810338
11
0.718504
21
0.812598
0
LINE
8
BLACK
6
CONTINUOUS
10
0.718504
20
0.812598
11
0.718504
21
0.867717
0
LINE
8
BLACK
6
CONTINUOUS
10
0.718504
20
0.867717
11
0.718953
21
0.869976
0
LINE
8
BLACK
6
CONTINUOUS
10
0.718953
20
0.869976
11
0.720234
21
0.871892
0
LINE
8
BLACK
6
CONTINUOUS
10
0.720234
20
0.871892
11
0.722149
21
0.873173
0
LINE
8
BLACK
6
CONTINUOUS
10
0.722149
20
0.873173
11
0.724409
21
0.873622
0
LINE
8
BLACK
6
CONTINUOUS
10
0.724409
20
0.873622
11
0.73622
21
0.873622
0
LINE
8
BLACK
6
CONTINUOUS
10
0.73622
20
0.873622
11
0.73848
21
0.873173
0
LINE
8
BLACK
6
CONTINUOUS
10
0.787693
20
0.873173
11
0.789609
21
0.871892
0
LINE
8
BLACK
6
CONTINUOUS
10
0.789609
20
0.871892
11
0.790889
21
0.869976
0
LINE
8
BLACK
6
CONTINUOUS
10
0.790889
20
0.869976
11
0.791339
21
0.867717
0
LINE
8
BLACK
6
CONTINUOUS
10
0.791339
20
0.867717
11
0.791339
21
0.812598
0
LINE
8
BLACK
6
CONTINUOUS
10
0.791339
20
0.812598
11
0.790889
21
0.810338
0
LINE
8
BLACK
6
CONTINUOUS
10
0.790889
20
0.810338
11
0.789609
21
0.808423
0
LINE
8
BLACK
6
CONTINUOUS
10
0.789609
20
0.808423
11
0.787693
21
0.807142
0
LINE
8
BLACK
6
CONTINUOUS
10
0.787693
20
0.807142
11
0.785433
21
0.806693
0
LINE
8
BLACK
6
CONTINUOUS
10
0.785433
20
0.806693
11
0.773622
21
0.806693
0
LINE
8
BLACK
6
CONTINUOUS
10
0.773622
20
0.806693
11
0.771362
21
0.807142
0
LINE
8
BLACK
6
CONTINUOUS
10
0.771362
20
0.807142
11
0.769446
21
0.808423
0
LINE
8
BLACK
6
CONTINUOUS
10
0.769446
20
0.808423
11
0.768166
21
0.810338
0
LINE
8
BLACK
6
CONTINUOUS
10
0.768166
20
0.810338
11
0.767717
21
0.812598
0
LINE
8
BLACK
6
CONTINUOUS
10
0.767717
20
0.812598
11
0.767717
21
0.867717
0
LINE
8
BLACK
6
CONTINUOUS
10
0.767717
20
0.867717
11
0.768166
21
0.869976
0
LINE
8
BLACK
6
CONTINUOUS
10
0.768166
20
0.869976
11
0.769446
21
0.871892
0
LINE
8
BLACK
6
CONTINUOUS
10
0.769446
20
0.871892
11
0.771362
21
0.873173
0
LINE
8
BLACK
6
CONTINUOUS
10
0.771362
20
0.873173
11
0.773622
21
0.873622
0
LINE
8
BLACK
6
CONTINUOUS
10
0.773622
20
0.873622
11
0.785433
21
0.873622
0
LINE
8
BLACK
6
CONTINUOUS
10
0.785433
20
0.873622
11
0.787693
21
0.873173
0
LINE
8
BLACK
6
CONTINUOUS
10
0.836906
20
0.873173
11
0.838821
21
0.871892
0
LINE
8
BLACK
6
CONTINUOUS
10
0.838821
20
0.871892
11
0.840102
21
0.869976
0
LINE
8
BLACK
6
CONTINUOUS
10
0.840102
20
0.869976
11
0.840551
21
0.867717
0
LINE
8
BLACK
6
CONTINUOUS
10
0.840551
20
0.867717
11
0.840551
21
0.812598
0
LINE
8
BLACK
6
CONTINUOUS
10
0.840551
20
0.812598
11
0.840102
21
0.810338
0
LINE
8
BLACK
6
CONTINUOUS
10
0.840102
20
0.810338
11
0.838821
21
0.808423
0
LINE
8
BLACK
6
CONTINUOUS
10
0.838821
20
0.808423
11
0.836906
21
0.807142
0
LINE
8
BLACK
6
CONTINUOUS
10
0.836906
20
0.807142
11
0.834646
21
0.806693
0
LINE
8
BLACK
6
CONTINUOUS
10
0.834646
20
0.806693
11
0.822835
21
0.806693
0
LINE
8
BLACK
6
CONTINUOUS
10
0.822835
20
0.806693
11
0.820575
21
0.807142
0
LINE
8
BLACK
6
CONTINUOUS
10
0.820575
20
0.807142
11
0.818659
21
0.808423
0
LINE
8
BLACK
6
CONTINUOUS
10
0.818659
20
0.808423
11
0.817379
21
0.810338
0
LINE
8
BLACK
6
CONTINUOUS
10
0.817379
20
0.810338
11
0.816929
21
0.812598
0
LINE
8
BLACK
6
CONTINUOUS
10
0.816929
20
0.812598
11
0.816929
21
0.867717
0
LINE
8
BLACK
6
CONTINUOUS
10
0.816929
20
0.867717
11
0.817379
21
0.869976
0
LINE
8
BLACK
6
CONTINUOUS
10
0.817379
20
0.869976
11
0.818659
21
0.871892
0
LINE
8
BLACK
6
CONTINUOUS
10
0.818659
20
0.871892
11
0.820575
21
0.873173
0
LINE
8
BLACK
6
CONTINUOUS
10
0.820575
20
0.873173
11
0.822835
21
0.873622
0
LINE
8
BLACK
6
CONTINUOUS
10
0.822835
20
0.873622
11
0.834646
21
0.873622
0
LINE
8
BLACK
6
CONTINUOUS
10
0.834646
20
0.873622
11
0.836906
21
0.873173
0
LINE
8
BLACK
6
CONTINUOUS
10
0.886118
20
0.873173
11
0.888034
21
0.871892
0
LINE
8
BLACK
6
CONTINUOUS
10
0.888034
20
0.871892
11
0.889314
21
0.869976
0
LINE
8
BLACK
6
CONTINUOUS
10
0.889314
20
0.869976
11
0.889764
21
0.867717
0
LINE
8
BLACK
6
CONTINUOUS
10
0.889764
20
0.867717
11
0.889764
21
0.812598
0
LINE
8
BLACK
6
CONTINUOUS
10
0.889764
20
0.812598
11
0.889314
21
0.810338
0
LINE
8
BLACK
6
CONTINUOUS
10
0.889314
20
0.810338
11
0.888034
21
0.808423
0
LINE
8
BLACK
6
CONTINUOUS
10
0.888034
20
0.808423
11
0.886118
21
0.807142
0
LINE
8
BLACK
6
CONTINUOUS
10
0.886118
20
0.807142
11
0.883858
21
0.806693
0
LINE
8
BLACK
6
CONTINUOUS
10
0.883858
20
0.806693
11
0.872047
21
0.806693
0
LINE
8
BLACK
6
CONTINUOUS
10
0.872047
20
0.806693
11
0.869787
21
0.807142
0
LINE
8
BLACK
6
CONTINUOUS
10
0.869787
20
0.807142
11
0.867871
21
0.808423
0
LINE
8
BLACK
6
CONTINUOUS
10
0.867871
20
0.808423
11
0.866591
21
0.810338
0
LINE
8
BLACK
6
CONTINUOUS
10
0.866591
20
0.810338
11
0.866142
21
0.812598
0
LINE
8
BLACK
6
CONTINUOUS
10
0.866142
20
0.812598
11
0.866142
21
0.867717
0
LINE
8
BLACK
6
CONTINUOUS
10
0.866142
20
0.867717
11
0.866591
21
0.869976
0
LINE
8
BLACK
6
CONTINUOUS
10
0.866591
20
0.869976
11
0.867871
21
0.871892
0
LINE
8
BLACK
6
CONTINUOUS
10
0.867871
20
0.871892
11
0.869787
21
0.873173
0
LINE
8
BLACK
6
CONTINUOUS
10
0.869787
20
0.873173
11
0.872047
21
0.873622
0
LINE
8
BLACK
6
CONTINUOUS
10
0.872047
20
0.873622
11
0.883858
21
0.873622
0
LINE
8
BLACK
6
CONTINUOUS
10
0.883858
20
0.873622
11
0.886118
21
0.873173
0
LINE
8
BLACK
6
CONTINUOUS
10
0.960263
20
1.12524
11
0.963456
21
1.1231
0
LINE
8
BLACK
6
CONTINUOUS
10
0.963456
20
1.1231
11
0.965589
21
1.11991
0
LINE
8
BLACK
6
CONTINUOUS
10
0.965589
20
1.11991
11
0.966339
21
1.11614
0
LINE
8
BLACK
6
CONTINUOUS
10
0.966339
20
1.11614
11
0.966339
21
1.02953
0
LINE
8
BLACK
6
CONTINUOUS
10
0.966339
20
1.02953
11
0.965589
21
1.02576
0
LINE
8
BLACK
6
CONTINUOUS
10
0.965589
20
1.02576
11
0.963456
21
1.02257
0
LINE
8
BLACK
6
CONTINUOUS
10
0.963456
20
1.02257
11
0.960263
21
1.02043
0
LINE
8
BLACK
6
CONTINUOUS
10
0.960263
20
1.02043
11
0.956496
21
1.01969
0
LINE
8
BLACK
6
CONTINUOUS
10
0.956496
20
1.01969
11
0.936811
21
1.01969
0
LINE
8
BLACK
6
CONTINUOUS
10
0.936811
20
1.01969
11
0.933044
21
1.02043
0
LINE
8
BLACK
6
CONTINUOUS
10
0.933044
20
1.02043
11
0.929851
21
1.02257
0
LINE
8
BLACK
6
CONTINUOUS
10
0.929851
20
1.02257
11
0.927718
21
1.02576
0
LINE
8
BLACK
6
CONTINUOUS
10
0.927718
20
1.02576
11
0.926969
21
1.02953
0
LINE
8
BLACK
6
CONTINUOUS
10
0.926969
20
1.02953
11
0.926969
21
1.11614
0
LINE
8
BLACK
6
CONTINUOUS
10
0.926969
20
1.11614
11
0.927718
21
1.11991
0
LINE
8
BLACK
6
CONTINUOUS
10
0.927718
20
1.11991
11
0.929851
21
1.1231
0
LINE
8
BLACK
6
CONTINUOUS
10
0.929851
20
1.1231
11
0.933044
21
1.12524
0
LINE
8
BLACK
6
CONTINUOUS
10
0.933044
20
1.12524
11
0.936811
21
1.12598
0
LINE
8
BLACK
6
CONTINUOUS
10
0.936811
20
1.12598
11
0.956496
21
1.12598
0
LINE
8
BLACK
6
CONTINUOUS
10
0.956496
20
1.12598
11
0.960263
21
1.12524
0
LINE
8
BLACK
6
CONTINUOUS
10
0.666956
20
1.12524
11
0.670149
21
1.1231
0
LINE
8
BLACK
6
CONTINUOUS
10
0.670149
20
1.1231
11
0.672282
21
1.11991
0
LINE
8
BLACK
6
CONTINUOUS
10
0.672282
20
1.11991
11
0.673031
21
1.11614
0
LINE
8
BLACK
6
CONTINUOUS
10
0.673031
20
1.11614
11
0.673031
21
1.02953
0
LINE
8
BLACK
6
CONTINUOUS
10
0.673031
20
1.02953
11
0.672282
21
1.02576
0
LINE
8
BLACK
6
CONTINUOUS
10
0.672282
20
1.02576
11
0.670149
21
1.02257
0
LINE
8
BLACK
6
CONTINUOUS
10
0.670149
20
1.02257
11
0.666956
21
1.02043
0
LINE
8
BLACK
6
CONTINUOUS
10
0.666956
20
1.02043
11
0.663189
21
1.01969
0
LINE
8
BLACK
6
CONTINUOUS
10
0.663189
20
1.01969
11
0.643504
21
1.01969
0
LINE
8
BLACK
6
CONTINUOUS
10
0.643504
20
1.01969
11
0.639737
21
1.02043
0
LINE
8
BLACK
6
CONTINUOUS
10
0.639737
20
1.02043
11
0.636544
21
1.02257
0
LINE
8
BLACK
6
CONTINUOUS
10
0.636544
20
1.02257
11
0.634411
21
1.02576
0
LINE
8
BLACK
6
CONTINUOUS
10
0.634411
20
1.02576
11
0.633661
21
1.02953
0
LINE
8
BLACK
6
CONTINUOUS
10
0.633661
20
1.02953
11
0.633661
21
1.11614
0
LINE
8
BLACK
6
CONTINUOUS
10
0.633661
20
1.11614
11
0.634411
21
1.11991
0
LINE
8
BLACK
6
CONTINUOUS
10
0.634411
20
1.11991
11
0.636544
21
1.1231
0
LINE
8
BLACK
6
CONTINUOUS
10
0.636544
20
1.1231
11
0.639737
21
1.12524
0
LINE
8
BLACK
6
CONTINUOUS
10
0.639737
20
1.12524
11
0.643504
21
1.12598
0
LINE
8
BLACK
6
CONTINUOUS
10
0.643504
20
1.12598
11
0.663189
21
1.12598
0
LINE
8
BLACK
6
CONTINUOUS
10
0.663189
20
1.12598
11
0.666956
21
1.12524
0
LINE
8
BLACK
6
CONTINUOUS
10
0.734347
20
1.23183
11
0.736262
21
1.23055
0
LINE
8
BLACK
6
CONTINUOUS
10
0.736262
20
1.23055
11
0.737543
21
1.22864
0
LINE
8
BLACK
6
CONTINUOUS
10
0.737543
20
1.22864
11
0.737992
21
1.22638
0
LINE
8
BLACK
6
CONTINUOUS
10
0.737992
20
1.22638
11
0.737992
21
1.17126
0
LINE
8
BLACK
6
CONTINUOUS
10
0.737992
20
1.17126
11
0.737543
21
1.169
0
LINE
8
BLACK
6
CONTINUOUS
10
0.737543
20
1.169
11
0.736262
21
1.16708
0
LINE
8
BLACK
6
CONTINUOUS
10
0.736262
20
1.16708
11
0.734347
21
1.1658
0
LINE
8
BLACK
6
CONTINUOUS
10
0.734347
20
1.1658
11
0.732087
21
1.16535
0
LINE
8
BLACK
6
CONTINUOUS
10
0.732087
20
1.16535
11
0.720276
21
1.16535
0
LINE
8
BLACK
6
CONTINUOUS
10
0.720276
20
1.16535
11
0.718016
21
1.1658
0
LINE
8
BLACK
6
CONTINUOUS
10
0.718016
20
1.1658
11
0.7161
21
1.16708
0
LINE
8
BLACK
6
CONTINUOUS
10
0.7161
20
1.16708
11
0.71482
21
1.169
0
LINE
8
BLACK
6
CONTINUOUS
10
0.71482
20
1.169
11
0.71437
21
1.17126
0
LINE
8
BLACK
6
CONTINUOUS
10
0.71437
20
1.17126
11
0.71437
21
1.22638
0
LINE
8
BLACK
6
CONTINUOUS
10
0.71437
20
1.22638
11
0.71482
21
1.22864
0
LINE
8
BLACK
6
CONTINUOUS
10
0.71482
20
1.22864
11
0.7161
21
1.23055
0
LINE
8
BLACK
6
CONTINUOUS
10
0.7161
20
1.23055
11
0.718016
21
1.23183
0
LINE
8
BLACK
6
CONTINUOUS
10
0.718016
20
1.23183
11
0.720276
21
1.23228
0
LINE
8
BLACK
6
CONTINUOUS
10
0.720276
20
1.23228
11
0.732087
21
1.23228
0
LINE
8
BLACK
6
CONTINUOUS
10
0.732087
20
1.23228
11
0.734347
21
1.23183
0
LINE
8
BLACK
6
CONTINUOUS
10
0.783559
20
1.23183
11
0.785475
21
1.23055
0
LINE
8
BLACK
6
CONTINUOUS
10
0.785475
20
1.23055
11
0.786755
21
1.22864
0
LINE
8
BLACK
6
CONTINUOUS
10
0.786755
20
1.22864
11
0.787205
21
1.22638
0
LINE
8
BLACK
6
CONTINUOUS
10
0.787205
20
1.22638
11
0.787205
21
1.17126
0
LINE
8
BLACK
6
CONTINUOUS
10
0.787205
20
1.17126
11
0.786755
21
1.169
0
LINE
8
BLACK
6
CONTINUOUS
10
0.786755
20
1.169
11
0.785475
21
1.16708
0
LINE
8
BLACK
6
CONTINUOUS
10
0.785475
20
1.16708
11
0.783559
21
1.1658
0
LINE
8
BLACK
6
CONTINUOUS
10
0.783559
20
1.1658
11
0.781299
21
1.16535
0
LINE
8
BLACK
6
CONTINUOUS
10
0.781299
20
1.16535
11
0.769488
21
1.16535
0
LINE
8
BLACK
6
CONTINUOUS
10
0.769488
20
1.16535
11
0.767228
21
1.1658
0
LINE
8
BLACK
6
CONTINUOUS
10
0.767228
20
1.1658
11
0.765312
21
1.16708
0
LINE
8
BLACK
6
CONTINUOUS
10
0.765312
20
1.16708
11
0.764032
21
1.169
0
LINE
8
BLACK
6
CONTINUOUS
10
0.764032
20
1.169
11
0.763583
21
1.17126
0
LINE
8
BLACK
6
CONTINUOUS
10
0.763583
20
1.17126
11
0.763583
21
1.22638
0
LINE
8
BLACK
6
CONTINUOUS
10
0.763583
20
1.22638
11
0.764032
21
1.22864
0
LINE
8
BLACK
6
CONTINUOUS
10
0.764032
20
1.22864
11
0.765312
21
1.23055
0
LINE
8
BLACK
6
CONTINUOUS
10
0.765312
20
1.23055
11
0.767228
21
1.23183
0
LINE
8
BLACK
6
CONTINUOUS
10
0.767228
20
1.23183
11
0.769488
21
1.23228
0
LINE
8
BLACK
6
CONTINUOUS
10
0.769488
20
1.23228
11
0.781299
21
1.23228
0
LINE
8
BLACK
6
CONTINUOUS
10
0.781299
20
1.23228
11
0.783559
21
1.23183
0
LINE
8
BLACK
6
CONTINUOUS
10
0.832772
20
1.23183
11
0.834688
21
1.23055
0
LINE
8
BLACK
6
CONTINUOUS
10
0.834688
20
1.23055
11
0.835968
21
1.22864
0
LINE
8
BLACK
6
CONTINUOUS
10
0.835968
20
1.22864
11
0.836417
21
1.22638
0
LINE
8
BLACK
6
CONTINUOUS
10
0.836417
20
1.22638
11
0.836417
21
1.17126
0
LINE
8
BLACK
6
CONTINUOUS
10
0.836417
20
1.17126
11
0.835968
21
1.169
0
LINE
8
BLACK
6
CONTINUOUS
10
0.835968
20
1.169
11
0.834688
21
1.16708
0
LINE
8
BLACK
6
CONTINUOUS
10
0.834688
20
1.16708
11
0.832772
21
1.1658
0
LINE
8
BLACK
6
CONTINUOUS
10
0.832772
20
1.1658
11
0.830512
21
1.16535
0
LINE
8
BLACK
6
CONTINUOUS
10
0.830512
20
1.16535
11
0.818701
21
1.16535
0
LINE
8
BLACK
6
CONTINUOUS
10
0.818701
20
1.16535
11
0.816441
21
1.1658
0
LINE
8
BLACK
6
CONTINUOUS
10
0.816441
20
1.1658
11
0.814525
21
1.16708
0
LINE
8
BLACK
6
CONTINUOUS
10
0.814525
20
1.16708
11
0.813245
21
1.169
0
LINE
8
BLACK
6
CONTINUOUS
10
0.813245
20
1.169
11
0.812795
21
1.17126
0
LINE
8
BLACK
6
CONTINUOUS
10
0.812795
20
1.17126
11
0.812795
21
1.22638
0
LINE
8
BLACK
6
CONTINUOUS
10
0.812795
20
1.22638
11
0.813245
21
1.22864
0
LINE
8
BLACK
6
CONTINUOUS
10
0.813245
20
1.22864
11
0.814525
21
1.23055
0
LINE
8
BLACK
6
CONTINUOUS
10
0.814525
20
1.23055
11
0.816441
21
1.23183
0
LINE
8
BLACK
6
CONTINUOUS
10
0.816441
20
1.23183
11
0.818701
21
1.23228
0
LINE
8
BLACK
6
CONTINUOUS
10
0.818701
20
1.23228
11
0.830512
21
1.23228
0
LINE
8
BLACK
6
CONTINUOUS
10
0.830512
20
1.23228
11
0.832772
21
1.23183
0
LINE
8
BLACK
6
CONTINUOUS
10
0.881984
20
1.23183
11
0.8839
21
1.23055
0
LINE
8
BLACK
6
CONTINUOUS
10
0.8839
20
1.23055
11
0.88518
21
1.22864
0
LINE
8
BLACK
6
CONTINUOUS
10
0.88518
20
1.22864
11
0.88563
21
1.22638
0
LINE
8
BLACK
6
CONTINUOUS
10
0.88563
20
1.22638
11
0.88563
21
1.17126
0
LINE
8
BLACK
6
CONTINUOUS
10
0.88563
20
1.17126
11
0.88518
21
1.169
0
LINE
8
BLACK
6
CONTINUOUS
10
0.88518
20
1.169
11
0.8839
21
1.16708
0
LINE
8
BLACK
6
CONTINUOUS
10
0.8839
20
1.16708
11
0.881984
21
1.1658
0
LINE
8
BLACK
6
CONTINUOUS
10
0.881984
20
1.1658
11
0.879724
21
1.16535
0
LINE
8
BLACK
6
CONTINUOUS
10
0.879724
20
1.16535
11
0.867913
21
1.16535
0
LINE
8
BLACK
6
CONTINUOUS
10
0.867913
20
1.16535
11
0.865653
21
1.1658
0
LINE
8
BLACK
6
CONTINUOUS
10
0.865653
20
1.1658
11
0.863738
21
1.16708
0
LINE
8
BLACK
6
CONTINUOUS
10
0.863738
20
1.16708
11
0.862457
21
1.169
0
LINE
8
BLACK
6
CONTINUOUS
10
0.862457
20
1.169
11
0.862008
21
1.17126
0
LINE
8
BLACK
6
CONTINUOUS
10
0.862008
20
1.17126
11
0.862008
21
1.22638
0
LINE
8
BLACK
6
CONTINUOUS
10
0.862008
20
1.22638
11
0.862457
21
1.22864
0
LINE
8
BLACK
6
CONTINUOUS
10
0.862457
20
1.22864
11
0.863738
21
1.23055
0
LINE
8
BLACK
6
CONTINUOUS
10
0.863738
20
1.23055
11
0.865653
21
1.23183
0
LINE
8
BLACK
6
CONTINUOUS
10
0.865653
20
1.23183
11
0.867913
21
1.23228
0
LINE
8
BLACK
6
CONTINUOUS
10
0.867913
20
1.23228
11
0.879724
21
1.23228
0
LINE
8
BLACK
6
CONTINUOUS
10
0.879724
20
1.23228
11
0.881984
21
1.23183
  0
ENDSEC
  0
EOF
