  0
SECTION
  2
HEADER
  9
$ANGBASE
  50
0.0
  9
$ANGDIR
  70
1
  9
$MEASUREMENT
  70
0
  0
ENDSEC
  0
SECTION
  2
TABLES
  0
TABLE
  2
LTYPE
  70
4
  0
LTYPE
  5
40F
  2
CONTINUOUS
  70
0
  3
Solid line
  72
65
  73
0
  40
0.0
  0
LTYPE
  5
410
  2
DASHDOT
 70
0
  3
Dash Dot ____ _ ____ _
 72
65
 73
4
 40
2.0
 49
1.25
 49
-0.25
 49
0.25
 49
-0.25
  0
LTYPE
  5
411
  2
DASHED
 70
0
  3
Dashed __ __ __ __ __
 72
65
 73
2
 40
0.75
 49
0.5
 49
-0.25
  0
LTYPE
  5
43B
  2
DOTTED
 70
0
  3
Dotted .  .  .  .
 72
65
 73
2
 40
0.2
 49
0.0
 49
-0.2
  0
ENDTAB
  0
TABLE
  2
STYLE
  70
4
  0
STYLE
  2
KICAD
  70
0
  40
0
  41
1
  42
1
  50
0
  71
0
  3
isocp.shx
  0
STYLE
  2
KICADB
  70
0
  40
0
  41
1
  42
1
  50
0
  71
0
  3
isocp.shx
  0
STYLE
  2
KICADI
  70
0
  40
0
  41
1
  42
1
  50
15
  71
0
  3
isocp.shx
  0
STYLE
  2
KICADBI
  70
0
  40
0
  41
1
  42
1
  50
15
  71
0
  3
isocp.shx
  0
ENDTAB
  0
TABLE
  2
LAYER
  70
1
  0
LAYER
  2
BLACK
  70
0
  62
7
  6
CONTINUOUS
  0
ENDTAB
  0
ENDSEC
  0
SECTION
  2
ENTITIES
0
LINE
8
BLACK
6
CONTINUOUS
10
0.9903835433070866
20
1.7928851574803149
11
0.9905127952755906
21
1.7929079133858268
0
LINE
8
BLACK
6
CONTINUOUS
10
0.9905127952755906
20
1.7929079133858268
11
0.9906263779527559
21
1.7928423228346457
0
LINE
8
BLACK
6
CONTINUOUS
10
0.9906263779527559
20
1.7928423228346457
11
0.9910099606299212
21
1.79277468503937
0
LINE
8
BLACK
6
CONTINUOUS
10
0.9910099606299212
20
1.79277468503937
11
0.9915976377952755
21
1.7922815748031495
0
LINE
8
BLACK
6
CONTINUOUS
10
0.9915976377952755
20
1.7922815748031495
11
0.992261968503937
21
1.7918979921259841
0
LINE
8
BLACK
6
CONTINUOUS
10
0.992261968503937
20
1.7918979921259841
11
0.9923530708661417
21
1.7916476771653542
0
LINE
8
BLACK
6
CONTINUOUS
10
0.9923530708661417
20
1.7916476771653542
11
0.9925572047244094
21
1.7914763779527558
0
LINE
8
BLACK
6
CONTINUOUS
10
0.9925572047244094
20
1.7914763779527558
11
0.9926904330708661
21
1.7907208267716535
0
LINE
8
BLACK
6
CONTINUOUS
10
0.9926904330708661
20
1.7907208267716535
11
0.9929527952755905
21
1.79
0
LINE
8
BLACK
6
CONTINUOUS
10
0.9929527952755905
20
1.79
11
0.9929527952755905
21
0.21
0
LINE
8
BLACK
6
CONTINUOUS
10
0.9929527952755905
20
0.21
11
0.9928851574803149
21
0.2096164960629921
0
LINE
8
BLACK
6
CONTINUOUS
10
0.9928851574803149
20
0.2096164960629921
11
0.9929079527559055
21
0.2094872440944882
0
LINE
8
BLACK
6
CONTINUOUS
10
0.9929079527559055
20
0.2094872440944882
11
0.9928423228346457
21
0.2093736614173228
0
LINE
8
BLACK
6
CONTINUOUS
10
0.9928423228346457
20
0.2093736614173228
11
0.9927747244094488
21
0.2089900787401575
0
LINE
8
BLACK
6
CONTINUOUS
10
0.9927747244094488
20
0.2089900787401575
11
0.9922815748031496
21
0.2084024015748031
0
LINE
8
BLACK
6
CONTINUOUS
10
0.9922815748031496
20
0.2084024015748031
11
0.9918980314960629
21
0.2077380708661417
0
LINE
8
BLACK
6
CONTINUOUS
10
0.9918980314960629
20
0.2077380708661417
11
0.9916476771653543
21
0.207646968503937
0
LINE
8
BLACK
6
CONTINUOUS
10
0.9916476771653543
20
0.207646968503937
11
0.9914764173228346
21
0.2074428346456693
0
LINE
8
BLACK
6
CONTINUOUS
10
0.9914764173228346
20
0.2074428346456693
11
0.9907208267716535
21
0.2073096062992126
0
LINE
8
BLACK
6
CONTINUOUS
10
0.9907208267716535
20
0.2073096062992126
11
0.9900000393700787
21
0.2070472440944882
0
LINE
8
BLACK
6
CONTINUOUS
10
0.9900000393700787
20
0.2070472440944882
11
0.2100000393700787
21
0.2070472440944882
0
LINE
8
BLACK
6
CONTINUOUS
10
0.2100000393700787
20
0.2070472440944882
11
0.2096164960629921
21
0.2071148818897638
0
LINE
8
BLACK
6
CONTINUOUS
10
0.2096164960629921
20
0.2071148818897638
11
0.2094872834645669
21
0.2070920866141732
0
LINE
8
BLACK
6
CONTINUOUS
10
0.2094872834645669
20
0.2070920866141732
11
0.2093736614173228
21
0.2071577165354331
0
LINE
8
BLACK
6
CONTINUOUS
10
0.2093736614173228
20
0.2071577165354331
11
0.2089901181102362
21
0.2072253149606299
0
LINE
8
BLACK
6
CONTINUOUS
10
0.2089901181102362
20
0.2072253149606299
11
0.2084024015748031
21
0.2077184645669291
0
LINE
8
BLACK
6
CONTINUOUS
10
0.2084024015748031
20
0.2077184645669291
11
0.2077381102362205
21
0.2081020078740158
0
LINE
8
BLACK
6
CONTINUOUS
10
0.2077381102362205
20
0.2081020078740158
11
0.207646968503937
21
0.2083523622047244
0
LINE
8
BLACK
6
CONTINUOUS
10
0.207646968503937
20
0.2083523622047244
11
0.207442874015748
21
0.2085236220472441
0
LINE
8
BLACK
6
CONTINUOUS
10
0.207442874015748
20
0.2085236220472441
11
0.2073096062992126
21
0.2092792125984252
0
LINE
8
BLACK
6
CONTINUOUS
10
0.2073096062992126
20
0.2092792125984252
11
0.2070472834645669
21
0.21
0
LINE
8
BLACK
6
CONTINUOUS
10
0.2070472834645669
20
0.21
11
0.2070472834645669
21
1.79
0
LINE
8
BLACK
6
CONTINUOUS
10
0.2070472834645669
20
1.79
11
0.2071148818897638
21
1.7903835433070865
0
LINE
8
BLACK
6
CONTINUOUS
10
0.2071148818897638
20
1.7903835433070865
11
0.207092125984252
21
1.7905127559055118
0
LINE
8
BLACK
6
CONTINUOUS
10
0.207092125984252
20
1.7905127559055118
11
0.2071577165354331
21
1.7906263779527558
0
LINE
8
BLACK
6
CONTINUOUS
10
0.2071577165354331
20
1.7906263779527558
11
0.2072253543307087
21
1.7910099212598425
0
LINE
8
BLACK
6
CONTINUOUS
10
0.2072253543307087
20
1.7910099212598425
11
0.2077184645669291
21
1.7915976377952756
0
LINE
8
BLACK
6
CONTINUOUS
10
0.2077184645669291
20
1.7915976377952756
11
0.2081020472440945
21
1.7922619291338582
0
LINE
8
BLACK
6
CONTINUOUS
10
0.2081020472440945
20
1.7922619291338582
11
0.2083523622047244
21
1.7923530708661417
0
LINE
8
BLACK
6
CONTINUOUS
10
0.2083523622047244
20
1.7923530708661417
11
0.2085236614173228
21
1.7925571653543306
0
LINE
8
BLACK
6
CONTINUOUS
10
0.2085236614173228
20
1.7925571653543306
11
0.2092792125984252
21
1.7926904330708662
0
LINE
8
BLACK
6
CONTINUOUS
10
0.2092792125984252
20
1.7926904330708662
11
0.2100000393700787
21
1.7929527559055118
0
LINE
8
BLACK
6
CONTINUOUS
10
0.2100000393700787
20
1.7929527559055118
11
0.9900000393700787
21
1.7929527559055118
0
LINE
8
BLACK
6
CONTINUOUS
10
0.9900000393700787
20
1.7929527559055118
11
0.9903835433070866
21
1.7928851574803149
0
LINE
8
BLACK
6
CONTINUOUS
10
0.2129527952755906
20
1.7870472440944882
11
0.2129527952755906
21
0.2129527559055118
0
LINE
8
BLACK
6
CONTINUOUS
10
0.2129527952755906
20
0.2129527559055118
11
0.9870472834645669
21
0.2129527559055118
0
LINE
8
BLACK
6
CONTINUOUS
10
0.9870472834645669
20
0.2129527559055118
11
0.9870472834645669
21
1.7870472440944882
0
LINE
8
BLACK
6
CONTINUOUS
10
0.9870472834645669
20
1.7870472440944882
11
0.2129527952755906
21
1.7870472440944882
  0
ENDSEC
  0
EOF
