  0
SECTION
  2
HEADER
  9
$ANGBASE
  50
0.0
  9
$ANGDIR
  70
1
  9
$MEASUREMENT
  70
0
  0
ENDSEC
  0
SECTION
  2
TABLES
  0
TABLE
  2
LTYPE
  70
4
  0
LTYPE
  5
40F
  2
CONTINUOUS
  70
0
  3
Solid line
  72
65
  73
0
  40
0.0
  0
LTYPE
  5
410
  2
DASHDOT
 70
0
  3
Dash Dot ____ _ ____ _
 72
65
 73
4
 40
2.0
 49
1.25
 49
-0.25
 49
0.25
 49
-0.25
  0
LTYPE
  5
411
  2
DASHED
 70
0
  3
Dashed __ __ __ __ __
 72
65
 73
2
 40
0.75
 49
0.5
 49
-0.25
  0
LTYPE
  5
43B
  2
DOTTED
 70
0
  3
Dotted .  .  .  .
 72
65
 73
2
 40
0.2
 49
0.0
 49
-0.2
  0
ENDTAB
  0
TABLE
  2
STYLE
  70
4
  0
STYLE
  2
KICAD
  70
0
  40
0
  41
1
  42
1
  50
0
  71
0
  3
isocp.shx
  0
STYLE
  2
KICADB
  70
0
  40
0
  41
1
  42
1
  50
0
  71
0
  3
isocp.shx
  0
STYLE
  2
KICADI
  70
0
  40
0
  41
1
  42
1
  50
15
  71
0
  3
isocp.shx
  0
STYLE
  2
KICADBI
  70
0
  40
0
  41
1
  42
1
  50
15
  71
0
  3
isocp.shx
  0
ENDTAB
  0
TABLE
  2
LAYER
  70
1
  0
LAYER
  2
BLACK
  70
0
  62
7
  6
CONTINUOUS
  0
ENDTAB
  0
ENDSEC
  0
SECTION
  2
ENTITIES
0
LINE
8
BLACK
6
CONTINUOUS
10
0.4296800393700787
20
1.9796354330708661
11
0.4299724409448819
21
1.9796354330708661
0
LINE
8
BLACK
6
CONTINUOUS
10
0.4299724409448819
20
1.9796354330708661
11
0.43023968503937
21
1.9795247244094487
0
LINE
8
BLACK
6
CONTINUOUS
10
0.43023968503937
20
1.9795247244094487
11
0.4305235039370079
21
1.9794685826771654
0
LINE
8
BLACK
6
CONTINUOUS
10
0.4305235039370079
20
1.9794685826771654
11
0.4307667716535433
21
1.9793064173228345
0
LINE
8
BLACK
6
CONTINUOUS
10
0.4307667716535433
20
1.9793064173228345
11
0.4310368503937008
21
1.979194527559055
0
LINE
8
BLACK
6
CONTINUOUS
10
0.4310368503937008
20
1.979194527559055
11
0.4312412992125984
21
1.9789900787401575
0
LINE
8
BLACK
6
CONTINUOUS
10
0.4312412992125984
20
1.9789900787401575
11
0.431482125984252
21
1.9788295275590551
0
LINE
8
BLACK
6
CONTINUOUS
10
0.431482125984252
20
1.9788295275590551
11
0.431644842519685
21
1.9785865354330707
0
LINE
8
BLACK
6
CONTINUOUS
10
0.431644842519685
20
1.9785865354330707
11
0.4318514960629921
21
1.9783798818897638
0
LINE
8
BLACK
6
CONTINUOUS
10
0.4318514960629921
20
1.9783798818897638
11
0.4319621653543307
21
1.9781126771653543
0
LINE
8
BLACK
6
CONTINUOUS
10
0.4319621653543307
20
1.9781126771653543
11
0.432123188976378
21
1.9778722440944883
0
LINE
8
BLACK
6
CONTINUOUS
10
0.432123188976378
20
1.9778722440944883
11
0.4321805118110236
21
1.977585590551181
0
LINE
8
BLACK
6
CONTINUOUS
10
0.4321805118110236
20
1.977585590551181
11
0.4322924015748031
21
1.9773154724409447
0
LINE
8
BLACK
6
CONTINUOUS
10
0.4322924015748031
20
1.9773154724409447
11
0.4322927952755906
21
1.9770241338582677
0
LINE
8
BLACK
6
CONTINUOUS
10
0.4322927952755906
20
1.9770241338582677
11
0.4323491338582677
21
1.9767425196850392
0
LINE
8
BLACK
6
CONTINUOUS
10
0.4323491338582677
20
1.9767425196850392
11
0.4322935826771653
21
1.9764618897637796
0
LINE
8
BLACK
6
CONTINUOUS
10
0.4322935826771653
20
1.9764618897637796
11
0.4323449606299212
21
1.9403016929133858
0
LINE
8
BLACK
6
CONTINUOUS
10
0.4323449606299212
20
1.9403016929133858
11
0.4406449606299213
21
1.9403220866141733
0
LINE
8
BLACK
6
CONTINUOUS
10
0.4406449606299213
20
1.9403220866141733
11
0.4412210236220472
21
1.9402653543307087
0
LINE
8
BLACK
6
CONTINUOUS
10
0.4412210236220472
20
1.9402653543307087
11
0.4422854330708662
21
1.9398244488188976
0
LINE
8
BLACK
6
CONTINUOUS
10
0.4422854330708662
20
1.9398244488188976
11
0.4431000787401574
21
1.9390098031496064
0
LINE
8
BLACK
6
CONTINUOUS
10
0.4431000787401574
20
1.9390098031496064
11
0.4435409842519685
21
1.9379453937007873
0
LINE
8
BLACK
6
CONTINUOUS
10
0.4435409842519685
20
1.9379453937007873
11
0.4435409842519685
21
1.9367932677165354
0
LINE
8
BLACK
6
CONTINUOUS
10
0.4435409842519685
20
1.9367932677165354
11
0.4431114960629921
21
1.9357565354330708
0
LINE
8
BLACK
6
CONTINUOUS
10
0.4431114960629921
20
1.9357565354330708
11
0.4435243307086614
21
1.9359222440944881
0
LINE
8
BLACK
6
CONTINUOUS
10
0.4435243307086614
20
1.9359222440944881
11
0.4446720472440945
21
1.9360226377952756
0
LINE
8
BLACK
6
CONTINUOUS
10
0.4446720472440945
20
1.9360226377952756
11
0.4457708267716535
21
1.9356761811023622
0
LINE
8
BLACK
6
CONTINUOUS
10
0.4457708267716535
20
1.9356761811023622
11
0.4466533858267717
21
1.9349356299212599
0
LINE
8
BLACK
6
CONTINUOUS
10
0.4466533858267717
20
1.9349356299212599
11
0.4471853937007874
21
1.9339137007874014
0
LINE
8
BLACK
6
CONTINUOUS
10
0.4471853937007874
20
1.9339137007874014
11
0.4472857874015748
21
1.9327659842519684
0
LINE
8
BLACK
6
CONTINUOUS
10
0.4472857874015748
20
1.9327659842519684
11
0.4469393307086614
21
1.9316672047244094
0
LINE
8
BLACK
6
CONTINUOUS
10
0.4469393307086614
20
1.9316672047244094
11
0.446198779527559
21
1.9307846456692912
0
LINE
8
BLACK
6
CONTINUOUS
10
0.446198779527559
20
1.9307846456692912
11
0.4119324015748032
21
1.9128977952755906
0
LINE
8
BLACK
6
CONTINUOUS
10
0.4119324015748032
20
1.9128977952755906
11
0.7880287007874015
21
1.912951062992126
0
LINE
8
BLACK
6
CONTINUOUS
10
0.7880287007874015
20
1.912951062992126
11
0.754286062992126
21
1.9304683070866142
0
LINE
8
BLACK
6
CONTINUOUS
10
0.754286062992126
20
1.9304683070866142
11
0.7538012598425197
21
1.9307846456692912
0
LINE
8
BLACK
6
CONTINUOUS
10
0.7538012598425197
20
1.9307846456692912
11
0.7530607086614173
21
1.9316672047244094
0
LINE
8
BLACK
6
CONTINUOUS
10
0.7530607086614173
20
1.9316672047244094
11
0.7527142913385827
21
1.9327659842519684
0
LINE
8
BLACK
6
CONTINUOUS
10
0.7527142913385827
20
1.9327659842519684
11
0.7528146850393701
21
1.9339137007874014
0
LINE
8
BLACK
6
CONTINUOUS
10
0.7528146850393701
20
1.9339137007874014
11
0.7533466929133859
21
1.9349356692913386
0
LINE
8
BLACK
6
CONTINUOUS
10
0.7533466929133859
20
1.9349356692913386
11
0.7542292519685039
21
1.9356762204724409
0
LINE
8
BLACK
6
CONTINUOUS
10
0.7542292519685039
20
1.9356762204724409
11
0.755328031496063
21
1.9360226377952756
0
LINE
8
BLACK
6
CONTINUOUS
10
0.755328031496063
20
1.9360226377952756
11
0.7564757480314961
21
1.9359222440944881
0
LINE
8
BLACK
6
CONTINUOUS
10
0.7564757480314961
20
1.9359222440944881
11
0.7970505511811024
21
1.9148581496062991
0
LINE
8
BLACK
6
CONTINUOUS
10
0.7970505511811024
20
1.9148581496062991
11
0.7970472834645669
21
1.9330874015748032
0
LINE
8
BLACK
6
CONTINUOUS
10
0.7970472834645669
20
1.9330874015748032
11
0.7971040157480315
21
1.9336634645669291
0
LINE
8
BLACK
6
CONTINUOUS
10
0.7971040157480315
20
1.9336634645669291
11
0.7975449212598426
21
1.9347278740157481
0
LINE
8
BLACK
6
CONTINUOUS
10
0.7975449212598426
20
1.9347278740157481
11
0.7983595669291338
21
1.9355425196850393
0
LINE
8
BLACK
6
CONTINUOUS
10
0.7983595669291338
20
1.9355425196850393
11
0.7994239763779527
21
1.9359834251968504
0
LINE
8
BLACK
6
CONTINUOUS
10
0.7994239763779527
20
1.9359834251968504
11
0.8005761023622047
21
1.9359834251968504
0
LINE
8
BLACK
6
CONTINUOUS
10
0.8005761023622047
20
1.9359834251968504
11
0.8016405118110236
21
1.9355425196850393
0
LINE
8
BLACK
6
CONTINUOUS
10
0.8016405118110236
20
1.9355425196850393
11
0.8024551574803149
21
1.9347278740157481
0
LINE
8
BLACK
6
CONTINUOUS
10
0.8024551574803149
20
1.9347278740157481
11
0.802896062992126
21
1.9336634645669291
0
LINE
8
BLACK
6
CONTINUOUS
10
0.802896062992126
20
1.9336634645669291
11
0.8029002362204725
21
1.9104324015748031
0
LINE
8
BLACK
6
CONTINUOUS
10
0.8029002362204725
20
1.9104324015748031
11
0.8029352362204725
21
1.9103214566929134
0
LINE
8
BLACK
6
CONTINUOUS
10
0.8029352362204725
20
1.9103214566929134
11
0.8029070866141732
21
1.9099999999999999
0
LINE
8
BLACK
6
CONTINUOUS
10
0.8029070866141732
20
1.9099999999999999
11
0.8029352362204725
21
1.9096785433070866
0
LINE
8
BLACK
6
CONTINUOUS
10
0.8029352362204725
20
1.9096785433070866
11
0.8029003937007874
21
1.9095681496062991
0
LINE
8
BLACK
6
CONTINUOUS
10
0.8029003937007874
20
1.9095681496062991
11
0.8029527952755905
21
1.6196850393700788
0
LINE
8
BLACK
6
CONTINUOUS
10
0.8029527952755905
20
1.6196850393700788
11
0.802896062992126
21
1.6191089763779527
0
LINE
8
BLACK
6
CONTINUOUS
10
0.802896062992126
20
1.6191089763779527
11
0.8024551574803149
21
1.6180445669291339
0
LINE
8
BLACK
6
CONTINUOUS
10
0.8024551574803149
20
1.6180445669291339
11
0.8016405118110236
21
1.6172299212598424
0
LINE
8
BLACK
6
CONTINUOUS
10
0.8016405118110236
20
1.6172299212598424
11
0.8005761023622047
21
1.6167890157480314
0
LINE
8
BLACK
6
CONTINUOUS
10
0.8005761023622047
20
1.6167890157480314
11
0.7994239763779527
21
1.6167890157480314
0
LINE
8
BLACK
6
CONTINUOUS
10
0.7994239763779527
20
1.6167890157480314
11
0.7983595669291338
21
1.6172299212598424
0
LINE
8
BLACK
6
CONTINUOUS
10
0.7983595669291338
20
1.6172299212598424
11
0.7975449212598426
21
1.6180445669291339
0
LINE
8
BLACK
6
CONTINUOUS
10
0.7975449212598426
20
1.6180445669291339
11
0.7971040157480315
21
1.6191089763779527
0
LINE
8
BLACK
6
CONTINUOUS
10
0.7971040157480315
20
1.6191089763779527
11
0.7970523228346457
21
1.9051937795275591
0
LINE
8
BLACK
6
CONTINUOUS
10
0.7970523228346457
20
1.9051937795275591
11
0.7570129133858268
21
1.8842934251968504
0
LINE
8
BLACK
6
CONTINUOUS
10
0.7570129133858268
20
1.8842934251968504
11
0.7564757480314961
21
1.8840777559055117
0
LINE
8
BLACK
6
CONTINUOUS
10
0.7564757480314961
20
1.8840777559055117
11
0.755328031496063
21
1.8839773622047244
0
LINE
8
BLACK
6
CONTINUOUS
10
0.755328031496063
20
1.8839773622047244
11
0.7542292519685039
21
1.8843237795275589
0
LINE
8
BLACK
6
CONTINUOUS
10
0.7542292519685039
20
1.8843237795275589
11
0.7533466929133859
21
1.8850643307086614
0
LINE
8
BLACK
6
CONTINUOUS
10
0.7533466929133859
20
1.8850643307086614
11
0.7528146850393701
21
1.8860862992125984
0
LINE
8
BLACK
6
CONTINUOUS
10
0.7528146850393701
20
1.8860862992125984
11
0.7527142913385827
21
1.8872340157480314
0
LINE
8
BLACK
6
CONTINUOUS
10
0.7527142913385827
20
1.8872340157480314
11
0.7530607086614173
21
1.8883327952755906
0
LINE
8
BLACK
6
CONTINUOUS
10
0.7530607086614173
20
1.8883327952755906
11
0.7538012598425197
21
1.8892153543307086
0
LINE
8
BLACK
6
CONTINUOUS
10
0.7538012598425197
20
1.8892153543307086
11
0.7880676377952756
21
1.9071022440944883
0
LINE
8
BLACK
6
CONTINUOUS
10
0.7880676377952756
20
1.9071022440944883
11
0.4119713385826771
21
1.9070489763779528
0
LINE
8
BLACK
6
CONTINUOUS
10
0.4119713385826771
20
1.9070489763779528
11
0.4457140157480315
21
1.8895316929133859
0
LINE
8
BLACK
6
CONTINUOUS
10
0.4457140157480315
20
1.8895316929133859
11
0.446198779527559
21
1.8892153543307086
0
LINE
8
BLACK
6
CONTINUOUS
10
0.446198779527559
20
1.8892153543307086
11
0.4469393307086614
21
1.8883327952755906
0
LINE
8
BLACK
6
CONTINUOUS
10
0.4469393307086614
20
1.8883327952755906
11
0.4472857874015748
21
1.8872340157480314
0
LINE
8
BLACK
6
CONTINUOUS
10
0.4472857874015748
20
1.8872340157480314
11
0.4471853937007874
21
1.8860862992125984
0
LINE
8
BLACK
6
CONTINUOUS
10
0.4471853937007874
20
1.8860862992125984
11
0.4466533858267717
21
1.8850643700787402
0
LINE
8
BLACK
6
CONTINUOUS
10
0.4466533858267717
20
1.8850643700787402
11
0.4457708267716535
21
1.8843238188976377
0
LINE
8
BLACK
6
CONTINUOUS
10
0.4457708267716535
20
1.8843238188976377
11
0.4446720472440945
21
1.8839773622047244
0
LINE
8
BLACK
6
CONTINUOUS
10
0.4446720472440945
20
1.8839773622047244
11
0.4435243307086614
21
1.8840777559055117
0
LINE
8
BLACK
6
CONTINUOUS
10
0.4435243307086614
20
1.8840777559055117
11
0.4029011811023622
21
1.905166968503937
0
LINE
8
BLACK
6
CONTINUOUS
10
0.4029011811023622
20
1.905166968503937
11
0.4029527952755905
21
1.6196850393700788
0
LINE
8
BLACK
6
CONTINUOUS
10
0.4029527952755905
20
1.6196850393700788
11
0.402896062992126
21
1.6191089763779527
0
LINE
8
BLACK
6
CONTINUOUS
10
0.402896062992126
20
1.6191089763779527
11
0.402455157480315
21
1.6180445669291339
0
LINE
8
BLACK
6
CONTINUOUS
10
0.402455157480315
20
1.6180445669291339
11
0.4016405118110236
21
1.6172299212598424
0
LINE
8
BLACK
6
CONTINUOUS
10
0.4016405118110236
20
1.6172299212598424
11
0.4005761023622047
21
1.6167890157480314
0
LINE
8
BLACK
6
CONTINUOUS
10
0.4005761023622047
20
1.6167890157480314
11
0.3994239763779527
21
1.6167890157480314
0
LINE
8
BLACK
6
CONTINUOUS
10
0.3994239763779527
20
1.6167890157480314
11
0.3983595669291338
21
1.6172299212598424
0
LINE
8
BLACK
6
CONTINUOUS
10
0.3983595669291338
20
1.6172299212598424
11
0.3975449212598425
21
1.6180445669291339
0
LINE
8
BLACK
6
CONTINUOUS
10
0.3975449212598425
20
1.6180445669291339
11
0.3971040157480315
21
1.6191089763779527
0
LINE
8
BLACK
6
CONTINUOUS
10
0.3971040157480315
20
1.6191089763779527
11
0.3970472834645669
21
1.9330874015748032
0
LINE
8
BLACK
6
CONTINUOUS
10
0.3970472834645669
20
1.9330874015748032
11
0.3971040157480315
21
1.9336634645669291
0
LINE
8
BLACK
6
CONTINUOUS
10
0.3971040157480315
20
1.9336634645669291
11
0.3975449212598425
21
1.9347278740157481
0
LINE
8
BLACK
6
CONTINUOUS
10
0.3975449212598425
20
1.9347278740157481
11
0.3983595669291338
21
1.9355425196850393
0
LINE
8
BLACK
6
CONTINUOUS
10
0.3983595669291338
20
1.9355425196850393
11
0.3994239763779527
21
1.9359834251968504
0
LINE
8
BLACK
6
CONTINUOUS
10
0.3994239763779527
20
1.9359834251968504
11
0.4005761023622047
21
1.9359834251968504
0
LINE
8
BLACK
6
CONTINUOUS
10
0.4005761023622047
20
1.9359834251968504
11
0.4016405118110236
21
1.9355425196850393
0
LINE
8
BLACK
6
CONTINUOUS
10
0.4016405118110236
20
1.9355425196850393
11
0.402455157480315
21
1.9347278740157481
0
LINE
8
BLACK
6
CONTINUOUS
10
0.402455157480315
20
1.9347278740157481
11
0.402896062992126
21
1.9336634645669291
0
LINE
8
BLACK
6
CONTINUOUS
10
0.402896062992126
20
1.9336634645669291
11
0.4028994488188976
21
1.914781062992126
0
LINE
8
BLACK
6
CONTINUOUS
10
0.4028994488188976
20
1.914781062992126
11
0.4406217322834646
21
1.9344718503937008
0
LINE
8
BLACK
6
CONTINUOUS
10
0.4406217322834646
20
1.9344718503937008
11
0.4181477952755905
21
1.9344165748031497
0
LINE
8
BLACK
6
CONTINUOUS
10
0.4181477952755905
20
1.9344165748031497
11
0.4175717322834646
21
1.934473307086614
0
LINE
8
BLACK
6
CONTINUOUS
10
0.4175717322834646
20
1.934473307086614
11
0.4165073228346456
21
1.9349142125984251
0
LINE
8
BLACK
6
CONTINUOUS
10
0.4165073228346456
20
1.9349142125984251
11
0.4156926771653543
21
1.9357288582677166
0
LINE
8
BLACK
6
CONTINUOUS
10
0.4156926771653543
20
1.9357288582677166
11
0.4152517716535433
21
1.9367932677165354
0
LINE
8
BLACK
6
CONTINUOUS
10
0.4152517716535433
20
1.9367932677165354
11
0.4152517716535433
21
1.9379453937007873
0
LINE
8
BLACK
6
CONTINUOUS
10
0.4152517716535433
20
1.9379453937007873
11
0.4156926771653543
21
1.9390098031496064
0
LINE
8
BLACK
6
CONTINUOUS
10
0.4156926771653543
20
1.9390098031496064
11
0.4165073228346456
21
1.9398244488188976
0
LINE
8
BLACK
6
CONTINUOUS
10
0.4165073228346456
20
1.9398244488188976
11
0.4175717322834646
21
1.9402653543307087
0
LINE
8
BLACK
6
CONTINUOUS
10
0.4175717322834646
20
1.9402653543307087
11
0.4264953543307087
21
1.9402873228346456
0
LINE
8
BLACK
6
CONTINUOUS
10
0.4264953543307087
20
1.9402873228346456
11
0.4264562992125984
21
1.9677969291338582
0
LINE
8
BLACK
6
CONTINUOUS
10
0.4264562992125984
20
1.9677969291338582
11
0.4239852362204724
21
1.9652776771653542
0
LINE
8
BLACK
6
CONTINUOUS
10
0.4239852362204724
20
1.9652776771653542
11
0.4237588582677165
21
1.9650919291338582
0
LINE
8
BLACK
6
CONTINUOUS
10
0.4237588582677165
20
1.9650919291338582
11
0.423707716535433
21
1.9650329133858266
0
LINE
8
BLACK
6
CONTINUOUS
10
0.423707716535433
20
1.9650329133858266
11
0.4236520472440945
21
1.9650042913385826
0
LINE
8
BLACK
6
CONTINUOUS
10
0.4236520472440945
20
1.9650042913385826
11
0.4235377952755905
21
1.9649104724409447
0
LINE
8
BLACK
6
CONTINUOUS
10
0.4235377952755905
20
1.9649104724409447
11
0.4231909842519685
21
1.9647668503937008
0
LINE
8
BLACK
6
CONTINUOUS
10
0.4231909842519685
20
1.9647668503937008
11
0.4194683070866141
21
1.9628498031496062
0
LINE
8
BLACK
6
CONTINUOUS
10
0.4194683070866141
20
1.9628498031496062
11
0.4189276771653543
21
1.9626429133858267
0
LINE
8
BLACK
6
CONTINUOUS
10
0.4189276771653543
20
1.9626429133858267
11
0.4177784645669291
21
1.9625612598425197
0
LINE
8
BLACK
6
CONTINUOUS
10
0.4177784645669291
20
1.9625612598425197
11
0.4166855118110236
21
1.9629255905511811
0
LINE
8
BLACK
6
CONTINUOUS
10
0.4166855118110236
20
1.9629255905511811
11
0.4158151181102362
21
1.9636804330708661
0
LINE
8
BLACK
6
CONTINUOUS
10
0.4158151181102362
20
1.9636804330708661
11
0.4152998818897637
21
1.9647109448818898
0
LINE
8
BLACK
6
CONTINUOUS
10
0.4152998818897637
20
1.9647109448818898
11
0.4152182283464567
21
1.965860157480315
0
LINE
8
BLACK
6
CONTINUOUS
10
0.4152182283464567
20
1.965860157480315
11
0.4155825590551181
21
1.9669531102362203
0
LINE
8
BLACK
6
CONTINUOUS
10
0.4155825590551181
20
1.9669531102362203
11
0.4163374015748031
21
1.9678235039370078
0
LINE
8
BLACK
6
CONTINUOUS
10
0.4163374015748031
20
1.9678235039370078
11
0.4202672440944882
21
1.9698472440944881
0
LINE
8
BLACK
6
CONTINUOUS
10
0.4202672440944882
20
1.9698472440944881
11
0.4235244881889764
21
1.9731679527559054
0
LINE
8
BLACK
6
CONTINUOUS
10
0.4235244881889764
20
1.9731679527559054
11
0.4269395275590551
21
1.9783773228346457
0
LINE
8
BLACK
6
CONTINUOUS
10
0.4269395275590551
20
1.9783773228346457
11
0.4269408661417323
21
1.9783790157480314
0
LINE
8
BLACK
6
CONTINUOUS
10
0.4269408661417323
20
1.9783790157480314
11
0.4269412598425197
21
1.9783798818897638
0
LINE
8
BLACK
6
CONTINUOUS
10
0.4269412598425197
20
1.9783798818897638
11
0.4269432677165354
21
1.9783819291338582
0
LINE
8
BLACK
6
CONTINUOUS
10
0.4269432677165354
20
1.9783819291338582
11
0.4273062992125984
21
1.9788251574803148
0
LINE
8
BLACK
6
CONTINUOUS
10
0.4273062992125984
20
1.9788251574803148
11
0.4275491732283465
21
1.9789878346456693
0
LINE
8
BLACK
6
CONTINUOUS
10
0.4275491732283465
20
1.9789878346456693
11
0.427755905511811
21
1.979194527559055
0
LINE
8
BLACK
6
CONTINUOUS
10
0.427755905511811
20
1.979194527559055
11
0.4280231889763779
21
1.9793052755905511
0
LINE
8
BLACK
6
CONTINUOUS
10
0.4280231889763779
20
1.9793052755905511
11
0.4282635826771654
21
1.9794662204724409
0
LINE
8
BLACK
6
CONTINUOUS
10
0.4282635826771654
20
1.9794662204724409
11
0.4285501968503937
21
1.9795235826771653
0
LINE
8
BLACK
6
CONTINUOUS
10
0.4285501968503937
20
1.9795235826771653
11
0.4288203149606299
21
1.9796354330708661
0
LINE
8
BLACK
6
CONTINUOUS
10
0.4288203149606299
20
1.9796354330708661
11
0.4291096062992126
21
1.9796354330708661
0
LINE
8
BLACK
6
CONTINUOUS
10
0.4291096062992126
20
1.9796354330708661
11
0.4293932677165354
21
1.9796921653543307
0
LINE
8
BLACK
6
CONTINUOUS
10
0.4293932677165354
20
1.9796921653543307
11
0.4296800393700787
21
1.9796354330708661
0
LINE
8
BLACK
6
CONTINUOUS
10
0.4693425196850394
20
1.9796354330708661
11
0.4694405118110236
21
1.979594842519685
0
LINE
8
BLACK
6
CONTINUOUS
10
0.4694405118110236
20
1.979594842519685
11
0.4695463385826771
21
1.9795873228346457
0
LINE
8
BLACK
6
CONTINUOUS
10
0.4695463385826771
20
1.9795873228346457
11
0.470057874015748
21
1.9793391338582678
0
LINE
8
BLACK
6
CONTINUOUS
10
0.470057874015748
20
1.9793391338582678
11
0.4704069291338582
21
1.979194527559055
0
LINE
8
BLACK
6
CONTINUOUS
10
0.4704069291338582
20
1.979194527559055
11
0.4704550393700787
21
1.9791464173228346
0
LINE
8
BLACK
6
CONTINUOUS
10
0.4704550393700787
20
1.9791464173228346
11
0.4738364960629921
21
1.9775056692913386
0
LINE
8
BLACK
6
CONTINUOUS
10
0.4738364960629921
20
1.9775056692913386
11
0.4740844881889764
21
1.9773496062992126
0
LINE
8
BLACK
6
CONTINUOUS
10
0.4740844881889764
20
1.9773496062992126
11
0.4741564566929134
21
1.9773197637795275
0
LINE
8
BLACK
6
CONTINUOUS
10
0.4741564566929134
20
1.9773197637795275
11
0.4742025196850393
21
1.9772752755905512
0
LINE
8
BLACK
6
CONTINUOUS
10
0.4742025196850393
20
1.9772752755905512
11
0.4743263779527559
21
1.9771973228346456
0
LINE
8
BLACK
6
CONTINUOUS
10
0.4743263779527559
20
1.9771973228346456
11
0.4745481102362205
21
1.9769416535433071
0
LINE
8
BLACK
6
CONTINUOUS
10
0.4745481102362205
20
1.9769416535433071
11
0.4764786614173228
21
1.9750777952755905
0
LINE
8
BLACK
6
CONTINUOUS
10
0.4764786614173228
20
1.9750777952755905
11
0.4766644094488189
21
1.9748514566929134
0
LINE
8
BLACK
6
CONTINUOUS
10
0.4766644094488189
20
1.9748514566929134
11
0.4767234251968504
21
1.9748002755905512
0
LINE
8
BLACK
6
CONTINUOUS
10
0.4767234251968504
20
1.9748002755905512
11
0.4767520472440945
21
1.9747446456692912
0
LINE
8
BLACK
6
CONTINUOUS
10
0.4767520472440945
20
1.9747446456692912
11
0.4768458661417323
21
1.9746303543307087
0
LINE
8
BLACK
6
CONTINUOUS
10
0.4768458661417323
20
1.9746303543307087
11
0.4769895275590551
21
1.9742835039370079
0
LINE
8
BLACK
6
CONTINUOUS
10
0.4769895275590551
20
1.9742835039370079
11
0.4789065354330709
21
1.9705608661417322
0
LINE
8
BLACK
6
CONTINUOUS
10
0.4789065354330709
20
1.9705608661417322
11
0.4789226377952756
21
1.9705187795275589
0
LINE
8
BLACK
6
CONTINUOUS
10
0.4789226377952756
20
1.9705187795275589
11
0.4789353543307087
21
1.9705016141732283
0
LINE
8
BLACK
6
CONTINUOUS
10
0.4789353543307087
20
1.9705016141732283
11
0.4789479133858268
21
1.9704526771653543
0
LINE
8
BLACK
6
CONTINUOUS
10
0.4789479133858268
20
1.9704526771653543
11
0.4791134251968504
21
1.9700202755905512
0
LINE
8
BLACK
6
CONTINUOUS
10
0.4791134251968504
20
1.9700202755905512
11
0.4791340944881889
21
1.9697290551181101
0
LINE
8
BLACK
6
CONTINUOUS
10
0.4791340944881889
20
1.9697290551181101
11
0.4810048818897638
21
1.9624574409448818
0
LINE
8
BLACK
6
CONTINUOUS
10
0.4810048818897638
20
1.9624574409448818
11
0.4810196456692913
21
1.9623575984251969
0
LINE
8
BLACK
6
CONTINUOUS
10
0.4810196456692913
20
1.9623575984251969
11
0.4810362992125984
21
1.9623173622047243
0
LINE
8
BLACK
6
CONTINUOUS
10
0.4810362992125984
20
1.9623173622047243
11
0.4810366929133858
21
1.9622420078740157
0
LINE
8
BLACK
6
CONTINUOUS
10
0.4810366929133858
20
1.9622420078740157
11
0.4810895275590551
21
1.9618848425196851
0
LINE
8
BLACK
6
CONTINUOUS
10
0.4810895275590551
20
1.9618848425196851
11
0.4810406299212598
21
1.9615562992125983
0
LINE
8
BLACK
6
CONTINUOUS
10
0.4810406299212598
20
1.9615562992125983
11
0.481093031496063
21
1.9523674803149607
0
LINE
8
BLACK
6
CONTINUOUS
10
0.481093031496063
20
1.9523674803149607
11
0.4810831102362205
21
1.9522669685039369
0
LINE
8
BLACK
6
CONTINUOUS
10
0.4810831102362205
20
1.9522669685039369
11
0.4810895275590551
21
1.952223937007874
0
LINE
8
BLACK
6
CONTINUOUS
10
0.4810895275590551
20
1.952223937007874
11
0.4810716141732284
21
1.9521502755905511
0
LINE
8
BLACK
6
CONTINUOUS
10
0.4810716141732284
20
1.9521502755905511
11
0.4810362992125984
21
1.9517914173228346
0
LINE
8
BLACK
6
CONTINUOUS
10
0.4810362992125984
20
1.9517914173228346
11
0.4809112204724409
21
1.9514895275590551
0
LINE
8
BLACK
6
CONTINUOUS
10
0.4809112204724409
20
1.9514895275590551
11
0.4791301181102362
21
1.9441522834645668
0
LINE
8
BLACK
6
CONTINUOUS
10
0.4791301181102362
20
1.9441522834645668
11
0.4791149212598425
21
1.9441098031496062
0
LINE
8
BLACK
6
CONTINUOUS
10
0.4791149212598425
20
1.9441098031496062
11
0.4791134251968504
21
1.9440885039370079
0
LINE
8
BLACK
6
CONTINUOUS
10
0.4791134251968504
20
1.9440885039370079
11
0.4790902755905512
21
1.9440408661417323
0
LINE
8
BLACK
6
CONTINUOUS
10
0.4790902755905512
20
1.9440408661417323
11
0.4789353543307087
21
1.9436071653543308
0
LINE
8
BLACK
6
CONTINUOUS
10
0.4789353543307087
20
1.9436071653543308
11
0.4787746062992126
21
1.9433902362204725
0
LINE
8
BLACK
6
CONTINUOUS
10
0.4787746062992126
20
1.9433902362204725
11
0.4770317716535433
21
1.9397983858267716
0
LINE
8
BLACK
6
CONTINUOUS
10
0.4770317716535433
20
1.9397983858267716
11
0.4768757086614173
21
1.9395505118110237
0
LINE
8
BLACK
6
CONTINUOUS
10
0.4768757086614173
20
1.9395505118110237
11
0.476845905511811
21
1.9394784645669292
0
LINE
8
BLACK
6
CONTINUOUS
10
0.476845905511811
20
1.9394784645669292
11
0.4768013385826771
21
1.9394323622047243
0
LINE
8
BLACK
6
CONTINUOUS
10
0.4768013385826771
20
1.9394323622047243
11
0.4767234251968504
21
1.9393085039370079
0
LINE
8
BLACK
6
CONTINUOUS
10
0.4767234251968504
20
1.9393085039370079
11
0.4764677559055118
21
1.9390868110236219
0
LINE
8
BLACK
6
CONTINUOUS
10
0.4764677559055118
20
1.9390868110236219
11
0.474603937007874
21
1.9371562204724408
0
LINE
8
BLACK
6
CONTINUOUS
10
0.474603937007874
20
1.9371562204724408
11
0.4743775590551181
21
1.9369704724409449
0
LINE
8
BLACK
6
CONTINUOUS
10
0.4743775590551181
20
1.9369704724409449
11
0.4743263779527559
21
1.9369114173228346
0
LINE
8
BLACK
6
CONTINUOUS
10
0.4743263779527559
20
1.9369114173228346
11
0.4742707086614173
21
1.9368827952755905
0
LINE
8
BLACK
6
CONTINUOUS
10
0.4742707086614173
20
1.9368827952755905
11
0.4741564566929134
21
1.9367889763779527
0
LINE
8
BLACK
6
CONTINUOUS
10
0.4741564566929134
20
1.9367889763779527
11
0.4738095669291338
21
1.93664531496063
0
LINE
8
BLACK
6
CONTINUOUS
10
0.4738095669291338
20
1.93664531496063
11
0.470086968503937
21
1.9347283070866141
0
LINE
8
BLACK
6
CONTINUOUS
10
0.470086968503937
20
1.9347283070866141
11
0.4695463385826771
21
1.9345214173228347
0
LINE
8
BLACK
6
CONTINUOUS
10
0.4695463385826771
20
1.9345214173228347
11
0.4694405118110236
21
1.9345139370078739
0
LINE
8
BLACK
6
CONTINUOUS
10
0.4694405118110236
20
1.9345139370078739
11
0.4693425196850394
21
1.934473307086614
0
LINE
8
BLACK
6
CONTINUOUS
10
0.4693425196850394
20
1.934473307086614
11
0.4687620472440945
21
1.9344657086614172
0
LINE
8
BLACK
6
CONTINUOUS
10
0.4687620472440945
20
1.9344657086614172
11
0.468397125984252
21
1.9344397637795274
0
LINE
8
BLACK
6
CONTINUOUS
10
0.468397125984252
20
1.9344397637795274
11
0.468336062992126
21
1.9344601181102361
0
LINE
8
BLACK
6
CONTINUOUS
10
0.468336062992126
20
1.9344601181102361
11
0.4650169291338583
21
1.9344165748031497
0
LINE
8
BLACK
6
CONTINUOUS
10
0.4650169291338583
20
1.9344165748031497
11
0.4644408661417323
21
1.934473307086614
0
LINE
8
BLACK
6
CONTINUOUS
10
0.4644408661417323
20
1.934473307086614
11
0.464342874015748
21
1.9345138976377951
0
LINE
8
BLACK
6
CONTINUOUS
10
0.464342874015748
20
1.9345138976377951
11
0.4642370078740157
21
1.9345214173228347
0
LINE
8
BLACK
6
CONTINUOUS
10
0.4642370078740157
20
1.9345214173228347
11
0.4637252362204724
21
1.9347697637795276
0
LINE
8
BLACK
6
CONTINUOUS
10
0.4637252362204724
20
1.9347697637795276
11
0.4633764566929134
21
1.9349142125984251
0
LINE
8
BLACK
6
CONTINUOUS
10
0.4633764566929134
20
1.9349142125984251
11
0.4633283464566929
21
1.9349623228346455
0
LINE
8
BLACK
6
CONTINUOUS
10
0.4633283464566929
20
1.9349623228346455
11
0.4599468897637795
21
1.9366030708661417
0
LINE
8
BLACK
6
CONTINUOUS
10
0.4599468897637795
20
1.9366030708661417
11
0.4596988582677165
21
1.9367591732283465
0
LINE
8
BLACK
6
CONTINUOUS
10
0.4596988582677165
20
1.9367591732283465
11
0.4596269291338583
21
1.9367889763779527
0
LINE
8
BLACK
6
CONTINUOUS
10
0.4596269291338583
20
1.9367889763779527
11
0.4595808267716535
21
1.9368335039370079
0
LINE
8
BLACK
6
CONTINUOUS
10
0.4595808267716535
20
1.9368335039370079
11
0.4594570078740157
21
1.9369114173228346
0
LINE
8
BLACK
6
CONTINUOUS
10
0.4594570078740157
20
1.9369114173228346
11
0.4592351968503937
21
1.9371672047244095
0
LINE
8
BLACK
6
CONTINUOUS
10
0.4592351968503937
20
1.9371672047244095
11
0.4573046850393701
21
1.9390310236220472
0
LINE
8
BLACK
6
CONTINUOUS
10
0.4573046850393701
20
1.9390310236220472
11
0.457118937007874
21
1.9392573622047244
0
LINE
8
BLACK
6
CONTINUOUS
10
0.457118937007874
20
1.9392573622047244
11
0.4570599606299213
21
1.9393085039370079
0
LINE
8
BLACK
6
CONTINUOUS
10
0.4570599606299213
20
1.9393085039370079
11
0.4570312992125984
21
1.9393641338582677
0
LINE
8
BLACK
6
CONTINUOUS
10
0.4570312992125984
20
1.9393641338582677
11
0.4569374803149606
21
1.9394784645669292
0
LINE
8
BLACK
6
CONTINUOUS
10
0.4569374803149606
20
1.9394784645669292
11
0.4567937795275591
21
1.9398253937007874
0
LINE
8
BLACK
6
CONTINUOUS
10
0.4567937795275591
20
1.9398253937007874
11
0.4548768503937008
21
1.9435479133858267
0
LINE
8
BLACK
6
CONTINUOUS
10
0.4548768503937008
20
1.9435479133858267
11
0.4548607086614173
21
1.9435900393700787
0
LINE
8
BLACK
6
CONTINUOUS
10
0.4548607086614173
20
1.9435900393700787
11
0.454848031496063
21
1.9436071653543308
0
LINE
8
BLACK
6
CONTINUOUS
10
0.454848031496063
20
1.9436071653543308
11
0.4548353937007874
21
1.9436561811023623
0
LINE
8
BLACK
6
CONTINUOUS
10
0.4548353937007874
20
1.9436561811023623
11
0.4546699606299213
21
1.9440885433070865
0
LINE
8
BLACK
6
CONTINUOUS
10
0.4546699606299213
20
1.9440885433070865
11
0.4546492519685039
21
1.9443797637795275
0
LINE
8
BLACK
6
CONTINUOUS
10
0.4546492519685039
20
1.9443797637795275
11
0.4527785039370079
21
1.951651338582677
0
LINE
8
BLACK
6
CONTINUOUS
10
0.4527785039370079
20
1.951651338582677
11
0.4527637007874016
21
1.951751220472441
0
LINE
8
BLACK
6
CONTINUOUS
10
0.4527637007874016
20
1.951751220472441
11
0.4527470866141732
21
1.9517914173228346
0
LINE
8
BLACK
6
CONTINUOUS
10
0.4527470866141732
20
1.9517914173228346
11
0.4527466535433071
21
1.9518668110236219
0
LINE
8
BLACK
6
CONTINUOUS
10
0.4527466535433071
20
1.9518668110236219
11
0.4526938582677165
21
1.952223937007874
0
LINE
8
BLACK
6
CONTINUOUS
10
0.4526938582677165
20
1.952223937007874
11
0.4527427165354331
21
1.9525525196850393
0
LINE
8
BLACK
6
CONTINUOUS
10
0.4527427165354331
20
1.9525525196850393
11
0.4526903543307086
21
1.9617412992125984
0
LINE
8
BLACK
6
CONTINUOUS
10
0.4526903543307086
20
1.9617412992125984
11
0.4527002362204725
21
1.9618418503937007
0
LINE
8
BLACK
6
CONTINUOUS
10
0.4527002362204725
20
1.9618418503937007
11
0.4526938582677165
21
1.9618848425196851
0
LINE
8
BLACK
6
CONTINUOUS
10
0.4526938582677165
20
1.9618848425196851
11
0.4527117322834646
21
1.9619585433070865
0
LINE
8
BLACK
6
CONTINUOUS
10
0.4527117322834646
20
1.9619585433070865
11
0.4527470866141732
21
1.9623173622047243
0
LINE
8
BLACK
6
CONTINUOUS
10
0.4527470866141732
20
1.9623173622047243
11
0.452872125984252
21
1.9626192913385827
0
LINE
8
BLACK
6
CONTINUOUS
10
0.452872125984252
20
1.9626192913385827
11
0.4546532677165354
21
1.9699564960629921
0
LINE
8
BLACK
6
CONTINUOUS
10
0.4546532677165354
20
1.9699564960629921
11
0.4546684251968504
21
1.9699990157480314
0
LINE
8
BLACK
6
CONTINUOUS
10
0.4546684251968504
20
1.9699990157480314
11
0.4546699606299213
21
1.9700202362204724
0
LINE
8
BLACK
6
CONTINUOUS
10
0.4546699606299213
20
1.9700202362204724
11
0.4546929921259842
21
1.9700677952755905
0
LINE
8
BLACK
6
CONTINUOUS
10
0.4546929921259842
20
1.9700677952755905
11
0.454848031496063
21
1.9705016141732283
0
LINE
8
BLACK
6
CONTINUOUS
10
0.454848031496063
20
1.9705016141732283
11
0.4550088188976378
21
1.9707186220472441
0
LINE
8
BLACK
6
CONTINUOUS
10
0.4550088188976378
20
1.9707186220472441
11
0.4567516141732283
21
1.9743103937007873
0
LINE
8
BLACK
6
CONTINUOUS
10
0.4567516141732283
20
1.9743103937007873
11
0.4569076771653543
21
1.9745584251968504
0
LINE
8
BLACK
6
CONTINUOUS
10
0.4569076771653543
20
1.9745584251968504
11
0.4569375196850394
21
1.9746303543307087
0
LINE
8
BLACK
6
CONTINUOUS
10
0.4569375196850394
20
1.9746303543307087
11
0.4569820078740157
21
1.9746764566929134
0
LINE
8
BLACK
6
CONTINUOUS
10
0.4569820078740157
20
1.9746764566929134
11
0.4570599606299213
21
1.9748002755905512
0
LINE
8
BLACK
6
CONTINUOUS
10
0.4570599606299213
20
1.9748002755905512
11
0.4573156299212598
21
1.9750220472440945
0
LINE
8
BLACK
6
CONTINUOUS
10
0.4573156299212598
20
1.9750220472440945
11
0.4591794881889764
21
1.976952559055118
0
LINE
8
BLACK
6
CONTINUOUS
10
0.4591794881889764
20
1.976952559055118
11
0.4594058267716535
21
1.977138346456693
0
LINE
8
BLACK
6
CONTINUOUS
10
0.4594058267716535
20
1.977138346456693
11
0.4594570078740157
21
1.9771973228346456
0
LINE
8
BLACK
6
CONTINUOUS
10
0.4594570078740157
20
1.9771973228346456
11
0.4595126377952756
21
1.9772259842519684
0
LINE
8
BLACK
6
CONTINUOUS
10
0.4595126377952756
20
1.9772259842519684
11
0.4596269291338583
21
1.9773197637795275
0
LINE
8
BLACK
6
CONTINUOUS
10
0.4596269291338583
20
1.9773197637795275
11
0.459973779527559
21
1.9774634645669291
0
LINE
8
BLACK
6
CONTINUOUS
10
0.459973779527559
20
1.9774634645669291
11
0.4636964173228346
21
1.9793804330708662
0
LINE
8
BLACK
6
CONTINUOUS
10
0.4636964173228346
20
1.9793804330708662
11
0.4642370078740157
21
1.9795873228346457
0
LINE
8
BLACK
6
CONTINUOUS
10
0.4642370078740157
20
1.9795873228346457
11
0.464342874015748
21
1.9795948818897637
0
LINE
8
BLACK
6
CONTINUOUS
10
0.464342874015748
20
1.9795948818897637
11
0.4644408661417323
21
1.9796354330708661
0
LINE
8
BLACK
6
CONTINUOUS
10
0.4644408661417323
20
1.9796354330708661
11
0.4650212204724409
21
1.9796430708661417
0
LINE
8
BLACK
6
CONTINUOUS
10
0.4650212204724409
20
1.9796430708661417
11
0.4653862204724409
21
1.9796689763779527
0
LINE
8
BLACK
6
CONTINUOUS
10
0.4653862204724409
20
1.9796689763779527
11
0.4654472440944882
21
1.9796486614173228
0
LINE
8
BLACK
6
CONTINUOUS
10
0.4654472440944882
20
1.9796486614173228
11
0.4687664566929134
21
1.9796921653543307
0
LINE
8
BLACK
6
CONTINUOUS
10
0.4687664566929134
20
1.9796921653543307
11
0.4693425196850394
21
1.9796354330708661
0
LINE
8
BLACK
6
CONTINUOUS
10
0.4656390157480315
20
1.973794842519685
11
0.4629232283464567
21
1.972396338582677
0
LINE
8
BLACK
6
CONTINUOUS
10
0.4629232283464567
20
1.972396338582677
11
0.4617325196850394
21
1.9711629921259841
0
LINE
8
BLACK
6
CONTINUOUS
10
0.4617325196850394
20
1.9711629921259841
11
0.460203937007874
21
1.9680127165354331
0
LINE
8
BLACK
6
CONTINUOUS
10
0.460203937007874
20
1.9680127165354331
11
0.4585455905511811
21
1.9611812992125983
0
LINE
8
BLACK
6
CONTINUOUS
10
0.4585455905511811
20
1.9611812992125983
11
0.4585949212598425
21
1.9525327559055117
0
LINE
8
BLACK
6
CONTINUOUS
10
0.4585949212598425
20
1.9525327559055117
11
0.4603509448818898
21
1.9457070866141732
0
LINE
8
BLACK
6
CONTINUOUS
10
0.4603509448818898
20
1.9457070866141732
11
0.4618609842519685
21
1.9427747637795276
0
LINE
8
BLACK
6
CONTINUOUS
10
0.4618609842519685
20
1.9427747637795276
11
0.4630943307086614
21
1.9415839763779528
0
LINE
8
BLACK
6
CONTINUOUS
10
0.4630943307086614
20
1.9415839763779528
11
0.4657757874015748
21
1.9402828740157481
0
LINE
8
BLACK
6
CONTINUOUS
10
0.4657757874015748
20
1.9402828740157481
11
0.4681443307086614
21
1.9403139370078739
0
LINE
8
BLACK
6
CONTINUOUS
10
0.4681443307086614
20
1.9403139370078739
11
0.4708600787401575
21
1.9417124409448818
0
LINE
8
BLACK
6
CONTINUOUS
10
0.4708600787401575
20
1.9417124409448818
11
0.4720508661417323
21
1.9429458661417323
0
LINE
8
BLACK
6
CONTINUOUS
10
0.4720508661417323
20
1.9429458661417323
11
0.4735794094488189
21
1.9460961023622048
0
LINE
8
BLACK
6
CONTINUOUS
10
0.4735794094488189
20
1.9460961023622048
11
0.4752377559055118
21
1.9529275196850393
0
LINE
8
BLACK
6
CONTINUOUS
10
0.4752377559055118
20
1.9529275196850393
11
0.4751884251968504
21
1.9615760629921259
0
LINE
8
BLACK
6
CONTINUOUS
10
0.4751884251968504
20
1.9615760629921259
11
0.4734324015748032
21
1.9684017322834646
0
LINE
8
BLACK
6
CONTINUOUS
10
0.4734324015748032
20
1.9684017322834646
11
0.4719224015748031
21
1.9713340551181102
0
LINE
8
BLACK
6
CONTINUOUS
10
0.4719224015748031
20
1.9713340551181102
11
0.4706890551181102
21
1.9725247637795276
0
LINE
8
BLACK
6
CONTINUOUS
10
0.4706890551181102
20
1.9725247637795276
11
0.4680075590551181
21
1.973825905511811
0
LINE
8
BLACK
6
CONTINUOUS
10
0.4680075590551181
20
1.973825905511811
11
0.4656390157480315
21
1.973794842519685
0
LINE
8
BLACK
6
CONTINUOUS
10
0.5234183070866142
20
1.9796354330708661
11
0.5237107086614173
21
1.9796354330708661
0
LINE
8
BLACK
6
CONTINUOUS
10
0.5237107086614173
20
1.9796354330708661
11
0.5239779527559055
21
1.9795247244094487
0
LINE
8
BLACK
6
CONTINUOUS
10
0.5239779527559055
20
1.9795247244094487
11
0.5242617716535433
21
1.9794685826771654
0
LINE
8
BLACK
6
CONTINUOUS
10
0.5242617716535433
20
1.9794685826771654
11
0.5245050393700788
21
1.9793064173228345
0
LINE
8
BLACK
6
CONTINUOUS
10
0.5245050393700788
20
1.9793064173228345
11
0.5247751181102362
21
1.979194527559055
0
LINE
8
BLACK
6
CONTINUOUS
10
0.5247751181102362
20
1.979194527559055
11
0.5249795669291338
21
1.9789900787401575
0
LINE
8
BLACK
6
CONTINUOUS
10
0.5249795669291338
20
1.9789900787401575
11
0.5252203937007874
21
1.9788295275590551
0
LINE
8
BLACK
6
CONTINUOUS
10
0.5252203937007874
20
1.9788295275590551
11
0.5253831102362204
21
1.9785865354330707
0
LINE
8
BLACK
6
CONTINUOUS
10
0.5253831102362204
20
1.9785865354330707
11
0.5255897637795276
21
1.9783798818897638
0
LINE
8
BLACK
6
CONTINUOUS
10
0.5255897637795276
20
1.9783798818897638
11
0.5257004330708661
21
1.9781126771653543
0
LINE
8
BLACK
6
CONTINUOUS
10
0.5257004330708661
20
1.9781126771653543
11
0.5258614566929134
21
1.9778722440944883
0
LINE
8
BLACK
6
CONTINUOUS
10
0.5258614566929134
20
1.9778722440944883
11
0.5259187795275591
21
1.977585590551181
0
LINE
8
BLACK
6
CONTINUOUS
10
0.5259187795275591
20
1.977585590551181
11
0.5260306692913386
21
1.9773154724409447
0
LINE
8
BLACK
6
CONTINUOUS
10
0.5260306692913386
20
1.9773154724409447
11
0.526031062992126
21
1.9770241338582677
0
LINE
8
BLACK
6
CONTINUOUS
10
0.526031062992126
20
1.9770241338582677
11
0.5260874015748032
21
1.9767425196850392
0
LINE
8
BLACK
6
CONTINUOUS
10
0.5260874015748032
20
1.9767425196850392
11
0.5260318503937008
21
1.9764618897637796
0
LINE
8
BLACK
6
CONTINUOUS
10
0.5260318503937008
20
1.9764618897637796
11
0.5260832283464567
21
1.9403016929133858
0
LINE
8
BLACK
6
CONTINUOUS
10
0.5260832283464567
20
1.9403016929133858
11
0.5343832283464567
21
1.9403220866141733
0
LINE
8
BLACK
6
CONTINUOUS
10
0.5343832283464567
20
1.9403220866141733
11
0.5349592913385827
21
1.9402653543307087
0
LINE
8
BLACK
6
CONTINUOUS
10
0.5349592913385827
20
1.9402653543307087
11
0.5360237007874016
21
1.9398244488188976
0
LINE
8
BLACK
6
CONTINUOUS
10
0.5360237007874016
20
1.9398244488188976
11
0.5368383464566929
21
1.9390098031496064
0
LINE
8
BLACK
6
CONTINUOUS
10
0.5368383464566929
20
1.9390098031496064
11
0.5372792519685039
21
1.9379453937007873
0
LINE
8
BLACK
6
CONTINUOUS
10
0.5372792519685039
20
1.9379453937007873
11
0.5372792519685039
21
1.9367932677165354
0
LINE
8
BLACK
6
CONTINUOUS
10
0.5372792519685039
20
1.9367932677165354
11
0.5368383464566929
21
1.9357288582677166
0
LINE
8
BLACK
6
CONTINUOUS
10
0.5368383464566929
20
1.9357288582677166
11
0.5360237007874016
21
1.9349142125984251
0
LINE
8
BLACK
6
CONTINUOUS
10
0.5360237007874016
20
1.9349142125984251
11
0.5349592913385827
21
1.934473307086614
0
LINE
8
BLACK
6
CONTINUOUS
10
0.5349592913385827
20
1.934473307086614
11
0.511886062992126
21
1.9344165748031497
0
LINE
8
BLACK
6
CONTINUOUS
10
0.511886062992126
20
1.9344165748031497
11
0.51131
21
1.934473307086614
0
LINE
8
BLACK
6
CONTINUOUS
10
0.51131
20
1.934473307086614
11
0.5102455905511811
21
1.9349142125984251
0
LINE
8
BLACK
6
CONTINUOUS
10
0.5102455905511811
20
1.9349142125984251
11
0.5094309448818898
21
1.9357288582677166
0
LINE
8
BLACK
6
CONTINUOUS
10
0.5094309448818898
20
1.9357288582677166
11
0.5089900393700787
21
1.9367932677165354
0
LINE
8
BLACK
6
CONTINUOUS
10
0.5089900393700787
20
1.9367932677165354
11
0.5089900393700787
21
1.9379453937007873
0
LINE
8
BLACK
6
CONTINUOUS
10
0.5089900393700787
20
1.9379453937007873
11
0.5094309448818898
21
1.9390098031496064
0
LINE
8
BLACK
6
CONTINUOUS
10
0.5094309448818898
20
1.9390098031496064
11
0.5102455905511811
21
1.9398244488188976
0
LINE
8
BLACK
6
CONTINUOUS
10
0.5102455905511811
20
1.9398244488188976
11
0.51131
21
1.9402653543307087
0
LINE
8
BLACK
6
CONTINUOUS
10
0.51131
20
1.9402653543307087
11
0.5202336220472441
21
1.9402873228346456
0
LINE
8
BLACK
6
CONTINUOUS
10
0.5202336220472441
20
1.9402873228346456
11
0.5201945669291338
21
1.9677969291338582
0
LINE
8
BLACK
6
CONTINUOUS
10
0.5201945669291338
20
1.9677969291338582
11
0.5177235039370078
21
1.9652776771653542
0
LINE
8
BLACK
6
CONTINUOUS
10
0.5177235039370078
20
1.9652776771653542
11
0.5174971259842519
21
1.9650919291338582
0
LINE
8
BLACK
6
CONTINUOUS
10
0.5174971259842519
20
1.9650919291338582
11
0.5174459842519685
21
1.9650329133858266
0
LINE
8
BLACK
6
CONTINUOUS
10
0.5174459842519685
20
1.9650329133858266
11
0.5173903149606299
21
1.9650042913385826
0
LINE
8
BLACK
6
CONTINUOUS
10
0.5173903149606299
20
1.9650042913385826
11
0.5172760629921259
21
1.9649104724409447
0
LINE
8
BLACK
6
CONTINUOUS
10
0.5172760629921259
20
1.9649104724409447
11
0.5169292519685039
21
1.9647668503937008
0
LINE
8
BLACK
6
CONTINUOUS
10
0.5169292519685039
20
1.9647668503937008
11
0.5132065748031496
21
1.9628498031496062
0
LINE
8
BLACK
6
CONTINUOUS
10
0.5132065748031496
20
1.9628498031496062
11
0.5126659448818898
21
1.9626429133858267
0
LINE
8
BLACK
6
CONTINUOUS
10
0.5126659448818898
20
1.9626429133858267
11
0.5115167322834645
21
1.9625612598425197
0
LINE
8
BLACK
6
CONTINUOUS
10
0.5115167322834645
20
1.9625612598425197
11
0.510423779527559
21
1.9629255905511811
0
LINE
8
BLACK
6
CONTINUOUS
10
0.510423779527559
20
1.9629255905511811
11
0.5095533858267717
21
1.9636804330708661
0
LINE
8
BLACK
6
CONTINUOUS
10
0.5095533858267717
20
1.9636804330708661
11
0.5090381496062992
21
1.9647109448818898
0
LINE
8
BLACK
6
CONTINUOUS
10
0.5090381496062992
20
1.9647109448818898
11
0.5089564960629921
21
1.965860157480315
0
LINE
8
BLACK
6
CONTINUOUS
10
0.5089564960629921
20
1.965860157480315
11
0.5093208267716536
21
1.9669531102362203
0
LINE
8
BLACK
6
CONTINUOUS
10
0.5093208267716536
20
1.9669531102362203
11
0.5100756692913385
21
1.9678235039370078
0
LINE
8
BLACK
6
CONTINUOUS
10
0.5100756692913385
20
1.9678235039370078
11
0.5140055118110236
21
1.9698472440944881
0
LINE
8
BLACK
6
CONTINUOUS
10
0.5140055118110236
20
1.9698472440944881
11
0.5172627559055119
21
1.9731679527559054
0
LINE
8
BLACK
6
CONTINUOUS
10
0.5172627559055119
20
1.9731679527559054
11
0.5206777952755905
21
1.9783773228346457
0
LINE
8
BLACK
6
CONTINUOUS
10
0.5206777952755905
20
1.9783773228346457
11
0.5206791338582677
21
1.9783790157480314
0
LINE
8
BLACK
6
CONTINUOUS
10
0.5206791338582677
20
1.9783790157480314
11
0.5206795275590551
21
1.9783798818897638
0
LINE
8
BLACK
6
CONTINUOUS
10
0.5206795275590551
20
1.9783798818897638
11
0.5206815354330708
21
1.9783819291338582
0
LINE
8
BLACK
6
CONTINUOUS
10
0.5206815354330708
20
1.9783819291338582
11
0.5210445669291338
21
1.9788251574803148
0
LINE
8
BLACK
6
CONTINUOUS
10
0.5210445669291338
20
1.9788251574803148
11
0.5212874409448819
21
1.9789878346456693
0
LINE
8
BLACK
6
CONTINUOUS
10
0.5212874409448819
20
1.9789878346456693
11
0.5214941732283465
21
1.979194527559055
0
LINE
8
BLACK
6
CONTINUOUS
10
0.5214941732283465
20
1.979194527559055
11
0.5217614566929134
21
1.9793052755905511
0
LINE
8
BLACK
6
CONTINUOUS
10
0.5217614566929134
20
1.9793052755905511
11
0.5220018503937007
21
1.9794662204724409
0
LINE
8
BLACK
6
CONTINUOUS
10
0.5220018503937007
20
1.9794662204724409
11
0.5222884645669291
21
1.9795235826771653
0
LINE
8
BLACK
6
CONTINUOUS
10
0.5222884645669291
20
1.9795235826771653
11
0.5225585826771654
21
1.9796354330708661
0
LINE
8
BLACK
6
CONTINUOUS
10
0.5225585826771654
20
1.9796354330708661
11
0.5228478740157481
21
1.9796354330708661
0
LINE
8
BLACK
6
CONTINUOUS
10
0.5228478740157481
20
1.9796354330708661
11
0.5231315354330709
21
1.9796921653543307
0
LINE
8
BLACK
6
CONTINUOUS
10
0.5231315354330709
20
1.9796921653543307
11
0.5234183070866142
21
1.9796354330708661
0
LINE
8
BLACK
6
CONTINUOUS
10
0.5687050787401575
20
1.9796354330708661
11
0.5697694881889763
21
1.979194527559055
0
LINE
8
BLACK
6
CONTINUOUS
10
0.5697694881889763
20
1.979194527559055
11
0.5705841338582677
21
1.9783798818897638
0
LINE
8
BLACK
6
CONTINUOUS
10
0.5705841338582677
20
1.9783798818897638
11
0.5710250393700788
21
1.9773154724409447
0
LINE
8
BLACK
6
CONTINUOUS
10
0.5710250393700788
20
1.9773154724409447
11
0.5710250393700788
21
1.9761633464566928
0
LINE
8
BLACK
6
CONTINUOUS
10
0.5710250393700788
20
1.9761633464566928
11
0.5705841338582677
21
1.975098937007874
0
LINE
8
BLACK
6
CONTINUOUS
10
0.5705841338582677
20
1.975098937007874
11
0.5697694881889763
21
1.9742842913385827
0
LINE
8
BLACK
6
CONTINUOUS
10
0.5697694881889763
20
1.9742842913385827
11
0.5687050787401575
21
1.9738433858267717
0
LINE
8
BLACK
6
CONTINUOUS
10
0.5687050787401575
20
1.9738433858267717
11
0.5612445669291338
21
1.9737909842519685
0
LINE
8
BLACK
6
CONTINUOUS
10
0.5612445669291338
20
1.9737909842519685
11
0.5585362598425196
21
1.972396338582677
0
LINE
8
BLACK
6
CONTINUOUS
10
0.5585362598425196
20
1.972396338582677
11
0.5571290551181102
21
1.9709387401574803
0
LINE
8
BLACK
6
CONTINUOUS
10
0.5571290551181102
20
1.9709387401574803
11
0.5539188582677165
21
1.9660417716535432
0
LINE
8
BLACK
6
CONTINUOUS
10
0.5539188582677165
20
1.9660417716535432
11
0.5532240157480315
21
1.9631794881889764
0
LINE
8
BLACK
6
CONTINUOUS
10
0.5532240157480315
20
1.9631794881889764
11
0.5555599212598425
21
1.9643823228346455
0
LINE
8
BLACK
6
CONTINUOUS
10
0.5555599212598425
20
1.9643823228346455
11
0.5561005118110236
21
1.9645892125984252
0
LINE
8
BLACK
6
CONTINUOUS
10
0.5561005118110236
20
1.9645892125984252
11
0.5562063779527558
21
1.9645967716535433
0
LINE
8
BLACK
6
CONTINUOUS
10
0.5562063779527558
20
1.9645967716535433
11
0.5563043700787401
21
1.9646373228346456
0
LINE
8
BLACK
6
CONTINUOUS
10
0.5563043700787401
20
1.9646373228346456
11
0.5568295275590551
21
1.9646410236220473
0
LINE
8
BLACK
6
CONTINUOUS
10
0.5568295275590551
20
1.9646410236220473
11
0.5572497244094488
21
1.9646708661417323
0
LINE
8
BLACK
6
CONTINUOUS
10
0.5572497244094488
20
1.9646708661417323
11
0.5573287401574804
21
1.9646445275590552
0
LINE
8
BLACK
6
CONTINUOUS
10
0.5573287401574804
20
1.9646445275590552
11
0.5643794881889763
21
1.9646940551181102
0
LINE
8
BLACK
6
CONTINUOUS
10
0.5643794881889763
20
1.9646940551181102
11
0.5649555511811023
21
1.9646373228346456
0
LINE
8
BLACK
6
CONTINUOUS
10
0.5649555511811023
20
1.9646373228346456
11
0.5650535433070866
21
1.9645967322834645
0
LINE
8
BLACK
6
CONTINUOUS
10
0.5650535433070866
20
1.9645967322834645
11
0.5651593700787402
21
1.9645892125984252
0
LINE
8
BLACK
6
CONTINUOUS
10
0.5651593700787402
20
1.9645892125984252
11
0.565670905511811
21
1.9643410236220471
0
LINE
8
BLACK
6
CONTINUOUS
10
0.565670905511811
20
1.9643410236220471
11
0.5660199606299212
21
1.9641964173228346
0
LINE
8
BLACK
6
CONTINUOUS
10
0.5660199606299212
20
1.9641964173228346
11
0.5660680708661417
21
1.9641483070866141
0
LINE
8
BLACK
6
CONTINUOUS
10
0.5660680708661417
20
1.9641483070866141
11
0.5694495275590551
21
1.962507559055118
0
LINE
8
BLACK
6
CONTINUOUS
10
0.5694495275590551
20
1.962507559055118
11
0.5696975196850393
21
1.962351496062992
0
LINE
8
BLACK
6
CONTINUOUS
10
0.5696975196850393
20
1.962351496062992
11
0.5697694881889763
21
1.962321653543307
0
LINE
8
BLACK
6
CONTINUOUS
10
0.5697694881889763
20
1.962321653543307
11
0.5698155511811024
21
1.9622771653543307
0
LINE
8
BLACK
6
CONTINUOUS
10
0.5698155511811024
20
1.9622771653543307
11
0.5699394094488189
21
1.9621992125984251
0
LINE
8
BLACK
6
CONTINUOUS
10
0.5699394094488189
20
1.9621992125984251
11
0.5701611417322835
21
1.9619435433070866
0
LINE
8
BLACK
6
CONTINUOUS
10
0.5701611417322835
20
1.9619435433070866
11
0.5720916929133858
21
1.96007968503937
0
LINE
8
BLACK
6
CONTINUOUS
10
0.5720916929133858
20
1.96007968503937
11
0.5722774409448819
21
1.959853346456693
0
LINE
8
BLACK
6
CONTINUOUS
10
0.5722774409448819
20
1.959853346456693
11
0.5723364566929133
21
1.9598021653543307
0
LINE
8
BLACK
6
CONTINUOUS
10
0.5723364566929133
20
1.9598021653543307
11
0.5723650787401575
21
1.9597465354330708
0
LINE
8
BLACK
6
CONTINUOUS
10
0.5723650787401575
20
1.9597465354330708
11
0.5724588976377952
21
1.9596322440944882
0
LINE
8
BLACK
6
CONTINUOUS
10
0.5724588976377952
20
1.9596322440944882
11
0.5726025590551181
21
1.9592853937007872
0
LINE
8
BLACK
6
CONTINUOUS
10
0.5726025590551181
20
1.9592853937007872
11
0.5745195669291339
21
1.9555627559055118
0
LINE
8
BLACK
6
CONTINUOUS
10
0.5745195669291339
20
1.9555627559055118
11
0.5747264566929133
21
1.9550221653543307
0
LINE
8
BLACK
6
CONTINUOUS
10
0.5747264566929133
20
1.9550221653543307
11
0.5747339763779528
21
1.9549162992125984
0
LINE
8
BLACK
6
CONTINUOUS
10
0.5747339763779528
20
1.9549162992125984
11
0.5747745669291339
21
1.9548183070866141
0
LINE
8
BLACK
6
CONTINUOUS
10
0.5747745669291339
20
1.9548183070866141
11
0.5747774803149606
21
1.9543037795275591
0
LINE
8
BLACK
6
CONTINUOUS
10
0.5747774803149606
20
1.9543037795275591
11
0.5748081102362205
21
1.9538729527559056
0
LINE
8
BLACK
6
CONTINUOUS
10
0.5748081102362205
20
1.9538729527559056
11
0.5747803937007874
21
1.9537899212598424
0
LINE
8
BLACK
6
CONTINUOUS
10
0.5747803937007874
20
1.9537899212598424
11
0.5748312992125985
21
1.9448684251968504
0
LINE
8
BLACK
6
CONTINUOUS
10
0.5748312992125985
20
1.9448684251968504
11
0.5747745669291339
21
1.9442923622047243
0
LINE
8
BLACK
6
CONTINUOUS
10
0.5747745669291339
20
1.9442923622047243
11
0.5747339763779528
21
1.9441944094488188
0
LINE
8
BLACK
6
CONTINUOUS
10
0.5747339763779528
20
1.9441944094488188
11
0.5747264566929133
21
1.9440885039370079
0
LINE
8
BLACK
6
CONTINUOUS
10
0.5747264566929133
20
1.9440885039370079
11
0.5744781102362204
21
1.9435767716535433
0
LINE
8
BLACK
6
CONTINUOUS
10
0.5744781102362204
20
1.9435767716535433
11
0.5743336614173228
21
1.9432279527559055
0
LINE
8
BLACK
6
CONTINUOUS
10
0.5743336614173228
20
1.9432279527559055
11
0.5742855511811024
21
1.9431798818897636
0
LINE
8
BLACK
6
CONTINUOUS
10
0.5742855511811024
20
1.9431798818897636
11
0.5726448031496063
21
1.9397983858267716
0
LINE
8
BLACK
6
CONTINUOUS
10
0.5726448031496063
20
1.9397983858267716
11
0.5724887401574803
21
1.9395505118110237
0
LINE
8
BLACK
6
CONTINUOUS
10
0.5724887401574803
20
1.9395505118110237
11
0.572458937007874
21
1.9394784645669292
0
LINE
8
BLACK
6
CONTINUOUS
10
0.572458937007874
20
1.9394784645669292
11
0.5724143700787402
21
1.9394323622047243
0
LINE
8
BLACK
6
CONTINUOUS
10
0.5724143700787402
20
1.9394323622047243
11
0.5723364566929133
21
1.9393085039370079
0
LINE
8
BLACK
6
CONTINUOUS
10
0.5723364566929133
20
1.9393085039370079
11
0.5720807874015748
21
1.9390868110236219
0
LINE
8
BLACK
6
CONTINUOUS
10
0.5720807874015748
20
1.9390868110236219
11
0.570216968503937
21
1.9371562204724408
0
LINE
8
BLACK
6
CONTINUOUS
10
0.570216968503937
20
1.9371562204724408
11
0.5699905905511811
21
1.9369704724409449
0
LINE
8
BLACK
6
CONTINUOUS
10
0.5699905905511811
20
1.9369704724409449
11
0.5699394094488189
21
1.9369114173228346
0
LINE
8
BLACK
6
CONTINUOUS
10
0.5699394094488189
20
1.9369114173228346
11
0.5698837401574803
21
1.9368827952755905
0
LINE
8
BLACK
6
CONTINUOUS
10
0.5698837401574803
20
1.9368827952755905
11
0.5697694881889763
21
1.9367889763779527
0
LINE
8
BLACK
6
CONTINUOUS
10
0.5697694881889763
20
1.9367889763779527
11
0.5694225984251968
21
1.93664531496063
0
LINE
8
BLACK
6
CONTINUOUS
10
0.5694225984251968
20
1.93664531496063
11
0.5657
21
1.9347283070866141
0
LINE
8
BLACK
6
CONTINUOUS
10
0.5657
20
1.9347283070866141
11
0.5651593700787402
21
1.9345214173228347
0
LINE
8
BLACK
6
CONTINUOUS
10
0.5651593700787402
20
1.9345214173228347
11
0.5650535433070866
21
1.9345139370078739
0
LINE
8
BLACK
6
CONTINUOUS
10
0.5650535433070866
20
1.9345139370078739
11
0.5649555511811023
21
1.934473307086614
0
LINE
8
BLACK
6
CONTINUOUS
10
0.5649555511811023
20
1.934473307086614
11
0.5644303149606299
21
1.9344696456692914
0
LINE
8
BLACK
6
CONTINUOUS
10
0.5644303149606299
20
1.9344696456692914
11
0.5640101574803149
21
1.9344397637795274
0
LINE
8
BLACK
6
CONTINUOUS
10
0.5640101574803149
20
1.9344397637795274
11
0.5639311023622047
21
1.9344661417322835
0
LINE
8
BLACK
6
CONTINUOUS
10
0.5639311023622047
20
1.9344661417322835
11
0.5568804330708661
21
1.9344165748031497
0
LINE
8
BLACK
6
CONTINUOUS
10
0.5568804330708661
20
1.9344165748031497
11
0.5563043700787401
21
1.934473307086614
0
LINE
8
BLACK
6
CONTINUOUS
10
0.5563043700787401
20
1.934473307086614
11
0.5562063779527558
21
1.9345138976377951
0
LINE
8
BLACK
6
CONTINUOUS
10
0.5562063779527558
20
1.9345138976377951
11
0.5561005118110236
21
1.9345214173228347
0
LINE
8
BLACK
6
CONTINUOUS
10
0.5561005118110236
20
1.9345214173228347
11
0.5555887401574803
21
1.9347697637795276
0
LINE
8
BLACK
6
CONTINUOUS
10
0.5555887401574803
20
1.9347697637795276
11
0.5552399606299212
21
1.9349142125984251
0
LINE
8
BLACK
6
CONTINUOUS
10
0.5552399606299212
20
1.9349142125984251
11
0.5551918503937008
21
1.9349623228346455
0
LINE
8
BLACK
6
CONTINUOUS
10
0.5551918503937008
20
1.9349623228346455
11
0.5518103937007874
21
1.9366030708661417
0
LINE
8
BLACK
6
CONTINUOUS
10
0.5518103937007874
20
1.9366030708661417
11
0.5515623622047244
21
1.9367591732283465
0
LINE
8
BLACK
6
CONTINUOUS
10
0.5515623622047244
20
1.9367591732283465
11
0.5514904330708661
21
1.9367889763779527
0
LINE
8
BLACK
6
CONTINUOUS
10
0.5514904330708661
20
1.9367889763779527
11
0.5514443307086614
21
1.9368335039370079
0
LINE
8
BLACK
6
CONTINUOUS
10
0.5514443307086614
20
1.9368335039370079
11
0.5513205118110236
21
1.9369114173228346
0
LINE
8
BLACK
6
CONTINUOUS
10
0.5513205118110236
20
1.9369114173228346
11
0.5510987007874015
21
1.9371672047244095
0
LINE
8
BLACK
6
CONTINUOUS
10
0.5510987007874015
20
1.9371672047244095
11
0.549168188976378
21
1.9390310236220472
0
LINE
8
BLACK
6
CONTINUOUS
10
0.549168188976378
20
1.9390310236220472
11
0.5489824409448819
21
1.9392573622047244
0
LINE
8
BLACK
6
CONTINUOUS
10
0.5489824409448819
20
1.9392573622047244
11
0.5489234645669291
21
1.9393085039370079
0
LINE
8
BLACK
6
CONTINUOUS
10
0.5489234645669291
20
1.9393085039370079
11
0.5488948031496063
21
1.9393641338582677
0
LINE
8
BLACK
6
CONTINUOUS
10
0.5488948031496063
20
1.9393641338582677
11
0.5488009842519684
21
1.9394784645669292
0
LINE
8
BLACK
6
CONTINUOUS
10
0.5488009842519684
20
1.9394784645669292
11
0.5486572834645669
21
1.9398253937007874
0
LINE
8
BLACK
6
CONTINUOUS
10
0.5486572834645669
20
1.9398253937007874
11
0.5467403543307087
21
1.9435479133858267
0
LINE
8
BLACK
6
CONTINUOUS
10
0.5467403543307087
20
1.9435479133858267
11
0.5465334645669291
21
1.9440885433070865
0
LINE
8
BLACK
6
CONTINUOUS
10
0.5465334645669291
20
1.9440885433070865
11
0.5465259448818898
21
1.9441943700787401
0
LINE
8
BLACK
6
CONTINUOUS
10
0.5465259448818898
20
1.9441943700787401
11
0.5464853543307087
21
1.9442923622047243
0
LINE
8
BLACK
6
CONTINUOUS
10
0.5464853543307087
20
1.9442923622047243
11
0.5464835039370078
21
1.9447912598425197
0
LINE
8
BLACK
6
CONTINUOUS
10
0.5464835039370078
20
1.9447912598425197
11
0.5464518110236221
21
1.9452377559055118
0
LINE
8
BLACK
6
CONTINUOUS
10
0.5464518110236221
20
1.9452377559055118
11
0.5464815748031496
21
1.9453270866141732
0
LINE
8
BLACK
6
CONTINUOUS
10
0.5464815748031496
20
1.9453270866141732
11
0.5464286220472441
21
1.9598665354330709
0
LINE
8
BLACK
6
CONTINUOUS
10
0.5464286220472441
20
1.9598665354330709
11
0.5464385039370079
21
1.9599670866141732
0
LINE
8
BLACK
6
CONTINUOUS
10
0.5464385039370079
20
1.9599670866141732
11
0.5464321259842519
21
1.9600100787401575
0
LINE
8
BLACK
6
CONTINUOUS
10
0.5464321259842519
20
1.9600100787401575
11
0.54645
21
1.960083779527559
0
LINE
8
BLACK
6
CONTINUOUS
10
0.54645
20
1.960083779527559
11
0.5464853543307087
21
1.9604425984251967
0
LINE
8
BLACK
6
CONTINUOUS
10
0.5464853543307087
20
1.9604425984251967
11
0.5466103937007873
21
1.9607445275590552
0
LINE
8
BLACK
6
CONTINUOUS
10
0.5466103937007873
20
1.9607445275590552
11
0.5483915354330708
21
1.9680817322834645
0
LINE
8
BLACK
6
CONTINUOUS
10
0.5483915354330708
20
1.9680817322834645
11
0.5485127952755905
21
1.9684212204724409
0
LINE
8
BLACK
6
CONTINUOUS
10
0.5485127952755905
20
1.9684212204724409
11
0.548526968503937
21
1.9684927165354331
0
LINE
8
BLACK
6
CONTINUOUS
10
0.548526968503937
20
1.9684927165354331
11
0.5485520078740157
21
1.9685309842519685
0
LINE
8
BLACK
6
CONTINUOUS
10
0.5485520078740157
20
1.9685309842519685
11
0.5485862992125984
21
1.9686268503937008
0
LINE
8
BLACK
6
CONTINUOUS
10
0.5485862992125984
20
1.9686268503937008
11
0.5488343307086614
21
1.968961653543307
0
LINE
8
BLACK
6
CONTINUOUS
10
0.5488343307086614
20
1.968961653543307
11
0.5525488188976377
21
1.9746277952755904
0
LINE
8
BLACK
6
CONTINUOUS
10
0.5525488188976377
20
1.9746277952755904
11
0.552550157480315
21
1.9746294881889763
0
LINE
8
BLACK
6
CONTINUOUS
10
0.552550157480315
20
1.9746294881889763
11
0.5525505511811023
21
1.9746303543307087
0
LINE
8
BLACK
6
CONTINUOUS
10
0.5525505511811023
20
1.9746303543307087
11
0.5525529133858268
21
1.9746328740157479
0
LINE
8
BLACK
6
CONTINUOUS
10
0.5525529133858268
20
1.9746328740157479
11
0.5529155905511811
21
1.9750756299212597
0
LINE
8
BLACK
6
CONTINUOUS
10
0.5529155905511811
20
1.9750756299212597
11
0.5530990551181102
21
1.9751985039370079
0
LINE
8
BLACK
6
CONTINUOUS
10
0.5530990551181102
20
1.9751985039370079
11
0.5547925196850394
21
1.976952559055118
0
LINE
8
BLACK
6
CONTINUOUS
10
0.5547925196850394
20
1.976952559055118
11
0.5550188582677166
21
1.977138346456693
0
LINE
8
BLACK
6
CONTINUOUS
10
0.5550188582677166
20
1.977138346456693
11
0.5550700393700787
21
1.9771973228346456
0
LINE
8
BLACK
6
CONTINUOUS
10
0.5550700393700787
20
1.9771973228346456
11
0.5551256692913386
21
1.9772259842519684
0
LINE
8
BLACK
6
CONTINUOUS
10
0.5551256692913386
20
1.9772259842519684
11
0.5552399606299212
21
1.9773197637795275
0
LINE
8
BLACK
6
CONTINUOUS
10
0.5552399606299212
20
1.9773197637795275
11
0.5555868110236221
21
1.9774634645669291
0
LINE
8
BLACK
6
CONTINUOUS
10
0.5555868110236221
20
1.9774634645669291
11
0.5593094488188977
21
1.9793804330708662
0
LINE
8
BLACK
6
CONTINUOUS
10
0.5593094488188977
20
1.9793804330708662
11
0.5598500393700787
21
1.9795873228346457
0
LINE
8
BLACK
6
CONTINUOUS
10
0.5598500393700787
20
1.9795873228346457
11
0.559955905511811
21
1.9795948818897637
0
LINE
8
BLACK
6
CONTINUOUS
10
0.559955905511811
20
1.9795948818897637
11
0.5600538976377952
21
1.9796354330708661
0
LINE
8
BLACK
6
CONTINUOUS
10
0.5600538976377952
20
1.9796354330708661
11
0.5605790551181102
21
1.9796391338582677
0
LINE
8
BLACK
6
CONTINUOUS
10
0.5605790551181102
20
1.9796391338582677
11
0.560999251968504
21
1.9796689763779527
0
LINE
8
BLACK
6
CONTINUOUS
10
0.560999251968504
20
1.9796689763779527
11
0.5610782677165355
21
1.9796426377952756
0
LINE
8
BLACK
6
CONTINUOUS
10
0.5610782677165355
20
1.9796426377952756
11
0.5681290157480314
21
1.9796921653543307
0
LINE
8
BLACK
6
CONTINUOUS
10
0.5681290157480314
20
1.9796921653543307
11
0.5687050787401575
21
1.9796354330708661
0
LINE
8
BLACK
6
CONTINUOUS
10
0.5574950393700787
20
1.9587928740157481
11
0.5547867322834645
21
1.9573982283464566
0
LINE
8
BLACK
6
CONTINUOUS
10
0.5547867322834645
20
1.9573982283464566
11
0.5535960236220472
21
1.9561648818897637
0
LINE
8
BLACK
6
CONTINUOUS
10
0.5535960236220472
20
1.9561648818897637
11
0.5523026771653543
21
1.9534994094488189
0
LINE
8
BLACK
6
CONTINUOUS
10
0.5523026771653543
20
1.9534994094488189
11
0.5523318897637796
21
1.9454790157480315
0
LINE
8
BLACK
6
CONTINUOUS
10
0.5523318897637796
20
1.9454790157480315
11
0.5537244881889763
21
1.9427747637795276
0
LINE
8
BLACK
6
CONTINUOUS
10
0.5537244881889763
20
1.9427747637795276
11
0.5549578346456693
21
1.9415839763779528
0
LINE
8
BLACK
6
CONTINUOUS
10
0.5549578346456693
20
1.9415839763779528
11
0.5576558267716535
21
1.9402748818897637
0
LINE
8
BLACK
6
CONTINUOUS
10
0.5576558267716535
20
1.9402748818897637
11
0.5637648425196851
21
1.9403177952755906
0
LINE
8
BLACK
6
CONTINUOUS
10
0.5637648425196851
20
1.9403177952755906
11
0.5664731102362205
21
1.9417124409448818
0
LINE
8
BLACK
6
CONTINUOUS
10
0.5664731102362205
20
1.9417124409448818
11
0.5676638976377952
21
1.9429458661417323
0
LINE
8
BLACK
6
CONTINUOUS
10
0.5676638976377952
20
1.9429458661417323
11
0.5689747637795275
21
1.9456474803149606
0
LINE
8
BLACK
6
CONTINUOUS
10
0.5689747637795275
20
1.9456474803149606
11
0.568929251968504
21
1.9536292125984251
0
LINE
8
BLACK
6
CONTINUOUS
10
0.568929251968504
20
1.9536292125984251
11
0.5675354330708662
21
1.9563359448818898
0
LINE
8
BLACK
6
CONTINUOUS
10
0.5675354330708662
20
1.9563359448818898
11
0.5663020866141733
21
1.9575266535433071
0
LINE
8
BLACK
6
CONTINUOUS
10
0.5663020866141733
20
1.9575266535433071
11
0.5636040551181102
21
1.9588357874015747
0
LINE
8
BLACK
6
CONTINUOUS
10
0.5636040551181102
20
1.9588357874015747
11
0.5574950393700787
21
1.9587928740157481
0
LINE
8
BLACK
6
CONTINUOUS
10
0.6005761023622047
20
1.9796354330708661
11
0.600674094488189
21
1.979594842519685
0
LINE
8
BLACK
6
CONTINUOUS
10
0.600674094488189
20
1.979594842519685
11
0.6007799212598425
21
1.9795873228346457
0
LINE
8
BLACK
6
CONTINUOUS
10
0.6007799212598425
20
1.9795873228346457
11
0.6012914566929134
21
1.9793391338582678
0
LINE
8
BLACK
6
CONTINUOUS
10
0.6012914566929134
20
1.9793391338582678
11
0.6016405118110236
21
1.979194527559055
0
LINE
8
BLACK
6
CONTINUOUS
10
0.6016405118110236
20
1.979194527559055
11
0.601688622047244
21
1.9791464173228346
0
LINE
8
BLACK
6
CONTINUOUS
10
0.601688622047244
20
1.9791464173228346
11
0.6050700787401575
21
1.9775056692913386
0
LINE
8
BLACK
6
CONTINUOUS
10
0.6050700787401575
20
1.9775056692913386
11
0.6053180708661418
21
1.9773496062992126
0
LINE
8
BLACK
6
CONTINUOUS
10
0.6053180708661418
20
1.9773496062992126
11
0.6053900393700787
21
1.9773197637795275
0
LINE
8
BLACK
6
CONTINUOUS
10
0.6053900393700787
20
1.9773197637795275
11
0.6054361023622047
21
1.9772752755905512
0
LINE
8
BLACK
6
CONTINUOUS
10
0.6054361023622047
20
1.9772752755905512
11
0.6055599606299212
21
1.9771973228346456
0
LINE
8
BLACK
6
CONTINUOUS
10
0.6055599606299212
20
1.9771973228346456
11
0.6057816929133858
21
1.9769416535433071
0
LINE
8
BLACK
6
CONTINUOUS
10
0.6057816929133858
20
1.9769416535433071
11
0.6077122440944882
21
1.9750777952755905
0
LINE
8
BLACK
6
CONTINUOUS
10
0.6077122440944882
20
1.9750777952755905
11
0.6078979921259843
21
1.9748514566929134
0
LINE
8
BLACK
6
CONTINUOUS
10
0.6078979921259843
20
1.9748514566929134
11
0.6079570078740157
21
1.9748002755905512
0
LINE
8
BLACK
6
CONTINUOUS
10
0.6079570078740157
20
1.9748002755905512
11
0.6079856299212598
21
1.9747446456692912
0
LINE
8
BLACK
6
CONTINUOUS
10
0.6079856299212598
20
1.9747446456692912
11
0.6080794488188976
21
1.9746303543307087
0
LINE
8
BLACK
6
CONTINUOUS
10
0.6080794488188976
20
1.9746303543307087
11
0.6082231102362204
21
1.9742835039370079
0
LINE
8
BLACK
6
CONTINUOUS
10
0.6082231102362204
20
1.9742835039370079
11
0.6101401181102362
21
1.9705608661417322
0
LINE
8
BLACK
6
CONTINUOUS
10
0.6101401181102362
20
1.9705608661417322
11
0.6101562204724409
21
1.9705187795275589
0
LINE
8
BLACK
6
CONTINUOUS
10
0.6101562204724409
20
1.9705187795275589
11
0.610168937007874
21
1.9705016141732283
0
LINE
8
BLACK
6
CONTINUOUS
10
0.610168937007874
20
1.9705016141732283
11
0.6101814960629921
21
1.9704526771653543
0
LINE
8
BLACK
6
CONTINUOUS
10
0.6101814960629921
20
1.9704526771653543
11
0.6103470078740157
21
1.9700202755905512
0
LINE
8
BLACK
6
CONTINUOUS
10
0.6103470078740157
20
1.9700202755905512
11
0.6103676771653543
21
1.9697290551181101
0
LINE
8
BLACK
6
CONTINUOUS
10
0.6103676771653543
20
1.9697290551181101
11
0.6122384645669291
21
1.9624574409448818
0
LINE
8
BLACK
6
CONTINUOUS
10
0.6122384645669291
20
1.9624574409448818
11
0.6122532283464567
21
1.9623575984251969
0
LINE
8
BLACK
6
CONTINUOUS
10
0.6122532283464567
20
1.9623575984251969
11
0.6122698818897637
21
1.9623173622047243
0
LINE
8
BLACK
6
CONTINUOUS
10
0.6122698818897637
20
1.9623173622047243
11
0.6122702755905511
21
1.9622420078740157
0
LINE
8
BLACK
6
CONTINUOUS
10
0.6122702755905511
20
1.9622420078740157
11
0.6123231102362204
21
1.9618848425196851
0
LINE
8
BLACK
6
CONTINUOUS
10
0.6123231102362204
20
1.9618848425196851
11
0.6122742125984252
21
1.9615562992125983
0
LINE
8
BLACK
6
CONTINUOUS
10
0.6122742125984252
20
1.9615562992125983
11
0.6123266141732283
21
1.9523674803149607
0
LINE
8
BLACK
6
CONTINUOUS
10
0.6123266141732283
20
1.9523674803149607
11
0.6123166929133859
21
1.9522669685039369
0
LINE
8
BLACK
6
CONTINUOUS
10
0.6123166929133859
20
1.9522669685039369
11
0.6123231102362204
21
1.952223937007874
0
LINE
8
BLACK
6
CONTINUOUS
10
0.6123231102362204
20
1.952223937007874
11
0.6123051968503936
21
1.9521502755905511
0
LINE
8
BLACK
6
CONTINUOUS
10
0.6123051968503936
20
1.9521502755905511
11
0.6122698818897637
21
1.9517914173228346
0
LINE
8
BLACK
6
CONTINUOUS
10
0.6122698818897637
20
1.9517914173228346
11
0.6121448031496063
21
1.9514895275590551
0
LINE
8
BLACK
6
CONTINUOUS
10
0.6121448031496063
20
1.9514895275590551
11
0.6103637007874015
21
1.9441522834645668
0
LINE
8
BLACK
6
CONTINUOUS
10
0.6103637007874015
20
1.9441522834645668
11
0.6103485039370079
21
1.9441098031496062
0
LINE
8
BLACK
6
CONTINUOUS
10
0.6103485039370079
20
1.9441098031496062
11
0.6103470078740157
21
1.9440885039370079
0
LINE
8
BLACK
6
CONTINUOUS
10
0.6103470078740157
20
1.9440885039370079
11
0.6103238582677165
21
1.9440408661417323
0
LINE
8
BLACK
6
CONTINUOUS
10
0.6103238582677165
20
1.9440408661417323
11
0.610168937007874
21
1.9436071653543308
0
LINE
8
BLACK
6
CONTINUOUS
10
0.610168937007874
20
1.9436071653543308
11
0.610008188976378
21
1.9433902362204725
0
LINE
8
BLACK
6
CONTINUOUS
10
0.610008188976378
20
1.9433902362204725
11
0.6082653543307086
21
1.9397983858267716
0
LINE
8
BLACK
6
CONTINUOUS
10
0.6082653543307086
20
1.9397983858267716
11
0.6081092913385827
21
1.9395505118110237
0
LINE
8
BLACK
6
CONTINUOUS
10
0.6081092913385827
20
1.9395505118110237
11
0.6080794881889764
21
1.9394784645669292
0
LINE
8
BLACK
6
CONTINUOUS
10
0.6080794881889764
20
1.9394784645669292
11
0.6080349212598425
21
1.9394323622047243
0
LINE
8
BLACK
6
CONTINUOUS
10
0.6080349212598425
20
1.9394323622047243
11
0.6079570078740157
21
1.9393085039370079
0
LINE
8
BLACK
6
CONTINUOUS
10
0.6079570078740157
20
1.9393085039370079
11
0.6077013385826772
21
1.9390868110236219
0
LINE
8
BLACK
6
CONTINUOUS
10
0.6077013385826772
20
1.9390868110236219
11
0.6058375196850394
21
1.9371562204724408
0
LINE
8
BLACK
6
CONTINUOUS
10
0.6058375196850394
20
1.9371562204724408
11
0.6056111417322835
21
1.9369704724409449
0
LINE
8
BLACK
6
CONTINUOUS
10
0.6056111417322835
20
1.9369704724409449
11
0.6055599606299212
21
1.9369114173228346
0
LINE
8
BLACK
6
CONTINUOUS
10
0.6055599606299212
20
1.9369114173228346
11
0.6055042913385826
21
1.9368827952755905
0
LINE
8
BLACK
6
CONTINUOUS
10
0.6055042913385826
20
1.9368827952755905
11
0.6053900393700787
21
1.9367889763779527
0
LINE
8
BLACK
6
CONTINUOUS
10
0.6053900393700787
20
1.9367889763779527
11
0.6050431496062992
21
1.93664531496063
0
LINE
8
BLACK
6
CONTINUOUS
10
0.6050431496062992
20
1.93664531496063
11
0.6013205511811024
21
1.9347283070866141
0
LINE
8
BLACK
6
CONTINUOUS
10
0.6013205511811024
20
1.9347283070866141
11
0.6007799212598425
21
1.9345214173228347
0
LINE
8
BLACK
6
CONTINUOUS
10
0.6007799212598425
20
1.9345214173228347
11
0.600674094488189
21
1.9345139370078739
0
LINE
8
BLACK
6
CONTINUOUS
10
0.600674094488189
20
1.9345139370078739
11
0.6005761023622047
21
1.934473307086614
0
LINE
8
BLACK
6
CONTINUOUS
10
0.6005761023622047
20
1.934473307086614
11
0.5999956299212599
21
1.9344657086614172
0
LINE
8
BLACK
6
CONTINUOUS
10
0.5999956299212599
20
1.9344657086614172
11
0.5996307086614173
21
1.9344397637795274
0
LINE
8
BLACK
6
CONTINUOUS
10
0.5996307086614173
20
1.9344397637795274
11
0.5995696456692913
21
1.9344601181102361
0
LINE
8
BLACK
6
CONTINUOUS
10
0.5995696456692913
20
1.9344601181102361
11
0.5962505118110236
21
1.9344165748031497
0
LINE
8
BLACK
6
CONTINUOUS
10
0.5962505118110236
20
1.9344165748031497
11
0.5956744488188976
21
1.934473307086614
0
LINE
8
BLACK
6
CONTINUOUS
10
0.5956744488188976
20
1.934473307086614
11
0.5955764566929134
21
1.9345138976377951
0
LINE
8
BLACK
6
CONTINUOUS
10
0.5955764566929134
20
1.9345138976377951
11
0.5954705905511811
21
1.9345214173228347
0
LINE
8
BLACK
6
CONTINUOUS
10
0.5954705905511811
20
1.9345214173228347
11
0.5949588188976378
21
1.9347697637795276
0
LINE
8
BLACK
6
CONTINUOUS
10
0.5949588188976378
20
1.9347697637795276
11
0.5946100393700787
21
1.9349142125984251
0
LINE
8
BLACK
6
CONTINUOUS
10
0.5946100393700787
20
1.9349142125984251
11
0.5945619291338583
21
1.9349623228346455
0
LINE
8
BLACK
6
CONTINUOUS
10
0.5945619291338583
20
1.9349623228346455
11
0.5911804724409448
21
1.9366030708661417
0
LINE
8
BLACK
6
CONTINUOUS
10
0.5911804724409448
20
1.9366030708661417
11
0.5909324409448818
21
1.9367591732283465
0
LINE
8
BLACK
6
CONTINUOUS
10
0.5909324409448818
20
1.9367591732283465
11
0.5908605118110236
21
1.9367889763779527
0
LINE
8
BLACK
6
CONTINUOUS
10
0.5908605118110236
20
1.9367889763779527
11
0.5908144094488189
21
1.9368335039370079
0
LINE
8
BLACK
6
CONTINUOUS
10
0.5908144094488189
20
1.9368335039370079
11
0.5906905905511811
21
1.9369114173228346
0
LINE
8
BLACK
6
CONTINUOUS
10
0.5906905905511811
20
1.9369114173228346
11
0.5904687795275591
21
1.9371672047244095
0
LINE
8
BLACK
6
CONTINUOUS
10
0.5904687795275591
20
1.9371672047244095
11
0.5885382677165354
21
1.9390310236220472
0
LINE
8
BLACK
6
CONTINUOUS
10
0.5885382677165354
20
1.9390310236220472
11
0.5883525196850393
21
1.9392573622047244
0
LINE
8
BLACK
6
CONTINUOUS
10
0.5883525196850393
20
1.9392573622047244
11
0.5882935433070866
21
1.9393085039370079
0
LINE
8
BLACK
6
CONTINUOUS
10
0.5882935433070866
20
1.9393085039370079
11
0.5882648818897638
21
1.9393641338582677
0
LINE
8
BLACK
6
CONTINUOUS
10
0.5882648818897638
20
1.9393641338582677
11
0.588171062992126
21
1.9394784645669292
0
LINE
8
BLACK
6
CONTINUOUS
10
0.588171062992126
20
1.9394784645669292
11
0.5880273622047244
21
1.9398253937007874
0
LINE
8
BLACK
6
CONTINUOUS
10
0.5880273622047244
20
1.9398253937007874
11
0.5861104330708661
21
1.9435479133858267
0
LINE
8
BLACK
6
CONTINUOUS
10
0.5861104330708661
20
1.9435479133858267
11
0.5860942913385827
21
1.9435900393700787
0
LINE
8
BLACK
6
CONTINUOUS
10
0.5860942913385827
20
1.9435900393700787
11
0.5860816141732283
21
1.9436071653543308
0
LINE
8
BLACK
6
CONTINUOUS
10
0.5860816141732283
20
1.9436071653543308
11
0.5860689763779527
21
1.9436561811023623
0
LINE
8
BLACK
6
CONTINUOUS
10
0.5860689763779527
20
1.9436561811023623
11
0.5859035433070866
21
1.9440885433070865
0
LINE
8
BLACK
6
CONTINUOUS
10
0.5859035433070866
20
1.9440885433070865
11
0.5858828346456693
21
1.9443797637795275
0
LINE
8
BLACK
6
CONTINUOUS
10
0.5858828346456693
20
1.9443797637795275
11
0.5840120866141733
21
1.951651338582677
0
LINE
8
BLACK
6
CONTINUOUS
10
0.5840120866141733
20
1.951651338582677
11
0.5839972834645669
21
1.951751220472441
0
LINE
8
BLACK
6
CONTINUOUS
10
0.5839972834645669
20
1.951751220472441
11
0.5839806692913385
21
1.9517914173228346
0
LINE
8
BLACK
6
CONTINUOUS
10
0.5839806692913385
20
1.9517914173228346
11
0.5839802362204725
21
1.9518668110236219
0
LINE
8
BLACK
6
CONTINUOUS
10
0.5839802362204725
20
1.9518668110236219
11
0.5839274409448819
21
1.952223937007874
0
LINE
8
BLACK
6
CONTINUOUS
10
0.5839274409448819
20
1.952223937007874
11
0.5839762992125984
21
1.9525525196850393
0
LINE
8
BLACK
6
CONTINUOUS
10
0.5839762992125984
20
1.9525525196850393
11
0.583923937007874
21
1.9617412992125984
0
LINE
8
BLACK
6
CONTINUOUS
10
0.583923937007874
20
1.9617412992125984
11
0.5839338188976377
21
1.9618418503937007
0
LINE
8
BLACK
6
CONTINUOUS
10
0.5839338188976377
20
1.9618418503937007
11
0.5839274409448819
21
1.9618848425196851
0
LINE
8
BLACK
6
CONTINUOUS
10
0.5839274409448819
20
1.9618848425196851
11
0.58394531496063
21
1.9619585433070865
0
LINE
8
BLACK
6
CONTINUOUS
10
0.58394531496063
20
1.9619585433070865
11
0.5839806692913385
21
1.9623173622047243
0
LINE
8
BLACK
6
CONTINUOUS
10
0.5839806692913385
20
1.9623173622047243
11
0.5841057086614173
21
1.9626192913385827
0
LINE
8
BLACK
6
CONTINUOUS
10
0.5841057086614173
20
1.9626192913385827
11
0.5858868503937008
21
1.9699564960629921
0
LINE
8
BLACK
6
CONTINUOUS
10
0.5858868503937008
20
1.9699564960629921
11
0.5859020078740157
21
1.9699990157480314
0
LINE
8
BLACK
6
CONTINUOUS
10
0.5859020078740157
20
1.9699990157480314
11
0.5859035433070866
21
1.9700202362204724
0
LINE
8
BLACK
6
CONTINUOUS
10
0.5859035433070866
20
1.9700202362204724
11
0.5859265748031496
21
1.9700677952755905
0
LINE
8
BLACK
6
CONTINUOUS
10
0.5859265748031496
20
1.9700677952755905
11
0.5860816141732283
21
1.9705016141732283
0
LINE
8
BLACK
6
CONTINUOUS
10
0.5860816141732283
20
1.9705016141732283
11
0.5862424015748031
21
1.9707186220472441
0
LINE
8
BLACK
6
CONTINUOUS
10
0.5862424015748031
20
1.9707186220472441
11
0.5879851968503936
21
1.9743103937007873
0
LINE
8
BLACK
6
CONTINUOUS
10
0.5879851968503936
20
1.9743103937007873
11
0.5881412598425196
21
1.9745584251968504
0
LINE
8
BLACK
6
CONTINUOUS
10
0.5881412598425196
20
1.9745584251968504
11
0.5881711023622047
21
1.9746303543307087
0
LINE
8
BLACK
6
CONTINUOUS
10
0.5881711023622047
20
1.9746303543307087
11
0.5882155905511811
21
1.9746764566929134
0
LINE
8
BLACK
6
CONTINUOUS
10
0.5882155905511811
20
1.9746764566929134
11
0.5882935433070866
21
1.9748002755905512
0
LINE
8
BLACK
6
CONTINUOUS
10
0.5882935433070866
20
1.9748002755905512
11
0.5885492125984252
21
1.9750220472440945
0
LINE
8
BLACK
6
CONTINUOUS
10
0.5885492125984252
20
1.9750220472440945
11
0.5904130708661417
21
1.976952559055118
0
LINE
8
BLACK
6
CONTINUOUS
10
0.5904130708661417
20
1.976952559055118
11
0.5906394094488189
21
1.977138346456693
0
LINE
8
BLACK
6
CONTINUOUS
10
0.5906394094488189
20
1.977138346456693
11
0.5906905905511811
21
1.9771973228346456
0
LINE
8
BLACK
6
CONTINUOUS
10
0.5906905905511811
20
1.9771973228346456
11
0.590746220472441
21
1.9772259842519684
0
LINE
8
BLACK
6
CONTINUOUS
10
0.590746220472441
20
1.9772259842519684
11
0.5908605118110236
21
1.9773197637795275
0
LINE
8
BLACK
6
CONTINUOUS
10
0.5908605118110236
20
1.9773197637795275
11
0.5912073622047244
21
1.9774634645669291
0
LINE
8
BLACK
6
CONTINUOUS
10
0.5912073622047244
20
1.9774634645669291
11
0.59493
21
1.9793804330708662
0
LINE
8
BLACK
6
CONTINUOUS
10
0.59493
20
1.9793804330708662
11
0.5954705905511811
21
1.9795873228346457
0
LINE
8
BLACK
6
CONTINUOUS
10
0.5954705905511811
20
1.9795873228346457
11
0.5955764566929134
21
1.9795948818897637
0
LINE
8
BLACK
6
CONTINUOUS
10
0.5955764566929134
20
1.9795948818897637
11
0.5956744488188976
21
1.9796354330708661
0
LINE
8
BLACK
6
CONTINUOUS
10
0.5956744488188976
20
1.9796354330708661
11
0.5962548031496063
21
1.9796430708661417
0
LINE
8
BLACK
6
CONTINUOUS
10
0.5962548031496063
20
1.9796430708661417
11
0.5966198031496063
21
1.9796689763779527
0
LINE
8
BLACK
6
CONTINUOUS
10
0.5966198031496063
20
1.9796689763779527
11
0.5966808267716536
21
1.9796486614173228
0
LINE
8
BLACK
6
CONTINUOUS
10
0.5966808267716536
20
1.9796486614173228
11
0.6000000393700787
21
1.9796921653543307
0
LINE
8
BLACK
6
CONTINUOUS
10
0.6000000393700787
20
1.9796921653543307
11
0.6005761023622047
21
1.9796354330708661
0
LINE
8
BLACK
6
CONTINUOUS
10
0.5968725984251968
20
1.973794842519685
11
0.5941568110236221
21
1.972396338582677
0
LINE
8
BLACK
6
CONTINUOUS
10
0.5941568110236221
20
1.972396338582677
11
0.5929661023622047
21
1.9711629921259841
0
LINE
8
BLACK
6
CONTINUOUS
10
0.5929661023622047
20
1.9711629921259841
11
0.5914375196850393
21
1.9680127165354331
0
LINE
8
BLACK
6
CONTINUOUS
10
0.5914375196850393
20
1.9680127165354331
11
0.5897791732283465
21
1.9611812992125983
0
LINE
8
BLACK
6
CONTINUOUS
10
0.5897791732283465
20
1.9611812992125983
11
0.5898285039370078
21
1.9525327559055117
0
LINE
8
BLACK
6
CONTINUOUS
10
0.5898285039370078
20
1.9525327559055117
11
0.5915845275590551
21
1.9457070866141732
0
LINE
8
BLACK
6
CONTINUOUS
10
0.5915845275590551
20
1.9457070866141732
11
0.5930945669291339
21
1.9427747637795276
0
LINE
8
BLACK
6
CONTINUOUS
10
0.5930945669291339
20
1.9427747637795276
11
0.5943279133858268
21
1.9415839763779528
0
LINE
8
BLACK
6
CONTINUOUS
10
0.5943279133858268
20
1.9415839763779528
11
0.5970093700787401
21
1.9402828740157481
0
LINE
8
BLACK
6
CONTINUOUS
10
0.5970093700787401
20
1.9402828740157481
11
0.5993779133858268
21
1.9403139370078739
0
LINE
8
BLACK
6
CONTINUOUS
10
0.5993779133858268
20
1.9403139370078739
11
0.6020936614173228
21
1.9417124409448818
0
LINE
8
BLACK
6
CONTINUOUS
10
0.6020936614173228
20
1.9417124409448818
11
0.6032844488188976
21
1.9429458661417323
0
LINE
8
BLACK
6
CONTINUOUS
10
0.6032844488188976
20
1.9429458661417323
11
0.6048129921259843
21
1.9460961023622048
0
LINE
8
BLACK
6
CONTINUOUS
10
0.6048129921259843
20
1.9460961023622048
11
0.6064713385826771
21
1.9529275196850393
0
LINE
8
BLACK
6
CONTINUOUS
10
0.6064713385826771
20
1.9529275196850393
11
0.6064220078740158
21
1.9615760629921259
0
LINE
8
BLACK
6
CONTINUOUS
10
0.6064220078740158
20
1.9615760629921259
11
0.6046659842519685
21
1.9684017322834646
0
LINE
8
BLACK
6
CONTINUOUS
10
0.6046659842519685
20
1.9684017322834646
11
0.6031559842519685
21
1.9713340551181102
0
LINE
8
BLACK
6
CONTINUOUS
10
0.6031559842519685
20
1.9713340551181102
11
0.6019226377952756
21
1.9725247637795276
0
LINE
8
BLACK
6
CONTINUOUS
10
0.6019226377952756
20
1.9725247637795276
11
0.5992411417322835
21
1.973825905511811
0
LINE
8
BLACK
6
CONTINUOUS
10
0.5992411417322835
20
1.973825905511811
11
0.5968725984251968
21
1.973794842519685
0
LINE
8
BLACK
6
CONTINUOUS
10
0.6380714173228347
20
1.9796354330708661
11
0.6381694094488188
21
1.979594842519685
0
LINE
8
BLACK
6
CONTINUOUS
10
0.6381694094488188
20
1.979594842519685
11
0.6382752362204724
21
1.9795873228346457
0
LINE
8
BLACK
6
CONTINUOUS
10
0.6382752362204724
20
1.9795873228346457
11
0.6387867716535433
21
1.9793391338582678
0
LINE
8
BLACK
6
CONTINUOUS
10
0.6387867716535433
20
1.9793391338582678
11
0.6391358267716535
21
1.979194527559055
0
LINE
8
BLACK
6
CONTINUOUS
10
0.6391358267716535
20
1.979194527559055
11
0.639183937007874
21
1.9791464173228346
0
LINE
8
BLACK
6
CONTINUOUS
10
0.639183937007874
20
1.9791464173228346
11
0.6425653937007874
21
1.9775056692913386
0
LINE
8
BLACK
6
CONTINUOUS
10
0.6425653937007874
20
1.9775056692913386
11
0.6428133858267716
21
1.9773496062992126
0
LINE
8
BLACK
6
CONTINUOUS
10
0.6428133858267716
20
1.9773496062992126
11
0.6428853543307086
21
1.9773197637795275
0
LINE
8
BLACK
6
CONTINUOUS
10
0.6428853543307086
20
1.9773197637795275
11
0.6429314173228347
21
1.9772752755905512
0
LINE
8
BLACK
6
CONTINUOUS
10
0.6429314173228347
20
1.9772752755905512
11
0.6430552755905512
21
1.9771973228346456
0
LINE
8
BLACK
6
CONTINUOUS
10
0.6430552755905512
20
1.9771973228346456
11
0.6432770078740158
21
1.9769416535433071
0
LINE
8
BLACK
6
CONTINUOUS
10
0.6432770078740158
20
1.9769416535433071
11
0.6452075590551181
21
1.9750777952755905
0
LINE
8
BLACK
6
CONTINUOUS
10
0.6452075590551181
20
1.9750777952755905
11
0.6453933070866141
21
1.9748514566929134
0
LINE
8
BLACK
6
CONTINUOUS
10
0.6453933070866141
20
1.9748514566929134
11
0.6454523228346457
21
1.9748002755905512
0
LINE
8
BLACK
6
CONTINUOUS
10
0.6454523228346457
20
1.9748002755905512
11
0.6454809448818898
21
1.9747446456692912
0
LINE
8
BLACK
6
CONTINUOUS
10
0.6454809448818898
20
1.9747446456692912
11
0.6455747637795275
21
1.9746303543307087
0
LINE
8
BLACK
6
CONTINUOUS
10
0.6455747637795275
20
1.9746303543307087
11
0.6457184251968504
21
1.9742835039370079
0
LINE
8
BLACK
6
CONTINUOUS
10
0.6457184251968504
20
1.9742835039370079
11
0.6476354330708661
21
1.9705608661417322
0
LINE
8
BLACK
6
CONTINUOUS
10
0.6476354330708661
20
1.9705608661417322
11
0.6476515354330709
21
1.9705187795275589
0
LINE
8
BLACK
6
CONTINUOUS
10
0.6476515354330709
20
1.9705187795275589
11
0.647664251968504
21
1.9705016141732283
0
LINE
8
BLACK
6
CONTINUOUS
10
0.647664251968504
20
1.9705016141732283
11
0.6476768110236221
21
1.9704526771653543
0
LINE
8
BLACK
6
CONTINUOUS
10
0.6476768110236221
20
1.9704526771653543
11
0.6478423228346456
21
1.9700202755905512
0
LINE
8
BLACK
6
CONTINUOUS
10
0.6478423228346456
20
1.9700202755905512
11
0.6478629921259842
21
1.9697290551181101
0
LINE
8
BLACK
6
CONTINUOUS
10
0.6478629921259842
20
1.9697290551181101
11
0.6497337795275591
21
1.9624574409448818
0
LINE
8
BLACK
6
CONTINUOUS
10
0.6497337795275591
20
1.9624574409448818
11
0.6497485433070866
21
1.9623575984251969
0
LINE
8
BLACK
6
CONTINUOUS
10
0.6497485433070866
20
1.9623575984251969
11
0.6497651968503937
21
1.9623173622047243
0
LINE
8
BLACK
6
CONTINUOUS
10
0.6497651968503937
20
1.9623173622047243
11
0.6497655905511811
21
1.9622420078740157
0
LINE
8
BLACK
6
CONTINUOUS
10
0.6497655905511811
20
1.9622420078740157
11
0.6498184251968504
21
1.9618848425196851
0
LINE
8
BLACK
6
CONTINUOUS
10
0.6498184251968504
20
1.9618848425196851
11
0.6497695275590551
21
1.9615562992125983
0
LINE
8
BLACK
6
CONTINUOUS
10
0.6497695275590551
20
1.9615562992125983
11
0.6498219291338583
21
1.9523674803149607
0
LINE
8
BLACK
6
CONTINUOUS
10
0.6498219291338583
20
1.9523674803149607
11
0.6498120078740157
21
1.9522669685039369
0
LINE
8
BLACK
6
CONTINUOUS
10
0.6498120078740157
20
1.9522669685039369
11
0.6498184251968504
21
1.952223937007874
0
LINE
8
BLACK
6
CONTINUOUS
10
0.6498184251968504
20
1.952223937007874
11
0.6498005118110236
21
1.9521502755905511
0
LINE
8
BLACK
6
CONTINUOUS
10
0.6498005118110236
20
1.9521502755905511
11
0.6497651968503937
21
1.9517914173228346
0
LINE
8
BLACK
6
CONTINUOUS
10
0.6497651968503937
20
1.9517914173228346
11
0.6496401181102363
21
1.9514895275590551
0
LINE
8
BLACK
6
CONTINUOUS
10
0.6496401181102363
20
1.9514895275590551
11
0.6478590157480315
21
1.9441522834645668
0
LINE
8
BLACK
6
CONTINUOUS
10
0.6478590157480315
20
1.9441522834645668
11
0.6478438188976378
21
1.9441098031496062
0
LINE
8
BLACK
6
CONTINUOUS
10
0.6478438188976378
20
1.9441098031496062
11
0.6478423228346456
21
1.9440885039370079
0
LINE
8
BLACK
6
CONTINUOUS
10
0.6478423228346456
20
1.9440885039370079
11
0.6478191732283465
21
1.9440408661417323
0
LINE
8
BLACK
6
CONTINUOUS
10
0.6478191732283465
20
1.9440408661417323
11
0.647664251968504
21
1.9436071653543308
0
LINE
8
BLACK
6
CONTINUOUS
10
0.647664251968504
20
1.9436071653543308
11
0.6475035039370078
21
1.9433902362204725
0
LINE
8
BLACK
6
CONTINUOUS
10
0.6475035039370078
20
1.9433902362204725
11
0.6457606692913386
21
1.9397983858267716
0
LINE
8
BLACK
6
CONTINUOUS
10
0.6457606692913386
20
1.9397983858267716
11
0.6456046062992126
21
1.9395505118110237
0
LINE
8
BLACK
6
CONTINUOUS
10
0.6456046062992126
20
1.9395505118110237
11
0.6455748031496062
21
1.9394784645669292
0
LINE
8
BLACK
6
CONTINUOUS
10
0.6455748031496062
20
1.9394784645669292
11
0.6455302362204725
21
1.9394323622047243
0
LINE
8
BLACK
6
CONTINUOUS
10
0.6455302362204725
20
1.9394323622047243
11
0.6454523228346457
21
1.9393085039370079
0
LINE
8
BLACK
6
CONTINUOUS
10
0.6454523228346457
20
1.9393085039370079
11
0.645196653543307
21
1.9390868110236219
0
LINE
8
BLACK
6
CONTINUOUS
10
0.645196653543307
20
1.9390868110236219
11
0.6433328346456693
21
1.9371562204724408
0
LINE
8
BLACK
6
CONTINUOUS
10
0.6433328346456693
20
1.9371562204724408
11
0.6431064566929133
21
1.9369704724409449
0
LINE
8
BLACK
6
CONTINUOUS
10
0.6431064566929133
20
1.9369704724409449
11
0.6430552755905512
21
1.9369114173228346
0
LINE
8
BLACK
6
CONTINUOUS
10
0.6430552755905512
20
1.9369114173228346
11
0.6429996062992126
21
1.9368827952755905
0
LINE
8
BLACK
6
CONTINUOUS
10
0.6429996062992126
20
1.9368827952755905
11
0.6428853543307086
21
1.9367889763779527
0
LINE
8
BLACK
6
CONTINUOUS
10
0.6428853543307086
20
1.9367889763779527
11
0.6425384645669291
21
1.93664531496063
0
LINE
8
BLACK
6
CONTINUOUS
10
0.6425384645669291
20
1.93664531496063
11
0.6388158661417322
21
1.9347283070866141
0
LINE
8
BLACK
6
CONTINUOUS
10
0.6388158661417322
20
1.9347283070866141
11
0.6382752362204724
21
1.9345214173228347
0
LINE
8
BLACK
6
CONTINUOUS
10
0.6382752362204724
20
1.9345214173228347
11
0.6381694094488188
21
1.9345139370078739
0
LINE
8
BLACK
6
CONTINUOUS
10
0.6381694094488188
20
1.9345139370078739
11
0.6380714173228347
21
1.934473307086614
0
LINE
8
BLACK
6
CONTINUOUS
10
0.6380714173228347
20
1.934473307086614
11
0.6374909448818897
21
1.9344657086614172
0
LINE
8
BLACK
6
CONTINUOUS
10
0.6374909448818897
20
1.9344657086614172
11
0.6371260236220472
21
1.9344397637795274
0
LINE
8
BLACK
6
CONTINUOUS
10
0.6371260236220472
20
1.9344397637795274
11
0.6370649606299212
21
1.9344601181102361
0
LINE
8
BLACK
6
CONTINUOUS
10
0.6370649606299212
20
1.9344601181102361
11
0.6337458267716535
21
1.9344165748031497
0
LINE
8
BLACK
6
CONTINUOUS
10
0.6337458267716535
20
1.9344165748031497
11
0.6331697637795275
21
1.934473307086614
0
LINE
8
BLACK
6
CONTINUOUS
10
0.6331697637795275
20
1.934473307086614
11
0.6330717716535433
21
1.9345138976377951
0
LINE
8
BLACK
6
CONTINUOUS
10
0.6330717716535433
20
1.9345138976377951
11
0.632965905511811
21
1.9345214173228347
0
LINE
8
BLACK
6
CONTINUOUS
10
0.632965905511811
20
1.9345214173228347
11
0.6324541338582677
21
1.9347697637795276
0
LINE
8
BLACK
6
CONTINUOUS
10
0.6324541338582677
20
1.9347697637795276
11
0.6321053543307087
21
1.9349142125984251
0
LINE
8
BLACK
6
CONTINUOUS
10
0.6321053543307087
20
1.9349142125984251
11
0.6320572440944882
21
1.9349623228346455
0
LINE
8
BLACK
6
CONTINUOUS
10
0.6320572440944882
20
1.9349623228346455
11
0.6286757874015748
21
1.9366030708661417
0
LINE
8
BLACK
6
CONTINUOUS
10
0.6286757874015748
20
1.9366030708661417
11
0.6284277559055118
21
1.9367591732283465
0
LINE
8
BLACK
6
CONTINUOUS
10
0.6284277559055118
20
1.9367591732283465
11
0.6283558267716536
21
1.9367889763779527
0
LINE
8
BLACK
6
CONTINUOUS
10
0.6283558267716536
20
1.9367889763779527
11
0.6283097244094488
21
1.9368335039370079
0
LINE
8
BLACK
6
CONTINUOUS
10
0.6283097244094488
20
1.9368335039370079
11
0.628185905511811
21
1.9369114173228346
0
LINE
8
BLACK
6
CONTINUOUS
10
0.628185905511811
20
1.9369114173228346
11
0.627964094488189
21
1.9371672047244095
0
LINE
8
BLACK
6
CONTINUOUS
10
0.627964094488189
20
1.9371672047244095
11
0.6260335826771654
21
1.9390310236220472
0
LINE
8
BLACK
6
CONTINUOUS
10
0.6260335826771654
20
1.9390310236220472
11
0.6258478346456693
21
1.9392573622047244
0
LINE
8
BLACK
6
CONTINUOUS
10
0.6258478346456693
20
1.9392573622047244
11
0.6257888582677166
21
1.9393085039370079
0
LINE
8
BLACK
6
CONTINUOUS
10
0.6257888582677166
20
1.9393085039370079
11
0.6257601968503936
21
1.9393641338582677
0
LINE
8
BLACK
6
CONTINUOUS
10
0.6257601968503936
20
1.9393641338582677
11
0.6256663779527559
21
1.9394784645669292
0
LINE
8
BLACK
6
CONTINUOUS
10
0.6256663779527559
20
1.9394784645669292
11
0.6255226771653544
21
1.9398253937007874
0
LINE
8
BLACK
6
CONTINUOUS
10
0.6255226771653544
20
1.9398253937007874
11
0.623605748031496
21
1.9435479133858267
0
LINE
8
BLACK
6
CONTINUOUS
10
0.623605748031496
20
1.9435479133858267
11
0.6235896062992126
21
1.9435900393700787
0
LINE
8
BLACK
6
CONTINUOUS
10
0.6235896062992126
20
1.9435900393700787
11
0.6235769291338582
21
1.9436071653543308
0
LINE
8
BLACK
6
CONTINUOUS
10
0.6235769291338582
20
1.9436071653543308
11
0.6235642913385827
21
1.9436561811023623
0
LINE
8
BLACK
6
CONTINUOUS
10
0.6235642913385827
20
1.9436561811023623
11
0.6233988582677166
21
1.9440885433070865
0
LINE
8
BLACK
6
CONTINUOUS
10
0.6233988582677166
20
1.9440885433070865
11
0.6233781496062992
21
1.9443797637795275
0
LINE
8
BLACK
6
CONTINUOUS
10
0.6233781496062992
20
1.9443797637795275
11
0.6215074015748031
21
1.951651338582677
0
LINE
8
BLACK
6
CONTINUOUS
10
0.6215074015748031
20
1.951651338582677
11
0.6214925984251969
21
1.951751220472441
0
LINE
8
BLACK
6
CONTINUOUS
10
0.6214925984251969
20
1.951751220472441
11
0.6214759842519685
21
1.9517914173228346
0
LINE
8
BLACK
6
CONTINUOUS
10
0.6214759842519685
20
1.9517914173228346
11
0.6214755511811023
21
1.9518668110236219
0
LINE
8
BLACK
6
CONTINUOUS
10
0.6214755511811023
20
1.9518668110236219
11
0.6214227559055118
21
1.952223937007874
0
LINE
8
BLACK
6
CONTINUOUS
10
0.6214227559055118
20
1.952223937007874
11
0.6214716141732284
21
1.9525525196850393
0
LINE
8
BLACK
6
CONTINUOUS
10
0.6214716141732284
20
1.9525525196850393
11
0.6214192519685039
21
1.9617412992125984
0
LINE
8
BLACK
6
CONTINUOUS
10
0.6214192519685039
20
1.9617412992125984
11
0.6214291338582677
21
1.9618418503937007
0
LINE
8
BLACK
6
CONTINUOUS
10
0.6214291338582677
20
1.9618418503937007
11
0.6214227559055118
21
1.9618848425196851
0
LINE
8
BLACK
6
CONTINUOUS
10
0.6214227559055118
20
1.9618848425196851
11
0.6214406299212598
21
1.9619585433070865
0
LINE
8
BLACK
6
CONTINUOUS
10
0.6214406299212598
20
1.9619585433070865
11
0.6214759842519685
21
1.9623173622047243
0
LINE
8
BLACK
6
CONTINUOUS
10
0.6214759842519685
20
1.9623173622047243
11
0.6216010236220473
21
1.9626192913385827
0
LINE
8
BLACK
6
CONTINUOUS
10
0.6216010236220473
20
1.9626192913385827
11
0.6233821653543307
21
1.9699564960629921
0
LINE
8
BLACK
6
CONTINUOUS
10
0.6233821653543307
20
1.9699564960629921
11
0.6233973228346457
21
1.9699990157480314
0
LINE
8
BLACK
6
CONTINUOUS
10
0.6233973228346457
20
1.9699990157480314
11
0.6233988582677166
21
1.9700202362204724
0
LINE
8
BLACK
6
CONTINUOUS
10
0.6233988582677166
20
1.9700202362204724
11
0.6234218897637795
21
1.9700677952755905
0
LINE
8
BLACK
6
CONTINUOUS
10
0.6234218897637795
20
1.9700677952755905
11
0.6235769291338582
21
1.9705016141732283
0
LINE
8
BLACK
6
CONTINUOUS
10
0.6235769291338582
20
1.9705016141732283
11
0.6237377165354331
21
1.9707186220472441
0
LINE
8
BLACK
6
CONTINUOUS
10
0.6237377165354331
20
1.9707186220472441
11
0.6254805118110236
21
1.9743103937007873
0
LINE
8
BLACK
6
CONTINUOUS
10
0.6254805118110236
20
1.9743103937007873
11
0.6256365748031496
21
1.9745584251968504
0
LINE
8
BLACK
6
CONTINUOUS
10
0.6256365748031496
20
1.9745584251968504
11
0.6256664173228347
21
1.9746303543307087
0
LINE
8
BLACK
6
CONTINUOUS
10
0.6256664173228347
20
1.9746303543307087
11
0.625710905511811
21
1.9746764566929134
0
LINE
8
BLACK
6
CONTINUOUS
10
0.625710905511811
20
1.9746764566929134
11
0.6257888582677166
21
1.9748002755905512
0
LINE
8
BLACK
6
CONTINUOUS
10
0.6257888582677166
20
1.9748002755905512
11
0.6260445275590552
21
1.9750220472440945
0
LINE
8
BLACK
6
CONTINUOUS
10
0.6260445275590552
20
1.9750220472440945
11
0.6279083858267717
21
1.976952559055118
0
LINE
8
BLACK
6
CONTINUOUS
10
0.6279083858267717
20
1.976952559055118
11
0.6281347244094488
21
1.977138346456693
0
LINE
8
BLACK
6
CONTINUOUS
10
0.6281347244094488
20
1.977138346456693
11
0.628185905511811
21
1.9771973228346456
0
LINE
8
BLACK
6
CONTINUOUS
10
0.628185905511811
20
1.9771973228346456
11
0.6282415354330708
21
1.9772259842519684
0
LINE
8
BLACK
6
CONTINUOUS
10
0.6282415354330708
20
1.9772259842519684
11
0.6283558267716536
21
1.9773197637795275
0
LINE
8
BLACK
6
CONTINUOUS
10
0.6283558267716536
20
1.9773197637795275
11
0.6287026771653543
21
1.9774634645669291
0
LINE
8
BLACK
6
CONTINUOUS
10
0.6287026771653543
20
1.9774634645669291
11
0.6324253149606299
21
1.9793804330708662
0
LINE
8
BLACK
6
CONTINUOUS
10
0.6324253149606299
20
1.9793804330708662
11
0.632965905511811
21
1.9795873228346457
0
LINE
8
BLACK
6
CONTINUOUS
10
0.632965905511811
20
1.9795873228346457
11
0.6330717716535433
21
1.9795948818897637
0
LINE
8
BLACK
6
CONTINUOUS
10
0.6330717716535433
20
1.9795948818897637
11
0.6331697637795275
21
1.9796354330708661
0
LINE
8
BLACK
6
CONTINUOUS
10
0.6331697637795275
20
1.9796354330708661
11
0.6337501181102362
21
1.9796430708661417
0
LINE
8
BLACK
6
CONTINUOUS
10
0.6337501181102362
20
1.9796430708661417
11
0.6341151181102362
21
1.9796689763779527
0
LINE
8
BLACK
6
CONTINUOUS
10
0.6341151181102362
20
1.9796689763779527
11
0.6341761417322834
21
1.9796486614173228
0
LINE
8
BLACK
6
CONTINUOUS
10
0.6341761417322834
20
1.9796486614173228
11
0.6374953543307087
21
1.9796921653543307
0
LINE
8
BLACK
6
CONTINUOUS
10
0.6374953543307087
20
1.9796921653543307
11
0.6380714173228347
21
1.9796354330708661
0
LINE
8
BLACK
6
CONTINUOUS
10
0.6343679133858268
20
1.973794842519685
11
0.6316521259842519
21
1.972396338582677
0
LINE
8
BLACK
6
CONTINUOUS
10
0.6316521259842519
20
1.972396338582677
11
0.6304614173228347
21
1.9711629921259841
0
LINE
8
BLACK
6
CONTINUOUS
10
0.6304614173228347
20
1.9711629921259841
11
0.6289328346456693
21
1.9680127165354331
0
LINE
8
BLACK
6
CONTINUOUS
10
0.6289328346456693
20
1.9680127165354331
11
0.6272744881889764
21
1.9611812992125983
0
LINE
8
BLACK
6
CONTINUOUS
10
0.6272744881889764
20
1.9611812992125983
11
0.6273238188976378
21
1.9525327559055117
0
LINE
8
BLACK
6
CONTINUOUS
10
0.6273238188976378
20
1.9525327559055117
11
0.6290798425196851
21
1.9457070866141732
0
LINE
8
BLACK
6
CONTINUOUS
10
0.6290798425196851
20
1.9457070866141732
11
0.6305898818897637
21
1.9427747637795276
0
LINE
8
BLACK
6
CONTINUOUS
10
0.6305898818897637
20
1.9427747637795276
11
0.6318232283464567
21
1.9415839763779528
0
LINE
8
BLACK
6
CONTINUOUS
10
0.6318232283464567
20
1.9415839763779528
11
0.6345046850393701
21
1.9402828740157481
0
LINE
8
BLACK
6
CONTINUOUS
10
0.6345046850393701
20
1.9402828740157481
11
0.6368732283464567
21
1.9403139370078739
0
LINE
8
BLACK
6
CONTINUOUS
10
0.6368732283464567
20
1.9403139370078739
11
0.6395889763779528
21
1.9417124409448818
0
LINE
8
BLACK
6
CONTINUOUS
10
0.6395889763779528
20
1.9417124409448818
11
0.6407797637795275
21
1.9429458661417323
0
LINE
8
BLACK
6
CONTINUOUS
10
0.6407797637795275
20
1.9429458661417323
11
0.6423083070866141
21
1.9460961023622048
0
LINE
8
BLACK
6
CONTINUOUS
10
0.6423083070866141
20
1.9460961023622048
11
0.6439666535433071
21
1.9529275196850393
0
LINE
8
BLACK
6
CONTINUOUS
10
0.6439666535433071
20
1.9529275196850393
11
0.6439173228346456
21
1.9615760629921259
0
LINE
8
BLACK
6
CONTINUOUS
10
0.6439173228346456
20
1.9615760629921259
11
0.6421612992125985
21
1.9684017322834646
0
LINE
8
BLACK
6
CONTINUOUS
10
0.6421612992125985
20
1.9684017322834646
11
0.6406512992125984
21
1.9713340551181102
0
LINE
8
BLACK
6
CONTINUOUS
10
0.6406512992125984
20
1.9713340551181102
11
0.6394179527559055
21
1.9725247637795276
0
LINE
8
BLACK
6
CONTINUOUS
10
0.6394179527559055
20
1.9725247637795276
11
0.6367364566929133
21
1.973825905511811
0
LINE
8
BLACK
6
CONTINUOUS
10
0.6367364566929133
20
1.973825905511811
11
0.6343679133858268
21
1.973794842519685
0
LINE
8
BLACK
6
CONTINUOUS
10
0.4959333070866142
20
1.943872401574803
11
0.4966536220472441
21
1.9435740551181102
0
LINE
8
BLACK
6
CONTINUOUS
10
0.4966536220472441
20
1.9435740551181102
11
0.4966536614173228
21
1.9435740157480315
0
LINE
8
BLACK
6
CONTINUOUS
10
0.4966536614173228
20
1.9435740157480315
11
0.4989758661417323
21
1.9413320078740157
0
LINE
8
BLACK
6
CONTINUOUS
10
0.4989758661417323
20
1.9413320078740157
11
0.4993431102362205
21
1.9408845275590552
0
LINE
8
BLACK
6
CONTINUOUS
10
0.4993431102362205
20
1.9408845275590552
11
0.4997821653543307
21
1.9398244488188976
0
LINE
8
BLACK
6
CONTINUOUS
10
0.4997821653543307
20
1.9398244488188976
11
0.4997839763779527
21
1.9398201181102361
0
LINE
8
BLACK
6
CONTINUOUS
10
0.4997839763779527
20
1.9398201181102361
11
0.4997839763779527
21
1.9386680314960629
0
LINE
8
BLACK
6
CONTINUOUS
10
0.4997839763779527
20
1.9386680314960629
11
0.4993430708661417
21
1.9376036220472441
0
LINE
8
BLACK
6
CONTINUOUS
10
0.4993430708661417
20
1.9376036220472441
11
0.4971011023622047
21
1.9352814173228345
0
LINE
8
BLACK
6
CONTINUOUS
10
0.4971011023622047
20
1.9352814173228345
11
0.4966536614173228
21
1.9349142125984251
0
LINE
8
BLACK
6
CONTINUOUS
10
0.4966536614173228
20
1.9349142125984251
11
0.495589251968504
21
1.934473307086614
0
LINE
8
BLACK
6
CONTINUOUS
10
0.495589251968504
20
1.934473307086614
11
0.4955892125984252
21
1.934473307086614
0
LINE
8
BLACK
6
CONTINUOUS
10
0.4955892125984252
20
1.934473307086614
11
0.4944371653543307
21
1.934473307086614
0
LINE
8
BLACK
6
CONTINUOUS
10
0.4944371653543307
20
1.934473307086614
11
0.4944371259842519
21
1.934473307086614
0
LINE
8
BLACK
6
CONTINUOUS
10
0.4944371259842519
20
1.934473307086614
11
0.4933727165354331
21
1.9349142125984251
0
LINE
8
BLACK
6
CONTINUOUS
10
0.4933727165354331
20
1.9349142125984251
11
0.4910505118110236
21
1.9371561811023621
0
LINE
8
BLACK
6
CONTINUOUS
10
0.4910505118110236
20
1.9371561811023621
11
0.4906833070866142
21
1.9376036220472441
0
LINE
8
BLACK
6
CONTINUOUS
10
0.4906833070866142
20
1.9376036220472441
11
0.4904407086614173
21
1.9381893307086613
0
LINE
8
BLACK
6
CONTINUOUS
10
0.4904407086614173
20
1.9381893307086613
11
0.4902424015748031
21
1.9386680314960629
0
LINE
8
BLACK
6
CONTINUOUS
10
0.4902424015748031
20
1.9386680314960629
11
0.4902424015748031
21
1.9398201181102361
0
LINE
8
BLACK
6
CONTINUOUS
10
0.4902424015748031
20
1.9398201181102361
11
0.4906832677165354
21
1.9408845275590552
0
LINE
8
BLACK
6
CONTINUOUS
10
0.4906832677165354
20
1.9408845275590552
11
0.4929252362204724
21
1.9432067716535433
0
LINE
8
BLACK
6
CONTINUOUS
10
0.4929252362204724
20
1.9432067716535433
11
0.4933727165354331
21
1.9435740157480315
0
LINE
8
BLACK
6
CONTINUOUS
10
0.4933727165354331
20
1.9435740157480315
11
0.4933727559055118
21
1.9435740551181102
0
LINE
8
BLACK
6
CONTINUOUS
10
0.4933727559055118
20
1.9435740551181102
11
0.4940930708661417
21
1.943872401574803
0
LINE
8
BLACK
6
CONTINUOUS
10
0.4940930708661417
20
1.943872401574803
11
0.4944371259842519
21
1.9440149212598425
0
LINE
8
BLACK
6
CONTINUOUS
10
0.4944371259842519
20
1.9440149212598425
11
0.4955892125984252
21
1.9440149212598425
0
LINE
8
BLACK
6
CONTINUOUS
10
0.4955892125984252
20
1.9440149212598425
11
0.495589251968504
21
1.9440149212598425
0
LINE
8
BLACK
6
CONTINUOUS
10
0.495589251968504
20
1.9440149212598425
11
0.4959333070866142
21
1.943872401574803
0
LINE
8
BLACK
6
CONTINUOUS
10
0.7224358661417323
20
1.9665120866141732
11
0.7225338582677165
21
1.9664714960629921
0
LINE
8
BLACK
6
CONTINUOUS
10
0.7225338582677165
20
1.9664714960629921
11
0.72263968503937
21
1.9664639763779528
0
LINE
8
BLACK
6
CONTINUOUS
10
0.72263968503937
20
1.9664639763779528
11
0.7231512598425197
21
1.9662157480314961
0
LINE
8
BLACK
6
CONTINUOUS
10
0.7231512598425197
20
1.9662157480314961
11
0.7235002755905512
21
1.9660711811023621
0
LINE
8
BLACK
6
CONTINUOUS
10
0.7235002755905512
20
1.9660711811023621
11
0.7235483858267716
21
1.9660230708661417
0
LINE
8
BLACK
6
CONTINUOUS
10
0.7235483858267716
20
1.9660230708661417
11
0.7269298818897638
21
1.9643823228346455
0
LINE
8
BLACK
6
CONTINUOUS
10
0.7269298818897638
20
1.9643823228346455
11
0.7270261811023622
21
1.9643216929133858
0
LINE
8
BLACK
6
CONTINUOUS
10
0.7270261811023622
20
1.9643216929133858
11
0.7270716535433071
21
1.9643065354330709
0
LINE
8
BLACK
6
CONTINUOUS
10
0.7270716535433071
20
1.9643065354330709
11
0.7271282283464566
21
1.9642574803149606
0
LINE
8
BLACK
6
CONTINUOUS
10
0.7271282283464566
20
1.9642574803149606
11
0.7274197244094488
21
1.9640739763779527
0
LINE
8
BLACK
6
CONTINUOUS
10
0.7274197244094488
20
1.9640739763779527
11
0.7276622047244095
21
1.9637943700787401
0
LINE
8
BLACK
6
CONTINUOUS
10
0.7276622047244095
20
1.9637943700787401
11
0.7279420472440945
21
1.9635516929133858
0
LINE
8
BLACK
6
CONTINUOUS
10
0.7279420472440945
20
1.9635516929133858
11
0.7280433858267716
21
1.9633548818897637
0
LINE
8
BLACK
6
CONTINUOUS
10
0.7280433858267716
20
1.9633548818897637
11
0.7281746062992126
21
1.9632035826771652
0
LINE
8
BLACK
6
CONTINUOUS
10
0.7281746062992126
20
1.9632035826771652
11
0.7282724015748031
21
1.9629101181102362
0
LINE
8
BLACK
6
CONTINUOUS
10
0.7282724015748031
20
1.9629101181102362
11
0.7301251574803149
21
1.9593122834645669
0
LINE
8
BLACK
6
CONTINUOUS
10
0.7301251574803149
20
1.9593122834645669
11
0.7303320472440945
21
1.9587716929133858
0
LINE
8
BLACK
6
CONTINUOUS
10
0.7303320472440945
20
1.9587716929133858
11
0.7303395669291338
21
1.9586658267716535
0
LINE
8
BLACK
6
CONTINUOUS
10
0.7303395669291338
20
1.9586658267716535
11
0.7303801574803149
21
1.9585678346456692
0
LINE
8
BLACK
6
CONTINUOUS
10
0.7303801574803149
20
1.9585678346456692
11
0.7303814566929133
21
1.9580760629921259
0
LINE
8
BLACK
6
CONTINUOUS
10
0.7303814566929133
20
1.9580760629921259
11
0.7304137007874015
21
1.9576224803149607
0
LINE
8
BLACK
6
CONTINUOUS
10
0.7304137007874015
20
1.9576224803149607
11
0.7303829133858267
21
1.9575301968503938
0
LINE
8
BLACK
6
CONTINUOUS
10
0.7303829133858267
20
1.9575301968503938
11
0.7304368897637795
21
1.9373693307086615
0
LINE
8
BLACK
6
CONTINUOUS
10
0.7304368897637795
20
1.9373693307086615
11
0.7303801574803149
21
1.9367932677165354
0
LINE
8
BLACK
6
CONTINUOUS
10
0.7303801574803149
20
1.9367932677165354
11
0.729939251968504
21
1.9357288582677166
0
LINE
8
BLACK
6
CONTINUOUS
10
0.729939251968504
20
1.9357288582677166
11
0.7291246062992126
21
1.9349142125984251
0
LINE
8
BLACK
6
CONTINUOUS
10
0.7291246062992126
20
1.9349142125984251
11
0.7280601968503937
21
1.934473307086614
0
LINE
8
BLACK
6
CONTINUOUS
10
0.7280601968503937
20
1.934473307086614
11
0.7269080708661417
21
1.934473307086614
0
LINE
8
BLACK
6
CONTINUOUS
10
0.7269080708661417
20
1.934473307086614
11
0.7258436614173228
21
1.9349142125984251
0
LINE
8
BLACK
6
CONTINUOUS
10
0.7258436614173228
20
1.9349142125984251
11
0.7250290157480315
21
1.9357288582677166
0
LINE
8
BLACK
6
CONTINUOUS
10
0.7250290157480315
20
1.9357288582677166
11
0.7245881102362205
21
1.9367932677165354
0
LINE
8
BLACK
6
CONTINUOUS
10
0.7245881102362205
20
1.9367932677165354
11
0.7245329921259842
21
1.9573823622047244
0
LINE
8
BLACK
6
CONTINUOUS
10
0.7245329921259842
20
1.9573823622047244
11
0.7233969291338582
21
1.9595885039370078
0
LINE
8
BLACK
6
CONTINUOUS
10
0.7233969291338582
20
1.9595885039370078
11
0.7210901968503937
21
1.9607077559055117
0
LINE
8
BLACK
6
CONTINUOUS
10
0.7210901968503937
20
1.9607077559055117
11
0.716852716535433
21
1.9606689763779528
0
LINE
8
BLACK
6
CONTINUOUS
10
0.716852716535433
20
1.9606689763779528
11
0.7146388188976378
21
1.9595288976377951
0
LINE
8
BLACK
6
CONTINUOUS
10
0.7146388188976378
20
1.9595288976377951
11
0.7135108661417323
21
1.9572043307086613
0
LINE
8
BLACK
6
CONTINUOUS
10
0.7135108661417323
20
1.9572043307086613
11
0.7135639763779528
21
1.9373693307086615
0
LINE
8
BLACK
6
CONTINUOUS
10
0.7135639763779528
20
1.9373693307086615
11
0.7135072440944882
21
1.9367932677165354
0
LINE
8
BLACK
6
CONTINUOUS
10
0.7135072440944882
20
1.9367932677165354
11
0.7130663385826771
21
1.9357288582677166
0
LINE
8
BLACK
6
CONTINUOUS
10
0.7130663385826771
20
1.9357288582677166
11
0.7122516929133859
21
1.9349142125984251
0
LINE
8
BLACK
6
CONTINUOUS
10
0.7122516929133859
20
1.9349142125984251
11
0.7111872834645669
21
1.934473307086614
0
LINE
8
BLACK
6
CONTINUOUS
10
0.7111872834645669
20
1.934473307086614
11
0.710035157480315
21
1.934473307086614
0
LINE
8
BLACK
6
CONTINUOUS
10
0.710035157480315
20
1.934473307086614
11
0.7089707480314961
21
1.9349142125984251
0
LINE
8
BLACK
6
CONTINUOUS
10
0.7089707480314961
20
1.9349142125984251
11
0.7081561023622047
21
1.9357288582677166
0
LINE
8
BLACK
6
CONTINUOUS
10
0.7081561023622047
20
1.9357288582677166
11
0.7077151968503936
21
1.9367932677165354
0
LINE
8
BLACK
6
CONTINUOUS
10
0.7077151968503936
20
1.9367932677165354
11
0.7076600787401575
21
1.9573823622047244
0
LINE
8
BLACK
6
CONTINUOUS
10
0.7076600787401575
20
1.9573823622047244
11
0.7065240157480315
21
1.959588464566929
0
LINE
8
BLACK
6
CONTINUOUS
10
0.7065240157480315
20
1.959588464566929
11
0.7042173228346457
21
1.9607077559055117
0
LINE
8
BLACK
6
CONTINUOUS
10
0.7042173228346457
20
1.9607077559055117
11
0.699979842519685
21
1.9606689763779528
0
LINE
8
BLACK
6
CONTINUOUS
10
0.699979842519685
20
1.9606689763779528
11
0.697268937007874
21
1.9592729921259842
0
LINE
8
BLACK
6
CONTINUOUS
10
0.697268937007874
20
1.9592729921259842
11
0.6966461023622047
21
1.9586278740157479
0
LINE
8
BLACK
6
CONTINUOUS
10
0.6966461023622047
20
1.9586278740157479
11
0.6966911023622047
21
1.9373693307086615
0
LINE
8
BLACK
6
CONTINUOUS
10
0.6966911023622047
20
1.9373693307086615
11
0.6966343700787402
21
1.9367932677165354
0
LINE
8
BLACK
6
CONTINUOUS
10
0.6966343700787402
20
1.9367932677165354
11
0.6961934645669291
21
1.9357288582677166
0
LINE
8
BLACK
6
CONTINUOUS
10
0.6961934645669291
20
1.9357288582677166
11
0.6953788188976378
21
1.9349142125984251
0
LINE
8
BLACK
6
CONTINUOUS
10
0.6953788188976378
20
1.9349142125984251
11
0.6943144094488188
21
1.934473307086614
0
LINE
8
BLACK
6
CONTINUOUS
10
0.6943144094488188
20
1.934473307086614
11
0.6931622834645669
21
1.934473307086614
0
LINE
8
BLACK
6
CONTINUOUS
10
0.6931622834645669
20
1.934473307086614
11
0.692097874015748
21
1.9349142125984251
0
LINE
8
BLACK
6
CONTINUOUS
10
0.692097874015748
20
1.9349142125984251
11
0.6912832283464567
21
1.9357288582677166
0
LINE
8
BLACK
6
CONTINUOUS
10
0.6912832283464567
20
1.9357288582677166
11
0.6908423228346456
21
1.9367932677165354
0
LINE
8
BLACK
6
CONTINUOUS
10
0.6908423228346456
20
1.9367932677165354
11
0.6907855905511811
21
1.963616062992126
0
LINE
8
BLACK
6
CONTINUOUS
10
0.6907855905511811
20
1.963616062992126
11
0.6908423228346456
21
1.9641921259842519
0
LINE
8
BLACK
6
CONTINUOUS
10
0.6908423228346456
20
1.9641921259842519
11
0.6912832283464567
21
1.9652565354330709
0
LINE
8
BLACK
6
CONTINUOUS
10
0.6912832283464567
20
1.9652565354330709
11
0.692097874015748
21
1.9660711811023621
0
LINE
8
BLACK
6
CONTINUOUS
10
0.692097874015748
20
1.9660711811023621
11
0.6931622834645669
21
1.9665120866141732
0
LINE
8
BLACK
6
CONTINUOUS
10
0.6931622834645669
20
1.9665120866141732
11
0.6943144094488188
21
1.9665120866141732
0
LINE
8
BLACK
6
CONTINUOUS
10
0.6943144094488188
20
1.9665120866141732
11
0.6953788188976378
21
1.9660711811023621
0
LINE
8
BLACK
6
CONTINUOUS
10
0.6953788188976378
20
1.9660711811023621
11
0.6961613779527559
21
1.9652886220472441
0
LINE
8
BLACK
6
CONTINUOUS
10
0.6961613779527559
20
1.9652886220472441
11
0.698042125984252
21
1.9662570866141731
0
LINE
8
BLACK
6
CONTINUOUS
10
0.698042125984252
20
1.9662570866141731
11
0.698582716535433
21
1.9664639763779528
0
LINE
8
BLACK
6
CONTINUOUS
10
0.698582716535433
20
1.9664639763779528
11
0.6986885826771654
21
1.9664715354330708
0
LINE
8
BLACK
6
CONTINUOUS
10
0.6986885826771654
20
1.9664715354330708
11
0.6987865748031495
21
1.9665120866141732
0
LINE
8
BLACK
6
CONTINUOUS
10
0.6987865748031495
20
1.9665120866141732
11
0.6993297637795275
21
1.9665170866141732
0
LINE
8
BLACK
6
CONTINUOUS
10
0.6993297637795275
20
1.9665170866141732
11
0.6997319291338583
21
1.9665456299212598
0
LINE
8
BLACK
6
CONTINUOUS
10
0.6997319291338583
20
1.9665456299212598
11
0.6998046062992126
21
1.9665214173228347
0
LINE
8
BLACK
6
CONTINUOUS
10
0.6998046062992126
20
1.9665214173228347
11
0.7049869291338583
21
1.9665688188976378
0
LINE
8
BLACK
6
CONTINUOUS
10
0.7049869291338583
20
1.9665688188976378
11
0.7055629921259843
21
1.9665120866141732
0
LINE
8
BLACK
6
CONTINUOUS
10
0.7055629921259843
20
1.9665120866141732
11
0.7056609842519684
21
1.9664714960629921
0
LINE
8
BLACK
6
CONTINUOUS
10
0.7056609842519684
20
1.9664714960629921
11
0.705766811023622
21
1.9664639763779528
0
LINE
8
BLACK
6
CONTINUOUS
10
0.705766811023622
20
1.9664639763779528
11
0.7062783464566929
21
1.9662157874015747
0
LINE
8
BLACK
6
CONTINUOUS
10
0.7062783464566929
20
1.9662157874015747
11
0.7066274015748031
21
1.9660711811023621
0
LINE
8
BLACK
6
CONTINUOUS
10
0.7066274015748031
20
1.9660711811023621
11
0.7066755118110236
21
1.9660230708661417
0
LINE
8
BLACK
6
CONTINUOUS
10
0.7066755118110236
20
1.9660230708661417
11
0.710056968503937
21
1.9643823228346455
0
LINE
8
BLACK
6
CONTINUOUS
10
0.710056968503937
20
1.9643823228346455
11
0.7101533070866142
21
1.9643216929133858
0
LINE
8
BLACK
6
CONTINUOUS
10
0.7101533070866142
20
1.9643216929133858
11
0.7101987401574803
21
1.9643065354330709
0
LINE
8
BLACK
6
CONTINUOUS
10
0.7101987401574803
20
1.9643065354330709
11
0.7102552755905511
21
1.9642575196850394
0
LINE
8
BLACK
6
CONTINUOUS
10
0.7102552755905511
20
1.9642575196850394
11
0.7105468503937008
21
1.9640739763779527
0
LINE
8
BLACK
6
CONTINUOUS
10
0.7105468503937008
20
1.9640739763779527
11
0.710611220472441
21
1.9639997637795275
0
LINE
8
BLACK
6
CONTINUOUS
10
0.710611220472441
20
1.9639997637795275
11
0.7106755905511811
21
1.9640739763779527
0
LINE
8
BLACK
6
CONTINUOUS
10
0.7106755905511811
20
1.9640739763779527
11
0.7108724015748031
21
1.9641753543307086
0
LINE
8
BLACK
6
CONTINUOUS
10
0.7108724015748031
20
1.9641753543307086
11
0.7110237007874015
21
1.9643065354330709
0
LINE
8
BLACK
6
CONTINUOUS
10
0.7110237007874015
20
1.9643065354330709
11
0.7113171653543306
21
1.9644043700787401
0
LINE
8
BLACK
6
CONTINUOUS
10
0.7113171653543306
20
1.9644043700787401
11
0.714915
21
1.9662570866141731
0
LINE
8
BLACK
6
CONTINUOUS
10
0.714915
20
1.9662570866141731
11
0.7154555905511811
21
1.9664639763779528
0
LINE
8
BLACK
6
CONTINUOUS
10
0.7154555905511811
20
1.9664639763779528
11
0.7155614566929134
21
1.9664715354330708
0
LINE
8
BLACK
6
CONTINUOUS
10
0.7155614566929134
20
1.9664715354330708
11
0.7156594488188976
21
1.9665120866141732
0
LINE
8
BLACK
6
CONTINUOUS
10
0.7156594488188976
20
1.9665120866141732
11
0.7162026377952756
21
1.9665170866141732
0
LINE
8
BLACK
6
CONTINUOUS
10
0.7162026377952756
20
1.9665170866141732
11
0.7166048031496063
21
1.9665456299212598
0
LINE
8
BLACK
6
CONTINUOUS
10
0.7166048031496063
20
1.9665456299212598
11
0.7166774803149606
21
1.9665214173228347
0
LINE
8
BLACK
6
CONTINUOUS
10
0.7166774803149606
20
1.9665214173228347
11
0.7218598031496063
21
1.9665688188976378
0
LINE
8
BLACK
6
CONTINUOUS
10
0.7218598031496063
20
1.9665688188976378
11
0.7224358661417323
21
1.9665120866141732
0
LINE
8
BLACK
6
CONTINUOUS
10
0.7749292913385827
20
1.9665120866141732
11
0.775027283464567
21
1.9664714960629921
0
LINE
8
BLACK
6
CONTINUOUS
10
0.775027283464567
20
1.9664714960629921
11
0.7751331102362204
21
1.9664639763779528
0
LINE
8
BLACK
6
CONTINUOUS
10
0.7751331102362204
20
1.9664639763779528
11
0.77564468503937
21
1.9662157480314961
0
LINE
8
BLACK
6
CONTINUOUS
10
0.77564468503937
20
1.9662157480314961
11
0.7759937007874016
21
1.9660711811023621
0
LINE
8
BLACK
6
CONTINUOUS
10
0.7759937007874016
20
1.9660711811023621
11
0.776041811023622
21
1.9660230708661417
0
LINE
8
BLACK
6
CONTINUOUS
10
0.776041811023622
20
1.9660230708661417
11
0.7794233070866141
21
1.9643823228346455
0
LINE
8
BLACK
6
CONTINUOUS
10
0.7794233070866141
20
1.9643823228346455
11
0.7795196062992126
21
1.9643216929133858
0
LINE
8
BLACK
6
CONTINUOUS
10
0.7795196062992126
20
1.9643216929133858
11
0.7795650787401575
21
1.9643065354330709
0
LINE
8
BLACK
6
CONTINUOUS
10
0.7795650787401575
20
1.9643065354330709
11
0.779621653543307
21
1.9642574803149606
0
LINE
8
BLACK
6
CONTINUOUS
10
0.779621653543307
20
1.9642574803149606
11
0.7799131496062992
21
1.9640739763779527
0
LINE
8
BLACK
6
CONTINUOUS
10
0.7799131496062992
20
1.9640739763779527
11
0.7801556299212599
21
1.9637943700787401
0
LINE
8
BLACK
6
CONTINUOUS
10
0.7801556299212599
20
1.9637943700787401
11
0.7804354724409449
21
1.9635516929133858
0
LINE
8
BLACK
6
CONTINUOUS
10
0.7804354724409449
20
1.9635516929133858
11
0.780536811023622
21
1.9633548818897637
0
LINE
8
BLACK
6
CONTINUOUS
10
0.780536811023622
20
1.9633548818897637
11
0.780668031496063
21
1.9632035826771652
0
LINE
8
BLACK
6
CONTINUOUS
10
0.780668031496063
20
1.9632035826771652
11
0.7807658267716535
21
1.9629101181102362
0
LINE
8
BLACK
6
CONTINUOUS
10
0.7807658267716535
20
1.9629101181102362
11
0.7826185826771653
21
1.9593122834645669
0
LINE
8
BLACK
6
CONTINUOUS
10
0.7826185826771653
20
1.9593122834645669
11
0.7828254724409449
21
1.9587716929133858
0
LINE
8
BLACK
6
CONTINUOUS
10
0.7828254724409449
20
1.9587716929133858
11
0.7828329921259842
21
1.9586658267716535
0
LINE
8
BLACK
6
CONTINUOUS
10
0.7828329921259842
20
1.9586658267716535
11
0.7828735826771653
21
1.9585678346456692
0
LINE
8
BLACK
6
CONTINUOUS
10
0.7828735826771653
20
1.9585678346456692
11
0.7828748818897637
21
1.9580760629921259
0
LINE
8
BLACK
6
CONTINUOUS
10
0.7828748818897637
20
1.9580760629921259
11
0.7829071259842519
21
1.9576224803149607
0
LINE
8
BLACK
6
CONTINUOUS
10
0.7829071259842519
20
1.9576224803149607
11
0.7828763385826771
21
1.9575301968503938
0
LINE
8
BLACK
6
CONTINUOUS
10
0.7828763385826771
20
1.9575301968503938
11
0.7829303149606299
21
1.9373693307086615
0
LINE
8
BLACK
6
CONTINUOUS
10
0.7829303149606299
20
1.9373693307086615
11
0.7828735826771653
21
1.9367932677165354
0
LINE
8
BLACK
6
CONTINUOUS
10
0.7828735826771653
20
1.9367932677165354
11
0.7824326771653544
21
1.9357288582677166
0
LINE
8
BLACK
6
CONTINUOUS
10
0.7824326771653544
20
1.9357288582677166
11
0.781618031496063
21
1.9349142125984251
0
LINE
8
BLACK
6
CONTINUOUS
10
0.781618031496063
20
1.9349142125984251
11
0.7805536220472441
21
1.934473307086614
0
LINE
8
BLACK
6
CONTINUOUS
10
0.7805536220472441
20
1.934473307086614
11
0.7794014960629921
21
1.934473307086614
0
LINE
8
BLACK
6
CONTINUOUS
10
0.7794014960629921
20
1.934473307086614
11
0.7783370866141732
21
1.9349142125984251
0
LINE
8
BLACK
6
CONTINUOUS
10
0.7783370866141732
20
1.9349142125984251
11
0.7775224409448819
21
1.9357288582677166
0
LINE
8
BLACK
6
CONTINUOUS
10
0.7775224409448819
20
1.9357288582677166
11
0.7770815354330709
21
1.9367932677165354
0
LINE
8
BLACK
6
CONTINUOUS
10
0.7770815354330709
20
1.9367932677165354
11
0.7770264173228346
21
1.9573823622047244
0
LINE
8
BLACK
6
CONTINUOUS
10
0.7770264173228346
20
1.9573823622047244
11
0.7758903543307086
21
1.9595885039370078
0
LINE
8
BLACK
6
CONTINUOUS
10
0.7758903543307086
20
1.9595885039370078
11
0.7735836220472441
21
1.9607077559055117
0
LINE
8
BLACK
6
CONTINUOUS
10
0.7735836220472441
20
1.9607077559055117
11
0.7693461417322834
21
1.9606689763779528
0
LINE
8
BLACK
6
CONTINUOUS
10
0.7693461417322834
20
1.9606689763779528
11
0.7671322440944882
21
1.9595288976377951
0
LINE
8
BLACK
6
CONTINUOUS
10
0.7671322440944882
20
1.9595288976377951
11
0.7660042913385826
21
1.9572043307086613
0
LINE
8
BLACK
6
CONTINUOUS
10
0.7660042913385826
20
1.9572043307086613
11
0.7660574015748032
21
1.9373693307086615
0
LINE
8
BLACK
6
CONTINUOUS
10
0.7660574015748032
20
1.9373693307086615
11
0.7660006692913386
21
1.9367932677165354
0
LINE
8
BLACK
6
CONTINUOUS
10
0.7660006692913386
20
1.9367932677165354
11
0.7655597637795275
21
1.9357288582677166
0
LINE
8
BLACK
6
CONTINUOUS
10
0.7655597637795275
20
1.9357288582677166
11
0.7647451181102362
21
1.9349142125984251
0
LINE
8
BLACK
6
CONTINUOUS
10
0.7647451181102362
20
1.9349142125984251
11
0.7636807086614174
21
1.934473307086614
0
LINE
8
BLACK
6
CONTINUOUS
10
0.7636807086614174
20
1.934473307086614
11
0.7625285826771654
21
1.934473307086614
0
LINE
8
BLACK
6
CONTINUOUS
10
0.7625285826771654
20
1.934473307086614
11
0.7614641732283465
21
1.9349142125984251
0
LINE
8
BLACK
6
CONTINUOUS
10
0.7614641732283465
20
1.9349142125984251
11
0.7606495275590551
21
1.9357288582677166
0
LINE
8
BLACK
6
CONTINUOUS
10
0.7606495275590551
20
1.9357288582677166
11
0.760208622047244
21
1.9367932677165354
0
LINE
8
BLACK
6
CONTINUOUS
10
0.760208622047244
20
1.9367932677165354
11
0.7601535039370079
21
1.9573823622047244
0
LINE
8
BLACK
6
CONTINUOUS
10
0.7601535039370079
20
1.9573823622047244
11
0.7590174409448819
21
1.959588464566929
0
LINE
8
BLACK
6
CONTINUOUS
10
0.7590174409448819
20
1.959588464566929
11
0.7567107480314961
21
1.9607077559055117
0
LINE
8
BLACK
6
CONTINUOUS
10
0.7567107480314961
20
1.9607077559055117
11
0.7524732677165354
21
1.9606689763779528
0
LINE
8
BLACK
6
CONTINUOUS
10
0.7524732677165354
20
1.9606689763779528
11
0.7497623622047244
21
1.9592729921259842
0
LINE
8
BLACK
6
CONTINUOUS
10
0.7497623622047244
20
1.9592729921259842
11
0.7491395275590551
21
1.9586278740157479
0
LINE
8
BLACK
6
CONTINUOUS
10
0.7491395275590551
20
1.9586278740157479
11
0.7491845275590551
21
1.9373693307086615
0
LINE
8
BLACK
6
CONTINUOUS
10
0.7491845275590551
20
1.9373693307086615
11
0.7491277952755905
21
1.9367932677165354
0
LINE
8
BLACK
6
CONTINUOUS
10
0.7491277952755905
20
1.9367932677165354
11
0.7486868897637795
21
1.9357288582677166
0
LINE
8
BLACK
6
CONTINUOUS
10
0.7486868897637795
20
1.9357288582677166
11
0.7478722440944882
21
1.9349142125984251
0
LINE
8
BLACK
6
CONTINUOUS
10
0.7478722440944882
20
1.9349142125984251
11
0.7468078346456692
21
1.934473307086614
0
LINE
8
BLACK
6
CONTINUOUS
10
0.7468078346456692
20
1.934473307086614
11
0.7456557086614173
21
1.934473307086614
0
LINE
8
BLACK
6
CONTINUOUS
10
0.7456557086614173
20
1.934473307086614
11
0.7445912992125984
21
1.9349142125984251
0
LINE
8
BLACK
6
CONTINUOUS
10
0.7445912992125984
20
1.9349142125984251
11
0.743776653543307
21
1.9357288582677166
0
LINE
8
BLACK
6
CONTINUOUS
10
0.743776653543307
20
1.9357288582677166
11
0.743335748031496
21
1.9367932677165354
0
LINE
8
BLACK
6
CONTINUOUS
10
0.743335748031496
20
1.9367932677165354
11
0.7432790157480315
21
1.963616062992126
0
LINE
8
BLACK
6
CONTINUOUS
10
0.7432790157480315
20
1.963616062992126
11
0.743335748031496
21
1.9641921259842519
0
LINE
8
BLACK
6
CONTINUOUS
10
0.743335748031496
20
1.9641921259842519
11
0.743776653543307
21
1.9652565354330709
0
LINE
8
BLACK
6
CONTINUOUS
10
0.743776653543307
20
1.9652565354330709
11
0.7445912992125984
21
1.9660711811023621
0
LINE
8
BLACK
6
CONTINUOUS
10
0.7445912992125984
20
1.9660711811023621
11
0.7456557086614173
21
1.9665120866141732
0
LINE
8
BLACK
6
CONTINUOUS
10
0.7456557086614173
20
1.9665120866141732
11
0.7468078346456692
21
1.9665120866141732
0
LINE
8
BLACK
6
CONTINUOUS
10
0.7468078346456692
20
1.9665120866141732
11
0.7478722440944882
21
1.9660711811023621
0
LINE
8
BLACK
6
CONTINUOUS
10
0.7478722440944882
20
1.9660711811023621
11
0.7486548031496063
21
1.9652886220472441
0
LINE
8
BLACK
6
CONTINUOUS
10
0.7486548031496063
20
1.9652886220472441
11
0.7505355511811024
21
1.9662570866141731
0
LINE
8
BLACK
6
CONTINUOUS
10
0.7505355511811024
20
1.9662570866141731
11
0.7510761417322834
21
1.9664639763779528
0
LINE
8
BLACK
6
CONTINUOUS
10
0.7510761417322834
20
1.9664639763779528
11
0.7511820078740157
21
1.9664715354330708
0
LINE
8
BLACK
6
CONTINUOUS
10
0.7511820078740157
20
1.9664715354330708
11
0.7512799999999999
21
1.9665120866141732
0
LINE
8
BLACK
6
CONTINUOUS
10
0.7512799999999999
20
1.9665120866141732
11
0.7518231889763779
21
1.9665170866141732
0
LINE
8
BLACK
6
CONTINUOUS
10
0.7518231889763779
20
1.9665170866141732
11
0.7522253543307087
21
1.9665456299212598
0
LINE
8
BLACK
6
CONTINUOUS
10
0.7522253543307087
20
1.9665456299212598
11
0.752298031496063
21
1.9665214173228347
0
LINE
8
BLACK
6
CONTINUOUS
10
0.752298031496063
20
1.9665214173228347
11
0.7574803543307086
21
1.9665688188976378
0
LINE
8
BLACK
6
CONTINUOUS
10
0.7574803543307086
20
1.9665688188976378
11
0.7580564173228346
21
1.9665120866141732
0
LINE
8
BLACK
6
CONTINUOUS
10
0.7580564173228346
20
1.9665120866141732
11
0.7581544094488188
21
1.9664714960629921
0
LINE
8
BLACK
6
CONTINUOUS
10
0.7581544094488188
20
1.9664714960629921
11
0.7582602362204724
21
1.9664639763779528
0
LINE
8
BLACK
6
CONTINUOUS
10
0.7582602362204724
20
1.9664639763779528
11
0.7587717716535433
21
1.9662157874015747
0
LINE
8
BLACK
6
CONTINUOUS
10
0.7587717716535433
20
1.9662157874015747
11
0.7591208267716535
21
1.9660711811023621
0
LINE
8
BLACK
6
CONTINUOUS
10
0.7591208267716535
20
1.9660711811023621
11
0.759168937007874
21
1.9660230708661417
0
LINE
8
BLACK
6
CONTINUOUS
10
0.759168937007874
20
1.9660230708661417
11
0.7625503937007874
21
1.9643823228346455
0
LINE
8
BLACK
6
CONTINUOUS
10
0.7625503937007874
20
1.9643823228346455
11
0.7626467322834646
21
1.9643216929133858
0
LINE
8
BLACK
6
CONTINUOUS
10
0.7626467322834646
20
1.9643216929133858
11
0.7626921653543307
21
1.9643065354330709
0
LINE
8
BLACK
6
CONTINUOUS
10
0.7626921653543307
20
1.9643065354330709
11
0.7627487007874015
21
1.9642575196850394
0
LINE
8
BLACK
6
CONTINUOUS
10
0.7627487007874015
20
1.9642575196850394
11
0.7630402755905512
21
1.9640739763779527
0
LINE
8
BLACK
6
CONTINUOUS
10
0.7630402755905512
20
1.9640739763779527
11
0.7631046456692914
21
1.9639997637795275
0
LINE
8
BLACK
6
CONTINUOUS
10
0.7631046456692914
20
1.9639997637795275
11
0.7631690157480315
21
1.9640739763779527
0
LINE
8
BLACK
6
CONTINUOUS
10
0.7631690157480315
20
1.9640739763779527
11
0.7633658267716535
21
1.9641753543307086
0
LINE
8
BLACK
6
CONTINUOUS
10
0.7633658267716535
20
1.9641753543307086
11
0.7635171259842519
21
1.9643065354330709
0
LINE
8
BLACK
6
CONTINUOUS
10
0.7635171259842519
20
1.9643065354330709
11
0.7638105905511811
21
1.9644043700787401
0
LINE
8
BLACK
6
CONTINUOUS
10
0.7638105905511811
20
1.9644043700787401
11
0.7674084251968504
21
1.9662570866141731
0
LINE
8
BLACK
6
CONTINUOUS
10
0.7674084251968504
20
1.9662570866141731
11
0.7679490157480314
21
1.9664639763779528
0
LINE
8
BLACK
6
CONTINUOUS
10
0.7679490157480314
20
1.9664639763779528
11
0.7680548818897638
21
1.9664715354330708
0
LINE
8
BLACK
6
CONTINUOUS
10
0.7680548818897638
20
1.9664715354330708
11
0.7681528740157481
21
1.9665120866141732
0
LINE
8
BLACK
6
CONTINUOUS
10
0.7681528740157481
20
1.9665120866141732
11
0.768696062992126
21
1.9665170866141732
0
LINE
8
BLACK
6
CONTINUOUS
10
0.768696062992126
20
1.9665170866141732
11
0.7690982283464567
21
1.9665456299212598
0
LINE
8
BLACK
6
CONTINUOUS
10
0.7690982283464567
20
1.9665456299212598
11
0.769170905511811
21
1.9665214173228347
0
LINE
8
BLACK
6
CONTINUOUS
10
0.769170905511811
20
1.9665214173228347
11
0.7743532283464567
21
1.9665688188976378
0
LINE
8
BLACK
6
CONTINUOUS
10
0.7743532283464567
20
1.9665688188976378
11
0.7749292913385827
21
1.9665120866141732
  0
ENDSEC
  0
EOF
