  0
SECTION
  2
HEADER
  9
$ANGBASE
  50
0.0
  9
$ANGDIR
  70
1
  9
$MEASUREMENT
  70
0
  0
ENDSEC
  0
SECTION
  2
TABLES
  0
TABLE
  2
LTYPE
  70
4
  0
LTYPE
  5
40F
  2
CONTINUOUS
  70
0
  3
Solid line
  72
65
  73
0
  40
0.0
  0
LTYPE
  5
410
  2
DASHDOT
 70
0
  3
Dash Dot ____ _ ____ _
 72
65
 73
4
 40
2.0
 49
1.25
 49
-0.25
 49
0.25
 49
-0.25
  0
LTYPE
  5
411
  2
DASHED
 70
0
  3
Dashed __ __ __ __ __
 72
65
 73
2
 40
0.75
 49
0.5
 49
-0.25
  0
LTYPE
  5
43B
  2
DOTTED
 70
0
  3
Dotted .  .  .  .
 72
65
 73
2
 40
0.2
 49
0.0
 49
-0.2
  0
ENDTAB
  0
TABLE
  2
STYLE
  70
4
  0
STYLE
  2
KICAD
  70
0
  40
0
  41
1
  42
1
  50
0
  71
0
  3
isocp.shx
  0
STYLE
  2
KICADB
  70
0
  40
0
  41
1
  42
1
  50
0
  71
0
  3
isocp.shx
  0
STYLE
  2
KICADI
  70
0
  40
0
  41
1
  42
1
  50
15
  71
0
  3
isocp.shx
  0
STYLE
  2
KICADBI
  70
0
  40
0
  41
1
  42
1
  50
15
  71
0
  3
isocp.shx
  0
ENDTAB
  0
TABLE
  2
LAYER
  70
1
  0
LAYER
  2
BLACK
  70
0
  62
7
  6
CONTINUOUS
  0
ENDTAB
  0
ENDSEC
  0
SECTION
  2
ENTITIES
0
LINE
8
BLACK
6
CONTINUOUS
10
0.7544701181102362
20
0.6250983858267717
11
0.7555006299212599
21
0.6245831102362205
0
LINE
8
BLACK
6
CONTINUOUS
10
0.7555006299212599
20
0.6245831102362205
11
0.7562554724409448
21
0.6237127559055118
0
LINE
8
BLACK
6
CONTINUOUS
10
0.7562554724409448
20
0.6237127559055118
11
0.7566198031496063
21
0.6226197637795275
0
LINE
8
BLACK
6
CONTINUOUS
10
0.7566198031496063
20
0.6226197637795275
11
0.7565381496062992
21
0.6214705511811024
0
LINE
8
BLACK
6
CONTINUOUS
10
0.7565381496062992
20
0.6214705511811024
11
0.7544564960629921
21
0.6171804330708661
0
LINE
8
BLACK
6
CONTINUOUS
10
0.7544564960629921
20
0.6171804330708661
11
0.7543004724409449
21
0.6169326377952756
0
LINE
8
BLACK
6
CONTINUOUS
10
0.7543004724409449
20
0.6169326377952756
11
0.7542706299212598
21
0.6168604724409449
0
LINE
8
BLACK
6
CONTINUOUS
10
0.7542706299212598
20
0.6168604724409449
11
0.7542272834645669
21
0.6168162992125984
0
LINE
8
BLACK
6
CONTINUOUS
10
0.7542272834645669
20
0.6168162992125984
11
0.7541481496062992
21
0.6166905511811024
0
LINE
8
BLACK
6
CONTINUOUS
10
0.7541481496062992
20
0.6166905511811024
11
0.7538521653543306
21
0.6164338976377952
0
LINE
8
BLACK
6
CONTINUOUS
10
0.7538521653543306
20
0.6164338976377952
11
0.7513779133858267
21
0.6139114566929134
0
LINE
8
BLACK
6
CONTINUOUS
10
0.7513779133858267
20
0.6139114566929134
11
0.7788793700787401
21
0.6139505118110236
0
LINE
8
BLACK
6
CONTINUOUS
10
0.7788793700787401
20
0.6139505118110236
11
0.7788589763779528
21
0.6222504724409449
0
LINE
8
BLACK
6
CONTINUOUS
10
0.7788589763779528
20
0.6222504724409449
11
0.7789157086614173
21
0.6228265354330709
0
LINE
8
BLACK
6
CONTINUOUS
10
0.7789157086614173
20
0.6228265354330709
11
0.7793566141732283
21
0.6238909448818898
0
LINE
8
BLACK
6
CONTINUOUS
10
0.7793566141732283
20
0.6238909448818898
11
0.7801712598425197
21
0.6247055905511811
0
LINE
8
BLACK
6
CONTINUOUS
10
0.7801712598425197
20
0.6247055905511811
11
0.7812356692913386
21
0.6251464960629921
0
LINE
8
BLACK
6
CONTINUOUS
10
0.7812356692913386
20
0.6251464960629921
11
0.7823877952755905
21
0.6251464960629921
0
LINE
8
BLACK
6
CONTINUOUS
10
0.7823877952755905
20
0.6251464960629921
11
0.7834522047244095
21
0.6247055905511811
0
LINE
8
BLACK
6
CONTINUOUS
10
0.7834522047244095
20
0.6247055905511811
11
0.7842668503937008
21
0.6238909448818898
0
LINE
8
BLACK
6
CONTINUOUS
10
0.7842668503937008
20
0.6238909448818898
11
0.7847077559055118
21
0.6228265354330709
0
LINE
8
BLACK
6
CONTINUOUS
10
0.7847077559055118
20
0.6228265354330709
11
0.7847644881889764
21
0.5997533070866141
0
LINE
8
BLACK
6
CONTINUOUS
10
0.7847644881889764
20
0.5997533070866141
11
0.7847077559055118
21
0.5991772440944881
0
LINE
8
BLACK
6
CONTINUOUS
10
0.7847077559055118
20
0.5991772440944881
11
0.7842668503937008
21
0.5981128346456692
0
LINE
8
BLACK
6
CONTINUOUS
10
0.7842668503937008
20
0.5981128346456692
11
0.7834522047244095
21
0.597298188976378
0
LINE
8
BLACK
6
CONTINUOUS
10
0.7834522047244095
20
0.597298188976378
11
0.7823877952755905
21
0.5968572834645669
0
LINE
8
BLACK
6
CONTINUOUS
10
0.7823877952755905
20
0.5968572834645669
11
0.7812356692913386
21
0.5968572834645669
0
LINE
8
BLACK
6
CONTINUOUS
10
0.7812356692913386
20
0.5968572834645669
11
0.7801712598425197
21
0.597298188976378
0
LINE
8
BLACK
6
CONTINUOUS
10
0.7801712598425197
20
0.597298188976378
11
0.7793566141732283
21
0.5981128346456692
0
LINE
8
BLACK
6
CONTINUOUS
10
0.7793566141732283
20
0.5981128346456692
11
0.7789157086614173
21
0.5991772440944881
0
LINE
8
BLACK
6
CONTINUOUS
10
0.7789157086614173
20
0.5991772440944881
11
0.7788937401574803
21
0.6081009055118111
0
LINE
8
BLACK
6
CONTINUOUS
10
0.7788937401574803
20
0.6081009055118111
11
0.742441653543307
21
0.6080491338582678
0
LINE
8
BLACK
6
CONTINUOUS
10
0.742441653543307
20
0.6080491338582678
11
0.7424395669291338
21
0.6080493700787402
0
LINE
8
BLACK
6
CONTINUOUS
10
0.7424395669291338
20
0.6080493700787402
11
0.7424385433070866
21
0.6080491338582678
0
LINE
8
BLACK
6
CONTINUOUS
10
0.7424385433070866
20
0.6080491338582678
11
0.7424355118110236
21
0.6080497637795276
0
LINE
8
BLACK
6
CONTINUOUS
10
0.7424355118110236
20
0.6080497637795276
11
0.7418655905511811
21
0.6081058661417322
0
LINE
8
BLACK
6
CONTINUOUS
10
0.7418655905511811
20
0.6081058661417322
11
0.7415954724409448
21
0.6082177559055117
0
LINE
8
BLACK
6
CONTINUOUS
10
0.7415954724409448
20
0.6082177559055117
11
0.7413088582677165
21
0.6082750787401575
0
LINE
8
BLACK
6
CONTINUOUS
10
0.7413088582677165
20
0.6082750787401575
11
0.7410684645669291
21
0.6084360629921259
0
LINE
8
BLACK
6
CONTINUOUS
10
0.7410684645669291
20
0.6084360629921259
11
0.7408011811023621
21
0.6085467716535433
0
LINE
8
BLACK
6
CONTINUOUS
10
0.7408011811023621
20
0.6085467716535433
11
0.7405944488188976
21
0.6087535039370079
0
LINE
8
BLACK
6
CONTINUOUS
10
0.7405944488188976
20
0.6087535039370079
11
0.7403515748031496
21
0.6089161417322835
0
LINE
8
BLACK
6
CONTINUOUS
10
0.7403515748031496
20
0.6089161417322835
11
0.740191062992126
21
0.6091568897637795
0
LINE
8
BLACK
6
CONTINUOUS
10
0.740191062992126
20
0.6091568897637795
11
0.7399865354330708
21
0.6093614173228347
0
LINE
8
BLACK
6
CONTINUOUS
10
0.7399865354330708
20
0.6093614173228347
11
0.7398746456692913
21
0.6096315354330708
0
LINE
8
BLACK
6
CONTINUOUS
10
0.7398746456692913
20
0.6096315354330708
11
0.7397124803149606
21
0.6098747637795275
0
LINE
8
BLACK
6
CONTINUOUS
10
0.7397124803149606
20
0.6098747637795275
11
0.7396563385826771
21
0.6101585826771654
0
LINE
8
BLACK
6
CONTINUOUS
10
0.7396563385826771
20
0.6101585826771654
11
0.7395456299212598
21
0.6104258267716536
0
LINE
8
BLACK
6
CONTINUOUS
10
0.7395456299212598
20
0.6104258267716536
11
0.7395456299212598
21
0.6107182283464567
0
LINE
8
BLACK
6
CONTINUOUS
10
0.7395456299212598
20
0.6107182283464567
11
0.7394888976377952
21
0.611005
0
LINE
8
BLACK
6
CONTINUOUS
10
0.7394888976377952
20
0.611005
11
0.7395456299212598
21
0.6112886614173229
0
LINE
8
BLACK
6
CONTINUOUS
10
0.7395456299212598
20
0.6112886614173229
11
0.7395456299212598
21
0.6115779527559055
0
LINE
8
BLACK
6
CONTINUOUS
10
0.7395456299212598
20
0.6115779527559055
11
0.7396574803149606
21
0.6118480708661417
0
LINE
8
BLACK
6
CONTINUOUS
10
0.7396574803149606
20
0.6118480708661417
11
0.739714842519685
21
0.6121346850393701
0
LINE
8
BLACK
6
CONTINUOUS
10
0.739714842519685
20
0.6121346850393701
11
0.7398757874015748
21
0.6123750787401575
0
LINE
8
BLACK
6
CONTINUOUS
10
0.7398757874015748
20
0.6123750787401575
11
0.7399865354330708
21
0.6126423622047243
0
LINE
8
BLACK
6
CONTINUOUS
10
0.7399865354330708
20
0.6126423622047243
11
0.7401932283464566
21
0.6128490944881889
0
LINE
8
BLACK
6
CONTINUOUS
10
0.7401932283464566
20
0.6128490944881889
11
0.740355905511811
21
0.613091968503937
0
LINE
8
BLACK
6
CONTINUOUS
10
0.740355905511811
20
0.613091968503937
11
0.740605
21
0.6132608661417323
0
LINE
8
BLACK
6
CONTINUOUS
10
0.740605
20
0.6132608661417323
11
0.7408011811023621
21
0.6134570078740157
0
LINE
8
BLACK
6
CONTINUOUS
10
0.7408011811023621
20
0.6134570078740157
11
0.7410408267716535
21
0.6135562992125985
0
LINE
8
BLACK
6
CONTINUOUS
10
0.7410408267716535
20
0.6135562992125985
11
0.7463788976377953
21
0.6171749606299213
0
LINE
8
BLACK
6
CONTINUOUS
10
0.7463788976377953
20
0.6171749606299213
11
0.7494795275590551
21
0.6203360236220472
0
LINE
8
BLACK
6
CONTINUOUS
10
0.7494795275590551
20
0.6203360236220472
11
0.7510492125984252
21
0.6235709842519684
0
LINE
8
BLACK
6
CONTINUOUS
10
0.7510492125984252
20
0.6235709842519684
11
0.7513575590551181
21
0.6240608661417323
0
LINE
8
BLACK
6
CONTINUOUS
10
0.7513575590551181
20
0.6240608661417323
11
0.7522279527559055
21
0.6248157086614173
0
LINE
8
BLACK
6
CONTINUOUS
10
0.7522279527559055
20
0.6248157086614173
11
0.753320905511811
21
0.6251800393700787
0
LINE
8
BLACK
6
CONTINUOUS
10
0.753320905511811
20
0.6251800393700787
11
0.7544701181102362
21
0.6250983858267717
0
LINE
8
BLACK
6
CONTINUOUS
10
0.4378057480314961
20
0.6311464960629921
11
0.4379543700787402
21
0.6311464960629921
0
LINE
8
BLACK
6
CONTINUOUS
10
0.4379543700787402
20
0.6311464960629921
11
0.4383529527559055
21
0.6309814173228346
0
LINE
8
BLACK
6
CONTINUOUS
10
0.4383529527559055
20
0.6309814173228346
11
0.4387663779527559
21
0.6308566535433071
0
LINE
8
BLACK
6
CONTINUOUS
10
0.4387663779527559
20
0.6308566535433071
11
0.4388814960629921
21
0.6307624803149606
0
LINE
8
BLACK
6
CONTINUOUS
10
0.4388814960629921
20
0.6307624803149606
11
0.439018779527559
21
0.6307055905511811
0
LINE
8
BLACK
6
CONTINUOUS
10
0.439018779527559
20
0.6307055905511811
11
0.4393238188976378
21
0.6304005511811024
0
LINE
8
BLACK
6
CONTINUOUS
10
0.4393238188976378
20
0.6304005511811024
11
0.439658031496063
21
0.6301270866141732
0
LINE
8
BLACK
6
CONTINUOUS
10
0.439658031496063
20
0.6301270866141732
11
0.4397283070866141
21
0.629996062992126
0
LINE
8
BLACK
6
CONTINUOUS
10
0.4397283070866141
20
0.629996062992126
11
0.4398334645669291
21
0.629890905511811
0
LINE
8
BLACK
6
CONTINUOUS
10
0.4398334645669291
20
0.629890905511811
11
0.4399985433070866
21
0.6294923228346456
0
LINE
8
BLACK
6
CONTINUOUS
10
0.4399985433070866
20
0.6294923228346456
11
0.4402026771653543
21
0.6291118503937008
0
LINE
8
BLACK
6
CONTINUOUS
10
0.4402026771653543
20
0.6291118503937008
11
0.4402174409448819
21
0.6289638582677165
0
LINE
8
BLACK
6
CONTINUOUS
10
0.4402174409448819
20
0.6289638582677165
11
0.4402743700787402
21
0.6288264960629921
0
LINE
8
BLACK
6
CONTINUOUS
10
0.4402743700787402
20
0.6288264960629921
11
0.4402743700787402
21
0.6283949606299213
0
LINE
8
BLACK
6
CONTINUOUS
10
0.4402743700787402
20
0.6283949606299213
11
0.4403173228346456
21
0.6279654330708662
0
LINE
8
BLACK
6
CONTINUOUS
10
0.4403173228346456
20
0.6279654330708662
11
0.4402743700787402
21
0.6278231102362205
0
LINE
8
BLACK
6
CONTINUOUS
10
0.4402743700787402
20
0.6278231102362205
11
0.4402743700787402
21
0.6276744094488189
0
LINE
8
BLACK
6
CONTINUOUS
10
0.4402743700787402
20
0.6276744094488189
11
0.4401092125984252
21
0.627275748031496
0
LINE
8
BLACK
6
CONTINUOUS
10
0.4401092125984252
20
0.627275748031496
11
0.4399845275590551
21
0.6268624409448819
0
LINE
8
BLACK
6
CONTINUOUS
10
0.4399845275590551
20
0.6268624409448819
11
0.4398903543307087
21
0.6267473622047244
0
LINE
8
BLACK
6
CONTINUOUS
10
0.4398903543307087
20
0.6267473622047244
11
0.4398334645669291
21
0.62661
0
LINE
8
BLACK
6
CONTINUOUS
10
0.4398334645669291
20
0.62661
11
0.4394695669291339
21
0.6262331496062992
0
LINE
8
BLACK
6
CONTINUOUS
10
0.4394695669291339
20
0.6262331496062992
11
0.4392549606299213
21
0.6259707874015747
0
LINE
8
BLACK
6
CONTINUOUS
10
0.4392549606299213
20
0.6259707874015747
11
0.4391748031496063
21
0.6259278346456693
0
LINE
8
BLACK
6
CONTINUOUS
10
0.4391748031496063
20
0.6259278346456693
11
0.4378434645669291
21
0.6245488188976378
0
LINE
8
BLACK
6
CONTINUOUS
10
0.4378434645669291
20
0.6245488188976378
11
0.4365325590551181
21
0.6218471653543307
0
LINE
8
BLACK
6
CONTINUOUS
10
0.4365325590551181
20
0.6218471653543307
11
0.4365780708661417
21
0.6138654330708662
0
LINE
8
BLACK
6
CONTINUOUS
10
0.4365780708661417
20
0.6138654330708662
11
0.4379718897637795
21
0.6111587007874015
0
LINE
8
BLACK
6
CONTINUOUS
10
0.4379718897637795
20
0.6111587007874015
11
0.4392052755905512
21
0.6099679527559055
0
LINE
8
BLACK
6
CONTINUOUS
10
0.4392052755905512
20
0.6099679527559055
11
0.4419068897637795
21
0.6086570866141732
0
LINE
8
BLACK
6
CONTINUOUS
10
0.4419068897637795
20
0.6086570866141732
11
0.4498886220472441
21
0.6087025984251968
0
LINE
8
BLACK
6
CONTINUOUS
10
0.4498886220472441
20
0.6087025984251968
11
0.4525953543307086
21
0.6100964566929133
0
LINE
8
BLACK
6
CONTINUOUS
10
0.4525953543307086
20
0.6100964566929133
11
0.4537861417322834
21
0.6113298031496063
0
LINE
8
BLACK
6
CONTINUOUS
10
0.4537861417322834
20
0.6113298031496063
11
0.4550970078740157
21
0.6140314173228346
0
LINE
8
BLACK
6
CONTINUOUS
10
0.4550970078740157
20
0.6140314173228346
11
0.4550514960629921
21
0.6220131496062992
0
LINE
8
BLACK
6
CONTINUOUS
10
0.4550514960629921
20
0.6220131496062992
11
0.4536576771653543
21
0.624719842519685
0
LINE
8
BLACK
6
CONTINUOUS
10
0.4536576771653543
20
0.624719842519685
11
0.4521633464566929
21
0.6261625196850393
0
LINE
8
BLACK
6
CONTINUOUS
10
0.4521633464566929
20
0.6261625196850393
11
0.4517961023622047
21
0.62661
0
LINE
8
BLACK
6
CONTINUOUS
10
0.4517961023622047
20
0.62661
11
0.4513551968503937
21
0.6276744094488189
0
LINE
8
BLACK
6
CONTINUOUS
10
0.4513551968503937
20
0.6276744094488189
11
0.4513551968503937
21
0.6288264960629921
0
LINE
8
BLACK
6
CONTINUOUS
10
0.4513551968503937
20
0.6288264960629921
11
0.451796062992126
21
0.629890905511811
0
LINE
8
BLACK
6
CONTINUOUS
10
0.451796062992126
20
0.629890905511811
11
0.452610748031496
21
0.6307055905511811
0
LINE
8
BLACK
6
CONTINUOUS
10
0.452610748031496
20
0.6307055905511811
11
0.453675157480315
21
0.6311464960629921
0
LINE
8
BLACK
6
CONTINUOUS
10
0.453675157480315
20
0.6311464960629921
11
0.4548272440944882
21
0.6311464960629921
0
LINE
8
BLACK
6
CONTINUOUS
10
0.4548272440944882
20
0.6311464960629921
11
0.4558916535433071
21
0.6307056299212598
0
LINE
8
BLACK
6
CONTINUOUS
10
0.4558916535433071
20
0.6307056299212598
11
0.4582138976377952
21
0.6284636614173228
0
LINE
8
BLACK
6
CONTINUOUS
10
0.4582138976377952
20
0.6284636614173228
11
0.4583996456692913
21
0.6282373228346456
0
LINE
8
BLACK
6
CONTINUOUS
10
0.4583996456692913
20
0.6282373228346456
11
0.4584587007874016
21
0.6281861023622047
0
LINE
8
BLACK
6
CONTINUOUS
10
0.4584587007874016
20
0.6281861023622047
11
0.4584873228346457
21
0.6281304724409449
0
LINE
8
BLACK
6
CONTINUOUS
10
0.4584873228346457
20
0.6281304724409449
11
0.4585811417322835
21
0.6280161811023622
0
LINE
8
BLACK
6
CONTINUOUS
10
0.4585811417322835
20
0.6280161811023622
11
0.4587248031496063
21
0.6276693307086614
0
LINE
8
BLACK
6
CONTINUOUS
10
0.4587248031496063
20
0.6276693307086614
11
0.4606418110236221
21
0.6239466929133858
0
LINE
8
BLACK
6
CONTINUOUS
10
0.4606418110236221
20
0.6239466929133858
11
0.4608487007874016
21
0.6234061023622047
0
LINE
8
BLACK
6
CONTINUOUS
10
0.4608487007874016
20
0.6234061023622047
11
0.460856220472441
21
0.6233002362204725
0
LINE
8
BLACK
6
CONTINUOUS
10
0.460856220472441
20
0.6233002362204725
11
0.460896811023622
21
0.6232022440944882
0
LINE
8
BLACK
6
CONTINUOUS
10
0.460896811023622
20
0.6232022440944882
11
0.4608997244094488
21
0.6226877165354331
0
LINE
8
BLACK
6
CONTINUOUS
10
0.4608997244094488
20
0.6226877165354331
11
0.4609303543307087
21
0.6222568897637795
0
LINE
8
BLACK
6
CONTINUOUS
10
0.4609303543307087
20
0.6222568897637795
11
0.4609026377952756
21
0.6221738582677165
0
LINE
8
BLACK
6
CONTINUOUS
10
0.4609026377952756
20
0.6221738582677165
11
0.4609535433070866
21
0.6132523622047243
0
LINE
8
BLACK
6
CONTINUOUS
10
0.4609535433070866
20
0.6132523622047243
11
0.460896811023622
21
0.6126762992125984
0
LINE
8
BLACK
6
CONTINUOUS
10
0.460896811023622
20
0.6126762992125984
11
0.460856220472441
21
0.6125783464566928
0
LINE
8
BLACK
6
CONTINUOUS
10
0.460856220472441
20
0.6125783464566928
11
0.4608487007874016
21
0.6124724409448818
0
LINE
8
BLACK
6
CONTINUOUS
10
0.4608487007874016
20
0.6124724409448818
11
0.4606003543307087
21
0.6119607086614173
0
LINE
8
BLACK
6
CONTINUOUS
10
0.4606003543307087
20
0.6119607086614173
11
0.460455905511811
21
0.6116118897637796
0
LINE
8
BLACK
6
CONTINUOUS
10
0.460455905511811
20
0.6116118897637796
11
0.4604077952755906
21
0.6115638188976378
0
LINE
8
BLACK
6
CONTINUOUS
10
0.4604077952755906
20
0.6115638188976378
11
0.4587670472440945
21
0.6081823228346457
0
LINE
8
BLACK
6
CONTINUOUS
10
0.4587670472440945
20
0.6081823228346457
11
0.4586109448818897
21
0.6079343307086614
0
LINE
8
BLACK
6
CONTINUOUS
10
0.4586109448818897
20
0.6079343307086614
11
0.4585811417322835
21
0.6078623622047244
0
LINE
8
BLACK
6
CONTINUOUS
10
0.4585811417322835
20
0.6078623622047244
11
0.4585366141732283
21
0.6078162992125984
0
LINE
8
BLACK
6
CONTINUOUS
10
0.4585366141732283
20
0.6078162992125984
11
0.4584587007874016
21
0.6076924409448818
0
LINE
8
BLACK
6
CONTINUOUS
10
0.4584587007874016
20
0.6076924409448818
11
0.4582029133858267
21
0.6074706692913385
0
LINE
8
BLACK
6
CONTINUOUS
10
0.4582029133858267
20
0.6074706692913385
11
0.456339094488189
21
0.6055401181102362
0
LINE
8
BLACK
6
CONTINUOUS
10
0.456339094488189
20
0.6055401181102362
11
0.4561127559055118
21
0.6053544094488189
0
LINE
8
BLACK
6
CONTINUOUS
10
0.4561127559055118
20
0.6053544094488189
11
0.4560616141732283
21
0.6052953937007874
0
LINE
8
BLACK
6
CONTINUOUS
10
0.4560616141732283
20
0.6052953937007874
11
0.4560059842519685
21
0.6052667716535433
0
LINE
8
BLACK
6
CONTINUOUS
10
0.4560059842519685
20
0.6052667716535433
11
0.4558916535433071
21
0.6051729133858268
0
LINE
8
BLACK
6
CONTINUOUS
10
0.4558916535433071
20
0.6051729133858268
11
0.4555447244094488
21
0.6050292519685039
0
LINE
8
BLACK
6
CONTINUOUS
10
0.4555447244094488
20
0.6050292519685039
11
0.4518222047244094
21
0.6031122834645669
0
LINE
8
BLACK
6
CONTINUOUS
10
0.4518222047244094
20
0.6031122834645669
11
0.4512815748031496
21
0.6029053937007874
0
LINE
8
BLACK
6
CONTINUOUS
10
0.4512815748031496
20
0.6029053937007874
11
0.4511757480314961
21
0.6028979133858268
0
LINE
8
BLACK
6
CONTINUOUS
10
0.4511757480314961
20
0.6028979133858268
11
0.4510777559055118
21
0.6028572834645669
0
LINE
8
BLACK
6
CONTINUOUS
10
0.4510777559055118
20
0.6028572834645669
11
0.4505631496062992
21
0.6028543700787401
0
LINE
8
BLACK
6
CONTINUOUS
10
0.4505631496062992
20
0.6028543700787401
11
0.4501323622047244
21
0.6028237401574803
0
LINE
8
BLACK
6
CONTINUOUS
10
0.4501323622047244
20
0.6028237401574803
11
0.4500492913385827
21
0.6028514566929134
0
LINE
8
BLACK
6
CONTINUOUS
10
0.4500492913385827
20
0.6028514566929134
11
0.441127874015748
21
0.6028005511811023
0
LINE
8
BLACK
6
CONTINUOUS
10
0.441127874015748
20
0.6028005511811023
11
0.4405518110236221
21
0.6028572834645669
0
LINE
8
BLACK
6
CONTINUOUS
10
0.4405518110236221
20
0.6028572834645669
11
0.4404538188976378
21
0.602897874015748
0
LINE
8
BLACK
6
CONTINUOUS
10
0.4404538188976378
20
0.602897874015748
11
0.4403479527559055
21
0.6029053937007874
0
LINE
8
BLACK
6
CONTINUOUS
10
0.4403479527559055
20
0.6029053937007874
11
0.4398361811023622
21
0.6031537401574804
0
LINE
8
BLACK
6
CONTINUOUS
10
0.4398361811023622
20
0.6031537401574804
11
0.4394874015748031
21
0.603298188976378
0
LINE
8
BLACK
6
CONTINUOUS
10
0.4394874015748031
20
0.603298188976378
11
0.4394392913385827
21
0.6033462992125984
0
LINE
8
BLACK
6
CONTINUOUS
10
0.4394392913385827
20
0.6033462992125984
11
0.4360578346456693
21
0.6049870472440945
0
LINE
8
BLACK
6
CONTINUOUS
10
0.4360578346456693
20
0.6049870472440945
11
0.4358098031496063
21
0.6051431496062992
0
LINE
8
BLACK
6
CONTINUOUS
10
0.4358098031496063
20
0.6051431496062992
11
0.435737874015748
21
0.6051729527559055
0
LINE
8
BLACK
6
CONTINUOUS
10
0.435737874015748
20
0.6051729527559055
11
0.4356917716535433
21
0.6052174803149606
0
LINE
8
BLACK
6
CONTINUOUS
10
0.4356917716535433
20
0.6052174803149606
11
0.4355679527559055
21
0.6052953937007874
0
LINE
8
BLACK
6
CONTINUOUS
10
0.4355679527559055
20
0.6052953937007874
11
0.4353461811023622
21
0.6055511023622047
0
LINE
8
BLACK
6
CONTINUOUS
10
0.4353461811023622
20
0.6055511023622047
11
0.4334156692913386
21
0.6074149212598425
0
LINE
8
BLACK
6
CONTINUOUS
10
0.4334156692913386
20
0.6074149212598425
11
0.4332298818897637
21
0.6076412992125985
0
LINE
8
BLACK
6
CONTINUOUS
10
0.4332298818897637
20
0.6076412992125985
11
0.433170905511811
21
0.6076924409448818
0
LINE
8
BLACK
6
CONTINUOUS
10
0.433170905511811
20
0.6076924409448818
11
0.4331422440944882
21
0.6077481102362204
0
LINE
8
BLACK
6
CONTINUOUS
10
0.4331422440944882
20
0.6077481102362204
11
0.4330484645669291
21
0.6078623622047244
0
LINE
8
BLACK
6
CONTINUOUS
10
0.4330484645669291
20
0.6078623622047244
11
0.4329048031496063
21
0.6082091732283464
0
LINE
8
BLACK
6
CONTINUOUS
10
0.4329048031496063
20
0.6082091732283464
11
0.4309877952755906
21
0.6119318503937008
0
LINE
8
BLACK
6
CONTINUOUS
10
0.4309877952755906
20
0.6119318503937008
11
0.430780905511811
21
0.6124724803149606
0
LINE
8
BLACK
6
CONTINUOUS
10
0.430780905511811
20
0.6124724803149606
11
0.4307733858267717
21
0.6125783070866142
0
LINE
8
BLACK
6
CONTINUOUS
10
0.4307733858267717
20
0.6125783070866142
11
0.4307327952755906
21
0.6126762992125984
0
LINE
8
BLACK
6
CONTINUOUS
10
0.4307327952755906
20
0.6126762992125984
11
0.430729842519685
21
0.613190905511811
0
LINE
8
BLACK
6
CONTINUOUS
10
0.430729842519685
20
0.613190905511811
11
0.4306992519685039
21
0.6136216929133859
0
LINE
8
BLACK
6
CONTINUOUS
10
0.4306992519685039
20
0.6136216929133859
11
0.4307269291338582
21
0.6137047637795275
0
LINE
8
BLACK
6
CONTINUOUS
10
0.4307269291338582
20
0.6137047637795275
11
0.430676062992126
21
0.6226261811023622
0
LINE
8
BLACK
6
CONTINUOUS
10
0.430676062992126
20
0.6226261811023622
11
0.4307327952755906
21
0.6232022440944882
0
LINE
8
BLACK
6
CONTINUOUS
10
0.4307327952755906
20
0.6232022440944882
11
0.4307733858267717
21
0.6233002755905511
0
LINE
8
BLACK
6
CONTINUOUS
10
0.4307733858267717
20
0.6233002755905511
11
0.430780905511811
21
0.623406062992126
0
LINE
8
BLACK
6
CONTINUOUS
10
0.430780905511811
20
0.623406062992126
11
0.431029094488189
21
0.6239176377952755
0
LINE
8
BLACK
6
CONTINUOUS
10
0.431029094488189
20
0.6239176377952755
11
0.4311737007874016
21
0.6242666535433071
0
LINE
8
BLACK
6
CONTINUOUS
10
0.4311737007874016
20
0.6242666535433071
11
0.4312218110236221
21
0.6243148031496063
0
LINE
8
BLACK
6
CONTINUOUS
10
0.4312218110236221
20
0.6243148031496063
11
0.4314203937007874
21
0.624724094488189
0
LINE
8
BLACK
6
CONTINUOUS
10
0.4314203937007874
20
0.624724094488189
11
0.4215362598425197
21
0.6237064960629921
0
LINE
8
BLACK
6
CONTINUOUS
10
0.4215362598425197
20
0.6237064960629921
11
0.4215834645669291
21
0.6076280708661417
0
LINE
8
BLACK
6
CONTINUOUS
10
0.4215834645669291
20
0.6076280708661417
11
0.4215267322834645
21
0.6070520078740157
0
LINE
8
BLACK
6
CONTINUOUS
10
0.4215267322834645
20
0.6070520078740157
11
0.4210858267716535
21
0.6059875984251968
0
LINE
8
BLACK
6
CONTINUOUS
10
0.4210858267716535
20
0.6059875984251968
11
0.4202711811023622
21
0.6051729527559055
0
LINE
8
BLACK
6
CONTINUOUS
10
0.4202711811023622
20
0.6051729527559055
11
0.4192067716535433
21
0.6047320472440945
0
LINE
8
BLACK
6
CONTINUOUS
10
0.4192067716535433
20
0.6047320472440945
11
0.4180546456692913
21
0.6047320472440945
0
LINE
8
BLACK
6
CONTINUOUS
10
0.4180546456692913
20
0.6047320472440945
11
0.4169902362204724
21
0.6051729527559055
0
LINE
8
BLACK
6
CONTINUOUS
10
0.4169902362204724
20
0.6051729527559055
11
0.4161755905511811
21
0.6059875984251968
0
LINE
8
BLACK
6
CONTINUOUS
10
0.4161755905511811
20
0.6059875984251968
11
0.4157346850393701
21
0.6070520078740157
0
LINE
8
BLACK
6
CONTINUOUS
10
0.4157346850393701
20
0.6070520078740157
11
0.4156779527559055
21
0.6263757086614173
0
LINE
8
BLACK
6
CONTINUOUS
10
0.4156779527559055
20
0.6263757086614173
11
0.4156988976377953
21
0.6265887795275591
0
LINE
8
BLACK
6
CONTINUOUS
10
0.4156988976377953
20
0.6265887795275591
11
0.4156917322834646
21
0.6266607480314961
0
LINE
8
BLACK
6
CONTINUOUS
10
0.4156917322834646
20
0.6266607480314961
11
0.4157129133858268
21
0.6267311023622048
0
LINE
8
BLACK
6
CONTINUOUS
10
0.4157129133858268
20
0.6267311023622048
11
0.4157346850393701
21
0.6269517716535433
0
LINE
8
BLACK
6
CONTINUOUS
10
0.4157346850393701
20
0.6269517716535433
11
0.4158998031496063
21
0.6273504724409449
0
LINE
8
BLACK
6
CONTINUOUS
10
0.4158998031496063
20
0.6273504724409449
11
0.4160245275590551
21
0.6277637401574803
0
LINE
8
BLACK
6
CONTINUOUS
10
0.4160245275590551
20
0.6277637401574803
11
0.4161186614173228
21
0.6278788582677165
0
LINE
8
BLACK
6
CONTINUOUS
10
0.4161186614173228
20
0.6278788582677165
11
0.4161755905511811
21
0.6280161811023622
0
LINE
8
BLACK
6
CONTINUOUS
10
0.4161755905511811
20
0.6280161811023622
11
0.4164808267716535
21
0.6283214566929134
0
LINE
8
BLACK
6
CONTINUOUS
10
0.4164808267716535
20
0.6283214566929134
11
0.416754094488189
21
0.6286553937007874
0
LINE
8
BLACK
6
CONTINUOUS
10
0.416754094488189
20
0.6286553937007874
11
0.4168850393700788
21
0.6287256692913386
0
LINE
8
BLACK
6
CONTINUOUS
10
0.4168850393700788
20
0.6287256692913386
11
0.4169902362204724
21
0.6288308267716536
0
LINE
8
BLACK
6
CONTINUOUS
10
0.4169902362204724
20
0.6288308267716536
11
0.4173890157480315
21
0.6289960236220472
0
LINE
8
BLACK
6
CONTINUOUS
10
0.4173890157480315
20
0.6289960236220472
11
0.4177693307086614
21
0.6292000393700787
0
LINE
8
BLACK
6
CONTINUOUS
10
0.4177693307086614
20
0.6292000393700787
11
0.4179186614173228
21
0.6292154330708661
0
LINE
8
BLACK
6
CONTINUOUS
10
0.4179186614173228
20
0.6292154330708661
11
0.4180546456692913
21
0.6292717322834646
0
LINE
8
BLACK
6
CONTINUOUS
10
0.4180546456692913
20
0.6292717322834646
11
0.4184657086614173
21
0.6292717322834646
0
LINE
8
BLACK
6
CONTINUOUS
10
0.4184657086614173
20
0.6292717322834646
11
0.4370845275590551
21
0.6311885826771654
0
LINE
8
BLACK
6
CONTINUOUS
10
0.4370845275590551
20
0.6311885826771654
11
0.4376633858267717
21
0.6311894488188976
0
LINE
8
BLACK
6
CONTINUOUS
10
0.4376633858267717
20
0.6311894488188976
11
0.4378057480314961
21
0.6311464960629921
0
LINE
8
BLACK
6
CONTINUOUS
10
0.441297716535433
20
0.6863162598425196
11
0.4425761417322834
21
0.6850378346456693
0
LINE
8
BLACK
6
CONTINUOUS
10
0.4425761417322834
20
0.6850378346456693
11
0.4425761417322834
21
0.6832298818897637
0
LINE
8
BLACK
6
CONTINUOUS
10
0.4425761417322834
20
0.6832298818897637
11
0.441297716535433
21
0.6819514566929133
0
LINE
8
BLACK
6
CONTINUOUS
10
0.441297716535433
20
0.6819514566929133
11
0.4036079133858267
21
0.6817815354330709
0
LINE
8
BLACK
6
CONTINUOUS
10
0.4036079133858267
20
0.6817815354330709
11
0.4037795669291339
21
0.6132677165354331
0
LINE
8
BLACK
6
CONTINUOUS
10
0.4037795669291339
20
0.6132677165354331
11
0.4035997637795276
21
0.6123637401574803
0
LINE
8
BLACK
6
CONTINUOUS
10
0.4035997637795276
20
0.6123637401574803
11
0.4023213385826772
21
0.6110853149606299
0
LINE
8
BLACK
6
CONTINUOUS
10
0.4023213385826772
20
0.6110853149606299
11
0.344330748031496
21
0.6109055118110236
0
LINE
8
BLACK
6
CONTINUOUS
10
0.344330748031496
20
0.6109055118110236
11
0.3434267716535433
21
0.6110853149606299
0
LINE
8
BLACK
6
CONTINUOUS
10
0.3434267716535433
20
0.6110853149606299
11
0.3421483464566929
21
0.6123637401574803
0
LINE
8
BLACK
6
CONTINUOUS
10
0.3421483464566929
20
0.6123637401574803
11
0.3421483464566929
21
0.6141716929133858
0
LINE
8
BLACK
6
CONTINUOUS
10
0.3421483464566929
20
0.6141716929133858
11
0.3434267716535433
21
0.6154501181102362
0
LINE
8
BLACK
6
CONTINUOUS
10
0.3434267716535433
20
0.6154501181102362
11
0.3992267716535433
21
0.6156231496062992
0
LINE
8
BLACK
6
CONTINUOUS
10
0.3992267716535433
20
0.6156231496062992
11
0.3990551574803149
21
0.6841338582677166
0
LINE
8
BLACK
6
CONTINUOUS
10
0.3990551574803149
20
0.6841338582677166
11
0.3992349606299213
21
0.6850378346456693
0
LINE
8
BLACK
6
CONTINUOUS
10
0.3992349606299213
20
0.6850378346456693
11
0.4005133858267717
21
0.6863162598425196
0
LINE
8
BLACK
6
CONTINUOUS
10
0.4005133858267717
20
0.6863162598425196
11
0.4403937401574803
21
0.686496062992126
0
LINE
8
BLACK
6
CONTINUOUS
10
0.4403937401574803
20
0.686496062992126
11
0.441297716535433
21
0.6863162598425196
0
LINE
8
BLACK
6
CONTINUOUS
10
0.8007650393700787
20
0.6850378346456693
11
0.8009393307086614
21
0.6154602362204724
0
LINE
8
BLACK
6
CONTINUOUS
10
0.8009393307086614
20
0.6154602362204724
11
0.855669251968504
21
0.6156299212598425
0
LINE
8
BLACK
6
CONTINUOUS
10
0.855669251968504
20
0.6156299212598425
11
0.8565732283464567
21
0.6154501181102362
0
LINE
8
BLACK
6
CONTINUOUS
10
0.8565732283464567
20
0.6154501181102362
11
0.8578516535433071
21
0.6141716929133858
0
LINE
8
BLACK
6
CONTINUOUS
10
0.8578516535433071
20
0.6141716929133858
11
0.8578516535433071
21
0.6123637401574803
0
LINE
8
BLACK
6
CONTINUOUS
10
0.8578516535433071
20
0.6123637401574803
11
0.8565732283464567
21
0.6110853149606299
0
LINE
8
BLACK
6
CONTINUOUS
10
0.8565732283464567
20
0.6110853149606299
11
0.7985826377952756
21
0.6109055118110236
0
LINE
8
BLACK
6
CONTINUOUS
10
0.7985826377952756
20
0.6109055118110236
11
0.7976786614173228
21
0.6110853149606299
0
LINE
8
BLACK
6
CONTINUOUS
10
0.7976786614173228
20
0.6110853149606299
11
0.7964002362204724
21
0.6123637401574803
0
LINE
8
BLACK
6
CONTINUOUS
10
0.7964002362204724
20
0.6123637401574803
11
0.7962204330708661
21
0.6841338582677166
0
LINE
8
BLACK
6
CONTINUOUS
10
0.7962204330708661
20
0.6841338582677166
11
0.7964002362204724
21
0.6850378346456693
0
LINE
8
BLACK
6
CONTINUOUS
10
0.7964002362204724
20
0.6850378346456693
11
0.7976786614173228
21
0.6863162598425196
0
LINE
8
BLACK
6
CONTINUOUS
10
0.7976786614173228
20
0.6863162598425196
11
0.7994866141732283
21
0.6863162598425196
0
LINE
8
BLACK
6
CONTINUOUS
10
0.7994866141732283
20
0.6863162598425196
11
0.8007650393700787
21
0.6850378346456693
0
LINE
8
BLACK
6
CONTINUOUS
10
0.7834522047244095
20
0.6565766141732283
11
0.7842668503937008
21
0.655761968503937
0
LINE
8
BLACK
6
CONTINUOUS
10
0.7842668503937008
20
0.655761968503937
11
0.7847077559055118
21
0.6546975590551181
0
LINE
8
BLACK
6
CONTINUOUS
10
0.7847077559055118
20
0.6546975590551181
11
0.7847644881889764
21
0.650371968503937
0
LINE
8
BLACK
6
CONTINUOUS
10
0.7847644881889764
20
0.650371968503937
11
0.784735748031496
21
0.6500803937007874
0
LINE
8
BLACK
6
CONTINUOUS
10
0.784735748031496
20
0.6500803937007874
11
0.7847412992125984
21
0.6500026377952756
0
LINE
8
BLACK
6
CONTINUOUS
10
0.7847412992125984
20
0.6500026377952756
11
0.7847223228346456
21
0.649944094488189
0
LINE
8
BLACK
6
CONTINUOUS
10
0.7847223228346456
20
0.649944094488189
11
0.7847077559055118
21
0.649795905511811
0
LINE
8
BLACK
6
CONTINUOUS
10
0.7847077559055118
20
0.649795905511811
11
0.7845550787401575
21
0.6494274015748032
0
LINE
8
BLACK
6
CONTINUOUS
10
0.7845550787401575
20
0.6494274015748032
11
0.7827381889763779
21
0.643813937007874
0
LINE
8
BLACK
6
CONTINUOUS
10
0.7827381889763779
20
0.643813937007874
11
0.7825022047244095
21
0.6432853543307087
0
LINE
8
BLACK
6
CONTINUOUS
10
0.7825022047244095
20
0.6432853543307087
11
0.782432716535433
21
0.6432052755905512
0
LINE
8
BLACK
6
CONTINUOUS
10
0.782432716535433
20
0.6432052755905512
11
0.7823921259842519
21
0.6431072047244094
0
LINE
8
BLACK
6
CONTINUOUS
10
0.7823921259842519
20
0.6431072047244094
11
0.7820083464566929
21
0.6427159842519685
0
LINE
8
BLACK
6
CONTINUOUS
10
0.7820083464566929
20
0.6427159842519685
11
0.7817473228346457
21
0.642415
0
LINE
8
BLACK
6
CONTINUOUS
10
0.7817473228346457
20
0.642415
11
0.7816802362204724
21
0.6423814960629921
0
LINE
8
BLACK
6
CONTINUOUS
10
0.7816802362204724
20
0.6423814960629921
11
0.7782753149606298
21
0.6389102362204724
0
LINE
8
BLACK
6
CONTINUOUS
10
0.7782753149606298
20
0.6389102362204724
11
0.7778278346456693
21
0.6385429921259842
0
LINE
8
BLACK
6
CONTINUOUS
10
0.7778278346456693
20
0.6385429921259842
11
0.7777297637795275
21
0.6385024015748031
0
LINE
8
BLACK
6
CONTINUOUS
10
0.7777297637795275
20
0.6385024015748031
11
0.77764968503937
21
0.6384329133858268
0
LINE
8
BLACK
6
CONTINUOUS
10
0.77764968503937
20
0.6384329133858268
11
0.7771394881889764
21
0.6382579133858267
0
LINE
8
BLACK
6
CONTINUOUS
10
0.7771394881889764
20
0.6382579133858267
11
0.7767634251968504
21
0.638102125984252
0
LINE
8
BLACK
6
CONTINUOUS
10
0.7767634251968504
20
0.638102125984252
11
0.7766854330708661
21
0.638102125984252
0
LINE
8
BLACK
6
CONTINUOUS
10
0.7766854330708661
20
0.638102125984252
11
0.7714968503937008
21
0.6363221653543307
0
LINE
8
BLACK
6
CONTINUOUS
10
0.7714968503937008
20
0.6363221653543307
11
0.7712112598425197
21
0.6362572440944881
0
LINE
8
BLACK
6
CONTINUOUS
10
0.7712112598425197
20
0.6362572440944881
11
0.7711391732283465
21
0.6362273622047244
0
LINE
8
BLACK
6
CONTINUOUS
10
0.7711391732283465
20
0.6362273622047244
11
0.7710793700787402
21
0.6362272440944882
0
LINE
8
BLACK
6
CONTINUOUS
10
0.7710793700787402
20
0.6362272440944882
11
0.7709324015748031
21
0.6361938188976378
0
LINE
8
BLACK
6
CONTINUOUS
10
0.7709324015748031
20
0.6361938188976378
11
0.7704788582677166
21
0.6362260629921259
0
LINE
8
BLACK
6
CONTINUOUS
10
0.7704788582677166
20
0.6362260629921259
11
0.742441653543307
21
0.6361706299212598
0
LINE
8
BLACK
6
CONTINUOUS
10
0.742441653543307
20
0.6361706299212598
11
0.7418655905511811
21
0.6362273622047244
0
LINE
8
BLACK
6
CONTINUOUS
10
0.7418655905511811
20
0.6362273622047244
11
0.7408011811023621
21
0.6366682677165354
0
LINE
8
BLACK
6
CONTINUOUS
10
0.7408011811023621
20
0.6366682677165354
11
0.7399865354330708
21
0.6374829133858267
0
LINE
8
BLACK
6
CONTINUOUS
10
0.7399865354330708
20
0.6374829133858267
11
0.7395456299212598
21
0.6385473228346457
0
LINE
8
BLACK
6
CONTINUOUS
10
0.7395456299212598
20
0.6385473228346457
11
0.7395456299212598
21
0.6396994488188976
0
LINE
8
BLACK
6
CONTINUOUS
10
0.7395456299212598
20
0.6396994488188976
11
0.7399865354330708
21
0.6407638582677165
0
LINE
8
BLACK
6
CONTINUOUS
10
0.7399865354330708
20
0.6407638582677165
11
0.7408011811023621
21
0.6415785039370079
0
LINE
8
BLACK
6
CONTINUOUS
10
0.7408011811023621
20
0.6415785039370079
11
0.7418655905511811
21
0.6420194094488189
0
LINE
8
BLACK
6
CONTINUOUS
10
0.7418655905511811
20
0.6420194094488189
11
0.7702284645669292
21
0.6420755118110236
0
LINE
8
BLACK
6
CONTINUOUS
10
0.7702284645669292
20
0.6420755118110236
11
0.7746766929133858
21
0.6436014960629921
0
LINE
8
BLACK
6
CONTINUOUS
10
0.7746766929133858
20
0.6436014960629921
11
0.7774231102362205
21
0.6464013779527559
0
LINE
8
BLACK
6
CONTINUOUS
10
0.7774231102362205
20
0.6464013779527559
11
0.7789003543307086
21
0.6509654330708661
0
LINE
8
BLACK
6
CONTINUOUS
10
0.7789003543307086
20
0.6509654330708661
11
0.7788589763779528
21
0.6541214960629921
0
LINE
8
BLACK
6
CONTINUOUS
10
0.7788589763779528
20
0.6541214960629921
11
0.7789157086614173
21
0.6546975590551181
0
LINE
8
BLACK
6
CONTINUOUS
10
0.7789157086614173
20
0.6546975590551181
11
0.7793566141732283
21
0.655761968503937
0
LINE
8
BLACK
6
CONTINUOUS
10
0.7793566141732283
20
0.655761968503937
11
0.7801712598425197
21
0.6565766141732283
0
LINE
8
BLACK
6
CONTINUOUS
10
0.7801712598425197
20
0.6565766141732283
11
0.7812356692913386
21
0.6570175196850394
0
LINE
8
BLACK
6
CONTINUOUS
10
0.7812356692913386
20
0.6570175196850394
11
0.7823877952755905
21
0.6570175196850394
0
LINE
8
BLACK
6
CONTINUOUS
10
0.7823877952755905
20
0.6570175196850394
11
0.7834522047244095
21
0.6565766141732283
0
LINE
8
BLACK
6
CONTINUOUS
10
0.4596412598425197
20
0.6625766141732283
11
0.460455905511811
21
0.661761968503937
0
LINE
8
BLACK
6
CONTINUOUS
10
0.460455905511811
20
0.661761968503937
11
0.460896811023622
21
0.6606975590551181
0
LINE
8
BLACK
6
CONTINUOUS
10
0.460896811023622
20
0.6606975590551181
11
0.4609535433070866
21
0.656371968503937
0
LINE
8
BLACK
6
CONTINUOUS
10
0.4609535433070866
20
0.656371968503937
11
0.4609248031496063
21
0.6560803937007874
0
LINE
8
BLACK
6
CONTINUOUS
10
0.4609248031496063
20
0.6560803937007874
11
0.4609303543307087
21
0.6560026377952756
0
LINE
8
BLACK
6
CONTINUOUS
10
0.4609303543307087
20
0.6560026377952756
11
0.4609113779527559
21
0.6559440944881889
0
LINE
8
BLACK
6
CONTINUOUS
10
0.4609113779527559
20
0.6559440944881889
11
0.460896811023622
21
0.655795905511811
0
LINE
8
BLACK
6
CONTINUOUS
10
0.460896811023622
20
0.655795905511811
11
0.4607441338582677
21
0.6554274015748032
0
LINE
8
BLACK
6
CONTINUOUS
10
0.4607441338582677
20
0.6554274015748032
11
0.4589272440944882
21
0.649813937007874
0
LINE
8
BLACK
6
CONTINUOUS
10
0.4589272440944882
20
0.649813937007874
11
0.4586912598425197
21
0.6492853543307087
0
LINE
8
BLACK
6
CONTINUOUS
10
0.4586912598425197
20
0.6492853543307087
11
0.4586217716535433
21
0.6492052755905512
0
LINE
8
BLACK
6
CONTINUOUS
10
0.4586217716535433
20
0.6492052755905512
11
0.4585811811023622
21
0.6491072047244094
0
LINE
8
BLACK
6
CONTINUOUS
10
0.4585811811023622
20
0.6491072047244094
11
0.4581974015748032
21
0.6487159842519685
0
LINE
8
BLACK
6
CONTINUOUS
10
0.4581974015748032
20
0.6487159842519685
11
0.4579363779527559
21
0.648415
0
LINE
8
BLACK
6
CONTINUOUS
10
0.4579363779527559
20
0.648415
11
0.4578692913385827
21
0.6483814960629921
0
LINE
8
BLACK
6
CONTINUOUS
10
0.4578692913385827
20
0.6483814960629921
11
0.4544643700787401
21
0.6449102362204724
0
LINE
8
BLACK
6
CONTINUOUS
10
0.4544643700787401
20
0.6449102362204724
11
0.4540168897637795
21
0.6445429921259842
0
LINE
8
BLACK
6
CONTINUOUS
10
0.4540168897637795
20
0.6445429921259842
11
0.4539188188976378
21
0.6445024015748031
0
LINE
8
BLACK
6
CONTINUOUS
10
0.4539188188976378
20
0.6445024015748031
11
0.4538387401574803
21
0.6444329133858268
0
LINE
8
BLACK
6
CONTINUOUS
10
0.4538387401574803
20
0.6444329133858268
11
0.4533285433070866
21
0.6442579133858267
0
LINE
8
BLACK
6
CONTINUOUS
10
0.4533285433070866
20
0.6442579133858267
11
0.4529524803149606
21
0.644102125984252
0
LINE
8
BLACK
6
CONTINUOUS
10
0.4529524803149606
20
0.644102125984252
11
0.4528744881889764
21
0.644102125984252
0
LINE
8
BLACK
6
CONTINUOUS
10
0.4528744881889764
20
0.644102125984252
11
0.447685905511811
21
0.6423221653543307
0
LINE
8
BLACK
6
CONTINUOUS
10
0.447685905511811
20
0.6423221653543307
11
0.4474003149606299
21
0.6422572440944881
0
LINE
8
BLACK
6
CONTINUOUS
10
0.4474003149606299
20
0.6422572440944881
11
0.4473282283464567
21
0.6422273622047244
0
LINE
8
BLACK
6
CONTINUOUS
10
0.4473282283464567
20
0.6422273622047244
11
0.4472684251968504
21
0.6422272440944882
0
LINE
8
BLACK
6
CONTINUOUS
10
0.4472684251968504
20
0.6422272440944882
11
0.4471214566929134
21
0.6421938188976378
0
LINE
8
BLACK
6
CONTINUOUS
10
0.4471214566929134
20
0.6421938188976378
11
0.4466679133858268
21
0.6422260629921259
0
LINE
8
BLACK
6
CONTINUOUS
10
0.4466679133858268
20
0.6422260629921259
11
0.4186307086614173
21
0.6421706299212598
0
LINE
8
BLACK
6
CONTINUOUS
10
0.4186307086614173
20
0.6421706299212598
11
0.4180546456692913
21
0.6422273622047244
0
LINE
8
BLACK
6
CONTINUOUS
10
0.4180546456692913
20
0.6422273622047244
11
0.4169902362204724
21
0.6426682677165354
0
LINE
8
BLACK
6
CONTINUOUS
10
0.4169902362204724
20
0.6426682677165354
11
0.4161755905511811
21
0.6434829133858267
0
LINE
8
BLACK
6
CONTINUOUS
10
0.4161755905511811
20
0.6434829133858267
11
0.4157346850393701
21
0.6445473228346457
0
LINE
8
BLACK
6
CONTINUOUS
10
0.4157346850393701
20
0.6445473228346457
11
0.4157346850393701
21
0.6456994488188976
0
LINE
8
BLACK
6
CONTINUOUS
10
0.4157346850393701
20
0.6456994488188976
11
0.4161755905511811
21
0.6467638582677165
0
LINE
8
BLACK
6
CONTINUOUS
10
0.4161755905511811
20
0.6467638582677165
11
0.4169902362204724
21
0.6475785039370079
0
LINE
8
BLACK
6
CONTINUOUS
10
0.4169902362204724
20
0.6475785039370079
11
0.4180546456692913
21
0.6480194094488189
0
LINE
8
BLACK
6
CONTINUOUS
10
0.4180546456692913
20
0.6480194094488189
11
0.4464175196850393
21
0.6480755118110236
0
LINE
8
BLACK
6
CONTINUOUS
10
0.4464175196850393
20
0.6480755118110236
11
0.450865748031496
21
0.6496014960629921
0
LINE
8
BLACK
6
CONTINUOUS
10
0.450865748031496
20
0.6496014960629921
11
0.4536121653543307
21
0.6524013779527559
0
LINE
8
BLACK
6
CONTINUOUS
10
0.4536121653543307
20
0.6524013779527559
11
0.4550894094488189
21
0.6569654330708661
0
LINE
8
BLACK
6
CONTINUOUS
10
0.4550894094488189
20
0.6569654330708661
11
0.455048031496063
21
0.6601214960629921
0
LINE
8
BLACK
6
CONTINUOUS
10
0.455048031496063
20
0.6601214960629921
11
0.4551047637795275
21
0.6606975590551181
0
LINE
8
BLACK
6
CONTINUOUS
10
0.4551047637795275
20
0.6606975590551181
11
0.4555456692913386
21
0.661761968503937
0
LINE
8
BLACK
6
CONTINUOUS
10
0.4555456692913386
20
0.661761968503937
11
0.4563603149606299
21
0.6625766141732283
0
LINE
8
BLACK
6
CONTINUOUS
10
0.4563603149606299
20
0.6625766141732283
11
0.4574247244094488
21
0.6630175196850393
0
LINE
8
BLACK
6
CONTINUOUS
10
0.4574247244094488
20
0.6630175196850393
11
0.4585768503937008
21
0.6630175196850393
0
LINE
8
BLACK
6
CONTINUOUS
10
0.4585768503937008
20
0.6630175196850393
11
0.4596412598425197
21
0.6625766141732283
0
LINE
8
BLACK
6
CONTINUOUS
10
0.2354895275590551
20
0.8976362598425197
11
0.2356693307086614
21
0.663267716535433
0
LINE
8
BLACK
6
CONTINUOUS
10
0.2356693307086614
20
0.663267716535433
11
0.2354895275590551
21
0.6623637401574803
0
LINE
8
BLACK
6
CONTINUOUS
10
0.2354895275590551
20
0.6623637401574803
11
0.2342111023622047
21
0.6610853149606299
0
LINE
8
BLACK
6
CONTINUOUS
10
0.2342111023622047
20
0.6610853149606299
11
0.2324031496062992
21
0.6610853149606299
0
LINE
8
BLACK
6
CONTINUOUS
10
0.2324031496062992
20
0.6610853149606299
11
0.2311247244094488
21
0.6623637401574803
0
LINE
8
BLACK
6
CONTINUOUS
10
0.2311247244094488
20
0.6623637401574803
11
0.2309449212598425
21
0.8967322834645669
0
LINE
8
BLACK
6
CONTINUOUS
10
0.2309449212598425
20
0.8967322834645669
11
0.2311247244094488
21
0.8976362598425197
0
LINE
8
BLACK
6
CONTINUOUS
10
0.2311247244094488
20
0.8976362598425197
11
0.2324031496062992
21
0.8989146850393701
0
LINE
8
BLACK
6
CONTINUOUS
10
0.2324031496062992
20
0.8989146850393701
11
0.2342111023622047
21
0.8989146850393701
0
LINE
8
BLACK
6
CONTINUOUS
10
0.2342111023622047
20
0.8989146850393701
11
0.2354895275590551
21
0.8976362598425197
0
LINE
8
BLACK
6
CONTINUOUS
10
0.9688752755905512
20
0.8976362598425197
11
0.9690550787401575
21
0.663267716535433
0
LINE
8
BLACK
6
CONTINUOUS
10
0.9690550787401575
20
0.663267716535433
11
0.9688752755905512
21
0.6623637401574803
0
LINE
8
BLACK
6
CONTINUOUS
10
0.9688752755905512
20
0.6623637401574803
11
0.9675968503937008
21
0.6610853149606299
0
LINE
8
BLACK
6
CONTINUOUS
10
0.9675968503937008
20
0.6610853149606299
11
0.9657888976377953
21
0.6610853149606299
0
LINE
8
BLACK
6
CONTINUOUS
10
0.9657888976377953
20
0.6610853149606299
11
0.9645104724409449
21
0.6623637401574803
0
LINE
8
BLACK
6
CONTINUOUS
10
0.9645104724409449
20
0.6623637401574803
11
0.9643306692913386
21
0.8967322834645669
0
LINE
8
BLACK
6
CONTINUOUS
10
0.9643306692913386
20
0.8967322834645669
11
0.9645104724409449
21
0.8976362598425197
0
LINE
8
BLACK
6
CONTINUOUS
10
0.9645104724409449
20
0.8976362598425197
11
0.9657888976377953
21
0.8989146850393701
0
LINE
8
BLACK
6
CONTINUOUS
10
0.9657888976377953
20
0.8989146850393701
11
0.9675968503937008
21
0.8989146850393701
0
LINE
8
BLACK
6
CONTINUOUS
10
0.9675968503937008
20
0.8989146850393701
11
0.9688752755905512
21
0.8976362598425197
0
LINE
8
BLACK
6
CONTINUOUS
10
0.8565732283464567
20
0.94891468503937
11
0.8578516535433071
21
0.9476362598425196
0
LINE
8
BLACK
6
CONTINUOUS
10
0.8578516535433071
20
0.9476362598425196
11
0.8578516535433071
21
0.9458283070866141
0
LINE
8
BLACK
6
CONTINUOUS
10
0.8578516535433071
20
0.9458283070866141
11
0.8565732283464567
21
0.9445498818897637
0
LINE
8
BLACK
6
CONTINUOUS
10
0.8565732283464567
20
0.9445498818897637
11
0.8007731889763779
21
0.9443768897637795
0
LINE
8
BLACK
6
CONTINUOUS
10
0.8007731889763779
20
0.9443768897637795
11
0.800944842519685
21
0.8758661417322835
0
LINE
8
BLACK
6
CONTINUOUS
10
0.800944842519685
20
0.8758661417322835
11
0.8007650393700787
21
0.8749621653543307
0
LINE
8
BLACK
6
CONTINUOUS
10
0.8007650393700787
20
0.8749621653543307
11
0.7994866141732283
21
0.8736837401574803
0
LINE
8
BLACK
6
CONTINUOUS
10
0.7994866141732283
20
0.8736837401574803
11
0.7596062598425196
21
0.873503937007874
0
LINE
8
BLACK
6
CONTINUOUS
10
0.7596062598425196
20
0.873503937007874
11
0.7587022834645669
21
0.8736837401574803
0
LINE
8
BLACK
6
CONTINUOUS
10
0.7587022834645669
20
0.8736837401574803
11
0.7574238582677165
21
0.8749621653543307
0
LINE
8
BLACK
6
CONTINUOUS
10
0.7574238582677165
20
0.8749621653543307
11
0.7574238582677165
21
0.8767701181102362
0
LINE
8
BLACK
6
CONTINUOUS
10
0.7574238582677165
20
0.8767701181102362
11
0.7587022834645669
21
0.8780485433070866
0
LINE
8
BLACK
6
CONTINUOUS
10
0.7587022834645669
20
0.8780485433070866
11
0.7963920472440945
21
0.8782185039370078
0
LINE
8
BLACK
6
CONTINUOUS
10
0.7963920472440945
20
0.8782185039370078
11
0.7962204330708661
21
0.9467322834645669
0
LINE
8
BLACK
6
CONTINUOUS
10
0.7962204330708661
20
0.9467322834645669
11
0.7964002362204724
21
0.9476362598425196
0
LINE
8
BLACK
6
CONTINUOUS
10
0.7964002362204724
20
0.9476362598425196
11
0.7976786614173228
21
0.94891468503937
0
LINE
8
BLACK
6
CONTINUOUS
10
0.7976786614173228
20
0.94891468503937
11
0.855669251968504
21
0.9490944881889763
0
LINE
8
BLACK
6
CONTINUOUS
10
0.855669251968504
20
0.9490944881889763
11
0.8565732283464567
21
0.94891468503937
0
LINE
8
BLACK
6
CONTINUOUS
10
0.4023213385826772
20
0.94891468503937
11
0.4035997637795276
21
0.9476362598425196
0
LINE
8
BLACK
6
CONTINUOUS
10
0.4035997637795276
20
0.9476362598425196
11
0.4037795669291339
21
0.8758661417322835
0
LINE
8
BLACK
6
CONTINUOUS
10
0.4037795669291339
20
0.8758661417322835
11
0.4035997637795276
21
0.8749621653543307
0
LINE
8
BLACK
6
CONTINUOUS
10
0.4035997637795276
20
0.8749621653543307
11
0.4023213385826772
21
0.8736837401574803
0
LINE
8
BLACK
6
CONTINUOUS
10
0.4023213385826772
20
0.8736837401574803
11
0.4005133858267717
21
0.8736837401574803
0
LINE
8
BLACK
6
CONTINUOUS
10
0.4005133858267717
20
0.8736837401574803
11
0.3992349606299213
21
0.8749621653543307
0
LINE
8
BLACK
6
CONTINUOUS
10
0.3992349606299213
20
0.8749621653543307
11
0.3990606299212598
21
0.9445398031496063
0
LINE
8
BLACK
6
CONTINUOUS
10
0.3990606299212598
20
0.9445398031496063
11
0.344330748031496
21
0.9443700787401574
0
LINE
8
BLACK
6
CONTINUOUS
10
0.344330748031496
20
0.9443700787401574
11
0.3434267716535433
21
0.9445498818897637
0
LINE
8
BLACK
6
CONTINUOUS
10
0.3434267716535433
20
0.9445498818897637
11
0.3421483464566929
21
0.9458283070866141
0
LINE
8
BLACK
6
CONTINUOUS
10
0.3421483464566929
20
0.9458283070866141
11
0.3421483464566929
21
0.9476362598425196
0
LINE
8
BLACK
6
CONTINUOUS
10
0.3421483464566929
20
0.9476362598425196
11
0.3434267716535433
21
0.94891468503937
0
LINE
8
BLACK
6
CONTINUOUS
10
0.3434267716535433
20
0.94891468503937
11
0.4014173622047244
21
0.9490944881889763
0
LINE
8
BLACK
6
CONTINUOUS
10
0.4014173622047244
20
0.9490944881889763
11
0.4023213385826772
21
0.94891468503937
0
LINE
8
BLACK
6
CONTINUOUS
10
0.4449799212598425
20
1.0531464960629922
11
0.4454534645669291
21
1.0531464960629922
0
LINE
8
BLACK
6
CONTINUOUS
10
0.4454534645669291
20
1.0531464960629922
11
0.4455515354330709
21
1.0531058661417323
0
LINE
8
BLACK
6
CONTINUOUS
10
0.4455515354330709
20
1.0531058661417323
11
0.4456572834645669
21
1.053098346456693
0
LINE
8
BLACK
6
CONTINUOUS
10
0.4456572834645669
20
1.053098346456693
11
0.4460803937007874
21
1.052886811023622
0
LINE
8
BLACK
6
CONTINUOUS
10
0.4460803937007874
20
1.052886811023622
11
0.446517874015748
21
1.0527055905511811
0
LINE
8
BLACK
6
CONTINUOUS
10
0.446517874015748
20
1.0527055905511811
11
0.446592874015748
21
1.052630590551181
0
LINE
8
BLACK
6
CONTINUOUS
10
0.446592874015748
20
1.052630590551181
11
0.4466877559055118
21
1.0525831496062992
0
LINE
8
BLACK
6
CONTINUOUS
10
0.4466877559055118
20
1.0525831496062992
11
0.4469977559055118
21
1.0522257086614173
0
LINE
8
BLACK
6
CONTINUOUS
10
0.4469977559055118
20
1.0522257086614173
11
0.4473325196850393
21
1.0518909448818898
0
LINE
8
BLACK
6
CONTINUOUS
10
0.4473325196850393
20
1.0518909448818898
11
0.4473731102362205
21
1.0517929133858268
0
LINE
8
BLACK
6
CONTINUOUS
10
0.4473731102362205
20
1.0517929133858268
11
0.4474426377952756
21
1.0517127559055117
0
LINE
8
BLACK
6
CONTINUOUS
10
0.4474426377952756
20
1.0517127559055117
11
0.4475922440944882
21
1.051263937007874
0
LINE
8
BLACK
6
CONTINUOUS
10
0.4475922440944882
20
1.051263937007874
11
0.4477734251968504
21
1.0508265354330708
0
LINE
8
BLACK
6
CONTINUOUS
10
0.4477734251968504
20
1.0508265354330708
11
0.4477736614173228
21
1.0507196850393701
0
LINE
8
BLACK
6
CONTINUOUS
10
0.4477736614173228
20
1.0507196850393701
11
0.447806968503937
21
1.0506197637795276
0
LINE
8
BLACK
6
CONTINUOUS
10
0.447806968503937
20
1.0506197637795276
11
0.4477748818897638
21
1.0501689370078739
0
LINE
8
BLACK
6
CONTINUOUS
10
0.4477748818897638
20
1.0501689370078739
11
0.4478106692913386
21
1.0344340551181102
0
LINE
8
BLACK
6
CONTINUOUS
10
0.4478106692913386
20
1.0344340551181102
11
0.4580007874015748
21
1.034455590551181
0
LINE
8
BLACK
6
CONTINUOUS
10
0.4580007874015748
20
1.034455590551181
11
0.4585768503937008
21
1.0343988582677166
0
LINE
8
BLACK
6
CONTINUOUS
10
0.4585768503937008
20
1.0343988582677166
11
0.4596412598425197
21
1.0339579527559055
0
LINE
8
BLACK
6
CONTINUOUS
10
0.4596412598425197
20
1.0339579527559055
11
0.460455905511811
21
1.0331433070866141
0
LINE
8
BLACK
6
CONTINUOUS
10
0.460455905511811
20
1.0331433070866141
11
0.460896811023622
21
1.0320788976377953
0
LINE
8
BLACK
6
CONTINUOUS
10
0.460896811023622
20
1.0320788976377953
11
0.460896811023622
21
1.0309267716535433
0
LINE
8
BLACK
6
CONTINUOUS
10
0.460896811023622
20
1.0309267716535433
11
0.460455905511811
21
1.0298623622047245
0
LINE
8
BLACK
6
CONTINUOUS
10
0.460455905511811
20
1.0298623622047245
11
0.4596412598425197
21
1.029047716535433
0
LINE
8
BLACK
6
CONTINUOUS
10
0.4596412598425197
20
1.029047716535433
11
0.4585768503937008
21
1.0286068110236219
0
LINE
8
BLACK
6
CONTINUOUS
10
0.4585768503937008
20
1.0286068110236219
11
0.4478239763779527
21
1.028584094488189
0
LINE
8
BLACK
6
CONTINUOUS
10
0.4478239763779527
20
1.028584094488189
11
0.447830157480315
21
1.0258785433070865
0
LINE
8
BLACK
6
CONTINUOUS
10
0.447830157480315
20
1.0258785433070865
11
0.4477734251968504
21
1.0253024803149606
0
LINE
8
BLACK
6
CONTINUOUS
10
0.4477734251968504
20
1.0253024803149606
11
0.4473325196850393
21
1.0242380708661416
0
LINE
8
BLACK
6
CONTINUOUS
10
0.4473325196850393
20
1.0242380708661416
11
0.446517874015748
21
1.0234234251968504
0
LINE
8
BLACK
6
CONTINUOUS
10
0.446517874015748
20
1.0234234251968504
11
0.4454534645669291
21
1.0229825196850393
0
LINE
8
BLACK
6
CONTINUOUS
10
0.4454534645669291
20
1.0229825196850393
11
0.4443013385826772
21
1.0229825196850393
0
LINE
8
BLACK
6
CONTINUOUS
10
0.4443013385826772
20
1.0229825196850393
11
0.4432369291338583
21
1.0234234251968504
0
LINE
8
BLACK
6
CONTINUOUS
10
0.4432369291338583
20
1.0234234251968504
11
0.4424222834645669
21
1.0242380708661416
0
LINE
8
BLACK
6
CONTINUOUS
10
0.4424222834645669
20
1.0242380708661416
11
0.4419813779527559
21
1.0253024803149606
0
LINE
8
BLACK
6
CONTINUOUS
10
0.4419813779527559
20
1.0253024803149606
11
0.441973937007874
21
1.0285717322834644
0
LINE
8
BLACK
6
CONTINUOUS
10
0.441973937007874
20
1.0285717322834644
11
0.4317540551181102
21
1.0285500787401574
0
LINE
8
BLACK
6
CONTINUOUS
10
0.4317540551181102
20
1.0285500787401574
11
0.4311779921259842
21
1.0286068110236219
0
LINE
8
BLACK
6
CONTINUOUS
10
0.4311779921259842
20
1.0286068110236219
11
0.4301135826771653
21
1.029047716535433
0
LINE
8
BLACK
6
CONTINUOUS
10
0.4301135826771653
20
1.029047716535433
11
0.429298937007874
21
1.0298623622047245
0
LINE
8
BLACK
6
CONTINUOUS
10
0.429298937007874
20
1.0298623622047245
11
0.428858031496063
21
1.0309267716535433
0
LINE
8
BLACK
6
CONTINUOUS
10
0.428858031496063
20
1.0309267716535433
11
0.428858031496063
21
1.0320788976377953
0
LINE
8
BLACK
6
CONTINUOUS
10
0.428858031496063
20
1.0320788976377953
11
0.429298937007874
21
1.0331433070866141
0
LINE
8
BLACK
6
CONTINUOUS
10
0.429298937007874
20
1.0331433070866141
11
0.4301135826771653
21
1.0339579527559055
0
LINE
8
BLACK
6
CONTINUOUS
10
0.4301135826771653
20
1.0339579527559055
11
0.4311779921259842
21
1.0343988582677166
0
LINE
8
BLACK
6
CONTINUOUS
10
0.4311779921259842
20
1.0343988582677166
11
0.4419606299212598
21
1.0344216929133858
0
LINE
8
BLACK
6
CONTINUOUS
10
0.4419606299212598
20
1.0344216929133858
11
0.4419338188976378
21
1.0462074409448818
0
LINE
8
BLACK
6
CONTINUOUS
10
0.4419338188976378
20
1.0462074409448818
11
0.4176896850393701
21
1.0380754330708661
0
LINE
8
BLACK
6
CONTINUOUS
10
0.4176896850393701
20
1.0380754330708661
11
0.4171252362204724
21
1.0379470866141731
0
LINE
8
BLACK
6
CONTINUOUS
10
0.4171252362204724
20
1.0379470866141731
11
0.4159760236220472
21
1.0380287795275591
0
LINE
8
BLACK
6
CONTINUOUS
10
0.4159760236220472
20
1.0380287795275591
11
0.4149455905511811
21
1.0385439763779527
0
LINE
8
BLACK
6
CONTINUOUS
10
0.4149455905511811
20
1.0385439763779527
11
0.4141907086614173
21
1.0394143307086614
0
LINE
8
BLACK
6
CONTINUOUS
10
0.4141907086614173
20
1.0394143307086614
11
0.4138263779527559
21
1.0405073622047243
0
LINE
8
BLACK
6
CONTINUOUS
10
0.4138263779527559
20
1.0405073622047243
11
0.4139080708661417
21
1.0416565748031497
0
LINE
8
BLACK
6
CONTINUOUS
10
0.4139080708661417
20
1.0416565748031497
11
0.4144232677165354
21
1.0426870078740158
0
LINE
8
BLACK
6
CONTINUOUS
10
0.4144232677165354
20
1.0426870078740158
11
0.4152936220472441
21
1.0434418897637796
0
LINE
8
BLACK
6
CONTINUOUS
10
0.4152936220472441
20
1.0434418897637796
11
0.4439436220472441
21
1.0530516929133857
0
LINE
8
BLACK
6
CONTINUOUS
10
0.4439436220472441
20
1.0530516929133857
11
0.4442292519685039
21
1.053116653543307
0
LINE
8
BLACK
6
CONTINUOUS
10
0.4442292519685039
20
1.053116653543307
11
0.4443013385826772
21
1.0531464960629922
0
LINE
8
BLACK
6
CONTINUOUS
10
0.4443013385826772
20
1.0531464960629922
11
0.4443605511811023
21
1.0531464960629922
0
LINE
8
BLACK
6
CONTINUOUS
10
0.4443605511811023
20
1.0531464960629922
11
0.4445080708661417
21
1.0531800393700788
0
LINE
8
BLACK
6
CONTINUOUS
10
0.4445080708661417
20
1.0531800393700788
11
0.4449799212598425
21
1.0531464960629922
0
LINE
8
BLACK
6
CONTINUOUS
10
0.441297716535433
20
1.1283162598425196
11
0.4425761417322834
21
1.1270378346456693
0
LINE
8
BLACK
6
CONTINUOUS
10
0.4425761417322834
20
1.1270378346456693
11
0.4425761417322834
21
1.1252298818897637
0
LINE
8
BLACK
6
CONTINUOUS
10
0.4425761417322834
20
1.1252298818897637
11
0.441297716535433
21
1.1239514566929134
0
LINE
8
BLACK
6
CONTINUOUS
10
0.441297716535433
20
1.1239514566929134
11
0.4036079133858267
21
1.1237815354330709
0
LINE
8
BLACK
6
CONTINUOUS
10
0.4036079133858267
20
1.1237815354330709
11
0.4037795669291339
21
1.0552677165354329
0
LINE
8
BLACK
6
CONTINUOUS
10
0.4037795669291339
20
1.0552677165354329
11
0.4035997637795276
21
1.0543637401574804
0
LINE
8
BLACK
6
CONTINUOUS
10
0.4035997637795276
20
1.0543637401574804
11
0.4023213385826772
21
1.0530853149606298
0
LINE
8
BLACK
6
CONTINUOUS
10
0.4023213385826772
20
1.0530853149606298
11
0.344330748031496
21
1.0529055118110235
0
LINE
8
BLACK
6
CONTINUOUS
10
0.344330748031496
20
1.0529055118110235
11
0.3434267716535433
21
1.0530853149606298
0
LINE
8
BLACK
6
CONTINUOUS
10
0.3434267716535433
20
1.0530853149606298
11
0.3421483464566929
21
1.0543637401574804
0
LINE
8
BLACK
6
CONTINUOUS
10
0.3421483464566929
20
1.0543637401574804
11
0.3421483464566929
21
1.0561716929133858
0
LINE
8
BLACK
6
CONTINUOUS
10
0.3421483464566929
20
1.0561716929133858
11
0.3434267716535433
21
1.0574501181102363
0
LINE
8
BLACK
6
CONTINUOUS
10
0.3434267716535433
20
1.0574501181102363
11
0.3992267716535433
21
1.0576231496062991
0
LINE
8
BLACK
6
CONTINUOUS
10
0.3992267716535433
20
1.0576231496062991
11
0.3990551574803149
21
1.1261338582677165
0
LINE
8
BLACK
6
CONTINUOUS
10
0.3990551574803149
20
1.1261338582677165
11
0.3992349606299213
21
1.1270378346456693
0
LINE
8
BLACK
6
CONTINUOUS
10
0.3992349606299213
20
1.1270378346456693
11
0.4005133858267717
21
1.1283162598425196
0
LINE
8
BLACK
6
CONTINUOUS
10
0.4005133858267717
20
1.1283162598425196
11
0.4403937401574803
21
1.1284960629921259
0
LINE
8
BLACK
6
CONTINUOUS
10
0.4403937401574803
20
1.1284960629921259
11
0.441297716535433
21
1.1283162598425196
0
LINE
8
BLACK
6
CONTINUOUS
10
0.8007650393700787
20
1.1270378346456693
11
0.8009393307086614
21
1.0574602362204724
0
LINE
8
BLACK
6
CONTINUOUS
10
0.8009393307086614
20
1.0574602362204724
11
0.855669251968504
21
1.0576299212598426
0
LINE
8
BLACK
6
CONTINUOUS
10
0.855669251968504
20
1.0576299212598426
11
0.8565732283464567
21
1.0574501181102363
0
LINE
8
BLACK
6
CONTINUOUS
10
0.8565732283464567
20
1.0574501181102363
11
0.8578516535433071
21
1.0561716929133858
0
LINE
8
BLACK
6
CONTINUOUS
10
0.8578516535433071
20
1.0561716929133858
11
0.8578516535433071
21
1.0543637401574804
0
LINE
8
BLACK
6
CONTINUOUS
10
0.8578516535433071
20
1.0543637401574804
11
0.8565732283464567
21
1.0530853149606298
0
LINE
8
BLACK
6
CONTINUOUS
10
0.8565732283464567
20
1.0530853149606298
11
0.7985826377952756
21
1.0529055118110235
0
LINE
8
BLACK
6
CONTINUOUS
10
0.7985826377952756
20
1.0529055118110235
11
0.7976786614173228
21
1.0530853149606298
0
LINE
8
BLACK
6
CONTINUOUS
10
0.7976786614173228
20
1.0530853149606298
11
0.7964002362204724
21
1.0543637401574804
0
LINE
8
BLACK
6
CONTINUOUS
10
0.7964002362204724
20
1.0543637401574804
11
0.7962204330708661
21
1.1261338582677165
0
LINE
8
BLACK
6
CONTINUOUS
10
0.7962204330708661
20
1.1261338582677165
11
0.7964002362204724
21
1.1270378346456693
0
LINE
8
BLACK
6
CONTINUOUS
10
0.7964002362204724
20
1.1270378346456693
11
0.7976786614173228
21
1.1283162598425196
0
LINE
8
BLACK
6
CONTINUOUS
10
0.7976786614173228
20
1.1283162598425196
11
0.7994866141732283
21
1.1283162598425196
0
LINE
8
BLACK
6
CONTINUOUS
10
0.7994866141732283
20
1.1283162598425196
11
0.8007650393700787
21
1.1270378346456693
0
LINE
8
BLACK
6
CONTINUOUS
10
0.7714522047244095
20
1.0885803543307087
11
0.7722668897637796
21
1.0877657086614172
0
LINE
8
BLACK
6
CONTINUOUS
10
0.7722668897637796
20
1.0877657086614172
11
0.7725233464566928
21
1.0871464960629922
0
LINE
8
BLACK
6
CONTINUOUS
10
0.7725233464566928
20
1.0871464960629922
11
0.7727077559055118
21
1.0867012992125984
0
LINE
8
BLACK
6
CONTINUOUS
10
0.7727077559055118
20
1.0867012992125984
11
0.7727644881889764
21
1.0617533070866141
0
LINE
8
BLACK
6
CONTINUOUS
10
0.7727644881889764
20
1.0617533070866141
11
0.7727077559055118
21
1.0611772440944882
0
LINE
8
BLACK
6
CONTINUOUS
10
0.7727077559055118
20
1.0611772440944882
11
0.7722668503937008
21
1.0601128346456692
0
LINE
8
BLACK
6
CONTINUOUS
10
0.7722668503937008
20
1.0601128346456692
11
0.7714522047244095
21
1.059298188976378
0
LINE
8
BLACK
6
CONTINUOUS
10
0.7714522047244095
20
1.059298188976378
11
0.7703877952755905
21
1.0588572834645669
0
LINE
8
BLACK
6
CONTINUOUS
10
0.7703877952755905
20
1.0588572834645669
11
0.7692356692913386
21
1.0588572834645669
0
LINE
8
BLACK
6
CONTINUOUS
10
0.7692356692913386
20
1.0588572834645669
11
0.7681712598425197
21
1.059298188976378
0
LINE
8
BLACK
6
CONTINUOUS
10
0.7681712598425197
20
1.059298188976378
11
0.7673566141732283
21
1.0601128346456692
0
LINE
8
BLACK
6
CONTINUOUS
10
0.7673566141732283
20
1.0601128346456692
11
0.7669157086614173
21
1.0611772440944882
0
LINE
8
BLACK
6
CONTINUOUS
10
0.7669157086614173
20
1.0611772440944882
11
0.766875
21
1.0790740157480314
0
LINE
8
BLACK
6
CONTINUOUS
10
0.766875
20
1.0790740157480314
11
0.7494024409448818
21
1.0615401574803149
0
LINE
8
BLACK
6
CONTINUOUS
10
0.7494024409448818
20
1.0615401574803149
11
0.748955
21
1.0611729527559055
0
LINE
8
BLACK
6
CONTINUOUS
10
0.748955
20
1.0611729527559055
11
0.7488569291338583
21
1.0611323622047244
0
LINE
8
BLACK
6
CONTINUOUS
10
0.7488569291338583
20
1.0611323622047244
11
0.748776811023622
21
1.0610628346456692
0
LINE
8
BLACK
6
CONTINUOUS
10
0.748776811023622
20
1.0610628346456692
11
0.7482664960629921
21
1.0608877952755906
0
LINE
8
BLACK
6
CONTINUOUS
10
0.7482664960629921
20
1.0608877952755906
11
0.7478905511811024
21
1.0607320472440944
0
LINE
8
BLACK
6
CONTINUOUS
10
0.7478905511811024
20
1.0607320472440944
11
0.7478125590551181
21
1.0607320472440944
0
LINE
8
BLACK
6
CONTINUOUS
10
0.7478125590551181
20
1.0607320472440944
11
0.7426239763779527
21
1.0589520866141733
0
LINE
8
BLACK
6
CONTINUOUS
10
0.7426239763779527
20
1.0589520866141733
11
0.7423383858267716
21
1.0588871653543306
0
LINE
8
BLACK
6
CONTINUOUS
10
0.7423383858267716
20
1.0588871653543306
11
0.7422662992125985
21
1.0588572834645669
0
LINE
8
BLACK
6
CONTINUOUS
10
0.7422662992125985
20
1.0588572834645669
11
0.7422033858267716
21
1.058856496062992
0
LINE
8
BLACK
6
CONTINUOUS
10
0.7422033858267716
20
1.058856496062992
11
0.7420595275590551
21
1.0588237401574803
0
LINE
8
BLACK
6
CONTINUOUS
10
0.7420595275590551
20
1.0588237401574803
11
0.7416933464566929
21
1.0588498031496063
0
LINE
8
BLACK
6
CONTINUOUS
10
0.7416933464566929
20
1.0588498031496063
11
0.7379407086614173
21
1.0588005511811023
0
LINE
8
BLACK
6
CONTINUOUS
10
0.7379407086614173
20
1.0588005511811023
11
0.7373646456692913
21
1.0588572834645669
0
LINE
8
BLACK
6
CONTINUOUS
10
0.7373646456692913
20
1.0588572834645669
11
0.7372666535433071
21
1.058897874015748
0
LINE
8
BLACK
6
CONTINUOUS
10
0.7372666535433071
20
1.058897874015748
11
0.7371607874015748
21
1.0589053937007873
0
LINE
8
BLACK
6
CONTINUOUS
10
0.7371607874015748
20
1.0589053937007873
11
0.7366490157480314
21
1.0591537401574802
0
LINE
8
BLACK
6
CONTINUOUS
10
0.7366490157480314
20
1.0591537401574802
11
0.7363002362204725
21
1.059298188976378
0
LINE
8
BLACK
6
CONTINUOUS
10
0.7363002362204725
20
1.059298188976378
11
0.7362521259842519
21
1.0593462992125984
0
LINE
8
BLACK
6
CONTINUOUS
10
0.7362521259842519
20
1.0593462992125984
11
0.7328706692913386
21
1.0609870472440945
0
LINE
8
BLACK
6
CONTINUOUS
10
0.7328706692913386
20
1.0609870472440945
11
0.7326226377952756
21
1.0611431496062993
0
LINE
8
BLACK
6
CONTINUOUS
10
0.7326226377952756
20
1.0611431496062993
11
0.7325507086614174
21
1.0611729527559055
0
LINE
8
BLACK
6
CONTINUOUS
10
0.7325507086614174
20
1.0611729527559055
11
0.7325046062992125
21
1.0612174803149605
0
LINE
8
BLACK
6
CONTINUOUS
10
0.7325046062992125
20
1.0612174803149605
11
0.7323807874015748
21
1.0612953937007874
0
LINE
8
BLACK
6
CONTINUOUS
10
0.7323807874015748
20
1.0612953937007874
11
0.7321590157480314
21
1.0615511023622046
0
LINE
8
BLACK
6
CONTINUOUS
10
0.7321590157480314
20
1.0615511023622046
11
0.7302285039370079
21
1.0634149212598425
0
LINE
8
BLACK
6
CONTINUOUS
10
0.7302285039370079
20
1.0634149212598425
11
0.7300427165354331
21
1.0636412992125983
0
LINE
8
BLACK
6
CONTINUOUS
10
0.7300427165354331
20
1.0636412992125983
11
0.7299837401574802
21
1.0636924409448818
0
LINE
8
BLACK
6
CONTINUOUS
10
0.7299837401574802
20
1.0636924409448818
11
0.7299550787401574
21
1.0637481102362205
0
LINE
8
BLACK
6
CONTINUOUS
10
0.7299550787401574
20
1.0637481102362205
11
0.7298612992125985
21
1.0638623622047243
0
LINE
8
BLACK
6
CONTINUOUS
10
0.7298612992125985
20
1.0638623622047243
11
0.7297176377952755
21
1.0642091732283465
0
LINE
8
BLACK
6
CONTINUOUS
10
0.7297176377952755
20
1.0642091732283465
11
0.7278006299212598
21
1.0679318503937008
0
LINE
8
BLACK
6
CONTINUOUS
10
0.7278006299212598
20
1.0679318503937008
11
0.7275937401574804
21
1.0684724803149606
0
LINE
8
BLACK
6
CONTINUOUS
10
0.7275937401574804
20
1.0684724803149606
11
0.7275862204724409
21
1.0685783070866142
0
LINE
8
BLACK
6
CONTINUOUS
10
0.7275862204724409
20
1.0685783070866142
11
0.7275456299212598
21
1.0686762992125984
0
LINE
8
BLACK
6
CONTINUOUS
10
0.7275456299212598
20
1.0686762992125984
11
0.7275426771653544
21
1.069190905511811
0
LINE
8
BLACK
6
CONTINUOUS
10
0.7275426771653544
20
1.069190905511811
11
0.7275120866141732
21
1.0696216929133857
0
LINE
8
BLACK
6
CONTINUOUS
10
0.7275120866141732
20
1.0696216929133857
11
0.7275397637795276
21
1.0697047637795276
0
LINE
8
BLACK
6
CONTINUOUS
10
0.7275397637795276
20
1.0697047637795276
11
0.7274888976377952
21
1.0786261811023621
0
LINE
8
BLACK
6
CONTINUOUS
10
0.7274888976377952
20
1.0786261811023621
11
0.7275456299212598
21
1.0792022440944882
0
LINE
8
BLACK
6
CONTINUOUS
10
0.7275456299212598
20
1.0792022440944882
11
0.7275862204724409
21
1.0793002755905512
0
LINE
8
BLACK
6
CONTINUOUS
10
0.7275862204724409
20
1.0793002755905512
11
0.7275937401574804
21
1.079406062992126
0
LINE
8
BLACK
6
CONTINUOUS
10
0.7275937401574804
20
1.079406062992126
11
0.7278419291338583
21
1.0799176377952755
0
LINE
8
BLACK
6
CONTINUOUS
10
0.7278419291338583
20
1.0799176377952755
11
0.7279865354330709
21
1.080266653543307
0
LINE
8
BLACK
6
CONTINUOUS
10
0.7279865354330709
20
1.080266653543307
11
0.7280346456692913
21
1.0803148031496064
0
LINE
8
BLACK
6
CONTINUOUS
10
0.7280346456692913
20
1.0803148031496064
11
0.7296753937007874
21
1.083696220472441
0
LINE
8
BLACK
6
CONTINUOUS
10
0.7296753937007874
20
1.083696220472441
11
0.7298314566929134
21
1.0839442519685039
0
LINE
8
BLACK
6
CONTINUOUS
10
0.7298314566929134
20
1.0839442519685039
11
0.7298612992125985
21
1.0840161811023621
0
LINE
8
BLACK
6
CONTINUOUS
10
0.7298612992125985
20
1.0840161811023621
11
0.7299057874015747
21
1.084062283464567
0
LINE
8
BLACK
6
CONTINUOUS
10
0.7299057874015747
20
1.084062283464567
11
0.7299837401574802
21
1.0841861023622048
0
LINE
8
BLACK
6
CONTINUOUS
10
0.7299837401574802
20
1.0841861023622048
11
0.7302394094488189
21
1.0844078740157479
0
LINE
8
BLACK
6
CONTINUOUS
10
0.7302394094488189
20
1.0844078740157479
11
0.7321032677165354
21
1.0863383858267717
0
LINE
8
BLACK
6
CONTINUOUS
10
0.7321032677165354
20
1.0863383858267717
11
0.7325507086614174
21
1.0867055905511811
0
LINE
8
BLACK
6
CONTINUOUS
10
0.7325507086614174
20
1.0867055905511811
11
0.7336151181102362
21
1.0871464960629922
0
LINE
8
BLACK
6
CONTINUOUS
10
0.7336151181102362
20
1.0871464960629922
11
0.7347672047244095
21
1.0871464960629922
0
LINE
8
BLACK
6
CONTINUOUS
10
0.7347672047244095
20
1.0871464960629922
11
0.7358316141732283
21
1.0867055905511811
0
LINE
8
BLACK
6
CONTINUOUS
10
0.7358316141732283
20
1.0867055905511811
11
0.7366462992125984
21
1.0858909055118109
0
LINE
8
BLACK
6
CONTINUOUS
10
0.7366462992125984
20
1.0858909055118109
11
0.7370872047244095
21
1.0848264960629921
0
LINE
8
BLACK
6
CONTINUOUS
10
0.7370872047244095
20
1.0848264960629921
11
0.7370872047244095
21
1.0836744094488189
0
LINE
8
BLACK
6
CONTINUOUS
10
0.7370872047244095
20
1.0836744094488189
11
0.7366462992125984
21
1.0826100000000001
0
LINE
8
BLACK
6
CONTINUOUS
10
0.7366462992125984
20
1.0826100000000001
11
0.7346562992125985
21
1.0805488188976378
0
LINE
8
BLACK
6
CONTINUOUS
10
0.7346562992125985
20
1.0805488188976378
11
0.7333453937007874
21
1.0778471653543307
0
LINE
8
BLACK
6
CONTINUOUS
10
0.7333453937007874
20
1.0778471653543307
11
0.733390905511811
21
1.0698654330708661
0
LINE
8
BLACK
6
CONTINUOUS
10
0.733390905511811
20
1.0698654330708661
11
0.7347847244094488
21
1.0671587007874015
0
LINE
8
BLACK
6
CONTINUOUS
10
0.7347847244094488
20
1.0671587007874015
11
0.7360181102362204
21
1.0659679527559054
0
LINE
8
BLACK
6
CONTINUOUS
10
0.7360181102362204
20
1.0659679527559054
11
0.7386995669291339
21
1.0646668503937007
0
LINE
8
BLACK
6
CONTINUOUS
10
0.7386995669291339
20
1.0646668503937007
11
0.7413442913385827
21
1.0647015354330709
0
LINE
8
BLACK
6
CONTINUOUS
10
0.7413442913385827
20
1.0647015354330709
11
0.7458266929133858
21
1.066239251968504
0
LINE
8
BLACK
6
CONTINUOUS
10
0.7458266929133858
20
1.066239251968504
11
0.7677238188976377
21
1.0882131496062992
0
LINE
8
BLACK
6
CONTINUOUS
10
0.7677238188976377
20
1.0882131496062992
11
0.7681712598425197
21
1.0885803937007874
0
LINE
8
BLACK
6
CONTINUOUS
10
0.7681712598425197
20
1.0885803937007874
11
0.7689238976377952
21
1.0888921653543306
0
LINE
8
BLACK
6
CONTINUOUS
10
0.7689238976377952
20
1.0888921653543306
11
0.7692356692913386
21
1.0890212598425197
0
LINE
8
BLACK
6
CONTINUOUS
10
0.7692356692913386
20
1.0890212598425197
11
0.7703877952755905
21
1.0890212598425197
0
LINE
8
BLACK
6
CONTINUOUS
10
0.7703877952755905
20
1.0890212598425197
11
0.7714522047244095
21
1.0885803543307087
0
LINE
8
BLACK
6
CONTINUOUS
10
0.4596412598425197
20
1.0845766141732283
11
0.460455905511811
21
1.083761968503937
0
LINE
8
BLACK
6
CONTINUOUS
10
0.460455905511811
20
1.083761968503937
11
0.460896811023622
21
1.082697559055118
0
LINE
8
BLACK
6
CONTINUOUS
10
0.460896811023622
20
1.082697559055118
11
0.4609535433070866
21
1.078371968503937
0
LINE
8
BLACK
6
CONTINUOUS
10
0.4609535433070866
20
1.078371968503937
11
0.4609248031496063
21
1.0780803937007875
0
LINE
8
BLACK
6
CONTINUOUS
10
0.4609248031496063
20
1.0780803937007875
11
0.4609303543307087
21
1.0780026377952756
0
LINE
8
BLACK
6
CONTINUOUS
10
0.4609303543307087
20
1.0780026377952756
11
0.4609113779527559
21
1.0779440944881888
0
LINE
8
BLACK
6
CONTINUOUS
10
0.4609113779527559
20
1.0779440944881888
11
0.460896811023622
21
1.0777959055118109
0
LINE
8
BLACK
6
CONTINUOUS
10
0.460896811023622
20
1.0777959055118109
11
0.4607441338582677
21
1.0774274015748031
0
LINE
8
BLACK
6
CONTINUOUS
10
0.4607441338582677
20
1.0774274015748031
11
0.4589272440944882
21
1.0718139370078741
0
LINE
8
BLACK
6
CONTINUOUS
10
0.4589272440944882
20
1.0718139370078741
11
0.4586912598425197
21
1.0712853543307086
0
LINE
8
BLACK
6
CONTINUOUS
10
0.4586912598425197
20
1.0712853543307086
11
0.4586217716535433
21
1.0712052755905512
0
LINE
8
BLACK
6
CONTINUOUS
10
0.4586217716535433
20
1.0712052755905512
11
0.4585811811023622
21
1.0711072047244095
0
LINE
8
BLACK
6
CONTINUOUS
10
0.4585811811023622
20
1.0711072047244095
11
0.4581974015748032
21
1.0707159842519685
0
LINE
8
BLACK
6
CONTINUOUS
10
0.4581974015748032
20
1.0707159842519685
11
0.4579363779527559
21
1.0704149999999999
0
LINE
8
BLACK
6
CONTINUOUS
10
0.4579363779527559
20
1.0704149999999999
11
0.4578692913385827
21
1.070381496062992
0
LINE
8
BLACK
6
CONTINUOUS
10
0.4578692913385827
20
1.070381496062992
11
0.4544643700787401
21
1.0669102362204723
0
LINE
8
BLACK
6
CONTINUOUS
10
0.4544643700787401
20
1.0669102362204723
11
0.4540168897637795
21
1.0665429921259841
0
LINE
8
BLACK
6
CONTINUOUS
10
0.4540168897637795
20
1.0665429921259841
11
0.4539188188976378
21
1.066502401574803
0
LINE
8
BLACK
6
CONTINUOUS
10
0.4539188188976378
20
1.066502401574803
11
0.4538387401574803
21
1.0664329133858268
0
LINE
8
BLACK
6
CONTINUOUS
10
0.4538387401574803
20
1.0664329133858268
11
0.4533285433070866
21
1.0662579133858268
0
LINE
8
BLACK
6
CONTINUOUS
10
0.4533285433070866
20
1.0662579133858268
11
0.4529524803149606
21
1.066102125984252
0
LINE
8
BLACK
6
CONTINUOUS
10
0.4529524803149606
20
1.066102125984252
11
0.4528744881889764
21
1.066102125984252
0
LINE
8
BLACK
6
CONTINUOUS
10
0.4528744881889764
20
1.066102125984252
11
0.447685905511811
21
1.0643221653543307
0
LINE
8
BLACK
6
CONTINUOUS
10
0.447685905511811
20
1.0643221653543307
11
0.4474003149606299
21
1.0642572440944882
0
LINE
8
BLACK
6
CONTINUOUS
10
0.4474003149606299
20
1.0642572440944882
11
0.4473282283464567
21
1.0642273622047245
0
LINE
8
BLACK
6
CONTINUOUS
10
0.4473282283464567
20
1.0642273622047245
11
0.4472684251968504
21
1.0642272440944882
0
LINE
8
BLACK
6
CONTINUOUS
10
0.4472684251968504
20
1.0642272440944882
11
0.4471214566929134
21
1.0641938188976379
0
LINE
8
BLACK
6
CONTINUOUS
10
0.4471214566929134
20
1.0641938188976379
11
0.4466679133858268
21
1.0642260629921259
0
LINE
8
BLACK
6
CONTINUOUS
10
0.4466679133858268
20
1.0642260629921259
11
0.4186307086614173
21
1.0641706299212599
0
LINE
8
BLACK
6
CONTINUOUS
10
0.4186307086614173
20
1.0641706299212599
11
0.4180546456692913
21
1.0642273622047245
0
LINE
8
BLACK
6
CONTINUOUS
10
0.4180546456692913
20
1.0642273622047245
11
0.4169902362204724
21
1.0646682677165353
0
LINE
8
BLACK
6
CONTINUOUS
10
0.4169902362204724
20
1.0646682677165353
11
0.4161755905511811
21
1.0654829133858268
0
LINE
8
BLACK
6
CONTINUOUS
10
0.4161755905511811
20
1.0654829133858268
11
0.4157346850393701
21
1.0665473228346456
0
LINE
8
BLACK
6
CONTINUOUS
10
0.4157346850393701
20
1.0665473228346456
11
0.4157346850393701
21
1.0676994488188976
0
LINE
8
BLACK
6
CONTINUOUS
10
0.4157346850393701
20
1.0676994488188976
11
0.4161755905511811
21
1.0687638582677166
0
LINE
8
BLACK
6
CONTINUOUS
10
0.4161755905511811
20
1.0687638582677166
11
0.4169902362204724
21
1.0695785039370078
0
LINE
8
BLACK
6
CONTINUOUS
10
0.4169902362204724
20
1.0695785039370078
11
0.4180546456692913
21
1.0700194094488189
0
LINE
8
BLACK
6
CONTINUOUS
10
0.4180546456692913
20
1.0700194094488189
11
0.4464175196850393
21
1.0700755118110237
0
LINE
8
BLACK
6
CONTINUOUS
10
0.4464175196850393
20
1.0700755118110237
11
0.450865748031496
21
1.071601496062992
0
LINE
8
BLACK
6
CONTINUOUS
10
0.450865748031496
20
1.071601496062992
11
0.4536121653543307
21
1.0744013779527559
0
LINE
8
BLACK
6
CONTINUOUS
10
0.4536121653543307
20
1.0744013779527559
11
0.4550894094488189
21
1.078965433070866
0
LINE
8
BLACK
6
CONTINUOUS
10
0.4550894094488189
20
1.078965433070866
11
0.455048031496063
21
1.0821214960629921
0
LINE
8
BLACK
6
CONTINUOUS
10
0.455048031496063
20
1.0821214960629921
11
0.4551047637795275
21
1.082697559055118
0
LINE
8
BLACK
6
CONTINUOUS
10
0.4551047637795275
20
1.082697559055118
11
0.4555456692913386
21
1.083761968503937
0
LINE
8
BLACK
6
CONTINUOUS
10
0.4555456692913386
20
1.083761968503937
11
0.4563603149606299
21
1.0845766141732283
0
LINE
8
BLACK
6
CONTINUOUS
10
0.4563603149606299
20
1.0845766141732283
11
0.4574247244094488
21
1.0850175196850393
0
LINE
8
BLACK
6
CONTINUOUS
10
0.4574247244094488
20
1.0850175196850393
11
0.4585768503937008
21
1.0850175196850393
0
LINE
8
BLACK
6
CONTINUOUS
10
0.4585768503937008
20
1.0850175196850393
11
0.4596412598425197
21
1.0845766141732283
0
LINE
8
BLACK
6
CONTINUOUS
10
0.7714522047244095
20
1.1185766141732283
11
0.7722668503937008
21
1.1177619685039371
0
LINE
8
BLACK
6
CONTINUOUS
10
0.7722668503937008
20
1.1177619685039371
11
0.7727077559055118
21
1.116697559055118
0
LINE
8
BLACK
6
CONTINUOUS
10
0.7727077559055118
20
1.116697559055118
11
0.7727644881889764
21
1.112371968503937
0
LINE
8
BLACK
6
CONTINUOUS
10
0.7727644881889764
20
1.112371968503937
11
0.772735748031496
21
1.1120803937007875
0
LINE
8
BLACK
6
CONTINUOUS
10
0.772735748031496
20
1.1120803937007875
11
0.7727412992125984
21
1.1120026377952756
0
LINE
8
BLACK
6
CONTINUOUS
10
0.7727412992125984
20
1.1120026377952756
11
0.7727223228346457
21
1.1119440944881889
0
LINE
8
BLACK
6
CONTINUOUS
10
0.7727223228346457
20
1.1119440944881889
11
0.7727077559055118
21
1.111795905511811
0
LINE
8
BLACK
6
CONTINUOUS
10
0.7727077559055118
20
1.111795905511811
11
0.7725550787401575
21
1.1114274015748031
0
LINE
8
BLACK
6
CONTINUOUS
10
0.7725550787401575
20
1.1114274015748031
11
0.7707381889763779
21
1.1058139370078739
0
LINE
8
BLACK
6
CONTINUOUS
10
0.7707381889763779
20
1.1058139370078739
11
0.7705022047244094
21
1.1052853543307086
0
LINE
8
BLACK
6
CONTINUOUS
10
0.7705022047244094
20
1.1052853543307086
11
0.7704327165354331
21
1.1052052755905513
0
LINE
8
BLACK
6
CONTINUOUS
10
0.7704327165354331
20
1.1052052755905513
11
0.770392125984252
21
1.1051072047244095
0
LINE
8
BLACK
6
CONTINUOUS
10
0.770392125984252
20
1.1051072047244095
11
0.7700083464566929
21
1.1047159842519685
0
LINE
8
BLACK
6
CONTINUOUS
10
0.7700083464566929
20
1.1047159842519685
11
0.7697473228346456
21
1.1044149999999999
0
LINE
8
BLACK
6
CONTINUOUS
10
0.7697473228346456
20
1.1044149999999999
11
0.7696802362204724
21
1.1043814960629921
0
LINE
8
BLACK
6
CONTINUOUS
10
0.7696802362204724
20
1.1043814960629921
11
0.7662753149606299
21
1.1009102362204723
0
LINE
8
BLACK
6
CONTINUOUS
10
0.7662753149606299
20
1.1009102362204723
11
0.7658278346456693
21
1.1005429921259842
0
LINE
8
BLACK
6
CONTINUOUS
10
0.7658278346456693
20
1.1005429921259842
11
0.7657297637795275
21
1.1005024015748031
0
LINE
8
BLACK
6
CONTINUOUS
10
0.7657297637795275
20
1.1005024015748031
11
0.76564968503937
21
1.1004329133858268
0
LINE
8
BLACK
6
CONTINUOUS
10
0.76564968503937
20
1.1004329133858268
11
0.7651394881889764
21
1.1002579133858268
0
LINE
8
BLACK
6
CONTINUOUS
10
0.7651394881889764
20
1.1002579133858268
11
0.7647634251968504
21
1.1001021259842518
0
LINE
8
BLACK
6
CONTINUOUS
10
0.7647634251968504
20
1.1001021259842518
11
0.7646854330708661
21
1.1001021259842518
0
LINE
8
BLACK
6
CONTINUOUS
10
0.7646854330708661
20
1.1001021259842518
11
0.7594968503937007
21
1.0983221653543307
0
LINE
8
BLACK
6
CONTINUOUS
10
0.7594968503937007
20
1.0983221653543307
11
0.7592112598425197
21
1.0982572440944882
0
LINE
8
BLACK
6
CONTINUOUS
10
0.7592112598425197
20
1.0982572440944882
11
0.7591391732283465
21
1.0982273622047243
0
LINE
8
BLACK
6
CONTINUOUS
10
0.7591391732283465
20
1.0982273622047243
11
0.7590793700787402
21
1.0982272440944882
0
LINE
8
BLACK
6
CONTINUOUS
10
0.7590793700787402
20
1.0982272440944882
11
0.7589324015748031
21
1.0981938188976377
0
LINE
8
BLACK
6
CONTINUOUS
10
0.7589324015748031
20
1.0981938188976377
11
0.7584788582677165
21
1.0982260629921259
0
LINE
8
BLACK
6
CONTINUOUS
10
0.7584788582677165
20
1.0982260629921259
11
0.730441653543307
21
1.0981706299212599
0
LINE
8
BLACK
6
CONTINUOUS
10
0.730441653543307
20
1.0981706299212599
11
0.7298655905511811
21
1.0982273622047243
0
LINE
8
BLACK
6
CONTINUOUS
10
0.7298655905511811
20
1.0982273622047243
11
0.7288011811023621
21
1.0986682677165354
0
LINE
8
BLACK
6
CONTINUOUS
10
0.7288011811023621
20
1.0986682677165354
11
0.7279865354330709
21
1.0994829133858268
0
LINE
8
BLACK
6
CONTINUOUS
10
0.7279865354330709
20
1.0994829133858268
11
0.7275456299212598
21
1.1005473228346456
0
LINE
8
BLACK
6
CONTINUOUS
10
0.7275456299212598
20
1.1005473228346456
11
0.7275456299212598
21
1.1016994488188976
0
LINE
8
BLACK
6
CONTINUOUS
10
0.7275456299212598
20
1.1016994488188976
11
0.7279865354330709
21
1.1027638582677166
0
LINE
8
BLACK
6
CONTINUOUS
10
0.7279865354330709
20
1.1027638582677166
11
0.7288011811023621
21
1.1035785039370078
0
LINE
8
BLACK
6
CONTINUOUS
10
0.7288011811023621
20
1.1035785039370078
11
0.7298655905511811
21
1.1040194094488189
0
LINE
8
BLACK
6
CONTINUOUS
10
0.7298655905511811
20
1.1040194094488189
11
0.7582284645669292
21
1.1040755118110237
0
LINE
8
BLACK
6
CONTINUOUS
10
0.7582284645669292
20
1.1040755118110237
11
0.7626766929133858
21
1.1056014960629921
0
LINE
8
BLACK
6
CONTINUOUS
10
0.7626766929133858
20
1.1056014960629921
11
0.7654231102362204
21
1.108401377952756
0
LINE
8
BLACK
6
CONTINUOUS
10
0.7654231102362204
20
1.108401377952756
11
0.7669003543307087
21
1.112965433070866
0
LINE
8
BLACK
6
CONTINUOUS
10
0.7669003543307087
20
1.112965433070866
11
0.7668589763779528
21
1.1161214960629922
0
LINE
8
BLACK
6
CONTINUOUS
10
0.7668589763779528
20
1.1161214960629922
11
0.7669157086614173
21
1.116697559055118
0
LINE
8
BLACK
6
CONTINUOUS
10
0.7669157086614173
20
1.116697559055118
11
0.7673566141732283
21
1.1177619685039371
0
LINE
8
BLACK
6
CONTINUOUS
10
0.7673566141732283
20
1.1177619685039371
11
0.7681712598425197
21
1.1185766141732283
0
LINE
8
BLACK
6
CONTINUOUS
10
0.7681712598425197
20
1.1185766141732283
11
0.7692356692913386
21
1.1190175196850394
0
LINE
8
BLACK
6
CONTINUOUS
10
0.7692356692913386
20
1.1190175196850394
11
0.7703877952755905
21
1.1190175196850394
0
LINE
8
BLACK
6
CONTINUOUS
10
0.7703877952755905
20
1.1190175196850394
11
0.7714522047244095
21
1.1185766141732283
0
LINE
8
BLACK
6
CONTINUOUS
10
0.2354895275590551
20
1.3396362598425196
11
0.2356693307086614
21
1.105267716535433
0
LINE
8
BLACK
6
CONTINUOUS
10
0.2356693307086614
20
1.105267716535433
11
0.2354895275590551
21
1.1043637401574804
0
LINE
8
BLACK
6
CONTINUOUS
10
0.2354895275590551
20
1.1043637401574804
11
0.2342111023622047
21
1.1030853149606299
0
LINE
8
BLACK
6
CONTINUOUS
10
0.2342111023622047
20
1.1030853149606299
11
0.2324031496062992
21
1.1030853149606299
0
LINE
8
BLACK
6
CONTINUOUS
10
0.2324031496062992
20
1.1030853149606299
11
0.2311247244094488
21
1.1043637401574804
0
LINE
8
BLACK
6
CONTINUOUS
10
0.2311247244094488
20
1.1043637401574804
11
0.2309449212598425
21
1.338732283464567
0
LINE
8
BLACK
6
CONTINUOUS
10
0.2309449212598425
20
1.338732283464567
11
0.2311247244094488
21
1.3396362598425196
0
LINE
8
BLACK
6
CONTINUOUS
10
0.2311247244094488
20
1.3396362598425196
11
0.2324031496062992
21
1.3409146850393701
0
LINE
8
BLACK
6
CONTINUOUS
10
0.2324031496062992
20
1.3409146850393701
11
0.2342111023622047
21
1.3409146850393701
0
LINE
8
BLACK
6
CONTINUOUS
10
0.2342111023622047
20
1.3409146850393701
11
0.2354895275590551
21
1.3396362598425196
0
LINE
8
BLACK
6
CONTINUOUS
10
0.9688752755905512
20
1.3396362598425196
11
0.9690550787401575
21
1.105267716535433
0
LINE
8
BLACK
6
CONTINUOUS
10
0.9690550787401575
20
1.105267716535433
11
0.9688752755905512
21
1.1043637401574804
0
LINE
8
BLACK
6
CONTINUOUS
10
0.9688752755905512
20
1.1043637401574804
11
0.9675968503937008
21
1.1030853149606299
0
LINE
8
BLACK
6
CONTINUOUS
10
0.9675968503937008
20
1.1030853149606299
11
0.9657888976377953
21
1.1030853149606299
0
LINE
8
BLACK
6
CONTINUOUS
10
0.9657888976377953
20
1.1030853149606299
11
0.9645104724409449
21
1.1043637401574804
0
LINE
8
BLACK
6
CONTINUOUS
10
0.9645104724409449
20
1.1043637401574804
11
0.9643306692913386
21
1.338732283464567
0
LINE
8
BLACK
6
CONTINUOUS
10
0.9643306692913386
20
1.338732283464567
11
0.9645104724409449
21
1.3396362598425196
0
LINE
8
BLACK
6
CONTINUOUS
10
0.9645104724409449
20
1.3396362598425196
11
0.9657888976377953
21
1.3409146850393701
0
LINE
8
BLACK
6
CONTINUOUS
10
0.9657888976377953
20
1.3409146850393701
11
0.9675968503937008
21
1.3409146850393701
0
LINE
8
BLACK
6
CONTINUOUS
10
0.9675968503937008
20
1.3409146850393701
11
0.9688752755905512
21
1.3396362598425196
0
LINE
8
BLACK
6
CONTINUOUS
10
0.8565732283464567
20
1.3909146850393701
11
0.8578516535433071
21
1.3896362598425196
0
LINE
8
BLACK
6
CONTINUOUS
10
0.8578516535433071
20
1.3896362598425196
11
0.8578516535433071
21
1.3878283070866142
0
LINE
8
BLACK
6
CONTINUOUS
10
0.8578516535433071
20
1.3878283070866142
11
0.8565732283464567
21
1.3865498818897637
0
LINE
8
BLACK
6
CONTINUOUS
10
0.8565732283464567
20
1.3865498818897637
11
0.8007731889763779
21
1.3863768897637796
0
LINE
8
BLACK
6
CONTINUOUS
10
0.8007731889763779
20
1.3863768897637796
11
0.800944842519685
21
1.3178661417322834
0
LINE
8
BLACK
6
CONTINUOUS
10
0.800944842519685
20
1.3178661417322834
11
0.8007650393700787
21
1.3169621653543306
0
LINE
8
BLACK
6
CONTINUOUS
10
0.8007650393700787
20
1.3169621653543306
11
0.7994866141732283
21
1.3156837401574804
0
LINE
8
BLACK
6
CONTINUOUS
10
0.7994866141732283
20
1.3156837401574804
11
0.7596062598425196
21
1.315503937007874
0
LINE
8
BLACK
6
CONTINUOUS
10
0.7596062598425196
20
1.315503937007874
11
0.7587022834645669
21
1.3156837401574804
0
LINE
8
BLACK
6
CONTINUOUS
10
0.7587022834645669
20
1.3156837401574804
11
0.7574238582677165
21
1.3169621653543306
0
LINE
8
BLACK
6
CONTINUOUS
10
0.7574238582677165
20
1.3169621653543306
11
0.7574238582677165
21
1.3187701181102363
0
LINE
8
BLACK
6
CONTINUOUS
10
0.7574238582677165
20
1.3187701181102363
11
0.7587022834645669
21
1.3200485433070865
0
LINE
8
BLACK
6
CONTINUOUS
10
0.7587022834645669
20
1.3200485433070865
11
0.7963920472440945
21
1.3202185039370078
0
LINE
8
BLACK
6
CONTINUOUS
10
0.7963920472440945
20
1.3202185039370078
11
0.7962204330708661
21
1.388732283464567
0
LINE
8
BLACK
6
CONTINUOUS
10
0.7962204330708661
20
1.388732283464567
11
0.7964002362204724
21
1.3896362598425196
0
LINE
8
BLACK
6
CONTINUOUS
10
0.7964002362204724
20
1.3896362598425196
11
0.7976786614173228
21
1.3909146850393701
0
LINE
8
BLACK
6
CONTINUOUS
10
0.7976786614173228
20
1.3909146850393701
11
0.855669251968504
21
1.3910944881889764
0
LINE
8
BLACK
6
CONTINUOUS
10
0.855669251968504
20
1.3910944881889764
11
0.8565732283464567
21
1.3909146850393701
0
LINE
8
BLACK
6
CONTINUOUS
10
0.4023213385826772
20
1.3909146850393701
11
0.4035997637795276
21
1.3896362598425196
0
LINE
8
BLACK
6
CONTINUOUS
10
0.4035997637795276
20
1.3896362598425196
11
0.4037795669291339
21
1.3178661417322834
0
LINE
8
BLACK
6
CONTINUOUS
10
0.4037795669291339
20
1.3178661417322834
11
0.4035997637795276
21
1.3169621653543306
0
LINE
8
BLACK
6
CONTINUOUS
10
0.4035997637795276
20
1.3169621653543306
11
0.4023213385826772
21
1.3156837401574804
0
LINE
8
BLACK
6
CONTINUOUS
10
0.4023213385826772
20
1.3156837401574804
11
0.4005133858267717
21
1.3156837401574804
0
LINE
8
BLACK
6
CONTINUOUS
10
0.4005133858267717
20
1.3156837401574804
11
0.3992349606299213
21
1.3169621653543306
0
LINE
8
BLACK
6
CONTINUOUS
10
0.3992349606299213
20
1.3169621653543306
11
0.3990606299212598
21
1.3865398031496063
0
LINE
8
BLACK
6
CONTINUOUS
10
0.3990606299212598
20
1.3865398031496063
11
0.344330748031496
21
1.3863700787401574
0
LINE
8
BLACK
6
CONTINUOUS
10
0.344330748031496
20
1.3863700787401574
11
0.3434267716535433
21
1.3865498818897637
0
LINE
8
BLACK
6
CONTINUOUS
10
0.3434267716535433
20
1.3865498818897637
11
0.3421483464566929
21
1.3878283070866142
0
LINE
8
BLACK
6
CONTINUOUS
10
0.3421483464566929
20
1.3878283070866142
11
0.3421483464566929
21
1.3896362598425196
0
LINE
8
BLACK
6
CONTINUOUS
10
0.3421483464566929
20
1.3896362598425196
11
0.3434267716535433
21
1.3909146850393701
0
LINE
8
BLACK
6
CONTINUOUS
10
0.3434267716535433
20
1.3909146850393701
11
0.4014173622047244
21
1.3910944881889764
0
LINE
8
BLACK
6
CONTINUOUS
10
0.4014173622047244
20
1.3910944881889764
11
0.4023213385826772
21
1.3909146850393701
0
CIRCLE
8
BLACK
10
0.8000000393700787
20
1.5999999999999999
40
0.0068897637795276
0
CIRCLE
8
BLACK
10
0.8000000393700787
20
0.4
40
0.0068897637795276
0
CIRCLE
8
BLACK
10
0.4000000393700787
20
0.4
40
0.0068897637795276
0
CIRCLE
8
BLACK
10
0.4000000393700787
20
1.5999999999999999
40
0.0068897637795276
0
CIRCLE
8
BLACK
10
0.5500000393700787
20
1.2
40
0.0068897637795276
0
CIRCLE
8
BLACK
10
0.6500000393700788
20
1.2
40
0.0068897637795276
0
CIRCLE
8
BLACK
10
0.5500000393700787
20
1.0999999999999999
40
0.0068897637795276
0
CIRCLE
8
BLACK
10
0.6500000393700788
20
1.0999999999999999
40
0.0068897637795276
0
CIRCLE
8
BLACK
10
0.5500000393700787
20
1.
40
0.0068897637795276
0
CIRCLE
8
BLACK
10
0.6500000393700788
20
1.
40
0.0068897637795276
0
CIRCLE
8
BLACK
10
0.5500000393700787
20
0.9
40
0.0068897637795276
0
CIRCLE
8
BLACK
10
0.6500000393700788
20
0.9
40
0.0068897637795276
0
CIRCLE
8
BLACK
10
0.5500000393700787
20
0.7999999999999999
40
0.0068897637795276
0
CIRCLE
8
BLACK
10
0.6500000393700788
20
0.7999999999999999
40
0.0068897637795276
  0
ENDSEC
  0
EOF
