  0
SECTION
  2
HEADER
  9
$ANGBASE
  50
0.0
  9
$ANGDIR
  70
1
  9
$MEASUREMENT
  70
0
  0
ENDSEC
  0
SECTION
  2
TABLES
  0
TABLE
  2
LTYPE
  70
4
  0
LTYPE
  5
40F
  2
CONTINUOUS
  70
0
  3
Solid line
  72
65
  73
0
  40
0.0
  0
LTYPE
  5
410
  2
DASHDOT
 70
0
  3
Dash Dot ____ _ ____ _
 72
65
 73
4
 40
2.0
 49
1.25
 49
-0.25
 49
0.25
 49
-0.25
  0
LTYPE
  5
411
  2
DASHED
 70
0
  3
Dashed __ __ __ __ __
 72
65
 73
2
 40
0.75
 49
0.5
 49
-0.25
  0
LTYPE
  5
43B
  2
DOTTED
 70
0
  3
Dotted .  .  .  .
 72
65
 73
2
 40
0.2
 49
0.0
 49
-0.2
  0
ENDTAB
  0
TABLE
  2
STYLE
  70
4
  0
STYLE
  2
KICAD
  70
0
  40
0
  41
1
  42
1
  50
0
  71
0
  3
isocp.shx
  0
STYLE
  2
KICADB
  70
0
  40
0
  41
1
  42
1
  50
0
  71
0
  3
isocp.shx
  0
STYLE
  2
KICADI
  70
0
  40
0
  41
1
  42
1
  50
15
  71
0
  3
isocp.shx
  0
STYLE
  2
KICADBI
  70
0
  40
0
  41
1
  42
1
  50
15
  71
0
  3
isocp.shx
  0
ENDTAB
  0
TABLE
  2
LAYER
  70
1
  0
LAYER
  2
BLACK
  70
0
  62
7
  6
CONTINUOUS
  0
ENDTAB
  0
ENDSEC
  0
SECTION
  2
ENTITIES
0
LINE
8
BLACK
6
CONTINUOUS
10
0.543372
20
0.320435
11
0.544919
21
0.319137
0
LINE
8
BLACK
6
CONTINUOUS
10
0.544919
20
0.319137
11
0.54527
21
0.317148
0
LINE
8
BLACK
6
CONTINUOUS
10
0.54527
20
0.317148
11
0.54426
21
0.315398
0
LINE
8
BLACK
6
CONTINUOUS
10
0.54426
20
0.315398
11
0.542362
21
0.314708
0
LINE
8
BLACK
6
CONTINUOUS
10
0.542362
20
0.314708
11
0.497368
21
0.314708
0
LINE
8
BLACK
6
CONTINUOUS
10
0.497368
20
0.314708
11
0.496358
21
0.314886
0
LINE
8
BLACK
6
CONTINUOUS
10
0.496358
20
0.314886
11
0.494811
21
0.316184
0
LINE
8
BLACK
6
CONTINUOUS
10
0.494811
20
0.316184
11
0.49446
21
0.318173
0
LINE
8
BLACK
6
CONTINUOUS
10
0.49446
20
0.318173
11
0.49547
21
0.319922
0
LINE
8
BLACK
6
CONTINUOUS
10
0.49547
20
0.319922
11
0.497368
21
0.320613
0
LINE
8
BLACK
6
CONTINUOUS
10
0.497368
20
0.320613
11
0.542362
21
0.320613
0
LINE
8
BLACK
6
CONTINUOUS
10
0.542362
20
0.320613
11
0.543372
21
0.320435
0
LINE
8
BLACK
6
CONTINUOUS
10
0.804902
20
0.320435
11
0.806449
21
0.319137
0
LINE
8
BLACK
6
CONTINUOUS
10
0.806449
20
0.319137
11
0.8068
21
0.317148
0
LINE
8
BLACK
6
CONTINUOUS
10
0.8068
20
0.317148
11
0.80579
21
0.315398
0
LINE
8
BLACK
6
CONTINUOUS
10
0.80579
20
0.315398
11
0.803892
21
0.314708
0
LINE
8
BLACK
6
CONTINUOUS
10
0.803892
20
0.314708
11
0.758898
21
0.314708
0
LINE
8
BLACK
6
CONTINUOUS
10
0.758898
20
0.314708
11
0.757888
21
0.314886
0
LINE
8
BLACK
6
CONTINUOUS
10
0.757888
20
0.314886
11
0.75634
21
0.316184
0
LINE
8
BLACK
6
CONTINUOUS
10
0.75634
20
0.316184
11
0.75599
21
0.318173
0
LINE
8
BLACK
6
CONTINUOUS
10
0.75599
20
0.318173
11
0.757
21
0.319922
0
LINE
8
BLACK
6
CONTINUOUS
10
0.757
20
0.319922
11
0.758898
21
0.320613
0
LINE
8
BLACK
6
CONTINUOUS
10
0.758898
20
0.320613
11
0.803892
21
0.320613
0
LINE
8
BLACK
6
CONTINUOUS
10
0.803892
20
0.320613
11
0.804902
21
0.320435
0
LINE
8
BLACK
6
CONTINUOUS
10
0.745847
20
0.385114
11
0.747394
21
0.383816
0
LINE
8
BLACK
6
CONTINUOUS
10
0.747394
20
0.383816
11
0.747745
21
0.381827
0
LINE
8
BLACK
6
CONTINUOUS
10
0.747745
20
0.381827
11
0.746735
21
0.380078
0
LINE
8
BLACK
6
CONTINUOUS
10
0.746735
20
0.380078
11
0.744837
21
0.379387
0
LINE
8
BLACK
6
CONTINUOUS
10
0.744837
20
0.379387
11
0.719388
21
0.379387
0
LINE
8
BLACK
6
CONTINUOUS
10
0.719388
20
0.379387
11
0.717522
21
0.360735
0
LINE
8
BLACK
6
CONTINUOUS
10
0.717522
20
0.360735
11
0.721019
21
0.362484
0
LINE
8
BLACK
6
CONTINUOUS
10
0.721019
20
0.362484
11
0.722002
21
0.362776
0
LINE
8
BLACK
6
CONTINUOUS
10
0.722002
20
0.362776
11
0.722174
21
0.362735
0
LINE
8
BLACK
6
CONTINUOUS
10
0.722174
20
0.362735
11
0.72234
21
0.362795
0
LINE
8
BLACK
6
CONTINUOUS
10
0.72234
20
0.362795
11
0.7364
21
0.362795
0
LINE
8
BLACK
6
CONTINUOUS
10
0.7364
20
0.362795
11
0.73741
21
0.362617
0
LINE
8
BLACK
6
CONTINUOUS
10
0.73741
20
0.362617
11
0.737546
21
0.362504
0
LINE
8
BLACK
6
CONTINUOUS
10
0.737546
20
0.362504
11
0.737721
21
0.362484
0
LINE
8
BLACK
6
CONTINUOUS
10
0.737721
20
0.362484
11
0.743345
21
0.359671
0
LINE
8
BLACK
6
CONTINUOUS
10
0.743345
20
0.359671
11
0.744054
21
0.359146
0
LINE
8
BLACK
6
CONTINUOUS
10
0.744054
20
0.359146
11
0.744113
21
0.359118
0
LINE
8
BLACK
6
CONTINUOUS
10
0.744113
20
0.359118
11
0.746925
21
0.356306
0
LINE
8
BLACK
6
CONTINUOUS
10
0.746925
20
0.356306
11
0.747431
21
0.355583
0
LINE
8
BLACK
6
CONTINUOUS
10
0.747431
20
0.355583
11
0.747478
21
0.355539
0
LINE
8
BLACK
6
CONTINUOUS
10
0.747478
20
0.355539
11
0.75029
21
0.349914
0
LINE
8
BLACK
6
CONTINUOUS
10
0.75029
20
0.349914
11
0.750582
21
0.348931
0
LINE
8
BLACK
6
CONTINUOUS
10
0.750582
20
0.348931
11
0.750541
21
0.34876
0
LINE
8
BLACK
6
CONTINUOUS
10
0.750541
20
0.34876
11
0.750602
21
0.348594
0
LINE
8
BLACK
6
CONTINUOUS
10
0.750602
20
0.348594
11
0.750602
21
0.334533
0
LINE
8
BLACK
6
CONTINUOUS
10
0.750602
20
0.334533
11
0.750424
21
0.333523
0
LINE
8
BLACK
6
CONTINUOUS
10
0.750424
20
0.333523
11
0.75031
21
0.333388
0
LINE
8
BLACK
6
CONTINUOUS
10
0.75031
20
0.333388
11
0.75029
21
0.333213
0
LINE
8
BLACK
6
CONTINUOUS
10
0.75029
20
0.333213
11
0.747478
21
0.327588
0
LINE
8
BLACK
6
CONTINUOUS
10
0.747478
20
0.327588
11
0.746952
21
0.326879
0
LINE
8
BLACK
6
CONTINUOUS
10
0.746952
20
0.326879
11
0.746925
21
0.326821
0
LINE
8
BLACK
6
CONTINUOUS
10
0.746925
20
0.326821
11
0.744113
21
0.324009
0
LINE
8
BLACK
6
CONTINUOUS
10
0.744113
20
0.324009
11
0.743389
21
0.323502
0
LINE
8
BLACK
6
CONTINUOUS
10
0.743389
20
0.323502
11
0.743345
21
0.323456
0
LINE
8
BLACK
6
CONTINUOUS
10
0.743345
20
0.323456
11
0.737721
21
0.320644
0
LINE
8
BLACK
6
CONTINUOUS
10
0.737721
20
0.320644
11
0.736738
21
0.320351
0
LINE
8
BLACK
6
CONTINUOUS
10
0.736738
20
0.320351
11
0.736566
21
0.320392
0
LINE
8
BLACK
6
CONTINUOUS
10
0.736566
20
0.320392
11
0.7364
21
0.320332
0
LINE
8
BLACK
6
CONTINUOUS
10
0.7364
20
0.320332
11
0.72234
21
0.320332
0
LINE
8
BLACK
6
CONTINUOUS
10
0.72234
20
0.320332
11
0.72133
21
0.32051
0
LINE
8
BLACK
6
CONTINUOUS
10
0.72133
20
0.32051
11
0.721195
21
0.320623
0
LINE
8
BLACK
6
CONTINUOUS
10
0.721195
20
0.320623
11
0.721019
21
0.320644
0
LINE
8
BLACK
6
CONTINUOUS
10
0.721019
20
0.320644
11
0.715395
21
0.323456
0
LINE
8
BLACK
6
CONTINUOUS
10
0.715395
20
0.323456
11
0.714686
21
0.323982
0
LINE
8
BLACK
6
CONTINUOUS
10
0.714686
20
0.323982
11
0.714627
21
0.324009
0
LINE
8
BLACK
6
CONTINUOUS
10
0.714627
20
0.324009
11
0.711815
21
0.326821
0
LINE
8
BLACK
6
CONTINUOUS
10
0.711815
20
0.326821
11
0.711227
21
0.327661
0
LINE
8
BLACK
6
CONTINUOUS
10
0.711227
20
0.327661
11
0.711051
21
0.329673
0
LINE
8
BLACK
6
CONTINUOUS
10
0.711051
20
0.329673
11
0.71221
21
0.331328
0
LINE
8
BLACK
6
CONTINUOUS
10
0.71221
20
0.331328
11
0.714161
21
0.33185
0
LINE
8
BLACK
6
CONTINUOUS
10
0.714161
20
0.33185
11
0.715991
21
0.330997
0
LINE
8
BLACK
6
CONTINUOUS
10
0.715991
20
0.330997
11
0.718464
21
0.328524
0
LINE
8
BLACK
6
CONTINUOUS
10
0.718464
20
0.328524
11
0.723037
21
0.326237
0
LINE
8
BLACK
6
CONTINUOUS
10
0.723037
20
0.326237
11
0.735703
21
0.326237
0
LINE
8
BLACK
6
CONTINUOUS
10
0.735703
20
0.326237
11
0.740276
21
0.328524
0
LINE
8
BLACK
6
CONTINUOUS
10
0.740276
20
0.328524
11
0.74241
21
0.330658
0
LINE
8
BLACK
6
CONTINUOUS
10
0.74241
20
0.330658
11
0.744696
21
0.33523
0
LINE
8
BLACK
6
CONTINUOUS
10
0.744696
20
0.33523
11
0.744696
21
0.347897
0
LINE
8
BLACK
6
CONTINUOUS
10
0.744696
20
0.347897
11
0.74241
21
0.352469
0
LINE
8
BLACK
6
CONTINUOUS
10
0.74241
20
0.352469
11
0.740276
21
0.354604
0
LINE
8
BLACK
6
CONTINUOUS
10
0.740276
20
0.354604
11
0.735703
21
0.35689
0
LINE
8
BLACK
6
CONTINUOUS
10
0.735703
20
0.35689
11
0.723037
21
0.35689
0
LINE
8
BLACK
6
CONTINUOUS
10
0.723037
20
0.35689
11
0.718464
21
0.354604
0
LINE
8
BLACK
6
CONTINUOUS
10
0.718464
20
0.354604
11
0.715991
21
0.35213
0
LINE
8
BLACK
6
CONTINUOUS
10
0.715991
20
0.35213
11
0.715151
21
0.351542
0
LINE
8
BLACK
6
CONTINUOUS
10
0.715151
20
0.351542
11
0.715132
21
0.35154
0
LINE
8
BLACK
6
CONTINUOUS
10
0.715132
20
0.35154
11
0.715118
21
0.351527
0
LINE
8
BLACK
6
CONTINUOUS
10
0.715118
20
0.351527
11
0.714129
21
0.351453
0
LINE
8
BLACK
6
CONTINUOUS
10
0.714129
20
0.351453
11
0.713139
21
0.351366
0
LINE
8
BLACK
6
CONTINUOUS
10
0.713139
20
0.351366
11
0.713123
21
0.351377
0
LINE
8
BLACK
6
CONTINUOUS
10
0.713123
20
0.351377
11
0.713104
21
0.351376
0
LINE
8
BLACK
6
CONTINUOUS
10
0.713104
20
0.351376
11
0.712298
21
0.351955
0
LINE
8
BLACK
6
CONTINUOUS
10
0.712298
20
0.351955
11
0.711484
21
0.352525
0
LINE
8
BLACK
6
CONTINUOUS
10
0.711484
20
0.352525
11
0.711479
21
0.352543
0
LINE
8
BLACK
6
CONTINUOUS
10
0.711479
20
0.352543
11
0.711464
21
0.352555
0
LINE
8
BLACK
6
CONTINUOUS
10
0.711464
20
0.352555
11
0.711219
21
0.353516
0
LINE
8
BLACK
6
CONTINUOUS
10
0.711219
20
0.353516
11
0.710962
21
0.354476
0
LINE
8
BLACK
6
CONTINUOUS
10
0.710962
20
0.354476
11
0.71097
21
0.354493
0
LINE
8
BLACK
6
CONTINUOUS
10
0.71097
20
0.354493
11
0.710965
21
0.354512
0
LINE
8
BLACK
6
CONTINUOUS
10
0.710965
20
0.354512
11
0.713777
21
0.382634
0
LINE
8
BLACK
6
CONTINUOUS
10
0.713777
20
0.382634
11
0.71382
21
0.382784
0
LINE
8
BLACK
6
CONTINUOUS
10
0.71382
20
0.382784
11
0.713807
21
0.382852
0
LINE
8
BLACK
6
CONTINUOUS
10
0.713807
20
0.382852
11
0.713869
21
0.382958
0
LINE
8
BLACK
6
CONTINUOUS
10
0.713869
20
0.382958
11
0.714055
21
0.383621
0
LINE
8
BLACK
6
CONTINUOUS
10
0.714055
20
0.383621
11
0.714504
21
0.384059
0
LINE
8
BLACK
6
CONTINUOUS
10
0.714504
20
0.384059
11
0.714817
21
0.384602
0
LINE
8
BLACK
6
CONTINUOUS
10
0.714817
20
0.384602
11
0.715205
21
0.384743
0
LINE
8
BLACK
6
CONTINUOUS
10
0.715205
20
0.384743
11
0.715501
21
0.385031
0
LINE
8
BLACK
6
CONTINUOUS
10
0.715501
20
0.385031
11
0.716126
21
0.385078
0
LINE
8
BLACK
6
CONTINUOUS
10
0.716126
20
0.385078
11
0.716715
21
0.385292
0
LINE
8
BLACK
6
CONTINUOUS
10
0.716715
20
0.385292
11
0.744837
21
0.385292
0
LINE
8
BLACK
6
CONTINUOUS
10
0.744837
20
0.385292
11
0.745847
21
0.385114
0
LINE
8
BLACK
6
CONTINUOUS
10
0.264969
20
0.385114
11
0.266517
21
0.383816
0
LINE
8
BLACK
6
CONTINUOUS
10
0.266517
20
0.383816
11
0.266867
21
0.381827
0
LINE
8
BLACK
6
CONTINUOUS
10
0.266867
20
0.381827
11
0.265857
21
0.380078
0
LINE
8
BLACK
6
CONTINUOUS
10
0.265857
20
0.380078
11
0.263959
21
0.379387
0
LINE
8
BLACK
6
CONTINUOUS
10
0.263959
20
0.379387
11
0.238791
21
0.379387
0
LINE
8
BLACK
6
CONTINUOUS
10
0.238791
20
0.379387
11
0.238791
21
0.357171
0
LINE
8
BLACK
6
CONTINUOUS
10
0.238791
20
0.357171
11
0.255523
21
0.357171
0
LINE
8
BLACK
6
CONTINUOUS
10
0.255523
20
0.357171
11
0.256533
21
0.356993
0
LINE
8
BLACK
6
CONTINUOUS
10
0.256533
20
0.356993
11
0.25808
21
0.355695
0
LINE
8
BLACK
6
CONTINUOUS
10
0.25808
20
0.355695
11
0.258431
21
0.353705
0
LINE
8
BLACK
6
CONTINUOUS
10
0.258431
20
0.353705
11
0.257421
21
0.351956
0
LINE
8
BLACK
6
CONTINUOUS
10
0.257421
20
0.351956
11
0.255523
21
0.351265
0
LINE
8
BLACK
6
CONTINUOUS
10
0.255523
20
0.351265
11
0.238791
21
0.351265
0
LINE
8
BLACK
6
CONTINUOUS
10
0.238791
20
0.351265
11
0.238791
21
0.326237
0
LINE
8
BLACK
6
CONTINUOUS
10
0.238791
20
0.326237
11
0.263959
21
0.326237
0
LINE
8
BLACK
6
CONTINUOUS
10
0.263959
20
0.326237
11
0.264969
21
0.326059
0
LINE
8
BLACK
6
CONTINUOUS
10
0.264969
20
0.326059
11
0.266517
21
0.324761
0
LINE
8
BLACK
6
CONTINUOUS
10
0.266517
20
0.324761
11
0.266867
21
0.322772
0
LINE
8
BLACK
6
CONTINUOUS
10
0.266867
20
0.322772
11
0.265857
21
0.321023
0
LINE
8
BLACK
6
CONTINUOUS
10
0.265857
20
0.321023
11
0.263959
21
0.320332
0
LINE
8
BLACK
6
CONTINUOUS
10
0.263959
20
0.320332
11
0.235838
21
0.320332
0
LINE
8
BLACK
6
CONTINUOUS
10
0.235838
20
0.320332
11
0.235454
21
0.320399
0
LINE
8
BLACK
6
CONTINUOUS
10
0.235454
20
0.320399
11
0.235325
21
0.320377
0
LINE
8
BLACK
6
CONTINUOUS
10
0.235325
20
0.320377
11
0.235212
21
0.320442
0
LINE
8
BLACK
6
CONTINUOUS
10
0.235212
20
0.320442
11
0.234828
21
0.32051
0
LINE
8
BLACK
6
CONTINUOUS
10
0.234828
20
0.32051
11
0.23424
21
0.321003
0
LINE
8
BLACK
6
CONTINUOUS
10
0.23424
20
0.321003
11
0.233576
21
0.321387
0
LINE
8
BLACK
6
CONTINUOUS
10
0.233576
20
0.321387
11
0.233485
21
0.321637
0
LINE
8
BLACK
6
CONTINUOUS
10
0.233485
20
0.321637
11
0.233281
21
0.321808
0
LINE
8
BLACK
6
CONTINUOUS
10
0.233281
20
0.321808
11
0.233148
21
0.322564
0
LINE
8
BLACK
6
CONTINUOUS
10
0.233148
20
0.322564
11
0.232885
21
0.323285
0
LINE
8
BLACK
6
CONTINUOUS
10
0.232885
20
0.323285
11
0.232885
21
0.38234
0
LINE
8
BLACK
6
CONTINUOUS
10
0.232885
20
0.38234
11
0.232953
21
0.382723
0
LINE
8
BLACK
6
CONTINUOUS
10
0.232953
20
0.382723
11
0.23293
21
0.382852
0
LINE
8
BLACK
6
CONTINUOUS
10
0.23293
20
0.382852
11
0.232996
21
0.382966
0
LINE
8
BLACK
6
CONTINUOUS
10
0.232996
20
0.382966
11
0.233063
21
0.38335
0
LINE
8
BLACK
6
CONTINUOUS
10
0.233063
20
0.38335
11
0.233556
21
0.383937
0
LINE
8
BLACK
6
CONTINUOUS
10
0.233556
20
0.383937
11
0.23394
21
0.384602
0
LINE
8
BLACK
6
CONTINUOUS
10
0.23394
20
0.384602
11
0.23419
21
0.384693
0
LINE
8
BLACK
6
CONTINUOUS
10
0.23419
20
0.384693
11
0.234362
21
0.384897
0
LINE
8
BLACK
6
CONTINUOUS
10
0.234362
20
0.384897
11
0.235117
21
0.38503
0
LINE
8
BLACK
6
CONTINUOUS
10
0.235117
20
0.38503
11
0.235838
21
0.385292
0
LINE
8
BLACK
6
CONTINUOUS
10
0.235838
20
0.385292
11
0.263959
21
0.385292
0
LINE
8
BLACK
6
CONTINUOUS
10
0.263959
20
0.385292
11
0.264969
21
0.385114
0
LINE
8
BLACK
6
CONTINUOUS
10
0.678355
20
0.385114
11
0.67849
21
0.385001
0
LINE
8
BLACK
6
CONTINUOUS
10
0.67849
20
0.385001
11
0.678666
21
0.384981
0
LINE
8
BLACK
6
CONTINUOUS
10
0.678666
20
0.384981
11
0.68429
21
0.382169
0
LINE
8
BLACK
6
CONTINUOUS
10
0.68429
20
0.382169
11
0.684999
21
0.381643
0
LINE
8
BLACK
6
CONTINUOUS
10
0.684999
20
0.381643
11
0.685058
21
0.381615
0
LINE
8
BLACK
6
CONTINUOUS
10
0.685058
20
0.381615
11
0.68787
21
0.378803
0
LINE
8
BLACK
6
CONTINUOUS
10
0.68787
20
0.378803
11
0.688376
21
0.37808
0
LINE
8
BLACK
6
CONTINUOUS
10
0.688376
20
0.37808
11
0.688423
21
0.378036
0
LINE
8
BLACK
6
CONTINUOUS
10
0.688423
20
0.378036
11
0.691235
21
0.372412
0
LINE
8
BLACK
6
CONTINUOUS
10
0.691235
20
0.372412
11
0.69138
21
0.371923
0
LINE
8
BLACK
6
CONTINUOUS
10
0.69138
20
0.371923
11
0.691459
21
0.371807
0
LINE
8
BLACK
6
CONTINUOUS
10
0.691459
20
0.371807
11
0.694271
21
0.360559
0
LINE
8
BLACK
6
CONTINUOUS
10
0.694271
20
0.360559
11
0.694312
21
0.359971
0
LINE
8
BLACK
6
CONTINUOUS
10
0.694312
20
0.359971
11
0.694359
21
0.359843
0
LINE
8
BLACK
6
CONTINUOUS
10
0.694359
20
0.359843
11
0.694359
21
0.345782
0
LINE
8
BLACK
6
CONTINUOUS
10
0.694359
20
0.345782
11
0.694256
21
0.345201
0
LINE
8
BLACK
6
CONTINUOUS
10
0.694256
20
0.345201
11
0.694271
21
0.345066
0
LINE
8
BLACK
6
CONTINUOUS
10
0.694271
20
0.345066
11
0.691459
21
0.333817
0
LINE
8
BLACK
6
CONTINUOUS
10
0.691459
20
0.333817
11
0.691251
21
0.333352
0
LINE
8
BLACK
6
CONTINUOUS
10
0.691251
20
0.333352
11
0.691235
21
0.333213
0
LINE
8
BLACK
6
CONTINUOUS
10
0.691235
20
0.333213
11
0.688423
21
0.327588
0
LINE
8
BLACK
6
CONTINUOUS
10
0.688423
20
0.327588
11
0.687897
21
0.326879
0
LINE
8
BLACK
6
CONTINUOUS
10
0.687897
20
0.326879
11
0.68787
21
0.326821
0
LINE
8
BLACK
6
CONTINUOUS
10
0.68787
20
0.326821
11
0.685058
21
0.324009
0
LINE
8
BLACK
6
CONTINUOUS
10
0.685058
20
0.324009
11
0.684334
21
0.323502
0
LINE
8
BLACK
6
CONTINUOUS
10
0.684334
20
0.323502
11
0.68429
21
0.323456
0
LINE
8
BLACK
6
CONTINUOUS
10
0.68429
20
0.323456
11
0.678666
21
0.320644
0
LINE
8
BLACK
6
CONTINUOUS
10
0.678666
20
0.320644
11
0.677683
21
0.320351
0
LINE
8
BLACK
6
CONTINUOUS
10
0.677683
20
0.320351
11
0.677511
21
0.320392
0
LINE
8
BLACK
6
CONTINUOUS
10
0.677511
20
0.320392
11
0.677345
21
0.320332
0
LINE
8
BLACK
6
CONTINUOUS
10
0.677345
20
0.320332
11
0.671721
21
0.320332
0
LINE
8
BLACK
6
CONTINUOUS
10
0.671721
20
0.320332
11
0.670711
21
0.32051
0
LINE
8
BLACK
6
CONTINUOUS
10
0.670711
20
0.32051
11
0.670576
21
0.320623
0
LINE
8
BLACK
6
CONTINUOUS
10
0.670576
20
0.320623
11
0.670401
21
0.320644
0
LINE
8
BLACK
6
CONTINUOUS
10
0.670401
20
0.320644
11
0.664776
21
0.323456
0
LINE
8
BLACK
6
CONTINUOUS
10
0.664776
20
0.323456
11
0.664067
21
0.323982
0
LINE
8
BLACK
6
CONTINUOUS
10
0.664067
20
0.323982
11
0.664009
21
0.324009
0
LINE
8
BLACK
6
CONTINUOUS
10
0.664009
20
0.324009
11
0.661197
21
0.326821
0
LINE
8
BLACK
6
CONTINUOUS
10
0.661197
20
0.326821
11
0.66069
21
0.327544
0
LINE
8
BLACK
6
CONTINUOUS
10
0.66069
20
0.327544
11
0.660644
21
0.327588
0
LINE
8
BLACK
6
CONTINUOUS
10
0.660644
20
0.327588
11
0.657831
21
0.333213
0
LINE
8
BLACK
6
CONTINUOUS
10
0.657831
20
0.333213
11
0.657686
21
0.333701
0
LINE
8
BLACK
6
CONTINUOUS
10
0.657686
20
0.333701
11
0.657608
21
0.333817
0
LINE
8
BLACK
6
CONTINUOUS
10
0.657608
20
0.333817
11
0.654796
21
0.345066
0
LINE
8
BLACK
6
CONTINUOUS
10
0.654796
20
0.345066
11
0.654754
21
0.345654
0
LINE
8
BLACK
6
CONTINUOUS
10
0.654754
20
0.345654
11
0.654708
21
0.345782
0
LINE
8
BLACK
6
CONTINUOUS
10
0.654708
20
0.345782
11
0.654708
21
0.359843
0
LINE
8
BLACK
6
CONTINUOUS
10
0.654708
20
0.359843
11
0.65481
21
0.360423
0
LINE
8
BLACK
6
CONTINUOUS
10
0.65481
20
0.360423
11
0.654796
21
0.360559
0
LINE
8
BLACK
6
CONTINUOUS
10
0.654796
20
0.360559
11
0.657608
21
0.371807
0
LINE
8
BLACK
6
CONTINUOUS
10
0.657608
20
0.371807
11
0.657815
21
0.372273
0
LINE
8
BLACK
6
CONTINUOUS
10
0.657815
20
0.372273
11
0.657831
21
0.372412
0
LINE
8
BLACK
6
CONTINUOUS
10
0.657831
20
0.372412
11
0.660644
21
0.378036
0
LINE
8
BLACK
6
CONTINUOUS
10
0.660644
20
0.378036
11
0.661169
21
0.378745
0
LINE
8
BLACK
6
CONTINUOUS
10
0.661169
20
0.378745
11
0.661197
21
0.378803
0
LINE
8
BLACK
6
CONTINUOUS
10
0.661197
20
0.378803
11
0.664009
21
0.381615
0
LINE
8
BLACK
6
CONTINUOUS
10
0.664009
20
0.381615
11
0.664732
21
0.382122
0
LINE
8
BLACK
6
CONTINUOUS
10
0.664732
20
0.382122
11
0.664776
21
0.382169
0
LINE
8
BLACK
6
CONTINUOUS
10
0.664776
20
0.382169
11
0.670401
21
0.384981
0
LINE
8
BLACK
6
CONTINUOUS
10
0.670401
20
0.384981
11
0.671383
21
0.385273
0
LINE
8
BLACK
6
CONTINUOUS
10
0.671383
20
0.385273
11
0.671555
21
0.385232
0
LINE
8
BLACK
6
CONTINUOUS
10
0.671555
20
0.385232
11
0.671721
21
0.385292
0
LINE
8
BLACK
6
CONTINUOUS
10
0.671721
20
0.385292
11
0.677345
21
0.385292
0
LINE
8
BLACK
6
CONTINUOUS
10
0.677345
20
0.385292
11
0.678355
21
0.385114
0
LINE
8
BLACK
6
CONTINUOUS
10
0.672418
20
0.379387
11
0.667846
21
0.377101
0
LINE
8
BLACK
6
CONTINUOUS
10
0.667846
20
0.377101
11
0.665711
21
0.374966
0
LINE
8
BLACK
6
CONTINUOUS
10
0.665711
20
0.374966
11
0.663258
21
0.370061
0
LINE
8
BLACK
6
CONTINUOUS
10
0.663258
20
0.370061
11
0.660613
21
0.359479
0
LINE
8
BLACK
6
CONTINUOUS
10
0.660613
20
0.359479
11
0.660613
21
0.346145
0
LINE
8
BLACK
6
CONTINUOUS
10
0.660613
20
0.346145
11
0.663258
21
0.335564
0
LINE
8
BLACK
6
CONTINUOUS
10
0.663258
20
0.335564
11
0.665711
21
0.330658
0
LINE
8
BLACK
6
CONTINUOUS
10
0.665711
20
0.330658
11
0.667846
21
0.328524
0
LINE
8
BLACK
6
CONTINUOUS
10
0.667846
20
0.328524
11
0.672418
21
0.326237
0
LINE
8
BLACK
6
CONTINUOUS
10
0.672418
20
0.326237
11
0.676648
21
0.326237
0
LINE
8
BLACK
6
CONTINUOUS
10
0.676648
20
0.326237
11
0.681221
21
0.328524
0
LINE
8
BLACK
6
CONTINUOUS
10
0.681221
20
0.328524
11
0.683355
21
0.330658
0
LINE
8
BLACK
6
CONTINUOUS
10
0.683355
20
0.330658
11
0.685808
21
0.335564
0
LINE
8
BLACK
6
CONTINUOUS
10
0.685808
20
0.335564
11
0.688453
21
0.346145
0
LINE
8
BLACK
6
CONTINUOUS
10
0.688453
20
0.346145
11
0.688453
21
0.359479
0
LINE
8
BLACK
6
CONTINUOUS
10
0.688453
20
0.359479
11
0.685808
21
0.370061
0
LINE
8
BLACK
6
CONTINUOUS
10
0.685808
20
0.370061
11
0.683355
21
0.374966
0
LINE
8
BLACK
6
CONTINUOUS
10
0.683355
20
0.374966
11
0.681221
21
0.377101
0
LINE
8
BLACK
6
CONTINUOUS
10
0.681221
20
0.377101
11
0.676648
21
0.379387
0
LINE
8
BLACK
6
CONTINUOUS
10
0.676648
20
0.379387
11
0.672418
21
0.379387
0
LINE
8
BLACK
6
CONTINUOUS
10
1.03956
20
0.384238
11
1.04025
21
0.38234
0
LINE
8
BLACK
6
CONTINUOUS
10
1.04025
20
0.38234
11
1.04025
21
0.326237
0
LINE
8
BLACK
6
CONTINUOUS
10
1.04025
20
0.326237
11
1.06542
21
0.326237
0
LINE
8
BLACK
6
CONTINUOUS
10
1.06542
20
0.326237
11
1.06643
21
0.326059
0
LINE
8
BLACK
6
CONTINUOUS
10
1.06643
20
0.326059
11
1.06798
21
0.324761
0
LINE
8
BLACK
6
CONTINUOUS
10
1.06798
20
0.324761
11
1.06833
21
0.322772
0
LINE
8
BLACK
6
CONTINUOUS
10
1.06833
20
0.322772
11
1.06732
21
0.321023
0
LINE
8
BLACK
6
CONTINUOUS
10
1.06732
20
0.321023
11
1.06542
21
0.320332
0
LINE
8
BLACK
6
CONTINUOUS
10
1.06542
20
0.320332
11
1.0373
21
0.320332
0
LINE
8
BLACK
6
CONTINUOUS
10
1.0373
20
0.320332
11
1.03692
21
0.320399
0
LINE
8
BLACK
6
CONTINUOUS
10
1.03692
20
0.320399
11
1.03679
21
0.320377
0
LINE
8
BLACK
6
CONTINUOUS
10
1.03679
20
0.320377
11
1.03667
21
0.320442
0
LINE
8
BLACK
6
CONTINUOUS
10
1.03667
20
0.320442
11
1.03629
21
0.32051
0
LINE
8
BLACK
6
CONTINUOUS
10
1.03629
20
0.32051
11
1.0357
21
0.321003
0
LINE
8
BLACK
6
CONTINUOUS
10
1.0357
20
0.321003
11
1.03504
21
0.321387
0
LINE
8
BLACK
6
CONTINUOUS
10
1.03504
20
0.321387
11
1.03495
21
0.321637
0
LINE
8
BLACK
6
CONTINUOUS
10
1.03495
20
0.321637
11
1.03474
21
0.321808
0
LINE
8
BLACK
6
CONTINUOUS
10
1.03474
20
0.321808
11
1.03461
21
0.322564
0
LINE
8
BLACK
6
CONTINUOUS
10
1.03461
20
0.322564
11
1.03435
21
0.323285
0
LINE
8
BLACK
6
CONTINUOUS
10
1.03435
20
0.323285
11
1.03435
21
0.38234
0
LINE
8
BLACK
6
CONTINUOUS
10
1.03435
20
0.38234
11
1.03453
21
0.38335
0
LINE
8
BLACK
6
CONTINUOUS
10
1.03453
20
0.38335
11
1.03582
21
0.384897
0
LINE
8
BLACK
6
CONTINUOUS
10
1.03582
20
0.384897
11
1.03781
21
0.385248
0
LINE
8
BLACK
6
CONTINUOUS
10
1.03781
20
0.385248
11
1.03956
21
0.384238
0
LINE
8
BLACK
6
CONTINUOUS
10
0.354818
20
0.385139
11
0.354882
21
0.385141
0
LINE
8
BLACK
6
CONTINUOUS
10
0.354882
20
0.385141
11
0.363318
21
0.382329
0
LINE
8
BLACK
6
CONTINUOUS
10
0.363318
20
0.382329
11
0.36422
21
0.381841
0
LINE
8
BLACK
6
CONTINUOUS
10
0.36422
20
0.381841
11
0.364313
21
0.38169
0
LINE
8
BLACK
6
CONTINUOUS
10
0.364313
20
0.38169
11
0.364473
21
0.381615
0
LINE
8
BLACK
6
CONTINUOUS
10
0.364473
20
0.381615
11
0.370097
21
0.375991
0
LINE
8
BLACK
6
CONTINUOUS
10
0.370097
20
0.375991
11
0.370603
21
0.375268
0
LINE
8
BLACK
6
CONTINUOUS
10
0.370603
20
0.375268
11
0.37065
21
0.375224
0
LINE
8
BLACK
6
CONTINUOUS
10
0.37065
20
0.375224
11
0.373462
21
0.369599
0
LINE
8
BLACK
6
CONTINUOUS
10
0.373462
20
0.369599
11
0.373607
21
0.369111
0
LINE
8
BLACK
6
CONTINUOUS
10
0.373607
20
0.369111
11
0.373686
21
0.368995
0
LINE
8
BLACK
6
CONTINUOUS
10
0.373686
20
0.368995
11
0.376498
21
0.357747
0
LINE
8
BLACK
6
CONTINUOUS
10
0.376498
20
0.357747
11
0.376539
21
0.357159
0
LINE
8
BLACK
6
CONTINUOUS
10
0.376539
20
0.357159
11
0.376586
21
0.35703
0
LINE
8
BLACK
6
CONTINUOUS
10
0.376586
20
0.35703
11
0.376586
21
0.348594
0
LINE
8
BLACK
6
CONTINUOUS
10
0.376586
20
0.348594
11
0.376484
21
0.348014
0
LINE
8
BLACK
6
CONTINUOUS
10
0.376484
20
0.348014
11
0.376498
21
0.347878
0
LINE
8
BLACK
6
CONTINUOUS
10
0.376498
20
0.347878
11
0.373686
21
0.336629
0
LINE
8
BLACK
6
CONTINUOUS
10
0.373686
20
0.336629
11
0.373478
21
0.336164
0
LINE
8
BLACK
6
CONTINUOUS
10
0.373478
20
0.336164
11
0.373462
21
0.336025
0
LINE
8
BLACK
6
CONTINUOUS
10
0.373462
20
0.336025
11
0.37065
21
0.330401
0
LINE
8
BLACK
6
CONTINUOUS
10
0.37065
20
0.330401
11
0.370124
21
0.329692
0
LINE
8
BLACK
6
CONTINUOUS
10
0.370124
20
0.329692
11
0.370097
21
0.329633
0
LINE
8
BLACK
6
CONTINUOUS
10
0.370097
20
0.329633
11
0.364473
21
0.324009
0
LINE
8
BLACK
6
CONTINUOUS
10
0.364473
20
0.324009
11
0.363633
21
0.323421
0
LINE
8
BLACK
6
CONTINUOUS
10
0.363633
20
0.323421
11
0.363457
21
0.323405
0
LINE
8
BLACK
6
CONTINUOUS
10
0.363457
20
0.323405
11
0.363318
21
0.323296
0
LINE
8
BLACK
6
CONTINUOUS
10
0.363318
20
0.323296
11
0.354882
21
0.320483
0
LINE
8
BLACK
6
CONTINUOUS
10
0.354882
20
0.320483
11
0.354009
21
0.320354
0
LINE
8
BLACK
6
CONTINUOUS
10
0.354009
20
0.320354
11
0.353948
21
0.320332
0
LINE
8
BLACK
6
CONTINUOUS
10
0.353948
20
0.320332
11
0.339887
21
0.320332
0
LINE
8
BLACK
6
CONTINUOUS
10
0.339887
20
0.320332
11
0.339504
21
0.320399
0
LINE
8
BLACK
6
CONTINUOUS
10
0.339504
20
0.320399
11
0.339375
21
0.320377
0
LINE
8
BLACK
6
CONTINUOUS
10
0.339375
20
0.320377
11
0.339261
21
0.320442
0
LINE
8
BLACK
6
CONTINUOUS
10
0.339261
20
0.320442
11
0.338878
21
0.32051
0
LINE
8
BLACK
6
CONTINUOUS
10
0.338878
20
0.32051
11
0.33829
21
0.321003
0
LINE
8
BLACK
6
CONTINUOUS
10
0.33829
20
0.321003
11
0.337626
21
0.321387
0
LINE
8
BLACK
6
CONTINUOUS
10
0.337626
20
0.321387
11
0.337534
21
0.321637
0
LINE
8
BLACK
6
CONTINUOUS
10
0.337534
20
0.321637
11
0.33733
21
0.321808
0
LINE
8
BLACK
6
CONTINUOUS
10
0.33733
20
0.321808
11
0.337197
21
0.322564
0
LINE
8
BLACK
6
CONTINUOUS
10
0.337197
20
0.322564
11
0.336935
21
0.323285
0
LINE
8
BLACK
6
CONTINUOUS
10
0.336935
20
0.323285
11
0.336935
21
0.38234
0
LINE
8
BLACK
6
CONTINUOUS
10
0.336935
20
0.38234
11
0.337002
21
0.382723
0
LINE
8
BLACK
6
CONTINUOUS
10
0.337002
20
0.382723
11
0.33698
21
0.382852
0
LINE
8
BLACK
6
CONTINUOUS
10
0.33698
20
0.382852
11
0.337045
21
0.382966
0
LINE
8
BLACK
6
CONTINUOUS
10
0.337045
20
0.382966
11
0.337113
21
0.38335
0
LINE
8
BLACK
6
CONTINUOUS
10
0.337113
20
0.38335
11
0.337606
21
0.383937
0
LINE
8
BLACK
6
CONTINUOUS
10
0.337606
20
0.383937
11
0.337989
21
0.384602
0
LINE
8
BLACK
6
CONTINUOUS
10
0.337989
20
0.384602
11
0.33824
21
0.384693
0
LINE
8
BLACK
6
CONTINUOUS
10
0.33824
20
0.384693
11
0.338411
21
0.384897
0
LINE
8
BLACK
6
CONTINUOUS
10
0.338411
20
0.384897
11
0.339167
21
0.38503
0
LINE
8
BLACK
6
CONTINUOUS
10
0.339167
20
0.38503
11
0.339887
21
0.385292
0
LINE
8
BLACK
6
CONTINUOUS
10
0.339887
20
0.385292
11
0.353948
21
0.385292
0
LINE
8
BLACK
6
CONTINUOUS
10
0.353948
20
0.385292
11
0.354818
21
0.385139
0
LINE
8
BLACK
6
CONTINUOUS
10
0.34284
20
0.379387
11
0.34284
21
0.326237
0
LINE
8
BLACK
6
CONTINUOUS
10
0.34284
20
0.326237
11
0.353469
21
0.326237
0
LINE
8
BLACK
6
CONTINUOUS
10
0.353469
20
0.326237
11
0.36079
21
0.328678
0
LINE
8
BLACK
6
CONTINUOUS
10
0.36079
20
0.328678
11
0.365582
21
0.33347
0
LINE
8
BLACK
6
CONTINUOUS
10
0.365582
20
0.33347
11
0.368035
21
0.338376
0
LINE
8
BLACK
6
CONTINUOUS
10
0.368035
20
0.338376
11
0.370681
21
0.348957
0
LINE
8
BLACK
6
CONTINUOUS
10
0.370681
20
0.348957
11
0.370681
21
0.356667
0
LINE
8
BLACK
6
CONTINUOUS
10
0.370681
20
0.356667
11
0.368035
21
0.367248
0
LINE
8
BLACK
6
CONTINUOUS
10
0.368035
20
0.367248
11
0.365582
21
0.372154
0
LINE
8
BLACK
6
CONTINUOUS
10
0.365582
20
0.372154
11
0.36079
21
0.376947
0
LINE
8
BLACK
6
CONTINUOUS
10
0.36079
20
0.376947
11
0.353469
21
0.379387
0
LINE
8
BLACK
6
CONTINUOUS
10
0.353469
20
0.379387
11
0.34284
21
0.379387
0
LINE
8
BLACK
6
CONTINUOUS
10
1.08737
20
0.384238
11
1.08806
21
0.38234
0
LINE
8
BLACK
6
CONTINUOUS
10
1.08806
20
0.38234
11
1.08806
21
0.326237
0
LINE
8
BLACK
6
CONTINUOUS
10
1.08806
20
0.326237
11
1.11323
21
0.326237
0
LINE
8
BLACK
6
CONTINUOUS
10
1.11323
20
0.326237
11
1.11424
21
0.326059
0
LINE
8
BLACK
6
CONTINUOUS
10
1.11424
20
0.326059
11
1.11579
21
0.324761
0
LINE
8
BLACK
6
CONTINUOUS
10
1.11579
20
0.324761
11
1.11614
21
0.322772
0
LINE
8
BLACK
6
CONTINUOUS
10
1.11614
20
0.322772
11
1.11513
21
0.321023
0
LINE
8
BLACK
6
CONTINUOUS
10
1.11513
20
0.321023
11
1.11323
21
0.320332
0
LINE
8
BLACK
6
CONTINUOUS
10
1.11323
20
0.320332
11
1.08511
21
0.320332
0
LINE
8
BLACK
6
CONTINUOUS
10
1.08511
20
0.320332
11
1.08472
21
0.320399
0
LINE
8
BLACK
6
CONTINUOUS
10
1.08472
20
0.320399
11
1.08459
21
0.320377
0
LINE
8
BLACK
6
CONTINUOUS
10
1.08459
20
0.320377
11
1.08448
21
0.320442
0
LINE
8
BLACK
6
CONTINUOUS
10
1.08448
20
0.320442
11
1.0841
21
0.32051
0
LINE
8
BLACK
6
CONTINUOUS
10
1.0841
20
0.32051
11
1.08351
21
0.321003
0
LINE
8
BLACK
6
CONTINUOUS
10
1.08351
20
0.321003
11
1.08284
21
0.321387
0
LINE
8
BLACK
6
CONTINUOUS
10
1.08284
20
0.321387
11
1.08275
21
0.321637
0
LINE
8
BLACK
6
CONTINUOUS
10
1.08275
20
0.321637
11
1.08255
21
0.321808
0
LINE
8
BLACK
6
CONTINUOUS
10
1.08255
20
0.321808
11
1.08242
21
0.322564
0
LINE
8
BLACK
6
CONTINUOUS
10
1.08242
20
0.322564
11
1.08215
21
0.323285
0
LINE
8
BLACK
6
CONTINUOUS
10
1.08215
20
0.323285
11
1.08215
21
0.38234
0
LINE
8
BLACK
6
CONTINUOUS
10
1.08215
20
0.38234
11
1.08233
21
0.38335
0
LINE
8
BLACK
6
CONTINUOUS
10
1.08233
20
0.38335
11
1.08363
21
0.384897
0
LINE
8
BLACK
6
CONTINUOUS
10
1.08363
20
0.384897
11
1.08562
21
0.385248
0
LINE
8
BLACK
6
CONTINUOUS
10
1.08562
20
0.385248
11
1.08737
21
0.384238
0
LINE
8
BLACK
6
CONTINUOUS
10
0.428074
20
0.385114
11
0.429621
21
0.383816
0
LINE
8
BLACK
6
CONTINUOUS
10
0.429621
20
0.383816
11
0.429972
21
0.381827
0
LINE
8
BLACK
6
CONTINUOUS
10
0.429972
20
0.381827
11
0.428962
21
0.380078
0
LINE
8
BLACK
6
CONTINUOUS
10
0.428962
20
0.380078
11
0.427064
21
0.379387
0
LINE
8
BLACK
6
CONTINUOUS
10
0.427064
20
0.379387
11
0.401895
21
0.379387
0
LINE
8
BLACK
6
CONTINUOUS
10
0.401895
20
0.379387
11
0.401895
21
0.357171
0
LINE
8
BLACK
6
CONTINUOUS
10
0.401895
20
0.357171
11
0.418628
21
0.357171
0
LINE
8
BLACK
6
CONTINUOUS
10
0.418628
20
0.357171
11
0.419638
21
0.356993
0
LINE
8
BLACK
6
CONTINUOUS
10
0.419638
20
0.356993
11
0.421185
21
0.355695
0
LINE
8
BLACK
6
CONTINUOUS
10
0.421185
20
0.355695
11
0.421536
21
0.353705
0
LINE
8
BLACK
6
CONTINUOUS
10
0.421536
20
0.353705
11
0.420526
21
0.351956
0
LINE
8
BLACK
6
CONTINUOUS
10
0.420526
20
0.351956
11
0.418628
21
0.351265
0
LINE
8
BLACK
6
CONTINUOUS
10
0.418628
20
0.351265
11
0.401895
21
0.351265
0
LINE
8
BLACK
6
CONTINUOUS
10
0.401895
20
0.351265
11
0.401895
21
0.326237
0
LINE
8
BLACK
6
CONTINUOUS
10
0.401895
20
0.326237
11
0.427064
21
0.326237
0
LINE
8
BLACK
6
CONTINUOUS
10
0.427064
20
0.326237
11
0.428074
21
0.326059
0
LINE
8
BLACK
6
CONTINUOUS
10
0.428074
20
0.326059
11
0.429621
21
0.324761
0
LINE
8
BLACK
6
CONTINUOUS
10
0.429621
20
0.324761
11
0.429972
21
0.322772
0
LINE
8
BLACK
6
CONTINUOUS
10
0.429972
20
0.322772
11
0.428962
21
0.321023
0
LINE
8
BLACK
6
CONTINUOUS
10
0.428962
20
0.321023
11
0.427064
21
0.320332
0
LINE
8
BLACK
6
CONTINUOUS
10
0.427064
20
0.320332
11
0.398943
21
0.320332
0
LINE
8
BLACK
6
CONTINUOUS
10
0.398943
20
0.320332
11
0.398559
21
0.320399
0
LINE
8
BLACK
6
CONTINUOUS
10
0.398559
20
0.320399
11
0.39843
21
0.320377
0
LINE
8
BLACK
6
CONTINUOUS
10
0.39843
20
0.320377
11
0.398316
21
0.320442
0
LINE
8
BLACK
6
CONTINUOUS
10
0.398316
20
0.320442
11
0.397933
21
0.32051
0
LINE
8
BLACK
6
CONTINUOUS
10
0.397933
20
0.32051
11
0.397345
21
0.321003
0
LINE
8
BLACK
6
CONTINUOUS
10
0.397345
20
0.321003
11
0.396681
21
0.321387
0
LINE
8
BLACK
6
CONTINUOUS
10
0.396681
20
0.321387
11
0.39659
21
0.321637
0
LINE
8
BLACK
6
CONTINUOUS
10
0.39659
20
0.321637
11
0.396385
21
0.321808
0
LINE
8
BLACK
6
CONTINUOUS
10
0.396385
20
0.321808
11
0.396252
21
0.322564
0
LINE
8
BLACK
6
CONTINUOUS
10
0.396252
20
0.322564
11
0.39599
21
0.323285
0
LINE
8
BLACK
6
CONTINUOUS
10
0.39599
20
0.323285
11
0.39599
21
0.38234
0
LINE
8
BLACK
6
CONTINUOUS
10
0.39599
20
0.38234
11
0.396057
21
0.382723
0
LINE
8
BLACK
6
CONTINUOUS
10
0.396057
20
0.382723
11
0.396035
21
0.382852
0
LINE
8
BLACK
6
CONTINUOUS
10
0.396035
20
0.382852
11
0.3961
21
0.382966
0
LINE
8
BLACK
6
CONTINUOUS
10
0.3961
20
0.382966
11
0.396168
21
0.38335
0
LINE
8
BLACK
6
CONTINUOUS
10
0.396168
20
0.38335
11
0.396661
21
0.383937
0
LINE
8
BLACK
6
CONTINUOUS
10
0.396661
20
0.383937
11
0.397045
21
0.384602
0
LINE
8
BLACK
6
CONTINUOUS
10
0.397045
20
0.384602
11
0.397295
21
0.384693
0
LINE
8
BLACK
6
CONTINUOUS
10
0.397295
20
0.384693
11
0.397466
21
0.384897
0
LINE
8
BLACK
6
CONTINUOUS
10
0.397466
20
0.384897
11
0.398222
21
0.38503
0
LINE
8
BLACK
6
CONTINUOUS
10
0.398222
20
0.38503
11
0.398943
21
0.385292
0
LINE
8
BLACK
6
CONTINUOUS
10
0.398943
20
0.385292
11
0.427064
21
0.385292
0
LINE
8
BLACK
6
CONTINUOUS
10
0.427064
20
0.385292
11
0.428074
21
0.385114
0
LINE
8
BLACK
6
CONTINUOUS
10
1.16204
20
0.385114
11
1.16359
21
0.383816
0
LINE
8
BLACK
6
CONTINUOUS
10
1.16359
20
0.383816
11
1.16394
21
0.381827
0
LINE
8
BLACK
6
CONTINUOUS
10
1.16394
20
0.381827
11
1.16293
21
0.380078
0
LINE
8
BLACK
6
CONTINUOUS
10
1.16293
20
0.380078
11
1.16103
21
0.379387
0
LINE
8
BLACK
6
CONTINUOUS
10
1.16103
20
0.379387
11
1.13587
21
0.379387
0
LINE
8
BLACK
6
CONTINUOUS
10
1.13587
20
0.379387
11
1.13587
21
0.357171
0
LINE
8
BLACK
6
CONTINUOUS
10
1.13587
20
0.357171
11
1.1526
21
0.357171
0
LINE
8
BLACK
6
CONTINUOUS
10
1.1526
20
0.357171
11
1.15361
21
0.356993
0
LINE
8
BLACK
6
CONTINUOUS
10
1.15361
20
0.356993
11
1.15516
21
0.355695
0
LINE
8
BLACK
6
CONTINUOUS
10
1.15516
20
0.355695
11
1.15551
21
0.353705
0
LINE
8
BLACK
6
CONTINUOUS
10
1.15551
20
0.353705
11
1.1545
21
0.351956
0
LINE
8
BLACK
6
CONTINUOUS
10
1.1545
20
0.351956
11
1.1526
21
0.351265
0
LINE
8
BLACK
6
CONTINUOUS
10
1.1526
20
0.351265
11
1.13587
21
0.351265
0
LINE
8
BLACK
6
CONTINUOUS
10
1.13587
20
0.351265
11
1.13587
21
0.326237
0
LINE
8
BLACK
6
CONTINUOUS
10
1.13587
20
0.326237
11
1.16103
21
0.326237
0
LINE
8
BLACK
6
CONTINUOUS
10
1.16103
20
0.326237
11
1.16204
21
0.326059
0
LINE
8
BLACK
6
CONTINUOUS
10
1.16204
20
0.326059
11
1.16359
21
0.324761
0
LINE
8
BLACK
6
CONTINUOUS
10
1.16359
20
0.324761
11
1.16394
21
0.322772
0
LINE
8
BLACK
6
CONTINUOUS
10
1.16394
20
0.322772
11
1.16293
21
0.321023
0
LINE
8
BLACK
6
CONTINUOUS
10
1.16293
20
0.321023
11
1.16103
21
0.320332
0
LINE
8
BLACK
6
CONTINUOUS
10
1.16103
20
0.320332
11
1.13291
21
0.320332
0
LINE
8
BLACK
6
CONTINUOUS
10
1.13291
20
0.320332
11
1.13253
21
0.320399
0
LINE
8
BLACK
6
CONTINUOUS
10
1.13253
20
0.320399
11
1.1324
21
0.320377
0
LINE
8
BLACK
6
CONTINUOUS
10
1.1324
20
0.320377
11
1.13229
21
0.320442
0
LINE
8
BLACK
6
CONTINUOUS
10
1.13229
20
0.320442
11
1.1319
21
0.32051
0
LINE
8
BLACK
6
CONTINUOUS
10
1.1319
20
0.32051
11
1.13132
21
0.321003
0
LINE
8
BLACK
6
CONTINUOUS
10
1.13132
20
0.321003
11
1.13065
21
0.321387
0
LINE
8
BLACK
6
CONTINUOUS
10
1.13065
20
0.321387
11
1.13056
21
0.321637
0
LINE
8
BLACK
6
CONTINUOUS
10
1.13056
20
0.321637
11
1.13036
21
0.321808
0
LINE
8
BLACK
6
CONTINUOUS
10
1.13036
20
0.321808
11
1.13022
21
0.322564
0
LINE
8
BLACK
6
CONTINUOUS
10
1.13022
20
0.322564
11
1.12996
21
0.323285
0
LINE
8
BLACK
6
CONTINUOUS
10
1.12996
20
0.323285
11
1.12996
21
0.38234
0
LINE
8
BLACK
6
CONTINUOUS
10
1.12996
20
0.38234
11
1.13003
21
0.382723
0
LINE
8
BLACK
6
CONTINUOUS
10
1.13003
20
0.382723
11
1.13001
21
0.382852
0
LINE
8
BLACK
6
CONTINUOUS
10
1.13001
20
0.382852
11
1.13007
21
0.382966
0
LINE
8
BLACK
6
CONTINUOUS
10
1.13007
20
0.382966
11
1.13014
21
0.38335
0
LINE
8
BLACK
6
CONTINUOUS
10
1.13014
20
0.38335
11
1.13063
21
0.383937
0
LINE
8
BLACK
6
CONTINUOUS
10
1.13063
20
0.383937
11
1.13102
21
0.384602
0
LINE
8
BLACK
6
CONTINUOUS
10
1.13102
20
0.384602
11
1.13127
21
0.384693
0
LINE
8
BLACK
6
CONTINUOUS
10
1.13127
20
0.384693
11
1.13144
21
0.384897
0
LINE
8
BLACK
6
CONTINUOUS
10
1.13144
20
0.384897
11
1.13219
21
0.38503
0
LINE
8
BLACK
6
CONTINUOUS
10
1.13219
20
0.38503
11
1.13291
21
0.385292
0
LINE
8
BLACK
6
CONTINUOUS
10
1.13291
20
0.385292
11
1.16103
21
0.385292
0
LINE
8
BLACK
6
CONTINUOUS
10
1.16103
20
0.385292
11
1.16204
21
0.385114
0
LINE
8
BLACK
6
CONTINUOUS
10
0.577118
20
0.385114
11
0.577253
21
0.385001
0
LINE
8
BLACK
6
CONTINUOUS
10
0.577253
20
0.385001
11
0.577428
21
0.384981
0
LINE
8
BLACK
6
CONTINUOUS
10
0.577428
20
0.384981
11
0.583053
21
0.382169
0
LINE
8
BLACK
6
CONTINUOUS
10
0.583053
20
0.382169
11
0.583762
21
0.381643
0
LINE
8
BLACK
6
CONTINUOUS
10
0.583762
20
0.381643
11
0.58382
21
0.381615
0
LINE
8
BLACK
6
CONTINUOUS
10
0.58382
20
0.381615
11
0.586632
21
0.378803
0
LINE
8
BLACK
6
CONTINUOUS
10
0.586632
20
0.378803
11
0.587139
21
0.37808
0
LINE
8
BLACK
6
CONTINUOUS
10
0.587139
20
0.37808
11
0.587185
21
0.378036
0
LINE
8
BLACK
6
CONTINUOUS
10
0.587185
20
0.378036
11
0.589998
21
0.372412
0
LINE
8
BLACK
6
CONTINUOUS
10
0.589998
20
0.372412
11
0.59029
21
0.371429
0
LINE
8
BLACK
6
CONTINUOUS
10
0.59029
20
0.371429
11
0.590249
21
0.371257
0
LINE
8
BLACK
6
CONTINUOUS
10
0.590249
20
0.371257
11
0.590309
21
0.371091
0
LINE
8
BLACK
6
CONTINUOUS
10
0.590309
20
0.371091
11
0.590309
21
0.365467
0
LINE
8
BLACK
6
CONTINUOUS
10
0.590309
20
0.365467
11
0.590156
21
0.364597
0
LINE
8
BLACK
6
CONTINUOUS
10
0.590156
20
0.364597
11
0.590158
21
0.364533
0
LINE
8
BLACK
6
CONTINUOUS
10
0.590158
20
0.364533
11
0.587346
21
0.356097
0
LINE
8
BLACK
6
CONTINUOUS
10
0.587346
20
0.356097
11
0.586857
21
0.355195
0
LINE
8
BLACK
6
CONTINUOUS
10
0.586857
20
0.355195
11
0.586707
21
0.355102
0
LINE
8
BLACK
6
CONTINUOUS
10
0.586707
20
0.355102
11
0.586632
21
0.354942
0
LINE
8
BLACK
6
CONTINUOUS
10
0.586632
20
0.354942
11
0.557927
21
0.326237
0
LINE
8
BLACK
6
CONTINUOUS
10
0.557927
20
0.326237
11
0.587357
21
0.326237
0
LINE
8
BLACK
6
CONTINUOUS
10
0.587357
20
0.326237
11
0.588366
21
0.326059
0
LINE
8
BLACK
6
CONTINUOUS
10
0.588366
20
0.326059
11
0.589914
21
0.324761
0
LINE
8
BLACK
6
CONTINUOUS
10
0.589914
20
0.324761
11
0.590264
21
0.322772
0
LINE
8
BLACK
6
CONTINUOUS
10
0.590264
20
0.322772
11
0.589255
21
0.321023
0
LINE
8
BLACK
6
CONTINUOUS
10
0.589255
20
0.321023
11
0.587357
21
0.320332
0
LINE
8
BLACK
6
CONTINUOUS
10
0.587357
20
0.320332
11
0.550799
21
0.320332
0
LINE
8
BLACK
6
CONTINUOUS
10
0.550799
20
0.320332
11
0.550164
21
0.320444
0
LINE
8
BLACK
6
CONTINUOUS
10
0.550164
20
0.320444
11
0.550034
21
0.320432
0
LINE
8
BLACK
6
CONTINUOUS
10
0.550034
20
0.320432
11
0.549969
21
0.320478
0
LINE
8
BLACK
6
CONTINUOUS
10
0.549969
20
0.320478
11
0.549789
21
0.32051
0
LINE
8
BLACK
6
CONTINUOUS
10
0.549789
20
0.32051
11
0.549108
21
0.321081
0
LINE
8
BLACK
6
CONTINUOUS
10
0.549108
20
0.321081
11
0.54838
21
0.321591
0
LINE
8
BLACK
6
CONTINUOUS
10
0.54838
20
0.321591
11
0.548345
21
0.321721
0
LINE
8
BLACK
6
CONTINUOUS
10
0.548345
20
0.321721
11
0.548241
21
0.321808
0
LINE
8
BLACK
6
CONTINUOUS
10
0.548241
20
0.321808
11
0.548087
21
0.322684
0
LINE
8
BLACK
6
CONTINUOUS
10
0.548087
20
0.322684
11
0.547857
21
0.323542
0
LINE
8
BLACK
6
CONTINUOUS
10
0.547857
20
0.323542
11
0.547914
21
0.323664
0
LINE
8
BLACK
6
CONTINUOUS
10
0.547914
20
0.323664
11
0.547891
21
0.323797
0
LINE
8
BLACK
6
CONTINUOUS
10
0.547891
20
0.323797
11
0.548335
21
0.324567
0
LINE
8
BLACK
6
CONTINUOUS
10
0.548335
20
0.324567
11
0.548711
21
0.325373
0
LINE
8
BLACK
6
CONTINUOUS
10
0.548711
20
0.325373
11
0.581964
21
0.358625
0
LINE
8
BLACK
6
CONTINUOUS
10
0.581964
20
0.358625
11
0.584404
21
0.365946
0
LINE
8
BLACK
6
CONTINUOUS
10
0.584404
20
0.365946
11
0.584404
21
0.370394
0
LINE
8
BLACK
6
CONTINUOUS
10
0.584404
20
0.370394
11
0.582118
21
0.374966
0
LINE
8
BLACK
6
CONTINUOUS
10
0.582118
20
0.374966
11
0.579983
21
0.377101
0
LINE
8
BLACK
6
CONTINUOUS
10
0.579983
20
0.377101
11
0.575411
21
0.379387
0
LINE
8
BLACK
6
CONTINUOUS
10
0.575411
20
0.379387
11
0.562744
21
0.379387
0
LINE
8
BLACK
6
CONTINUOUS
10
0.562744
20
0.379387
11
0.558172
21
0.377101
0
LINE
8
BLACK
6
CONTINUOUS
10
0.558172
20
0.377101
11
0.555699
21
0.374628
0
LINE
8
BLACK
6
CONTINUOUS
10
0.555699
20
0.374628
11
0.554859
21
0.374039
0
LINE
8
BLACK
6
CONTINUOUS
10
0.554859
20
0.374039
11
0.552847
21
0.373863
0
LINE
8
BLACK
6
CONTINUOUS
10
0.552847
20
0.373863
11
0.551192
21
0.375022
0
LINE
8
BLACK
6
CONTINUOUS
10
0.551192
20
0.375022
11
0.550669
21
0.376973
0
LINE
8
BLACK
6
CONTINUOUS
10
0.550669
20
0.376973
11
0.551523
21
0.378803
0
LINE
8
BLACK
6
CONTINUOUS
10
0.551523
20
0.378803
11
0.554335
21
0.381615
0
LINE
8
BLACK
6
CONTINUOUS
10
0.554335
20
0.381615
11
0.555058
21
0.382122
0
LINE
8
BLACK
6
CONTINUOUS
10
0.555058
20
0.382122
11
0.555102
21
0.382169
0
LINE
8
BLACK
6
CONTINUOUS
10
0.555102
20
0.382169
11
0.560727
21
0.384981
0
LINE
8
BLACK
6
CONTINUOUS
10
0.560727
20
0.384981
11
0.56171
21
0.385273
0
LINE
8
BLACK
6
CONTINUOUS
10
0.56171
20
0.385273
11
0.561881
21
0.385232
0
LINE
8
BLACK
6
CONTINUOUS
10
0.561881
20
0.385232
11
0.562047
21
0.385292
0
LINE
8
BLACK
6
CONTINUOUS
10
0.562047
20
0.385292
11
0.576108
21
0.385292
0
LINE
8
BLACK
6
CONTINUOUS
10
0.576108
20
0.385292
11
0.577118
21
0.385114
0
LINE
8
BLACK
6
CONTINUOUS
10
1.18861
20
0.384238
11
1.1893
21
0.38234
0
LINE
8
BLACK
6
CONTINUOUS
10
1.1893
20
0.38234
11
1.1893
21
0.326237
0
LINE
8
BLACK
6
CONTINUOUS
10
1.1893
20
0.326237
11
1.21447
21
0.326237
0
LINE
8
BLACK
6
CONTINUOUS
10
1.21447
20
0.326237
11
1.21548
21
0.326059
0
LINE
8
BLACK
6
CONTINUOUS
10
1.21548
20
0.326059
11
1.21702
21
0.324761
0
LINE
8
BLACK
6
CONTINUOUS
10
1.21702
20
0.324761
11
1.21737
21
0.322772
0
LINE
8
BLACK
6
CONTINUOUS
10
1.21737
20
0.322772
11
1.21636
21
0.321023
0
LINE
8
BLACK
6
CONTINUOUS
10
1.21636
20
0.321023
11
1.21447
21
0.320332
0
LINE
8
BLACK
6
CONTINUOUS
10
1.21447
20
0.320332
11
1.18634
21
0.320332
0
LINE
8
BLACK
6
CONTINUOUS
10
1.18634
20
0.320332
11
1.18596
21
0.320399
0
LINE
8
BLACK
6
CONTINUOUS
10
1.18596
20
0.320399
11
1.18583
21
0.320377
0
LINE
8
BLACK
6
CONTINUOUS
10
1.18583
20
0.320377
11
1.18572
21
0.320442
0
LINE
8
BLACK
6
CONTINUOUS
10
1.18572
20
0.320442
11
1.18533
21
0.32051
0
LINE
8
BLACK
6
CONTINUOUS
10
1.18533
20
0.32051
11
1.18475
21
0.321003
0
LINE
8
BLACK
6
CONTINUOUS
10
1.18475
20
0.321003
11
1.18408
21
0.321387
0
LINE
8
BLACK
6
CONTINUOUS
10
1.18408
20
0.321387
11
1.18399
21
0.321637
0
LINE
8
BLACK
6
CONTINUOUS
10
1.18399
20
0.321637
11
1.18379
21
0.321808
0
LINE
8
BLACK
6
CONTINUOUS
10
1.18379
20
0.321808
11
1.18365
21
0.322564
0
LINE
8
BLACK
6
CONTINUOUS
10
1.18365
20
0.322564
11
1.18339
21
0.323285
0
LINE
8
BLACK
6
CONTINUOUS
10
1.18339
20
0.323285
11
1.18339
21
0.38234
0
LINE
8
BLACK
6
CONTINUOUS
10
1.18339
20
0.38234
11
1.18357
21
0.38335
0
LINE
8
BLACK
6
CONTINUOUS
10
1.18357
20
0.38335
11
1.18487
21
0.384897
0
LINE
8
BLACK
6
CONTINUOUS
10
1.18487
20
0.384897
11
1.18686
21
0.385248
0
LINE
8
BLACK
6
CONTINUOUS
10
1.18686
20
0.385248
11
1.18861
21
0.384238
0
LINE
8
BLACK
6
CONTINUOUS
10
0.640175
20
0.364624
11
0.640926
21
0.36275
0
LINE
8
BLACK
6
CONTINUOUS
10
0.640926
20
0.36275
11
0.640297
21
0.36083
0
LINE
8
BLACK
6
CONTINUOUS
10
0.640297
20
0.36083
11
0.626264
21
0.34297
0
LINE
8
BLACK
6
CONTINUOUS
10
0.626264
20
0.34297
11
0.640297
21
0.325109
0
LINE
8
BLACK
6
CONTINUOUS
10
0.640297
20
0.325109
11
0.640781
21
0.324205
0
LINE
8
BLACK
6
CONTINUOUS
10
0.640781
20
0.324205
11
0.640716
21
0.322186
0
LINE
8
BLACK
6
CONTINUOUS
10
0.640716
20
0.322186
11
0.639369
21
0.320681
0
LINE
8
BLACK
6
CONTINUOUS
10
0.639369
20
0.320681
11
0.637369
21
0.320395
0
LINE
8
BLACK
6
CONTINUOUS
10
0.637369
20
0.320395
11
0.635653
21
0.32146
0
LINE
8
BLACK
6
CONTINUOUS
10
0.635653
20
0.32146
11
0.622508
21
0.33819
0
LINE
8
BLACK
6
CONTINUOUS
10
0.622508
20
0.33819
11
0.609363
21
0.32146
0
LINE
8
BLACK
6
CONTINUOUS
10
0.609363
20
0.32146
11
0.608599
21
0.320776
0
LINE
8
BLACK
6
CONTINUOUS
10
0.608599
20
0.320776
11
0.606623
21
0.320362
0
LINE
8
BLACK
6
CONTINUOUS
10
0.606623
20
0.320362
11
0.604842
21
0.321315
0
LINE
8
BLACK
6
CONTINUOUS
10
0.604842
20
0.321315
11
0.60409
21
0.32319
0
LINE
8
BLACK
6
CONTINUOUS
10
0.60409
20
0.32319
11
0.60472
21
0.325109
0
LINE
8
BLACK
6
CONTINUOUS
10
0.60472
20
0.325109
11
0.618753
21
0.34297
0
LINE
8
BLACK
6
CONTINUOUS
10
0.618753
20
0.34297
11
0.60472
21
0.36083
0
LINE
8
BLACK
6
CONTINUOUS
10
0.60472
20
0.36083
11
0.604236
21
0.361735
0
LINE
8
BLACK
6
CONTINUOUS
10
0.604236
20
0.361735
11
0.604301
21
0.363753
0
LINE
8
BLACK
6
CONTINUOUS
10
0.604301
20
0.363753
11
0.605648
21
0.365258
0
LINE
8
BLACK
6
CONTINUOUS
10
0.605648
20
0.365258
11
0.607648
21
0.365545
0
LINE
8
BLACK
6
CONTINUOUS
10
0.607648
20
0.365545
11
0.609363
21
0.364479
0
LINE
8
BLACK
6
CONTINUOUS
10
0.609363
20
0.364479
11
0.622508
21
0.347749
0
LINE
8
BLACK
6
CONTINUOUS
10
0.622508
20
0.347749
11
0.635653
21
0.364479
0
LINE
8
BLACK
6
CONTINUOUS
10
0.635653
20
0.364479
11
0.636417
21
0.365163
0
LINE
8
BLACK
6
CONTINUOUS
10
0.636417
20
0.365163
11
0.638394
21
0.365578
0
LINE
8
BLACK
6
CONTINUOUS
10
0.638394
20
0.365578
11
0.640175
21
0.364624
0
LINE
8
BLACK
6
CONTINUOUS
10
0.888738
20
0.385073
11
0.889662
21
0.384936
0
LINE
8
BLACK
6
CONTINUOUS
10
0.889662
20
0.384936
11
0.889719
21
0.384873
0
LINE
8
BLACK
6
CONTINUOUS
10
0.889719
20
0.384873
11
0.889802
21
0.384856
0
LINE
8
BLACK
6
CONTINUOUS
10
0.889802
20
0.384856
11
0.890382
21
0.384124
0
LINE
8
BLACK
6
CONTINUOUS
10
0.890382
20
0.384124
11
0.891003
21
0.383425
0
LINE
8
BLACK
6
CONTINUOUS
10
0.891003
20
0.383425
11
0.891005
21
0.38334
0
LINE
8
BLACK
6
CONTINUOUS
10
0.891005
20
0.38334
11
0.891058
21
0.383273
0
LINE
8
BLACK
6
CONTINUOUS
10
0.891058
20
0.383273
11
0.910743
21
0.324218
0
LINE
8
BLACK
6
CONTINUOUS
10
0.910743
20
0.324218
11
0.910893
21
0.323204
0
LINE
8
BLACK
6
CONTINUOUS
10
0.910893
20
0.323204
11
0.910151
21
0.321326
0
LINE
8
BLACK
6
CONTINUOUS
10
0.910151
20
0.321326
11
0.908375
21
0.320364
0
LINE
8
BLACK
6
CONTINUOUS
10
0.908375
20
0.320364
11
0.906396
21
0.320769
0
LINE
8
BLACK
6
CONTINUOUS
10
0.906396
20
0.320769
11
0.90514
21
0.322351
0
LINE
8
BLACK
6
CONTINUOUS
10
0.90514
20
0.322351
11
0.900189
21
0.337205
0
LINE
8
BLACK
6
CONTINUOUS
10
0.900189
20
0.337205
11
0.876324
21
0.337205
0
LINE
8
BLACK
6
CONTINUOUS
10
0.876324
20
0.337205
11
0.871373
21
0.322351
0
LINE
8
BLACK
6
CONTINUOUS
10
0.871373
20
0.322351
11
0.870884
21
0.321449
0
LINE
8
BLACK
6
CONTINUOUS
10
0.870884
20
0.321449
11
0.869163
21
0.320392
0
LINE
8
BLACK
6
CONTINUOUS
10
0.869163
20
0.320392
11
0.867165
21
0.320688
0
LINE
8
BLACK
6
CONTINUOUS
10
0.867165
20
0.320688
11
0.865825
21
0.322199
0
LINE
8
BLACK
6
CONTINUOUS
10
0.865825
20
0.322199
11
0.86577
21
0.324218
0
LINE
8
BLACK
6
CONTINUOUS
10
0.86577
20
0.324218
11
0.885455
21
0.383273
0
LINE
8
BLACK
6
CONTINUOUS
10
0.885455
20
0.383273
11
0.885944
21
0.384175
0
LINE
8
BLACK
6
CONTINUOUS
10
0.885944
20
0.384175
11
0.886016
21
0.38422
0
LINE
8
BLACK
6
CONTINUOUS
10
0.886016
20
0.38422
11
0.886047
21
0.384299
0
LINE
8
BLACK
6
CONTINUOUS
10
0.886047
20
0.384299
11
0.886868
21
0.384743
0
LINE
8
BLACK
6
CONTINUOUS
10
0.886868
20
0.384743
11
0.887664
21
0.385233
0
LINE
8
BLACK
6
CONTINUOUS
10
0.887664
20
0.385233
11
0.887749
21
0.38522
0
LINE
8
BLACK
6
CONTINUOUS
10
0.887749
20
0.38522
11
0.887823
21
0.385261
0
LINE
8
BLACK
6
CONTINUOUS
10
0.887823
20
0.385261
11
0.888738
21
0.385073
0
LINE
8
BLACK
6
CONTINUOUS
10
0.878292
20
0.34311
11
0.89822
21
0.34311
0
LINE
8
BLACK
6
CONTINUOUS
10
0.89822
20
0.34311
11
0.888256
21
0.373002
0
LINE
8
BLACK
6
CONTINUOUS
10
0.888256
20
0.373002
11
0.878292
21
0.34311
0
LINE
8
BLACK
6
CONTINUOUS
10
0.998412
20
0.385073
11
0.999336
21
0.384936
0
LINE
8
BLACK
6
CONTINUOUS
10
0.999336
20
0.384936
11
0.999393
21
0.384873
0
LINE
8
BLACK
6
CONTINUOUS
10
0.999393
20
0.384873
11
0.999476
21
0.384856
0
LINE
8
BLACK
6
CONTINUOUS
10
0.999476
20
0.384856
11
1.00006
21
0.384124
0
LINE
8
BLACK
6
CONTINUOUS
10
1.00006
20
0.384124
11
1.00068
21
0.383425
0
LINE
8
BLACK
6
CONTINUOUS
10
1.00068
20
0.383425
11
1.00068
21
0.38334
0
LINE
8
BLACK
6
CONTINUOUS
10
1.00068
20
0.38334
11
1.00073
21
0.383273
0
LINE
8
BLACK
6
CONTINUOUS
10
1.00073
20
0.383273
11
1.02042
21
0.324218
0
LINE
8
BLACK
6
CONTINUOUS
10
1.02042
20
0.324218
11
1.02057
21
0.323204
0
LINE
8
BLACK
6
CONTINUOUS
10
1.02057
20
0.323204
11
1.01982
21
0.321326
0
LINE
8
BLACK
6
CONTINUOUS
10
1.01982
20
0.321326
11
1.01805
21
0.320364
0
LINE
8
BLACK
6
CONTINUOUS
10
1.01805
20
0.320364
11
1.01607
21
0.320769
0
LINE
8
BLACK
6
CONTINUOUS
10
1.01607
20
0.320769
11
1.01481
21
0.322351
0
LINE
8
BLACK
6
CONTINUOUS
10
1.01481
20
0.322351
11
1.00986
21
0.337205
0
LINE
8
BLACK
6
CONTINUOUS
10
1.00986
20
0.337205
11
0.985998
21
0.337205
0
LINE
8
BLACK
6
CONTINUOUS
10
0.985998
20
0.337205
11
0.981046
21
0.322351
0
LINE
8
BLACK
6
CONTINUOUS
10
0.981046
20
0.322351
11
0.980558
21
0.321449
0
LINE
8
BLACK
6
CONTINUOUS
10
0.980558
20
0.321449
11
0.978837
21
0.320392
0
LINE
8
BLACK
6
CONTINUOUS
10
0.978837
20
0.320392
11
0.976839
21
0.320688
0
LINE
8
BLACK
6
CONTINUOUS
10
0.976839
20
0.320688
11
0.975499
21
0.322199
0
LINE
8
BLACK
6
CONTINUOUS
10
0.975499
20
0.322199
11
0.975444
21
0.324218
0
LINE
8
BLACK
6
CONTINUOUS
10
0.975444
20
0.324218
11
0.995129
21
0.383273
0
LINE
8
BLACK
6
CONTINUOUS
10
0.995129
20
0.383273
11
0.995617
21
0.384175
0
LINE
8
BLACK
6
CONTINUOUS
10
0.995617
20
0.384175
11
0.99569
21
0.38422
0
LINE
8
BLACK
6
CONTINUOUS
10
0.99569
20
0.38422
11
0.995721
21
0.384299
0
LINE
8
BLACK
6
CONTINUOUS
10
0.995721
20
0.384299
11
0.996542
21
0.384743
0
LINE
8
BLACK
6
CONTINUOUS
10
0.996542
20
0.384743
11
0.997338
21
0.385233
0
LINE
8
BLACK
6
CONTINUOUS
10
0.997338
20
0.385233
11
0.997422
21
0.38522
0
LINE
8
BLACK
6
CONTINUOUS
10
0.997422
20
0.38522
11
0.997497
21
0.385261
0
LINE
8
BLACK
6
CONTINUOUS
10
0.997497
20
0.385261
11
0.998412
21
0.385073
0
LINE
8
BLACK
6
CONTINUOUS
10
0.987966
20
0.34311
11
1.00789
21
0.34311
0
LINE
8
BLACK
6
CONTINUOUS
10
1.00789
20
0.34311
11
0.99793
21
0.373002
0
LINE
8
BLACK
6
CONTINUOUS
10
0.99793
20
0.373002
11
0.987966
21
0.34311
0
LINE
8
BLACK
6
CONTINUOUS
10
0.300999
20
0.385073
11
0.301923
21
0.384936
0
LINE
8
BLACK
6
CONTINUOUS
10
0.301923
20
0.384936
11
0.30198
21
0.384873
0
LINE
8
BLACK
6
CONTINUOUS
10
0.30198
20
0.384873
11
0.302063
21
0.384856
0
LINE
8
BLACK
6
CONTINUOUS
10
0.302063
20
0.384856
11
0.302643
21
0.384124
0
LINE
8
BLACK
6
CONTINUOUS
10
0.302643
20
0.384124
11
0.303263
21
0.383425
0
LINE
8
BLACK
6
CONTINUOUS
10
0.303263
20
0.383425
11
0.303266
21
0.38334
0
LINE
8
BLACK
6
CONTINUOUS
10
0.303266
20
0.38334
11
0.303319
21
0.383273
0
LINE
8
BLACK
6
CONTINUOUS
10
0.303319
20
0.383273
11
0.323004
21
0.324218
0
LINE
8
BLACK
6
CONTINUOUS
10
0.323004
20
0.324218
11
0.323154
21
0.323204
0
LINE
8
BLACK
6
CONTINUOUS
10
0.323154
20
0.323204
11
0.322412
21
0.321326
0
LINE
8
BLACK
6
CONTINUOUS
10
0.322412
20
0.321326
11
0.320636
21
0.320364
0
LINE
8
BLACK
6
CONTINUOUS
10
0.320636
20
0.320364
11
0.318657
21
0.320769
0
LINE
8
BLACK
6
CONTINUOUS
10
0.318657
20
0.320769
11
0.317401
21
0.322351
0
LINE
8
BLACK
6
CONTINUOUS
10
0.317401
20
0.322351
11
0.31245
21
0.337205
0
LINE
8
BLACK
6
CONTINUOUS
10
0.31245
20
0.337205
11
0.288585
21
0.337205
0
LINE
8
BLACK
6
CONTINUOUS
10
0.288585
20
0.337205
11
0.283634
21
0.322351
0
LINE
8
BLACK
6
CONTINUOUS
10
0.283634
20
0.322351
11
0.283145
21
0.321449
0
LINE
8
BLACK
6
CONTINUOUS
10
0.283145
20
0.321449
11
0.281424
21
0.320392
0
LINE
8
BLACK
6
CONTINUOUS
10
0.281424
20
0.320392
11
0.279426
21
0.320688
0
LINE
8
BLACK
6
CONTINUOUS
10
0.279426
20
0.320688
11
0.278086
21
0.322199
0
LINE
8
BLACK
6
CONTINUOUS
10
0.278086
20
0.322199
11
0.278031
21
0.324218
0
LINE
8
BLACK
6
CONTINUOUS
10
0.278031
20
0.324218
11
0.297716
21
0.383273
0
LINE
8
BLACK
6
CONTINUOUS
10
0.297716
20
0.383273
11
0.298204
21
0.384175
0
LINE
8
BLACK
6
CONTINUOUS
10
0.298204
20
0.384175
11
0.298277
21
0.38422
0
LINE
8
BLACK
6
CONTINUOUS
10
0.298277
20
0.38422
11
0.298308
21
0.384299
0
LINE
8
BLACK
6
CONTINUOUS
10
0.298308
20
0.384299
11
0.299129
21
0.384743
0
LINE
8
BLACK
6
CONTINUOUS
10
0.299129
20
0.384743
11
0.299925
21
0.385233
0
LINE
8
BLACK
6
CONTINUOUS
10
0.299925
20
0.385233
11
0.30001
21
0.38522
0
LINE
8
BLACK
6
CONTINUOUS
10
0.30001
20
0.38522
11
0.300084
21
0.385261
0
LINE
8
BLACK
6
CONTINUOUS
10
0.300084
20
0.385261
11
0.300999
21
0.385073
0
LINE
8
BLACK
6
CONTINUOUS
10
0.290553
20
0.34311
11
0.310481
21
0.34311
0
LINE
8
BLACK
6
CONTINUOUS
10
0.310481
20
0.34311
11
0.300517
21
0.373002
0
LINE
8
BLACK
6
CONTINUOUS
10
0.300517
20
0.373002
11
0.290553
21
0.34311
0
LINE
8
BLACK
6
CONTINUOUS
10
0.209978
20
0.384238
11
0.210669
21
0.38234
0
LINE
8
BLACK
6
CONTINUOUS
10
0.210669
20
0.38234
11
0.210669
21
0.323285
0
LINE
8
BLACK
6
CONTINUOUS
10
0.210669
20
0.323285
11
0.210491
21
0.322275
0
LINE
8
BLACK
6
CONTINUOUS
10
0.210491
20
0.322275
11
0.209193
21
0.320727
0
LINE
8
BLACK
6
CONTINUOUS
10
0.209193
20
0.320727
11
0.207204
21
0.320377
0
LINE
8
BLACK
6
CONTINUOUS
10
0.207204
20
0.320377
11
0.205455
21
0.321387
0
LINE
8
BLACK
6
CONTINUOUS
10
0.205455
20
0.321387
11
0.204764
21
0.323285
0
LINE
8
BLACK
6
CONTINUOUS
10
0.204764
20
0.323285
11
0.204764
21
0.351265
0
LINE
8
BLACK
6
CONTINUOUS
10
0.204764
20
0.351265
11
0.176924
21
0.351265
0
LINE
8
BLACK
6
CONTINUOUS
10
0.176924
20
0.351265
11
0.176924
21
0.323285
0
LINE
8
BLACK
6
CONTINUOUS
10
0.176924
20
0.323285
11
0.176745
21
0.322275
0
LINE
8
BLACK
6
CONTINUOUS
10
0.176745
20
0.322275
11
0.175447
21
0.320727
0
LINE
8
BLACK
6
CONTINUOUS
10
0.175447
20
0.320727
11
0.173458
21
0.320377
0
LINE
8
BLACK
6
CONTINUOUS
10
0.173458
20
0.320377
11
0.171709
21
0.321387
0
LINE
8
BLACK
6
CONTINUOUS
10
0.171709
20
0.321387
11
0.171018
21
0.323285
0
LINE
8
BLACK
6
CONTINUOUS
10
0.171018
20
0.323285
11
0.171018
21
0.38234
0
LINE
8
BLACK
6
CONTINUOUS
10
0.171018
20
0.38234
11
0.171196
21
0.38335
0
LINE
8
BLACK
6
CONTINUOUS
10
0.171196
20
0.38335
11
0.172494
21
0.384897
0
LINE
8
BLACK
6
CONTINUOUS
10
0.172494
20
0.384897
11
0.174484
21
0.385248
0
LINE
8
BLACK
6
CONTINUOUS
10
0.174484
20
0.385248
11
0.176233
21
0.384238
0
LINE
8
BLACK
6
CONTINUOUS
10
0.176233
20
0.384238
11
0.176924
21
0.38234
0
LINE
8
BLACK
6
CONTINUOUS
10
0.176924
20
0.38234
11
0.176924
21
0.357171
0
LINE
8
BLACK
6
CONTINUOUS
10
0.176924
20
0.357171
11
0.204764
21
0.357171
0
LINE
8
BLACK
6
CONTINUOUS
10
0.204764
20
0.357171
11
0.204764
21
0.38234
0
LINE
8
BLACK
6
CONTINUOUS
10
0.204764
20
0.38234
11
0.204942
21
0.38335
0
LINE
8
BLACK
6
CONTINUOUS
10
0.204942
20
0.38335
11
0.20624
21
0.384897
0
LINE
8
BLACK
6
CONTINUOUS
10
0.20624
20
0.384897
11
0.208229
21
0.385248
0
LINE
8
BLACK
6
CONTINUOUS
10
0.208229
20
0.385248
11
0.209978
21
0.384238
0
LINE
8
BLACK
6
CONTINUOUS
10
0.475881
20
0.385114
11
0.476016
21
0.385001
0
LINE
8
BLACK
6
CONTINUOUS
10
0.476016
20
0.385001
11
0.476191
21
0.384981
0
LINE
8
BLACK
6
CONTINUOUS
10
0.476191
20
0.384981
11
0.481815
21
0.382169
0
LINE
8
BLACK
6
CONTINUOUS
10
0.481815
20
0.382169
11
0.482524
21
0.381643
0
LINE
8
BLACK
6
CONTINUOUS
10
0.482524
20
0.381643
11
0.482583
21
0.381615
0
LINE
8
BLACK
6
CONTINUOUS
10
0.482583
20
0.381615
11
0.485395
21
0.378803
0
LINE
8
BLACK
6
CONTINUOUS
10
0.485395
20
0.378803
11
0.485901
21
0.37808
0
LINE
8
BLACK
6
CONTINUOUS
10
0.485901
20
0.37808
11
0.485948
21
0.378036
0
LINE
8
BLACK
6
CONTINUOUS
10
0.485948
20
0.378036
11
0.48876
21
0.372412
0
LINE
8
BLACK
6
CONTINUOUS
10
0.48876
20
0.372412
11
0.489053
21
0.371429
0
LINE
8
BLACK
6
CONTINUOUS
10
0.489053
20
0.371429
11
0.489012
21
0.371257
0
LINE
8
BLACK
6
CONTINUOUS
10
0.489012
20
0.371257
11
0.489072
21
0.371091
0
LINE
8
BLACK
6
CONTINUOUS
10
0.489072
20
0.371091
11
0.489072
21
0.362655
0
LINE
8
BLACK
6
CONTINUOUS
10
0.489072
20
0.362655
11
0.488894
21
0.361645
0
LINE
8
BLACK
6
CONTINUOUS
10
0.488894
20
0.361645
11
0.48878
21
0.36151
0
LINE
8
BLACK
6
CONTINUOUS
10
0.48878
20
0.36151
11
0.48876
21
0.361334
0
LINE
8
BLACK
6
CONTINUOUS
10
0.48876
20
0.361334
11
0.485948
21
0.35571
0
LINE
8
BLACK
6
CONTINUOUS
10
0.485948
20
0.35571
11
0.485422
21
0.355001
0
LINE
8
BLACK
6
CONTINUOUS
10
0.485422
20
0.355001
11
0.485395
21
0.354942
0
LINE
8
BLACK
6
CONTINUOUS
10
0.485395
20
0.354942
11
0.482583
21
0.35213
0
LINE
8
BLACK
6
CONTINUOUS
10
0.482583
20
0.35213
11
0.48186
21
0.351624
0
LINE
8
BLACK
6
CONTINUOUS
10
0.48186
20
0.351624
11
0.481815
21
0.351577
0
LINE
8
BLACK
6
CONTINUOUS
10
0.481815
20
0.351577
11
0.476191
21
0.348765
0
LINE
8
BLACK
6
CONTINUOUS
10
0.476191
20
0.348765
11
0.475208
21
0.348473
0
LINE
8
BLACK
6
CONTINUOUS
10
0.475208
20
0.348473
11
0.475037
21
0.348514
0
LINE
8
BLACK
6
CONTINUOUS
10
0.475037
20
0.348514
11
0.474871
21
0.348453
0
LINE
8
BLACK
6
CONTINUOUS
10
0.474871
20
0.348453
11
0.472105
21
0.348453
0
LINE
8
BLACK
6
CONTINUOUS
10
0.472105
20
0.348453
11
0.488538
21
0.324978
0
LINE
8
BLACK
6
CONTINUOUS
10
0.488538
20
0.324978
11
0.488971
21
0.324048
0
LINE
8
BLACK
6
CONTINUOUS
10
0.488971
20
0.324048
11
0.488795
21
0.322036
0
LINE
8
BLACK
6
CONTINUOUS
10
0.488795
20
0.322036
11
0.487367
21
0.320608
0
LINE
8
BLACK
6
CONTINUOUS
10
0.487367
20
0.320608
11
0.485355
21
0.320433
0
LINE
8
BLACK
6
CONTINUOUS
10
0.485355
20
0.320433
11
0.4837
21
0.321591
0
LINE
8
BLACK
6
CONTINUOUS
10
0.4837
20
0.321591
11
0.464897
21
0.348453
0
LINE
8
BLACK
6
CONTINUOUS
10
0.464897
20
0.348453
11
0.455326
21
0.348453
0
LINE
8
BLACK
6
CONTINUOUS
10
0.455326
20
0.348453
11
0.455326
21
0.323285
0
LINE
8
BLACK
6
CONTINUOUS
10
0.455326
20
0.323285
11
0.455148
21
0.322275
0
LINE
8
BLACK
6
CONTINUOUS
10
0.455148
20
0.322275
11
0.45385
21
0.320727
0
LINE
8
BLACK
6
CONTINUOUS
10
0.45385
20
0.320727
11
0.451861
21
0.320377
0
LINE
8
BLACK
6
CONTINUOUS
10
0.451861
20
0.320377
11
0.450111
21
0.321387
0
LINE
8
BLACK
6
CONTINUOUS
10
0.450111
20
0.321387
11
0.449421
21
0.323285
0
LINE
8
BLACK
6
CONTINUOUS
10
0.449421
20
0.323285
11
0.449421
21
0.38234
0
LINE
8
BLACK
6
CONTINUOUS
10
0.449421
20
0.38234
11
0.449488
21
0.382723
0
LINE
8
BLACK
6
CONTINUOUS
10
0.449488
20
0.382723
11
0.449466
21
0.382852
0
LINE
8
BLACK
6
CONTINUOUS
10
0.449466
20
0.382852
11
0.449531
21
0.382966
0
LINE
8
BLACK
6
CONTINUOUS
10
0.449531
20
0.382966
11
0.449599
21
0.38335
0
LINE
8
BLACK
6
CONTINUOUS
10
0.449599
20
0.38335
11
0.450092
21
0.383937
0
LINE
8
BLACK
6
CONTINUOUS
10
0.450092
20
0.383937
11
0.450475
21
0.384602
0
LINE
8
BLACK
6
CONTINUOUS
10
0.450475
20
0.384602
11
0.450726
21
0.384693
0
LINE
8
BLACK
6
CONTINUOUS
10
0.450726
20
0.384693
11
0.450897
21
0.384897
0
LINE
8
BLACK
6
CONTINUOUS
10
0.450897
20
0.384897
11
0.451653
21
0.38503
0
LINE
8
BLACK
6
CONTINUOUS
10
0.451653
20
0.38503
11
0.452373
21
0.385292
0
LINE
8
BLACK
6
CONTINUOUS
10
0.452373
20
0.385292
11
0.474871
21
0.385292
0
LINE
8
BLACK
6
CONTINUOUS
10
0.474871
20
0.385292
11
0.475881
21
0.385114
0
LINE
8
BLACK
6
CONTINUOUS
10
0.455326
20
0.379387
11
0.455326
21
0.354359
0
LINE
8
BLACK
6
CONTINUOUS
10
0.455326
20
0.354359
11
0.474174
21
0.354359
0
LINE
8
BLACK
6
CONTINUOUS
10
0.474174
20
0.354359
11
0.478746
21
0.356645
0
LINE
8
BLACK
6
CONTINUOUS
10
0.478746
20
0.356645
11
0.48088
21
0.358779
0
LINE
8
BLACK
6
CONTINUOUS
10
0.48088
20
0.358779
11
0.483166
21
0.363352
0
LINE
8
BLACK
6
CONTINUOUS
10
0.483166
20
0.363352
11
0.483166
21
0.370394
0
LINE
8
BLACK
6
CONTINUOUS
10
0.483166
20
0.370394
11
0.48088
21
0.374966
0
LINE
8
BLACK
6
CONTINUOUS
10
0.48088
20
0.374966
11
0.478746
21
0.377101
0
LINE
8
BLACK
6
CONTINUOUS
10
0.478746
20
0.377101
11
0.474174
21
0.379387
0
LINE
8
BLACK
6
CONTINUOUS
10
0.474174
20
0.379387
11
0.455326
21
0.379387
0
LINE
8
BLACK
6
CONTINUOUS
10
0.951134
20
0.385114
11
0.951269
21
0.385001
0
LINE
8
BLACK
6
CONTINUOUS
10
0.951269
20
0.385001
11
0.951444
21
0.384981
0
LINE
8
BLACK
6
CONTINUOUS
10
0.951444
20
0.384981
11
0.957069
21
0.382169
0
LINE
8
BLACK
6
CONTINUOUS
10
0.957069
20
0.382169
11
0.957778
21
0.381643
0
LINE
8
BLACK
6
CONTINUOUS
10
0.957778
20
0.381643
11
0.957836
21
0.381615
0
LINE
8
BLACK
6
CONTINUOUS
10
0.957836
20
0.381615
11
0.960648
21
0.378803
0
LINE
8
BLACK
6
CONTINUOUS
10
0.960648
20
0.378803
11
0.961154
21
0.37808
0
LINE
8
BLACK
6
CONTINUOUS
10
0.961154
20
0.37808
11
0.961201
21
0.378036
0
LINE
8
BLACK
6
CONTINUOUS
10
0.961201
20
0.378036
11
0.964013
21
0.372412
0
LINE
8
BLACK
6
CONTINUOUS
10
0.964013
20
0.372412
11
0.964306
21
0.371429
0
LINE
8
BLACK
6
CONTINUOUS
10
0.964306
20
0.371429
11
0.964265
21
0.371257
0
LINE
8
BLACK
6
CONTINUOUS
10
0.964265
20
0.371257
11
0.964325
21
0.371091
0
LINE
8
BLACK
6
CONTINUOUS
10
0.964325
20
0.371091
11
0.964325
21
0.362655
0
LINE
8
BLACK
6
CONTINUOUS
10
0.964325
20
0.362655
11
0.964147
21
0.361645
0
LINE
8
BLACK
6
CONTINUOUS
10
0.964147
20
0.361645
11
0.964034
21
0.36151
0
LINE
8
BLACK
6
CONTINUOUS
10
0.964034
20
0.36151
11
0.964013
21
0.361334
0
LINE
8
BLACK
6
CONTINUOUS
10
0.964013
20
0.361334
11
0.961201
21
0.35571
0
LINE
8
BLACK
6
CONTINUOUS
10
0.961201
20
0.35571
11
0.960675
21
0.355001
0
LINE
8
BLACK
6
CONTINUOUS
10
0.960675
20
0.355001
11
0.960648
21
0.354942
0
LINE
8
BLACK
6
CONTINUOUS
10
0.960648
20
0.354942
11
0.957836
21
0.35213
0
LINE
8
BLACK
6
CONTINUOUS
10
0.957836
20
0.35213
11
0.957113
21
0.351624
0
LINE
8
BLACK
6
CONTINUOUS
10
0.957113
20
0.351624
11
0.957069
21
0.351577
0
LINE
8
BLACK
6
CONTINUOUS
10
0.957069
20
0.351577
11
0.951444
21
0.348765
0
LINE
8
BLACK
6
CONTINUOUS
10
0.951444
20
0.348765
11
0.950461
21
0.348473
0
LINE
8
BLACK
6
CONTINUOUS
10
0.950461
20
0.348473
11
0.95029
21
0.348514
0
LINE
8
BLACK
6
CONTINUOUS
10
0.95029
20
0.348514
11
0.950124
21
0.348453
0
LINE
8
BLACK
6
CONTINUOUS
10
0.950124
20
0.348453
11
0.947359
21
0.348453
0
LINE
8
BLACK
6
CONTINUOUS
10
0.947359
20
0.348453
11
0.963791
21
0.324978
0
LINE
8
BLACK
6
CONTINUOUS
10
0.963791
20
0.324978
11
0.964225
21
0.324048
0
LINE
8
BLACK
6
CONTINUOUS
10
0.964225
20
0.324048
11
0.964048
21
0.322036
0
LINE
8
BLACK
6
CONTINUOUS
10
0.964048
20
0.322036
11
0.96262
21
0.320608
0
LINE
8
BLACK
6
CONTINUOUS
10
0.96262
20
0.320608
11
0.960608
21
0.320433
0
LINE
8
BLACK
6
CONTINUOUS
10
0.960608
20
0.320433
11
0.958953
21
0.321591
0
LINE
8
BLACK
6
CONTINUOUS
10
0.958953
20
0.321591
11
0.94015
21
0.348453
0
LINE
8
BLACK
6
CONTINUOUS
10
0.94015
20
0.348453
11
0.930579
21
0.348453
0
LINE
8
BLACK
6
CONTINUOUS
10
0.930579
20
0.348453
11
0.930579
21
0.323285
0
LINE
8
BLACK
6
CONTINUOUS
10
0.930579
20
0.323285
11
0.930401
21
0.322275
0
LINE
8
BLACK
6
CONTINUOUS
10
0.930401
20
0.322275
11
0.929103
21
0.320727
0
LINE
8
BLACK
6
CONTINUOUS
10
0.929103
20
0.320727
11
0.927114
21
0.320377
0
LINE
8
BLACK
6
CONTINUOUS
10
0.927114
20
0.320377
11
0.925365
21
0.321387
0
LINE
8
BLACK
6
CONTINUOUS
10
0.925365
20
0.321387
11
0.924674
21
0.323285
0
LINE
8
BLACK
6
CONTINUOUS
10
0.924674
20
0.323285
11
0.924674
21
0.38234
0
LINE
8
BLACK
6
CONTINUOUS
10
0.924674
20
0.38234
11
0.924741
21
0.382723
0
LINE
8
BLACK
6
CONTINUOUS
10
0.924741
20
0.382723
11
0.924719
21
0.382852
0
LINE
8
BLACK
6
CONTINUOUS
10
0.924719
20
0.382852
11
0.924784
21
0.382966
0
LINE
8
BLACK
6
CONTINUOUS
10
0.924784
20
0.382966
11
0.924852
21
0.38335
0
LINE
8
BLACK
6
CONTINUOUS
10
0.924852
20
0.38335
11
0.925345
21
0.383937
0
LINE
8
BLACK
6
CONTINUOUS
10
0.925345
20
0.383937
11
0.925729
21
0.384602
0
LINE
8
BLACK
6
CONTINUOUS
10
0.925729
20
0.384602
11
0.925979
21
0.384693
0
LINE
8
BLACK
6
CONTINUOUS
10
0.925979
20
0.384693
11
0.92615
21
0.384897
0
LINE
8
BLACK
6
CONTINUOUS
10
0.92615
20
0.384897
11
0.926906
21
0.38503
0
LINE
8
BLACK
6
CONTINUOUS
10
0.926906
20
0.38503
11
0.927627
21
0.385292
0
LINE
8
BLACK
6
CONTINUOUS
10
0.927627
20
0.385292
11
0.950124
21
0.385292
0
LINE
8
BLACK
6
CONTINUOUS
10
0.950124
20
0.385292
11
0.951134
21
0.385114
0
LINE
8
BLACK
6
CONTINUOUS
10
0.930579
20
0.379387
11
0.930579
21
0.354359
0
LINE
8
BLACK
6
CONTINUOUS
10
0.930579
20
0.354359
11
0.949427
21
0.354359
0
LINE
8
BLACK
6
CONTINUOUS
10
0.949427
20
0.354359
11
0.953999
21
0.356645
0
LINE
8
BLACK
6
CONTINUOUS
10
0.953999
20
0.356645
11
0.956133
21
0.358779
0
LINE
8
BLACK
6
CONTINUOUS
10
0.956133
20
0.358779
11
0.95842
21
0.363352
0
LINE
8
BLACK
6
CONTINUOUS
10
0.95842
20
0.363352
11
0.95842
21
0.370394
0
LINE
8
BLACK
6
CONTINUOUS
10
0.95842
20
0.370394
11
0.956133
21
0.374966
0
LINE
8
BLACK
6
CONTINUOUS
10
0.956133
20
0.374966
11
0.953999
21
0.377101
0
LINE
8
BLACK
6
CONTINUOUS
10
0.953999
20
0.377101
11
0.949427
21
0.379387
0
LINE
8
BLACK
6
CONTINUOUS
10
0.949427
20
0.379387
11
0.930579
21
0.379387
0
LINE
8
BLACK
6
CONTINUOUS
10
0.84146
20
0.385114
11
0.841595
21
0.385001
0
LINE
8
BLACK
6
CONTINUOUS
10
0.841595
20
0.385001
11
0.84177
21
0.384981
0
LINE
8
BLACK
6
CONTINUOUS
10
0.84177
20
0.384981
11
0.847395
21
0.382169
0
LINE
8
BLACK
6
CONTINUOUS
10
0.847395
20
0.382169
11
0.848104
21
0.381643
0
LINE
8
BLACK
6
CONTINUOUS
10
0.848104
20
0.381643
11
0.848162
21
0.381615
0
LINE
8
BLACK
6
CONTINUOUS
10
0.848162
20
0.381615
11
0.850974
21
0.378803
0
LINE
8
BLACK
6
CONTINUOUS
10
0.850974
20
0.378803
11
0.851481
21
0.37808
0
LINE
8
BLACK
6
CONTINUOUS
10
0.851481
20
0.37808
11
0.851527
21
0.378036
0
LINE
8
BLACK
6
CONTINUOUS
10
0.851527
20
0.378036
11
0.85434
21
0.372412
0
LINE
8
BLACK
6
CONTINUOUS
10
0.85434
20
0.372412
11
0.854632
21
0.371429
0
LINE
8
BLACK
6
CONTINUOUS
10
0.854632
20
0.371429
11
0.854591
21
0.371257
0
LINE
8
BLACK
6
CONTINUOUS
10
0.854591
20
0.371257
11
0.854651
21
0.371091
0
LINE
8
BLACK
6
CONTINUOUS
10
0.854651
20
0.371091
11
0.854651
21
0.362655
0
LINE
8
BLACK
6
CONTINUOUS
10
0.854651
20
0.362655
11
0.854473
21
0.361645
0
LINE
8
BLACK
6
CONTINUOUS
10
0.854473
20
0.361645
11
0.85436
21
0.36151
0
LINE
8
BLACK
6
CONTINUOUS
10
0.85436
20
0.36151
11
0.85434
21
0.361334
0
LINE
8
BLACK
6
CONTINUOUS
10
0.85434
20
0.361334
11
0.851527
21
0.35571
0
LINE
8
BLACK
6
CONTINUOUS
10
0.851527
20
0.35571
11
0.851001
21
0.355001
0
LINE
8
BLACK
6
CONTINUOUS
10
0.851001
20
0.355001
11
0.850974
21
0.354942
0
LINE
8
BLACK
6
CONTINUOUS
10
0.850974
20
0.354942
11
0.848162
21
0.35213
0
LINE
8
BLACK
6
CONTINUOUS
10
0.848162
20
0.35213
11
0.847439
21
0.351624
0
LINE
8
BLACK
6
CONTINUOUS
10
0.847439
20
0.351624
11
0.847395
21
0.351577
0
LINE
8
BLACK
6
CONTINUOUS
10
0.847395
20
0.351577
11
0.84177
21
0.348765
0
LINE
8
BLACK
6
CONTINUOUS
10
0.84177
20
0.348765
11
0.840787
21
0.348473
0
LINE
8
BLACK
6
CONTINUOUS
10
0.840787
20
0.348473
11
0.840616
21
0.348514
0
LINE
8
BLACK
6
CONTINUOUS
10
0.840616
20
0.348514
11
0.84045
21
0.348453
0
LINE
8
BLACK
6
CONTINUOUS
10
0.84045
20
0.348453
11
0.820906
21
0.348453
0
LINE
8
BLACK
6
CONTINUOUS
10
0.820906
20
0.348453
11
0.820906
21
0.323285
0
LINE
8
BLACK
6
CONTINUOUS
10
0.820906
20
0.323285
11
0.820727
21
0.322275
0
LINE
8
BLACK
6
CONTINUOUS
10
0.820727
20
0.322275
11
0.819429
21
0.320727
0
LINE
8
BLACK
6
CONTINUOUS
10
0.819429
20
0.320727
11
0.81744
21
0.320377
0
LINE
8
BLACK
6
CONTINUOUS
10
0.81744
20
0.320377
11
0.815691
21
0.321387
0
LINE
8
BLACK
6
CONTINUOUS
10
0.815691
20
0.321387
11
0.815
21
0.323285
0
LINE
8
BLACK
6
CONTINUOUS
10
0.815
20
0.323285
11
0.815
21
0.38234
0
LINE
8
BLACK
6
CONTINUOUS
10
0.815
20
0.38234
11
0.815068
21
0.382723
0
LINE
8
BLACK
6
CONTINUOUS
10
0.815068
20
0.382723
11
0.815045
21
0.382852
0
LINE
8
BLACK
6
CONTINUOUS
10
0.815045
20
0.382852
11
0.81511
21
0.382966
0
LINE
8
BLACK
6
CONTINUOUS
10
0.81511
20
0.382966
11
0.815178
21
0.38335
0
LINE
8
BLACK
6
CONTINUOUS
10
0.815178
20
0.38335
11
0.815671
21
0.383937
0
LINE
8
BLACK
6
CONTINUOUS
10
0.815671
20
0.383937
11
0.816055
21
0.384602
0
LINE
8
BLACK
6
CONTINUOUS
10
0.816055
20
0.384602
11
0.816305
21
0.384693
0
LINE
8
BLACK
6
CONTINUOUS
10
0.816305
20
0.384693
11
0.816476
21
0.384897
0
LINE
8
BLACK
6
CONTINUOUS
10
0.816476
20
0.384897
11
0.817232
21
0.38503
0
LINE
8
BLACK
6
CONTINUOUS
10
0.817232
20
0.38503
11
0.817953
21
0.385292
0
LINE
8
BLACK
6
CONTINUOUS
10
0.817953
20
0.385292
11
0.84045
21
0.385292
0
LINE
8
BLACK
6
CONTINUOUS
10
0.84045
20
0.385292
11
0.84146
21
0.385114
0
LINE
8
BLACK
6
CONTINUOUS
10
0.820906
20
0.379387
11
0.820906
21
0.354359
0
LINE
8
BLACK
6
CONTINUOUS
10
0.820906
20
0.354359
11
0.839753
21
0.354359
0
LINE
8
BLACK
6
CONTINUOUS
10
0.839753
20
0.354359
11
0.844325
21
0.356645
0
LINE
8
BLACK
6
CONTINUOUS
10
0.844325
20
0.356645
11
0.84646
21
0.358779
0
LINE
8
BLACK
6
CONTINUOUS
10
0.84646
20
0.358779
11
0.848746
21
0.363352
0
LINE
8
BLACK
6
CONTINUOUS
10
0.848746
20
0.363352
11
0.848746
21
0.370394
0
LINE
8
BLACK
6
CONTINUOUS
10
0.848746
20
0.370394
11
0.84646
21
0.374966
0
LINE
8
BLACK
6
CONTINUOUS
10
0.84646
20
0.374966
11
0.844325
21
0.377101
0
LINE
8
BLACK
6
CONTINUOUS
10
0.844325
20
0.377101
11
0.839753
21
0.379387
0
LINE
8
BLACK
6
CONTINUOUS
10
0.839753
20
0.379387
11
0.820906
21
0.379387
0
LINE
8
BLACK
6
CONTINUOUS
10
0.390384
20
0.962885
11
0.390513
21
0.962908
0
LINE
8
BLACK
6
CONTINUOUS
10
0.390513
20
0.962908
11
0.390626
21
0.962842
0
LINE
8
BLACK
6
CONTINUOUS
10
0.390626
20
0.962842
11
0.39101
21
0.962775
0
LINE
8
BLACK
6
CONTINUOUS
10
0.39101
20
0.962775
11
0.391598
21
0.962282
0
LINE
8
BLACK
6
CONTINUOUS
10
0.391598
20
0.962282
11
0.392262
21
0.961898
0
LINE
8
BLACK
6
CONTINUOUS
10
0.392262
20
0.961898
11
0.392353
21
0.961648
0
LINE
8
BLACK
6
CONTINUOUS
10
0.392353
20
0.961648
11
0.392557
21
0.961476
0
LINE
8
BLACK
6
CONTINUOUS
10
0.392557
20
0.961476
11
0.39269
21
0.960721
0
LINE
8
BLACK
6
CONTINUOUS
10
0.39269
20
0.960721
11
0.392953
21
0.96
0
LINE
8
BLACK
6
CONTINUOUS
10
0.392953
20
0.96
11
0.392953
21
0.46
0
LINE
8
BLACK
6
CONTINUOUS
10
0.392953
20
0.46
11
0.392885
21
0.459616
0
LINE
8
BLACK
6
CONTINUOUS
10
0.392885
20
0.459616
11
0.392908
21
0.459487
0
LINE
8
BLACK
6
CONTINUOUS
10
0.392908
20
0.459487
11
0.392842
21
0.459374
0
LINE
8
BLACK
6
CONTINUOUS
10
0.392842
20
0.459374
11
0.392775
21
0.45899
0
LINE
8
BLACK
6
CONTINUOUS
10
0.392775
20
0.45899
11
0.392282
21
0.458402
0
LINE
8
BLACK
6
CONTINUOUS
10
0.392282
20
0.458402
11
0.391898
21
0.457738
0
LINE
8
BLACK
6
CONTINUOUS
10
0.391898
20
0.457738
11
0.391648
21
0.457647
0
LINE
8
BLACK
6
CONTINUOUS
10
0.391648
20
0.457647
11
0.391476
21
0.457443
0
LINE
8
BLACK
6
CONTINUOUS
10
0.391476
20
0.457443
11
0.390721
21
0.45731
0
LINE
8
BLACK
6
CONTINUOUS
10
0.390721
20
0.45731
11
0.39
21
0.457047
0
LINE
8
BLACK
6
CONTINUOUS
10
0.39
20
0.457047
11
0.19
21
0.457047
0
LINE
8
BLACK
6
CONTINUOUS
10
0.19
20
0.457047
11
0.189616
21
0.457115
0
LINE
8
BLACK
6
CONTINUOUS
10
0.189616
20
0.457115
11
0.189487
21
0.457092
0
LINE
8
BLACK
6
CONTINUOUS
10
0.189487
20
0.457092
11
0.189374
21
0.457158
0
LINE
8
BLACK
6
CONTINUOUS
10
0.189374
20
0.457158
11
0.18899
21
0.457225
0
LINE
8
BLACK
6
CONTINUOUS
10
0.18899
20
0.457225
11
0.188402
21
0.457718
0
LINE
8
BLACK
6
CONTINUOUS
10
0.188402
20
0.457718
11
0.187738
21
0.458102
0
LINE
8
BLACK
6
CONTINUOUS
10
0.187738
20
0.458102
11
0.187647
21
0.458352
0
LINE
8
BLACK
6
CONTINUOUS
10
0.187647
20
0.458352
11
0.187443
21
0.458524
0
LINE
8
BLACK
6
CONTINUOUS
10
0.187443
20
0.458524
11
0.18731
21
0.459279
0
LINE
8
BLACK
6
CONTINUOUS
10
0.18731
20
0.459279
11
0.187047
21
0.46
0
LINE
8
BLACK
6
CONTINUOUS
10
0.187047
20
0.46
11
0.187047
21
0.96
0
LINE
8
BLACK
6
CONTINUOUS
10
0.187047
20
0.96
11
0.187115
21
0.960384
0
LINE
8
BLACK
6
CONTINUOUS
10
0.187115
20
0.960384
11
0.187092
21
0.960513
0
LINE
8
BLACK
6
CONTINUOUS
10
0.187092
20
0.960513
11
0.187158
21
0.960626
0
LINE
8
BLACK
6
CONTINUOUS
10
0.187158
20
0.960626
11
0.187225
21
0.96101
0
LINE
8
BLACK
6
CONTINUOUS
10
0.187225
20
0.96101
11
0.187718
21
0.961598
0
LINE
8
BLACK
6
CONTINUOUS
10
0.187718
20
0.961598
11
0.188102
21
0.962262
0
LINE
8
BLACK
6
CONTINUOUS
10
0.188102
20
0.962262
11
0.188352
21
0.962353
0
LINE
8
BLACK
6
CONTINUOUS
10
0.188352
20
0.962353
11
0.188524
21
0.962557
0
LINE
8
BLACK
6
CONTINUOUS
10
0.188524
20
0.962557
11
0.189279
21
0.96269
0
LINE
8
BLACK
6
CONTINUOUS
10
0.189279
20
0.96269
11
0.19
21
0.962953
0
LINE
8
BLACK
6
CONTINUOUS
10
0.19
20
0.962953
11
0.39
21
0.962953
0
LINE
8
BLACK
6
CONTINUOUS
10
0.39
20
0.962953
11
0.390384
21
0.962885
0
LINE
8
BLACK
6
CONTINUOUS
10
0.192953
20
0.957047
11
0.192953
21
0.462953
0
LINE
8
BLACK
6
CONTINUOUS
10
0.192953
20
0.462953
11
0.387047
21
0.462953
0
LINE
8
BLACK
6
CONTINUOUS
10
0.387047
20
0.462953
11
0.387047
21
0.957047
0
LINE
8
BLACK
6
CONTINUOUS
10
0.387047
20
0.957047
11
0.192953
21
0.957047
0
LINE
8
BLACK
6
CONTINUOUS
10
0.27
20
0.48
11
0.21
21
0.48
0
LINE
8
BLACK
6
CONTINUOUS
10
0.21
20
0.48
11
0.21
21
0.54
0
LINE
8
BLACK
6
CONTINUOUS
10
0.21
20
0.54
11
0.27
21
0.54
0
LINE
8
BLACK
6
CONTINUOUS
10
0.27
20
0.54
11
0.27
21
0.48
0
LINE
8
BLACK
6
CONTINUOUS
10
0.37
20
0.48
11
0.31
21
0.48
0
LINE
8
BLACK
6
CONTINUOUS
10
0.31
20
0.48
11
0.31
21
0.54
0
LINE
8
BLACK
6
CONTINUOUS
10
0.31
20
0.54
11
0.37
21
0.54
0
LINE
8
BLACK
6
CONTINUOUS
10
0.37
20
0.54
11
0.37
21
0.48
0
LINE
8
BLACK
6
CONTINUOUS
10
0.37
20
0.58
11
0.31
21
0.58
0
LINE
8
BLACK
6
CONTINUOUS
10
0.31
20
0.58
11
0.31
21
0.64
0
LINE
8
BLACK
6
CONTINUOUS
10
0.31
20
0.64
11
0.37
21
0.64
0
LINE
8
BLACK
6
CONTINUOUS
10
0.37
20
0.64
11
0.37
21
0.58
0
LINE
8
BLACK
6
CONTINUOUS
10
0.27
20
0.58
11
0.21
21
0.58
0
LINE
8
BLACK
6
CONTINUOUS
10
0.21
20
0.58
11
0.21
21
0.64
0
LINE
8
BLACK
6
CONTINUOUS
10
0.21
20
0.64
11
0.27
21
0.64
0
LINE
8
BLACK
6
CONTINUOUS
10
0.27
20
0.64
11
0.27
21
0.58
0
LINE
8
BLACK
6
CONTINUOUS
10
0.27
20
0.68
11
0.21
21
0.68
0
LINE
8
BLACK
6
CONTINUOUS
10
0.21
20
0.68
11
0.21
21
0.74
0
LINE
8
BLACK
6
CONTINUOUS
10
0.21
20
0.74
11
0.27
21
0.74
0
LINE
8
BLACK
6
CONTINUOUS
10
0.27
20
0.74
11
0.27
21
0.68
0
LINE
8
BLACK
6
CONTINUOUS
10
0.37
20
0.68
11
0.31
21
0.68
0
LINE
8
BLACK
6
CONTINUOUS
10
0.31
20
0.68
11
0.31
21
0.74
0
LINE
8
BLACK
6
CONTINUOUS
10
0.31
20
0.74
11
0.37
21
0.74
0
LINE
8
BLACK
6
CONTINUOUS
10
0.37
20
0.74
11
0.37
21
0.68
0
LINE
8
BLACK
6
CONTINUOUS
10
0.37
20
0.78
11
0.31
21
0.78
0
LINE
8
BLACK
6
CONTINUOUS
10
0.31
20
0.78
11
0.31
21
0.84
0
LINE
8
BLACK
6
CONTINUOUS
10
0.31
20
0.84
11
0.37
21
0.84
0
LINE
8
BLACK
6
CONTINUOUS
10
0.37
20
0.84
11
0.37
21
0.78
0
LINE
8
BLACK
6
CONTINUOUS
10
0.27
20
0.78
11
0.21
21
0.78
0
LINE
8
BLACK
6
CONTINUOUS
10
0.21
20
0.78
11
0.21
21
0.84
0
LINE
8
BLACK
6
CONTINUOUS
10
0.21
20
0.84
11
0.27
21
0.84
0
LINE
8
BLACK
6
CONTINUOUS
10
0.27
20
0.84
11
0.27
21
0.78
0
LINE
8
BLACK
6
CONTINUOUS
10
0.37
20
0.88
11
0.31
21
0.88
0
LINE
8
BLACK
6
CONTINUOUS
10
0.31
20
0.88
11
0.31
21
0.94
0
LINE
8
BLACK
6
CONTINUOUS
10
0.31
20
0.94
11
0.37
21
0.94
0
LINE
8
BLACK
6
CONTINUOUS
10
0.37
20
0.94
11
0.37
21
0.88
0
LINE
8
BLACK
6
CONTINUOUS
10
0.27
20
0.88
11
0.21
21
0.88
0
LINE
8
BLACK
6
CONTINUOUS
10
0.21
20
0.88
11
0.21
21
0.94
0
LINE
8
BLACK
6
CONTINUOUS
10
0.21
20
0.94
11
0.27
21
0.94
0
LINE
8
BLACK
6
CONTINUOUS
10
0.27
20
0.94
11
0.27
21
0.88
0
LINE
8
BLACK
6
CONTINUOUS
10
0.922536
20
0.668206
11
0.923228
21
0.666535
0
LINE
8
BLACK
6
CONTINUOUS
10
0.923228
20
0.666535
11
0.922536
21
0.664865
0
LINE
8
BLACK
6
CONTINUOUS
10
0.922536
20
0.664865
11
0.920866
21
0.664173
0
LINE
8
BLACK
6
CONTINUOUS
10
0.920866
20
0.664173
11
0.687402
21
0.664173
0
LINE
8
BLACK
6
CONTINUOUS
10
0.687402
20
0.664173
11
0.685731
21
0.664865
0
LINE
8
BLACK
6
CONTINUOUS
10
0.685731
20
0.664865
11
0.685039
21
0.666535
0
LINE
8
BLACK
6
CONTINUOUS
10
0.685039
20
0.666535
11
0.685731
21
0.668206
0
LINE
8
BLACK
6
CONTINUOUS
10
0.685731
20
0.668206
11
0.687402
21
0.668898
0
LINE
8
BLACK
6
CONTINUOUS
10
0.687402
20
0.668898
11
0.920866
21
0.668898
0
LINE
8
BLACK
6
CONTINUOUS
10
0.920866
20
0.668898
11
0.922536
21
0.668206
0
LINE
8
BLACK
6
CONTINUOUS
10
0.639764
20
0.777559
11
0.639072
21
0.775889
0
LINE
8
BLACK
6
CONTINUOUS
10
0.639072
20
0.775889
11
0.637402
21
0.775197
0
LINE
8
BLACK
6
CONTINUOUS
10
0.637402
20
0.775197
11
0.635731
21
0.775889
0
LINE
8
BLACK
6
CONTINUOUS
10
0.635731
20
0.775889
11
0.635039
21
0.777559
0
LINE
8
BLACK
6
CONTINUOUS
10
0.635039
20
0.777559
11
0.635039
21
0.834646
0
LINE
8
BLACK
6
CONTINUOUS
10
0.635039
20
0.834646
11
0.635731
21
0.836316
0
LINE
8
BLACK
6
CONTINUOUS
10
0.635731
20
0.836316
11
0.637402
21
0.837008
0
LINE
8
BLACK
6
CONTINUOUS
10
0.637402
20
0.837008
11
0.705906
21
0.837008
0
LINE
8
BLACK
6
CONTINUOUS
10
0.705906
20
0.837008
11
0.705906
21
0.873622
0
LINE
8
BLACK
6
CONTINUOUS
10
0.705906
20
0.873622
11
0.706597
21
0.875292
0
LINE
8
BLACK
6
CONTINUOUS
10
0.706597
20
0.875292
11
0.708268
21
0.875984
0
LINE
8
BLACK
6
CONTINUOUS
10
0.708268
20
0.875984
11
0.709938
21
0.875292
0
LINE
8
BLACK
6
CONTINUOUS
10
0.709938
20
0.875292
11
0.71063
21
0.873622
0
LINE
8
BLACK
6
CONTINUOUS
10
0.71063
20
0.873622
11
0.71063
21
0.834646
0
LINE
8
BLACK
6
CONTINUOUS
10
0.71063
20
0.834646
11
0.709938
21
0.832975
0
LINE
8
BLACK
6
CONTINUOUS
10
0.709938
20
0.832975
11
0.708268
21
0.832283
0
LINE
8
BLACK
6
CONTINUOUS
10
0.708268
20
0.832283
11
0.639764
21
0.832283
0
LINE
8
BLACK
6
CONTINUOUS
10
0.639764
20
0.832283
11
0.639764
21
0.777559
0
LINE
8
BLACK
6
CONTINUOUS
10
0.972536
20
0.836316
11
0.973228
21
0.834646
0
LINE
8
BLACK
6
CONTINUOUS
10
0.973228
20
0.834646
11
0.973228
21
0.777559
0
LINE
8
BLACK
6
CONTINUOUS
10
0.973228
20
0.777559
11
0.972536
21
0.775889
0
LINE
8
BLACK
6
CONTINUOUS
10
0.972536
20
0.775889
11
0.970866
21
0.775197
0
LINE
8
BLACK
6
CONTINUOUS
10
0.970866
20
0.775197
11
0.969196
21
0.775889
0
LINE
8
BLACK
6
CONTINUOUS
10
0.969196
20
0.775889
11
0.968504
21
0.777559
0
LINE
8
BLACK
6
CONTINUOUS
10
0.968504
20
0.777559
11
0.968504
21
0.832283
0
LINE
8
BLACK
6
CONTINUOUS
10
0.968504
20
0.832283
11
0.9
21
0.832283
0
LINE
8
BLACK
6
CONTINUOUS
10
0.9
20
0.832283
11
0.89833
21
0.832975
0
LINE
8
BLACK
6
CONTINUOUS
10
0.89833
20
0.832975
11
0.897638
21
0.834646
0
LINE
8
BLACK
6
CONTINUOUS
10
0.897638
20
0.834646
11
0.89833
21
0.836316
0
LINE
8
BLACK
6
CONTINUOUS
10
0.89833
20
0.836316
11
0.9
21
0.837008
0
LINE
8
BLACK
6
CONTINUOUS
10
0.9
20
0.837008
11
0.970866
21
0.837008
0
LINE
8
BLACK
6
CONTINUOUS
10
0.970866
20
0.837008
11
0.972536
21
0.836316
0
LINE
8
BLACK
6
CONTINUOUS
10
0.819478
20
0.945304
11
0.819645
21
0.945334
0
LINE
8
BLACK
6
CONTINUOUS
10
0.819645
20
0.945334
11
0.820387
21
0.944905
0
LINE
8
BLACK
6
CONTINUOUS
10
0.820387
20
0.944905
11
0.821172
21
0.944561
0
LINE
8
BLACK
6
CONTINUOUS
10
0.821172
20
0.944561
11
0.821247
21
0.944409
0
LINE
8
BLACK
6
CONTINUOUS
10
0.821247
20
0.944409
11
0.821394
21
0.944324
0
LINE
8
BLACK
6
CONTINUOUS
10
0.821394
20
0.944324
11
0.821687
21
0.943519
0
LINE
8
BLACK
6
CONTINUOUS
10
0.821687
20
0.943519
11
0.822067
21
0.942751
0
LINE
8
BLACK
6
CONTINUOUS
10
0.822067
20
0.942751
11
0.822027
21
0.942586
0
LINE
8
BLACK
6
CONTINUOUS
10
0.822027
20
0.942586
11
0.822085
21
0.942426
0
LINE
8
BLACK
6
CONTINUOUS
10
0.822085
20
0.942426
11
0.822085
21
0.906009
0
LINE
8
BLACK
6
CONTINUOUS
10
0.822085
20
0.906009
11
0.830381
21
0.906009
0
LINE
8
BLACK
6
CONTINUOUS
10
0.830381
20
0.906009
11
0.83139
21
0.905831
0
LINE
8
BLACK
6
CONTINUOUS
10
0.83139
20
0.905831
11
0.832938
21
0.904532
0
LINE
8
BLACK
6
CONTINUOUS
10
0.832938
20
0.904532
11
0.833288
21
0.902543
0
LINE
8
BLACK
6
CONTINUOUS
10
0.833288
20
0.902543
11
0.832279
21
0.900794
0
LINE
8
BLACK
6
CONTINUOUS
10
0.832279
20
0.900794
11
0.830381
21
0.900103
0
LINE
8
BLACK
6
CONTINUOUS
10
0.830381
20
0.900103
11
0.807883
21
0.900103
0
LINE
8
BLACK
6
CONTINUOUS
10
0.807883
20
0.900103
11
0.806873
21
0.900281
0
LINE
8
BLACK
6
CONTINUOUS
10
0.806873
20
0.900281
11
0.805326
21
0.90158
0
LINE
8
BLACK
6
CONTINUOUS
10
0.805326
20
0.90158
11
0.804975
21
0.903569
0
LINE
8
BLACK
6
CONTINUOUS
10
0.804975
20
0.903569
11
0.805985
21
0.905318
0
LINE
8
BLACK
6
CONTINUOUS
10
0.805985
20
0.905318
11
0.807883
21
0.906009
0
LINE
8
BLACK
6
CONTINUOUS
10
0.807883
20
0.906009
11
0.816179
21
0.906009
0
LINE
8
BLACK
6
CONTINUOUS
10
0.816179
20
0.906009
11
0.816179
21
0.933423
0
LINE
8
BLACK
6
CONTINUOUS
10
0.816179
20
0.933423
11
0.813721
21
0.930964
0
LINE
8
BLACK
6
CONTINUOUS
10
0.813721
20
0.930964
11
0.812998
21
0.930458
0
LINE
8
BLACK
6
CONTINUOUS
10
0.812998
20
0.930458
11
0.812953
21
0.930411
0
LINE
8
BLACK
6
CONTINUOUS
10
0.812953
20
0.930411
11
0.809204
21
0.928536
0
LINE
8
BLACK
6
CONTINUOUS
10
0.809204
20
0.928536
11
0.808221
21
0.928244
0
LINE
8
BLACK
6
CONTINUOUS
10
0.808221
20
0.928244
11
0.806256
21
0.928713
0
LINE
8
BLACK
6
CONTINUOUS
10
0.806256
20
0.928713
11
0.805053
21
0.930336
0
LINE
8
BLACK
6
CONTINUOUS
10
0.805053
20
0.930336
11
0.805174
21
0.932352
0
LINE
8
BLACK
6
CONTINUOUS
10
0.805174
20
0.932352
11
0.806563
21
0.933818
0
LINE
8
BLACK
6
CONTINUOUS
10
0.806563
20
0.933818
11
0.809884
21
0.935479
0
LINE
8
BLACK
6
CONTINUOUS
10
0.809884
20
0.935479
11
0.813088
21
0.938683
0
LINE
8
BLACK
6
CONTINUOUS
10
0.813088
20
0.938683
11
0.816675
21
0.944064
0
LINE
8
BLACK
6
CONTINUOUS
10
0.816675
20
0.944064
11
0.817384
21
0.944805
0
LINE
8
BLACK
6
CONTINUOUS
10
0.817384
20
0.944805
11
0.817546
21
0.944853
0
LINE
8
BLACK
6
CONTINUOUS
10
0.817546
20
0.944853
11
0.817656
21
0.944983
0
LINE
8
BLACK
6
CONTINUOUS
10
0.817656
20
0.944983
11
0.818499
21
0.945132
0
LINE
8
BLACK
6
CONTINUOUS
10
0.818499
20
0.945132
11
0.819322
21
0.945373
0
LINE
8
BLACK
6
CONTINUOUS
10
0.819322
20
0.945373
11
0.819478
21
0.945304
0
LINE
8
BLACK
6
CONTINUOUS
10
0.793272
20
0.944324
11
0.793963
21
0.942426
0
LINE
8
BLACK
6
CONTINUOUS
10
0.793963
20
0.942426
11
0.793963
21
0.914304
0
LINE
8
BLACK
6
CONTINUOUS
10
0.793963
20
0.914304
11
0.79381
21
0.913435
0
LINE
8
BLACK
6
CONTINUOUS
10
0.79381
20
0.913435
11
0.793812
21
0.913371
0
LINE
8
BLACK
6
CONTINUOUS
10
0.793812
20
0.913371
11
0.791937
21
0.907746
0
LINE
8
BLACK
6
CONTINUOUS
10
0.791937
20
0.907746
11
0.791449
21
0.906845
0
LINE
8
BLACK
6
CONTINUOUS
10
0.791449
20
0.906845
11
0.791298
21
0.906752
0
LINE
8
BLACK
6
CONTINUOUS
10
0.791298
20
0.906752
11
0.791224
21
0.906592
0
LINE
8
BLACK
6
CONTINUOUS
10
0.791224
20
0.906592
11
0.787474
21
0.902843
0
LINE
8
BLACK
6
CONTINUOUS
10
0.787474
20
0.902843
11
0.786634
21
0.902255
0
LINE
8
BLACK
6
CONTINUOUS
10
0.786634
20
0.902255
11
0.786458
21
0.902239
0
LINE
8
BLACK
6
CONTINUOUS
10
0.786458
20
0.902239
11
0.78632
21
0.902129
0
LINE
8
BLACK
6
CONTINUOUS
10
0.78632
20
0.902129
11
0.780696
21
0.900255
0
LINE
8
BLACK
6
CONTINUOUS
10
0.780696
20
0.900255
11
0.779822
21
0.900125
0
LINE
8
BLACK
6
CONTINUOUS
10
0.779822
20
0.900125
11
0.779762
21
0.900103
0
LINE
8
BLACK
6
CONTINUOUS
10
0.779762
20
0.900103
11
0.776012
21
0.900103
0
LINE
8
BLACK
6
CONTINUOUS
10
0.776012
20
0.900103
11
0.775002
21
0.900281
0
LINE
8
BLACK
6
CONTINUOUS
10
0.775002
20
0.900281
11
0.773455
21
0.90158
0
LINE
8
BLACK
6
CONTINUOUS
10
0.773455
20
0.90158
11
0.773104
21
0.903569
0
LINE
8
BLACK
6
CONTINUOUS
10
0.773104
20
0.903569
11
0.774114
21
0.905318
0
LINE
8
BLACK
6
CONTINUOUS
10
0.774114
20
0.905318
11
0.776012
21
0.906009
0
LINE
8
BLACK
6
CONTINUOUS
10
0.776012
20
0.906009
11
0.779283
21
0.906009
0
LINE
8
BLACK
6
CONTINUOUS
10
0.779283
20
0.906009
11
0.783791
21
0.907511
0
LINE
8
BLACK
6
CONTINUOUS
10
0.783791
20
0.907511
11
0.786555
21
0.910275
0
LINE
8
BLACK
6
CONTINUOUS
10
0.786555
20
0.910275
11
0.788058
21
0.914784
0
LINE
8
BLACK
6
CONTINUOUS
10
0.788058
20
0.914784
11
0.788058
21
0.942426
0
LINE
8
BLACK
6
CONTINUOUS
10
0.788058
20
0.942426
11
0.788236
21
0.943436
0
LINE
8
BLACK
6
CONTINUOUS
10
0.788236
20
0.943436
11
0.789534
21
0.944983
0
LINE
8
BLACK
6
CONTINUOUS
10
0.789534
20
0.944983
11
0.791523
21
0.945334
0
LINE
8
BLACK
6
CONTINUOUS
10
0.791523
20
0.945334
11
0.793272
21
0.944324
0
LINE
8
BLACK
6
CONTINUOUS
10
0.16868
20
0.900399
11
0.168391
21
0.901095
0
LINE
8
BLACK
6
CONTINUOUS
10
0.168391
20
0.901095
11
0.16868
21
0.901791
0
LINE
8
BLACK
6
CONTINUOUS
10
0.16868
20
0.901791
11
0.169376
21
0.902079
0
LINE
8
BLACK
6
CONTINUOUS
10
0.169376
20
0.902079
11
0.174016
21
0.902079
0
LINE
8
BLACK
6
CONTINUOUS
10
0.174016
20
0.902079
11
0.174016
21
0.917529
0
LINE
8
BLACK
6
CONTINUOUS
10
0.174016
20
0.917529
11
0.173944
21
0.917422
0
LINE
8
BLACK
6
CONTINUOUS
10
0.173944
20
0.917422
11
0.17386
21
0.917365
0
LINE
8
BLACK
6
CONTINUOUS
10
0.17386
20
0.917365
11
0.173821
21
0.917272
0
LINE
8
BLACK
6
CONTINUOUS
10
0.173821
20
0.917272
11
0.171946
21
0.915397
0
LINE
8
BLACK
6
CONTINUOUS
10
0.171946
20
0.915397
11
0.171797
21
0.915335
0
LINE
8
BLACK
6
CONTINUOUS
10
0.171797
20
0.915335
11
0.171691
21
0.915213
0
LINE
8
BLACK
6
CONTINUOUS
10
0.171691
20
0.915213
11
0.169816
21
0.914275
0
LINE
8
BLACK
6
CONTINUOUS
10
0.169816
20
0.914275
11
0.169064
21
0.914222
0
LINE
8
BLACK
6
CONTINUOUS
10
0.169064
20
0.914222
11
0.168495
21
0.914715
0
LINE
8
BLACK
6
CONTINUOUS
10
0.168495
20
0.914715
11
0.168442
21
0.915467
0
LINE
8
BLACK
6
CONTINUOUS
10
0.168442
20
0.915467
11
0.168936
21
0.916036
0
LINE
8
BLACK
6
CONTINUOUS
10
0.168936
20
0.916036
11
0.170667
21
0.916902
0
LINE
8
BLACK
6
CONTINUOUS
10
0.170667
20
0.916902
11
0.17236
21
0.918595
0
LINE
8
BLACK
6
CONTINUOUS
10
0.17236
20
0.918595
11
0.174181
21
0.921326
0
LINE
8
BLACK
6
CONTINUOUS
10
0.174181
20
0.921326
11
0.174265
21
0.921382
0
LINE
8
BLACK
6
CONTINUOUS
10
0.174265
20
0.921382
11
0.174304
21
0.921476
0
LINE
8
BLACK
6
CONTINUOUS
10
0.174304
20
0.921476
11
0.174569
21
0.921586
0
LINE
8
BLACK
6
CONTINUOUS
10
0.174569
20
0.921586
11
0.174807
21
0.921745
0
LINE
8
BLACK
6
CONTINUOUS
10
0.174807
20
0.921745
11
0.174906
21
0.921725
0
LINE
8
BLACK
6
CONTINUOUS
10
0.174906
20
0.921725
11
0.175
21
0.921764
0
LINE
8
BLACK
6
CONTINUOUS
10
0.175
20
0.921764
11
0.175265
21
0.921654
0
LINE
8
BLACK
6
CONTINUOUS
10
0.175265
20
0.921654
11
0.175546
21
0.921599
0
LINE
8
BLACK
6
CONTINUOUS
10
0.175546
20
0.921599
11
0.175602
21
0.921515
0
LINE
8
BLACK
6
CONTINUOUS
10
0.175602
20
0.921515
11
0.175696
21
0.921476
0
LINE
8
BLACK
6
CONTINUOUS
10
0.175696
20
0.921476
11
0.175806
21
0.921211
0
LINE
8
BLACK
6
CONTINUOUS
10
0.175806
20
0.921211
11
0.175965
21
0.920973
0
LINE
8
BLACK
6
CONTINUOUS
10
0.175965
20
0.920973
11
0.175945
21
0.920874
0
LINE
8
BLACK
6
CONTINUOUS
10
0.175945
20
0.920874
11
0.175984
21
0.92078
0
LINE
8
BLACK
6
CONTINUOUS
10
0.175984
20
0.92078
11
0.175984
21
0.902079
0
LINE
8
BLACK
6
CONTINUOUS
10
0.175984
20
0.902079
11
0.180624
21
0.902079
0
LINE
8
BLACK
6
CONTINUOUS
10
0.180624
20
0.902079
11
0.18132
21
0.901791
0
LINE
8
BLACK
6
CONTINUOUS
10
0.18132
20
0.901791
11
0.181609
21
0.901095
0
LINE
8
BLACK
6
CONTINUOUS
10
0.181609
20
0.901095
11
0.18132
21
0.900399
0
LINE
8
BLACK
6
CONTINUOUS
10
0.18132
20
0.900399
11
0.180624
21
0.900111
0
LINE
8
BLACK
6
CONTINUOUS
10
0.180624
20
0.900111
11
0.169376
21
0.900111
0
LINE
8
BLACK
6
CONTINUOUS
10
0.169376
20
0.900111
11
0.16868
21
0.900399
0
LINE
8
BLACK
6
CONTINUOUS
10
0.918403
20
1.02687
11
0.919094
21
1.0252
0
LINE
8
BLACK
6
CONTINUOUS
10
0.919094
20
1.0252
11
0.918403
21
1.02353
0
LINE
8
BLACK
6
CONTINUOUS
10
0.918403
20
1.02353
11
0.916732
21
1.02283
0
LINE
8
BLACK
6
CONTINUOUS
10
0.916732
20
1.02283
11
0.683268
21
1.02283
0
LINE
8
BLACK
6
CONTINUOUS
10
0.683268
20
1.02283
11
0.681597
21
1.02353
0
LINE
8
BLACK
6
CONTINUOUS
10
0.681597
20
1.02353
11
0.680906
21
1.0252
0
LINE
8
BLACK
6
CONTINUOUS
10
0.680906
20
1.0252
11
0.681597
21
1.02687
0
LINE
8
BLACK
6
CONTINUOUS
10
0.681597
20
1.02687
11
0.683268
21
1.02756
0
LINE
8
BLACK
6
CONTINUOUS
10
0.683268
20
1.02756
11
0.916732
21
1.02756
0
LINE
8
BLACK
6
CONTINUOUS
10
0.916732
20
1.02756
11
0.918403
21
1.02687
0
LINE
8
BLACK
6
CONTINUOUS
10
0.968403
20
1.19498
11
0.969094
21
1.19331
0
LINE
8
BLACK
6
CONTINUOUS
10
0.969094
20
1.19331
11
0.969094
21
1.13622
0
LINE
8
BLACK
6
CONTINUOUS
10
0.969094
20
1.13622
11
0.968403
21
1.13455
0
LINE
8
BLACK
6
CONTINUOUS
10
0.968403
20
1.13455
11
0.966732
21
1.13386
0
LINE
8
BLACK
6
CONTINUOUS
10
0.966732
20
1.13386
11
0.965062
21
1.13455
0
LINE
8
BLACK
6
CONTINUOUS
10
0.965062
20
1.13455
11
0.96437
21
1.13622
0
LINE
8
BLACK
6
CONTINUOUS
10
0.96437
20
1.13622
11
0.96437
21
1.19094
0
LINE
8
BLACK
6
CONTINUOUS
10
0.96437
20
1.19094
11
0.895866
21
1.19094
0
LINE
8
BLACK
6
CONTINUOUS
10
0.895866
20
1.19094
11
0.894196
21
1.19164
0
LINE
8
BLACK
6
CONTINUOUS
10
0.894196
20
1.19164
11
0.893504
21
1.19331
0
LINE
8
BLACK
6
CONTINUOUS
10
0.893504
20
1.19331
11
0.894196
21
1.19498
0
LINE
8
BLACK
6
CONTINUOUS
10
0.894196
20
1.19498
11
0.895866
21
1.19567
0
LINE
8
BLACK
6
CONTINUOUS
10
0.895866
20
1.19567
11
0.966732
21
1.19567
0
LINE
8
BLACK
6
CONTINUOUS
10
0.966732
20
1.19567
11
0.968403
21
1.19498
0
LINE
8
BLACK
6
CONTINUOUS
10
0.63563
20
1.13622
11
0.634938
21
1.13455
0
LINE
8
BLACK
6
CONTINUOUS
10
0.634938
20
1.13455
11
0.633268
21
1.13386
0
LINE
8
BLACK
6
CONTINUOUS
10
0.633268
20
1.13386
11
0.631597
21
1.13455
0
LINE
8
BLACK
6
CONTINUOUS
10
0.631597
20
1.13455
11
0.630906
21
1.13622
0
LINE
8
BLACK
6
CONTINUOUS
10
0.630906
20
1.13622
11
0.630906
21
1.19331
0
LINE
8
BLACK
6
CONTINUOUS
10
0.630906
20
1.19331
11
0.631597
21
1.19498
0
LINE
8
BLACK
6
CONTINUOUS
10
0.631597
20
1.19498
11
0.633268
21
1.19567
0
LINE
8
BLACK
6
CONTINUOUS
10
0.633268
20
1.19567
11
0.701772
21
1.19567
0
LINE
8
BLACK
6
CONTINUOUS
10
0.701772
20
1.19567
11
0.701772
21
1.23228
0
LINE
8
BLACK
6
CONTINUOUS
10
0.701772
20
1.23228
11
0.702464
21
1.23395
0
LINE
8
BLACK
6
CONTINUOUS
10
0.702464
20
1.23395
11
0.704134
21
1.23465
0
LINE
8
BLACK
6
CONTINUOUS
10
0.704134
20
1.23465
11
0.705804
21
1.23395
0
LINE
8
BLACK
6
CONTINUOUS
10
0.705804
20
1.23395
11
0.706496
21
1.23228
0
LINE
8
BLACK
6
CONTINUOUS
10
0.706496
20
1.23228
11
0.706496
21
1.19331
0
LINE
8
BLACK
6
CONTINUOUS
10
0.706496
20
1.19331
11
0.705804
21
1.19164
0
LINE
8
BLACK
6
CONTINUOUS
10
0.705804
20
1.19164
11
0.704134
21
1.19094
0
LINE
8
BLACK
6
CONTINUOUS
10
0.704134
20
1.19094
11
0.63563
21
1.19094
0
LINE
8
BLACK
6
CONTINUOUS
10
0.63563
20
1.19094
11
0.63563
21
1.13622
0
LINE
8
BLACK
6
CONTINUOUS
10
0.819758
20
1.30386
11
0.819893
21
1.30375
0
LINE
8
BLACK
6
CONTINUOUS
10
0.819893
20
1.30375
11
0.820068
21
1.30373
0
LINE
8
BLACK
6
CONTINUOUS
10
0.820068
20
1.30373
11
0.823818
21
1.30185
0
LINE
8
BLACK
6
CONTINUOUS
10
0.823818
20
1.30185
11
0.824527
21
1.30133
0
LINE
8
BLACK
6
CONTINUOUS
10
0.824527
20
1.30133
11
0.824585
21
1.3013
0
LINE
8
BLACK
6
CONTINUOUS
10
0.824585
20
1.3013
11
0.82646
21
1.29943
0
LINE
8
BLACK
6
CONTINUOUS
10
0.82646
20
1.29943
11
0.826966
21
1.2987
0
LINE
8
BLACK
6
CONTINUOUS
10
0.826966
20
1.2987
11
0.827013
21
1.29866
0
LINE
8
BLACK
6
CONTINUOUS
10
0.827013
20
1.29866
11
0.828888
21
1.29491
0
LINE
8
BLACK
6
CONTINUOUS
10
0.828888
20
1.29491
11
0.82918
21
1.29393
0
LINE
8
BLACK
6
CONTINUOUS
10
0.82918
20
1.29393
11
0.829139
21
1.29375
0
LINE
8
BLACK
6
CONTINUOUS
10
0.829139
20
1.29375
11
0.829199
21
1.29359
0
LINE
8
BLACK
6
CONTINUOUS
10
0.829199
20
1.29359
11
0.829199
21
1.28984
0
LINE
8
BLACK
6
CONTINUOUS
10
0.829199
20
1.28984
11
0.829046
21
1.28897
0
LINE
8
BLACK
6
CONTINUOUS
10
0.829046
20
1.28897
11
0.829048
21
1.2889
0
LINE
8
BLACK
6
CONTINUOUS
10
0.829048
20
1.2889
11
0.827173
21
1.28328
0
LINE
8
BLACK
6
CONTINUOUS
10
0.827173
20
1.28328
11
0.826685
21
1.28238
0
LINE
8
BLACK
6
CONTINUOUS
10
0.826685
20
1.28238
11
0.826534
21
1.28229
0
LINE
8
BLACK
6
CONTINUOUS
10
0.826534
20
1.28229
11
0.82646
21
1.28213
0
LINE
8
BLACK
6
CONTINUOUS
10
0.82646
20
1.28213
11
0.809003
21
1.26467
0
LINE
8
BLACK
6
CONTINUOUS
10
0.809003
20
1.26467
11
0.826247
21
1.26467
0
LINE
8
BLACK
6
CONTINUOUS
10
0.826247
20
1.26467
11
0.827257
21
1.26449
0
LINE
8
BLACK
6
CONTINUOUS
10
0.827257
20
1.26449
11
0.828804
21
1.26319
0
LINE
8
BLACK
6
CONTINUOUS
10
0.828804
20
1.26319
11
0.829155
21
1.2612
0
LINE
8
BLACK
6
CONTINUOUS
10
0.829155
20
1.2612
11
0.828145
21
1.25946
0
LINE
8
BLACK
6
CONTINUOUS
10
0.828145
20
1.25946
11
0.826247
21
1.25876
0
LINE
8
BLACK
6
CONTINUOUS
10
0.826247
20
1.25876
11
0.801875
21
1.25876
0
LINE
8
BLACK
6
CONTINUOUS
10
0.801875
20
1.25876
11
0.80124
21
1.25888
0
LINE
8
BLACK
6
CONTINUOUS
10
0.80124
20
1.25888
11
0.801111
21
1.25887
0
LINE
8
BLACK
6
CONTINUOUS
10
0.801111
20
1.25887
11
0.801045
21
1.25891
0
LINE
8
BLACK
6
CONTINUOUS
10
0.801045
20
1.25891
11
0.800865
21
1.25894
0
LINE
8
BLACK
6
CONTINUOUS
10
0.800865
20
1.25894
11
0.800184
21
1.25951
0
LINE
8
BLACK
6
CONTINUOUS
10
0.800184
20
1.25951
11
0.799456
21
1.26002
0
LINE
8
BLACK
6
CONTINUOUS
10
0.799456
20
1.26002
11
0.799421
21
1.26015
0
LINE
8
BLACK
6
CONTINUOUS
10
0.799421
20
1.26015
11
0.799318
21
1.26024
0
LINE
8
BLACK
6
CONTINUOUS
10
0.799318
20
1.26024
11
0.799163
21
1.26112
0
LINE
8
BLACK
6
CONTINUOUS
10
0.799163
20
1.26112
11
0.798933
21
1.26197
0
LINE
8
BLACK
6
CONTINUOUS
10
0.798933
20
1.26197
11
0.79899
21
1.2621
0
LINE
8
BLACK
6
CONTINUOUS
10
0.79899
20
1.2621
11
0.798967
21
1.26223
0
LINE
8
BLACK
6
CONTINUOUS
10
0.798967
20
1.26223
11
0.799411
21
1.263
0
LINE
8
BLACK
6
CONTINUOUS
10
0.799411
20
1.263
11
0.799787
21
1.26381
0
LINE
8
BLACK
6
CONTINUOUS
10
0.799787
20
1.26381
11
0.821791
21
1.28581
0
LINE
8
BLACK
6
CONTINUOUS
10
0.821791
20
1.28581
11
0.823294
21
1.29032
0
LINE
8
BLACK
6
CONTINUOUS
10
0.823294
20
1.29032
11
0.823294
21
1.29289
0
LINE
8
BLACK
6
CONTINUOUS
10
0.823294
20
1.29289
11
0.821945
21
1.29559
0
LINE
8
BLACK
6
CONTINUOUS
10
0.821945
20
1.29559
11
0.820748
21
1.29679
0
LINE
8
BLACK
6
CONTINUOUS
10
0.820748
20
1.29679
11
0.818051
21
1.29813
0
LINE
8
BLACK
6
CONTINUOUS
10
0.818051
20
1.29813
11
0.810071
21
1.29813
0
LINE
8
BLACK
6
CONTINUOUS
10
0.810071
20
1.29813
11
0.807373
21
1.29679
0
LINE
8
BLACK
6
CONTINUOUS
10
0.807373
20
1.29679
11
0.805837
21
1.29525
0
LINE
8
BLACK
6
CONTINUOUS
10
0.805837
20
1.29525
11
0.804997
21
1.29466
0
LINE
8
BLACK
6
CONTINUOUS
10
0.804997
20
1.29466
11
0.802985
21
1.29449
0
LINE
8
BLACK
6
CONTINUOUS
10
0.802985
20
1.29449
11
0.801331
21
1.29564
0
LINE
8
BLACK
6
CONTINUOUS
10
0.801331
20
1.29564
11
0.800808
21
1.2976
0
LINE
8
BLACK
6
CONTINUOUS
10
0.800808
20
1.2976
11
0.801662
21
1.29943
0
LINE
8
BLACK
6
CONTINUOUS
10
0.801662
20
1.29943
11
0.803536
21
1.3013
0
LINE
8
BLACK
6
CONTINUOUS
10
0.803536
20
1.3013
11
0.804259
21
1.30181
0
LINE
8
BLACK
6
CONTINUOUS
10
0.804259
20
1.30181
11
0.804304
21
1.30185
0
LINE
8
BLACK
6
CONTINUOUS
10
0.804304
20
1.30185
11
0.808053
21
1.30373
0
LINE
8
BLACK
6
CONTINUOUS
10
0.808053
20
1.30373
11
0.809036
21
1.30402
0
LINE
8
BLACK
6
CONTINUOUS
10
0.809036
20
1.30402
11
0.809208
21
1.30398
0
LINE
8
BLACK
6
CONTINUOUS
10
0.809208
20
1.30398
11
0.809374
21
1.30404
0
LINE
8
BLACK
6
CONTINUOUS
10
0.809374
20
1.30404
11
0.818748
21
1.30404
0
LINE
8
BLACK
6
CONTINUOUS
10
0.818748
20
1.30404
11
0.819758
21
1.30386
0
LINE
8
BLACK
6
CONTINUOUS
10
0.789139
20
1.30299
11
0.789829
21
1.30109
0
LINE
8
BLACK
6
CONTINUOUS
10
0.789829
20
1.30109
11
0.789829
21
1.27297
0
LINE
8
BLACK
6
CONTINUOUS
10
0.789829
20
1.27297
11
0.789676
21
1.2721
0
LINE
8
BLACK
6
CONTINUOUS
10
0.789676
20
1.2721
11
0.789678
21
1.27203
0
LINE
8
BLACK
6
CONTINUOUS
10
0.789678
20
1.27203
11
0.787803
21
1.26641
0
LINE
8
BLACK
6
CONTINUOUS
10
0.787803
20
1.26641
11
0.787315
21
1.26551
0
LINE
8
BLACK
6
CONTINUOUS
10
0.787315
20
1.26551
11
0.787164
21
1.26541
0
LINE
8
BLACK
6
CONTINUOUS
10
0.787164
20
1.26541
11
0.78709
21
1.26525
0
LINE
8
BLACK
6
CONTINUOUS
10
0.78709
20
1.26525
11
0.78334
21
1.2615
0
LINE
8
BLACK
6
CONTINUOUS
10
0.78334
20
1.2615
11
0.7825
21
1.26092
0
LINE
8
BLACK
6
CONTINUOUS
10
0.7825
20
1.26092
11
0.782324
21
1.2609
0
LINE
8
BLACK
6
CONTINUOUS
10
0.782324
20
1.2609
11
0.782186
21
1.26079
0
LINE
8
BLACK
6
CONTINUOUS
10
0.782186
20
1.26079
11
0.776562
21
1.25892
0
LINE
8
BLACK
6
CONTINUOUS
10
0.776562
20
1.25892
11
0.775689
21
1.25879
0
LINE
8
BLACK
6
CONTINUOUS
10
0.775689
20
1.25879
11
0.775628
21
1.25876
0
LINE
8
BLACK
6
CONTINUOUS
10
0.775628
20
1.25876
11
0.771879
21
1.25876
0
LINE
8
BLACK
6
CONTINUOUS
10
0.771879
20
1.25876
11
0.770869
21
1.25894
0
LINE
8
BLACK
6
CONTINUOUS
10
0.770869
20
1.25894
11
0.769321
21
1.26024
0
LINE
8
BLACK
6
CONTINUOUS
10
0.769321
20
1.26024
11
0.768971
21
1.26223
0
LINE
8
BLACK
6
CONTINUOUS
10
0.768971
20
1.26223
11
0.769981
21
1.26398
0
LINE
8
BLACK
6
CONTINUOUS
10
0.769981
20
1.26398
11
0.771879
21
1.26467
0
LINE
8
BLACK
6
CONTINUOUS
10
0.771879
20
1.26467
11
0.775149
21
1.26467
0
LINE
8
BLACK
6
CONTINUOUS
10
0.775149
20
1.26467
11
0.779657
21
1.26617
0
LINE
8
BLACK
6
CONTINUOUS
10
0.779657
20
1.26617
11
0.782421
21
1.26894
0
LINE
8
BLACK
6
CONTINUOUS
10
0.782421
20
1.26894
11
0.783924
21
1.27345
0
LINE
8
BLACK
6
CONTINUOUS
10
0.783924
20
1.27345
11
0.783924
21
1.30109
0
LINE
8
BLACK
6
CONTINUOUS
10
0.783924
20
1.30109
11
0.784102
21
1.3021
0
LINE
8
BLACK
6
CONTINUOUS
10
0.784102
20
1.3021
11
0.7854
21
1.30364
0
LINE
8
BLACK
6
CONTINUOUS
10
0.7854
20
1.30364
11
0.787389
21
1.304
0
LINE
8
BLACK
6
CONTINUOUS
10
0.787389
20
1.304
11
0.789139
21
1.30299
  0
ENDSEC
  0
EOF
