  0
SECTION
  2
HEADER
  9
$ANGBASE
  50
0.0
  9
$ANGDIR
  70
1
  9
$MEASUREMENT
  70
0
  0
ENDSEC
  0
SECTION
  2
TABLES
  0
TABLE
  2
LTYPE
  70
4
  0
LTYPE
  5
40F
  2
CONTINUOUS
  70
0
  3
Solid line
  72
65
  73
0
  40
0.0
  0
LTYPE
  5
410
  2
DASHDOT
 70
0
  3
Dash Dot ____ _ ____ _
 72
65
 73
4
 40
2.0
 49
1.25
 49
-0.25
 49
0.25
 49
-0.25
  0
LTYPE
  5
411
  2
DASHED
 70
0
  3
Dashed __ __ __ __ __
 72
65
 73
2
 40
0.75
 49
0.5
 49
-0.25
  0
LTYPE
  5
43B
  2
DOTTED
 70
0
  3
Dotted .  .  .  .
 72
65
 73
2
 40
0.2
 49
0.0
 49
-0.2
  0
ENDTAB
  0
TABLE
  2
STYLE
  70
4
  0
STYLE
  2
KICAD
  70
0
  40
0
  41
1
  42
1
  50
0
  71
0
  3
isocp.shx
  0
STYLE
  2
KICADB
  70
0
  40
0
  41
1
  42
1
  50
0
  71
0
  3
isocp.shx
  0
STYLE
  2
KICADI
  70
0
  40
0
  41
1
  42
1
  50
15
  71
0
  3
isocp.shx
  0
STYLE
  2
KICADBI
  70
0
  40
0
  41
1
  42
1
  50
15
  71
0
  3
isocp.shx
  0
ENDTAB
  0
TABLE
  2
LAYER
  70
1
  0
LAYER
  2
BLACK
  70
0
  62
7
  6
CONTINUOUS
  0
ENDTAB
  0
ENDSEC
  0
SECTION
  2
ENTITIES
0
LINE
8
BLACK
6
CONTINUOUS
10
0.4297418897637795
20
1.979617874015748
11
0.4299091338582677
21
1.9796473228346456
0
LINE
8
BLACK
6
CONTINUOUS
10
0.4299091338582677
20
1.9796473228346456
11
0.4306511811023622
21
1.9792188976377951
0
LINE
8
BLACK
6
CONTINUOUS
10
0.4306511811023622
20
1.9792188976377951
11
0.4314360236220472
21
1.9788745275590551
0
LINE
8
BLACK
6
CONTINUOUS
10
0.4314360236220472
20
1.9788745275590551
11
0.4315112598425197
21
1.9787222834645668
0
LINE
8
BLACK
6
CONTINUOUS
10
0.4315112598425197
20
1.9787222834645668
11
0.4316583070866142
21
1.9786374015748032
0
LINE
8
BLACK
6
CONTINUOUS
10
0.4316583070866142
20
1.9786374015748032
11
0.4319513779527559
21
1.9778321653543307
0
LINE
8
BLACK
6
CONTINUOUS
10
0.4319513779527559
20
1.9778321653543307
11
0.4323312204724409
21
1.977063937007874
0
LINE
8
BLACK
6
CONTINUOUS
10
0.4323312204724409
20
1.977063937007874
11
0.4322910236220472
21
1.9768990157480315
0
LINE
8
BLACK
6
CONTINUOUS
10
0.4322910236220472
20
1.9768990157480315
11
0.4323491338582677
21
1.9767394094488189
0
LINE
8
BLACK
6
CONTINUOUS
10
0.4323491338582677
20
1.9767394094488189
11
0.4323491338582677
21
1.9403220866141733
0
LINE
8
BLACK
6
CONTINUOUS
10
0.4323491338582677
20
1.9403220866141733
11
0.4406449606299213
21
1.9403220866141733
0
LINE
8
BLACK
6
CONTINUOUS
10
0.4406449606299213
20
1.9403220866141733
11
0.4416548818897638
21
1.9401440157480314
0
LINE
8
BLACK
6
CONTINUOUS
10
0.4416548818897638
20
1.9401440157480314
11
0.443202125984252
21
1.9388457086614173
0
LINE
8
BLACK
6
CONTINUOUS
10
0.443202125984252
20
1.9388457086614173
11
0.443552874015748
21
1.9368565748031497
0
LINE
8
BLACK
6
CONTINUOUS
10
0.443552874015748
20
1.9368565748031497
11
0.4428466535433071
21
1.9356334645669291
0
LINE
8
BLACK
6
CONTINUOUS
10
0.4428466535433071
20
1.9356334645669291
11
0.4429871653543307
21
1.9357065748031497
0
LINE
8
BLACK
6
CONTINUOUS
10
0.4429871653543307
20
1.9357065748031497
11
0.4439651968503937
21
1.9360149212598425
0
LINE
8
BLACK
6
CONTINUOUS
10
0.4439651968503937
20
1.9360149212598425
11
0.4459370866141732
21
1.9355777559055118
0
LINE
8
BLACK
6
CONTINUOUS
10
0.4459370866141732
20
1.9355777559055118
11
0.4471666929133858
21
1.9339753543307086
0
LINE
8
BLACK
6
CONTINUOUS
10
0.4471666929133858
20
1.9339753543307086
11
0.4470785433070866
21
1.9319574803149606
0
LINE
8
BLACK
6
CONTINUOUS
10
0.4470785433070866
20
1.9319574803149606
11
0.4457140157480315
21
1.9304683070866142
0
LINE
8
BLACK
6
CONTINUOUS
10
0.4457140157480315
20
1.9304683070866142
11
0.412066968503937
21
1.9129527559055117
0
LINE
8
BLACK
6
CONTINUOUS
10
0.412066968503937
20
1.9129527559055117
11
0.7879331102362205
21
1.9129527559055117
0
LINE
8
BLACK
6
CONTINUOUS
10
0.7879331102362205
20
1.9129527559055117
11
0.754286062992126
21
1.9304683070866142
0
LINE
8
BLACK
6
CONTINUOUS
10
0.754286062992126
20
1.9304683070866142
11
0.7534724803149606
21
1.9310925984251968
0
LINE
8
BLACK
6
CONTINUOUS
10
0.7534724803149606
20
1.9310925984251968
11
0.7526995275590551
21
1.9329586614173229
0
LINE
8
BLACK
6
CONTINUOUS
10
0.7526995275590551
20
1.9329586614173229
11
0.7533068897637795
21
1.934885
0
LINE
8
BLACK
6
CONTINUOUS
10
0.7533068897637795
20
1.934885
11
0.7550103937007874
21
1.9359701968503937
0
LINE
8
BLACK
6
CONTINUOUS
10
0.7550103937007874
20
1.9359701968503937
11
0.7570129133858268
21
1.9357065748031497
0
LINE
8
BLACK
6
CONTINUOUS
10
0.7570129133858268
20
1.9357065748031497
11
0.7970472834645669
21
1.9148660236220472
0
LINE
8
BLACK
6
CONTINUOUS
10
0.7970472834645669
20
1.9148660236220472
11
0.7970472834645669
21
1.9330874015748032
0
LINE
8
BLACK
6
CONTINUOUS
10
0.7970472834645669
20
1.9330874015748032
11
0.7972253543307086
21
1.9340973228346456
0
LINE
8
BLACK
6
CONTINUOUS
10
0.7972253543307086
20
1.9340973228346456
11
0.7985236614173228
21
1.9356445669291338
0
LINE
8
BLACK
6
CONTINUOUS
10
0.7985236614173228
20
1.9356445669291338
11
0.8005127952755905
21
1.9359953149606299
0
LINE
8
BLACK
6
CONTINUOUS
10
0.8005127952755905
20
1.9359953149606299
11
0.8022619685039369
21
1.9349853937007873
0
LINE
8
BLACK
6
CONTINUOUS
10
0.8022619685039369
20
1.9349853937007873
11
0.8029527952755905
21
1.9330874015748032
0
LINE
8
BLACK
6
CONTINUOUS
10
0.8029527952755905
20
1.9330874015748032
11
0.8029527952755905
21
1.6196850393700788
0
LINE
8
BLACK
6
CONTINUOUS
10
0.8029527952755905
20
1.6196850393700788
11
0.8027747244094487
21
1.6186751181102361
0
LINE
8
BLACK
6
CONTINUOUS
10
0.8027747244094487
20
1.6186751181102361
11
0.8014764173228346
21
1.617127874015748
0
LINE
8
BLACK
6
CONTINUOUS
10
0.8014764173228346
20
1.617127874015748
11
0.7994872834645669
21
1.6167771259842518
0
LINE
8
BLACK
6
CONTINUOUS
10
0.7994872834645669
20
1.6167771259842518
11
0.7977381102362204
21
1.6177870472440945
0
LINE
8
BLACK
6
CONTINUOUS
10
0.7977381102362204
20
1.6177870472440945
11
0.7970472834645669
21
1.6196850393700788
0
LINE
8
BLACK
6
CONTINUOUS
10
0.7970472834645669
20
1.6196850393700788
11
0.7970472834645669
21
1.9051340157480314
0
LINE
8
BLACK
6
CONTINUOUS
10
0.7970472834645669
20
1.9051340157480314
11
0.7570129133858268
21
1.8842934251968504
0
LINE
8
BLACK
6
CONTINUOUS
10
0.7570129133858268
20
1.8842934251968504
11
0.7560348818897638
21
1.8839850393700788
0
LINE
8
BLACK
6
CONTINUOUS
10
0.7560348818897638
20
1.8839850393700788
11
0.7540629527559055
21
1.8844222440944882
0
LINE
8
BLACK
6
CONTINUOUS
10
0.7540629527559055
20
1.8844222440944882
11
0.7528333858267716
21
1.8860246456692913
0
LINE
8
BLACK
6
CONTINUOUS
10
0.7528333858267716
20
1.8860246456692913
11
0.7529214960629921
21
1.8880425196850392
0
LINE
8
BLACK
6
CONTINUOUS
10
0.7529214960629921
20
1.8880425196850392
11
0.754286062992126
21
1.8895316929133859
0
LINE
8
BLACK
6
CONTINUOUS
10
0.754286062992126
20
1.8895316929133859
11
0.7879331102362205
21
1.9070472440944881
0
LINE
8
BLACK
6
CONTINUOUS
10
0.7879331102362205
20
1.9070472440944881
11
0.412066968503937
21
1.9070472440944881
0
LINE
8
BLACK
6
CONTINUOUS
10
0.412066968503937
20
1.9070472440944881
11
0.4457140157480315
21
1.8895316929133859
0
LINE
8
BLACK
6
CONTINUOUS
10
0.4457140157480315
20
1.8895316929133859
11
0.4465275984251968
21
1.8889074015748031
0
LINE
8
BLACK
6
CONTINUOUS
10
0.4465275984251968
20
1.8889074015748031
11
0.4473005118110236
21
1.8870413779527559
0
LINE
8
BLACK
6
CONTINUOUS
10
0.4473005118110236
20
1.8870413779527559
11
0.4466931496062992
21
1.8851150393700786
0
LINE
8
BLACK
6
CONTINUOUS
10
0.4466931496062992
20
1.8851150393700786
11
0.4449896850393701
21
1.8840298031496063
0
LINE
8
BLACK
6
CONTINUOUS
10
0.4449896850393701
20
1.8840298031496063
11
0.4429871653543307
21
1.8842934251968504
0
LINE
8
BLACK
6
CONTINUOUS
10
0.4429871653543307
20
1.8842934251968504
11
0.4029527952755905
21
1.9051340157480314
0
LINE
8
BLACK
6
CONTINUOUS
10
0.4029527952755905
20
1.9051340157480314
11
0.4029527952755905
21
1.6196850393700788
0
LINE
8
BLACK
6
CONTINUOUS
10
0.4029527952755905
20
1.6196850393700788
11
0.4027747244094488
21
1.6186751181102361
0
LINE
8
BLACK
6
CONTINUOUS
10
0.4027747244094488
20
1.6186751181102361
11
0.4014764173228346
21
1.617127874015748
0
LINE
8
BLACK
6
CONTINUOUS
10
0.4014764173228346
20
1.617127874015748
11
0.3994872834645669
21
1.6167771259842518
0
LINE
8
BLACK
6
CONTINUOUS
10
0.3994872834645669
20
1.6167771259842518
11
0.3977381102362205
21
1.6177870472440945
0
LINE
8
BLACK
6
CONTINUOUS
10
0.3977381102362205
20
1.6177870472440945
11
0.3970472834645669
21
1.6196850393700788
0
LINE
8
BLACK
6
CONTINUOUS
10
0.3970472834645669
20
1.6196850393700788
11
0.3970472834645669
21
1.9330874015748032
0
LINE
8
BLACK
6
CONTINUOUS
10
0.3970472834645669
20
1.9330874015748032
11
0.3972253543307087
21
1.9340973228346456
0
LINE
8
BLACK
6
CONTINUOUS
10
0.3972253543307087
20
1.9340973228346456
11
0.3985236614173228
21
1.9356445669291338
0
LINE
8
BLACK
6
CONTINUOUS
10
0.3985236614173228
20
1.9356445669291338
11
0.4005127952755905
21
1.9359953149606299
0
LINE
8
BLACK
6
CONTINUOUS
10
0.4005127952755905
20
1.9359953149606299
11
0.402261968503937
21
1.9349853937007873
0
LINE
8
BLACK
6
CONTINUOUS
10
0.402261968503937
20
1.9349853937007873
11
0.4029527952755905
21
1.9330874015748032
0
LINE
8
BLACK
6
CONTINUOUS
10
0.4029527952755905
20
1.9330874015748032
11
0.4029527952755905
21
1.9148660236220472
0
LINE
8
BLACK
6
CONTINUOUS
10
0.4029527952755905
20
1.9148660236220472
11
0.440509094488189
21
1.9344165748031497
0
LINE
8
BLACK
6
CONTINUOUS
10
0.440509094488189
20
1.9344165748031497
11
0.4181477952755905
21
1.9344165748031497
0
LINE
8
BLACK
6
CONTINUOUS
10
0.4181477952755905
20
1.9344165748031497
11
0.417137874015748
21
1.9345946456692913
0
LINE
8
BLACK
6
CONTINUOUS
10
0.417137874015748
20
1.9345946456692913
11
0.4155906299212598
21
1.9358929527559054
0
LINE
8
BLACK
6
CONTINUOUS
10
0.4155906299212598
20
1.9358929527559054
11
0.4152398818897638
21
1.9378820866141733
0
LINE
8
BLACK
6
CONTINUOUS
10
0.4152398818897638
20
1.9378820866141733
11
0.4162498031496063
21
1.9396312598425196
0
LINE
8
BLACK
6
CONTINUOUS
10
0.4162498031496063
20
1.9396312598425196
11
0.4181477952755905
21
1.9403220866141733
0
LINE
8
BLACK
6
CONTINUOUS
10
0.4181477952755905
20
1.9403220866141733
11
0.4264436220472441
21
1.9403220866141733
0
LINE
8
BLACK
6
CONTINUOUS
10
0.4264436220472441
20
1.9403220866141733
11
0.4264436220472441
21
1.9677360629921259
0
LINE
8
BLACK
6
CONTINUOUS
10
0.4264436220472441
20
1.9677360629921259
11
0.4239852362204724
21
1.9652776771653542
0
LINE
8
BLACK
6
CONTINUOUS
10
0.4239852362204724
20
1.9652776771653542
11
0.4232621259842519
21
1.9647714173228346
0
LINE
8
BLACK
6
CONTINUOUS
10
0.4232621259842519
20
1.9647714173228346
11
0.4232178346456693
21
1.9647245669291338
0
LINE
8
BLACK
6
CONTINUOUS
10
0.4232178346456693
20
1.9647245669291338
11
0.4194683070866141
21
1.9628498031496062
0
LINE
8
BLACK
6
CONTINUOUS
10
0.4194683070866141
20
1.9628498031496062
11
0.4184853543307087
21
1.9625574409448818
0
LINE
8
BLACK
6
CONTINUOUS
10
0.4184853543307087
20
1.9625574409448818
11
0.4165208661417323
21
1.9630267322834645
0
LINE
8
BLACK
6
CONTINUOUS
10
0.4165208661417323
20
1.9630267322834645
11
0.4153175590551181
21
1.9646489763779527
0
LINE
8
BLACK
6
CONTINUOUS
10
0.4153175590551181
20
1.9646489763779527
11
0.4154386220472441
21
1.9666651574803149
0
LINE
8
BLACK
6
CONTINUOUS
10
0.4154386220472441
20
1.9666651574803149
11
0.4168272834645669
21
1.9681318503937006
0
LINE
8
BLACK
6
CONTINUOUS
10
0.4168272834645669
20
1.9681318503937006
11
0.4201482283464567
21
1.9697923228346457
0
LINE
8
BLACK
6
CONTINUOUS
10
0.4201482283464567
20
1.9697923228346457
11
0.423352125984252
21
1.9729962204724409
0
LINE
8
BLACK
6
CONTINUOUS
10
0.423352125984252
20
1.9729962204724409
11
0.4269395275590551
21
1.9783773228346457
0
LINE
8
BLACK
6
CONTINUOUS
10
0.4269395275590551
20
1.9783773228346457
11
0.4276479133858268
21
1.9791188582677164
0
LINE
8
BLACK
6
CONTINUOUS
10
0.4276479133858268
20
1.9791188582677164
11
0.4278108661417322
21
1.9791665748031495
0
LINE
8
BLACK
6
CONTINUOUS
10
0.4278108661417322
20
1.9791665748031495
11
0.42792
21
1.9792965748031495
0
LINE
8
BLACK
6
CONTINUOUS
10
0.42792
20
1.9792965748031495
11
0.4287637795275591
21
1.9794453937007874
0
LINE
8
BLACK
6
CONTINUOUS
10
0.4287637795275591
20
1.9794453937007874
11
0.4295864173228346
21
1.979686062992126
0
LINE
8
BLACK
6
CONTINUOUS
10
0.4295864173228346
20
1.979686062992126
11
0.4297418897637795
21
1.979617874015748
0
LINE
8
BLACK
6
CONTINUOUS
10
0.4697763779527559
20
1.9795140944881888
11
0.4699116141732284
21
1.9794006299212599
0
LINE
8
BLACK
6
CONTINUOUS
10
0.4699116141732284
20
1.9794006299212599
11
0.470086968503937
21
1.9793804330708662
0
LINE
8
BLACK
6
CONTINUOUS
10
0.470086968503937
20
1.9793804330708662
11
0.4738364960629921
21
1.9775056692913386
0
LINE
8
BLACK
6
CONTINUOUS
10
0.4738364960629921
20
1.9775056692913386
11
0.4745455511811024
21
1.9769797637795274
0
LINE
8
BLACK
6
CONTINUOUS
10
0.4745455511811024
20
1.9769797637795274
11
0.4746038976377953
21
1.976952559055118
0
LINE
8
BLACK
6
CONTINUOUS
10
0.4746038976377953
20
1.976952559055118
11
0.4764786614173228
21
1.9750777952755905
0
LINE
8
BLACK
6
CONTINUOUS
10
0.4764786614173228
20
1.9750777952755905
11
0.4769849212598425
21
1.9743547244094488
0
LINE
8
BLACK
6
CONTINUOUS
10
0.4769849212598425
20
1.9743547244094488
11
0.4770317716535433
21
1.9743103937007873
0
LINE
8
BLACK
6
CONTINUOUS
10
0.4770317716535433
20
1.9743103937007873
11
0.4789065354330709
21
1.9705608661417322
0
LINE
8
BLACK
6
CONTINUOUS
10
0.4789065354330709
20
1.9705608661417322
11
0.479051811023622
21
1.9700724409448818
0
LINE
8
BLACK
6
CONTINUOUS
10
0.479051811023622
20
1.9700724409448818
11
0.4791301181102362
21
1.9699564960629921
0
LINE
8
BLACK
6
CONTINUOUS
10
0.4791301181102362
20
1.9699564960629921
11
0.4810048818897638
21
1.9624574409448818
0
LINE
8
BLACK
6
CONTINUOUS
10
0.4810048818897638
20
1.9624574409448818
11
0.4810463385826771
21
1.9618695669291337
0
LINE
8
BLACK
6
CONTINUOUS
10
0.4810463385826771
20
1.9618695669291337
11
0.481093031496063
21
1.9617412992125984
0
LINE
8
BLACK
6
CONTINUOUS
10
0.481093031496063
20
1.9617412992125984
11
0.481093031496063
21
1.9523674803149607
0
LINE
8
BLACK
6
CONTINUOUS
10
0.481093031496063
20
1.9523674803149607
11
0.4809906692913385
21
1.9517871259842519
0
LINE
8
BLACK
6
CONTINUOUS
10
0.4809906692913385
20
1.9517871259842519
11
0.4810048818897638
21
1.951651338582677
0
LINE
8
BLACK
6
CONTINUOUS
10
0.4810048818897638
20
1.951651338582677
11
0.4791301181102362
21
1.9441522834645668
0
LINE
8
BLACK
6
CONTINUOUS
10
0.4791301181102362
20
1.9441522834645668
11
0.4789225196850393
21
1.9436868503937008
0
LINE
8
BLACK
6
CONTINUOUS
10
0.4789225196850393
20
1.9436868503937008
11
0.4789065354330709
21
1.9435479133858267
0
LINE
8
BLACK
6
CONTINUOUS
10
0.4789065354330709
20
1.9435479133858267
11
0.4770317716535433
21
1.9397983858267716
0
LINE
8
BLACK
6
CONTINUOUS
10
0.4770317716535433
20
1.9397983858267716
11
0.4765058267716535
21
1.9390893307086614
0
LINE
8
BLACK
6
CONTINUOUS
10
0.4765058267716535
20
1.9390893307086614
11
0.4764786614173228
21
1.9390309842519684
0
LINE
8
BLACK
6
CONTINUOUS
10
0.4764786614173228
20
1.9390309842519684
11
0.474603937007874
21
1.9371562204724408
0
LINE
8
BLACK
6
CONTINUOUS
10
0.474603937007874
20
1.9371562204724408
11
0.473880748031496
21
1.936649842519685
0
LINE
8
BLACK
6
CONTINUOUS
10
0.473880748031496
20
1.936649842519685
11
0.4738364960629921
21
1.9366030708661417
0
LINE
8
BLACK
6
CONTINUOUS
10
0.4738364960629921
20
1.9366030708661417
11
0.470086968503937
21
1.9347283070866141
0
LINE
8
BLACK
6
CONTINUOUS
10
0.470086968503937
20
1.9347283070866141
11
0.4691040157480315
21
1.9344359448818897
0
LINE
8
BLACK
6
CONTINUOUS
10
0.4691040157480315
20
1.9344359448818897
11
0.4689323228346456
21
1.9344769685039369
0
LINE
8
BLACK
6
CONTINUOUS
10
0.4689323228346456
20
1.9344769685039369
11
0.4687664566929134
21
1.9344165748031497
0
LINE
8
BLACK
6
CONTINUOUS
10
0.4687664566929134
20
1.9344165748031497
11
0.4650169291338583
21
1.9344165748031497
0
LINE
8
BLACK
6
CONTINUOUS
10
0.4650169291338583
20
1.9344165748031497
11
0.4640070078740157
21
1.9345946456692913
0
LINE
8
BLACK
6
CONTINUOUS
10
0.4640070078740157
20
1.9345946456692913
11
0.4638717322834646
21
1.9347081496062992
0
LINE
8
BLACK
6
CONTINUOUS
10
0.4638717322834646
20
1.9347081496062992
11
0.4636964173228346
21
1.9347283070866141
0
LINE
8
BLACK
6
CONTINUOUS
10
0.4636964173228346
20
1.9347283070866141
11
0.4599468897637795
21
1.9366030708661417
0
LINE
8
BLACK
6
CONTINUOUS
10
0.4599468897637795
20
1.9366030708661417
11
0.4592377559055118
21
1.9371290551181102
0
LINE
8
BLACK
6
CONTINUOUS
10
0.4592377559055118
20
1.9371290551181102
11
0.4591794488188976
21
1.9371562204724408
0
LINE
8
BLACK
6
CONTINUOUS
10
0.4591794488188976
20
1.9371562204724408
11
0.4573046850393701
21
1.9390310236220472
0
LINE
8
BLACK
6
CONTINUOUS
10
0.4573046850393701
20
1.9390310236220472
11
0.4567983858267716
21
1.939754094488189
0
LINE
8
BLACK
6
CONTINUOUS
10
0.4567983858267716
20
1.939754094488189
11
0.4567516141732283
21
1.9397983858267716
0
LINE
8
BLACK
6
CONTINUOUS
10
0.4567516141732283
20
1.9397983858267716
11
0.4548768503937008
21
1.9435479133858267
0
LINE
8
BLACK
6
CONTINUOUS
10
0.4548768503937008
20
1.9435479133858267
11
0.4547315354330709
21
1.9440363779527559
0
LINE
8
BLACK
6
CONTINUOUS
10
0.4547315354330709
20
1.9440363779527559
11
0.4546532677165354
21
1.9441522834645668
0
LINE
8
BLACK
6
CONTINUOUS
10
0.4546532677165354
20
1.9441522834645668
11
0.4527785039370079
21
1.951651338582677
0
LINE
8
BLACK
6
CONTINUOUS
10
0.4527785039370079
20
1.951651338582677
11
0.4527370078740157
21
1.9522392519685039
0
LINE
8
BLACK
6
CONTINUOUS
10
0.4527370078740157
20
1.9522392519685039
11
0.4526903543307086
21
1.9523674803149607
0
LINE
8
BLACK
6
CONTINUOUS
10
0.4526903543307086
20
1.9523674803149607
11
0.4526903543307086
21
1.9617412992125984
0
LINE
8
BLACK
6
CONTINUOUS
10
0.4526903543307086
20
1.9617412992125984
11
0.4527926771653543
21
1.9623216929133858
0
LINE
8
BLACK
6
CONTINUOUS
10
0.4527926771653543
20
1.9623216929133858
11
0.4527785039370079
21
1.9624574409448818
0
LINE
8
BLACK
6
CONTINUOUS
10
0.4527785039370079
20
1.9624574409448818
11
0.4546532677165354
21
1.9699564960629921
0
LINE
8
BLACK
6
CONTINUOUS
10
0.4546532677165354
20
1.9699564960629921
11
0.4548608267716535
21
1.970421968503937
0
LINE
8
BLACK
6
CONTINUOUS
10
0.4548608267716535
20
1.970421968503937
11
0.4548768503937008
21
1.9705608661417322
0
LINE
8
BLACK
6
CONTINUOUS
10
0.4548768503937008
20
1.9705608661417322
11
0.4567516141732283
21
1.9743103937007873
0
LINE
8
BLACK
6
CONTINUOUS
10
0.4567516141732283
20
1.9743103937007873
11
0.4572775196850394
21
1.9750194881889764
0
LINE
8
BLACK
6
CONTINUOUS
10
0.4572775196850394
20
1.9750194881889764
11
0.4573047244094488
21
1.9750777952755905
0
LINE
8
BLACK
6
CONTINUOUS
10
0.4573047244094488
20
1.9750777952755905
11
0.4591794881889764
21
1.976952559055118
0
LINE
8
BLACK
6
CONTINUOUS
10
0.4591794881889764
20
1.976952559055118
11
0.4599025590551181
21
1.9774588582677164
0
LINE
8
BLACK
6
CONTINUOUS
10
0.4599025590551181
20
1.9774588582677164
11
0.4599468897637795
21
1.9775056692913386
0
LINE
8
BLACK
6
CONTINUOUS
10
0.4599468897637795
20
1.9775056692913386
11
0.4636964173228346
21
1.9793804330708662
0
LINE
8
BLACK
6
CONTINUOUS
10
0.4636964173228346
20
1.9793804330708662
11
0.4646793307086614
21
1.9796727952755906
0
LINE
8
BLACK
6
CONTINUOUS
10
0.4646793307086614
20
1.9796727952755906
11
0.4648510236220472
21
1.979631811023622
0
LINE
8
BLACK
6
CONTINUOUS
10
0.4648510236220472
20
1.979631811023622
11
0.4650169291338583
21
1.9796921653543307
0
LINE
8
BLACK
6
CONTINUOUS
10
0.4650169291338583
20
1.9796921653543307
11
0.4687664566929134
21
1.9796921653543307
0
LINE
8
BLACK
6
CONTINUOUS
10
0.4687664566929134
20
1.9796921653543307
11
0.4697763779527559
21
1.9795140944881888
0
LINE
8
BLACK
6
CONTINUOUS
10
0.4630164960629921
20
1.9724379133858267
11
0.4618193700787401
21
1.9712407874015747
0
LINE
8
BLACK
6
CONTINUOUS
10
0.4618193700787401
20
1.9712407874015747
11
0.4603038582677165
21
1.9682098031496063
0
LINE
8
BLACK
6
CONTINUOUS
10
0.4603038582677165
20
1.9682098031496063
11
0.4585958661417323
21
1.9613777559055117
0
LINE
8
BLACK
6
CONTINUOUS
10
0.4585958661417323
20
1.9613777559055117
11
0.4585958661417323
21
1.9527310236220472
0
LINE
8
BLACK
6
CONTINUOUS
10
0.4585958661417323
20
1.9527310236220472
11
0.4603038582677165
21
1.9458989763779526
0
LINE
8
BLACK
6
CONTINUOUS
10
0.4603038582677165
20
1.9458989763779526
11
0.4618193700787401
21
1.9428679921259842
0
LINE
8
BLACK
6
CONTINUOUS
10
0.4618193700787401
20
1.9428679921259842
11
0.4630164960629921
21
1.9416708267716536
0
LINE
8
BLACK
6
CONTINUOUS
10
0.4630164960629921
20
1.9416708267716536
11
0.4657139763779528
21
1.9403220866141733
0
LINE
8
BLACK
6
CONTINUOUS
10
0.4657139763779528
20
1.9403220866141733
11
0.4680694094488189
21
1.9403220866141733
0
LINE
8
BLACK
6
CONTINUOUS
10
0.4680694094488189
20
1.9403220866141733
11
0.4707668503937008
21
1.9416708267716536
0
LINE
8
BLACK
6
CONTINUOUS
10
0.4707668503937008
20
1.9416708267716536
11
0.4719639763779527
21
1.9428679921259842
0
LINE
8
BLACK
6
CONTINUOUS
10
0.4719639763779527
20
1.9428679921259842
11
0.4734794881889764
21
1.9458989763779526
0
LINE
8
BLACK
6
CONTINUOUS
10
0.4734794881889764
20
1.9458989763779526
11
0.4751875196850394
21
1.9527310236220472
0
LINE
8
BLACK
6
CONTINUOUS
10
0.4751875196850394
20
1.9527310236220472
11
0.4751875196850394
21
1.9613777559055117
0
LINE
8
BLACK
6
CONTINUOUS
10
0.4751875196850394
20
1.9613777559055117
11
0.4734794881889764
21
1.9682098031496063
0
LINE
8
BLACK
6
CONTINUOUS
10
0.4734794881889764
20
1.9682098031496063
11
0.4719640157480315
21
1.9712407874015747
0
LINE
8
BLACK
6
CONTINUOUS
10
0.4719640157480315
20
1.9712407874015747
11
0.4707668897637795
21
1.9724379133858267
0
LINE
8
BLACK
6
CONTINUOUS
10
0.4707668897637795
20
1.9724379133858267
11
0.4680694094488189
21
1.9737866535433071
0
LINE
8
BLACK
6
CONTINUOUS
10
0.4680694094488189
20
1.9737866535433071
11
0.4657139763779528
21
1.9737866535433071
0
LINE
8
BLACK
6
CONTINUOUS
10
0.4657139763779528
20
1.9737866535433071
11
0.4630164960629921
21
1.9724379133858267
0
LINE
8
BLACK
6
CONTINUOUS
10
0.523480157480315
20
1.979617874015748
11
0.5236474015748032
21
1.9796473228346456
0
LINE
8
BLACK
6
CONTINUOUS
10
0.5236474015748032
20
1.9796473228346456
11
0.5243894488188976
21
1.9792188976377951
0
LINE
8
BLACK
6
CONTINUOUS
10
0.5243894488188976
20
1.9792188976377951
11
0.5251742913385826
21
1.9788745275590551
0
LINE
8
BLACK
6
CONTINUOUS
10
0.5251742913385826
20
1.9788745275590551
11
0.5252495275590551
21
1.9787222834645668
0
LINE
8
BLACK
6
CONTINUOUS
10
0.5252495275590551
20
1.9787222834645668
11
0.5253965748031496
21
1.9786374015748032
0
LINE
8
BLACK
6
CONTINUOUS
10
0.5253965748031496
20
1.9786374015748032
11
0.5256896456692913
21
1.9778321653543307
0
LINE
8
BLACK
6
CONTINUOUS
10
0.5256896456692913
20
1.9778321653543307
11
0.5260694881889764
21
1.977063937007874
0
LINE
8
BLACK
6
CONTINUOUS
10
0.5260694881889764
20
1.977063937007874
11
0.5260292913385827
21
1.9768990157480315
0
LINE
8
BLACK
6
CONTINUOUS
10
0.5260292913385827
20
1.9768990157480315
11
0.5260874015748032
21
1.9767394094488189
0
LINE
8
BLACK
6
CONTINUOUS
10
0.5260874015748032
20
1.9767394094488189
11
0.5260874015748032
21
1.9403220866141733
0
LINE
8
BLACK
6
CONTINUOUS
10
0.5260874015748032
20
1.9403220866141733
11
0.5343832283464567
21
1.9403220866141733
0
LINE
8
BLACK
6
CONTINUOUS
10
0.5343832283464567
20
1.9403220866141733
11
0.5353931496062992
21
1.9401440157480314
0
LINE
8
BLACK
6
CONTINUOUS
10
0.5353931496062992
20
1.9401440157480314
11
0.5369403937007874
21
1.9388457086614173
0
LINE
8
BLACK
6
CONTINUOUS
10
0.5369403937007874
20
1.9388457086614173
11
0.5372911417322834
21
1.9368565748031497
0
LINE
8
BLACK
6
CONTINUOUS
10
0.5372911417322834
20
1.9368565748031497
11
0.536281220472441
21
1.9351074015748031
0
LINE
8
BLACK
6
CONTINUOUS
10
0.536281220472441
20
1.9351074015748031
11
0.5343832283464567
21
1.9344165748031497
0
LINE
8
BLACK
6
CONTINUOUS
10
0.5343832283464567
20
1.9344165748031497
11
0.511886062992126
21
1.9344165748031497
0
LINE
8
BLACK
6
CONTINUOUS
10
0.511886062992126
20
1.9344165748031497
11
0.5108761417322835
21
1.9345946456692913
0
LINE
8
BLACK
6
CONTINUOUS
10
0.5108761417322835
20
1.9345946456692913
11
0.5093288976377953
21
1.9358929527559054
0
LINE
8
BLACK
6
CONTINUOUS
10
0.5093288976377953
20
1.9358929527559054
11
0.5089781496062992
21
1.9378820866141733
0
LINE
8
BLACK
6
CONTINUOUS
10
0.5089781496062992
20
1.9378820866141733
11
0.5099880708661417
21
1.9396312598425196
0
LINE
8
BLACK
6
CONTINUOUS
10
0.5099880708661417
20
1.9396312598425196
11
0.511886062992126
21
1.9403220866141733
0
LINE
8
BLACK
6
CONTINUOUS
10
0.511886062992126
20
1.9403220866141733
11
0.5201818897637795
21
1.9403220866141733
0
LINE
8
BLACK
6
CONTINUOUS
10
0.5201818897637795
20
1.9403220866141733
11
0.5201818897637795
21
1.9677360629921259
0
LINE
8
BLACK
6
CONTINUOUS
10
0.5201818897637795
20
1.9677360629921259
11
0.5177235039370078
21
1.9652776771653542
0
LINE
8
BLACK
6
CONTINUOUS
10
0.5177235039370078
20
1.9652776771653542
11
0.5170003937007874
21
1.9647714173228346
0
LINE
8
BLACK
6
CONTINUOUS
10
0.5170003937007874
20
1.9647714173228346
11
0.5169561023622047
21
1.9647245669291338
0
LINE
8
BLACK
6
CONTINUOUS
10
0.5169561023622047
20
1.9647245669291338
11
0.5132065748031496
21
1.9628498031496062
0
LINE
8
BLACK
6
CONTINUOUS
10
0.5132065748031496
20
1.9628498031496062
11
0.512223622047244
21
1.9625574409448818
0
LINE
8
BLACK
6
CONTINUOUS
10
0.512223622047244
20
1.9625574409448818
11
0.5102591338582677
21
1.9630267322834645
0
LINE
8
BLACK
6
CONTINUOUS
10
0.5102591338582677
20
1.9630267322834645
11
0.5090558267716535
21
1.9646489763779527
0
LINE
8
BLACK
6
CONTINUOUS
10
0.5090558267716535
20
1.9646489763779527
11
0.5091768897637795
21
1.9666651574803149
0
LINE
8
BLACK
6
CONTINUOUS
10
0.5091768897637795
20
1.9666651574803149
11
0.5105655511811024
21
1.9681318503937006
0
LINE
8
BLACK
6
CONTINUOUS
10
0.5105655511811024
20
1.9681318503937006
11
0.5138864960629921
21
1.9697923228346457
0
LINE
8
BLACK
6
CONTINUOUS
10
0.5138864960629921
20
1.9697923228346457
11
0.5170903937007874
21
1.9729962204724409
0
LINE
8
BLACK
6
CONTINUOUS
10
0.5170903937007874
20
1.9729962204724409
11
0.5206777952755905
21
1.9783773228346457
0
LINE
8
BLACK
6
CONTINUOUS
10
0.5206777952755905
20
1.9783773228346457
11
0.5213861811023622
21
1.9791188582677164
0
LINE
8
BLACK
6
CONTINUOUS
10
0.5213861811023622
20
1.9791188582677164
11
0.5215491338582677
21
1.9791665748031495
0
LINE
8
BLACK
6
CONTINUOUS
10
0.5215491338582677
20
1.9791665748031495
11
0.5216582677165355
21
1.9792965748031495
0
LINE
8
BLACK
6
CONTINUOUS
10
0.5216582677165355
20
1.9792965748031495
11
0.5225020472440944
21
1.9794453937007874
0
LINE
8
BLACK
6
CONTINUOUS
10
0.5225020472440944
20
1.9794453937007874
11
0.52332468503937
21
1.979686062992126
0
LINE
8
BLACK
6
CONTINUOUS
10
0.52332468503937
20
1.979686062992126
11
0.523480157480315
21
1.979617874015748
0
LINE
8
BLACK
6
CONTINUOUS
10
0.569138937007874
20
1.9795140944881888
11
0.5706861811023622
21
1.9782157874015747
0
LINE
8
BLACK
6
CONTINUOUS
10
0.5706861811023622
20
1.9782157874015747
11
0.5710369291338583
21
1.9762266535433071
0
LINE
8
BLACK
6
CONTINUOUS
10
0.5710369291338583
20
1.9762266535433071
11
0.5700270078740157
21
1.9744774803149605
0
LINE
8
BLACK
6
CONTINUOUS
10
0.5700270078740157
20
1.9744774803149605
11
0.5681290157480314
21
1.9737866535433071
0
LINE
8
BLACK
6
CONTINUOUS
10
0.5681290157480314
20
1.9737866535433071
11
0.5613270078740157
21
1.9737866535433071
0
LINE
8
BLACK
6
CONTINUOUS
10
0.5613270078740157
20
1.9737866535433071
11
0.5586295275590552
21
1.9724379133858267
0
LINE
8
BLACK
6
CONTINUOUS
10
0.5586295275590552
20
1.9724379133858267
11
0.5573003149606299
21
1.9711087401574803
0
LINE
8
BLACK
6
CONTINUOUS
10
0.5573003149606299
20
1.9711087401574803
11
0.5539966929133858
21
1.9661532677165354
0
LINE
8
BLACK
6
CONTINUOUS
10
0.5539966929133858
20
1.9661532677165354
11
0.5532674015748031
21
1.9632360629921259
0
LINE
8
BLACK
6
CONTINUOUS
10
0.5532674015748031
20
1.9632360629921259
11
0.5555599212598425
21
1.9643823228346455
0
LINE
8
BLACK
6
CONTINUOUS
10
0.5555599212598425
20
1.9643823228346455
11
0.5565428346456692
21
1.9646746850393699
0
LINE
8
BLACK
6
CONTINUOUS
10
0.5565428346456692
20
1.9646746850393699
11
0.5567145275590552
21
1.9646337007874015
0
LINE
8
BLACK
6
CONTINUOUS
10
0.5567145275590552
20
1.9646337007874015
11
0.5568804330708661
21
1.9646940551181102
0
LINE
8
BLACK
6
CONTINUOUS
10
0.5568804330708661
20
1.9646940551181102
11
0.5643794881889763
21
1.9646940551181102
0
LINE
8
BLACK
6
CONTINUOUS
10
0.5643794881889763
20
1.9646940551181102
11
0.5653894094488189
21
1.9645159842519684
0
LINE
8
BLACK
6
CONTINUOUS
10
0.5653894094488189
20
1.9645159842519684
11
0.5655246456692913
21
1.9644025196850394
0
LINE
8
BLACK
6
CONTINUOUS
10
0.5655246456692913
20
1.9644025196850394
11
0.5657
21
1.9643823228346455
0
LINE
8
BLACK
6
CONTINUOUS
10
0.5657
20
1.9643823228346455
11
0.5694495275590551
21
1.962507559055118
0
LINE
8
BLACK
6
CONTINUOUS
10
0.5694495275590551
20
1.962507559055118
11
0.5701585826771653
21
1.961981653543307
0
LINE
8
BLACK
6
CONTINUOUS
10
0.5701585826771653
20
1.961981653543307
11
0.5702169291338582
21
1.9619544488188976
0
LINE
8
BLACK
6
CONTINUOUS
10
0.5702169291338582
20
1.9619544488188976
11
0.5720916929133858
21
1.96007968503937
0
LINE
8
BLACK
6
CONTINUOUS
10
0.5720916929133858
20
1.96007968503937
11
0.5725979527559055
21
1.9593566141732284
0
LINE
8
BLACK
6
CONTINUOUS
10
0.5725979527559055
20
1.9593566141732284
11
0.5726448031496063
21
1.9593122834645669
0
LINE
8
BLACK
6
CONTINUOUS
10
0.5726448031496063
20
1.9593122834645669
11
0.5745195669291339
21
1.9555627559055118
0
LINE
8
BLACK
6
CONTINUOUS
10
0.5745195669291339
20
1.9555627559055118
11
0.5748119291338583
21
1.954579842519685
0
LINE
8
BLACK
6
CONTINUOUS
10
0.5748119291338583
20
1.954579842519685
11
0.574770905511811
21
1.9544081496062993
0
LINE
8
BLACK
6
CONTINUOUS
10
0.574770905511811
20
1.9544081496062993
11
0.5748312992125985
21
1.9542422440944882
0
LINE
8
BLACK
6
CONTINUOUS
10
0.5748312992125985
20
1.9542422440944882
11
0.5748312992125985
21
1.9448684251968504
0
LINE
8
BLACK
6
CONTINUOUS
10
0.5748312992125985
20
1.9448684251968504
11
0.5746532283464567
21
1.9438585039370078
0
LINE
8
BLACK
6
CONTINUOUS
10
0.5746532283464567
20
1.9438585039370078
11
0.5745397244094488
21
1.9437232677165355
0
LINE
8
BLACK
6
CONTINUOUS
10
0.5745397244094488
20
1.9437232677165355
11
0.5745195669291339
21
1.9435479133858267
0
LINE
8
BLACK
6
CONTINUOUS
10
0.5745195669291339
20
1.9435479133858267
11
0.5726448031496063
21
1.9397983858267716
0
LINE
8
BLACK
6
CONTINUOUS
10
0.5726448031496063
20
1.9397983858267716
11
0.5721188582677165
21
1.9390893307086614
0
LINE
8
BLACK
6
CONTINUOUS
10
0.5721188582677165
20
1.9390893307086614
11
0.5720916929133858
21
1.9390309842519684
0
LINE
8
BLACK
6
CONTINUOUS
10
0.5720916929133858
20
1.9390309842519684
11
0.570216968503937
21
1.9371562204724408
0
LINE
8
BLACK
6
CONTINUOUS
10
0.570216968503937
20
1.9371562204724408
11
0.5694937795275591
21
1.936649842519685
0
LINE
8
BLACK
6
CONTINUOUS
10
0.5694937795275591
20
1.936649842519685
11
0.5694495275590551
21
1.9366030708661417
0
LINE
8
BLACK
6
CONTINUOUS
10
0.5694495275590551
20
1.9366030708661417
11
0.5657
21
1.9347283070866141
0
LINE
8
BLACK
6
CONTINUOUS
10
0.5657
20
1.9347283070866141
11
0.5647170472440944
21
1.9344359448818897
0
LINE
8
BLACK
6
CONTINUOUS
10
0.5647170472440944
20
1.9344359448818897
11
0.5645453543307086
21
1.9344769685039369
0
LINE
8
BLACK
6
CONTINUOUS
10
0.5645453543307086
20
1.9344769685039369
11
0.5643794881889763
21
1.9344165748031497
0
LINE
8
BLACK
6
CONTINUOUS
10
0.5643794881889763
20
1.9344165748031497
11
0.5568804330708661
21
1.9344165748031497
0
LINE
8
BLACK
6
CONTINUOUS
10
0.5568804330708661
20
1.9344165748031497
11
0.5558705118110236
21
1.9345946456692913
0
LINE
8
BLACK
6
CONTINUOUS
10
0.5558705118110236
20
1.9345946456692913
11
0.5557352362204724
21
1.9347081496062992
0
LINE
8
BLACK
6
CONTINUOUS
10
0.5557352362204724
20
1.9347081496062992
11
0.5555599212598425
21
1.9347283070866141
0
LINE
8
BLACK
6
CONTINUOUS
10
0.5555599212598425
20
1.9347283070866141
11
0.5518103937007874
21
1.9366030708661417
0
LINE
8
BLACK
6
CONTINUOUS
10
0.5518103937007874
20
1.9366030708661417
11
0.5511012598425197
21
1.9371290551181102
0
LINE
8
BLACK
6
CONTINUOUS
10
0.5511012598425197
20
1.9371290551181102
11
0.5510429527559055
21
1.9371562204724408
0
LINE
8
BLACK
6
CONTINUOUS
10
0.5510429527559055
20
1.9371562204724408
11
0.549168188976378
21
1.9390310236220472
0
LINE
8
BLACK
6
CONTINUOUS
10
0.549168188976378
20
1.9390310236220472
11
0.5486618897637795
21
1.939754094488189
0
LINE
8
BLACK
6
CONTINUOUS
10
0.5486618897637795
20
1.939754094488189
11
0.5486151181102362
21
1.9397983858267716
0
LINE
8
BLACK
6
CONTINUOUS
10
0.5486151181102362
20
1.9397983858267716
11
0.5467403543307087
21
1.9435479133858267
0
LINE
8
BLACK
6
CONTINUOUS
10
0.5467403543307087
20
1.9435479133858267
11
0.5464479921259843
21
1.9445308661417322
0
LINE
8
BLACK
6
CONTINUOUS
10
0.5464479921259843
20
1.9445308661417322
11
0.5464889763779528
21
1.9447025590551181
0
LINE
8
BLACK
6
CONTINUOUS
10
0.5464889763779528
20
1.9447025590551181
11
0.5464286220472441
21
1.9448684251968504
0
LINE
8
BLACK
6
CONTINUOUS
10
0.5464286220472441
20
1.9448684251968504
11
0.5464286220472441
21
1.9598665354330709
0
LINE
8
BLACK
6
CONTINUOUS
10
0.5464286220472441
20
1.9598665354330709
11
0.5465309448818898
21
1.9604469291338582
0
LINE
8
BLACK
6
CONTINUOUS
10
0.5465309448818898
20
1.9604469291338582
11
0.5465167716535433
21
1.9605826771653543
0
LINE
8
BLACK
6
CONTINUOUS
10
0.5465167716535433
20
1.9605826771653543
11
0.5483915354330708
21
1.9680817322834645
0
LINE
8
BLACK
6
CONTINUOUS
10
0.5483915354330708
20
1.9680817322834645
11
0.5487952362204724
21
1.9689869291338582
0
LINE
8
BLACK
6
CONTINUOUS
10
0.5487952362204724
20
1.9689869291338582
11
0.5487992913385826
21
1.9690035039370077
0
LINE
8
BLACK
6
CONTINUOUS
10
0.5487992913385826
20
1.9690035039370077
11
0.5525488188976377
21
1.9746277952755904
0
LINE
8
BLACK
6
CONTINUOUS
10
0.5525488188976377
20
1.9746277952755904
11
0.5528596062992126
21
1.9749531889763778
0
LINE
8
BLACK
6
CONTINUOUS
10
0.5528596062992126
20
1.9749531889763778
11
0.5529177559055118
21
1.9750777952755905
0
LINE
8
BLACK
6
CONTINUOUS
10
0.5529177559055118
20
1.9750777952755905
11
0.5547925196850394
21
1.976952559055118
0
LINE
8
BLACK
6
CONTINUOUS
10
0.5547925196850394
20
1.976952559055118
11
0.555515590551181
21
1.9774588582677164
0
LINE
8
BLACK
6
CONTINUOUS
10
0.555515590551181
20
1.9774588582677164
11
0.5555599212598425
21
1.9775056692913386
0
LINE
8
BLACK
6
CONTINUOUS
10
0.5555599212598425
20
1.9775056692913386
11
0.5593094488188977
21
1.9793804330708662
0
LINE
8
BLACK
6
CONTINUOUS
10
0.5593094488188977
20
1.9793804330708662
11
0.5602923622047244
21
1.9796727952755906
0
LINE
8
BLACK
6
CONTINUOUS
10
0.5602923622047244
20
1.9796727952755906
11
0.5604640551181103
21
1.979631811023622
0
LINE
8
BLACK
6
CONTINUOUS
10
0.5604640551181103
20
1.979631811023622
11
0.5606299606299212
21
1.9796921653543307
0
LINE
8
BLACK
6
CONTINUOUS
10
0.5606299606299212
20
1.9796921653543307
11
0.5681290157480314
21
1.9796921653543307
0
LINE
8
BLACK
6
CONTINUOUS
10
0.5681290157480314
20
1.9796921653543307
11
0.569138937007874
21
1.9795140944881888
0
LINE
8
BLACK
6
CONTINUOUS
10
0.55488
20
1.9574398031496063
11
0.553682874015748
21
1.9562426771653543
0
LINE
8
BLACK
6
CONTINUOUS
10
0.553682874015748
20
1.9562426771653543
11
0.5523341338582677
21
1.9535451968503936
0
LINE
8
BLACK
6
CONTINUOUS
10
0.5523341338582677
20
1.9535451968503936
11
0.5523341338582677
21
1.9455654724409448
0
LINE
8
BLACK
6
CONTINUOUS
10
0.5523341338582677
20
1.9455654724409448
11
0.553682874015748
21
1.9428679921259842
0
LINE
8
BLACK
6
CONTINUOUS
10
0.553682874015748
20
1.9428679921259842
11
0.55488
21
1.9416708267716536
0
LINE
8
BLACK
6
CONTINUOUS
10
0.55488
20
1.9416708267716536
11
0.5575774803149606
21
1.9403220866141733
0
LINE
8
BLACK
6
CONTINUOUS
10
0.5575774803149606
20
1.9403220866141733
11
0.5636824409448818
21
1.9403220866141733
0
LINE
8
BLACK
6
CONTINUOUS
10
0.5636824409448818
20
1.9403220866141733
11
0.5663798818897637
21
1.9416708267716536
0
LINE
8
BLACK
6
CONTINUOUS
10
0.5663798818897637
20
1.9416708267716536
11
0.5675770078740158
21
1.9428679921259842
0
LINE
8
BLACK
6
CONTINUOUS
10
0.5675770078740158
20
1.9428679921259842
11
0.5689257874015748
21
1.9455654724409448
0
LINE
8
BLACK
6
CONTINUOUS
10
0.5689257874015748
20
1.9455654724409448
11
0.5689257874015748
21
1.9535451968503936
0
LINE
8
BLACK
6
CONTINUOUS
10
0.5689257874015748
20
1.9535451968503936
11
0.5675770472440945
21
1.9562426771653543
0
LINE
8
BLACK
6
CONTINUOUS
10
0.5675770472440945
20
1.9562426771653543
11
0.5663799212598425
21
1.9574398031496063
0
LINE
8
BLACK
6
CONTINUOUS
10
0.5663799212598425
20
1.9574398031496063
11
0.5636824409448818
21
1.9587885433070866
0
LINE
8
BLACK
6
CONTINUOUS
10
0.5636824409448818
20
1.9587885433070866
11
0.5575774803149606
21
1.9587885433070866
0
LINE
8
BLACK
6
CONTINUOUS
10
0.5575774803149606
20
1.9587885433070866
11
0.55488
21
1.9574398031496063
0
LINE
8
BLACK
6
CONTINUOUS
10
0.6010099606299213
20
1.9795140944881888
11
0.6011451968503937
21
1.9794006299212599
0
LINE
8
BLACK
6
CONTINUOUS
10
0.6011451968503937
20
1.9794006299212599
11
0.6013205511811024
21
1.9793804330708662
0
LINE
8
BLACK
6
CONTINUOUS
10
0.6013205511811024
20
1.9793804330708662
11
0.6050700787401575
21
1.9775056692913386
0
LINE
8
BLACK
6
CONTINUOUS
10
0.6050700787401575
20
1.9775056692913386
11
0.6057791338582676
21
1.9769797637795274
0
LINE
8
BLACK
6
CONTINUOUS
10
0.6057791338582676
20
1.9769797637795274
11
0.6058374803149607
21
1.976952559055118
0
LINE
8
BLACK
6
CONTINUOUS
10
0.6058374803149607
20
1.976952559055118
11
0.6077122440944882
21
1.9750777952755905
0
LINE
8
BLACK
6
CONTINUOUS
10
0.6077122440944882
20
1.9750777952755905
11
0.6082185039370078
21
1.9743547244094488
0
LINE
8
BLACK
6
CONTINUOUS
10
0.6082185039370078
20
1.9743547244094488
11
0.6082653543307086
21
1.9743103937007873
0
LINE
8
BLACK
6
CONTINUOUS
10
0.6082653543307086
20
1.9743103937007873
11
0.6101401181102362
21
1.9705608661417322
0
LINE
8
BLACK
6
CONTINUOUS
10
0.6101401181102362
20
1.9705608661417322
11
0.6102853937007874
21
1.9700724409448818
0
LINE
8
BLACK
6
CONTINUOUS
10
0.6102853937007874
20
1.9700724409448818
11
0.6103637007874015
21
1.9699564960629921
0
LINE
8
BLACK
6
CONTINUOUS
10
0.6103637007874015
20
1.9699564960629921
11
0.6122384645669291
21
1.9624574409448818
0
LINE
8
BLACK
6
CONTINUOUS
10
0.6122384645669291
20
1.9624574409448818
11
0.6122799212598425
21
1.9618695669291337
0
LINE
8
BLACK
6
CONTINUOUS
10
0.6122799212598425
20
1.9618695669291337
11
0.6123266141732283
21
1.9617412992125984
0
LINE
8
BLACK
6
CONTINUOUS
10
0.6123266141732283
20
1.9617412992125984
11
0.6123266141732283
21
1.9523674803149607
0
LINE
8
BLACK
6
CONTINUOUS
10
0.6123266141732283
20
1.9523674803149607
11
0.6122242519685039
21
1.9517871259842519
0
LINE
8
BLACK
6
CONTINUOUS
10
0.6122242519685039
20
1.9517871259842519
11
0.6122384645669291
21
1.951651338582677
0
LINE
8
BLACK
6
CONTINUOUS
10
0.6122384645669291
20
1.951651338582677
11
0.6103637007874015
21
1.9441522834645668
0
LINE
8
BLACK
6
CONTINUOUS
10
0.6103637007874015
20
1.9441522834645668
11
0.6101561023622047
21
1.9436868503937008
0
LINE
8
BLACK
6
CONTINUOUS
10
0.6101561023622047
20
1.9436868503937008
11
0.6101401181102362
21
1.9435479133858267
0
LINE
8
BLACK
6
CONTINUOUS
10
0.6101401181102362
20
1.9435479133858267
11
0.6082653543307086
21
1.9397983858267716
0
LINE
8
BLACK
6
CONTINUOUS
10
0.6082653543307086
20
1.9397983858267716
11
0.6077394094488189
21
1.9390893307086614
0
LINE
8
BLACK
6
CONTINUOUS
10
0.6077394094488189
20
1.9390893307086614
11
0.6077122440944882
21
1.9390309842519684
0
LINE
8
BLACK
6
CONTINUOUS
10
0.6077122440944882
20
1.9390309842519684
11
0.6058375196850394
21
1.9371562204724408
0
LINE
8
BLACK
6
CONTINUOUS
10
0.6058375196850394
20
1.9371562204724408
11
0.6051143307086614
21
1.936649842519685
0
LINE
8
BLACK
6
CONTINUOUS
10
0.6051143307086614
20
1.936649842519685
11
0.6050700787401575
21
1.9366030708661417
0
LINE
8
BLACK
6
CONTINUOUS
10
0.6050700787401575
20
1.9366030708661417
11
0.6013205511811024
21
1.9347283070866141
0
LINE
8
BLACK
6
CONTINUOUS
10
0.6013205511811024
20
1.9347283070866141
11
0.6003375984251969
21
1.9344359448818897
0
LINE
8
BLACK
6
CONTINUOUS
10
0.6003375984251969
20
1.9344359448818897
11
0.600165905511811
21
1.9344769685039369
0
LINE
8
BLACK
6
CONTINUOUS
10
0.600165905511811
20
1.9344769685039369
11
0.6000000393700787
21
1.9344165748031497
0
LINE
8
BLACK
6
CONTINUOUS
10
0.6000000393700787
20
1.9344165748031497
11
0.5962505118110236
21
1.9344165748031497
0
LINE
8
BLACK
6
CONTINUOUS
10
0.5962505118110236
20
1.9344165748031497
11
0.5952405905511811
21
1.9345946456692913
0
LINE
8
BLACK
6
CONTINUOUS
10
0.5952405905511811
20
1.9345946456692913
11
0.5951053149606299
21
1.9347081496062992
0
LINE
8
BLACK
6
CONTINUOUS
10
0.5951053149606299
20
1.9347081496062992
11
0.59493
21
1.9347283070866141
0
LINE
8
BLACK
6
CONTINUOUS
10
0.59493
20
1.9347283070866141
11
0.5911804724409448
21
1.9366030708661417
0
LINE
8
BLACK
6
CONTINUOUS
10
0.5911804724409448
20
1.9366030708661417
11
0.5904713385826772
21
1.9371290551181102
0
LINE
8
BLACK
6
CONTINUOUS
10
0.5904713385826772
20
1.9371290551181102
11
0.5904130314960629
21
1.9371562204724408
0
LINE
8
BLACK
6
CONTINUOUS
10
0.5904130314960629
20
1.9371562204724408
11
0.5885382677165354
21
1.9390310236220472
0
LINE
8
BLACK
6
CONTINUOUS
10
0.5885382677165354
20
1.9390310236220472
11
0.588031968503937
21
1.939754094488189
0
LINE
8
BLACK
6
CONTINUOUS
10
0.588031968503937
20
1.939754094488189
11
0.5879851968503936
21
1.9397983858267716
0
LINE
8
BLACK
6
CONTINUOUS
10
0.5879851968503936
20
1.9397983858267716
11
0.5861104330708661
21
1.9435479133858267
0
LINE
8
BLACK
6
CONTINUOUS
10
0.5861104330708661
20
1.9435479133858267
11
0.5859651181102362
21
1.9440363779527559
0
LINE
8
BLACK
6
CONTINUOUS
10
0.5859651181102362
20
1.9440363779527559
11
0.5858868503937008
21
1.9441522834645668
0
LINE
8
BLACK
6
CONTINUOUS
10
0.5858868503937008
20
1.9441522834645668
11
0.5840120866141733
21
1.951651338582677
0
LINE
8
BLACK
6
CONTINUOUS
10
0.5840120866141733
20
1.951651338582677
11
0.5839705905511811
21
1.9522392519685039
0
LINE
8
BLACK
6
CONTINUOUS
10
0.5839705905511811
20
1.9522392519685039
11
0.583923937007874
21
1.9523674803149607
0
LINE
8
BLACK
6
CONTINUOUS
10
0.583923937007874
20
1.9523674803149607
11
0.583923937007874
21
1.9617412992125984
0
LINE
8
BLACK
6
CONTINUOUS
10
0.583923937007874
20
1.9617412992125984
11
0.5840262598425197
21
1.9623216929133858
0
LINE
8
BLACK
6
CONTINUOUS
10
0.5840262598425197
20
1.9623216929133858
11
0.5840120866141733
21
1.9624574409448818
0
LINE
8
BLACK
6
CONTINUOUS
10
0.5840120866141733
20
1.9624574409448818
11
0.5858868503937008
21
1.9699564960629921
0
LINE
8
BLACK
6
CONTINUOUS
10
0.5858868503937008
20
1.9699564960629921
11
0.5860944094488189
21
1.970421968503937
0
LINE
8
BLACK
6
CONTINUOUS
10
0.5860944094488189
20
1.970421968503937
11
0.5861104330708661
21
1.9705608661417322
0
LINE
8
BLACK
6
CONTINUOUS
10
0.5861104330708661
20
1.9705608661417322
11
0.5879851968503936
21
1.9743103937007873
0
LINE
8
BLACK
6
CONTINUOUS
10
0.5879851968503936
20
1.9743103937007873
11
0.5885111023622047
21
1.9750194881889764
0
LINE
8
BLACK
6
CONTINUOUS
10
0.5885111023622047
20
1.9750194881889764
11
0.5885383070866141
21
1.9750777952755905
0
LINE
8
BLACK
6
CONTINUOUS
10
0.5885383070866141
20
1.9750777952755905
11
0.5904130708661417
21
1.976952559055118
0
LINE
8
BLACK
6
CONTINUOUS
10
0.5904130708661417
20
1.976952559055118
11
0.5911361417322835
21
1.9774588582677164
0
LINE
8
BLACK
6
CONTINUOUS
10
0.5911361417322835
20
1.9774588582677164
11
0.5911804724409448
21
1.9775056692913386
0
LINE
8
BLACK
6
CONTINUOUS
10
0.5911804724409448
20
1.9775056692913386
11
0.59493
21
1.9793804330708662
0
LINE
8
BLACK
6
CONTINUOUS
10
0.59493
20
1.9793804330708662
11
0.5959129133858267
21
1.9796727952755906
0
LINE
8
BLACK
6
CONTINUOUS
10
0.5959129133858267
20
1.9796727952755906
11
0.5960846062992126
21
1.979631811023622
0
LINE
8
BLACK
6
CONTINUOUS
10
0.5960846062992126
20
1.979631811023622
11
0.5962505118110236
21
1.9796921653543307
0
LINE
8
BLACK
6
CONTINUOUS
10
0.5962505118110236
20
1.9796921653543307
11
0.6000000393700787
21
1.9796921653543307
0
LINE
8
BLACK
6
CONTINUOUS
10
0.6000000393700787
20
1.9796921653543307
11
0.6010099606299213
21
1.9795140944881888
0
LINE
8
BLACK
6
CONTINUOUS
10
0.5942500787401575
20
1.9724379133858267
11
0.5930529527559055
21
1.9712407874015747
0
LINE
8
BLACK
6
CONTINUOUS
10
0.5930529527559055
20
1.9712407874015747
11
0.5915374409448819
21
1.9682098031496063
0
LINE
8
BLACK
6
CONTINUOUS
10
0.5915374409448819
20
1.9682098031496063
11
0.5898294488188977
21
1.9613777559055117
0
LINE
8
BLACK
6
CONTINUOUS
10
0.5898294488188977
20
1.9613777559055117
11
0.5898294488188977
21
1.9527310236220472
0
LINE
8
BLACK
6
CONTINUOUS
10
0.5898294488188977
20
1.9527310236220472
11
0.5915374409448819
21
1.9458989763779526
0
LINE
8
BLACK
6
CONTINUOUS
10
0.5915374409448819
20
1.9458989763779526
11
0.5930529527559055
21
1.9428679921259842
0
LINE
8
BLACK
6
CONTINUOUS
10
0.5930529527559055
20
1.9428679921259842
11
0.5942500787401575
21
1.9416708267716536
0
LINE
8
BLACK
6
CONTINUOUS
10
0.5942500787401575
20
1.9416708267716536
11
0.5969475590551181
21
1.9403220866141733
0
LINE
8
BLACK
6
CONTINUOUS
10
0.5969475590551181
20
1.9403220866141733
11
0.5993029921259843
21
1.9403220866141733
0
LINE
8
BLACK
6
CONTINUOUS
10
0.5993029921259843
20
1.9403220866141733
11
0.6020004330708661
21
1.9416708267716536
0
LINE
8
BLACK
6
CONTINUOUS
10
0.6020004330708661
20
1.9416708267716536
11
0.6031975590551181
21
1.9428679921259842
0
LINE
8
BLACK
6
CONTINUOUS
10
0.6031975590551181
20
1.9428679921259842
11
0.6047130708661417
21
1.9458989763779526
0
LINE
8
BLACK
6
CONTINUOUS
10
0.6047130708661417
20
1.9458989763779526
11
0.6064211023622047
21
1.9527310236220472
0
LINE
8
BLACK
6
CONTINUOUS
10
0.6064211023622047
20
1.9527310236220472
11
0.6064211023622047
21
1.9613777559055117
0
LINE
8
BLACK
6
CONTINUOUS
10
0.6064211023622047
20
1.9613777559055117
11
0.6047130708661417
21
1.9682098031496063
0
LINE
8
BLACK
6
CONTINUOUS
10
0.6047130708661417
20
1.9682098031496063
11
0.6031975984251968
21
1.9712407874015747
0
LINE
8
BLACK
6
CONTINUOUS
10
0.6031975984251968
20
1.9712407874015747
11
0.6020004724409449
21
1.9724379133858267
0
LINE
8
BLACK
6
CONTINUOUS
10
0.6020004724409449
20
1.9724379133858267
11
0.5993029921259843
21
1.9737866535433071
0
LINE
8
BLACK
6
CONTINUOUS
10
0.5993029921259843
20
1.9737866535433071
11
0.5969475590551181
21
1.9737866535433071
0
LINE
8
BLACK
6
CONTINUOUS
10
0.5969475590551181
20
1.9737866535433071
11
0.5942500787401575
21
1.9724379133858267
0
LINE
8
BLACK
6
CONTINUOUS
10
0.6385052755905511
20
1.9795140944881888
11
0.6386405118110237
21
1.9794006299212599
0
LINE
8
BLACK
6
CONTINUOUS
10
0.6386405118110237
20
1.9794006299212599
11
0.6388158661417322
21
1.9793804330708662
0
LINE
8
BLACK
6
CONTINUOUS
10
0.6388158661417322
20
1.9793804330708662
11
0.6425653937007874
21
1.9775056692913386
0
LINE
8
BLACK
6
CONTINUOUS
10
0.6425653937007874
20
1.9775056692913386
11
0.6432744488188976
21
1.9769797637795274
0
LINE
8
BLACK
6
CONTINUOUS
10
0.6432744488188976
20
1.9769797637795274
11
0.6433327952755905
21
1.976952559055118
0
LINE
8
BLACK
6
CONTINUOUS
10
0.6433327952755905
20
1.976952559055118
11
0.6452075590551181
21
1.9750777952755905
0
LINE
8
BLACK
6
CONTINUOUS
10
0.6452075590551181
20
1.9750777952755905
11
0.6457138188976378
21
1.9743547244094488
0
LINE
8
BLACK
6
CONTINUOUS
10
0.6457138188976378
20
1.9743547244094488
11
0.6457606692913386
21
1.9743103937007873
0
LINE
8
BLACK
6
CONTINUOUS
10
0.6457606692913386
20
1.9743103937007873
11
0.6476354330708661
21
1.9705608661417322
0
LINE
8
BLACK
6
CONTINUOUS
10
0.6476354330708661
20
1.9705608661417322
11
0.6477807086614173
21
1.9700724409448818
0
LINE
8
BLACK
6
CONTINUOUS
10
0.6477807086614173
20
1.9700724409448818
11
0.6478590157480315
21
1.9699564960629921
0
LINE
8
BLACK
6
CONTINUOUS
10
0.6478590157480315
20
1.9699564960629921
11
0.6497337795275591
21
1.9624574409448818
0
LINE
8
BLACK
6
CONTINUOUS
10
0.6497337795275591
20
1.9624574409448818
11
0.6497752362204724
21
1.9618695669291337
0
LINE
8
BLACK
6
CONTINUOUS
10
0.6497752362204724
20
1.9618695669291337
11
0.6498219291338583
21
1.9617412992125984
0
LINE
8
BLACK
6
CONTINUOUS
10
0.6498219291338583
20
1.9617412992125984
11
0.6498219291338583
21
1.9523674803149607
0
LINE
8
BLACK
6
CONTINUOUS
10
0.6498219291338583
20
1.9523674803149607
11
0.6497195669291338
21
1.9517871259842519
0
LINE
8
BLACK
6
CONTINUOUS
10
0.6497195669291338
20
1.9517871259842519
11
0.6497337795275591
21
1.951651338582677
0
LINE
8
BLACK
6
CONTINUOUS
10
0.6497337795275591
20
1.951651338582677
11
0.6478590157480315
21
1.9441522834645668
0
LINE
8
BLACK
6
CONTINUOUS
10
0.6478590157480315
20
1.9441522834645668
11
0.6476514173228346
21
1.9436868503937008
0
LINE
8
BLACK
6
CONTINUOUS
10
0.6476514173228346
20
1.9436868503937008
11
0.6476354330708661
21
1.9435479133858267
0
LINE
8
BLACK
6
CONTINUOUS
10
0.6476354330708661
20
1.9435479133858267
11
0.6457606692913386
21
1.9397983858267716
0
LINE
8
BLACK
6
CONTINUOUS
10
0.6457606692913386
20
1.9397983858267716
11
0.6452347244094488
21
1.9390893307086614
0
LINE
8
BLACK
6
CONTINUOUS
10
0.6452347244094488
20
1.9390893307086614
11
0.6452075590551181
21
1.9390309842519684
0
LINE
8
BLACK
6
CONTINUOUS
10
0.6452075590551181
20
1.9390309842519684
11
0.6433328346456693
21
1.9371562204724408
0
LINE
8
BLACK
6
CONTINUOUS
10
0.6433328346456693
20
1.9371562204724408
11
0.6426096456692914
21
1.936649842519685
0
LINE
8
BLACK
6
CONTINUOUS
10
0.6426096456692914
20
1.936649842519685
11
0.6425653937007874
21
1.9366030708661417
0
LINE
8
BLACK
6
CONTINUOUS
10
0.6425653937007874
20
1.9366030708661417
11
0.6388158661417322
21
1.9347283070866141
0
LINE
8
BLACK
6
CONTINUOUS
10
0.6388158661417322
20
1.9347283070866141
11
0.6378329133858267
21
1.9344359448818897
0
LINE
8
BLACK
6
CONTINUOUS
10
0.6378329133858267
20
1.9344359448818897
11
0.6376612204724409
21
1.9344769685039369
0
LINE
8
BLACK
6
CONTINUOUS
10
0.6376612204724409
20
1.9344769685039369
11
0.6374953543307087
21
1.9344165748031497
0
LINE
8
BLACK
6
CONTINUOUS
10
0.6374953543307087
20
1.9344165748031497
11
0.6337458267716535
21
1.9344165748031497
0
LINE
8
BLACK
6
CONTINUOUS
10
0.6337458267716535
20
1.9344165748031497
11
0.632735905511811
21
1.9345946456692913
0
LINE
8
BLACK
6
CONTINUOUS
10
0.632735905511811
20
1.9345946456692913
11
0.6326006299212599
21
1.9347081496062992
0
LINE
8
BLACK
6
CONTINUOUS
10
0.6326006299212599
20
1.9347081496062992
11
0.6324253149606299
21
1.9347283070866141
0
LINE
8
BLACK
6
CONTINUOUS
10
0.6324253149606299
20
1.9347283070866141
11
0.6286757874015748
21
1.9366030708661417
0
LINE
8
BLACK
6
CONTINUOUS
10
0.6286757874015748
20
1.9366030708661417
11
0.6279666535433071
21
1.9371290551181102
0
LINE
8
BLACK
6
CONTINUOUS
10
0.6279666535433071
20
1.9371290551181102
11
0.6279083464566929
21
1.9371562204724408
0
LINE
8
BLACK
6
CONTINUOUS
10
0.6279083464566929
20
1.9371562204724408
11
0.6260335826771654
21
1.9390310236220472
0
LINE
8
BLACK
6
CONTINUOUS
10
0.6260335826771654
20
1.9390310236220472
11
0.6255272834645669
21
1.939754094488189
0
LINE
8
BLACK
6
CONTINUOUS
10
0.6255272834645669
20
1.939754094488189
11
0.6254805118110236
21
1.9397983858267716
0
LINE
8
BLACK
6
CONTINUOUS
10
0.6254805118110236
20
1.9397983858267716
11
0.623605748031496
21
1.9435479133858267
0
LINE
8
BLACK
6
CONTINUOUS
10
0.623605748031496
20
1.9435479133858267
11
0.6234604330708662
21
1.9440363779527559
0
LINE
8
BLACK
6
CONTINUOUS
10
0.6234604330708662
20
1.9440363779527559
11
0.6233821653543307
21
1.9441522834645668
0
LINE
8
BLACK
6
CONTINUOUS
10
0.6233821653543307
20
1.9441522834645668
11
0.6215074015748031
21
1.951651338582677
0
LINE
8
BLACK
6
CONTINUOUS
10
0.6215074015748031
20
1.951651338582677
11
0.621465905511811
21
1.9522392519685039
0
LINE
8
BLACK
6
CONTINUOUS
10
0.621465905511811
20
1.9522392519685039
11
0.6214192519685039
21
1.9523674803149607
0
LINE
8
BLACK
6
CONTINUOUS
10
0.6214192519685039
20
1.9523674803149607
11
0.6214192519685039
21
1.9617412992125984
0
LINE
8
BLACK
6
CONTINUOUS
10
0.6214192519685039
20
1.9617412992125984
11
0.6215215748031496
21
1.9623216929133858
0
LINE
8
BLACK
6
CONTINUOUS
10
0.6215215748031496
20
1.9623216929133858
11
0.6215074015748031
21
1.9624574409448818
0
LINE
8
BLACK
6
CONTINUOUS
10
0.6215074015748031
20
1.9624574409448818
11
0.6233821653543307
21
1.9699564960629921
0
LINE
8
BLACK
6
CONTINUOUS
10
0.6233821653543307
20
1.9699564960629921
11
0.6235897244094488
21
1.970421968503937
0
LINE
8
BLACK
6
CONTINUOUS
10
0.6235897244094488
20
1.970421968503937
11
0.623605748031496
21
1.9705608661417322
0
LINE
8
BLACK
6
CONTINUOUS
10
0.623605748031496
20
1.9705608661417322
11
0.6254805118110236
21
1.9743103937007873
0
LINE
8
BLACK
6
CONTINUOUS
10
0.6254805118110236
20
1.9743103937007873
11
0.6260064173228347
21
1.9750194881889764
0
LINE
8
BLACK
6
CONTINUOUS
10
0.6260064173228347
20
1.9750194881889764
11
0.6260336220472441
21
1.9750777952755905
0
LINE
8
BLACK
6
CONTINUOUS
10
0.6260336220472441
20
1.9750777952755905
11
0.6279083858267717
21
1.976952559055118
0
LINE
8
BLACK
6
CONTINUOUS
10
0.6279083858267717
20
1.976952559055118
11
0.6286314566929134
21
1.9774588582677164
0
LINE
8
BLACK
6
CONTINUOUS
10
0.6286314566929134
20
1.9774588582677164
11
0.6286757874015748
21
1.9775056692913386
0
LINE
8
BLACK
6
CONTINUOUS
10
0.6286757874015748
20
1.9775056692913386
11
0.6324253149606299
21
1.9793804330708662
0
LINE
8
BLACK
6
CONTINUOUS
10
0.6324253149606299
20
1.9793804330708662
11
0.6334082283464567
21
1.9796727952755906
0
LINE
8
BLACK
6
CONTINUOUS
10
0.6334082283464567
20
1.9796727952755906
11
0.6335799212598425
21
1.979631811023622
0
LINE
8
BLACK
6
CONTINUOUS
10
0.6335799212598425
20
1.979631811023622
11
0.6337458267716535
21
1.9796921653543307
0
LINE
8
BLACK
6
CONTINUOUS
10
0.6337458267716535
20
1.9796921653543307
11
0.6374953543307087
21
1.9796921653543307
0
LINE
8
BLACK
6
CONTINUOUS
10
0.6374953543307087
20
1.9796921653543307
11
0.6385052755905511
21
1.9795140944881888
0
LINE
8
BLACK
6
CONTINUOUS
10
0.6317453937007874
20
1.9724379133858267
11
0.6305482677165354
21
1.9712407874015747
0
LINE
8
BLACK
6
CONTINUOUS
10
0.6305482677165354
20
1.9712407874015747
11
0.6290327559055118
21
1.9682098031496063
0
LINE
8
BLACK
6
CONTINUOUS
10
0.6290327559055118
20
1.9682098031496063
11
0.6273247637795275
21
1.9613777559055117
0
LINE
8
BLACK
6
CONTINUOUS
10
0.6273247637795275
20
1.9613777559055117
11
0.6273247637795275
21
1.9527310236220472
0
LINE
8
BLACK
6
CONTINUOUS
10
0.6273247637795275
20
1.9527310236220472
11
0.6290327559055118
21
1.9458989763779526
0
LINE
8
BLACK
6
CONTINUOUS
10
0.6290327559055118
20
1.9458989763779526
11
0.6305482677165354
21
1.9428679921259842
0
LINE
8
BLACK
6
CONTINUOUS
10
0.6305482677165354
20
1.9428679921259842
11
0.6317453937007874
21
1.9416708267716536
0
LINE
8
BLACK
6
CONTINUOUS
10
0.6317453937007874
20
1.9416708267716536
11
0.6344428740157481
21
1.9403220866141733
0
LINE
8
BLACK
6
CONTINUOUS
10
0.6344428740157481
20
1.9403220866141733
11
0.6367983070866141
21
1.9403220866141733
0
LINE
8
BLACK
6
CONTINUOUS
10
0.6367983070866141
20
1.9403220866141733
11
0.639495748031496
21
1.9416708267716536
0
LINE
8
BLACK
6
CONTINUOUS
10
0.639495748031496
20
1.9416708267716536
11
0.640692874015748
21
1.9428679921259842
0
LINE
8
BLACK
6
CONTINUOUS
10
0.640692874015748
20
1.9428679921259842
11
0.6422083858267716
21
1.9458989763779526
0
LINE
8
BLACK
6
CONTINUOUS
10
0.6422083858267716
20
1.9458989763779526
11
0.6439164173228347
21
1.9527310236220472
0
LINE
8
BLACK
6
CONTINUOUS
10
0.6439164173228347
20
1.9527310236220472
11
0.6439164173228347
21
1.9613777559055117
0
LINE
8
BLACK
6
CONTINUOUS
10
0.6439164173228347
20
1.9613777559055117
11
0.6422083858267716
21
1.9682098031496063
0
LINE
8
BLACK
6
CONTINUOUS
10
0.6422083858267716
20
1.9682098031496063
11
0.6406929133858268
21
1.9712407874015747
0
LINE
8
BLACK
6
CONTINUOUS
10
0.6406929133858268
20
1.9712407874015747
11
0.6394957874015748
21
1.9724379133858267
0
LINE
8
BLACK
6
CONTINUOUS
10
0.6394957874015748
20
1.9724379133858267
11
0.6367983070866141
21
1.9737866535433071
0
LINE
8
BLACK
6
CONTINUOUS
10
0.6367983070866141
20
1.9737866535433071
11
0.6344428740157481
21
1.9737866535433071
0
LINE
8
BLACK
6
CONTINUOUS
10
0.6344428740157481
20
1.9737866535433071
11
0.6317453937007874
21
1.9724379133858267
0
LINE
8
BLACK
6
CONTINUOUS
10
0.495392874015748
20
1.9440033858267716
11
0.4955259448818898
21
1.9440268110236221
0
LINE
8
BLACK
6
CONTINUOUS
10
0.4955259448818898
20
1.9440268110236221
11
0.495642874015748
21
1.9439593307086613
0
LINE
8
BLACK
6
CONTINUOUS
10
0.495642874015748
20
1.9439593307086613
11
0.4957774015748032
21
1.9439710629921259
0
LINE
8
BLACK
6
CONTINUOUS
10
0.4957774015748032
20
1.9439710629921259
11
0.4964059448818898
21
1.9435309448818898
0
LINE
8
BLACK
6
CONTINUOUS
10
0.4964059448818898
20
1.9435309448818898
11
0.4971011417322835
21
1.9432067716535433
0
LINE
8
BLACK
6
CONTINUOUS
10
0.4971011417322835
20
1.9432067716535433
11
0.4989758661417323
21
1.9413320078740157
0
LINE
8
BLACK
6
CONTINUOUS
10
0.4989758661417323
20
1.9413320078740157
11
0.4991992519685039
21
1.9410129921259842
0
LINE
8
BLACK
6
CONTINUOUS
10
0.4991992519685039
20
1.9410129921259842
11
0.4993067322834646
21
1.9409377165354331
0
LINE
8
BLACK
6
CONTINUOUS
10
0.4993067322834646
20
1.9409377165354331
11
0.4993406692913386
21
1.9408110236220473
0
LINE
8
BLACK
6
CONTINUOUS
10
0.4993406692913386
20
1.9408110236220473
11
0.4995640944881889
21
1.9404919291338583
0
LINE
8
BLACK
6
CONTINUOUS
10
0.4995640944881889
20
1.9404919291338583
11
0.499630905511811
21
1.9397276377952755
0
LINE
8
BLACK
6
CONTINUOUS
10
0.499630905511811
20
1.9397276377952755
11
0.4998294488188976
21
1.9389867322834646
0
LINE
8
BLACK
6
CONTINUOUS
10
0.4998294488188976
20
1.9389867322834646
11
0.4997168503937008
21
1.93874531496063
0
LINE
8
BLACK
6
CONTINUOUS
10
0.4997168503937008
20
1.93874531496063
11
0.4997400787401575
21
1.938479842519685
0
LINE
8
BLACK
6
CONTINUOUS
10
0.4997400787401575
20
1.938479842519685
11
0.4993000393700787
21
1.9378514173228345
0
LINE
8
BLACK
6
CONTINUOUS
10
0.4993000393700787
20
1.9378514173228345
11
0.4989758661417323
21
1.9371561811023621
0
LINE
8
BLACK
6
CONTINUOUS
10
0.4989758661417323
20
1.9371561811023621
11
0.4971011023622047
21
1.9352814173228345
0
LINE
8
BLACK
6
CONTINUOUS
10
0.4971011023622047
20
1.9352814173228345
11
0.4967820472440945
21
1.935058031496063
0
LINE
8
BLACK
6
CONTINUOUS
10
0.4967820472440945
20
1.935058031496063
11
0.496706811023622
21
1.9349505511811023
0
LINE
8
BLACK
6
CONTINUOUS
10
0.496706811023622
20
1.9349505511811023
11
0.4965800393700787
21
1.9349166141732284
0
LINE
8
BLACK
6
CONTINUOUS
10
0.4965800393700787
20
1.9349166141732284
11
0.4965730708661417
21
1.9349117322834646
0
LINE
8
BLACK
6
CONTINUOUS
10
0.4965730708661417
20
1.9349117322834646
11
0.4964895669291339
21
1.9348121653543306
0
LINE
8
BLACK
6
CONTINUOUS
10
0.4964895669291339
20
1.9348121653543306
11
0.4964111811023622
21
1.9347983464566929
0
LINE
8
BLACK
6
CONTINUOUS
10
0.4964111811023622
20
1.9347983464566929
11
0.496261062992126
21
1.9346932283464566
0
LINE
8
BLACK
6
CONTINUOUS
10
0.496261062992126
20
1.9346932283464566
11
0.4954967322834646
21
1.9346263779527559
0
LINE
8
BLACK
6
CONTINUOUS
10
0.4954967322834646
20
1.9346263779527559
11
0.4947558267716535
21
1.9344278346456691
0
LINE
8
BLACK
6
CONTINUOUS
10
0.4947558267716535
20
1.9344278346456691
11
0.4946334645669291
21
1.9344848818897638
0
LINE
8
BLACK
6
CONTINUOUS
10
0.4946334645669291
20
1.9344848818897638
11
0.4945004330708661
21
1.9344614173228345
0
LINE
8
BLACK
6
CONTINUOUS
10
0.4945004330708661
20
1.9344614173228345
11
0.4943834645669291
21
1.934528937007874
0
LINE
8
BLACK
6
CONTINUOUS
10
0.4943834645669291
20
1.934528937007874
11
0.4942489763779527
21
1.9345171653543307
0
LINE
8
BLACK
6
CONTINUOUS
10
0.4942489763779527
20
1.9345171653543307
11
0.4936204724409449
21
1.934957283464567
0
LINE
8
BLACK
6
CONTINUOUS
10
0.4936204724409449
20
1.934957283464567
11
0.4929252755905512
21
1.9352814173228345
0
LINE
8
BLACK
6
CONTINUOUS
10
0.4929252755905512
20
1.9352814173228345
11
0.4910505118110236
21
1.9371561811023621
0
LINE
8
BLACK
6
CONTINUOUS
10
0.4910505118110236
20
1.9371561811023621
11
0.4908271653543307
21
1.9374751574803148
0
LINE
8
BLACK
6
CONTINUOUS
10
0.4908271653543307
20
1.9374751574803148
11
0.4907196456692913
21
1.9375504330708662
0
LINE
8
BLACK
6
CONTINUOUS
10
0.4907196456692913
20
1.9375504330708662
11
0.4906856692913386
21
1.937677244094488
0
LINE
8
BLACK
6
CONTINUOUS
10
0.4906856692913386
20
1.937677244094488
11
0.4904623228346456
21
1.9379962204724408
0
LINE
8
BLACK
6
CONTINUOUS
10
0.4904623228346456
20
1.9379962204724408
11
0.4903954330708661
21
1.9387604724409448
0
LINE
8
BLACK
6
CONTINUOUS
10
0.4903954330708661
20
1.9387604724409448
11
0.4901969291338583
21
1.9395014173228347
0
LINE
8
BLACK
6
CONTINUOUS
10
0.4901969291338583
20
1.9395014173228347
11
0.4903094881889764
21
1.9397428346456693
0
LINE
8
BLACK
6
CONTINUOUS
10
0.4903094881889764
20
1.9397428346456693
11
0.4902862598425197
21
1.9400083070866141
0
LINE
8
BLACK
6
CONTINUOUS
10
0.4902862598425197
20
1.9400083070866141
11
0.4907262992125984
21
1.9406368110236221
0
LINE
8
BLACK
6
CONTINUOUS
10
0.4907262992125984
20
1.9406368110236221
11
0.4910504724409449
21
1.941331968503937
0
LINE
8
BLACK
6
CONTINUOUS
10
0.4910504724409449
20
1.941331968503937
11
0.4929252362204724
21
1.9432067716535433
0
LINE
8
BLACK
6
CONTINUOUS
10
0.4929252362204724
20
1.9432067716535433
11
0.4932442913385827
21
1.9434302362204725
0
LINE
8
BLACK
6
CONTINUOUS
10
0.4932442913385827
20
1.9434302362204725
11
0.4933195669291339
21
1.9435376771653543
0
LINE
8
BLACK
6
CONTINUOUS
10
0.4933195669291339
20
1.9435376771653543
11
0.4934462598425197
21
1.943571653543307
0
LINE
8
BLACK
6
CONTINUOUS
10
0.4934462598425197
20
1.943571653543307
11
0.4934532677165354
21
1.9435765748031495
0
LINE
8
BLACK
6
CONTINUOUS
10
0.4934532677165354
20
1.9435765748031495
11
0.493536811023622
21
1.9436760629921259
0
LINE
8
BLACK
6
CONTINUOUS
10
0.493536811023622
20
1.9436760629921259
11
0.4936151181102362
21
1.9436898818897637
0
LINE
8
BLACK
6
CONTINUOUS
10
0.4936151181102362
20
1.9436898818897637
11
0.4937652755905512
21
1.9437949999999999
0
LINE
8
BLACK
6
CONTINUOUS
10
0.4937652755905512
20
1.9437949999999999
11
0.4945296062992126
21
1.9438618897637794
0
LINE
8
BLACK
6
CONTINUOUS
10
0.4945296062992126
20
1.9438618897637794
11
0.4952705511811024
21
1.9440603937007874
0
LINE
8
BLACK
6
CONTINUOUS
10
0.4952705511811024
20
1.9440603937007874
11
0.495392874015748
21
1.9440033858267716
0
LINE
8
BLACK
6
CONTINUOUS
10
0.7059968503937007
20
1.9663907480314959
11
0.7061320866141733
21
1.966277283464567
0
LINE
8
BLACK
6
CONTINUOUS
10
0.7061320866141733
20
1.966277283464567
11
0.7063074409448818
21
1.9662570866141731
0
LINE
8
BLACK
6
CONTINUOUS
10
0.7063074409448818
20
1.9662570866141731
11
0.710056968503937
21
1.9643823228346455
0
LINE
8
BLACK
6
CONTINUOUS
10
0.710056968503937
20
1.9643823228346455
11
0.7106268897637795
21
1.9639596456692914
0
LINE
8
BLACK
6
CONTINUOUS
10
0.7106268897637795
20
1.9639596456692914
11
0.7108615354330708
21
1.9640613385826771
0
LINE
8
BLACK
6
CONTINUOUS
10
0.7108615354330708
20
1.9640613385826771
11
0.7111654724409449
21
1.9643823228346455
0
LINE
8
BLACK
6
CONTINUOUS
10
0.7111654724409449
20
1.9643823228346455
11
0.714915
21
1.9662570866141731
0
LINE
8
BLACK
6
CONTINUOUS
10
0.714915
20
1.9662570866141731
11
0.7158979133858268
21
1.9665494488188975
0
LINE
8
BLACK
6
CONTINUOUS
10
0.7158979133858268
20
1.9665494488188975
11
0.7160696062992126
21
1.9665084645669291
0
LINE
8
BLACK
6
CONTINUOUS
10
0.7160696062992126
20
1.9665084645669291
11
0.7162355118110236
21
1.9665688188976378
0
LINE
8
BLACK
6
CONTINUOUS
10
0.7162355118110236
20
1.9665688188976378
11
0.7218598031496063
21
1.9665688188976378
0
LINE
8
BLACK
6
CONTINUOUS
10
0.7218598031496063
20
1.9665688188976378
11
0.7228697244094489
21
1.9663907480314959
0
LINE
8
BLACK
6
CONTINUOUS
10
0.7228697244094489
20
1.9663907480314959
11
0.7230049606299213
21
1.966277283464567
0
LINE
8
BLACK
6
CONTINUOUS
10
0.7230049606299213
20
1.966277283464567
11
0.72318031496063
21
1.9662570866141731
0
LINE
8
BLACK
6
CONTINUOUS
10
0.72318031496063
20
1.9662570866141731
11
0.7269298818897638
21
1.9643823228346455
0
LINE
8
BLACK
6
CONTINUOUS
10
0.7269298818897638
20
1.9643823228346455
11
0.7277535433070866
21
1.9637714173228347
0
LINE
8
BLACK
6
CONTINUOUS
10
0.7277535433070866
20
1.9637714173228347
11
0.7279293700787401
21
1.9633657480314961
0
LINE
8
BLACK
6
CONTINUOUS
10
0.7279293700787401
20
1.9633657480314961
11
0.7282503937007874
21
1.963061811023622
0
LINE
8
BLACK
6
CONTINUOUS
10
0.7282503937007874
20
1.963061811023622
11
0.7301251574803149
21
1.9593122834645669
0
LINE
8
BLACK
6
CONTINUOUS
10
0.7301251574803149
20
1.9593122834645669
11
0.7304175196850393
21
1.9583293700787401
0
LINE
8
BLACK
6
CONTINUOUS
10
0.7304175196850393
20
1.9583293700787401
11
0.7303764960629922
21
1.9581576771653544
0
LINE
8
BLACK
6
CONTINUOUS
10
0.7303764960629922
20
1.9581576771653544
11
0.7304368897637795
21
1.9579917716535433
0
LINE
8
BLACK
6
CONTINUOUS
10
0.7304368897637795
20
1.9579917716535433
11
0.7304368897637795
21
1.9373693307086615
0
LINE
8
BLACK
6
CONTINUOUS
10
0.7304368897637795
20
1.9373693307086615
11
0.7302588188976378
21
1.9363594094488188
0
LINE
8
BLACK
6
CONTINUOUS
10
0.7302588188976378
20
1.9363594094488188
11
0.7289605118110236
21
1.9348121653543306
0
LINE
8
BLACK
6
CONTINUOUS
10
0.7289605118110236
20
1.9348121653543306
11
0.7269713779527559
21
1.9344614173228345
0
LINE
8
BLACK
6
CONTINUOUS
10
0.7269713779527559
20
1.9344614173228345
11
0.7252222047244095
21
1.9354713385826772
0
LINE
8
BLACK
6
CONTINUOUS
10
0.7252222047244095
20
1.9354713385826772
11
0.7245313779527559
21
1.9373693307086615
0
LINE
8
BLACK
6
CONTINUOUS
10
0.7245313779527559
20
1.9373693307086615
11
0.7245313779527559
21
1.9572947244094487
0
LINE
8
BLACK
6
CONTINUOUS
10
0.7245313779527559
20
1.9572947244094487
11
0.7234085039370078
21
1.9595404724409449
0
LINE
8
BLACK
6
CONTINUOUS
10
0.7234085039370078
20
1.9595404724409449
11
0.7211627559055118
21
1.9606633070866142
0
LINE
8
BLACK
6
CONTINUOUS
10
0.7211627559055118
20
1.9606633070866142
11
0.7169325590551181
21
1.9606633070866142
0
LINE
8
BLACK
6
CONTINUOUS
10
0.7169325590551181
20
1.9606633070866142
11
0.7146868110236221
21
1.9595404724409449
0
LINE
8
BLACK
6
CONTINUOUS
10
0.7146868110236221
20
1.9595404724409449
11
0.7135639763779528
21
1.9572947244094487
0
LINE
8
BLACK
6
CONTINUOUS
10
0.7135639763779528
20
1.9572947244094487
11
0.7135639763779528
21
1.9373693307086615
0
LINE
8
BLACK
6
CONTINUOUS
10
0.7135639763779528
20
1.9373693307086615
11
0.713385905511811
21
1.9363594094488188
0
LINE
8
BLACK
6
CONTINUOUS
10
0.713385905511811
20
1.9363594094488188
11
0.7120875984251969
21
1.9348121653543306
0
LINE
8
BLACK
6
CONTINUOUS
10
0.7120875984251969
20
1.9348121653543306
11
0.7100984645669292
21
1.9344614173228345
0
LINE
8
BLACK
6
CONTINUOUS
10
0.7100984645669292
20
1.9344614173228345
11
0.7083492913385827
21
1.9354713385826772
0
LINE
8
BLACK
6
CONTINUOUS
10
0.7083492913385827
20
1.9354713385826772
11
0.7076584645669292
21
1.9373693307086615
0
LINE
8
BLACK
6
CONTINUOUS
10
0.7076584645669292
20
1.9373693307086615
11
0.7076584645669292
21
1.9572947244094487
0
LINE
8
BLACK
6
CONTINUOUS
10
0.7076584645669292
20
1.9572947244094487
11
0.7065355905511811
21
1.9595404724409449
0
LINE
8
BLACK
6
CONTINUOUS
10
0.7065355905511811
20
1.9595404724409449
11
0.7042898818897637
21
1.9606633070866142
0
LINE
8
BLACK
6
CONTINUOUS
10
0.7042898818897637
20
1.9606633070866142
11
0.7000596850393701
21
1.9606633070866142
0
LINE
8
BLACK
6
CONTINUOUS
10
0.7000596850393701
20
1.9606633070866142
11
0.6973622047244095
21
1.9593145669291339
0
LINE
8
BLACK
6
CONTINUOUS
10
0.6973622047244095
20
1.9593145669291339
11
0.6966911023622047
21
1.9586434645669291
0
LINE
8
BLACK
6
CONTINUOUS
10
0.6966911023622047
20
1.9586434645669291
11
0.6966911023622047
21
1.9373693307086615
0
LINE
8
BLACK
6
CONTINUOUS
10
0.6966911023622047
20
1.9373693307086615
11
0.696513031496063
21
1.9363594094488188
0
LINE
8
BLACK
6
CONTINUOUS
10
0.696513031496063
20
1.9363594094488188
11
0.6952147244094488
21
1.9348121653543306
0
LINE
8
BLACK
6
CONTINUOUS
10
0.6952147244094488
20
1.9348121653543306
11
0.693225590551181
21
1.9344614173228345
0
LINE
8
BLACK
6
CONTINUOUS
10
0.693225590551181
20
1.9344614173228345
11
0.6914764173228346
21
1.9354713385826772
0
LINE
8
BLACK
6
CONTINUOUS
10
0.6914764173228346
20
1.9354713385826772
11
0.6907855905511811
21
1.9373693307086615
0
LINE
8
BLACK
6
CONTINUOUS
10
0.6907855905511811
20
1.9373693307086615
11
0.6907855905511811
21
1.963616062992126
0
LINE
8
BLACK
6
CONTINUOUS
10
0.6907855905511811
20
1.963616062992126
11
0.6909636614173228
21
1.9646259842519684
0
LINE
8
BLACK
6
CONTINUOUS
10
0.6909636614173228
20
1.9646259842519684
11
0.692261968503937
21
1.9661732283464566
0
LINE
8
BLACK
6
CONTINUOUS
10
0.692261968503937
20
1.9661732283464566
11
0.6942511023622047
21
1.9665239763779527
0
LINE
8
BLACK
6
CONTINUOUS
10
0.6942511023622047
20
1.9665239763779527
11
0.6960002755905512
21
1.9655140551181103
0
LINE
8
BLACK
6
CONTINUOUS
10
0.6960002755905512
20
1.9655140551181103
11
0.6960858267716535
21
1.9652789763779528
0
LINE
8
BLACK
6
CONTINUOUS
10
0.6960858267716535
20
1.9652789763779528
11
0.698042125984252
21
1.9662570866141731
0
LINE
8
BLACK
6
CONTINUOUS
10
0.698042125984252
20
1.9662570866141731
11
0.6990250393700788
21
1.9665494488188975
0
LINE
8
BLACK
6
CONTINUOUS
10
0.6990250393700788
20
1.9665494488188975
11
0.6991967322834646
21
1.9665084645669291
0
LINE
8
BLACK
6
CONTINUOUS
10
0.6991967322834646
20
1.9665084645669291
11
0.6993626377952755
21
1.9665688188976378
0
LINE
8
BLACK
6
CONTINUOUS
10
0.6993626377952755
20
1.9665688188976378
11
0.7049869291338583
21
1.9665688188976378
0
LINE
8
BLACK
6
CONTINUOUS
10
0.7049869291338583
20
1.9665688188976378
11
0.7059968503937007
21
1.9663907480314959
0
LINE
8
BLACK
6
CONTINUOUS
10
0.7584902755905512
20
1.9663907480314959
11
0.7586255118110236
21
1.966277283464567
0
LINE
8
BLACK
6
CONTINUOUS
10
0.7586255118110236
20
1.966277283464567
11
0.7588008661417323
21
1.9662570866141731
0
LINE
8
BLACK
6
CONTINUOUS
10
0.7588008661417323
20
1.9662570866141731
11
0.7625503937007874
21
1.9643823228346455
0
LINE
8
BLACK
6
CONTINUOUS
10
0.7625503937007874
20
1.9643823228346455
11
0.7631203149606299
21
1.9639596456692914
0
LINE
8
BLACK
6
CONTINUOUS
10
0.7631203149606299
20
1.9639596456692914
11
0.7633549606299213
21
1.9640613385826771
0
LINE
8
BLACK
6
CONTINUOUS
10
0.7633549606299213
20
1.9640613385826771
11
0.7636588976377953
21
1.9643823228346455
0
LINE
8
BLACK
6
CONTINUOUS
10
0.7636588976377953
20
1.9643823228346455
11
0.7674084251968504
21
1.9662570866141731
0
LINE
8
BLACK
6
CONTINUOUS
10
0.7674084251968504
20
1.9662570866141731
11
0.7683913385826772
21
1.9665494488188975
0
LINE
8
BLACK
6
CONTINUOUS
10
0.7683913385826772
20
1.9665494488188975
11
0.768563031496063
21
1.9665084645669291
0
LINE
8
BLACK
6
CONTINUOUS
10
0.768563031496063
20
1.9665084645669291
11
0.768728937007874
21
1.9665688188976378
0
LINE
8
BLACK
6
CONTINUOUS
10
0.768728937007874
20
1.9665688188976378
11
0.7743532283464567
21
1.9665688188976378
0
LINE
8
BLACK
6
CONTINUOUS
10
0.7743532283464567
20
1.9665688188976378
11
0.7753631496062992
21
1.9663907480314959
0
LINE
8
BLACK
6
CONTINUOUS
10
0.7753631496062992
20
1.9663907480314959
11
0.7754983858267717
21
1.966277283464567
0
LINE
8
BLACK
6
CONTINUOUS
10
0.7754983858267717
20
1.966277283464567
11
0.7756737401574803
21
1.9662570866141731
0
LINE
8
BLACK
6
CONTINUOUS
10
0.7756737401574803
20
1.9662570866141731
11
0.7794233070866141
21
1.9643823228346455
0
LINE
8
BLACK
6
CONTINUOUS
10
0.7794233070866141
20
1.9643823228346455
11
0.780246968503937
21
1.9637714173228347
0
LINE
8
BLACK
6
CONTINUOUS
10
0.780246968503937
20
1.9637714173228347
11
0.7804227952755906
21
1.9633657480314961
0
LINE
8
BLACK
6
CONTINUOUS
10
0.7804227952755906
20
1.9633657480314961
11
0.7807438188976378
21
1.963061811023622
0
LINE
8
BLACK
6
CONTINUOUS
10
0.7807438188976378
20
1.963061811023622
11
0.7826185826771653
21
1.9593122834645669
0
LINE
8
BLACK
6
CONTINUOUS
10
0.7826185826771653
20
1.9593122834645669
11
0.7829109448818897
21
1.9583293700787401
0
LINE
8
BLACK
6
CONTINUOUS
10
0.7829109448818897
20
1.9583293700787401
11
0.7828699212598424
21
1.9581576771653544
0
LINE
8
BLACK
6
CONTINUOUS
10
0.7828699212598424
20
1.9581576771653544
11
0.7829303149606299
21
1.9579917716535433
0
LINE
8
BLACK
6
CONTINUOUS
10
0.7829303149606299
20
1.9579917716535433
11
0.7829303149606299
21
1.9373693307086615
0
LINE
8
BLACK
6
CONTINUOUS
10
0.7829303149606299
20
1.9373693307086615
11
0.7827522440944882
21
1.9363594094488188
0
LINE
8
BLACK
6
CONTINUOUS
10
0.7827522440944882
20
1.9363594094488188
11
0.781453937007874
21
1.9348121653543306
0
LINE
8
BLACK
6
CONTINUOUS
10
0.781453937007874
20
1.9348121653543306
11
0.7794648031496063
21
1.9344614173228345
0
LINE
8
BLACK
6
CONTINUOUS
10
0.7794648031496063
20
1.9344614173228345
11
0.7777156299212599
21
1.9354713385826772
0
LINE
8
BLACK
6
CONTINUOUS
10
0.7777156299212599
20
1.9354713385826772
11
0.7770248031496063
21
1.9373693307086615
0
LINE
8
BLACK
6
CONTINUOUS
10
0.7770248031496063
20
1.9373693307086615
11
0.7770248031496063
21
1.9572947244094487
0
LINE
8
BLACK
6
CONTINUOUS
10
0.7770248031496063
20
1.9572947244094487
11
0.7759019291338582
21
1.9595404724409449
0
LINE
8
BLACK
6
CONTINUOUS
10
0.7759019291338582
20
1.9595404724409449
11
0.7736561811023622
21
1.9606633070866142
0
LINE
8
BLACK
6
CONTINUOUS
10
0.7736561811023622
20
1.9606633070866142
11
0.7694259842519685
21
1.9606633070866142
0
LINE
8
BLACK
6
CONTINUOUS
10
0.7694259842519685
20
1.9606633070866142
11
0.7671802362204724
21
1.9595404724409449
0
LINE
8
BLACK
6
CONTINUOUS
10
0.7671802362204724
20
1.9595404724409449
11
0.7660574015748032
21
1.9572947244094487
0
LINE
8
BLACK
6
CONTINUOUS
10
0.7660574015748032
20
1.9572947244094487
11
0.7660574015748032
21
1.9373693307086615
0
LINE
8
BLACK
6
CONTINUOUS
10
0.7660574015748032
20
1.9373693307086615
11
0.7658793307086614
21
1.9363594094488188
0
LINE
8
BLACK
6
CONTINUOUS
10
0.7658793307086614
20
1.9363594094488188
11
0.7645810236220473
21
1.9348121653543306
0
LINE
8
BLACK
6
CONTINUOUS
10
0.7645810236220473
20
1.9348121653543306
11
0.7625918897637796
21
1.9344614173228345
0
LINE
8
BLACK
6
CONTINUOUS
10
0.7625918897637796
20
1.9344614173228345
11
0.760842716535433
21
1.9354713385826772
0
LINE
8
BLACK
6
CONTINUOUS
10
0.760842716535433
20
1.9354713385826772
11
0.7601518897637796
21
1.9373693307086615
0
LINE
8
BLACK
6
CONTINUOUS
10
0.7601518897637796
20
1.9373693307086615
11
0.7601518897637796
21
1.9572947244094487
0
LINE
8
BLACK
6
CONTINUOUS
10
0.7601518897637796
20
1.9572947244094487
11
0.7590290157480315
21
1.9595404724409449
0
LINE
8
BLACK
6
CONTINUOUS
10
0.7590290157480315
20
1.9595404724409449
11
0.7567833070866141
21
1.9606633070866142
0
LINE
8
BLACK
6
CONTINUOUS
10
0.7567833070866141
20
1.9606633070866142
11
0.7525531102362204
21
1.9606633070866142
0
LINE
8
BLACK
6
CONTINUOUS
10
0.7525531102362204
20
1.9606633070866142
11
0.7498556299212599
21
1.9593145669291339
0
LINE
8
BLACK
6
CONTINUOUS
10
0.7498556299212599
20
1.9593145669291339
11
0.7491845275590551
21
1.9586434645669291
0
LINE
8
BLACK
6
CONTINUOUS
10
0.7491845275590551
20
1.9586434645669291
11
0.7491845275590551
21
1.9373693307086615
0
LINE
8
BLACK
6
CONTINUOUS
10
0.7491845275590551
20
1.9373693307086615
11
0.7490064566929133
21
1.9363594094488188
0
LINE
8
BLACK
6
CONTINUOUS
10
0.7490064566929133
20
1.9363594094488188
11
0.7477081496062992
21
1.9348121653543306
0
LINE
8
BLACK
6
CONTINUOUS
10
0.7477081496062992
20
1.9348121653543306
11
0.7457190157480315
21
1.9344614173228345
0
LINE
8
BLACK
6
CONTINUOUS
10
0.7457190157480315
20
1.9344614173228345
11
0.743969842519685
21
1.9354713385826772
0
LINE
8
BLACK
6
CONTINUOUS
10
0.743969842519685
20
1.9354713385826772
11
0.7432790157480315
21
1.9373693307086615
0
LINE
8
BLACK
6
CONTINUOUS
10
0.7432790157480315
20
1.9373693307086615
11
0.7432790157480315
21
1.963616062992126
0
LINE
8
BLACK
6
CONTINUOUS
10
0.7432790157480315
20
1.963616062992126
11
0.7434570866141732
21
1.9646259842519684
0
LINE
8
BLACK
6
CONTINUOUS
10
0.7434570866141732
20
1.9646259842519684
11
0.7447553937007874
21
1.9661732283464566
0
LINE
8
BLACK
6
CONTINUOUS
10
0.7447553937007874
20
1.9661732283464566
11
0.7467445275590551
21
1.9665239763779527
0
LINE
8
BLACK
6
CONTINUOUS
10
0.7467445275590551
20
1.9665239763779527
11
0.7484937007874015
21
1.9655140551181103
0
LINE
8
BLACK
6
CONTINUOUS
10
0.7484937007874015
20
1.9655140551181103
11
0.7485792519685039
21
1.9652789763779528
0
LINE
8
BLACK
6
CONTINUOUS
10
0.7485792519685039
20
1.9652789763779528
11
0.7505355511811024
21
1.9662570866141731
0
LINE
8
BLACK
6
CONTINUOUS
10
0.7505355511811024
20
1.9662570866141731
11
0.7515184645669292
21
1.9665494488188975
0
LINE
8
BLACK
6
CONTINUOUS
10
0.7515184645669292
20
1.9665494488188975
11
0.751690157480315
21
1.9665084645669291
0
LINE
8
BLACK
6
CONTINUOUS
10
0.751690157480315
20
1.9665084645669291
11
0.7518560629921259
21
1.9665688188976378
0
LINE
8
BLACK
6
CONTINUOUS
10
0.7518560629921259
20
1.9665688188976378
11
0.7574803543307086
21
1.9665688188976378
0
LINE
8
BLACK
6
CONTINUOUS
10
0.7574803543307086
20
1.9665688188976378
11
0.7584902755905512
21
1.9663907480314959
  0
ENDSEC
  0
EOF
