  0
SECTION
  2
HEADER
  9
$ANGBASE
  50
0.0
  9
$ANGDIR
  70
1
  9
$MEASUREMENT
  70
0
  0
ENDSEC
  0
SECTION
  2
TABLES
  0
TABLE
  2
LTYPE
  70
4
  0
LTYPE
  5
40F
  2
CONTINUOUS
  70
0
  3
Solid line
  72
65
  73
0
  40
0.0
  0
LTYPE
  5
410
  2
DASHDOT
 70
0
  3
Dash Dot ____ _ ____ _
 72
65
 73
4
 40
2.0
 49
1.25
 49
-0.25
 49
0.25
 49
-0.25
  0
LTYPE
  5
411
  2
DASHED
 70
0
  3
Dashed __ __ __ __ __
 72
65
 73
2
 40
0.75
 49
0.5
 49
-0.25
  0
LTYPE
  5
43B
  2
DOTTED
 70
0
  3
Dotted .  .  .  .
 72
65
 73
2
 40
0.2
 49
0.0
 49
-0.2
  0
ENDTAB
  0
TABLE
  2
STYLE
  70
4
  0
STYLE
  2
KICAD
  70
0
  40
0
  41
1
  42
1
  50
0
  71
0
  3
isocp.shx
  0
STYLE
  2
KICADB
  70
0
  40
0
  41
1
  42
1
  50
0
  71
0
  3
isocp.shx
  0
STYLE
  2
KICADI
  70
0
  40
0
  41
1
  42
1
  50
15
  71
0
  3
isocp.shx
  0
STYLE
  2
KICADBI
  70
0
  40
0
  41
1
  42
1
  50
15
  71
0
  3
isocp.shx
  0
ENDTAB
  0
TABLE
  2
LAYER
  70
1
  0
LAYER
  2
BLACK
  70
0
  62
7
  6
CONTINUOUS
  0
ENDTAB
  0
ENDSEC
  0
SECTION
  2
ENTITIES
0
LINE
8
BLACK
6
CONTINUOUS
10
0.4135768503937008
20
0.5204974015748032
11
0.426982874015748
21
0.5182196062992126
0
LINE
8
BLACK
6
CONTINUOUS
10
0.426982874015748
20
0.5182196062992126
11
0.4400496456692913
21
0.5144551574803149
0
LINE
8
BLACK
6
CONTINUOUS
10
0.4400496456692913
20
0.5144551574803149
11
0.4526127165354331
21
0.5092513385826771
0
LINE
8
BLACK
6
CONTINUOUS
10
0.4526127165354331
20
0.5092513385826771
11
0.4645141732283464
21
0.5026736614173228
0
LINE
8
BLACK
6
CONTINUOUS
10
0.4645141732283464
20
0.5026736614173228
11
0.4756043307086614
21
0.4948047637795275
0
LINE
8
BLACK
6
CONTINUOUS
10
0.4756043307086614
20
0.4948047637795275
11
0.4857437007874016
21
0.4857436614173228
0
LINE
8
BLACK
6
CONTINUOUS
10
0.4857437007874016
20
0.4857436614173228
11
0.4948048031496063
21
0.4756042913385827
0
LINE
8
BLACK
6
CONTINUOUS
10
0.4948048031496063
20
0.4756042913385827
11
0.5026737007874016
21
0.4645141338582677
0
LINE
8
BLACK
6
CONTINUOUS
10
0.5026737007874016
20
0.4645141338582677
11
0.5092513779527559
21
0.4526126771653543
0
LINE
8
BLACK
6
CONTINUOUS
10
0.5092513779527559
20
0.4526126771653543
11
0.5144551968503936
21
0.4400496062992126
0
LINE
8
BLACK
6
CONTINUOUS
10
0.5144551968503936
20
0.4400496062992126
11
0.5182196456692914
21
0.4269828346456693
0
LINE
8
BLACK
6
CONTINUOUS
10
0.5182196456692914
20
0.4269828346456693
11
0.5204974409448819
21
0.413576811023622
0
LINE
8
BLACK
6
CONTINUOUS
10
0.5204974409448819
20
0.413576811023622
11
0.5212598818897638
21
0.4
0
LINE
8
BLACK
6
CONTINUOUS
10
0.5212598818897638
20
0.4
11
0.5204974409448819
21
0.386423188976378
0
LINE
8
BLACK
6
CONTINUOUS
10
0.5204974409448819
20
0.386423188976378
11
0.5182196456692914
21
0.3730171653543307
0
LINE
8
BLACK
6
CONTINUOUS
10
0.5182196456692914
20
0.3730171653543307
11
0.5144551968503936
21
0.3599503937007874
0
LINE
8
BLACK
6
CONTINUOUS
10
0.5144551968503936
20
0.3599503937007874
11
0.5092513779527559
21
0.3473873228346457
0
LINE
8
BLACK
6
CONTINUOUS
10
0.5092513779527559
20
0.3473873228346457
11
0.5026737007874016
21
0.3354858661417323
0
LINE
8
BLACK
6
CONTINUOUS
10
0.5026737007874016
20
0.3354858661417323
11
0.4948048031496063
21
0.3243957086614173
0
LINE
8
BLACK
6
CONTINUOUS
10
0.4948048031496063
20
0.3243957086614173
11
0.4857437007874016
21
0.3142563385826772
0
LINE
8
BLACK
6
CONTINUOUS
10
0.4857437007874016
20
0.3142563385826772
11
0.4756043307086614
21
0.3051952362204725
0
LINE
8
BLACK
6
CONTINUOUS
10
0.4756043307086614
20
0.3051952362204725
11
0.4645141732283464
21
0.2973263385826772
0
LINE
8
BLACK
6
CONTINUOUS
10
0.4645141732283464
20
0.2973263385826772
11
0.4526127165354331
21
0.2907486614173228
0
LINE
8
BLACK
6
CONTINUOUS
10
0.4526127165354331
20
0.2907486614173228
11
0.4400496456692913
21
0.285544842519685
0
LINE
8
BLACK
6
CONTINUOUS
10
0.4400496456692913
20
0.285544842519685
11
0.426982874015748
21
0.2817803937007874
0
LINE
8
BLACK
6
CONTINUOUS
10
0.426982874015748
20
0.2817803937007874
11
0.4135768503937008
21
0.2795025984251969
0
LINE
8
BLACK
6
CONTINUOUS
10
0.4135768503937008
20
0.2795025984251969
11
0.4000000393700787
21
0.2787401574803149
0
LINE
8
BLACK
6
CONTINUOUS
10
0.4000000393700787
20
0.2787401574803149
11
0.3864232283464567
21
0.2795025984251969
0
LINE
8
BLACK
6
CONTINUOUS
10
0.3864232283464567
20
0.2795025984251969
11
0.3730172047244095
21
0.2817803937007874
0
LINE
8
BLACK
6
CONTINUOUS
10
0.3730172047244095
20
0.2817803937007874
11
0.3599504330708662
21
0.285544842519685
0
LINE
8
BLACK
6
CONTINUOUS
10
0.3599504330708662
20
0.285544842519685
11
0.3473873622047244
21
0.2907486614173228
0
LINE
8
BLACK
6
CONTINUOUS
10
0.3473873622047244
20
0.2907486614173228
11
0.335485905511811
21
0.2973263385826772
0
LINE
8
BLACK
6
CONTINUOUS
10
0.335485905511811
20
0.2973263385826772
11
0.3243957480314961
21
0.3051952362204725
0
LINE
8
BLACK
6
CONTINUOUS
10
0.3243957480314961
20
0.3051952362204725
11
0.3142563779527559
21
0.3142563385826772
0
LINE
8
BLACK
6
CONTINUOUS
10
0.3142563779527559
20
0.3142563385826772
11
0.3051952755905512
21
0.3243957086614173
0
LINE
8
BLACK
6
CONTINUOUS
10
0.3051952755905512
20
0.3243957086614173
11
0.2973263779527559
21
0.3354858661417323
0
LINE
8
BLACK
6
CONTINUOUS
10
0.2973263779527559
20
0.3354858661417323
11
0.2907487007874016
21
0.3473873228346457
0
LINE
8
BLACK
6
CONTINUOUS
10
0.2907487007874016
20
0.3473873228346457
11
0.2855448818897638
21
0.3599503937007874
0
LINE
8
BLACK
6
CONTINUOUS
10
0.2855448818897638
20
0.3599503937007874
11
0.2817804330708661
21
0.3730171653543307
0
LINE
8
BLACK
6
CONTINUOUS
10
0.2817804330708661
20
0.3730171653543307
11
0.2795026377952756
21
0.386423188976378
0
LINE
8
BLACK
6
CONTINUOUS
10
0.2795026377952756
20
0.386423188976378
11
0.2787401968503937
21
0.4
0
LINE
8
BLACK
6
CONTINUOUS
10
0.2787401968503937
20
0.4
11
0.2795026377952756
21
0.413576811023622
0
LINE
8
BLACK
6
CONTINUOUS
10
0.2795026377952756
20
0.413576811023622
11
0.2817804330708661
21
0.4269828346456693
0
LINE
8
BLACK
6
CONTINUOUS
10
0.2817804330708661
20
0.4269828346456693
11
0.2855448818897638
21
0.4400496062992126
0
LINE
8
BLACK
6
CONTINUOUS
10
0.2855448818897638
20
0.4400496062992126
11
0.2907487007874016
21
0.4526126771653543
0
LINE
8
BLACK
6
CONTINUOUS
10
0.2907487007874016
20
0.4526126771653543
11
0.2973263779527559
21
0.4645141338582677
0
LINE
8
BLACK
6
CONTINUOUS
10
0.2973263779527559
20
0.4645141338582677
11
0.3051952755905512
21
0.4756042913385827
0
LINE
8
BLACK
6
CONTINUOUS
10
0.3051952755905512
20
0.4756042913385827
11
0.3142563779527559
21
0.4857436614173228
0
LINE
8
BLACK
6
CONTINUOUS
10
0.3142563779527559
20
0.4857436614173228
11
0.3243957480314961
21
0.4948047637795275
0
LINE
8
BLACK
6
CONTINUOUS
10
0.3243957480314961
20
0.4948047637795275
11
0.335485905511811
21
0.5026736614173228
0
LINE
8
BLACK
6
CONTINUOUS
10
0.335485905511811
20
0.5026736614173228
11
0.3473873622047244
21
0.5092513385826771
0
LINE
8
BLACK
6
CONTINUOUS
10
0.3473873622047244
20
0.5092513385826771
11
0.3599504330708662
21
0.5144551574803149
0
LINE
8
BLACK
6
CONTINUOUS
10
0.3599504330708662
20
0.5144551574803149
11
0.3730172047244095
21
0.5182196062992126
0
LINE
8
BLACK
6
CONTINUOUS
10
0.3730172047244095
20
0.5182196062992126
11
0.3864232283464567
21
0.5204974015748032
0
LINE
8
BLACK
6
CONTINUOUS
10
0.3864232283464567
20
0.5204974015748032
11
0.4000000393700787
21
0.521259842519685
0
LINE
8
BLACK
6
CONTINUOUS
10
0.4000000393700787
20
0.521259842519685
11
0.4135768503937008
21
0.5204974015748032
0
LINE
8
BLACK
6
CONTINUOUS
10
0.8135768503937008
20
0.5204974015748032
11
0.826982874015748
21
0.5182196062992126
0
LINE
8
BLACK
6
CONTINUOUS
10
0.826982874015748
20
0.5182196062992126
11
0.8400496456692913
21
0.5144551574803149
0
LINE
8
BLACK
6
CONTINUOUS
10
0.8400496456692913
20
0.5144551574803149
11
0.852612716535433
21
0.5092513385826771
0
LINE
8
BLACK
6
CONTINUOUS
10
0.852612716535433
20
0.5092513385826771
11
0.8645141732283464
21
0.5026736614173228
0
LINE
8
BLACK
6
CONTINUOUS
10
0.8645141732283464
20
0.5026736614173228
11
0.8756043307086614
21
0.4948047637795275
0
LINE
8
BLACK
6
CONTINUOUS
10
0.8756043307086614
20
0.4948047637795275
11
0.8857437007874015
21
0.4857436614173228
0
LINE
8
BLACK
6
CONTINUOUS
10
0.8857437007874015
20
0.4857436614173228
11
0.8948048031496063
21
0.4756042913385827
0
LINE
8
BLACK
6
CONTINUOUS
10
0.8948048031496063
20
0.4756042913385827
11
0.9026737007874015
21
0.4645141338582677
0
LINE
8
BLACK
6
CONTINUOUS
10
0.9026737007874015
20
0.4645141338582677
11
0.9092513779527559
21
0.4526126771653543
0
LINE
8
BLACK
6
CONTINUOUS
10
0.9092513779527559
20
0.4526126771653543
11
0.9144551968503937
21
0.4400496062992126
0
LINE
8
BLACK
6
CONTINUOUS
10
0.9144551968503937
20
0.4400496062992126
11
0.9182196456692913
21
0.4269828346456693
0
LINE
8
BLACK
6
CONTINUOUS
10
0.9182196456692913
20
0.4269828346456693
11
0.9204974409448818
21
0.413576811023622
0
LINE
8
BLACK
6
CONTINUOUS
10
0.9204974409448818
20
0.413576811023622
11
0.9212598818897637
21
0.4
0
LINE
8
BLACK
6
CONTINUOUS
10
0.9212598818897637
20
0.4
11
0.9204974409448818
21
0.386423188976378
0
LINE
8
BLACK
6
CONTINUOUS
10
0.9204974409448818
20
0.386423188976378
11
0.9182196456692913
21
0.3730171653543307
0
LINE
8
BLACK
6
CONTINUOUS
10
0.9182196456692913
20
0.3730171653543307
11
0.9144551968503937
21
0.3599503937007874
0
LINE
8
BLACK
6
CONTINUOUS
10
0.9144551968503937
20
0.3599503937007874
11
0.9092513779527559
21
0.3473873228346457
0
LINE
8
BLACK
6
CONTINUOUS
10
0.9092513779527559
20
0.3473873228346457
11
0.9026737007874015
21
0.3354858661417323
0
LINE
8
BLACK
6
CONTINUOUS
10
0.9026737007874015
20
0.3354858661417323
11
0.8948048031496063
21
0.3243957086614173
0
LINE
8
BLACK
6
CONTINUOUS
10
0.8948048031496063
20
0.3243957086614173
11
0.8857437007874015
21
0.3142563385826772
0
LINE
8
BLACK
6
CONTINUOUS
10
0.8857437007874015
20
0.3142563385826772
11
0.8756043307086614
21
0.3051952362204725
0
LINE
8
BLACK
6
CONTINUOUS
10
0.8756043307086614
20
0.3051952362204725
11
0.8645141732283464
21
0.2973263385826772
0
LINE
8
BLACK
6
CONTINUOUS
10
0.8645141732283464
20
0.2973263385826772
11
0.852612716535433
21
0.2907486614173228
0
LINE
8
BLACK
6
CONTINUOUS
10
0.852612716535433
20
0.2907486614173228
11
0.8400496456692913
21
0.285544842519685
0
LINE
8
BLACK
6
CONTINUOUS
10
0.8400496456692913
20
0.285544842519685
11
0.826982874015748
21
0.2817803937007874
0
LINE
8
BLACK
6
CONTINUOUS
10
0.826982874015748
20
0.2817803937007874
11
0.8135768503937008
21
0.2795025984251969
0
LINE
8
BLACK
6
CONTINUOUS
10
0.8135768503937008
20
0.2795025984251969
11
0.8000000393700787
21
0.2787401574803149
0
LINE
8
BLACK
6
CONTINUOUS
10
0.8000000393700787
20
0.2787401574803149
11
0.7864232283464567
21
0.2795025984251969
0
LINE
8
BLACK
6
CONTINUOUS
10
0.7864232283464567
20
0.2795025984251969
11
0.7730172047244094
21
0.2817803937007874
0
LINE
8
BLACK
6
CONTINUOUS
10
0.7730172047244094
20
0.2817803937007874
11
0.7599504330708661
21
0.285544842519685
0
LINE
8
BLACK
6
CONTINUOUS
10
0.7599504330708661
20
0.285544842519685
11
0.7473873622047243
21
0.2907486614173228
0
LINE
8
BLACK
6
CONTINUOUS
10
0.7473873622047243
20
0.2907486614173228
11
0.735485905511811
21
0.2973263385826772
0
LINE
8
BLACK
6
CONTINUOUS
10
0.735485905511811
20
0.2973263385826772
11
0.7243957480314961
21
0.3051952362204725
0
LINE
8
BLACK
6
CONTINUOUS
10
0.7243957480314961
20
0.3051952362204725
11
0.7142563779527559
21
0.3142563385826772
0
LINE
8
BLACK
6
CONTINUOUS
10
0.7142563779527559
20
0.3142563385826772
11
0.7051952755905512
21
0.3243957086614173
0
LINE
8
BLACK
6
CONTINUOUS
10
0.7051952755905512
20
0.3243957086614173
11
0.6973263779527559
21
0.3354858661417323
0
LINE
8
BLACK
6
CONTINUOUS
10
0.6973263779527559
20
0.3354858661417323
11
0.6907487007874016
21
0.3473873228346457
0
LINE
8
BLACK
6
CONTINUOUS
10
0.6907487007874016
20
0.3473873228346457
11
0.6855448818897638
21
0.3599503937007874
0
LINE
8
BLACK
6
CONTINUOUS
10
0.6855448818897638
20
0.3599503937007874
11
0.6817804330708661
21
0.3730171653543307
0
LINE
8
BLACK
6
CONTINUOUS
10
0.6817804330708661
20
0.3730171653543307
11
0.6795026377952755
21
0.386423188976378
0
LINE
8
BLACK
6
CONTINUOUS
10
0.6795026377952755
20
0.386423188976378
11
0.6787401968503937
21
0.4
0
LINE
8
BLACK
6
CONTINUOUS
10
0.6787401968503937
20
0.4
11
0.6795026377952755
21
0.413576811023622
0
LINE
8
BLACK
6
CONTINUOUS
10
0.6795026377952755
20
0.413576811023622
11
0.6817804330708661
21
0.4269828346456693
0
LINE
8
BLACK
6
CONTINUOUS
10
0.6817804330708661
20
0.4269828346456693
11
0.6855448818897638
21
0.4400496062992126
0
LINE
8
BLACK
6
CONTINUOUS
10
0.6855448818897638
20
0.4400496062992126
11
0.6907487007874016
21
0.4526126771653543
0
LINE
8
BLACK
6
CONTINUOUS
10
0.6907487007874016
20
0.4526126771653543
11
0.6973263779527559
21
0.4645141338582677
0
LINE
8
BLACK
6
CONTINUOUS
10
0.6973263779527559
20
0.4645141338582677
11
0.7051952755905512
21
0.4756042913385827
0
LINE
8
BLACK
6
CONTINUOUS
10
0.7051952755905512
20
0.4756042913385827
11
0.7142563779527559
21
0.4857436614173228
0
LINE
8
BLACK
6
CONTINUOUS
10
0.7142563779527559
20
0.4857436614173228
11
0.7243957480314961
21
0.4948047637795275
0
LINE
8
BLACK
6
CONTINUOUS
10
0.7243957480314961
20
0.4948047637795275
11
0.735485905511811
21
0.5026736614173228
0
LINE
8
BLACK
6
CONTINUOUS
10
0.735485905511811
20
0.5026736614173228
11
0.7473873622047243
21
0.5092513385826771
0
LINE
8
BLACK
6
CONTINUOUS
10
0.7473873622047243
20
0.5092513385826771
11
0.7599504330708661
21
0.5144551574803149
0
LINE
8
BLACK
6
CONTINUOUS
10
0.7599504330708661
20
0.5144551574803149
11
0.7730172047244094
21
0.5182196062992126
0
LINE
8
BLACK
6
CONTINUOUS
10
0.7730172047244094
20
0.5182196062992126
11
0.7864232283464567
21
0.5204974015748032
0
LINE
8
BLACK
6
CONTINUOUS
10
0.7864232283464567
20
0.5204974015748032
11
0.8000000393700787
21
0.521259842519685
0
LINE
8
BLACK
6
CONTINUOUS
10
0.8000000393700787
20
0.521259842519685
11
0.8135768503937008
21
0.5204974015748032
0
LINE
8
BLACK
6
CONTINUOUS
10
0.5812053543307086
20
0.832909842519685
11
0.5822271653543307
21
0.832227125984252
0
LINE
8
BLACK
6
CONTINUOUS
10
0.5822271653543307
20
0.832227125984252
11
0.5829098818897638
21
0.8312053149606299
0
LINE
8
BLACK
6
CONTINUOUS
10
0.5829098818897638
20
0.8312053149606299
11
0.5831496456692913
21
0.83
0
LINE
8
BLACK
6
CONTINUOUS
10
0.5831496456692913
20
0.83
11
0.5831496456692913
21
0.77
0
LINE
8
BLACK
6
CONTINUOUS
10
0.5831496456692913
20
0.77
11
0.5829098818897638
21
0.7687946850393701
0
LINE
8
BLACK
6
CONTINUOUS
10
0.5829098818897638
20
0.7687946850393701
11
0.5822271653543307
21
0.767772874015748
0
LINE
8
BLACK
6
CONTINUOUS
10
0.5822271653543307
20
0.767772874015748
11
0.5812053543307086
21
0.7670901574803149
0
LINE
8
BLACK
6
CONTINUOUS
10
0.5812053543307086
20
0.7670901574803149
11
0.5800000393700787
21
0.7668503937007873
0
LINE
8
BLACK
6
CONTINUOUS
10
0.5800000393700787
20
0.7668503937007873
11
0.5200000393700788
21
0.7668503937007873
0
LINE
8
BLACK
6
CONTINUOUS
10
0.5200000393700788
20
0.7668503937007873
11
0.5187947244094488
21
0.7670901574803149
0
LINE
8
BLACK
6
CONTINUOUS
10
0.5187947244094488
20
0.7670901574803149
11
0.5177729133858268
21
0.767772874015748
0
LINE
8
BLACK
6
CONTINUOUS
10
0.5177729133858268
20
0.767772874015748
11
0.5170901968503937
21
0.7687946850393701
0
LINE
8
BLACK
6
CONTINUOUS
10
0.5170901968503937
20
0.7687946850393701
11
0.5168504330708661
21
0.77
0
LINE
8
BLACK
6
CONTINUOUS
10
0.5168504330708661
20
0.77
11
0.5168504330708661
21
0.83
0
LINE
8
BLACK
6
CONTINUOUS
10
0.5168504330708661
20
0.83
11
0.5170901968503937
21
0.8312053149606299
0
LINE
8
BLACK
6
CONTINUOUS
10
0.5170901968503937
20
0.8312053149606299
11
0.5177729133858268
21
0.832227125984252
0
LINE
8
BLACK
6
CONTINUOUS
10
0.5177729133858268
20
0.832227125984252
11
0.5187947244094488
21
0.832909842519685
0
LINE
8
BLACK
6
CONTINUOUS
10
0.5187947244094488
20
0.832909842519685
11
0.5200000393700788
21
0.8331496062992125
0
LINE
8
BLACK
6
CONTINUOUS
10
0.5200000393700788
20
0.8331496062992125
11
0.5800000393700787
21
0.8331496062992125
0
LINE
8
BLACK
6
CONTINUOUS
10
0.5800000393700787
20
0.8331496062992125
11
0.5812053543307086
21
0.832909842519685
0
LINE
8
BLACK
6
CONTINUOUS
10
0.6812053543307086
20
0.832909842519685
11
0.6822271653543307
21
0.832227125984252
0
LINE
8
BLACK
6
CONTINUOUS
10
0.6822271653543307
20
0.832227125984252
11
0.6829098818897638
21
0.8312053149606299
0
LINE
8
BLACK
6
CONTINUOUS
10
0.6829098818897638
20
0.8312053149606299
11
0.6831496456692914
21
0.83
0
LINE
8
BLACK
6
CONTINUOUS
10
0.6831496456692914
20
0.83
11
0.6831496456692914
21
0.77
0
LINE
8
BLACK
6
CONTINUOUS
10
0.6831496456692914
20
0.77
11
0.6829098818897638
21
0.7687946850393701
0
LINE
8
BLACK
6
CONTINUOUS
10
0.6829098818897638
20
0.7687946850393701
11
0.6822271653543307
21
0.767772874015748
0
LINE
8
BLACK
6
CONTINUOUS
10
0.6822271653543307
20
0.767772874015748
11
0.6812053543307086
21
0.7670901574803149
0
LINE
8
BLACK
6
CONTINUOUS
10
0.6812053543307086
20
0.7670901574803149
11
0.6800000393700787
21
0.7668503937007873
0
LINE
8
BLACK
6
CONTINUOUS
10
0.6800000393700787
20
0.7668503937007873
11
0.6200000393700787
21
0.7668503937007873
0
LINE
8
BLACK
6
CONTINUOUS
10
0.6200000393700787
20
0.7668503937007873
11
0.6187947244094488
21
0.7670901574803149
0
LINE
8
BLACK
6
CONTINUOUS
10
0.6187947244094488
20
0.7670901574803149
11
0.6177729133858267
21
0.767772874015748
0
LINE
8
BLACK
6
CONTINUOUS
10
0.6177729133858267
20
0.767772874015748
11
0.6170901968503937
21
0.7687946850393701
0
LINE
8
BLACK
6
CONTINUOUS
10
0.6170901968503937
20
0.7687946850393701
11
0.6168504330708662
21
0.77
0
LINE
8
BLACK
6
CONTINUOUS
10
0.6168504330708662
20
0.77
11
0.6168504330708662
21
0.83
0
LINE
8
BLACK
6
CONTINUOUS
10
0.6168504330708662
20
0.83
11
0.6170901968503937
21
0.8312053149606299
0
LINE
8
BLACK
6
CONTINUOUS
10
0.6170901968503937
20
0.8312053149606299
11
0.6177729133858267
21
0.832227125984252
0
LINE
8
BLACK
6
CONTINUOUS
10
0.6177729133858267
20
0.832227125984252
11
0.6187947244094488
21
0.832909842519685
0
LINE
8
BLACK
6
CONTINUOUS
10
0.6187947244094488
20
0.832909842519685
11
0.6200000393700787
21
0.8331496062992125
0
LINE
8
BLACK
6
CONTINUOUS
10
0.6200000393700787
20
0.8331496062992125
11
0.6800000393700787
21
0.8331496062992125
0
LINE
8
BLACK
6
CONTINUOUS
10
0.6800000393700787
20
0.8331496062992125
11
0.6812053543307086
21
0.832909842519685
0
LINE
8
BLACK
6
CONTINUOUS
10
0.5812053543307086
20
0.932909842519685
11
0.5822271653543307
21
0.9322271259842519
0
LINE
8
BLACK
6
CONTINUOUS
10
0.5822271653543307
20
0.9322271259842519
11
0.5829098818897638
21
0.9312053149606299
0
LINE
8
BLACK
6
CONTINUOUS
10
0.5829098818897638
20
0.9312053149606299
11
0.5831496456692913
21
0.9299999999999999
0
LINE
8
BLACK
6
CONTINUOUS
10
0.5831496456692913
20
0.9299999999999999
11
0.5831496456692913
21
0.87
0
LINE
8
BLACK
6
CONTINUOUS
10
0.5831496456692913
20
0.87
11
0.5829098818897638
21
0.8687946850393701
0
LINE
8
BLACK
6
CONTINUOUS
10
0.5829098818897638
20
0.8687946850393701
11
0.5822271653543307
21
0.867772874015748
0
LINE
8
BLACK
6
CONTINUOUS
10
0.5822271653543307
20
0.867772874015748
11
0.5812053543307086
21
0.8670901574803149
0
LINE
8
BLACK
6
CONTINUOUS
10
0.5812053543307086
20
0.8670901574803149
11
0.5800000393700787
21
0.8668503937007874
0
LINE
8
BLACK
6
CONTINUOUS
10
0.5800000393700787
20
0.8668503937007874
11
0.5200000393700788
21
0.8668503937007874
0
LINE
8
BLACK
6
CONTINUOUS
10
0.5200000393700788
20
0.8668503937007874
11
0.5187947244094488
21
0.8670901574803149
0
LINE
8
BLACK
6
CONTINUOUS
10
0.5187947244094488
20
0.8670901574803149
11
0.5177729133858268
21
0.867772874015748
0
LINE
8
BLACK
6
CONTINUOUS
10
0.5177729133858268
20
0.867772874015748
11
0.5170901968503937
21
0.8687946850393701
0
LINE
8
BLACK
6
CONTINUOUS
10
0.5170901968503937
20
0.8687946850393701
11
0.5168504330708661
21
0.87
0
LINE
8
BLACK
6
CONTINUOUS
10
0.5168504330708661
20
0.87
11
0.5168504330708661
21
0.9299999999999999
0
LINE
8
BLACK
6
CONTINUOUS
10
0.5168504330708661
20
0.9299999999999999
11
0.5170901968503937
21
0.9312053149606299
0
LINE
8
BLACK
6
CONTINUOUS
10
0.5170901968503937
20
0.9312053149606299
11
0.5177729133858268
21
0.9322271259842519
0
LINE
8
BLACK
6
CONTINUOUS
10
0.5177729133858268
20
0.9322271259842519
11
0.5187947244094488
21
0.932909842519685
0
LINE
8
BLACK
6
CONTINUOUS
10
0.5187947244094488
20
0.932909842519685
11
0.5200000393700788
21
0.9331496062992126
0
LINE
8
BLACK
6
CONTINUOUS
10
0.5200000393700788
20
0.9331496062992126
11
0.5800000393700787
21
0.9331496062992126
0
LINE
8
BLACK
6
CONTINUOUS
10
0.5800000393700787
20
0.9331496062992126
11
0.5812053543307086
21
0.932909842519685
0
LINE
8
BLACK
6
CONTINUOUS
10
0.6812053543307086
20
0.932909842519685
11
0.6822271653543307
21
0.9322271259842519
0
LINE
8
BLACK
6
CONTINUOUS
10
0.6822271653543307
20
0.9322271259842519
11
0.6829098818897638
21
0.9312053149606299
0
LINE
8
BLACK
6
CONTINUOUS
10
0.6829098818897638
20
0.9312053149606299
11
0.6831496456692914
21
0.9299999999999999
0
LINE
8
BLACK
6
CONTINUOUS
10
0.6831496456692914
20
0.9299999999999999
11
0.6831496456692914
21
0.87
0
LINE
8
BLACK
6
CONTINUOUS
10
0.6831496456692914
20
0.87
11
0.6829098818897638
21
0.8687946850393701
0
LINE
8
BLACK
6
CONTINUOUS
10
0.6829098818897638
20
0.8687946850393701
11
0.6822271653543307
21
0.867772874015748
0
LINE
8
BLACK
6
CONTINUOUS
10
0.6822271653543307
20
0.867772874015748
11
0.6812053543307086
21
0.8670901574803149
0
LINE
8
BLACK
6
CONTINUOUS
10
0.6812053543307086
20
0.8670901574803149
11
0.6800000393700787
21
0.8668503937007874
0
LINE
8
BLACK
6
CONTINUOUS
10
0.6800000393700787
20
0.8668503937007874
11
0.6200000393700787
21
0.8668503937007874
0
LINE
8
BLACK
6
CONTINUOUS
10
0.6200000393700787
20
0.8668503937007874
11
0.6187947244094488
21
0.8670901574803149
0
LINE
8
BLACK
6
CONTINUOUS
10
0.6187947244094488
20
0.8670901574803149
11
0.6177729133858267
21
0.867772874015748
0
LINE
8
BLACK
6
CONTINUOUS
10
0.6177729133858267
20
0.867772874015748
11
0.6170901968503937
21
0.8687946850393701
0
LINE
8
BLACK
6
CONTINUOUS
10
0.6170901968503937
20
0.8687946850393701
11
0.6168504330708662
21
0.87
0
LINE
8
BLACK
6
CONTINUOUS
10
0.6168504330708662
20
0.87
11
0.6168504330708662
21
0.9299999999999999
0
LINE
8
BLACK
6
CONTINUOUS
10
0.6168504330708662
20
0.9299999999999999
11
0.6170901968503937
21
0.9312053149606299
0
LINE
8
BLACK
6
CONTINUOUS
10
0.6170901968503937
20
0.9312053149606299
11
0.6177729133858267
21
0.9322271259842519
0
LINE
8
BLACK
6
CONTINUOUS
10
0.6177729133858267
20
0.9322271259842519
11
0.6187947244094488
21
0.932909842519685
0
LINE
8
BLACK
6
CONTINUOUS
10
0.6187947244094488
20
0.932909842519685
11
0.6200000393700787
21
0.9331496062992126
0
LINE
8
BLACK
6
CONTINUOUS
10
0.6200000393700787
20
0.9331496062992126
11
0.6800000393700787
21
0.9331496062992126
0
LINE
8
BLACK
6
CONTINUOUS
10
0.6800000393700787
20
0.9331496062992126
11
0.6812053543307086
21
0.932909842519685
0
LINE
8
BLACK
6
CONTINUOUS
10
0.5812053543307086
20
1.032909842519685
11
0.5822271653543307
21
1.0322271259842519
0
LINE
8
BLACK
6
CONTINUOUS
10
0.5822271653543307
20
1.0322271259842519
11
0.5829098818897638
21
1.0312053149606299
0
LINE
8
BLACK
6
CONTINUOUS
10
0.5829098818897638
20
1.0312053149606299
11
0.5831496456692913
21
1.03
0
LINE
8
BLACK
6
CONTINUOUS
10
0.5831496456692913
20
1.03
11
0.5831496456692913
21
0.97
0
LINE
8
BLACK
6
CONTINUOUS
10
0.5831496456692913
20
0.97
11
0.5829098818897638
21
0.9687946850393701
0
LINE
8
BLACK
6
CONTINUOUS
10
0.5829098818897638
20
0.9687946850393701
11
0.5822271653543307
21
0.967772874015748
0
LINE
8
BLACK
6
CONTINUOUS
10
0.5822271653543307
20
0.967772874015748
11
0.5812053543307086
21
0.9670901574803149
0
LINE
8
BLACK
6
CONTINUOUS
10
0.5812053543307086
20
0.9670901574803149
11
0.5800000393700787
21
0.9668503937007874
0
LINE
8
BLACK
6
CONTINUOUS
10
0.5800000393700787
20
0.9668503937007874
11
0.5200000393700788
21
0.9668503937007874
0
LINE
8
BLACK
6
CONTINUOUS
10
0.5200000393700788
20
0.9668503937007874
11
0.5187947244094488
21
0.9670901574803149
0
LINE
8
BLACK
6
CONTINUOUS
10
0.5187947244094488
20
0.9670901574803149
11
0.5177729133858268
21
0.967772874015748
0
LINE
8
BLACK
6
CONTINUOUS
10
0.5177729133858268
20
0.967772874015748
11
0.5170901968503937
21
0.9687946850393701
0
LINE
8
BLACK
6
CONTINUOUS
10
0.5170901968503937
20
0.9687946850393701
11
0.5168504330708661
21
0.97
0
LINE
8
BLACK
6
CONTINUOUS
10
0.5168504330708661
20
0.97
11
0.5168504330708661
21
1.03
0
LINE
8
BLACK
6
CONTINUOUS
10
0.5168504330708661
20
1.03
11
0.5170901968503937
21
1.0312053149606299
0
LINE
8
BLACK
6
CONTINUOUS
10
0.5170901968503937
20
1.0312053149606299
11
0.5177729133858268
21
1.0322271259842519
0
LINE
8
BLACK
6
CONTINUOUS
10
0.5177729133858268
20
1.0322271259842519
11
0.5187947244094488
21
1.032909842519685
0
LINE
8
BLACK
6
CONTINUOUS
10
0.5187947244094488
20
1.032909842519685
11
0.5200000393700788
21
1.0331496062992125
0
LINE
8
BLACK
6
CONTINUOUS
10
0.5200000393700788
20
1.0331496062992125
11
0.5800000393700787
21
1.0331496062992125
0
LINE
8
BLACK
6
CONTINUOUS
10
0.5800000393700787
20
1.0331496062992125
11
0.5812053543307086
21
1.032909842519685
0
LINE
8
BLACK
6
CONTINUOUS
10
0.6812053543307086
20
1.032909842519685
11
0.6822271653543307
21
1.0322271259842519
0
LINE
8
BLACK
6
CONTINUOUS
10
0.6822271653543307
20
1.0322271259842519
11
0.6829098818897638
21
1.0312053149606299
0
LINE
8
BLACK
6
CONTINUOUS
10
0.6829098818897638
20
1.0312053149606299
11
0.6831496456692914
21
1.03
0
LINE
8
BLACK
6
CONTINUOUS
10
0.6831496456692914
20
1.03
11
0.6831496456692914
21
0.97
0
LINE
8
BLACK
6
CONTINUOUS
10
0.6831496456692914
20
0.97
11
0.6829098818897638
21
0.9687946850393701
0
LINE
8
BLACK
6
CONTINUOUS
10
0.6829098818897638
20
0.9687946850393701
11
0.6822271653543307
21
0.967772874015748
0
LINE
8
BLACK
6
CONTINUOUS
10
0.6822271653543307
20
0.967772874015748
11
0.6812053543307086
21
0.9670901574803149
0
LINE
8
BLACK
6
CONTINUOUS
10
0.6812053543307086
20
0.9670901574803149
11
0.6800000393700787
21
0.9668503937007874
0
LINE
8
BLACK
6
CONTINUOUS
10
0.6800000393700787
20
0.9668503937007874
11
0.6200000393700787
21
0.9668503937007874
0
LINE
8
BLACK
6
CONTINUOUS
10
0.6200000393700787
20
0.9668503937007874
11
0.6187947244094488
21
0.9670901574803149
0
LINE
8
BLACK
6
CONTINUOUS
10
0.6187947244094488
20
0.9670901574803149
11
0.6177729133858267
21
0.967772874015748
0
LINE
8
BLACK
6
CONTINUOUS
10
0.6177729133858267
20
0.967772874015748
11
0.6170901968503937
21
0.9687946850393701
0
LINE
8
BLACK
6
CONTINUOUS
10
0.6170901968503937
20
0.9687946850393701
11
0.6168504330708662
21
0.97
0
LINE
8
BLACK
6
CONTINUOUS
10
0.6168504330708662
20
0.97
11
0.6168504330708662
21
1.03
0
LINE
8
BLACK
6
CONTINUOUS
10
0.6168504330708662
20
1.03
11
0.6170901968503937
21
1.0312053149606299
0
LINE
8
BLACK
6
CONTINUOUS
10
0.6170901968503937
20
1.0312053149606299
11
0.6177729133858267
21
1.0322271259842519
0
LINE
8
BLACK
6
CONTINUOUS
10
0.6177729133858267
20
1.0322271259842519
11
0.6187947244094488
21
1.032909842519685
0
LINE
8
BLACK
6
CONTINUOUS
10
0.6187947244094488
20
1.032909842519685
11
0.6200000393700787
21
1.0331496062992125
0
LINE
8
BLACK
6
CONTINUOUS
10
0.6200000393700787
20
1.0331496062992125
11
0.6800000393700787
21
1.0331496062992125
0
LINE
8
BLACK
6
CONTINUOUS
10
0.6800000393700787
20
1.0331496062992125
11
0.6812053543307086
21
1.032909842519685
0
LINE
8
BLACK
6
CONTINUOUS
10
0.5812053543307086
20
1.1329098425196851
11
0.5822271653543307
21
1.132227125984252
0
LINE
8
BLACK
6
CONTINUOUS
10
0.5822271653543307
20
1.132227125984252
11
0.5829098818897638
21
1.1312053149606298
0
LINE
8
BLACK
6
CONTINUOUS
10
0.5829098818897638
20
1.1312053149606298
11
0.5831496456692913
21
1.1299999999999999
0
LINE
8
BLACK
6
CONTINUOUS
10
0.5831496456692913
20
1.1299999999999999
11
0.5831496456692913
21
1.0700000000000001
0
LINE
8
BLACK
6
CONTINUOUS
10
0.5831496456692913
20
1.0700000000000001
11
0.5829098818897638
21
1.0687946850393701
0
LINE
8
BLACK
6
CONTINUOUS
10
0.5829098818897638
20
1.0687946850393701
11
0.5822271653543307
21
1.0677728740157479
0
LINE
8
BLACK
6
CONTINUOUS
10
0.5822271653543307
20
1.0677728740157479
11
0.5812053543307086
21
1.0670901574803149
0
LINE
8
BLACK
6
CONTINUOUS
10
0.5812053543307086
20
1.0670901574803149
11
0.5800000393700787
21
1.0668503937007874
0
LINE
8
BLACK
6
CONTINUOUS
10
0.5800000393700787
20
1.0668503937007874
11
0.5200000393700788
21
1.0668503937007874
0
LINE
8
BLACK
6
CONTINUOUS
10
0.5200000393700788
20
1.0668503937007874
11
0.5187947244094488
21
1.0670901574803149
0
LINE
8
BLACK
6
CONTINUOUS
10
0.5187947244094488
20
1.0670901574803149
11
0.5177729133858268
21
1.0677728740157479
0
LINE
8
BLACK
6
CONTINUOUS
10
0.5177729133858268
20
1.0677728740157479
11
0.5170901968503937
21
1.0687946850393701
0
LINE
8
BLACK
6
CONTINUOUS
10
0.5170901968503937
20
1.0687946850393701
11
0.5168504330708661
21
1.0700000000000001
0
LINE
8
BLACK
6
CONTINUOUS
10
0.5168504330708661
20
1.0700000000000001
11
0.5168504330708661
21
1.1299999999999999
0
LINE
8
BLACK
6
CONTINUOUS
10
0.5168504330708661
20
1.1299999999999999
11
0.5170901968503937
21
1.1312053149606298
0
LINE
8
BLACK
6
CONTINUOUS
10
0.5170901968503937
20
1.1312053149606298
11
0.5177729133858268
21
1.132227125984252
0
LINE
8
BLACK
6
CONTINUOUS
10
0.5177729133858268
20
1.132227125984252
11
0.5187947244094488
21
1.1329098425196851
0
LINE
8
BLACK
6
CONTINUOUS
10
0.5187947244094488
20
1.1329098425196851
11
0.5200000393700788
21
1.1331496062992126
0
LINE
8
BLACK
6
CONTINUOUS
10
0.5200000393700788
20
1.1331496062992126
11
0.5800000393700787
21
1.1331496062992126
0
LINE
8
BLACK
6
CONTINUOUS
10
0.5800000393700787
20
1.1331496062992126
11
0.5812053543307086
21
1.1329098425196851
0
LINE
8
BLACK
6
CONTINUOUS
10
0.6812053543307086
20
1.1329098425196851
11
0.6822271653543307
21
1.132227125984252
0
LINE
8
BLACK
6
CONTINUOUS
10
0.6822271653543307
20
1.132227125984252
11
0.6829098818897638
21
1.1312053149606298
0
LINE
8
BLACK
6
CONTINUOUS
10
0.6829098818897638
20
1.1312053149606298
11
0.6831496456692914
21
1.1299999999999999
0
LINE
8
BLACK
6
CONTINUOUS
10
0.6831496456692914
20
1.1299999999999999
11
0.6831496456692914
21
1.0700000000000001
0
LINE
8
BLACK
6
CONTINUOUS
10
0.6831496456692914
20
1.0700000000000001
11
0.6829098818897638
21
1.0687946850393701
0
LINE
8
BLACK
6
CONTINUOUS
10
0.6829098818897638
20
1.0687946850393701
11
0.6822271653543307
21
1.0677728740157479
0
LINE
8
BLACK
6
CONTINUOUS
10
0.6822271653543307
20
1.0677728740157479
11
0.6812053543307086
21
1.0670901574803149
0
LINE
8
BLACK
6
CONTINUOUS
10
0.6812053543307086
20
1.0670901574803149
11
0.6800000393700787
21
1.0668503937007874
0
LINE
8
BLACK
6
CONTINUOUS
10
0.6800000393700787
20
1.0668503937007874
11
0.6200000393700787
21
1.0668503937007874
0
LINE
8
BLACK
6
CONTINUOUS
10
0.6200000393700787
20
1.0668503937007874
11
0.6187947244094488
21
1.0670901574803149
0
LINE
8
BLACK
6
CONTINUOUS
10
0.6187947244094488
20
1.0670901574803149
11
0.6177729133858267
21
1.0677728740157479
0
LINE
8
BLACK
6
CONTINUOUS
10
0.6177729133858267
20
1.0677728740157479
11
0.6170901968503937
21
1.0687946850393701
0
LINE
8
BLACK
6
CONTINUOUS
10
0.6170901968503937
20
1.0687946850393701
11
0.6168504330708662
21
1.0700000000000001
0
LINE
8
BLACK
6
CONTINUOUS
10
0.6168504330708662
20
1.0700000000000001
11
0.6168504330708662
21
1.1299999999999999
0
LINE
8
BLACK
6
CONTINUOUS
10
0.6168504330708662
20
1.1299999999999999
11
0.6170901968503937
21
1.1312053149606298
0
LINE
8
BLACK
6
CONTINUOUS
10
0.6170901968503937
20
1.1312053149606298
11
0.6177729133858267
21
1.132227125984252
0
LINE
8
BLACK
6
CONTINUOUS
10
0.6177729133858267
20
1.132227125984252
11
0.6187947244094488
21
1.1329098425196851
0
LINE
8
BLACK
6
CONTINUOUS
10
0.6187947244094488
20
1.1329098425196851
11
0.6200000393700787
21
1.1331496062992126
0
LINE
8
BLACK
6
CONTINUOUS
10
0.6200000393700787
20
1.1331496062992126
11
0.6800000393700787
21
1.1331496062992126
0
LINE
8
BLACK
6
CONTINUOUS
10
0.6800000393700787
20
1.1331496062992126
11
0.6812053543307086
21
1.1329098425196851
0
LINE
8
BLACK
6
CONTINUOUS
10
0.5812053543307086
20
1.2329098425196849
11
0.5822271653543307
21
1.2322271259842519
0
LINE
8
BLACK
6
CONTINUOUS
10
0.5822271653543307
20
1.2322271259842519
11
0.5829098818897638
21
1.2312053149606299
0
LINE
8
BLACK
6
CONTINUOUS
10
0.5829098818897638
20
1.2312053149606299
11
0.5831496456692913
21
1.23
0
LINE
8
BLACK
6
CONTINUOUS
10
0.5831496456692913
20
1.23
11
0.5831496456692913
21
1.1699999999999999
0
LINE
8
BLACK
6
CONTINUOUS
10
0.5831496456692913
20
1.1699999999999999
11
0.5829098818897638
21
1.16879468503937
0
LINE
8
BLACK
6
CONTINUOUS
10
0.5829098818897638
20
1.16879468503937
11
0.5822271653543307
21
1.167772874015748
0
LINE
8
BLACK
6
CONTINUOUS
10
0.5822271653543307
20
1.167772874015748
11
0.5812053543307086
21
1.167090157480315
0
LINE
8
BLACK
6
CONTINUOUS
10
0.5812053543307086
20
1.167090157480315
11
0.5800000393700787
21
1.1668503937007875
0
LINE
8
BLACK
6
CONTINUOUS
10
0.5800000393700787
20
1.1668503937007875
11
0.5200000393700788
21
1.1668503937007875
0
LINE
8
BLACK
6
CONTINUOUS
10
0.5200000393700788
20
1.1668503937007875
11
0.5187947244094488
21
1.167090157480315
0
LINE
8
BLACK
6
CONTINUOUS
10
0.5187947244094488
20
1.167090157480315
11
0.5177729133858268
21
1.167772874015748
0
LINE
8
BLACK
6
CONTINUOUS
10
0.5177729133858268
20
1.167772874015748
11
0.5170901968503937
21
1.16879468503937
0
LINE
8
BLACK
6
CONTINUOUS
10
0.5170901968503937
20
1.16879468503937
11
0.5168504330708661
21
1.1699999999999999
0
LINE
8
BLACK
6
CONTINUOUS
10
0.5168504330708661
20
1.1699999999999999
11
0.5168504330708661
21
1.23
0
LINE
8
BLACK
6
CONTINUOUS
10
0.5168504330708661
20
1.23
11
0.5170901968503937
21
1.2312053149606299
0
LINE
8
BLACK
6
CONTINUOUS
10
0.5170901968503937
20
1.2312053149606299
11
0.5177729133858268
21
1.2322271259842519
0
LINE
8
BLACK
6
CONTINUOUS
10
0.5177729133858268
20
1.2322271259842519
11
0.5187947244094488
21
1.2329098425196849
0
LINE
8
BLACK
6
CONTINUOUS
10
0.5187947244094488
20
1.2329098425196849
11
0.5200000393700788
21
1.2331496062992127
0
LINE
8
BLACK
6
CONTINUOUS
10
0.5200000393700788
20
1.2331496062992127
11
0.5800000393700787
21
1.2331496062992127
0
LINE
8
BLACK
6
CONTINUOUS
10
0.5800000393700787
20
1.2331496062992127
11
0.5812053543307086
21
1.2329098425196849
0
LINE
8
BLACK
6
CONTINUOUS
10
0.6812053543307086
20
1.2329098425196849
11
0.6822271653543307
21
1.2322271259842519
0
LINE
8
BLACK
6
CONTINUOUS
10
0.6822271653543307
20
1.2322271259842519
11
0.6829098818897638
21
1.2312053149606299
0
LINE
8
BLACK
6
CONTINUOUS
10
0.6829098818897638
20
1.2312053149606299
11
0.6831496456692914
21
1.23
0
LINE
8
BLACK
6
CONTINUOUS
10
0.6831496456692914
20
1.23
11
0.6831496456692914
21
1.1699999999999999
0
LINE
8
BLACK
6
CONTINUOUS
10
0.6831496456692914
20
1.1699999999999999
11
0.6829098818897638
21
1.16879468503937
0
LINE
8
BLACK
6
CONTINUOUS
10
0.6829098818897638
20
1.16879468503937
11
0.6822271653543307
21
1.167772874015748
0
LINE
8
BLACK
6
CONTINUOUS
10
0.6822271653543307
20
1.167772874015748
11
0.6812053543307086
21
1.167090157480315
0
LINE
8
BLACK
6
CONTINUOUS
10
0.6812053543307086
20
1.167090157480315
11
0.6800000393700787
21
1.1668503937007875
0
LINE
8
BLACK
6
CONTINUOUS
10
0.6800000393700787
20
1.1668503937007875
11
0.6200000393700787
21
1.1668503937007875
0
LINE
8
BLACK
6
CONTINUOUS
10
0.6200000393700787
20
1.1668503937007875
11
0.6187947244094488
21
1.167090157480315
0
LINE
8
BLACK
6
CONTINUOUS
10
0.6187947244094488
20
1.167090157480315
11
0.6177729133858267
21
1.167772874015748
0
LINE
8
BLACK
6
CONTINUOUS
10
0.6177729133858267
20
1.167772874015748
11
0.6170901968503937
21
1.16879468503937
0
LINE
8
BLACK
6
CONTINUOUS
10
0.6170901968503937
20
1.16879468503937
11
0.6168504330708662
21
1.1699999999999999
0
LINE
8
BLACK
6
CONTINUOUS
10
0.6168504330708662
20
1.1699999999999999
11
0.6168504330708662
21
1.23
0
LINE
8
BLACK
6
CONTINUOUS
10
0.6168504330708662
20
1.23
11
0.6170901968503937
21
1.2312053149606299
0
LINE
8
BLACK
6
CONTINUOUS
10
0.6170901968503937
20
1.2312053149606299
11
0.6177729133858267
21
1.2322271259842519
0
LINE
8
BLACK
6
CONTINUOUS
10
0.6177729133858267
20
1.2322271259842519
11
0.6187947244094488
21
1.2329098425196849
0
LINE
8
BLACK
6
CONTINUOUS
10
0.6187947244094488
20
1.2329098425196849
11
0.6200000393700787
21
1.2331496062992127
0
LINE
8
BLACK
6
CONTINUOUS
10
0.6200000393700787
20
1.2331496062992127
11
0.6800000393700787
21
1.2331496062992127
0
LINE
8
BLACK
6
CONTINUOUS
10
0.6800000393700787
20
1.2331496062992127
11
0.6812053543307086
21
1.2329098425196849
0
LINE
8
BLACK
6
CONTINUOUS
10
0.4135768503937008
20
1.7204974015748031
11
0.426982874015748
21
1.7182196062992126
0
LINE
8
BLACK
6
CONTINUOUS
10
0.426982874015748
20
1.7182196062992126
11
0.4400496456692913
21
1.7144551574803149
0
LINE
8
BLACK
6
CONTINUOUS
10
0.4400496456692913
20
1.7144551574803149
11
0.4526127165354331
21
1.7092513385826771
0
LINE
8
BLACK
6
CONTINUOUS
10
0.4526127165354331
20
1.7092513385826771
11
0.4645141732283464
21
1.7026736614173228
0
LINE
8
BLACK
6
CONTINUOUS
10
0.4645141732283464
20
1.7026736614173228
11
0.4756043307086614
21
1.6948047637795276
0
LINE
8
BLACK
6
CONTINUOUS
10
0.4756043307086614
20
1.6948047637795276
11
0.4857437007874016
21
1.6857436614173229
0
LINE
8
BLACK
6
CONTINUOUS
10
0.4857437007874016
20
1.6857436614173229
11
0.4948048031496063
21
1.6756042913385827
0
LINE
8
BLACK
6
CONTINUOUS
10
0.4948048031496063
20
1.6756042913385827
11
0.5026737007874016
21
1.6645141338582676
0
LINE
8
BLACK
6
CONTINUOUS
10
0.5026737007874016
20
1.6645141338582676
11
0.5092513779527559
21
1.6526126771653542
0
LINE
8
BLACK
6
CONTINUOUS
10
0.5092513779527559
20
1.6526126771653542
11
0.5144551968503936
21
1.6400496062992125
0
LINE
8
BLACK
6
CONTINUOUS
10
0.5144551968503936
20
1.6400496062992125
11
0.5182196456692914
21
1.6269828346456692
0
LINE
8
BLACK
6
CONTINUOUS
10
0.5182196456692914
20
1.6269828346456692
11
0.5204974409448819
21
1.6135768110236219
0
LINE
8
BLACK
6
CONTINUOUS
10
0.5204974409448819
20
1.6135768110236219
11
0.5212598818897638
21
1.5999999999999999
0
LINE
8
BLACK
6
CONTINUOUS
10
0.5212598818897638
20
1.5999999999999999
11
0.5204974409448819
21
1.586423188976378
0
LINE
8
BLACK
6
CONTINUOUS
10
0.5204974409448819
20
1.586423188976378
11
0.5182196456692914
21
1.5730171653543308
0
LINE
8
BLACK
6
CONTINUOUS
10
0.5182196456692914
20
1.5730171653543308
11
0.5144551968503936
21
1.5599503937007875
0
LINE
8
BLACK
6
CONTINUOUS
10
0.5144551968503936
20
1.5599503937007875
11
0.5092513779527559
21
1.5473873228346455
0
LINE
8
BLACK
6
CONTINUOUS
10
0.5092513779527559
20
1.5473873228346455
11
0.5026737007874016
21
1.5354858661417323
0
LINE
8
BLACK
6
CONTINUOUS
10
0.5026737007874016
20
1.5354858661417323
11
0.4948048031496063
21
1.5243957086614173
0
LINE
8
BLACK
6
CONTINUOUS
10
0.4948048031496063
20
1.5243957086614173
11
0.4857437007874016
21
1.5142563385826771
0
LINE
8
BLACK
6
CONTINUOUS
10
0.4857437007874016
20
1.5142563385826771
11
0.4756043307086614
21
1.5051952362204724
0
LINE
8
BLACK
6
CONTINUOUS
10
0.4756043307086614
20
1.5051952362204724
11
0.4645141732283464
21
1.4973263385826772
0
LINE
8
BLACK
6
CONTINUOUS
10
0.4645141732283464
20
1.4973263385826772
11
0.4526127165354331
21
1.4907486614173229
0
LINE
8
BLACK
6
CONTINUOUS
10
0.4526127165354331
20
1.4907486614173229
11
0.4400496456692913
21
1.4855448425196851
0
LINE
8
BLACK
6
CONTINUOUS
10
0.4400496456692913
20
1.4855448425196851
11
0.426982874015748
21
1.4817803937007874
0
LINE
8
BLACK
6
CONTINUOUS
10
0.426982874015748
20
1.4817803937007874
11
0.4135768503937008
21
1.4795025984251968
0
LINE
8
BLACK
6
CONTINUOUS
10
0.4135768503937008
20
1.4795025984251968
11
0.4000000393700787
21
1.478740157480315
0
LINE
8
BLACK
6
CONTINUOUS
10
0.4000000393700787
20
1.478740157480315
11
0.3864232283464567
21
1.4795025984251968
0
LINE
8
BLACK
6
CONTINUOUS
10
0.3864232283464567
20
1.4795025984251968
11
0.3730172047244095
21
1.4817803937007874
0
LINE
8
BLACK
6
CONTINUOUS
10
0.3730172047244095
20
1.4817803937007874
11
0.3599504330708662
21
1.4855448425196851
0
LINE
8
BLACK
6
CONTINUOUS
10
0.3599504330708662
20
1.4855448425196851
11
0.3473873622047244
21
1.4907486614173229
0
LINE
8
BLACK
6
CONTINUOUS
10
0.3473873622047244
20
1.4907486614173229
11
0.335485905511811
21
1.4973263385826772
0
LINE
8
BLACK
6
CONTINUOUS
10
0.335485905511811
20
1.4973263385826772
11
0.3243957480314961
21
1.5051952362204724
0
LINE
8
BLACK
6
CONTINUOUS
10
0.3243957480314961
20
1.5051952362204724
11
0.3142563779527559
21
1.5142563385826771
0
LINE
8
BLACK
6
CONTINUOUS
10
0.3142563779527559
20
1.5142563385826771
11
0.3051952755905512
21
1.5243957086614173
0
LINE
8
BLACK
6
CONTINUOUS
10
0.3051952755905512
20
1.5243957086614173
11
0.2973263779527559
21
1.5354858661417323
0
LINE
8
BLACK
6
CONTINUOUS
10
0.2973263779527559
20
1.5354858661417323
11
0.2907487007874016
21
1.5473873228346455
0
LINE
8
BLACK
6
CONTINUOUS
10
0.2907487007874016
20
1.5473873228346455
11
0.2855448818897638
21
1.5599503937007875
0
LINE
8
BLACK
6
CONTINUOUS
10
0.2855448818897638
20
1.5599503937007875
11
0.2817804330708661
21
1.5730171653543308
0
LINE
8
BLACK
6
CONTINUOUS
10
0.2817804330708661
20
1.5730171653543308
11
0.2795026377952756
21
1.586423188976378
0
LINE
8
BLACK
6
CONTINUOUS
10
0.2795026377952756
20
1.586423188976378
11
0.2787401968503937
21
1.5999999999999999
0
LINE
8
BLACK
6
CONTINUOUS
10
0.2787401968503937
20
1.5999999999999999
11
0.2795026377952756
21
1.6135768110236219
0
LINE
8
BLACK
6
CONTINUOUS
10
0.2795026377952756
20
1.6135768110236219
11
0.2817804330708661
21
1.6269828346456692
0
LINE
8
BLACK
6
CONTINUOUS
10
0.2817804330708661
20
1.6269828346456692
11
0.2855448818897638
21
1.6400496062992125
0
LINE
8
BLACK
6
CONTINUOUS
10
0.2855448818897638
20
1.6400496062992125
11
0.2907487007874016
21
1.6526126771653542
0
LINE
8
BLACK
6
CONTINUOUS
10
0.2907487007874016
20
1.6526126771653542
11
0.2973263779527559
21
1.6645141338582676
0
LINE
8
BLACK
6
CONTINUOUS
10
0.2973263779527559
20
1.6645141338582676
11
0.3051952755905512
21
1.6756042913385827
0
LINE
8
BLACK
6
CONTINUOUS
10
0.3051952755905512
20
1.6756042913385827
11
0.3142563779527559
21
1.6857436614173229
0
LINE
8
BLACK
6
CONTINUOUS
10
0.3142563779527559
20
1.6857436614173229
11
0.3243957480314961
21
1.6948047637795276
0
LINE
8
BLACK
6
CONTINUOUS
10
0.3243957480314961
20
1.6948047637795276
11
0.335485905511811
21
1.7026736614173228
0
LINE
8
BLACK
6
CONTINUOUS
10
0.335485905511811
20
1.7026736614173228
11
0.3473873622047244
21
1.7092513385826771
0
LINE
8
BLACK
6
CONTINUOUS
10
0.3473873622047244
20
1.7092513385826771
11
0.3599504330708662
21
1.7144551574803149
0
LINE
8
BLACK
6
CONTINUOUS
10
0.3599504330708662
20
1.7144551574803149
11
0.3730172047244095
21
1.7182196062992126
0
LINE
8
BLACK
6
CONTINUOUS
10
0.3730172047244095
20
1.7182196062992126
11
0.3864232283464567
21
1.7204974015748031
0
LINE
8
BLACK
6
CONTINUOUS
10
0.3864232283464567
20
1.7204974015748031
11
0.4000000393700787
21
1.721259842519685
0
LINE
8
BLACK
6
CONTINUOUS
10
0.4000000393700787
20
1.721259842519685
11
0.4135768503937008
21
1.7204974015748031
0
LINE
8
BLACK
6
CONTINUOUS
10
0.8135768503937008
20
1.7204974015748031
11
0.826982874015748
21
1.7182196062992126
0
LINE
8
BLACK
6
CONTINUOUS
10
0.826982874015748
20
1.7182196062992126
11
0.8400496456692913
21
1.7144551574803149
0
LINE
8
BLACK
6
CONTINUOUS
10
0.8400496456692913
20
1.7144551574803149
11
0.852612716535433
21
1.7092513385826771
0
LINE
8
BLACK
6
CONTINUOUS
10
0.852612716535433
20
1.7092513385826771
11
0.8645141732283464
21
1.7026736614173228
0
LINE
8
BLACK
6
CONTINUOUS
10
0.8645141732283464
20
1.7026736614173228
11
0.8756043307086614
21
1.6948047637795276
0
LINE
8
BLACK
6
CONTINUOUS
10
0.8756043307086614
20
1.6948047637795276
11
0.8857437007874015
21
1.6857436614173229
0
LINE
8
BLACK
6
CONTINUOUS
10
0.8857437007874015
20
1.6857436614173229
11
0.8948048031496063
21
1.6756042913385827
0
LINE
8
BLACK
6
CONTINUOUS
10
0.8948048031496063
20
1.6756042913385827
11
0.9026737007874015
21
1.6645141338582676
0
LINE
8
BLACK
6
CONTINUOUS
10
0.9026737007874015
20
1.6645141338582676
11
0.9092513779527559
21
1.6526126771653542
0
LINE
8
BLACK
6
CONTINUOUS
10
0.9092513779527559
20
1.6526126771653542
11
0.9144551968503937
21
1.6400496062992125
0
LINE
8
BLACK
6
CONTINUOUS
10
0.9144551968503937
20
1.6400496062992125
11
0.9182196456692913
21
1.6269828346456692
0
LINE
8
BLACK
6
CONTINUOUS
10
0.9182196456692913
20
1.6269828346456692
11
0.9204974409448818
21
1.6135768110236219
0
LINE
8
BLACK
6
CONTINUOUS
10
0.9204974409448818
20
1.6135768110236219
11
0.9212598818897637
21
1.5999999999999999
0
LINE
8
BLACK
6
CONTINUOUS
10
0.9212598818897637
20
1.5999999999999999
11
0.9204974409448818
21
1.586423188976378
0
LINE
8
BLACK
6
CONTINUOUS
10
0.9204974409448818
20
1.586423188976378
11
0.9182196456692913
21
1.5730171653543308
0
LINE
8
BLACK
6
CONTINUOUS
10
0.9182196456692913
20
1.5730171653543308
11
0.9144551968503937
21
1.5599503937007875
0
LINE
8
BLACK
6
CONTINUOUS
10
0.9144551968503937
20
1.5599503937007875
11
0.9092513779527559
21
1.5473873228346455
0
LINE
8
BLACK
6
CONTINUOUS
10
0.9092513779527559
20
1.5473873228346455
11
0.9026737007874015
21
1.5354858661417323
0
LINE
8
BLACK
6
CONTINUOUS
10
0.9026737007874015
20
1.5354858661417323
11
0.8948048031496063
21
1.5243957086614173
0
LINE
8
BLACK
6
CONTINUOUS
10
0.8948048031496063
20
1.5243957086614173
11
0.8857437007874015
21
1.5142563385826771
0
LINE
8
BLACK
6
CONTINUOUS
10
0.8857437007874015
20
1.5142563385826771
11
0.8756043307086614
21
1.5051952362204724
0
LINE
8
BLACK
6
CONTINUOUS
10
0.8756043307086614
20
1.5051952362204724
11
0.8645141732283464
21
1.4973263385826772
0
LINE
8
BLACK
6
CONTINUOUS
10
0.8645141732283464
20
1.4973263385826772
11
0.852612716535433
21
1.4907486614173229
0
LINE
8
BLACK
6
CONTINUOUS
10
0.852612716535433
20
1.4907486614173229
11
0.8400496456692913
21
1.4855448425196851
0
LINE
8
BLACK
6
CONTINUOUS
10
0.8400496456692913
20
1.4855448425196851
11
0.826982874015748
21
1.4817803937007874
0
LINE
8
BLACK
6
CONTINUOUS
10
0.826982874015748
20
1.4817803937007874
11
0.8135768503937008
21
1.4795025984251968
0
LINE
8
BLACK
6
CONTINUOUS
10
0.8135768503937008
20
1.4795025984251968
11
0.8000000393700787
21
1.478740157480315
0
LINE
8
BLACK
6
CONTINUOUS
10
0.8000000393700787
20
1.478740157480315
11
0.7864232283464567
21
1.4795025984251968
0
LINE
8
BLACK
6
CONTINUOUS
10
0.7864232283464567
20
1.4795025984251968
11
0.7730172047244094
21
1.4817803937007874
0
LINE
8
BLACK
6
CONTINUOUS
10
0.7730172047244094
20
1.4817803937007874
11
0.7599504330708661
21
1.4855448425196851
0
LINE
8
BLACK
6
CONTINUOUS
10
0.7599504330708661
20
1.4855448425196851
11
0.7473873622047243
21
1.4907486614173229
0
LINE
8
BLACK
6
CONTINUOUS
10
0.7473873622047243
20
1.4907486614173229
11
0.735485905511811
21
1.4973263385826772
0
LINE
8
BLACK
6
CONTINUOUS
10
0.735485905511811
20
1.4973263385826772
11
0.7243957480314961
21
1.5051952362204724
0
LINE
8
BLACK
6
CONTINUOUS
10
0.7243957480314961
20
1.5051952362204724
11
0.7142563779527559
21
1.5142563385826771
0
LINE
8
BLACK
6
CONTINUOUS
10
0.7142563779527559
20
1.5142563385826771
11
0.7051952755905512
21
1.5243957086614173
0
LINE
8
BLACK
6
CONTINUOUS
10
0.7051952755905512
20
1.5243957086614173
11
0.6973263779527559
21
1.5354858661417323
0
LINE
8
BLACK
6
CONTINUOUS
10
0.6973263779527559
20
1.5354858661417323
11
0.6907487007874016
21
1.5473873228346455
0
LINE
8
BLACK
6
CONTINUOUS
10
0.6907487007874016
20
1.5473873228346455
11
0.6855448818897638
21
1.5599503937007875
0
LINE
8
BLACK
6
CONTINUOUS
10
0.6855448818897638
20
1.5599503937007875
11
0.6817804330708661
21
1.5730171653543308
0
LINE
8
BLACK
6
CONTINUOUS
10
0.6817804330708661
20
1.5730171653543308
11
0.6795026377952755
21
1.586423188976378
0
LINE
8
BLACK
6
CONTINUOUS
10
0.6795026377952755
20
1.586423188976378
11
0.6787401968503937
21
1.5999999999999999
0
LINE
8
BLACK
6
CONTINUOUS
10
0.6787401968503937
20
1.5999999999999999
11
0.6795026377952755
21
1.6135768110236219
0
LINE
8
BLACK
6
CONTINUOUS
10
0.6795026377952755
20
1.6135768110236219
11
0.6817804330708661
21
1.6269828346456692
0
LINE
8
BLACK
6
CONTINUOUS
10
0.6817804330708661
20
1.6269828346456692
11
0.6855448818897638
21
1.6400496062992125
0
LINE
8
BLACK
6
CONTINUOUS
10
0.6855448818897638
20
1.6400496062992125
11
0.6907487007874016
21
1.6526126771653542
0
LINE
8
BLACK
6
CONTINUOUS
10
0.6907487007874016
20
1.6526126771653542
11
0.6973263779527559
21
1.6645141338582676
0
LINE
8
BLACK
6
CONTINUOUS
10
0.6973263779527559
20
1.6645141338582676
11
0.7051952755905512
21
1.6756042913385827
0
LINE
8
BLACK
6
CONTINUOUS
10
0.7051952755905512
20
1.6756042913385827
11
0.7142563779527559
21
1.6857436614173229
0
LINE
8
BLACK
6
CONTINUOUS
10
0.7142563779527559
20
1.6857436614173229
11
0.7243957480314961
21
1.6948047637795276
0
LINE
8
BLACK
6
CONTINUOUS
10
0.7243957480314961
20
1.6948047637795276
11
0.735485905511811
21
1.7026736614173228
0
LINE
8
BLACK
6
CONTINUOUS
10
0.735485905511811
20
1.7026736614173228
11
0.7473873622047243
21
1.7092513385826771
0
LINE
8
BLACK
6
CONTINUOUS
10
0.7473873622047243
20
1.7092513385826771
11
0.7599504330708661
21
1.7144551574803149
0
LINE
8
BLACK
6
CONTINUOUS
10
0.7599504330708661
20
1.7144551574803149
11
0.7730172047244094
21
1.7182196062992126
0
LINE
8
BLACK
6
CONTINUOUS
10
0.7730172047244094
20
1.7182196062992126
11
0.7864232283464567
21
1.7204974015748031
0
LINE
8
BLACK
6
CONTINUOUS
10
0.7864232283464567
20
1.7204974015748031
11
0.8000000393700787
21
1.721259842519685
0
LINE
8
BLACK
6
CONTINUOUS
10
0.8000000393700787
20
1.721259842519685
11
0.8135768503937008
21
1.7204974015748031
  0
ENDSEC
  0
EOF
