  0
SECTION
  2
HEADER
  9
$ANGBASE
  50
0.0
  9
$ANGDIR
  70
1
  9
$MEASUREMENT
  70
0
  0
ENDSEC
  0
SECTION
  2
TABLES
  0
TABLE
  2
LTYPE
  70
4
  0
LTYPE
  5
40F
  2
CONTINUOUS
  70
0
  3
Solid line
  72
65
  73
0
  40
0.0
  0
LTYPE
  5
410
  2
DASHDOT
 70
0
  3
Dash Dot ____ _ ____ _
 72
65
 73
4
 40
2.0
 49
1.25
 49
-0.25
 49
0.25
 49
-0.25
  0
LTYPE
  5
411
  2
DASHED
 70
0
  3
Dashed __ __ __ __ __
 72
65
 73
2
 40
0.75
 49
0.5
 49
-0.25
  0
LTYPE
  5
43B
  2
DOTTED
 70
0
  3
Dotted .  .  .  .
 72
65
 73
2
 40
0.2
 49
0.0
 49
-0.2
  0
ENDTAB
  0
TABLE
  2
STYLE
  70
4
  0
STYLE
  2
KICAD
  70
0
  40
0
  41
1
  42
1
  50
0
  71
0
  3
isocp.shx
  0
STYLE
  2
KICADB
  70
0
  40
0
  41
1
  42
1
  50
0
  71
0
  3
isocp.shx
  0
STYLE
  2
KICADI
  70
0
  40
0
  41
1
  42
1
  50
15
  71
0
  3
isocp.shx
  0
STYLE
  2
KICADBI
  70
0
  40
0
  41
1
  42
1
  50
15
  71
0
  3
isocp.shx
  0
ENDTAB
  0
TABLE
  2
LAYER
  70
1
  0
LAYER
  2
BLACK
  70
0
  62
7
  6
CONTINUOUS
  0
ENDTAB
  0
ENDSEC
  0
SECTION
  2
ENTITIES
0
LINE
8
BLACK
6
CONTINUOUS
10
0.3280185826771653
20
0.652282283464567
11
0.3312117322834646
21
0.6501487007874016
0
LINE
8
BLACK
6
CONTINUOUS
10
0.3312117322834646
20
0.6501487007874016
11
0.3333453149606299
21
0.6469555511811024
0
LINE
8
BLACK
6
CONTINUOUS
10
0.3333453149606299
20
0.6469555511811024
11
0.3340945275590551
21
0.6431889763779527
0
LINE
8
BLACK
6
CONTINUOUS
10
0.3340945275590551
20
0.6431889763779527
11
0.3340945275590551
21
0.623503937007874
0
LINE
8
BLACK
6
CONTINUOUS
10
0.3340945275590551
20
0.623503937007874
11
0.3333453149606299
21
0.6197373622047244
0
LINE
8
BLACK
6
CONTINUOUS
10
0.3333453149606299
20
0.6197373622047244
11
0.3312117322834646
21
0.6165442125984252
0
LINE
8
BLACK
6
CONTINUOUS
10
0.3312117322834646
20
0.6165442125984252
11
0.3280185826771653
21
0.6144106299212598
0
LINE
8
BLACK
6
CONTINUOUS
10
0.3280185826771653
20
0.6144106299212598
11
0.3242520078740158
21
0.6136614173228346
0
LINE
8
BLACK
6
CONTINUOUS
10
0.3242520078740158
20
0.6136614173228346
11
0.2376378346456693
21
0.6136614173228346
0
LINE
8
BLACK
6
CONTINUOUS
10
0.2376378346456693
20
0.6136614173228346
11
0.2338712598425197
21
0.6144106299212598
0
LINE
8
BLACK
6
CONTINUOUS
10
0.2338712598425197
20
0.6144106299212598
11
0.2306781102362205
21
0.6165442125984252
0
LINE
8
BLACK
6
CONTINUOUS
10
0.2306781102362205
20
0.6165442125984252
11
0.2285445275590551
21
0.6197373622047244
0
LINE
8
BLACK
6
CONTINUOUS
10
0.2285445275590551
20
0.6197373622047244
11
0.2277953149606299
21
0.623503937007874
0
LINE
8
BLACK
6
CONTINUOUS
10
0.2277953149606299
20
0.623503937007874
11
0.2277953149606299
21
0.6431889763779527
0
LINE
8
BLACK
6
CONTINUOUS
10
0.2277953149606299
20
0.6431889763779527
11
0.2285445275590551
21
0.6469555511811024
0
LINE
8
BLACK
6
CONTINUOUS
10
0.2285445275590551
20
0.6469555511811024
11
0.2306781102362205
21
0.6501487007874016
0
LINE
8
BLACK
6
CONTINUOUS
10
0.2306781102362205
20
0.6501487007874016
11
0.2338712598425197
21
0.652282283464567
0
LINE
8
BLACK
6
CONTINUOUS
10
0.2338712598425197
20
0.652282283464567
11
0.2376378346456693
21
0.6530314960629922
0
LINE
8
BLACK
6
CONTINUOUS
10
0.2376378346456693
20
0.6530314960629922
11
0.3242520078740158
21
0.6530314960629922
0
LINE
8
BLACK
6
CONTINUOUS
10
0.3242520078740158
20
0.6530314960629922
11
0.3280185826771653
21
0.652282283464567
0
LINE
8
BLACK
6
CONTINUOUS
10
0.9661287401574803
20
0.652282283464567
11
0.9693218897637795
21
0.6501487007874016
0
LINE
8
BLACK
6
CONTINUOUS
10
0.9693218897637795
20
0.6501487007874016
11
0.9714554724409449
21
0.6469555511811024
0
LINE
8
BLACK
6
CONTINUOUS
10
0.9714554724409449
20
0.6469555511811024
11
0.9722046850393701
21
0.6431889763779527
0
LINE
8
BLACK
6
CONTINUOUS
10
0.9722046850393701
20
0.6431889763779527
11
0.9722046850393701
21
0.623503937007874
0
LINE
8
BLACK
6
CONTINUOUS
10
0.9722046850393701
20
0.623503937007874
11
0.9714554724409449
21
0.6197373622047244
0
LINE
8
BLACK
6
CONTINUOUS
10
0.9714554724409449
20
0.6197373622047244
11
0.9693218897637795
21
0.6165442125984252
0
LINE
8
BLACK
6
CONTINUOUS
10
0.9693218897637795
20
0.6165442125984252
11
0.9661287401574803
21
0.6144106299212598
0
LINE
8
BLACK
6
CONTINUOUS
10
0.9661287401574803
20
0.6144106299212598
11
0.9623621653543307
21
0.6136614173228346
0
LINE
8
BLACK
6
CONTINUOUS
10
0.9623621653543307
20
0.6136614173228346
11
0.8757479921259842
21
0.6136614173228346
0
LINE
8
BLACK
6
CONTINUOUS
10
0.8757479921259842
20
0.6136614173228346
11
0.8719814173228346
21
0.6144106299212598
0
LINE
8
BLACK
6
CONTINUOUS
10
0.8719814173228346
20
0.6144106299212598
11
0.8687882677165354
21
0.6165442125984252
0
LINE
8
BLACK
6
CONTINUOUS
10
0.8687882677165354
20
0.6165442125984252
11
0.86665468503937
21
0.6197373622047244
0
LINE
8
BLACK
6
CONTINUOUS
10
0.86665468503937
20
0.6197373622047244
11
0.8659054724409448
21
0.623503937007874
0
LINE
8
BLACK
6
CONTINUOUS
10
0.8659054724409448
20
0.623503937007874
11
0.8659054724409448
21
0.6431889763779527
0
LINE
8
BLACK
6
CONTINUOUS
10
0.8659054724409448
20
0.6431889763779527
11
0.86665468503937
21
0.6469555511811024
0
LINE
8
BLACK
6
CONTINUOUS
10
0.86665468503937
20
0.6469555511811024
11
0.8687882677165354
21
0.6501487007874016
0
LINE
8
BLACK
6
CONTINUOUS
10
0.8687882677165354
20
0.6501487007874016
11
0.8719814173228346
21
0.652282283464567
0
LINE
8
BLACK
6
CONTINUOUS
10
0.8719814173228346
20
0.652282283464567
11
0.8757479921259842
21
0.6530314960629922
0
LINE
8
BLACK
6
CONTINUOUS
10
0.8757479921259842
20
0.6530314960629922
11
0.9623621653543307
21
0.6530314960629922
0
LINE
8
BLACK
6
CONTINUOUS
10
0.9623621653543307
20
0.6530314960629922
11
0.9661287401574803
21
0.652282283464567
0
LINE
8
BLACK
6
CONTINUOUS
10
0.436748188976378
20
0.7175425984251969
11
0.4386640551181102
21
0.7162624409448819
0
LINE
8
BLACK
6
CONTINUOUS
10
0.4386640551181102
20
0.7162624409448819
11
0.4399442125984252
21
0.7143465748031496
0
LINE
8
BLACK
6
CONTINUOUS
10
0.4399442125984252
20
0.7143465748031496
11
0.4403937401574803
21
0.7120866141732284
0
LINE
8
BLACK
6
CONTINUOUS
10
0.4403937401574803
20
0.7120866141732284
11
0.4403937401574803
21
0.700275590551181
0
LINE
8
BLACK
6
CONTINUOUS
10
0.4403937401574803
20
0.700275590551181
11
0.4399442125984252
21
0.6980156299212599
0
LINE
8
BLACK
6
CONTINUOUS
10
0.4399442125984252
20
0.6980156299212599
11
0.4386640551181102
21
0.6960997637795275
0
LINE
8
BLACK
6
CONTINUOUS
10
0.4386640551181102
20
0.6960997637795275
11
0.436748188976378
21
0.6948196062992126
0
LINE
8
BLACK
6
CONTINUOUS
10
0.436748188976378
20
0.6948196062992126
11
0.4344882283464567
21
0.6943700787401574
0
LINE
8
BLACK
6
CONTINUOUS
10
0.4344882283464567
20
0.6943700787401574
11
0.3793701181102362
21
0.6943700787401574
0
LINE
8
BLACK
6
CONTINUOUS
10
0.3793701181102362
20
0.6943700787401574
11
0.377110157480315
21
0.6948196062992126
0
LINE
8
BLACK
6
CONTINUOUS
10
0.377110157480315
20
0.6948196062992126
11
0.3751942913385827
21
0.6960997637795275
0
LINE
8
BLACK
6
CONTINUOUS
10
0.3751942913385827
20
0.6960997637795275
11
0.3739141338582677
21
0.6980156299212599
0
LINE
8
BLACK
6
CONTINUOUS
10
0.3739141338582677
20
0.6980156299212599
11
0.3734646062992126
21
0.700275590551181
0
LINE
8
BLACK
6
CONTINUOUS
10
0.3734646062992126
20
0.700275590551181
11
0.3734646062992126
21
0.7120866141732284
0
LINE
8
BLACK
6
CONTINUOUS
10
0.3734646062992126
20
0.7120866141732284
11
0.3739141338582677
21
0.7143465748031496
0
LINE
8
BLACK
6
CONTINUOUS
10
0.3739141338582677
20
0.7143465748031496
11
0.3751942913385827
21
0.7162624409448819
0
LINE
8
BLACK
6
CONTINUOUS
10
0.3751942913385827
20
0.7162624409448819
11
0.377110157480315
21
0.7175425984251969
0
LINE
8
BLACK
6
CONTINUOUS
10
0.377110157480315
20
0.7175425984251969
11
0.3793701181102362
21
0.717992125984252
0
LINE
8
BLACK
6
CONTINUOUS
10
0.3793701181102362
20
0.717992125984252
11
0.4344882283464567
21
0.717992125984252
0
LINE
8
BLACK
6
CONTINUOUS
10
0.4344882283464567
20
0.717992125984252
11
0.436748188976378
21
0.7175425984251969
0
LINE
8
BLACK
6
CONTINUOUS
10
0.822889842519685
20
0.7175425984251969
11
0.8248057086614173
21
0.7162624409448819
0
LINE
8
BLACK
6
CONTINUOUS
10
0.8248057086614173
20
0.7162624409448819
11
0.8260858661417323
21
0.7143465748031496
0
LINE
8
BLACK
6
CONTINUOUS
10
0.8260858661417323
20
0.7143465748031496
11
0.8265353937007874
21
0.7120866141732284
0
LINE
8
BLACK
6
CONTINUOUS
10
0.8265353937007874
20
0.7120866141732284
11
0.8265353937007874
21
0.700275590551181
0
LINE
8
BLACK
6
CONTINUOUS
10
0.8265353937007874
20
0.700275590551181
11
0.8260858661417323
21
0.6980156299212599
0
LINE
8
BLACK
6
CONTINUOUS
10
0.8260858661417323
20
0.6980156299212599
11
0.8248057086614173
21
0.6960997637795275
0
LINE
8
BLACK
6
CONTINUOUS
10
0.8248057086614173
20
0.6960997637795275
11
0.822889842519685
21
0.6948196062992126
0
LINE
8
BLACK
6
CONTINUOUS
10
0.822889842519685
20
0.6948196062992126
11
0.8206298818897637
21
0.6943700787401574
0
LINE
8
BLACK
6
CONTINUOUS
10
0.8206298818897637
20
0.6943700787401574
11
0.7655117716535433
21
0.6943700787401574
0
LINE
8
BLACK
6
CONTINUOUS
10
0.7655117716535433
20
0.6943700787401574
11
0.7632518110236221
21
0.6948196062992126
0
LINE
8
BLACK
6
CONTINUOUS
10
0.7632518110236221
20
0.6948196062992126
11
0.7613359448818897
21
0.6960997637795275
0
LINE
8
BLACK
6
CONTINUOUS
10
0.7613359448818897
20
0.6960997637795275
11
0.7600557874015748
21
0.6980156299212599
0
LINE
8
BLACK
6
CONTINUOUS
10
0.7600557874015748
20
0.6980156299212599
11
0.7596062598425196
21
0.700275590551181
0
LINE
8
BLACK
6
CONTINUOUS
10
0.7596062598425196
20
0.700275590551181
11
0.7596062598425196
21
0.7120866141732284
0
LINE
8
BLACK
6
CONTINUOUS
10
0.7596062598425196
20
0.7120866141732284
11
0.7600557874015748
21
0.7143465748031496
0
LINE
8
BLACK
6
CONTINUOUS
10
0.7600557874015748
20
0.7143465748031496
11
0.7613359448818897
21
0.7162624409448819
0
LINE
8
BLACK
6
CONTINUOUS
10
0.7613359448818897
20
0.7162624409448819
11
0.7632518110236221
21
0.7175425984251969
0
LINE
8
BLACK
6
CONTINUOUS
10
0.7632518110236221
20
0.7175425984251969
11
0.7655117716535433
21
0.717992125984252
0
LINE
8
BLACK
6
CONTINUOUS
10
0.7655117716535433
20
0.717992125984252
11
0.8206298818897637
21
0.717992125984252
0
LINE
8
BLACK
6
CONTINUOUS
10
0.8206298818897637
20
0.717992125984252
11
0.822889842519685
21
0.7175425984251969
0
LINE
8
BLACK
6
CONTINUOUS
10
0.436748188976378
20
0.7667551968503937
11
0.4386640551181102
21
0.7654750393700788
0
LINE
8
BLACK
6
CONTINUOUS
10
0.4386640551181102
20
0.7654750393700788
11
0.4399442125984252
21
0.7635591732283464
0
LINE
8
BLACK
6
CONTINUOUS
10
0.4399442125984252
20
0.7635591732283464
11
0.4403937401574803
21
0.7612992125984251
0
LINE
8
BLACK
6
CONTINUOUS
10
0.4403937401574803
20
0.7612992125984251
11
0.4403937401574803
21
0.7494881889763779
0
LINE
8
BLACK
6
CONTINUOUS
10
0.4403937401574803
20
0.7494881889763779
11
0.4399442125984252
21
0.7472282283464566
0
LINE
8
BLACK
6
CONTINUOUS
10
0.4399442125984252
20
0.7472282283464566
11
0.4386640551181102
21
0.7453123622047244
0
LINE
8
BLACK
6
CONTINUOUS
10
0.4386640551181102
20
0.7453123622047244
11
0.436748188976378
21
0.7440322047244095
0
LINE
8
BLACK
6
CONTINUOUS
10
0.436748188976378
20
0.7440322047244095
11
0.4344882283464567
21
0.7435826771653543
0
LINE
8
BLACK
6
CONTINUOUS
10
0.4344882283464567
20
0.7435826771653543
11
0.3793701181102362
21
0.7435826771653543
0
LINE
8
BLACK
6
CONTINUOUS
10
0.3793701181102362
20
0.7435826771653543
11
0.377110157480315
21
0.7440322047244095
0
LINE
8
BLACK
6
CONTINUOUS
10
0.377110157480315
20
0.7440322047244095
11
0.3751942913385827
21
0.7453123622047244
0
LINE
8
BLACK
6
CONTINUOUS
10
0.3751942913385827
20
0.7453123622047244
11
0.3739141338582677
21
0.7472282283464566
0
LINE
8
BLACK
6
CONTINUOUS
10
0.3739141338582677
20
0.7472282283464566
11
0.3734646062992126
21
0.7494881889763779
0
LINE
8
BLACK
6
CONTINUOUS
10
0.3734646062992126
20
0.7494881889763779
11
0.3734646062992126
21
0.7612992125984251
0
LINE
8
BLACK
6
CONTINUOUS
10
0.3734646062992126
20
0.7612992125984251
11
0.3739141338582677
21
0.7635591732283464
0
LINE
8
BLACK
6
CONTINUOUS
10
0.3739141338582677
20
0.7635591732283464
11
0.3751942913385827
21
0.7654750393700788
0
LINE
8
BLACK
6
CONTINUOUS
10
0.3751942913385827
20
0.7654750393700788
11
0.377110157480315
21
0.7667551968503937
0
LINE
8
BLACK
6
CONTINUOUS
10
0.377110157480315
20
0.7667551968503937
11
0.3793701181102362
21
0.7672047244094488
0
LINE
8
BLACK
6
CONTINUOUS
10
0.3793701181102362
20
0.7672047244094488
11
0.4344882283464567
21
0.7672047244094488
0
LINE
8
BLACK
6
CONTINUOUS
10
0.4344882283464567
20
0.7672047244094488
11
0.436748188976378
21
0.7667551968503937
0
LINE
8
BLACK
6
CONTINUOUS
10
0.822889842519685
20
0.7667551968503937
11
0.8248057086614173
21
0.7654750393700788
0
LINE
8
BLACK
6
CONTINUOUS
10
0.8248057086614173
20
0.7654750393700788
11
0.8260858661417323
21
0.7635591732283464
0
LINE
8
BLACK
6
CONTINUOUS
10
0.8260858661417323
20
0.7635591732283464
11
0.8265353937007874
21
0.7612992125984251
0
LINE
8
BLACK
6
CONTINUOUS
10
0.8265353937007874
20
0.7612992125984251
11
0.8265353937007874
21
0.7494881889763779
0
LINE
8
BLACK
6
CONTINUOUS
10
0.8265353937007874
20
0.7494881889763779
11
0.8260858661417323
21
0.7472282283464566
0
LINE
8
BLACK
6
CONTINUOUS
10
0.8260858661417323
20
0.7472282283464566
11
0.8248057086614173
21
0.7453123622047244
0
LINE
8
BLACK
6
CONTINUOUS
10
0.8248057086614173
20
0.7453123622047244
11
0.822889842519685
21
0.7440322047244095
0
LINE
8
BLACK
6
CONTINUOUS
10
0.822889842519685
20
0.7440322047244095
11
0.8206298818897637
21
0.7435826771653543
0
LINE
8
BLACK
6
CONTINUOUS
10
0.8206298818897637
20
0.7435826771653543
11
0.7655117716535433
21
0.7435826771653543
0
LINE
8
BLACK
6
CONTINUOUS
10
0.7655117716535433
20
0.7435826771653543
11
0.7632518110236221
21
0.7440322047244095
0
LINE
8
BLACK
6
CONTINUOUS
10
0.7632518110236221
20
0.7440322047244095
11
0.7613359448818897
21
0.7453123622047244
0
LINE
8
BLACK
6
CONTINUOUS
10
0.7613359448818897
20
0.7453123622047244
11
0.7600557874015748
21
0.7472282283464566
0
LINE
8
BLACK
6
CONTINUOUS
10
0.7600557874015748
20
0.7472282283464566
11
0.7596062598425196
21
0.7494881889763779
0
LINE
8
BLACK
6
CONTINUOUS
10
0.7596062598425196
20
0.7494881889763779
11
0.7596062598425196
21
0.7612992125984251
0
LINE
8
BLACK
6
CONTINUOUS
10
0.7596062598425196
20
0.7612992125984251
11
0.7600557874015748
21
0.7635591732283464
0
LINE
8
BLACK
6
CONTINUOUS
10
0.7600557874015748
20
0.7635591732283464
11
0.7613359448818897
21
0.7654750393700788
0
LINE
8
BLACK
6
CONTINUOUS
10
0.7613359448818897
20
0.7654750393700788
11
0.7632518110236221
21
0.7667551968503937
0
LINE
8
BLACK
6
CONTINUOUS
10
0.7632518110236221
20
0.7667551968503937
11
0.7655117716535433
21
0.7672047244094488
0
LINE
8
BLACK
6
CONTINUOUS
10
0.7655117716535433
20
0.7672047244094488
11
0.8206298818897637
21
0.7672047244094488
0
LINE
8
BLACK
6
CONTINUOUS
10
0.8206298818897637
20
0.7672047244094488
11
0.822889842519685
21
0.7667551968503937
0
LINE
8
BLACK
6
CONTINUOUS
10
0.436748188976378
20
0.8159677952755905
11
0.4386640551181102
21
0.8146876377952755
0
LINE
8
BLACK
6
CONTINUOUS
10
0.4386640551181102
20
0.8146876377952755
11
0.4399442125984252
21
0.8127717716535433
0
LINE
8
BLACK
6
CONTINUOUS
10
0.4399442125984252
20
0.8127717716535433
11
0.4403937401574803
21
0.810511811023622
0
LINE
8
BLACK
6
CONTINUOUS
10
0.4403937401574803
20
0.810511811023622
11
0.4403937401574803
21
0.7987007874015748
0
LINE
8
BLACK
6
CONTINUOUS
10
0.4403937401574803
20
0.7987007874015748
11
0.4399442125984252
21
0.7964408267716535
0
LINE
8
BLACK
6
CONTINUOUS
10
0.4399442125984252
20
0.7964408267716535
11
0.4386640551181102
21
0.7945249606299213
0
LINE
8
BLACK
6
CONTINUOUS
10
0.4386640551181102
20
0.7945249606299213
11
0.436748188976378
21
0.7932448031496063
0
LINE
8
BLACK
6
CONTINUOUS
10
0.436748188976378
20
0.7932448031496063
11
0.4344882283464567
21
0.7927952755905512
0
LINE
8
BLACK
6
CONTINUOUS
10
0.4344882283464567
20
0.7927952755905512
11
0.3793701181102362
21
0.7927952755905512
0
LINE
8
BLACK
6
CONTINUOUS
10
0.3793701181102362
20
0.7927952755905512
11
0.377110157480315
21
0.7932448031496063
0
LINE
8
BLACK
6
CONTINUOUS
10
0.377110157480315
20
0.7932448031496063
11
0.3751942913385827
21
0.7945249606299213
0
LINE
8
BLACK
6
CONTINUOUS
10
0.3751942913385827
20
0.7945249606299213
11
0.3739141338582677
21
0.7964408267716535
0
LINE
8
BLACK
6
CONTINUOUS
10
0.3739141338582677
20
0.7964408267716535
11
0.3734646062992126
21
0.7987007874015748
0
LINE
8
BLACK
6
CONTINUOUS
10
0.3734646062992126
20
0.7987007874015748
11
0.3734646062992126
21
0.810511811023622
0
LINE
8
BLACK
6
CONTINUOUS
10
0.3734646062992126
20
0.810511811023622
11
0.3739141338582677
21
0.8127717716535433
0
LINE
8
BLACK
6
CONTINUOUS
10
0.3739141338582677
20
0.8127717716535433
11
0.3751942913385827
21
0.8146876377952755
0
LINE
8
BLACK
6
CONTINUOUS
10
0.3751942913385827
20
0.8146876377952755
11
0.377110157480315
21
0.8159677952755905
0
LINE
8
BLACK
6
CONTINUOUS
10
0.377110157480315
20
0.8159677952755905
11
0.3793701181102362
21
0.8164173228346456
0
LINE
8
BLACK
6
CONTINUOUS
10
0.3793701181102362
20
0.8164173228346456
11
0.4344882283464567
21
0.8164173228346456
0
LINE
8
BLACK
6
CONTINUOUS
10
0.4344882283464567
20
0.8164173228346456
11
0.436748188976378
21
0.8159677952755905
0
LINE
8
BLACK
6
CONTINUOUS
10
0.822889842519685
20
0.8159677952755905
11
0.8248057086614173
21
0.8146876377952755
0
LINE
8
BLACK
6
CONTINUOUS
10
0.8248057086614173
20
0.8146876377952755
11
0.8260858661417323
21
0.8127717716535433
0
LINE
8
BLACK
6
CONTINUOUS
10
0.8260858661417323
20
0.8127717716535433
11
0.8265353937007874
21
0.810511811023622
0
LINE
8
BLACK
6
CONTINUOUS
10
0.8265353937007874
20
0.810511811023622
11
0.8265353937007874
21
0.7987007874015748
0
LINE
8
BLACK
6
CONTINUOUS
10
0.8265353937007874
20
0.7987007874015748
11
0.8260858661417323
21
0.7964408267716535
0
LINE
8
BLACK
6
CONTINUOUS
10
0.8260858661417323
20
0.7964408267716535
11
0.8248057086614173
21
0.7945249606299213
0
LINE
8
BLACK
6
CONTINUOUS
10
0.8248057086614173
20
0.7945249606299213
11
0.822889842519685
21
0.7932448031496063
0
LINE
8
BLACK
6
CONTINUOUS
10
0.822889842519685
20
0.7932448031496063
11
0.8206298818897637
21
0.7927952755905512
0
LINE
8
BLACK
6
CONTINUOUS
10
0.8206298818897637
20
0.7927952755905512
11
0.7655117716535433
21
0.7927952755905512
0
LINE
8
BLACK
6
CONTINUOUS
10
0.7655117716535433
20
0.7927952755905512
11
0.7632518110236221
21
0.7932448031496063
0
LINE
8
BLACK
6
CONTINUOUS
10
0.7632518110236221
20
0.7932448031496063
11
0.7613359448818897
21
0.7945249606299213
0
LINE
8
BLACK
6
CONTINUOUS
10
0.7613359448818897
20
0.7945249606299213
11
0.7600557874015748
21
0.7964408267716535
0
LINE
8
BLACK
6
CONTINUOUS
10
0.7600557874015748
20
0.7964408267716535
11
0.7596062598425196
21
0.7987007874015748
0
LINE
8
BLACK
6
CONTINUOUS
10
0.7596062598425196
20
0.7987007874015748
11
0.7596062598425196
21
0.810511811023622
0
LINE
8
BLACK
6
CONTINUOUS
10
0.7596062598425196
20
0.810511811023622
11
0.7600557874015748
21
0.8127717716535433
0
LINE
8
BLACK
6
CONTINUOUS
10
0.7600557874015748
20
0.8127717716535433
11
0.7613359448818897
21
0.8146876377952755
0
LINE
8
BLACK
6
CONTINUOUS
10
0.7613359448818897
20
0.8146876377952755
11
0.7632518110236221
21
0.8159677952755905
0
LINE
8
BLACK
6
CONTINUOUS
10
0.7632518110236221
20
0.8159677952755905
11
0.7655117716535433
21
0.8164173228346456
0
LINE
8
BLACK
6
CONTINUOUS
10
0.7655117716535433
20
0.8164173228346456
11
0.8206298818897637
21
0.8164173228346456
0
LINE
8
BLACK
6
CONTINUOUS
10
0.8206298818897637
20
0.8164173228346456
11
0.822889842519685
21
0.8159677952755905
0
LINE
8
BLACK
6
CONTINUOUS
10
0.436748188976378
20
0.8651803937007874
11
0.4386640551181102
21
0.8639002362204724
0
LINE
8
BLACK
6
CONTINUOUS
10
0.4386640551181102
20
0.8639002362204724
11
0.4399442125984252
21
0.8619843700787402
0
LINE
8
BLACK
6
CONTINUOUS
10
0.4399442125984252
20
0.8619843700787402
11
0.4403937401574803
21
0.8597244094488189
0
LINE
8
BLACK
6
CONTINUOUS
10
0.4403937401574803
20
0.8597244094488189
11
0.4403937401574803
21
0.8479133858267717
0
LINE
8
BLACK
6
CONTINUOUS
10
0.4403937401574803
20
0.8479133858267717
11
0.4399442125984252
21
0.8456534251968504
0
LINE
8
BLACK
6
CONTINUOUS
10
0.4399442125984252
20
0.8456534251968504
11
0.4386640551181102
21
0.843737559055118
0
LINE
8
BLACK
6
CONTINUOUS
10
0.4386640551181102
20
0.843737559055118
11
0.436748188976378
21
0.8424574015748031
0
LINE
8
BLACK
6
CONTINUOUS
10
0.436748188976378
20
0.8424574015748031
11
0.4344882283464567
21
0.8420078740157481
0
LINE
8
BLACK
6
CONTINUOUS
10
0.4344882283464567
20
0.8420078740157481
11
0.3793701181102362
21
0.8420078740157481
0
LINE
8
BLACK
6
CONTINUOUS
10
0.3793701181102362
20
0.8420078740157481
11
0.377110157480315
21
0.8424574015748031
0
LINE
8
BLACK
6
CONTINUOUS
10
0.377110157480315
20
0.8424574015748031
11
0.3751942913385827
21
0.843737559055118
0
LINE
8
BLACK
6
CONTINUOUS
10
0.3751942913385827
20
0.843737559055118
11
0.3739141338582677
21
0.8456534251968504
0
LINE
8
BLACK
6
CONTINUOUS
10
0.3739141338582677
20
0.8456534251968504
11
0.3734646062992126
21
0.8479133858267717
0
LINE
8
BLACK
6
CONTINUOUS
10
0.3734646062992126
20
0.8479133858267717
11
0.3734646062992126
21
0.8597244094488189
0
LINE
8
BLACK
6
CONTINUOUS
10
0.3734646062992126
20
0.8597244094488189
11
0.3739141338582677
21
0.8619843700787402
0
LINE
8
BLACK
6
CONTINUOUS
10
0.3739141338582677
20
0.8619843700787402
11
0.3751942913385827
21
0.8639002362204724
0
LINE
8
BLACK
6
CONTINUOUS
10
0.3751942913385827
20
0.8639002362204724
11
0.377110157480315
21
0.8651803937007874
0
LINE
8
BLACK
6
CONTINUOUS
10
0.377110157480315
20
0.8651803937007874
11
0.3793701181102362
21
0.8656299212598425
0
LINE
8
BLACK
6
CONTINUOUS
10
0.3793701181102362
20
0.8656299212598425
11
0.4344882283464567
21
0.8656299212598425
0
LINE
8
BLACK
6
CONTINUOUS
10
0.4344882283464567
20
0.8656299212598425
11
0.436748188976378
21
0.8651803937007874
0
LINE
8
BLACK
6
CONTINUOUS
10
0.822889842519685
20
0.8651803937007874
11
0.8248057086614173
21
0.8639002362204724
0
LINE
8
BLACK
6
CONTINUOUS
10
0.8248057086614173
20
0.8639002362204724
11
0.8260858661417323
21
0.8619843700787402
0
LINE
8
BLACK
6
CONTINUOUS
10
0.8260858661417323
20
0.8619843700787402
11
0.8265353937007874
21
0.8597244094488189
0
LINE
8
BLACK
6
CONTINUOUS
10
0.8265353937007874
20
0.8597244094488189
11
0.8265353937007874
21
0.8479133858267717
0
LINE
8
BLACK
6
CONTINUOUS
10
0.8265353937007874
20
0.8479133858267717
11
0.8260858661417323
21
0.8456534251968504
0
LINE
8
BLACK
6
CONTINUOUS
10
0.8260858661417323
20
0.8456534251968504
11
0.8248057086614173
21
0.843737559055118
0
LINE
8
BLACK
6
CONTINUOUS
10
0.8248057086614173
20
0.843737559055118
11
0.822889842519685
21
0.8424574015748031
0
LINE
8
BLACK
6
CONTINUOUS
10
0.822889842519685
20
0.8424574015748031
11
0.8206298818897637
21
0.8420078740157481
0
LINE
8
BLACK
6
CONTINUOUS
10
0.8206298818897637
20
0.8420078740157481
11
0.7655117716535433
21
0.8420078740157481
0
LINE
8
BLACK
6
CONTINUOUS
10
0.7655117716535433
20
0.8420078740157481
11
0.7632518110236221
21
0.8424574015748031
0
LINE
8
BLACK
6
CONTINUOUS
10
0.7632518110236221
20
0.8424574015748031
11
0.7613359448818897
21
0.843737559055118
0
LINE
8
BLACK
6
CONTINUOUS
10
0.7613359448818897
20
0.843737559055118
11
0.7600557874015748
21
0.8456534251968504
0
LINE
8
BLACK
6
CONTINUOUS
10
0.7600557874015748
20
0.8456534251968504
11
0.7596062598425196
21
0.8479133858267717
0
LINE
8
BLACK
6
CONTINUOUS
10
0.7596062598425196
20
0.8479133858267717
11
0.7596062598425196
21
0.8597244094488189
0
LINE
8
BLACK
6
CONTINUOUS
10
0.7596062598425196
20
0.8597244094488189
11
0.7600557874015748
21
0.8619843700787402
0
LINE
8
BLACK
6
CONTINUOUS
10
0.7600557874015748
20
0.8619843700787402
11
0.7613359448818897
21
0.8639002362204724
0
LINE
8
BLACK
6
CONTINUOUS
10
0.7613359448818897
20
0.8639002362204724
11
0.7632518110236221
21
0.8651803937007874
0
LINE
8
BLACK
6
CONTINUOUS
10
0.7632518110236221
20
0.8651803937007874
11
0.7655117716535433
21
0.8656299212598425
0
LINE
8
BLACK
6
CONTINUOUS
10
0.7655117716535433
20
0.8656299212598425
11
0.8206298818897637
21
0.8656299212598425
0
LINE
8
BLACK
6
CONTINUOUS
10
0.8206298818897637
20
0.8656299212598425
11
0.822889842519685
21
0.8651803937007874
0
LINE
8
BLACK
6
CONTINUOUS
10
0.3280185826771653
20
0.9455893700787401
11
0.3312117322834646
21
0.9434557874015748
0
LINE
8
BLACK
6
CONTINUOUS
10
0.3312117322834646
20
0.9434557874015748
11
0.3333453149606299
21
0.9402626377952755
0
LINE
8
BLACK
6
CONTINUOUS
10
0.3333453149606299
20
0.9402626377952755
11
0.3340945275590551
21
0.936496062992126
0
LINE
8
BLACK
6
CONTINUOUS
10
0.3340945275590551
20
0.936496062992126
11
0.3340945275590551
21
0.9168110236220472
0
LINE
8
BLACK
6
CONTINUOUS
10
0.3340945275590551
20
0.9168110236220472
11
0.3333453149606299
21
0.9130444488188976
0
LINE
8
BLACK
6
CONTINUOUS
10
0.3333453149606299
20
0.9130444488188976
11
0.3312117322834646
21
0.9098512992125984
0
LINE
8
BLACK
6
CONTINUOUS
10
0.3312117322834646
20
0.9098512992125984
11
0.3280185826771653
21
0.9077177165354331
0
LINE
8
BLACK
6
CONTINUOUS
10
0.3280185826771653
20
0.9077177165354331
11
0.3242520078740158
21
0.9069685039370079
0
LINE
8
BLACK
6
CONTINUOUS
10
0.3242520078740158
20
0.9069685039370079
11
0.2376378346456693
21
0.9069685039370079
0
LINE
8
BLACK
6
CONTINUOUS
10
0.2376378346456693
20
0.9069685039370079
11
0.2338712598425197
21
0.9077177165354331
0
LINE
8
BLACK
6
CONTINUOUS
10
0.2338712598425197
20
0.9077177165354331
11
0.2306781102362205
21
0.9098512992125984
0
LINE
8
BLACK
6
CONTINUOUS
10
0.2306781102362205
20
0.9098512992125984
11
0.2285445275590551
21
0.9130444488188976
0
LINE
8
BLACK
6
CONTINUOUS
10
0.2285445275590551
20
0.9130444488188976
11
0.2277953149606299
21
0.9168110236220472
0
LINE
8
BLACK
6
CONTINUOUS
10
0.2277953149606299
20
0.9168110236220472
11
0.2277953149606299
21
0.936496062992126
0
LINE
8
BLACK
6
CONTINUOUS
10
0.2277953149606299
20
0.936496062992126
11
0.2285445275590551
21
0.9402626377952755
0
LINE
8
BLACK
6
CONTINUOUS
10
0.2285445275590551
20
0.9402626377952755
11
0.2306781102362205
21
0.9434557874015748
0
LINE
8
BLACK
6
CONTINUOUS
10
0.2306781102362205
20
0.9434557874015748
11
0.2338712598425197
21
0.9455893700787401
0
LINE
8
BLACK
6
CONTINUOUS
10
0.2338712598425197
20
0.9455893700787401
11
0.2376378346456693
21
0.9463385826771653
0
LINE
8
BLACK
6
CONTINUOUS
10
0.2376378346456693
20
0.9463385826771653
11
0.3242520078740158
21
0.9463385826771653
0
LINE
8
BLACK
6
CONTINUOUS
10
0.3242520078740158
20
0.9463385826771653
11
0.3280185826771653
21
0.9455893700787401
0
LINE
8
BLACK
6
CONTINUOUS
10
0.9661287401574803
20
0.9455893700787401
11
0.9693218897637795
21
0.9434557874015748
0
LINE
8
BLACK
6
CONTINUOUS
10
0.9693218897637795
20
0.9434557874015748
11
0.9714554724409449
21
0.9402626377952755
0
LINE
8
BLACK
6
CONTINUOUS
10
0.9714554724409449
20
0.9402626377952755
11
0.9722046850393701
21
0.936496062992126
0
LINE
8
BLACK
6
CONTINUOUS
10
0.9722046850393701
20
0.936496062992126
11
0.9722046850393701
21
0.9168110236220472
0
LINE
8
BLACK
6
CONTINUOUS
10
0.9722046850393701
20
0.9168110236220472
11
0.9714554724409449
21
0.9130444488188976
0
LINE
8
BLACK
6
CONTINUOUS
10
0.9714554724409449
20
0.9130444488188976
11
0.9693218897637795
21
0.9098512992125984
0
LINE
8
BLACK
6
CONTINUOUS
10
0.9693218897637795
20
0.9098512992125984
11
0.9661287401574803
21
0.9077177165354331
0
LINE
8
BLACK
6
CONTINUOUS
10
0.9661287401574803
20
0.9077177165354331
11
0.9623621653543307
21
0.9069685039370079
0
LINE
8
BLACK
6
CONTINUOUS
10
0.9623621653543307
20
0.9069685039370079
11
0.8757479921259842
21
0.9069685039370079
0
LINE
8
BLACK
6
CONTINUOUS
10
0.8757479921259842
20
0.9069685039370079
11
0.8719814173228346
21
0.9077177165354331
0
LINE
8
BLACK
6
CONTINUOUS
10
0.8719814173228346
20
0.9077177165354331
11
0.8687882677165354
21
0.9098512992125984
0
LINE
8
BLACK
6
CONTINUOUS
10
0.8687882677165354
20
0.9098512992125984
11
0.86665468503937
21
0.9130444488188976
0
LINE
8
BLACK
6
CONTINUOUS
10
0.86665468503937
20
0.9130444488188976
11
0.8659054724409448
21
0.9168110236220472
0
LINE
8
BLACK
6
CONTINUOUS
10
0.8659054724409448
20
0.9168110236220472
11
0.8659054724409448
21
0.936496062992126
0
LINE
8
BLACK
6
CONTINUOUS
10
0.8659054724409448
20
0.936496062992126
11
0.86665468503937
21
0.9402626377952755
0
LINE
8
BLACK
6
CONTINUOUS
10
0.86665468503937
20
0.9402626377952755
11
0.8687882677165354
21
0.9434557874015748
0
LINE
8
BLACK
6
CONTINUOUS
10
0.8687882677165354
20
0.9434557874015748
11
0.8719814173228346
21
0.9455893700787401
0
LINE
8
BLACK
6
CONTINUOUS
10
0.8719814173228346
20
0.9455893700787401
11
0.8757479921259842
21
0.9463385826771653
0
LINE
8
BLACK
6
CONTINUOUS
10
0.8757479921259842
20
0.9463385826771653
11
0.9623621653543307
21
0.9463385826771653
0
LINE
8
BLACK
6
CONTINUOUS
10
0.9623621653543307
20
0.9463385826771653
11
0.9661287401574803
21
0.9455893700787401
0
LINE
8
BLACK
6
CONTINUOUS
10
0.3280185826771653
20
1.0942822834645669
11
0.3312117322834646
21
1.0921487007874016
0
LINE
8
BLACK
6
CONTINUOUS
10
0.3312117322834646
20
1.0921487007874016
11
0.3333453149606299
21
1.0889555511811024
0
LINE
8
BLACK
6
CONTINUOUS
10
0.3333453149606299
20
1.0889555511811024
11
0.3340945275590551
21
1.0851889763779528
0
LINE
8
BLACK
6
CONTINUOUS
10
0.3340945275590551
20
1.0851889763779528
11
0.3340945275590551
21
1.065503937007874
0
LINE
8
BLACK
6
CONTINUOUS
10
0.3340945275590551
20
1.065503937007874
11
0.3333453149606299
21
1.0617373622047244
0
LINE
8
BLACK
6
CONTINUOUS
10
0.3333453149606299
20
1.0617373622047244
11
0.3312117322834646
21
1.0585442125984252
0
LINE
8
BLACK
6
CONTINUOUS
10
0.3312117322834646
20
1.0585442125984252
11
0.3280185826771653
21
1.0564106299212599
0
LINE
8
BLACK
6
CONTINUOUS
10
0.3280185826771653
20
1.0564106299212599
11
0.3242520078740158
21
1.0556614173228347
0
LINE
8
BLACK
6
CONTINUOUS
10
0.3242520078740158
20
1.0556614173228347
11
0.2376378346456693
21
1.0556614173228347
0
LINE
8
BLACK
6
CONTINUOUS
10
0.2376378346456693
20
1.0556614173228347
11
0.2338712598425197
21
1.0564106299212599
0
LINE
8
BLACK
6
CONTINUOUS
10
0.2338712598425197
20
1.0564106299212599
11
0.2306781102362205
21
1.0585442125984252
0
LINE
8
BLACK
6
CONTINUOUS
10
0.2306781102362205
20
1.0585442125984252
11
0.2285445275590551
21
1.0617373622047244
0
LINE
8
BLACK
6
CONTINUOUS
10
0.2285445275590551
20
1.0617373622047244
11
0.2277953149606299
21
1.065503937007874
0
LINE
8
BLACK
6
CONTINUOUS
10
0.2277953149606299
20
1.065503937007874
11
0.2277953149606299
21
1.0851889763779528
0
LINE
8
BLACK
6
CONTINUOUS
10
0.2277953149606299
20
1.0851889763779528
11
0.2285445275590551
21
1.0889555511811024
0
LINE
8
BLACK
6
CONTINUOUS
10
0.2285445275590551
20
1.0889555511811024
11
0.2306781102362205
21
1.0921487007874016
0
LINE
8
BLACK
6
CONTINUOUS
10
0.2306781102362205
20
1.0921487007874016
11
0.2338712598425197
21
1.0942822834645669
0
LINE
8
BLACK
6
CONTINUOUS
10
0.2338712598425197
20
1.0942822834645669
11
0.2376378346456693
21
1.0950314960629921
0
LINE
8
BLACK
6
CONTINUOUS
10
0.2376378346456693
20
1.0950314960629921
11
0.3242520078740158
21
1.0950314960629921
0
LINE
8
BLACK
6
CONTINUOUS
10
0.3242520078740158
20
1.0950314960629921
11
0.3280185826771653
21
1.0942822834645669
0
LINE
8
BLACK
6
CONTINUOUS
10
0.9661287401574803
20
1.0942822834645669
11
0.9693218897637795
21
1.0921487007874016
0
LINE
8
BLACK
6
CONTINUOUS
10
0.9693218897637795
20
1.0921487007874016
11
0.9714554724409449
21
1.0889555511811024
0
LINE
8
BLACK
6
CONTINUOUS
10
0.9714554724409449
20
1.0889555511811024
11
0.9722046850393701
21
1.0851889763779528
0
LINE
8
BLACK
6
CONTINUOUS
10
0.9722046850393701
20
1.0851889763779528
11
0.9722046850393701
21
1.065503937007874
0
LINE
8
BLACK
6
CONTINUOUS
10
0.9722046850393701
20
1.065503937007874
11
0.9714554724409449
21
1.0617373622047244
0
LINE
8
BLACK
6
CONTINUOUS
10
0.9714554724409449
20
1.0617373622047244
11
0.9693218897637795
21
1.0585442125984252
0
LINE
8
BLACK
6
CONTINUOUS
10
0.9693218897637795
20
1.0585442125984252
11
0.9661287401574803
21
1.0564106299212599
0
LINE
8
BLACK
6
CONTINUOUS
10
0.9661287401574803
20
1.0564106299212599
11
0.9623621653543307
21
1.0556614173228347
0
LINE
8
BLACK
6
CONTINUOUS
10
0.9623621653543307
20
1.0556614173228347
11
0.8757479921259842
21
1.0556614173228347
0
LINE
8
BLACK
6
CONTINUOUS
10
0.8757479921259842
20
1.0556614173228347
11
0.8719814173228346
21
1.0564106299212599
0
LINE
8
BLACK
6
CONTINUOUS
10
0.8719814173228346
20
1.0564106299212599
11
0.8687882677165354
21
1.0585442125984252
0
LINE
8
BLACK
6
CONTINUOUS
10
0.8687882677165354
20
1.0585442125984252
11
0.86665468503937
21
1.0617373622047244
0
LINE
8
BLACK
6
CONTINUOUS
10
0.86665468503937
20
1.0617373622047244
11
0.8659054724409448
21
1.065503937007874
0
LINE
8
BLACK
6
CONTINUOUS
10
0.8659054724409448
20
1.065503937007874
11
0.8659054724409448
21
1.0851889763779528
0
LINE
8
BLACK
6
CONTINUOUS
10
0.8659054724409448
20
1.0851889763779528
11
0.86665468503937
21
1.0889555511811024
0
LINE
8
BLACK
6
CONTINUOUS
10
0.86665468503937
20
1.0889555511811024
11
0.8687882677165354
21
1.0921487007874016
0
LINE
8
BLACK
6
CONTINUOUS
10
0.8687882677165354
20
1.0921487007874016
11
0.8719814173228346
21
1.0942822834645669
0
LINE
8
BLACK
6
CONTINUOUS
10
0.8719814173228346
20
1.0942822834645669
11
0.8757479921259842
21
1.0950314960629921
0
LINE
8
BLACK
6
CONTINUOUS
10
0.8757479921259842
20
1.0950314960629921
11
0.9623621653543307
21
1.0950314960629921
0
LINE
8
BLACK
6
CONTINUOUS
10
0.9623621653543307
20
1.0950314960629921
11
0.9661287401574803
21
1.0942822834645669
0
LINE
8
BLACK
6
CONTINUOUS
10
0.436748188976378
20
1.1595425984251968
11
0.4386640551181102
21
1.1582624409448818
0
LINE
8
BLACK
6
CONTINUOUS
10
0.4386640551181102
20
1.1582624409448818
11
0.4399442125984252
21
1.1563465748031496
0
LINE
8
BLACK
6
CONTINUOUS
10
0.4399442125984252
20
1.1563465748031496
11
0.4403937401574803
21
1.1540866141732282
0
LINE
8
BLACK
6
CONTINUOUS
10
0.4403937401574803
20
1.1540866141732282
11
0.4403937401574803
21
1.142275590551181
0
LINE
8
BLACK
6
CONTINUOUS
10
0.4403937401574803
20
1.142275590551181
11
0.4399442125984252
21
1.1400156299212598
0
LINE
8
BLACK
6
CONTINUOUS
10
0.4399442125984252
20
1.1400156299212598
11
0.4386640551181102
21
1.1380997637795276
0
LINE
8
BLACK
6
CONTINUOUS
10
0.4386640551181102
20
1.1380997637795276
11
0.436748188976378
21
1.1368196062992126
0
LINE
8
BLACK
6
CONTINUOUS
10
0.436748188976378
20
1.1368196062992126
11
0.4344882283464567
21
1.1363700787401574
0
LINE
8
BLACK
6
CONTINUOUS
10
0.4344882283464567
20
1.1363700787401574
11
0.3793701181102362
21
1.1363700787401574
0
LINE
8
BLACK
6
CONTINUOUS
10
0.3793701181102362
20
1.1363700787401574
11
0.377110157480315
21
1.1368196062992126
0
LINE
8
BLACK
6
CONTINUOUS
10
0.377110157480315
20
1.1368196062992126
11
0.3751942913385827
21
1.1380997637795276
0
LINE
8
BLACK
6
CONTINUOUS
10
0.3751942913385827
20
1.1380997637795276
11
0.3739141338582677
21
1.1400156299212598
0
LINE
8
BLACK
6
CONTINUOUS
10
0.3739141338582677
20
1.1400156299212598
11
0.3734646062992126
21
1.142275590551181
0
LINE
8
BLACK
6
CONTINUOUS
10
0.3734646062992126
20
1.142275590551181
11
0.3734646062992126
21
1.1540866141732282
0
LINE
8
BLACK
6
CONTINUOUS
10
0.3734646062992126
20
1.1540866141732282
11
0.3739141338582677
21
1.1563465748031496
0
LINE
8
BLACK
6
CONTINUOUS
10
0.3739141338582677
20
1.1563465748031496
11
0.3751942913385827
21
1.1582624409448818
0
LINE
8
BLACK
6
CONTINUOUS
10
0.3751942913385827
20
1.1582624409448818
11
0.377110157480315
21
1.1595425984251968
0
LINE
8
BLACK
6
CONTINUOUS
10
0.377110157480315
20
1.1595425984251968
11
0.3793701181102362
21
1.1599921259842518
0
LINE
8
BLACK
6
CONTINUOUS
10
0.3793701181102362
20
1.1599921259842518
11
0.4344882283464567
21
1.1599921259842518
0
LINE
8
BLACK
6
CONTINUOUS
10
0.4344882283464567
20
1.1599921259842518
11
0.436748188976378
21
1.1595425984251968
0
LINE
8
BLACK
6
CONTINUOUS
10
0.822889842519685
20
1.1595425984251968
11
0.8248057086614173
21
1.1582624409448818
0
LINE
8
BLACK
6
CONTINUOUS
10
0.8248057086614173
20
1.1582624409448818
11
0.8260858661417323
21
1.1563465748031496
0
LINE
8
BLACK
6
CONTINUOUS
10
0.8260858661417323
20
1.1563465748031496
11
0.8265353937007874
21
1.1540866141732282
0
LINE
8
BLACK
6
CONTINUOUS
10
0.8265353937007874
20
1.1540866141732282
11
0.8265353937007874
21
1.142275590551181
0
LINE
8
BLACK
6
CONTINUOUS
10
0.8265353937007874
20
1.142275590551181
11
0.8260858661417323
21
1.1400156299212598
0
LINE
8
BLACK
6
CONTINUOUS
10
0.8260858661417323
20
1.1400156299212598
11
0.8248057086614173
21
1.1380997637795276
0
LINE
8
BLACK
6
CONTINUOUS
10
0.8248057086614173
20
1.1380997637795276
11
0.822889842519685
21
1.1368196062992126
0
LINE
8
BLACK
6
CONTINUOUS
10
0.822889842519685
20
1.1368196062992126
11
0.8206298818897637
21
1.1363700787401574
0
LINE
8
BLACK
6
CONTINUOUS
10
0.8206298818897637
20
1.1363700787401574
11
0.7655117716535433
21
1.1363700787401574
0
LINE
8
BLACK
6
CONTINUOUS
10
0.7655117716535433
20
1.1363700787401574
11
0.7632518110236221
21
1.1368196062992126
0
LINE
8
BLACK
6
CONTINUOUS
10
0.7632518110236221
20
1.1368196062992126
11
0.7613359448818897
21
1.1380997637795276
0
LINE
8
BLACK
6
CONTINUOUS
10
0.7613359448818897
20
1.1380997637795276
11
0.7600557874015748
21
1.1400156299212598
0
LINE
8
BLACK
6
CONTINUOUS
10
0.7600557874015748
20
1.1400156299212598
11
0.7596062598425196
21
1.142275590551181
0
LINE
8
BLACK
6
CONTINUOUS
10
0.7596062598425196
20
1.142275590551181
11
0.7596062598425196
21
1.1540866141732282
0
LINE
8
BLACK
6
CONTINUOUS
10
0.7596062598425196
20
1.1540866141732282
11
0.7600557874015748
21
1.1563465748031496
0
LINE
8
BLACK
6
CONTINUOUS
10
0.7600557874015748
20
1.1563465748031496
11
0.7613359448818897
21
1.1582624409448818
0
LINE
8
BLACK
6
CONTINUOUS
10
0.7613359448818897
20
1.1582624409448818
11
0.7632518110236221
21
1.1595425984251968
0
LINE
8
BLACK
6
CONTINUOUS
10
0.7632518110236221
20
1.1595425984251968
11
0.7655117716535433
21
1.1599921259842518
0
LINE
8
BLACK
6
CONTINUOUS
10
0.7655117716535433
20
1.1599921259842518
11
0.8206298818897637
21
1.1599921259842518
0
LINE
8
BLACK
6
CONTINUOUS
10
0.8206298818897637
20
1.1599921259842518
11
0.822889842519685
21
1.1595425984251968
0
LINE
8
BLACK
6
CONTINUOUS
10
0.436748188976378
20
1.2087551968503936
11
0.4386640551181102
21
1.2074750393700786
0
LINE
8
BLACK
6
CONTINUOUS
10
0.4386640551181102
20
1.2074750393700786
11
0.4399442125984252
21
1.2055591732283464
0
LINE
8
BLACK
6
CONTINUOUS
10
0.4399442125984252
20
1.2055591732283464
11
0.4403937401574803
21
1.2032992125984252
0
LINE
8
BLACK
6
CONTINUOUS
10
0.4403937401574803
20
1.2032992125984252
11
0.4403937401574803
21
1.191488188976378
0
LINE
8
BLACK
6
CONTINUOUS
10
0.4403937401574803
20
1.191488188976378
11
0.4399442125984252
21
1.1892282283464566
0
LINE
8
BLACK
6
CONTINUOUS
10
0.4399442125984252
20
1.1892282283464566
11
0.4386640551181102
21
1.1873123622047244
0
LINE
8
BLACK
6
CONTINUOUS
10
0.4386640551181102
20
1.1873123622047244
11
0.436748188976378
21
1.1860322047244094
0
LINE
8
BLACK
6
CONTINUOUS
10
0.436748188976378
20
1.1860322047244094
11
0.4344882283464567
21
1.1855826771653544
0
LINE
8
BLACK
6
CONTINUOUS
10
0.4344882283464567
20
1.1855826771653544
11
0.3793701181102362
21
1.1855826771653544
0
LINE
8
BLACK
6
CONTINUOUS
10
0.3793701181102362
20
1.1855826771653544
11
0.377110157480315
21
1.1860322047244094
0
LINE
8
BLACK
6
CONTINUOUS
10
0.377110157480315
20
1.1860322047244094
11
0.3751942913385827
21
1.1873123622047244
0
LINE
8
BLACK
6
CONTINUOUS
10
0.3751942913385827
20
1.1873123622047244
11
0.3739141338582677
21
1.1892282283464566
0
LINE
8
BLACK
6
CONTINUOUS
10
0.3739141338582677
20
1.1892282283464566
11
0.3734646062992126
21
1.191488188976378
0
LINE
8
BLACK
6
CONTINUOUS
10
0.3734646062992126
20
1.191488188976378
11
0.3734646062992126
21
1.2032992125984252
0
LINE
8
BLACK
6
CONTINUOUS
10
0.3734646062992126
20
1.2032992125984252
11
0.3739141338582677
21
1.2055591732283464
0
LINE
8
BLACK
6
CONTINUOUS
10
0.3739141338582677
20
1.2055591732283464
11
0.3751942913385827
21
1.2074750393700786
0
LINE
8
BLACK
6
CONTINUOUS
10
0.3751942913385827
20
1.2074750393700786
11
0.377110157480315
21
1.2087551968503936
0
LINE
8
BLACK
6
CONTINUOUS
10
0.377110157480315
20
1.2087551968503936
11
0.3793701181102362
21
1.2092047244094488
0
LINE
8
BLACK
6
CONTINUOUS
10
0.3793701181102362
20
1.2092047244094488
11
0.4344882283464567
21
1.2092047244094488
0
LINE
8
BLACK
6
CONTINUOUS
10
0.4344882283464567
20
1.2092047244094488
11
0.436748188976378
21
1.2087551968503936
0
LINE
8
BLACK
6
CONTINUOUS
10
0.822889842519685
20
1.2087551968503936
11
0.8248057086614173
21
1.2074750393700786
0
LINE
8
BLACK
6
CONTINUOUS
10
0.8248057086614173
20
1.2074750393700786
11
0.8260858661417323
21
1.2055591732283464
0
LINE
8
BLACK
6
CONTINUOUS
10
0.8260858661417323
20
1.2055591732283464
11
0.8265353937007874
21
1.2032992125984252
0
LINE
8
BLACK
6
CONTINUOUS
10
0.8265353937007874
20
1.2032992125984252
11
0.8265353937007874
21
1.191488188976378
0
LINE
8
BLACK
6
CONTINUOUS
10
0.8265353937007874
20
1.191488188976378
11
0.8260858661417323
21
1.1892282283464566
0
LINE
8
BLACK
6
CONTINUOUS
10
0.8260858661417323
20
1.1892282283464566
11
0.8248057086614173
21
1.1873123622047244
0
LINE
8
BLACK
6
CONTINUOUS
10
0.8248057086614173
20
1.1873123622047244
11
0.822889842519685
21
1.1860322047244094
0
LINE
8
BLACK
6
CONTINUOUS
10
0.822889842519685
20
1.1860322047244094
11
0.8206298818897637
21
1.1855826771653544
0
LINE
8
BLACK
6
CONTINUOUS
10
0.8206298818897637
20
1.1855826771653544
11
0.7655117716535433
21
1.1855826771653544
0
LINE
8
BLACK
6
CONTINUOUS
10
0.7655117716535433
20
1.1855826771653544
11
0.7632518110236221
21
1.1860322047244094
0
LINE
8
BLACK
6
CONTINUOUS
10
0.7632518110236221
20
1.1860322047244094
11
0.7613359448818897
21
1.1873123622047244
0
LINE
8
BLACK
6
CONTINUOUS
10
0.7613359448818897
20
1.1873123622047244
11
0.7600557874015748
21
1.1892282283464566
0
LINE
8
BLACK
6
CONTINUOUS
10
0.7600557874015748
20
1.1892282283464566
11
0.7596062598425196
21
1.191488188976378
0
LINE
8
BLACK
6
CONTINUOUS
10
0.7596062598425196
20
1.191488188976378
11
0.7596062598425196
21
1.2032992125984252
0
LINE
8
BLACK
6
CONTINUOUS
10
0.7596062598425196
20
1.2032992125984252
11
0.7600557874015748
21
1.2055591732283464
0
LINE
8
BLACK
6
CONTINUOUS
10
0.7600557874015748
20
1.2055591732283464
11
0.7613359448818897
21
1.2074750393700786
0
LINE
8
BLACK
6
CONTINUOUS
10
0.7613359448818897
20
1.2074750393700786
11
0.7632518110236221
21
1.2087551968503936
0
LINE
8
BLACK
6
CONTINUOUS
10
0.7632518110236221
20
1.2087551968503936
11
0.7655117716535433
21
1.2092047244094488
0
LINE
8
BLACK
6
CONTINUOUS
10
0.7655117716535433
20
1.2092047244094488
11
0.8206298818897637
21
1.2092047244094488
0
LINE
8
BLACK
6
CONTINUOUS
10
0.8206298818897637
20
1.2092047244094488
11
0.822889842519685
21
1.2087551968503936
0
LINE
8
BLACK
6
CONTINUOUS
10
0.436748188976378
20
1.2579677952755906
11
0.4386640551181102
21
1.2566876377952756
0
LINE
8
BLACK
6
CONTINUOUS
10
0.4386640551181102
20
1.2566876377952756
11
0.4399442125984252
21
1.2547717716535434
0
LINE
8
BLACK
6
CONTINUOUS
10
0.4399442125984252
20
1.2547717716535434
11
0.4403937401574803
21
1.252511811023622
0
LINE
8
BLACK
6
CONTINUOUS
10
0.4403937401574803
20
1.252511811023622
11
0.4403937401574803
21
1.2407007874015747
0
LINE
8
BLACK
6
CONTINUOUS
10
0.4403937401574803
20
1.2407007874015747
11
0.4399442125984252
21
1.2384408267716536
0
LINE
8
BLACK
6
CONTINUOUS
10
0.4399442125984252
20
1.2384408267716536
11
0.4386640551181102
21
1.2365249606299211
0
LINE
8
BLACK
6
CONTINUOUS
10
0.4386640551181102
20
1.2365249606299211
11
0.436748188976378
21
1.2352448031496062
0
LINE
8
BLACK
6
CONTINUOUS
10
0.436748188976378
20
1.2352448031496062
11
0.4344882283464567
21
1.2347952755905511
0
LINE
8
BLACK
6
CONTINUOUS
10
0.4344882283464567
20
1.2347952755905511
11
0.3793701181102362
21
1.2347952755905511
0
LINE
8
BLACK
6
CONTINUOUS
10
0.3793701181102362
20
1.2347952755905511
11
0.377110157480315
21
1.2352448031496062
0
LINE
8
BLACK
6
CONTINUOUS
10
0.377110157480315
20
1.2352448031496062
11
0.3751942913385827
21
1.2365249606299211
0
LINE
8
BLACK
6
CONTINUOUS
10
0.3751942913385827
20
1.2365249606299211
11
0.3739141338582677
21
1.2384408267716536
0
LINE
8
BLACK
6
CONTINUOUS
10
0.3739141338582677
20
1.2384408267716536
11
0.3734646062992126
21
1.2407007874015747
0
LINE
8
BLACK
6
CONTINUOUS
10
0.3734646062992126
20
1.2407007874015747
11
0.3734646062992126
21
1.252511811023622
0
LINE
8
BLACK
6
CONTINUOUS
10
0.3734646062992126
20
1.252511811023622
11
0.3739141338582677
21
1.2547717716535434
0
LINE
8
BLACK
6
CONTINUOUS
10
0.3739141338582677
20
1.2547717716535434
11
0.3751942913385827
21
1.2566876377952756
0
LINE
8
BLACK
6
CONTINUOUS
10
0.3751942913385827
20
1.2566876377952756
11
0.377110157480315
21
1.2579677952755906
0
LINE
8
BLACK
6
CONTINUOUS
10
0.377110157480315
20
1.2579677952755906
11
0.3793701181102362
21
1.2584173228346456
0
LINE
8
BLACK
6
CONTINUOUS
10
0.3793701181102362
20
1.2584173228346456
11
0.4344882283464567
21
1.2584173228346456
0
LINE
8
BLACK
6
CONTINUOUS
10
0.4344882283464567
20
1.2584173228346456
11
0.436748188976378
21
1.2579677952755906
0
LINE
8
BLACK
6
CONTINUOUS
10
0.822889842519685
20
1.2579677952755906
11
0.8248057086614173
21
1.2566876377952756
0
LINE
8
BLACK
6
CONTINUOUS
10
0.8248057086614173
20
1.2566876377952756
11
0.8260858661417323
21
1.2547717716535434
0
LINE
8
BLACK
6
CONTINUOUS
10
0.8260858661417323
20
1.2547717716535434
11
0.8265353937007874
21
1.252511811023622
0
LINE
8
BLACK
6
CONTINUOUS
10
0.8265353937007874
20
1.252511811023622
11
0.8265353937007874
21
1.2407007874015747
0
LINE
8
BLACK
6
CONTINUOUS
10
0.8265353937007874
20
1.2407007874015747
11
0.8260858661417323
21
1.2384408267716536
0
LINE
8
BLACK
6
CONTINUOUS
10
0.8260858661417323
20
1.2384408267716536
11
0.8248057086614173
21
1.2365249606299211
0
LINE
8
BLACK
6
CONTINUOUS
10
0.8248057086614173
20
1.2365249606299211
11
0.822889842519685
21
1.2352448031496062
0
LINE
8
BLACK
6
CONTINUOUS
10
0.822889842519685
20
1.2352448031496062
11
0.8206298818897637
21
1.2347952755905511
0
LINE
8
BLACK
6
CONTINUOUS
10
0.8206298818897637
20
1.2347952755905511
11
0.7655117716535433
21
1.2347952755905511
0
LINE
8
BLACK
6
CONTINUOUS
10
0.7655117716535433
20
1.2347952755905511
11
0.7632518110236221
21
1.2352448031496062
0
LINE
8
BLACK
6
CONTINUOUS
10
0.7632518110236221
20
1.2352448031496062
11
0.7613359448818897
21
1.2365249606299211
0
LINE
8
BLACK
6
CONTINUOUS
10
0.7613359448818897
20
1.2365249606299211
11
0.7600557874015748
21
1.2384408267716536
0
LINE
8
BLACK
6
CONTINUOUS
10
0.7600557874015748
20
1.2384408267716536
11
0.7596062598425196
21
1.2407007874015747
0
LINE
8
BLACK
6
CONTINUOUS
10
0.7596062598425196
20
1.2407007874015747
11
0.7596062598425196
21
1.252511811023622
0
LINE
8
BLACK
6
CONTINUOUS
10
0.7596062598425196
20
1.252511811023622
11
0.7600557874015748
21
1.2547717716535434
0
LINE
8
BLACK
6
CONTINUOUS
10
0.7600557874015748
20
1.2547717716535434
11
0.7613359448818897
21
1.2566876377952756
0
LINE
8
BLACK
6
CONTINUOUS
10
0.7613359448818897
20
1.2566876377952756
11
0.7632518110236221
21
1.2579677952755906
0
LINE
8
BLACK
6
CONTINUOUS
10
0.7632518110236221
20
1.2579677952755906
11
0.7655117716535433
21
1.2584173228346456
0
LINE
8
BLACK
6
CONTINUOUS
10
0.7655117716535433
20
1.2584173228346456
11
0.8206298818897637
21
1.2584173228346456
0
LINE
8
BLACK
6
CONTINUOUS
10
0.8206298818897637
20
1.2584173228346456
11
0.822889842519685
21
1.2579677952755906
0
LINE
8
BLACK
6
CONTINUOUS
10
0.436748188976378
20
1.3071803937007873
11
0.4386640551181102
21
1.3059002362204724
0
LINE
8
BLACK
6
CONTINUOUS
10
0.4386640551181102
20
1.3059002362204724
11
0.4399442125984252
21
1.3039843700787401
0
LINE
8
BLACK
6
CONTINUOUS
10
0.4399442125984252
20
1.3039843700787401
11
0.4403937401574803
21
1.301724409448819
0
LINE
8
BLACK
6
CONTINUOUS
10
0.4403937401574803
20
1.301724409448819
11
0.4403937401574803
21
1.2899133858267717
0
LINE
8
BLACK
6
CONTINUOUS
10
0.4403937401574803
20
1.2899133858267717
11
0.4399442125984252
21
1.2876534251968503
0
LINE
8
BLACK
6
CONTINUOUS
10
0.4399442125984252
20
1.2876534251968503
11
0.4386640551181102
21
1.2857375590551181
0
LINE
8
BLACK
6
CONTINUOUS
10
0.4386640551181102
20
1.2857375590551181
11
0.436748188976378
21
1.2844574015748031
0
LINE
8
BLACK
6
CONTINUOUS
10
0.436748188976378
20
1.2844574015748031
11
0.4344882283464567
21
1.2840078740157479
0
LINE
8
BLACK
6
CONTINUOUS
10
0.4344882283464567
20
1.2840078740157479
11
0.3793701181102362
21
1.2840078740157479
0
LINE
8
BLACK
6
CONTINUOUS
10
0.3793701181102362
20
1.2840078740157479
11
0.377110157480315
21
1.2844574015748031
0
LINE
8
BLACK
6
CONTINUOUS
10
0.377110157480315
20
1.2844574015748031
11
0.3751942913385827
21
1.2857375590551181
0
LINE
8
BLACK
6
CONTINUOUS
10
0.3751942913385827
20
1.2857375590551181
11
0.3739141338582677
21
1.2876534251968503
0
LINE
8
BLACK
6
CONTINUOUS
10
0.3739141338582677
20
1.2876534251968503
11
0.3734646062992126
21
1.2899133858267717
0
LINE
8
BLACK
6
CONTINUOUS
10
0.3734646062992126
20
1.2899133858267717
11
0.3734646062992126
21
1.301724409448819
0
LINE
8
BLACK
6
CONTINUOUS
10
0.3734646062992126
20
1.301724409448819
11
0.3739141338582677
21
1.3039843700787401
0
LINE
8
BLACK
6
CONTINUOUS
10
0.3739141338582677
20
1.3039843700787401
11
0.3751942913385827
21
1.3059002362204724
0
LINE
8
BLACK
6
CONTINUOUS
10
0.3751942913385827
20
1.3059002362204724
11
0.377110157480315
21
1.3071803937007873
0
LINE
8
BLACK
6
CONTINUOUS
10
0.377110157480315
20
1.3071803937007873
11
0.3793701181102362
21
1.3076299212598426
0
LINE
8
BLACK
6
CONTINUOUS
10
0.3793701181102362
20
1.3076299212598426
11
0.4344882283464567
21
1.3076299212598426
0
LINE
8
BLACK
6
CONTINUOUS
10
0.4344882283464567
20
1.3076299212598426
11
0.436748188976378
21
1.3071803937007873
0
LINE
8
BLACK
6
CONTINUOUS
10
0.822889842519685
20
1.3071803937007873
11
0.8248057086614173
21
1.3059002362204724
0
LINE
8
BLACK
6
CONTINUOUS
10
0.8248057086614173
20
1.3059002362204724
11
0.8260858661417323
21
1.3039843700787401
0
LINE
8
BLACK
6
CONTINUOUS
10
0.8260858661417323
20
1.3039843700787401
11
0.8265353937007874
21
1.301724409448819
0
LINE
8
BLACK
6
CONTINUOUS
10
0.8265353937007874
20
1.301724409448819
11
0.8265353937007874
21
1.2899133858267717
0
LINE
8
BLACK
6
CONTINUOUS
10
0.8265353937007874
20
1.2899133858267717
11
0.8260858661417323
21
1.2876534251968503
0
LINE
8
BLACK
6
CONTINUOUS
10
0.8260858661417323
20
1.2876534251968503
11
0.8248057086614173
21
1.2857375590551181
0
LINE
8
BLACK
6
CONTINUOUS
10
0.8248057086614173
20
1.2857375590551181
11
0.822889842519685
21
1.2844574015748031
0
LINE
8
BLACK
6
CONTINUOUS
10
0.822889842519685
20
1.2844574015748031
11
0.8206298818897637
21
1.2840078740157479
0
LINE
8
BLACK
6
CONTINUOUS
10
0.8206298818897637
20
1.2840078740157479
11
0.7655117716535433
21
1.2840078740157479
0
LINE
8
BLACK
6
CONTINUOUS
10
0.7655117716535433
20
1.2840078740157479
11
0.7632518110236221
21
1.2844574015748031
0
LINE
8
BLACK
6
CONTINUOUS
10
0.7632518110236221
20
1.2844574015748031
11
0.7613359448818897
21
1.2857375590551181
0
LINE
8
BLACK
6
CONTINUOUS
10
0.7613359448818897
20
1.2857375590551181
11
0.7600557874015748
21
1.2876534251968503
0
LINE
8
BLACK
6
CONTINUOUS
10
0.7600557874015748
20
1.2876534251968503
11
0.7596062598425196
21
1.2899133858267717
0
LINE
8
BLACK
6
CONTINUOUS
10
0.7596062598425196
20
1.2899133858267717
11
0.7596062598425196
21
1.301724409448819
0
LINE
8
BLACK
6
CONTINUOUS
10
0.7596062598425196
20
1.301724409448819
11
0.7600557874015748
21
1.3039843700787401
0
LINE
8
BLACK
6
CONTINUOUS
10
0.7600557874015748
20
1.3039843700787401
11
0.7613359448818897
21
1.3059002362204724
0
LINE
8
BLACK
6
CONTINUOUS
10
0.7613359448818897
20
1.3059002362204724
11
0.7632518110236221
21
1.3071803937007873
0
LINE
8
BLACK
6
CONTINUOUS
10
0.7632518110236221
20
1.3071803937007873
11
0.7655117716535433
21
1.3076299212598426
0
LINE
8
BLACK
6
CONTINUOUS
10
0.7655117716535433
20
1.3076299212598426
11
0.8206298818897637
21
1.3076299212598426
0
LINE
8
BLACK
6
CONTINUOUS
10
0.8206298818897637
20
1.3076299212598426
11
0.822889842519685
21
1.3071803937007873
0
LINE
8
BLACK
6
CONTINUOUS
10
0.3280185826771653
20
1.3875893700787401
11
0.3312117322834646
21
1.3854557874015747
0
LINE
8
BLACK
6
CONTINUOUS
10
0.3312117322834646
20
1.3854557874015747
11
0.3333453149606299
21
1.3822626377952756
0
LINE
8
BLACK
6
CONTINUOUS
10
0.3333453149606299
20
1.3822626377952756
11
0.3340945275590551
21
1.3784960629921259
0
LINE
8
BLACK
6
CONTINUOUS
10
0.3340945275590551
20
1.3784960629921259
11
0.3340945275590551
21
1.3588110236220472
0
LINE
8
BLACK
6
CONTINUOUS
10
0.3340945275590551
20
1.3588110236220472
11
0.3333453149606299
21
1.3550444488188975
0
LINE
8
BLACK
6
CONTINUOUS
10
0.3333453149606299
20
1.3550444488188975
11
0.3312117322834646
21
1.3518512992125984
0
LINE
8
BLACK
6
CONTINUOUS
10
0.3312117322834646
20
1.3518512992125984
11
0.3280185826771653
21
1.349717716535433
0
LINE
8
BLACK
6
CONTINUOUS
10
0.3280185826771653
20
1.349717716535433
11
0.3242520078740158
21
1.3489685039370078
0
LINE
8
BLACK
6
CONTINUOUS
10
0.3242520078740158
20
1.3489685039370078
11
0.2376378346456693
21
1.3489685039370078
0
LINE
8
BLACK
6
CONTINUOUS
10
0.2376378346456693
20
1.3489685039370078
11
0.2338712598425197
21
1.349717716535433
0
LINE
8
BLACK
6
CONTINUOUS
10
0.2338712598425197
20
1.349717716535433
11
0.2306781102362205
21
1.3518512992125984
0
LINE
8
BLACK
6
CONTINUOUS
10
0.2306781102362205
20
1.3518512992125984
11
0.2285445275590551
21
1.3550444488188975
0
LINE
8
BLACK
6
CONTINUOUS
10
0.2285445275590551
20
1.3550444488188975
11
0.2277953149606299
21
1.3588110236220472
0
LINE
8
BLACK
6
CONTINUOUS
10
0.2277953149606299
20
1.3588110236220472
11
0.2277953149606299
21
1.3784960629921259
0
LINE
8
BLACK
6
CONTINUOUS
10
0.2277953149606299
20
1.3784960629921259
11
0.2285445275590551
21
1.3822626377952756
0
LINE
8
BLACK
6
CONTINUOUS
10
0.2285445275590551
20
1.3822626377952756
11
0.2306781102362205
21
1.3854557874015747
0
LINE
8
BLACK
6
CONTINUOUS
10
0.2306781102362205
20
1.3854557874015747
11
0.2338712598425197
21
1.3875893700787401
0
LINE
8
BLACK
6
CONTINUOUS
10
0.2338712598425197
20
1.3875893700787401
11
0.2376378346456693
21
1.3883385826771653
0
LINE
8
BLACK
6
CONTINUOUS
10
0.2376378346456693
20
1.3883385826771653
11
0.3242520078740158
21
1.3883385826771653
0
LINE
8
BLACK
6
CONTINUOUS
10
0.3242520078740158
20
1.3883385826771653
11
0.3280185826771653
21
1.3875893700787401
0
LINE
8
BLACK
6
CONTINUOUS
10
0.9661287401574803
20
1.3875893700787401
11
0.9693218897637795
21
1.3854557874015747
0
LINE
8
BLACK
6
CONTINUOUS
10
0.9693218897637795
20
1.3854557874015747
11
0.9714554724409449
21
1.3822626377952756
0
LINE
8
BLACK
6
CONTINUOUS
10
0.9714554724409449
20
1.3822626377952756
11
0.9722046850393701
21
1.3784960629921259
0
LINE
8
BLACK
6
CONTINUOUS
10
0.9722046850393701
20
1.3784960629921259
11
0.9722046850393701
21
1.3588110236220472
0
LINE
8
BLACK
6
CONTINUOUS
10
0.9722046850393701
20
1.3588110236220472
11
0.9714554724409449
21
1.3550444488188975
0
LINE
8
BLACK
6
CONTINUOUS
10
0.9714554724409449
20
1.3550444488188975
11
0.9693218897637795
21
1.3518512992125984
0
LINE
8
BLACK
6
CONTINUOUS
10
0.9693218897637795
20
1.3518512992125984
11
0.9661287401574803
21
1.349717716535433
0
LINE
8
BLACK
6
CONTINUOUS
10
0.9661287401574803
20
1.349717716535433
11
0.9623621653543307
21
1.3489685039370078
0
LINE
8
BLACK
6
CONTINUOUS
10
0.9623621653543307
20
1.3489685039370078
11
0.8757479921259842
21
1.3489685039370078
0
LINE
8
BLACK
6
CONTINUOUS
10
0.8757479921259842
20
1.3489685039370078
11
0.8719814173228346
21
1.349717716535433
0
LINE
8
BLACK
6
CONTINUOUS
10
0.8719814173228346
20
1.349717716535433
11
0.8687882677165354
21
1.3518512992125984
0
LINE
8
BLACK
6
CONTINUOUS
10
0.8687882677165354
20
1.3518512992125984
11
0.86665468503937
21
1.3550444488188975
0
LINE
8
BLACK
6
CONTINUOUS
10
0.86665468503937
20
1.3550444488188975
11
0.8659054724409448
21
1.3588110236220472
0
LINE
8
BLACK
6
CONTINUOUS
10
0.8659054724409448
20
1.3588110236220472
11
0.8659054724409448
21
1.3784960629921259
0
LINE
8
BLACK
6
CONTINUOUS
10
0.8659054724409448
20
1.3784960629921259
11
0.86665468503937
21
1.3822626377952756
0
LINE
8
BLACK
6
CONTINUOUS
10
0.86665468503937
20
1.3822626377952756
11
0.8687882677165354
21
1.3854557874015747
0
LINE
8
BLACK
6
CONTINUOUS
10
0.8687882677165354
20
1.3854557874015747
11
0.8719814173228346
21
1.3875893700787401
0
LINE
8
BLACK
6
CONTINUOUS
10
0.8719814173228346
20
1.3875893700787401
11
0.8757479921259842
21
1.3883385826771653
0
LINE
8
BLACK
6
CONTINUOUS
10
0.8757479921259842
20
1.3883385826771653
11
0.9623621653543307
21
1.3883385826771653
0
LINE
8
BLACK
6
CONTINUOUS
10
0.9623621653543307
20
1.3883385826771653
11
0.9661287401574803
21
1.3875893700787401
  0
ENDSEC
  0
EOF
