  0
SECTION
  2
HEADER
  9
$ANGBASE
  50
0.0
  9
$ANGDIR
  70
1
  9
$MEASUREMENT
  70
0
  0
ENDSEC
  0
SECTION
  2
TABLES
  0
TABLE
  2
LTYPE
  70
4
  0
LTYPE
  5
40F
  2
CONTINUOUS
  70
0
  3
Solid line
  72
65
  73
0
  40
0.0
  0
LTYPE
  5
410
  2
DASHDOT
 70
0
  3
Dash Dot ____ _ ____ _
 72
65
 73
4
 40
2.0
 49
1.25
 49
-0.25
 49
0.25
 49
-0.25
  0
LTYPE
  5
411
  2
DASHED
 70
0
  3
Dashed __ __ __ __ __
 72
65
 73
2
 40
0.75
 49
0.5
 49
-0.25
  0
LTYPE
  5
43B
  2
DOTTED
 70
0
  3
Dotted .  .  .  .
 72
65
 73
2
 40
0.2
 49
0.0
 49
-0.2
  0
ENDTAB
  0
TABLE
  2
STYLE
  70
4
  0
STYLE
  2
KICAD
  70
0
  40
0
  41
1
  42
1
  50
0
  71
0
  3
isocp.shx
  0
STYLE
  2
KICADB
  70
0
  40
0
  41
1
  42
1
  50
0
  71
0
  3
isocp.shx
  0
STYLE
  2
KICADI
  70
0
  40
0
  41
1
  42
1
  50
15
  71
0
  3
isocp.shx
  0
STYLE
  2
KICADBI
  70
0
  40
0
  41
1
  42
1
  50
15
  71
0
  3
isocp.shx
  0
ENDTAB
  0
TABLE
  2
LAYER
  70
1
  0
LAYER
  2
BLACK
  70
0
  62
7
  6
CONTINUOUS
  0
ENDTAB
  0
ENDSEC
  0
SECTION
  2
ENTITIES
0
LINE
8
BLACK
6
CONTINUOUS
10
0.263372
20
0.210137
11
0.264919
21
0.208839
0
LINE
8
BLACK
6
CONTINUOUS
10
0.264919
20
0.208839
11
0.26527
21
0.20685
0
LINE
8
BLACK
6
CONTINUOUS
10
0.26527
20
0.20685
11
0.26426
21
0.205101
0
LINE
8
BLACK
6
CONTINUOUS
10
0.26426
20
0.205101
11
0.262362
21
0.20441
0
LINE
8
BLACK
6
CONTINUOUS
10
0.262362
20
0.20441
11
0.217368
21
0.20441
0
LINE
8
BLACK
6
CONTINUOUS
10
0.217368
20
0.20441
11
0.216358
21
0.204588
0
LINE
8
BLACK
6
CONTINUOUS
10
0.216358
20
0.204588
11
0.214811
21
0.205886
0
LINE
8
BLACK
6
CONTINUOUS
10
0.214811
20
0.205886
11
0.21446
21
0.207876
0
LINE
8
BLACK
6
CONTINUOUS
10
0.21446
20
0.207876
11
0.21547
21
0.209625
0
LINE
8
BLACK
6
CONTINUOUS
10
0.21547
20
0.209625
11
0.217368
21
0.210316
0
LINE
8
BLACK
6
CONTINUOUS
10
0.217368
20
0.210316
11
0.262362
21
0.210316
0
LINE
8
BLACK
6
CONTINUOUS
10
0.262362
20
0.210316
11
0.263372
21
0.210137
0
LINE
8
BLACK
6
CONTINUOUS
10
0.524902
20
0.210137
11
0.526449
21
0.208839
0
LINE
8
BLACK
6
CONTINUOUS
10
0.526449
20
0.208839
11
0.5268
21
0.20685
0
LINE
8
BLACK
6
CONTINUOUS
10
0.5268
20
0.20685
11
0.52579
21
0.205101
0
LINE
8
BLACK
6
CONTINUOUS
10
0.52579
20
0.205101
11
0.523892
21
0.20441
0
LINE
8
BLACK
6
CONTINUOUS
10
0.523892
20
0.20441
11
0.478898
21
0.20441
0
LINE
8
BLACK
6
CONTINUOUS
10
0.478898
20
0.20441
11
0.477888
21
0.204588
0
LINE
8
BLACK
6
CONTINUOUS
10
0.477888
20
0.204588
11
0.47634
21
0.205886
0
LINE
8
BLACK
6
CONTINUOUS
10
0.47634
20
0.205886
11
0.47599
21
0.207876
0
LINE
8
BLACK
6
CONTINUOUS
10
0.47599
20
0.207876
11
0.477
21
0.209625
0
LINE
8
BLACK
6
CONTINUOUS
10
0.477
20
0.209625
11
0.478898
21
0.210316
0
LINE
8
BLACK
6
CONTINUOUS
10
0.478898
20
0.210316
11
0.523892
21
0.210316
0
LINE
8
BLACK
6
CONTINUOUS
10
0.523892
20
0.210316
11
0.524902
21
0.210137
0
LINE
8
BLACK
6
CONTINUOUS
10
-0.0150306
20
0.274817
11
-0.0134833
21
0.273519
0
LINE
8
BLACK
6
CONTINUOUS
10
-0.0134833
20
0.273519
11
-0.0131326
21
0.271529
0
LINE
8
BLACK
6
CONTINUOUS
10
-0.0131326
20
0.271529
11
-0.0141425
21
0.26978
0
LINE
8
BLACK
6
CONTINUOUS
10
-0.0141425
20
0.26978
11
-0.0160405
21
0.269089
0
LINE
8
BLACK
6
CONTINUOUS
10
-0.0160405
20
0.269089
11
-0.0412092
21
0.269089
0
LINE
8
BLACK
6
CONTINUOUS
10
-0.0412092
20
0.269089
11
-0.0412092
21
0.246873
0
LINE
8
BLACK
6
CONTINUOUS
10
-0.0412092
20
0.246873
11
-0.0244769
21
0.246873
0
LINE
8
BLACK
6
CONTINUOUS
10
-0.0244769
20
0.246873
11
-0.023467
21
0.246695
0
LINE
8
BLACK
6
CONTINUOUS
10
-0.023467
20
0.246695
11
-0.0219198
21
0.245397
0
LINE
8
BLACK
6
CONTINUOUS
10
-0.0219198
20
0.245397
11
-0.021569
21
0.243408
0
LINE
8
BLACK
6
CONTINUOUS
10
-0.021569
20
0.243408
11
-0.0225789
21
0.241659
0
LINE
8
BLACK
6
CONTINUOUS
10
-0.0225789
20
0.241659
11
-0.0244769
21
0.240968
0
LINE
8
BLACK
6
CONTINUOUS
10
-0.0244769
20
0.240968
11
-0.0412092
21
0.240968
0
LINE
8
BLACK
6
CONTINUOUS
10
-0.0412092
20
0.240968
11
-0.0412092
21
0.21594
0
LINE
8
BLACK
6
CONTINUOUS
10
-0.0412092
20
0.21594
11
-0.0160405
21
0.21594
0
LINE
8
BLACK
6
CONTINUOUS
10
-0.0160405
20
0.21594
11
-0.0150306
21
0.215762
0
LINE
8
BLACK
6
CONTINUOUS
10
-0.0150306
20
0.215762
11
-0.0134833
21
0.214463
0
LINE
8
BLACK
6
CONTINUOUS
10
-0.0134833
20
0.214463
11
-0.0131326
21
0.212474
0
LINE
8
BLACK
6
CONTINUOUS
10
-0.0131326
20
0.212474
11
-0.0141425
21
0.210725
0
LINE
8
BLACK
6
CONTINUOUS
10
-0.0141425
20
0.210725
11
-0.0160405
21
0.210034
0
LINE
8
BLACK
6
CONTINUOUS
10
-0.0160405
20
0.210034
11
-0.044162
21
0.210034
0
LINE
8
BLACK
6
CONTINUOUS
10
-0.044162
20
0.210034
11
-0.0445455
21
0.210102
0
LINE
8
BLACK
6
CONTINUOUS
10
-0.0445455
20
0.210102
11
-0.0446747
21
0.210079
0
LINE
8
BLACK
6
CONTINUOUS
10
-0.0446747
20
0.210079
11
-0.0447883
21
0.210145
0
LINE
8
BLACK
6
CONTINUOUS
10
-0.0447883
20
0.210145
11
-0.0451719
21
0.210212
0
LINE
8
BLACK
6
CONTINUOUS
10
-0.0451719
20
0.210212
11
-0.0457596
21
0.210706
0
LINE
8
BLACK
6
CONTINUOUS
10
-0.0457596
20
0.210706
11
-0.0464239
21
0.211089
0
LINE
8
BLACK
6
CONTINUOUS
10
-0.0464239
20
0.211089
11
-0.046515
21
0.211339
0
LINE
8
BLACK
6
CONTINUOUS
10
-0.046515
20
0.211339
11
-0.0467191
21
0.211511
0
LINE
8
BLACK
6
CONTINUOUS
10
-0.0467191
20
0.211511
11
-0.0468524
21
0.212266
0
LINE
8
BLACK
6
CONTINUOUS
10
-0.0468524
20
0.212266
11
-0.0471147
21
0.212987
0
LINE
8
BLACK
6
CONTINUOUS
10
-0.0471147
20
0.212987
11
-0.0471147
21
0.272042
0
LINE
8
BLACK
6
CONTINUOUS
10
-0.0471147
20
0.272042
11
-0.0470471
21
0.272426
0
LINE
8
BLACK
6
CONTINUOUS
10
-0.0470471
20
0.272426
11
-0.0470699
21
0.272555
0
LINE
8
BLACK
6
CONTINUOUS
10
-0.0470699
20
0.272555
11
-0.0470043
21
0.272669
0
LINE
8
BLACK
6
CONTINUOUS
10
-0.0470043
20
0.272669
11
-0.0469367
21
0.273052
0
LINE
8
BLACK
6
CONTINUOUS
10
-0.0469367
20
0.273052
11
-0.0464435
21
0.27364
0
LINE
8
BLACK
6
CONTINUOUS
10
-0.0464435
20
0.27364
11
-0.04606
21
0.274304
0
LINE
8
BLACK
6
CONTINUOUS
10
-0.04606
20
0.274304
11
-0.0458096
21
0.274395
0
LINE
8
BLACK
6
CONTINUOUS
10
-0.0458096
20
0.274395
11
-0.0456383
21
0.274599
0
LINE
8
BLACK
6
CONTINUOUS
10
-0.0456383
20
0.274599
11
-0.0448828
21
0.274733
0
LINE
8
BLACK
6
CONTINUOUS
10
-0.0448828
20
0.274733
11
-0.044162
21
0.274995
0
LINE
8
BLACK
6
CONTINUOUS
10
-0.044162
20
0.274995
11
-0.0160405
21
0.274995
0
LINE
8
BLACK
6
CONTINUOUS
10
-0.0160405
20
0.274995
11
-0.0150306
21
0.274817
0
LINE
8
BLACK
6
CONTINUOUS
10
0.0748176
20
0.274842
11
0.074882
21
0.274843
0
LINE
8
BLACK
6
CONTINUOUS
10
0.074882
20
0.274843
11
0.0833185
21
0.272031
0
LINE
8
BLACK
6
CONTINUOUS
10
0.0833185
20
0.272031
11
0.0842202
21
0.271543
0
LINE
8
BLACK
6
CONTINUOUS
10
0.0842202
20
0.271543
11
0.0843126
21
0.271393
0
LINE
8
BLACK
6
CONTINUOUS
10
0.0843126
20
0.271393
11
0.0844726
21
0.271318
0
LINE
8
BLACK
6
CONTINUOUS
10
0.0844726
20
0.271318
11
0.0900969
21
0.265694
0
LINE
8
BLACK
6
CONTINUOUS
10
0.0900969
20
0.265694
11
0.0906032
21
0.264971
0
LINE
8
BLACK
6
CONTINUOUS
10
0.0906032
20
0.264971
11
0.09065
21
0.264926
0
LINE
8
BLACK
6
CONTINUOUS
10
0.09065
20
0.264926
11
0.0934622
21
0.259302
0
LINE
8
BLACK
6
CONTINUOUS
10
0.0934622
20
0.259302
11
0.0936075
21
0.258814
0
LINE
8
BLACK
6
CONTINUOUS
10
0.0936075
20
0.258814
11
0.0936858
21
0.258698
0
LINE
8
BLACK
6
CONTINUOUS
10
0.0936858
20
0.258698
11
0.0964979
21
0.247449
0
LINE
8
BLACK
6
CONTINUOUS
10
0.0964979
20
0.247449
11
0.0965394
21
0.246861
0
LINE
8
BLACK
6
CONTINUOUS
10
0.0965394
20
0.246861
11
0.0965861
21
0.246733
0
LINE
8
BLACK
6
CONTINUOUS
10
0.0965861
20
0.246733
11
0.0965861
21
0.238296
0
LINE
8
BLACK
6
CONTINUOUS
10
0.0965861
20
0.238296
11
0.0964837
21
0.237716
0
LINE
8
BLACK
6
CONTINUOUS
10
0.0964837
20
0.237716
11
0.0964979
21
0.23758
0
LINE
8
BLACK
6
CONTINUOUS
10
0.0964979
20
0.23758
11
0.0936858
21
0.226332
0
LINE
8
BLACK
6
CONTINUOUS
10
0.0936858
20
0.226332
11
0.0934782
21
0.225866
0
LINE
8
BLACK
6
CONTINUOUS
10
0.0934782
20
0.225866
11
0.0934622
21
0.225727
0
LINE
8
BLACK
6
CONTINUOUS
10
0.0934622
20
0.225727
11
0.09065
21
0.220103
0
LINE
8
BLACK
6
CONTINUOUS
10
0.09065
20
0.220103
11
0.0901242
21
0.219394
0
LINE
8
BLACK
6
CONTINUOUS
10
0.0901242
20
0.219394
11
0.0900969
21
0.219336
0
LINE
8
BLACK
6
CONTINUOUS
10
0.0900969
20
0.219336
11
0.0844726
21
0.213711
0
LINE
8
BLACK
6
CONTINUOUS
10
0.0844726
20
0.213711
11
0.0836326
21
0.213123
0
LINE
8
BLACK
6
CONTINUOUS
10
0.0836326
20
0.213123
11
0.0834567
21
0.213108
0
LINE
8
BLACK
6
CONTINUOUS
10
0.0834567
20
0.213108
11
0.0833185
21
0.212998
0
LINE
8
BLACK
6
CONTINUOUS
10
0.0833185
20
0.212998
11
0.074882
21
0.210186
0
LINE
8
BLACK
6
CONTINUOUS
10
0.074882
20
0.210186
11
0.0740088
21
0.210056
0
LINE
8
BLACK
6
CONTINUOUS
10
0.0740088
20
0.210056
11
0.0739483
21
0.210034
0
LINE
8
BLACK
6
CONTINUOUS
10
0.0739483
20
0.210034
11
0.0598875
21
0.210034
0
LINE
8
BLACK
6
CONTINUOUS
10
0.0598875
20
0.210034
11
0.059504
21
0.210102
0
LINE
8
BLACK
6
CONTINUOUS
10
0.059504
20
0.210102
11
0.0593748
21
0.210079
0
LINE
8
BLACK
6
CONTINUOUS
10
0.0593748
20
0.210079
11
0.0592611
21
0.210145
0
LINE
8
BLACK
6
CONTINUOUS
10
0.0592611
20
0.210145
11
0.0588776
21
0.210212
0
LINE
8
BLACK
6
CONTINUOUS
10
0.0588776
20
0.210212
11
0.0582899
21
0.210706
0
LINE
8
BLACK
6
CONTINUOUS
10
0.0582899
20
0.210706
11
0.0576256
21
0.211089
0
LINE
8
BLACK
6
CONTINUOUS
10
0.0576256
20
0.211089
11
0.0575344
21
0.211339
0
LINE
8
BLACK
6
CONTINUOUS
10
0.0575344
20
0.211339
11
0.0573304
21
0.211511
0
LINE
8
BLACK
6
CONTINUOUS
10
0.0573304
20
0.211511
11
0.0571971
21
0.212266
0
LINE
8
BLACK
6
CONTINUOUS
10
0.0571971
20
0.212266
11
0.0569348
21
0.212987
0
LINE
8
BLACK
6
CONTINUOUS
10
0.0569348
20
0.212987
11
0.0569348
21
0.272042
0
LINE
8
BLACK
6
CONTINUOUS
10
0.0569348
20
0.272042
11
0.0570024
21
0.272426
0
LINE
8
BLACK
6
CONTINUOUS
10
0.0570024
20
0.272426
11
0.0569796
21
0.272555
0
LINE
8
BLACK
6
CONTINUOUS
10
0.0569796
20
0.272555
11
0.0570452
21
0.272669
0
LINE
8
BLACK
6
CONTINUOUS
10
0.0570452
20
0.272669
11
0.0571128
21
0.273052
0
LINE
8
BLACK
6
CONTINUOUS
10
0.0571128
20
0.273052
11
0.0576059
21
0.27364
0
LINE
8
BLACK
6
CONTINUOUS
10
0.0576059
20
0.27364
11
0.0579895
21
0.274304
0
LINE
8
BLACK
6
CONTINUOUS
10
0.0579895
20
0.274304
11
0.0582398
21
0.274395
0
LINE
8
BLACK
6
CONTINUOUS
10
0.0582398
20
0.274395
11
0.0584111
21
0.274599
0
LINE
8
BLACK
6
CONTINUOUS
10
0.0584111
20
0.274599
11
0.0591667
21
0.274733
0
LINE
8
BLACK
6
CONTINUOUS
10
0.0591667
20
0.274733
11
0.0598875
21
0.274995
0
LINE
8
BLACK
6
CONTINUOUS
10
0.0598875
20
0.274995
11
0.0739483
21
0.274995
0
LINE
8
BLACK
6
CONTINUOUS
10
0.0739483
20
0.274995
11
0.0748176
21
0.274842
0
LINE
8
BLACK
6
CONTINUOUS
10
0.0628403
20
0.21594
11
0.0734691
21
0.21594
0
LINE
8
BLACK
6
CONTINUOUS
10
0.0734691
20
0.21594
11
0.0807896
21
0.21838
0
LINE
8
BLACK
6
CONTINUOUS
10
0.0807896
20
0.21838
11
0.0855823
21
0.223173
0
LINE
8
BLACK
6
CONTINUOUS
10
0.0855823
20
0.223173
11
0.0880352
21
0.228078
0
LINE
8
BLACK
6
CONTINUOUS
10
0.0880352
20
0.228078
11
0.0906806
21
0.23866
0
LINE
8
BLACK
6
CONTINUOUS
10
0.0906806
20
0.23866
11
0.0906806
21
0.246369
0
LINE
8
BLACK
6
CONTINUOUS
10
0.0906806
20
0.246369
11
0.0880352
21
0.256951
0
LINE
8
BLACK
6
CONTINUOUS
10
0.0880352
20
0.256951
11
0.0855823
21
0.261857
0
LINE
8
BLACK
6
CONTINUOUS
10
0.0855823
20
0.261857
11
0.0807897
21
0.266649
0
LINE
8
BLACK
6
CONTINUOUS
10
0.0807897
20
0.266649
11
0.0734691
21
0.269089
0
LINE
8
BLACK
6
CONTINUOUS
10
0.0734691
20
0.269089
11
0.0628403
21
0.269089
0
LINE
8
BLACK
6
CONTINUOUS
10
0.0628403
20
0.269089
11
0.0628403
21
0.21594
0
LINE
8
BLACK
6
CONTINUOUS
10
0.148074
20
0.274817
11
0.149621
21
0.273519
0
LINE
8
BLACK
6
CONTINUOUS
10
0.149621
20
0.273519
11
0.149972
21
0.271529
0
LINE
8
BLACK
6
CONTINUOUS
10
0.149972
20
0.271529
11
0.148962
21
0.26978
0
LINE
8
BLACK
6
CONTINUOUS
10
0.148962
20
0.26978
11
0.147064
21
0.269089
0
LINE
8
BLACK
6
CONTINUOUS
10
0.147064
20
0.269089
11
0.121895
21
0.269089
0
LINE
8
BLACK
6
CONTINUOUS
10
0.121895
20
0.269089
11
0.121895
21
0.246873
0
LINE
8
BLACK
6
CONTINUOUS
10
0.121895
20
0.246873
11
0.138628
21
0.246873
0
LINE
8
BLACK
6
CONTINUOUS
10
0.138628
20
0.246873
11
0.139638
21
0.246695
0
LINE
8
BLACK
6
CONTINUOUS
10
0.139638
20
0.246695
11
0.141185
21
0.245397
0
LINE
8
BLACK
6
CONTINUOUS
10
0.141185
20
0.245397
11
0.141536
21
0.243408
0
LINE
8
BLACK
6
CONTINUOUS
10
0.141536
20
0.243408
11
0.140526
21
0.241659
0
LINE
8
BLACK
6
CONTINUOUS
10
0.140526
20
0.241659
11
0.138628
21
0.240968
0
LINE
8
BLACK
6
CONTINUOUS
10
0.138628
20
0.240968
11
0.121895
21
0.240968
0
LINE
8
BLACK
6
CONTINUOUS
10
0.121895
20
0.240968
11
0.121895
21
0.21594
0
LINE
8
BLACK
6
CONTINUOUS
10
0.121895
20
0.21594
11
0.147064
21
0.21594
0
LINE
8
BLACK
6
CONTINUOUS
10
0.147064
20
0.21594
11
0.148074
21
0.215762
0
LINE
8
BLACK
6
CONTINUOUS
10
0.148074
20
0.215762
11
0.149621
21
0.214463
0
LINE
8
BLACK
6
CONTINUOUS
10
0.149621
20
0.214463
11
0.149972
21
0.212474
0
LINE
8
BLACK
6
CONTINUOUS
10
0.149972
20
0.212474
11
0.148962
21
0.210725
0
LINE
8
BLACK
6
CONTINUOUS
10
0.148962
20
0.210725
11
0.147064
21
0.210034
0
LINE
8
BLACK
6
CONTINUOUS
10
0.147064
20
0.210034
11
0.118943
21
0.210034
0
LINE
8
BLACK
6
CONTINUOUS
10
0.118943
20
0.210034
11
0.118559
21
0.210102
0
LINE
8
BLACK
6
CONTINUOUS
10
0.118559
20
0.210102
11
0.11843
21
0.210079
0
LINE
8
BLACK
6
CONTINUOUS
10
0.11843
20
0.210079
11
0.118316
21
0.210145
0
LINE
8
BLACK
6
CONTINUOUS
10
0.118316
20
0.210145
11
0.117933
21
0.210212
0
LINE
8
BLACK
6
CONTINUOUS
10
0.117933
20
0.210212
11
0.117345
21
0.210706
0
LINE
8
BLACK
6
CONTINUOUS
10
0.117345
20
0.210706
11
0.116681
21
0.211089
0
LINE
8
BLACK
6
CONTINUOUS
10
0.116681
20
0.211089
11
0.11659
21
0.211339
0
LINE
8
BLACK
6
CONTINUOUS
10
0.11659
20
0.211339
11
0.116385
21
0.211511
0
LINE
8
BLACK
6
CONTINUOUS
10
0.116385
20
0.211511
11
0.116252
21
0.212266
0
LINE
8
BLACK
6
CONTINUOUS
10
0.116252
20
0.212266
11
0.11599
21
0.212987
0
LINE
8
BLACK
6
CONTINUOUS
10
0.11599
20
0.212987
11
0.11599
21
0.272042
0
LINE
8
BLACK
6
CONTINUOUS
10
0.11599
20
0.272042
11
0.116057
21
0.272426
0
LINE
8
BLACK
6
CONTINUOUS
10
0.116057
20
0.272426
11
0.116035
21
0.272555
0
LINE
8
BLACK
6
CONTINUOUS
10
0.116035
20
0.272555
11
0.1161
21
0.272669
0
LINE
8
BLACK
6
CONTINUOUS
10
0.1161
20
0.272669
11
0.116168
21
0.273052
0
LINE
8
BLACK
6
CONTINUOUS
10
0.116168
20
0.273052
11
0.116661
21
0.27364
0
LINE
8
BLACK
6
CONTINUOUS
10
0.116661
20
0.27364
11
0.117045
21
0.274304
0
LINE
8
BLACK
6
CONTINUOUS
10
0.117045
20
0.274304
11
0.117295
21
0.274395
0
LINE
8
BLACK
6
CONTINUOUS
10
0.117295
20
0.274395
11
0.117466
21
0.274599
0
LINE
8
BLACK
6
CONTINUOUS
10
0.117466
20
0.274599
11
0.118222
21
0.274733
0
LINE
8
BLACK
6
CONTINUOUS
10
0.118222
20
0.274733
11
0.118943
21
0.274995
0
LINE
8
BLACK
6
CONTINUOUS
10
0.118943
20
0.274995
11
0.147064
21
0.274995
0
LINE
8
BLACK
6
CONTINUOUS
10
0.147064
20
0.274995
11
0.148074
21
0.274817
0
LINE
8
BLACK
6
CONTINUOUS
10
0.297118
20
0.274817
11
0.297253
21
0.274703
0
LINE
8
BLACK
6
CONTINUOUS
10
0.297253
20
0.274703
11
0.297429
21
0.274683
0
LINE
8
BLACK
6
CONTINUOUS
10
0.297429
20
0.274683
11
0.303053
21
0.271871
0
LINE
8
BLACK
6
CONTINUOUS
10
0.303053
20
0.271871
11
0.303762
21
0.271345
0
LINE
8
BLACK
6
CONTINUOUS
10
0.303762
20
0.271345
11
0.30382
21
0.271318
0
LINE
8
BLACK
6
CONTINUOUS
10
0.30382
20
0.271318
11
0.306632
21
0.268506
0
LINE
8
BLACK
6
CONTINUOUS
10
0.306632
20
0.268506
11
0.307139
21
0.267783
0
LINE
8
BLACK
6
CONTINUOUS
10
0.307139
20
0.267783
11
0.307185
21
0.267738
0
LINE
8
BLACK
6
CONTINUOUS
10
0.307185
20
0.267738
11
0.309998
21
0.262114
0
LINE
8
BLACK
6
CONTINUOUS
10
0.309998
20
0.262114
11
0.31029
21
0.261131
0
LINE
8
BLACK
6
CONTINUOUS
10
0.31029
20
0.261131
11
0.310249
21
0.26096
0
LINE
8
BLACK
6
CONTINUOUS
10
0.310249
20
0.26096
11
0.310309
21
0.260794
0
LINE
8
BLACK
6
CONTINUOUS
10
0.310309
20
0.260794
11
0.310309
21
0.255169
0
LINE
8
BLACK
6
CONTINUOUS
10
0.310309
20
0.255169
11
0.310156
21
0.2543
0
LINE
8
BLACK
6
CONTINUOUS
10
0.310156
20
0.2543
11
0.310158
21
0.254236
0
LINE
8
BLACK
6
CONTINUOUS
10
0.310158
20
0.254236
11
0.307346
21
0.245799
0
LINE
8
BLACK
6
CONTINUOUS
10
0.307346
20
0.245799
11
0.306857
21
0.244897
0
LINE
8
BLACK
6
CONTINUOUS
10
0.306857
20
0.244897
11
0.306707
21
0.244805
0
LINE
8
BLACK
6
CONTINUOUS
10
0.306707
20
0.244805
11
0.306632
21
0.244645
0
LINE
8
BLACK
6
CONTINUOUS
10
0.306632
20
0.244645
11
0.277927
21
0.21594
0
LINE
8
BLACK
6
CONTINUOUS
10
0.277927
20
0.21594
11
0.307357
21
0.21594
0
LINE
8
BLACK
6
CONTINUOUS
10
0.307357
20
0.21594
11
0.308367
21
0.215762
0
LINE
8
BLACK
6
CONTINUOUS
10
0.308367
20
0.215762
11
0.309914
21
0.214463
0
LINE
8
BLACK
6
CONTINUOUS
10
0.309914
20
0.214463
11
0.310265
21
0.212474
0
LINE
8
BLACK
6
CONTINUOUS
10
0.310265
20
0.212474
11
0.309255
21
0.210725
0
LINE
8
BLACK
6
CONTINUOUS
10
0.309255
20
0.210725
11
0.307357
21
0.210034
0
LINE
8
BLACK
6
CONTINUOUS
10
0.307357
20
0.210034
11
0.270799
21
0.210034
0
LINE
8
BLACK
6
CONTINUOUS
10
0.270799
20
0.210034
11
0.270164
21
0.210146
0
LINE
8
BLACK
6
CONTINUOUS
10
0.270164
20
0.210146
11
0.270034
21
0.210135
0
LINE
8
BLACK
6
CONTINUOUS
10
0.270034
20
0.210135
11
0.269969
21
0.210181
0
LINE
8
BLACK
6
CONTINUOUS
10
0.269969
20
0.210181
11
0.269789
21
0.210212
0
LINE
8
BLACK
6
CONTINUOUS
10
0.269789
20
0.210212
11
0.269108
21
0.210784
0
LINE
8
BLACK
6
CONTINUOUS
10
0.269108
20
0.210784
11
0.26838
21
0.211293
0
LINE
8
BLACK
6
CONTINUOUS
10
0.26838
20
0.211293
11
0.268345
21
0.211424
0
LINE
8
BLACK
6
CONTINUOUS
10
0.268345
20
0.211424
11
0.268241
21
0.211511
0
LINE
8
BLACK
6
CONTINUOUS
10
0.268241
20
0.211511
11
0.268087
21
0.212386
0
LINE
8
BLACK
6
CONTINUOUS
10
0.268087
20
0.212386
11
0.267857
21
0.213244
0
LINE
8
BLACK
6
CONTINUOUS
10
0.267857
20
0.213244
11
0.267914
21
0.213367
0
LINE
8
BLACK
6
CONTINUOUS
10
0.267914
20
0.213367
11
0.267891
21
0.2135
0
LINE
8
BLACK
6
CONTINUOUS
10
0.267891
20
0.2135
11
0.268335
21
0.21427
0
LINE
8
BLACK
6
CONTINUOUS
10
0.268335
20
0.21427
11
0.268711
21
0.215075
0
LINE
8
BLACK
6
CONTINUOUS
10
0.268711
20
0.215075
11
0.301964
21
0.248328
0
LINE
8
BLACK
6
CONTINUOUS
10
0.301964
20
0.248328
11
0.304404
21
0.255648
0
LINE
8
BLACK
6
CONTINUOUS
10
0.304404
20
0.255648
11
0.304404
21
0.260097
0
LINE
8
BLACK
6
CONTINUOUS
10
0.304404
20
0.260097
11
0.302118
21
0.264669
0
LINE
8
BLACK
6
CONTINUOUS
10
0.302118
20
0.264669
11
0.299983
21
0.266803
0
LINE
8
BLACK
6
CONTINUOUS
10
0.299983
20
0.266803
11
0.295411
21
0.269089
0
LINE
8
BLACK
6
CONTINUOUS
10
0.295411
20
0.269089
11
0.282744
21
0.269089
0
LINE
8
BLACK
6
CONTINUOUS
10
0.282744
20
0.269089
11
0.278172
21
0.266803
0
LINE
8
BLACK
6
CONTINUOUS
10
0.278172
20
0.266803
11
0.275699
21
0.26433
0
LINE
8
BLACK
6
CONTINUOUS
10
0.275699
20
0.26433
11
0.274859
21
0.263742
0
LINE
8
BLACK
6
CONTINUOUS
10
0.274859
20
0.263742
11
0.272847
21
0.263566
0
LINE
8
BLACK
6
CONTINUOUS
10
0.272847
20
0.263566
11
0.271192
21
0.264724
0
LINE
8
BLACK
6
CONTINUOUS
10
0.271192
20
0.264724
11
0.270669
21
0.266675
0
LINE
8
BLACK
6
CONTINUOUS
10
0.270669
20
0.266675
11
0.271523
21
0.268506
0
LINE
8
BLACK
6
CONTINUOUS
10
0.271523
20
0.268506
11
0.274335
21
0.271318
0
LINE
8
BLACK
6
CONTINUOUS
10
0.274335
20
0.271318
11
0.275058
21
0.271824
0
LINE
8
BLACK
6
CONTINUOUS
10
0.275058
20
0.271824
11
0.275102
21
0.271871
0
LINE
8
BLACK
6
CONTINUOUS
10
0.275102
20
0.271871
11
0.280727
21
0.274683
0
LINE
8
BLACK
6
CONTINUOUS
10
0.280727
20
0.274683
11
0.28171
21
0.274976
0
LINE
8
BLACK
6
CONTINUOUS
10
0.28171
20
0.274976
11
0.281881
21
0.274935
0
LINE
8
BLACK
6
CONTINUOUS
10
0.281881
20
0.274935
11
0.282047
21
0.274995
0
LINE
8
BLACK
6
CONTINUOUS
10
0.282047
20
0.274995
11
0.296108
21
0.274995
0
LINE
8
BLACK
6
CONTINUOUS
10
0.296108
20
0.274995
11
0.297118
21
0.274817
0
LINE
8
BLACK
6
CONTINUOUS
10
0.398355
20
0.274817
11
0.398491
21
0.274703
0
LINE
8
BLACK
6
CONTINUOUS
10
0.398491
20
0.274703
11
0.398666
21
0.274683
0
LINE
8
BLACK
6
CONTINUOUS
10
0.398666
20
0.274683
11
0.40429
21
0.271871
0
LINE
8
BLACK
6
CONTINUOUS
10
0.40429
20
0.271871
11
0.404999
21
0.271345
0
LINE
8
BLACK
6
CONTINUOUS
10
0.404999
20
0.271345
11
0.405058
21
0.271318
0
LINE
8
BLACK
6
CONTINUOUS
10
0.405058
20
0.271318
11
0.40787
21
0.268506
0
LINE
8
BLACK
6
CONTINUOUS
10
0.40787
20
0.268506
11
0.408376
21
0.267783
0
LINE
8
BLACK
6
CONTINUOUS
10
0.408376
20
0.267783
11
0.408423
21
0.267738
0
LINE
8
BLACK
6
CONTINUOUS
10
0.408423
20
0.267738
11
0.411235
21
0.262114
0
LINE
8
BLACK
6
CONTINUOUS
10
0.411235
20
0.262114
11
0.41138
21
0.261626
0
LINE
8
BLACK
6
CONTINUOUS
10
0.41138
20
0.261626
11
0.411459
21
0.26151
0
LINE
8
BLACK
6
CONTINUOUS
10
0.411459
20
0.26151
11
0.414271
21
0.250261
0
LINE
8
BLACK
6
CONTINUOUS
10
0.414271
20
0.250261
11
0.414312
21
0.249673
0
LINE
8
BLACK
6
CONTINUOUS
10
0.414312
20
0.249673
11
0.414359
21
0.249545
0
LINE
8
BLACK
6
CONTINUOUS
10
0.414359
20
0.249545
11
0.414359
21
0.235484
0
LINE
8
BLACK
6
CONTINUOUS
10
0.414359
20
0.235484
11
0.414256
21
0.234904
0
LINE
8
BLACK
6
CONTINUOUS
10
0.414256
20
0.234904
11
0.414271
21
0.234768
0
LINE
8
BLACK
6
CONTINUOUS
10
0.414271
20
0.234768
11
0.411459
21
0.22352
0
LINE
8
BLACK
6
CONTINUOUS
10
0.411459
20
0.22352
11
0.411251
21
0.223054
0
LINE
8
BLACK
6
CONTINUOUS
10
0.411251
20
0.223054
11
0.411235
21
0.222915
0
LINE
8
BLACK
6
CONTINUOUS
10
0.411235
20
0.222915
11
0.408423
21
0.217291
0
LINE
8
BLACK
6
CONTINUOUS
10
0.408423
20
0.217291
11
0.407897
21
0.216582
0
LINE
8
BLACK
6
CONTINUOUS
10
0.407897
20
0.216582
11
0.40787
21
0.216523
0
LINE
8
BLACK
6
CONTINUOUS
10
0.40787
20
0.216523
11
0.405058
21
0.213711
0
LINE
8
BLACK
6
CONTINUOUS
10
0.405058
20
0.213711
11
0.404334
21
0.213205
0
LINE
8
BLACK
6
CONTINUOUS
10
0.404334
20
0.213205
11
0.40429
21
0.213158
0
LINE
8
BLACK
6
CONTINUOUS
10
0.40429
20
0.213158
11
0.398666
21
0.210346
0
LINE
8
BLACK
6
CONTINUOUS
10
0.398666
20
0.210346
11
0.397683
21
0.210054
0
LINE
8
BLACK
6
CONTINUOUS
10
0.397683
20
0.210054
11
0.397511
21
0.210095
0
LINE
8
BLACK
6
CONTINUOUS
10
0.397511
20
0.210095
11
0.397345
21
0.210034
0
LINE
8
BLACK
6
CONTINUOUS
10
0.397345
20
0.210034
11
0.391721
21
0.210034
0
LINE
8
BLACK
6
CONTINUOUS
10
0.391721
20
0.210034
11
0.390711
21
0.210212
0
LINE
8
BLACK
6
CONTINUOUS
10
0.390711
20
0.210212
11
0.390576
21
0.210326
0
LINE
8
BLACK
6
CONTINUOUS
10
0.390576
20
0.210326
11
0.390401
21
0.210346
0
LINE
8
BLACK
6
CONTINUOUS
10
0.390401
20
0.210346
11
0.384776
21
0.213158
0
LINE
8
BLACK
6
CONTINUOUS
10
0.384776
20
0.213158
11
0.384067
21
0.213684
0
LINE
8
BLACK
6
CONTINUOUS
10
0.384067
20
0.213684
11
0.384009
21
0.213711
0
LINE
8
BLACK
6
CONTINUOUS
10
0.384009
20
0.213711
11
0.381197
21
0.216523
0
LINE
8
BLACK
6
CONTINUOUS
10
0.381197
20
0.216523
11
0.38069
21
0.217247
0
LINE
8
BLACK
6
CONTINUOUS
10
0.38069
20
0.217247
11
0.380644
21
0.217291
0
LINE
8
BLACK
6
CONTINUOUS
10
0.380644
20
0.217291
11
0.377831
21
0.222915
0
LINE
8
BLACK
6
CONTINUOUS
10
0.377831
20
0.222915
11
0.377686
21
0.223404
0
LINE
8
BLACK
6
CONTINUOUS
10
0.377686
20
0.223404
11
0.377608
21
0.22352
0
LINE
8
BLACK
6
CONTINUOUS
10
0.377608
20
0.22352
11
0.374796
21
0.234768
0
LINE
8
BLACK
6
CONTINUOUS
10
0.374796
20
0.234768
11
0.374754
21
0.235356
0
LINE
8
BLACK
6
CONTINUOUS
10
0.374754
20
0.235356
11
0.374708
21
0.235484
0
LINE
8
BLACK
6
CONTINUOUS
10
0.374708
20
0.235484
11
0.374708
21
0.249545
0
LINE
8
BLACK
6
CONTINUOUS
10
0.374708
20
0.249545
11
0.37481
21
0.250125
0
LINE
8
BLACK
6
CONTINUOUS
10
0.37481
20
0.250125
11
0.374796
21
0.250261
0
LINE
8
BLACK
6
CONTINUOUS
10
0.374796
20
0.250261
11
0.377608
21
0.26151
0
LINE
8
BLACK
6
CONTINUOUS
10
0.377608
20
0.26151
11
0.377815
21
0.261975
0
LINE
8
BLACK
6
CONTINUOUS
10
0.377815
20
0.261975
11
0.377831
21
0.262114
0
LINE
8
BLACK
6
CONTINUOUS
10
0.377831
20
0.262114
11
0.380644
21
0.267738
0
LINE
8
BLACK
6
CONTINUOUS
10
0.380644
20
0.267738
11
0.381169
21
0.268448
0
LINE
8
BLACK
6
CONTINUOUS
10
0.381169
20
0.268448
11
0.381197
21
0.268506
0
LINE
8
BLACK
6
CONTINUOUS
10
0.381197
20
0.268506
11
0.384009
21
0.271318
0
LINE
8
BLACK
6
CONTINUOUS
10
0.384009
20
0.271318
11
0.384732
21
0.271824
0
LINE
8
BLACK
6
CONTINUOUS
10
0.384732
20
0.271824
11
0.384776
21
0.271871
0
LINE
8
BLACK
6
CONTINUOUS
10
0.384776
20
0.271871
11
0.390401
21
0.274683
0
LINE
8
BLACK
6
CONTINUOUS
10
0.390401
20
0.274683
11
0.391383
21
0.274976
0
LINE
8
BLACK
6
CONTINUOUS
10
0.391383
20
0.274976
11
0.391555
21
0.274935
0
LINE
8
BLACK
6
CONTINUOUS
10
0.391555
20
0.274935
11
0.391721
21
0.274995
0
LINE
8
BLACK
6
CONTINUOUS
10
0.391721
20
0.274995
11
0.397345
21
0.274995
0
LINE
8
BLACK
6
CONTINUOUS
10
0.397345
20
0.274995
11
0.398355
21
0.274817
0
LINE
8
BLACK
6
CONTINUOUS
10
0.387846
20
0.266803
11
0.385711
21
0.264669
0
LINE
8
BLACK
6
CONTINUOUS
10
0.385711
20
0.264669
11
0.383258
21
0.259763
0
LINE
8
BLACK
6
CONTINUOUS
10
0.383258
20
0.259763
11
0.380613
21
0.249181
0
LINE
8
BLACK
6
CONTINUOUS
10
0.380613
20
0.249181
11
0.380613
21
0.235848
0
LINE
8
BLACK
6
CONTINUOUS
10
0.380613
20
0.235848
11
0.383258
21
0.225266
0
LINE
8
BLACK
6
CONTINUOUS
10
0.383258
20
0.225266
11
0.385711
21
0.220361
0
LINE
8
BLACK
6
CONTINUOUS
10
0.385711
20
0.220361
11
0.387846
21
0.218226
0
LINE
8
BLACK
6
CONTINUOUS
10
0.387846
20
0.218226
11
0.392418
21
0.21594
0
LINE
8
BLACK
6
CONTINUOUS
10
0.392418
20
0.21594
11
0.396648
21
0.21594
0
LINE
8
BLACK
6
CONTINUOUS
10
0.396648
20
0.21594
11
0.401221
21
0.218226
0
LINE
8
BLACK
6
CONTINUOUS
10
0.401221
20
0.218226
11
0.403355
21
0.22036
0
LINE
8
BLACK
6
CONTINUOUS
10
0.403355
20
0.22036
11
0.405808
21
0.225266
0
LINE
8
BLACK
6
CONTINUOUS
10
0.405808
20
0.225266
11
0.408453
21
0.235848
0
LINE
8
BLACK
6
CONTINUOUS
10
0.408453
20
0.235848
11
0.408453
21
0.249181
0
LINE
8
BLACK
6
CONTINUOUS
10
0.408453
20
0.249181
11
0.405808
21
0.259763
0
LINE
8
BLACK
6
CONTINUOUS
10
0.405808
20
0.259763
11
0.403355
21
0.264669
0
LINE
8
BLACK
6
CONTINUOUS
10
0.403355
20
0.264669
11
0.401221
21
0.266803
0
LINE
8
BLACK
6
CONTINUOUS
10
0.401221
20
0.266803
11
0.396648
21
0.269089
0
LINE
8
BLACK
6
CONTINUOUS
10
0.396648
20
0.269089
11
0.392418
21
0.269089
0
LINE
8
BLACK
6
CONTINUOUS
10
0.392418
20
0.269089
11
0.387846
21
0.266803
0
LINE
8
BLACK
6
CONTINUOUS
10
0.465847
20
0.274817
11
0.467394
21
0.273519
0
LINE
8
BLACK
6
CONTINUOUS
10
0.467394
20
0.273519
11
0.467745
21
0.271529
0
LINE
8
BLACK
6
CONTINUOUS
10
0.467745
20
0.271529
11
0.466735
21
0.26978
0
LINE
8
BLACK
6
CONTINUOUS
10
0.466735
20
0.26978
11
0.464837
21
0.269089
0
LINE
8
BLACK
6
CONTINUOUS
10
0.464837
20
0.269089
11
0.439388
21
0.269089
0
LINE
8
BLACK
6
CONTINUOUS
10
0.439388
20
0.269089
11
0.437522
21
0.250438
0
LINE
8
BLACK
6
CONTINUOUS
10
0.437522
20
0.250438
11
0.441019
21
0.252186
0
LINE
8
BLACK
6
CONTINUOUS
10
0.441019
20
0.252186
11
0.442002
21
0.252478
0
LINE
8
BLACK
6
CONTINUOUS
10
0.442002
20
0.252478
11
0.442174
21
0.252437
0
LINE
8
BLACK
6
CONTINUOUS
10
0.442174
20
0.252437
11
0.44234
21
0.252498
0
LINE
8
BLACK
6
CONTINUOUS
10
0.44234
20
0.252498
11
0.4564
21
0.252498
0
LINE
8
BLACK
6
CONTINUOUS
10
0.4564
20
0.252498
11
0.45741
21
0.25232
0
LINE
8
BLACK
6
CONTINUOUS
10
0.45741
20
0.25232
11
0.457546
21
0.252206
0
LINE
8
BLACK
6
CONTINUOUS
10
0.457546
20
0.252206
11
0.457721
21
0.252186
0
LINE
8
BLACK
6
CONTINUOUS
10
0.457721
20
0.252186
11
0.463345
21
0.249374
0
LINE
8
BLACK
6
CONTINUOUS
10
0.463345
20
0.249374
11
0.464054
21
0.248848
0
LINE
8
BLACK
6
CONTINUOUS
10
0.464054
20
0.248848
11
0.464113
21
0.248821
0
LINE
8
BLACK
6
CONTINUOUS
10
0.464113
20
0.248821
11
0.466925
21
0.246009
0
LINE
8
BLACK
6
CONTINUOUS
10
0.466925
20
0.246009
11
0.467431
21
0.245285
0
LINE
8
BLACK
6
CONTINUOUS
10
0.467431
20
0.245285
11
0.467478
21
0.245241
0
LINE
8
BLACK
6
CONTINUOUS
10
0.467478
20
0.245241
11
0.47029
21
0.239617
0
LINE
8
BLACK
6
CONTINUOUS
10
0.47029
20
0.239617
11
0.470582
21
0.238634
0
LINE
8
BLACK
6
CONTINUOUS
10
0.470582
20
0.238634
11
0.470541
21
0.238462
0
LINE
8
BLACK
6
CONTINUOUS
10
0.470541
20
0.238462
11
0.470602
21
0.238296
0
LINE
8
BLACK
6
CONTINUOUS
10
0.470602
20
0.238296
11
0.470602
21
0.224236
0
LINE
8
BLACK
6
CONTINUOUS
10
0.470602
20
0.224236
11
0.470424
21
0.223226
0
LINE
8
BLACK
6
CONTINUOUS
10
0.470424
20
0.223226
11
0.47031
21
0.223091
0
LINE
8
BLACK
6
CONTINUOUS
10
0.47031
20
0.223091
11
0.47029
21
0.222915
0
LINE
8
BLACK
6
CONTINUOUS
10
0.47029
20
0.222915
11
0.467478
21
0.217291
0
LINE
8
BLACK
6
CONTINUOUS
10
0.467478
20
0.217291
11
0.466952
21
0.216582
0
LINE
8
BLACK
6
CONTINUOUS
10
0.466952
20
0.216582
11
0.466925
21
0.216523
0
LINE
8
BLACK
6
CONTINUOUS
10
0.466925
20
0.216523
11
0.464113
21
0.213711
0
LINE
8
BLACK
6
CONTINUOUS
10
0.464113
20
0.213711
11
0.46339
21
0.213205
0
LINE
8
BLACK
6
CONTINUOUS
10
0.46339
20
0.213205
11
0.463345
21
0.213158
0
LINE
8
BLACK
6
CONTINUOUS
10
0.463345
20
0.213158
11
0.457721
21
0.210346
0
LINE
8
BLACK
6
CONTINUOUS
10
0.457721
20
0.210346
11
0.456738
21
0.210054
0
LINE
8
BLACK
6
CONTINUOUS
10
0.456738
20
0.210054
11
0.456566
21
0.210095
0
LINE
8
BLACK
6
CONTINUOUS
10
0.456566
20
0.210095
11
0.4564
21
0.210034
0
LINE
8
BLACK
6
CONTINUOUS
10
0.4564
20
0.210034
11
0.44234
21
0.210034
0
LINE
8
BLACK
6
CONTINUOUS
10
0.44234
20
0.210034
11
0.44133
21
0.210212
0
LINE
8
BLACK
6
CONTINUOUS
10
0.44133
20
0.210212
11
0.441195
21
0.210326
0
LINE
8
BLACK
6
CONTINUOUS
10
0.441195
20
0.210326
11
0.441019
21
0.210346
0
LINE
8
BLACK
6
CONTINUOUS
10
0.441019
20
0.210346
11
0.435395
21
0.213158
0
LINE
8
BLACK
6
CONTINUOUS
10
0.435395
20
0.213158
11
0.434686
21
0.213684
0
LINE
8
BLACK
6
CONTINUOUS
10
0.434686
20
0.213684
11
0.434627
21
0.213711
0
LINE
8
BLACK
6
CONTINUOUS
10
0.434627
20
0.213711
11
0.431815
21
0.216523
0
LINE
8
BLACK
6
CONTINUOUS
10
0.431815
20
0.216523
11
0.431227
21
0.217364
0
LINE
8
BLACK
6
CONTINUOUS
10
0.431227
20
0.217364
11
0.431051
21
0.219376
0
LINE
8
BLACK
6
CONTINUOUS
10
0.431051
20
0.219376
11
0.43221
21
0.22103
0
LINE
8
BLACK
6
CONTINUOUS
10
0.43221
20
0.22103
11
0.434161
21
0.221553
0
LINE
8
BLACK
6
CONTINUOUS
10
0.434161
20
0.221553
11
0.435991
21
0.220699
0
LINE
8
BLACK
6
CONTINUOUS
10
0.435991
20
0.220699
11
0.438464
21
0.218226
0
LINE
8
BLACK
6
CONTINUOUS
10
0.438464
20
0.218226
11
0.443037
21
0.21594
0
LINE
8
BLACK
6
CONTINUOUS
10
0.443037
20
0.21594
11
0.455703
21
0.21594
0
LINE
8
BLACK
6
CONTINUOUS
10
0.455703
20
0.21594
11
0.460276
21
0.218226
0
LINE
8
BLACK
6
CONTINUOUS
10
0.460276
20
0.218226
11
0.46241
21
0.22036
0
LINE
8
BLACK
6
CONTINUOUS
10
0.46241
20
0.22036
11
0.464696
21
0.224933
0
LINE
8
BLACK
6
CONTINUOUS
10
0.464696
20
0.224933
11
0.464696
21
0.237599
0
LINE
8
BLACK
6
CONTINUOUS
10
0.464696
20
0.237599
11
0.46241
21
0.242172
0
LINE
8
BLACK
6
CONTINUOUS
10
0.46241
20
0.242172
11
0.460276
21
0.244306
0
LINE
8
BLACK
6
CONTINUOUS
10
0.460276
20
0.244306
11
0.455703
21
0.246592
0
LINE
8
BLACK
6
CONTINUOUS
10
0.455703
20
0.246592
11
0.443037
21
0.246592
0
LINE
8
BLACK
6
CONTINUOUS
10
0.443037
20
0.246592
11
0.438464
21
0.244306
0
LINE
8
BLACK
6
CONTINUOUS
10
0.438464
20
0.244306
11
0.435991
21
0.241833
0
LINE
8
BLACK
6
CONTINUOUS
10
0.435991
20
0.241833
11
0.435151
21
0.241245
0
LINE
8
BLACK
6
CONTINUOUS
10
0.435151
20
0.241245
11
0.435132
21
0.241243
0
LINE
8
BLACK
6
CONTINUOUS
10
0.435132
20
0.241243
11
0.435118
21
0.241229
0
LINE
8
BLACK
6
CONTINUOUS
10
0.435118
20
0.241229
11
0.434127
21
0.241155
0
LINE
8
BLACK
6
CONTINUOUS
10
0.434127
20
0.241155
11
0.433139
21
0.241069
0
LINE
8
BLACK
6
CONTINUOUS
10
0.433139
20
0.241069
11
0.433123
21
0.24108
0
LINE
8
BLACK
6
CONTINUOUS
10
0.433123
20
0.24108
11
0.433104
21
0.241078
0
LINE
8
BLACK
6
CONTINUOUS
10
0.433104
20
0.241078
11
0.432298
21
0.241657
0
LINE
8
BLACK
6
CONTINUOUS
10
0.432298
20
0.241657
11
0.431484
21
0.242227
0
LINE
8
BLACK
6
CONTINUOUS
10
0.431484
20
0.242227
11
0.431479
21
0.242246
0
LINE
8
BLACK
6
CONTINUOUS
10
0.431479
20
0.242246
11
0.431464
21
0.242257
0
LINE
8
BLACK
6
CONTINUOUS
10
0.431464
20
0.242257
11
0.431219
21
0.243219
0
LINE
8
BLACK
6
CONTINUOUS
10
0.431219
20
0.243219
11
0.430962
21
0.244178
0
LINE
8
BLACK
6
CONTINUOUS
10
0.430962
20
0.244178
11
0.43097
21
0.244196
0
LINE
8
BLACK
6
CONTINUOUS
10
0.43097
20
0.244196
11
0.430965
21
0.244215
0
LINE
8
BLACK
6
CONTINUOUS
10
0.430965
20
0.244215
11
0.433777
21
0.272336
0
LINE
8
BLACK
6
CONTINUOUS
10
0.433777
20
0.272336
11
0.43382
21
0.272486
0
LINE
8
BLACK
6
CONTINUOUS
10
0.43382
20
0.272486
11
0.433807
21
0.272555
0
LINE
8
BLACK
6
CONTINUOUS
10
0.433807
20
0.272555
11
0.433869
21
0.272661
0
LINE
8
BLACK
6
CONTINUOUS
10
0.433869
20
0.272661
11
0.434055
21
0.273323
0
LINE
8
BLACK
6
CONTINUOUS
10
0.434055
20
0.273323
11
0.434504
21
0.273761
0
LINE
8
BLACK
6
CONTINUOUS
10
0.434504
20
0.273761
11
0.434817
21
0.274304
0
LINE
8
BLACK
6
CONTINUOUS
10
0.434817
20
0.274304
11
0.435205
21
0.274445
0
LINE
8
BLACK
6
CONTINUOUS
10
0.435205
20
0.274445
11
0.435501
21
0.274734
0
LINE
8
BLACK
6
CONTINUOUS
10
0.435501
20
0.274734
11
0.436126
21
0.274781
0
LINE
8
BLACK
6
CONTINUOUS
10
0.436126
20
0.274781
11
0.436715
21
0.274995
0
LINE
8
BLACK
6
CONTINUOUS
10
0.436715
20
0.274995
11
0.464837
21
0.274995
0
LINE
8
BLACK
6
CONTINUOUS
10
0.464837
20
0.274995
11
0.465847
21
0.274817
0
LINE
8
BLACK
6
CONTINUOUS
10
0.759562
20
0.27394
11
0.760253
21
0.272042
0
LINE
8
BLACK
6
CONTINUOUS
10
0.760253
20
0.272042
11
0.760253
21
0.21594
0
LINE
8
BLACK
6
CONTINUOUS
10
0.760253
20
0.21594
11
0.785422
21
0.21594
0
LINE
8
BLACK
6
CONTINUOUS
10
0.785422
20
0.21594
11
0.786432
21
0.215762
0
LINE
8
BLACK
6
CONTINUOUS
10
0.786432
20
0.215762
11
0.787979
21
0.214463
0
LINE
8
BLACK
6
CONTINUOUS
10
0.787979
20
0.214463
11
0.78833
21
0.212474
0
LINE
8
BLACK
6
CONTINUOUS
10
0.78833
20
0.212474
11
0.78732
21
0.210725
0
LINE
8
BLACK
6
CONTINUOUS
10
0.78732
20
0.210725
11
0.785422
21
0.210034
0
LINE
8
BLACK
6
CONTINUOUS
10
0.785422
20
0.210034
11
0.7573
21
0.210034
0
LINE
8
BLACK
6
CONTINUOUS
10
0.7573
20
0.210034
11
0.756917
21
0.210102
0
LINE
8
BLACK
6
CONTINUOUS
10
0.756917
20
0.210102
11
0.756788
21
0.210079
0
LINE
8
BLACK
6
CONTINUOUS
10
0.756788
20
0.210079
11
0.756674
21
0.210145
0
LINE
8
BLACK
6
CONTINUOUS
10
0.756674
20
0.210145
11
0.75629
21
0.210212
0
LINE
8
BLACK
6
CONTINUOUS
10
0.75629
20
0.210212
11
0.755703
21
0.210706
0
LINE
8
BLACK
6
CONTINUOUS
10
0.755703
20
0.210706
11
0.755038
21
0.211089
0
LINE
8
BLACK
6
CONTINUOUS
10
0.755038
20
0.211089
11
0.754947
21
0.211339
0
LINE
8
BLACK
6
CONTINUOUS
10
0.754947
20
0.211339
11
0.754743
21
0.211511
0
LINE
8
BLACK
6
CONTINUOUS
10
0.754743
20
0.211511
11
0.75461
21
0.212266
0
LINE
8
BLACK
6
CONTINUOUS
10
0.75461
20
0.212266
11
0.754348
21
0.212987
0
LINE
8
BLACK
6
CONTINUOUS
10
0.754348
20
0.212987
11
0.754348
21
0.272042
0
LINE
8
BLACK
6
CONTINUOUS
10
0.754348
20
0.272042
11
0.754526
21
0.273052
0
LINE
8
BLACK
6
CONTINUOUS
10
0.754526
20
0.273052
11
0.755824
21
0.274599
0
LINE
8
BLACK
6
CONTINUOUS
10
0.755824
20
0.274599
11
0.757813
21
0.27495
0
LINE
8
BLACK
6
CONTINUOUS
10
0.757813
20
0.27495
11
0.759562
21
0.27394
0
LINE
8
BLACK
6
CONTINUOUS
10
0.807369
20
0.27394
11
0.80806
21
0.272042
0
LINE
8
BLACK
6
CONTINUOUS
10
0.80806
20
0.272042
11
0.80806
21
0.21594
0
LINE
8
BLACK
6
CONTINUOUS
10
0.80806
20
0.21594
11
0.833228
21
0.21594
0
LINE
8
BLACK
6
CONTINUOUS
10
0.833228
20
0.21594
11
0.834238
21
0.215762
0
LINE
8
BLACK
6
CONTINUOUS
10
0.834238
20
0.215762
11
0.835785
21
0.214463
0
LINE
8
BLACK
6
CONTINUOUS
10
0.835785
20
0.214463
11
0.836136
21
0.212474
0
LINE
8
BLACK
6
CONTINUOUS
10
0.836136
20
0.212474
11
0.835126
21
0.210725
0
LINE
8
BLACK
6
CONTINUOUS
10
0.835126
20
0.210725
11
0.833228
21
0.210034
0
LINE
8
BLACK
6
CONTINUOUS
10
0.833228
20
0.210034
11
0.805107
21
0.210034
0
LINE
8
BLACK
6
CONTINUOUS
10
0.805107
20
0.210034
11
0.804723
21
0.210102
0
LINE
8
BLACK
6
CONTINUOUS
10
0.804723
20
0.210102
11
0.804594
21
0.210079
0
LINE
8
BLACK
6
CONTINUOUS
10
0.804594
20
0.210079
11
0.80448
21
0.210145
0
LINE
8
BLACK
6
CONTINUOUS
10
0.80448
20
0.210145
11
0.804097
21
0.210212
0
LINE
8
BLACK
6
CONTINUOUS
10
0.804097
20
0.210212
11
0.803509
21
0.210706
0
LINE
8
BLACK
6
CONTINUOUS
10
0.803509
20
0.210706
11
0.802845
21
0.211089
0
LINE
8
BLACK
6
CONTINUOUS
10
0.802845
20
0.211089
11
0.802754
21
0.211339
0
LINE
8
BLACK
6
CONTINUOUS
10
0.802754
20
0.211339
11
0.80255
21
0.211511
0
LINE
8
BLACK
6
CONTINUOUS
10
0.80255
20
0.211511
11
0.802416
21
0.212266
0
LINE
8
BLACK
6
CONTINUOUS
10
0.802416
20
0.212266
11
0.802154
21
0.212987
0
LINE
8
BLACK
6
CONTINUOUS
10
0.802154
20
0.212987
11
0.802154
21
0.272042
0
LINE
8
BLACK
6
CONTINUOUS
10
0.802154
20
0.272042
11
0.802332
21
0.273052
0
LINE
8
BLACK
6
CONTINUOUS
10
0.802332
20
0.273052
11
0.80363
21
0.274599
0
LINE
8
BLACK
6
CONTINUOUS
10
0.80363
20
0.274599
11
0.80562
21
0.27495
0
LINE
8
BLACK
6
CONTINUOUS
10
0.80562
20
0.27495
11
0.807369
21
0.27394
0
LINE
8
BLACK
6
CONTINUOUS
10
0.882045
20
0.274817
11
0.883592
21
0.273519
0
LINE
8
BLACK
6
CONTINUOUS
10
0.883592
20
0.273519
11
0.883943
21
0.271529
0
LINE
8
BLACK
6
CONTINUOUS
10
0.883943
20
0.271529
11
0.882933
21
0.26978
0
LINE
8
BLACK
6
CONTINUOUS
10
0.882933
20
0.26978
11
0.881035
21
0.269089
0
LINE
8
BLACK
6
CONTINUOUS
10
0.881035
20
0.269089
11
0.855866
21
0.269089
0
LINE
8
BLACK
6
CONTINUOUS
10
0.855866
20
0.269089
11
0.855866
21
0.246873
0
LINE
8
BLACK
6
CONTINUOUS
10
0.855866
20
0.246873
11
0.872598
21
0.246873
0
LINE
8
BLACK
6
CONTINUOUS
10
0.872598
20
0.246873
11
0.873608
21
0.246695
0
LINE
8
BLACK
6
CONTINUOUS
10
0.873608
20
0.246695
11
0.875156
21
0.245397
0
LINE
8
BLACK
6
CONTINUOUS
10
0.875156
20
0.245397
11
0.875506
21
0.243408
0
LINE
8
BLACK
6
CONTINUOUS
10
0.875506
20
0.243408
11
0.874496
21
0.241659
0
LINE
8
BLACK
6
CONTINUOUS
10
0.874496
20
0.241659
11
0.872598
21
0.240968
0
LINE
8
BLACK
6
CONTINUOUS
10
0.872598
20
0.240968
11
0.855866
21
0.240968
0
LINE
8
BLACK
6
CONTINUOUS
10
0.855866
20
0.240968
11
0.855866
21
0.21594
0
LINE
8
BLACK
6
CONTINUOUS
10
0.855866
20
0.21594
11
0.881035
21
0.21594
0
LINE
8
BLACK
6
CONTINUOUS
10
0.881035
20
0.21594
11
0.882045
21
0.215762
0
LINE
8
BLACK
6
CONTINUOUS
10
0.882045
20
0.215762
11
0.883592
21
0.214463
0
LINE
8
BLACK
6
CONTINUOUS
10
0.883592
20
0.214463
11
0.883943
21
0.212474
0
LINE
8
BLACK
6
CONTINUOUS
10
0.883943
20
0.212474
11
0.882933
21
0.210725
0
LINE
8
BLACK
6
CONTINUOUS
10
0.882933
20
0.210725
11
0.881035
21
0.210034
0
LINE
8
BLACK
6
CONTINUOUS
10
0.881035
20
0.210034
11
0.852913
21
0.210034
0
LINE
8
BLACK
6
CONTINUOUS
10
0.852913
20
0.210034
11
0.85253
21
0.210102
0
LINE
8
BLACK
6
CONTINUOUS
10
0.85253
20
0.210102
11
0.852401
21
0.210079
0
LINE
8
BLACK
6
CONTINUOUS
10
0.852401
20
0.210079
11
0.852287
21
0.210145
0
LINE
8
BLACK
6
CONTINUOUS
10
0.852287
20
0.210145
11
0.851903
21
0.210212
0
LINE
8
BLACK
6
CONTINUOUS
10
0.851903
20
0.210212
11
0.851316
21
0.210706
0
LINE
8
BLACK
6
CONTINUOUS
10
0.851316
20
0.210706
11
0.850651
21
0.211089
0
LINE
8
BLACK
6
CONTINUOUS
10
0.850651
20
0.211089
11
0.85056
21
0.211339
0
LINE
8
BLACK
6
CONTINUOUS
10
0.85056
20
0.211339
11
0.850356
21
0.211511
0
LINE
8
BLACK
6
CONTINUOUS
10
0.850356
20
0.211511
11
0.850223
21
0.212266
0
LINE
8
BLACK
6
CONTINUOUS
10
0.850223
20
0.212266
11
0.849961
21
0.212987
0
LINE
8
BLACK
6
CONTINUOUS
10
0.849961
20
0.212987
11
0.849961
21
0.272042
0
LINE
8
BLACK
6
CONTINUOUS
10
0.849961
20
0.272042
11
0.850028
21
0.272426
0
LINE
8
BLACK
6
CONTINUOUS
10
0.850028
20
0.272426
11
0.850005
21
0.272555
0
LINE
8
BLACK
6
CONTINUOUS
10
0.850005
20
0.272555
11
0.850071
21
0.272669
0
LINE
8
BLACK
6
CONTINUOUS
10
0.850071
20
0.272669
11
0.850139
21
0.273052
0
LINE
8
BLACK
6
CONTINUOUS
10
0.850139
20
0.273052
11
0.850632
21
0.27364
0
LINE
8
BLACK
6
CONTINUOUS
10
0.850632
20
0.27364
11
0.851015
21
0.274304
0
LINE
8
BLACK
6
CONTINUOUS
10
0.851015
20
0.274304
11
0.851266
21
0.274395
0
LINE
8
BLACK
6
CONTINUOUS
10
0.851266
20
0.274395
11
0.851437
21
0.274599
0
LINE
8
BLACK
6
CONTINUOUS
10
0.851437
20
0.274599
11
0.852193
21
0.274733
0
LINE
8
BLACK
6
CONTINUOUS
10
0.852193
20
0.274733
11
0.852913
21
0.274995
0
LINE
8
BLACK
6
CONTINUOUS
10
0.852913
20
0.274995
11
0.881035
21
0.274995
0
LINE
8
BLACK
6
CONTINUOUS
10
0.881035
20
0.274995
11
0.882045
21
0.274817
0
LINE
8
BLACK
6
CONTINUOUS
10
0.908606
20
0.27394
11
0.909297
21
0.272042
0
LINE
8
BLACK
6
CONTINUOUS
10
0.909297
20
0.272042
11
0.909297
21
0.21594
0
LINE
8
BLACK
6
CONTINUOUS
10
0.909297
20
0.21594
11
0.934466
21
0.21594
0
LINE
8
BLACK
6
CONTINUOUS
10
0.934466
20
0.21594
11
0.935476
21
0.215762
0
LINE
8
BLACK
6
CONTINUOUS
10
0.935476
20
0.215762
11
0.937023
21
0.214463
0
LINE
8
BLACK
6
CONTINUOUS
10
0.937023
20
0.214463
11
0.937374
21
0.212474
0
LINE
8
BLACK
6
CONTINUOUS
10
0.937374
20
0.212474
11
0.936364
21
0.210725
0
LINE
8
BLACK
6
CONTINUOUS
10
0.936364
20
0.210725
11
0.934466
21
0.210034
0
LINE
8
BLACK
6
CONTINUOUS
10
0.934466
20
0.210034
11
0.906344
21
0.210034
0
LINE
8
BLACK
6
CONTINUOUS
10
0.906344
20
0.210034
11
0.905961
21
0.210102
0
LINE
8
BLACK
6
CONTINUOUS
10
0.905961
20
0.210102
11
0.905831
21
0.210079
0
LINE
8
BLACK
6
CONTINUOUS
10
0.905831
20
0.210079
11
0.905718
21
0.210145
0
LINE
8
BLACK
6
CONTINUOUS
10
0.905718
20
0.210145
11
0.905334
21
0.210212
0
LINE
8
BLACK
6
CONTINUOUS
10
0.905334
20
0.210212
11
0.904747
21
0.210706
0
LINE
8
BLACK
6
CONTINUOUS
10
0.904747
20
0.210706
11
0.904082
21
0.211089
0
LINE
8
BLACK
6
CONTINUOUS
10
0.904082
20
0.211089
11
0.903991
21
0.211339
0
LINE
8
BLACK
6
CONTINUOUS
10
0.903991
20
0.211339
11
0.903787
21
0.211511
0
LINE
8
BLACK
6
CONTINUOUS
10
0.903787
20
0.211511
11
0.903654
21
0.212266
0
LINE
8
BLACK
6
CONTINUOUS
10
0.903654
20
0.212266
11
0.903391
21
0.212987
0
LINE
8
BLACK
6
CONTINUOUS
10
0.903391
20
0.212987
11
0.903391
21
0.272042
0
LINE
8
BLACK
6
CONTINUOUS
10
0.903391
20
0.272042
11
0.903569
21
0.273052
0
LINE
8
BLACK
6
CONTINUOUS
10
0.903569
20
0.273052
11
0.904868
21
0.274599
0
LINE
8
BLACK
6
CONTINUOUS
10
0.904868
20
0.274599
11
0.906857
21
0.27495
0
LINE
8
BLACK
6
CONTINUOUS
10
0.906857
20
0.27495
11
0.908606
21
0.27394
0
LINE
8
BLACK
6
CONTINUOUS
10
0.360175
20
0.254327
11
0.360926
21
0.252452
0
LINE
8
BLACK
6
CONTINUOUS
10
0.360926
20
0.252452
11
0.360297
21
0.250533
0
LINE
8
BLACK
6
CONTINUOUS
10
0.360297
20
0.250533
11
0.346264
21
0.232672
0
LINE
8
BLACK
6
CONTINUOUS
10
0.346264
20
0.232672
11
0.360297
21
0.214811
0
LINE
8
BLACK
6
CONTINUOUS
10
0.360297
20
0.214811
11
0.360781
21
0.213907
0
LINE
8
BLACK
6
CONTINUOUS
10
0.360781
20
0.213907
11
0.360716
21
0.211888
0
LINE
8
BLACK
6
CONTINUOUS
10
0.360716
20
0.211888
11
0.359369
21
0.210384
0
LINE
8
BLACK
6
CONTINUOUS
10
0.359369
20
0.210384
11
0.357369
21
0.210097
0
LINE
8
BLACK
6
CONTINUOUS
10
0.357369
20
0.210097
11
0.355653
21
0.211163
0
LINE
8
BLACK
6
CONTINUOUS
10
0.355653
20
0.211163
11
0.342508
21
0.227893
0
LINE
8
BLACK
6
CONTINUOUS
10
0.342508
20
0.227893
11
0.329363
21
0.211163
0
LINE
8
BLACK
6
CONTINUOUS
10
0.329363
20
0.211163
11
0.328599
21
0.210479
0
LINE
8
BLACK
6
CONTINUOUS
10
0.328599
20
0.210479
11
0.326623
21
0.210064
0
LINE
8
BLACK
6
CONTINUOUS
10
0.326623
20
0.210064
11
0.324842
21
0.211017
0
LINE
8
BLACK
6
CONTINUOUS
10
0.324842
20
0.211017
11
0.32409
21
0.212892
0
LINE
8
BLACK
6
CONTINUOUS
10
0.32409
20
0.212892
11
0.32472
21
0.214811
0
LINE
8
BLACK
6
CONTINUOUS
10
0.32472
20
0.214811
11
0.338753
21
0.232672
0
LINE
8
BLACK
6
CONTINUOUS
10
0.338753
20
0.232672
11
0.32472
21
0.250533
0
LINE
8
BLACK
6
CONTINUOUS
10
0.32472
20
0.250533
11
0.324236
21
0.251437
0
LINE
8
BLACK
6
CONTINUOUS
10
0.324236
20
0.251437
11
0.324301
21
0.253456
0
LINE
8
BLACK
6
CONTINUOUS
10
0.324301
20
0.253456
11
0.325648
21
0.254961
0
LINE
8
BLACK
6
CONTINUOUS
10
0.325648
20
0.254961
11
0.327648
21
0.255247
0
LINE
8
BLACK
6
CONTINUOUS
10
0.327648
20
0.255247
11
0.329363
21
0.254181
0
LINE
8
BLACK
6
CONTINUOUS
10
0.329363
20
0.254181
11
0.342508
21
0.237451
0
LINE
8
BLACK
6
CONTINUOUS
10
0.342508
20
0.237451
11
0.355653
21
0.254181
0
LINE
8
BLACK
6
CONTINUOUS
10
0.355653
20
0.254181
11
0.356417
21
0.254866
0
LINE
8
BLACK
6
CONTINUOUS
10
0.356417
20
0.254866
11
0.358394
21
0.25528
0
LINE
8
BLACK
6
CONTINUOUS
10
0.358394
20
0.25528
11
0.360175
21
0.254327
0
LINE
8
BLACK
6
CONTINUOUS
10
0.0209991
20
0.274776
11
0.0219235
21
0.274639
0
LINE
8
BLACK
6
CONTINUOUS
10
0.0219235
20
0.274639
11
0.0219799
21
0.274575
0
LINE
8
BLACK
6
CONTINUOUS
10
0.0219799
20
0.274575
11
0.0220631
21
0.274558
0
LINE
8
BLACK
6
CONTINUOUS
10
0.0220631
20
0.274558
11
0.0226435
21
0.273827
0
LINE
8
BLACK
6
CONTINUOUS
10
0.0226435
20
0.273827
11
0.0232635
21
0.273128
0
LINE
8
BLACK
6
CONTINUOUS
10
0.0232635
20
0.273128
11
0.0232658
21
0.273043
0
LINE
8
BLACK
6
CONTINUOUS
10
0.0232658
20
0.273043
11
0.0233187
21
0.272976
0
LINE
8
BLACK
6
CONTINUOUS
10
0.0233187
20
0.272976
11
0.0430037
21
0.213921
0
LINE
8
BLACK
6
CONTINUOUS
10
0.0430037
20
0.213921
11
0.0431542
21
0.212906
0
LINE
8
BLACK
6
CONTINUOUS
10
0.0431542
20
0.212906
11
0.0424118
21
0.211028
0
LINE
8
BLACK
6
CONTINUOUS
10
0.0424118
20
0.211028
11
0.0406356
21
0.210066
0
LINE
8
BLACK
6
CONTINUOUS
10
0.0406356
20
0.210066
11
0.0386569
21
0.210471
0
LINE
8
BLACK
6
CONTINUOUS
10
0.0386569
20
0.210471
11
0.0374013
21
0.212053
0
LINE
8
BLACK
6
CONTINUOUS
10
0.0374013
20
0.212053
11
0.03245
21
0.226907
0
LINE
8
BLACK
6
CONTINUOUS
10
0.03245
20
0.226907
11
0.00858496
21
0.226907
0
LINE
8
BLACK
6
CONTINUOUS
10
0.00858496
20
0.226907
11
0.00363366
21
0.212053
0
LINE
8
BLACK
6
CONTINUOUS
10
0.00363366
20
0.212053
11
0.00314535
21
0.211152
0
LINE
8
BLACK
6
CONTINUOUS
10
0.00314535
20
0.211152
11
0.00142441
21
0.210094
0
LINE
8
BLACK
6
CONTINUOUS
10
0.00142441
20
0.210094
11
-0.000573583
21
0.210391
0
LINE
8
BLACK
6
CONTINUOUS
10
-0.000573583
20
0.210391
11
-0.00191362
21
0.211902
0
LINE
8
BLACK
6
CONTINUOUS
10
-0.00191362
20
0.211902
11
-0.00196878
21
0.213921
0
LINE
8
BLACK
6
CONTINUOUS
10
-0.00196878
20
0.213921
11
0.0177163
21
0.272976
0
LINE
8
BLACK
6
CONTINUOUS
10
0.0177163
20
0.272976
11
0.0182046
21
0.273878
0
LINE
8
BLACK
6
CONTINUOUS
10
0.0182046
20
0.273878
11
0.018277
21
0.273922
0
LINE
8
BLACK
6
CONTINUOUS
10
0.018277
20
0.273922
11
0.0183082
21
0.274001
0
LINE
8
BLACK
6
CONTINUOUS
10
0.0183082
20
0.274001
11
0.0191291
21
0.274446
0
LINE
8
BLACK
6
CONTINUOUS
10
0.0191291
20
0.274446
11
0.0199255
21
0.274935
0
LINE
8
BLACK
6
CONTINUOUS
10
0.0199255
20
0.274935
11
0.0200096
21
0.274923
0
LINE
8
BLACK
6
CONTINUOUS
10
0.0200096
20
0.274923
11
0.0200844
21
0.274963
0
LINE
8
BLACK
6
CONTINUOUS
10
0.0200844
20
0.274963
11
0.0209991
21
0.274776
0
LINE
8
BLACK
6
CONTINUOUS
10
0.0105535
20
0.232813
11
0.0304815
21
0.232813
0
LINE
8
BLACK
6
CONTINUOUS
10
0.0304815
20
0.232813
11
0.0205175
21
0.262705
0
LINE
8
BLACK
6
CONTINUOUS
10
0.0205175
20
0.262705
11
0.0105535
21
0.232813
0
LINE
8
BLACK
6
CONTINUOUS
10
0.608738
20
0.274776
11
0.609662
21
0.274639
0
LINE
8
BLACK
6
CONTINUOUS
10
0.609662
20
0.274639
11
0.609719
21
0.274575
0
LINE
8
BLACK
6
CONTINUOUS
10
0.609719
20
0.274575
11
0.609802
21
0.274558
0
LINE
8
BLACK
6
CONTINUOUS
10
0.609802
20
0.274558
11
0.610382
21
0.273827
0
LINE
8
BLACK
6
CONTINUOUS
10
0.610382
20
0.273827
11
0.611003
21
0.273128
0
LINE
8
BLACK
6
CONTINUOUS
10
0.611003
20
0.273128
11
0.611005
21
0.273043
0
LINE
8
BLACK
6
CONTINUOUS
10
0.611005
20
0.273043
11
0.611058
21
0.272976
0
LINE
8
BLACK
6
CONTINUOUS
10
0.611058
20
0.272976
11
0.630743
21
0.213921
0
LINE
8
BLACK
6
CONTINUOUS
10
0.630743
20
0.213921
11
0.630893
21
0.212906
0
LINE
8
BLACK
6
CONTINUOUS
10
0.630893
20
0.212906
11
0.630151
21
0.211028
0
LINE
8
BLACK
6
CONTINUOUS
10
0.630151
20
0.211028
11
0.628375
21
0.210066
0
LINE
8
BLACK
6
CONTINUOUS
10
0.628375
20
0.210066
11
0.626396
21
0.210471
0
LINE
8
BLACK
6
CONTINUOUS
10
0.626396
20
0.210471
11
0.62514
21
0.212053
0
LINE
8
BLACK
6
CONTINUOUS
10
0.62514
20
0.212053
11
0.620189
21
0.226907
0
LINE
8
BLACK
6
CONTINUOUS
10
0.620189
20
0.226907
11
0.596324
21
0.226907
0
LINE
8
BLACK
6
CONTINUOUS
10
0.596324
20
0.226907
11
0.591373
21
0.212053
0
LINE
8
BLACK
6
CONTINUOUS
10
0.591373
20
0.212053
11
0.590884
21
0.211152
0
LINE
8
BLACK
6
CONTINUOUS
10
0.590884
20
0.211152
11
0.589163
21
0.210094
0
LINE
8
BLACK
6
CONTINUOUS
10
0.589163
20
0.210094
11
0.587165
21
0.210391
0
LINE
8
BLACK
6
CONTINUOUS
10
0.587165
20
0.210391
11
0.585825
21
0.211902
0
LINE
8
BLACK
6
CONTINUOUS
10
0.585825
20
0.211902
11
0.58577
21
0.213921
0
LINE
8
BLACK
6
CONTINUOUS
10
0.58577
20
0.213921
11
0.605455
21
0.272976
0
LINE
8
BLACK
6
CONTINUOUS
10
0.605455
20
0.272976
11
0.605944
21
0.273878
0
LINE
8
BLACK
6
CONTINUOUS
10
0.605944
20
0.273878
11
0.606016
21
0.273922
0
LINE
8
BLACK
6
CONTINUOUS
10
0.606016
20
0.273922
11
0.606047
21
0.274001
0
LINE
8
BLACK
6
CONTINUOUS
10
0.606047
20
0.274001
11
0.606868
21
0.274446
0
LINE
8
BLACK
6
CONTINUOUS
10
0.606868
20
0.274446
11
0.607664
21
0.274935
0
LINE
8
BLACK
6
CONTINUOUS
10
0.607664
20
0.274935
11
0.607749
21
0.274923
0
LINE
8
BLACK
6
CONTINUOUS
10
0.607749
20
0.274923
11
0.607823
21
0.274963
0
LINE
8
BLACK
6
CONTINUOUS
10
0.607823
20
0.274963
11
0.608738
21
0.274776
0
LINE
8
BLACK
6
CONTINUOUS
10
0.598292
20
0.232813
11
0.61822
21
0.232813
0
LINE
8
BLACK
6
CONTINUOUS
10
0.61822
20
0.232813
11
0.608256
21
0.262705
0
LINE
8
BLACK
6
CONTINUOUS
10
0.608256
20
0.262705
11
0.598292
21
0.232813
0
LINE
8
BLACK
6
CONTINUOUS
10
0.718412
20
0.274776
11
0.719336
21
0.274639
0
LINE
8
BLACK
6
CONTINUOUS
10
0.719336
20
0.274639
11
0.719393
21
0.274575
0
LINE
8
BLACK
6
CONTINUOUS
10
0.719393
20
0.274575
11
0.719476
21
0.274558
0
LINE
8
BLACK
6
CONTINUOUS
10
0.719476
20
0.274558
11
0.720056
21
0.273827
0
LINE
8
BLACK
6
CONTINUOUS
10
0.720056
20
0.273827
11
0.720676
21
0.273128
0
LINE
8
BLACK
6
CONTINUOUS
10
0.720676
20
0.273128
11
0.720679
21
0.273043
0
LINE
8
BLACK
6
CONTINUOUS
10
0.720679
20
0.273043
11
0.720731
21
0.272976
0
LINE
8
BLACK
6
CONTINUOUS
10
0.720731
20
0.272976
11
0.740416
21
0.213921
0
LINE
8
BLACK
6
CONTINUOUS
10
0.740416
20
0.213921
11
0.740567
21
0.212906
0
LINE
8
BLACK
6
CONTINUOUS
10
0.740567
20
0.212906
11
0.739825
21
0.211028
0
LINE
8
BLACK
6
CONTINUOUS
10
0.739825
20
0.211028
11
0.738048
21
0.210066
0
LINE
8
BLACK
6
CONTINUOUS
10
0.738048
20
0.210066
11
0.73607
21
0.210471
0
LINE
8
BLACK
6
CONTINUOUS
10
0.73607
20
0.210471
11
0.734814
21
0.212053
0
LINE
8
BLACK
6
CONTINUOUS
10
0.734814
20
0.212053
11
0.729863
21
0.226907
0
LINE
8
BLACK
6
CONTINUOUS
10
0.729863
20
0.226907
11
0.705998
21
0.226907
0
LINE
8
BLACK
6
CONTINUOUS
10
0.705998
20
0.226907
11
0.701046
21
0.212053
0
LINE
8
BLACK
6
CONTINUOUS
10
0.701046
20
0.212053
11
0.700558
21
0.211152
0
LINE
8
BLACK
6
CONTINUOUS
10
0.700558
20
0.211152
11
0.698837
21
0.210094
0
LINE
8
BLACK
6
CONTINUOUS
10
0.698837
20
0.210094
11
0.696839
21
0.210391
0
LINE
8
BLACK
6
CONTINUOUS
10
0.696839
20
0.210391
11
0.695499
21
0.211902
0
LINE
8
BLACK
6
CONTINUOUS
10
0.695499
20
0.211902
11
0.695444
21
0.213921
0
LINE
8
BLACK
6
CONTINUOUS
10
0.695444
20
0.213921
11
0.715129
21
0.272976
0
LINE
8
BLACK
6
CONTINUOUS
10
0.715129
20
0.272976
11
0.715617
21
0.273878
0
LINE
8
BLACK
6
CONTINUOUS
10
0.715617
20
0.273878
11
0.71569
21
0.273922
0
LINE
8
BLACK
6
CONTINUOUS
10
0.71569
20
0.273922
11
0.715721
21
0.274001
0
LINE
8
BLACK
6
CONTINUOUS
10
0.715721
20
0.274001
11
0.716542
21
0.274446
0
LINE
8
BLACK
6
CONTINUOUS
10
0.716542
20
0.274446
11
0.717338
21
0.274935
0
LINE
8
BLACK
6
CONTINUOUS
10
0.717338
20
0.274935
11
0.717422
21
0.274923
0
LINE
8
BLACK
6
CONTINUOUS
10
0.717422
20
0.274923
11
0.717497
21
0.274963
0
LINE
8
BLACK
6
CONTINUOUS
10
0.717497
20
0.274963
11
0.718412
21
0.274776
0
LINE
8
BLACK
6
CONTINUOUS
10
0.707966
20
0.232813
11
0.727894
21
0.232813
0
LINE
8
BLACK
6
CONTINUOUS
10
0.727894
20
0.232813
11
0.71793
21
0.262705
0
LINE
8
BLACK
6
CONTINUOUS
10
0.71793
20
0.262705
11
0.707966
21
0.232813
0
LINE
8
BLACK
6
CONTINUOUS
10
-0.0700215
20
0.27394
11
-0.0693307
21
0.272042
0
LINE
8
BLACK
6
CONTINUOUS
10
-0.0693307
20
0.272042
11
-0.0693307
21
0.212987
0
LINE
8
BLACK
6
CONTINUOUS
10
-0.0693307
20
0.212987
11
-0.0695088
21
0.211977
0
LINE
8
BLACK
6
CONTINUOUS
10
-0.0695088
20
0.211977
11
-0.0708071
21
0.21043
0
LINE
8
BLACK
6
CONTINUOUS
10
-0.0708071
20
0.21043
11
-0.0727962
21
0.210079
0
LINE
8
BLACK
6
CONTINUOUS
10
-0.0727962
20
0.210079
11
-0.0745454
21
0.211089
0
LINE
8
BLACK
6
CONTINUOUS
10
-0.0745454
20
0.211089
11
-0.0752362
21
0.212987
0
LINE
8
BLACK
6
CONTINUOUS
10
-0.0752362
20
0.212987
11
-0.0752362
21
0.240968
0
LINE
8
BLACK
6
CONTINUOUS
10
-0.0752362
20
0.240968
11
-0.103076
21
0.240968
0
LINE
8
BLACK
6
CONTINUOUS
10
-0.103076
20
0.240968
11
-0.103076
21
0.212987
0
LINE
8
BLACK
6
CONTINUOUS
10
-0.103076
20
0.212987
11
-0.103255
21
0.211977
0
LINE
8
BLACK
6
CONTINUOUS
10
-0.103255
20
0.211977
11
-0.104553
21
0.21043
0
LINE
8
BLACK
6
CONTINUOUS
10
-0.104553
20
0.21043
11
-0.106542
21
0.210079
0
LINE
8
BLACK
6
CONTINUOUS
10
-0.106542
20
0.210079
11
-0.108291
21
0.211089
0
LINE
8
BLACK
6
CONTINUOUS
10
-0.108291
20
0.211089
11
-0.108982
21
0.212987
0
LINE
8
BLACK
6
CONTINUOUS
10
-0.108982
20
0.212987
11
-0.108982
21
0.272042
0
LINE
8
BLACK
6
CONTINUOUS
10
-0.108982
20
0.272042
11
-0.108804
21
0.273052
0
LINE
8
BLACK
6
CONTINUOUS
10
-0.108804
20
0.273052
11
-0.107506
21
0.274599
0
LINE
8
BLACK
6
CONTINUOUS
10
-0.107506
20
0.274599
11
-0.105516
21
0.27495
0
LINE
8
BLACK
6
CONTINUOUS
10
-0.105516
20
0.27495
11
-0.103767
21
0.27394
0
LINE
8
BLACK
6
CONTINUOUS
10
-0.103767
20
0.27394
11
-0.103076
21
0.272042
0
LINE
8
BLACK
6
CONTINUOUS
10
-0.103076
20
0.272042
11
-0.103076
21
0.246873
0
LINE
8
BLACK
6
CONTINUOUS
10
-0.103076
20
0.246873
11
-0.0752362
21
0.246873
0
LINE
8
BLACK
6
CONTINUOUS
10
-0.0752362
20
0.246873
11
-0.0752362
21
0.272042
0
LINE
8
BLACK
6
CONTINUOUS
10
-0.0752362
20
0.272042
11
-0.0750581
21
0.273052
0
LINE
8
BLACK
6
CONTINUOUS
10
-0.0750581
20
0.273052
11
-0.0737598
21
0.274599
0
LINE
8
BLACK
6
CONTINUOUS
10
-0.0737598
20
0.274599
11
-0.0717707
21
0.27495
0
LINE
8
BLACK
6
CONTINUOUS
10
-0.0717707
20
0.27495
11
-0.0700215
21
0.27394
0
LINE
8
BLACK
6
CONTINUOUS
10
0.195881
20
0.274817
11
0.196016
21
0.274703
0
LINE
8
BLACK
6
CONTINUOUS
10
0.196016
20
0.274703
11
0.196191
21
0.274683
0
LINE
8
BLACK
6
CONTINUOUS
10
0.196191
20
0.274683
11
0.201815
21
0.271871
0
LINE
8
BLACK
6
CONTINUOUS
10
0.201815
20
0.271871
11
0.202525
21
0.271345
0
LINE
8
BLACK
6
CONTINUOUS
10
0.202525
20
0.271345
11
0.202583
21
0.271318
0
LINE
8
BLACK
6
CONTINUOUS
10
0.202583
20
0.271318
11
0.205395
21
0.268506
0
LINE
8
BLACK
6
CONTINUOUS
10
0.205395
20
0.268506
11
0.205901
21
0.267783
0
LINE
8
BLACK
6
CONTINUOUS
10
0.205901
20
0.267783
11
0.205948
21
0.267738
0
LINE
8
BLACK
6
CONTINUOUS
10
0.205948
20
0.267738
11
0.20876
21
0.262114
0
LINE
8
BLACK
6
CONTINUOUS
10
0.20876
20
0.262114
11
0.209053
21
0.261131
0
LINE
8
BLACK
6
CONTINUOUS
10
0.209053
20
0.261131
11
0.209012
21
0.260959
0
LINE
8
BLACK
6
CONTINUOUS
10
0.209012
20
0.260959
11
0.209072
21
0.260794
0
LINE
8
BLACK
6
CONTINUOUS
10
0.209072
20
0.260794
11
0.209072
21
0.252357
0
LINE
8
BLACK
6
CONTINUOUS
10
0.209072
20
0.252357
11
0.208894
21
0.251347
0
LINE
8
BLACK
6
CONTINUOUS
10
0.208894
20
0.251347
11
0.20878
21
0.251212
0
LINE
8
BLACK
6
CONTINUOUS
10
0.20878
20
0.251212
11
0.20876
21
0.251037
0
LINE
8
BLACK
6
CONTINUOUS
10
0.20876
20
0.251037
11
0.205948
21
0.245412
0
LINE
8
BLACK
6
CONTINUOUS
10
0.205948
20
0.245412
11
0.205422
21
0.244703
0
LINE
8
BLACK
6
CONTINUOUS
10
0.205422
20
0.244703
11
0.205395
21
0.244645
0
LINE
8
BLACK
6
CONTINUOUS
10
0.205395
20
0.244645
11
0.202583
21
0.241833
0
LINE
8
BLACK
6
CONTINUOUS
10
0.202583
20
0.241833
11
0.20186
21
0.241327
0
LINE
8
BLACK
6
CONTINUOUS
10
0.20186
20
0.241327
11
0.201815
21
0.24128
0
LINE
8
BLACK
6
CONTINUOUS
10
0.201815
20
0.24128
11
0.196191
21
0.238468
0
LINE
8
BLACK
6
CONTINUOUS
10
0.196191
20
0.238468
11
0.195208
21
0.238175
0
LINE
8
BLACK
6
CONTINUOUS
10
0.195208
20
0.238175
11
0.195037
21
0.238216
0
LINE
8
BLACK
6
CONTINUOUS
10
0.195037
20
0.238216
11
0.194871
21
0.238156
0
LINE
8
BLACK
6
CONTINUOUS
10
0.194871
20
0.238156
11
0.192105
21
0.238156
0
LINE
8
BLACK
6
CONTINUOUS
10
0.192105
20
0.238156
11
0.208538
21
0.21468
0
LINE
8
BLACK
6
CONTINUOUS
10
0.208538
20
0.21468
11
0.208971
21
0.213751
0
LINE
8
BLACK
6
CONTINUOUS
10
0.208971
20
0.213751
11
0.208795
21
0.211739
0
LINE
8
BLACK
6
CONTINUOUS
10
0.208795
20
0.211739
11
0.207367
21
0.210311
0
LINE
8
BLACK
6
CONTINUOUS
10
0.207367
20
0.210311
11
0.205355
21
0.210135
0
LINE
8
BLACK
6
CONTINUOUS
10
0.205355
20
0.210135
11
0.2037
21
0.211294
0
LINE
8
BLACK
6
CONTINUOUS
10
0.2037
20
0.211294
11
0.184897
21
0.238156
0
LINE
8
BLACK
6
CONTINUOUS
10
0.184897
20
0.238156
11
0.175326
21
0.238156
0
LINE
8
BLACK
6
CONTINUOUS
10
0.175326
20
0.238156
11
0.175326
21
0.212987
0
LINE
8
BLACK
6
CONTINUOUS
10
0.175326
20
0.212987
11
0.175148
21
0.211977
0
LINE
8
BLACK
6
CONTINUOUS
10
0.175148
20
0.211977
11
0.17385
21
0.21043
0
LINE
8
BLACK
6
CONTINUOUS
10
0.17385
20
0.21043
11
0.171861
21
0.210079
0
LINE
8
BLACK
6
CONTINUOUS
10
0.171861
20
0.210079
11
0.170112
21
0.211089
0
LINE
8
BLACK
6
CONTINUOUS
10
0.170112
20
0.211089
11
0.169421
21
0.212987
0
LINE
8
BLACK
6
CONTINUOUS
10
0.169421
20
0.212987
11
0.169421
21
0.272042
0
LINE
8
BLACK
6
CONTINUOUS
10
0.169421
20
0.272042
11
0.169488
21
0.272426
0
LINE
8
BLACK
6
CONTINUOUS
10
0.169488
20
0.272426
11
0.169466
21
0.272555
0
LINE
8
BLACK
6
CONTINUOUS
10
0.169466
20
0.272555
11
0.169531
21
0.272669
0
LINE
8
BLACK
6
CONTINUOUS
10
0.169531
20
0.272669
11
0.169599
21
0.273052
0
LINE
8
BLACK
6
CONTINUOUS
10
0.169599
20
0.273052
11
0.170092
21
0.27364
0
LINE
8
BLACK
6
CONTINUOUS
10
0.170092
20
0.27364
11
0.170475
21
0.274304
0
LINE
8
BLACK
6
CONTINUOUS
10
0.170475
20
0.274304
11
0.170726
21
0.274395
0
LINE
8
BLACK
6
CONTINUOUS
10
0.170726
20
0.274395
11
0.170897
21
0.274599
0
LINE
8
BLACK
6
CONTINUOUS
10
0.170897
20
0.274599
11
0.171653
21
0.274733
0
LINE
8
BLACK
6
CONTINUOUS
10
0.171653
20
0.274733
11
0.172373
21
0.274995
0
LINE
8
BLACK
6
CONTINUOUS
10
0.172373
20
0.274995
11
0.194871
21
0.274995
0
LINE
8
BLACK
6
CONTINUOUS
10
0.194871
20
0.274995
11
0.195881
21
0.274817
0
LINE
8
BLACK
6
CONTINUOUS
10
0.175326
20
0.244061
11
0.194174
21
0.244061
0
LINE
8
BLACK
6
CONTINUOUS
10
0.194174
20
0.244061
11
0.198746
21
0.246347
0
LINE
8
BLACK
6
CONTINUOUS
10
0.198746
20
0.246347
11
0.20088
21
0.248482
0
LINE
8
BLACK
6
CONTINUOUS
10
0.20088
20
0.248482
11
0.203166
21
0.253054
0
LINE
8
BLACK
6
CONTINUOUS
10
0.203166
20
0.253054
11
0.203166
21
0.260097
0
LINE
8
BLACK
6
CONTINUOUS
10
0.203166
20
0.260097
11
0.20088
21
0.264669
0
LINE
8
BLACK
6
CONTINUOUS
10
0.20088
20
0.264669
11
0.198746
21
0.266803
0
LINE
8
BLACK
6
CONTINUOUS
10
0.198746
20
0.266803
11
0.194174
21
0.269089
0
LINE
8
BLACK
6
CONTINUOUS
10
0.194174
20
0.269089
11
0.175326
21
0.269089
0
LINE
8
BLACK
6
CONTINUOUS
10
0.175326
20
0.269089
11
0.175326
21
0.244061
0
LINE
8
BLACK
6
CONTINUOUS
10
0.56146
20
0.274817
11
0.561595
21
0.274703
0
LINE
8
BLACK
6
CONTINUOUS
10
0.561595
20
0.274703
11
0.56177
21
0.274683
0
LINE
8
BLACK
6
CONTINUOUS
10
0.56177
20
0.274683
11
0.567395
21
0.271871
0
LINE
8
BLACK
6
CONTINUOUS
10
0.567395
20
0.271871
11
0.568104
21
0.271345
0
LINE
8
BLACK
6
CONTINUOUS
10
0.568104
20
0.271345
11
0.568162
21
0.271318
0
LINE
8
BLACK
6
CONTINUOUS
10
0.568162
20
0.271318
11
0.570974
21
0.268506
0
LINE
8
BLACK
6
CONTINUOUS
10
0.570974
20
0.268506
11
0.571481
21
0.267783
0
LINE
8
BLACK
6
CONTINUOUS
10
0.571481
20
0.267783
11
0.571527
21
0.267738
0
LINE
8
BLACK
6
CONTINUOUS
10
0.571527
20
0.267738
11
0.57434
21
0.262114
0
LINE
8
BLACK
6
CONTINUOUS
10
0.57434
20
0.262114
11
0.574632
21
0.261131
0
LINE
8
BLACK
6
CONTINUOUS
10
0.574632
20
0.261131
11
0.574591
21
0.260959
0
LINE
8
BLACK
6
CONTINUOUS
10
0.574591
20
0.260959
11
0.574651
21
0.260794
0
LINE
8
BLACK
6
CONTINUOUS
10
0.574651
20
0.260794
11
0.574651
21
0.252357
0
LINE
8
BLACK
6
CONTINUOUS
10
0.574651
20
0.252357
11
0.574473
21
0.251347
0
LINE
8
BLACK
6
CONTINUOUS
10
0.574473
20
0.251347
11
0.57436
21
0.251212
0
LINE
8
BLACK
6
CONTINUOUS
10
0.57436
20
0.251212
11
0.57434
21
0.251037
0
LINE
8
BLACK
6
CONTINUOUS
10
0.57434
20
0.251037
11
0.571527
21
0.245412
0
LINE
8
BLACK
6
CONTINUOUS
10
0.571527
20
0.245412
11
0.571001
21
0.244703
0
LINE
8
BLACK
6
CONTINUOUS
10
0.571001
20
0.244703
11
0.570974
21
0.244645
0
LINE
8
BLACK
6
CONTINUOUS
10
0.570974
20
0.244645
11
0.568162
21
0.241833
0
LINE
8
BLACK
6
CONTINUOUS
10
0.568162
20
0.241833
11
0.567439
21
0.241327
0
LINE
8
BLACK
6
CONTINUOUS
10
0.567439
20
0.241327
11
0.567395
21
0.24128
0
LINE
8
BLACK
6
CONTINUOUS
10
0.567395
20
0.24128
11
0.56177
21
0.238468
0
LINE
8
BLACK
6
CONTINUOUS
10
0.56177
20
0.238468
11
0.560787
21
0.238175
0
LINE
8
BLACK
6
CONTINUOUS
10
0.560787
20
0.238175
11
0.560616
21
0.238216
0
LINE
8
BLACK
6
CONTINUOUS
10
0.560616
20
0.238216
11
0.56045
21
0.238156
0
LINE
8
BLACK
6
CONTINUOUS
10
0.56045
20
0.238156
11
0.540905
21
0.238156
0
LINE
8
BLACK
6
CONTINUOUS
10
0.540905
20
0.238156
11
0.540905
21
0.212987
0
LINE
8
BLACK
6
CONTINUOUS
10
0.540905
20
0.212987
11
0.540727
21
0.211977
0
LINE
8
BLACK
6
CONTINUOUS
10
0.540727
20
0.211977
11
0.539429
21
0.21043
0
LINE
8
BLACK
6
CONTINUOUS
10
0.539429
20
0.21043
11
0.53744
21
0.210079
0
LINE
8
BLACK
6
CONTINUOUS
10
0.53744
20
0.210079
11
0.535691
21
0.211089
0
LINE
8
BLACK
6
CONTINUOUS
10
0.535691
20
0.211089
11
0.535
21
0.212987
0
LINE
8
BLACK
6
CONTINUOUS
10
0.535
20
0.212987
11
0.535
21
0.272042
0
LINE
8
BLACK
6
CONTINUOUS
10
0.535
20
0.272042
11
0.535068
21
0.272426
0
LINE
8
BLACK
6
CONTINUOUS
10
0.535068
20
0.272426
11
0.535045
21
0.272555
0
LINE
8
BLACK
6
CONTINUOUS
10
0.535045
20
0.272555
11
0.53511
21
0.272669
0
LINE
8
BLACK
6
CONTINUOUS
10
0.53511
20
0.272669
11
0.535178
21
0.273052
0
LINE
8
BLACK
6
CONTINUOUS
10
0.535178
20
0.273052
11
0.535671
21
0.27364
0
LINE
8
BLACK
6
CONTINUOUS
10
0.535671
20
0.27364
11
0.536055
21
0.274304
0
LINE
8
BLACK
6
CONTINUOUS
10
0.536055
20
0.274304
11
0.536305
21
0.274395
0
LINE
8
BLACK
6
CONTINUOUS
10
0.536305
20
0.274395
11
0.536476
21
0.274599
0
LINE
8
BLACK
6
CONTINUOUS
10
0.536476
20
0.274599
11
0.537232
21
0.274733
0
LINE
8
BLACK
6
CONTINUOUS
10
0.537232
20
0.274733
11
0.537953
21
0.274995
0
LINE
8
BLACK
6
CONTINUOUS
10
0.537953
20
0.274995
11
0.56045
21
0.274995
0
LINE
8
BLACK
6
CONTINUOUS
10
0.56045
20
0.274995
11
0.56146
21
0.274817
0
LINE
8
BLACK
6
CONTINUOUS
10
0.540905
20
0.244061
11
0.559753
21
0.244061
0
LINE
8
BLACK
6
CONTINUOUS
10
0.559753
20
0.244061
11
0.564325
21
0.246347
0
LINE
8
BLACK
6
CONTINUOUS
10
0.564325
20
0.246347
11
0.56646
21
0.248482
0
LINE
8
BLACK
6
CONTINUOUS
10
0.56646
20
0.248482
11
0.568746
21
0.253054
0
LINE
8
BLACK
6
CONTINUOUS
10
0.568746
20
0.253054
11
0.568746
21
0.260097
0
LINE
8
BLACK
6
CONTINUOUS
10
0.568746
20
0.260097
11
0.56646
21
0.264669
0
LINE
8
BLACK
6
CONTINUOUS
10
0.56646
20
0.264669
11
0.564325
21
0.266803
0
LINE
8
BLACK
6
CONTINUOUS
10
0.564325
20
0.266803
11
0.559753
21
0.269089
0
LINE
8
BLACK
6
CONTINUOUS
10
0.559753
20
0.269089
11
0.540905
21
0.269089
0
LINE
8
BLACK
6
CONTINUOUS
10
0.540905
20
0.269089
11
0.540905
21
0.244061
0
LINE
8
BLACK
6
CONTINUOUS
10
0.671134
20
0.274817
11
0.671269
21
0.274703
0
LINE
8
BLACK
6
CONTINUOUS
10
0.671269
20
0.274703
11
0.671444
21
0.274683
0
LINE
8
BLACK
6
CONTINUOUS
10
0.671444
20
0.274683
11
0.677069
21
0.271871
0
LINE
8
BLACK
6
CONTINUOUS
10
0.677069
20
0.271871
11
0.677778
21
0.271345
0
LINE
8
BLACK
6
CONTINUOUS
10
0.677778
20
0.271345
11
0.677836
21
0.271318
0
LINE
8
BLACK
6
CONTINUOUS
10
0.677836
20
0.271318
11
0.680648
21
0.268506
0
LINE
8
BLACK
6
CONTINUOUS
10
0.680648
20
0.268506
11
0.681154
21
0.267783
0
LINE
8
BLACK
6
CONTINUOUS
10
0.681154
20
0.267783
11
0.681201
21
0.267738
0
LINE
8
BLACK
6
CONTINUOUS
10
0.681201
20
0.267738
11
0.684013
21
0.262114
0
LINE
8
BLACK
6
CONTINUOUS
10
0.684013
20
0.262114
11
0.684306
21
0.261131
0
LINE
8
BLACK
6
CONTINUOUS
10
0.684306
20
0.261131
11
0.684265
21
0.260959
0
LINE
8
BLACK
6
CONTINUOUS
10
0.684265
20
0.260959
11
0.684325
21
0.260794
0
LINE
8
BLACK
6
CONTINUOUS
10
0.684325
20
0.260794
11
0.684325
21
0.252357
0
LINE
8
BLACK
6
CONTINUOUS
10
0.684325
20
0.252357
11
0.684147
21
0.251347
0
LINE
8
BLACK
6
CONTINUOUS
10
0.684147
20
0.251347
11
0.684033
21
0.251212
0
LINE
8
BLACK
6
CONTINUOUS
10
0.684033
20
0.251212
11
0.684013
21
0.251037
0
LINE
8
BLACK
6
CONTINUOUS
10
0.684013
20
0.251037
11
0.681201
21
0.245412
0
LINE
8
BLACK
6
CONTINUOUS
10
0.681201
20
0.245412
11
0.680675
21
0.244703
0
LINE
8
BLACK
6
CONTINUOUS
10
0.680675
20
0.244703
11
0.680648
21
0.244645
0
LINE
8
BLACK
6
CONTINUOUS
10
0.680648
20
0.244645
11
0.677836
21
0.241833
0
LINE
8
BLACK
6
CONTINUOUS
10
0.677836
20
0.241833
11
0.677113
21
0.241327
0
LINE
8
BLACK
6
CONTINUOUS
10
0.677113
20
0.241327
11
0.677069
21
0.24128
0
LINE
8
BLACK
6
CONTINUOUS
10
0.677069
20
0.24128
11
0.671444
21
0.238468
0
LINE
8
BLACK
6
CONTINUOUS
10
0.671444
20
0.238468
11
0.670461
21
0.238175
0
LINE
8
BLACK
6
CONTINUOUS
10
0.670461
20
0.238175
11
0.67029
21
0.238216
0
LINE
8
BLACK
6
CONTINUOUS
10
0.67029
20
0.238216
11
0.670124
21
0.238156
0
LINE
8
BLACK
6
CONTINUOUS
10
0.670124
20
0.238156
11
0.667358
21
0.238156
0
LINE
8
BLACK
6
CONTINUOUS
10
0.667358
20
0.238156
11
0.683791
21
0.21468
0
LINE
8
BLACK
6
CONTINUOUS
10
0.683791
20
0.21468
11
0.684225
21
0.213751
0
LINE
8
BLACK
6
CONTINUOUS
10
0.684225
20
0.213751
11
0.684048
21
0.211739
0
LINE
8
BLACK
6
CONTINUOUS
10
0.684048
20
0.211739
11
0.68262
21
0.210311
0
LINE
8
BLACK
6
CONTINUOUS
10
0.68262
20
0.210311
11
0.680608
21
0.210135
0
LINE
8
BLACK
6
CONTINUOUS
10
0.680608
20
0.210135
11
0.678953
21
0.211294
0
LINE
8
BLACK
6
CONTINUOUS
10
0.678953
20
0.211294
11
0.66015
21
0.238156
0
LINE
8
BLACK
6
CONTINUOUS
10
0.66015
20
0.238156
11
0.650579
21
0.238156
0
LINE
8
BLACK
6
CONTINUOUS
10
0.650579
20
0.238156
11
0.650579
21
0.212987
0
LINE
8
BLACK
6
CONTINUOUS
10
0.650579
20
0.212987
11
0.650401
21
0.211977
0
LINE
8
BLACK
6
CONTINUOUS
10
0.650401
20
0.211977
11
0.649103
21
0.21043
0
LINE
8
BLACK
6
CONTINUOUS
10
0.649103
20
0.21043
11
0.647114
21
0.210079
0
LINE
8
BLACK
6
CONTINUOUS
10
0.647114
20
0.210079
11
0.645365
21
0.211089
0
LINE
8
BLACK
6
CONTINUOUS
10
0.645365
20
0.211089
11
0.644674
21
0.212987
0
LINE
8
BLACK
6
CONTINUOUS
10
0.644674
20
0.212987
11
0.644674
21
0.272042
0
LINE
8
BLACK
6
CONTINUOUS
10
0.644674
20
0.272042
11
0.644741
21
0.272426
0
LINE
8
BLACK
6
CONTINUOUS
10
0.644741
20
0.272426
11
0.644719
21
0.272555
0
LINE
8
BLACK
6
CONTINUOUS
10
0.644719
20
0.272555
11
0.644784
21
0.272669
0
LINE
8
BLACK
6
CONTINUOUS
10
0.644784
20
0.272669
11
0.644852
21
0.273052
0
LINE
8
BLACK
6
CONTINUOUS
10
0.644852
20
0.273052
11
0.645345
21
0.27364
0
LINE
8
BLACK
6
CONTINUOUS
10
0.645345
20
0.27364
11
0.645729
21
0.274304
0
LINE
8
BLACK
6
CONTINUOUS
10
0.645729
20
0.274304
11
0.645979
21
0.274395
0
LINE
8
BLACK
6
CONTINUOUS
10
0.645979
20
0.274395
11
0.64615
21
0.274599
0
LINE
8
BLACK
6
CONTINUOUS
10
0.64615
20
0.274599
11
0.646906
21
0.274733
0
LINE
8
BLACK
6
CONTINUOUS
10
0.646906
20
0.274733
11
0.647626
21
0.274995
0
LINE
8
BLACK
6
CONTINUOUS
10
0.647626
20
0.274995
11
0.670124
21
0.274995
0
LINE
8
BLACK
6
CONTINUOUS
10
0.670124
20
0.274995
11
0.671134
21
0.274817
0
LINE
8
BLACK
6
CONTINUOUS
10
0.650579
20
0.244061
11
0.669427
21
0.244061
0
LINE
8
BLACK
6
CONTINUOUS
10
0.669427
20
0.244061
11
0.673999
21
0.246347
0
LINE
8
BLACK
6
CONTINUOUS
10
0.673999
20
0.246347
11
0.676133
21
0.248482
0
LINE
8
BLACK
6
CONTINUOUS
10
0.676133
20
0.248482
11
0.678419
21
0.253054
0
LINE
8
BLACK
6
CONTINUOUS
10
0.678419
20
0.253054
11
0.678419
21
0.260097
0
LINE
8
BLACK
6
CONTINUOUS
10
0.678419
20
0.260097
11
0.676133
21
0.264669
0
LINE
8
BLACK
6
CONTINUOUS
10
0.676133
20
0.264669
11
0.673999
21
0.266803
0
LINE
8
BLACK
6
CONTINUOUS
10
0.673999
20
0.266803
11
0.669427
21
0.269089
0
LINE
8
BLACK
6
CONTINUOUS
10
0.669427
20
0.269089
11
0.650579
21
0.269089
0
LINE
8
BLACK
6
CONTINUOUS
10
0.650579
20
0.269089
11
0.650579
21
0.244061
0
LINE
8
BLACK
6
CONTINUOUS
10
-0.01
20
0.37
11
-0.07
21
0.37
0
LINE
8
BLACK
6
CONTINUOUS
10
-0.07
20
0.37
11
-0.07
21
0.43
0
LINE
8
BLACK
6
CONTINUOUS
10
-0.07
20
0.43
11
-0.01
21
0.43
0
LINE
8
BLACK
6
CONTINUOUS
10
-0.01
20
0.43
11
-0.01
21
0.37
0
LINE
8
BLACK
6
CONTINUOUS
10
0.09
20
0.37
11
0.03
21
0.37
0
LINE
8
BLACK
6
CONTINUOUS
10
0.03
20
0.37
11
0.03
21
0.43
0
LINE
8
BLACK
6
CONTINUOUS
10
0.03
20
0.43
11
0.09
21
0.43
0
LINE
8
BLACK
6
CONTINUOUS
10
0.09
20
0.43
11
0.09
21
0.37
0
LINE
8
BLACK
6
CONTINUOUS
10
-0.01
20
0.47
11
-0.07
21
0.47
0
LINE
8
BLACK
6
CONTINUOUS
10
-0.07
20
0.47
11
-0.07
21
0.53
0
LINE
8
BLACK
6
CONTINUOUS
10
-0.07
20
0.53
11
-0.01
21
0.53
0
LINE
8
BLACK
6
CONTINUOUS
10
-0.01
20
0.53
11
-0.01
21
0.47
0
LINE
8
BLACK
6
CONTINUOUS
10
0.09
20
0.47
11
0.03
21
0.47
0
LINE
8
BLACK
6
CONTINUOUS
10
0.03
20
0.47
11
0.03
21
0.53
0
LINE
8
BLACK
6
CONTINUOUS
10
0.03
20
0.53
11
0.09
21
0.53
0
LINE
8
BLACK
6
CONTINUOUS
10
0.09
20
0.53
11
0.09
21
0.47
0
LINE
8
BLACK
6
CONTINUOUS
10
-0.01
20
0.57
11
-0.07
21
0.57
0
LINE
8
BLACK
6
CONTINUOUS
10
-0.07
20
0.57
11
-0.07
21
0.63
0
LINE
8
BLACK
6
CONTINUOUS
10
-0.07
20
0.63
11
-0.01
21
0.63
0
LINE
8
BLACK
6
CONTINUOUS
10
-0.01
20
0.63
11
-0.01
21
0.57
0
LINE
8
BLACK
6
CONTINUOUS
10
0.09
20
0.57
11
0.03
21
0.57
0
LINE
8
BLACK
6
CONTINUOUS
10
0.03
20
0.57
11
0.03
21
0.63
0
LINE
8
BLACK
6
CONTINUOUS
10
0.03
20
0.63
11
0.09
21
0.63
0
LINE
8
BLACK
6
CONTINUOUS
10
0.09
20
0.63
11
0.09
21
0.57
0
LINE
8
BLACK
6
CONTINUOUS
10
-0.01
20
0.67
11
-0.07
21
0.67
0
LINE
8
BLACK
6
CONTINUOUS
10
-0.07
20
0.67
11
-0.07
21
0.73
0
LINE
8
BLACK
6
CONTINUOUS
10
-0.07
20
0.73
11
-0.01
21
0.73
0
LINE
8
BLACK
6
CONTINUOUS
10
-0.01
20
0.73
11
-0.01
21
0.67
0
LINE
8
BLACK
6
CONTINUOUS
10
0.09
20
0.67
11
0.03
21
0.67
0
LINE
8
BLACK
6
CONTINUOUS
10
0.03
20
0.67
11
0.03
21
0.73
0
LINE
8
BLACK
6
CONTINUOUS
10
0.03
20
0.73
11
0.09
21
0.73
0
LINE
8
BLACK
6
CONTINUOUS
10
0.09
20
0.73
11
0.09
21
0.67
0
LINE
8
BLACK
6
CONTINUOUS
10
-0.01
20
0.77
11
-0.07
21
0.77
0
LINE
8
BLACK
6
CONTINUOUS
10
-0.07
20
0.77
11
-0.07
21
0.83
0
LINE
8
BLACK
6
CONTINUOUS
10
-0.07
20
0.83
11
-0.01
21
0.83
0
LINE
8
BLACK
6
CONTINUOUS
10
-0.01
20
0.83
11
-0.01
21
0.77
0
LINE
8
BLACK
6
CONTINUOUS
10
0.09
20
0.77
11
0.03
21
0.77
0
LINE
8
BLACK
6
CONTINUOUS
10
0.03
20
0.77
11
0.03
21
0.83
0
LINE
8
BLACK
6
CONTINUOUS
10
0.03
20
0.83
11
0.09
21
0.83
0
LINE
8
BLACK
6
CONTINUOUS
10
0.09
20
0.83
11
0.09
21
0.77
0
LINE
8
BLACK
6
CONTINUOUS
10
0.110384
20
0.852885
11
0.110513
21
0.852908
0
LINE
8
BLACK
6
CONTINUOUS
10
0.110513
20
0.852908
11
0.110626
21
0.852842
0
LINE
8
BLACK
6
CONTINUOUS
10
0.110626
20
0.852842
11
0.11101
21
0.852775
0
LINE
8
BLACK
6
CONTINUOUS
10
0.11101
20
0.852775
11
0.111598
21
0.852282
0
LINE
8
BLACK
6
CONTINUOUS
10
0.111598
20
0.852282
11
0.112262
21
0.851898
0
LINE
8
BLACK
6
CONTINUOUS
10
0.112262
20
0.851898
11
0.112353
21
0.851648
0
LINE
8
BLACK
6
CONTINUOUS
10
0.112353
20
0.851648
11
0.112557
21
0.851476
0
LINE
8
BLACK
6
CONTINUOUS
10
0.112557
20
0.851476
11
0.11269
21
0.850721
0
LINE
8
BLACK
6
CONTINUOUS
10
0.11269
20
0.850721
11
0.112953
21
0.85
0
LINE
8
BLACK
6
CONTINUOUS
10
0.112953
20
0.85
11
0.112953
21
0.35
0
LINE
8
BLACK
6
CONTINUOUS
10
0.112953
20
0.35
11
0.112885
21
0.349616
0
LINE
8
BLACK
6
CONTINUOUS
10
0.112885
20
0.349616
11
0.112908
21
0.349487
0
LINE
8
BLACK
6
CONTINUOUS
10
0.112908
20
0.349487
11
0.112842
21
0.349374
0
LINE
8
BLACK
6
CONTINUOUS
10
0.112842
20
0.349374
11
0.112775
21
0.34899
0
LINE
8
BLACK
6
CONTINUOUS
10
0.112775
20
0.34899
11
0.112282
21
0.348402
0
LINE
8
BLACK
6
CONTINUOUS
10
0.112282
20
0.348402
11
0.111898
21
0.347738
0
LINE
8
BLACK
6
CONTINUOUS
10
0.111898
20
0.347738
11
0.111648
21
0.347647
0
LINE
8
BLACK
6
CONTINUOUS
10
0.111648
20
0.347647
11
0.111476
21
0.347443
0
LINE
8
BLACK
6
CONTINUOUS
10
0.111476
20
0.347443
11
0.110721
21
0.34731
0
LINE
8
BLACK
6
CONTINUOUS
10
0.110721
20
0.34731
11
0.11
21
0.347047
0
LINE
8
BLACK
6
CONTINUOUS
10
0.11
20
0.347047
11
-0.09
21
0.347047
0
LINE
8
BLACK
6
CONTINUOUS
10
-0.09
20
0.347047
11
-0.0903835
21
0.347115
0
LINE
8
BLACK
6
CONTINUOUS
10
-0.0903835
20
0.347115
11
-0.0905128
21
0.347092
0
LINE
8
BLACK
6
CONTINUOUS
10
-0.0905128
20
0.347092
11
-0.0906264
21
0.347158
0
LINE
8
BLACK
6
CONTINUOUS
10
-0.0906264
20
0.347158
11
-0.0910099
21
0.347225
0
LINE
8
BLACK
6
CONTINUOUS
10
-0.0910099
20
0.347225
11
-0.0915976
21
0.347718
0
LINE
8
BLACK
6
CONTINUOUS
10
-0.0915976
20
0.347718
11
-0.0922619
21
0.348102
0
LINE
8
BLACK
6
CONTINUOUS
10
-0.0922619
20
0.348102
11
-0.0923531
21
0.348352
0
LINE
8
BLACK
6
CONTINUOUS
10
-0.0923531
20
0.348352
11
-0.0925572
21
0.348524
0
LINE
8
BLACK
6
CONTINUOUS
10
-0.0925572
20
0.348524
11
-0.0926904
21
0.349279
0
LINE
8
BLACK
6
CONTINUOUS
10
-0.0926904
20
0.349279
11
-0.0929528
21
0.35
0
LINE
8
BLACK
6
CONTINUOUS
10
-0.0929528
20
0.35
11
-0.0929528
21
0.85
0
LINE
8
BLACK
6
CONTINUOUS
10
-0.0929528
20
0.85
11
-0.0928852
21
0.850384
0
LINE
8
BLACK
6
CONTINUOUS
10
-0.0928852
20
0.850384
11
-0.0929079
21
0.850513
0
LINE
8
BLACK
6
CONTINUOUS
10
-0.0929079
20
0.850513
11
-0.0928423
21
0.850626
0
LINE
8
BLACK
6
CONTINUOUS
10
-0.0928423
20
0.850626
11
-0.0927747
21
0.85101
0
LINE
8
BLACK
6
CONTINUOUS
10
-0.0927747
20
0.85101
11
-0.0922816
21
0.851598
0
LINE
8
BLACK
6
CONTINUOUS
10
-0.0922816
20
0.851598
11
-0.091898
21
0.852262
0
LINE
8
BLACK
6
CONTINUOUS
10
-0.091898
20
0.852262
11
-0.0916477
21
0.852353
0
LINE
8
BLACK
6
CONTINUOUS
10
-0.0916477
20
0.852353
11
-0.0914764
21
0.852557
0
LINE
8
BLACK
6
CONTINUOUS
10
-0.0914764
20
0.852557
11
-0.0907208
21
0.85269
0
LINE
8
BLACK
6
CONTINUOUS
10
-0.0907208
20
0.85269
11
-0.09
21
0.852953
0
LINE
8
BLACK
6
CONTINUOUS
10
-0.09
20
0.852953
11
0.11
21
0.852953
0
LINE
8
BLACK
6
CONTINUOUS
10
0.11
20
0.852953
11
0.110384
21
0.852885
0
LINE
8
BLACK
6
CONTINUOUS
10
-0.0870472
20
0.847047
11
-0.0870472
21
0.352953
0
LINE
8
BLACK
6
CONTINUOUS
10
-0.0870472
20
0.352953
11
0.107047
21
0.352953
0
LINE
8
BLACK
6
CONTINUOUS
10
0.107047
20
0.352953
11
0.107047
21
0.847047
0
LINE
8
BLACK
6
CONTINUOUS
10
0.107047
20
0.847047
11
-0.0870472
21
0.847047
0
CIRCLE
8
BLACK
10
0
20
1.2
40
0.00688976
0
CIRCLE
8
BLACK
10
1.2
20
0
40
0.00688976
0
CIRCLE
8
BLACK
10
0
20
0
40
0.00688976
0
CIRCLE
8
BLACK
10
1.2
20
1.2
40
0.00688976
0
CIRCLE
8
BLACK
10
-0.04
20
0.8
40
0.00688976
0
CIRCLE
8
BLACK
10
0.06
20
0.8
40
0.00688976
0
CIRCLE
8
BLACK
10
-0.04
20
0.7
40
0.00688976
0
CIRCLE
8
BLACK
10
0.06
20
0.7
40
0.00688976
0
CIRCLE
8
BLACK
10
-0.04
20
0.6
40
0.00688976
0
CIRCLE
8
BLACK
10
0.06
20
0.6
40
0.00688976
0
CIRCLE
8
BLACK
10
-0.04
20
0.5
40
0.00688976
0
CIRCLE
8
BLACK
10
0.06
20
0.5
40
0.00688976
0
CIRCLE
8
BLACK
10
-0.04
20
0.4
40
0.00688976
0
CIRCLE
8
BLACK
10
0.06
20
0.4
40
0.00688976
  0
ENDSEC
  0
EOF
