  0
SECTION
  2
HEADER
  9
$ANGBASE
  50
0.0
  9
$ANGDIR
  70
1
  9
$MEASUREMENT
  70
0
  0
ENDSEC
  0
SECTION
  2
TABLES
  0
TABLE
  2
LTYPE
  70
4
  0
LTYPE
  5
40F
  2
CONTINUOUS
  70
0
  3
Solid line
  72
65
  73
0
  40
0.0
  0
LTYPE
  5
410
  2
DASHDOT
 70
0
  3
Dash Dot ____ _ ____ _
 72
65
 73
4
 40
2.0
 49
1.25
 49
-0.25
 49
0.25
 49
-0.25
  0
LTYPE
  5
411
  2
DASHED
 70
0
  3
Dashed __ __ __ __ __
 72
65
 73
2
 40
0.75
 49
0.5
 49
-0.25
  0
LTYPE
  5
43B
  2
DOTTED
 70
0
  3
Dotted .  .  .  .
 72
65
 73
2
 40
0.2
 49
0.0
 49
-0.2
  0
ENDTAB
  0
TABLE
  2
STYLE
  70
4
  0
STYLE
  2
KICAD
  70
0
  40
0
  41
1
  42
1
  50
0
  71
0
  3
isocp.shx
  0
STYLE
  2
KICADB
  70
0
  40
0
  41
1
  42
1
  50
0
  71
0
  3
isocp.shx
  0
STYLE
  2
KICADI
  70
0
  40
0
  41
1
  42
1
  50
15
  71
0
  3
isocp.shx
  0
STYLE
  2
KICADBI
  70
0
  40
0
  41
1
  42
1
  50
15
  71
0
  3
isocp.shx
  0
ENDTAB
  0
TABLE
  2
LAYER
  70
1
  0
LAYER
  2
BLACK
  70
0
  62
7
  6
CONTINUOUS
  0
ENDTAB
  0
ENDSEC
  0
SECTION
  2
ENTITIES
0
LINE
8
BLACK
6
CONTINUOUS
10
0.3695120866141732
20
0.9809774409448818
11
0.373902125984252
21
0.9787405905511811
0
LINE
8
BLACK
6
CONTINUOUS
10
0.373902125984252
20
0.9787405905511811
11
0.3773861023622047
21
0.9752566141732283
0
LINE
8
BLACK
6
CONTINUOUS
10
0.3773861023622047
20
0.9752566141732283
11
0.3775889763779527
21
0.9748584251968504
0
LINE
8
BLACK
6
CONTINUOUS
10
0.3775889763779527
20
0.9748584251968504
11
0.4839998818897638
21
0.9748584251968504
0
LINE
8
BLACK
6
CONTINUOUS
10
0.4839998818897638
20
0.9748584251968504
11
0.4858416141732284
21
0.974664842519685
0
LINE
8
BLACK
6
CONTINUOUS
10
0.4858416141732284
20
0.974664842519685
11
0.4864819291338582
21
0.9743797637795275
0
LINE
8
BLACK
6
CONTINUOUS
10
0.4864819291338582
20
0.9743797637795275
11
0.4871744094488189
21
0.9742700787401575
0
LINE
8
BLACK
6
CONTINUOUS
10
0.4871744094488189
20
0.9742700787401575
11
0.488147125984252
21
0.9736383858267716
0
LINE
8
BLACK
6
CONTINUOUS
10
0.488147125984252
20
0.9736383858267716
11
0.4892066535433071
21
0.9731666535433071
0
LINE
8
BLACK
6
CONTINUOUS
10
0.4892066535433071
20
0.9731666535433071
11
0.4896757086614173
21
0.9726457086614173
0
LINE
8
BLACK
6
CONTINUOUS
10
0.4896757086614173
20
0.9726457086614173
11
0.4902636220472441
21
0.9722638976377953
0
LINE
8
BLACK
6
CONTINUOUS
10
0.4902636220472441
20
0.9722638976377953
11
0.5325275196850393
21
0.9299999999999999
0
LINE
8
BLACK
6
CONTINUOUS
10
0.5325275196850393
20
0.9299999999999999
11
0.5800000393700787
21
0.9299999999999999
0
LINE
8
BLACK
6
CONTINUOUS
10
0.5800000393700787
20
0.9299999999999999
11
0.5800000393700787
21
0.9088582677165354
0
LINE
8
BLACK
6
CONTINUOUS
10
0.5800000393700787
20
0.9088582677165354
11
0.6200000393700787
21
0.9088582677165354
0
LINE
8
BLACK
6
CONTINUOUS
10
0.6200000393700787
20
0.9088582677165354
11
0.6200000393700787
21
0.9299999999999999
0
LINE
8
BLACK
6
CONTINUOUS
10
0.6200000393700787
20
0.9299999999999999
11
0.6800000393700787
21
0.9299999999999999
0
LINE
8
BLACK
6
CONTINUOUS
10
0.6800000393700787
20
0.9299999999999999
11
0.6800000393700787
21
0.8988582677165354
0
LINE
8
BLACK
6
CONTINUOUS
10
0.6800000393700787
20
0.8988582677165354
11
0.8303844488188976
21
0.8988582677165354
0
LINE
8
BLACK
6
CONTINUOUS
10
0.8303844488188976
20
0.8988582677165354
11
0.8309052362204724
21
0.8998803543307087
0
LINE
8
BLACK
6
CONTINUOUS
10
0.8309052362204724
20
0.8998803543307087
11
0.8343892125984251
21
0.9033643307086614
0
LINE
8
BLACK
6
CONTINUOUS
10
0.8343892125984251
20
0.9033643307086614
11
0.8387792519685039
21
0.9056011811023622
0
LINE
8
BLACK
6
CONTINUOUS
10
0.8387792519685039
20
0.9056011811023622
11
0.8436456692913386
21
0.9063719291338582
0
LINE
8
BLACK
6
CONTINUOUS
10
0.8436456692913386
20
0.9063719291338582
11
0.8485120866141732
21
0.9056011811023622
0
LINE
8
BLACK
6
CONTINUOUS
10
0.8485120866141732
20
0.9056011811023622
11
0.852902125984252
21
0.9033643307086614
0
LINE
8
BLACK
6
CONTINUOUS
10
0.852902125984252
20
0.9033643307086614
11
0.8563861023622047
21
0.8998803543307087
0
LINE
8
BLACK
6
CONTINUOUS
10
0.8563861023622047
20
0.8998803543307087
11
0.8586229527559055
21
0.8954903149606299
0
LINE
8
BLACK
6
CONTINUOUS
10
0.8586229527559055
20
0.8954903149606299
11
0.8593937007874015
21
0.8906238976377953
0
LINE
8
BLACK
6
CONTINUOUS
10
0.8593937007874015
20
0.8906238976377953
11
0.8586229527559055
21
0.8857574803149606
0
LINE
8
BLACK
6
CONTINUOUS
10
0.8586229527559055
20
0.8857574803149606
11
0.8563861023622047
21
0.8813674409448818
0
LINE
8
BLACK
6
CONTINUOUS
10
0.8563861023622047
20
0.8813674409448818
11
0.852902125984252
21
0.8778834645669291
0
LINE
8
BLACK
6
CONTINUOUS
10
0.852902125984252
20
0.8778834645669291
11
0.8485120866141732
21
0.8756466141732283
0
LINE
8
BLACK
6
CONTINUOUS
10
0.8485120866141732
20
0.8756466141732283
11
0.8436456692913386
21
0.8748758661417323
0
LINE
8
BLACK
6
CONTINUOUS
10
0.8436456692913386
20
0.8748758661417323
11
0.8387792519685039
21
0.8756466141732283
0
LINE
8
BLACK
6
CONTINUOUS
10
0.8387792519685039
20
0.8756466141732283
11
0.8343892125984251
21
0.8778834645669291
0
LINE
8
BLACK
6
CONTINUOUS
10
0.8343892125984251
20
0.8778834645669291
11
0.8311309448818898
21
0.8811417322834646
0
LINE
8
BLACK
6
CONTINUOUS
10
0.8311309448818898
20
0.8811417322834646
11
0.6800000393700787
21
0.8811417322834646
0
LINE
8
BLACK
6
CONTINUOUS
10
0.6800000393700787
20
0.8811417322834646
11
0.6800000393700787
21
0.87
0
LINE
8
BLACK
6
CONTINUOUS
10
0.6800000393700787
20
0.87
11
0.6200000393700787
21
0.87
0
LINE
8
BLACK
6
CONTINUOUS
10
0.6200000393700787
20
0.87
11
0.6200000393700787
21
0.8911417322834645
0
LINE
8
BLACK
6
CONTINUOUS
10
0.6200000393700787
20
0.8911417322834645
11
0.5800000393700787
21
0.8911417322834645
0
LINE
8
BLACK
6
CONTINUOUS
10
0.5800000393700787
20
0.8911417322834645
11
0.5800000393700787
21
0.87
0
LINE
8
BLACK
6
CONTINUOUS
10
0.5800000393700787
20
0.87
11
0.5200000393700788
21
0.87
0
LINE
8
BLACK
6
CONTINUOUS
10
0.5200000393700788
20
0.87
11
0.5200000393700788
21
0.9174725196850394
0
LINE
8
BLACK
6
CONTINUOUS
10
0.5200000393700788
20
0.9174725196850394
11
0.4803306692913386
21
0.9571418897637795
0
LINE
8
BLACK
6
CONTINUOUS
10
0.4803306692913386
20
0.9571418897637795
11
0.3775889763779527
21
0.9571418897637795
0
LINE
8
BLACK
6
CONTINUOUS
10
0.3775889763779527
20
0.9571418897637795
11
0.3773861023622047
21
0.9567437007874016
0
LINE
8
BLACK
6
CONTINUOUS
10
0.3773861023622047
20
0.9567437007874016
11
0.373902125984252
21
0.9532597244094488
0
LINE
8
BLACK
6
CONTINUOUS
10
0.373902125984252
20
0.9532597244094488
11
0.3695120866141732
21
0.951022874015748
0
LINE
8
BLACK
6
CONTINUOUS
10
0.3695120866141732
20
0.951022874015748
11
0.3646456692913386
21
0.9502521259842519
0
LINE
8
BLACK
6
CONTINUOUS
10
0.3646456692913386
20
0.9502521259842519
11
0.3597792519685039
21
0.951022874015748
0
LINE
8
BLACK
6
CONTINUOUS
10
0.3597792519685039
20
0.951022874015748
11
0.3553892125984252
21
0.9532597244094488
0
LINE
8
BLACK
6
CONTINUOUS
10
0.3553892125984252
20
0.9532597244094488
11
0.3519052362204724
21
0.9567437007874016
0
LINE
8
BLACK
6
CONTINUOUS
10
0.3519052362204724
20
0.9567437007874016
11
0.3496683858267716
21
0.9611337401574803
0
LINE
8
BLACK
6
CONTINUOUS
10
0.3496683858267716
20
0.9611337401574803
11
0.3488976377952756
21
0.966000157480315
0
LINE
8
BLACK
6
CONTINUOUS
10
0.3488976377952756
20
0.966000157480315
11
0.3496683858267716
21
0.9708665748031495
0
LINE
8
BLACK
6
CONTINUOUS
10
0.3496683858267716
20
0.9708665748031495
11
0.3519052362204724
21
0.9752566141732283
0
LINE
8
BLACK
6
CONTINUOUS
10
0.3519052362204724
20
0.9752566141732283
11
0.3553892125984252
21
0.9787405905511811
0
LINE
8
BLACK
6
CONTINUOUS
10
0.3553892125984252
20
0.9787405905511811
11
0.3597792519685039
21
0.9809774409448818
0
LINE
8
BLACK
6
CONTINUOUS
10
0.3597792519685039
20
0.9809774409448818
11
0.3646456692913386
21
0.9817481889763779
0
LINE
8
BLACK
6
CONTINUOUS
10
0.3646456692913386
20
0.9817481889763779
11
0.3695120866141732
21
0.9809774409448818
0
LINE
8
BLACK
6
CONTINUOUS
10
0.7348662598425196
20
1.2649771259842519
11
0.7392562992125984
21
1.2627402755905512
0
LINE
8
BLACK
6
CONTINUOUS
10
0.7392562992125984
20
1.2627402755905512
11
0.7427402755905511
21
1.2592562992125984
0
LINE
8
BLACK
6
CONTINUOUS
10
0.7427402755905511
20
1.2592562992125984
11
0.7449771259842519
21
1.2548662598425198
0
LINE
8
BLACK
6
CONTINUOUS
10
0.7449771259842519
20
1.2548662598425198
11
0.745747874015748
21
1.249999842519685
0
LINE
8
BLACK
6
CONTINUOUS
10
0.745747874015748
20
1.249999842519685
11
0.7449771259842519
21
1.2451334251968504
0
LINE
8
BLACK
6
CONTINUOUS
10
0.7449771259842519
20
1.2451334251968504
11
0.7427402755905511
21
1.2407433858267716
0
LINE
8
BLACK
6
CONTINUOUS
10
0.7427402755905511
20
1.2407433858267716
11
0.7392562992125984
21
1.237259409448819
0
LINE
8
BLACK
6
CONTINUOUS
10
0.7392562992125984
20
1.237259409448819
11
0.7388581102362205
21
1.2370565354330709
0
LINE
8
BLACK
6
CONTINUOUS
10
0.7388581102362205
20
1.2370565354330709
11
0.7388581102362205
21
1.0836698425196851
0
LINE
8
BLACK
6
CONTINUOUS
10
0.7388581102362205
20
1.0836698425196851
11
0.8042637401574803
21
1.0182642125984251
0
LINE
8
BLACK
6
CONTINUOUS
10
0.8042637401574803
20
1.0182642125984251
11
0.8054291732283464
21
1.0168250393700786
0
LINE
8
BLACK
6
CONTINUOUS
10
0.8054291732283464
20
1.0168250393700786
11
0.8056803543307086
21
1.0161706299212598
0
LINE
8
BLACK
6
CONTINUOUS
10
0.8056803543307086
20
1.0161706299212598
11
0.8060924409448819
21
1.0156034645669292
0
LINE
8
BLACK
6
CONTINUOUS
10
0.8060924409448819
20
1.0156034645669292
11
0.8063335826771654
21
1.0144689370078739
0
LINE
8
BLACK
6
CONTINUOUS
10
0.8063335826771654
20
1.0144689370078739
11
0.8067492125984251
21
1.0133861811023621
0
LINE
8
BLACK
6
CONTINUOUS
10
0.8067492125984251
20
1.0133861811023621
11
0.8067125196850393
21
1.0126861417322834
0
LINE
8
BLACK
6
CONTINUOUS
10
0.8067125196850393
20
1.0126861417322834
11
0.8068582677165355
21
1.0120004724409448
0
LINE
8
BLACK
6
CONTINUOUS
10
0.8068582677165355
20
1.0120004724409448
11
0.8068582677165355
21
0.9519433464566929
0
LINE
8
BLACK
6
CONTINUOUS
10
0.8068582677165355
20
0.9519433464566929
11
0.8072564566929133
21
0.9517404330708661
0
LINE
8
BLACK
6
CONTINUOUS
10
0.8072564566929133
20
0.9517404330708661
11
0.8107404330708661
21
0.9482564566929134
0
LINE
8
BLACK
6
CONTINUOUS
10
0.8107404330708661
20
0.9482564566929134
11
0.8129772834645669
21
0.9438664173228346
0
LINE
8
BLACK
6
CONTINUOUS
10
0.8129772834645669
20
0.9438664173228346
11
0.813748031496063
21
0.9389999999999999
0
LINE
8
BLACK
6
CONTINUOUS
10
0.813748031496063
20
0.9389999999999999
11
0.8129772834645669
21
0.9341335826771653
0
LINE
8
BLACK
6
CONTINUOUS
10
0.8129772834645669
20
0.9341335826771653
11
0.8107404330708661
21
0.9297435433070866
0
LINE
8
BLACK
6
CONTINUOUS
10
0.8107404330708661
20
0.9297435433070866
11
0.8072564566929133
21
0.9262595669291338
0
LINE
8
BLACK
6
CONTINUOUS
10
0.8072564566929133
20
0.9262595669291338
11
0.8028664173228346
21
0.924022716535433
0
LINE
8
BLACK
6
CONTINUOUS
10
0.8028664173228346
20
0.924022716535433
11
0.7979999999999999
21
0.923251968503937
0
LINE
8
BLACK
6
CONTINUOUS
10
0.7979999999999999
20
0.923251968503937
11
0.7931335826771654
21
0.924022716535433
0
LINE
8
BLACK
6
CONTINUOUS
10
0.7931335826771654
20
0.924022716535433
11
0.7887435433070866
21
0.9262595669291338
0
LINE
8
BLACK
6
CONTINUOUS
10
0.7887435433070866
20
0.9262595669291338
11
0.7852595669291338
21
0.9297435433070866
0
LINE
8
BLACK
6
CONTINUOUS
10
0.7852595669291338
20
0.9297435433070866
11
0.7830227165354331
21
0.9341335826771653
0
LINE
8
BLACK
6
CONTINUOUS
10
0.7830227165354331
20
0.9341335826771653
11
0.782251968503937
21
0.9389999999999999
0
LINE
8
BLACK
6
CONTINUOUS
10
0.782251968503937
20
0.9389999999999999
11
0.7830227165354331
21
0.9438664173228346
0
LINE
8
BLACK
6
CONTINUOUS
10
0.7830227165354331
20
0.9438664173228346
11
0.7852595669291338
21
0.9482564566929134
0
LINE
8
BLACK
6
CONTINUOUS
10
0.7852595669291338
20
0.9482564566929134
11
0.7887435433070866
21
0.9517404330708661
0
LINE
8
BLACK
6
CONTINUOUS
10
0.7887435433070866
20
0.9517404330708661
11
0.7891417322834645
21
0.9519433464566929
0
LINE
8
BLACK
6
CONTINUOUS
10
0.7891417322834645
20
0.9519433464566929
11
0.7891417322834645
21
1.0083312598425196
0
LINE
8
BLACK
6
CONTINUOUS
10
0.7891417322834645
20
1.0083312598425196
11
0.7300002362204724
21
1.0674727559055117
0
LINE
8
BLACK
6
CONTINUOUS
10
0.7300002362204724
20
1.0674727559055117
11
0.6800000393700787
21
1.0174725196850394
0
LINE
8
BLACK
6
CONTINUOUS
10
0.6800000393700787
20
1.0174725196850394
11
0.6800000393700787
21
0.97
0
LINE
8
BLACK
6
CONTINUOUS
10
0.6800000393700787
20
0.97
11
0.6200000393700787
21
0.97
0
LINE
8
BLACK
6
CONTINUOUS
10
0.6200000393700787
20
0.97
11
0.6200000393700787
21
1.03
0
LINE
8
BLACK
6
CONTINUOUS
10
0.6200000393700787
20
1.03
11
0.667472559055118
21
1.03
0
LINE
8
BLACK
6
CONTINUOUS
10
0.667472559055118
20
1.03
11
0.7211415748031496
21
1.0836690157480315
0
LINE
8
BLACK
6
CONTINUOUS
10
0.7211415748031496
20
1.0836690157480315
11
0.7211415748031496
21
1.2370565354330709
0
LINE
8
BLACK
6
CONTINUOUS
10
0.7211415748031496
20
1.2370565354330709
11
0.7207433858267717
21
1.237259409448819
0
LINE
8
BLACK
6
CONTINUOUS
10
0.7207433858267717
20
1.237259409448819
11
0.7172594094488188
21
1.2407433858267716
0
LINE
8
BLACK
6
CONTINUOUS
10
0.7172594094488188
20
1.2407433858267716
11
0.7150225590551181
21
1.2451334251968504
0
LINE
8
BLACK
6
CONTINUOUS
10
0.7150225590551181
20
1.2451334251968504
11
0.714251811023622
21
1.249999842519685
0
LINE
8
BLACK
6
CONTINUOUS
10
0.714251811023622
20
1.249999842519685
11
0.7150225590551181
21
1.2548662598425198
0
LINE
8
BLACK
6
CONTINUOUS
10
0.7150225590551181
20
1.2548662598425198
11
0.7172594094488188
21
1.2592562992125984
0
LINE
8
BLACK
6
CONTINUOUS
10
0.7172594094488188
20
1.2592562992125984
11
0.7207433858267717
21
1.2627402755905512
0
LINE
8
BLACK
6
CONTINUOUS
10
0.7207433858267717
20
1.2627402755905512
11
0.7251334251968504
21
1.2649771259842519
0
LINE
8
BLACK
6
CONTINUOUS
10
0.7251334251968504
20
1.2649771259842519
11
0.729999842519685
21
1.265747874015748
0
LINE
8
BLACK
6
CONTINUOUS
10
0.729999842519685
20
1.265747874015748
11
0.7348662598425196
21
1.2649771259842519
0
LINE
8
BLACK
6
CONTINUOUS
10
0.4048664173228346
20
1.1149772834645668
11
0.4092564566929134
21
1.1127404330708661
0
LINE
8
BLACK
6
CONTINUOUS
10
0.4092564566929134
20
1.1127404330708661
11
0.4127404330708661
21
1.1092564566929133
0
LINE
8
BLACK
6
CONTINUOUS
10
0.4127404330708661
20
1.1092564566929133
11
0.4149772834645669
21
1.1048664173228346
0
LINE
8
BLACK
6
CONTINUOUS
10
0.4149772834645669
20
1.1048664173228346
11
0.415748031496063
21
1.0999999999999999
0
LINE
8
BLACK
6
CONTINUOUS
10
0.415748031496063
20
1.0999999999999999
11
0.4153076771653543
21
1.0972198031496063
0
LINE
8
BLACK
6
CONTINUOUS
10
0.4153076771653543
20
1.0972198031496063
11
0.5036692125984252
21
1.0088582677165354
0
LINE
8
BLACK
6
CONTINUOUS
10
0.5036692125984252
20
1.0088582677165354
11
0.5200000393700788
21
1.0088582677165354
0
LINE
8
BLACK
6
CONTINUOUS
10
0.5200000393700788
20
1.0088582677165354
11
0.5200000393700788
21
1.03
0
LINE
8
BLACK
6
CONTINUOUS
10
0.5200000393700788
20
1.03
11
0.5800000393700787
21
1.03
0
LINE
8
BLACK
6
CONTINUOUS
10
0.5800000393700787
20
1.03
11
0.5800000393700787
21
0.97
0
LINE
8
BLACK
6
CONTINUOUS
10
0.5800000393700787
20
0.97
11
0.5200000393700788
21
0.97
0
LINE
8
BLACK
6
CONTINUOUS
10
0.5200000393700788
20
0.97
11
0.5200000393700788
21
0.9911417322834646
0
LINE
8
BLACK
6
CONTINUOUS
10
0.5200000393700788
20
0.9911417322834646
11
0.5
21
0.9911417322834646
0
LINE
8
BLACK
6
CONTINUOUS
10
0.5
20
0.9911417322834646
11
0.4981582677165354
21
0.9913353149606299
0
LINE
8
BLACK
6
CONTINUOUS
10
0.4981582677165354
20
0.9913353149606299
11
0.497517874015748
21
0.9916204330708661
0
LINE
8
BLACK
6
CONTINUOUS
10
0.497517874015748
20
0.9916204330708661
11
0.4968254724409449
21
0.9917300787401575
0
LINE
8
BLACK
6
CONTINUOUS
10
0.4968254724409449
20
0.9917300787401575
11
0.4958527165354331
21
0.992361811023622
0
LINE
8
BLACK
6
CONTINUOUS
10
0.4958527165354331
20
0.992361811023622
11
0.4947932283464567
21
0.9928335039370079
0
LINE
8
BLACK
6
CONTINUOUS
10
0.4947932283464567
20
0.9928335039370079
11
0.4943241338582677
21
0.9933544881889763
0
LINE
8
BLACK
6
CONTINUOUS
10
0.4943241338582677
20
0.9933544881889763
11
0.4937362598425197
21
0.9937362598425197
0
LINE
8
BLACK
6
CONTINUOUS
10
0.4937362598425197
20
0.9937362598425197
11
0.4027801968503937
21
1.0846923228346457
0
LINE
8
BLACK
6
CONTINUOUS
10
0.4027801968503937
20
1.0846923228346457
11
0.4
21
1.0842519685039369
0
LINE
8
BLACK
6
CONTINUOUS
10
0.4
20
1.0842519685039369
11
0.3951335826771654
21
1.0850227165354331
0
LINE
8
BLACK
6
CONTINUOUS
10
0.3951335826771654
20
1.0850227165354331
11
0.3907435433070866
21
1.0872595669291338
0
LINE
8
BLACK
6
CONTINUOUS
10
0.3907435433070866
20
1.0872595669291338
11
0.3872595669291338
21
1.0907435433070867
0
LINE
8
BLACK
6
CONTINUOUS
10
0.3872595669291338
20
1.0907435433070867
11
0.3850227165354331
21
1.0951335826771653
0
LINE
8
BLACK
6
CONTINUOUS
10
0.3850227165354331
20
1.0951335826771653
11
0.384251968503937
21
1.0999999999999999
0
LINE
8
BLACK
6
CONTINUOUS
10
0.384251968503937
20
1.0999999999999999
11
0.3850227165354331
21
1.1048664173228346
0
LINE
8
BLACK
6
CONTINUOUS
10
0.3850227165354331
20
1.1048664173228346
11
0.3872595669291338
21
1.1092564566929133
0
LINE
8
BLACK
6
CONTINUOUS
10
0.3872595669291338
20
1.1092564566929133
11
0.3907435433070866
21
1.1127404330708661
0
LINE
8
BLACK
6
CONTINUOUS
10
0.3907435433070866
20
1.1127404330708661
11
0.3951335826771654
21
1.1149772834645668
0
LINE
8
BLACK
6
CONTINUOUS
10
0.3951335826771654
20
1.1149772834645668
11
0.4
21
1.1157480314960631
0
LINE
8
BLACK
6
CONTINUOUS
10
0.4
20
1.1157480314960631
11
0.4048664173228346
21
1.1149772834645668
0
LINE
8
BLACK
6
CONTINUOUS
10
0.5800000393700787
20
1.0700000000000001
11
0.5200000393700788
21
1.0700000000000001
0
LINE
8
BLACK
6
CONTINUOUS
10
0.5200000393700788
20
1.0700000000000001
11
0.5200000393700788
21
1.1299999999999999
0
LINE
8
BLACK
6
CONTINUOUS
10
0.5200000393700788
20
1.1299999999999999
11
0.5800000393700787
21
1.1299999999999999
0
LINE
8
BLACK
6
CONTINUOUS
10
0.5800000393700787
20
1.1299999999999999
11
0.5800000393700787
21
1.0700000000000001
0
LINE
8
BLACK
6
CONTINUOUS
10
0.6800000393700787
20
1.0700000000000001
11
0.6200000393700787
21
1.0700000000000001
0
LINE
8
BLACK
6
CONTINUOUS
10
0.6200000393700787
20
1.0700000000000001
11
0.6200000393700787
21
1.1299999999999999
0
LINE
8
BLACK
6
CONTINUOUS
10
0.6200000393700787
20
1.1299999999999999
11
0.6800000393700787
21
1.1299999999999999
0
LINE
8
BLACK
6
CONTINUOUS
10
0.6800000393700787
20
1.1299999999999999
11
0.6800000393700787
21
1.0700000000000001
0
LINE
8
BLACK
6
CONTINUOUS
10
0.6178846850393701
20
1.5302804330708661
11
0.6194319291338583
21
1.528982125984252
0
LINE
8
BLACK
6
CONTINUOUS
10
0.6194319291338583
20
1.528982125984252
11
0.6197826771653543
21
1.5269929921259842
0
LINE
8
BLACK
6
CONTINUOUS
10
0.6197826771653543
20
1.5269929921259842
11
0.6187727559055118
21
1.5252438188976378
0
LINE
8
BLACK
6
CONTINUOUS
10
0.6187727559055118
20
1.5252438188976378
11
0.6168747637795275
21
1.5245529921259842
0
LINE
8
BLACK
6
CONTINUOUS
10
0.6168747637795275
20
1.5245529921259842
11
0.5908144488188977
21
1.5245529921259842
0
LINE
8
BLACK
6
CONTINUOUS
10
0.5908144488188977
20
1.5245529921259842
11
0.606874842519685
21
1.5170581496062991
0
LINE
8
BLACK
6
CONTINUOUS
10
0.606874842519685
20
1.5170581496062991
11
0.6071925984251968
21
1.5168355118110235
0
LINE
8
BLACK
6
CONTINUOUS
10
0.6071925984251968
20
1.5168355118110235
11
0.6073190551181102
21
1.5168016535433071
0
LINE
8
BLACK
6
CONTINUOUS
10
0.6073190551181102
20
1.5168016535433071
11
0.6073944094488188
21
1.516694094488189
0
LINE
8
BLACK
6
CONTINUOUS
10
0.6073944094488188
20
1.516694094488189
11
0.6077146850393701
21
1.51646968503937
0
LINE
8
BLACK
6
CONTINUOUS
10
0.6077146850393701
20
1.51646968503937
11
0.6080382677165355
21
1.5157751968503936
0
LINE
8
BLACK
6
CONTINUOUS
10
0.6080382677165355
20
1.5157751968503936
11
0.6084781102362204
21
1.5151474803149605
0
LINE
8
BLACK
6
CONTINUOUS
10
0.6084781102362204
20
1.5151474803149605
11
0.6084548425196851
21
1.5148811417322834
0
LINE
8
BLACK
6
CONTINUOUS
10
0.6084548425196851
20
1.5148811417322834
11
0.6085677559055118
21
1.5146388582677166
0
LINE
8
BLACK
6
CONTINUOUS
10
0.6085677559055118
20
1.5146388582677166
11
0.6083691732283465
21
1.5138986614173229
0
LINE
8
BLACK
6
CONTINUOUS
10
0.6083691732283465
20
1.5138986614173229
11
0.6083025984251968
21
1.5131353149606299
0
LINE
8
BLACK
6
CONTINUOUS
10
0.6083025984251968
20
1.5131353149606299
11
0.6081136614173228
21
1.5129462992125984
0
LINE
8
BLACK
6
CONTINUOUS
10
0.6081136614173228
20
1.5129462992125984
11
0.6080444094488189
21
1.5126880314960629
0
LINE
8
BLACK
6
CONTINUOUS
10
0.6080444094488189
20
1.5126880314960629
11
0.6074164960629921
21
1.5122486614173227
0
LINE
8
BLACK
6
CONTINUOUS
10
0.6074164960629921
20
1.5122486614173227
11
0.606874842519685
21
1.511706653543307
0
LINE
8
BLACK
6
CONTINUOUS
10
0.606874842519685
20
1.511706653543307
11
0.5908144488188977
21
1.504211811023622
0
LINE
8
BLACK
6
CONTINUOUS
10
0.5908144488188977
20
1.504211811023622
11
0.6168747637795275
21
1.504211811023622
0
LINE
8
BLACK
6
CONTINUOUS
10
0.6168747637795275
20
1.504211811023622
11
0.6178846850393701
21
1.5040337401574804
0
LINE
8
BLACK
6
CONTINUOUS
10
0.6178846850393701
20
1.5040337401574804
11
0.6194319291338583
21
1.5027354330708662
0
LINE
8
BLACK
6
CONTINUOUS
10
0.6194319291338583
20
1.5027354330708662
11
0.6197826771653543
21
1.5007462992125984
0
LINE
8
BLACK
6
CONTINUOUS
10
0.6197826771653543
20
1.5007462992125984
11
0.6187727559055118
21
1.4989971259842518
0
LINE
8
BLACK
6
CONTINUOUS
10
0.6187727559055118
20
1.4989971259842518
11
0.6168747637795275
21
1.4983062992125984
0
LINE
8
BLACK
6
CONTINUOUS
10
0.6168747637795275
20
1.4983062992125984
11
0.57750468503937
21
1.4983062992125984
0
LINE
8
BLACK
6
CONTINUOUS
10
0.57750468503937
20
1.4983062992125984
11
0.5764947637795276
21
1.49848437007874
0
LINE
8
BLACK
6
CONTINUOUS
10
0.5764947637795276
20
1.49848437007874
11
0.5761926377952756
21
1.498737874015748
0
LINE
8
BLACK
6
CONTINUOUS
10
0.5761926377952756
20
1.498737874015748
11
0.5758117716535432
21
1.4988398031496062
0
LINE
8
BLACK
6
CONTINUOUS
10
0.5758117716535432
20
1.4988398031496062
11
0.5754416141732284
21
1.4993680708661417
0
LINE
8
BLACK
6
CONTINUOUS
10
0.5754416141732284
20
1.4993680708661417
11
0.5749475196850393
21
1.4997826771653544
0
LINE
8
BLACK
6
CONTINUOUS
10
0.5749475196850393
20
1.4997826771653544
11
0.5748790157480315
21
1.5001710236220471
0
LINE
8
BLACK
6
CONTINUOUS
10
0.5748790157480315
20
1.5001710236220471
11
0.5746527559055118
21
1.5004939763779528
0
LINE
8
BLACK
6
CONTINUOUS
10
0.5746527559055118
20
1.5004939763779528
11
0.5747087795275591
21
1.5011365748031495
0
LINE
8
BLACK
6
CONTINUOUS
10
0.5747087795275591
20
1.5011365748031495
11
0.5745967716535433
21
1.501771811023622
0
LINE
8
BLACK
6
CONTINUOUS
10
0.5745967716535433
20
1.501771811023622
11
0.574793937007874
21
1.5021133858267717
0
LINE
8
BLACK
6
CONTINUOUS
10
0.574793937007874
20
1.5021133858267717
11
0.5748282283464566
21
1.5025061417322834
0
LINE
8
BLACK
6
CONTINUOUS
10
0.5748282283464566
20
1.5025061417322834
11
0.5752841338582677
21
1.5029623622047243
0
LINE
8
BLACK
6
CONTINUOUS
10
0.5752841338582677
20
1.5029623622047243
11
0.5756066929133858
21
1.5035209842519686
0
LINE
8
BLACK
6
CONTINUOUS
10
0.5756066929133858
20
1.5035209842519686
11
0.5759772440944881
21
1.5036558661417323
0
LINE
8
BLACK
6
CONTINUOUS
10
0.5759772440944881
20
1.5036558661417323
11
0.5762560236220472
21
1.5039348031496063
0
LINE
8
BLACK
6
CONTINUOUS
10
0.5762560236220472
20
1.5039348031496063
11
0.5986437007874016
21
1.5143824015748031
0
LINE
8
BLACK
6
CONTINUOUS
10
0.5986437007874016
20
1.5143824015748031
11
0.5762560236220472
21
1.5248299999999999
0
LINE
8
BLACK
6
CONTINUOUS
10
0.5762560236220472
20
1.5248299999999999
11
0.5754161417322835
21
1.5254184645669291
0
LINE
8
BLACK
6
CONTINUOUS
10
0.5754161417322835
20
1.5254184645669291
11
0.5752495669291339
21
1.525775905511811
0
LINE
8
BLACK
6
CONTINUOUS
10
0.5752495669291339
20
1.525775905511811
11
0.5749475196850393
21
1.5260293700787402
0
LINE
8
BLACK
6
CONTINUOUS
10
0.5749475196850393
20
1.5260293700787402
11
0.5748355118110237
21
1.5266645669291339
0
LINE
8
BLACK
6
CONTINUOUS
10
0.5748355118110237
20
1.5266645669291339
11
0.5745630708661417
21
1.5272492519685039
0
LINE
8
BLACK
6
CONTINUOUS
10
0.5745630708661417
20
1.5272492519685039
11
0.5746652362204724
21
1.5276301574803148
0
LINE
8
BLACK
6
CONTINUOUS
10
0.5746652362204724
20
1.5276301574803148
11
0.5745967716535433
21
1.5280185039370078
0
LINE
8
BLACK
6
CONTINUOUS
10
0.5745967716535433
20
1.5280185039370078
11
0.5749192519685039
21
1.5285770866141732
0
LINE
8
BLACK
6
CONTINUOUS
10
0.5749192519685039
20
1.5285770866141732
11
0.5750864173228346
21
1.5292001181102362
0
LINE
8
BLACK
6
CONTINUOUS
10
0.5750864173228346
20
1.5292001181102362
11
0.5754095275590551
21
1.5294262598425197
0
LINE
8
BLACK
6
CONTINUOUS
10
0.5754095275590551
20
1.5294262598425197
11
0.5756066929133858
21
1.5297676771653543
0
LINE
8
BLACK
6
CONTINUOUS
10
0.5756066929133858
20
1.5297676771653543
11
0.5762127559055118
21
1.529988307086614
0
LINE
8
BLACK
6
CONTINUOUS
10
0.5762127559055118
20
1.529988307086614
11
0.5767412992125984
21
1.5303581102362205
0
LINE
8
BLACK
6
CONTINUOUS
10
0.5767412992125984
20
1.5303581102362205
11
0.577134094488189
21
1.5303236614173228
0
LINE
8
BLACK
6
CONTINUOUS
10
0.577134094488189
20
1.5303236614173228
11
0.57750468503937
21
1.5304585039370078
0
LINE
8
BLACK
6
CONTINUOUS
10
0.57750468503937
20
1.5304585039370078
11
0.6168747637795275
21
1.5304585039370078
0
LINE
8
BLACK
6
CONTINUOUS
10
0.6168747637795275
20
1.5304585039370078
11
0.6178846850393701
21
1.5302804330708661
0
LINE
8
BLACK
6
CONTINUOUS
10
0.6191366929133858
20
1.5668990551181101
11
0.6198275196850394
21
1.565001062992126
0
LINE
8
BLACK
6
CONTINUOUS
10
0.6198275196850394
20
1.565001062992126
11
0.6198275196850394
21
1.5462534251968503
0
LINE
8
BLACK
6
CONTINUOUS
10
0.6198275196850394
20
1.5462534251968503
11
0.6197598818897637
21
1.5458699212598426
0
LINE
8
BLACK
6
CONTINUOUS
10
0.6197598818897637
20
1.5458699212598426
11
0.6197826771653543
21
1.5457406692913385
0
LINE
8
BLACK
6
CONTINUOUS
10
0.6197826771653543
20
1.5457406692913385
11
0.6197170472440945
21
1.5456270866141733
0
LINE
8
BLACK
6
CONTINUOUS
10
0.6197170472440945
20
1.5456270866141733
11
0.6196494488188976
21
1.5452435039370078
0
LINE
8
BLACK
6
CONTINUOUS
10
0.6196494488188976
20
1.5452435039370078
11
0.6191562992125984
21
1.5446558267716535
0
LINE
8
BLACK
6
CONTINUOUS
10
0.6191562992125984
20
1.5446558267716535
11
0.6187727559055118
21
1.5439914960629921
0
LINE
8
BLACK
6
CONTINUOUS
10
0.6187727559055118
20
1.5439914960629921
11
0.6185224015748031
21
1.5439003937007874
0
LINE
8
BLACK
6
CONTINUOUS
10
0.6185224015748031
20
1.5439003937007874
11
0.6183511417322834
21
1.5436962598425197
0
LINE
8
BLACK
6
CONTINUOUS
10
0.6183511417322834
20
1.5436962598425197
11
0.6175955511811023
21
1.5435630314960629
0
LINE
8
BLACK
6
CONTINUOUS
10
0.6175955511811023
20
1.5435630314960629
11
0.6168747637795275
21
1.5433006692913385
0
LINE
8
BLACK
6
CONTINUOUS
10
0.6168747637795275
20
1.5433006692913385
11
0.57750468503937
21
1.5433006692913385
0
LINE
8
BLACK
6
CONTINUOUS
10
0.57750468503937
20
1.5433006692913385
11
0.5764947637795276
21
1.5434787401574803
0
LINE
8
BLACK
6
CONTINUOUS
10
0.5764947637795276
20
1.5434787401574803
11
0.5749475196850393
21
1.5447770472440945
0
LINE
8
BLACK
6
CONTINUOUS
10
0.5749475196850393
20
1.5447770472440945
11
0.5745967716535433
21
1.5467661811023621
0
LINE
8
BLACK
6
CONTINUOUS
10
0.5745967716535433
20
1.5467661811023621
11
0.5756066929133858
21
1.5485153543307086
0
LINE
8
BLACK
6
CONTINUOUS
10
0.5756066929133858
20
1.5485153543307086
11
0.57750468503937
21
1.5492061811023621
0
LINE
8
BLACK
6
CONTINUOUS
10
0.57750468503937
20
1.5492061811023621
11
0.6139220078740157
21
1.5492061811023621
0
LINE
8
BLACK
6
CONTINUOUS
10
0.6139220078740157
20
1.5492061811023621
11
0.6139220078740157
21
1.565001062992126
0
LINE
8
BLACK
6
CONTINUOUS
10
0.6139220078740157
20
1.565001062992126
11
0.6141000787401575
21
1.5660109842519685
0
LINE
8
BLACK
6
CONTINUOUS
10
0.6141000787401575
20
1.5660109842519685
11
0.6153983858267716
21
1.5675582283464566
0
LINE
8
BLACK
6
CONTINUOUS
10
0.6153983858267716
20
1.5675582283464566
11
0.6173875196850394
21
1.5679089763779528
0
LINE
8
BLACK
6
CONTINUOUS
10
0.6173875196850394
20
1.5679089763779528
11
0.6191366929133858
21
1.5668990551181101
0
LINE
8
BLACK
6
CONTINUOUS
10
0.6188338188976378
20
1.6009561023622048
11
0.6197955905511811
21
1.5991799606299213
0
LINE
8
BLACK
6
CONTINUOUS
10
0.6197955905511811
20
1.5991799606299213
11
0.6193906299212598
21
1.5972011811023621
0
LINE
8
BLACK
6
CONTINUOUS
10
0.6193906299212598
20
1.5972011811023621
11
0.6178085039370078
21
1.5959456299212598
0
LINE
8
BLACK
6
CONTINUOUS
10
0.6178085039370078
20
1.5959456299212598
11
0.6085788976377953
21
1.5928691338582677
0
LINE
8
BLACK
6
CONTINUOUS
10
0.6085788976377953
20
1.5928691338582677
11
0.6085788976377953
21
1.5783779133858267
0
LINE
8
BLACK
6
CONTINUOUS
10
0.6085788976377953
20
1.5783779133858267
11
0.6178085039370078
21
1.5753013779527558
0
LINE
8
BLACK
6
CONTINUOUS
10
0.6178085039370078
20
1.5753013779527558
11
0.6187102755905511
21
1.5748131102362204
0
LINE
8
BLACK
6
CONTINUOUS
10
0.6187102755905511
20
1.5748131102362204
11
0.619767559055118
21
1.5730921259842519
0
LINE
8
BLACK
6
CONTINUOUS
10
0.619767559055118
20
1.5730921259842519
11
0.6194712992125984
21
1.5710941732283463
0
LINE
8
BLACK
6
CONTINUOUS
10
0.6194712992125984
20
1.5710941732283463
11
0.6179600393700787
21
1.5697540944881889
0
LINE
8
BLACK
6
CONTINUOUS
10
0.6179600393700787
20
1.5697540944881889
11
0.6159410236220473
21
1.569698937007874
0
LINE
8
BLACK
6
CONTINUOUS
10
0.6159410236220473
20
1.569698937007874
11
0.5765709448818898
21
1.5828222834645669
0
LINE
8
BLACK
6
CONTINUOUS
10
0.5765709448818898
20
1.5828222834645669
11
0.5756691732283464
21
1.5833105905511811
0
LINE
8
BLACK
6
CONTINUOUS
10
0.5756691732283464
20
1.5833105905511811
11
0.5756246456692913
21
1.5833830314960629
0
LINE
8
BLACK
6
CONTINUOUS
10
0.5756246456692913
20
1.5833830314960629
11
0.5755456299212598
21
1.5834142519685039
0
LINE
8
BLACK
6
CONTINUOUS
10
0.5755456299212598
20
1.5834142519685039
11
0.5751007874015748
21
1.5842357480314959
0
LINE
8
BLACK
6
CONTINUOUS
10
0.5751007874015748
20
1.5842357480314959
11
0.5746118897637795
21
1.5850315354330708
0
LINE
8
BLACK
6
CONTINUOUS
10
0.5746118897637795
20
1.5850315354330708
11
0.5746243307086614
21
1.5851156299212599
0
LINE
8
BLACK
6
CONTINUOUS
10
0.5746243307086614
20
1.5851156299212599
11
0.5745838582677165
21
1.5851903937007874
0
LINE
8
BLACK
6
CONTINUOUS
10
0.5745838582677165
20
1.5851903937007874
11
0.5747711023622047
21
1.5861055118110237
0
LINE
8
BLACK
6
CONTINUOUS
10
0.5747711023622047
20
1.5861055118110237
11
0.5749081496062992
21
1.5870295275590551
0
LINE
8
BLACK
6
CONTINUOUS
10
0.5749081496062992
20
1.5870295275590551
11
0.5749717716535433
21
1.5870859842519685
0
LINE
8
BLACK
6
CONTINUOUS
10
0.5749717716535433
20
1.5870859842519685
11
0.5749888188976378
21
1.5871691732283464
0
LINE
8
BLACK
6
CONTINUOUS
10
0.5749888188976378
20
1.5871691732283464
11
0.5757200787401575
21
1.5877495275590552
0
LINE
8
BLACK
6
CONTINUOUS
10
0.5757200787401575
20
1.5877495275590552
11
0.5764193700787401
21
1.5883695669291338
0
LINE
8
BLACK
6
CONTINUOUS
10
0.5764193700787401
20
1.5883695669291338
11
0.5765043307086614
21
1.5883718897637795
0
LINE
8
BLACK
6
CONTINUOUS
10
0.5765043307086614
20
1.5883718897637795
11
0.5765709448818898
21
1.5884247244094487
0
LINE
8
BLACK
6
CONTINUOUS
10
0.5765709448818898
20
1.5884247244094487
11
0.6159410236220473
21
1.6015480708661416
0
LINE
8
BLACK
6
CONTINUOUS
10
0.6159410236220473
20
1.6015480708661416
11
0.6169553937007873
21
1.6016985039370077
0
LINE
8
BLACK
6
CONTINUOUS
10
0.6169553937007873
20
1.6016985039370077
11
0.6188338188976378
21
1.6009561023622048
0
LINE
8
BLACK
6
CONTINUOUS
10
0.5868420866141733
20
1.5856235039370079
11
0.6026733858267717
21
1.5803464173228345
0
LINE
8
BLACK
6
CONTINUOUS
10
0.6026733858267717
20
1.5803464173228345
11
0.6026733858267717
21
1.5909006299212598
0
LINE
8
BLACK
6
CONTINUOUS
10
0.6026733858267717
20
1.5909006299212598
11
0.5868420866141733
21
1.5856235039370079
0
LINE
8
BLACK
6
CONTINUOUS
10
0.6103855905511811
20
1.6371420866141733
11
0.6105208267716535
21
1.6370286220472441
0
LINE
8
BLACK
6
CONTINUOUS
10
0.6105208267716535
20
1.6370286220472441
11
0.6106961811023622
21
1.6370084251968504
0
LINE
8
BLACK
6
CONTINUOUS
10
0.6106961811023622
20
1.6370084251968504
11
0.6144457086614173
21
1.6351336614173229
0
LINE
8
BLACK
6
CONTINUOUS
10
0.6144457086614173
20
1.6351336614173229
11
0.6151546850393701
21
1.6346078346456692
0
LINE
8
BLACK
6
CONTINUOUS
10
0.6151546850393701
20
1.6346078346456692
11
0.6152130708661417
21
1.634580590551181
0
LINE
8
BLACK
6
CONTINUOUS
10
0.6152130708661417
20
1.634580590551181
11
0.6170878740157481
21
1.6327058267716534
0
LINE
8
BLACK
6
CONTINUOUS
10
0.6170878740157481
20
1.6327058267716534
11
0.6175942519685039
21
1.6319826771653543
0
LINE
8
BLACK
6
CONTINUOUS
10
0.6175942519685039
20
1.6319826771653543
11
0.6176410236220472
21
1.6319383858267715
0
LINE
8
BLACK
6
CONTINUOUS
10
0.6176410236220472
20
1.6319383858267715
11
0.6195157874015748
21
1.6281888582677164
0
LINE
8
BLACK
6
CONTINUOUS
10
0.6195157874015748
20
1.6281888582677164
11
0.6198081496062992
21
1.6272059448818896
0
LINE
8
BLACK
6
CONTINUOUS
10
0.6198081496062992
20
1.6272059448818896
11
0.619767125984252
21
1.6270342519685039
0
LINE
8
BLACK
6
CONTINUOUS
10
0.619767125984252
20
1.6270342519685039
11
0.6198275196850394
21
1.6268683464566929
0
LINE
8
BLACK
6
CONTINUOUS
10
0.6198275196850394
20
1.6268683464566929
11
0.6198275196850394
21
1.6118702362204724
0
LINE
8
BLACK
6
CONTINUOUS
10
0.6198275196850394
20
1.6118702362204724
11
0.6197598818897637
21
1.6114867322834645
0
LINE
8
BLACK
6
CONTINUOUS
10
0.6197598818897637
20
1.6114867322834645
11
0.6197826771653543
21
1.6113574803149606
0
LINE
8
BLACK
6
CONTINUOUS
10
0.6197826771653543
20
1.6113574803149606
11
0.6197170472440945
21
1.6112438976377952
0
LINE
8
BLACK
6
CONTINUOUS
10
0.6197170472440945
20
1.6112438976377952
11
0.6196494488188976
21
1.61086031496063
0
LINE
8
BLACK
6
CONTINUOUS
10
0.6196494488188976
20
1.61086031496063
11
0.6191562992125984
21
1.6102726377952756
0
LINE
8
BLACK
6
CONTINUOUS
10
0.6191562992125984
20
1.6102726377952756
11
0.6187727559055118
21
1.6096083070866141
0
LINE
8
BLACK
6
CONTINUOUS
10
0.6187727559055118
20
1.6096083070866141
11
0.6185224015748031
21
1.6095172047244095
0
LINE
8
BLACK
6
CONTINUOUS
10
0.6185224015748031
20
1.6095172047244095
11
0.6183511417322834
21
1.6093130708661416
0
LINE
8
BLACK
6
CONTINUOUS
10
0.6183511417322834
20
1.6093130708661416
11
0.6175955511811023
21
1.609179842519685
0
LINE
8
BLACK
6
CONTINUOUS
10
0.6175955511811023
20
1.609179842519685
11
0.6168747637795275
21
1.6089174803149606
0
LINE
8
BLACK
6
CONTINUOUS
10
0.6168747637795275
20
1.6089174803149606
11
0.57750468503937
21
1.6089174803149606
0
LINE
8
BLACK
6
CONTINUOUS
10
0.57750468503937
20
1.6089174803149606
11
0.5771211417322835
21
1.6089851181102361
0
LINE
8
BLACK
6
CONTINUOUS
10
0.5771211417322835
20
1.6089851181102361
11
0.5769919291338582
21
1.6089623228346457
0
LINE
8
BLACK
6
CONTINUOUS
10
0.5769919291338582
20
1.6089623228346457
11
0.5768783070866141
21
1.6090279527559055
0
LINE
8
BLACK
6
CONTINUOUS
10
0.5768783070866141
20
1.6090279527559055
11
0.5764947637795276
21
1.6090955511811023
0
LINE
8
BLACK
6
CONTINUOUS
10
0.5764947637795276
20
1.6090955511811023
11
0.5759070472440945
21
1.6095887007874015
0
LINE
8
BLACK
6
CONTINUOUS
10
0.5759070472440945
20
1.6095887007874015
11
0.5752427559055118
21
1.6099722440944881
0
LINE
8
BLACK
6
CONTINUOUS
10
0.5752427559055118
20
1.6099722440944881
11
0.5751516141732284
21
1.6102225984251968
0
LINE
8
BLACK
6
CONTINUOUS
10
0.5751516141732284
20
1.6102225984251968
11
0.5749475196850393
21
1.6103938582677164
0
LINE
8
BLACK
6
CONTINUOUS
10
0.5749475196850393
20
1.6103938582677164
11
0.5748142519685039
21
1.6111494488188975
0
LINE
8
BLACK
6
CONTINUOUS
10
0.5748142519685039
20
1.6111494488188975
11
0.5745519291338582
21
1.6118702362204724
0
LINE
8
BLACK
6
CONTINUOUS
10
0.5745519291338582
20
1.6118702362204724
11
0.5745519291338582
21
1.6249935826771653
0
LINE
8
BLACK
6
CONTINUOUS
10
0.5745519291338582
20
1.6249935826771653
11
0.57473
21
1.6260035039370078
0
LINE
8
BLACK
6
CONTINUOUS
10
0.57473
20
1.6260035039370078
11
0.5748434645669291
21
1.626138779527559
0
LINE
8
BLACK
6
CONTINUOUS
10
0.5748434645669291
20
1.626138779527559
11
0.5748636614173228
21
1.6263140944881889
0
LINE
8
BLACK
6
CONTINUOUS
10
0.5748636614173228
20
1.6263140944881889
11
0.5767384251968504
21
1.630063622047244
0
LINE
8
BLACK
6
CONTINUOUS
10
0.5767384251968504
20
1.630063622047244
11
0.5772643307086615
21
1.6307727165354331
0
LINE
8
BLACK
6
CONTINUOUS
10
0.5772643307086615
20
1.6307727165354331
11
0.5772915354330709
21
1.6308310236220471
0
LINE
8
BLACK
6
CONTINUOUS
10
0.5772915354330709
20
1.6308310236220471
11
0.5791662992125984
21
1.6327057874015747
0
LINE
8
BLACK
6
CONTINUOUS
10
0.5791662992125984
20
1.6327057874015747
11
0.5798893700787402
21
1.6332120866141733
0
LINE
8
BLACK
6
CONTINUOUS
10
0.5798893700787402
20
1.6332120866141733
11
0.5799337007874016
21
1.6332588976377953
0
LINE
8
BLACK
6
CONTINUOUS
10
0.5799337007874016
20
1.6332588976377953
11
0.5836832283464567
21
1.6351336614173229
0
LINE
8
BLACK
6
CONTINUOUS
10
0.5836832283464567
20
1.6351336614173229
11
0.5846661417322835
21
1.6354260236220473
0
LINE
8
BLACK
6
CONTINUOUS
10
0.5846661417322835
20
1.6354260236220473
11
0.5848378346456693
21
1.6353850393700786
0
LINE
8
BLACK
6
CONTINUOUS
10
0.5848378346456693
20
1.6353850393700786
11
0.5850037401574804
21
1.6354453937007873
0
LINE
8
BLACK
6
CONTINUOUS
10
0.5850037401574804
20
1.6354453937007873
11
0.5887532677165355
21
1.6354453937007873
0
LINE
8
BLACK
6
CONTINUOUS
10
0.5887532677165355
20
1.6354453937007873
11
0.5897631889763779
21
1.6352673228346457
0
LINE
8
BLACK
6
CONTINUOUS
10
0.5897631889763779
20
1.6352673228346457
11
0.5898984251968504
21
1.6351538582677165
0
LINE
8
BLACK
6
CONTINUOUS
10
0.5898984251968504
20
1.6351538582677165
11
0.590073779527559
21
1.6351336614173229
0
LINE
8
BLACK
6
CONTINUOUS
10
0.590073779527559
20
1.6351336614173229
11
0.5938233070866141
21
1.6332588976377953
0
LINE
8
BLACK
6
CONTINUOUS
10
0.5938233070866141
20
1.6332588976377953
11
0.5945323622047244
21
1.6327329921259841
0
LINE
8
BLACK
6
CONTINUOUS
10
0.5945323622047244
20
1.6327329921259841
11
0.5945907086614173
21
1.6327057874015747
0
LINE
8
BLACK
6
CONTINUOUS
10
0.5945907086614173
20
1.6327057874015747
11
0.595473031496063
21
1.6318234645669292
0
LINE
8
BLACK
6
CONTINUOUS
10
0.595473031496063
20
1.6318234645669292
11
0.5958141338582678
21
1.6324533858267716
0
LINE
8
BLACK
6
CONTINUOUS
10
0.5958141338582678
20
1.6324533858267716
11
0.5959645669291338
21
1.6325458267716535
0
LINE
8
BLACK
6
CONTINUOUS
10
0.5959645669291338
20
1.6325458267716535
11
0.5960391732283464
21
1.6327057874015747
0
LINE
8
BLACK
6
CONTINUOUS
10
0.5960391732283464
20
1.6327057874015747
11
0.597913937007874
21
1.6345805511811022
0
LINE
8
BLACK
6
CONTINUOUS
10
0.597913937007874
20
1.6345805511811022
11
0.5986370078740157
21
1.6350868503937008
0
LINE
8
BLACK
6
CONTINUOUS
10
0.5986370078740157
20
1.6350868503937008
11
0.5986813385826771
21
1.6351336614173229
0
LINE
8
BLACK
6
CONTINUOUS
10
0.5986813385826771
20
1.6351336614173229
11
0.6024308661417322
21
1.6370084251968504
0
LINE
8
BLACK
6
CONTINUOUS
10
0.6024308661417322
20
1.6370084251968504
11
0.603413779527559
21
1.6373007874015748
0
LINE
8
BLACK
6
CONTINUOUS
10
0.603413779527559
20
1.6373007874015748
11
0.6035854724409448
21
1.6372598031496062
0
LINE
8
BLACK
6
CONTINUOUS
10
0.6035854724409448
20
1.6372598031496062
11
0.6037513779527559
21
1.6373201574803149
0
LINE
8
BLACK
6
CONTINUOUS
10
0.6037513779527559
20
1.6373201574803149
11
0.6093756692913386
21
1.6373201574803149
0
LINE
8
BLACK
6
CONTINUOUS
10
0.6093756692913386
20
1.6373201574803149
11
0.6103855905511811
21
1.6371420866141733
0
LINE
8
BLACK
6
CONTINUOUS
10
0.5830033070866142
20
1.6281911417322834
11
0.5818061811023622
21
1.6269940157480314
0
LINE
8
BLACK
6
CONTINUOUS
10
0.5818061811023622
20
1.6269940157480314
11
0.5804574409448818
21
1.6242965354330707
0
LINE
8
BLACK
6
CONTINUOUS
10
0.5804574409448818
20
1.6242965354330707
11
0.5804574409448818
21
1.6148229921259842
0
LINE
8
BLACK
6
CONTINUOUS
10
0.5804574409448818
20
1.6148229921259842
11
0.5932995669291339
21
1.6148229921259842
0
LINE
8
BLACK
6
CONTINUOUS
10
0.5932995669291339
20
1.6148229921259842
11
0.5932995669291339
21
1.6242965354330707
0
LINE
8
BLACK
6
CONTINUOUS
10
0.5932995669291339
20
1.6242965354330707
11
0.5919508267716536
21
1.6269940157480314
0
LINE
8
BLACK
6
CONTINUOUS
10
0.5919508267716536
20
1.6269940157480314
11
0.5907537007874015
21
1.6281911417322834
0
LINE
8
BLACK
6
CONTINUOUS
10
0.5907537007874015
20
1.6281911417322834
11
0.5880562204724409
21
1.6295398818897637
0
LINE
8
BLACK
6
CONTINUOUS
10
0.5880562204724409
20
1.6295398818897637
11
0.5857007874015748
21
1.6295398818897637
0
LINE
8
BLACK
6
CONTINUOUS
10
0.5857007874015748
20
1.6295398818897637
11
0.5830033070866142
21
1.6281911417322834
0
LINE
8
BLACK
6
CONTINUOUS
10
0.6017509448818897
20
1.630065905511811
11
0.600707874015748
21
1.629022874015748
0
LINE
8
BLACK
6
CONTINUOUS
10
0.600707874015748
20
1.629022874015748
11
0.5992050787401575
21
1.6245144488188976
0
LINE
8
BLACK
6
CONTINUOUS
10
0.5992050787401575
20
1.6245144488188976
11
0.5992050787401575
21
1.6148229921259842
0
LINE
8
BLACK
6
CONTINUOUS
10
0.5992050787401575
20
1.6148229921259842
11
0.6139220078740157
21
1.6148229921259842
0
LINE
8
BLACK
6
CONTINUOUS
10
0.6139220078740157
20
1.6148229921259842
11
0.6139220078740157
21
1.6261712992125983
0
LINE
8
BLACK
6
CONTINUOUS
10
0.6139220078740157
20
1.6261712992125983
11
0.6125732677165354
21
1.6288687795275589
0
LINE
8
BLACK
6
CONTINUOUS
10
0.6125732677165354
20
1.6288687795275589
11
0.6113761023622047
21
1.630065905511811
0
LINE
8
BLACK
6
CONTINUOUS
10
0.6113761023622047
20
1.630065905511811
11
0.6086786220472441
21
1.6314146456692913
0
LINE
8
BLACK
6
CONTINUOUS
10
0.6086786220472441
20
1.6314146456692913
11
0.6044484251968504
21
1.6314146456692913
0
LINE
8
BLACK
6
CONTINUOUS
10
0.6044484251968504
20
1.6314146456692913
11
0.6017509448818897
21
1.630065905511811
0
LINE
8
BLACK
6
CONTINUOUS
10
0.615498779527559
20
1.6559440157480314
11
0.6157642519685039
21
1.6559672047244094
0
LINE
8
BLACK
6
CONTINUOUS
10
0.6157642519685039
20
1.6559672047244094
11
0.6163926771653543
21
1.6555271653543306
0
LINE
8
BLACK
6
CONTINUOUS
10
0.6163926771653543
20
1.6555271653543306
11
0.6170879133858268
21
1.6552029921259843
0
LINE
8
BLACK
6
CONTINUOUS
10
0.6170879133858268
20
1.6552029921259843
11
0.6189626771653544
21
1.6533282283464568
0
LINE
8
BLACK
6
CONTINUOUS
10
0.6189626771653544
20
1.6533282283464568
11
0.619186062992126
21
1.6530092125984253
0
LINE
8
BLACK
6
CONTINUOUS
10
0.619186062992126
20
1.6530092125984253
11
0.6192935433070866
21
1.6529339370078739
0
LINE
8
BLACK
6
CONTINUOUS
10
0.6192935433070866
20
1.6529339370078739
11
0.6193274803149607
21
1.6528072047244093
0
LINE
8
BLACK
6
CONTINUOUS
10
0.6193274803149607
20
1.6528072047244093
11
0.6193323622047244
21
1.6528002362204723
0
LINE
8
BLACK
6
CONTINUOUS
10
0.6193323622047244
20
1.6528002362204723
11
0.6194319291338583
21
1.6527166929133859
0
LINE
8
BLACK
6
CONTINUOUS
10
0.6194319291338583
20
1.6527166929133859
11
0.6194457480314961
21
1.6526383464566929
0
LINE
8
BLACK
6
CONTINUOUS
10
0.6194457480314961
20
1.6526383464566929
11
0.6195508661417323
21
1.6524881889763778
0
LINE
8
BLACK
6
CONTINUOUS
10
0.6195508661417323
20
1.6524881889763778
11
0.6196177165354331
21
1.6517239763779528
0
LINE
8
BLACK
6
CONTINUOUS
10
0.6196177165354331
20
1.6517239763779528
11
0.6198162598425196
21
1.6509829527559055
0
LINE
8
BLACK
6
CONTINUOUS
10
0.6198162598425196
20
1.6509829527559055
11
0.6197592125984251
21
1.6508606299212598
0
LINE
8
BLACK
6
CONTINUOUS
10
0.6197592125984251
20
1.6508606299212598
11
0.6197826771653543
21
1.650727559055118
0
LINE
8
BLACK
6
CONTINUOUS
10
0.6197826771653543
20
1.650727559055118
11
0.6197151181102362
21
1.650610590551181
0
LINE
8
BLACK
6
CONTINUOUS
10
0.6197151181102362
20
1.650610590551181
11
0.6197268897637795
21
1.6504761023622048
0
LINE
8
BLACK
6
CONTINUOUS
10
0.6197268897637795
20
1.6504761023622048
11
0.6192868897637795
21
1.6498477165354331
0
LINE
8
BLACK
6
CONTINUOUS
10
0.6192868897637795
20
1.6498477165354331
11
0.6189626771653544
21
1.6491524015748031
0
LINE
8
BLACK
6
CONTINUOUS
10
0.6189626771653544
20
1.6491524015748031
11
0.6170879133858268
21
1.6472776377952756
0
LINE
8
BLACK
6
CONTINUOUS
10
0.6170879133858268
20
1.6472776377952756
11
0.6167688976377953
21
1.6470542913385826
0
LINE
8
BLACK
6
CONTINUOUS
10
0.6167688976377953
20
1.6470542913385826
11
0.6166936614173228
21
1.6469468110236221
0
LINE
8
BLACK
6
CONTINUOUS
10
0.6166936614173228
20
1.6469468110236221
11
0.6165669291338582
21
1.6469128740157479
0
LINE
8
BLACK
6
CONTINUOUS
10
0.6165669291338582
20
1.6469128740157479
11
0.616247874015748
21
1.6466894488188977
0
LINE
8
BLACK
6
CONTINUOUS
10
0.616247874015748
20
1.6466894488188977
11
0.6154835433070865
21
1.6466225984251968
0
LINE
8
BLACK
6
CONTINUOUS
10
0.6154835433070865
20
1.6466225984251968
11
0.6147426771653544
21
1.6464240551181102
0
LINE
8
BLACK
6
CONTINUOUS
10
0.6147426771653544
20
1.6464240551181102
11
0.6145012598425197
21
1.646536653543307
0
LINE
8
BLACK
6
CONTINUOUS
10
0.6145012598425197
20
1.646536653543307
11
0.6142357874015748
21
1.6465133858267715
0
LINE
8
BLACK
6
CONTINUOUS
10
0.6142357874015748
20
1.6465133858267715
11
0.6136072440944882
21
1.6469535039370078
0
LINE
8
BLACK
6
CONTINUOUS
10
0.6136072440944882
20
1.6469535039370078
11
0.6129120866141732
21
1.6472776377952756
0
LINE
8
BLACK
6
CONTINUOUS
10
0.6129120866141732
20
1.6472776377952756
11
0.6110373228346456
21
1.6491523622047244
0
LINE
8
BLACK
6
CONTINUOUS
10
0.6110373228346456
20
1.6491523622047244
11
0.6108138582677165
21
1.6494714566929134
0
LINE
8
BLACK
6
CONTINUOUS
10
0.6108138582677165
20
1.6494714566929134
11
0.6107064173228346
21
1.6495466929133857
0
LINE
8
BLACK
6
CONTINUOUS
10
0.6107064173228346
20
1.6495466929133857
11
0.6106724409448818
21
1.6496734251968503
0
LINE
8
BLACK
6
CONTINUOUS
10
0.6106724409448818
20
1.6496734251968503
11
0.6106675196850394
21
1.6496804330708661
0
LINE
8
BLACK
6
CONTINUOUS
10
0.6106675196850394
20
1.6496804330708661
11
0.610568031496063
21
1.649763937007874
0
LINE
8
BLACK
6
CONTINUOUS
10
0.610568031496063
20
1.649763937007874
11
0.6105542125984251
21
1.649842283464567
0
LINE
8
BLACK
6
CONTINUOUS
10
0.6105542125984251
20
1.649842283464567
11
0.610449094488189
21
1.6499924015748031
0
LINE
8
BLACK
6
CONTINUOUS
10
0.610449094488189
20
1.6499924015748031
11
0.6103822047244094
21
1.6507567716535432
0
LINE
8
BLACK
6
CONTINUOUS
10
0.6103822047244094
20
1.6507567716535432
11
0.6101837007874016
21
1.6514976771653542
0
LINE
8
BLACK
6
CONTINUOUS
10
0.6101837007874016
20
1.6514976771653542
11
0.6102407086614173
21
1.6516200393700786
0
LINE
8
BLACK
6
CONTINUOUS
10
0.6102407086614173
20
1.6516200393700786
11
0.6102172834645669
21
1.6517530708661416
0
LINE
8
BLACK
6
CONTINUOUS
10
0.6102172834645669
20
1.6517530708661416
11
0.6102847637795276
21
1.6518700393700787
0
LINE
8
BLACK
6
CONTINUOUS
10
0.6102847637795276
20
1.6518700393700787
11
0.6102730314960629
21
1.6520045275590551
0
LINE
8
BLACK
6
CONTINUOUS
10
0.6102730314960629
20
1.6520045275590551
11
0.6107131496062992
21
1.6526331496062991
0
LINE
8
BLACK
6
CONTINUOUS
10
0.6107131496062992
20
1.6526331496062991
11
0.6110373228346456
21
1.6533282677165353
0
LINE
8
BLACK
6
CONTINUOUS
10
0.6110373228346456
20
1.6533282677165353
11
0.6129120866141732
21
1.6552029921259843
0
LINE
8
BLACK
6
CONTINUOUS
10
0.6129120866141732
20
1.6552029921259843
11
0.6132311023622047
21
1.6554264173228346
0
LINE
8
BLACK
6
CONTINUOUS
10
0.6132311023622047
20
1.6554264173228346
11
0.6133063779527559
21
1.6555338582677166
0
LINE
8
BLACK
6
CONTINUOUS
10
0.6133063779527559
20
1.6555338582677166
11
0.6134330708661417
21
1.6555678346456693
0
LINE
8
BLACK
6
CONTINUOUS
10
0.6134330708661417
20
1.6555678346456693
11
0.6137521653543307
21
1.655791220472441
0
LINE
8
BLACK
6
CONTINUOUS
10
0.6137521653543307
20
1.655791220472441
11
0.6145164173228347
21
1.6558580708661417
0
LINE
8
BLACK
6
CONTINUOUS
10
0.6145164173228347
20
1.6558580708661417
11
0.6152573228346456
21
1.6560565748031495
0
LINE
8
BLACK
6
CONTINUOUS
10
0.6152573228346456
20
1.6560565748031495
11
0.615498779527559
21
1.6559440157480314
0
LINE
8
BLACK
6
CONTINUOUS
10
0.5942618897637795
20
1.689232401574803
11
0.5953747244094488
21
1.6875468503937008
0
LINE
8
BLACK
6
CONTINUOUS
10
0.5953747244094488
20
1.6875468503937008
11
0.5951438188976378
21
1.6855403149606298
0
LINE
8
BLACK
6
CONTINUOUS
10
0.5951438188976378
20
1.6855403149606298
11
0.5935807874015748
21
1.6824142519685039
0
LINE
8
BLACK
6
CONTINUOUS
10
0.5935807874015748
20
1.6824142519685039
11
0.5935807874015748
21
1.6763092913385826
0
LINE
8
BLACK
6
CONTINUOUS
10
0.5935807874015748
20
1.6763092913385826
11
0.5949295275590551
21
1.673611811023622
0
LINE
8
BLACK
6
CONTINUOUS
10
0.5949295275590551
20
1.673611811023622
11
0.5961266535433071
21
1.67241468503937
0
LINE
8
BLACK
6
CONTINUOUS
10
0.5961266535433071
20
1.67241468503937
11
0.5988241338582677
21
1.6710659448818896
0
LINE
8
BLACK
6
CONTINUOUS
10
0.5988241338582677
20
1.6710659448818896
11
0.6086786220472441
21
1.6710659448818896
0
LINE
8
BLACK
6
CONTINUOUS
10
0.6086786220472441
20
1.6710659448818896
11
0.6113761023622047
21
1.6724147244094487
0
LINE
8
BLACK
6
CONTINUOUS
10
0.6113761023622047
20
1.6724147244094487
11
0.6125732677165354
21
1.6736118503937008
0
LINE
8
BLACK
6
CONTINUOUS
10
0.6125732677165354
20
1.6736118503937008
11
0.6139220078740157
21
1.6763092913385826
0
LINE
8
BLACK
6
CONTINUOUS
10
0.6139220078740157
20
1.6763092913385826
11
0.6139220078740157
21
1.6824142519685039
0
LINE
8
BLACK
6
CONTINUOUS
10
0.6139220078740157
20
1.6824142519685039
11
0.6123589763779528
21
1.6855403149606298
0
LINE
8
BLACK
6
CONTINUOUS
10
0.6123589763779528
20
1.6855403149606298
11
0.6120666141732284
21
1.6865232677165354
0
LINE
8
BLACK
6
CONTINUOUS
10
0.6120666141732284
20
1.6865232677165354
11
0.612535905511811
21
1.6884877559055118
0
LINE
8
BLACK
6
CONTINUOUS
10
0.612535905511811
20
1.6884877559055118
11
0.6141581496062992
21
1.689691062992126
0
LINE
8
BLACK
6
CONTINUOUS
10
0.6141581496062992
20
1.689691062992126
11
0.6161743307086615
21
1.68957
0
LINE
8
BLACK
6
CONTINUOUS
10
0.6161743307086615
20
1.68957
11
0.6176410236220472
21
1.6881813385826772
0
LINE
8
BLACK
6
CONTINUOUS
10
0.6176410236220472
20
1.6881813385826772
11
0.6195157874015748
21
1.684431811023622
0
LINE
8
BLACK
6
CONTINUOUS
10
0.6195157874015748
20
1.684431811023622
11
0.6198081496062992
21
1.6834488976377953
0
LINE
8
BLACK
6
CONTINUOUS
10
0.6198081496062992
20
1.6834488976377953
11
0.619767125984252
21
1.6832772047244093
0
LINE
8
BLACK
6
CONTINUOUS
10
0.619767125984252
20
1.6832772047244093
11
0.6198275196850394
21
1.6831112992125983
0
LINE
8
BLACK
6
CONTINUOUS
10
0.6198275196850394
20
1.6831112992125983
11
0.6198275196850394
21
1.6756122440944881
0
LINE
8
BLACK
6
CONTINUOUS
10
0.6198275196850394
20
1.6756122440944881
11
0.6196494488188976
21
1.6746023228346456
0
LINE
8
BLACK
6
CONTINUOUS
10
0.6196494488188976
20
1.6746023228346456
11
0.6195359448818898
21
1.6744670866141731
0
LINE
8
BLACK
6
CONTINUOUS
10
0.6195359448818898
20
1.6744670866141731
11
0.6195157874015748
21
1.6742917322834645
0
LINE
8
BLACK
6
CONTINUOUS
10
0.6195157874015748
20
1.6742917322834645
11
0.6176410236220472
21
1.6705422047244094
0
LINE
8
BLACK
6
CONTINUOUS
10
0.6176410236220472
20
1.6705422047244094
11
0.6171150393700787
21
1.6698331102362205
0
LINE
8
BLACK
6
CONTINUOUS
10
0.6171150393700787
20
1.6698331102362205
11
0.6170878740157481
21
1.6697747637795275
0
LINE
8
BLACK
6
CONTINUOUS
10
0.6170878740157481
20
1.6697747637795275
11
0.6152130708661417
21
1.6678999999999999
0
LINE
8
BLACK
6
CONTINUOUS
10
0.6152130708661417
20
1.6678999999999999
11
0.61449
21
1.6673937401574803
0
LINE
8
BLACK
6
CONTINUOUS
10
0.61449
20
1.6673937401574803
11
0.6144457086614173
21
1.6673469291338583
0
LINE
8
BLACK
6
CONTINUOUS
10
0.6144457086614173
20
1.6673469291338583
11
0.6106961811023622
21
1.6654721653543307
0
LINE
8
BLACK
6
CONTINUOUS
10
0.6106961811023622
20
1.6654721653543307
11
0.6097132283464567
21
1.6651798031496063
0
LINE
8
BLACK
6
CONTINUOUS
10
0.6097132283464567
20
1.6651798031496063
11
0.6095415354330709
21
1.6652208267716535
0
LINE
8
BLACK
6
CONTINUOUS
10
0.6095415354330709
20
1.6652208267716535
11
0.6093756692913386
21
1.665160433070866
0
LINE
8
BLACK
6
CONTINUOUS
10
0.6093756692913386
20
1.665160433070866
11
0.5981270866141732
21
1.665160433070866
0
LINE
8
BLACK
6
CONTINUOUS
10
0.5981270866141732
20
1.665160433070866
11
0.5971171653543307
21
1.6653385039370079
0
LINE
8
BLACK
6
CONTINUOUS
10
0.5971171653543307
20
1.6653385039370079
11
0.5969818897637795
21
1.6654520078740158
0
LINE
8
BLACK
6
CONTINUOUS
10
0.5969818897637795
20
1.6654520078740158
11
0.5968065748031496
21
1.6654721653543307
0
LINE
8
BLACK
6
CONTINUOUS
10
0.5968065748031496
20
1.6654721653543307
11
0.5930570472440945
21
1.6673469291338583
0
LINE
8
BLACK
6
CONTINUOUS
10
0.5930570472440945
20
1.6673469291338583
11
0.5923479527559055
21
1.6678728346456693
0
LINE
8
BLACK
6
CONTINUOUS
10
0.5923479527559055
20
1.6678728346456693
11
0.5922896456692913
21
1.6679000393700787
0
LINE
8
BLACK
6
CONTINUOUS
10
0.5922896456692913
20
1.6679000393700787
11
0.5904148818897638
21
1.6697748031496062
0
LINE
8
BLACK
6
CONTINUOUS
10
0.5904148818897638
20
1.6697748031496062
11
0.5899085826771654
21
1.6704979133858266
0
LINE
8
BLACK
6
CONTINUOUS
10
0.5899085826771654
20
1.6704979133858266
11
0.5898617716535433
21
1.6705422047244094
0
LINE
8
BLACK
6
CONTINUOUS
10
0.5898617716535433
20
1.6705422047244094
11
0.5879870078740157
21
1.6742917322834645
0
LINE
8
BLACK
6
CONTINUOUS
10
0.5879870078740157
20
1.6742917322834645
11
0.5876946456692913
21
1.67527468503937
0
LINE
8
BLACK
6
CONTINUOUS
10
0.5876946456692913
20
1.67527468503937
11
0.5877356299212598
21
1.675446377952756
0
LINE
8
BLACK
6
CONTINUOUS
10
0.5877356299212598
20
1.675446377952756
11
0.5876752755905512
21
1.6756122440944881
0
LINE
8
BLACK
6
CONTINUOUS
10
0.5876752755905512
20
1.6756122440944881
11
0.5876752755905512
21
1.6831112992125983
0
LINE
8
BLACK
6
CONTINUOUS
10
0.5876752755905512
20
1.6831112992125983
11
0.5878533464566928
21
1.6841212204724409
0
LINE
8
BLACK
6
CONTINUOUS
10
0.5878533464566928
20
1.6841212204724409
11
0.587966811023622
21
1.684256496062992
0
LINE
8
BLACK
6
CONTINUOUS
10
0.587966811023622
20
1.684256496062992
11
0.5879870078740157
21
1.684431811023622
0
LINE
8
BLACK
6
CONTINUOUS
10
0.5879870078740157
20
1.684431811023622
11
0.5898617716535433
21
1.6881813385826772
0
LINE
8
BLACK
6
CONTINUOUS
10
0.5898617716535433
20
1.6881813385826772
11
0.5904726771653543
21
1.6890049999999999
0
LINE
8
BLACK
6
CONTINUOUS
10
0.5904726771653543
20
1.6890049999999999
11
0.5923258661417322
21
1.6898082677165354
0
LINE
8
BLACK
6
CONTINUOUS
10
0.5923258661417322
20
1.6898082677165354
11
0.5942618897637795
21
1.689232401574803
0
LINE
8
BLACK
6
CONTINUOUS
10
0.5908314173228346
20
1.72346
11
0.5911407874015748
21
1.7235145275590551
0
LINE
8
BLACK
6
CONTINUOUS
10
0.5911407874015748
20
1.7235145275590551
11
0.5917661811023622
21
1.7231534645669291
0
LINE
8
BLACK
6
CONTINUOUS
10
0.5917661811023622
20
1.7231534645669291
11
0.5924523228346457
21
1.7229284251968504
0
LINE
8
BLACK
6
CONTINUOUS
10
0.5924523228346457
20
1.7229284251968504
11
0.6139220078740157
21
1.7060594488188976
0
LINE
8
BLACK
6
CONTINUOUS
10
0.6139220078740157
20
1.7060594488188976
11
0.6139220078740157
21
1.7206066141732284
0
LINE
8
BLACK
6
CONTINUOUS
10
0.6139220078740157
20
1.7206066141732284
11
0.6141000787401575
21
1.7216165354330708
0
LINE
8
BLACK
6
CONTINUOUS
10
0.6141000787401575
20
1.7216165354330708
11
0.6153983858267716
21
1.7231637795275589
0
LINE
8
BLACK
6
CONTINUOUS
10
0.6153983858267716
20
1.7231637795275589
11
0.6173875196850394
21
1.7235145275590551
0
LINE
8
BLACK
6
CONTINUOUS
10
0.6173875196850394
20
1.7235145275590551
11
0.6191366929133858
21
1.7225046062992126
0
LINE
8
BLACK
6
CONTINUOUS
10
0.6191366929133858
20
1.7225046062992126
11
0.6198275196850394
21
1.7206066141732284
0
LINE
8
BLACK
6
CONTINUOUS
10
0.6198275196850394
20
1.7206066141732284
11
0.6198275196850394
21
1.6999842125984252
0
LINE
8
BLACK
6
CONTINUOUS
10
0.6198275196850394
20
1.6999842125984252
11
0.6197737401574803
21
1.6996792125984252
0
LINE
8
BLACK
6
CONTINUOUS
10
0.6197737401574803
20
1.6996792125984252
11
0.6197976377952755
21
1.6995652362204725
0
LINE
8
BLACK
6
CONTINUOUS
10
0.6197976377952755
20
1.6995652362204725
11
0.6197320078740157
21
1.6994426771653544
0
LINE
8
BLACK
6
CONTINUOUS
10
0.6197320078740157
20
1.6994426771653544
11
0.6196494488188976
21
1.6989742913385826
0
LINE
8
BLACK
6
CONTINUOUS
10
0.6196494488188976
20
1.6989742913385826
11
0.6191852755905511
21
1.6984211811023622
0
LINE
8
BLACK
6
CONTINUOUS
10
0.6191852755905511
20
1.6984211811023622
11
0.6188445275590551
21
1.6977844488188976
0
LINE
8
BLACK
6
CONTINUOUS
10
0.6188445275590551
20
1.6977844488188976
11
0.6185529527559055
21
1.6976675984251968
0
LINE
8
BLACK
6
CONTINUOUS
10
0.6185529527559055
20
1.6976675984251968
11
0.6183511417322834
21
1.6974270472440944
0
LINE
8
BLACK
6
CONTINUOUS
10
0.6183511417322834
20
1.6974270472440944
11
0.6176399606299212
21
1.697301653543307
0
LINE
8
BLACK
6
CONTINUOUS
10
0.6176399606299212
20
1.697301653543307
11
0.6169697244094487
21
1.6970329921259841
0
LINE
8
BLACK
6
CONTINUOUS
10
0.6169697244094487
20
1.6970329921259841
11
0.6166713385826772
21
1.6971308661417321
0
LINE
8
BLACK
6
CONTINUOUS
10
0.6166713385826772
20
1.6971308661417321
11
0.6163620078740157
21
1.6970762992125983
0
LINE
8
BLACK
6
CONTINUOUS
10
0.6163620078740157
20
1.6970762992125983
11
0.6157365748031496
21
1.6974374015748031
0
LINE
8
BLACK
6
CONTINUOUS
10
0.6157365748031496
20
1.6974374015748031
11
0.6150504724409449
21
1.6976624015748032
0
LINE
8
BLACK
6
CONTINUOUS
10
0.6150504724409449
20
1.6976624015748032
11
0.5935807874015748
21
1.7145314173228345
0
LINE
8
BLACK
6
CONTINUOUS
10
0.5935807874015748
20
1.7145314173228345
11
0.5935807874015748
21
1.6999842125984252
0
LINE
8
BLACK
6
CONTINUOUS
10
0.5935807874015748
20
1.6999842125984252
11
0.5934027165354331
21
1.6989742913385826
0
LINE
8
BLACK
6
CONTINUOUS
10
0.5934027165354331
20
1.6989742913385826
11
0.5921044094488189
21
1.6974270472440944
0
LINE
8
BLACK
6
CONTINUOUS
10
0.5921044094488189
20
1.6974270472440944
11
0.5901152755905512
21
1.6970762992125983
0
LINE
8
BLACK
6
CONTINUOUS
10
0.5901152755905512
20
1.6970762992125983
11
0.5883661023622047
21
1.698086220472441
0
LINE
8
BLACK
6
CONTINUOUS
10
0.5883661023622047
20
1.698086220472441
11
0.5876752755905512
21
1.6999842125984252
0
LINE
8
BLACK
6
CONTINUOUS
10
0.5876752755905512
20
1.6999842125984252
11
0.5876752755905512
21
1.7206066141732284
0
LINE
8
BLACK
6
CONTINUOUS
10
0.5876752755905512
20
1.7206066141732284
11
0.5877290157480315
21
1.7209116535433071
0
LINE
8
BLACK
6
CONTINUOUS
10
0.5877290157480315
20
1.7209116535433071
11
0.5877051574803149
21
1.7210255905511811
0
LINE
8
BLACK
6
CONTINUOUS
10
0.5877051574803149
20
1.7210255905511811
11
0.5877707480314961
21
1.721148188976378
0
LINE
8
BLACK
6
CONTINUOUS
10
0.5877707480314961
20
1.721148188976378
11
0.5878533464566928
21
1.7216165354330708
0
LINE
8
BLACK
6
CONTINUOUS
10
0.5878533464566928
20
1.7216165354330708
11
0.5883174803149606
21
1.72216968503937
0
LINE
8
BLACK
6
CONTINUOUS
10
0.5883174803149606
20
1.72216968503937
11
0.5886582677165354
21
1.7228063779527558
0
LINE
8
BLACK
6
CONTINUOUS
10
0.5886582677165354
20
1.7228063779527558
11
0.5889498031496063
21
1.7229232677165354
0
LINE
8
BLACK
6
CONTINUOUS
10
0.5889498031496063
20
1.7229232677165354
11
0.5891516535433071
21
1.7231637795275589
0
LINE
8
BLACK
6
CONTINUOUS
10
0.5891516535433071
20
1.7231637795275589
11
0.5898627952755905
21
1.7232892125984252
0
LINE
8
BLACK
6
CONTINUOUS
10
0.5898627952755905
20
1.7232892125984252
11
0.5905330708661417
21
1.7235578346456693
0
LINE
8
BLACK
6
CONTINUOUS
10
0.5905330708661417
20
1.7235578346456693
11
0.5908314173228346
21
1.72346
0
LINE
8
BLACK
6
CONTINUOUS
10
0.9759267716535432
20
1.7773942913385827
11
0.9777281496062992
21
1.7753153937007873
0
LINE
8
BLACK
6
CONTINUOUS
10
0.9777281496062992
20
1.7753153937007873
11
0.9781693307086614
21
1.773287401574803
0
LINE
8
BLACK
6
CONTINUOUS
10
0.9781693307086614
20
1.773287401574803
11
0.9781693307086614
21
0.2267125984251968
0
LINE
8
BLACK
6
CONTINUOUS
10
0.9781693307086614
20
0.2267125984251968
11
0.9773943307086614
21
0.2240732677165354
0
LINE
8
BLACK
6
CONTINUOUS
10
0.9773943307086614
20
0.2240732677165354
11
0.9753154330708661
21
0.2222718897637795
0
LINE
8
BLACK
6
CONTINUOUS
10
0.9753154330708661
20
0.2222718897637795
11
0.9732874409448818
21
0.2218307086614173
0
LINE
8
BLACK
6
CONTINUOUS
10
0.9732874409448818
20
0.2218307086614173
11
0.2267126377952756
21
0.2218307086614173
0
LINE
8
BLACK
6
CONTINUOUS
10
0.2267126377952756
20
0.2218307086614173
11
0.2240733070866142
21
0.2226057086614173
0
LINE
8
BLACK
6
CONTINUOUS
10
0.2240733070866142
20
0.2226057086614173
11
0.2222719291338583
21
0.2246846062992126
0
LINE
8
BLACK
6
CONTINUOUS
10
0.2222719291338583
20
0.2246846062992126
11
0.2218307480314961
21
0.2267125984251968
0
LINE
8
BLACK
6
CONTINUOUS
10
0.2218307480314961
20
0.2267125984251968
11
0.2218307480314961
21
0.966000157480315
0
LINE
8
BLACK
6
CONTINUOUS
10
0.2218307480314961
20
0.966000157480315
11
0.2218307480314961
21
1.7437669291338582
0
LINE
8
BLACK
6
CONTINUOUS
10
0.2218307480314961
20
1.7437669291338582
11
0.2218307480314961
21
1.773287401574803
0
LINE
8
BLACK
6
CONTINUOUS
10
0.2218307480314961
20
1.773287401574803
11
0.222605748031496
21
1.7759267322834644
0
LINE
8
BLACK
6
CONTINUOUS
10
0.222605748031496
20
1.7759267322834644
11
0.2246846456692913
21
1.7777281102362203
0
LINE
8
BLACK
6
CONTINUOUS
10
0.2246846456692913
20
1.7777281102362203
11
0.2267126377952756
21
1.7781692913385827
0
LINE
8
BLACK
6
CONTINUOUS
10
0.2267126377952756
20
1.7781692913385827
11
0.9732874409448818
21
1.7781692913385827
0
LINE
8
BLACK
6
CONTINUOUS
10
0.9732874409448818
20
1.7781692913385827
11
0.9759267716535432
21
1.7773942913385827
0
LINE
8
BLACK
6
CONTINUOUS
10
0.500315
20
0.7901574803149606
11
0.500315
21
0.7681163779527559
0
LINE
8
BLACK
6
CONTINUOUS
10
0.500315
20
0.7681163779527559
11
0.5005670078740158
21
0.7657727559055117
0
LINE
8
BLACK
6
CONTINUOUS
10
0.5005670078740158
20
0.7657727559055117
11
0.5005670866141733
21
0.7657724803149606
0
LINE
8
BLACK
6
CONTINUOUS
10
0.5005670866141733
20
0.7657724803149606
11
0.5025451181102362
21
0.7604690551181102
0
LINE
8
BLACK
6
CONTINUOUS
10
0.5025451181102362
20
0.7604690551181102
11
0.5025452755905512
21
0.7604687795275591
0
LINE
8
BLACK
6
CONTINUOUS
10
0.5025452755905512
20
0.7604687795275591
11
0.5059374015748032
21
0.7559375196850393
0
LINE
8
BLACK
6
CONTINUOUS
10
0.5059374015748032
20
0.7559375196850393
11
0.5059375196850393
21
0.7559374015748032
0
LINE
8
BLACK
6
CONTINUOUS
10
0.5059375196850393
20
0.7559374015748032
11
0.5104687795275591
21
0.7525452755905512
0
LINE
8
BLACK
6
CONTINUOUS
10
0.5104687795275591
20
0.7525452755905512
11
0.5104690551181102
21
0.7525451181102362
0
LINE
8
BLACK
6
CONTINUOUS
10
0.5104690551181102
20
0.7525451181102362
11
0.5157724803149606
21
0.7505670866141733
0
LINE
8
BLACK
6
CONTINUOUS
10
0.5157724803149606
20
0.7505670866141733
11
0.5157727559055117
21
0.7505670078740158
0
LINE
8
BLACK
6
CONTINUOUS
10
0.5157727559055117
20
0.7505670078740158
11
0.5181163779527559
21
0.750315
0
LINE
8
BLACK
6
CONTINUOUS
10
0.5181163779527559
20
0.750315
11
0.5181170472440945
21
0.7503149606299212
0
LINE
8
BLACK
6
CONTINUOUS
10
0.5181170472440945
20
0.7503149606299212
11
0.5401575196850393
21
0.7503149606299212
0
LINE
8
BLACK
6
CONTINUOUS
10
0.5401575196850393
20
0.7503149606299212
11
0.5401575196850393
21
0.77
0
LINE
8
BLACK
6
CONTINUOUS
10
0.5401575196850393
20
0.77
11
0.5200000393700788
21
0.77
0
LINE
8
BLACK
6
CONTINUOUS
10
0.5200000393700788
20
0.77
11
0.5200000393700788
21
0.7901574803149606
0
LINE
8
BLACK
6
CONTINUOUS
10
0.5200000393700788
20
0.7901574803149606
11
0.500315
21
0.7901574803149606
0
LINE
8
BLACK
6
CONTINUOUS
10
0.5800000393700787
20
0.7901574803149606
11
0.5800000393700787
21
0.77
0
LINE
8
BLACK
6
CONTINUOUS
10
0.5800000393700787
20
0.77
11
0.5598425590551181
21
0.77
0
LINE
8
BLACK
6
CONTINUOUS
10
0.5598425590551181
20
0.77
11
0.5598425590551181
21
0.7503149606299212
0
LINE
8
BLACK
6
CONTINUOUS
10
0.5598425590551181
20
0.7503149606299212
11
0.581883031496063
21
0.7503149606299212
0
LINE
8
BLACK
6
CONTINUOUS
10
0.581883031496063
20
0.7503149606299212
11
0.5818836614173228
21
0.750315
0
LINE
8
BLACK
6
CONTINUOUS
10
0.5818836614173228
20
0.750315
11
0.5842272834645669
21
0.7505670078740158
0
LINE
8
BLACK
6
CONTINUOUS
10
0.5842272834645669
20
0.7505670078740158
11
0.5842275590551181
21
0.7505670866141733
0
LINE
8
BLACK
6
CONTINUOUS
10
0.5842275590551181
20
0.7505670866141733
11
0.5895309842519685
21
0.7525451181102362
0
LINE
8
BLACK
6
CONTINUOUS
10
0.5895309842519685
20
0.7525451181102362
11
0.5895312598425196
21
0.7525452755905512
0
LINE
8
BLACK
6
CONTINUOUS
10
0.5895312598425196
20
0.7525452755905512
11
0.5940624803149606
21
0.7559373622047244
0
LINE
8
BLACK
6
CONTINUOUS
10
0.5940624803149606
20
0.7559373622047244
11
0.5960918897637795
21
0.7586482677165354
0
LINE
8
BLACK
6
CONTINUOUS
10
0.5960918897637795
20
0.7586482677165354
11
0.5982940157480315
21
0.7602967322834645
0
LINE
8
BLACK
6
CONTINUOUS
10
0.5982940157480315
20
0.7602967322834645
11
0.6010377952755905
21
0.7604929527559054
0
LINE
8
BLACK
6
CONTINUOUS
10
0.6010377952755905
20
0.7604929527559054
11
0.6034520866141733
21
0.7591746456692913
0
LINE
8
BLACK
6
CONTINUOUS
10
0.6034520866141733
20
0.7591746456692913
11
0.603908188976378
21
0.7586482677165354
0
LINE
8
BLACK
6
CONTINUOUS
10
0.603908188976378
20
0.7586482677165354
11
0.6059375590551181
21
0.7559373622047244
0
LINE
8
BLACK
6
CONTINUOUS
10
0.6059375590551181
20
0.7559373622047244
11
0.6104687795275591
21
0.7525452755905512
0
LINE
8
BLACK
6
CONTINUOUS
10
0.6104687795275591
20
0.7525452755905512
11
0.6104690551181102
21
0.7525451181102362
0
LINE
8
BLACK
6
CONTINUOUS
10
0.6104690551181102
20
0.7525451181102362
11
0.6157724803149606
21
0.7505670866141733
0
LINE
8
BLACK
6
CONTINUOUS
10
0.6157724803149606
20
0.7505670866141733
11
0.6157727559055118
21
0.7505670078740158
0
LINE
8
BLACK
6
CONTINUOUS
10
0.6157727559055118
20
0.7505670078740158
11
0.6181163779527559
21
0.750315
0
LINE
8
BLACK
6
CONTINUOUS
10
0.6181163779527559
20
0.750315
11
0.6181170472440944
21
0.7503149606299212
0
LINE
8
BLACK
6
CONTINUOUS
10
0.6181170472440944
20
0.7503149606299212
11
0.6401575196850393
21
0.7503149606299212
0
LINE
8
BLACK
6
CONTINUOUS
10
0.6401575196850393
20
0.7503149606299212
11
0.6401575196850393
21
0.77
0
LINE
8
BLACK
6
CONTINUOUS
10
0.6401575196850393
20
0.77
11
0.6200000393700787
21
0.77
0
LINE
8
BLACK
6
CONTINUOUS
10
0.6200000393700787
20
0.77
11
0.6200000393700787
21
0.7901574803149606
0
LINE
8
BLACK
6
CONTINUOUS
10
0.6200000393700787
20
0.7901574803149606
11
0.5800000393700787
21
0.7901574803149606
0
LINE
8
BLACK
6
CONTINUOUS
10
0.6800000393700787
20
0.77
11
0.6598425590551181
21
0.77
0
LINE
8
BLACK
6
CONTINUOUS
10
0.6598425590551181
20
0.77
11
0.6598425590551181
21
0.7503149606299212
0
LINE
8
BLACK
6
CONTINUOUS
10
0.6598425590551181
20
0.7503149606299212
11
0.681883031496063
21
0.7503149606299212
0
LINE
8
BLACK
6
CONTINUOUS
10
0.681883031496063
20
0.7503149606299212
11
0.6818836614173228
21
0.750315
0
LINE
8
BLACK
6
CONTINUOUS
10
0.6818836614173228
20
0.750315
11
0.684227283464567
21
0.7505670078740158
0
LINE
8
BLACK
6
CONTINUOUS
10
0.684227283464567
20
0.7505670078740158
11
0.6842275590551181
21
0.7505670866141733
0
LINE
8
BLACK
6
CONTINUOUS
10
0.6842275590551181
20
0.7505670866141733
11
0.6895309842519685
21
0.7525451181102362
0
LINE
8
BLACK
6
CONTINUOUS
10
0.6895309842519685
20
0.7525451181102362
11
0.6895312598425196
21
0.7525452755905512
0
LINE
8
BLACK
6
CONTINUOUS
10
0.6895312598425196
20
0.7525452755905512
11
0.6940625196850394
21
0.7559374015748032
0
LINE
8
BLACK
6
CONTINUOUS
10
0.6940625196850394
20
0.7559374015748032
11
0.6940626377952755
21
0.7559375196850393
0
LINE
8
BLACK
6
CONTINUOUS
10
0.6940626377952755
20
0.7559375196850393
11
0.6974547637795275
21
0.7604687795275591
0
LINE
8
BLACK
6
CONTINUOUS
10
0.6974547637795275
20
0.7604687795275591
11
0.6974549212598425
21
0.7604690551181102
0
LINE
8
BLACK
6
CONTINUOUS
10
0.6974549212598425
20
0.7604690551181102
11
0.6994329527559054
21
0.7657724803149606
0
LINE
8
BLACK
6
CONTINUOUS
10
0.6994329527559054
20
0.7657724803149606
11
0.699433031496063
21
0.7657727559055117
0
LINE
8
BLACK
6
CONTINUOUS
10
0.699433031496063
20
0.7657727559055117
11
0.6996850393700788
21
0.7681163779527559
0
LINE
8
BLACK
6
CONTINUOUS
10
0.6996850393700788
20
0.7681163779527559
11
0.6996850787401575
21
0.7681170472440945
0
LINE
8
BLACK
6
CONTINUOUS
10
0.6996850787401575
20
0.7681170472440945
11
0.6996850787401575
21
0.7901574803149606
0
LINE
8
BLACK
6
CONTINUOUS
10
0.6996850787401575
20
0.7901574803149606
11
0.6800000393700787
21
0.7901574803149606
0
LINE
8
BLACK
6
CONTINUOUS
10
0.6800000393700787
20
0.7901574803149606
11
0.6800000393700787
21
0.77
0
LINE
8
BLACK
6
CONTINUOUS
10
0.3294668503937008
20
0.9585226771653543
11
0.3294668897637795
21
0.9585225590551181
0
LINE
8
BLACK
6
CONTINUOUS
10
0.3294668897637795
20
0.9585225590551181
11
0.3317901574803149
21
0.9513722440944882
0
LINE
8
BLACK
6
CONTINUOUS
10
0.3317901574803149
20
0.9513722440944882
11
0.3317902755905512
21
0.951371968503937
0
LINE
8
BLACK
6
CONTINUOUS
10
0.3317902755905512
20
0.951371968503937
11
0.3355496062992126
21
0.9448606299212599
0
LINE
8
BLACK
6
CONTINUOUS
10
0.3355496062992126
20
0.9448606299212599
11
0.3405805905511811
21
0.9392731496062992
0
LINE
8
BLACK
6
CONTINUOUS
10
0.3405805905511811
20
0.9392731496062992
11
0.3466633070866142
21
0.934853779527559
0
LINE
8
BLACK
6
CONTINUOUS
10
0.3466633070866142
20
0.934853779527559
11
0.353531968503937
21
0.9317956692913386
0
LINE
8
BLACK
6
CONTINUOUS
10
0.353531968503937
20
0.9317956692913386
11
0.3608863385826772
21
0.9302324409448819
0
LINE
8
BLACK
6
CONTINUOUS
10
0.3608863385826772
20
0.9302324409448819
11
0.368405
21
0.9302324409448819
0
LINE
8
BLACK
6
CONTINUOUS
10
0.368405
20
0.9302324409448819
11
0.3757593700787402
21
0.9317956692913386
0
LINE
8
BLACK
6
CONTINUOUS
10
0.3757593700787402
20
0.9317956692913386
11
0.382628031496063
21
0.934853779527559
0
LINE
8
BLACK
6
CONTINUOUS
10
0.382628031496063
20
0.934853779527559
11
0.3827916535433071
21
0.934972716535433
0
LINE
8
BLACK
6
CONTINUOUS
10
0.3827916535433071
20
0.934972716535433
11
0.3844670078740157
21
0.9361898425196851
0
LINE
8
BLACK
6
CONTINUOUS
10
0.3844670078740157
20
0.9361898425196851
11
0.3870577952755905
21
0.937114251968504
0
LINE
8
BLACK
6
CONTINUOUS
10
0.3870577952755905
20
0.937114251968504
11
0.3873364960629921
21
0.9371222047244094
0
LINE
8
BLACK
6
CONTINUOUS
10
0.3873364960629921
20
0.9371222047244094
11
0.4700161023622047
21
0.9371222047244094
0
LINE
8
BLACK
6
CONTINUOUS
10
0.4700161023622047
20
0.9371222047244094
11
0.4726554330708661
21
0.9363472047244095
0
LINE
8
BLACK
6
CONTINUOUS
10
0.4726554330708661
20
0.9363472047244095
11
0.4734681102362205
21
0.9356923228346457
0
LINE
8
BLACK
6
CONTINUOUS
10
0.4734681102362205
20
0.9356923228346457
11
0.4985504724409449
21
0.9106099606299213
0
LINE
8
BLACK
6
CONTINUOUS
10
0.4985504724409449
20
0.9106099606299213
11
0.499868779527559
21
0.9081956692913385
0
LINE
8
BLACK
6
CONTINUOUS
10
0.499868779527559
20
0.9081956692913385
11
0.4999803543307086
21
0.9071579527559055
0
LINE
8
BLACK
6
CONTINUOUS
10
0.4999803543307086
20
0.9071579527559055
11
0.4999803543307086
21
0.8680844881889763
0
LINE
8
BLACK
6
CONTINUOUS
10
0.4999803543307086
20
0.8680844881889763
11
0.5002366929133858
21
0.8657007086614174
0
LINE
8
BLACK
6
CONTINUOUS
10
0.5002366929133858
20
0.8657007086614174
11
0.5002366929133858
21
0.8657006299212598
0
LINE
8
BLACK
6
CONTINUOUS
10
0.5002366929133858
20
0.8657006299212598
11
0.5009094881889764
21
0.8638968897637795
0
LINE
8
BLACK
6
CONTINUOUS
10
0.5009094881889764
20
0.8638968897637795
11
0.5022485039370078
21
0.8603069291338582
0
LINE
8
BLACK
6
CONTINUOUS
10
0.5022485039370078
20
0.8603069291338582
11
0.5056984251968504
21
0.8556983858267716
0
LINE
8
BLACK
6
CONTINUOUS
10
0.5056984251968504
20
0.8556983858267716
11
0.5083691338582677
21
0.8536991338582677
0
LINE
8
BLACK
6
CONTINUOUS
10
0.5083691338582677
20
0.8536991338582677
11
0.5100175590551181
21
0.8514970472440945
0
LINE
8
BLACK
6
CONTINUOUS
10
0.5100175590551181
20
0.8514970472440945
11
0.5102137795275591
21
0.8487533070866141
0
LINE
8
BLACK
6
CONTINUOUS
10
0.5102137795275591
20
0.8487533070866141
11
0.5088954724409449
21
0.8463390157480315
0
LINE
8
BLACK
6
CONTINUOUS
10
0.5088954724409449
20
0.8463390157480315
11
0.5083691338582677
21
0.8458829133858268
0
LINE
8
BLACK
6
CONTINUOUS
10
0.5083691338582677
20
0.8458829133858268
11
0.5059374015748032
21
0.8440625196850393
0
LINE
8
BLACK
6
CONTINUOUS
10
0.5059374015748032
20
0.8440625196850393
11
0.5025452755905512
21
0.8395312598425196
0
LINE
8
BLACK
6
CONTINUOUS
10
0.5025452755905512
20
0.8395312598425196
11
0.5025451181102362
21
0.8395309842519685
0
LINE
8
BLACK
6
CONTINUOUS
10
0.5025451181102362
20
0.8395309842519685
11
0.5005670866141733
21
0.8342275590551181
0
LINE
8
BLACK
6
CONTINUOUS
10
0.5005670866141733
20
0.8342275590551181
11
0.5005670078740158
21
0.8342272834645669
0
LINE
8
BLACK
6
CONTINUOUS
10
0.5005670078740158
20
0.8342272834645669
11
0.500315
21
0.8318836614173228
0
LINE
8
BLACK
6
CONTINUOUS
10
0.500315
20
0.8318836614173228
11
0.500315
21
0.8098425196850394
0
LINE
8
BLACK
6
CONTINUOUS
10
0.500315
20
0.8098425196850394
11
0.5200000393700788
21
0.8098425196850394
0
LINE
8
BLACK
6
CONTINUOUS
10
0.5200000393700788
20
0.8098425196850394
11
0.5200000393700788
21
0.83
0
LINE
8
BLACK
6
CONTINUOUS
10
0.5200000393700788
20
0.83
11
0.5800000393700787
21
0.83
0
LINE
8
BLACK
6
CONTINUOUS
10
0.5800000393700787
20
0.83
11
0.5800000393700787
21
0.8098425196850394
0
LINE
8
BLACK
6
CONTINUOUS
10
0.5800000393700787
20
0.8098425196850394
11
0.6200000393700787
21
0.8098425196850394
0
LINE
8
BLACK
6
CONTINUOUS
10
0.6200000393700787
20
0.8098425196850394
11
0.6200000393700787
21
0.83
0
LINE
8
BLACK
6
CONTINUOUS
10
0.6200000393700787
20
0.83
11
0.6800000393700787
21
0.83
0
LINE
8
BLACK
6
CONTINUOUS
10
0.6800000393700787
20
0.83
11
0.6800000393700787
21
0.8098425196850394
0
LINE
8
BLACK
6
CONTINUOUS
10
0.6800000393700787
20
0.8098425196850394
11
0.6996850787401575
21
0.8098425196850394
0
LINE
8
BLACK
6
CONTINUOUS
10
0.6996850787401575
20
0.8098425196850394
11
0.6996850787401575
21
0.8318829921259843
0
LINE
8
BLACK
6
CONTINUOUS
10
0.6996850787401575
20
0.8318829921259843
11
0.6996850393700788
21
0.8318836614173228
0
LINE
8
BLACK
6
CONTINUOUS
10
0.6996850393700788
20
0.8318836614173228
11
0.699433031496063
21
0.8342272834645669
0
LINE
8
BLACK
6
CONTINUOUS
10
0.699433031496063
20
0.8342272834645669
11
0.6994329527559054
21
0.8342275590551181
0
LINE
8
BLACK
6
CONTINUOUS
10
0.6994329527559054
20
0.8342275590551181
11
0.6974549212598425
21
0.8395309842519685
0
LINE
8
BLACK
6
CONTINUOUS
10
0.6974549212598425
20
0.8395309842519685
11
0.6974547637795275
21
0.8395312598425196
0
LINE
8
BLACK
6
CONTINUOUS
10
0.6974547637795275
20
0.8395312598425196
11
0.6940626377952755
21
0.8440624803149606
0
LINE
8
BLACK
6
CONTINUOUS
10
0.6940626377952755
20
0.8440624803149606
11
0.6916309448818897
21
0.845882874015748
0
LINE
8
BLACK
6
CONTINUOUS
10
0.6916309448818897
20
0.845882874015748
11
0.6899824803149606
21
0.848085
0
LINE
8
BLACK
6
CONTINUOUS
10
0.6899824803149606
20
0.848085
11
0.6897862598425196
21
0.8508287795275591
0
LINE
8
BLACK
6
CONTINUOUS
10
0.6897862598425196
20
0.8508287795275591
11
0.6911045669291338
21
0.8532430708661417
0
LINE
8
BLACK
6
CONTINUOUS
10
0.6911045669291338
20
0.8532430708661417
11
0.6916303543307086
21
0.8536987007874015
0
LINE
8
BLACK
6
CONTINUOUS
10
0.6916303543307086
20
0.8536987007874015
11
0.6943016535433071
21
0.8556983858267716
0
LINE
8
BLACK
6
CONTINUOUS
10
0.6943016535433071
20
0.8556983858267716
11
0.6968973228346457
21
0.8591658267716535
0
LINE
8
BLACK
6
CONTINUOUS
10
0.6968973228346457
20
0.8591658267716535
11
0.6990994488188976
21
0.8608142519685039
0
LINE
8
BLACK
6
CONTINUOUS
10
0.6990994488188976
20
0.8608142519685039
11
0.7008054724409448
21
0.8611220472440945
0
LINE
8
BLACK
6
CONTINUOUS
10
0.7008054724409448
20
0.8611220472440945
11
0.8218135826771653
21
0.8611220472440945
0
LINE
8
BLACK
6
CONTINUOUS
10
0.8218135826771653
20
0.8611220472440945
11
0.8244529133858267
21
0.8603470472440945
0
LINE
8
BLACK
6
CONTINUOUS
10
0.8244529133858267
20
0.8603470472440945
11
0.8246831102362204
21
0.8601896850393701
0
LINE
8
BLACK
6
CONTINUOUS
10
0.8246831102362204
20
0.8601896850393701
11
0.8256633464566929
21
0.8594774803149606
0
LINE
8
BLACK
6
CONTINUOUS
10
0.8256633464566929
20
0.8594774803149606
11
0.8283
21
0.8583036220472441
0
LINE
8
BLACK
6
CONTINUOUS
10
0.8283
20
0.8583036220472441
11
0.832531968503937
21
0.8564194094488189
0
LINE
8
BLACK
6
CONTINUOUS
10
0.832531968503937
20
0.8564194094488189
11
0.8398863385826771
21
0.8548561811023622
0
LINE
8
BLACK
6
CONTINUOUS
10
0.8398863385826771
20
0.8548561811023622
11
0.847405
21
0.8548561811023622
0
LINE
8
BLACK
6
CONTINUOUS
10
0.847405
20
0.8548561811023622
11
0.8547593700787401
21
0.8564194094488189
0
LINE
8
BLACK
6
CONTINUOUS
10
0.8547593700787401
20
0.8564194094488189
11
0.8616280314960629
21
0.8594775196850394
0
LINE
8
BLACK
6
CONTINUOUS
10
0.8616280314960629
20
0.8594775196850394
11
0.8677107480314961
21
0.8638968897637795
0
LINE
8
BLACK
6
CONTINUOUS
10
0.8677107480314961
20
0.8638968897637795
11
0.8727417322834645
21
0.8694843700787401
0
LINE
8
BLACK
6
CONTINUOUS
10
0.8727417322834645
20
0.8694843700787401
11
0.8765010629921259
21
0.8759957086614173
0
LINE
8
BLACK
6
CONTINUOUS
10
0.8765010629921259
20
0.8759957086614173
11
0.8788244881889764
21
0.8831464173228346
0
LINE
8
BLACK
6
CONTINUOUS
10
0.8788244881889764
20
0.8831464173228346
11
0.8796103937007874
21
0.8906238976377953
0
LINE
8
BLACK
6
CONTINUOUS
10
0.8796103937007874
20
0.8906238976377953
11
0.8788244881889764
21
0.8981013779527559
0
LINE
8
BLACK
6
CONTINUOUS
10
0.8788244881889764
20
0.8981013779527559
11
0.8765010629921259
21
0.9052520866141732
0
LINE
8
BLACK
6
CONTINUOUS
10
0.8765010629921259
20
0.9052520866141732
11
0.8727417322834645
21
0.9117634251968504
0
LINE
8
BLACK
6
CONTINUOUS
10
0.8727417322834645
20
0.9117634251968504
11
0.8677107480314961
21
0.917350905511811
0
LINE
8
BLACK
6
CONTINUOUS
10
0.8677107480314961
20
0.917350905511811
11
0.8616280314960629
21
0.9217702755905511
0
LINE
8
BLACK
6
CONTINUOUS
10
0.8616280314960629
20
0.9217702755905511
11
0.8547593700787401
21
0.9248283858267716
0
LINE
8
BLACK
6
CONTINUOUS
10
0.8547593700787401
20
0.9248283858267716
11
0.8547592913385826
21
0.9248284251968504
0
LINE
8
BLACK
6
CONTINUOUS
10
0.8547592913385826
20
0.9248284251968504
11
0.847405
21
0.9263916141732284
0
LINE
8
BLACK
6
CONTINUOUS
10
0.847405
20
0.9263916141732284
11
0.8398863385826771
21
0.9263916141732284
0
LINE
8
BLACK
6
CONTINUOUS
10
0.8398863385826771
20
0.9263916141732284
11
0.839565905511811
21
0.9263235433070865
0
LINE
8
BLACK
6
CONTINUOUS
10
0.839565905511811
20
0.9263235433070865
11
0.8390462992125984
21
0.9262130708661417
0
LINE
8
BLACK
6
CONTINUOUS
10
0.8390462992125984
20
0.9262130708661417
11
0.8363035039370078
21
0.9264224409448819
0
LINE
8
BLACK
6
CONTINUOUS
10
0.8363035039370078
20
0.9264224409448819
11
0.8341093307086614
21
0.9280814173228347
0
LINE
8
BLACK
6
CONTINUOUS
10
0.8341093307086614
20
0.9280814173228347
11
0.8331603543307087
21
0.9306633464566929
0
LINE
8
BLACK
6
CONTINUOUS
10
0.8331603543307087
20
0.9306633464566929
11
0.8331762598425196
21
0.9314986220472441
0
LINE
8
BLACK
6
CONTINUOUS
10
0.8331762598425196
20
0.9314986220472441
11
0.8331787401574803
21
0.9315223228346456
0
LINE
8
BLACK
6
CONTINUOUS
10
0.8331787401574803
20
0.9315223228346456
11
0.8331788188976378
21
0.9315225196850393
0
LINE
8
BLACK
6
CONTINUOUS
10
0.8331788188976378
20
0.9315225196850393
11
0.8339647244094488
21
0.9389999999999999
0
LINE
8
BLACK
6
CONTINUOUS
10
0.8339647244094488
20
0.9389999999999999
11
0.8331788188976378
21
0.9464774803149606
0
LINE
8
BLACK
6
CONTINUOUS
10
0.8331788188976378
20
0.9464774803149606
11
0.8308553937007874
21
0.9536281889763779
0
LINE
8
BLACK
6
CONTINUOUS
10
0.8308553937007874
20
0.9536281889763779
11
0.8294172440944881
21
0.956119094488189
0
LINE
8
BLACK
6
CONTINUOUS
10
0.8294172440944881
20
0.956119094488189
11
0.8275320078740157
21
0.9593844881889764
0
LINE
8
BLACK
6
CONTINUOUS
10
0.8275320078740157
20
0.9593844881889764
11
0.8268779527559055
21
0.9618254330708661
0
LINE
8
BLACK
6
CONTINUOUS
10
0.8268779527559055
20
0.9618254330708661
11
0.8268779527559055
21
1.009541062992126
0
LINE
8
BLACK
6
CONTINUOUS
10
0.8268779527559055
20
1.009541062992126
11
0.8269294881889764
21
1.0102485826771654
0
LINE
8
BLACK
6
CONTINUOUS
10
0.8269294881889764
20
1.0102485826771654
11
0.8270622440944881
21
1.011154842519685
0
LINE
8
BLACK
6
CONTINUOUS
10
0.8270622440944881
20
1.011154842519685
11
0.8268965354330708
21
1.0130489763779527
0
LINE
8
BLACK
6
CONTINUOUS
10
0.8268965354330708
20
1.0130489763779527
11
0.8268779527559055
21
1.0134744881889763
0
LINE
8
BLACK
6
CONTINUOUS
10
0.8268779527559055
20
1.0134744881889763
11
0.8268779527559055
21
1.0136821259842519
0
LINE
8
BLACK
6
CONTINUOUS
10
0.8268779527559055
20
1.0136821259842519
11
0.8268779527559055
21
1.0136822834645669
0
LINE
8
BLACK
6
CONTINUOUS
10
0.8268779527559055
20
1.0136822834645669
11
0.8267394488188976
21
1.0148668897637796
0
LINE
8
BLACK
6
CONTINUOUS
10
0.8267394488188976
20
1.0148668897637796
11
0.8267252755905512
21
1.0150059448818898
0
LINE
8
BLACK
6
CONTINUOUS
10
0.8267252755905512
20
1.0150059448818898
11
0.8264738976377952
21
1.0178797637795276
0
LINE
8
BLACK
6
CONTINUOUS
10
0.8264738976377952
20
1.0178797637795276
11
0.8264163779527559
21
1.018158464566929
0
LINE
8
BLACK
6
CONTINUOUS
10
0.8264163779527559
20
1.018158464566929
11
0.8264196456692913
21
1.0181591732283464
0
LINE
8
BLACK
6
CONTINUOUS
10
0.8264196456692913
20
1.0181591732283464
11
0.8263596456692913
21
1.0184298031496062
0
LINE
8
BLACK
6
CONTINUOUS
10
0.8263596456692913
20
1.0184298031496062
11
0.8263563385826771
21
1.0184289763779528
0
LINE
8
BLACK
6
CONTINUOUS
10
0.8263563385826771
20
1.0184289763779528
11
0.8262908267716536
21
1.0187052755905512
0
LINE
8
BLACK
6
CONTINUOUS
10
0.8262908267716536
20
1.0187052755905512
11
0.8262908267716536
21
1.0187055118110235
0
LINE
8
BLACK
6
CONTINUOUS
10
0.8262908267716536
20
1.0187055118110235
11
0.8253038582677165
21
1.0214170472440944
0
LINE
8
BLACK
6
CONTINUOUS
10
0.8253038582677165
20
1.0214170472440944
11
0.8252577952755905
21
1.0215496456692914
0
LINE
8
BLACK
6
CONTINUOUS
10
0.8252577952755905
20
1.0215496456692914
11
0.8243504724409448
21
1.0242878346456692
0
LINE
8
BLACK
6
CONTINUOUS
10
0.8243504724409448
20
1.0242878346456692
11
0.8242303149606299
21
1.0245454724409448
0
LINE
8
BLACK
6
CONTINUOUS
10
0.8242303149606299
20
1.0245454724409448
11
0.8242333858267716
21
1.0245469291338583
0
LINE
8
BLACK
6
CONTINUOUS
10
0.8242333858267716
20
1.0245469291338583
11
0.8241127165354331
21
1.024796220472441
0
LINE
8
BLACK
6
CONTINUOUS
10
0.8241127165354331
20
1.024796220472441
11
0.8241097244094489
21
1.0247946850393701
0
LINE
8
BLACK
6
CONTINUOUS
10
0.8241097244094489
20
1.0247946850393701
11
0.8239820078740158
21
1.0250489370078739
0
LINE
8
BLACK
6
CONTINUOUS
10
0.8239820078740158
20
1.0250489370078739
11
0.8239819291338583
21
1.0250490157480314
0
LINE
8
BLACK
6
CONTINUOUS
10
0.8239819291338583
20
1.0250490157480314
11
0.8239819291338583
21
1.0250490944881889
0
LINE
8
BLACK
6
CONTINUOUS
10
0.8239819291338583
20
1.0250490944881889
11
0.8232298031496063
21
1.0261926377952755
0
LINE
8
BLACK
6
CONTINUOUS
10
0.8232298031496063
20
1.0261926377952755
11
0.8223970078740157
21
1.0274588976377952
0
LINE
8
BLACK
6
CONTINUOUS
10
0.8223970078740157
20
1.0274588976377952
11
0.8223207086614173
21
1.0275786614173228
0
LINE
8
BLACK
6
CONTINUOUS
10
0.8223207086614173
20
1.0275786614173228
11
0.8208065354330708
21
1.0300335433070866
0
LINE
8
BLACK
6
CONTINUOUS
10
0.8208065354330708
20
1.0300335433070866
11
0.8206302362204724
21
1.0302564960629921
0
LINE
8
BLACK
6
CONTINUOUS
10
0.8206302362204724
20
1.0302564960629921
11
0.8206328346456693
21
1.0302585826771653
0
LINE
8
BLACK
6
CONTINUOUS
10
0.8206328346456693
20
1.0302585826771653
11
0.8204576377952756
21
1.0304736614173229
0
LINE
8
BLACK
6
CONTINUOUS
10
0.8204576377952756
20
1.0304736614173229
11
0.8204550787401574
21
1.0304714566929134
0
LINE
8
BLACK
6
CONTINUOUS
10
0.8204550787401574
20
1.0304714566929134
11
0.8202722440944882
21
1.0306893307086613
0
LINE
8
BLACK
6
CONTINUOUS
10
0.8202722440944882
20
1.0306893307086613
11
0.8181754330708662
21
1.032667559055118
0
LINE
8
BLACK
6
CONTINUOUS
10
0.8181754330708662
20
1.032667559055118
11
0.8180735433070866
21
1.0327665354330708
0
LINE
8
BLACK
6
CONTINUOUS
10
0.8180735433070866
20
1.0327665354330708
11
0.7603076771653543
21
1.090532401574803
0
LINE
8
BLACK
6
CONTINUOUS
10
0.7603076771653543
20
1.090532401574803
11
0.7589893700787401
21
1.0929466929133858
0
LINE
8
BLACK
6
CONTINUOUS
10
0.7589893700787401
20
1.0929466929133858
11
0.7588777952755905
21
1.0939844094488189
0
LINE
8
BLACK
6
CONTINUOUS
10
0.7588777952755905
20
1.0939844094488189
11
0.7588777952755905
21
1.2271744488188976
0
LINE
8
BLACK
6
CONTINUOUS
10
0.7588777952755905
20
1.2271744488188976
11
0.7595318503937007
21
1.2296153937007874
0
LINE
8
BLACK
6
CONTINUOUS
10
0.7595318503937007
20
1.2296153937007874
11
0.7628552362204725
21
1.235371653543307
0
LINE
8
BLACK
6
CONTINUOUS
10
0.7628552362204725
20
1.235371653543307
11
0.7651786614173228
21
1.2425223622047243
0
LINE
8
BLACK
6
CONTINUOUS
10
0.7651786614173228
20
1.2425223622047243
11
0.7659645669291338
21
1.249999842519685
0
LINE
8
BLACK
6
CONTINUOUS
10
0.7659645669291338
20
1.249999842519685
11
0.7651786614173228
21
1.2574773228346456
0
LINE
8
BLACK
6
CONTINUOUS
10
0.7651786614173228
20
1.2574773228346456
11
0.7628552362204725
21
1.264628031496063
0
LINE
8
BLACK
6
CONTINUOUS
10
0.7628552362204725
20
1.264628031496063
11
0.7590959055118111
21
1.2711393700787401
0
LINE
8
BLACK
6
CONTINUOUS
10
0.7590959055118111
20
1.2711393700787401
11
0.7540649212598425
21
1.2767268503937008
0
LINE
8
BLACK
6
CONTINUOUS
10
0.7540649212598425
20
1.2767268503937008
11
0.7479822047244095
21
1.2811462204724409
0
LINE
8
BLACK
6
CONTINUOUS
10
0.7479822047244095
20
1.2811462204724409
11
0.7411135433070866
21
1.2842043307086615
0
LINE
8
BLACK
6
CONTINUOUS
10
0.7411135433070866
20
1.2842043307086615
11
0.7411134645669292
21
1.2842043700787402
0
LINE
8
BLACK
6
CONTINUOUS
10
0.7411134645669292
20
1.2842043700787402
11
0.7337591732283465
21
1.2857675590551181
0
LINE
8
BLACK
6
CONTINUOUS
10
0.7337591732283465
20
1.2857675590551181
11
0.7262405118110236
21
1.2857675590551181
0
LINE
8
BLACK
6
CONTINUOUS
10
0.7262405118110236
20
1.2857675590551181
11
0.7188862204724409
21
1.2842043700787402
0
LINE
8
BLACK
6
CONTINUOUS
10
0.7188862204724409
20
1.2842043700787402
11
0.7120174015748031
21
1.2811461811023621
0
LINE
8
BLACK
6
CONTINUOUS
10
0.7120174015748031
20
1.2811461811023621
11
0.7059346850393701
21
1.2767268110236221
0
LINE
8
BLACK
6
CONTINUOUS
10
0.7059346850393701
20
1.2767268110236221
11
0.7009037401574802
21
1.2711393307086614
0
LINE
8
BLACK
6
CONTINUOUS
10
0.7009037401574802
20
1.2711393307086614
11
0.6971444488188976
21
1.2646280708661417
0
LINE
8
BLACK
6
CONTINUOUS
10
0.6971444488188976
20
1.2646280708661417
11
0.6971443307086614
21
1.2646277952755904
0
LINE
8
BLACK
6
CONTINUOUS
10
0.6971443307086614
20
1.2646277952755904
11
0.694821062992126
21
1.2574774803149606
0
LINE
8
BLACK
6
CONTINUOUS
10
0.694821062992126
20
1.2574774803149606
11
0.6948210236220472
21
1.2574773228346456
0
LINE
8
BLACK
6
CONTINUOUS
10
0.6948210236220472
20
1.2574773228346456
11
0.6942663385826772
21
1.25219968503937
0
LINE
8
BLACK
6
CONTINUOUS
10
0.6942663385826772
20
1.25219968503937
11
0.69321968503937
21
1.2496558267716535
0
LINE
8
BLACK
6
CONTINUOUS
10
0.69321968503937
20
1.2496558267716535
11
0.6909638976377953
21
1.2480816141732283
0
LINE
8
BLACK
6
CONTINUOUS
10
0.6909638976377953
20
1.2480816141732283
11
0.6882151181102362
21
1.2479768897637795
0
LINE
8
BLACK
6
CONTINUOUS
10
0.6882151181102362
20
1.2479768897637795
11
0.6877051574803149
21
1.2481359055118111
0
LINE
8
BLACK
6
CONTINUOUS
10
0.6877051574803149
20
1.2481359055118111
11
0.6842275984251969
21
1.2494329527559054
0
LINE
8
BLACK
6
CONTINUOUS
10
0.6842275984251969
20
1.2494329527559054
11
0.684227283464567
21
1.2494330314960629
0
LINE
8
BLACK
6
CONTINUOUS
10
0.684227283464567
20
1.2494330314960629
11
0.6818836614173228
21
1.2496850393700787
0
LINE
8
BLACK
6
CONTINUOUS
10
0.6818836614173228
20
1.2496850393700787
11
0.6598425590551181
21
1.2496850393700787
0
LINE
8
BLACK
6
CONTINUOUS
10
0.6598425590551181
20
1.2496850393700787
11
0.6598425590551181
21
1.23
0
LINE
8
BLACK
6
CONTINUOUS
10
0.6598425590551181
20
1.23
11
0.6800000393700787
21
1.23
0
LINE
8
BLACK
6
CONTINUOUS
10
0.6800000393700787
20
1.23
11
0.6800000393700787
21
1.1699999999999999
0
LINE
8
BLACK
6
CONTINUOUS
10
0.6800000393700787
20
1.1699999999999999
11
0.6200000393700787
21
1.1699999999999999
0
LINE
8
BLACK
6
CONTINUOUS
10
0.6200000393700787
20
1.1699999999999999
11
0.6200000393700787
21
1.1901574803149606
0
LINE
8
BLACK
6
CONTINUOUS
10
0.6200000393700787
20
1.1901574803149606
11
0.5800000393700787
21
1.1901574803149606
0
LINE
8
BLACK
6
CONTINUOUS
10
0.5800000393700787
20
1.1901574803149606
11
0.5800000393700787
21
1.1699999999999999
0
LINE
8
BLACK
6
CONTINUOUS
10
0.5800000393700787
20
1.1699999999999999
11
0.5200000393700788
21
1.1699999999999999
0
LINE
8
BLACK
6
CONTINUOUS
10
0.5200000393700788
20
1.1699999999999999
11
0.5200000393700788
21
1.1901574803149606
0
LINE
8
BLACK
6
CONTINUOUS
10
0.5200000393700788
20
1.1901574803149606
11
0.500315
21
1.1901574803149606
0
LINE
8
BLACK
6
CONTINUOUS
10
0.500315
20
1.1901574803149606
11
0.500315
21
1.1681163779527559
0
LINE
8
BLACK
6
CONTINUOUS
10
0.500315
20
1.1681163779527559
11
0.5005670078740158
21
1.1657727559055118
0
LINE
8
BLACK
6
CONTINUOUS
10
0.5005670078740158
20
1.1657727559055118
11
0.5005670866141733
21
1.1657724803149605
0
LINE
8
BLACK
6
CONTINUOUS
10
0.5005670866141733
20
1.1657724803149605
11
0.5025451181102362
21
1.1604690551181103
0
LINE
8
BLACK
6
CONTINUOUS
10
0.5025451181102362
20
1.1604690551181103
11
0.5025452755905512
21
1.160468779527559
0
LINE
8
BLACK
6
CONTINUOUS
10
0.5025452755905512
20
1.160468779527559
11
0.5059374015748032
21
1.1559375590551182
0
LINE
8
BLACK
6
CONTINUOUS
10
0.5059374015748032
20
1.1559375590551182
11
0.508369094488189
21
1.1541171653543307
0
LINE
8
BLACK
6
CONTINUOUS
10
0.508369094488189
20
1.1541171653543307
11
0.5100175590551181
21
1.1519150393700788
0
LINE
8
BLACK
6
CONTINUOUS
10
0.5100175590551181
20
1.1519150393700788
11
0.5102137795275591
21
1.1491712598425197
0
LINE
8
BLACK
6
CONTINUOUS
10
0.5102137795275591
20
1.1491712598425197
11
0.5088954724409449
21
1.1467569685039369
0
LINE
8
BLACK
6
CONTINUOUS
10
0.5088954724409449
20
1.1467569685039369
11
0.508369094488189
21
1.146300905511811
0
LINE
8
BLACK
6
CONTINUOUS
10
0.508369094488189
20
1.146300905511811
11
0.5056985039370079
21
1.1443016929133858
0
LINE
8
BLACK
6
CONTINUOUS
10
0.5056985039370079
20
1.1443016929133858
11
0.5056984645669291
21
1.144301653543307
0
LINE
8
BLACK
6
CONTINUOUS
10
0.5056984645669291
20
1.144301653543307
11
0.5056984251968504
21
1.1443016141732283
0
LINE
8
BLACK
6
CONTINUOUS
10
0.5056984251968504
20
1.1443016141732283
11
0.5056983858267716
21
1.1443015354330708
0
LINE
8
BLACK
6
CONTINUOUS
10
0.5056983858267716
20
1.1443015354330708
11
0.5022485039370078
21
1.1396931102362204
0
LINE
8
BLACK
6
CONTINUOUS
10
0.5022485039370078
20
1.1396931102362204
11
0.5002366929133858
21
1.1342994094488188
0
LINE
8
BLACK
6
CONTINUOUS
10
0.5002366929133858
20
1.1342994094488188
11
0.5002366929133858
21
1.1342993307086613
0
LINE
8
BLACK
6
CONTINUOUS
10
0.5002366929133858
20
1.1342993307086613
11
0.4999803543307086
21
1.1319155511811023
0
LINE
8
BLACK
6
CONTINUOUS
10
0.4999803543307086
20
1.1319155511811023
11
0.4999803543307086
21
1.0680844881889764
0
LINE
8
BLACK
6
CONTINUOUS
10
0.4999803543307086
20
1.0680844881889764
11
0.5002366929133858
21
1.0657007086614172
0
LINE
8
BLACK
6
CONTINUOUS
10
0.5002366929133858
20
1.0657007086614172
11
0.5002366929133858
21
1.0657006299212599
0
LINE
8
BLACK
6
CONTINUOUS
10
0.5002366929133858
20
1.0657006299212599
11
0.5010336220472441
21
1.063564094488189
0
LINE
8
BLACK
6
CONTINUOUS
10
0.5010336220472441
20
1.063564094488189
11
0.5022485039370078
21
1.0603069291338583
0
LINE
8
BLACK
6
CONTINUOUS
10
0.5022485039370078
20
1.0603069291338583
11
0.5056984251968504
21
1.0556983858267717
0
LINE
8
BLACK
6
CONTINUOUS
10
0.5056984251968504
20
1.0556983858267717
11
0.5056984645669291
21
1.0556983858267717
0
LINE
8
BLACK
6
CONTINUOUS
10
0.5056984645669291
20
1.0556983858267717
11
0.5056985039370079
21
1.0556983070866142
0
LINE
8
BLACK
6
CONTINUOUS
10
0.5056985039370079
20
1.0556983070866142
11
0.5080898818897638
21
1.0539081102362204
0
LINE
8
BLACK
6
CONTINUOUS
10
0.5080898818897638
20
1.0539081102362204
11
0.5097383464566929
21
1.0517059842519685
0
LINE
8
BLACK
6
CONTINUOUS
10
0.5097383464566929
20
1.0517059842519685
11
0.5099345669291339
21
1.0489622440944881
0
LINE
8
BLACK
6
CONTINUOUS
10
0.5099345669291339
20
1.0489622440944881
11
0.5086162204724409
21
1.0465479527559054
0
LINE
8
BLACK
6
CONTINUOUS
10
0.5086162204724409
20
1.0465479527559054
11
0.5080898818897638
21
1.0460918897637794
0
LINE
8
BLACK
6
CONTINUOUS
10
0.5080898818897638
20
1.0460918897637794
11
0.5056984645669291
21
1.0443016929133857
0
LINE
8
BLACK
6
CONTINUOUS
10
0.5056984645669291
20
1.0443016929133857
11
0.5056984251968504
21
1.0443016535433072
0
LINE
8
BLACK
6
CONTINUOUS
10
0.5056984251968504
20
1.0443016535433072
11
0.5051529133858268
21
1.0435729527559054
0
LINE
8
BLACK
6
CONTINUOUS
10
0.5051529133858268
20
1.0435729527559054
11
0.5029507086614173
21
1.0419245669291339
0
LINE
8
BLACK
6
CONTINUOUS
10
0.5029507086614173
20
1.0419245669291339
11
0.5002069291338582
21
1.0417284645669291
0
LINE
8
BLACK
6
CONTINUOUS
10
0.5002069291338582
20
1.0417284645669291
11
0.497792874015748
21
1.0430467322834645
0
LINE
8
BLACK
6
CONTINUOUS
10
0.497792874015748
20
1.0430467322834645
11
0.4366146062992126
21
1.104225
0
LINE
8
BLACK
6
CONTINUOUS
10
0.4366146062992126
20
1.104225
11
0.4352962992125984
21
1.1066392913385827
0
LINE
8
BLACK
6
CONTINUOUS
10
0.4352962992125984
20
1.1066392913385827
11
0.4352114566929134
21
1.1071670078740157
0
LINE
8
BLACK
6
CONTINUOUS
10
0.4352114566929134
20
1.1071670078740157
11
0.4351788188976378
21
1.1074774015748032
0
LINE
8
BLACK
6
CONTINUOUS
10
0.4351788188976378
20
1.1074774015748032
11
0.4351788188976378
21
1.1074774803149605
0
LINE
8
BLACK
6
CONTINUOUS
10
0.4351788188976378
20
1.1074774803149605
11
0.4328553937007874
21
1.1146281889763778
0
LINE
8
BLACK
6
CONTINUOUS
10
0.4328553937007874
20
1.1146281889763778
11
0.429096062992126
21
1.121139527559055
0
LINE
8
BLACK
6
CONTINUOUS
10
0.429096062992126
20
1.121139527559055
11
0.4240650787401575
21
1.1267270078740157
0
LINE
8
BLACK
6
CONTINUOUS
10
0.4240650787401575
20
1.1267270078740157
11
0.4179823622047244
21
1.131146377952756
0
LINE
8
BLACK
6
CONTINUOUS
10
0.4179823622047244
20
1.131146377952756
11
0.4111137007874016
21
1.1342044881889763
0
LINE
8
BLACK
6
CONTINUOUS
10
0.4111137007874016
20
1.1342044881889763
11
0.4111136220472441
21
1.1342045275590551
0
LINE
8
BLACK
6
CONTINUOUS
10
0.4111136220472441
20
1.1342045275590551
11
0.4037593307086614
21
1.135767716535433
0
LINE
8
BLACK
6
CONTINUOUS
10
0.4037593307086614
20
1.135767716535433
11
0.3962406692913386
21
1.135767716535433
0
LINE
8
BLACK
6
CONTINUOUS
10
0.3962406692913386
20
1.135767716535433
11
0.3888863779527559
21
1.1342045275590551
0
LINE
8
BLACK
6
CONTINUOUS
10
0.3888863779527559
20
1.1342045275590551
11
0.3820175590551181
21
1.1311463385826772
0
LINE
8
BLACK
6
CONTINUOUS
10
0.3820175590551181
20
1.1311463385826772
11
0.375934842519685
21
1.1267269685039369
0
LINE
8
BLACK
6
CONTINUOUS
10
0.375934842519685
20
1.1267269685039369
11
0.3709038976377952
21
1.1211394881889765
0
LINE
8
BLACK
6
CONTINUOUS
10
0.3709038976377952
20
1.1211394881889765
11
0.3671446062992126
21
1.1146282283464566
0
LINE
8
BLACK
6
CONTINUOUS
10
0.3671446062992126
20
1.1146282283464566
11
0.3671444881889764
21
1.1146279527559055
0
LINE
8
BLACK
6
CONTINUOUS
10
0.3671444881889764
20
1.1146279527559055
11
0.3648212204724409
21
1.1074776377952755
0
LINE
8
BLACK
6
CONTINUOUS
10
0.3648212204724409
20
1.1074776377952755
11
0.3648211811023622
21
1.1074774803149605
0
LINE
8
BLACK
6
CONTINUOUS
10
0.3648211811023622
20
1.1074774803149605
11
0.3640352755905512
21
1.0999999999999999
0
LINE
8
BLACK
6
CONTINUOUS
10
0.3640352755905512
20
1.0999999999999999
11
0.3648211811023622
21
1.0925225196850394
0
LINE
8
BLACK
6
CONTINUOUS
10
0.3648211811023622
20
1.0925225196850394
11
0.3648212204724409
21
1.0925224015748032
0
LINE
8
BLACK
6
CONTINUOUS
10
0.3648212204724409
20
1.0925224015748032
11
0.3671444881889764
21
1.0853720866141732
0
LINE
8
BLACK
6
CONTINUOUS
10
0.3671444881889764
20
1.0853720866141732
11
0.3671446062992126
21
1.0853718110236221
0
LINE
8
BLACK
6
CONTINUOUS
10
0.3671446062992126
20
1.0853718110236221
11
0.370903937007874
21
1.078860472440945
0
LINE
8
BLACK
6
CONTINUOUS
10
0.370903937007874
20
1.078860472440945
11
0.3759349212598425
21
1.0732729921259843
0
LINE
8
BLACK
6
CONTINUOUS
10
0.3759349212598425
20
1.0732729921259843
11
0.3820176377952756
21
1.068853622047244
0
LINE
8
BLACK
6
CONTINUOUS
10
0.3820176377952756
20
1.068853622047244
11
0.3888862992125984
21
1.0657955118110236
0
LINE
8
BLACK
6
CONTINUOUS
10
0.3888862992125984
20
1.0657955118110236
11
0.3931592519685039
21
1.0648872834645668
0
LINE
8
BLACK
6
CONTINUOUS
10
0.3931592519685039
20
1.0648872834645668
11
0.3955798031496063
21
1.0635805118110235
0
LINE
8
BLACK
6
CONTINUOUS
10
0.3955798031496063
20
1.0635805118110235
11
0.3955962992125984
21
1.063564094488189
0
LINE
8
BLACK
6
CONTINUOUS
10
0.3955962992125984
20
1.063564094488189
11
0.4559483858267717
21
1.0032120078740157
0
LINE
8
BLACK
6
CONTINUOUS
10
0.4559483858267717
20
1.0032120078740157
11
0.4572666929133858
21
1.0007977165354331
0
LINE
8
BLACK
6
CONTINUOUS
10
0.4572666929133858
20
1.0007977165354331
11
0.4570704724409449
21
0.998053937007874
0
LINE
8
BLACK
6
CONTINUOUS
10
0.4570704724409449
20
0.998053937007874
11
0.455421968503937
21
0.9958518503937007
0
LINE
8
BLACK
6
CONTINUOUS
10
0.455421968503937
20
0.9958518503937007
11
0.4528446456692913
21
0.9948905511811024
0
LINE
8
BLACK
6
CONTINUOUS
10
0.4528446456692913
20
0.9948905511811024
11
0.4524963779527559
21
0.9948781102362204
0
LINE
8
BLACK
6
CONTINUOUS
10
0.4524963779527559
20
0.9948781102362204
11
0.3873364960629921
21
0.9948781102362204
0
LINE
8
BLACK
6
CONTINUOUS
10
0.3873364960629921
20
0.9948781102362204
11
0.3846971653543307
21
0.9956531102362205
0
LINE
8
BLACK
6
CONTINUOUS
10
0.3846971653543307
20
0.9956531102362205
11
0.3844670078740157
21
0.9958104724409449
0
LINE
8
BLACK
6
CONTINUOUS
10
0.3844670078740157
20
0.9958104724409449
11
0.382628188976378
21
0.9971464566929134
0
LINE
8
BLACK
6
CONTINUOUS
10
0.382628188976378
20
0.9971464566929134
11
0.382628031496063
21
0.9971465354330709
0
LINE
8
BLACK
6
CONTINUOUS
10
0.382628031496063
20
0.9971465354330709
11
0.3757593700787402
21
1.0002046456692912
0
LINE
8
BLACK
6
CONTINUOUS
10
0.3757593700787402
20
1.0002046456692912
11
0.3757592913385827
21
1.00020468503937
0
LINE
8
BLACK
6
CONTINUOUS
10
0.3757592913385827
20
1.00020468503937
11
0.368405
21
1.0017678740157481
0
LINE
8
BLACK
6
CONTINUOUS
10
0.368405
20
1.0017678740157481
11
0.3608863385826772
21
1.0017678740157481
0
LINE
8
BLACK
6
CONTINUOUS
10
0.3608863385826772
20
1.0017678740157481
11
0.3535320472440945
21
1.00020468503937
0
LINE
8
BLACK
6
CONTINUOUS
10
0.3535320472440945
20
1.00020468503937
11
0.3466632283464567
21
0.9971464960629921
0
LINE
8
BLACK
6
CONTINUOUS
10
0.3466632283464567
20
0.9971464960629921
11
0.3405805118110236
21
0.9927271259842519
0
LINE
8
BLACK
6
CONTINUOUS
10
0.3405805118110236
20
0.9927271259842519
11
0.3355495669291338
21
0.9871396456692914
0
LINE
8
BLACK
6
CONTINUOUS
10
0.3355495669291338
20
0.9871396456692914
11
0.3317902755905512
21
0.9806283858267716
0
LINE
8
BLACK
6
CONTINUOUS
10
0.3317902755905512
20
0.9806283858267716
11
0.3317901574803149
21
0.9806281102362204
0
LINE
8
BLACK
6
CONTINUOUS
10
0.3317901574803149
20
0.9806281102362204
11
0.3294668897637795
21
0.9734777952755905
0
LINE
8
BLACK
6
CONTINUOUS
10
0.3294668897637795
20
0.9734777952755905
11
0.3294668503937008
21
0.9734776377952755
0
LINE
8
BLACK
6
CONTINUOUS
10
0.3294668503937008
20
0.9734776377952755
11
0.3286809448818898
21
0.966000157480315
0
LINE
8
BLACK
6
CONTINUOUS
10
0.3286809448818898
20
0.966000157480315
11
0.3294668503937008
21
0.9585226771653543
0
LINE
8
BLACK
6
CONTINUOUS
10
0.5598425590551181
20
1.23
11
0.5800000393700787
21
1.23
0
LINE
8
BLACK
6
CONTINUOUS
10
0.5800000393700787
20
1.23
11
0.5800000393700787
21
1.2098425196850393
0
LINE
8
BLACK
6
CONTINUOUS
10
0.5800000393700787
20
1.2098425196850393
11
0.6200000393700787
21
1.2098425196850393
0
LINE
8
BLACK
6
CONTINUOUS
10
0.6200000393700787
20
1.2098425196850393
11
0.6200000393700787
21
1.23
0
LINE
8
BLACK
6
CONTINUOUS
10
0.6200000393700787
20
1.23
11
0.6401575196850393
21
1.23
0
LINE
8
BLACK
6
CONTINUOUS
10
0.6401575196850393
20
1.23
11
0.6401575196850393
21
1.2496850393700787
0
LINE
8
BLACK
6
CONTINUOUS
10
0.6401575196850393
20
1.2496850393700787
11
0.6181163779527559
21
1.2496850393700787
0
LINE
8
BLACK
6
CONTINUOUS
10
0.6181163779527559
20
1.2496850393700787
11
0.6157727559055118
21
1.2494330314960629
0
LINE
8
BLACK
6
CONTINUOUS
10
0.6157727559055118
20
1.2494330314960629
11
0.6157724803149606
21
1.2494329527559054
0
LINE
8
BLACK
6
CONTINUOUS
10
0.6157724803149606
20
1.2494329527559054
11
0.6104690551181102
21
1.2474549212598425
0
LINE
8
BLACK
6
CONTINUOUS
10
0.6104690551181102
20
1.2474549212598425
11
0.6104687795275591
21
1.2474547637795275
0
LINE
8
BLACK
6
CONTINUOUS
10
0.6104687795275591
20
1.2474547637795275
11
0.6059375196850394
21
1.2440626377952755
0
LINE
8
BLACK
6
CONTINUOUS
10
0.6059375196850394
20
1.2440626377952755
11
0.6039081496062992
21
1.2413517322834646
0
LINE
8
BLACK
6
CONTINUOUS
10
0.6039081496062992
20
1.2413517322834646
11
0.6017060236220473
21
1.2397033070866141
0
LINE
8
BLACK
6
CONTINUOUS
10
0.6017060236220473
20
1.2397033070866141
11
0.5989622834645669
21
1.2395070866141733
0
LINE
8
BLACK
6
CONTINUOUS
10
0.5989622834645669
20
1.2395070866141733
11
0.5965479921259842
21
1.2408254330708661
0
LINE
8
BLACK
6
CONTINUOUS
10
0.5965479921259842
20
1.2408254330708661
11
0.5960919291338582
21
1.2413517322834646
0
LINE
8
BLACK
6
CONTINUOUS
10
0.5960919291338582
20
1.2413517322834646
11
0.5940625196850393
21
1.2440626377952755
0
LINE
8
BLACK
6
CONTINUOUS
10
0.5940625196850393
20
1.2440626377952755
11
0.5895312598425196
21
1.2474547637795275
0
LINE
8
BLACK
6
CONTINUOUS
10
0.5895312598425196
20
1.2474547637795275
11
0.5895309842519685
21
1.2474549212598425
0
LINE
8
BLACK
6
CONTINUOUS
10
0.5895309842519685
20
1.2474549212598425
11
0.5842275590551181
21
1.2494329527559054
0
LINE
8
BLACK
6
CONTINUOUS
10
0.5842275590551181
20
1.2494329527559054
11
0.5842272834645669
21
1.2494330314960629
0
LINE
8
BLACK
6
CONTINUOUS
10
0.5842272834645669
20
1.2494330314960629
11
0.5818836614173228
21
1.2496850393700787
0
LINE
8
BLACK
6
CONTINUOUS
10
0.5818836614173228
20
1.2496850393700787
11
0.5598425590551181
21
1.2496850393700787
0
LINE
8
BLACK
6
CONTINUOUS
10
0.5598425590551181
20
1.2496850393700787
11
0.5598425590551181
21
1.23
0
LINE
8
BLACK
6
CONTINUOUS
10
0.5157727559055117
20
1.2494330314960629
11
0.5157724803149606
21
1.2494329527559054
0
LINE
8
BLACK
6
CONTINUOUS
10
0.5157724803149606
20
1.2494329527559054
11
0.5104690551181102
21
1.2474549212598425
0
LINE
8
BLACK
6
CONTINUOUS
10
0.5104690551181102
20
1.2474549212598425
11
0.5104687795275591
21
1.2474547637795275
0
LINE
8
BLACK
6
CONTINUOUS
10
0.5104687795275591
20
1.2474547637795275
11
0.5059375196850393
21
1.2440626377952755
0
LINE
8
BLACK
6
CONTINUOUS
10
0.5059375196850393
20
1.2440626377952755
11
0.5059374015748032
21
1.2440625196850394
0
LINE
8
BLACK
6
CONTINUOUS
10
0.5059374015748032
20
1.2440625196850394
11
0.5025452755905512
21
1.2395312598425197
0
LINE
8
BLACK
6
CONTINUOUS
10
0.5025452755905512
20
1.2395312598425197
11
0.5025451181102362
21
1.2395309842519684
0
LINE
8
BLACK
6
CONTINUOUS
10
0.5025451181102362
20
1.2395309842519684
11
0.5005670866141733
21
1.2342275590551182
0
LINE
8
BLACK
6
CONTINUOUS
10
0.5005670866141733
20
1.2342275590551182
11
0.5005670078740158
21
1.2342272834645669
0
LINE
8
BLACK
6
CONTINUOUS
10
0.5005670078740158
20
1.2342272834645669
11
0.500315
21
1.2318836614173228
0
LINE
8
BLACK
6
CONTINUOUS
10
0.500315
20
1.2318836614173228
11
0.500315
21
1.2098425196850393
0
LINE
8
BLACK
6
CONTINUOUS
10
0.500315
20
1.2098425196850393
11
0.5200000393700788
21
1.2098425196850393
0
LINE
8
BLACK
6
CONTINUOUS
10
0.5200000393700788
20
1.2098425196850393
11
0.5200000393700788
21
1.23
0
LINE
8
BLACK
6
CONTINUOUS
10
0.5200000393700788
20
1.23
11
0.5401575196850393
21
1.23
0
LINE
8
BLACK
6
CONTINUOUS
10
0.5401575196850393
20
1.23
11
0.5401575196850393
21
1.2496850393700787
0
LINE
8
BLACK
6
CONTINUOUS
10
0.5401575196850393
20
1.2496850393700787
11
0.5181163779527559
21
1.2496850393700787
0
LINE
8
BLACK
6
CONTINUOUS
10
0.5181163779527559
20
1.2496850393700787
11
0.5157727559055117
21
1.2494330314960629
0
LINE
8
BLACK
6
CONTINUOUS
10
0.5543546456692914
20
1.4781091338582677
11
0.6400247244094488
21
1.4781091338582677
0
LINE
8
BLACK
6
CONTINUOUS
10
0.6400247244094488
20
1.4781091338582677
11
0.6400247244094488
21
1.7437669291338582
0
LINE
8
BLACK
6
CONTINUOUS
10
0.6400247244094488
20
1.7437669291338582
11
0.5543546456692914
21
1.7437669291338582
0
LINE
8
BLACK
6
CONTINUOUS
10
0.5543546456692914
20
1.7437669291338582
11
0.5543546456692914
21
1.4781091338582677
0
CIRCLE
8
BLACK
10
0.8000000393700787
20
1.5999999999999999
40
0.0068897637795276
0
CIRCLE
8
BLACK
10
0.8000000393700787
20
0.4
40
0.0068897637795276
0
CIRCLE
8
BLACK
10
0.4000000393700787
20
0.4
40
0.0068897637795276
0
CIRCLE
8
BLACK
10
0.4000000393700787
20
1.5999999999999999
40
0.0068897637795276
0
CIRCLE
8
BLACK
10
0.5500000393700787
20
1.2
40
0.0068897637795276
0
CIRCLE
8
BLACK
10
0.6500000393700788
20
1.2
40
0.0068897637795276
0
CIRCLE
8
BLACK
10
0.5500000393700787
20
1.0999999999999999
40
0.0068897637795276
0
CIRCLE
8
BLACK
10
0.6500000393700788
20
1.0999999999999999
40
0.0068897637795276
0
CIRCLE
8
BLACK
10
0.5500000393700787
20
1.
40
0.0068897637795276
0
CIRCLE
8
BLACK
10
0.6500000393700788
20
1.
40
0.0068897637795276
0
CIRCLE
8
BLACK
10
0.5500000393700787
20
0.9
40
0.0068897637795276
0
CIRCLE
8
BLACK
10
0.6500000393700788
20
0.9
40
0.0068897637795276
0
CIRCLE
8
BLACK
10
0.5500000393700787
20
0.7999999999999999
40
0.0068897637795276
0
CIRCLE
8
BLACK
10
0.6500000393700788
20
0.7999999999999999
40
0.0068897637795276
0
CIRCLE
8
BLACK
10
0.7979999999999999
20
0.9389999999999999
40
0.0078740157480315
0
CIRCLE
8
BLACK
10
0.4
20
1.0999999999999999
40
0.0078740157480315
0
CIRCLE
8
BLACK
10
0.729999842519685
20
1.249999842519685
40
0.0078740157480315
0
CIRCLE
8
BLACK
10
0.405
20
0.89
40
0.0078740157480315
0
CIRCLE
8
BLACK
10
0.309
20
0.9269999999999999
40
0.0078740157480315
0
CIRCLE
8
BLACK
10
0.948
20
0.633
40
0.0078740157480315
0
CIRCLE
8
BLACK
10
0.800944842519685
20
1.0900000000000001
40
0.0078740157480315
0
CIRCLE
8
BLACK
10
0.248
20
0.9269999999999999
40
0.0078740157480315
0
CIRCLE
8
BLACK
10
0.249
20
1.075
40
0.0078740157480315
0
CIRCLE
8
BLACK
10
0.949
20
0.9269999999999999
40
0.0078740157480315
0
CIRCLE
8
BLACK
10
0.249
20
1.369
40
0.0078740157480315
0
CIRCLE
8
BLACK
10
0.95
20
1.369
40
0.0078740157480315
0
CIRCLE
8
BLACK
10
0.887
20
0.633
40
0.0078740157480315
0
CIRCLE
8
BLACK
10
0.25
20
0.633
40
0.0078740157480315
0
CIRCLE
8
BLACK
10
0.887
20
1.075
40
0.0078740157480315
0
CIRCLE
8
BLACK
10
0.889
20
1.369
40
0.0078740157480315
0
CIRCLE
8
BLACK
10
0.888
20
0.9269999999999999
40
0.0078740157480315
0
CIRCLE
8
BLACK
10
0.31
20
1.369
40
0.0078740157480315
0
CIRCLE
8
BLACK
10
0.311
20
0.633
40
0.0078740157480315
0
CIRCLE
8
BLACK
10
0.31
20
1.075
40
0.0078740157480315
0
CIRCLE
8
BLACK
10
0.948
20
1.075
40
0.0078740157480315
0
CIRCLE
8
BLACK
10
0.3646456692913386
20
0.966000157480315
40
0.0078740157480315
0
CIRCLE
8
BLACK
10
0.8436456692913386
20
0.8906238976377953
40
0.0078740157480315
  0
ENDSEC
  0
EOF
