  0
SECTION
  2
HEADER
  9
$ANGBASE
  50
0.0
  9
$ANGDIR
  70
1
  9
$MEASUREMENT
  70
0
  0
ENDSEC
  0
SECTION
  2
TABLES
  0
TABLE
  2
LTYPE
  70
4
  0
LTYPE
  5
40F
  2
CONTINUOUS
  70
0
  3
Solid line
  72
65
  73
0
  40
0.0
  0
LTYPE
  5
410
  2
DASHDOT
 70
0
  3
Dash Dot ____ _ ____ _
 72
65
 73
4
 40
2.0
 49
1.25
 49
-0.25
 49
0.25
 49
-0.25
  0
LTYPE
  5
411
  2
DASHED
 70
0
  3
Dashed __ __ __ __ __
 72
65
 73
2
 40
0.75
 49
0.5
 49
-0.25
  0
LTYPE
  5
43B
  2
DOTTED
 70
0
  3
Dotted .  .  .  .
 72
65
 73
2
 40
0.2
 49
0.0
 49
-0.2
  0
ENDTAB
  0
TABLE
  2
STYLE
  70
4
  0
STYLE
  2
KICAD
  70
0
  40
0
  41
1
  42
1
  50
0
  71
0
  3
isocp.shx
  0
STYLE
  2
KICADB
  70
0
  40
0
  41
1
  42
1
  50
0
  71
0
  3
isocp.shx
  0
STYLE
  2
KICADI
  70
0
  40
0
  41
1
  42
1
  50
15
  71
0
  3
isocp.shx
  0
STYLE
  2
KICADBI
  70
0
  40
0
  41
1
  42
1
  50
15
  71
0
  3
isocp.shx
  0
ENDTAB
  0
TABLE
  2
LAYER
  70
1
  0
LAYER
  2
BLACK
  70
0
  62
7
  6
CONTINUOUS
  0
ENDTAB
  0
ENDSEC
  0
SECTION
  2
ENTITIES
0
LINE
8
BLACK
6
CONTINUOUS
10
0.494347
20
0.205804
11
0.495039
21
0.204134
0
LINE
8
BLACK
6
CONTINUOUS
10
0.495039
20
0.204134
11
0.495039
21
0.13563
0
LINE
8
BLACK
6
CONTINUOUS
10
0.495039
20
0.13563
11
0.549764
21
0.13563
0
LINE
8
BLACK
6
CONTINUOUS
10
0.549764
20
0.13563
11
0.551434
21
0.134938
0
LINE
8
BLACK
6
CONTINUOUS
10
0.551434
20
0.134938
11
0.552126
21
0.133268
0
LINE
8
BLACK
6
CONTINUOUS
10
0.552126
20
0.133268
11
0.551434
21
0.131597
0
LINE
8
BLACK
6
CONTINUOUS
10
0.551434
20
0.131597
11
0.549764
21
0.130906
0
LINE
8
BLACK
6
CONTINUOUS
10
0.549764
20
0.130906
11
0.492677
21
0.130906
0
LINE
8
BLACK
6
CONTINUOUS
10
0.492677
20
0.130906
11
0.491007
21
0.131597
0
LINE
8
BLACK
6
CONTINUOUS
10
0.491007
20
0.131597
11
0.490315
21
0.133268
0
LINE
8
BLACK
6
CONTINUOUS
10
0.490315
20
0.133268
11
0.490315
21
0.204134
0
LINE
8
BLACK
6
CONTINUOUS
10
0.490315
20
0.204134
11
0.491007
21
0.205804
0
LINE
8
BLACK
6
CONTINUOUS
10
0.491007
20
0.205804
11
0.492677
21
0.206496
0
LINE
8
BLACK
6
CONTINUOUS
10
0.492677
20
0.206496
11
0.494347
21
0.205804
0
LINE
8
BLACK
6
CONTINUOUS
10
0.662458
20
0.418403
11
0.66315
21
0.416732
0
LINE
8
BLACK
6
CONTINUOUS
10
0.66315
20
0.416732
11
0.66315
21
0.183268
0
LINE
8
BLACK
6
CONTINUOUS
10
0.66315
20
0.183268
11
0.662458
21
0.181597
0
LINE
8
BLACK
6
CONTINUOUS
10
0.662458
20
0.181597
11
0.660787
21
0.180906
0
LINE
8
BLACK
6
CONTINUOUS
10
0.660787
20
0.180906
11
0.659117
21
0.181597
0
LINE
8
BLACK
6
CONTINUOUS
10
0.659117
20
0.181597
11
0.658425
21
0.183268
0
LINE
8
BLACK
6
CONTINUOUS
10
0.658425
20
0.183268
11
0.658425
21
0.416732
0
LINE
8
BLACK
6
CONTINUOUS
10
0.658425
20
0.416732
11
0.659117
21
0.418403
0
LINE
8
BLACK
6
CONTINUOUS
10
0.659117
20
0.418403
11
0.660787
21
0.419094
0
LINE
8
BLACK
6
CONTINUOUS
10
0.660787
20
0.419094
11
0.662458
21
0.418403
0
LINE
8
BLACK
6
CONTINUOUS
10
0.398001
20
0.298622
11
0.399113
21
0.296936
0
LINE
8
BLACK
6
CONTINUOUS
10
0.399113
20
0.296936
11
0.398882
21
0.29493
0
LINE
8
BLACK
6
CONTINUOUS
10
0.398882
20
0.29493
11
0.397008
21
0.29118
0
LINE
8
BLACK
6
CONTINUOUS
10
0.397008
20
0.29118
11
0.396482
21
0.290471
0
LINE
8
BLACK
6
CONTINUOUS
10
0.396482
20
0.290471
11
0.396455
21
0.290413
0
LINE
8
BLACK
6
CONTINUOUS
10
0.396455
20
0.290413
11
0.393996
21
0.287955
0
LINE
8
BLACK
6
CONTINUOUS
10
0.393996
20
0.287955
11
0.42141
21
0.287955
0
LINE
8
BLACK
6
CONTINUOUS
10
0.42141
20
0.287955
11
0.42141
21
0.29625
0
LINE
8
BLACK
6
CONTINUOUS
10
0.42141
20
0.29625
11
0.421588
21
0.29726
0
LINE
8
BLACK
6
CONTINUOUS
10
0.421588
20
0.29726
11
0.422887
21
0.298808
0
LINE
8
BLACK
6
CONTINUOUS
10
0.422887
20
0.298808
11
0.424876
21
0.299158
0
LINE
8
BLACK
6
CONTINUOUS
10
0.424876
20
0.299158
11
0.426625
21
0.298148
0
LINE
8
BLACK
6
CONTINUOUS
10
0.426625
20
0.298148
11
0.427316
21
0.29625
0
LINE
8
BLACK
6
CONTINUOUS
10
0.427316
20
0.29625
11
0.427316
21
0.273753
0
LINE
8
BLACK
6
CONTINUOUS
10
0.427316
20
0.273753
11
0.427138
21
0.272743
0
LINE
8
BLACK
6
CONTINUOUS
10
0.427138
20
0.272743
11
0.425839
21
0.271196
0
LINE
8
BLACK
6
CONTINUOUS
10
0.425839
20
0.271196
11
0.42385
21
0.270845
0
LINE
8
BLACK
6
CONTINUOUS
10
0.42385
20
0.270845
11
0.422101
21
0.271855
0
LINE
8
BLACK
6
CONTINUOUS
10
0.422101
20
0.271855
11
0.42141
21
0.273753
0
LINE
8
BLACK
6
CONTINUOUS
10
0.42141
20
0.273753
11
0.42141
21
0.282049
0
LINE
8
BLACK
6
CONTINUOUS
10
0.42141
20
0.282049
11
0.384993
21
0.282049
0
LINE
8
BLACK
6
CONTINUOUS
10
0.384993
20
0.282049
11
0.383983
21
0.282227
0
LINE
8
BLACK
6
CONTINUOUS
10
0.383983
20
0.282227
11
0.383853
21
0.282336
0
LINE
8
BLACK
6
CONTINUOUS
10
0.383853
20
0.282336
11
0.383684
21
0.282355
0
LINE
8
BLACK
6
CONTINUOUS
10
0.383684
20
0.282355
11
0.383092
21
0.282975
0
LINE
8
BLACK
6
CONTINUOUS
10
0.383092
20
0.282975
11
0.382436
21
0.283526
0
LINE
8
BLACK
6
CONTINUOUS
10
0.382436
20
0.283526
11
0.382406
21
0.283693
0
LINE
8
BLACK
6
CONTINUOUS
10
0.382406
20
0.283693
11
0.382289
21
0.283816
0
LINE
8
BLACK
6
CONTINUOUS
10
0.382289
20
0.283816
11
0.382234
21
0.284671
0
LINE
8
BLACK
6
CONTINUOUS
10
0.382234
20
0.284671
11
0.382085
21
0.285515
0
LINE
8
BLACK
6
CONTINUOUS
10
0.382085
20
0.285515
11
0.38217
21
0.285662
0
LINE
8
BLACK
6
CONTINUOUS
10
0.38217
20
0.285662
11
0.382159
21
0.285831
0
LINE
8
BLACK
6
CONTINUOUS
10
0.382159
20
0.285831
11
0.382666
21
0.286522
0
LINE
8
BLACK
6
CONTINUOUS
10
0.382666
20
0.286522
11
0.383095
21
0.287264
0
LINE
8
BLACK
6
CONTINUOUS
10
0.383095
20
0.287264
11
0.383254
21
0.287322
0
LINE
8
BLACK
6
CONTINUOUS
10
0.383254
20
0.287322
11
0.383355
21
0.287459
0
LINE
8
BLACK
6
CONTINUOUS
10
0.383355
20
0.287459
11
0.388736
21
0.291046
0
LINE
8
BLACK
6
CONTINUOUS
10
0.388736
20
0.291046
11
0.39194
21
0.29425
0
LINE
8
BLACK
6
CONTINUOUS
10
0.39194
20
0.29425
11
0.3936
21
0.297571
0
LINE
8
BLACK
6
CONTINUOUS
10
0.3936
20
0.297571
11
0.394211
21
0.298395
0
LINE
8
BLACK
6
CONTINUOUS
10
0.394211
20
0.298395
11
0.396065
21
0.299198
0
LINE
8
BLACK
6
CONTINUOUS
10
0.396065
20
0.299198
11
0.398001
21
0.298622
0
LINE
8
BLACK
6
CONTINUOUS
10
0.426625
20
0.330019
11
0.427316
21
0.328121
0
LINE
8
BLACK
6
CONTINUOUS
10
0.427316
20
0.328121
11
0.427316
21
0.324372
0
LINE
8
BLACK
6
CONTINUOUS
10
0.427316
20
0.324372
11
0.427162
21
0.323503
0
LINE
8
BLACK
6
CONTINUOUS
10
0.427162
20
0.323503
11
0.427164
21
0.323438
0
LINE
8
BLACK
6
CONTINUOUS
10
0.427164
20
0.323438
11
0.425289
21
0.317814
0
LINE
8
BLACK
6
CONTINUOUS
10
0.425289
20
0.317814
11
0.424801
21
0.316912
0
LINE
8
BLACK
6
CONTINUOUS
10
0.424801
20
0.316912
11
0.424651
21
0.31682
0
LINE
8
BLACK
6
CONTINUOUS
10
0.424651
20
0.31682
11
0.424576
21
0.31666
0
LINE
8
BLACK
6
CONTINUOUS
10
0.424576
20
0.31666
11
0.420827
21
0.31291
0
LINE
8
BLACK
6
CONTINUOUS
10
0.420827
20
0.31291
11
0.419986
21
0.312322
0
LINE
8
BLACK
6
CONTINUOUS
10
0.419986
20
0.312322
11
0.419811
21
0.312307
0
LINE
8
BLACK
6
CONTINUOUS
10
0.419811
20
0.312307
11
0.419672
21
0.312197
0
LINE
8
BLACK
6
CONTINUOUS
10
0.419672
20
0.312197
11
0.414048
21
0.310322
0
LINE
8
BLACK
6
CONTINUOUS
10
0.414048
20
0.310322
11
0.413175
21
0.310193
0
LINE
8
BLACK
6
CONTINUOUS
10
0.413175
20
0.310193
11
0.413114
21
0.310171
0
LINE
8
BLACK
6
CONTINUOUS
10
0.413114
20
0.310171
11
0.384993
21
0.310171
0
LINE
8
BLACK
6
CONTINUOUS
10
0.384993
20
0.310171
11
0.383983
21
0.310349
0
LINE
8
BLACK
6
CONTINUOUS
10
0.383983
20
0.310349
11
0.382436
21
0.311647
0
LINE
8
BLACK
6
CONTINUOUS
10
0.382436
20
0.311647
11
0.382085
21
0.313636
0
LINE
8
BLACK
6
CONTINUOUS
10
0.382085
20
0.313636
11
0.383095
21
0.315385
0
LINE
8
BLACK
6
CONTINUOUS
10
0.383095
20
0.315385
11
0.384993
21
0.316076
0
LINE
8
BLACK
6
CONTINUOUS
10
0.384993
20
0.316076
11
0.412635
21
0.316076
0
LINE
8
BLACK
6
CONTINUOUS
10
0.412635
20
0.316076
11
0.417144
21
0.317579
0
LINE
8
BLACK
6
CONTINUOUS
10
0.417144
20
0.317579
11
0.419907
21
0.320343
0
LINE
8
BLACK
6
CONTINUOUS
10
0.419907
20
0.320343
11
0.42141
21
0.324851
0
LINE
8
BLACK
6
CONTINUOUS
10
0.42141
20
0.324851
11
0.42141
21
0.328121
0
LINE
8
BLACK
6
CONTINUOUS
10
0.42141
20
0.328121
11
0.421588
21
0.329131
0
LINE
8
BLACK
6
CONTINUOUS
10
0.421588
20
0.329131
11
0.422887
21
0.330679
0
LINE
8
BLACK
6
CONTINUOUS
10
0.422887
20
0.330679
11
0.424876
21
0.331029
0
LINE
8
BLACK
6
CONTINUOUS
10
0.424876
20
0.331029
11
0.426625
21
0.330019
0
LINE
8
BLACK
6
CONTINUOUS
10
0.551434
20
0.468403
11
0.552126
21
0.466732
0
LINE
8
BLACK
6
CONTINUOUS
10
0.552126
20
0.466732
11
0.551434
21
0.465062
0
LINE
8
BLACK
6
CONTINUOUS
10
0.551434
20
0.465062
11
0.549764
21
0.46437
0
LINE
8
BLACK
6
CONTINUOUS
10
0.549764
20
0.46437
11
0.495039
21
0.46437
0
LINE
8
BLACK
6
CONTINUOUS
10
0.495039
20
0.46437
11
0.495039
21
0.395866
0
LINE
8
BLACK
6
CONTINUOUS
10
0.495039
20
0.395866
11
0.494347
21
0.394196
0
LINE
8
BLACK
6
CONTINUOUS
10
0.494347
20
0.394196
11
0.492677
21
0.393504
0
LINE
8
BLACK
6
CONTINUOUS
10
0.492677
20
0.393504
11
0.453701
21
0.393504
0
LINE
8
BLACK
6
CONTINUOUS
10
0.453701
20
0.393504
11
0.45203
21
0.394196
0
LINE
8
BLACK
6
CONTINUOUS
10
0.45203
20
0.394196
11
0.451339
21
0.395866
0
LINE
8
BLACK
6
CONTINUOUS
10
0.451339
20
0.395866
11
0.45203
21
0.397536
0
LINE
8
BLACK
6
CONTINUOUS
10
0.45203
20
0.397536
11
0.453701
21
0.398228
0
LINE
8
BLACK
6
CONTINUOUS
10
0.453701
20
0.398228
11
0.490315
21
0.398228
0
LINE
8
BLACK
6
CONTINUOUS
10
0.490315
20
0.398228
11
0.490315
21
0.466732
0
LINE
8
BLACK
6
CONTINUOUS
10
0.490315
20
0.466732
11
0.491007
21
0.468403
0
LINE
8
BLACK
6
CONTINUOUS
10
0.491007
20
0.468403
11
0.492677
21
0.469094
0
LINE
8
BLACK
6
CONTINUOUS
10
0.492677
20
0.469094
11
0.549764
21
0.469094
0
LINE
8
BLACK
6
CONTINUOUS
10
0.549764
20
0.469094
11
0.551434
21
0.468403
0
LINE
8
BLACK
6
CONTINUOUS
10
0.494347
20
0.645804
11
0.495039
21
0.644134
0
LINE
8
BLACK
6
CONTINUOUS
10
0.495039
20
0.644134
11
0.495039
21
0.57563
0
LINE
8
BLACK
6
CONTINUOUS
10
0.495039
20
0.57563
11
0.549764
21
0.57563
0
LINE
8
BLACK
6
CONTINUOUS
10
0.549764
20
0.57563
11
0.551434
21
0.574938
0
LINE
8
BLACK
6
CONTINUOUS
10
0.551434
20
0.574938
11
0.552126
21
0.573268
0
LINE
8
BLACK
6
CONTINUOUS
10
0.552126
20
0.573268
11
0.551434
21
0.571597
0
LINE
8
BLACK
6
CONTINUOUS
10
0.551434
20
0.571597
11
0.549764
21
0.570906
0
LINE
8
BLACK
6
CONTINUOUS
10
0.549764
20
0.570906
11
0.492677
21
0.570906
0
LINE
8
BLACK
6
CONTINUOUS
10
0.492677
20
0.570906
11
0.491007
21
0.571597
0
LINE
8
BLACK
6
CONTINUOUS
10
0.491007
20
0.571597
11
0.490315
21
0.573268
0
LINE
8
BLACK
6
CONTINUOUS
10
0.490315
20
0.573268
11
0.490315
21
0.644134
0
LINE
8
BLACK
6
CONTINUOUS
10
0.490315
20
0.644134
11
0.491007
21
0.645804
0
LINE
8
BLACK
6
CONTINUOUS
10
0.491007
20
0.645804
11
0.492677
21
0.646496
0
LINE
8
BLACK
6
CONTINUOUS
10
0.492677
20
0.646496
11
0.494347
21
0.645804
0
LINE
8
BLACK
6
CONTINUOUS
10
0.662458
20
0.858403
11
0.66315
21
0.856732
0
LINE
8
BLACK
6
CONTINUOUS
10
0.66315
20
0.856732
11
0.66315
21
0.623268
0
LINE
8
BLACK
6
CONTINUOUS
10
0.66315
20
0.623268
11
0.662458
21
0.621597
0
LINE
8
BLACK
6
CONTINUOUS
10
0.662458
20
0.621597
11
0.660787
21
0.620906
0
LINE
8
BLACK
6
CONTINUOUS
10
0.660787
20
0.620906
11
0.659117
21
0.621597
0
LINE
8
BLACK
6
CONTINUOUS
10
0.659117
20
0.621597
11
0.658425
21
0.623268
0
LINE
8
BLACK
6
CONTINUOUS
10
0.658425
20
0.623268
11
0.658425
21
0.856732
0
LINE
8
BLACK
6
CONTINUOUS
10
0.658425
20
0.856732
11
0.659117
21
0.858403
0
LINE
8
BLACK
6
CONTINUOUS
10
0.659117
20
0.858403
11
0.660787
21
0.859094
0
LINE
8
BLACK
6
CONTINUOUS
10
0.660787
20
0.859094
11
0.662458
21
0.858403
0
LINE
8
BLACK
6
CONTINUOUS
10
0.424993
20
0.740966
11
0.425127
21
0.740977
0
LINE
8
BLACK
6
CONTINUOUS
10
0.425127
20
0.740977
11
0.425855
21
0.740468
0
LINE
8
BLACK
6
CONTINUOUS
10
0.425855
20
0.740468
11
0.426625
21
0.740023
0
LINE
8
BLACK
6
CONTINUOUS
10
0.426625
20
0.740023
11
0.426671
21
0.739896
0
LINE
8
BLACK
6
CONTINUOUS
10
0.426671
20
0.739896
11
0.426782
21
0.739819
0
LINE
8
BLACK
6
CONTINUOUS
10
0.426782
20
0.739819
11
0.427012
21
0.73896
0
LINE
8
BLACK
6
CONTINUOUS
10
0.427012
20
0.73896
11
0.427316
21
0.738125
0
LINE
8
BLACK
6
CONTINUOUS
10
0.427316
20
0.738125
11
0.427316
21
0.713753
0
LINE
8
BLACK
6
CONTINUOUS
10
0.427316
20
0.713753
11
0.427138
21
0.712743
0
LINE
8
BLACK
6
CONTINUOUS
10
0.427138
20
0.712743
11
0.425839
21
0.711196
0
LINE
8
BLACK
6
CONTINUOUS
10
0.425839
20
0.711196
11
0.42385
21
0.710845
0
LINE
8
BLACK
6
CONTINUOUS
10
0.42385
20
0.710845
11
0.422101
21
0.711855
0
LINE
8
BLACK
6
CONTINUOUS
10
0.422101
20
0.711855
11
0.42141
21
0.713753
0
LINE
8
BLACK
6
CONTINUOUS
10
0.42141
20
0.713753
11
0.42141
21
0.730997
0
LINE
8
BLACK
6
CONTINUOUS
10
0.42141
20
0.730997
11
0.403954
21
0.71354
0
LINE
8
BLACK
6
CONTINUOUS
10
0.403954
20
0.71354
11
0.403114
21
0.712952
0
LINE
8
BLACK
6
CONTINUOUS
10
0.403114
20
0.712952
11
0.402938
21
0.712937
0
LINE
8
BLACK
6
CONTINUOUS
10
0.402938
20
0.712937
11
0.402799
21
0.712827
0
LINE
8
BLACK
6
CONTINUOUS
10
0.402799
20
0.712827
11
0.397175
21
0.710952
0
LINE
8
BLACK
6
CONTINUOUS
10
0.397175
20
0.710952
11
0.396302
21
0.710823
0
LINE
8
BLACK
6
CONTINUOUS
10
0.396302
20
0.710823
11
0.396241
21
0.710801
0
LINE
8
BLACK
6
CONTINUOUS
10
0.396241
20
0.710801
11
0.392492
21
0.710801
0
LINE
8
BLACK
6
CONTINUOUS
10
0.392492
20
0.710801
11
0.391482
21
0.710979
0
LINE
8
BLACK
6
CONTINUOUS
10
0.391482
20
0.710979
11
0.391347
21
0.711092
0
LINE
8
BLACK
6
CONTINUOUS
10
0.391347
20
0.711092
11
0.391171
21
0.711112
0
LINE
8
BLACK
6
CONTINUOUS
10
0.391171
20
0.711112
11
0.387422
21
0.712987
0
LINE
8
BLACK
6
CONTINUOUS
10
0.387422
20
0.712987
11
0.386713
21
0.713513
0
LINE
8
BLACK
6
CONTINUOUS
10
0.386713
20
0.713513
11
0.386654
21
0.71354
0
LINE
8
BLACK
6
CONTINUOUS
10
0.386654
20
0.71354
11
0.38478
21
0.715415
0
LINE
8
BLACK
6
CONTINUOUS
10
0.38478
20
0.715415
11
0.384273
21
0.716138
0
LINE
8
BLACK
6
CONTINUOUS
10
0.384273
20
0.716138
11
0.384227
21
0.716182
0
LINE
8
BLACK
6
CONTINUOUS
10
0.384227
20
0.716182
11
0.382352
21
0.719932
0
LINE
8
BLACK
6
CONTINUOUS
10
0.382352
20
0.719932
11
0.382059
21
0.720915
0
LINE
8
BLACK
6
CONTINUOUS
10
0.382059
20
0.720915
11
0.3821
21
0.721086
0
LINE
8
BLACK
6
CONTINUOUS
10
0.3821
20
0.721086
11
0.38204
21
0.721252
0
LINE
8
BLACK
6
CONTINUOUS
10
0.38204
20
0.721252
11
0.38204
21
0.730626
0
LINE
8
BLACK
6
CONTINUOUS
10
0.38204
20
0.730626
11
0.382218
21
0.731636
0
LINE
8
BLACK
6
CONTINUOUS
10
0.382218
20
0.731636
11
0.382332
21
0.731771
0
LINE
8
BLACK
6
CONTINUOUS
10
0.382332
20
0.731771
11
0.382352
21
0.731947
0
LINE
8
BLACK
6
CONTINUOUS
10
0.382352
20
0.731947
11
0.384227
21
0.735696
0
LINE
8
BLACK
6
CONTINUOUS
10
0.384227
20
0.735696
11
0.384753
21
0.736405
0
LINE
8
BLACK
6
CONTINUOUS
10
0.384753
20
0.736405
11
0.38478
21
0.736464
0
LINE
8
BLACK
6
CONTINUOUS
10
0.38478
20
0.736464
11
0.386654
21
0.738338
0
LINE
8
BLACK
6
CONTINUOUS
10
0.386654
20
0.738338
11
0.387495
21
0.738927
0
LINE
8
BLACK
6
CONTINUOUS
10
0.387495
20
0.738927
11
0.389507
21
0.739103
0
LINE
8
BLACK
6
CONTINUOUS
10
0.389507
20
0.739103
11
0.391161
21
0.737944
0
LINE
8
BLACK
6
CONTINUOUS
10
0.391161
20
0.737944
11
0.391684
21
0.735993
0
LINE
8
BLACK
6
CONTINUOUS
10
0.391684
20
0.735993
11
0.39083
21
0.734163
0
LINE
8
BLACK
6
CONTINUOUS
10
0.39083
20
0.734163
11
0.389294
21
0.732627
0
LINE
8
BLACK
6
CONTINUOUS
10
0.389294
20
0.732627
11
0.387946
21
0.729929
0
LINE
8
BLACK
6
CONTINUOUS
10
0.387946
20
0.729929
11
0.387946
21
0.721949
0
LINE
8
BLACK
6
CONTINUOUS
10
0.387946
20
0.721949
11
0.389294
21
0.719252
0
LINE
8
BLACK
6
CONTINUOUS
10
0.389294
20
0.719252
11
0.390491
21
0.718055
0
LINE
8
BLACK
6
CONTINUOUS
10
0.390491
20
0.718055
11
0.393189
21
0.716706
0
LINE
8
BLACK
6
CONTINUOUS
10
0.393189
20
0.716706
11
0.395762
21
0.716706
0
LINE
8
BLACK
6
CONTINUOUS
10
0.395762
20
0.716706
11
0.400271
21
0.718209
0
LINE
8
BLACK
6
CONTINUOUS
10
0.400271
20
0.718209
11
0.422275
21
0.740213
0
LINE
8
BLACK
6
CONTINUOUS
10
0.422275
20
0.740213
11
0.422803
21
0.740583
0
LINE
8
BLACK
6
CONTINUOUS
10
0.422803
20
0.740583
11
0.422887
21
0.740682
0
LINE
8
BLACK
6
CONTINUOUS
10
0.422887
20
0.740682
11
0.422965
21
0.740696
0
LINE
8
BLACK
6
CONTINUOUS
10
0.422965
20
0.740696
11
0.423115
21
0.740801
0
LINE
8
BLACK
6
CONTINUOUS
10
0.423115
20
0.740801
11
0.424001
21
0.740879
0
LINE
8
BLACK
6
CONTINUOUS
10
0.424001
20
0.740879
11
0.424876
21
0.741033
0
LINE
8
BLACK
6
CONTINUOUS
10
0.424876
20
0.741033
11
0.424993
21
0.740966
0
LINE
8
BLACK
6
CONTINUOUS
10
0.426625
20
0.770019
11
0.427316
21
0.768121
0
LINE
8
BLACK
6
CONTINUOUS
10
0.427316
20
0.768121
11
0.427316
21
0.764372
0
LINE
8
BLACK
6
CONTINUOUS
10
0.427316
20
0.764372
11
0.427162
21
0.763503
0
LINE
8
BLACK
6
CONTINUOUS
10
0.427162
20
0.763503
11
0.427164
21
0.763438
0
LINE
8
BLACK
6
CONTINUOUS
10
0.427164
20
0.763438
11
0.425289
21
0.757814
0
LINE
8
BLACK
6
CONTINUOUS
10
0.425289
20
0.757814
11
0.424801
21
0.756912
0
LINE
8
BLACK
6
CONTINUOUS
10
0.424801
20
0.756912
11
0.424651
21
0.75682
0
LINE
8
BLACK
6
CONTINUOUS
10
0.424651
20
0.75682
11
0.424576
21
0.75666
0
LINE
8
BLACK
6
CONTINUOUS
10
0.424576
20
0.75666
11
0.420827
21
0.75291
0
LINE
8
BLACK
6
CONTINUOUS
10
0.420827
20
0.75291
11
0.419986
21
0.752322
0
LINE
8
BLACK
6
CONTINUOUS
10
0.419986
20
0.752322
11
0.419811
21
0.752307
0
LINE
8
BLACK
6
CONTINUOUS
10
0.419811
20
0.752307
11
0.419672
21
0.752197
0
LINE
8
BLACK
6
CONTINUOUS
10
0.419672
20
0.752197
11
0.414048
21
0.750322
0
LINE
8
BLACK
6
CONTINUOUS
10
0.414048
20
0.750322
11
0.413175
21
0.750193
0
LINE
8
BLACK
6
CONTINUOUS
10
0.413175
20
0.750193
11
0.413114
21
0.750171
0
LINE
8
BLACK
6
CONTINUOUS
10
0.413114
20
0.750171
11
0.384993
21
0.750171
0
LINE
8
BLACK
6
CONTINUOUS
10
0.384993
20
0.750171
11
0.383983
21
0.750349
0
LINE
8
BLACK
6
CONTINUOUS
10
0.383983
20
0.750349
11
0.382436
21
0.751647
0
LINE
8
BLACK
6
CONTINUOUS
10
0.382436
20
0.751647
11
0.382085
21
0.753636
0
LINE
8
BLACK
6
CONTINUOUS
10
0.382085
20
0.753636
11
0.383095
21
0.755385
0
LINE
8
BLACK
6
CONTINUOUS
10
0.383095
20
0.755385
11
0.384993
21
0.756076
0
LINE
8
BLACK
6
CONTINUOUS
10
0.384993
20
0.756076
11
0.412635
21
0.756076
0
LINE
8
BLACK
6
CONTINUOUS
10
0.412635
20
0.756076
11
0.417144
21
0.757579
0
LINE
8
BLACK
6
CONTINUOUS
10
0.417144
20
0.757579
11
0.419907
21
0.760343
0
LINE
8
BLACK
6
CONTINUOUS
10
0.419907
20
0.760343
11
0.42141
21
0.764851
0
LINE
8
BLACK
6
CONTINUOUS
10
0.42141
20
0.764851
11
0.42141
21
0.768121
0
LINE
8
BLACK
6
CONTINUOUS
10
0.42141
20
0.768121
11
0.421588
21
0.769131
0
LINE
8
BLACK
6
CONTINUOUS
10
0.421588
20
0.769131
11
0.422887
21
0.770679
0
LINE
8
BLACK
6
CONTINUOUS
10
0.422887
20
0.770679
11
0.424876
21
0.771029
0
LINE
8
BLACK
6
CONTINUOUS
10
0.424876
20
0.771029
11
0.426625
21
0.770019
0
LINE
8
BLACK
6
CONTINUOUS
10
0.551434
20
0.908403
11
0.552126
21
0.906732
0
LINE
8
BLACK
6
CONTINUOUS
10
0.552126
20
0.906732
11
0.551434
21
0.905062
0
LINE
8
BLACK
6
CONTINUOUS
10
0.551434
20
0.905062
11
0.549764
21
0.90437
0
LINE
8
BLACK
6
CONTINUOUS
10
0.549764
20
0.90437
11
0.495039
21
0.90437
0
LINE
8
BLACK
6
CONTINUOUS
10
0.495039
20
0.90437
11
0.495039
21
0.835866
0
LINE
8
BLACK
6
CONTINUOUS
10
0.495039
20
0.835866
11
0.494347
21
0.834196
0
LINE
8
BLACK
6
CONTINUOUS
10
0.494347
20
0.834196
11
0.492677
21
0.833504
0
LINE
8
BLACK
6
CONTINUOUS
10
0.492677
20
0.833504
11
0.453701
21
0.833504
0
LINE
8
BLACK
6
CONTINUOUS
10
0.453701
20
0.833504
11
0.45203
21
0.834196
0
LINE
8
BLACK
6
CONTINUOUS
10
0.45203
20
0.834196
11
0.451339
21
0.835866
0
LINE
8
BLACK
6
CONTINUOUS
10
0.451339
20
0.835866
11
0.45203
21
0.837536
0
LINE
8
BLACK
6
CONTINUOUS
10
0.45203
20
0.837536
11
0.453701
21
0.838228
0
LINE
8
BLACK
6
CONTINUOUS
10
0.453701
20
0.838228
11
0.490315
21
0.838228
0
LINE
8
BLACK
6
CONTINUOUS
10
0.490315
20
0.838228
11
0.490315
21
0.906732
0
LINE
8
BLACK
6
CONTINUOUS
10
0.490315
20
0.906732
11
0.491007
21
0.908403
0
LINE
8
BLACK
6
CONTINUOUS
10
0.491007
20
0.908403
11
0.492677
21
0.909094
0
LINE
8
BLACK
6
CONTINUOUS
10
0.492677
20
0.909094
11
0.549764
21
0.909094
0
LINE
8
BLACK
6
CONTINUOUS
10
0.549764
20
0.909094
11
0.551434
21
0.908403
0
CIRCLE
8
BLACK
10
0
20
1.2
40
0.00688976
0
CIRCLE
8
BLACK
10
1.2
20
0
40
0.00688976
0
CIRCLE
8
BLACK
10
0
20
0
40
0.00688976
0
CIRCLE
8
BLACK
10
1.2
20
1.2
40
0.00688976
0
CIRCLE
8
BLACK
10
-0.04
20
0.8
40
0.00688976
0
CIRCLE
8
BLACK
10
0.06
20
0.8
40
0.00688976
0
CIRCLE
8
BLACK
10
-0.04
20
0.7
40
0.00688976
0
CIRCLE
8
BLACK
10
0.06
20
0.7
40
0.00688976
0
CIRCLE
8
BLACK
10
-0.04
20
0.6
40
0.00688976
0
CIRCLE
8
BLACK
10
0.06
20
0.6
40
0.00688976
0
CIRCLE
8
BLACK
10
-0.04
20
0.5
40
0.00688976
0
CIRCLE
8
BLACK
10
0.06
20
0.5
40
0.00688976
0
CIRCLE
8
BLACK
10
-0.04
20
0.4
40
0.00688976
0
CIRCLE
8
BLACK
10
0.06
20
0.4
40
0.00688976
  0
ENDSEC
  0
EOF
