  0
SECTION
  2
HEADER
  9
$ANGBASE
  50
0.0
  9
$ANGDIR
  70
1
  9
$MEASUREMENT
  70
0
  0
ENDSEC
  0
SECTION
  2
TABLES
  0
TABLE
  2
LTYPE
  70
4
  0
LTYPE
  5
40F
  2
CONTINUOUS
  70
0
  3
Solid line
  72
65
  73
0
  40
0.0
  0
LTYPE
  5
410
  2
DASHDOT
 70
0
  3
Dash Dot ____ _ ____ _
 72
65
 73
4
 40
2.0
 49
1.25
 49
-0.25
 49
0.25
 49
-0.25
  0
LTYPE
  5
411
  2
DASHED
 70
0
  3
Dashed __ __ __ __ __
 72
65
 73
2
 40
0.75
 49
0.5
 49
-0.25
  0
LTYPE
  5
43B
  2
DOTTED
 70
0
  3
Dotted .  .  .  .
 72
65
 73
2
 40
0.2
 49
0.0
 49
-0.2
  0
ENDTAB
  0
TABLE
  2
STYLE
  70
4
  0
STYLE
  2
KICAD
  70
0
  40
0
  41
1
  42
1
  50
0
  71
0
  3
isocp.shx
  0
STYLE
  2
KICADB
  70
0
  40
0
  41
1
  42
1
  50
0
  71
0
  3
isocp.shx
  0
STYLE
  2
KICADI
  70
0
  40
0
  41
1
  42
1
  50
15
  71
0
  3
isocp.shx
  0
STYLE
  2
KICADBI
  70
0
  40
0
  41
1
  42
1
  50
15
  71
0
  3
isocp.shx
  0
ENDTAB
  0
TABLE
  2
LAYER
  70
1
  0
LAYER
  2
BLACK
  70
0
  62
7
  6
CONTINUOUS
  0
ENDTAB
  0
ENDSEC
  0
SECTION
  2
ENTITIES
0
LINE
8
BLACK
6
CONTINUOUS
10
0.6096807086614173
20
0.3266135826771653
11
0.6170662598425197
21
0.3243732283464567
0
LINE
8
BLACK
6
CONTINUOUS
10
0.6170662598425197
20
0.3243732283464567
11
0.6238728346456692
21
0.3207350393700787
0
LINE
8
BLACK
6
CONTINUOUS
10
0.6238728346456692
20
0.3207350393700787
11
0.6298388582677166
21
0.3158388582677165
0
LINE
8
BLACK
6
CONTINUOUS
10
0.6298388582677166
20
0.3158388582677165
11
0.6347350393700787
21
0.3098728346456693
0
LINE
8
BLACK
6
CONTINUOUS
10
0.6347350393700787
20
0.3098728346456693
11
0.6383732283464567
21
0.3030662598425197
0
LINE
8
BLACK
6
CONTINUOUS
10
0.6383732283464567
20
0.3030662598425197
11
0.6406135826771654
21
0.2956807086614173
0
LINE
8
BLACK
6
CONTINUOUS
10
0.6406135826771654
20
0.2956807086614173
11
0.6413700787401575
21
0.288
0
LINE
8
BLACK
6
CONTINUOUS
10
0.6413700787401575
20
0.288
11
0.6406135826771654
21
0.2803192913385827
0
LINE
8
BLACK
6
CONTINUOUS
10
0.6406135826771654
20
0.2803192913385827
11
0.6383732283464567
21
0.2729337401574803
0
LINE
8
BLACK
6
CONTINUOUS
10
0.6383732283464567
20
0.2729337401574803
11
0.6347350393700787
21
0.2661271653543307
0
LINE
8
BLACK
6
CONTINUOUS
10
0.6347350393700787
20
0.2661271653543307
11
0.6298388582677166
21
0.2601611417322834
0
LINE
8
BLACK
6
CONTINUOUS
10
0.6298388582677166
20
0.2601611417322834
11
0.6238728346456692
21
0.2552649606299213
0
LINE
8
BLACK
6
CONTINUOUS
10
0.6238728346456692
20
0.2552649606299213
11
0.6170662598425197
21
0.2516267716535433
0
LINE
8
BLACK
6
CONTINUOUS
10
0.6170662598425197
20
0.2516267716535433
11
0.6096807086614173
21
0.2493864173228346
0
LINE
8
BLACK
6
CONTINUOUS
10
0.6096807086614173
20
0.2493864173228346
11
0.602
21
0.2486299212598425
0
LINE
8
BLACK
6
CONTINUOUS
10
0.602
20
0.2486299212598425
11
0.5943192913385826
21
0.2493864173228346
0
LINE
8
BLACK
6
CONTINUOUS
10
0.5943192913385826
20
0.2493864173228346
11
0.5869337401574803
21
0.2516267716535433
0
LINE
8
BLACK
6
CONTINUOUS
10
0.5869337401574803
20
0.2516267716535433
11
0.5801271653543307
21
0.2552649606299213
0
LINE
8
BLACK
6
CONTINUOUS
10
0.5801271653543307
20
0.2552649606299213
11
0.5741611417322835
21
0.2601611417322834
0
LINE
8
BLACK
6
CONTINUOUS
10
0.5741611417322835
20
0.2601611417322834
11
0.5692649606299213
21
0.2661271653543307
0
LINE
8
BLACK
6
CONTINUOUS
10
0.5692649606299213
20
0.2661271653543307
11
0.5656267716535432
21
0.2729337401574803
0
LINE
8
BLACK
6
CONTINUOUS
10
0.5656267716535432
20
0.2729337401574803
11
0.5633864173228347
21
0.2803192913385827
0
LINE
8
BLACK
6
CONTINUOUS
10
0.5633864173228347
20
0.2803192913385827
11
0.5626299212598425
21
0.288
0
LINE
8
BLACK
6
CONTINUOUS
10
0.5626299212598425
20
0.288
11
0.5633864173228347
21
0.2956807086614173
0
LINE
8
BLACK
6
CONTINUOUS
10
0.5633864173228347
20
0.2956807086614173
11
0.5656267716535432
21
0.3030662598425197
0
LINE
8
BLACK
6
CONTINUOUS
10
0.5656267716535432
20
0.3030662598425197
11
0.5692649606299213
21
0.3098728346456693
0
LINE
8
BLACK
6
CONTINUOUS
10
0.5692649606299213
20
0.3098728346456693
11
0.5741611417322835
21
0.3158388582677165
0
LINE
8
BLACK
6
CONTINUOUS
10
0.5741611417322835
20
0.3158388582677165
11
0.5801271653543307
21
0.3207350393700787
0
LINE
8
BLACK
6
CONTINUOUS
10
0.5801271653543307
20
0.3207350393700787
11
0.5869337401574803
21
0.3243732283464567
0
LINE
8
BLACK
6
CONTINUOUS
10
0.5869337401574803
20
0.3243732283464567
11
0.5943192913385826
21
0.3266135826771653
0
LINE
8
BLACK
6
CONTINUOUS
10
0.5943192913385826
20
0.3266135826771653
11
0.602
21
0.3273700787401575
0
LINE
8
BLACK
6
CONTINUOUS
10
0.602
20
0.3273700787401575
11
0.6096807086614173
21
0.3266135826771653
0
LINE
8
BLACK
6
CONTINUOUS
10
0.4135768503937008
20
0.5204974015748032
11
0.426982874015748
21
0.5182196062992126
0
LINE
8
BLACK
6
CONTINUOUS
10
0.426982874015748
20
0.5182196062992126
11
0.4400496456692913
21
0.5144551574803149
0
LINE
8
BLACK
6
CONTINUOUS
10
0.4400496456692913
20
0.5144551574803149
11
0.4526127165354331
21
0.5092513385826771
0
LINE
8
BLACK
6
CONTINUOUS
10
0.4526127165354331
20
0.5092513385826771
11
0.4645141732283464
21
0.5026736614173228
0
LINE
8
BLACK
6
CONTINUOUS
10
0.4645141732283464
20
0.5026736614173228
11
0.4756043307086614
21
0.4948047637795275
0
LINE
8
BLACK
6
CONTINUOUS
10
0.4756043307086614
20
0.4948047637795275
11
0.4857437007874016
21
0.4857436614173228
0
LINE
8
BLACK
6
CONTINUOUS
10
0.4857437007874016
20
0.4857436614173228
11
0.4948048031496063
21
0.4756042913385827
0
LINE
8
BLACK
6
CONTINUOUS
10
0.4948048031496063
20
0.4756042913385827
11
0.5026737007874016
21
0.4645141338582677
0
LINE
8
BLACK
6
CONTINUOUS
10
0.5026737007874016
20
0.4645141338582677
11
0.5092513779527559
21
0.4526126771653543
0
LINE
8
BLACK
6
CONTINUOUS
10
0.5092513779527559
20
0.4526126771653543
11
0.5144551968503936
21
0.4400496062992126
0
LINE
8
BLACK
6
CONTINUOUS
10
0.5144551968503936
20
0.4400496062992126
11
0.5182196456692914
21
0.4269828346456693
0
LINE
8
BLACK
6
CONTINUOUS
10
0.5182196456692914
20
0.4269828346456693
11
0.5204974409448819
21
0.413576811023622
0
LINE
8
BLACK
6
CONTINUOUS
10
0.5204974409448819
20
0.413576811023622
11
0.5212598818897638
21
0.4
0
LINE
8
BLACK
6
CONTINUOUS
10
0.5212598818897638
20
0.4
11
0.5204974409448819
21
0.386423188976378
0
LINE
8
BLACK
6
CONTINUOUS
10
0.5204974409448819
20
0.386423188976378
11
0.5182196456692914
21
0.3730171653543307
0
LINE
8
BLACK
6
CONTINUOUS
10
0.5182196456692914
20
0.3730171653543307
11
0.5144551968503936
21
0.3599503937007874
0
LINE
8
BLACK
6
CONTINUOUS
10
0.5144551968503936
20
0.3599503937007874
11
0.5092513779527559
21
0.3473873228346457
0
LINE
8
BLACK
6
CONTINUOUS
10
0.5092513779527559
20
0.3473873228346457
11
0.5026737007874016
21
0.3354858661417323
0
LINE
8
BLACK
6
CONTINUOUS
10
0.5026737007874016
20
0.3354858661417323
11
0.4948048031496063
21
0.3243957086614173
0
LINE
8
BLACK
6
CONTINUOUS
10
0.4948048031496063
20
0.3243957086614173
11
0.4857437007874016
21
0.3142563385826772
0
LINE
8
BLACK
6
CONTINUOUS
10
0.4857437007874016
20
0.3142563385826772
11
0.4756043307086614
21
0.3051952362204725
0
LINE
8
BLACK
6
CONTINUOUS
10
0.4756043307086614
20
0.3051952362204725
11
0.4645141732283464
21
0.2973263385826772
0
LINE
8
BLACK
6
CONTINUOUS
10
0.4645141732283464
20
0.2973263385826772
11
0.4526127165354331
21
0.2907486614173228
0
LINE
8
BLACK
6
CONTINUOUS
10
0.4526127165354331
20
0.2907486614173228
11
0.4400496456692913
21
0.285544842519685
0
LINE
8
BLACK
6
CONTINUOUS
10
0.4400496456692913
20
0.285544842519685
11
0.426982874015748
21
0.2817803937007874
0
LINE
8
BLACK
6
CONTINUOUS
10
0.426982874015748
20
0.2817803937007874
11
0.4135768503937008
21
0.2795025984251969
0
LINE
8
BLACK
6
CONTINUOUS
10
0.4135768503937008
20
0.2795025984251969
11
0.4000000393700787
21
0.2787401574803149
0
LINE
8
BLACK
6
CONTINUOUS
10
0.4000000393700787
20
0.2787401574803149
11
0.3864232283464567
21
0.2795025984251969
0
LINE
8
BLACK
6
CONTINUOUS
10
0.3864232283464567
20
0.2795025984251969
11
0.3730172047244095
21
0.2817803937007874
0
LINE
8
BLACK
6
CONTINUOUS
10
0.3730172047244095
20
0.2817803937007874
11
0.3599504330708662
21
0.285544842519685
0
LINE
8
BLACK
6
CONTINUOUS
10
0.3599504330708662
20
0.285544842519685
11
0.3473873622047244
21
0.2907486614173228
0
LINE
8
BLACK
6
CONTINUOUS
10
0.3473873622047244
20
0.2907486614173228
11
0.335485905511811
21
0.2973263385826772
0
LINE
8
BLACK
6
CONTINUOUS
10
0.335485905511811
20
0.2973263385826772
11
0.3243957480314961
21
0.3051952362204725
0
LINE
8
BLACK
6
CONTINUOUS
10
0.3243957480314961
20
0.3051952362204725
11
0.3142563779527559
21
0.3142563385826772
0
LINE
8
BLACK
6
CONTINUOUS
10
0.3142563779527559
20
0.3142563385826772
11
0.3051952755905512
21
0.3243957086614173
0
LINE
8
BLACK
6
CONTINUOUS
10
0.3051952755905512
20
0.3243957086614173
11
0.2973263779527559
21
0.3354858661417323
0
LINE
8
BLACK
6
CONTINUOUS
10
0.2973263779527559
20
0.3354858661417323
11
0.2907487007874016
21
0.3473873228346457
0
LINE
8
BLACK
6
CONTINUOUS
10
0.2907487007874016
20
0.3473873228346457
11
0.2855448818897638
21
0.3599503937007874
0
LINE
8
BLACK
6
CONTINUOUS
10
0.2855448818897638
20
0.3599503937007874
11
0.2817804330708661
21
0.3730171653543307
0
LINE
8
BLACK
6
CONTINUOUS
10
0.2817804330708661
20
0.3730171653543307
11
0.2795026377952756
21
0.386423188976378
0
LINE
8
BLACK
6
CONTINUOUS
10
0.2795026377952756
20
0.386423188976378
11
0.2787401968503937
21
0.4
0
LINE
8
BLACK
6
CONTINUOUS
10
0.2787401968503937
20
0.4
11
0.2795026377952756
21
0.413576811023622
0
LINE
8
BLACK
6
CONTINUOUS
10
0.2795026377952756
20
0.413576811023622
11
0.2817804330708661
21
0.4269828346456693
0
LINE
8
BLACK
6
CONTINUOUS
10
0.2817804330708661
20
0.4269828346456693
11
0.2855448818897638
21
0.4400496062992126
0
LINE
8
BLACK
6
CONTINUOUS
10
0.2855448818897638
20
0.4400496062992126
11
0.2907487007874016
21
0.4526126771653543
0
LINE
8
BLACK
6
CONTINUOUS
10
0.2907487007874016
20
0.4526126771653543
11
0.2973263779527559
21
0.4645141338582677
0
LINE
8
BLACK
6
CONTINUOUS
10
0.2973263779527559
20
0.4645141338582677
11
0.3051952755905512
21
0.4756042913385827
0
LINE
8
BLACK
6
CONTINUOUS
10
0.3051952755905512
20
0.4756042913385827
11
0.3142563779527559
21
0.4857436614173228
0
LINE
8
BLACK
6
CONTINUOUS
10
0.3142563779527559
20
0.4857436614173228
11
0.3243957480314961
21
0.4948047637795275
0
LINE
8
BLACK
6
CONTINUOUS
10
0.3243957480314961
20
0.4948047637795275
11
0.335485905511811
21
0.5026736614173228
0
LINE
8
BLACK
6
CONTINUOUS
10
0.335485905511811
20
0.5026736614173228
11
0.3473873622047244
21
0.5092513385826771
0
LINE
8
BLACK
6
CONTINUOUS
10
0.3473873622047244
20
0.5092513385826771
11
0.3599504330708662
21
0.5144551574803149
0
LINE
8
BLACK
6
CONTINUOUS
10
0.3599504330708662
20
0.5144551574803149
11
0.3730172047244095
21
0.5182196062992126
0
LINE
8
BLACK
6
CONTINUOUS
10
0.3730172047244095
20
0.5182196062992126
11
0.3864232283464567
21
0.5204974015748032
0
LINE
8
BLACK
6
CONTINUOUS
10
0.3864232283464567
20
0.5204974015748032
11
0.4000000393700787
21
0.521259842519685
0
LINE
8
BLACK
6
CONTINUOUS
10
0.4000000393700787
20
0.521259842519685
11
0.4135768503937008
21
0.5204974015748032
0
LINE
8
BLACK
6
CONTINUOUS
10
0.8135768503937008
20
0.5204974015748032
11
0.826982874015748
21
0.5182196062992126
0
LINE
8
BLACK
6
CONTINUOUS
10
0.826982874015748
20
0.5182196062992126
11
0.8400496456692913
21
0.5144551574803149
0
LINE
8
BLACK
6
CONTINUOUS
10
0.8400496456692913
20
0.5144551574803149
11
0.852612716535433
21
0.5092513385826771
0
LINE
8
BLACK
6
CONTINUOUS
10
0.852612716535433
20
0.5092513385826771
11
0.8645141732283464
21
0.5026736614173228
0
LINE
8
BLACK
6
CONTINUOUS
10
0.8645141732283464
20
0.5026736614173228
11
0.8756043307086614
21
0.4948047637795275
0
LINE
8
BLACK
6
CONTINUOUS
10
0.8756043307086614
20
0.4948047637795275
11
0.8857437007874015
21
0.4857436614173228
0
LINE
8
BLACK
6
CONTINUOUS
10
0.8857437007874015
20
0.4857436614173228
11
0.8948048031496063
21
0.4756042913385827
0
LINE
8
BLACK
6
CONTINUOUS
10
0.8948048031496063
20
0.4756042913385827
11
0.9026737007874015
21
0.4645141338582677
0
LINE
8
BLACK
6
CONTINUOUS
10
0.9026737007874015
20
0.4645141338582677
11
0.9092513779527559
21
0.4526126771653543
0
LINE
8
BLACK
6
CONTINUOUS
10
0.9092513779527559
20
0.4526126771653543
11
0.9144551968503937
21
0.4400496062992126
0
LINE
8
BLACK
6
CONTINUOUS
10
0.9144551968503937
20
0.4400496062992126
11
0.9182196456692913
21
0.4269828346456693
0
LINE
8
BLACK
6
CONTINUOUS
10
0.9182196456692913
20
0.4269828346456693
11
0.9204974409448818
21
0.413576811023622
0
LINE
8
BLACK
6
CONTINUOUS
10
0.9204974409448818
20
0.413576811023622
11
0.9212598818897637
21
0.4
0
LINE
8
BLACK
6
CONTINUOUS
10
0.9212598818897637
20
0.4
11
0.9204974409448818
21
0.386423188976378
0
LINE
8
BLACK
6
CONTINUOUS
10
0.9204974409448818
20
0.386423188976378
11
0.9182196456692913
21
0.3730171653543307
0
LINE
8
BLACK
6
CONTINUOUS
10
0.9182196456692913
20
0.3730171653543307
11
0.9144551968503937
21
0.3599503937007874
0
LINE
8
BLACK
6
CONTINUOUS
10
0.9144551968503937
20
0.3599503937007874
11
0.9092513779527559
21
0.3473873228346457
0
LINE
8
BLACK
6
CONTINUOUS
10
0.9092513779527559
20
0.3473873228346457
11
0.9026737007874015
21
0.3354858661417323
0
LINE
8
BLACK
6
CONTINUOUS
10
0.9026737007874015
20
0.3354858661417323
11
0.8948048031496063
21
0.3243957086614173
0
LINE
8
BLACK
6
CONTINUOUS
10
0.8948048031496063
20
0.3243957086614173
11
0.8857437007874015
21
0.3142563385826772
0
LINE
8
BLACK
6
CONTINUOUS
10
0.8857437007874015
20
0.3142563385826772
11
0.8756043307086614
21
0.3051952362204725
0
LINE
8
BLACK
6
CONTINUOUS
10
0.8756043307086614
20
0.3051952362204725
11
0.8645141732283464
21
0.2973263385826772
0
LINE
8
BLACK
6
CONTINUOUS
10
0.8645141732283464
20
0.2973263385826772
11
0.852612716535433
21
0.2907486614173228
0
LINE
8
BLACK
6
CONTINUOUS
10
0.852612716535433
20
0.2907486614173228
11
0.8400496456692913
21
0.285544842519685
0
LINE
8
BLACK
6
CONTINUOUS
10
0.8400496456692913
20
0.285544842519685
11
0.826982874015748
21
0.2817803937007874
0
LINE
8
BLACK
6
CONTINUOUS
10
0.826982874015748
20
0.2817803937007874
11
0.8135768503937008
21
0.2795025984251969
0
LINE
8
BLACK
6
CONTINUOUS
10
0.8135768503937008
20
0.2795025984251969
11
0.8000000393700787
21
0.2787401574803149
0
LINE
8
BLACK
6
CONTINUOUS
10
0.8000000393700787
20
0.2787401574803149
11
0.7864232283464567
21
0.2795025984251969
0
LINE
8
BLACK
6
CONTINUOUS
10
0.7864232283464567
20
0.2795025984251969
11
0.7730172047244094
21
0.2817803937007874
0
LINE
8
BLACK
6
CONTINUOUS
10
0.7730172047244094
20
0.2817803937007874
11
0.7599504330708661
21
0.285544842519685
0
LINE
8
BLACK
6
CONTINUOUS
10
0.7599504330708661
20
0.285544842519685
11
0.7473873622047243
21
0.2907486614173228
0
LINE
8
BLACK
6
CONTINUOUS
10
0.7473873622047243
20
0.2907486614173228
11
0.735485905511811
21
0.2973263385826772
0
LINE
8
BLACK
6
CONTINUOUS
10
0.735485905511811
20
0.2973263385826772
11
0.7243957480314961
21
0.3051952362204725
0
LINE
8
BLACK
6
CONTINUOUS
10
0.7243957480314961
20
0.3051952362204725
11
0.7142563779527559
21
0.3142563385826772
0
LINE
8
BLACK
6
CONTINUOUS
10
0.7142563779527559
20
0.3142563385826772
11
0.7051952755905512
21
0.3243957086614173
0
LINE
8
BLACK
6
CONTINUOUS
10
0.7051952755905512
20
0.3243957086614173
11
0.6973263779527559
21
0.3354858661417323
0
LINE
8
BLACK
6
CONTINUOUS
10
0.6973263779527559
20
0.3354858661417323
11
0.6907487007874016
21
0.3473873228346457
0
LINE
8
BLACK
6
CONTINUOUS
10
0.6907487007874016
20
0.3473873228346457
11
0.6855448818897638
21
0.3599503937007874
0
LINE
8
BLACK
6
CONTINUOUS
10
0.6855448818897638
20
0.3599503937007874
11
0.6817804330708661
21
0.3730171653543307
0
LINE
8
BLACK
6
CONTINUOUS
10
0.6817804330708661
20
0.3730171653543307
11
0.6795026377952755
21
0.386423188976378
0
LINE
8
BLACK
6
CONTINUOUS
10
0.6795026377952755
20
0.386423188976378
11
0.6787401968503937
21
0.4
0
LINE
8
BLACK
6
CONTINUOUS
10
0.6787401968503937
20
0.4
11
0.6795026377952755
21
0.413576811023622
0
LINE
8
BLACK
6
CONTINUOUS
10
0.6795026377952755
20
0.413576811023622
11
0.6817804330708661
21
0.4269828346456693
0
LINE
8
BLACK
6
CONTINUOUS
10
0.6817804330708661
20
0.4269828346456693
11
0.6855448818897638
21
0.4400496062992126
0
LINE
8
BLACK
6
CONTINUOUS
10
0.6855448818897638
20
0.4400496062992126
11
0.6907487007874016
21
0.4526126771653543
0
LINE
8
BLACK
6
CONTINUOUS
10
0.6907487007874016
20
0.4526126771653543
11
0.6973263779527559
21
0.4645141338582677
0
LINE
8
BLACK
6
CONTINUOUS
10
0.6973263779527559
20
0.4645141338582677
11
0.7051952755905512
21
0.4756042913385827
0
LINE
8
BLACK
6
CONTINUOUS
10
0.7051952755905512
20
0.4756042913385827
11
0.7142563779527559
21
0.4857436614173228
0
LINE
8
BLACK
6
CONTINUOUS
10
0.7142563779527559
20
0.4857436614173228
11
0.7243957480314961
21
0.4948047637795275
0
LINE
8
BLACK
6
CONTINUOUS
10
0.7243957480314961
20
0.4948047637795275
11
0.735485905511811
21
0.5026736614173228
0
LINE
8
BLACK
6
CONTINUOUS
10
0.735485905511811
20
0.5026736614173228
11
0.7473873622047243
21
0.5092513385826771
0
LINE
8
BLACK
6
CONTINUOUS
10
0.7473873622047243
20
0.5092513385826771
11
0.7599504330708661
21
0.5144551574803149
0
LINE
8
BLACK
6
CONTINUOUS
10
0.7599504330708661
20
0.5144551574803149
11
0.7730172047244094
21
0.5182196062992126
0
LINE
8
BLACK
6
CONTINUOUS
10
0.7730172047244094
20
0.5182196062992126
11
0.7864232283464567
21
0.5204974015748032
0
LINE
8
BLACK
6
CONTINUOUS
10
0.7864232283464567
20
0.5204974015748032
11
0.8000000393700787
21
0.521259842519685
0
LINE
8
BLACK
6
CONTINUOUS
10
0.8000000393700787
20
0.521259842519685
11
0.8135768503937008
21
0.5204974015748032
0
LINE
8
BLACK
6
CONTINUOUS
10
0.3276146062992126
20
0.6557384251968503
11
0.3317039763779527
21
0.6538314960629921
0
LINE
8
BLACK
6
CONTINUOUS
10
0.3317039763779527
20
0.6538314960629921
11
0.3348945275590551
21
0.6506409448818897
0
LINE
8
BLACK
6
CONTINUOUS
10
0.3348945275590551
20
0.6506409448818897
11
0.3368014566929134
21
0.6465515748031496
0
LINE
8
BLACK
6
CONTINUOUS
10
0.3368014566929134
20
0.6465515748031496
11
0.3372441338582677
21
0.6431889763779527
0
LINE
8
BLACK
6
CONTINUOUS
10
0.3372441338582677
20
0.6431889763779527
11
0.3372441338582677
21
0.623503937007874
0
LINE
8
BLACK
6
CONTINUOUS
10
0.3372441338582677
20
0.623503937007874
11
0.3368014566929134
21
0.6201413385826772
0
LINE
8
BLACK
6
CONTINUOUS
10
0.3368014566929134
20
0.6201413385826772
11
0.3348945275590551
21
0.616051968503937
0
LINE
8
BLACK
6
CONTINUOUS
10
0.3348945275590551
20
0.616051968503937
11
0.3317039763779527
21
0.6128614173228346
0
LINE
8
BLACK
6
CONTINUOUS
10
0.3317039763779527
20
0.6128614173228346
11
0.3276146062992126
21
0.6109544881889764
0
LINE
8
BLACK
6
CONTINUOUS
10
0.3276146062992126
20
0.6109544881889764
11
0.3242520078740158
21
0.6105118110236221
0
LINE
8
BLACK
6
CONTINUOUS
10
0.3242520078740158
20
0.6105118110236221
11
0.2376378346456693
21
0.6105118110236221
0
LINE
8
BLACK
6
CONTINUOUS
10
0.2376378346456693
20
0.6105118110236221
11
0.2342752362204724
21
0.6109544881889764
0
LINE
8
BLACK
6
CONTINUOUS
10
0.2342752362204724
20
0.6109544881889764
11
0.2301858661417323
21
0.6128614173228346
0
LINE
8
BLACK
6
CONTINUOUS
10
0.2301858661417323
20
0.6128614173228346
11
0.2269953149606299
21
0.616051968503937
0
LINE
8
BLACK
6
CONTINUOUS
10
0.2269953149606299
20
0.616051968503937
11
0.2250883858267717
21
0.6201413385826772
0
LINE
8
BLACK
6
CONTINUOUS
10
0.2250883858267717
20
0.6201413385826772
11
0.2246457086614173
21
0.623503937007874
0
LINE
8
BLACK
6
CONTINUOUS
10
0.2246457086614173
20
0.623503937007874
11
0.2246457086614173
21
0.6431889763779527
0
LINE
8
BLACK
6
CONTINUOUS
10
0.2246457086614173
20
0.6431889763779527
11
0.2250883858267717
21
0.6465515748031496
0
LINE
8
BLACK
6
CONTINUOUS
10
0.2250883858267717
20
0.6465515748031496
11
0.2269953149606299
21
0.6506409448818897
0
LINE
8
BLACK
6
CONTINUOUS
10
0.2269953149606299
20
0.6506409448818897
11
0.2301858661417323
21
0.6538314960629921
0
LINE
8
BLACK
6
CONTINUOUS
10
0.2301858661417323
20
0.6538314960629921
11
0.2342752362204724
21
0.6557384251968503
0
LINE
8
BLACK
6
CONTINUOUS
10
0.2342752362204724
20
0.6557384251968503
11
0.2376378346456693
21
0.6561811023622047
0
LINE
8
BLACK
6
CONTINUOUS
10
0.2376378346456693
20
0.6561811023622047
11
0.3242520078740158
21
0.6561811023622047
0
LINE
8
BLACK
6
CONTINUOUS
10
0.3242520078740158
20
0.6561811023622047
11
0.3276146062992126
21
0.6557384251968503
0
LINE
8
BLACK
6
CONTINUOUS
10
0.9657247637795275
20
0.6557384251968503
11
0.9698141338582676
21
0.6538314960629921
0
LINE
8
BLACK
6
CONTINUOUS
10
0.9698141338582676
20
0.6538314960629921
11
0.9730046850393701
21
0.6506409448818897
0
LINE
8
BLACK
6
CONTINUOUS
10
0.9730046850393701
20
0.6506409448818897
11
0.9749116141732284
21
0.6465515748031496
0
LINE
8
BLACK
6
CONTINUOUS
10
0.9749116141732284
20
0.6465515748031496
11
0.9753542913385826
21
0.6431889763779527
0
LINE
8
BLACK
6
CONTINUOUS
10
0.9753542913385826
20
0.6431889763779527
11
0.9753542913385826
21
0.623503937007874
0
LINE
8
BLACK
6
CONTINUOUS
10
0.9753542913385826
20
0.623503937007874
11
0.9749116141732284
21
0.6201413385826772
0
LINE
8
BLACK
6
CONTINUOUS
10
0.9749116141732284
20
0.6201413385826772
11
0.9730046850393701
21
0.616051968503937
0
LINE
8
BLACK
6
CONTINUOUS
10
0.9730046850393701
20
0.616051968503937
11
0.9698141338582676
21
0.6128614173228346
0
LINE
8
BLACK
6
CONTINUOUS
10
0.9698141338582676
20
0.6128614173228346
11
0.9657247637795275
21
0.6109544881889764
0
LINE
8
BLACK
6
CONTINUOUS
10
0.9657247637795275
20
0.6109544881889764
11
0.9623621653543307
21
0.6105118110236221
0
LINE
8
BLACK
6
CONTINUOUS
10
0.9623621653543307
20
0.6105118110236221
11
0.8757479921259842
21
0.6105118110236221
0
LINE
8
BLACK
6
CONTINUOUS
10
0.8757479921259842
20
0.6105118110236221
11
0.8723853937007874
21
0.6109544881889764
0
LINE
8
BLACK
6
CONTINUOUS
10
0.8723853937007874
20
0.6109544881889764
11
0.8682960236220473
21
0.6128614173228346
0
LINE
8
BLACK
6
CONTINUOUS
10
0.8682960236220473
20
0.6128614173228346
11
0.8651054724409448
21
0.616051968503937
0
LINE
8
BLACK
6
CONTINUOUS
10
0.8651054724409448
20
0.616051968503937
11
0.8631985433070866
21
0.6201413385826772
0
LINE
8
BLACK
6
CONTINUOUS
10
0.8631985433070866
20
0.6201413385826772
11
0.8627558661417323
21
0.623503937007874
0
LINE
8
BLACK
6
CONTINUOUS
10
0.8627558661417323
20
0.623503937007874
11
0.8627558661417323
21
0.6431889763779527
0
LINE
8
BLACK
6
CONTINUOUS
10
0.8627558661417323
20
0.6431889763779527
11
0.8631985433070866
21
0.6465515748031496
0
LINE
8
BLACK
6
CONTINUOUS
10
0.8631985433070866
20
0.6465515748031496
11
0.8651054724409448
21
0.6506409448818897
0
LINE
8
BLACK
6
CONTINUOUS
10
0.8651054724409448
20
0.6506409448818897
11
0.8682960236220473
21
0.6538314960629921
0
LINE
8
BLACK
6
CONTINUOUS
10
0.8682960236220473
20
0.6538314960629921
11
0.8723853937007874
21
0.6557384251968503
0
LINE
8
BLACK
6
CONTINUOUS
10
0.8723853937007874
20
0.6557384251968503
11
0.8757479921259842
21
0.6561811023622047
0
LINE
8
BLACK
6
CONTINUOUS
10
0.8757479921259842
20
0.6561811023622047
11
0.9623621653543307
21
0.6561811023622047
0
LINE
8
BLACK
6
CONTINUOUS
10
0.9623621653543307
20
0.6561811023622047
11
0.9657247637795275
21
0.6557384251968503
0
LINE
8
BLACK
6
CONTINUOUS
10
0.4379534645669291
20
0.7204524409448819
11
0.4408911811023622
21
0.7184895669291338
0
LINE
8
BLACK
6
CONTINUOUS
10
0.4408911811023622
20
0.7184895669291338
11
0.4428540551181102
21
0.7155518503937007
0
LINE
8
BLACK
6
CONTINUOUS
10
0.4428540551181102
20
0.7155518503937007
11
0.4435433464566929
21
0.7120866141732284
0
LINE
8
BLACK
6
CONTINUOUS
10
0.4435433464566929
20
0.7120866141732284
11
0.4435433464566929
21
0.700275590551181
0
LINE
8
BLACK
6
CONTINUOUS
10
0.4435433464566929
20
0.700275590551181
11
0.4428540551181102
21
0.6968103543307086
0
LINE
8
BLACK
6
CONTINUOUS
10
0.4428540551181102
20
0.6968103543307086
11
0.4408911811023622
21
0.6938726377952755
0
LINE
8
BLACK
6
CONTINUOUS
10
0.4408911811023622
20
0.6938726377952755
11
0.4379534645669291
21
0.6919097637795275
0
LINE
8
BLACK
6
CONTINUOUS
10
0.4379534645669291
20
0.6919097637795275
11
0.4344882283464567
21
0.6912204724409449
0
LINE
8
BLACK
6
CONTINUOUS
10
0.4344882283464567
20
0.6912204724409449
11
0.3793701181102362
21
0.6912204724409449
0
LINE
8
BLACK
6
CONTINUOUS
10
0.3793701181102362
20
0.6912204724409449
11
0.3759048818897638
21
0.6919097637795275
0
LINE
8
BLACK
6
CONTINUOUS
10
0.3759048818897638
20
0.6919097637795275
11
0.3729671653543307
21
0.6938726377952755
0
LINE
8
BLACK
6
CONTINUOUS
10
0.3729671653543307
20
0.6938726377952755
11
0.3710042913385826
21
0.6968103543307086
0
LINE
8
BLACK
6
CONTINUOUS
10
0.3710042913385826
20
0.6968103543307086
11
0.370315
21
0.700275590551181
0
LINE
8
BLACK
6
CONTINUOUS
10
0.370315
20
0.700275590551181
11
0.370315
21
0.7120866141732284
0
LINE
8
BLACK
6
CONTINUOUS
10
0.370315
20
0.7120866141732284
11
0.3710042913385826
21
0.7155518503937007
0
LINE
8
BLACK
6
CONTINUOUS
10
0.3710042913385826
20
0.7155518503937007
11
0.3729671653543307
21
0.7184895669291338
0
LINE
8
BLACK
6
CONTINUOUS
10
0.3729671653543307
20
0.7184895669291338
11
0.3759048818897638
21
0.7204524409448819
0
LINE
8
BLACK
6
CONTINUOUS
10
0.3759048818897638
20
0.7204524409448819
11
0.3793701181102362
21
0.7211417322834646
0
LINE
8
BLACK
6
CONTINUOUS
10
0.3793701181102362
20
0.7211417322834646
11
0.4344882283464567
21
0.7211417322834646
0
LINE
8
BLACK
6
CONTINUOUS
10
0.4344882283464567
20
0.7211417322834646
11
0.4379534645669291
21
0.7204524409448819
0
LINE
8
BLACK
6
CONTINUOUS
10
0.8240951181102362
20
0.7204524409448819
11
0.8270328346456692
21
0.7184895669291338
0
LINE
8
BLACK
6
CONTINUOUS
10
0.8270328346456692
20
0.7184895669291338
11
0.8289957086614173
21
0.7155518503937007
0
LINE
8
BLACK
6
CONTINUOUS
10
0.8289957086614173
20
0.7155518503937007
11
0.829685
21
0.7120866141732284
0
LINE
8
BLACK
6
CONTINUOUS
10
0.829685
20
0.7120866141732284
11
0.829685
21
0.700275590551181
0
LINE
8
BLACK
6
CONTINUOUS
10
0.829685
20
0.700275590551181
11
0.8289957086614173
21
0.6968103543307086
0
LINE
8
BLACK
6
CONTINUOUS
10
0.8289957086614173
20
0.6968103543307086
11
0.8270328346456692
21
0.6938726377952755
0
LINE
8
BLACK
6
CONTINUOUS
10
0.8270328346456692
20
0.6938726377952755
11
0.8240951181102362
21
0.6919097637795275
0
LINE
8
BLACK
6
CONTINUOUS
10
0.8240951181102362
20
0.6919097637795275
11
0.8206298818897637
21
0.6912204724409449
0
LINE
8
BLACK
6
CONTINUOUS
10
0.8206298818897637
20
0.6912204724409449
11
0.7655117716535433
21
0.6912204724409449
0
LINE
8
BLACK
6
CONTINUOUS
10
0.7655117716535433
20
0.6912204724409449
11
0.7620465354330709
21
0.6919097637795275
0
LINE
8
BLACK
6
CONTINUOUS
10
0.7620465354330709
20
0.6919097637795275
11
0.7591088188976378
21
0.6938726377952755
0
LINE
8
BLACK
6
CONTINUOUS
10
0.7591088188976378
20
0.6938726377952755
11
0.7571459448818898
21
0.6968103543307086
0
LINE
8
BLACK
6
CONTINUOUS
10
0.7571459448818898
20
0.6968103543307086
11
0.756456653543307
21
0.700275590551181
0
LINE
8
BLACK
6
CONTINUOUS
10
0.756456653543307
20
0.700275590551181
11
0.756456653543307
21
0.7120866141732284
0
LINE
8
BLACK
6
CONTINUOUS
10
0.756456653543307
20
0.7120866141732284
11
0.7571459448818898
21
0.7155518503937007
0
LINE
8
BLACK
6
CONTINUOUS
10
0.7571459448818898
20
0.7155518503937007
11
0.7591088188976378
21
0.7184895669291338
0
LINE
8
BLACK
6
CONTINUOUS
10
0.7591088188976378
20
0.7184895669291338
11
0.7620465354330709
21
0.7204524409448819
0
LINE
8
BLACK
6
CONTINUOUS
10
0.7620465354330709
20
0.7204524409448819
11
0.7655117716535433
21
0.7211417322834646
0
LINE
8
BLACK
6
CONTINUOUS
10
0.7655117716535433
20
0.7211417322834646
11
0.8206298818897637
21
0.7211417322834646
0
LINE
8
BLACK
6
CONTINUOUS
10
0.8206298818897637
20
0.7211417322834646
11
0.8240951181102362
21
0.7204524409448819
0
LINE
8
BLACK
6
CONTINUOUS
10
0.4379534645669291
20
0.7696650393700787
11
0.4408911811023622
21
0.7677021653543307
0
LINE
8
BLACK
6
CONTINUOUS
10
0.4408911811023622
20
0.7677021653543307
11
0.4428540551181102
21
0.7647644488188976
0
LINE
8
BLACK
6
CONTINUOUS
10
0.4428540551181102
20
0.7647644488188976
11
0.4435433464566929
21
0.7612992125984251
0
LINE
8
BLACK
6
CONTINUOUS
10
0.4435433464566929
20
0.7612992125984251
11
0.4435433464566929
21
0.7494881889763779
0
LINE
8
BLACK
6
CONTINUOUS
10
0.4435433464566929
20
0.7494881889763779
11
0.4428540551181102
21
0.7460229527559055
0
LINE
8
BLACK
6
CONTINUOUS
10
0.4428540551181102
20
0.7460229527559055
11
0.4408911811023622
21
0.7430852362204724
0
LINE
8
BLACK
6
CONTINUOUS
10
0.4408911811023622
20
0.7430852362204724
11
0.4379534645669291
21
0.7411223622047244
0
LINE
8
BLACK
6
CONTINUOUS
10
0.4379534645669291
20
0.7411223622047244
11
0.4344882283464567
21
0.7404330708661417
0
LINE
8
BLACK
6
CONTINUOUS
10
0.4344882283464567
20
0.7404330708661417
11
0.3793701181102362
21
0.7404330708661417
0
LINE
8
BLACK
6
CONTINUOUS
10
0.3793701181102362
20
0.7404330708661417
11
0.3759048818897638
21
0.7411223622047244
0
LINE
8
BLACK
6
CONTINUOUS
10
0.3759048818897638
20
0.7411223622047244
11
0.3729671653543307
21
0.7430852362204724
0
LINE
8
BLACK
6
CONTINUOUS
10
0.3729671653543307
20
0.7430852362204724
11
0.3710042913385826
21
0.7460229527559055
0
LINE
8
BLACK
6
CONTINUOUS
10
0.3710042913385826
20
0.7460229527559055
11
0.370315
21
0.7494881889763779
0
LINE
8
BLACK
6
CONTINUOUS
10
0.370315
20
0.7494881889763779
11
0.370315
21
0.7612992125984251
0
LINE
8
BLACK
6
CONTINUOUS
10
0.370315
20
0.7612992125984251
11
0.3710042913385826
21
0.7647644488188976
0
LINE
8
BLACK
6
CONTINUOUS
10
0.3710042913385826
20
0.7647644488188976
11
0.3729671653543307
21
0.7677021653543307
0
LINE
8
BLACK
6
CONTINUOUS
10
0.3729671653543307
20
0.7677021653543307
11
0.3759048818897638
21
0.7696650393700787
0
LINE
8
BLACK
6
CONTINUOUS
10
0.3759048818897638
20
0.7696650393700787
11
0.3793701181102362
21
0.7703543307086614
0
LINE
8
BLACK
6
CONTINUOUS
10
0.3793701181102362
20
0.7703543307086614
11
0.4344882283464567
21
0.7703543307086614
0
LINE
8
BLACK
6
CONTINUOUS
10
0.4344882283464567
20
0.7703543307086614
11
0.4379534645669291
21
0.7696650393700787
0
LINE
8
BLACK
6
CONTINUOUS
10
0.8240951181102362
20
0.7696650393700787
11
0.8270328346456692
21
0.7677021653543307
0
LINE
8
BLACK
6
CONTINUOUS
10
0.8270328346456692
20
0.7677021653543307
11
0.8289957086614173
21
0.7647644488188976
0
LINE
8
BLACK
6
CONTINUOUS
10
0.8289957086614173
20
0.7647644488188976
11
0.829685
21
0.7612992125984251
0
LINE
8
BLACK
6
CONTINUOUS
10
0.829685
20
0.7612992125984251
11
0.829685
21
0.7494881889763779
0
LINE
8
BLACK
6
CONTINUOUS
10
0.829685
20
0.7494881889763779
11
0.8289957086614173
21
0.7460229527559055
0
LINE
8
BLACK
6
CONTINUOUS
10
0.8289957086614173
20
0.7460229527559055
11
0.8270328346456692
21
0.7430852362204724
0
LINE
8
BLACK
6
CONTINUOUS
10
0.8270328346456692
20
0.7430852362204724
11
0.8240951181102362
21
0.7411223622047244
0
LINE
8
BLACK
6
CONTINUOUS
10
0.8240951181102362
20
0.7411223622047244
11
0.8206298818897637
21
0.7404330708661417
0
LINE
8
BLACK
6
CONTINUOUS
10
0.8206298818897637
20
0.7404330708661417
11
0.7655117716535433
21
0.7404330708661417
0
LINE
8
BLACK
6
CONTINUOUS
10
0.7655117716535433
20
0.7404330708661417
11
0.7620465354330709
21
0.7411223622047244
0
LINE
8
BLACK
6
CONTINUOUS
10
0.7620465354330709
20
0.7411223622047244
11
0.7591088188976378
21
0.7430852362204724
0
LINE
8
BLACK
6
CONTINUOUS
10
0.7591088188976378
20
0.7430852362204724
11
0.7571459448818898
21
0.7460229527559055
0
LINE
8
BLACK
6
CONTINUOUS
10
0.7571459448818898
20
0.7460229527559055
11
0.756456653543307
21
0.7494881889763779
0
LINE
8
BLACK
6
CONTINUOUS
10
0.756456653543307
20
0.7494881889763779
11
0.756456653543307
21
0.7612992125984251
0
LINE
8
BLACK
6
CONTINUOUS
10
0.756456653543307
20
0.7612992125984251
11
0.7571459448818898
21
0.7647644488188976
0
LINE
8
BLACK
6
CONTINUOUS
10
0.7571459448818898
20
0.7647644488188976
11
0.7591088188976378
21
0.7677021653543307
0
LINE
8
BLACK
6
CONTINUOUS
10
0.7591088188976378
20
0.7677021653543307
11
0.7620465354330709
21
0.7696650393700787
0
LINE
8
BLACK
6
CONTINUOUS
10
0.7620465354330709
20
0.7696650393700787
11
0.7655117716535433
21
0.7703543307086614
0
LINE
8
BLACK
6
CONTINUOUS
10
0.7655117716535433
20
0.7703543307086614
11
0.8206298818897637
21
0.7703543307086614
0
LINE
8
BLACK
6
CONTINUOUS
10
0.8206298818897637
20
0.7703543307086614
11
0.8240951181102362
21
0.7696650393700787
0
LINE
8
BLACK
6
CONTINUOUS
10
0.5812053543307086
20
0.832909842519685
11
0.5822271653543307
21
0.832227125984252
0
LINE
8
BLACK
6
CONTINUOUS
10
0.5822271653543307
20
0.832227125984252
11
0.5829098818897638
21
0.8312053149606299
0
LINE
8
BLACK
6
CONTINUOUS
10
0.5829098818897638
20
0.8312053149606299
11
0.5831496456692913
21
0.83
0
LINE
8
BLACK
6
CONTINUOUS
10
0.5831496456692913
20
0.83
11
0.5831496456692913
21
0.77
0
LINE
8
BLACK
6
CONTINUOUS
10
0.5831496456692913
20
0.77
11
0.5829098818897638
21
0.7687946850393701
0
LINE
8
BLACK
6
CONTINUOUS
10
0.5829098818897638
20
0.7687946850393701
11
0.5822271653543307
21
0.767772874015748
0
LINE
8
BLACK
6
CONTINUOUS
10
0.5822271653543307
20
0.767772874015748
11
0.5812053543307086
21
0.7670901574803149
0
LINE
8
BLACK
6
CONTINUOUS
10
0.5812053543307086
20
0.7670901574803149
11
0.5800000393700787
21
0.7668503937007873
0
LINE
8
BLACK
6
CONTINUOUS
10
0.5800000393700787
20
0.7668503937007873
11
0.5200000393700788
21
0.7668503937007873
0
LINE
8
BLACK
6
CONTINUOUS
10
0.5200000393700788
20
0.7668503937007873
11
0.5187947244094488
21
0.7670901574803149
0
LINE
8
BLACK
6
CONTINUOUS
10
0.5187947244094488
20
0.7670901574803149
11
0.5177729133858268
21
0.767772874015748
0
LINE
8
BLACK
6
CONTINUOUS
10
0.5177729133858268
20
0.767772874015748
11
0.5170901968503937
21
0.7687946850393701
0
LINE
8
BLACK
6
CONTINUOUS
10
0.5170901968503937
20
0.7687946850393701
11
0.5168504330708661
21
0.77
0
LINE
8
BLACK
6
CONTINUOUS
10
0.5168504330708661
20
0.77
11
0.5168504330708661
21
0.83
0
LINE
8
BLACK
6
CONTINUOUS
10
0.5168504330708661
20
0.83
11
0.5170901968503937
21
0.8312053149606299
0
LINE
8
BLACK
6
CONTINUOUS
10
0.5170901968503937
20
0.8312053149606299
11
0.5177729133858268
21
0.832227125984252
0
LINE
8
BLACK
6
CONTINUOUS
10
0.5177729133858268
20
0.832227125984252
11
0.5187947244094488
21
0.832909842519685
0
LINE
8
BLACK
6
CONTINUOUS
10
0.5187947244094488
20
0.832909842519685
11
0.5200000393700788
21
0.8331496062992125
0
LINE
8
BLACK
6
CONTINUOUS
10
0.5200000393700788
20
0.8331496062992125
11
0.5800000393700787
21
0.8331496062992125
0
LINE
8
BLACK
6
CONTINUOUS
10
0.5800000393700787
20
0.8331496062992125
11
0.5812053543307086
21
0.832909842519685
0
LINE
8
BLACK
6
CONTINUOUS
10
0.6812053543307086
20
0.832909842519685
11
0.6822271653543307
21
0.832227125984252
0
LINE
8
BLACK
6
CONTINUOUS
10
0.6822271653543307
20
0.832227125984252
11
0.6829098818897638
21
0.8312053149606299
0
LINE
8
BLACK
6
CONTINUOUS
10
0.6829098818897638
20
0.8312053149606299
11
0.6831496456692914
21
0.83
0
LINE
8
BLACK
6
CONTINUOUS
10
0.6831496456692914
20
0.83
11
0.6831496456692914
21
0.77
0
LINE
8
BLACK
6
CONTINUOUS
10
0.6831496456692914
20
0.77
11
0.6829098818897638
21
0.7687946850393701
0
LINE
8
BLACK
6
CONTINUOUS
10
0.6829098818897638
20
0.7687946850393701
11
0.6822271653543307
21
0.767772874015748
0
LINE
8
BLACK
6
CONTINUOUS
10
0.6822271653543307
20
0.767772874015748
11
0.6812053543307086
21
0.7670901574803149
0
LINE
8
BLACK
6
CONTINUOUS
10
0.6812053543307086
20
0.7670901574803149
11
0.6800000393700787
21
0.7668503937007873
0
LINE
8
BLACK
6
CONTINUOUS
10
0.6800000393700787
20
0.7668503937007873
11
0.6200000393700787
21
0.7668503937007873
0
LINE
8
BLACK
6
CONTINUOUS
10
0.6200000393700787
20
0.7668503937007873
11
0.6187947244094488
21
0.7670901574803149
0
LINE
8
BLACK
6
CONTINUOUS
10
0.6187947244094488
20
0.7670901574803149
11
0.6177729133858267
21
0.767772874015748
0
LINE
8
BLACK
6
CONTINUOUS
10
0.6177729133858267
20
0.767772874015748
11
0.6170901968503937
21
0.7687946850393701
0
LINE
8
BLACK
6
CONTINUOUS
10
0.6170901968503937
20
0.7687946850393701
11
0.6168504330708662
21
0.77
0
LINE
8
BLACK
6
CONTINUOUS
10
0.6168504330708662
20
0.77
11
0.6168504330708662
21
0.83
0
LINE
8
BLACK
6
CONTINUOUS
10
0.6168504330708662
20
0.83
11
0.6170901968503937
21
0.8312053149606299
0
LINE
8
BLACK
6
CONTINUOUS
10
0.6170901968503937
20
0.8312053149606299
11
0.6177729133858267
21
0.832227125984252
0
LINE
8
BLACK
6
CONTINUOUS
10
0.6177729133858267
20
0.832227125984252
11
0.6187947244094488
21
0.832909842519685
0
LINE
8
BLACK
6
CONTINUOUS
10
0.6187947244094488
20
0.832909842519685
11
0.6200000393700787
21
0.8331496062992125
0
LINE
8
BLACK
6
CONTINUOUS
10
0.6200000393700787
20
0.8331496062992125
11
0.6800000393700787
21
0.8331496062992125
0
LINE
8
BLACK
6
CONTINUOUS
10
0.6800000393700787
20
0.8331496062992125
11
0.6812053543307086
21
0.832909842519685
0
LINE
8
BLACK
6
CONTINUOUS
10
0.4379534645669291
20
0.8188776377952756
11
0.4408911811023622
21
0.8169147637795275
0
LINE
8
BLACK
6
CONTINUOUS
10
0.4408911811023622
20
0.8169147637795275
11
0.4428540551181102
21
0.8139770472440945
0
LINE
8
BLACK
6
CONTINUOUS
10
0.4428540551181102
20
0.8139770472440945
11
0.4435433464566929
21
0.810511811023622
0
LINE
8
BLACK
6
CONTINUOUS
10
0.4435433464566929
20
0.810511811023622
11
0.4435433464566929
21
0.7987007874015748
0
LINE
8
BLACK
6
CONTINUOUS
10
0.4435433464566929
20
0.7987007874015748
11
0.4428540551181102
21
0.7952355511811023
0
LINE
8
BLACK
6
CONTINUOUS
10
0.4428540551181102
20
0.7952355511811023
11
0.4408911811023622
21
0.7922978346456693
0
LINE
8
BLACK
6
CONTINUOUS
10
0.4408911811023622
20
0.7922978346456693
11
0.4379534645669291
21
0.7903349606299213
0
LINE
8
BLACK
6
CONTINUOUS
10
0.4379534645669291
20
0.7903349606299213
11
0.4344882283464567
21
0.7896456692913386
0
LINE
8
BLACK
6
CONTINUOUS
10
0.4344882283464567
20
0.7896456692913386
11
0.3793701181102362
21
0.7896456692913386
0
LINE
8
BLACK
6
CONTINUOUS
10
0.3793701181102362
20
0.7896456692913386
11
0.3759048818897638
21
0.7903349606299213
0
LINE
8
BLACK
6
CONTINUOUS
10
0.3759048818897638
20
0.7903349606299213
11
0.3729671653543307
21
0.7922978346456693
0
LINE
8
BLACK
6
CONTINUOUS
10
0.3729671653543307
20
0.7922978346456693
11
0.3710042913385826
21
0.7952355511811023
0
LINE
8
BLACK
6
CONTINUOUS
10
0.3710042913385826
20
0.7952355511811023
11
0.370315
21
0.7987007874015748
0
LINE
8
BLACK
6
CONTINUOUS
10
0.370315
20
0.7987007874015748
11
0.370315
21
0.810511811023622
0
LINE
8
BLACK
6
CONTINUOUS
10
0.370315
20
0.810511811023622
11
0.3710042913385826
21
0.8139770472440945
0
LINE
8
BLACK
6
CONTINUOUS
10
0.3710042913385826
20
0.8139770472440945
11
0.3729671653543307
21
0.8169147637795275
0
LINE
8
BLACK
6
CONTINUOUS
10
0.3729671653543307
20
0.8169147637795275
11
0.3759048818897638
21
0.8188776377952756
0
LINE
8
BLACK
6
CONTINUOUS
10
0.3759048818897638
20
0.8188776377952756
11
0.3793701181102362
21
0.8195669291338582
0
LINE
8
BLACK
6
CONTINUOUS
10
0.3793701181102362
20
0.8195669291338582
11
0.4344882283464567
21
0.8195669291338582
0
LINE
8
BLACK
6
CONTINUOUS
10
0.4344882283464567
20
0.8195669291338582
11
0.4379534645669291
21
0.8188776377952756
0
LINE
8
BLACK
6
CONTINUOUS
10
0.8240951181102362
20
0.8188776377952756
11
0.8270328346456692
21
0.8169147637795275
0
LINE
8
BLACK
6
CONTINUOUS
10
0.8270328346456692
20
0.8169147637795275
11
0.8289957086614173
21
0.8139770472440945
0
LINE
8
BLACK
6
CONTINUOUS
10
0.8289957086614173
20
0.8139770472440945
11
0.829685
21
0.810511811023622
0
LINE
8
BLACK
6
CONTINUOUS
10
0.829685
20
0.810511811023622
11
0.829685
21
0.7987007874015748
0
LINE
8
BLACK
6
CONTINUOUS
10
0.829685
20
0.7987007874015748
11
0.8289957086614173
21
0.7952355511811023
0
LINE
8
BLACK
6
CONTINUOUS
10
0.8289957086614173
20
0.7952355511811023
11
0.8270328346456692
21
0.7922978346456693
0
LINE
8
BLACK
6
CONTINUOUS
10
0.8270328346456692
20
0.7922978346456693
11
0.8240951181102362
21
0.7903349606299213
0
LINE
8
BLACK
6
CONTINUOUS
10
0.8240951181102362
20
0.7903349606299213
11
0.8206298818897637
21
0.7896456692913386
0
LINE
8
BLACK
6
CONTINUOUS
10
0.8206298818897637
20
0.7896456692913386
11
0.7655117716535433
21
0.7896456692913386
0
LINE
8
BLACK
6
CONTINUOUS
10
0.7655117716535433
20
0.7896456692913386
11
0.7620465354330709
21
0.7903349606299213
0
LINE
8
BLACK
6
CONTINUOUS
10
0.7620465354330709
20
0.7903349606299213
11
0.7591088188976378
21
0.7922978346456693
0
LINE
8
BLACK
6
CONTINUOUS
10
0.7591088188976378
20
0.7922978346456693
11
0.7571459448818898
21
0.7952355511811023
0
LINE
8
BLACK
6
CONTINUOUS
10
0.7571459448818898
20
0.7952355511811023
11
0.756456653543307
21
0.7987007874015748
0
LINE
8
BLACK
6
CONTINUOUS
10
0.756456653543307
20
0.7987007874015748
11
0.756456653543307
21
0.810511811023622
0
LINE
8
BLACK
6
CONTINUOUS
10
0.756456653543307
20
0.810511811023622
11
0.7571459448818898
21
0.8139770472440945
0
LINE
8
BLACK
6
CONTINUOUS
10
0.7571459448818898
20
0.8139770472440945
11
0.7591088188976378
21
0.8169147637795275
0
LINE
8
BLACK
6
CONTINUOUS
10
0.7591088188976378
20
0.8169147637795275
11
0.7620465354330709
21
0.8188776377952756
0
LINE
8
BLACK
6
CONTINUOUS
10
0.7620465354330709
20
0.8188776377952756
11
0.7655117716535433
21
0.8195669291338582
0
LINE
8
BLACK
6
CONTINUOUS
10
0.7655117716535433
20
0.8195669291338582
11
0.8206298818897637
21
0.8195669291338582
0
LINE
8
BLACK
6
CONTINUOUS
10
0.8206298818897637
20
0.8195669291338582
11
0.8240951181102362
21
0.8188776377952756
0
LINE
8
BLACK
6
CONTINUOUS
10
0.4379534645669291
20
0.8680902362204724
11
0.4408911811023622
21
0.8661273622047244
0
LINE
8
BLACK
6
CONTINUOUS
10
0.4408911811023622
20
0.8661273622047244
11
0.4428540551181102
21
0.8631896456692913
0
LINE
8
BLACK
6
CONTINUOUS
10
0.4428540551181102
20
0.8631896456692913
11
0.4435433464566929
21
0.8597244094488189
0
LINE
8
BLACK
6
CONTINUOUS
10
0.4435433464566929
20
0.8597244094488189
11
0.4435433464566929
21
0.8479133858267717
0
LINE
8
BLACK
6
CONTINUOUS
10
0.4435433464566929
20
0.8479133858267717
11
0.4428540551181102
21
0.8444481496062992
0
LINE
8
BLACK
6
CONTINUOUS
10
0.4428540551181102
20
0.8444481496062992
11
0.4408911811023622
21
0.8415104330708661
0
LINE
8
BLACK
6
CONTINUOUS
10
0.4408911811023622
20
0.8415104330708661
11
0.4379534645669291
21
0.8395475590551181
0
LINE
8
BLACK
6
CONTINUOUS
10
0.4379534645669291
20
0.8395475590551181
11
0.4344882283464567
21
0.8388582677165354
0
LINE
8
BLACK
6
CONTINUOUS
10
0.4344882283464567
20
0.8388582677165354
11
0.3793701181102362
21
0.8388582677165354
0
LINE
8
BLACK
6
CONTINUOUS
10
0.3793701181102362
20
0.8388582677165354
11
0.3759048818897638
21
0.8395475590551181
0
LINE
8
BLACK
6
CONTINUOUS
10
0.3759048818897638
20
0.8395475590551181
11
0.3729671653543307
21
0.8415104330708661
0
LINE
8
BLACK
6
CONTINUOUS
10
0.3729671653543307
20
0.8415104330708661
11
0.3710042913385826
21
0.8444481496062992
0
LINE
8
BLACK
6
CONTINUOUS
10
0.3710042913385826
20
0.8444481496062992
11
0.370315
21
0.8479133858267717
0
LINE
8
BLACK
6
CONTINUOUS
10
0.370315
20
0.8479133858267717
11
0.370315
21
0.8597244094488189
0
LINE
8
BLACK
6
CONTINUOUS
10
0.370315
20
0.8597244094488189
11
0.3710042913385826
21
0.8631896456692913
0
LINE
8
BLACK
6
CONTINUOUS
10
0.3710042913385826
20
0.8631896456692913
11
0.3729671653543307
21
0.8661273622047244
0
LINE
8
BLACK
6
CONTINUOUS
10
0.3729671653543307
20
0.8661273622047244
11
0.3759048818897638
21
0.8680902362204724
0
LINE
8
BLACK
6
CONTINUOUS
10
0.3759048818897638
20
0.8680902362204724
11
0.3793701181102362
21
0.8687795275590551
0
LINE
8
BLACK
6
CONTINUOUS
10
0.3793701181102362
20
0.8687795275590551
11
0.4344882283464567
21
0.8687795275590551
0
LINE
8
BLACK
6
CONTINUOUS
10
0.4344882283464567
20
0.8687795275590551
11
0.4379534645669291
21
0.8680902362204724
0
LINE
8
BLACK
6
CONTINUOUS
10
0.8240951181102362
20
0.8680902362204724
11
0.8270328346456692
21
0.8661273622047244
0
LINE
8
BLACK
6
CONTINUOUS
10
0.8270328346456692
20
0.8661273622047244
11
0.8289957086614173
21
0.8631896456692913
0
LINE
8
BLACK
6
CONTINUOUS
10
0.8289957086614173
20
0.8631896456692913
11
0.829685
21
0.8597244094488189
0
LINE
8
BLACK
6
CONTINUOUS
10
0.829685
20
0.8597244094488189
11
0.829685
21
0.8479133858267717
0
LINE
8
BLACK
6
CONTINUOUS
10
0.829685
20
0.8479133858267717
11
0.8289957086614173
21
0.8444481496062992
0
LINE
8
BLACK
6
CONTINUOUS
10
0.8289957086614173
20
0.8444481496062992
11
0.8270328346456692
21
0.8415104330708661
0
LINE
8
BLACK
6
CONTINUOUS
10
0.8270328346456692
20
0.8415104330708661
11
0.8240951181102362
21
0.8395475590551181
0
LINE
8
BLACK
6
CONTINUOUS
10
0.8240951181102362
20
0.8395475590551181
11
0.8206298818897637
21
0.8388582677165354
0
LINE
8
BLACK
6
CONTINUOUS
10
0.8206298818897637
20
0.8388582677165354
11
0.7655117716535433
21
0.8388582677165354
0
LINE
8
BLACK
6
CONTINUOUS
10
0.7655117716535433
20
0.8388582677165354
11
0.7620465354330709
21
0.8395475590551181
0
LINE
8
BLACK
6
CONTINUOUS
10
0.7620465354330709
20
0.8395475590551181
11
0.7591088188976378
21
0.8415104330708661
0
LINE
8
BLACK
6
CONTINUOUS
10
0.7591088188976378
20
0.8415104330708661
11
0.7571459448818898
21
0.8444481496062992
0
LINE
8
BLACK
6
CONTINUOUS
10
0.7571459448818898
20
0.8444481496062992
11
0.756456653543307
21
0.8479133858267717
0
LINE
8
BLACK
6
CONTINUOUS
10
0.756456653543307
20
0.8479133858267717
11
0.756456653543307
21
0.8597244094488189
0
LINE
8
BLACK
6
CONTINUOUS
10
0.756456653543307
20
0.8597244094488189
11
0.7571459448818898
21
0.8631896456692913
0
LINE
8
BLACK
6
CONTINUOUS
10
0.7571459448818898
20
0.8631896456692913
11
0.7591088188976378
21
0.8661273622047244
0
LINE
8
BLACK
6
CONTINUOUS
10
0.7591088188976378
20
0.8661273622047244
11
0.7620465354330709
21
0.8680902362204724
0
LINE
8
BLACK
6
CONTINUOUS
10
0.7620465354330709
20
0.8680902362204724
11
0.7655117716535433
21
0.8687795275590551
0
LINE
8
BLACK
6
CONTINUOUS
10
0.7655117716535433
20
0.8687795275590551
11
0.8206298818897637
21
0.8687795275590551
0
LINE
8
BLACK
6
CONTINUOUS
10
0.8206298818897637
20
0.8687795275590551
11
0.8240951181102362
21
0.8680902362204724
0
LINE
8
BLACK
6
CONTINUOUS
10
0.5812053543307086
20
0.932909842519685
11
0.5822271653543307
21
0.9322271259842519
0
LINE
8
BLACK
6
CONTINUOUS
10
0.5822271653543307
20
0.9322271259842519
11
0.5829098818897638
21
0.9312053149606299
0
LINE
8
BLACK
6
CONTINUOUS
10
0.5829098818897638
20
0.9312053149606299
11
0.5831496456692913
21
0.9299999999999999
0
LINE
8
BLACK
6
CONTINUOUS
10
0.5831496456692913
20
0.9299999999999999
11
0.5831496456692913
21
0.87
0
LINE
8
BLACK
6
CONTINUOUS
10
0.5831496456692913
20
0.87
11
0.5829098818897638
21
0.8687946850393701
0
LINE
8
BLACK
6
CONTINUOUS
10
0.5829098818897638
20
0.8687946850393701
11
0.5822271653543307
21
0.867772874015748
0
LINE
8
BLACK
6
CONTINUOUS
10
0.5822271653543307
20
0.867772874015748
11
0.5812053543307086
21
0.8670901574803149
0
LINE
8
BLACK
6
CONTINUOUS
10
0.5812053543307086
20
0.8670901574803149
11
0.5800000393700787
21
0.8668503937007874
0
LINE
8
BLACK
6
CONTINUOUS
10
0.5800000393700787
20
0.8668503937007874
11
0.5200000393700788
21
0.8668503937007874
0
LINE
8
BLACK
6
CONTINUOUS
10
0.5200000393700788
20
0.8668503937007874
11
0.5187947244094488
21
0.8670901574803149
0
LINE
8
BLACK
6
CONTINUOUS
10
0.5187947244094488
20
0.8670901574803149
11
0.5177729133858268
21
0.867772874015748
0
LINE
8
BLACK
6
CONTINUOUS
10
0.5177729133858268
20
0.867772874015748
11
0.5170901968503937
21
0.8687946850393701
0
LINE
8
BLACK
6
CONTINUOUS
10
0.5170901968503937
20
0.8687946850393701
11
0.5168504330708661
21
0.87
0
LINE
8
BLACK
6
CONTINUOUS
10
0.5168504330708661
20
0.87
11
0.5168504330708661
21
0.9299999999999999
0
LINE
8
BLACK
6
CONTINUOUS
10
0.5168504330708661
20
0.9299999999999999
11
0.5170901968503937
21
0.9312053149606299
0
LINE
8
BLACK
6
CONTINUOUS
10
0.5170901968503937
20
0.9312053149606299
11
0.5177729133858268
21
0.9322271259842519
0
LINE
8
BLACK
6
CONTINUOUS
10
0.5177729133858268
20
0.9322271259842519
11
0.5187947244094488
21
0.932909842519685
0
LINE
8
BLACK
6
CONTINUOUS
10
0.5187947244094488
20
0.932909842519685
11
0.5200000393700788
21
0.9331496062992126
0
LINE
8
BLACK
6
CONTINUOUS
10
0.5200000393700788
20
0.9331496062992126
11
0.5800000393700787
21
0.9331496062992126
0
LINE
8
BLACK
6
CONTINUOUS
10
0.5800000393700787
20
0.9331496062992126
11
0.5812053543307086
21
0.932909842519685
0
LINE
8
BLACK
6
CONTINUOUS
10
0.6812053543307086
20
0.932909842519685
11
0.6822271653543307
21
0.9322271259842519
0
LINE
8
BLACK
6
CONTINUOUS
10
0.6822271653543307
20
0.9322271259842519
11
0.6829098818897638
21
0.9312053149606299
0
LINE
8
BLACK
6
CONTINUOUS
10
0.6829098818897638
20
0.9312053149606299
11
0.6831496456692914
21
0.9299999999999999
0
LINE
8
BLACK
6
CONTINUOUS
10
0.6831496456692914
20
0.9299999999999999
11
0.6831496456692914
21
0.87
0
LINE
8
BLACK
6
CONTINUOUS
10
0.6831496456692914
20
0.87
11
0.6829098818897638
21
0.8687946850393701
0
LINE
8
BLACK
6
CONTINUOUS
10
0.6829098818897638
20
0.8687946850393701
11
0.6822271653543307
21
0.867772874015748
0
LINE
8
BLACK
6
CONTINUOUS
10
0.6822271653543307
20
0.867772874015748
11
0.6812053543307086
21
0.8670901574803149
0
LINE
8
BLACK
6
CONTINUOUS
10
0.6812053543307086
20
0.8670901574803149
11
0.6800000393700787
21
0.8668503937007874
0
LINE
8
BLACK
6
CONTINUOUS
10
0.6800000393700787
20
0.8668503937007874
11
0.6200000393700787
21
0.8668503937007874
0
LINE
8
BLACK
6
CONTINUOUS
10
0.6200000393700787
20
0.8668503937007874
11
0.6187947244094488
21
0.8670901574803149
0
LINE
8
BLACK
6
CONTINUOUS
10
0.6187947244094488
20
0.8670901574803149
11
0.6177729133858267
21
0.867772874015748
0
LINE
8
BLACK
6
CONTINUOUS
10
0.6177729133858267
20
0.867772874015748
11
0.6170901968503937
21
0.8687946850393701
0
LINE
8
BLACK
6
CONTINUOUS
10
0.6170901968503937
20
0.8687946850393701
11
0.6168504330708662
21
0.87
0
LINE
8
BLACK
6
CONTINUOUS
10
0.6168504330708662
20
0.87
11
0.6168504330708662
21
0.9299999999999999
0
LINE
8
BLACK
6
CONTINUOUS
10
0.6168504330708662
20
0.9299999999999999
11
0.6170901968503937
21
0.9312053149606299
0
LINE
8
BLACK
6
CONTINUOUS
10
0.6170901968503937
20
0.9312053149606299
11
0.6177729133858267
21
0.9322271259842519
0
LINE
8
BLACK
6
CONTINUOUS
10
0.6177729133858267
20
0.9322271259842519
11
0.6187947244094488
21
0.932909842519685
0
LINE
8
BLACK
6
CONTINUOUS
10
0.6187947244094488
20
0.932909842519685
11
0.6200000393700787
21
0.9331496062992126
0
LINE
8
BLACK
6
CONTINUOUS
10
0.6200000393700787
20
0.9331496062992126
11
0.6800000393700787
21
0.9331496062992126
0
LINE
8
BLACK
6
CONTINUOUS
10
0.6800000393700787
20
0.9331496062992126
11
0.6812053543307086
21
0.932909842519685
0
LINE
8
BLACK
6
CONTINUOUS
10
0.3276146062992126
20
0.9490455118110236
11
0.3317039763779527
21
0.9471385826771653
0
LINE
8
BLACK
6
CONTINUOUS
10
0.3317039763779527
20
0.9471385826771653
11
0.3348945275590551
21
0.943948031496063
0
LINE
8
BLACK
6
CONTINUOUS
10
0.3348945275590551
20
0.943948031496063
11
0.3368014566929134
21
0.9398586614173228
0
LINE
8
BLACK
6
CONTINUOUS
10
0.3368014566929134
20
0.9398586614173228
11
0.3372441338582677
21
0.936496062992126
0
LINE
8
BLACK
6
CONTINUOUS
10
0.3372441338582677
20
0.936496062992126
11
0.3372441338582677
21
0.9168110236220472
0
LINE
8
BLACK
6
CONTINUOUS
10
0.3372441338582677
20
0.9168110236220472
11
0.3368014566929134
21
0.9134484251968503
0
LINE
8
BLACK
6
CONTINUOUS
10
0.3368014566929134
20
0.9134484251968503
11
0.3348945275590551
21
0.9093590551181102
0
LINE
8
BLACK
6
CONTINUOUS
10
0.3348945275590551
20
0.9093590551181102
11
0.3317039763779527
21
0.9061685039370079
0
LINE
8
BLACK
6
CONTINUOUS
10
0.3317039763779527
20
0.9061685039370079
11
0.3276146062992126
21
0.9042615748031496
0
LINE
8
BLACK
6
CONTINUOUS
10
0.3276146062992126
20
0.9042615748031496
11
0.3242520078740158
21
0.9038188976377952
0
LINE
8
BLACK
6
CONTINUOUS
10
0.3242520078740158
20
0.9038188976377952
11
0.2376378346456693
21
0.9038188976377952
0
LINE
8
BLACK
6
CONTINUOUS
10
0.2376378346456693
20
0.9038188976377952
11
0.2342752362204724
21
0.9042615748031496
0
LINE
8
BLACK
6
CONTINUOUS
10
0.2342752362204724
20
0.9042615748031496
11
0.2301858661417323
21
0.9061685039370079
0
LINE
8
BLACK
6
CONTINUOUS
10
0.2301858661417323
20
0.9061685039370079
11
0.2269953149606299
21
0.9093590551181102
0
LINE
8
BLACK
6
CONTINUOUS
10
0.2269953149606299
20
0.9093590551181102
11
0.2250883858267717
21
0.9134484251968503
0
LINE
8
BLACK
6
CONTINUOUS
10
0.2250883858267717
20
0.9134484251968503
11
0.2246457086614173
21
0.9168110236220472
0
LINE
8
BLACK
6
CONTINUOUS
10
0.2246457086614173
20
0.9168110236220472
11
0.2246457086614173
21
0.936496062992126
0
LINE
8
BLACK
6
CONTINUOUS
10
0.2246457086614173
20
0.936496062992126
11
0.2250883858267717
21
0.9398586614173228
0
LINE
8
BLACK
6
CONTINUOUS
10
0.2250883858267717
20
0.9398586614173228
11
0.2269953149606299
21
0.943948031496063
0
LINE
8
BLACK
6
CONTINUOUS
10
0.2269953149606299
20
0.943948031496063
11
0.2301858661417323
21
0.9471385826771653
0
LINE
8
BLACK
6
CONTINUOUS
10
0.2301858661417323
20
0.9471385826771653
11
0.2342752362204724
21
0.9490455118110236
0
LINE
8
BLACK
6
CONTINUOUS
10
0.2342752362204724
20
0.9490455118110236
11
0.2376378346456693
21
0.9494881889763779
0
LINE
8
BLACK
6
CONTINUOUS
10
0.2376378346456693
20
0.9494881889763779
11
0.3242520078740158
21
0.9494881889763779
0
LINE
8
BLACK
6
CONTINUOUS
10
0.3242520078740158
20
0.9494881889763779
11
0.3276146062992126
21
0.9490455118110236
0
LINE
8
BLACK
6
CONTINUOUS
10
0.9657247637795275
20
0.9490455118110236
11
0.9698141338582676
21
0.9471385826771653
0
LINE
8
BLACK
6
CONTINUOUS
10
0.9698141338582676
20
0.9471385826771653
11
0.9730046850393701
21
0.943948031496063
0
LINE
8
BLACK
6
CONTINUOUS
10
0.9730046850393701
20
0.943948031496063
11
0.9749116141732284
21
0.9398586614173228
0
LINE
8
BLACK
6
CONTINUOUS
10
0.9749116141732284
20
0.9398586614173228
11
0.9753542913385826
21
0.936496062992126
0
LINE
8
BLACK
6
CONTINUOUS
10
0.9753542913385826
20
0.936496062992126
11
0.9753542913385826
21
0.9168110236220472
0
LINE
8
BLACK
6
CONTINUOUS
10
0.9753542913385826
20
0.9168110236220472
11
0.9749116141732284
21
0.9134484251968503
0
LINE
8
BLACK
6
CONTINUOUS
10
0.9749116141732284
20
0.9134484251968503
11
0.9730046850393701
21
0.9093590551181102
0
LINE
8
BLACK
6
CONTINUOUS
10
0.9730046850393701
20
0.9093590551181102
11
0.9698141338582676
21
0.9061685039370079
0
LINE
8
BLACK
6
CONTINUOUS
10
0.9698141338582676
20
0.9061685039370079
11
0.9657247637795275
21
0.9042615748031496
0
LINE
8
BLACK
6
CONTINUOUS
10
0.9657247637795275
20
0.9042615748031496
11
0.9623621653543307
21
0.9038188976377952
0
LINE
8
BLACK
6
CONTINUOUS
10
0.9623621653543307
20
0.9038188976377952
11
0.8757479921259842
21
0.9038188976377952
0
LINE
8
BLACK
6
CONTINUOUS
10
0.8757479921259842
20
0.9038188976377952
11
0.8723853937007874
21
0.9042615748031496
0
LINE
8
BLACK
6
CONTINUOUS
10
0.8723853937007874
20
0.9042615748031496
11
0.8682960236220473
21
0.9061685039370079
0
LINE
8
BLACK
6
CONTINUOUS
10
0.8682960236220473
20
0.9061685039370079
11
0.8651054724409448
21
0.9093590551181102
0
LINE
8
BLACK
6
CONTINUOUS
10
0.8651054724409448
20
0.9093590551181102
11
0.8631985433070866
21
0.9134484251968503
0
LINE
8
BLACK
6
CONTINUOUS
10
0.8631985433070866
20
0.9134484251968503
11
0.8627558661417323
21
0.9168110236220472
0
LINE
8
BLACK
6
CONTINUOUS
10
0.8627558661417323
20
0.9168110236220472
11
0.8627558661417323
21
0.936496062992126
0
LINE
8
BLACK
6
CONTINUOUS
10
0.8627558661417323
20
0.936496062992126
11
0.8631985433070866
21
0.9398586614173228
0
LINE
8
BLACK
6
CONTINUOUS
10
0.8631985433070866
20
0.9398586614173228
11
0.8651054724409448
21
0.943948031496063
0
LINE
8
BLACK
6
CONTINUOUS
10
0.8651054724409448
20
0.943948031496063
11
0.8682960236220473
21
0.9471385826771653
0
LINE
8
BLACK
6
CONTINUOUS
10
0.8682960236220473
20
0.9471385826771653
11
0.8723853937007874
21
0.9490455118110236
0
LINE
8
BLACK
6
CONTINUOUS
10
0.8723853937007874
20
0.9490455118110236
11
0.8757479921259842
21
0.9494881889763779
0
LINE
8
BLACK
6
CONTINUOUS
10
0.8757479921259842
20
0.9494881889763779
11
0.9623621653543307
21
0.9494881889763779
0
LINE
8
BLACK
6
CONTINUOUS
10
0.9623621653543307
20
0.9494881889763779
11
0.9657247637795275
21
0.9490455118110236
0
LINE
8
BLACK
6
CONTINUOUS
10
0.5812053543307086
20
1.032909842519685
11
0.5822271653543307
21
1.0322271259842519
0
LINE
8
BLACK
6
CONTINUOUS
10
0.5822271653543307
20
1.0322271259842519
11
0.5829098818897638
21
1.0312053149606299
0
LINE
8
BLACK
6
CONTINUOUS
10
0.5829098818897638
20
1.0312053149606299
11
0.5831496456692913
21
1.03
0
LINE
8
BLACK
6
CONTINUOUS
10
0.5831496456692913
20
1.03
11
0.5831496456692913
21
0.97
0
LINE
8
BLACK
6
CONTINUOUS
10
0.5831496456692913
20
0.97
11
0.5829098818897638
21
0.9687946850393701
0
LINE
8
BLACK
6
CONTINUOUS
10
0.5829098818897638
20
0.9687946850393701
11
0.5822271653543307
21
0.967772874015748
0
LINE
8
BLACK
6
CONTINUOUS
10
0.5822271653543307
20
0.967772874015748
11
0.5812053543307086
21
0.9670901574803149
0
LINE
8
BLACK
6
CONTINUOUS
10
0.5812053543307086
20
0.9670901574803149
11
0.5800000393700787
21
0.9668503937007874
0
LINE
8
BLACK
6
CONTINUOUS
10
0.5800000393700787
20
0.9668503937007874
11
0.5200000393700788
21
0.9668503937007874
0
LINE
8
BLACK
6
CONTINUOUS
10
0.5200000393700788
20
0.9668503937007874
11
0.5187947244094488
21
0.9670901574803149
0
LINE
8
BLACK
6
CONTINUOUS
10
0.5187947244094488
20
0.9670901574803149
11
0.5177729133858268
21
0.967772874015748
0
LINE
8
BLACK
6
CONTINUOUS
10
0.5177729133858268
20
0.967772874015748
11
0.5170901968503937
21
0.9687946850393701
0
LINE
8
BLACK
6
CONTINUOUS
10
0.5170901968503937
20
0.9687946850393701
11
0.5168504330708661
21
0.97
0
LINE
8
BLACK
6
CONTINUOUS
10
0.5168504330708661
20
0.97
11
0.5168504330708661
21
1.03
0
LINE
8
BLACK
6
CONTINUOUS
10
0.5168504330708661
20
1.03
11
0.5170901968503937
21
1.0312053149606299
0
LINE
8
BLACK
6
CONTINUOUS
10
0.5170901968503937
20
1.0312053149606299
11
0.5177729133858268
21
1.0322271259842519
0
LINE
8
BLACK
6
CONTINUOUS
10
0.5177729133858268
20
1.0322271259842519
11
0.5187947244094488
21
1.032909842519685
0
LINE
8
BLACK
6
CONTINUOUS
10
0.5187947244094488
20
1.032909842519685
11
0.5200000393700788
21
1.0331496062992125
0
LINE
8
BLACK
6
CONTINUOUS
10
0.5200000393700788
20
1.0331496062992125
11
0.5800000393700787
21
1.0331496062992125
0
LINE
8
BLACK
6
CONTINUOUS
10
0.5800000393700787
20
1.0331496062992125
11
0.5812053543307086
21
1.032909842519685
0
LINE
8
BLACK
6
CONTINUOUS
10
0.6812053543307086
20
1.032909842519685
11
0.6822271653543307
21
1.0322271259842519
0
LINE
8
BLACK
6
CONTINUOUS
10
0.6822271653543307
20
1.0322271259842519
11
0.6829098818897638
21
1.0312053149606299
0
LINE
8
BLACK
6
CONTINUOUS
10
0.6829098818897638
20
1.0312053149606299
11
0.6831496456692914
21
1.03
0
LINE
8
BLACK
6
CONTINUOUS
10
0.6831496456692914
20
1.03
11
0.6831496456692914
21
0.97
0
LINE
8
BLACK
6
CONTINUOUS
10
0.6831496456692914
20
0.97
11
0.6829098818897638
21
0.9687946850393701
0
LINE
8
BLACK
6
CONTINUOUS
10
0.6829098818897638
20
0.9687946850393701
11
0.6822271653543307
21
0.967772874015748
0
LINE
8
BLACK
6
CONTINUOUS
10
0.6822271653543307
20
0.967772874015748
11
0.6812053543307086
21
0.9670901574803149
0
LINE
8
BLACK
6
CONTINUOUS
10
0.6812053543307086
20
0.9670901574803149
11
0.6800000393700787
21
0.9668503937007874
0
LINE
8
BLACK
6
CONTINUOUS
10
0.6800000393700787
20
0.9668503937007874
11
0.6200000393700787
21
0.9668503937007874
0
LINE
8
BLACK
6
CONTINUOUS
10
0.6200000393700787
20
0.9668503937007874
11
0.6187947244094488
21
0.9670901574803149
0
LINE
8
BLACK
6
CONTINUOUS
10
0.6187947244094488
20
0.9670901574803149
11
0.6177729133858267
21
0.967772874015748
0
LINE
8
BLACK
6
CONTINUOUS
10
0.6177729133858267
20
0.967772874015748
11
0.6170901968503937
21
0.9687946850393701
0
LINE
8
BLACK
6
CONTINUOUS
10
0.6170901968503937
20
0.9687946850393701
11
0.6168504330708662
21
0.97
0
LINE
8
BLACK
6
CONTINUOUS
10
0.6168504330708662
20
0.97
11
0.6168504330708662
21
1.03
0
LINE
8
BLACK
6
CONTINUOUS
10
0.6168504330708662
20
1.03
11
0.6170901968503937
21
1.0312053149606299
0
LINE
8
BLACK
6
CONTINUOUS
10
0.6170901968503937
20
1.0312053149606299
11
0.6177729133858267
21
1.0322271259842519
0
LINE
8
BLACK
6
CONTINUOUS
10
0.6177729133858267
20
1.0322271259842519
11
0.6187947244094488
21
1.032909842519685
0
LINE
8
BLACK
6
CONTINUOUS
10
0.6187947244094488
20
1.032909842519685
11
0.6200000393700787
21
1.0331496062992125
0
LINE
8
BLACK
6
CONTINUOUS
10
0.6200000393700787
20
1.0331496062992125
11
0.6800000393700787
21
1.0331496062992125
0
LINE
8
BLACK
6
CONTINUOUS
10
0.6800000393700787
20
1.0331496062992125
11
0.6812053543307086
21
1.032909842519685
0
LINE
8
BLACK
6
CONTINUOUS
10
0.3276146062992126
20
1.0977384251968503
11
0.3317039763779527
21
1.095831496062992
0
LINE
8
BLACK
6
CONTINUOUS
10
0.3317039763779527
20
1.095831496062992
11
0.3348945275590551
21
1.0926409448818897
0
LINE
8
BLACK
6
CONTINUOUS
10
0.3348945275590551
20
1.0926409448818897
11
0.3368014566929134
21
1.0885515748031496
0
LINE
8
BLACK
6
CONTINUOUS
10
0.3368014566929134
20
1.0885515748031496
11
0.3372441338582677
21
1.0851889763779528
0
LINE
8
BLACK
6
CONTINUOUS
10
0.3372441338582677
20
1.0851889763779528
11
0.3372441338582677
21
1.065503937007874
0
LINE
8
BLACK
6
CONTINUOUS
10
0.3372441338582677
20
1.065503937007874
11
0.3368014566929134
21
1.0621413385826772
0
LINE
8
BLACK
6
CONTINUOUS
10
0.3368014566929134
20
1.0621413385826772
11
0.3348945275590551
21
1.0580519685039369
0
LINE
8
BLACK
6
CONTINUOUS
10
0.3348945275590551
20
1.0580519685039369
11
0.3317039763779527
21
1.0548614173228346
0
LINE
8
BLACK
6
CONTINUOUS
10
0.3317039763779527
20
1.0548614173228346
11
0.3276146062992126
21
1.0529544881889763
0
LINE
8
BLACK
6
CONTINUOUS
10
0.3276146062992126
20
1.0529544881889763
11
0.3242520078740158
21
1.052511811023622
0
LINE
8
BLACK
6
CONTINUOUS
10
0.3242520078740158
20
1.052511811023622
11
0.2376378346456693
21
1.052511811023622
0
LINE
8
BLACK
6
CONTINUOUS
10
0.2376378346456693
20
1.052511811023622
11
0.2342752362204724
21
1.0529544881889763
0
LINE
8
BLACK
6
CONTINUOUS
10
0.2342752362204724
20
1.0529544881889763
11
0.2301858661417323
21
1.0548614173228346
0
LINE
8
BLACK
6
CONTINUOUS
10
0.2301858661417323
20
1.0548614173228346
11
0.2269953149606299
21
1.0580519685039369
0
LINE
8
BLACK
6
CONTINUOUS
10
0.2269953149606299
20
1.0580519685039369
11
0.2250883858267717
21
1.0621413385826772
0
LINE
8
BLACK
6
CONTINUOUS
10
0.2250883858267717
20
1.0621413385826772
11
0.2246457086614173
21
1.065503937007874
0
LINE
8
BLACK
6
CONTINUOUS
10
0.2246457086614173
20
1.065503937007874
11
0.2246457086614173
21
1.0851889763779528
0
LINE
8
BLACK
6
CONTINUOUS
10
0.2246457086614173
20
1.0851889763779528
11
0.2250883858267717
21
1.0885515748031496
0
LINE
8
BLACK
6
CONTINUOUS
10
0.2250883858267717
20
1.0885515748031496
11
0.2269953149606299
21
1.0926409448818897
0
LINE
8
BLACK
6
CONTINUOUS
10
0.2269953149606299
20
1.0926409448818897
11
0.2301858661417323
21
1.095831496062992
0
LINE
8
BLACK
6
CONTINUOUS
10
0.2301858661417323
20
1.095831496062992
11
0.2342752362204724
21
1.0977384251968503
0
LINE
8
BLACK
6
CONTINUOUS
10
0.2342752362204724
20
1.0977384251968503
11
0.2376378346456693
21
1.0981811023622048
0
LINE
8
BLACK
6
CONTINUOUS
10
0.2376378346456693
20
1.0981811023622048
11
0.3242520078740158
21
1.0981811023622048
0
LINE
8
BLACK
6
CONTINUOUS
10
0.3242520078740158
20
1.0981811023622048
11
0.3276146062992126
21
1.0977384251968503
0
LINE
8
BLACK
6
CONTINUOUS
10
0.9657247637795275
20
1.0977384251968503
11
0.9698141338582676
21
1.095831496062992
0
LINE
8
BLACK
6
CONTINUOUS
10
0.9698141338582676
20
1.095831496062992
11
0.9730046850393701
21
1.0926409448818897
0
LINE
8
BLACK
6
CONTINUOUS
10
0.9730046850393701
20
1.0926409448818897
11
0.9749116141732284
21
1.0885515748031496
0
LINE
8
BLACK
6
CONTINUOUS
10
0.9749116141732284
20
1.0885515748031496
11
0.9753542913385826
21
1.0851889763779528
0
LINE
8
BLACK
6
CONTINUOUS
10
0.9753542913385826
20
1.0851889763779528
11
0.9753542913385826
21
1.065503937007874
0
LINE
8
BLACK
6
CONTINUOUS
10
0.9753542913385826
20
1.065503937007874
11
0.9749116141732284
21
1.0621413385826772
0
LINE
8
BLACK
6
CONTINUOUS
10
0.9749116141732284
20
1.0621413385826772
11
0.9730046850393701
21
1.0580519685039369
0
LINE
8
BLACK
6
CONTINUOUS
10
0.9730046850393701
20
1.0580519685039369
11
0.9698141338582676
21
1.0548614173228346
0
LINE
8
BLACK
6
CONTINUOUS
10
0.9698141338582676
20
1.0548614173228346
11
0.9657247637795275
21
1.0529544881889763
0
LINE
8
BLACK
6
CONTINUOUS
10
0.9657247637795275
20
1.0529544881889763
11
0.9623621653543307
21
1.052511811023622
0
LINE
8
BLACK
6
CONTINUOUS
10
0.9623621653543307
20
1.052511811023622
11
0.8757479921259842
21
1.052511811023622
0
LINE
8
BLACK
6
CONTINUOUS
10
0.8757479921259842
20
1.052511811023622
11
0.8723853937007874
21
1.0529544881889763
0
LINE
8
BLACK
6
CONTINUOUS
10
0.8723853937007874
20
1.0529544881889763
11
0.8682960236220473
21
1.0548614173228346
0
LINE
8
BLACK
6
CONTINUOUS
10
0.8682960236220473
20
1.0548614173228346
11
0.8651054724409448
21
1.0580519685039369
0
LINE
8
BLACK
6
CONTINUOUS
10
0.8651054724409448
20
1.0580519685039369
11
0.8631985433070866
21
1.0621413385826772
0
LINE
8
BLACK
6
CONTINUOUS
10
0.8631985433070866
20
1.0621413385826772
11
0.8627558661417323
21
1.065503937007874
0
LINE
8
BLACK
6
CONTINUOUS
10
0.8627558661417323
20
1.065503937007874
11
0.8627558661417323
21
1.0851889763779528
0
LINE
8
BLACK
6
CONTINUOUS
10
0.8627558661417323
20
1.0851889763779528
11
0.8631985433070866
21
1.0885515748031496
0
LINE
8
BLACK
6
CONTINUOUS
10
0.8631985433070866
20
1.0885515748031496
11
0.8651054724409448
21
1.0926409448818897
0
LINE
8
BLACK
6
CONTINUOUS
10
0.8651054724409448
20
1.0926409448818897
11
0.8682960236220473
21
1.095831496062992
0
LINE
8
BLACK
6
CONTINUOUS
10
0.8682960236220473
20
1.095831496062992
11
0.8723853937007874
21
1.0977384251968503
0
LINE
8
BLACK
6
CONTINUOUS
10
0.8723853937007874
20
1.0977384251968503
11
0.8757479921259842
21
1.0981811023622048
0
LINE
8
BLACK
6
CONTINUOUS
10
0.8757479921259842
20
1.0981811023622048
11
0.9623621653543307
21
1.0981811023622048
0
LINE
8
BLACK
6
CONTINUOUS
10
0.9623621653543307
20
1.0981811023622048
11
0.9657247637795275
21
1.0977384251968503
0
LINE
8
BLACK
6
CONTINUOUS
10
0.5812053543307086
20
1.1329098425196851
11
0.5822271653543307
21
1.132227125984252
0
LINE
8
BLACK
6
CONTINUOUS
10
0.5822271653543307
20
1.132227125984252
11
0.5829098818897638
21
1.1312053149606298
0
LINE
8
BLACK
6
CONTINUOUS
10
0.5829098818897638
20
1.1312053149606298
11
0.5831496456692913
21
1.1299999999999999
0
LINE
8
BLACK
6
CONTINUOUS
10
0.5831496456692913
20
1.1299999999999999
11
0.5831496456692913
21
1.0700000000000001
0
LINE
8
BLACK
6
CONTINUOUS
10
0.5831496456692913
20
1.0700000000000001
11
0.5829098818897638
21
1.0687946850393701
0
LINE
8
BLACK
6
CONTINUOUS
10
0.5829098818897638
20
1.0687946850393701
11
0.5822271653543307
21
1.0677728740157479
0
LINE
8
BLACK
6
CONTINUOUS
10
0.5822271653543307
20
1.0677728740157479
11
0.5812053543307086
21
1.0670901574803149
0
LINE
8
BLACK
6
CONTINUOUS
10
0.5812053543307086
20
1.0670901574803149
11
0.5800000393700787
21
1.0668503937007874
0
LINE
8
BLACK
6
CONTINUOUS
10
0.5800000393700787
20
1.0668503937007874
11
0.5200000393700788
21
1.0668503937007874
0
LINE
8
BLACK
6
CONTINUOUS
10
0.5200000393700788
20
1.0668503937007874
11
0.5187947244094488
21
1.0670901574803149
0
LINE
8
BLACK
6
CONTINUOUS
10
0.5187947244094488
20
1.0670901574803149
11
0.5177729133858268
21
1.0677728740157479
0
LINE
8
BLACK
6
CONTINUOUS
10
0.5177729133858268
20
1.0677728740157479
11
0.5170901968503937
21
1.0687946850393701
0
LINE
8
BLACK
6
CONTINUOUS
10
0.5170901968503937
20
1.0687946850393701
11
0.5168504330708661
21
1.0700000000000001
0
LINE
8
BLACK
6
CONTINUOUS
10
0.5168504330708661
20
1.0700000000000001
11
0.5168504330708661
21
1.1299999999999999
0
LINE
8
BLACK
6
CONTINUOUS
10
0.5168504330708661
20
1.1299999999999999
11
0.5170901968503937
21
1.1312053149606298
0
LINE
8
BLACK
6
CONTINUOUS
10
0.5170901968503937
20
1.1312053149606298
11
0.5177729133858268
21
1.132227125984252
0
LINE
8
BLACK
6
CONTINUOUS
10
0.5177729133858268
20
1.132227125984252
11
0.5187947244094488
21
1.1329098425196851
0
LINE
8
BLACK
6
CONTINUOUS
10
0.5187947244094488
20
1.1329098425196851
11
0.5200000393700788
21
1.1331496062992126
0
LINE
8
BLACK
6
CONTINUOUS
10
0.5200000393700788
20
1.1331496062992126
11
0.5800000393700787
21
1.1331496062992126
0
LINE
8
BLACK
6
CONTINUOUS
10
0.5800000393700787
20
1.1331496062992126
11
0.5812053543307086
21
1.1329098425196851
0
LINE
8
BLACK
6
CONTINUOUS
10
0.6812053543307086
20
1.1329098425196851
11
0.6822271653543307
21
1.132227125984252
0
LINE
8
BLACK
6
CONTINUOUS
10
0.6822271653543307
20
1.132227125984252
11
0.6829098818897638
21
1.1312053149606298
0
LINE
8
BLACK
6
CONTINUOUS
10
0.6829098818897638
20
1.1312053149606298
11
0.6831496456692914
21
1.1299999999999999
0
LINE
8
BLACK
6
CONTINUOUS
10
0.6831496456692914
20
1.1299999999999999
11
0.6831496456692914
21
1.0700000000000001
0
LINE
8
BLACK
6
CONTINUOUS
10
0.6831496456692914
20
1.0700000000000001
11
0.6829098818897638
21
1.0687946850393701
0
LINE
8
BLACK
6
CONTINUOUS
10
0.6829098818897638
20
1.0687946850393701
11
0.6822271653543307
21
1.0677728740157479
0
LINE
8
BLACK
6
CONTINUOUS
10
0.6822271653543307
20
1.0677728740157479
11
0.6812053543307086
21
1.0670901574803149
0
LINE
8
BLACK
6
CONTINUOUS
10
0.6812053543307086
20
1.0670901574803149
11
0.6800000393700787
21
1.0668503937007874
0
LINE
8
BLACK
6
CONTINUOUS
10
0.6800000393700787
20
1.0668503937007874
11
0.6200000393700787
21
1.0668503937007874
0
LINE
8
BLACK
6
CONTINUOUS
10
0.6200000393700787
20
1.0668503937007874
11
0.6187947244094488
21
1.0670901574803149
0
LINE
8
BLACK
6
CONTINUOUS
10
0.6187947244094488
20
1.0670901574803149
11
0.6177729133858267
21
1.0677728740157479
0
LINE
8
BLACK
6
CONTINUOUS
10
0.6177729133858267
20
1.0677728740157479
11
0.6170901968503937
21
1.0687946850393701
0
LINE
8
BLACK
6
CONTINUOUS
10
0.6170901968503937
20
1.0687946850393701
11
0.6168504330708662
21
1.0700000000000001
0
LINE
8
BLACK
6
CONTINUOUS
10
0.6168504330708662
20
1.0700000000000001
11
0.6168504330708662
21
1.1299999999999999
0
LINE
8
BLACK
6
CONTINUOUS
10
0.6168504330708662
20
1.1299999999999999
11
0.6170901968503937
21
1.1312053149606298
0
LINE
8
BLACK
6
CONTINUOUS
10
0.6170901968503937
20
1.1312053149606298
11
0.6177729133858267
21
1.132227125984252
0
LINE
8
BLACK
6
CONTINUOUS
10
0.6177729133858267
20
1.132227125984252
11
0.6187947244094488
21
1.1329098425196851
0
LINE
8
BLACK
6
CONTINUOUS
10
0.6187947244094488
20
1.1329098425196851
11
0.6200000393700787
21
1.1331496062992126
0
LINE
8
BLACK
6
CONTINUOUS
10
0.6200000393700787
20
1.1331496062992126
11
0.6800000393700787
21
1.1331496062992126
0
LINE
8
BLACK
6
CONTINUOUS
10
0.6800000393700787
20
1.1331496062992126
11
0.6812053543307086
21
1.1329098425196851
0
LINE
8
BLACK
6
CONTINUOUS
10
0.4379534645669291
20
1.1624524409448818
11
0.4408911811023622
21
1.1604895669291337
0
LINE
8
BLACK
6
CONTINUOUS
10
0.4408911811023622
20
1.1604895669291337
11
0.4428540551181102
21
1.1575518503937008
0
LINE
8
BLACK
6
CONTINUOUS
10
0.4428540551181102
20
1.1575518503937008
11
0.4435433464566929
21
1.1540866141732282
0
LINE
8
BLACK
6
CONTINUOUS
10
0.4435433464566929
20
1.1540866141732282
11
0.4435433464566929
21
1.142275590551181
0
LINE
8
BLACK
6
CONTINUOUS
10
0.4435433464566929
20
1.142275590551181
11
0.4428540551181102
21
1.1388103543307087
0
LINE
8
BLACK
6
CONTINUOUS
10
0.4428540551181102
20
1.1388103543307087
11
0.4408911811023622
21
1.1358726377952755
0
LINE
8
BLACK
6
CONTINUOUS
10
0.4408911811023622
20
1.1358726377952755
11
0.4379534645669291
21
1.1339097637795275
0
LINE
8
BLACK
6
CONTINUOUS
10
0.4379534645669291
20
1.1339097637795275
11
0.4344882283464567
21
1.1332204724409449
0
LINE
8
BLACK
6
CONTINUOUS
10
0.4344882283464567
20
1.1332204724409449
11
0.3793701181102362
21
1.1332204724409449
0
LINE
8
BLACK
6
CONTINUOUS
10
0.3793701181102362
20
1.1332204724409449
11
0.3759048818897638
21
1.1339097637795275
0
LINE
8
BLACK
6
CONTINUOUS
10
0.3759048818897638
20
1.1339097637795275
11
0.3729671653543307
21
1.1358726377952755
0
LINE
8
BLACK
6
CONTINUOUS
10
0.3729671653543307
20
1.1358726377952755
11
0.3710042913385826
21
1.1388103543307087
0
LINE
8
BLACK
6
CONTINUOUS
10
0.3710042913385826
20
1.1388103543307087
11
0.370315
21
1.142275590551181
0
LINE
8
BLACK
6
CONTINUOUS
10
0.370315
20
1.142275590551181
11
0.370315
21
1.1540866141732282
0
LINE
8
BLACK
6
CONTINUOUS
10
0.370315
20
1.1540866141732282
11
0.3710042913385826
21
1.1575518503937008
0
LINE
8
BLACK
6
CONTINUOUS
10
0.3710042913385826
20
1.1575518503937008
11
0.3729671653543307
21
1.1604895669291337
0
LINE
8
BLACK
6
CONTINUOUS
10
0.3729671653543307
20
1.1604895669291337
11
0.3759048818897638
21
1.1624524409448818
0
LINE
8
BLACK
6
CONTINUOUS
10
0.3759048818897638
20
1.1624524409448818
11
0.3793701181102362
21
1.1631417322834645
0
LINE
8
BLACK
6
CONTINUOUS
10
0.3793701181102362
20
1.1631417322834645
11
0.4344882283464567
21
1.1631417322834645
0
LINE
8
BLACK
6
CONTINUOUS
10
0.4344882283464567
20
1.1631417322834645
11
0.4379534645669291
21
1.1624524409448818
0
LINE
8
BLACK
6
CONTINUOUS
10
0.8240951181102362
20
1.1624524409448818
11
0.8270328346456692
21
1.1604895669291337
0
LINE
8
BLACK
6
CONTINUOUS
10
0.8270328346456692
20
1.1604895669291337
11
0.8289957086614173
21
1.1575518503937008
0
LINE
8
BLACK
6
CONTINUOUS
10
0.8289957086614173
20
1.1575518503937008
11
0.829685
21
1.1540866141732282
0
LINE
8
BLACK
6
CONTINUOUS
10
0.829685
20
1.1540866141732282
11
0.829685
21
1.142275590551181
0
LINE
8
BLACK
6
CONTINUOUS
10
0.829685
20
1.142275590551181
11
0.8289957086614173
21
1.1388103543307087
0
LINE
8
BLACK
6
CONTINUOUS
10
0.8289957086614173
20
1.1388103543307087
11
0.8270328346456692
21
1.1358726377952755
0
LINE
8
BLACK
6
CONTINUOUS
10
0.8270328346456692
20
1.1358726377952755
11
0.8240951181102362
21
1.1339097637795275
0
LINE
8
BLACK
6
CONTINUOUS
10
0.8240951181102362
20
1.1339097637795275
11
0.8206298818897637
21
1.1332204724409449
0
LINE
8
BLACK
6
CONTINUOUS
10
0.8206298818897637
20
1.1332204724409449
11
0.7655117716535433
21
1.1332204724409449
0
LINE
8
BLACK
6
CONTINUOUS
10
0.7655117716535433
20
1.1332204724409449
11
0.7620465354330709
21
1.1339097637795275
0
LINE
8
BLACK
6
CONTINUOUS
10
0.7620465354330709
20
1.1339097637795275
11
0.7591088188976378
21
1.1358726377952755
0
LINE
8
BLACK
6
CONTINUOUS
10
0.7591088188976378
20
1.1358726377952755
11
0.7571459448818898
21
1.1388103543307087
0
LINE
8
BLACK
6
CONTINUOUS
10
0.7571459448818898
20
1.1388103543307087
11
0.756456653543307
21
1.142275590551181
0
LINE
8
BLACK
6
CONTINUOUS
10
0.756456653543307
20
1.142275590551181
11
0.756456653543307
21
1.1540866141732282
0
LINE
8
BLACK
6
CONTINUOUS
10
0.756456653543307
20
1.1540866141732282
11
0.7571459448818898
21
1.1575518503937008
0
LINE
8
BLACK
6
CONTINUOUS
10
0.7571459448818898
20
1.1575518503937008
11
0.7591088188976378
21
1.1604895669291337
0
LINE
8
BLACK
6
CONTINUOUS
10
0.7591088188976378
20
1.1604895669291337
11
0.7620465354330709
21
1.1624524409448818
0
LINE
8
BLACK
6
CONTINUOUS
10
0.7620465354330709
20
1.1624524409448818
11
0.7655117716535433
21
1.1631417322834645
0
LINE
8
BLACK
6
CONTINUOUS
10
0.7655117716535433
20
1.1631417322834645
11
0.8206298818897637
21
1.1631417322834645
0
LINE
8
BLACK
6
CONTINUOUS
10
0.8206298818897637
20
1.1631417322834645
11
0.8240951181102362
21
1.1624524409448818
0
LINE
8
BLACK
6
CONTINUOUS
10
0.5812053543307086
20
1.2329098425196849
11
0.5822271653543307
21
1.2322271259842519
0
LINE
8
BLACK
6
CONTINUOUS
10
0.5822271653543307
20
1.2322271259842519
11
0.5829098818897638
21
1.2312053149606299
0
LINE
8
BLACK
6
CONTINUOUS
10
0.5829098818897638
20
1.2312053149606299
11
0.5831496456692913
21
1.23
0
LINE
8
BLACK
6
CONTINUOUS
10
0.5831496456692913
20
1.23
11
0.5831496456692913
21
1.1699999999999999
0
LINE
8
BLACK
6
CONTINUOUS
10
0.5831496456692913
20
1.1699999999999999
11
0.5829098818897638
21
1.16879468503937
0
LINE
8
BLACK
6
CONTINUOUS
10
0.5829098818897638
20
1.16879468503937
11
0.5822271653543307
21
1.167772874015748
0
LINE
8
BLACK
6
CONTINUOUS
10
0.5822271653543307
20
1.167772874015748
11
0.5812053543307086
21
1.167090157480315
0
LINE
8
BLACK
6
CONTINUOUS
10
0.5812053543307086
20
1.167090157480315
11
0.5800000393700787
21
1.1668503937007875
0
LINE
8
BLACK
6
CONTINUOUS
10
0.5800000393700787
20
1.1668503937007875
11
0.5200000393700788
21
1.1668503937007875
0
LINE
8
BLACK
6
CONTINUOUS
10
0.5200000393700788
20
1.1668503937007875
11
0.5187947244094488
21
1.167090157480315
0
LINE
8
BLACK
6
CONTINUOUS
10
0.5187947244094488
20
1.167090157480315
11
0.5177729133858268
21
1.167772874015748
0
LINE
8
BLACK
6
CONTINUOUS
10
0.5177729133858268
20
1.167772874015748
11
0.5170901968503937
21
1.16879468503937
0
LINE
8
BLACK
6
CONTINUOUS
10
0.5170901968503937
20
1.16879468503937
11
0.5168504330708661
21
1.1699999999999999
0
LINE
8
BLACK
6
CONTINUOUS
10
0.5168504330708661
20
1.1699999999999999
11
0.5168504330708661
21
1.23
0
LINE
8
BLACK
6
CONTINUOUS
10
0.5168504330708661
20
1.23
11
0.5170901968503937
21
1.2312053149606299
0
LINE
8
BLACK
6
CONTINUOUS
10
0.5170901968503937
20
1.2312053149606299
11
0.5177729133858268
21
1.2322271259842519
0
LINE
8
BLACK
6
CONTINUOUS
10
0.5177729133858268
20
1.2322271259842519
11
0.5187947244094488
21
1.2329098425196849
0
LINE
8
BLACK
6
CONTINUOUS
10
0.5187947244094488
20
1.2329098425196849
11
0.5200000393700788
21
1.2331496062992127
0
LINE
8
BLACK
6
CONTINUOUS
10
0.5200000393700788
20
1.2331496062992127
11
0.5800000393700787
21
1.2331496062992127
0
LINE
8
BLACK
6
CONTINUOUS
10
0.5800000393700787
20
1.2331496062992127
11
0.5812053543307086
21
1.2329098425196849
0
LINE
8
BLACK
6
CONTINUOUS
10
0.6812053543307086
20
1.2329098425196849
11
0.6822271653543307
21
1.2322271259842519
0
LINE
8
BLACK
6
CONTINUOUS
10
0.6822271653543307
20
1.2322271259842519
11
0.6829098818897638
21
1.2312053149606299
0
LINE
8
BLACK
6
CONTINUOUS
10
0.6829098818897638
20
1.2312053149606299
11
0.6831496456692914
21
1.23
0
LINE
8
BLACK
6
CONTINUOUS
10
0.6831496456692914
20
1.23
11
0.6831496456692914
21
1.1699999999999999
0
LINE
8
BLACK
6
CONTINUOUS
10
0.6831496456692914
20
1.1699999999999999
11
0.6829098818897638
21
1.16879468503937
0
LINE
8
BLACK
6
CONTINUOUS
10
0.6829098818897638
20
1.16879468503937
11
0.6822271653543307
21
1.167772874015748
0
LINE
8
BLACK
6
CONTINUOUS
10
0.6822271653543307
20
1.167772874015748
11
0.6812053543307086
21
1.167090157480315
0
LINE
8
BLACK
6
CONTINUOUS
10
0.6812053543307086
20
1.167090157480315
11
0.6800000393700787
21
1.1668503937007875
0
LINE
8
BLACK
6
CONTINUOUS
10
0.6800000393700787
20
1.1668503937007875
11
0.6200000393700787
21
1.1668503937007875
0
LINE
8
BLACK
6
CONTINUOUS
10
0.6200000393700787
20
1.1668503937007875
11
0.6187947244094488
21
1.167090157480315
0
LINE
8
BLACK
6
CONTINUOUS
10
0.6187947244094488
20
1.167090157480315
11
0.6177729133858267
21
1.167772874015748
0
LINE
8
BLACK
6
CONTINUOUS
10
0.6177729133858267
20
1.167772874015748
11
0.6170901968503937
21
1.16879468503937
0
LINE
8
BLACK
6
CONTINUOUS
10
0.6170901968503937
20
1.16879468503937
11
0.6168504330708662
21
1.1699999999999999
0
LINE
8
BLACK
6
CONTINUOUS
10
0.6168504330708662
20
1.1699999999999999
11
0.6168504330708662
21
1.23
0
LINE
8
BLACK
6
CONTINUOUS
10
0.6168504330708662
20
1.23
11
0.6170901968503937
21
1.2312053149606299
0
LINE
8
BLACK
6
CONTINUOUS
10
0.6170901968503937
20
1.2312053149606299
11
0.6177729133858267
21
1.2322271259842519
0
LINE
8
BLACK
6
CONTINUOUS
10
0.6177729133858267
20
1.2322271259842519
11
0.6187947244094488
21
1.2329098425196849
0
LINE
8
BLACK
6
CONTINUOUS
10
0.6187947244094488
20
1.2329098425196849
11
0.6200000393700787
21
1.2331496062992127
0
LINE
8
BLACK
6
CONTINUOUS
10
0.6200000393700787
20
1.2331496062992127
11
0.6800000393700787
21
1.2331496062992127
0
LINE
8
BLACK
6
CONTINUOUS
10
0.6800000393700787
20
1.2331496062992127
11
0.6812053543307086
21
1.2329098425196849
0
LINE
8
BLACK
6
CONTINUOUS
10
0.4379534645669291
20
1.2116650393700787
11
0.4408911811023622
21
1.2097021653543307
0
LINE
8
BLACK
6
CONTINUOUS
10
0.4408911811023622
20
1.2097021653543307
11
0.4428540551181102
21
1.2067644488188976
0
LINE
8
BLACK
6
CONTINUOUS
10
0.4428540551181102
20
1.2067644488188976
11
0.4435433464566929
21
1.2032992125984252
0
LINE
8
BLACK
6
CONTINUOUS
10
0.4435433464566929
20
1.2032992125984252
11
0.4435433464566929
21
1.191488188976378
0
LINE
8
BLACK
6
CONTINUOUS
10
0.4435433464566929
20
1.191488188976378
11
0.4428540551181102
21
1.1880229527559054
0
LINE
8
BLACK
6
CONTINUOUS
10
0.4428540551181102
20
1.1880229527559054
11
0.4408911811023622
21
1.1850852362204725
0
LINE
8
BLACK
6
CONTINUOUS
10
0.4408911811023622
20
1.1850852362204725
11
0.4379534645669291
21
1.1831223622047244
0
LINE
8
BLACK
6
CONTINUOUS
10
0.4379534645669291
20
1.1831223622047244
11
0.4344882283464567
21
1.1824330708661417
0
LINE
8
BLACK
6
CONTINUOUS
10
0.4344882283464567
20
1.1824330708661417
11
0.3793701181102362
21
1.1824330708661417
0
LINE
8
BLACK
6
CONTINUOUS
10
0.3793701181102362
20
1.1824330708661417
11
0.3759048818897638
21
1.1831223622047244
0
LINE
8
BLACK
6
CONTINUOUS
10
0.3759048818897638
20
1.1831223622047244
11
0.3729671653543307
21
1.1850852362204725
0
LINE
8
BLACK
6
CONTINUOUS
10
0.3729671653543307
20
1.1850852362204725
11
0.3710042913385826
21
1.1880229527559054
0
LINE
8
BLACK
6
CONTINUOUS
10
0.3710042913385826
20
1.1880229527559054
11
0.370315
21
1.191488188976378
0
LINE
8
BLACK
6
CONTINUOUS
10
0.370315
20
1.191488188976378
11
0.370315
21
1.2032992125984252
0
LINE
8
BLACK
6
CONTINUOUS
10
0.370315
20
1.2032992125984252
11
0.3710042913385826
21
1.2067644488188976
0
LINE
8
BLACK
6
CONTINUOUS
10
0.3710042913385826
20
1.2067644488188976
11
0.3729671653543307
21
1.2097021653543307
0
LINE
8
BLACK
6
CONTINUOUS
10
0.3729671653543307
20
1.2097021653543307
11
0.3759048818897638
21
1.2116650393700787
0
LINE
8
BLACK
6
CONTINUOUS
10
0.3759048818897638
20
1.2116650393700787
11
0.3793701181102362
21
1.2123543307086615
0
LINE
8
BLACK
6
CONTINUOUS
10
0.3793701181102362
20
1.2123543307086615
11
0.4344882283464567
21
1.2123543307086615
0
LINE
8
BLACK
6
CONTINUOUS
10
0.4344882283464567
20
1.2123543307086615
11
0.4379534645669291
21
1.2116650393700787
0
LINE
8
BLACK
6
CONTINUOUS
10
0.8240951181102362
20
1.2116650393700787
11
0.8270328346456692
21
1.2097021653543307
0
LINE
8
BLACK
6
CONTINUOUS
10
0.8270328346456692
20
1.2097021653543307
11
0.8289957086614173
21
1.2067644488188976
0
LINE
8
BLACK
6
CONTINUOUS
10
0.8289957086614173
20
1.2067644488188976
11
0.829685
21
1.2032992125984252
0
LINE
8
BLACK
6
CONTINUOUS
10
0.829685
20
1.2032992125984252
11
0.829685
21
1.191488188976378
0
LINE
8
BLACK
6
CONTINUOUS
10
0.829685
20
1.191488188976378
11
0.8289957086614173
21
1.1880229527559054
0
LINE
8
BLACK
6
CONTINUOUS
10
0.8289957086614173
20
1.1880229527559054
11
0.8270328346456692
21
1.1850852362204725
0
LINE
8
BLACK
6
CONTINUOUS
10
0.8270328346456692
20
1.1850852362204725
11
0.8240951181102362
21
1.1831223622047244
0
LINE
8
BLACK
6
CONTINUOUS
10
0.8240951181102362
20
1.1831223622047244
11
0.8206298818897637
21
1.1824330708661417
0
LINE
8
BLACK
6
CONTINUOUS
10
0.8206298818897637
20
1.1824330708661417
11
0.7655117716535433
21
1.1824330708661417
0
LINE
8
BLACK
6
CONTINUOUS
10
0.7655117716535433
20
1.1824330708661417
11
0.7620465354330709
21
1.1831223622047244
0
LINE
8
BLACK
6
CONTINUOUS
10
0.7620465354330709
20
1.1831223622047244
11
0.7591088188976378
21
1.1850852362204725
0
LINE
8
BLACK
6
CONTINUOUS
10
0.7591088188976378
20
1.1850852362204725
11
0.7571459448818898
21
1.1880229527559054
0
LINE
8
BLACK
6
CONTINUOUS
10
0.7571459448818898
20
1.1880229527559054
11
0.756456653543307
21
1.191488188976378
0
LINE
8
BLACK
6
CONTINUOUS
10
0.756456653543307
20
1.191488188976378
11
0.756456653543307
21
1.2032992125984252
0
LINE
8
BLACK
6
CONTINUOUS
10
0.756456653543307
20
1.2032992125984252
11
0.7571459448818898
21
1.2067644488188976
0
LINE
8
BLACK
6
CONTINUOUS
10
0.7571459448818898
20
1.2067644488188976
11
0.7591088188976378
21
1.2097021653543307
0
LINE
8
BLACK
6
CONTINUOUS
10
0.7591088188976378
20
1.2097021653543307
11
0.7620465354330709
21
1.2116650393700787
0
LINE
8
BLACK
6
CONTINUOUS
10
0.7620465354330709
20
1.2116650393700787
11
0.7655117716535433
21
1.2123543307086615
0
LINE
8
BLACK
6
CONTINUOUS
10
0.7655117716535433
20
1.2123543307086615
11
0.8206298818897637
21
1.2123543307086615
0
LINE
8
BLACK
6
CONTINUOUS
10
0.8206298818897637
20
1.2123543307086615
11
0.8240951181102362
21
1.2116650393700787
0
LINE
8
BLACK
6
CONTINUOUS
10
0.4379534645669291
20
1.2608776377952755
11
0.4408911811023622
21
1.2589147637795275
0
LINE
8
BLACK
6
CONTINUOUS
10
0.4408911811023622
20
1.2589147637795275
11
0.4428540551181102
21
1.2559770472440945
0
LINE
8
BLACK
6
CONTINUOUS
10
0.4428540551181102
20
1.2559770472440945
11
0.4435433464566929
21
1.252511811023622
0
LINE
8
BLACK
6
CONTINUOUS
10
0.4435433464566929
20
1.252511811023622
11
0.4435433464566929
21
1.2407007874015747
0
LINE
8
BLACK
6
CONTINUOUS
10
0.4435433464566929
20
1.2407007874015747
11
0.4428540551181102
21
1.2372355511811024
0
LINE
8
BLACK
6
CONTINUOUS
10
0.4428540551181102
20
1.2372355511811024
11
0.4408911811023622
21
1.2342978346456692
0
LINE
8
BLACK
6
CONTINUOUS
10
0.4408911811023622
20
1.2342978346456692
11
0.4379534645669291
21
1.2323349606299212
0
LINE
8
BLACK
6
CONTINUOUS
10
0.4379534645669291
20
1.2323349606299212
11
0.4344882283464567
21
1.2316456692913385
0
LINE
8
BLACK
6
CONTINUOUS
10
0.4344882283464567
20
1.2316456692913385
11
0.3793701181102362
21
1.2316456692913385
0
LINE
8
BLACK
6
CONTINUOUS
10
0.3793701181102362
20
1.2316456692913385
11
0.3759048818897638
21
1.2323349606299212
0
LINE
8
BLACK
6
CONTINUOUS
10
0.3759048818897638
20
1.2323349606299212
11
0.3729671653543307
21
1.2342978346456692
0
LINE
8
BLACK
6
CONTINUOUS
10
0.3729671653543307
20
1.2342978346456692
11
0.3710042913385826
21
1.2372355511811024
0
LINE
8
BLACK
6
CONTINUOUS
10
0.3710042913385826
20
1.2372355511811024
11
0.370315
21
1.2407007874015747
0
LINE
8
BLACK
6
CONTINUOUS
10
0.370315
20
1.2407007874015747
11
0.370315
21
1.252511811023622
0
LINE
8
BLACK
6
CONTINUOUS
10
0.370315
20
1.252511811023622
11
0.3710042913385826
21
1.2559770472440945
0
LINE
8
BLACK
6
CONTINUOUS
10
0.3710042913385826
20
1.2559770472440945
11
0.3729671653543307
21
1.2589147637795275
0
LINE
8
BLACK
6
CONTINUOUS
10
0.3729671653543307
20
1.2589147637795275
11
0.3759048818897638
21
1.2608776377952755
0
LINE
8
BLACK
6
CONTINUOUS
10
0.3759048818897638
20
1.2608776377952755
11
0.3793701181102362
21
1.2615669291338583
0
LINE
8
BLACK
6
CONTINUOUS
10
0.3793701181102362
20
1.2615669291338583
11
0.4344882283464567
21
1.2615669291338583
0
LINE
8
BLACK
6
CONTINUOUS
10
0.4344882283464567
20
1.2615669291338583
11
0.4379534645669291
21
1.2608776377952755
0
LINE
8
BLACK
6
CONTINUOUS
10
0.8240951181102362
20
1.2608776377952755
11
0.8270328346456692
21
1.2589147637795275
0
LINE
8
BLACK
6
CONTINUOUS
10
0.8270328346456692
20
1.2589147637795275
11
0.8289957086614173
21
1.2559770472440945
0
LINE
8
BLACK
6
CONTINUOUS
10
0.8289957086614173
20
1.2559770472440945
11
0.829685
21
1.252511811023622
0
LINE
8
BLACK
6
CONTINUOUS
10
0.829685
20
1.252511811023622
11
0.829685
21
1.2407007874015747
0
LINE
8
BLACK
6
CONTINUOUS
10
0.829685
20
1.2407007874015747
11
0.8289957086614173
21
1.2372355511811024
0
LINE
8
BLACK
6
CONTINUOUS
10
0.8289957086614173
20
1.2372355511811024
11
0.8270328346456692
21
1.2342978346456692
0
LINE
8
BLACK
6
CONTINUOUS
10
0.8270328346456692
20
1.2342978346456692
11
0.8240951181102362
21
1.2323349606299212
0
LINE
8
BLACK
6
CONTINUOUS
10
0.8240951181102362
20
1.2323349606299212
11
0.8206298818897637
21
1.2316456692913385
0
LINE
8
BLACK
6
CONTINUOUS
10
0.8206298818897637
20
1.2316456692913385
11
0.7655117716535433
21
1.2316456692913385
0
LINE
8
BLACK
6
CONTINUOUS
10
0.7655117716535433
20
1.2316456692913385
11
0.7620465354330709
21
1.2323349606299212
0
LINE
8
BLACK
6
CONTINUOUS
10
0.7620465354330709
20
1.2323349606299212
11
0.7591088188976378
21
1.2342978346456692
0
LINE
8
BLACK
6
CONTINUOUS
10
0.7591088188976378
20
1.2342978346456692
11
0.7571459448818898
21
1.2372355511811024
0
LINE
8
BLACK
6
CONTINUOUS
10
0.7571459448818898
20
1.2372355511811024
11
0.756456653543307
21
1.2407007874015747
0
LINE
8
BLACK
6
CONTINUOUS
10
0.756456653543307
20
1.2407007874015747
11
0.756456653543307
21
1.252511811023622
0
LINE
8
BLACK
6
CONTINUOUS
10
0.756456653543307
20
1.252511811023622
11
0.7571459448818898
21
1.2559770472440945
0
LINE
8
BLACK
6
CONTINUOUS
10
0.7571459448818898
20
1.2559770472440945
11
0.7591088188976378
21
1.2589147637795275
0
LINE
8
BLACK
6
CONTINUOUS
10
0.7591088188976378
20
1.2589147637795275
11
0.7620465354330709
21
1.2608776377952755
0
LINE
8
BLACK
6
CONTINUOUS
10
0.7620465354330709
20
1.2608776377952755
11
0.7655117716535433
21
1.2615669291338583
0
LINE
8
BLACK
6
CONTINUOUS
10
0.7655117716535433
20
1.2615669291338583
11
0.8206298818897637
21
1.2615669291338583
0
LINE
8
BLACK
6
CONTINUOUS
10
0.8206298818897637
20
1.2615669291338583
11
0.8240951181102362
21
1.2608776377952755
0
LINE
8
BLACK
6
CONTINUOUS
10
0.4379534645669291
20
1.3100902362204725
11
0.4408911811023622
21
1.3081273622047245
0
LINE
8
BLACK
6
CONTINUOUS
10
0.4408911811023622
20
1.3081273622047245
11
0.4428540551181102
21
1.3051896456692913
0
LINE
8
BLACK
6
CONTINUOUS
10
0.4428540551181102
20
1.3051896456692913
11
0.4435433464566929
21
1.301724409448819
0
LINE
8
BLACK
6
CONTINUOUS
10
0.4435433464566929
20
1.301724409448819
11
0.4435433464566929
21
1.2899133858267717
0
LINE
8
BLACK
6
CONTINUOUS
10
0.4435433464566929
20
1.2899133858267717
11
0.4428540551181102
21
1.2864481496062992
0
LINE
8
BLACK
6
CONTINUOUS
10
0.4428540551181102
20
1.2864481496062992
11
0.4408911811023622
21
1.2835104330708662
0
LINE
8
BLACK
6
CONTINUOUS
10
0.4408911811023622
20
1.2835104330708662
11
0.4379534645669291
21
1.2815475590551182
0
LINE
8
BLACK
6
CONTINUOUS
10
0.4379534645669291
20
1.2815475590551182
11
0.4344882283464567
21
1.2808582677165354
0
LINE
8
BLACK
6
CONTINUOUS
10
0.4344882283464567
20
1.2808582677165354
11
0.3793701181102362
21
1.2808582677165354
0
LINE
8
BLACK
6
CONTINUOUS
10
0.3793701181102362
20
1.2808582677165354
11
0.3759048818897638
21
1.2815475590551182
0
LINE
8
BLACK
6
CONTINUOUS
10
0.3759048818897638
20
1.2815475590551182
11
0.3729671653543307
21
1.2835104330708662
0
LINE
8
BLACK
6
CONTINUOUS
10
0.3729671653543307
20
1.2835104330708662
11
0.3710042913385826
21
1.2864481496062992
0
LINE
8
BLACK
6
CONTINUOUS
10
0.3710042913385826
20
1.2864481496062992
11
0.370315
21
1.2899133858267717
0
LINE
8
BLACK
6
CONTINUOUS
10
0.370315
20
1.2899133858267717
11
0.370315
21
1.301724409448819
0
LINE
8
BLACK
6
CONTINUOUS
10
0.370315
20
1.301724409448819
11
0.3710042913385826
21
1.3051896456692913
0
LINE
8
BLACK
6
CONTINUOUS
10
0.3710042913385826
20
1.3051896456692913
11
0.3729671653543307
21
1.3081273622047245
0
LINE
8
BLACK
6
CONTINUOUS
10
0.3729671653543307
20
1.3081273622047245
11
0.3759048818897638
21
1.3100902362204725
0
LINE
8
BLACK
6
CONTINUOUS
10
0.3759048818897638
20
1.3100902362204725
11
0.3793701181102362
21
1.310779527559055
0
LINE
8
BLACK
6
CONTINUOUS
10
0.3793701181102362
20
1.310779527559055
11
0.4344882283464567
21
1.310779527559055
0
LINE
8
BLACK
6
CONTINUOUS
10
0.4344882283464567
20
1.310779527559055
11
0.4379534645669291
21
1.3100902362204725
0
LINE
8
BLACK
6
CONTINUOUS
10
0.8240951181102362
20
1.3100902362204725
11
0.8270328346456692
21
1.3081273622047245
0
LINE
8
BLACK
6
CONTINUOUS
10
0.8270328346456692
20
1.3081273622047245
11
0.8289957086614173
21
1.3051896456692913
0
LINE
8
BLACK
6
CONTINUOUS
10
0.8289957086614173
20
1.3051896456692913
11
0.829685
21
1.301724409448819
0
LINE
8
BLACK
6
CONTINUOUS
10
0.829685
20
1.301724409448819
11
0.829685
21
1.2899133858267717
0
LINE
8
BLACK
6
CONTINUOUS
10
0.829685
20
1.2899133858267717
11
0.8289957086614173
21
1.2864481496062992
0
LINE
8
BLACK
6
CONTINUOUS
10
0.8289957086614173
20
1.2864481496062992
11
0.8270328346456692
21
1.2835104330708662
0
LINE
8
BLACK
6
CONTINUOUS
10
0.8270328346456692
20
1.2835104330708662
11
0.8240951181102362
21
1.2815475590551182
0
LINE
8
BLACK
6
CONTINUOUS
10
0.8240951181102362
20
1.2815475590551182
11
0.8206298818897637
21
1.2808582677165354
0
LINE
8
BLACK
6
CONTINUOUS
10
0.8206298818897637
20
1.2808582677165354
11
0.7655117716535433
21
1.2808582677165354
0
LINE
8
BLACK
6
CONTINUOUS
10
0.7655117716535433
20
1.2808582677165354
11
0.7620465354330709
21
1.2815475590551182
0
LINE
8
BLACK
6
CONTINUOUS
10
0.7620465354330709
20
1.2815475590551182
11
0.7591088188976378
21
1.2835104330708662
0
LINE
8
BLACK
6
CONTINUOUS
10
0.7591088188976378
20
1.2835104330708662
11
0.7571459448818898
21
1.2864481496062992
0
LINE
8
BLACK
6
CONTINUOUS
10
0.7571459448818898
20
1.2864481496062992
11
0.756456653543307
21
1.2899133858267717
0
LINE
8
BLACK
6
CONTINUOUS
10
0.756456653543307
20
1.2899133858267717
11
0.756456653543307
21
1.301724409448819
0
LINE
8
BLACK
6
CONTINUOUS
10
0.756456653543307
20
1.301724409448819
11
0.7571459448818898
21
1.3051896456692913
0
LINE
8
BLACK
6
CONTINUOUS
10
0.7571459448818898
20
1.3051896456692913
11
0.7591088188976378
21
1.3081273622047245
0
LINE
8
BLACK
6
CONTINUOUS
10
0.7591088188976378
20
1.3081273622047245
11
0.7620465354330709
21
1.3100902362204725
0
LINE
8
BLACK
6
CONTINUOUS
10
0.7620465354330709
20
1.3100902362204725
11
0.7655117716535433
21
1.310779527559055
0
LINE
8
BLACK
6
CONTINUOUS
10
0.7655117716535433
20
1.310779527559055
11
0.8206298818897637
21
1.310779527559055
0
LINE
8
BLACK
6
CONTINUOUS
10
0.8206298818897637
20
1.310779527559055
11
0.8240951181102362
21
1.3100902362204725
0
LINE
8
BLACK
6
CONTINUOUS
10
0.3276146062992126
20
1.3910455118110236
11
0.3317039763779527
21
1.3891385826771654
0
LINE
8
BLACK
6
CONTINUOUS
10
0.3317039763779527
20
1.3891385826771654
11
0.3348945275590551
21
1.385948031496063
0
LINE
8
BLACK
6
CONTINUOUS
10
0.3348945275590551
20
1.385948031496063
11
0.3368014566929134
21
1.3818586614173227
0
LINE
8
BLACK
6
CONTINUOUS
10
0.3368014566929134
20
1.3818586614173227
11
0.3372441338582677
21
1.3784960629921259
0
LINE
8
BLACK
6
CONTINUOUS
10
0.3372441338582677
20
1.3784960629921259
11
0.3372441338582677
21
1.3588110236220472
0
LINE
8
BLACK
6
CONTINUOUS
10
0.3372441338582677
20
1.3588110236220472
11
0.3368014566929134
21
1.3554484251968504
0
LINE
8
BLACK
6
CONTINUOUS
10
0.3368014566929134
20
1.3554484251968504
11
0.3348945275590551
21
1.3513590551181103
0
LINE
8
BLACK
6
CONTINUOUS
10
0.3348945275590551
20
1.3513590551181103
11
0.3317039763779527
21
1.3481685039370079
0
LINE
8
BLACK
6
CONTINUOUS
10
0.3317039763779527
20
1.3481685039370079
11
0.3276146062992126
21
1.3462615748031497
0
LINE
8
BLACK
6
CONTINUOUS
10
0.3276146062992126
20
1.3462615748031497
11
0.3242520078740158
21
1.3458188976377952
0
LINE
8
BLACK
6
CONTINUOUS
10
0.3242520078740158
20
1.3458188976377952
11
0.2376378346456693
21
1.3458188976377952
0
LINE
8
BLACK
6
CONTINUOUS
10
0.2376378346456693
20
1.3458188976377952
11
0.2342752362204724
21
1.3462615748031497
0
LINE
8
BLACK
6
CONTINUOUS
10
0.2342752362204724
20
1.3462615748031497
11
0.2301858661417323
21
1.3481685039370079
0
LINE
8
BLACK
6
CONTINUOUS
10
0.2301858661417323
20
1.3481685039370079
11
0.2269953149606299
21
1.3513590551181103
0
LINE
8
BLACK
6
CONTINUOUS
10
0.2269953149606299
20
1.3513590551181103
11
0.2250883858267717
21
1.3554484251968504
0
LINE
8
BLACK
6
CONTINUOUS
10
0.2250883858267717
20
1.3554484251968504
11
0.2246457086614173
21
1.3588110236220472
0
LINE
8
BLACK
6
CONTINUOUS
10
0.2246457086614173
20
1.3588110236220472
11
0.2246457086614173
21
1.3784960629921259
0
LINE
8
BLACK
6
CONTINUOUS
10
0.2246457086614173
20
1.3784960629921259
11
0.2250883858267717
21
1.3818586614173227
0
LINE
8
BLACK
6
CONTINUOUS
10
0.2250883858267717
20
1.3818586614173227
11
0.2269953149606299
21
1.385948031496063
0
LINE
8
BLACK
6
CONTINUOUS
10
0.2269953149606299
20
1.385948031496063
11
0.2301858661417323
21
1.3891385826771654
0
LINE
8
BLACK
6
CONTINUOUS
10
0.2301858661417323
20
1.3891385826771654
11
0.2342752362204724
21
1.3910455118110236
0
LINE
8
BLACK
6
CONTINUOUS
10
0.2342752362204724
20
1.3910455118110236
11
0.2376378346456693
21
1.3914881889763779
0
LINE
8
BLACK
6
CONTINUOUS
10
0.2376378346456693
20
1.3914881889763779
11
0.3242520078740158
21
1.3914881889763779
0
LINE
8
BLACK
6
CONTINUOUS
10
0.3242520078740158
20
1.3914881889763779
11
0.3276146062992126
21
1.3910455118110236
0
LINE
8
BLACK
6
CONTINUOUS
10
0.9657247637795275
20
1.3910455118110236
11
0.9698141338582676
21
1.3891385826771654
0
LINE
8
BLACK
6
CONTINUOUS
10
0.9698141338582676
20
1.3891385826771654
11
0.9730046850393701
21
1.385948031496063
0
LINE
8
BLACK
6
CONTINUOUS
10
0.9730046850393701
20
1.385948031496063
11
0.9749116141732284
21
1.3818586614173227
0
LINE
8
BLACK
6
CONTINUOUS
10
0.9749116141732284
20
1.3818586614173227
11
0.9753542913385826
21
1.3784960629921259
0
LINE
8
BLACK
6
CONTINUOUS
10
0.9753542913385826
20
1.3784960629921259
11
0.9753542913385826
21
1.3588110236220472
0
LINE
8
BLACK
6
CONTINUOUS
10
0.9753542913385826
20
1.3588110236220472
11
0.9749116141732284
21
1.3554484251968504
0
LINE
8
BLACK
6
CONTINUOUS
10
0.9749116141732284
20
1.3554484251968504
11
0.9730046850393701
21
1.3513590551181103
0
LINE
8
BLACK
6
CONTINUOUS
10
0.9730046850393701
20
1.3513590551181103
11
0.9698141338582676
21
1.3481685039370079
0
LINE
8
BLACK
6
CONTINUOUS
10
0.9698141338582676
20
1.3481685039370079
11
0.9657247637795275
21
1.3462615748031497
0
LINE
8
BLACK
6
CONTINUOUS
10
0.9657247637795275
20
1.3462615748031497
11
0.9623621653543307
21
1.3458188976377952
0
LINE
8
BLACK
6
CONTINUOUS
10
0.9623621653543307
20
1.3458188976377952
11
0.8757479921259842
21
1.3458188976377952
0
LINE
8
BLACK
6
CONTINUOUS
10
0.8757479921259842
20
1.3458188976377952
11
0.8723853937007874
21
1.3462615748031497
0
LINE
8
BLACK
6
CONTINUOUS
10
0.8723853937007874
20
1.3462615748031497
11
0.8682960236220473
21
1.3481685039370079
0
LINE
8
BLACK
6
CONTINUOUS
10
0.8682960236220473
20
1.3481685039370079
11
0.8651054724409448
21
1.3513590551181103
0
LINE
8
BLACK
6
CONTINUOUS
10
0.8651054724409448
20
1.3513590551181103
11
0.8631985433070866
21
1.3554484251968504
0
LINE
8
BLACK
6
CONTINUOUS
10
0.8631985433070866
20
1.3554484251968504
11
0.8627558661417323
21
1.3588110236220472
0
LINE
8
BLACK
6
CONTINUOUS
10
0.8627558661417323
20
1.3588110236220472
11
0.8627558661417323
21
1.3784960629921259
0
LINE
8
BLACK
6
CONTINUOUS
10
0.8627558661417323
20
1.3784960629921259
11
0.8631985433070866
21
1.3818586614173227
0
LINE
8
BLACK
6
CONTINUOUS
10
0.8631985433070866
20
1.3818586614173227
11
0.8651054724409448
21
1.385948031496063
0
LINE
8
BLACK
6
CONTINUOUS
10
0.8651054724409448
20
1.385948031496063
11
0.8682960236220473
21
1.3891385826771654
0
LINE
8
BLACK
6
CONTINUOUS
10
0.8682960236220473
20
1.3891385826771654
11
0.8723853937007874
21
1.3910455118110236
0
LINE
8
BLACK
6
CONTINUOUS
10
0.8723853937007874
20
1.3910455118110236
11
0.8757479921259842
21
1.3914881889763779
0
LINE
8
BLACK
6
CONTINUOUS
10
0.8757479921259842
20
1.3914881889763779
11
0.9623621653543307
21
1.3914881889763779
0
LINE
8
BLACK
6
CONTINUOUS
10
0.9623621653543307
20
1.3914881889763779
11
0.9657247637795275
21
1.3910455118110236
0
LINE
8
BLACK
6
CONTINUOUS
10
0.4135768503937008
20
1.7204974015748031
11
0.426982874015748
21
1.7182196062992126
0
LINE
8
BLACK
6
CONTINUOUS
10
0.426982874015748
20
1.7182196062992126
11
0.4400496456692913
21
1.7144551574803149
0
LINE
8
BLACK
6
CONTINUOUS
10
0.4400496456692913
20
1.7144551574803149
11
0.4526127165354331
21
1.7092513385826771
0
LINE
8
BLACK
6
CONTINUOUS
10
0.4526127165354331
20
1.7092513385826771
11
0.4645141732283464
21
1.7026736614173228
0
LINE
8
BLACK
6
CONTINUOUS
10
0.4645141732283464
20
1.7026736614173228
11
0.4756043307086614
21
1.6948047637795276
0
LINE
8
BLACK
6
CONTINUOUS
10
0.4756043307086614
20
1.6948047637795276
11
0.4857437007874016
21
1.6857436614173229
0
LINE
8
BLACK
6
CONTINUOUS
10
0.4857437007874016
20
1.6857436614173229
11
0.4948048031496063
21
1.6756042913385827
0
LINE
8
BLACK
6
CONTINUOUS
10
0.4948048031496063
20
1.6756042913385827
11
0.5026737007874016
21
1.6645141338582676
0
LINE
8
BLACK
6
CONTINUOUS
10
0.5026737007874016
20
1.6645141338582676
11
0.5092513779527559
21
1.6526126771653542
0
LINE
8
BLACK
6
CONTINUOUS
10
0.5092513779527559
20
1.6526126771653542
11
0.5144551968503936
21
1.6400496062992125
0
LINE
8
BLACK
6
CONTINUOUS
10
0.5144551968503936
20
1.6400496062992125
11
0.5182196456692914
21
1.6269828346456692
0
LINE
8
BLACK
6
CONTINUOUS
10
0.5182196456692914
20
1.6269828346456692
11
0.5204974409448819
21
1.6135768110236219
0
LINE
8
BLACK
6
CONTINUOUS
10
0.5204974409448819
20
1.6135768110236219
11
0.5212598818897638
21
1.5999999999999999
0
LINE
8
BLACK
6
CONTINUOUS
10
0.5212598818897638
20
1.5999999999999999
11
0.5204974409448819
21
1.586423188976378
0
LINE
8
BLACK
6
CONTINUOUS
10
0.5204974409448819
20
1.586423188976378
11
0.5182196456692914
21
1.5730171653543308
0
LINE
8
BLACK
6
CONTINUOUS
10
0.5182196456692914
20
1.5730171653543308
11
0.5144551968503936
21
1.5599503937007875
0
LINE
8
BLACK
6
CONTINUOUS
10
0.5144551968503936
20
1.5599503937007875
11
0.5092513779527559
21
1.5473873228346455
0
LINE
8
BLACK
6
CONTINUOUS
10
0.5092513779527559
20
1.5473873228346455
11
0.5026737007874016
21
1.5354858661417323
0
LINE
8
BLACK
6
CONTINUOUS
10
0.5026737007874016
20
1.5354858661417323
11
0.4948048031496063
21
1.5243957086614173
0
LINE
8
BLACK
6
CONTINUOUS
10
0.4948048031496063
20
1.5243957086614173
11
0.4857437007874016
21
1.5142563385826771
0
LINE
8
BLACK
6
CONTINUOUS
10
0.4857437007874016
20
1.5142563385826771
11
0.4756043307086614
21
1.5051952362204724
0
LINE
8
BLACK
6
CONTINUOUS
10
0.4756043307086614
20
1.5051952362204724
11
0.4645141732283464
21
1.4973263385826772
0
LINE
8
BLACK
6
CONTINUOUS
10
0.4645141732283464
20
1.4973263385826772
11
0.4526127165354331
21
1.4907486614173229
0
LINE
8
BLACK
6
CONTINUOUS
10
0.4526127165354331
20
1.4907486614173229
11
0.4400496456692913
21
1.4855448425196851
0
LINE
8
BLACK
6
CONTINUOUS
10
0.4400496456692913
20
1.4855448425196851
11
0.426982874015748
21
1.4817803937007874
0
LINE
8
BLACK
6
CONTINUOUS
10
0.426982874015748
20
1.4817803937007874
11
0.4135768503937008
21
1.4795025984251968
0
LINE
8
BLACK
6
CONTINUOUS
10
0.4135768503937008
20
1.4795025984251968
11
0.4000000393700787
21
1.478740157480315
0
LINE
8
BLACK
6
CONTINUOUS
10
0.4000000393700787
20
1.478740157480315
11
0.3864232283464567
21
1.4795025984251968
0
LINE
8
BLACK
6
CONTINUOUS
10
0.3864232283464567
20
1.4795025984251968
11
0.3730172047244095
21
1.4817803937007874
0
LINE
8
BLACK
6
CONTINUOUS
10
0.3730172047244095
20
1.4817803937007874
11
0.3599504330708662
21
1.4855448425196851
0
LINE
8
BLACK
6
CONTINUOUS
10
0.3599504330708662
20
1.4855448425196851
11
0.3473873622047244
21
1.4907486614173229
0
LINE
8
BLACK
6
CONTINUOUS
10
0.3473873622047244
20
1.4907486614173229
11
0.335485905511811
21
1.4973263385826772
0
LINE
8
BLACK
6
CONTINUOUS
10
0.335485905511811
20
1.4973263385826772
11
0.3243957480314961
21
1.5051952362204724
0
LINE
8
BLACK
6
CONTINUOUS
10
0.3243957480314961
20
1.5051952362204724
11
0.3142563779527559
21
1.5142563385826771
0
LINE
8
BLACK
6
CONTINUOUS
10
0.3142563779527559
20
1.5142563385826771
11
0.3051952755905512
21
1.5243957086614173
0
LINE
8
BLACK
6
CONTINUOUS
10
0.3051952755905512
20
1.5243957086614173
11
0.2973263779527559
21
1.5354858661417323
0
LINE
8
BLACK
6
CONTINUOUS
10
0.2973263779527559
20
1.5354858661417323
11
0.2907487007874016
21
1.5473873228346455
0
LINE
8
BLACK
6
CONTINUOUS
10
0.2907487007874016
20
1.5473873228346455
11
0.2855448818897638
21
1.5599503937007875
0
LINE
8
BLACK
6
CONTINUOUS
10
0.2855448818897638
20
1.5599503937007875
11
0.2817804330708661
21
1.5730171653543308
0
LINE
8
BLACK
6
CONTINUOUS
10
0.2817804330708661
20
1.5730171653543308
11
0.2795026377952756
21
1.586423188976378
0
LINE
8
BLACK
6
CONTINUOUS
10
0.2795026377952756
20
1.586423188976378
11
0.2787401968503937
21
1.5999999999999999
0
LINE
8
BLACK
6
CONTINUOUS
10
0.2787401968503937
20
1.5999999999999999
11
0.2795026377952756
21
1.6135768110236219
0
LINE
8
BLACK
6
CONTINUOUS
10
0.2795026377952756
20
1.6135768110236219
11
0.2817804330708661
21
1.6269828346456692
0
LINE
8
BLACK
6
CONTINUOUS
10
0.2817804330708661
20
1.6269828346456692
11
0.2855448818897638
21
1.6400496062992125
0
LINE
8
BLACK
6
CONTINUOUS
10
0.2855448818897638
20
1.6400496062992125
11
0.2907487007874016
21
1.6526126771653542
0
LINE
8
BLACK
6
CONTINUOUS
10
0.2907487007874016
20
1.6526126771653542
11
0.2973263779527559
21
1.6645141338582676
0
LINE
8
BLACK
6
CONTINUOUS
10
0.2973263779527559
20
1.6645141338582676
11
0.3051952755905512
21
1.6756042913385827
0
LINE
8
BLACK
6
CONTINUOUS
10
0.3051952755905512
20
1.6756042913385827
11
0.3142563779527559
21
1.6857436614173229
0
LINE
8
BLACK
6
CONTINUOUS
10
0.3142563779527559
20
1.6857436614173229
11
0.3243957480314961
21
1.6948047637795276
0
LINE
8
BLACK
6
CONTINUOUS
10
0.3243957480314961
20
1.6948047637795276
11
0.335485905511811
21
1.7026736614173228
0
LINE
8
BLACK
6
CONTINUOUS
10
0.335485905511811
20
1.7026736614173228
11
0.3473873622047244
21
1.7092513385826771
0
LINE
8
BLACK
6
CONTINUOUS
10
0.3473873622047244
20
1.7092513385826771
11
0.3599504330708662
21
1.7144551574803149
0
LINE
8
BLACK
6
CONTINUOUS
10
0.3599504330708662
20
1.7144551574803149
11
0.3730172047244095
21
1.7182196062992126
0
LINE
8
BLACK
6
CONTINUOUS
10
0.3730172047244095
20
1.7182196062992126
11
0.3864232283464567
21
1.7204974015748031
0
LINE
8
BLACK
6
CONTINUOUS
10
0.3864232283464567
20
1.7204974015748031
11
0.4000000393700787
21
1.721259842519685
0
LINE
8
BLACK
6
CONTINUOUS
10
0.4000000393700787
20
1.721259842519685
11
0.4135768503937008
21
1.7204974015748031
0
LINE
8
BLACK
6
CONTINUOUS
10
0.8135768503937008
20
1.7204974015748031
11
0.826982874015748
21
1.7182196062992126
0
LINE
8
BLACK
6
CONTINUOUS
10
0.826982874015748
20
1.7182196062992126
11
0.8400496456692913
21
1.7144551574803149
0
LINE
8
BLACK
6
CONTINUOUS
10
0.8400496456692913
20
1.7144551574803149
11
0.852612716535433
21
1.7092513385826771
0
LINE
8
BLACK
6
CONTINUOUS
10
0.852612716535433
20
1.7092513385826771
11
0.8645141732283464
21
1.7026736614173228
0
LINE
8
BLACK
6
CONTINUOUS
10
0.8645141732283464
20
1.7026736614173228
11
0.8756043307086614
21
1.6948047637795276
0
LINE
8
BLACK
6
CONTINUOUS
10
0.8756043307086614
20
1.6948047637795276
11
0.8857437007874015
21
1.6857436614173229
0
LINE
8
BLACK
6
CONTINUOUS
10
0.8857437007874015
20
1.6857436614173229
11
0.8948048031496063
21
1.6756042913385827
0
LINE
8
BLACK
6
CONTINUOUS
10
0.8948048031496063
20
1.6756042913385827
11
0.9026737007874015
21
1.6645141338582676
0
LINE
8
BLACK
6
CONTINUOUS
10
0.9026737007874015
20
1.6645141338582676
11
0.9092513779527559
21
1.6526126771653542
0
LINE
8
BLACK
6
CONTINUOUS
10
0.9092513779527559
20
1.6526126771653542
11
0.9144551968503937
21
1.6400496062992125
0
LINE
8
BLACK
6
CONTINUOUS
10
0.9144551968503937
20
1.6400496062992125
11
0.9182196456692913
21
1.6269828346456692
0
LINE
8
BLACK
6
CONTINUOUS
10
0.9182196456692913
20
1.6269828346456692
11
0.9204974409448818
21
1.6135768110236219
0
LINE
8
BLACK
6
CONTINUOUS
10
0.9204974409448818
20
1.6135768110236219
11
0.9212598818897637
21
1.5999999999999999
0
LINE
8
BLACK
6
CONTINUOUS
10
0.9212598818897637
20
1.5999999999999999
11
0.9204974409448818
21
1.586423188976378
0
LINE
8
BLACK
6
CONTINUOUS
10
0.9204974409448818
20
1.586423188976378
11
0.9182196456692913
21
1.5730171653543308
0
LINE
8
BLACK
6
CONTINUOUS
10
0.9182196456692913
20
1.5730171653543308
11
0.9144551968503937
21
1.5599503937007875
0
LINE
8
BLACK
6
CONTINUOUS
10
0.9144551968503937
20
1.5599503937007875
11
0.9092513779527559
21
1.5473873228346455
0
LINE
8
BLACK
6
CONTINUOUS
10
0.9092513779527559
20
1.5473873228346455
11
0.9026737007874015
21
1.5354858661417323
0
LINE
8
BLACK
6
CONTINUOUS
10
0.9026737007874015
20
1.5354858661417323
11
0.8948048031496063
21
1.5243957086614173
0
LINE
8
BLACK
6
CONTINUOUS
10
0.8948048031496063
20
1.5243957086614173
11
0.8857437007874015
21
1.5142563385826771
0
LINE
8
BLACK
6
CONTINUOUS
10
0.8857437007874015
20
1.5142563385826771
11
0.8756043307086614
21
1.5051952362204724
0
LINE
8
BLACK
6
CONTINUOUS
10
0.8756043307086614
20
1.5051952362204724
11
0.8645141732283464
21
1.4973263385826772
0
LINE
8
BLACK
6
CONTINUOUS
10
0.8645141732283464
20
1.4973263385826772
11
0.852612716535433
21
1.4907486614173229
0
LINE
8
BLACK
6
CONTINUOUS
10
0.852612716535433
20
1.4907486614173229
11
0.8400496456692913
21
1.4855448425196851
0
LINE
8
BLACK
6
CONTINUOUS
10
0.8400496456692913
20
1.4855448425196851
11
0.826982874015748
21
1.4817803937007874
0
LINE
8
BLACK
6
CONTINUOUS
10
0.826982874015748
20
1.4817803937007874
11
0.8135768503937008
21
1.4795025984251968
0
LINE
8
BLACK
6
CONTINUOUS
10
0.8135768503937008
20
1.4795025984251968
11
0.8000000393700787
21
1.478740157480315
0
LINE
8
BLACK
6
CONTINUOUS
10
0.8000000393700787
20
1.478740157480315
11
0.7864232283464567
21
1.4795025984251968
0
LINE
8
BLACK
6
CONTINUOUS
10
0.7864232283464567
20
1.4795025984251968
11
0.7730172047244094
21
1.4817803937007874
0
LINE
8
BLACK
6
CONTINUOUS
10
0.7730172047244094
20
1.4817803937007874
11
0.7599504330708661
21
1.4855448425196851
0
LINE
8
BLACK
6
CONTINUOUS
10
0.7599504330708661
20
1.4855448425196851
11
0.7473873622047243
21
1.4907486614173229
0
LINE
8
BLACK
6
CONTINUOUS
10
0.7473873622047243
20
1.4907486614173229
11
0.735485905511811
21
1.4973263385826772
0
LINE
8
BLACK
6
CONTINUOUS
10
0.735485905511811
20
1.4973263385826772
11
0.7243957480314961
21
1.5051952362204724
0
LINE
8
BLACK
6
CONTINUOUS
10
0.7243957480314961
20
1.5051952362204724
11
0.7142563779527559
21
1.5142563385826771
0
LINE
8
BLACK
6
CONTINUOUS
10
0.7142563779527559
20
1.5142563385826771
11
0.7051952755905512
21
1.5243957086614173
0
LINE
8
BLACK
6
CONTINUOUS
10
0.7051952755905512
20
1.5243957086614173
11
0.6973263779527559
21
1.5354858661417323
0
LINE
8
BLACK
6
CONTINUOUS
10
0.6973263779527559
20
1.5354858661417323
11
0.6907487007874016
21
1.5473873228346455
0
LINE
8
BLACK
6
CONTINUOUS
10
0.6907487007874016
20
1.5473873228346455
11
0.6855448818897638
21
1.5599503937007875
0
LINE
8
BLACK
6
CONTINUOUS
10
0.6855448818897638
20
1.5599503937007875
11
0.6817804330708661
21
1.5730171653543308
0
LINE
8
BLACK
6
CONTINUOUS
10
0.6817804330708661
20
1.5730171653543308
11
0.6795026377952755
21
1.586423188976378
0
LINE
8
BLACK
6
CONTINUOUS
10
0.6795026377952755
20
1.586423188976378
11
0.6787401968503937
21
1.5999999999999999
0
LINE
8
BLACK
6
CONTINUOUS
10
0.6787401968503937
20
1.5999999999999999
11
0.6795026377952755
21
1.6135768110236219
0
LINE
8
BLACK
6
CONTINUOUS
10
0.6795026377952755
20
1.6135768110236219
11
0.6817804330708661
21
1.6269828346456692
0
LINE
8
BLACK
6
CONTINUOUS
10
0.6817804330708661
20
1.6269828346456692
11
0.6855448818897638
21
1.6400496062992125
0
LINE
8
BLACK
6
CONTINUOUS
10
0.6855448818897638
20
1.6400496062992125
11
0.6907487007874016
21
1.6526126771653542
0
LINE
8
BLACK
6
CONTINUOUS
10
0.6907487007874016
20
1.6526126771653542
11
0.6973263779527559
21
1.6645141338582676
0
LINE
8
BLACK
6
CONTINUOUS
10
0.6973263779527559
20
1.6645141338582676
11
0.7051952755905512
21
1.6756042913385827
0
LINE
8
BLACK
6
CONTINUOUS
10
0.7051952755905512
20
1.6756042913385827
11
0.7142563779527559
21
1.6857436614173229
0
LINE
8
BLACK
6
CONTINUOUS
10
0.7142563779527559
20
1.6857436614173229
11
0.7243957480314961
21
1.6948047637795276
0
LINE
8
BLACK
6
CONTINUOUS
10
0.7243957480314961
20
1.6948047637795276
11
0.735485905511811
21
1.7026736614173228
0
LINE
8
BLACK
6
CONTINUOUS
10
0.735485905511811
20
1.7026736614173228
11
0.7473873622047243
21
1.7092513385826771
0
LINE
8
BLACK
6
CONTINUOUS
10
0.7473873622047243
20
1.7092513385826771
11
0.7599504330708661
21
1.7144551574803149
0
LINE
8
BLACK
6
CONTINUOUS
10
0.7599504330708661
20
1.7144551574803149
11
0.7730172047244094
21
1.7182196062992126
0
LINE
8
BLACK
6
CONTINUOUS
10
0.7730172047244094
20
1.7182196062992126
11
0.7864232283464567
21
1.7204974015748031
0
LINE
8
BLACK
6
CONTINUOUS
10
0.7864232283464567
20
1.7204974015748031
11
0.8000000393700787
21
1.721259842519685
0
LINE
8
BLACK
6
CONTINUOUS
10
0.8000000393700787
20
1.721259842519685
11
0.8135768503937008
21
1.7204974015748031
0
LINE
8
BLACK
6
CONTINUOUS
10
0.6076807086614173
20
1.7443773622047243
11
0.6150662598425197
21
1.7421370078740157
0
LINE
8
BLACK
6
CONTINUOUS
10
0.6150662598425197
20
1.7421370078740157
11
0.6218728346456692
21
1.7384988188976378
0
LINE
8
BLACK
6
CONTINUOUS
10
0.6218728346456692
20
1.7384988188976378
11
0.6278388582677166
21
1.7336026377952756
0
LINE
8
BLACK
6
CONTINUOUS
10
0.6278388582677166
20
1.7336026377952756
11
0.6327350393700787
21
1.7276366141732282
0
LINE
8
BLACK
6
CONTINUOUS
10
0.6327350393700787
20
1.7276366141732282
11
0.6363732283464567
21
1.7208300393700786
0
LINE
8
BLACK
6
CONTINUOUS
10
0.6363732283464567
20
1.7208300393700786
11
0.6386135826771654
21
1.7134444881889763
0
LINE
8
BLACK
6
CONTINUOUS
10
0.6386135826771654
20
1.7134444881889763
11
0.6393700787401575
21
1.7057637795275591
0
LINE
8
BLACK
6
CONTINUOUS
10
0.6393700787401575
20
1.7057637795275591
11
0.6386135826771654
21
1.6980830708661416
0
LINE
8
BLACK
6
CONTINUOUS
10
0.6386135826771654
20
1.6980830708661416
11
0.6363732283464567
21
1.6906975196850393
0
LINE
8
BLACK
6
CONTINUOUS
10
0.6363732283464567
20
1.6906975196850393
11
0.6327350393700787
21
1.6838909448818897
0
LINE
8
BLACK
6
CONTINUOUS
10
0.6327350393700787
20
1.6838909448818897
11
0.6278388582677166
21
1.6779249212598424
0
LINE
8
BLACK
6
CONTINUOUS
10
0.6278388582677166
20
1.6779249212598424
11
0.6218728346456692
21
1.6730287401574804
0
LINE
8
BLACK
6
CONTINUOUS
10
0.6218728346456692
20
1.6730287401574804
11
0.6150662598425197
21
1.6693905511811022
0
LINE
8
BLACK
6
CONTINUOUS
10
0.6150662598425197
20
1.6693905511811022
11
0.6076807086614173
21
1.6671501968503937
0
LINE
8
BLACK
6
CONTINUOUS
10
0.6076807086614173
20
1.6671501968503937
11
0.6
21
1.6663937007874015
0
LINE
8
BLACK
6
CONTINUOUS
10
0.6
20
1.6663937007874015
11
0.5923192913385826
21
1.6671501968503937
0
LINE
8
BLACK
6
CONTINUOUS
10
0.5923192913385826
20
1.6671501968503937
11
0.5849337401574803
21
1.6693905511811022
0
LINE
8
BLACK
6
CONTINUOUS
10
0.5849337401574803
20
1.6693905511811022
11
0.5781271653543307
21
1.6730287401574804
0
LINE
8
BLACK
6
CONTINUOUS
10
0.5781271653543307
20
1.6730287401574804
11
0.5721611417322835
21
1.6779249212598424
0
LINE
8
BLACK
6
CONTINUOUS
10
0.5721611417322835
20
1.6779249212598424
11
0.5672649606299213
21
1.6838909448818897
0
LINE
8
BLACK
6
CONTINUOUS
10
0.5672649606299213
20
1.6838909448818897
11
0.5636267716535432
21
1.6906975196850393
0
LINE
8
BLACK
6
CONTINUOUS
10
0.5636267716535432
20
1.6906975196850393
11
0.5613864173228347
21
1.6980830708661416
0
LINE
8
BLACK
6
CONTINUOUS
10
0.5613864173228347
20
1.6980830708661416
11
0.5606299212598425
21
1.7057637795275591
0
LINE
8
BLACK
6
CONTINUOUS
10
0.5606299212598425
20
1.7057637795275591
11
0.5613864173228347
21
1.7134444881889763
0
LINE
8
BLACK
6
CONTINUOUS
10
0.5613864173228347
20
1.7134444881889763
11
0.5636267716535432
21
1.7208300393700786
0
LINE
8
BLACK
6
CONTINUOUS
10
0.5636267716535432
20
1.7208300393700786
11
0.5672649606299213
21
1.7276366141732282
0
LINE
8
BLACK
6
CONTINUOUS
10
0.5672649606299213
20
1.7276366141732282
11
0.5721611417322835
21
1.7336026377952756
0
LINE
8
BLACK
6
CONTINUOUS
10
0.5721611417322835
20
1.7336026377952756
11
0.5781271653543307
21
1.7384988188976378
0
LINE
8
BLACK
6
CONTINUOUS
10
0.5781271653543307
20
1.7384988188976378
11
0.5849337401574803
21
1.7421370078740157
0
LINE
8
BLACK
6
CONTINUOUS
10
0.5849337401574803
20
1.7421370078740157
11
0.5923192913385826
21
1.7443773622047243
0
LINE
8
BLACK
6
CONTINUOUS
10
0.5923192913385826
20
1.7443773622047243
11
0.6
21
1.7451338582677165
0
LINE
8
BLACK
6
CONTINUOUS
10
0.6
20
1.7451338582677165
11
0.6076807086614173
21
1.7443773622047243
  0
ENDSEC
  0
EOF
