  0
SECTION
  2
HEADER
  9
$ANGBASE
  50
0.0
  9
$ANGDIR
  70
1
  9
$MEASUREMENT
  70
0
  0
ENDSEC
  0
SECTION
  2
TABLES
  0
TABLE
  2
LTYPE
  70
4
  0
LTYPE
  5
40F
  2
CONTINUOUS
  70
0
  3
Solid line
  72
65
  73
0
  40
0.0
  0
LTYPE
  5
410
  2
DASHDOT
 70
0
  3
Dash Dot ____ _ ____ _
 72
65
 73
4
 40
2.0
 49
1.25
 49
-0.25
 49
0.25
 49
-0.25
  0
LTYPE
  5
411
  2
DASHED
 70
0
  3
Dashed __ __ __ __ __
 72
65
 73
2
 40
0.75
 49
0.5
 49
-0.25
  0
LTYPE
  5
43B
  2
DOTTED
 70
0
  3
Dotted .  .  .  .
 72
65
 73
2
 40
0.2
 49
0.0
 49
-0.2
  0
ENDTAB
  0
TABLE
  2
STYLE
  70
4
  0
STYLE
  2
KICAD
  70
0
  40
0
  41
1
  42
1
  50
0
  71
0
  3
isocp.shx
  0
STYLE
  2
KICADB
  70
0
  40
0
  41
1
  42
1
  50
0
  71
0
  3
isocp.shx
  0
STYLE
  2
KICADI
  70
0
  40
0
  41
1
  42
1
  50
15
  71
0
  3
isocp.shx
  0
STYLE
  2
KICADBI
  70
0
  40
0
  41
1
  42
1
  50
15
  71
0
  3
isocp.shx
  0
ENDTAB
  0
TABLE
  2
LAYER
  70
1
  0
LAYER
  2
BLACK
  70
0
  62
7
  6
CONTINUOUS
  0
ENDTAB
  0
ENDSEC
  0
SECTION
  2
ENTITIES
0
LINE
8
BLACK
6
CONTINUOUS
10
0.7735438582677165
20
0.6246220472440944
11
0.7746566929133858
21
0.6229364960629921
0
LINE
8
BLACK
6
CONTINUOUS
10
0.7746566929133858
20
0.6229364960629921
11
0.7744257874015748
21
0.6209299606299212
0
LINE
8
BLACK
6
CONTINUOUS
10
0.7744257874015748
20
0.6209299606299212
11
0.7725510236220472
21
0.6171804330708661
0
LINE
8
BLACK
6
CONTINUOUS
10
0.7725510236220472
20
0.6171804330708661
11
0.7720250787401575
21
0.6164713779527559
0
LINE
8
BLACK
6
CONTINUOUS
10
0.7720250787401575
20
0.6164713779527559
11
0.7719979133858268
21
0.616413031496063
0
LINE
8
BLACK
6
CONTINUOUS
10
0.7719979133858268
20
0.616413031496063
11
0.7695395275590551
21
0.6139546456692914
0
LINE
8
BLACK
6
CONTINUOUS
10
0.7695395275590551
20
0.6139546456692914
11
0.7969535039370078
21
0.6139546456692914
0
LINE
8
BLACK
6
CONTINUOUS
10
0.7969535039370078
20
0.6139546456692914
11
0.7969535039370078
21
0.6222504724409449
0
LINE
8
BLACK
6
CONTINUOUS
10
0.7969535039370078
20
0.6222504724409449
11
0.7971315748031496
21
0.6232603937007873
0
LINE
8
BLACK
6
CONTINUOUS
10
0.7971315748031496
20
0.6232603937007873
11
0.7984298818897637
21
0.6248076377952756
0
LINE
8
BLACK
6
CONTINUOUS
10
0.7984298818897637
20
0.6248076377952756
11
0.8004190157480314
21
0.6251583858267716
0
LINE
8
BLACK
6
CONTINUOUS
10
0.8004190157480314
20
0.6251583858267716
11
0.802168188976378
21
0.6241484645669291
0
LINE
8
BLACK
6
CONTINUOUS
10
0.802168188976378
20
0.6241484645669291
11
0.8028590157480314
21
0.6222504724409449
0
LINE
8
BLACK
6
CONTINUOUS
10
0.8028590157480314
20
0.6222504724409449
11
0.8028590157480314
21
0.5997533070866141
0
LINE
8
BLACK
6
CONTINUOUS
10
0.8028590157480314
20
0.5997533070866141
11
0.8026809448818898
21
0.5987433858267717
0
LINE
8
BLACK
6
CONTINUOUS
10
0.8026809448818898
20
0.5987433858267717
11
0.8013826377952755
21
0.5971961417322834
0
LINE
8
BLACK
6
CONTINUOUS
10
0.8013826377952755
20
0.5971961417322834
11
0.7993935039370078
21
0.5968453937007874
0
LINE
8
BLACK
6
CONTINUOUS
10
0.7993935039370078
20
0.5968453937007874
11
0.7976443307086614
21
0.5978553149606299
0
LINE
8
BLACK
6
CONTINUOUS
10
0.7976443307086614
20
0.5978553149606299
11
0.7969535039370078
21
0.5997533070866141
0
LINE
8
BLACK
6
CONTINUOUS
10
0.7969535039370078
20
0.5997533070866141
11
0.7969535039370078
21
0.6080491338582678
0
LINE
8
BLACK
6
CONTINUOUS
10
0.7969535039370078
20
0.6080491338582678
11
0.7605361811023622
21
0.6080491338582678
0
LINE
8
BLACK
6
CONTINUOUS
10
0.7605361811023622
20
0.6080491338582678
11
0.7595262598425196
21
0.6082272047244094
0
LINE
8
BLACK
6
CONTINUOUS
10
0.7595262598425196
20
0.6082272047244094
11
0.7593961811023622
21
0.6083363385826771
0
LINE
8
BLACK
6
CONTINUOUS
10
0.7593961811023622
20
0.6083363385826771
11
0.7592274409448819
21
0.608355
0
LINE
8
BLACK
6
CONTINUOUS
10
0.7592274409448819
20
0.608355
11
0.7586355118110236
21
0.6089746456692913
0
LINE
8
BLACK
6
CONTINUOUS
10
0.7586355118110236
20
0.6089746456692913
11
0.7579790157480315
21
0.6095255118110237
0
LINE
8
BLACK
6
CONTINUOUS
10
0.7579790157480315
20
0.6095255118110237
11
0.7579495275590551
21
0.6096927559055118
0
LINE
8
BLACK
6
CONTINUOUS
10
0.7579495275590551
20
0.6096927559055118
11
0.7578322440944881
21
0.6098155118110236
0
LINE
8
BLACK
6
CONTINUOUS
10
0.7578322440944881
20
0.6098155118110236
11
0.7577770866141732
21
0.6106706692913386
0
LINE
8
BLACK
6
CONTINUOUS
10
0.7577770866141732
20
0.6106706692913386
11
0.7576282677165355
21
0.6115146456692914
0
LINE
8
BLACK
6
CONTINUOUS
10
0.7576282677165355
20
0.6115146456692914
11
0.7577131496062992
21
0.6116617322834645
0
LINE
8
BLACK
6
CONTINUOUS
10
0.7577131496062992
20
0.6116617322834645
11
0.7577022440944882
21
0.6118311023622047
0
LINE
8
BLACK
6
CONTINUOUS
10
0.7577022440944882
20
0.6118311023622047
11
0.75820968503937
21
0.6125217322834645
0
LINE
8
BLACK
6
CONTINUOUS
10
0.75820968503937
20
0.6125217322834645
11
0.7586381889763779
21
0.6132638188976378
0
LINE
8
BLACK
6
CONTINUOUS
10
0.7586381889763779
20
0.6132638188976378
11
0.7587976771653543
21
0.6133218897637795
0
LINE
8
BLACK
6
CONTINUOUS
10
0.7587976771653543
20
0.6133218897637795
11
0.7588982677165355
21
0.6134587401574803
0
LINE
8
BLACK
6
CONTINUOUS
10
0.7588982677165355
20
0.6134587401574803
11
0.7642792913385826
21
0.6170461023622047
0
LINE
8
BLACK
6
CONTINUOUS
10
0.7642792913385826
20
0.6170461023622047
11
0.7674832677165354
21
0.6202500393700787
0
LINE
8
BLACK
6
CONTINUOUS
10
0.7674832677165354
20
0.6202500393700787
11
0.7691437401574803
21
0.6235709842519684
0
LINE
8
BLACK
6
CONTINUOUS
10
0.7691437401574803
20
0.6235709842519684
11
0.7697546456692913
21
0.6243946456692914
0
LINE
8
BLACK
6
CONTINUOUS
10
0.7697546456692913
20
0.6243946456692914
11
0.7716078346456693
21
0.6251979133858268
0
LINE
8
BLACK
6
CONTINUOUS
10
0.7716078346456693
20
0.6251979133858268
11
0.7735438582677165
21
0.6246220472440944
0
LINE
8
BLACK
6
CONTINUOUS
10
0.4382445669291338
20
0.6303384251968503
11
0.4401193700787401
21
0.6284636614173228
0
LINE
8
BLACK
6
CONTINUOUS
10
0.4401193700787401
20
0.6284636614173228
11
0.4406257480314961
21
0.6277405118110236
0
LINE
8
BLACK
6
CONTINUOUS
10
0.4406257480314961
20
0.6277405118110236
11
0.4406725196850393
21
0.6276962204724409
0
LINE
8
BLACK
6
CONTINUOUS
10
0.4406725196850393
20
0.6276962204724409
11
0.4425472834645669
21
0.6239466929133858
0
LINE
8
BLACK
6
CONTINUOUS
10
0.4425472834645669
20
0.6239466929133858
11
0.4428396456692913
21
0.622963779527559
0
LINE
8
BLACK
6
CONTINUOUS
10
0.4428396456692913
20
0.622963779527559
11
0.4427986220472441
21
0.6227920866141732
0
LINE
8
BLACK
6
CONTINUOUS
10
0.4427986220472441
20
0.6227920866141732
11
0.4428590157480315
21
0.6226261811023622
0
LINE
8
BLACK
6
CONTINUOUS
10
0.4428590157480315
20
0.6226261811023622
11
0.4428590157480315
21
0.6132523622047243
0
LINE
8
BLACK
6
CONTINUOUS
10
0.4428590157480315
20
0.6132523622047243
11
0.4426809448818897
21
0.6122424409448819
0
LINE
8
BLACK
6
CONTINUOUS
10
0.4426809448818897
20
0.6122424409448819
11
0.4425674409448819
21
0.6121072047244094
0
LINE
8
BLACK
6
CONTINUOUS
10
0.4425674409448819
20
0.6121072047244094
11
0.4425472834645669
21
0.6119318503937008
0
LINE
8
BLACK
6
CONTINUOUS
10
0.4425472834645669
20
0.6119318503937008
11
0.4406725196850393
21
0.6081823228346457
0
LINE
8
BLACK
6
CONTINUOUS
10
0.4406725196850393
20
0.6081823228346457
11
0.4401465354330709
21
0.6074732283464567
0
LINE
8
BLACK
6
CONTINUOUS
10
0.4401465354330709
20
0.6074732283464567
11
0.4401193700787401
21
0.6074148818897638
0
LINE
8
BLACK
6
CONTINUOUS
10
0.4401193700787401
20
0.6074148818897638
11
0.4382445669291338
21
0.6055401181102362
0
LINE
8
BLACK
6
CONTINUOUS
10
0.4382445669291338
20
0.6055401181102362
11
0.4375214960629921
21
0.6050338582677165
0
LINE
8
BLACK
6
CONTINUOUS
10
0.4375214960629921
20
0.6050338582677165
11
0.4374772047244094
21
0.6049870472440945
0
LINE
8
BLACK
6
CONTINUOUS
10
0.4374772047244094
20
0.6049870472440945
11
0.4337276771653543
21
0.6031122834645669
0
LINE
8
BLACK
6
CONTINUOUS
10
0.4337276771653543
20
0.6031122834645669
11
0.4327447244094488
21
0.6028199212598425
0
LINE
8
BLACK
6
CONTINUOUS
10
0.4327447244094488
20
0.6028199212598425
11
0.432573031496063
21
0.6028609448818898
0
LINE
8
BLACK
6
CONTINUOUS
10
0.432573031496063
20
0.6028609448818898
11
0.4324071653543307
21
0.6028005511811023
0
LINE
8
BLACK
6
CONTINUOUS
10
0.4324071653543307
20
0.6028005511811023
11
0.4230333464566929
21
0.6028005511811023
0
LINE
8
BLACK
6
CONTINUOUS
10
0.4230333464566929
20
0.6028005511811023
11
0.4220234251968504
21
0.6029786220472441
0
LINE
8
BLACK
6
CONTINUOUS
10
0.4220234251968504
20
0.6029786220472441
11
0.4218881496062992
21
0.603092125984252
0
LINE
8
BLACK
6
CONTINUOUS
10
0.4218881496062992
20
0.603092125984252
11
0.4217128346456693
21
0.6031122834645669
0
LINE
8
BLACK
6
CONTINUOUS
10
0.4217128346456693
20
0.6031122834645669
11
0.4179633070866142
21
0.6049870472440945
0
LINE
8
BLACK
6
CONTINUOUS
10
0.4179633070866142
20
0.6049870472440945
11
0.4172542125984252
21
0.6055129527559054
0
LINE
8
BLACK
6
CONTINUOUS
10
0.4172542125984252
20
0.6055129527559054
11
0.417195905511811
21
0.605540157480315
0
LINE
8
BLACK
6
CONTINUOUS
10
0.417195905511811
20
0.605540157480315
11
0.4153211417322835
21
0.6074149212598425
0
LINE
8
BLACK
6
CONTINUOUS
10
0.4153211417322835
20
0.6074149212598425
11
0.414814842519685
21
0.6081380314960629
0
LINE
8
BLACK
6
CONTINUOUS
10
0.414814842519685
20
0.6081380314960629
11
0.414768031496063
21
0.6081823228346457
0
LINE
8
BLACK
6
CONTINUOUS
10
0.414768031496063
20
0.6081823228346457
11
0.4128932677165355
21
0.6119318503937008
0
LINE
8
BLACK
6
CONTINUOUS
10
0.4128932677165355
20
0.6119318503937008
11
0.412600905511811
21
0.6129148031496063
0
LINE
8
BLACK
6
CONTINUOUS
10
0.412600905511811
20
0.6129148031496063
11
0.4126418897637795
21
0.6130864960629921
0
LINE
8
BLACK
6
CONTINUOUS
10
0.4126418897637795
20
0.6130864960629921
11
0.4125815354330709
21
0.6132523622047243
0
LINE
8
BLACK
6
CONTINUOUS
10
0.4125815354330709
20
0.6132523622047243
11
0.4125815354330709
21
0.6226261811023622
0
LINE
8
BLACK
6
CONTINUOUS
10
0.4125815354330709
20
0.6226261811023622
11
0.4127596062992126
21
0.6236361023622047
0
LINE
8
BLACK
6
CONTINUOUS
10
0.4127596062992126
20
0.6236361023622047
11
0.4128730708661417
21
0.6237713779527559
0
LINE
8
BLACK
6
CONTINUOUS
10
0.4128730708661417
20
0.6237713779527559
11
0.4128932677165355
21
0.6239466929133858
0
LINE
8
BLACK
6
CONTINUOUS
10
0.4128932677165355
20
0.6239466929133858
11
0.4132601968503937
21
0.6246806299212598
0
LINE
8
BLACK
6
CONTINUOUS
10
0.4132601968503937
20
0.6246806299212598
11
0.403488937007874
21
0.6237035039370079
0
LINE
8
BLACK
6
CONTINUOUS
10
0.403488937007874
20
0.6237035039370079
11
0.403488937007874
21
0.6076280708661417
0
LINE
8
BLACK
6
CONTINUOUS
10
0.403488937007874
20
0.6076280708661417
11
0.4033108661417323
21
0.6066181496062992
0
LINE
8
BLACK
6
CONTINUOUS
10
0.4033108661417323
20
0.6066181496062992
11
0.4020125590551181
21
0.605070905511811
0
LINE
8
BLACK
6
CONTINUOUS
10
0.4020125590551181
20
0.605070905511811
11
0.4000234251968504
21
0.6047201574803149
0
LINE
8
BLACK
6
CONTINUOUS
10
0.4000234251968504
20
0.6047201574803149
11
0.3982742519685039
21
0.6057300787401575
0
LINE
8
BLACK
6
CONTINUOUS
10
0.3982742519685039
20
0.6057300787401575
11
0.3975834251968504
21
0.6076280708661417
0
LINE
8
BLACK
6
CONTINUOUS
10
0.3975834251968504
20
0.6076280708661417
11
0.3975834251968504
21
0.6263757086614173
0
LINE
8
BLACK
6
CONTINUOUS
10
0.3975834251968504
20
0.6263757086614173
11
0.3976105118110236
21
0.6265295669291339
0
LINE
8
BLACK
6
CONTINUOUS
10
0.3976105118110236
20
0.6265295669291339
11
0.3975916929133858
21
0.6265965748031496
0
LINE
8
BLACK
6
CONTINUOUS
10
0.3975916929133858
20
0.6265965748031496
11
0.3976420078740157
21
0.6267081496062992
0
LINE
8
BLACK
6
CONTINUOUS
10
0.3976420078740157
20
0.6267081496062992
11
0.3977614960629921
21
0.6273856299212598
0
LINE
8
BLACK
6
CONTINUOUS
10
0.3977614960629921
20
0.6273856299212598
11
0.3981645669291338
21
0.6278660236220472
0
LINE
8
BLACK
6
CONTINUOUS
10
0.3981645669291338
20
0.6278660236220472
11
0.3984225196850393
21
0.6284375590551181
0
LINE
8
BLACK
6
CONTINUOUS
10
0.3984225196850393
20
0.6284375590551181
11
0.3987944488188976
21
0.6286166535433071
0
LINE
8
BLACK
6
CONTINUOUS
10
0.3987944488188976
20
0.6286166535433071
11
0.3990598031496063
21
0.628932874015748
0
LINE
8
BLACK
6
CONTINUOUS
10
0.3990598031496063
20
0.628932874015748
11
0.3996773228346457
21
0.6290417716535432
0
LINE
8
BLACK
6
CONTINUOUS
10
0.3996773228346457
20
0.6290417716535432
11
0.4002423622047244
21
0.6293138188976378
0
LINE
8
BLACK
6
CONTINUOUS
10
0.4002423622047244
20
0.6293138188976378
11
0.41899
21
0.6311885826771654
0
LINE
8
BLACK
6
CONTINUOUS
10
0.41899
20
0.6311885826771654
11
0.4200126377952756
21
0.6311118897637795
0
LINE
8
BLACK
6
CONTINUOUS
10
0.4200126377952756
20
0.6311118897637795
11
0.4200287007874016
21
0.6311009448818897
0
LINE
8
BLACK
6
CONTINUOUS
10
0.4200287007874016
20
0.6311009448818897
11
0.420048031496063
21
0.6311025984251968
0
LINE
8
BLACK
6
CONTINUOUS
10
0.420048031496063
20
0.6311025984251968
11
0.4208597637795276
21
0.6305342519685039
0
LINE
8
BLACK
6
CONTINUOUS
10
0.4208597637795276
20
0.6305342519685039
11
0.4216813779527559
21
0.6299739763779527
0
LINE
8
BLACK
6
CONTINUOUS
10
0.4216813779527559
20
0.6299739763779527
11
0.4216866141732283
21
0.6299552755905512
0
LINE
8
BLACK
6
CONTINUOUS
10
0.4216866141732283
20
0.6299552755905512
11
0.4217025984251969
21
0.629944094488189
0
LINE
8
BLACK
6
CONTINUOUS
10
0.4217025984251969
20
0.629944094488189
11
0.4219594881889764
21
0.6289851968503937
0
LINE
8
BLACK
6
CONTINUOUS
10
0.4219594881889764
20
0.6289851968503937
11
0.4222283070866142
21
0.6280296062992126
0
LINE
8
BLACK
6
CONTINUOUS
10
0.4222283070866142
20
0.6280296062992126
11
0.4222202755905512
21
0.6280118897637795
0
LINE
8
BLACK
6
CONTINUOUS
10
0.4222202755905512
20
0.6280118897637795
11
0.4222253149606299
21
0.6279931102362205
0
LINE
8
BLACK
6
CONTINUOUS
10
0.4222253149606299
20
0.6279931102362205
11
0.4218063779527559
21
0.6270947637795276
0
LINE
8
BLACK
6
CONTINUOUS
10
0.4218063779527559
20
0.6270947637795276
11
0.4213974803149606
21
0.6261886220472441
0
LINE
8
BLACK
6
CONTINUOUS
10
0.4213974803149606
20
0.6261886220472441
11
0.4213799212598425
21
0.6261801968503937
0
LINE
8
BLACK
6
CONTINUOUS
10
0.4213799212598425
20
0.6261801968503937
11
0.4213717322834646
21
0.6261625590551181
0
LINE
8
BLACK
6
CONTINUOUS
10
0.4213717322834646
20
0.6261625590551181
11
0.4198357874015748
21
0.6246266141732283
0
LINE
8
BLACK
6
CONTINUOUS
10
0.4198357874015748
20
0.6246266141732283
11
0.4184870472440945
21
0.6219291338582678
0
LINE
8
BLACK
6
CONTINUOUS
10
0.4184870472440945
20
0.6219291338582678
11
0.4184870472440945
21
0.6139494094488189
0
LINE
8
BLACK
6
CONTINUOUS
10
0.4184870472440945
20
0.6139494094488189
11
0.4198357874015748
21
0.6112519291338583
0
LINE
8
BLACK
6
CONTINUOUS
10
0.4198357874015748
20
0.6112519291338583
11
0.4210329133858268
21
0.6100548031496063
0
LINE
8
BLACK
6
CONTINUOUS
10
0.4210329133858268
20
0.6100548031496063
11
0.4237303937007874
21
0.6087060629921259
0
LINE
8
BLACK
6
CONTINUOUS
10
0.4237303937007874
20
0.6087060629921259
11
0.4317101181102362
21
0.6087060629921259
0
LINE
8
BLACK
6
CONTINUOUS
10
0.4317101181102362
20
0.6087060629921259
11
0.4344075984251968
21
0.610054842519685
0
LINE
8
BLACK
6
CONTINUOUS
10
0.4344075984251968
20
0.610054842519685
11
0.4356047637795276
21
0.611251968503937
0
LINE
8
BLACK
6
CONTINUOUS
10
0.4356047637795276
20
0.611251968503937
11
0.4369535039370079
21
0.6139494094488189
0
LINE
8
BLACK
6
CONTINUOUS
10
0.4369535039370079
20
0.6139494094488189
11
0.4369535039370079
21
0.6219291338582678
0
LINE
8
BLACK
6
CONTINUOUS
10
0.4369535039370079
20
0.6219291338582678
11
0.4356047637795276
21
0.6246266141732283
0
LINE
8
BLACK
6
CONTINUOUS
10
0.4356047637795276
20
0.6246266141732283
11
0.4340688188976378
21
0.6261625196850393
0
LINE
8
BLACK
6
CONTINUOUS
10
0.4340688188976378
20
0.6261625196850393
11
0.4334805905511811
21
0.6270025590551181
0
LINE
8
BLACK
6
CONTINUOUS
10
0.4334805905511811
20
0.6270025590551181
11
0.4333045275590551
21
0.6290146850393701
0
LINE
8
BLACK
6
CONTINUOUS
10
0.4333045275590551
20
0.6290146850393701
11
0.434463031496063
21
0.6306692519685039
0
LINE
8
BLACK
6
CONTINUOUS
10
0.434463031496063
20
0.6306692519685039
11
0.4364140157480315
21
0.631191968503937
0
LINE
8
BLACK
6
CONTINUOUS
10
0.4364140157480315
20
0.631191968503937
11
0.4382445669291338
21
0.6303384251968503
0
LINE
8
BLACK
6
CONTINUOUS
10
0.4239695275590551
20
0.6858041732283464
11
0.4246614173228346
21
0.6841338582677166
0
LINE
8
BLACK
6
CONTINUOUS
10
0.4246614173228346
20
0.6841338582677166
11
0.4239695275590551
21
0.6824635433070866
0
LINE
8
BLACK
6
CONTINUOUS
10
0.4239695275590551
20
0.6824635433070866
11
0.4222992125984252
21
0.681771653543307
0
LINE
8
BLACK
6
CONTINUOUS
10
0.4222992125984252
20
0.681771653543307
11
0.3856850393700788
21
0.681771653543307
0
LINE
8
BLACK
6
CONTINUOUS
10
0.3856850393700788
20
0.681771653543307
11
0.3856850393700788
21
0.6132677165354331
0
LINE
8
BLACK
6
CONTINUOUS
10
0.3856850393700788
20
0.6132677165354331
11
0.3849931496062992
21
0.6115974015748031
0
LINE
8
BLACK
6
CONTINUOUS
10
0.3849931496062992
20
0.6115974015748031
11
0.3833228346456693
21
0.6109055118110236
0
LINE
8
BLACK
6
CONTINUOUS
10
0.3833228346456693
20
0.6109055118110236
11
0.3262362204724409
21
0.6109055118110236
0
LINE
8
BLACK
6
CONTINUOUS
10
0.3262362204724409
20
0.6109055118110236
11
0.324565905511811
21
0.6115974015748031
0
LINE
8
BLACK
6
CONTINUOUS
10
0.324565905511811
20
0.6115974015748031
11
0.3238740157480315
21
0.6132677165354331
0
LINE
8
BLACK
6
CONTINUOUS
10
0.3238740157480315
20
0.6132677165354331
11
0.324565905511811
21
0.614938031496063
0
LINE
8
BLACK
6
CONTINUOUS
10
0.324565905511811
20
0.614938031496063
11
0.3262362204724409
21
0.6156299212598425
0
LINE
8
BLACK
6
CONTINUOUS
10
0.3262362204724409
20
0.6156299212598425
11
0.3809606299212598
21
0.6156299212598425
0
LINE
8
BLACK
6
CONTINUOUS
10
0.3809606299212598
20
0.6156299212598425
11
0.3809606299212598
21
0.6841338582677166
0
LINE
8
BLACK
6
CONTINUOUS
10
0.3809606299212598
20
0.6841338582677166
11
0.3816525196850394
21
0.6858041732283464
0
LINE
8
BLACK
6
CONTINUOUS
10
0.3816525196850394
20
0.6858041732283464
11
0.3833228346456693
21
0.686496062992126
0
LINE
8
BLACK
6
CONTINUOUS
10
0.3833228346456693
20
0.686496062992126
11
0.4222992125984252
21
0.686496062992126
0
LINE
8
BLACK
6
CONTINUOUS
10
0.4222992125984252
20
0.686496062992126
11
0.4239695275590551
21
0.6858041732283464
0
LINE
8
BLACK
6
CONTINUOUS
10
0.8183474803149606
20
0.6858041732283464
11
0.8190393700787402
21
0.6841338582677166
0
LINE
8
BLACK
6
CONTINUOUS
10
0.8190393700787402
20
0.6841338582677166
11
0.8190393700787402
21
0.6156299212598425
0
LINE
8
BLACK
6
CONTINUOUS
10
0.8190393700787402
20
0.6156299212598425
11
0.873763779527559
21
0.6156299212598425
0
LINE
8
BLACK
6
CONTINUOUS
10
0.873763779527559
20
0.6156299212598425
11
0.875434094488189
21
0.614938031496063
0
LINE
8
BLACK
6
CONTINUOUS
10
0.875434094488189
20
0.614938031496063
11
0.8761259842519685
21
0.6132677165354331
0
LINE
8
BLACK
6
CONTINUOUS
10
0.8761259842519685
20
0.6132677165354331
11
0.875434094488189
21
0.6115974015748031
0
LINE
8
BLACK
6
CONTINUOUS
10
0.875434094488189
20
0.6115974015748031
11
0.873763779527559
21
0.6109055118110236
0
LINE
8
BLACK
6
CONTINUOUS
10
0.873763779527559
20
0.6109055118110236
11
0.8166771653543307
21
0.6109055118110236
0
LINE
8
BLACK
6
CONTINUOUS
10
0.8166771653543307
20
0.6109055118110236
11
0.8150068503937008
21
0.6115974015748031
0
LINE
8
BLACK
6
CONTINUOUS
10
0.8150068503937008
20
0.6115974015748031
11
0.8143149606299213
21
0.6132677165354331
0
LINE
8
BLACK
6
CONTINUOUS
10
0.8143149606299213
20
0.6132677165354331
11
0.8143149606299213
21
0.6841338582677166
0
LINE
8
BLACK
6
CONTINUOUS
10
0.8143149606299213
20
0.6841338582677166
11
0.8150068503937008
21
0.6858041732283464
0
LINE
8
BLACK
6
CONTINUOUS
10
0.8150068503937008
20
0.6858041732283464
11
0.8166771653543307
21
0.686496062992126
0
LINE
8
BLACK
6
CONTINUOUS
10
0.8166771653543307
20
0.686496062992126
11
0.8183474803149606
21
0.6858041732283464
0
LINE
8
BLACK
6
CONTINUOUS
10
0.802168188976378
20
0.6560194881889764
11
0.8028590157480314
21
0.6541214960629921
0
LINE
8
BLACK
6
CONTINUOUS
10
0.8028590157480314
20
0.6541214960629921
11
0.8028590157480314
21
0.650371968503937
0
LINE
8
BLACK
6
CONTINUOUS
10
0.8028590157480314
20
0.650371968503937
11
0.8027057086614173
21
0.6495025984251969
0
LINE
8
BLACK
6
CONTINUOUS
10
0.8027057086614173
20
0.6495025984251969
11
0.8027074803149606
21
0.649438188976378
0
LINE
8
BLACK
6
CONTINUOUS
10
0.8027074803149606
20
0.649438188976378
11
0.8008327165354331
21
0.643813937007874
0
LINE
8
BLACK
6
CONTINUOUS
10
0.8008327165354331
20
0.643813937007874
11
0.8003444094488189
21
0.6429121653543307
0
LINE
8
BLACK
6
CONTINUOUS
10
0.8003444094488189
20
0.6429121653543307
11
0.8001940157480315
21
0.6428198031496063
0
LINE
8
BLACK
6
CONTINUOUS
10
0.8001940157480315
20
0.6428198031496063
11
0.8001194094488189
21
0.6426597637795275
0
LINE
8
BLACK
6
CONTINUOUS
10
0.8001194094488189
20
0.6426597637795275
11
0.796369842519685
21
0.6389102362204724
0
LINE
8
BLACK
6
CONTINUOUS
10
0.796369842519685
20
0.6389102362204724
11
0.7955298031496063
21
0.6383220078740157
0
LINE
8
BLACK
6
CONTINUOUS
10
0.7955298031496063
20
0.6383220078740157
11
0.7953538582677165
21
0.6383066535433071
0
LINE
8
BLACK
6
CONTINUOUS
10
0.7953538582677165
20
0.6383066535433071
11
0.7952156692913386
21
0.6381969291338583
0
LINE
8
BLACK
6
CONTINUOUS
10
0.7952156692913386
20
0.6381969291338583
11
0.7895913779527559
21
0.6363221653543307
0
LINE
8
BLACK
6
CONTINUOUS
10
0.7895913779527559
20
0.6363221653543307
11
0.7887181889763779
21
0.6361927165354331
0
LINE
8
BLACK
6
CONTINUOUS
10
0.7887181889763779
20
0.6361927165354331
11
0.7886576377952755
21
0.6361706299212598
0
LINE
8
BLACK
6
CONTINUOUS
10
0.7886576377952755
20
0.6361706299212598
11
0.7605361811023622
21
0.6361706299212598
0
LINE
8
BLACK
6
CONTINUOUS
10
0.7605361811023622
20
0.6361706299212598
11
0.7595262598425196
21
0.6363487007874016
0
LINE
8
BLACK
6
CONTINUOUS
10
0.7595262598425196
20
0.6363487007874016
11
0.7579790157480315
21
0.6376470078740157
0
LINE
8
BLACK
6
CONTINUOUS
10
0.7579790157480315
20
0.6376470078740157
11
0.7576282677165355
21
0.6396361417322834
0
LINE
8
BLACK
6
CONTINUOUS
10
0.7576282677165355
20
0.6396361417322834
11
0.7586381889763779
21
0.6413853149606299
0
LINE
8
BLACK
6
CONTINUOUS
10
0.7586381889763779
20
0.6413853149606299
11
0.7605361811023622
21
0.6420761417322834
0
LINE
8
BLACK
6
CONTINUOUS
10
0.7605361811023622
20
0.6420761417322834
11
0.7881785039370078
21
0.6420761417322834
0
LINE
8
BLACK
6
CONTINUOUS
10
0.7881785039370078
20
0.6420761417322834
11
0.7926868897637795
21
0.6435789763779527
0
LINE
8
BLACK
6
CONTINUOUS
10
0.7926868897637795
20
0.6435789763779527
11
0.7954507086614173
21
0.6463427559055118
0
LINE
8
BLACK
6
CONTINUOUS
10
0.7954507086614173
20
0.6463427559055118
11
0.7969535039370078
21
0.6508511023622047
0
LINE
8
BLACK
6
CONTINUOUS
10
0.7969535039370078
20
0.6508511023622047
11
0.7969535039370078
21
0.6541214960629921
0
LINE
8
BLACK
6
CONTINUOUS
10
0.7969535039370078
20
0.6541214960629921
11
0.7971315748031496
21
0.6551314173228346
0
LINE
8
BLACK
6
CONTINUOUS
10
0.7971315748031496
20
0.6551314173228346
11
0.7984298818897637
21
0.6566786614173228
0
LINE
8
BLACK
6
CONTINUOUS
10
0.7984298818897637
20
0.6566786614173228
11
0.8004190157480314
21
0.6570294094488189
0
LINE
8
BLACK
6
CONTINUOUS
10
0.8004190157480314
20
0.6570294094488189
11
0.802168188976378
21
0.6560194881889764
0
LINE
8
BLACK
6
CONTINUOUS
10
0.4421681889763779
20
0.6620194881889764
11
0.4428590157480315
21
0.6601214960629921
0
LINE
8
BLACK
6
CONTINUOUS
10
0.4428590157480315
20
0.6601214960629921
11
0.4428590157480315
21
0.656371968503937
0
LINE
8
BLACK
6
CONTINUOUS
10
0.4428590157480315
20
0.656371968503937
11
0.4427057086614173
21
0.6555025984251969
0
LINE
8
BLACK
6
CONTINUOUS
10
0.4427057086614173
20
0.6555025984251969
11
0.4427074803149606
21
0.655438188976378
0
LINE
8
BLACK
6
CONTINUOUS
10
0.4427074803149606
20
0.655438188976378
11
0.440832716535433
21
0.649813937007874
0
LINE
8
BLACK
6
CONTINUOUS
10
0.440832716535433
20
0.649813937007874
11
0.4403444094488189
21
0.6489121653543307
0
LINE
8
BLACK
6
CONTINUOUS
10
0.4403444094488189
20
0.6489121653543307
11
0.4401940157480315
21
0.6488198031496063
0
LINE
8
BLACK
6
CONTINUOUS
10
0.4401940157480315
20
0.6488198031496063
11
0.4401194094488189
21
0.6486597637795275
0
LINE
8
BLACK
6
CONTINUOUS
10
0.4401194094488189
20
0.6486597637795275
11
0.436369842519685
21
0.6449102362204724
0
LINE
8
BLACK
6
CONTINUOUS
10
0.436369842519685
20
0.6449102362204724
11
0.4355298031496063
21
0.6443220078740157
0
LINE
8
BLACK
6
CONTINUOUS
10
0.4355298031496063
20
0.6443220078740157
11
0.4353538582677165
21
0.6443066535433071
0
LINE
8
BLACK
6
CONTINUOUS
10
0.4353538582677165
20
0.6443066535433071
11
0.4352156692913386
21
0.6441969291338583
0
LINE
8
BLACK
6
CONTINUOUS
10
0.4352156692913386
20
0.6441969291338583
11
0.4295913779527559
21
0.6423221653543307
0
LINE
8
BLACK
6
CONTINUOUS
10
0.4295913779527559
20
0.6423221653543307
11
0.4287181889763779
21
0.6421927165354331
0
LINE
8
BLACK
6
CONTINUOUS
10
0.4287181889763779
20
0.6421927165354331
11
0.4286576377952756
21
0.6421706299212598
0
LINE
8
BLACK
6
CONTINUOUS
10
0.4286576377952756
20
0.6421706299212598
11
0.4005361811023622
21
0.6421706299212598
0
LINE
8
BLACK
6
CONTINUOUS
10
0.4005361811023622
20
0.6421706299212598
11
0.3995262598425197
21
0.6423487007874016
0
LINE
8
BLACK
6
CONTINUOUS
10
0.3995262598425197
20
0.6423487007874016
11
0.3979790157480315
21
0.6436470078740157
0
LINE
8
BLACK
6
CONTINUOUS
10
0.3979790157480315
20
0.6436470078740157
11
0.3976282677165354
21
0.6456361417322835
0
LINE
8
BLACK
6
CONTINUOUS
10
0.3976282677165354
20
0.6456361417322835
11
0.3986381889763779
21
0.6473853149606299
0
LINE
8
BLACK
6
CONTINUOUS
10
0.3986381889763779
20
0.6473853149606299
11
0.4005361811023622
21
0.6480761417322835
0
LINE
8
BLACK
6
CONTINUOUS
10
0.4005361811023622
20
0.6480761417322835
11
0.4281785039370078
21
0.6480761417322835
0
LINE
8
BLACK
6
CONTINUOUS
10
0.4281785039370078
20
0.6480761417322835
11
0.4326868897637795
21
0.6495789763779527
0
LINE
8
BLACK
6
CONTINUOUS
10
0.4326868897637795
20
0.6495789763779527
11
0.4354507086614173
21
0.6523427559055118
0
LINE
8
BLACK
6
CONTINUOUS
10
0.4354507086614173
20
0.6523427559055118
11
0.4369535039370079
21
0.6568511023622047
0
LINE
8
BLACK
6
CONTINUOUS
10
0.4369535039370079
20
0.6568511023622047
11
0.4369535039370079
21
0.6601214960629921
0
LINE
8
BLACK
6
CONTINUOUS
10
0.4369535039370079
20
0.6601214960629921
11
0.4371315748031496
21
0.6611314173228346
0
LINE
8
BLACK
6
CONTINUOUS
10
0.4371315748031496
20
0.6611314173228346
11
0.4384298818897638
21
0.6626786614173228
0
LINE
8
BLACK
6
CONTINUOUS
10
0.4384298818897638
20
0.6626786614173228
11
0.4404190157480315
21
0.6630294094488188
0
LINE
8
BLACK
6
CONTINUOUS
10
0.4404190157480315
20
0.6630294094488188
11
0.4421681889763779
21
0.6620194881889764
0
LINE
8
BLACK
6
CONTINUOUS
10
0.2168829133858268
20
0.8984025984251969
11
0.2175748031496063
21
0.8967322834645669
0
LINE
8
BLACK
6
CONTINUOUS
10
0.2175748031496063
20
0.8967322834645669
11
0.2175748031496063
21
0.663267716535433
0
LINE
8
BLACK
6
CONTINUOUS
10
0.2175748031496063
20
0.663267716535433
11
0.2168829133858268
21
0.6615974015748032
0
LINE
8
BLACK
6
CONTINUOUS
10
0.2168829133858268
20
0.6615974015748032
11
0.2152125984251969
21
0.6609055118110236
0
LINE
8
BLACK
6
CONTINUOUS
10
0.2152125984251969
20
0.6609055118110236
11
0.2135422834645669
21
0.6615974015748032
0
LINE
8
BLACK
6
CONTINUOUS
10
0.2135422834645669
20
0.6615974015748032
11
0.2128503937007874
21
0.663267716535433
0
LINE
8
BLACK
6
CONTINUOUS
10
0.2128503937007874
20
0.663267716535433
11
0.2128503937007874
21
0.8967322834645669
0
LINE
8
BLACK
6
CONTINUOUS
10
0.2128503937007874
20
0.8967322834645669
11
0.2135422834645669
21
0.8984025984251969
0
LINE
8
BLACK
6
CONTINUOUS
10
0.2135422834645669
20
0.8984025984251969
11
0.2152125984251969
21
0.8990944881889763
0
LINE
8
BLACK
6
CONTINUOUS
10
0.2152125984251969
20
0.8990944881889763
11
0.2168829133858268
21
0.8984025984251969
0
LINE
8
BLACK
6
CONTINUOUS
10
0.986457716535433
20
0.8984025984251969
11
0.9871496062992126
21
0.8967322834645669
0
LINE
8
BLACK
6
CONTINUOUS
10
0.9871496062992126
20
0.8967322834645669
11
0.9871496062992126
21
0.663267716535433
0
LINE
8
BLACK
6
CONTINUOUS
10
0.9871496062992126
20
0.663267716535433
11
0.986457716535433
21
0.6615974015748032
0
LINE
8
BLACK
6
CONTINUOUS
10
0.986457716535433
20
0.6615974015748032
11
0.9847874015748032
21
0.6609055118110236
0
LINE
8
BLACK
6
CONTINUOUS
10
0.9847874015748032
20
0.6609055118110236
11
0.9831170866141732
21
0.6615974015748032
0
LINE
8
BLACK
6
CONTINUOUS
10
0.9831170866141732
20
0.6615974015748032
11
0.9824251968503936
21
0.663267716535433
0
LINE
8
BLACK
6
CONTINUOUS
10
0.9824251968503936
20
0.663267716535433
11
0.9824251968503936
21
0.8967322834645669
0
LINE
8
BLACK
6
CONTINUOUS
10
0.9824251968503936
20
0.8967322834645669
11
0.9831170866141732
21
0.8984025984251969
0
LINE
8
BLACK
6
CONTINUOUS
10
0.9831170866141732
20
0.8984025984251969
11
0.9847874015748032
21
0.8990944881889763
0
LINE
8
BLACK
6
CONTINUOUS
10
0.9847874015748032
20
0.8990944881889763
11
0.986457716535433
21
0.8984025984251969
0
LINE
8
BLACK
6
CONTINUOUS
10
0.3833228346456693
20
0.9490944881889763
11
0.3849931496062992
21
0.9484025984251968
0
LINE
8
BLACK
6
CONTINUOUS
10
0.3849931496062992
20
0.9484025984251968
11
0.3856850393700788
21
0.9467322834645669
0
LINE
8
BLACK
6
CONTINUOUS
10
0.3856850393700788
20
0.9467322834645669
11
0.3856850393700788
21
0.8758661417322835
0
LINE
8
BLACK
6
CONTINUOUS
10
0.3856850393700788
20
0.8758661417322835
11
0.3849931496062992
21
0.8741958267716535
0
LINE
8
BLACK
6
CONTINUOUS
10
0.3849931496062992
20
0.8741958267716535
11
0.3833228346456693
21
0.873503937007874
0
LINE
8
BLACK
6
CONTINUOUS
10
0.3833228346456693
20
0.873503937007874
11
0.3816525196850394
21
0.8741958267716535
0
LINE
8
BLACK
6
CONTINUOUS
10
0.3816525196850394
20
0.8741958267716535
11
0.3809606299212598
21
0.8758661417322835
0
LINE
8
BLACK
6
CONTINUOUS
10
0.3809606299212598
20
0.8758661417322835
11
0.3809606299212598
21
0.9443700787401574
0
LINE
8
BLACK
6
CONTINUOUS
10
0.3809606299212598
20
0.9443700787401574
11
0.3262362204724409
21
0.9443700787401574
0
LINE
8
BLACK
6
CONTINUOUS
10
0.3262362204724409
20
0.9443700787401574
11
0.324565905511811
21
0.945061968503937
0
LINE
8
BLACK
6
CONTINUOUS
10
0.324565905511811
20
0.945061968503937
11
0.3238740157480315
21
0.9467322834645669
0
LINE
8
BLACK
6
CONTINUOUS
10
0.3238740157480315
20
0.9467322834645669
11
0.324565905511811
21
0.9484025984251968
0
LINE
8
BLACK
6
CONTINUOUS
10
0.324565905511811
20
0.9484025984251968
11
0.3262362204724409
21
0.9490944881889763
0
LINE
8
BLACK
6
CONTINUOUS
10
0.3262362204724409
20
0.9490944881889763
11
0.3833228346456693
21
0.9490944881889763
0
LINE
8
BLACK
6
CONTINUOUS
10
0.875434094488189
20
0.9484025984251968
11
0.8761259842519685
21
0.9467322834645669
0
LINE
8
BLACK
6
CONTINUOUS
10
0.8761259842519685
20
0.9467322834645669
11
0.875434094488189
21
0.945061968503937
0
LINE
8
BLACK
6
CONTINUOUS
10
0.875434094488189
20
0.945061968503937
11
0.873763779527559
21
0.9443700787401574
0
LINE
8
BLACK
6
CONTINUOUS
10
0.873763779527559
20
0.9443700787401574
11
0.8190393700787402
21
0.9443700787401574
0
LINE
8
BLACK
6
CONTINUOUS
10
0.8190393700787402
20
0.9443700787401574
11
0.8190393700787402
21
0.8758661417322835
0
LINE
8
BLACK
6
CONTINUOUS
10
0.8190393700787402
20
0.8758661417322835
11
0.8183474803149606
21
0.8741958267716535
0
LINE
8
BLACK
6
CONTINUOUS
10
0.8183474803149606
20
0.8741958267716535
11
0.8166771653543307
21
0.873503937007874
0
LINE
8
BLACK
6
CONTINUOUS
10
0.8166771653543307
20
0.873503937007874
11
0.7777007874015748
21
0.873503937007874
0
LINE
8
BLACK
6
CONTINUOUS
10
0.7777007874015748
20
0.873503937007874
11
0.7760304724409449
21
0.8741958267716535
0
LINE
8
BLACK
6
CONTINUOUS
10
0.7760304724409449
20
0.8741958267716535
11
0.7753385826771654
21
0.8758661417322835
0
LINE
8
BLACK
6
CONTINUOUS
10
0.7753385826771654
20
0.8758661417322835
11
0.7760304724409449
21
0.8775364566929134
0
LINE
8
BLACK
6
CONTINUOUS
10
0.7760304724409449
20
0.8775364566929134
11
0.7777007874015748
21
0.8782283464566929
0
LINE
8
BLACK
6
CONTINUOUS
10
0.7777007874015748
20
0.8782283464566929
11
0.8143149606299213
21
0.8782283464566929
0
LINE
8
BLACK
6
CONTINUOUS
10
0.8143149606299213
20
0.8782283464566929
11
0.8143149606299213
21
0.9467322834645669
0
LINE
8
BLACK
6
CONTINUOUS
10
0.8143149606299213
20
0.9467322834645669
11
0.8150068503937008
21
0.9484025984251968
0
LINE
8
BLACK
6
CONTINUOUS
10
0.8150068503937008
20
0.9484025984251968
11
0.8166771653543307
21
0.9490944881889763
0
LINE
8
BLACK
6
CONTINUOUS
10
0.8166771653543307
20
0.9490944881889763
11
0.873763779527559
21
0.9490944881889763
0
LINE
8
BLACK
6
CONTINUOUS
10
0.873763779527559
20
0.9490944881889763
11
0.875434094488189
21
0.9484025984251968
0
LINE
8
BLACK
6
CONTINUOUS
10
0.4270733464566929
20
1.0531192125984252
11
0.4272956299212599
21
1.0531583858267717
0
LINE
8
BLACK
6
CONTINUOUS
10
0.4272956299212599
20
1.0531583858267717
11
0.4279931102362204
21
1.0527556692913385
0
LINE
8
BLACK
6
CONTINUOUS
10
0.4279931102362204
20
1.0527556692913385
11
0.4287419291338583
21
1.0524597244094489
0
LINE
8
BLACK
6
CONTINUOUS
10
0.4287419291338583
20
1.0524597244094489
11
0.4288493700787401
21
1.0522612992125984
0
LINE
8
BLACK
6
CONTINUOUS
10
0.4288493700787401
20
1.0522612992125984
11
0.4290448031496063
21
1.052148464566929
0
LINE
8
BLACK
6
CONTINUOUS
10
0.4290448031496063
20
1.052148464566929
11
0.4293201968503937
21
1.0513917716535433
0
LINE
8
BLACK
6
CONTINUOUS
10
0.4293201968503937
20
1.0513917716535433
11
0.4297037007874016
21
1.0506835826771654
0
LINE
8
BLACK
6
CONTINUOUS
10
0.4297037007874016
20
1.0506835826771654
11
0.4296584251968504
21
1.0504625196850395
0
LINE
8
BLACK
6
CONTINUOUS
10
0.4296584251968504
20
1.0504625196850395
11
0.4297356299212599
21
1.0502504724409449
0
LINE
8
BLACK
6
CONTINUOUS
10
0.4297356299212599
20
1.0502504724409449
11
0.4297356299212599
21
1.034455590551181
0
LINE
8
BLACK
6
CONTINUOUS
10
0.4297356299212599
20
1.034455590551181
11
0.4399062598425197
21
1.034455590551181
0
LINE
8
BLACK
6
CONTINUOUS
10
0.4399062598425197
20
1.034455590551181
11
0.4409161811023622
21
1.0342775196850393
0
LINE
8
BLACK
6
CONTINUOUS
10
0.4409161811023622
20
1.0342775196850393
11
0.4424634251968504
21
1.0329792125984252
0
LINE
8
BLACK
6
CONTINUOUS
10
0.4424634251968504
20
1.0329792125984252
11
0.4428141732283464
21
1.0309900787401574
0
LINE
8
BLACK
6
CONTINUOUS
10
0.4428141732283464
20
1.0309900787401574
11
0.4418042519685039
21
1.029240905511811
0
LINE
8
BLACK
6
CONTINUOUS
10
0.4418042519685039
20
1.029240905511811
11
0.4399062598425197
21
1.0285500787401574
0
LINE
8
BLACK
6
CONTINUOUS
10
0.4399062598425197
20
1.0285500787401574
11
0.4297356299212599
21
1.0285500787401574
0
LINE
8
BLACK
6
CONTINUOUS
10
0.4297356299212599
20
1.0285500787401574
11
0.4297356299212599
21
1.0258785433070865
0
LINE
8
BLACK
6
CONTINUOUS
10
0.4297356299212599
20
1.0258785433070865
11
0.4295575590551181
21
1.024868622047244
0
LINE
8
BLACK
6
CONTINUOUS
10
0.4295575590551181
20
1.024868622047244
11
0.428259251968504
21
1.0233213779527559
0
LINE
8
BLACK
6
CONTINUOUS
10
0.428259251968504
20
1.0233213779527559
11
0.4262701181102362
21
1.0229706299212598
0
LINE
8
BLACK
6
CONTINUOUS
10
0.4262701181102362
20
1.0229706299212598
11
0.4245209448818897
21
1.0239805511811024
0
LINE
8
BLACK
6
CONTINUOUS
10
0.4245209448818897
20
1.0239805511811024
11
0.4238301181102362
21
1.0258785433070865
0
LINE
8
BLACK
6
CONTINUOUS
10
0.4238301181102362
20
1.0258785433070865
11
0.4238301181102362
21
1.0285500787401574
0
LINE
8
BLACK
6
CONTINUOUS
10
0.4238301181102362
20
1.0285500787401574
11
0.4136595275590551
21
1.0285500787401574
0
LINE
8
BLACK
6
CONTINUOUS
10
0.4136595275590551
20
1.0285500787401574
11
0.4126496062992126
21
1.0287281496062992
0
LINE
8
BLACK
6
CONTINUOUS
10
0.4126496062992126
20
1.0287281496062992
11
0.4111023622047244
21
1.0300264566929134
0
LINE
8
BLACK
6
CONTINUOUS
10
0.4111023622047244
20
1.0300264566929134
11
0.4107516141732284
21
1.032015590551181
0
LINE
8
BLACK
6
CONTINUOUS
10
0.4107516141732284
20
1.032015590551181
11
0.4117615354330709
21
1.0337647637795275
0
LINE
8
BLACK
6
CONTINUOUS
10
0.4117615354330709
20
1.0337647637795275
11
0.4136595275590551
21
1.034455590551181
0
LINE
8
BLACK
6
CONTINUOUS
10
0.4136595275590551
20
1.034455590551181
11
0.4238301181102362
21
1.034455590551181
0
LINE
8
BLACK
6
CONTINUOUS
10
0.4238301181102362
20
1.034455590551181
11
0.4238301181102362
21
1.0461537795275591
0
LINE
8
BLACK
6
CONTINUOUS
10
0.4238301181102362
20
1.0461537795275591
11
0.3995951574803149
21
1.0380754330708661
0
LINE
8
BLACK
6
CONTINUOUS
10
0.3995951574803149
20
1.0380754330708661
11
0.3985807480314961
21
1.037925
0
LINE
8
BLACK
6
CONTINUOUS
10
0.3985807480314961
20
1.037925
11
0.3967023622047244
21
1.0386674015748032
0
LINE
8
BLACK
6
CONTINUOUS
10
0.3967023622047244
20
1.0386674015748032
11
0.3957405905511811
21
1.0404435433070867
0
LINE
8
BLACK
6
CONTINUOUS
10
0.3957405905511811
20
1.0404435433070867
11
0.3961455511811023
21
1.0424223228346456
0
LINE
8
BLACK
6
CONTINUOUS
10
0.3961455511811023
20
1.0424223228346456
11
0.3977276771653543
21
1.043677874015748
0
LINE
8
BLACK
6
CONTINUOUS
10
0.3977276771653543
20
1.043677874015748
11
0.425849094488189
21
1.0530516929133857
0
LINE
8
BLACK
6
CONTINUOUS
10
0.425849094488189
20
1.0530516929133857
11
0.4268635039370078
21
1.0532021259842519
0
LINE
8
BLACK
6
CONTINUOUS
10
0.4268635039370078
20
1.0532021259842519
11
0.4270733464566929
21
1.0531192125984252
0
LINE
8
BLACK
6
CONTINUOUS
10
0.4239695275590551
20
1.1278041732283464
11
0.4246614173228346
21
1.1261338582677165
0
LINE
8
BLACK
6
CONTINUOUS
10
0.4246614173228346
20
1.1261338582677165
11
0.4239695275590551
21
1.1244635433070866
0
LINE
8
BLACK
6
CONTINUOUS
10
0.4239695275590551
20
1.1244635433070866
11
0.4222992125984252
21
1.1237716535433071
0
LINE
8
BLACK
6
CONTINUOUS
10
0.4222992125984252
20
1.1237716535433071
11
0.3856850393700788
21
1.1237716535433071
0
LINE
8
BLACK
6
CONTINUOUS
10
0.3856850393700788
20
1.1237716535433071
11
0.3856850393700788
21
1.0552677165354329
0
LINE
8
BLACK
6
CONTINUOUS
10
0.3856850393700788
20
1.0552677165354329
11
0.3849931496062992
21
1.0535974015748031
0
LINE
8
BLACK
6
CONTINUOUS
10
0.3849931496062992
20
1.0535974015748031
11
0.3833228346456693
21
1.0529055118110235
0
LINE
8
BLACK
6
CONTINUOUS
10
0.3833228346456693
20
1.0529055118110235
11
0.3262362204724409
21
1.0529055118110235
0
LINE
8
BLACK
6
CONTINUOUS
10
0.3262362204724409
20
1.0529055118110235
11
0.324565905511811
21
1.0535974015748031
0
LINE
8
BLACK
6
CONTINUOUS
10
0.324565905511811
20
1.0535974015748031
11
0.3238740157480315
21
1.0552677165354329
0
LINE
8
BLACK
6
CONTINUOUS
10
0.3238740157480315
20
1.0552677165354329
11
0.324565905511811
21
1.056938031496063
0
LINE
8
BLACK
6
CONTINUOUS
10
0.324565905511811
20
1.056938031496063
11
0.3262362204724409
21
1.0576299212598426
0
LINE
8
BLACK
6
CONTINUOUS
10
0.3262362204724409
20
1.0576299212598426
11
0.3809606299212598
21
1.0576299212598426
0
LINE
8
BLACK
6
CONTINUOUS
10
0.3809606299212598
20
1.0576299212598426
11
0.3809606299212598
21
1.1261338582677165
0
LINE
8
BLACK
6
CONTINUOUS
10
0.3809606299212598
20
1.1261338582677165
11
0.3816525196850394
21
1.1278041732283464
0
LINE
8
BLACK
6
CONTINUOUS
10
0.3816525196850394
20
1.1278041732283464
11
0.3833228346456693
21
1.1284960629921259
0
LINE
8
BLACK
6
CONTINUOUS
10
0.3833228346456693
20
1.1284960629921259
11
0.4222992125984252
21
1.1284960629921259
0
LINE
8
BLACK
6
CONTINUOUS
10
0.4222992125984252
20
1.1284960629921259
11
0.4239695275590551
21
1.1278041732283464
0
LINE
8
BLACK
6
CONTINUOUS
10
0.8183474803149606
20
1.1278041732283464
11
0.8190393700787402
21
1.1261338582677165
0
LINE
8
BLACK
6
CONTINUOUS
10
0.8190393700787402
20
1.1261338582677165
11
0.8190393700787402
21
1.0576299212598426
0
LINE
8
BLACK
6
CONTINUOUS
10
0.8190393700787402
20
1.0576299212598426
11
0.873763779527559
21
1.0576299212598426
0
LINE
8
BLACK
6
CONTINUOUS
10
0.873763779527559
20
1.0576299212598426
11
0.875434094488189
21
1.056938031496063
0
LINE
8
BLACK
6
CONTINUOUS
10
0.875434094488189
20
1.056938031496063
11
0.8761259842519685
21
1.0552677165354329
0
LINE
8
BLACK
6
CONTINUOUS
10
0.8761259842519685
20
1.0552677165354329
11
0.875434094488189
21
1.0535974015748031
0
LINE
8
BLACK
6
CONTINUOUS
10
0.875434094488189
20
1.0535974015748031
11
0.873763779527559
21
1.0529055118110235
0
LINE
8
BLACK
6
CONTINUOUS
10
0.873763779527559
20
1.0529055118110235
11
0.8166771653543307
21
1.0529055118110235
0
LINE
8
BLACK
6
CONTINUOUS
10
0.8166771653543307
20
1.0529055118110235
11
0.8150068503937008
21
1.0535974015748031
0
LINE
8
BLACK
6
CONTINUOUS
10
0.8150068503937008
20
1.0535974015748031
11
0.8143149606299213
21
1.0552677165354329
0
LINE
8
BLACK
6
CONTINUOUS
10
0.8143149606299213
20
1.0552677165354329
11
0.8143149606299213
21
1.1261338582677165
0
LINE
8
BLACK
6
CONTINUOUS
10
0.8143149606299213
20
1.1261338582677165
11
0.8150068503937008
21
1.1278041732283464
0
LINE
8
BLACK
6
CONTINUOUS
10
0.8150068503937008
20
1.1278041732283464
11
0.8166771653543307
21
1.1284960629921259
0
LINE
8
BLACK
6
CONTINUOUS
10
0.8166771653543307
20
1.1284960629921259
11
0.8183474803149606
21
1.1278041732283464
0
LINE
8
BLACK
6
CONTINUOUS
10
0.7885359448818897
20
1.0889656692913385
11
0.7886705118110237
21
1.0889774015748031
0
LINE
8
BLACK
6
CONTINUOUS
10
0.7886705118110237
20
1.0889774015748031
11
0.7893986614173228
21
1.0884675590551181
0
LINE
8
BLACK
6
CONTINUOUS
10
0.7893986614173228
20
1.0884675590551181
11
0.790168188976378
21
1.0880232283464566
0
LINE
8
BLACK
6
CONTINUOUS
10
0.790168188976378
20
1.0880232283464566
11
0.7902143307086614
21
1.087896377952756
0
LINE
8
BLACK
6
CONTINUOUS
10
0.7902143307086614
20
1.087896377952756
11
0.7903250393700787
21
1.0878188582677164
0
LINE
8
BLACK
6
CONTINUOUS
10
0.7903250393700787
20
1.0878188582677164
11
0.7905550393700788
21
1.0869603543307087
0
LINE
8
BLACK
6
CONTINUOUS
10
0.7905550393700788
20
1.0869603543307087
11
0.7908590157480315
21
1.0861252362204725
0
LINE
8
BLACK
6
CONTINUOUS
10
0.7908590157480315
20
1.0861252362204725
11
0.7908590157480315
21
1.0617533070866141
0
LINE
8
BLACK
6
CONTINUOUS
10
0.7908590157480315
20
1.0617533070866141
11
0.7906809448818898
21
1.0607433858267716
0
LINE
8
BLACK
6
CONTINUOUS
10
0.7906809448818898
20
1.0607433858267716
11
0.7893826377952756
21
1.0591961417322835
0
LINE
8
BLACK
6
CONTINUOUS
10
0.7893826377952756
20
1.0591961417322835
11
0.7873935039370079
21
1.0588453937007873
0
LINE
8
BLACK
6
CONTINUOUS
10
0.7873935039370079
20
1.0588453937007873
11
0.7856443307086614
21
1.0598553149606298
0
LINE
8
BLACK
6
CONTINUOUS
10
0.7856443307086614
20
1.0598553149606298
11
0.7849535039370078
21
1.0617533070866141
0
LINE
8
BLACK
6
CONTINUOUS
10
0.7849535039370078
20
1.0617533070866141
11
0.7849535039370078
21
1.0789966929133858
0
LINE
8
BLACK
6
CONTINUOUS
10
0.7849535039370078
20
1.0789966929133858
11
0.767496968503937
21
1.0615401574803149
0
LINE
8
BLACK
6
CONTINUOUS
10
0.767496968503937
20
1.0615401574803149
11
0.7666569291338583
21
1.060951968503937
0
LINE
8
BLACK
6
CONTINUOUS
10
0.7666569291338583
20
1.060951968503937
11
0.7664810629921259
21
1.0609366141732284
0
LINE
8
BLACK
6
CONTINUOUS
10
0.7664810629921259
20
1.0609366141732284
11
0.7663427952755906
21
1.0608268503937008
0
LINE
8
BLACK
6
CONTINUOUS
10
0.7663427952755906
20
1.0608268503937008
11
0.7607185039370079
21
1.0589520866141733
0
LINE
8
BLACK
6
CONTINUOUS
10
0.7607185039370079
20
1.0589520866141733
11
0.7598453149606299
21
1.0588226377952756
0
LINE
8
BLACK
6
CONTINUOUS
10
0.7598453149606299
20
1.0588226377952756
11
0.7597847637795275
21
1.0588005511811023
0
LINE
8
BLACK
6
CONTINUOUS
10
0.7597847637795275
20
1.0588005511811023
11
0.7560352362204724
21
1.0588005511811023
0
LINE
8
BLACK
6
CONTINUOUS
10
0.7560352362204724
20
1.0588005511811023
11
0.7550253149606299
21
1.0589786220472441
0
LINE
8
BLACK
6
CONTINUOUS
10
0.7550253149606299
20
1.0589786220472441
11
0.7548900393700787
21
1.0590921259842518
0
LINE
8
BLACK
6
CONTINUOUS
10
0.7548900393700787
20
1.0590921259842518
11
0.7547147244094488
21
1.059112283464567
0
LINE
8
BLACK
6
CONTINUOUS
10
0.7547147244094488
20
1.059112283464567
11
0.7509651968503936
21
1.0609870472440945
0
LINE
8
BLACK
6
CONTINUOUS
10
0.7509651968503936
20
1.0609870472440945
11
0.7502561023622047
21
1.0615129527559055
0
LINE
8
BLACK
6
CONTINUOUS
10
0.7502561023622047
20
1.0615129527559055
11
0.7501977952755905
21
1.0615401574803149
0
LINE
8
BLACK
6
CONTINUOUS
10
0.7501977952755905
20
1.0615401574803149
11
0.7483230314960629
21
1.0634149212598425
0
LINE
8
BLACK
6
CONTINUOUS
10
0.7483230314960629
20
1.0634149212598425
11
0.7478167322834646
21
1.0641380314960629
0
LINE
8
BLACK
6
CONTINUOUS
10
0.7478167322834646
20
1.0641380314960629
11
0.7477699212598425
21
1.0641823228346456
0
LINE
8
BLACK
6
CONTINUOUS
10
0.7477699212598425
20
1.0641823228346456
11
0.745895157480315
21
1.0679318503937008
0
LINE
8
BLACK
6
CONTINUOUS
10
0.745895157480315
20
1.0679318503937008
11
0.7456027952755905
21
1.0689148031496063
0
LINE
8
BLACK
6
CONTINUOUS
10
0.7456027952755905
20
1.0689148031496063
11
0.745643779527559
21
1.069086496062992
0
LINE
8
BLACK
6
CONTINUOUS
10
0.745643779527559
20
1.069086496062992
11
0.7455834251968504
21
1.0692523622047243
0
LINE
8
BLACK
6
CONTINUOUS
10
0.7455834251968504
20
1.0692523622047243
11
0.7455834251968504
21
1.0786261811023621
0
LINE
8
BLACK
6
CONTINUOUS
10
0.7455834251968504
20
1.0786261811023621
11
0.7457614960629921
21
1.0796361023622048
0
LINE
8
BLACK
6
CONTINUOUS
10
0.7457614960629921
20
1.0796361023622048
11
0.7458749606299212
21
1.0797713779527558
0
LINE
8
BLACK
6
CONTINUOUS
10
0.7458749606299212
20
1.0797713779527558
11
0.745895157480315
21
1.0799466929133859
0
LINE
8
BLACK
6
CONTINUOUS
10
0.745895157480315
20
1.0799466929133859
11
0.7477699212598425
21
1.083696220472441
0
LINE
8
BLACK
6
CONTINUOUS
10
0.7477699212598425
20
1.083696220472441
11
0.7482958267716535
21
1.0844053149606299
0
LINE
8
BLACK
6
CONTINUOUS
10
0.7482958267716535
20
1.0844053149606299
11
0.7483230314960629
21
1.0844636220472441
0
LINE
8
BLACK
6
CONTINUOUS
10
0.7483230314960629
20
1.0844636220472441
11
0.7501977952755905
21
1.0863383858267717
0
LINE
8
BLACK
6
CONTINUOUS
10
0.7501977952755905
20
1.0863383858267717
11
0.7510378346456693
21
1.0869265748031496
0
LINE
8
BLACK
6
CONTINUOUS
10
0.7510378346456693
20
1.0869265748031496
11
0.7530499212598425
21
1.0871025984251967
0
LINE
8
BLACK
6
CONTINUOUS
10
0.7530499212598425
20
1.0871025984251967
11
0.7547044881889764
21
1.0859440944881888
0
LINE
8
BLACK
6
CONTINUOUS
10
0.7547044881889764
20
1.0859440944881888
11
0.7552272047244094
21
1.0839931102362204
0
LINE
8
BLACK
6
CONTINUOUS
10
0.7552272047244094
20
1.0839931102362204
11
0.7543736220472441
21
1.082162559055118
0
LINE
8
BLACK
6
CONTINUOUS
10
0.7543736220472441
20
1.082162559055118
11
0.7528376771653543
21
1.0806266141732284
0
LINE
8
BLACK
6
CONTINUOUS
10
0.7528376771653543
20
1.0806266141732284
11
0.751488937007874
21
1.0779291338582677
0
LINE
8
BLACK
6
CONTINUOUS
10
0.751488937007874
20
1.0779291338582677
11
0.751488937007874
21
1.0699494094488189
0
LINE
8
BLACK
6
CONTINUOUS
10
0.751488937007874
20
1.0699494094488189
11
0.7528376771653543
21
1.0672519291338582
0
LINE
8
BLACK
6
CONTINUOUS
10
0.7528376771653543
20
1.0672519291338582
11
0.7540348031496062
21
1.0660548031496062
0
LINE
8
BLACK
6
CONTINUOUS
10
0.7540348031496062
20
1.0660548031496062
11
0.7567322834645669
21
1.0647060629921259
0
LINE
8
BLACK
6
CONTINUOUS
10
0.7567322834645669
20
1.0647060629921259
11
0.7593056299212598
21
1.0647060629921259
0
LINE
8
BLACK
6
CONTINUOUS
10
0.7593056299212598
20
1.0647060629921259
11
0.7638140157480314
21
1.0662088976377952
0
LINE
8
BLACK
6
CONTINUOUS
10
0.7638140157480314
20
1.0662088976377952
11
0.7858183464566929
21
1.0882131496062992
0
LINE
8
BLACK
6
CONTINUOUS
10
0.7858183464566929
20
1.0882131496062992
11
0.7863463779527559
21
1.0885829527559054
0
LINE
8
BLACK
6
CONTINUOUS
10
0.7863463779527559
20
1.0885829527559054
11
0.7864298818897638
21
1.0886824015748031
0
LINE
8
BLACK
6
CONTINUOUS
10
0.7864298818897638
20
1.0886824015748031
11
0.786508188976378
21
1.0886962204724409
0
LINE
8
BLACK
6
CONTINUOUS
10
0.786508188976378
20
1.0886962204724409
11
0.7866583858267716
21
1.0888013779527559
0
LINE
8
BLACK
6
CONTINUOUS
10
0.7866583858267716
20
1.0888013779527559
11
0.787543937007874
21
1.0888788582677165
0
LINE
8
BLACK
6
CONTINUOUS
10
0.787543937007874
20
1.0888788582677165
11
0.7884190157480315
21
1.0890331496062993
0
LINE
8
BLACK
6
CONTINUOUS
10
0.7884190157480315
20
1.0890331496062993
11
0.7885359448818897
21
1.0889656692913385
0
LINE
8
BLACK
6
CONTINUOUS
10
0.4421681889763779
20
1.0840194881889764
11
0.4428590157480315
21
1.0821214960629921
0
LINE
8
BLACK
6
CONTINUOUS
10
0.4428590157480315
20
1.0821214960629921
11
0.4428590157480315
21
1.078371968503937
0
LINE
8
BLACK
6
CONTINUOUS
10
0.4428590157480315
20
1.078371968503937
11
0.4427057086614173
21
1.0775025984251969
0
LINE
8
BLACK
6
CONTINUOUS
10
0.4427057086614173
20
1.0775025984251969
11
0.4427074803149606
21
1.077438188976378
0
LINE
8
BLACK
6
CONTINUOUS
10
0.4427074803149606
20
1.077438188976378
11
0.440832716535433
21
1.0718139370078741
0
LINE
8
BLACK
6
CONTINUOUS
10
0.440832716535433
20
1.0718139370078741
11
0.4403444094488189
21
1.0709121653543308
0
LINE
8
BLACK
6
CONTINUOUS
10
0.4403444094488189
20
1.0709121653543308
11
0.4401940157480315
21
1.0708198031496063
0
LINE
8
BLACK
6
CONTINUOUS
10
0.4401940157480315
20
1.0708198031496063
11
0.4401194094488189
21
1.0706597637795274
0
LINE
8
BLACK
6
CONTINUOUS
10
0.4401194094488189
20
1.0706597637795274
11
0.436369842519685
21
1.0669102362204723
0
LINE
8
BLACK
6
CONTINUOUS
10
0.436369842519685
20
1.0669102362204723
11
0.4355298031496063
21
1.0663220078740157
0
LINE
8
BLACK
6
CONTINUOUS
10
0.4355298031496063
20
1.0663220078740157
11
0.4353538582677165
21
1.066306653543307
0
LINE
8
BLACK
6
CONTINUOUS
10
0.4353538582677165
20
1.066306653543307
11
0.4352156692913386
21
1.0661969291338582
0
LINE
8
BLACK
6
CONTINUOUS
10
0.4352156692913386
20
1.0661969291338582
11
0.4295913779527559
21
1.0643221653543307
0
LINE
8
BLACK
6
CONTINUOUS
10
0.4295913779527559
20
1.0643221653543307
11
0.4287181889763779
21
1.064192716535433
0
LINE
8
BLACK
6
CONTINUOUS
10
0.4287181889763779
20
1.064192716535433
11
0.4286576377952756
21
1.0641706299212599
0
LINE
8
BLACK
6
CONTINUOUS
10
0.4286576377952756
20
1.0641706299212599
11
0.4005361811023622
21
1.0641706299212599
0
LINE
8
BLACK
6
CONTINUOUS
10
0.4005361811023622
20
1.0641706299212599
11
0.3995262598425197
21
1.0643487007874015
0
LINE
8
BLACK
6
CONTINUOUS
10
0.3995262598425197
20
1.0643487007874015
11
0.3979790157480315
21
1.0656470078740157
0
LINE
8
BLACK
6
CONTINUOUS
10
0.3979790157480315
20
1.0656470078740157
11
0.3976282677165354
21
1.0676361417322835
0
LINE
8
BLACK
6
CONTINUOUS
10
0.3976282677165354
20
1.0676361417322835
11
0.3986381889763779
21
1.0693853149606298
0
LINE
8
BLACK
6
CONTINUOUS
10
0.3986381889763779
20
1.0693853149606298
11
0.4005361811023622
21
1.0700761417322835
0
LINE
8
BLACK
6
CONTINUOUS
10
0.4005361811023622
20
1.0700761417322835
11
0.4281785039370078
21
1.0700761417322835
0
LINE
8
BLACK
6
CONTINUOUS
10
0.4281785039370078
20
1.0700761417322835
11
0.4326868897637795
21
1.0715789763779526
0
LINE
8
BLACK
6
CONTINUOUS
10
0.4326868897637795
20
1.0715789763779526
11
0.4354507086614173
21
1.0743427559055119
0
LINE
8
BLACK
6
CONTINUOUS
10
0.4354507086614173
20
1.0743427559055119
11
0.4369535039370079
21
1.0788511023622047
0
LINE
8
BLACK
6
CONTINUOUS
10
0.4369535039370079
20
1.0788511023622047
11
0.4369535039370079
21
1.0821214960629921
0
LINE
8
BLACK
6
CONTINUOUS
10
0.4369535039370079
20
1.0821214960629921
11
0.4371315748031496
21
1.0831314173228346
0
LINE
8
BLACK
6
CONTINUOUS
10
0.4371315748031496
20
1.0831314173228346
11
0.4384298818897638
21
1.0846786614173227
0
LINE
8
BLACK
6
CONTINUOUS
10
0.4384298818897638
20
1.0846786614173227
11
0.4404190157480315
21
1.0850294094488189
0
LINE
8
BLACK
6
CONTINUOUS
10
0.4404190157480315
20
1.0850294094488189
11
0.4421681889763779
21
1.0840194881889764
0
LINE
8
BLACK
6
CONTINUOUS
10
0.790168188976378
20
1.1180194881889765
11
0.7908590157480315
21
1.1161214960629922
0
LINE
8
BLACK
6
CONTINUOUS
10
0.7908590157480315
20
1.1161214960629922
11
0.7908590157480315
21
1.112371968503937
0
LINE
8
BLACK
6
CONTINUOUS
10
0.7908590157480315
20
1.112371968503937
11
0.7907057086614173
21
1.1115025984251967
0
LINE
8
BLACK
6
CONTINUOUS
10
0.7907057086614173
20
1.1115025984251967
11
0.7907074803149606
21
1.111438188976378
0
LINE
8
BLACK
6
CONTINUOUS
10
0.7907074803149606
20
1.111438188976378
11
0.7888327165354331
21
1.1058139370078739
0
LINE
8
BLACK
6
CONTINUOUS
10
0.7888327165354331
20
1.1058139370078739
11
0.7883444094488189
21
1.1049121653543308
0
LINE
8
BLACK
6
CONTINUOUS
10
0.7883444094488189
20
1.1049121653543308
11
0.7881940157480315
21
1.1048198031496064
0
LINE
8
BLACK
6
CONTINUOUS
10
0.7881940157480315
20
1.1048198031496064
11
0.7881194094488189
21
1.1046597637795275
0
LINE
8
BLACK
6
CONTINUOUS
10
0.7881194094488189
20
1.1046597637795275
11
0.784369842519685
21
1.1009102362204723
0
LINE
8
BLACK
6
CONTINUOUS
10
0.784369842519685
20
1.1009102362204723
11
0.7835298031496063
21
1.1003220078740157
0
LINE
8
BLACK
6
CONTINUOUS
10
0.7835298031496063
20
1.1003220078740157
11
0.7833538582677165
21
1.100306653543307
0
LINE
8
BLACK
6
CONTINUOUS
10
0.7833538582677165
20
1.100306653543307
11
0.7832156692913386
21
1.1001969291338582
0
LINE
8
BLACK
6
CONTINUOUS
10
0.7832156692913386
20
1.1001969291338582
11
0.7775913779527559
21
1.0983221653543307
0
LINE
8
BLACK
6
CONTINUOUS
10
0.7775913779527559
20
1.0983221653543307
11
0.7767181889763779
21
1.098192716535433
0
LINE
8
BLACK
6
CONTINUOUS
10
0.7767181889763779
20
1.098192716535433
11
0.7766576377952755
21
1.0981706299212599
0
LINE
8
BLACK
6
CONTINUOUS
10
0.7766576377952755
20
1.0981706299212599
11
0.7485361811023622
21
1.0981706299212599
0
LINE
8
BLACK
6
CONTINUOUS
10
0.7485361811023622
20
1.0981706299212599
11
0.7475262598425196
21
1.0983487007874015
0
LINE
8
BLACK
6
CONTINUOUS
10
0.7475262598425196
20
1.0983487007874015
11
0.7459790157480315
21
1.0996470078740157
0
LINE
8
BLACK
6
CONTINUOUS
10
0.7459790157480315
20
1.0996470078740157
11
0.7456282677165355
21
1.1016361417322835
0
LINE
8
BLACK
6
CONTINUOUS
10
0.7456282677165355
20
1.1016361417322835
11
0.7466381889763779
21
1.1033853149606299
0
LINE
8
BLACK
6
CONTINUOUS
10
0.7466381889763779
20
1.1033853149606299
11
0.7485361811023622
21
1.1040761417322835
0
LINE
8
BLACK
6
CONTINUOUS
10
0.7485361811023622
20
1.1040761417322835
11
0.7761785039370078
21
1.1040761417322835
0
LINE
8
BLACK
6
CONTINUOUS
10
0.7761785039370078
20
1.1040761417322835
11
0.7806868897637795
21
1.1055789763779527
0
LINE
8
BLACK
6
CONTINUOUS
10
0.7806868897637795
20
1.1055789763779527
11
0.7834507086614173
21
1.1083427559055117
0
LINE
8
BLACK
6
CONTINUOUS
10
0.7834507086614173
20
1.1083427559055117
11
0.7849535039370078
21
1.1128511023622047
0
LINE
8
BLACK
6
CONTINUOUS
10
0.7849535039370078
20
1.1128511023622047
11
0.7849535039370078
21
1.1161214960629922
0
LINE
8
BLACK
6
CONTINUOUS
10
0.7849535039370078
20
1.1161214960629922
11
0.7851315748031495
21
1.1171314173228346
0
LINE
8
BLACK
6
CONTINUOUS
10
0.7851315748031495
20
1.1171314173228346
11
0.7864298818897638
21
1.1186786614173228
0
LINE
8
BLACK
6
CONTINUOUS
10
0.7864298818897638
20
1.1186786614173228
11
0.7884190157480315
21
1.1190294094488189
0
LINE
8
BLACK
6
CONTINUOUS
10
0.7884190157480315
20
1.1190294094488189
11
0.790168188976378
21
1.1180194881889765
0
LINE
8
BLACK
6
CONTINUOUS
10
0.2168829133858268
20
1.3404025984251968
11
0.2175748031496063
21
1.338732283464567
0
LINE
8
BLACK
6
CONTINUOUS
10
0.2175748031496063
20
1.338732283464567
11
0.2175748031496063
21
1.105267716535433
0
LINE
8
BLACK
6
CONTINUOUS
10
0.2175748031496063
20
1.105267716535433
11
0.2168829133858268
21
1.1035974015748031
0
LINE
8
BLACK
6
CONTINUOUS
10
0.2168829133858268
20
1.1035974015748031
11
0.2152125984251969
21
1.1029055118110236
0
LINE
8
BLACK
6
CONTINUOUS
10
0.2152125984251969
20
1.1029055118110236
11
0.2135422834645669
21
1.1035974015748031
0
LINE
8
BLACK
6
CONTINUOUS
10
0.2135422834645669
20
1.1035974015748031
11
0.2128503937007874
21
1.105267716535433
0
LINE
8
BLACK
6
CONTINUOUS
10
0.2128503937007874
20
1.105267716535433
11
0.2128503937007874
21
1.338732283464567
0
LINE
8
BLACK
6
CONTINUOUS
10
0.2128503937007874
20
1.338732283464567
11
0.2135422834645669
21
1.3404025984251968
0
LINE
8
BLACK
6
CONTINUOUS
10
0.2135422834645669
20
1.3404025984251968
11
0.2152125984251969
21
1.3410944881889764
0
LINE
8
BLACK
6
CONTINUOUS
10
0.2152125984251969
20
1.3410944881889764
11
0.2168829133858268
21
1.3404025984251968
0
LINE
8
BLACK
6
CONTINUOUS
10
0.986457716535433
20
1.3404025984251968
11
0.9871496062992126
21
1.338732283464567
0
LINE
8
BLACK
6
CONTINUOUS
10
0.9871496062992126
20
1.338732283464567
11
0.9871496062992126
21
1.105267716535433
0
LINE
8
BLACK
6
CONTINUOUS
10
0.9871496062992126
20
1.105267716535433
11
0.986457716535433
21
1.1035974015748031
0
LINE
8
BLACK
6
CONTINUOUS
10
0.986457716535433
20
1.1035974015748031
11
0.9847874015748032
21
1.1029055118110236
0
LINE
8
BLACK
6
CONTINUOUS
10
0.9847874015748032
20
1.1029055118110236
11
0.9831170866141732
21
1.1035974015748031
0
LINE
8
BLACK
6
CONTINUOUS
10
0.9831170866141732
20
1.1035974015748031
11
0.9824251968503936
21
1.105267716535433
0
LINE
8
BLACK
6
CONTINUOUS
10
0.9824251968503936
20
1.105267716535433
11
0.9824251968503936
21
1.338732283464567
0
LINE
8
BLACK
6
CONTINUOUS
10
0.9824251968503936
20
1.338732283464567
11
0.9831170866141732
21
1.3404025984251968
0
LINE
8
BLACK
6
CONTINUOUS
10
0.9831170866141732
20
1.3404025984251968
11
0.9847874015748032
21
1.3410944881889764
0
LINE
8
BLACK
6
CONTINUOUS
10
0.9847874015748032
20
1.3410944881889764
11
0.986457716535433
21
1.3404025984251968
0
LINE
8
BLACK
6
CONTINUOUS
10
0.3833228346456693
20
1.3910944881889764
11
0.3849931496062992
21
1.3904025984251969
0
LINE
8
BLACK
6
CONTINUOUS
10
0.3849931496062992
20
1.3904025984251969
11
0.3856850393700788
21
1.388732283464567
0
LINE
8
BLACK
6
CONTINUOUS
10
0.3856850393700788
20
1.388732283464567
11
0.3856850393700788
21
1.3178661417322834
0
LINE
8
BLACK
6
CONTINUOUS
10
0.3856850393700788
20
1.3178661417322834
11
0.3849931496062992
21
1.3161958267716536
0
LINE
8
BLACK
6
CONTINUOUS
10
0.3849931496062992
20
1.3161958267716536
11
0.3833228346456693
21
1.315503937007874
0
LINE
8
BLACK
6
CONTINUOUS
10
0.3833228346456693
20
1.315503937007874
11
0.3816525196850394
21
1.3161958267716536
0
LINE
8
BLACK
6
CONTINUOUS
10
0.3816525196850394
20
1.3161958267716536
11
0.3809606299212598
21
1.3178661417322834
0
LINE
8
BLACK
6
CONTINUOUS
10
0.3809606299212598
20
1.3178661417322834
11
0.3809606299212598
21
1.3863700787401574
0
LINE
8
BLACK
6
CONTINUOUS
10
0.3809606299212598
20
1.3863700787401574
11
0.3262362204724409
21
1.3863700787401574
0
LINE
8
BLACK
6
CONTINUOUS
10
0.3262362204724409
20
1.3863700787401574
11
0.324565905511811
21
1.3870619685039369
0
LINE
8
BLACK
6
CONTINUOUS
10
0.324565905511811
20
1.3870619685039369
11
0.3238740157480315
21
1.388732283464567
0
LINE
8
BLACK
6
CONTINUOUS
10
0.3238740157480315
20
1.388732283464567
11
0.324565905511811
21
1.3904025984251969
0
LINE
8
BLACK
6
CONTINUOUS
10
0.324565905511811
20
1.3904025984251969
11
0.3262362204724409
21
1.3910944881889764
0
LINE
8
BLACK
6
CONTINUOUS
10
0.3262362204724409
20
1.3910944881889764
11
0.3833228346456693
21
1.3910944881889764
0
LINE
8
BLACK
6
CONTINUOUS
10
0.875434094488189
20
1.3904025984251969
11
0.8761259842519685
21
1.388732283464567
0
LINE
8
BLACK
6
CONTINUOUS
10
0.8761259842519685
20
1.388732283464567
11
0.875434094488189
21
1.3870619685039369
0
LINE
8
BLACK
6
CONTINUOUS
10
0.875434094488189
20
1.3870619685039369
11
0.873763779527559
21
1.3863700787401574
0
LINE
8
BLACK
6
CONTINUOUS
10
0.873763779527559
20
1.3863700787401574
11
0.8190393700787402
21
1.3863700787401574
0
LINE
8
BLACK
6
CONTINUOUS
10
0.8190393700787402
20
1.3863700787401574
11
0.8190393700787402
21
1.3178661417322834
0
LINE
8
BLACK
6
CONTINUOUS
10
0.8190393700787402
20
1.3178661417322834
11
0.8183474803149606
21
1.3161958267716536
0
LINE
8
BLACK
6
CONTINUOUS
10
0.8183474803149606
20
1.3161958267716536
11
0.8166771653543307
21
1.315503937007874
0
LINE
8
BLACK
6
CONTINUOUS
10
0.8166771653543307
20
1.315503937007874
11
0.7777007874015748
21
1.315503937007874
0
LINE
8
BLACK
6
CONTINUOUS
10
0.7777007874015748
20
1.315503937007874
11
0.7760304724409449
21
1.3161958267716536
0
LINE
8
BLACK
6
CONTINUOUS
10
0.7760304724409449
20
1.3161958267716536
11
0.7753385826771654
21
1.3178661417322834
0
LINE
8
BLACK
6
CONTINUOUS
10
0.7753385826771654
20
1.3178661417322834
11
0.7760304724409449
21
1.3195364566929133
0
LINE
8
BLACK
6
CONTINUOUS
10
0.7760304724409449
20
1.3195364566929133
11
0.7777007874015748
21
1.3202283464566928
0
LINE
8
BLACK
6
CONTINUOUS
10
0.7777007874015748
20
1.3202283464566928
11
0.8143149606299213
21
1.3202283464566928
0
LINE
8
BLACK
6
CONTINUOUS
10
0.8143149606299213
20
1.3202283464566928
11
0.8143149606299213
21
1.388732283464567
0
LINE
8
BLACK
6
CONTINUOUS
10
0.8143149606299213
20
1.388732283464567
11
0.8150068503937008
21
1.3904025984251969
0
LINE
8
BLACK
6
CONTINUOUS
10
0.8150068503937008
20
1.3904025984251969
11
0.8166771653543307
21
1.3910944881889764
0
LINE
8
BLACK
6
CONTINUOUS
10
0.8166771653543307
20
1.3910944881889764
11
0.873763779527559
21
1.3910944881889764
0
LINE
8
BLACK
6
CONTINUOUS
10
0.873763779527559
20
1.3910944881889764
11
0.875434094488189
21
1.3904025984251969
0
CIRCLE
8
BLACK
10
0.8000000393700787
20
1.5999999999999999
40
0.0068897637795276
0
CIRCLE
8
BLACK
10
0.8000000393700787
20
0.4
40
0.0068897637795276
0
CIRCLE
8
BLACK
10
0.4000000393700787
20
0.4
40
0.0068897637795276
0
CIRCLE
8
BLACK
10
0.4000000393700787
20
1.5999999999999999
40
0.0068897637795276
0
CIRCLE
8
BLACK
10
0.5500000393700787
20
1.2
40
0.0068897637795276
0
CIRCLE
8
BLACK
10
0.6500000393700788
20
1.2
40
0.0068897637795276
0
CIRCLE
8
BLACK
10
0.5500000393700787
20
1.0999999999999999
40
0.0068897637795276
0
CIRCLE
8
BLACK
10
0.6500000393700788
20
1.0999999999999999
40
0.0068897637795276
0
CIRCLE
8
BLACK
10
0.5500000393700787
20
1.
40
0.0068897637795276
0
CIRCLE
8
BLACK
10
0.6500000393700788
20
1.
40
0.0068897637795276
0
CIRCLE
8
BLACK
10
0.5500000393700787
20
0.9
40
0.0068897637795276
0
CIRCLE
8
BLACK
10
0.6500000393700788
20
0.9
40
0.0068897637795276
0
CIRCLE
8
BLACK
10
0.5500000393700787
20
0.7999999999999999
40
0.0068897637795276
0
CIRCLE
8
BLACK
10
0.6500000393700788
20
0.7999999999999999
40
0.0068897637795276
  0
ENDSEC
  0
EOF
