  0
SECTION
  2
HEADER
  9
$ANGBASE
  50
0.0
  9
$ANGDIR
  70
1
  9
$MEASUREMENT
  70
0
  0
ENDSEC
  0
SECTION
  2
TABLES
  0
TABLE
  2
LTYPE
  70
4
  0
LTYPE
  5
40F
  2
CONTINUOUS
  70
0
  3
Solid line
  72
65
  73
0
  40
0.0
  0
LTYPE
  5
410
  2
DASHDOT
 70
0
  3
Dash Dot ____ _ ____ _
 72
65
 73
4
 40
2.0
 49
1.25
 49
-0.25
 49
0.25
 49
-0.25
  0
LTYPE
  5
411
  2
DASHED
 70
0
  3
Dashed __ __ __ __ __
 72
65
 73
2
 40
0.75
 49
0.5
 49
-0.25
  0
LTYPE
  5
43B
  2
DOTTED
 70
0
  3
Dotted .  .  .  .
 72
65
 73
2
 40
0.2
 49
0.0
 49
-0.2
  0
ENDTAB
  0
TABLE
  2
STYLE
  70
4
  0
STYLE
  2
KICAD
  70
0
  40
0
  41
1
  42
1
  50
0
  71
0
  3
isocp.shx
  0
STYLE
  2
KICADB
  70
0
  40
0
  41
1
  42
1
  50
0
  71
0
  3
isocp.shx
  0
STYLE
  2
KICADI
  70
0
  40
0
  41
1
  42
1
  50
15
  71
0
  3
isocp.shx
  0
STYLE
  2
KICADBI
  70
0
  40
0
  41
1
  42
1
  50
15
  71
0
  3
isocp.shx
  0
ENDTAB
  0
TABLE
  2
LAYER
  70
1
  0
LAYER
  2
BLACK
  70
0
  62
7
  6
CONTINUOUS
  0
ENDTAB
  0
ENDSEC
  0
SECTION
  2
ENTITIES
0
LINE
8
BLACK
6
CONTINUOUS
10
0.685984
20
0.486811
11
0.68668
21
0.486523
0
LINE
8
BLACK
6
CONTINUOUS
10
0.68668
20
0.486523
11
0.686969
21
0.485827
0
LINE
8
BLACK
6
CONTINUOUS
10
0.686969
20
0.485827
11
0.686969
21
0.114173
0
LINE
8
BLACK
6
CONTINUOUS
10
0.686969
20
0.114173
11
0.68668
21
0.113477
0
LINE
8
BLACK
6
CONTINUOUS
10
0.68668
20
0.113477
11
0.685984
21
0.113189
0
LINE
8
BLACK
6
CONTINUOUS
10
0.685984
20
0.113189
11
0.434016
21
0.113189
0
LINE
8
BLACK
6
CONTINUOUS
10
0.434016
20
0.113189
11
0.43332
21
0.113477
0
LINE
8
BLACK
6
CONTINUOUS
10
0.43332
20
0.113477
11
0.433031
21
0.114173
0
LINE
8
BLACK
6
CONTINUOUS
10
0.433031
20
0.114173
11
0.433031
21
0.485827
0
LINE
8
BLACK
6
CONTINUOUS
10
0.433031
20
0.485827
11
0.43332
21
0.486523
0
LINE
8
BLACK
6
CONTINUOUS
10
0.43332
20
0.486523
11
0.434016
21
0.486811
0
LINE
8
BLACK
6
CONTINUOUS
10
0.434016
20
0.486811
11
0.685984
21
0.486811
0
LINE
8
BLACK
6
CONTINUOUS
10
0.435
20
0.484843
11
0.435
21
0.115157
0
LINE
8
BLACK
6
CONTINUOUS
10
0.435
20
0.115157
11
0.685
21
0.115157
0
LINE
8
BLACK
6
CONTINUOUS
10
0.685
20
0.115157
11
0.685
21
0.484843
0
LINE
8
BLACK
6
CONTINUOUS
10
0.685
20
0.484843
11
0.435
21
0.484843
0
LINE
8
BLACK
6
CONTINUOUS
10
0.685984
20
0.926811
11
0.68668
21
0.926523
0
LINE
8
BLACK
6
CONTINUOUS
10
0.68668
20
0.926523
11
0.686969
21
0.925827
0
LINE
8
BLACK
6
CONTINUOUS
10
0.686969
20
0.925827
11
0.686969
21
0.554173
0
LINE
8
BLACK
6
CONTINUOUS
10
0.686969
20
0.554173
11
0.68668
21
0.553477
0
LINE
8
BLACK
6
CONTINUOUS
10
0.68668
20
0.553477
11
0.685984
21
0.553189
0
LINE
8
BLACK
6
CONTINUOUS
10
0.685984
20
0.553189
11
0.434016
21
0.553189
0
LINE
8
BLACK
6
CONTINUOUS
10
0.434016
20
0.553189
11
0.43332
21
0.553477
0
LINE
8
BLACK
6
CONTINUOUS
10
0.43332
20
0.553477
11
0.433031
21
0.554173
0
LINE
8
BLACK
6
CONTINUOUS
10
0.433031
20
0.554173
11
0.433031
21
0.925827
0
LINE
8
BLACK
6
CONTINUOUS
10
0.433031
20
0.925827
11
0.43332
21
0.926523
0
LINE
8
BLACK
6
CONTINUOUS
10
0.43332
20
0.926523
11
0.434016
21
0.926811
0
LINE
8
BLACK
6
CONTINUOUS
10
0.434016
20
0.926811
11
0.685984
21
0.926811
0
LINE
8
BLACK
6
CONTINUOUS
10
0.435
20
0.924843
11
0.435
21
0.555157
0
LINE
8
BLACK
6
CONTINUOUS
10
0.435
20
0.555157
11
0.685
21
0.555157
0
LINE
8
BLACK
6
CONTINUOUS
10
0.685
20
0.555157
11
0.685
21
0.924843
0
LINE
8
BLACK
6
CONTINUOUS
10
0.685
20
0.924843
11
0.435
21
0.924843
  0
ENDSEC
  0
EOF
