  0
SECTION
  2
HEADER
  9
$ANGBASE
  50
0.0
  9
$ANGDIR
  70
1
  9
$MEASUREMENT
  70
0
  0
ENDSEC
  0
SECTION
  2
TABLES
  0
TABLE
  2
LTYPE
  70
4
  0
LTYPE
  5
40F
  2
CONTINUOUS
  70
0
  3
Solid line
  72
65
  73
0
  40
0.0
  0
LTYPE
  5
410
  2
DASHDOT
 70
0
  3
Dash Dot ____ _ ____ _
 72
65
 73
4
 40
2.0
 49
1.25
 49
-0.25
 49
0.25
 49
-0.25
  0
LTYPE
  5
411
  2
DASHED
 70
0
  3
Dashed __ __ __ __ __
 72
65
 73
2
 40
0.75
 49
0.5
 49
-0.25
  0
LTYPE
  5
43B
  2
DOTTED
 70
0
  3
Dotted .  .  .  .
 72
65
 73
2
 40
0.2
 49
0.0
 49
-0.2
  0
ENDTAB
  0
TABLE
  2
STYLE
  70
4
  0
STYLE
  2
KICAD
  70
0
  40
0
  41
1
  42
1
  50
0
  71
0
  3
isocp.shx
  0
STYLE
  2
KICADB
  70
0
  40
0
  41
1
  42
1
  50
0
  71
0
  3
isocp.shx
  0
STYLE
  2
KICADI
  70
0
  40
0
  41
1
  42
1
  50
15
  71
0
  3
isocp.shx
  0
STYLE
  2
KICADBI
  70
0
  40
0
  41
1
  42
1
  50
15
  71
0
  3
isocp.shx
  0
ENDTAB
  0
TABLE
  2
LAYER
  70
1
  0
LAYER
  2
BLACK
  70
0
  62
7
  6
CONTINUOUS
  0
ENDTAB
  0
ENDSEC
  0
SECTION
  2
ENTITIES
0
LINE
8
BLACK
6
CONTINUOUS
10
0.4140627952755905
20
0.5248102362204724
11
0.4279486614173229
21
0.5224509448818897
0
LINE
8
BLACK
6
CONTINUOUS
10
0.4279486614173229
20
0.5224509448818897
11
0.4414830708661417
21
0.5185517322834645
0
LINE
8
BLACK
6
CONTINUOUS
10
0.4414830708661417
20
0.5185517322834645
11
0.4544958267716535
21
0.5131616929133859
0
LINE
8
BLACK
6
CONTINUOUS
10
0.4544958267716535
20
0.5131616929133859
11
0.4668232677165354
21
0.5063485433070866
0
LINE
8
BLACK
6
CONTINUOUS
10
0.4668232677165354
20
0.5063485433070866
11
0.4783103543307087
21
0.498198031496063
0
LINE
8
BLACK
6
CONTINUOUS
10
0.4783103543307087
20
0.498198031496063
11
0.4888126377952756
21
0.4888125984251969
0
LINE
8
BLACK
6
CONTINUOUS
10
0.4888126377952756
20
0.4888125984251969
11
0.4981980708661417
21
0.4783103149606299
0
LINE
8
BLACK
6
CONTINUOUS
10
0.4981980708661417
20
0.4783103149606299
11
0.5063485826771653
21
0.4668232283464567
0
LINE
8
BLACK
6
CONTINUOUS
10
0.5063485826771653
20
0.4668232283464567
11
0.5131617322834645
21
0.4544957874015748
0
LINE
8
BLACK
6
CONTINUOUS
10
0.5131617322834645
20
0.4544957874015748
11
0.5185517716535433
21
0.441483031496063
0
LINE
8
BLACK
6
CONTINUOUS
10
0.5185517716535433
20
0.441483031496063
11
0.5224509842519685
21
0.4279486220472441
0
LINE
8
BLACK
6
CONTINUOUS
10
0.5224509842519685
20
0.4279486220472441
11
0.5248102755905512
21
0.4140627559055118
0
LINE
8
BLACK
6
CONTINUOUS
10
0.5248102755905512
20
0.4140627559055118
11
0.5256000393700787
21
0.4
0
LINE
8
BLACK
6
CONTINUOUS
10
0.5256000393700787
20
0.4
11
0.5248102755905512
21
0.3859372440944882
0
LINE
8
BLACK
6
CONTINUOUS
10
0.5248102755905512
20
0.3859372440944882
11
0.5224509842519685
21
0.3720513779527559
0
LINE
8
BLACK
6
CONTINUOUS
10
0.5224509842519685
20
0.3720513779527559
11
0.5185517716535433
21
0.358516968503937
0
LINE
8
BLACK
6
CONTINUOUS
10
0.5185517716535433
20
0.358516968503937
11
0.5131617322834645
21
0.3455042125984252
0
LINE
8
BLACK
6
CONTINUOUS
10
0.5131617322834645
20
0.3455042125984252
11
0.5063485826771653
21
0.3331767716535433
0
LINE
8
BLACK
6
CONTINUOUS
10
0.5063485826771653
20
0.3331767716535433
11
0.4981980708661417
21
0.3216896850393701
0
LINE
8
BLACK
6
CONTINUOUS
10
0.4981980708661417
20
0.3216896850393701
11
0.4888126377952756
21
0.3111874015748031
0
LINE
8
BLACK
6
CONTINUOUS
10
0.4888126377952756
20
0.3111874015748031
11
0.4783103543307087
21
0.301801968503937
0
LINE
8
BLACK
6
CONTINUOUS
10
0.4783103543307087
20
0.301801968503937
11
0.4668232677165354
21
0.2936514566929134
0
LINE
8
BLACK
6
CONTINUOUS
10
0.4668232677165354
20
0.2936514566929134
11
0.4544958267716535
21
0.2868383070866142
0
LINE
8
BLACK
6
CONTINUOUS
10
0.4544958267716535
20
0.2868383070866142
11
0.4414830708661417
21
0.2814482677165354
0
LINE
8
BLACK
6
CONTINUOUS
10
0.4414830708661417
20
0.2814482677165354
11
0.4279486614173229
21
0.2775490551181102
0
LINE
8
BLACK
6
CONTINUOUS
10
0.4279486614173229
20
0.2775490551181102
11
0.4140627952755905
21
0.2751897637795275
0
LINE
8
BLACK
6
CONTINUOUS
10
0.4140627952755905
20
0.2751897637795275
11
0.4000000393700787
21
0.2744
0
LINE
8
BLACK
6
CONTINUOUS
10
0.4000000393700787
20
0.2744
11
0.3859372834645669
21
0.2751897637795275
0
LINE
8
BLACK
6
CONTINUOUS
10
0.3859372834645669
20
0.2751897637795275
11
0.3720514173228346
21
0.2775490551181102
0
LINE
8
BLACK
6
CONTINUOUS
10
0.3720514173228346
20
0.2775490551181102
11
0.3585170078740157
21
0.2814482677165354
0
LINE
8
BLACK
6
CONTINUOUS
10
0.3585170078740157
20
0.2814482677165354
11
0.3455042519685039
21
0.2868383070866142
0
LINE
8
BLACK
6
CONTINUOUS
10
0.3455042519685039
20
0.2868383070866142
11
0.3331768110236221
21
0.2936514566929134
0
LINE
8
BLACK
6
CONTINUOUS
10
0.3331768110236221
20
0.2936514566929134
11
0.3216897244094488
21
0.301801968503937
0
LINE
8
BLACK
6
CONTINUOUS
10
0.3216897244094488
20
0.301801968503937
11
0.3111874409448819
21
0.3111874015748031
0
LINE
8
BLACK
6
CONTINUOUS
10
0.3111874409448819
20
0.3111874015748031
11
0.3018020078740157
21
0.3216896850393701
0
LINE
8
BLACK
6
CONTINUOUS
10
0.3018020078740157
20
0.3216896850393701
11
0.2936514960629921
21
0.3331767716535433
0
LINE
8
BLACK
6
CONTINUOUS
10
0.2936514960629921
20
0.3331767716535433
11
0.2868383464566929
21
0.3455042125984252
0
LINE
8
BLACK
6
CONTINUOUS
10
0.2868383464566929
20
0.3455042125984252
11
0.2814483070866142
21
0.358516968503937
0
LINE
8
BLACK
6
CONTINUOUS
10
0.2814483070866142
20
0.358516968503937
11
0.277549094488189
21
0.3720513779527559
0
LINE
8
BLACK
6
CONTINUOUS
10
0.277549094488189
20
0.3720513779527559
11
0.2751898031496063
21
0.3859372440944882
0
LINE
8
BLACK
6
CONTINUOUS
10
0.2751898031496063
20
0.3859372440944882
11
0.2744000393700787
21
0.4
0
LINE
8
BLACK
6
CONTINUOUS
10
0.2744000393700787
20
0.4
11
0.2751898031496063
21
0.4140627559055118
0
LINE
8
BLACK
6
CONTINUOUS
10
0.2751898031496063
20
0.4140627559055118
11
0.277549094488189
21
0.4279486220472441
0
LINE
8
BLACK
6
CONTINUOUS
10
0.277549094488189
20
0.4279486220472441
11
0.2814483070866142
21
0.441483031496063
0
LINE
8
BLACK
6
CONTINUOUS
10
0.2814483070866142
20
0.441483031496063
11
0.2868383464566929
21
0.4544957874015748
0
LINE
8
BLACK
6
CONTINUOUS
10
0.2868383464566929
20
0.4544957874015748
11
0.2936514960629921
21
0.4668232283464567
0
LINE
8
BLACK
6
CONTINUOUS
10
0.2936514960629921
20
0.4668232283464567
11
0.3018020078740157
21
0.4783103149606299
0
LINE
8
BLACK
6
CONTINUOUS
10
0.3018020078740157
20
0.4783103149606299
11
0.3111874409448819
21
0.4888125984251969
0
LINE
8
BLACK
6
CONTINUOUS
10
0.3111874409448819
20
0.4888125984251969
11
0.3216897244094488
21
0.498198031496063
0
LINE
8
BLACK
6
CONTINUOUS
10
0.3216897244094488
20
0.498198031496063
11
0.3331768110236221
21
0.5063485433070866
0
LINE
8
BLACK
6
CONTINUOUS
10
0.3331768110236221
20
0.5063485433070866
11
0.3455042519685039
21
0.5131616929133859
0
LINE
8
BLACK
6
CONTINUOUS
10
0.3455042519685039
20
0.5131616929133859
11
0.3585170078740157
21
0.5185517322834645
0
LINE
8
BLACK
6
CONTINUOUS
10
0.3585170078740157
20
0.5185517322834645
11
0.3720514173228346
21
0.5224509448818897
0
LINE
8
BLACK
6
CONTINUOUS
10
0.3720514173228346
20
0.5224509448818897
11
0.3859372834645669
21
0.5248102362204724
0
LINE
8
BLACK
6
CONTINUOUS
10
0.3859372834645669
20
0.5248102362204724
11
0.4000000393700787
21
0.5256
0
LINE
8
BLACK
6
CONTINUOUS
10
0.4000000393700787
20
0.5256
11
0.4140627952755905
21
0.5248102362204724
0
LINE
8
BLACK
6
CONTINUOUS
10
0.2899616929133858
20
0.3871383464566929
11
0.2921988976377953
21
0.3744506692913386
0
LINE
8
BLACK
6
CONTINUOUS
10
0.2921988976377953
20
0.3744506692913386
11
0.2958938976377953
21
0.3621084645669291
0
LINE
8
BLACK
6
CONTINUOUS
10
0.2958938976377953
20
0.3621084645669291
11
0.3009967716535433
21
0.3502787007874016
0
LINE
8
BLACK
6
CONTINUOUS
10
0.3009967716535433
20
0.3502787007874016
11
0.3074384645669291
21
0.3391212992125984
0
LINE
8
BLACK
6
CONTINUOUS
10
0.3074384645669291
20
0.3391212992125984
11
0.3151319291338582
21
0.3287872047244094
0
LINE
8
BLACK
6
CONTINUOUS
10
0.3151319291338582
20
0.3287872047244094
11
0.3239730708661417
21
0.3194161417322834
0
LINE
8
BLACK
6
CONTINUOUS
10
0.3239730708661417
20
0.3194161417322834
11
0.3338423622047244
21
0.311134842519685
0
LINE
8
BLACK
6
CONTINUOUS
10
0.3338423622047244
20
0.311134842519685
11
0.3446062992125984
21
0.3040552755905512
0
LINE
8
BLACK
6
CONTINUOUS
10
0.3446062992125984
20
0.3040552755905512
11
0.3561193700787402
21
0.2982731889763779
0
LINE
8
BLACK
6
CONTINUOUS
10
0.3561193700787402
20
0.2982731889763779
11
0.3682258267716536
21
0.2938668110236221
0
LINE
8
BLACK
6
CONTINUOUS
10
0.3682258267716536
20
0.2938668110236221
11
0.3807620078740158
21
0.2908956692913386
0
LINE
8
BLACK
6
CONTINUOUS
10
0.3807620078740158
20
0.2908956692913386
11
0.3935583070866142
21
0.2894
0
LINE
8
BLACK
6
CONTINUOUS
10
0.3935583070866142
20
0.2894
11
0.4064417716535433
21
0.2894
0
LINE
8
BLACK
6
CONTINUOUS
10
0.4064417716535433
20
0.2894
11
0.4192380708661417
21
0.2908956692913386
0
LINE
8
BLACK
6
CONTINUOUS
10
0.4192380708661417
20
0.2908956692913386
11
0.4317742519685039
21
0.2938668110236221
0
LINE
8
BLACK
6
CONTINUOUS
10
0.4317742519685039
20
0.2938668110236221
11
0.4438807086614173
21
0.2982731889763779
0
LINE
8
BLACK
6
CONTINUOUS
10
0.4438807086614173
20
0.2982731889763779
11
0.4553937795275591
21
0.3040552755905512
0
LINE
8
BLACK
6
CONTINUOUS
10
0.4553937795275591
20
0.3040552755905512
11
0.4661577165354331
21
0.311134842519685
0
LINE
8
BLACK
6
CONTINUOUS
10
0.4661577165354331
20
0.311134842519685
11
0.4760270078740158
21
0.3194161417322834
0
LINE
8
BLACK
6
CONTINUOUS
10
0.4760270078740158
20
0.3194161417322834
11
0.4848681496062992
21
0.3287872047244094
0
LINE
8
BLACK
6
CONTINUOUS
10
0.4848681496062992
20
0.3287872047244094
11
0.4925616141732284
21
0.3391212992125984
0
LINE
8
BLACK
6
CONTINUOUS
10
0.4925616141732284
20
0.3391212992125984
11
0.4990033070866142
21
0.3502787007874016
0
LINE
8
BLACK
6
CONTINUOUS
10
0.4990033070866142
20
0.3502787007874016
11
0.5041061811023622
21
0.3621084645669291
0
LINE
8
BLACK
6
CONTINUOUS
10
0.5041061811023622
20
0.3621084645669291
11
0.5078011811023622
21
0.3744506692913386
0
LINE
8
BLACK
6
CONTINUOUS
10
0.5078011811023622
20
0.3744506692913386
11
0.5100383858267716
21
0.3871383464566929
0
LINE
8
BLACK
6
CONTINUOUS
10
0.5100383858267716
20
0.3871383464566929
11
0.5107874803149606
21
0.4
0
LINE
8
BLACK
6
CONTINUOUS
10
0.5107874803149606
20
0.4
11
0.5100383858267716
21
0.4128616535433071
0
LINE
8
BLACK
6
CONTINUOUS
10
0.5100383858267716
20
0.4128616535433071
11
0.5078011811023622
21
0.4255493307086614
0
LINE
8
BLACK
6
CONTINUOUS
10
0.5078011811023622
20
0.4255493307086614
11
0.5041061811023622
21
0.4378915354330709
0
LINE
8
BLACK
6
CONTINUOUS
10
0.5041061811023622
20
0.4378915354330709
11
0.4990033070866142
21
0.4497212992125984
0
LINE
8
BLACK
6
CONTINUOUS
10
0.4990033070866142
20
0.4497212992125984
11
0.4925616141732284
21
0.4608787007874016
0
LINE
8
BLACK
6
CONTINUOUS
10
0.4925616141732284
20
0.4608787007874016
11
0.4848681496062992
21
0.4712127952755906
0
LINE
8
BLACK
6
CONTINUOUS
10
0.4848681496062992
20
0.4712127952755906
11
0.4760270078740158
21
0.4805838582677165
0
LINE
8
BLACK
6
CONTINUOUS
10
0.4760270078740158
20
0.4805838582677165
11
0.4661577165354331
21
0.4888651574803149
0
LINE
8
BLACK
6
CONTINUOUS
10
0.4661577165354331
20
0.4888651574803149
11
0.4553937795275591
21
0.4959447244094488
0
LINE
8
BLACK
6
CONTINUOUS
10
0.4553937795275591
20
0.4959447244094488
11
0.4438807086614173
21
0.501726811023622
0
LINE
8
BLACK
6
CONTINUOUS
10
0.4438807086614173
20
0.501726811023622
11
0.4317742519685039
21
0.5061331889763779
0
LINE
8
BLACK
6
CONTINUOUS
10
0.4317742519685039
20
0.5061331889763779
11
0.4192380708661417
21
0.5091043307086615
0
LINE
8
BLACK
6
CONTINUOUS
10
0.4192380708661417
20
0.5091043307086615
11
0.4064417716535433
21
0.5105999999999999
0
LINE
8
BLACK
6
CONTINUOUS
10
0.4064417716535433
20
0.5105999999999999
11
0.3935583070866142
21
0.5105999999999999
0
LINE
8
BLACK
6
CONTINUOUS
10
0.3935583070866142
20
0.5105999999999999
11
0.3807620078740158
21
0.5091043307086615
0
LINE
8
BLACK
6
CONTINUOUS
10
0.3807620078740158
20
0.5091043307086615
11
0.3682258267716536
21
0.5061331889763779
0
LINE
8
BLACK
6
CONTINUOUS
10
0.3682258267716536
20
0.5061331889763779
11
0.3561193700787402
21
0.501726811023622
0
LINE
8
BLACK
6
CONTINUOUS
10
0.3561193700787402
20
0.501726811023622
11
0.3446062992125984
21
0.4959447244094488
0
LINE
8
BLACK
6
CONTINUOUS
10
0.3446062992125984
20
0.4959447244094488
11
0.3338423622047244
21
0.4888651574803149
0
LINE
8
BLACK
6
CONTINUOUS
10
0.3338423622047244
20
0.4888651574803149
11
0.3239730708661417
21
0.4805838582677165
0
LINE
8
BLACK
6
CONTINUOUS
10
0.3239730708661417
20
0.4805838582677165
11
0.3151319291338582
21
0.4712127952755906
0
LINE
8
BLACK
6
CONTINUOUS
10
0.3151319291338582
20
0.4712127952755906
11
0.3074384645669291
21
0.4608787007874016
0
LINE
8
BLACK
6
CONTINUOUS
10
0.3074384645669291
20
0.4608787007874016
11
0.3009967716535433
21
0.4497212992125984
0
LINE
8
BLACK
6
CONTINUOUS
10
0.3009967716535433
20
0.4497212992125984
11
0.2958938976377953
21
0.4378915354330709
0
LINE
8
BLACK
6
CONTINUOUS
10
0.2958938976377953
20
0.4378915354330709
11
0.2921988976377953
21
0.4255493307086614
0
LINE
8
BLACK
6
CONTINUOUS
10
0.2921988976377953
20
0.4255493307086614
11
0.2899616929133858
21
0.4128616535433071
0
LINE
8
BLACK
6
CONTINUOUS
10
0.2899616929133858
20
0.4128616535433071
11
0.2892125984251969
21
0.4
0
LINE
8
BLACK
6
CONTINUOUS
10
0.2892125984251969
20
0.4
11
0.2899616929133858
21
0.3871383464566929
0
LINE
8
BLACK
6
CONTINUOUS
10
0.8140627952755906
20
0.5248102362204724
11
0.8279486614173228
21
0.5224509448818897
0
LINE
8
BLACK
6
CONTINUOUS
10
0.8279486614173228
20
0.5224509448818897
11
0.8414830708661417
21
0.5185517322834645
0
LINE
8
BLACK
6
CONTINUOUS
10
0.8414830708661417
20
0.5185517322834645
11
0.8544958267716535
21
0.5131616929133859
0
LINE
8
BLACK
6
CONTINUOUS
10
0.8544958267716535
20
0.5131616929133859
11
0.8668232677165354
21
0.5063485433070866
0
LINE
8
BLACK
6
CONTINUOUS
10
0.8668232677165354
20
0.5063485433070866
11
0.8783103543307086
21
0.498198031496063
0
LINE
8
BLACK
6
CONTINUOUS
10
0.8783103543307086
20
0.498198031496063
11
0.8888126377952755
21
0.4888125984251969
0
LINE
8
BLACK
6
CONTINUOUS
10
0.8888126377952755
20
0.4888125984251969
11
0.8981980708661417
21
0.4783103149606299
0
LINE
8
BLACK
6
CONTINUOUS
10
0.8981980708661417
20
0.4783103149606299
11
0.9063485826771653
21
0.4668232283464567
0
LINE
8
BLACK
6
CONTINUOUS
10
0.9063485826771653
20
0.4668232283464567
11
0.9131617322834645
21
0.4544957874015748
0
LINE
8
BLACK
6
CONTINUOUS
10
0.9131617322834645
20
0.4544957874015748
11
0.9185517716535433
21
0.441483031496063
0
LINE
8
BLACK
6
CONTINUOUS
10
0.9185517716535433
20
0.441483031496063
11
0.9224509842519685
21
0.4279486220472441
0
LINE
8
BLACK
6
CONTINUOUS
10
0.9224509842519685
20
0.4279486220472441
11
0.9248102755905512
21
0.4140627559055118
0
LINE
8
BLACK
6
CONTINUOUS
10
0.9248102755905512
20
0.4140627559055118
11
0.9256000393700787
21
0.4
0
LINE
8
BLACK
6
CONTINUOUS
10
0.9256000393700787
20
0.4
11
0.9248102755905512
21
0.3859372440944882
0
LINE
8
BLACK
6
CONTINUOUS
10
0.9248102755905512
20
0.3859372440944882
11
0.9224509842519685
21
0.3720513779527559
0
LINE
8
BLACK
6
CONTINUOUS
10
0.9224509842519685
20
0.3720513779527559
11
0.9185517716535433
21
0.358516968503937
0
LINE
8
BLACK
6
CONTINUOUS
10
0.9185517716535433
20
0.358516968503937
11
0.9131617322834645
21
0.3455042125984252
0
LINE
8
BLACK
6
CONTINUOUS
10
0.9131617322834645
20
0.3455042125984252
11
0.9063485826771653
21
0.3331767716535433
0
LINE
8
BLACK
6
CONTINUOUS
10
0.9063485826771653
20
0.3331767716535433
11
0.8981980708661417
21
0.3216896850393701
0
LINE
8
BLACK
6
CONTINUOUS
10
0.8981980708661417
20
0.3216896850393701
11
0.8888126377952755
21
0.3111874015748031
0
LINE
8
BLACK
6
CONTINUOUS
10
0.8888126377952755
20
0.3111874015748031
11
0.8783103543307086
21
0.301801968503937
0
LINE
8
BLACK
6
CONTINUOUS
10
0.8783103543307086
20
0.301801968503937
11
0.8668232677165354
21
0.2936514566929134
0
LINE
8
BLACK
6
CONTINUOUS
10
0.8668232677165354
20
0.2936514566929134
11
0.8544958267716535
21
0.2868383070866142
0
LINE
8
BLACK
6
CONTINUOUS
10
0.8544958267716535
20
0.2868383070866142
11
0.8414830708661417
21
0.2814482677165354
0
LINE
8
BLACK
6
CONTINUOUS
10
0.8414830708661417
20
0.2814482677165354
11
0.8279486614173228
21
0.2775490551181102
0
LINE
8
BLACK
6
CONTINUOUS
10
0.8279486614173228
20
0.2775490551181102
11
0.8140627952755906
21
0.2751897637795275
0
LINE
8
BLACK
6
CONTINUOUS
10
0.8140627952755906
20
0.2751897637795275
11
0.8000000393700787
21
0.2744
0
LINE
8
BLACK
6
CONTINUOUS
10
0.8000000393700787
20
0.2744
11
0.7859372834645669
21
0.2751897637795275
0
LINE
8
BLACK
6
CONTINUOUS
10
0.7859372834645669
20
0.2751897637795275
11
0.7720514173228347
21
0.2775490551181102
0
LINE
8
BLACK
6
CONTINUOUS
10
0.7720514173228347
20
0.2775490551181102
11
0.7585170078740158
21
0.2814482677165354
0
LINE
8
BLACK
6
CONTINUOUS
10
0.7585170078740158
20
0.2814482677165354
11
0.7455042519685039
21
0.2868383070866142
0
LINE
8
BLACK
6
CONTINUOUS
10
0.7455042519685039
20
0.2868383070866142
11
0.733176811023622
21
0.2936514566929134
0
LINE
8
BLACK
6
CONTINUOUS
10
0.733176811023622
20
0.2936514566929134
11
0.7216897244094488
21
0.301801968503937
0
LINE
8
BLACK
6
CONTINUOUS
10
0.7216897244094488
20
0.301801968503937
11
0.7111874409448818
21
0.3111874015748031
0
LINE
8
BLACK
6
CONTINUOUS
10
0.7111874409448818
20
0.3111874015748031
11
0.7018020078740157
21
0.3216896850393701
0
LINE
8
BLACK
6
CONTINUOUS
10
0.7018020078740157
20
0.3216896850393701
11
0.6936514960629921
21
0.3331767716535433
0
LINE
8
BLACK
6
CONTINUOUS
10
0.6936514960629921
20
0.3331767716535433
11
0.6868383464566929
21
0.3455042125984252
0
LINE
8
BLACK
6
CONTINUOUS
10
0.6868383464566929
20
0.3455042125984252
11
0.6814483070866142
21
0.358516968503937
0
LINE
8
BLACK
6
CONTINUOUS
10
0.6814483070866142
20
0.358516968503937
11
0.677549094488189
21
0.3720513779527559
0
LINE
8
BLACK
6
CONTINUOUS
10
0.677549094488189
20
0.3720513779527559
11
0.6751898031496063
21
0.3859372440944882
0
LINE
8
BLACK
6
CONTINUOUS
10
0.6751898031496063
20
0.3859372440944882
11
0.6744000393700788
21
0.4
0
LINE
8
BLACK
6
CONTINUOUS
10
0.6744000393700788
20
0.4
11
0.6751898031496063
21
0.4140627559055118
0
LINE
8
BLACK
6
CONTINUOUS
10
0.6751898031496063
20
0.4140627559055118
11
0.677549094488189
21
0.4279486220472441
0
LINE
8
BLACK
6
CONTINUOUS
10
0.677549094488189
20
0.4279486220472441
11
0.6814483070866142
21
0.441483031496063
0
LINE
8
BLACK
6
CONTINUOUS
10
0.6814483070866142
20
0.441483031496063
11
0.6868383464566929
21
0.4544957874015748
0
LINE
8
BLACK
6
CONTINUOUS
10
0.6868383464566929
20
0.4544957874015748
11
0.6936514960629921
21
0.4668232283464567
0
LINE
8
BLACK
6
CONTINUOUS
10
0.6936514960629921
20
0.4668232283464567
11
0.7018020078740157
21
0.4783103149606299
0
LINE
8
BLACK
6
CONTINUOUS
10
0.7018020078740157
20
0.4783103149606299
11
0.7111874409448818
21
0.4888125984251969
0
LINE
8
BLACK
6
CONTINUOUS
10
0.7111874409448818
20
0.4888125984251969
11
0.7216897244094488
21
0.498198031496063
0
LINE
8
BLACK
6
CONTINUOUS
10
0.7216897244094488
20
0.498198031496063
11
0.733176811023622
21
0.5063485433070866
0
LINE
8
BLACK
6
CONTINUOUS
10
0.733176811023622
20
0.5063485433070866
11
0.7455042519685039
21
0.5131616929133859
0
LINE
8
BLACK
6
CONTINUOUS
10
0.7455042519685039
20
0.5131616929133859
11
0.7585170078740158
21
0.5185517322834645
0
LINE
8
BLACK
6
CONTINUOUS
10
0.7585170078740158
20
0.5185517322834645
11
0.7720514173228347
21
0.5224509448818897
0
LINE
8
BLACK
6
CONTINUOUS
10
0.7720514173228347
20
0.5224509448818897
11
0.7859372834645669
21
0.5248102362204724
0
LINE
8
BLACK
6
CONTINUOUS
10
0.7859372834645669
20
0.5248102362204724
11
0.8000000393700787
21
0.5256
0
LINE
8
BLACK
6
CONTINUOUS
10
0.8000000393700787
20
0.5256
11
0.8140627952755906
21
0.5248102362204724
0
LINE
8
BLACK
6
CONTINUOUS
10
0.6899616929133858
20
0.3871383464566929
11
0.6921988976377953
21
0.3744506692913386
0
LINE
8
BLACK
6
CONTINUOUS
10
0.6921988976377953
20
0.3744506692913386
11
0.6958938976377953
21
0.3621084645669291
0
LINE
8
BLACK
6
CONTINUOUS
10
0.6958938976377953
20
0.3621084645669291
11
0.7009967716535432
21
0.3502787007874016
0
LINE
8
BLACK
6
CONTINUOUS
10
0.7009967716535432
20
0.3502787007874016
11
0.7074384645669292
21
0.3391212992125984
0
LINE
8
BLACK
6
CONTINUOUS
10
0.7074384645669292
20
0.3391212992125984
11
0.7151319291338583
21
0.3287872047244094
0
LINE
8
BLACK
6
CONTINUOUS
10
0.7151319291338583
20
0.3287872047244094
11
0.7239730708661417
21
0.3194161417322834
0
LINE
8
BLACK
6
CONTINUOUS
10
0.7239730708661417
20
0.3194161417322834
11
0.7338423622047244
21
0.311134842519685
0
LINE
8
BLACK
6
CONTINUOUS
10
0.7338423622047244
20
0.311134842519685
11
0.7446062992125984
21
0.3040552755905512
0
LINE
8
BLACK
6
CONTINUOUS
10
0.7446062992125984
20
0.3040552755905512
11
0.7561193700787402
21
0.2982731889763779
0
LINE
8
BLACK
6
CONTINUOUS
10
0.7561193700787402
20
0.2982731889763779
11
0.7682258267716535
21
0.2938668110236221
0
LINE
8
BLACK
6
CONTINUOUS
10
0.7682258267716535
20
0.2938668110236221
11
0.7807620078740157
21
0.2908956692913386
0
LINE
8
BLACK
6
CONTINUOUS
10
0.7807620078740157
20
0.2908956692913386
11
0.7935583070866141
21
0.2894
0
LINE
8
BLACK
6
CONTINUOUS
10
0.7935583070866141
20
0.2894
11
0.8064417716535432
21
0.2894
0
LINE
8
BLACK
6
CONTINUOUS
10
0.8064417716535432
20
0.2894
11
0.8192380708661418
21
0.2908956692913386
0
LINE
8
BLACK
6
CONTINUOUS
10
0.8192380708661418
20
0.2908956692913386
11
0.831774251968504
21
0.2938668110236221
0
LINE
8
BLACK
6
CONTINUOUS
10
0.831774251968504
20
0.2938668110236221
11
0.8438807086614173
21
0.2982731889763779
0
LINE
8
BLACK
6
CONTINUOUS
10
0.8438807086614173
20
0.2982731889763779
11
0.855393779527559
21
0.3040552755905512
0
LINE
8
BLACK
6
CONTINUOUS
10
0.855393779527559
20
0.3040552755905512
11
0.8661577165354331
21
0.311134842519685
0
LINE
8
BLACK
6
CONTINUOUS
10
0.8661577165354331
20
0.311134842519685
11
0.8760270078740158
21
0.3194161417322834
0
LINE
8
BLACK
6
CONTINUOUS
10
0.8760270078740158
20
0.3194161417322834
11
0.8848681496062992
21
0.3287872047244094
0
LINE
8
BLACK
6
CONTINUOUS
10
0.8848681496062992
20
0.3287872047244094
11
0.8925616141732283
21
0.3391212992125984
0
LINE
8
BLACK
6
CONTINUOUS
10
0.8925616141732283
20
0.3391212992125984
11
0.8990033070866141
21
0.3502787007874016
0
LINE
8
BLACK
6
CONTINUOUS
10
0.8990033070866141
20
0.3502787007874016
11
0.9041061811023622
21
0.3621084645669291
0
LINE
8
BLACK
6
CONTINUOUS
10
0.9041061811023622
20
0.3621084645669291
11
0.9078011811023622
21
0.3744506692913386
0
LINE
8
BLACK
6
CONTINUOUS
10
0.9078011811023622
20
0.3744506692913386
11
0.9100383858267717
21
0.3871383464566929
0
LINE
8
BLACK
6
CONTINUOUS
10
0.9100383858267717
20
0.3871383464566929
11
0.9107874803149606
21
0.4
0
LINE
8
BLACK
6
CONTINUOUS
10
0.9107874803149606
20
0.4
11
0.9100383858267717
21
0.4128616535433071
0
LINE
8
BLACK
6
CONTINUOUS
10
0.9100383858267717
20
0.4128616535433071
11
0.9078011811023622
21
0.4255493307086614
0
LINE
8
BLACK
6
CONTINUOUS
10
0.9078011811023622
20
0.4255493307086614
11
0.9041061811023622
21
0.4378915354330709
0
LINE
8
BLACK
6
CONTINUOUS
10
0.9041061811023622
20
0.4378915354330709
11
0.8990033070866141
21
0.4497212992125984
0
LINE
8
BLACK
6
CONTINUOUS
10
0.8990033070866141
20
0.4497212992125984
11
0.8925616141732283
21
0.4608787007874016
0
LINE
8
BLACK
6
CONTINUOUS
10
0.8925616141732283
20
0.4608787007874016
11
0.8848681496062992
21
0.4712127952755906
0
LINE
8
BLACK
6
CONTINUOUS
10
0.8848681496062992
20
0.4712127952755906
11
0.8760270078740158
21
0.4805838582677165
0
LINE
8
BLACK
6
CONTINUOUS
10
0.8760270078740158
20
0.4805838582677165
11
0.8661577165354331
21
0.4888651574803149
0
LINE
8
BLACK
6
CONTINUOUS
10
0.8661577165354331
20
0.4888651574803149
11
0.855393779527559
21
0.4959447244094488
0
LINE
8
BLACK
6
CONTINUOUS
10
0.855393779527559
20
0.4959447244094488
11
0.8438807086614173
21
0.501726811023622
0
LINE
8
BLACK
6
CONTINUOUS
10
0.8438807086614173
20
0.501726811023622
11
0.831774251968504
21
0.5061331889763779
0
LINE
8
BLACK
6
CONTINUOUS
10
0.831774251968504
20
0.5061331889763779
11
0.8192380708661418
21
0.5091043307086615
0
LINE
8
BLACK
6
CONTINUOUS
10
0.8192380708661418
20
0.5091043307086615
11
0.8064417716535432
21
0.5105999999999999
0
LINE
8
BLACK
6
CONTINUOUS
10
0.8064417716535432
20
0.5105999999999999
11
0.7935583070866141
21
0.5105999999999999
0
LINE
8
BLACK
6
CONTINUOUS
10
0.7935583070866141
20
0.5105999999999999
11
0.7807620078740157
21
0.5091043307086615
0
LINE
8
BLACK
6
CONTINUOUS
10
0.7807620078740157
20
0.5091043307086615
11
0.7682258267716535
21
0.5061331889763779
0
LINE
8
BLACK
6
CONTINUOUS
10
0.7682258267716535
20
0.5061331889763779
11
0.7561193700787402
21
0.501726811023622
0
LINE
8
BLACK
6
CONTINUOUS
10
0.7561193700787402
20
0.501726811023622
11
0.7446062992125984
21
0.4959447244094488
0
LINE
8
BLACK
6
CONTINUOUS
10
0.7446062992125984
20
0.4959447244094488
11
0.7338423622047244
21
0.4888651574803149
0
LINE
8
BLACK
6
CONTINUOUS
10
0.7338423622047244
20
0.4888651574803149
11
0.7239730708661417
21
0.4805838582677165
0
LINE
8
BLACK
6
CONTINUOUS
10
0.7239730708661417
20
0.4805838582677165
11
0.7151319291338583
21
0.4712127952755906
0
LINE
8
BLACK
6
CONTINUOUS
10
0.7151319291338583
20
0.4712127952755906
11
0.7074384645669292
21
0.4608787007874016
0
LINE
8
BLACK
6
CONTINUOUS
10
0.7074384645669292
20
0.4608787007874016
11
0.7009967716535432
21
0.4497212992125984
0
LINE
8
BLACK
6
CONTINUOUS
10
0.7009967716535432
20
0.4497212992125984
11
0.6958938976377953
21
0.4378915354330709
0
LINE
8
BLACK
6
CONTINUOUS
10
0.6958938976377953
20
0.4378915354330709
11
0.6921988976377953
21
0.4255493307086614
0
LINE
8
BLACK
6
CONTINUOUS
10
0.6921988976377953
20
0.4255493307086614
11
0.6899616929133858
21
0.4128616535433071
0
LINE
8
BLACK
6
CONTINUOUS
10
0.6899616929133858
20
0.4128616535433071
11
0.6892125984251969
21
0.4
0
LINE
8
BLACK
6
CONTINUOUS
10
0.6892125984251969
20
0.4
11
0.6899616929133858
21
0.3871383464566929
0
LINE
8
BLACK
6
CONTINUOUS
10
0.4140627952755905
20
1.7248102362204725
11
0.4279486614173229
21
1.7224509448818897
0
LINE
8
BLACK
6
CONTINUOUS
10
0.4279486614173229
20
1.7224509448818897
11
0.4414830708661417
21
1.7185517322834645
0
LINE
8
BLACK
6
CONTINUOUS
10
0.4414830708661417
20
1.7185517322834645
11
0.4544958267716535
21
1.7131616929133857
0
LINE
8
BLACK
6
CONTINUOUS
10
0.4544958267716535
20
1.7131616929133857
11
0.4668232677165354
21
1.7063485433070866
0
LINE
8
BLACK
6
CONTINUOUS
10
0.4668232677165354
20
1.7063485433070866
11
0.4783103543307087
21
1.698198031496063
0
LINE
8
BLACK
6
CONTINUOUS
10
0.4783103543307087
20
1.698198031496063
11
0.4888126377952756
21
1.6888125984251967
0
LINE
8
BLACK
6
CONTINUOUS
10
0.4888126377952756
20
1.6888125984251967
11
0.4981980708661417
21
1.67831031496063
0
LINE
8
BLACK
6
CONTINUOUS
10
0.4981980708661417
20
1.67831031496063
11
0.5063485826771653
21
1.6668232283464566
0
LINE
8
BLACK
6
CONTINUOUS
10
0.5063485826771653
20
1.6668232283464566
11
0.5131617322834645
21
1.6544957874015747
0
LINE
8
BLACK
6
CONTINUOUS
10
0.5131617322834645
20
1.6544957874015747
11
0.5185517716535433
21
1.6414830314960629
0
LINE
8
BLACK
6
CONTINUOUS
10
0.5185517716535433
20
1.6414830314960629
11
0.5224509842519685
21
1.6279486220472441
0
LINE
8
BLACK
6
CONTINUOUS
10
0.5224509842519685
20
1.6279486220472441
11
0.5248102755905512
21
1.6140627559055118
0
LINE
8
BLACK
6
CONTINUOUS
10
0.5248102755905512
20
1.6140627559055118
11
0.5256000393700787
21
1.5999999999999999
0
LINE
8
BLACK
6
CONTINUOUS
10
0.5256000393700787
20
1.5999999999999999
11
0.5248102755905512
21
1.5859372440944881
0
LINE
8
BLACK
6
CONTINUOUS
10
0.5248102755905512
20
1.5859372440944881
11
0.5224509842519685
21
1.5720513779527558
0
LINE
8
BLACK
6
CONTINUOUS
10
0.5224509842519685
20
1.5720513779527558
11
0.5185517716535433
21
1.5585169685039371
0
LINE
8
BLACK
6
CONTINUOUS
10
0.5185517716535433
20
1.5585169685039371
11
0.5131617322834645
21
1.5455042125984251
0
LINE
8
BLACK
6
CONTINUOUS
10
0.5131617322834645
20
1.5455042125984251
11
0.5063485826771653
21
1.5331767716535434
0
LINE
8
BLACK
6
CONTINUOUS
10
0.5063485826771653
20
1.5331767716535434
11
0.4981980708661417
21
1.52168968503937
0
LINE
8
BLACK
6
CONTINUOUS
10
0.4981980708661417
20
1.52168968503937
11
0.4888126377952756
21
1.511187401574803
0
LINE
8
BLACK
6
CONTINUOUS
10
0.4888126377952756
20
1.511187401574803
11
0.4783103543307087
21
1.501801968503937
0
LINE
8
BLACK
6
CONTINUOUS
10
0.4783103543307087
20
1.501801968503937
11
0.4668232677165354
21
1.4936514566929133
0
LINE
8
BLACK
6
CONTINUOUS
10
0.4668232677165354
20
1.4936514566929133
11
0.4544958267716535
21
1.4868383070866142
0
LINE
8
BLACK
6
CONTINUOUS
10
0.4544958267716535
20
1.4868383070866142
11
0.4414830708661417
21
1.4814482677165355
0
LINE
8
BLACK
6
CONTINUOUS
10
0.4414830708661417
20
1.4814482677165355
11
0.4279486614173229
21
1.4775490551181103
0
LINE
8
BLACK
6
CONTINUOUS
10
0.4279486614173229
20
1.4775490551181103
11
0.4140627952755905
21
1.4751897637795275
0
LINE
8
BLACK
6
CONTINUOUS
10
0.4140627952755905
20
1.4751897637795275
11
0.4000000393700787
21
1.4743999999999999
0
LINE
8
BLACK
6
CONTINUOUS
10
0.4000000393700787
20
1.4743999999999999
11
0.3859372834645669
21
1.4751897637795275
0
LINE
8
BLACK
6
CONTINUOUS
10
0.3859372834645669
20
1.4751897637795275
11
0.3720514173228346
21
1.4775490551181103
0
LINE
8
BLACK
6
CONTINUOUS
10
0.3720514173228346
20
1.4775490551181103
11
0.3585170078740157
21
1.4814482677165355
0
LINE
8
BLACK
6
CONTINUOUS
10
0.3585170078740157
20
1.4814482677165355
11
0.3455042519685039
21
1.4868383070866142
0
LINE
8
BLACK
6
CONTINUOUS
10
0.3455042519685039
20
1.4868383070866142
11
0.3331768110236221
21
1.4936514566929133
0
LINE
8
BLACK
6
CONTINUOUS
10
0.3331768110236221
20
1.4936514566929133
11
0.3216897244094488
21
1.501801968503937
0
LINE
8
BLACK
6
CONTINUOUS
10
0.3216897244094488
20
1.501801968503937
11
0.3111874409448819
21
1.511187401574803
0
LINE
8
BLACK
6
CONTINUOUS
10
0.3111874409448819
20
1.511187401574803
11
0.3018020078740157
21
1.52168968503937
0
LINE
8
BLACK
6
CONTINUOUS
10
0.3018020078740157
20
1.52168968503937
11
0.2936514960629921
21
1.5331767716535434
0
LINE
8
BLACK
6
CONTINUOUS
10
0.2936514960629921
20
1.5331767716535434
11
0.2868383464566929
21
1.5455042125984251
0
LINE
8
BLACK
6
CONTINUOUS
10
0.2868383464566929
20
1.5455042125984251
11
0.2814483070866142
21
1.5585169685039371
0
LINE
8
BLACK
6
CONTINUOUS
10
0.2814483070866142
20
1.5585169685039371
11
0.277549094488189
21
1.5720513779527558
0
LINE
8
BLACK
6
CONTINUOUS
10
0.277549094488189
20
1.5720513779527558
11
0.2751898031496063
21
1.5859372440944881
0
LINE
8
BLACK
6
CONTINUOUS
10
0.2751898031496063
20
1.5859372440944881
11
0.2744000393700787
21
1.5999999999999999
0
LINE
8
BLACK
6
CONTINUOUS
10
0.2744000393700787
20
1.5999999999999999
11
0.2751898031496063
21
1.6140627559055118
0
LINE
8
BLACK
6
CONTINUOUS
10
0.2751898031496063
20
1.6140627559055118
11
0.277549094488189
21
1.6279486220472441
0
LINE
8
BLACK
6
CONTINUOUS
10
0.277549094488189
20
1.6279486220472441
11
0.2814483070866142
21
1.6414830314960629
0
LINE
8
BLACK
6
CONTINUOUS
10
0.2814483070866142
20
1.6414830314960629
11
0.2868383464566929
21
1.6544957874015747
0
LINE
8
BLACK
6
CONTINUOUS
10
0.2868383464566929
20
1.6544957874015747
11
0.2936514960629921
21
1.6668232283464566
0
LINE
8
BLACK
6
CONTINUOUS
10
0.2936514960629921
20
1.6668232283464566
11
0.3018020078740157
21
1.67831031496063
0
LINE
8
BLACK
6
CONTINUOUS
10
0.3018020078740157
20
1.67831031496063
11
0.3111874409448819
21
1.6888125984251967
0
LINE
8
BLACK
6
CONTINUOUS
10
0.3111874409448819
20
1.6888125984251967
11
0.3216897244094488
21
1.698198031496063
0
LINE
8
BLACK
6
CONTINUOUS
10
0.3216897244094488
20
1.698198031496063
11
0.3331768110236221
21
1.7063485433070866
0
LINE
8
BLACK
6
CONTINUOUS
10
0.3331768110236221
20
1.7063485433070866
11
0.3455042519685039
21
1.7131616929133857
0
LINE
8
BLACK
6
CONTINUOUS
10
0.3455042519685039
20
1.7131616929133857
11
0.3585170078740157
21
1.7185517322834645
0
LINE
8
BLACK
6
CONTINUOUS
10
0.3585170078740157
20
1.7185517322834645
11
0.3720514173228346
21
1.7224509448818897
0
LINE
8
BLACK
6
CONTINUOUS
10
0.3720514173228346
20
1.7224509448818897
11
0.3859372834645669
21
1.7248102362204725
0
LINE
8
BLACK
6
CONTINUOUS
10
0.3859372834645669
20
1.7248102362204725
11
0.4000000393700787
21
1.7256
0
LINE
8
BLACK
6
CONTINUOUS
10
0.4000000393700787
20
1.7256
11
0.4140627952755905
21
1.7248102362204725
0
LINE
8
BLACK
6
CONTINUOUS
10
0.2899616929133858
20
1.5871383464566928
11
0.2921988976377953
21
1.5744506692913385
0
LINE
8
BLACK
6
CONTINUOUS
10
0.2921988976377953
20
1.5744506692913385
11
0.2958938976377953
21
1.5621084645669292
0
LINE
8
BLACK
6
CONTINUOUS
10
0.2958938976377953
20
1.5621084645669292
11
0.3009967716535433
21
1.5502787007874015
0
LINE
8
BLACK
6
CONTINUOUS
10
0.3009967716535433
20
1.5502787007874015
11
0.3074384645669291
21
1.5391212992125984
0
LINE
8
BLACK
6
CONTINUOUS
10
0.3074384645669291
20
1.5391212992125984
11
0.3151319291338582
21
1.5287872047244093
0
LINE
8
BLACK
6
CONTINUOUS
10
0.3151319291338582
20
1.5287872047244093
11
0.3239730708661417
21
1.5194161417322833
0
LINE
8
BLACK
6
CONTINUOUS
10
0.3239730708661417
20
1.5194161417322833
11
0.3338423622047244
21
1.5111348425196851
0
LINE
8
BLACK
6
CONTINUOUS
10
0.3338423622047244
20
1.5111348425196851
11
0.3446062992125984
21
1.5040552755905512
0
LINE
8
BLACK
6
CONTINUOUS
10
0.3446062992125984
20
1.5040552755905512
11
0.3561193700787402
21
1.4982731889763778
0
LINE
8
BLACK
6
CONTINUOUS
10
0.3561193700787402
20
1.4982731889763778
11
0.3682258267716536
21
1.493866811023622
0
LINE
8
BLACK
6
CONTINUOUS
10
0.3682258267716536
20
1.493866811023622
11
0.3807620078740158
21
1.4908956692913387
0
LINE
8
BLACK
6
CONTINUOUS
10
0.3807620078740158
20
1.4908956692913387
11
0.3935583070866142
21
1.4894000000000001
0
LINE
8
BLACK
6
CONTINUOUS
10
0.3935583070866142
20
1.4894000000000001
11
0.4064417716535433
21
1.4894000000000001
0
LINE
8
BLACK
6
CONTINUOUS
10
0.4064417716535433
20
1.4894000000000001
11
0.4192380708661417
21
1.4908956692913387
0
LINE
8
BLACK
6
CONTINUOUS
10
0.4192380708661417
20
1.4908956692913387
11
0.4317742519685039
21
1.493866811023622
0
LINE
8
BLACK
6
CONTINUOUS
10
0.4317742519685039
20
1.493866811023622
11
0.4438807086614173
21
1.4982731889763778
0
LINE
8
BLACK
6
CONTINUOUS
10
0.4438807086614173
20
1.4982731889763778
11
0.4553937795275591
21
1.5040552755905512
0
LINE
8
BLACK
6
CONTINUOUS
10
0.4553937795275591
20
1.5040552755905512
11
0.4661577165354331
21
1.5111348425196851
0
LINE
8
BLACK
6
CONTINUOUS
10
0.4661577165354331
20
1.5111348425196851
11
0.4760270078740158
21
1.5194161417322833
0
LINE
8
BLACK
6
CONTINUOUS
10
0.4760270078740158
20
1.5194161417322833
11
0.4848681496062992
21
1.5287872047244093
0
LINE
8
BLACK
6
CONTINUOUS
10
0.4848681496062992
20
1.5287872047244093
11
0.4925616141732284
21
1.5391212992125984
0
LINE
8
BLACK
6
CONTINUOUS
10
0.4925616141732284
20
1.5391212992125984
11
0.4990033070866142
21
1.5502787007874015
0
LINE
8
BLACK
6
CONTINUOUS
10
0.4990033070866142
20
1.5502787007874015
11
0.5041061811023622
21
1.5621084645669292
0
LINE
8
BLACK
6
CONTINUOUS
10
0.5041061811023622
20
1.5621084645669292
11
0.5078011811023622
21
1.5744506692913385
0
LINE
8
BLACK
6
CONTINUOUS
10
0.5078011811023622
20
1.5744506692913385
11
0.5100383858267716
21
1.5871383464566928
0
LINE
8
BLACK
6
CONTINUOUS
10
0.5100383858267716
20
1.5871383464566928
11
0.5107874803149606
21
1.5999999999999999
0
LINE
8
BLACK
6
CONTINUOUS
10
0.5107874803149606
20
1.5999999999999999
11
0.5100383858267716
21
1.6128616535433071
0
LINE
8
BLACK
6
CONTINUOUS
10
0.5100383858267716
20
1.6128616535433071
11
0.5078011811023622
21
1.6255493307086615
0
LINE
8
BLACK
6
CONTINUOUS
10
0.5078011811023622
20
1.6255493307086615
11
0.5041061811023622
21
1.6378915354330708
0
LINE
8
BLACK
6
CONTINUOUS
10
0.5041061811023622
20
1.6378915354330708
11
0.4990033070866142
21
1.6497212992125985
0
LINE
8
BLACK
6
CONTINUOUS
10
0.4990033070866142
20
1.6497212992125985
11
0.4925616141732284
21
1.6608787007874015
0
LINE
8
BLACK
6
CONTINUOUS
10
0.4925616141732284
20
1.6608787007874015
11
0.4848681496062992
21
1.6712127952755904
0
LINE
8
BLACK
6
CONTINUOUS
10
0.4848681496062992
20
1.6712127952755904
11
0.4760270078740158
21
1.6805838582677164
0
LINE
8
BLACK
6
CONTINUOUS
10
0.4760270078740158
20
1.6805838582677164
11
0.4661577165354331
21
1.6888651574803148
0
LINE
8
BLACK
6
CONTINUOUS
10
0.4661577165354331
20
1.6888651574803148
11
0.4553937795275591
21
1.6959447244094488
0
LINE
8
BLACK
6
CONTINUOUS
10
0.4553937795275591
20
1.6959447244094488
11
0.4438807086614173
21
1.7017268110236221
0
LINE
8
BLACK
6
CONTINUOUS
10
0.4438807086614173
20
1.7017268110236221
11
0.4317742519685039
21
1.706133188976378
0
LINE
8
BLACK
6
CONTINUOUS
10
0.4317742519685039
20
1.706133188976378
11
0.4192380708661417
21
1.7091043307086613
0
LINE
8
BLACK
6
CONTINUOUS
10
0.4192380708661417
20
1.7091043307086613
11
0.4064417716535433
21
1.7105999999999999
0
LINE
8
BLACK
6
CONTINUOUS
10
0.4064417716535433
20
1.7105999999999999
11
0.3935583070866142
21
1.7105999999999999
0
LINE
8
BLACK
6
CONTINUOUS
10
0.3935583070866142
20
1.7105999999999999
11
0.3807620078740158
21
1.7091043307086613
0
LINE
8
BLACK
6
CONTINUOUS
10
0.3807620078740158
20
1.7091043307086613
11
0.3682258267716536
21
1.706133188976378
0
LINE
8
BLACK
6
CONTINUOUS
10
0.3682258267716536
20
1.706133188976378
11
0.3561193700787402
21
1.7017268110236221
0
LINE
8
BLACK
6
CONTINUOUS
10
0.3561193700787402
20
1.7017268110236221
11
0.3446062992125984
21
1.6959447244094488
0
LINE
8
BLACK
6
CONTINUOUS
10
0.3446062992125984
20
1.6959447244094488
11
0.3338423622047244
21
1.6888651574803148
0
LINE
8
BLACK
6
CONTINUOUS
10
0.3338423622047244
20
1.6888651574803148
11
0.3239730708661417
21
1.6805838582677164
0
LINE
8
BLACK
6
CONTINUOUS
10
0.3239730708661417
20
1.6805838582677164
11
0.3151319291338582
21
1.6712127952755904
0
LINE
8
BLACK
6
CONTINUOUS
10
0.3151319291338582
20
1.6712127952755904
11
0.3074384645669291
21
1.6608787007874015
0
LINE
8
BLACK
6
CONTINUOUS
10
0.3074384645669291
20
1.6608787007874015
11
0.3009967716535433
21
1.6497212992125985
0
LINE
8
BLACK
6
CONTINUOUS
10
0.3009967716535433
20
1.6497212992125985
11
0.2958938976377953
21
1.6378915354330708
0
LINE
8
BLACK
6
CONTINUOUS
10
0.2958938976377953
20
1.6378915354330708
11
0.2921988976377953
21
1.6255493307086615
0
LINE
8
BLACK
6
CONTINUOUS
10
0.2921988976377953
20
1.6255493307086615
11
0.2899616929133858
21
1.6128616535433071
0
LINE
8
BLACK
6
CONTINUOUS
10
0.2899616929133858
20
1.6128616535433071
11
0.2892125984251969
21
1.5999999999999999
0
LINE
8
BLACK
6
CONTINUOUS
10
0.2892125984251969
20
1.5999999999999999
11
0.2899616929133858
21
1.5871383464566928
0
LINE
8
BLACK
6
CONTINUOUS
10
0.8140627952755906
20
1.7248102362204725
11
0.8279486614173228
21
1.7224509448818897
0
LINE
8
BLACK
6
CONTINUOUS
10
0.8279486614173228
20
1.7224509448818897
11
0.8414830708661417
21
1.7185517322834645
0
LINE
8
BLACK
6
CONTINUOUS
10
0.8414830708661417
20
1.7185517322834645
11
0.8544958267716535
21
1.7131616929133857
0
LINE
8
BLACK
6
CONTINUOUS
10
0.8544958267716535
20
1.7131616929133857
11
0.8668232677165354
21
1.7063485433070866
0
LINE
8
BLACK
6
CONTINUOUS
10
0.8668232677165354
20
1.7063485433070866
11
0.8783103543307086
21
1.698198031496063
0
LINE
8
BLACK
6
CONTINUOUS
10
0.8783103543307086
20
1.698198031496063
11
0.8888126377952755
21
1.6888125984251967
0
LINE
8
BLACK
6
CONTINUOUS
10
0.8888126377952755
20
1.6888125984251967
11
0.8981980708661417
21
1.67831031496063
0
LINE
8
BLACK
6
CONTINUOUS
10
0.8981980708661417
20
1.67831031496063
11
0.9063485826771653
21
1.6668232283464566
0
LINE
8
BLACK
6
CONTINUOUS
10
0.9063485826771653
20
1.6668232283464566
11
0.9131617322834645
21
1.6544957874015747
0
LINE
8
BLACK
6
CONTINUOUS
10
0.9131617322834645
20
1.6544957874015747
11
0.9185517716535433
21
1.6414830314960629
0
LINE
8
BLACK
6
CONTINUOUS
10
0.9185517716535433
20
1.6414830314960629
11
0.9224509842519685
21
1.6279486220472441
0
LINE
8
BLACK
6
CONTINUOUS
10
0.9224509842519685
20
1.6279486220472441
11
0.9248102755905512
21
1.6140627559055118
0
LINE
8
BLACK
6
CONTINUOUS
10
0.9248102755905512
20
1.6140627559055118
11
0.9256000393700787
21
1.5999999999999999
0
LINE
8
BLACK
6
CONTINUOUS
10
0.9256000393700787
20
1.5999999999999999
11
0.9248102755905512
21
1.5859372440944881
0
LINE
8
BLACK
6
CONTINUOUS
10
0.9248102755905512
20
1.5859372440944881
11
0.9224509842519685
21
1.5720513779527558
0
LINE
8
BLACK
6
CONTINUOUS
10
0.9224509842519685
20
1.5720513779527558
11
0.9185517716535433
21
1.5585169685039371
0
LINE
8
BLACK
6
CONTINUOUS
10
0.9185517716535433
20
1.5585169685039371
11
0.9131617322834645
21
1.5455042125984251
0
LINE
8
BLACK
6
CONTINUOUS
10
0.9131617322834645
20
1.5455042125984251
11
0.9063485826771653
21
1.5331767716535434
0
LINE
8
BLACK
6
CONTINUOUS
10
0.9063485826771653
20
1.5331767716535434
11
0.8981980708661417
21
1.52168968503937
0
LINE
8
BLACK
6
CONTINUOUS
10
0.8981980708661417
20
1.52168968503937
11
0.8888126377952755
21
1.511187401574803
0
LINE
8
BLACK
6
CONTINUOUS
10
0.8888126377952755
20
1.511187401574803
11
0.8783103543307086
21
1.501801968503937
0
LINE
8
BLACK
6
CONTINUOUS
10
0.8783103543307086
20
1.501801968503937
11
0.8668232677165354
21
1.4936514566929133
0
LINE
8
BLACK
6
CONTINUOUS
10
0.8668232677165354
20
1.4936514566929133
11
0.8544958267716535
21
1.4868383070866142
0
LINE
8
BLACK
6
CONTINUOUS
10
0.8544958267716535
20
1.4868383070866142
11
0.8414830708661417
21
1.4814482677165355
0
LINE
8
BLACK
6
CONTINUOUS
10
0.8414830708661417
20
1.4814482677165355
11
0.8279486614173228
21
1.4775490551181103
0
LINE
8
BLACK
6
CONTINUOUS
10
0.8279486614173228
20
1.4775490551181103
11
0.8140627952755906
21
1.4751897637795275
0
LINE
8
BLACK
6
CONTINUOUS
10
0.8140627952755906
20
1.4751897637795275
11
0.8000000393700787
21
1.4743999999999999
0
LINE
8
BLACK
6
CONTINUOUS
10
0.8000000393700787
20
1.4743999999999999
11
0.7859372834645669
21
1.4751897637795275
0
LINE
8
BLACK
6
CONTINUOUS
10
0.7859372834645669
20
1.4751897637795275
11
0.7720514173228347
21
1.4775490551181103
0
LINE
8
BLACK
6
CONTINUOUS
10
0.7720514173228347
20
1.4775490551181103
11
0.7585170078740158
21
1.4814482677165355
0
LINE
8
BLACK
6
CONTINUOUS
10
0.7585170078740158
20
1.4814482677165355
11
0.7455042519685039
21
1.4868383070866142
0
LINE
8
BLACK
6
CONTINUOUS
10
0.7455042519685039
20
1.4868383070866142
11
0.733176811023622
21
1.4936514566929133
0
LINE
8
BLACK
6
CONTINUOUS
10
0.733176811023622
20
1.4936514566929133
11
0.7216897244094488
21
1.501801968503937
0
LINE
8
BLACK
6
CONTINUOUS
10
0.7216897244094488
20
1.501801968503937
11
0.7111874409448818
21
1.511187401574803
0
LINE
8
BLACK
6
CONTINUOUS
10
0.7111874409448818
20
1.511187401574803
11
0.7018020078740157
21
1.52168968503937
0
LINE
8
BLACK
6
CONTINUOUS
10
0.7018020078740157
20
1.52168968503937
11
0.6936514960629921
21
1.5331767716535434
0
LINE
8
BLACK
6
CONTINUOUS
10
0.6936514960629921
20
1.5331767716535434
11
0.6868383464566929
21
1.5455042125984251
0
LINE
8
BLACK
6
CONTINUOUS
10
0.6868383464566929
20
1.5455042125984251
11
0.6814483070866142
21
1.5585169685039371
0
LINE
8
BLACK
6
CONTINUOUS
10
0.6814483070866142
20
1.5585169685039371
11
0.677549094488189
21
1.5720513779527558
0
LINE
8
BLACK
6
CONTINUOUS
10
0.677549094488189
20
1.5720513779527558
11
0.6751898031496063
21
1.5859372440944881
0
LINE
8
BLACK
6
CONTINUOUS
10
0.6751898031496063
20
1.5859372440944881
11
0.6744000393700788
21
1.5999999999999999
0
LINE
8
BLACK
6
CONTINUOUS
10
0.6744000393700788
20
1.5999999999999999
11
0.6751898031496063
21
1.6140627559055118
0
LINE
8
BLACK
6
CONTINUOUS
10
0.6751898031496063
20
1.6140627559055118
11
0.677549094488189
21
1.6279486220472441
0
LINE
8
BLACK
6
CONTINUOUS
10
0.677549094488189
20
1.6279486220472441
11
0.6814483070866142
21
1.6414830314960629
0
LINE
8
BLACK
6
CONTINUOUS
10
0.6814483070866142
20
1.6414830314960629
11
0.6868383464566929
21
1.6544957874015747
0
LINE
8
BLACK
6
CONTINUOUS
10
0.6868383464566929
20
1.6544957874015747
11
0.6936514960629921
21
1.6668232283464566
0
LINE
8
BLACK
6
CONTINUOUS
10
0.6936514960629921
20
1.6668232283464566
11
0.7018020078740157
21
1.67831031496063
0
LINE
8
BLACK
6
CONTINUOUS
10
0.7018020078740157
20
1.67831031496063
11
0.7111874409448818
21
1.6888125984251967
0
LINE
8
BLACK
6
CONTINUOUS
10
0.7111874409448818
20
1.6888125984251967
11
0.7216897244094488
21
1.698198031496063
0
LINE
8
BLACK
6
CONTINUOUS
10
0.7216897244094488
20
1.698198031496063
11
0.733176811023622
21
1.7063485433070866
0
LINE
8
BLACK
6
CONTINUOUS
10
0.733176811023622
20
1.7063485433070866
11
0.7455042519685039
21
1.7131616929133857
0
LINE
8
BLACK
6
CONTINUOUS
10
0.7455042519685039
20
1.7131616929133857
11
0.7585170078740158
21
1.7185517322834645
0
LINE
8
BLACK
6
CONTINUOUS
10
0.7585170078740158
20
1.7185517322834645
11
0.7720514173228347
21
1.7224509448818897
0
LINE
8
BLACK
6
CONTINUOUS
10
0.7720514173228347
20
1.7224509448818897
11
0.7859372834645669
21
1.7248102362204725
0
LINE
8
BLACK
6
CONTINUOUS
10
0.7859372834645669
20
1.7248102362204725
11
0.8000000393700787
21
1.7256
0
LINE
8
BLACK
6
CONTINUOUS
10
0.8000000393700787
20
1.7256
11
0.8140627952755906
21
1.7248102362204725
0
LINE
8
BLACK
6
CONTINUOUS
10
0.6899616929133858
20
1.5871383464566928
11
0.6921988976377953
21
1.5744506692913385
0
LINE
8
BLACK
6
CONTINUOUS
10
0.6921988976377953
20
1.5744506692913385
11
0.6958938976377953
21
1.5621084645669292
0
LINE
8
BLACK
6
CONTINUOUS
10
0.6958938976377953
20
1.5621084645669292
11
0.7009967716535432
21
1.5502787007874015
0
LINE
8
BLACK
6
CONTINUOUS
10
0.7009967716535432
20
1.5502787007874015
11
0.7074384645669292
21
1.5391212992125984
0
LINE
8
BLACK
6
CONTINUOUS
10
0.7074384645669292
20
1.5391212992125984
11
0.7151319291338583
21
1.5287872047244093
0
LINE
8
BLACK
6
CONTINUOUS
10
0.7151319291338583
20
1.5287872047244093
11
0.7239730708661417
21
1.5194161417322833
0
LINE
8
BLACK
6
CONTINUOUS
10
0.7239730708661417
20
1.5194161417322833
11
0.7338423622047244
21
1.5111348425196851
0
LINE
8
BLACK
6
CONTINUOUS
10
0.7338423622047244
20
1.5111348425196851
11
0.7446062992125984
21
1.5040552755905512
0
LINE
8
BLACK
6
CONTINUOUS
10
0.7446062992125984
20
1.5040552755905512
11
0.7561193700787402
21
1.4982731889763778
0
LINE
8
BLACK
6
CONTINUOUS
10
0.7561193700787402
20
1.4982731889763778
11
0.7682258267716535
21
1.493866811023622
0
LINE
8
BLACK
6
CONTINUOUS
10
0.7682258267716535
20
1.493866811023622
11
0.7807620078740157
21
1.4908956692913387
0
LINE
8
BLACK
6
CONTINUOUS
10
0.7807620078740157
20
1.4908956692913387
11
0.7935583070866141
21
1.4894000000000001
0
LINE
8
BLACK
6
CONTINUOUS
10
0.7935583070866141
20
1.4894000000000001
11
0.8064417716535432
21
1.4894000000000001
0
LINE
8
BLACK
6
CONTINUOUS
10
0.8064417716535432
20
1.4894000000000001
11
0.8192380708661418
21
1.4908956692913387
0
LINE
8
BLACK
6
CONTINUOUS
10
0.8192380708661418
20
1.4908956692913387
11
0.831774251968504
21
1.493866811023622
0
LINE
8
BLACK
6
CONTINUOUS
10
0.831774251968504
20
1.493866811023622
11
0.8438807086614173
21
1.4982731889763778
0
LINE
8
BLACK
6
CONTINUOUS
10
0.8438807086614173
20
1.4982731889763778
11
0.855393779527559
21
1.5040552755905512
0
LINE
8
BLACK
6
CONTINUOUS
10
0.855393779527559
20
1.5040552755905512
11
0.8661577165354331
21
1.5111348425196851
0
LINE
8
BLACK
6
CONTINUOUS
10
0.8661577165354331
20
1.5111348425196851
11
0.8760270078740158
21
1.5194161417322833
0
LINE
8
BLACK
6
CONTINUOUS
10
0.8760270078740158
20
1.5194161417322833
11
0.8848681496062992
21
1.5287872047244093
0
LINE
8
BLACK
6
CONTINUOUS
10
0.8848681496062992
20
1.5287872047244093
11
0.8925616141732283
21
1.5391212992125984
0
LINE
8
BLACK
6
CONTINUOUS
10
0.8925616141732283
20
1.5391212992125984
11
0.8990033070866141
21
1.5502787007874015
0
LINE
8
BLACK
6
CONTINUOUS
10
0.8990033070866141
20
1.5502787007874015
11
0.9041061811023622
21
1.5621084645669292
0
LINE
8
BLACK
6
CONTINUOUS
10
0.9041061811023622
20
1.5621084645669292
11
0.9078011811023622
21
1.5744506692913385
0
LINE
8
BLACK
6
CONTINUOUS
10
0.9078011811023622
20
1.5744506692913385
11
0.9100383858267717
21
1.5871383464566928
0
LINE
8
BLACK
6
CONTINUOUS
10
0.9100383858267717
20
1.5871383464566928
11
0.9107874803149606
21
1.5999999999999999
0
LINE
8
BLACK
6
CONTINUOUS
10
0.9107874803149606
20
1.5999999999999999
11
0.9100383858267717
21
1.6128616535433071
0
LINE
8
BLACK
6
CONTINUOUS
10
0.9100383858267717
20
1.6128616535433071
11
0.9078011811023622
21
1.6255493307086615
0
LINE
8
BLACK
6
CONTINUOUS
10
0.9078011811023622
20
1.6255493307086615
11
0.9041061811023622
21
1.6378915354330708
0
LINE
8
BLACK
6
CONTINUOUS
10
0.9041061811023622
20
1.6378915354330708
11
0.8990033070866141
21
1.6497212992125985
0
LINE
8
BLACK
6
CONTINUOUS
10
0.8990033070866141
20
1.6497212992125985
11
0.8925616141732283
21
1.6608787007874015
0
LINE
8
BLACK
6
CONTINUOUS
10
0.8925616141732283
20
1.6608787007874015
11
0.8848681496062992
21
1.6712127952755904
0
LINE
8
BLACK
6
CONTINUOUS
10
0.8848681496062992
20
1.6712127952755904
11
0.8760270078740158
21
1.6805838582677164
0
LINE
8
BLACK
6
CONTINUOUS
10
0.8760270078740158
20
1.6805838582677164
11
0.8661577165354331
21
1.6888651574803148
0
LINE
8
BLACK
6
CONTINUOUS
10
0.8661577165354331
20
1.6888651574803148
11
0.855393779527559
21
1.6959447244094488
0
LINE
8
BLACK
6
CONTINUOUS
10
0.855393779527559
20
1.6959447244094488
11
0.8438807086614173
21
1.7017268110236221
0
LINE
8
BLACK
6
CONTINUOUS
10
0.8438807086614173
20
1.7017268110236221
11
0.831774251968504
21
1.706133188976378
0
LINE
8
BLACK
6
CONTINUOUS
10
0.831774251968504
20
1.706133188976378
11
0.8192380708661418
21
1.7091043307086613
0
LINE
8
BLACK
6
CONTINUOUS
10
0.8192380708661418
20
1.7091043307086613
11
0.8064417716535432
21
1.7105999999999999
0
LINE
8
BLACK
6
CONTINUOUS
10
0.8064417716535432
20
1.7105999999999999
11
0.7935583070866141
21
1.7105999999999999
0
LINE
8
BLACK
6
CONTINUOUS
10
0.7935583070866141
20
1.7105999999999999
11
0.7807620078740157
21
1.7091043307086613
0
LINE
8
BLACK
6
CONTINUOUS
10
0.7807620078740157
20
1.7091043307086613
11
0.7682258267716535
21
1.706133188976378
0
LINE
8
BLACK
6
CONTINUOUS
10
0.7682258267716535
20
1.706133188976378
11
0.7561193700787402
21
1.7017268110236221
0
LINE
8
BLACK
6
CONTINUOUS
10
0.7561193700787402
20
1.7017268110236221
11
0.7446062992125984
21
1.6959447244094488
0
LINE
8
BLACK
6
CONTINUOUS
10
0.7446062992125984
20
1.6959447244094488
11
0.7338423622047244
21
1.6888651574803148
0
LINE
8
BLACK
6
CONTINUOUS
10
0.7338423622047244
20
1.6888651574803148
11
0.7239730708661417
21
1.6805838582677164
0
LINE
8
BLACK
6
CONTINUOUS
10
0.7239730708661417
20
1.6805838582677164
11
0.7151319291338583
21
1.6712127952755904
0
LINE
8
BLACK
6
CONTINUOUS
10
0.7151319291338583
20
1.6712127952755904
11
0.7074384645669292
21
1.6608787007874015
0
LINE
8
BLACK
6
CONTINUOUS
10
0.7074384645669292
20
1.6608787007874015
11
0.7009967716535432
21
1.6497212992125985
0
LINE
8
BLACK
6
CONTINUOUS
10
0.7009967716535432
20
1.6497212992125985
11
0.6958938976377953
21
1.6378915354330708
0
LINE
8
BLACK
6
CONTINUOUS
10
0.6958938976377953
20
1.6378915354330708
11
0.6921988976377953
21
1.6255493307086615
0
LINE
8
BLACK
6
CONTINUOUS
10
0.6921988976377953
20
1.6255493307086615
11
0.6899616929133858
21
1.6128616535433071
0
LINE
8
BLACK
6
CONTINUOUS
10
0.6899616929133858
20
1.6128616535433071
11
0.6892125984251969
21
1.5999999999999999
0
LINE
8
BLACK
6
CONTINUOUS
10
0.6892125984251969
20
1.5999999999999999
11
0.6899616929133858
21
1.5871383464566928
  0
ENDSEC
  0
EOF
