  0
SECTION
  2
HEADER
  9
$ANGBASE
  50
0.0
  9
$ANGDIR
  70
1
  9
$MEASUREMENT
  70
0
  0
ENDSEC
  0
SECTION
  2
TABLES
  0
TABLE
  2
LTYPE
  70
4
  0
LTYPE
  5
40F
  2
CONTINUOUS
  70
0
  3
Solid line
  72
65
  73
0
  40
0.0
  0
LTYPE
  5
410
  2
DASHDOT
 70
0
  3
Dash Dot ____ _ ____ _
 72
65
 73
4
 40
2.0
 49
1.25
 49
-0.25
 49
0.25
 49
-0.25
  0
LTYPE
  5
411
  2
DASHED
 70
0
  3
Dashed __ __ __ __ __
 72
65
 73
2
 40
0.75
 49
0.5
 49
-0.25
  0
LTYPE
  5
43B
  2
DOTTED
 70
0
  3
Dotted .  .  .  .
 72
65
 73
2
 40
0.2
 49
0.0
 49
-0.2
  0
ENDTAB
  0
TABLE
  2
STYLE
  70
4
  0
STYLE
  2
KICAD
  70
0
  40
0
  41
1
  42
1
  50
0
  71
0
  3
isocp.shx
  0
STYLE
  2
KICADB
  70
0
  40
0
  41
1
  42
1
  50
0
  71
0
  3
isocp.shx
  0
STYLE
  2
KICADI
  70
0
  40
0
  41
1
  42
1
  50
15
  71
0
  3
isocp.shx
  0
STYLE
  2
KICADBI
  70
0
  40
0
  41
1
  42
1
  50
15
  71
0
  3
isocp.shx
  0
ENDTAB
  0
TABLE
  2
LAYER
  70
1
  0
LAYER
  2
BLACK
  70
0
  62
7
  6
CONTINUOUS
  0
ENDTAB
  0
ENDSEC
  0
SECTION
  2
ENTITIES
0
LINE
8
BLACK
6
CONTINUOUS
10
0.7554493307086614
20
0.6246220472440944
11
0.7565621653543307
21
0.6229364960629921
0
LINE
8
BLACK
6
CONTINUOUS
10
0.7565621653543307
20
0.6229364960629921
11
0.7563312598425197
21
0.6209299606299212
0
LINE
8
BLACK
6
CONTINUOUS
10
0.7563312598425197
20
0.6209299606299212
11
0.7544564960629921
21
0.6171804330708661
0
LINE
8
BLACK
6
CONTINUOUS
10
0.7544564960629921
20
0.6171804330708661
11
0.7539305511811023
21
0.6164713779527559
0
LINE
8
BLACK
6
CONTINUOUS
10
0.7539305511811023
20
0.6164713779527559
11
0.7539033858267716
21
0.616413031496063
0
LINE
8
BLACK
6
CONTINUOUS
10
0.7539033858267716
20
0.616413031496063
11
0.751445
21
0.6139546456692914
0
LINE
8
BLACK
6
CONTINUOUS
10
0.751445
20
0.6139546456692914
11
0.7788589763779528
21
0.6139546456692914
0
LINE
8
BLACK
6
CONTINUOUS
10
0.7788589763779528
20
0.6139546456692914
11
0.7788589763779528
21
0.6222504724409449
0
LINE
8
BLACK
6
CONTINUOUS
10
0.7788589763779528
20
0.6222504724409449
11
0.7790370472440945
21
0.6232603937007873
0
LINE
8
BLACK
6
CONTINUOUS
10
0.7790370472440945
20
0.6232603937007873
11
0.7803353543307087
21
0.6248076377952756
0
LINE
8
BLACK
6
CONTINUOUS
10
0.7803353543307087
20
0.6248076377952756
11
0.7823244881889764
21
0.6251583858267716
0
LINE
8
BLACK
6
CONTINUOUS
10
0.7823244881889764
20
0.6251583858267716
11
0.7840736614173228
21
0.6241484645669291
0
LINE
8
BLACK
6
CONTINUOUS
10
0.7840736614173228
20
0.6241484645669291
11
0.7847644881889764
21
0.6222504724409449
0
LINE
8
BLACK
6
CONTINUOUS
10
0.7847644881889764
20
0.6222504724409449
11
0.7847644881889764
21
0.5997533070866141
0
LINE
8
BLACK
6
CONTINUOUS
10
0.7847644881889764
20
0.5997533070866141
11
0.7845864173228346
21
0.5987433858267717
0
LINE
8
BLACK
6
CONTINUOUS
10
0.7845864173228346
20
0.5987433858267717
11
0.7832881102362205
21
0.5971961417322834
0
LINE
8
BLACK
6
CONTINUOUS
10
0.7832881102362205
20
0.5971961417322834
11
0.7812989763779528
21
0.5968453937007874
0
LINE
8
BLACK
6
CONTINUOUS
10
0.7812989763779528
20
0.5968453937007874
11
0.7795498031496063
21
0.5978553149606299
0
LINE
8
BLACK
6
CONTINUOUS
10
0.7795498031496063
20
0.5978553149606299
11
0.7788589763779528
21
0.5997533070866141
0
LINE
8
BLACK
6
CONTINUOUS
10
0.7788589763779528
20
0.5997533070866141
11
0.7788589763779528
21
0.6080491338582678
0
LINE
8
BLACK
6
CONTINUOUS
10
0.7788589763779528
20
0.6080491338582678
11
0.742441653543307
21
0.6080491338582678
0
LINE
8
BLACK
6
CONTINUOUS
10
0.742441653543307
20
0.6080491338582678
11
0.7414317322834646
21
0.6082272047244094
0
LINE
8
BLACK
6
CONTINUOUS
10
0.7414317322834646
20
0.6082272047244094
11
0.741301653543307
21
0.6083363385826771
0
LINE
8
BLACK
6
CONTINUOUS
10
0.741301653543307
20
0.6083363385826771
11
0.7411329133858268
21
0.608355
0
LINE
8
BLACK
6
CONTINUOUS
10
0.7411329133858268
20
0.608355
11
0.7405409842519685
21
0.6089746456692913
0
LINE
8
BLACK
6
CONTINUOUS
10
0.7405409842519685
20
0.6089746456692913
11
0.7398844881889763
21
0.6095255118110237
0
LINE
8
BLACK
6
CONTINUOUS
10
0.7398844881889763
20
0.6095255118110237
11
0.7398549999999999
21
0.6096927559055118
0
LINE
8
BLACK
6
CONTINUOUS
10
0.7398549999999999
20
0.6096927559055118
11
0.7397377165354331
21
0.6098155118110236
0
LINE
8
BLACK
6
CONTINUOUS
10
0.7397377165354331
20
0.6098155118110236
11
0.739682559055118
21
0.6106706692913386
0
LINE
8
BLACK
6
CONTINUOUS
10
0.739682559055118
20
0.6106706692913386
11
0.7395337401574803
21
0.6115146456692914
0
LINE
8
BLACK
6
CONTINUOUS
10
0.7395337401574803
20
0.6115146456692914
11
0.739618622047244
21
0.6116617322834645
0
LINE
8
BLACK
6
CONTINUOUS
10
0.739618622047244
20
0.6116617322834645
11
0.739607716535433
21
0.6118311023622047
0
LINE
8
BLACK
6
CONTINUOUS
10
0.739607716535433
20
0.6118311023622047
11
0.740115157480315
21
0.6125217322834645
0
LINE
8
BLACK
6
CONTINUOUS
10
0.740115157480315
20
0.6125217322834645
11
0.7405436614173229
21
0.6132638188976378
0
LINE
8
BLACK
6
CONTINUOUS
10
0.7405436614173229
20
0.6132638188976378
11
0.7407031496062992
21
0.6133218897637795
0
LINE
8
BLACK
6
CONTINUOUS
10
0.7407031496062992
20
0.6133218897637795
11
0.7408037401574803
21
0.6134587401574803
0
LINE
8
BLACK
6
CONTINUOUS
10
0.7408037401574803
20
0.6134587401574803
11
0.7461847637795276
21
0.6170461023622047
0
LINE
8
BLACK
6
CONTINUOUS
10
0.7461847637795276
20
0.6170461023622047
11
0.7493887401574802
21
0.6202500393700787
0
LINE
8
BLACK
6
CONTINUOUS
10
0.7493887401574802
20
0.6202500393700787
11
0.7510492125984252
21
0.6235709842519684
0
LINE
8
BLACK
6
CONTINUOUS
10
0.7510492125984252
20
0.6235709842519684
11
0.7516601181102363
21
0.6243946456692914
0
LINE
8
BLACK
6
CONTINUOUS
10
0.7516601181102363
20
0.6243946456692914
11
0.7535133070866141
21
0.6251979133858268
0
LINE
8
BLACK
6
CONTINUOUS
10
0.7535133070866141
20
0.6251979133858268
11
0.7554493307086614
21
0.6246220472440944
0
LINE
8
BLACK
6
CONTINUOUS
10
0.456339094488189
20
0.6303384251968503
11
0.4582138976377952
21
0.6284636614173228
0
LINE
8
BLACK
6
CONTINUOUS
10
0.4582138976377952
20
0.6284636614173228
11
0.4587202755905512
21
0.6277405118110236
0
LINE
8
BLACK
6
CONTINUOUS
10
0.4587202755905512
20
0.6277405118110236
11
0.4587670472440945
21
0.6276962204724409
0
LINE
8
BLACK
6
CONTINUOUS
10
0.4587670472440945
20
0.6276962204724409
11
0.4606418110236221
21
0.6239466929133858
0
LINE
8
BLACK
6
CONTINUOUS
10
0.4606418110236221
20
0.6239466929133858
11
0.4609341732283465
21
0.622963779527559
0
LINE
8
BLACK
6
CONTINUOUS
10
0.4609341732283465
20
0.622963779527559
11
0.4608931496062992
21
0.6227920866141732
0
LINE
8
BLACK
6
CONTINUOUS
10
0.4608931496062992
20
0.6227920866141732
11
0.4609535433070866
21
0.6226261811023622
0
LINE
8
BLACK
6
CONTINUOUS
10
0.4609535433070866
20
0.6226261811023622
11
0.4609535433070866
21
0.6132523622047243
0
LINE
8
BLACK
6
CONTINUOUS
10
0.4609535433070866
20
0.6132523622047243
11
0.4607754724409449
21
0.6122424409448819
0
LINE
8
BLACK
6
CONTINUOUS
10
0.4607754724409449
20
0.6122424409448819
11
0.460661968503937
21
0.6121072047244094
0
LINE
8
BLACK
6
CONTINUOUS
10
0.460661968503937
20
0.6121072047244094
11
0.4606418110236221
21
0.6119318503937008
0
LINE
8
BLACK
6
CONTINUOUS
10
0.4606418110236221
20
0.6119318503937008
11
0.4587670472440945
21
0.6081823228346457
0
LINE
8
BLACK
6
CONTINUOUS
10
0.4587670472440945
20
0.6081823228346457
11
0.458241062992126
21
0.6074732283464567
0
LINE
8
BLACK
6
CONTINUOUS
10
0.458241062992126
20
0.6074732283464567
11
0.4582138976377952
21
0.6074148818897638
0
LINE
8
BLACK
6
CONTINUOUS
10
0.4582138976377952
20
0.6074148818897638
11
0.456339094488189
21
0.6055401181102362
0
LINE
8
BLACK
6
CONTINUOUS
10
0.456339094488189
20
0.6055401181102362
11
0.4556160236220472
21
0.6050338582677165
0
LINE
8
BLACK
6
CONTINUOUS
10
0.4556160236220472
20
0.6050338582677165
11
0.4555717322834645
21
0.6049870472440945
0
LINE
8
BLACK
6
CONTINUOUS
10
0.4555717322834645
20
0.6049870472440945
11
0.4518222047244094
21
0.6031122834645669
0
LINE
8
BLACK
6
CONTINUOUS
10
0.4518222047244094
20
0.6031122834645669
11
0.4508392519685039
21
0.6028199212598425
0
LINE
8
BLACK
6
CONTINUOUS
10
0.4508392519685039
20
0.6028199212598425
11
0.4506675590551181
21
0.6028609448818898
0
LINE
8
BLACK
6
CONTINUOUS
10
0.4506675590551181
20
0.6028609448818898
11
0.4505016929133858
21
0.6028005511811023
0
LINE
8
BLACK
6
CONTINUOUS
10
0.4505016929133858
20
0.6028005511811023
11
0.441127874015748
21
0.6028005511811023
0
LINE
8
BLACK
6
CONTINUOUS
10
0.441127874015748
20
0.6028005511811023
11
0.4401179527559055
21
0.6029786220472441
0
LINE
8
BLACK
6
CONTINUOUS
10
0.4401179527559055
20
0.6029786220472441
11
0.4399826771653543
21
0.603092125984252
0
LINE
8
BLACK
6
CONTINUOUS
10
0.4399826771653543
20
0.603092125984252
11
0.4398073622047244
21
0.6031122834645669
0
LINE
8
BLACK
6
CONTINUOUS
10
0.4398073622047244
20
0.6031122834645669
11
0.4360578346456693
21
0.6049870472440945
0
LINE
8
BLACK
6
CONTINUOUS
10
0.4360578346456693
20
0.6049870472440945
11
0.4353487401574803
21
0.6055129527559054
0
LINE
8
BLACK
6
CONTINUOUS
10
0.4353487401574803
20
0.6055129527559054
11
0.4352904330708661
21
0.605540157480315
0
LINE
8
BLACK
6
CONTINUOUS
10
0.4352904330708661
20
0.605540157480315
11
0.4334156692913386
21
0.6074149212598425
0
LINE
8
BLACK
6
CONTINUOUS
10
0.4334156692913386
20
0.6074149212598425
11
0.4329093700787401
21
0.6081380314960629
0
LINE
8
BLACK
6
CONTINUOUS
10
0.4329093700787401
20
0.6081380314960629
11
0.4328625590551181
21
0.6081823228346457
0
LINE
8
BLACK
6
CONTINUOUS
10
0.4328625590551181
20
0.6081823228346457
11
0.4309877952755906
21
0.6119318503937008
0
LINE
8
BLACK
6
CONTINUOUS
10
0.4309877952755906
20
0.6119318503937008
11
0.4306954330708661
21
0.6129148031496063
0
LINE
8
BLACK
6
CONTINUOUS
10
0.4306954330708661
20
0.6129148031496063
11
0.4307364173228346
21
0.6130864960629921
0
LINE
8
BLACK
6
CONTINUOUS
10
0.4307364173228346
20
0.6130864960629921
11
0.430676062992126
21
0.6132523622047243
0
LINE
8
BLACK
6
CONTINUOUS
10
0.430676062992126
20
0.6132523622047243
11
0.430676062992126
21
0.6226261811023622
0
LINE
8
BLACK
6
CONTINUOUS
10
0.430676062992126
20
0.6226261811023622
11
0.4308541338582677
21
0.6236361023622047
0
LINE
8
BLACK
6
CONTINUOUS
10
0.4308541338582677
20
0.6236361023622047
11
0.4309675984251968
21
0.6237713779527559
0
LINE
8
BLACK
6
CONTINUOUS
10
0.4309675984251968
20
0.6237713779527559
11
0.4309877952755906
21
0.6239466929133858
0
LINE
8
BLACK
6
CONTINUOUS
10
0.4309877952755906
20
0.6239466929133858
11
0.4313547244094488
21
0.6246806299212598
0
LINE
8
BLACK
6
CONTINUOUS
10
0.4313547244094488
20
0.6246806299212598
11
0.4215834645669291
21
0.6237035039370079
0
LINE
8
BLACK
6
CONTINUOUS
10
0.4215834645669291
20
0.6237035039370079
11
0.4215834645669291
21
0.6076280708661417
0
LINE
8
BLACK
6
CONTINUOUS
10
0.4215834645669291
20
0.6076280708661417
11
0.4214053937007874
21
0.6066181496062992
0
LINE
8
BLACK
6
CONTINUOUS
10
0.4214053937007874
20
0.6066181496062992
11
0.4201070866141732
21
0.605070905511811
0
LINE
8
BLACK
6
CONTINUOUS
10
0.4201070866141732
20
0.605070905511811
11
0.4181179527559055
21
0.6047201574803149
0
LINE
8
BLACK
6
CONTINUOUS
10
0.4181179527559055
20
0.6047201574803149
11
0.416368779527559
21
0.6057300787401575
0
LINE
8
BLACK
6
CONTINUOUS
10
0.416368779527559
20
0.6057300787401575
11
0.4156779527559055
21
0.6076280708661417
0
LINE
8
BLACK
6
CONTINUOUS
10
0.4156779527559055
20
0.6076280708661417
11
0.4156779527559055
21
0.6263757086614173
0
LINE
8
BLACK
6
CONTINUOUS
10
0.4156779527559055
20
0.6263757086614173
11
0.4157050393700787
21
0.6265295669291339
0
LINE
8
BLACK
6
CONTINUOUS
10
0.4157050393700787
20
0.6265295669291339
11
0.4156862204724409
21
0.6265965748031496
0
LINE
8
BLACK
6
CONTINUOUS
10
0.4156862204724409
20
0.6265965748031496
11
0.4157365354330709
21
0.6267081496062992
0
LINE
8
BLACK
6
CONTINUOUS
10
0.4157365354330709
20
0.6267081496062992
11
0.4158560236220472
21
0.6273856299212598
0
LINE
8
BLACK
6
CONTINUOUS
10
0.4158560236220472
20
0.6273856299212598
11
0.416259094488189
21
0.6278660236220472
0
LINE
8
BLACK
6
CONTINUOUS
10
0.416259094488189
20
0.6278660236220472
11
0.4165170472440945
21
0.6284375590551181
0
LINE
8
BLACK
6
CONTINUOUS
10
0.4165170472440945
20
0.6284375590551181
11
0.4168889763779527
21
0.6286166535433071
0
LINE
8
BLACK
6
CONTINUOUS
10
0.4168889763779527
20
0.6286166535433071
11
0.4171543307086614
21
0.628932874015748
0
LINE
8
BLACK
6
CONTINUOUS
10
0.4171543307086614
20
0.628932874015748
11
0.4177718503937008
21
0.6290417716535432
0
LINE
8
BLACK
6
CONTINUOUS
10
0.4177718503937008
20
0.6290417716535432
11
0.4183368897637795
21
0.6293138188976378
0
LINE
8
BLACK
6
CONTINUOUS
10
0.4183368897637795
20
0.6293138188976378
11
0.4370845275590551
21
0.6311885826771654
0
LINE
8
BLACK
6
CONTINUOUS
10
0.4370845275590551
20
0.6311885826771654
11
0.4381071653543307
21
0.6311118897637795
0
LINE
8
BLACK
6
CONTINUOUS
10
0.4381071653543307
20
0.6311118897637795
11
0.4381232283464567
21
0.6311009448818897
0
LINE
8
BLACK
6
CONTINUOUS
10
0.4381232283464567
20
0.6311009448818897
11
0.4381425590551181
21
0.6311025984251968
0
LINE
8
BLACK
6
CONTINUOUS
10
0.4381425590551181
20
0.6311025984251968
11
0.4389542913385827
21
0.6305342519685039
0
LINE
8
BLACK
6
CONTINUOUS
10
0.4389542913385827
20
0.6305342519685039
11
0.439775905511811
21
0.6299739763779527
0
LINE
8
BLACK
6
CONTINUOUS
10
0.439775905511811
20
0.6299739763779527
11
0.4397811417322834
21
0.6299552755905512
0
LINE
8
BLACK
6
CONTINUOUS
10
0.4397811417322834
20
0.6299552755905512
11
0.439797125984252
21
0.629944094488189
0
LINE
8
BLACK
6
CONTINUOUS
10
0.439797125984252
20
0.629944094488189
11
0.4400540157480315
21
0.6289851968503937
0
LINE
8
BLACK
6
CONTINUOUS
10
0.4400540157480315
20
0.6289851968503937
11
0.4403228346456693
21
0.6280296062992126
0
LINE
8
BLACK
6
CONTINUOUS
10
0.4403228346456693
20
0.6280296062992126
11
0.4403148031496063
21
0.6280118897637795
0
LINE
8
BLACK
6
CONTINUOUS
10
0.4403148031496063
20
0.6280118897637795
11
0.440319842519685
21
0.6279931102362205
0
LINE
8
BLACK
6
CONTINUOUS
10
0.440319842519685
20
0.6279931102362205
11
0.439900905511811
21
0.6270947637795276
0
LINE
8
BLACK
6
CONTINUOUS
10
0.439900905511811
20
0.6270947637795276
11
0.4394920078740157
21
0.6261886220472441
0
LINE
8
BLACK
6
CONTINUOUS
10
0.4394920078740157
20
0.6261886220472441
11
0.4394744488188976
21
0.6261801968503937
0
LINE
8
BLACK
6
CONTINUOUS
10
0.4394744488188976
20
0.6261801968503937
11
0.4394662598425197
21
0.6261625590551181
0
LINE
8
BLACK
6
CONTINUOUS
10
0.4394662598425197
20
0.6261625590551181
11
0.4379303149606299
21
0.6246266141732283
0
LINE
8
BLACK
6
CONTINUOUS
10
0.4379303149606299
20
0.6246266141732283
11
0.4365815748031496
21
0.6219291338582678
0
LINE
8
BLACK
6
CONTINUOUS
10
0.4365815748031496
20
0.6219291338582678
11
0.4365815748031496
21
0.6139494094488189
0
LINE
8
BLACK
6
CONTINUOUS
10
0.4365815748031496
20
0.6139494094488189
11
0.4379303149606299
21
0.6112519291338583
0
LINE
8
BLACK
6
CONTINUOUS
10
0.4379303149606299
20
0.6112519291338583
11
0.4391274409448819
21
0.6100548031496063
0
LINE
8
BLACK
6
CONTINUOUS
10
0.4391274409448819
20
0.6100548031496063
11
0.4418249212598425
21
0.6087060629921259
0
LINE
8
BLACK
6
CONTINUOUS
10
0.4418249212598425
20
0.6087060629921259
11
0.4498046456692913
21
0.6087060629921259
0
LINE
8
BLACK
6
CONTINUOUS
10
0.4498046456692913
20
0.6087060629921259
11
0.4525021259842519
21
0.610054842519685
0
LINE
8
BLACK
6
CONTINUOUS
10
0.4525021259842519
20
0.610054842519685
11
0.4536992913385827
21
0.611251968503937
0
LINE
8
BLACK
6
CONTINUOUS
10
0.4536992913385827
20
0.611251968503937
11
0.455048031496063
21
0.6139494094488189
0
LINE
8
BLACK
6
CONTINUOUS
10
0.455048031496063
20
0.6139494094488189
11
0.455048031496063
21
0.6219291338582678
0
LINE
8
BLACK
6
CONTINUOUS
10
0.455048031496063
20
0.6219291338582678
11
0.4536992913385827
21
0.6246266141732283
0
LINE
8
BLACK
6
CONTINUOUS
10
0.4536992913385827
20
0.6246266141732283
11
0.4521633464566929
21
0.6261625196850393
0
LINE
8
BLACK
6
CONTINUOUS
10
0.4521633464566929
20
0.6261625196850393
11
0.4515751181102362
21
0.6270025590551181
0
LINE
8
BLACK
6
CONTINUOUS
10
0.4515751181102362
20
0.6270025590551181
11
0.4513990551181102
21
0.6290146850393701
0
LINE
8
BLACK
6
CONTINUOUS
10
0.4513990551181102
20
0.6290146850393701
11
0.4525575590551181
21
0.6306692519685039
0
LINE
8
BLACK
6
CONTINUOUS
10
0.4525575590551181
20
0.6306692519685039
11
0.4545085433070866
21
0.631191968503937
0
LINE
8
BLACK
6
CONTINUOUS
10
0.4545085433070866
20
0.631191968503937
11
0.456339094488189
21
0.6303384251968503
0
LINE
8
BLACK
6
CONTINUOUS
10
0.4420640551181102
20
0.6858041732283464
11
0.4427559448818897
21
0.6841338582677166
0
LINE
8
BLACK
6
CONTINUOUS
10
0.4427559448818897
20
0.6841338582677166
11
0.4420640551181102
21
0.6824635433070866
0
LINE
8
BLACK
6
CONTINUOUS
10
0.4420640551181102
20
0.6824635433070866
11
0.4403937401574803
21
0.681771653543307
0
LINE
8
BLACK
6
CONTINUOUS
10
0.4403937401574803
20
0.681771653543307
11
0.4037795669291339
21
0.681771653543307
0
LINE
8
BLACK
6
CONTINUOUS
10
0.4037795669291339
20
0.681771653543307
11
0.4037795669291339
21
0.6132677165354331
0
LINE
8
BLACK
6
CONTINUOUS
10
0.4037795669291339
20
0.6132677165354331
11
0.4030876771653543
21
0.6115974015748031
0
LINE
8
BLACK
6
CONTINUOUS
10
0.4030876771653543
20
0.6115974015748031
11
0.4014173622047244
21
0.6109055118110236
0
LINE
8
BLACK
6
CONTINUOUS
10
0.4014173622047244
20
0.6109055118110236
11
0.344330748031496
21
0.6109055118110236
0
LINE
8
BLACK
6
CONTINUOUS
10
0.344330748031496
20
0.6109055118110236
11
0.3426604330708661
21
0.6115974015748031
0
LINE
8
BLACK
6
CONTINUOUS
10
0.3426604330708661
20
0.6115974015748031
11
0.3419685433070866
21
0.6132677165354331
0
LINE
8
BLACK
6
CONTINUOUS
10
0.3419685433070866
20
0.6132677165354331
11
0.3426604330708661
21
0.614938031496063
0
LINE
8
BLACK
6
CONTINUOUS
10
0.3426604330708661
20
0.614938031496063
11
0.344330748031496
21
0.6156299212598425
0
LINE
8
BLACK
6
CONTINUOUS
10
0.344330748031496
20
0.6156299212598425
11
0.3990551574803149
21
0.6156299212598425
0
LINE
8
BLACK
6
CONTINUOUS
10
0.3990551574803149
20
0.6156299212598425
11
0.3990551574803149
21
0.6841338582677166
0
LINE
8
BLACK
6
CONTINUOUS
10
0.3990551574803149
20
0.6841338582677166
11
0.3997470472440945
21
0.6858041732283464
0
LINE
8
BLACK
6
CONTINUOUS
10
0.3997470472440945
20
0.6858041732283464
11
0.4014173622047244
21
0.686496062992126
0
LINE
8
BLACK
6
CONTINUOUS
10
0.4014173622047244
20
0.686496062992126
11
0.4403937401574803
21
0.686496062992126
0
LINE
8
BLACK
6
CONTINUOUS
10
0.4403937401574803
20
0.686496062992126
11
0.4420640551181102
21
0.6858041732283464
0
LINE
8
BLACK
6
CONTINUOUS
10
0.8002529527559055
20
0.6858041732283464
11
0.800944842519685
21
0.6841338582677166
0
LINE
8
BLACK
6
CONTINUOUS
10
0.800944842519685
20
0.6841338582677166
11
0.800944842519685
21
0.6156299212598425
0
LINE
8
BLACK
6
CONTINUOUS
10
0.800944842519685
20
0.6156299212598425
11
0.855669251968504
21
0.6156299212598425
0
LINE
8
BLACK
6
CONTINUOUS
10
0.855669251968504
20
0.6156299212598425
11
0.8573395669291338
21
0.614938031496063
0
LINE
8
BLACK
6
CONTINUOUS
10
0.8573395669291338
20
0.614938031496063
11
0.8580314566929134
21
0.6132677165354331
0
LINE
8
BLACK
6
CONTINUOUS
10
0.8580314566929134
20
0.6132677165354331
11
0.8573395669291338
21
0.6115974015748031
0
LINE
8
BLACK
6
CONTINUOUS
10
0.8573395669291338
20
0.6115974015748031
11
0.855669251968504
21
0.6109055118110236
0
LINE
8
BLACK
6
CONTINUOUS
10
0.855669251968504
20
0.6109055118110236
11
0.7985826377952756
21
0.6109055118110236
0
LINE
8
BLACK
6
CONTINUOUS
10
0.7985826377952756
20
0.6109055118110236
11
0.7969123228346456
21
0.6115974015748031
0
LINE
8
BLACK
6
CONTINUOUS
10
0.7969123228346456
20
0.6115974015748031
11
0.7962204330708661
21
0.6132677165354331
0
LINE
8
BLACK
6
CONTINUOUS
10
0.7962204330708661
20
0.6132677165354331
11
0.7962204330708661
21
0.6841338582677166
0
LINE
8
BLACK
6
CONTINUOUS
10
0.7962204330708661
20
0.6841338582677166
11
0.7969123228346456
21
0.6858041732283464
0
LINE
8
BLACK
6
CONTINUOUS
10
0.7969123228346456
20
0.6858041732283464
11
0.7985826377952756
21
0.686496062992126
0
LINE
8
BLACK
6
CONTINUOUS
10
0.7985826377952756
20
0.686496062992126
11
0.8002529527559055
21
0.6858041732283464
0
LINE
8
BLACK
6
CONTINUOUS
10
0.7840736614173228
20
0.6560194881889764
11
0.7847644881889764
21
0.6541214960629921
0
LINE
8
BLACK
6
CONTINUOUS
10
0.7847644881889764
20
0.6541214960629921
11
0.7847644881889764
21
0.650371968503937
0
LINE
8
BLACK
6
CONTINUOUS
10
0.7847644881889764
20
0.650371968503937
11
0.7846111811023622
21
0.6495025984251969
0
LINE
8
BLACK
6
CONTINUOUS
10
0.7846111811023622
20
0.6495025984251969
11
0.7846129527559055
21
0.649438188976378
0
LINE
8
BLACK
6
CONTINUOUS
10
0.7846129527559055
20
0.649438188976378
11
0.7827381889763779
21
0.643813937007874
0
LINE
8
BLACK
6
CONTINUOUS
10
0.7827381889763779
20
0.643813937007874
11
0.7822498818897637
21
0.6429121653543307
0
LINE
8
BLACK
6
CONTINUOUS
10
0.7822498818897637
20
0.6429121653543307
11
0.7820994881889763
21
0.6428198031496063
0
LINE
8
BLACK
6
CONTINUOUS
10
0.7820994881889763
20
0.6428198031496063
11
0.7820248818897637
21
0.6426597637795275
0
LINE
8
BLACK
6
CONTINUOUS
10
0.7820248818897637
20
0.6426597637795275
11
0.7782753149606298
21
0.6389102362204724
0
LINE
8
BLACK
6
CONTINUOUS
10
0.7782753149606298
20
0.6389102362204724
11
0.7774352755905511
21
0.6383220078740157
0
LINE
8
BLACK
6
CONTINUOUS
10
0.7774352755905511
20
0.6383220078740157
11
0.7772593307086614
21
0.6383066535433071
0
LINE
8
BLACK
6
CONTINUOUS
10
0.7772593307086614
20
0.6383066535433071
11
0.7771211417322834
21
0.6381969291338583
0
LINE
8
BLACK
6
CONTINUOUS
10
0.7771211417322834
20
0.6381969291338583
11
0.7714968503937008
21
0.6363221653543307
0
LINE
8
BLACK
6
CONTINUOUS
10
0.7714968503937008
20
0.6363221653543307
11
0.7706236614173229
21
0.6361927165354331
0
LINE
8
BLACK
6
CONTINUOUS
10
0.7706236614173229
20
0.6361927165354331
11
0.7705631102362205
21
0.6361706299212598
0
LINE
8
BLACK
6
CONTINUOUS
10
0.7705631102362205
20
0.6361706299212598
11
0.742441653543307
21
0.6361706299212598
0
LINE
8
BLACK
6
CONTINUOUS
10
0.742441653543307
20
0.6361706299212598
11
0.7414317322834646
21
0.6363487007874016
0
LINE
8
BLACK
6
CONTINUOUS
10
0.7414317322834646
20
0.6363487007874016
11
0.7398844881889763
21
0.6376470078740157
0
LINE
8
BLACK
6
CONTINUOUS
10
0.7398844881889763
20
0.6376470078740157
11
0.7395337401574803
21
0.6396361417322834
0
LINE
8
BLACK
6
CONTINUOUS
10
0.7395337401574803
20
0.6396361417322834
11
0.7405436614173229
21
0.6413853149606299
0
LINE
8
BLACK
6
CONTINUOUS
10
0.7405436614173229
20
0.6413853149606299
11
0.742441653543307
21
0.6420761417322834
0
LINE
8
BLACK
6
CONTINUOUS
10
0.742441653543307
20
0.6420761417322834
11
0.7700839763779528
21
0.6420761417322834
0
LINE
8
BLACK
6
CONTINUOUS
10
0.7700839763779528
20
0.6420761417322834
11
0.7745923622047244
21
0.6435789763779527
0
LINE
8
BLACK
6
CONTINUOUS
10
0.7745923622047244
20
0.6435789763779527
11
0.7773561811023622
21
0.6463427559055118
0
LINE
8
BLACK
6
CONTINUOUS
10
0.7773561811023622
20
0.6463427559055118
11
0.7788589763779528
21
0.6508511023622047
0
LINE
8
BLACK
6
CONTINUOUS
10
0.7788589763779528
20
0.6508511023622047
11
0.7788589763779528
21
0.6541214960629921
0
LINE
8
BLACK
6
CONTINUOUS
10
0.7788589763779528
20
0.6541214960629921
11
0.7790370472440945
21
0.6551314173228346
0
LINE
8
BLACK
6
CONTINUOUS
10
0.7790370472440945
20
0.6551314173228346
11
0.7803353543307087
21
0.6566786614173228
0
LINE
8
BLACK
6
CONTINUOUS
10
0.7803353543307087
20
0.6566786614173228
11
0.7823244881889764
21
0.6570294094488189
0
LINE
8
BLACK
6
CONTINUOUS
10
0.7823244881889764
20
0.6570294094488189
11
0.7840736614173228
21
0.6560194881889764
0
LINE
8
BLACK
6
CONTINUOUS
10
0.460262716535433
20
0.6620194881889764
11
0.4609535433070866
21
0.6601214960629921
0
LINE
8
BLACK
6
CONTINUOUS
10
0.4609535433070866
20
0.6601214960629921
11
0.4609535433070866
21
0.656371968503937
0
LINE
8
BLACK
6
CONTINUOUS
10
0.4609535433070866
20
0.656371968503937
11
0.4608002362204724
21
0.6555025984251969
0
LINE
8
BLACK
6
CONTINUOUS
10
0.4608002362204724
20
0.6555025984251969
11
0.4608020078740158
21
0.655438188976378
0
LINE
8
BLACK
6
CONTINUOUS
10
0.4608020078740158
20
0.655438188976378
11
0.4589272440944882
21
0.649813937007874
0
LINE
8
BLACK
6
CONTINUOUS
10
0.4589272440944882
20
0.649813937007874
11
0.458438937007874
21
0.6489121653543307
0
LINE
8
BLACK
6
CONTINUOUS
10
0.458438937007874
20
0.6489121653543307
11
0.4582885433070866
21
0.6488198031496063
0
LINE
8
BLACK
6
CONTINUOUS
10
0.4582885433070866
20
0.6488198031496063
11
0.458213937007874
21
0.6486597637795275
0
LINE
8
BLACK
6
CONTINUOUS
10
0.458213937007874
20
0.6486597637795275
11
0.4544643700787401
21
0.6449102362204724
0
LINE
8
BLACK
6
CONTINUOUS
10
0.4544643700787401
20
0.6449102362204724
11
0.4536243307086614
21
0.6443220078740157
0
LINE
8
BLACK
6
CONTINUOUS
10
0.4536243307086614
20
0.6443220078740157
11
0.4534483858267717
21
0.6443066535433071
0
LINE
8
BLACK
6
CONTINUOUS
10
0.4534483858267717
20
0.6443066535433071
11
0.4533101968503937
21
0.6441969291338583
0
LINE
8
BLACK
6
CONTINUOUS
10
0.4533101968503937
20
0.6441969291338583
11
0.447685905511811
21
0.6423221653543307
0
LINE
8
BLACK
6
CONTINUOUS
10
0.447685905511811
20
0.6423221653543307
11
0.4468127165354331
21
0.6421927165354331
0
LINE
8
BLACK
6
CONTINUOUS
10
0.4468127165354331
20
0.6421927165354331
11
0.4467521653543307
21
0.6421706299212598
0
LINE
8
BLACK
6
CONTINUOUS
10
0.4467521653543307
20
0.6421706299212598
11
0.4186307086614173
21
0.6421706299212598
0
LINE
8
BLACK
6
CONTINUOUS
10
0.4186307086614173
20
0.6421706299212598
11
0.4176207874015748
21
0.6423487007874016
0
LINE
8
BLACK
6
CONTINUOUS
10
0.4176207874015748
20
0.6423487007874016
11
0.4160735433070866
21
0.6436470078740157
0
LINE
8
BLACK
6
CONTINUOUS
10
0.4160735433070866
20
0.6436470078740157
11
0.4157227952755905
21
0.6456361417322835
0
LINE
8
BLACK
6
CONTINUOUS
10
0.4157227952755905
20
0.6456361417322835
11
0.416732716535433
21
0.6473853149606299
0
LINE
8
BLACK
6
CONTINUOUS
10
0.416732716535433
20
0.6473853149606299
11
0.4186307086614173
21
0.6480761417322835
0
LINE
8
BLACK
6
CONTINUOUS
10
0.4186307086614173
20
0.6480761417322835
11
0.446273031496063
21
0.6480761417322835
0
LINE
8
BLACK
6
CONTINUOUS
10
0.446273031496063
20
0.6480761417322835
11
0.4507814173228346
21
0.6495789763779527
0
LINE
8
BLACK
6
CONTINUOUS
10
0.4507814173228346
20
0.6495789763779527
11
0.4535452362204724
21
0.6523427559055118
0
LINE
8
BLACK
6
CONTINUOUS
10
0.4535452362204724
20
0.6523427559055118
11
0.455048031496063
21
0.6568511023622047
0
LINE
8
BLACK
6
CONTINUOUS
10
0.455048031496063
20
0.6568511023622047
11
0.455048031496063
21
0.6601214960629921
0
LINE
8
BLACK
6
CONTINUOUS
10
0.455048031496063
20
0.6601214960629921
11
0.4552261023622047
21
0.6611314173228346
0
LINE
8
BLACK
6
CONTINUOUS
10
0.4552261023622047
20
0.6611314173228346
11
0.4565244094488189
21
0.6626786614173228
0
LINE
8
BLACK
6
CONTINUOUS
10
0.4565244094488189
20
0.6626786614173228
11
0.4585135433070866
21
0.6630294094488188
0
LINE
8
BLACK
6
CONTINUOUS
10
0.4585135433070866
20
0.6630294094488188
11
0.460262716535433
21
0.6620194881889764
0
LINE
8
BLACK
6
CONTINUOUS
10
0.2349774409448819
20
0.8984025984251969
11
0.2356693307086614
21
0.8967322834645669
0
LINE
8
BLACK
6
CONTINUOUS
10
0.2356693307086614
20
0.8967322834645669
11
0.2356693307086614
21
0.663267716535433
0
LINE
8
BLACK
6
CONTINUOUS
10
0.2356693307086614
20
0.663267716535433
11
0.2349774409448819
21
0.6615974015748032
0
LINE
8
BLACK
6
CONTINUOUS
10
0.2349774409448819
20
0.6615974015748032
11
0.233307125984252
21
0.6609055118110236
0
LINE
8
BLACK
6
CONTINUOUS
10
0.233307125984252
20
0.6609055118110236
11
0.231636811023622
21
0.6615974015748032
0
LINE
8
BLACK
6
CONTINUOUS
10
0.231636811023622
20
0.6615974015748032
11
0.2309449212598425
21
0.663267716535433
0
LINE
8
BLACK
6
CONTINUOUS
10
0.2309449212598425
20
0.663267716535433
11
0.2309449212598425
21
0.8967322834645669
0
LINE
8
BLACK
6
CONTINUOUS
10
0.2309449212598425
20
0.8967322834645669
11
0.231636811023622
21
0.8984025984251969
0
LINE
8
BLACK
6
CONTINUOUS
10
0.231636811023622
20
0.8984025984251969
11
0.233307125984252
21
0.8990944881889763
0
LINE
8
BLACK
6
CONTINUOUS
10
0.233307125984252
20
0.8990944881889763
11
0.2349774409448819
21
0.8984025984251969
0
LINE
8
BLACK
6
CONTINUOUS
10
0.968363188976378
20
0.8984025984251969
11
0.9690550787401575
21
0.8967322834645669
0
LINE
8
BLACK
6
CONTINUOUS
10
0.9690550787401575
20
0.8967322834645669
11
0.9690550787401575
21
0.663267716535433
0
LINE
8
BLACK
6
CONTINUOUS
10
0.9690550787401575
20
0.663267716535433
11
0.968363188976378
21
0.6615974015748032
0
LINE
8
BLACK
6
CONTINUOUS
10
0.968363188976378
20
0.6615974015748032
11
0.966692874015748
21
0.6609055118110236
0
LINE
8
BLACK
6
CONTINUOUS
10
0.966692874015748
20
0.6609055118110236
11
0.9650225590551181
21
0.6615974015748032
0
LINE
8
BLACK
6
CONTINUOUS
10
0.9650225590551181
20
0.6615974015748032
11
0.9643306692913386
21
0.663267716535433
0
LINE
8
BLACK
6
CONTINUOUS
10
0.9643306692913386
20
0.663267716535433
11
0.9643306692913386
21
0.8967322834645669
0
LINE
8
BLACK
6
CONTINUOUS
10
0.9643306692913386
20
0.8967322834645669
11
0.9650225590551181
21
0.8984025984251969
0
LINE
8
BLACK
6
CONTINUOUS
10
0.9650225590551181
20
0.8984025984251969
11
0.966692874015748
21
0.8990944881889763
0
LINE
8
BLACK
6
CONTINUOUS
10
0.966692874015748
20
0.8990944881889763
11
0.968363188976378
21
0.8984025984251969
0
LINE
8
BLACK
6
CONTINUOUS
10
0.4014173622047244
20
0.9490944881889763
11
0.4030876771653543
21
0.9484025984251968
0
LINE
8
BLACK
6
CONTINUOUS
10
0.4030876771653543
20
0.9484025984251968
11
0.4037795669291339
21
0.9467322834645669
0
LINE
8
BLACK
6
CONTINUOUS
10
0.4037795669291339
20
0.9467322834645669
11
0.4037795669291339
21
0.8758661417322835
0
LINE
8
BLACK
6
CONTINUOUS
10
0.4037795669291339
20
0.8758661417322835
11
0.4030876771653543
21
0.8741958267716535
0
LINE
8
BLACK
6
CONTINUOUS
10
0.4030876771653543
20
0.8741958267716535
11
0.4014173622047244
21
0.873503937007874
0
LINE
8
BLACK
6
CONTINUOUS
10
0.4014173622047244
20
0.873503937007874
11
0.3997470472440945
21
0.8741958267716535
0
LINE
8
BLACK
6
CONTINUOUS
10
0.3997470472440945
20
0.8741958267716535
11
0.3990551574803149
21
0.8758661417322835
0
LINE
8
BLACK
6
CONTINUOUS
10
0.3990551574803149
20
0.8758661417322835
11
0.3990551574803149
21
0.9443700787401574
0
LINE
8
BLACK
6
CONTINUOUS
10
0.3990551574803149
20
0.9443700787401574
11
0.344330748031496
21
0.9443700787401574
0
LINE
8
BLACK
6
CONTINUOUS
10
0.344330748031496
20
0.9443700787401574
11
0.3426604330708661
21
0.945061968503937
0
LINE
8
BLACK
6
CONTINUOUS
10
0.3426604330708661
20
0.945061968503937
11
0.3419685433070866
21
0.9467322834645669
0
LINE
8
BLACK
6
CONTINUOUS
10
0.3419685433070866
20
0.9467322834645669
11
0.3426604330708661
21
0.9484025984251968
0
LINE
8
BLACK
6
CONTINUOUS
10
0.3426604330708661
20
0.9484025984251968
11
0.344330748031496
21
0.9490944881889763
0
LINE
8
BLACK
6
CONTINUOUS
10
0.344330748031496
20
0.9490944881889763
11
0.4014173622047244
21
0.9490944881889763
0
LINE
8
BLACK
6
CONTINUOUS
10
0.8573395669291338
20
0.9484025984251968
11
0.8580314566929134
21
0.9467322834645669
0
LINE
8
BLACK
6
CONTINUOUS
10
0.8580314566929134
20
0.9467322834645669
11
0.8573395669291338
21
0.945061968503937
0
LINE
8
BLACK
6
CONTINUOUS
10
0.8573395669291338
20
0.945061968503937
11
0.855669251968504
21
0.9443700787401574
0
LINE
8
BLACK
6
CONTINUOUS
10
0.855669251968504
20
0.9443700787401574
11
0.800944842519685
21
0.9443700787401574
0
LINE
8
BLACK
6
CONTINUOUS
10
0.800944842519685
20
0.9443700787401574
11
0.800944842519685
21
0.8758661417322835
0
LINE
8
BLACK
6
CONTINUOUS
10
0.800944842519685
20
0.8758661417322835
11
0.8002529527559055
21
0.8741958267716535
0
LINE
8
BLACK
6
CONTINUOUS
10
0.8002529527559055
20
0.8741958267716535
11
0.7985826377952756
21
0.873503937007874
0
LINE
8
BLACK
6
CONTINUOUS
10
0.7985826377952756
20
0.873503937007874
11
0.7596062598425196
21
0.873503937007874
0
LINE
8
BLACK
6
CONTINUOUS
10
0.7596062598425196
20
0.873503937007874
11
0.7579359448818898
21
0.8741958267716535
0
LINE
8
BLACK
6
CONTINUOUS
10
0.7579359448818898
20
0.8741958267716535
11
0.7572440551181102
21
0.8758661417322835
0
LINE
8
BLACK
6
CONTINUOUS
10
0.7572440551181102
20
0.8758661417322835
11
0.7579359448818898
21
0.8775364566929134
0
LINE
8
BLACK
6
CONTINUOUS
10
0.7579359448818898
20
0.8775364566929134
11
0.7596062598425196
21
0.8782283464566929
0
LINE
8
BLACK
6
CONTINUOUS
10
0.7596062598425196
20
0.8782283464566929
11
0.7962204330708661
21
0.8782283464566929
0
LINE
8
BLACK
6
CONTINUOUS
10
0.7962204330708661
20
0.8782283464566929
11
0.7962204330708661
21
0.9467322834645669
0
LINE
8
BLACK
6
CONTINUOUS
10
0.7962204330708661
20
0.9467322834645669
11
0.7969123228346456
21
0.9484025984251968
0
LINE
8
BLACK
6
CONTINUOUS
10
0.7969123228346456
20
0.9484025984251968
11
0.7985826377952756
21
0.9490944881889763
0
LINE
8
BLACK
6
CONTINUOUS
10
0.7985826377952756
20
0.9490944881889763
11
0.855669251968504
21
0.9490944881889763
0
LINE
8
BLACK
6
CONTINUOUS
10
0.855669251968504
20
0.9490944881889763
11
0.8573395669291338
21
0.9484025984251968
0
LINE
8
BLACK
6
CONTINUOUS
10
0.445167874015748
20
1.0531192125984252
11
0.445390157480315
21
1.0531583858267717
0
LINE
8
BLACK
6
CONTINUOUS
10
0.445390157480315
20
1.0531583858267717
11
0.4460876377952756
21
1.0527556692913385
0
LINE
8
BLACK
6
CONTINUOUS
10
0.4460876377952756
20
1.0527556692913385
11
0.4468364566929134
21
1.0524597244094489
0
LINE
8
BLACK
6
CONTINUOUS
10
0.4468364566929134
20
1.0524597244094489
11
0.4469438976377952
21
1.0522612992125984
0
LINE
8
BLACK
6
CONTINUOUS
10
0.4469438976377952
20
1.0522612992125984
11
0.4471393307086614
21
1.052148464566929
0
LINE
8
BLACK
6
CONTINUOUS
10
0.4471393307086614
20
1.052148464566929
11
0.4474147244094488
21
1.0513917716535433
0
LINE
8
BLACK
6
CONTINUOUS
10
0.4474147244094488
20
1.0513917716535433
11
0.4477982283464567
21
1.0506835826771654
0
LINE
8
BLACK
6
CONTINUOUS
10
0.4477982283464567
20
1.0506835826771654
11
0.4477529527559055
21
1.0504625196850395
0
LINE
8
BLACK
6
CONTINUOUS
10
0.4477529527559055
20
1.0504625196850395
11
0.447830157480315
21
1.0502504724409449
0
LINE
8
BLACK
6
CONTINUOUS
10
0.447830157480315
20
1.0502504724409449
11
0.447830157480315
21
1.034455590551181
0
LINE
8
BLACK
6
CONTINUOUS
10
0.447830157480315
20
1.034455590551181
11
0.4580007874015748
21
1.034455590551181
0
LINE
8
BLACK
6
CONTINUOUS
10
0.4580007874015748
20
1.034455590551181
11
0.4590107086614173
21
1.0342775196850393
0
LINE
8
BLACK
6
CONTINUOUS
10
0.4590107086614173
20
1.0342775196850393
11
0.4605579527559055
21
1.0329792125984252
0
LINE
8
BLACK
6
CONTINUOUS
10
0.4605579527559055
20
1.0329792125984252
11
0.4609087007874015
21
1.0309900787401574
0
LINE
8
BLACK
6
CONTINUOUS
10
0.4609087007874015
20
1.0309900787401574
11
0.459898779527559
21
1.029240905511811
0
LINE
8
BLACK
6
CONTINUOUS
10
0.459898779527559
20
1.029240905511811
11
0.4580007874015748
21
1.0285500787401574
0
LINE
8
BLACK
6
CONTINUOUS
10
0.4580007874015748
20
1.0285500787401574
11
0.447830157480315
21
1.0285500787401574
0
LINE
8
BLACK
6
CONTINUOUS
10
0.447830157480315
20
1.0285500787401574
11
0.447830157480315
21
1.0258785433070865
0
LINE
8
BLACK
6
CONTINUOUS
10
0.447830157480315
20
1.0258785433070865
11
0.4476520866141732
21
1.024868622047244
0
LINE
8
BLACK
6
CONTINUOUS
10
0.4476520866141732
20
1.024868622047244
11
0.4463537795275591
21
1.0233213779527559
0
LINE
8
BLACK
6
CONTINUOUS
10
0.4463537795275591
20
1.0233213779527559
11
0.4443646456692913
21
1.0229706299212598
0
LINE
8
BLACK
6
CONTINUOUS
10
0.4443646456692913
20
1.0229706299212598
11
0.4426154724409448
21
1.0239805511811024
0
LINE
8
BLACK
6
CONTINUOUS
10
0.4426154724409448
20
1.0239805511811024
11
0.4419246456692913
21
1.0258785433070865
0
LINE
8
BLACK
6
CONTINUOUS
10
0.4419246456692913
20
1.0258785433070865
11
0.4419246456692913
21
1.0285500787401574
0
LINE
8
BLACK
6
CONTINUOUS
10
0.4419246456692913
20
1.0285500787401574
11
0.4317540551181102
21
1.0285500787401574
0
LINE
8
BLACK
6
CONTINUOUS
10
0.4317540551181102
20
1.0285500787401574
11
0.4307441338582677
21
1.0287281496062992
0
LINE
8
BLACK
6
CONTINUOUS
10
0.4307441338582677
20
1.0287281496062992
11
0.4291968897637795
21
1.0300264566929134
0
LINE
8
BLACK
6
CONTINUOUS
10
0.4291968897637795
20
1.0300264566929134
11
0.4288461417322835
21
1.032015590551181
0
LINE
8
BLACK
6
CONTINUOUS
10
0.4288461417322835
20
1.032015590551181
11
0.429856062992126
21
1.0337647637795275
0
LINE
8
BLACK
6
CONTINUOUS
10
0.429856062992126
20
1.0337647637795275
11
0.4317540551181102
21
1.034455590551181
0
LINE
8
BLACK
6
CONTINUOUS
10
0.4317540551181102
20
1.034455590551181
11
0.4419246456692913
21
1.034455590551181
0
LINE
8
BLACK
6
CONTINUOUS
10
0.4419246456692913
20
1.034455590551181
11
0.4419246456692913
21
1.0461537795275591
0
LINE
8
BLACK
6
CONTINUOUS
10
0.4419246456692913
20
1.0461537795275591
11
0.4176896850393701
21
1.0380754330708661
0
LINE
8
BLACK
6
CONTINUOUS
10
0.4176896850393701
20
1.0380754330708661
11
0.4166752755905512
21
1.037925
0
LINE
8
BLACK
6
CONTINUOUS
10
0.4166752755905512
20
1.037925
11
0.4147968897637795
21
1.0386674015748032
0
LINE
8
BLACK
6
CONTINUOUS
10
0.4147968897637795
20
1.0386674015748032
11
0.4138351181102362
21
1.0404435433070867
0
LINE
8
BLACK
6
CONTINUOUS
10
0.4138351181102362
20
1.0404435433070867
11
0.4142400787401574
21
1.0424223228346456
0
LINE
8
BLACK
6
CONTINUOUS
10
0.4142400787401574
20
1.0424223228346456
11
0.4158222047244094
21
1.043677874015748
0
LINE
8
BLACK
6
CONTINUOUS
10
0.4158222047244094
20
1.043677874015748
11
0.4439436220472441
21
1.0530516929133857
0
LINE
8
BLACK
6
CONTINUOUS
10
0.4439436220472441
20
1.0530516929133857
11
0.444958031496063
21
1.0532021259842519
0
LINE
8
BLACK
6
CONTINUOUS
10
0.444958031496063
20
1.0532021259842519
11
0.445167874015748
21
1.0531192125984252
0
LINE
8
BLACK
6
CONTINUOUS
10
0.4420640551181102
20
1.1278041732283464
11
0.4427559448818897
21
1.1261338582677165
0
LINE
8
BLACK
6
CONTINUOUS
10
0.4427559448818897
20
1.1261338582677165
11
0.4420640551181102
21
1.1244635433070866
0
LINE
8
BLACK
6
CONTINUOUS
10
0.4420640551181102
20
1.1244635433070866
11
0.4403937401574803
21
1.1237716535433071
0
LINE
8
BLACK
6
CONTINUOUS
10
0.4403937401574803
20
1.1237716535433071
11
0.4037795669291339
21
1.1237716535433071
0
LINE
8
BLACK
6
CONTINUOUS
10
0.4037795669291339
20
1.1237716535433071
11
0.4037795669291339
21
1.0552677165354329
0
LINE
8
BLACK
6
CONTINUOUS
10
0.4037795669291339
20
1.0552677165354329
11
0.4030876771653543
21
1.0535974015748031
0
LINE
8
BLACK
6
CONTINUOUS
10
0.4030876771653543
20
1.0535974015748031
11
0.4014173622047244
21
1.0529055118110235
0
LINE
8
BLACK
6
CONTINUOUS
10
0.4014173622047244
20
1.0529055118110235
11
0.344330748031496
21
1.0529055118110235
0
LINE
8
BLACK
6
CONTINUOUS
10
0.344330748031496
20
1.0529055118110235
11
0.3426604330708661
21
1.0535974015748031
0
LINE
8
BLACK
6
CONTINUOUS
10
0.3426604330708661
20
1.0535974015748031
11
0.3419685433070866
21
1.0552677165354329
0
LINE
8
BLACK
6
CONTINUOUS
10
0.3419685433070866
20
1.0552677165354329
11
0.3426604330708661
21
1.056938031496063
0
LINE
8
BLACK
6
CONTINUOUS
10
0.3426604330708661
20
1.056938031496063
11
0.344330748031496
21
1.0576299212598426
0
LINE
8
BLACK
6
CONTINUOUS
10
0.344330748031496
20
1.0576299212598426
11
0.3990551574803149
21
1.0576299212598426
0
LINE
8
BLACK
6
CONTINUOUS
10
0.3990551574803149
20
1.0576299212598426
11
0.3990551574803149
21
1.1261338582677165
0
LINE
8
BLACK
6
CONTINUOUS
10
0.3990551574803149
20
1.1261338582677165
11
0.3997470472440945
21
1.1278041732283464
0
LINE
8
BLACK
6
CONTINUOUS
10
0.3997470472440945
20
1.1278041732283464
11
0.4014173622047244
21
1.1284960629921259
0
LINE
8
BLACK
6
CONTINUOUS
10
0.4014173622047244
20
1.1284960629921259
11
0.4403937401574803
21
1.1284960629921259
0
LINE
8
BLACK
6
CONTINUOUS
10
0.4403937401574803
20
1.1284960629921259
11
0.4420640551181102
21
1.1278041732283464
0
LINE
8
BLACK
6
CONTINUOUS
10
0.8002529527559055
20
1.1278041732283464
11
0.800944842519685
21
1.1261338582677165
0
LINE
8
BLACK
6
CONTINUOUS
10
0.800944842519685
20
1.1261338582677165
11
0.800944842519685
21
1.0576299212598426
0
LINE
8
BLACK
6
CONTINUOUS
10
0.800944842519685
20
1.0576299212598426
11
0.855669251968504
21
1.0576299212598426
0
LINE
8
BLACK
6
CONTINUOUS
10
0.855669251968504
20
1.0576299212598426
11
0.8573395669291338
21
1.056938031496063
0
LINE
8
BLACK
6
CONTINUOUS
10
0.8573395669291338
20
1.056938031496063
11
0.8580314566929134
21
1.0552677165354329
0
LINE
8
BLACK
6
CONTINUOUS
10
0.8580314566929134
20
1.0552677165354329
11
0.8573395669291338
21
1.0535974015748031
0
LINE
8
BLACK
6
CONTINUOUS
10
0.8573395669291338
20
1.0535974015748031
11
0.855669251968504
21
1.0529055118110235
0
LINE
8
BLACK
6
CONTINUOUS
10
0.855669251968504
20
1.0529055118110235
11
0.7985826377952756
21
1.0529055118110235
0
LINE
8
BLACK
6
CONTINUOUS
10
0.7985826377952756
20
1.0529055118110235
11
0.7969123228346456
21
1.0535974015748031
0
LINE
8
BLACK
6
CONTINUOUS
10
0.7969123228346456
20
1.0535974015748031
11
0.7962204330708661
21
1.0552677165354329
0
LINE
8
BLACK
6
CONTINUOUS
10
0.7962204330708661
20
1.0552677165354329
11
0.7962204330708661
21
1.1261338582677165
0
LINE
8
BLACK
6
CONTINUOUS
10
0.7962204330708661
20
1.1261338582677165
11
0.7969123228346456
21
1.1278041732283464
0
LINE
8
BLACK
6
CONTINUOUS
10
0.7969123228346456
20
1.1278041732283464
11
0.7985826377952756
21
1.1284960629921259
0
LINE
8
BLACK
6
CONTINUOUS
10
0.7985826377952756
20
1.1284960629921259
11
0.8002529527559055
21
1.1278041732283464
0
LINE
8
BLACK
6
CONTINUOUS
10
0.7704414173228347
20
1.0889656692913385
11
0.7705759842519685
21
1.0889774015748031
0
LINE
8
BLACK
6
CONTINUOUS
10
0.7705759842519685
20
1.0889774015748031
11
0.7713041338582677
21
1.0884675590551181
0
LINE
8
BLACK
6
CONTINUOUS
10
0.7713041338582677
20
1.0884675590551181
11
0.7720736614173228
21
1.0880232283464566
0
LINE
8
BLACK
6
CONTINUOUS
10
0.7720736614173228
20
1.0880232283464566
11
0.7721198031496063
21
1.087896377952756
0
LINE
8
BLACK
6
CONTINUOUS
10
0.7721198031496063
20
1.087896377952756
11
0.7722305118110236
21
1.0878188582677164
0
LINE
8
BLACK
6
CONTINUOUS
10
0.7722305118110236
20
1.0878188582677164
11
0.7724605118110236
21
1.0869603543307087
0
LINE
8
BLACK
6
CONTINUOUS
10
0.7724605118110236
20
1.0869603543307087
11
0.7727644881889764
21
1.0861252362204725
0
LINE
8
BLACK
6
CONTINUOUS
10
0.7727644881889764
20
1.0861252362204725
11
0.7727644881889764
21
1.0617533070866141
0
LINE
8
BLACK
6
CONTINUOUS
10
0.7727644881889764
20
1.0617533070866141
11
0.7725864173228346
21
1.0607433858267716
0
LINE
8
BLACK
6
CONTINUOUS
10
0.7725864173228346
20
1.0607433858267716
11
0.7712881102362205
21
1.0591961417322835
0
LINE
8
BLACK
6
CONTINUOUS
10
0.7712881102362205
20
1.0591961417322835
11
0.7692989763779527
21
1.0588453937007873
0
LINE
8
BLACK
6
CONTINUOUS
10
0.7692989763779527
20
1.0588453937007873
11
0.7675498031496063
21
1.0598553149606298
0
LINE
8
BLACK
6
CONTINUOUS
10
0.7675498031496063
20
1.0598553149606298
11
0.7668589763779528
21
1.0617533070866141
0
LINE
8
BLACK
6
CONTINUOUS
10
0.7668589763779528
20
1.0617533070866141
11
0.7668589763779528
21
1.0789966929133858
0
LINE
8
BLACK
6
CONTINUOUS
10
0.7668589763779528
20
1.0789966929133858
11
0.7494024409448818
21
1.0615401574803149
0
LINE
8
BLACK
6
CONTINUOUS
10
0.7494024409448818
20
1.0615401574803149
11
0.7485624015748031
21
1.060951968503937
0
LINE
8
BLACK
6
CONTINUOUS
10
0.7485624015748031
20
1.060951968503937
11
0.7483865354330709
21
1.0609366141732284
0
LINE
8
BLACK
6
CONTINUOUS
10
0.7483865354330709
20
1.0609366141732284
11
0.7482482677165354
21
1.0608268503937008
0
LINE
8
BLACK
6
CONTINUOUS
10
0.7482482677165354
20
1.0608268503937008
11
0.7426239763779527
21
1.0589520866141733
0
LINE
8
BLACK
6
CONTINUOUS
10
0.7426239763779527
20
1.0589520866141733
11
0.7417507874015747
21
1.0588226377952756
0
LINE
8
BLACK
6
CONTINUOUS
10
0.7417507874015747
20
1.0588226377952756
11
0.7416902362204725
21
1.0588005511811023
0
LINE
8
BLACK
6
CONTINUOUS
10
0.7416902362204725
20
1.0588005511811023
11
0.7379407086614173
21
1.0588005511811023
0
LINE
8
BLACK
6
CONTINUOUS
10
0.7379407086614173
20
1.0588005511811023
11
0.7369307874015748
21
1.0589786220472441
0
LINE
8
BLACK
6
CONTINUOUS
10
0.7369307874015748
20
1.0589786220472441
11
0.7367955118110237
21
1.0590921259842518
0
LINE
8
BLACK
6
CONTINUOUS
10
0.7367955118110237
20
1.0590921259842518
11
0.7366201968503937
21
1.059112283464567
0
LINE
8
BLACK
6
CONTINUOUS
10
0.7366201968503937
20
1.059112283464567
11
0.7328706692913386
21
1.0609870472440945
0
LINE
8
BLACK
6
CONTINUOUS
10
0.7328706692913386
20
1.0609870472440945
11
0.7321615748031496
21
1.0615129527559055
0
LINE
8
BLACK
6
CONTINUOUS
10
0.7321615748031496
20
1.0615129527559055
11
0.7321032677165354
21
1.0615401574803149
0
LINE
8
BLACK
6
CONTINUOUS
10
0.7321032677165354
20
1.0615401574803149
11
0.7302285039370079
21
1.0634149212598425
0
LINE
8
BLACK
6
CONTINUOUS
10
0.7302285039370079
20
1.0634149212598425
11
0.7297222047244094
21
1.0641380314960629
0
LINE
8
BLACK
6
CONTINUOUS
10
0.7297222047244094
20
1.0641380314960629
11
0.7296753937007874
21
1.0641823228346456
0
LINE
8
BLACK
6
CONTINUOUS
10
0.7296753937007874
20
1.0641823228346456
11
0.7278006299212598
21
1.0679318503937008
0
LINE
8
BLACK
6
CONTINUOUS
10
0.7278006299212598
20
1.0679318503937008
11
0.7275082677165354
21
1.0689148031496063
0
LINE
8
BLACK
6
CONTINUOUS
10
0.7275082677165354
20
1.0689148031496063
11
0.727549251968504
21
1.069086496062992
0
LINE
8
BLACK
6
CONTINUOUS
10
0.727549251968504
20
1.069086496062992
11
0.7274888976377952
21
1.0692523622047243
0
LINE
8
BLACK
6
CONTINUOUS
10
0.7274888976377952
20
1.0692523622047243
11
0.7274888976377952
21
1.0786261811023621
0
LINE
8
BLACK
6
CONTINUOUS
10
0.7274888976377952
20
1.0786261811023621
11
0.727666968503937
21
1.0796361023622048
0
LINE
8
BLACK
6
CONTINUOUS
10
0.727666968503937
20
1.0796361023622048
11
0.7277804330708662
21
1.0797713779527558
0
LINE
8
BLACK
6
CONTINUOUS
10
0.7277804330708662
20
1.0797713779527558
11
0.7278006299212598
21
1.0799466929133859
0
LINE
8
BLACK
6
CONTINUOUS
10
0.7278006299212598
20
1.0799466929133859
11
0.7296753937007874
21
1.083696220472441
0
LINE
8
BLACK
6
CONTINUOUS
10
0.7296753937007874
20
1.083696220472441
11
0.7302012992125984
21
1.0844053149606299
0
LINE
8
BLACK
6
CONTINUOUS
10
0.7302012992125984
20
1.0844053149606299
11
0.7302285039370079
21
1.0844636220472441
0
LINE
8
BLACK
6
CONTINUOUS
10
0.7302285039370079
20
1.0844636220472441
11
0.7321032677165354
21
1.0863383858267717
0
LINE
8
BLACK
6
CONTINUOUS
10
0.7321032677165354
20
1.0863383858267717
11
0.7329433070866141
21
1.0869265748031496
0
LINE
8
BLACK
6
CONTINUOUS
10
0.7329433070866141
20
1.0869265748031496
11
0.7349553937007873
21
1.0871025984251967
0
LINE
8
BLACK
6
CONTINUOUS
10
0.7349553937007873
20
1.0871025984251967
11
0.7366099606299212
21
1.0859440944881888
0
LINE
8
BLACK
6
CONTINUOUS
10
0.7366099606299212
20
1.0859440944881888
11
0.7371326771653544
21
1.0839931102362204
0
LINE
8
BLACK
6
CONTINUOUS
10
0.7371326771653544
20
1.0839931102362204
11
0.736279094488189
21
1.082162559055118
0
LINE
8
BLACK
6
CONTINUOUS
10
0.736279094488189
20
1.082162559055118
11
0.7347431496062992
21
1.0806266141732284
0
LINE
8
BLACK
6
CONTINUOUS
10
0.7347431496062992
20
1.0806266141732284
11
0.7333944094488188
21
1.0779291338582677
0
LINE
8
BLACK
6
CONTINUOUS
10
0.7333944094488188
20
1.0779291338582677
11
0.7333944094488188
21
1.0699494094488189
0
LINE
8
BLACK
6
CONTINUOUS
10
0.7333944094488188
20
1.0699494094488189
11
0.7347431496062992
21
1.0672519291338582
0
LINE
8
BLACK
6
CONTINUOUS
10
0.7347431496062992
20
1.0672519291338582
11
0.7359402755905512
21
1.0660548031496062
0
LINE
8
BLACK
6
CONTINUOUS
10
0.7359402755905512
20
1.0660548031496062
11
0.7386377559055118
21
1.0647060629921259
0
LINE
8
BLACK
6
CONTINUOUS
10
0.7386377559055118
20
1.0647060629921259
11
0.7412111023622047
21
1.0647060629921259
0
LINE
8
BLACK
6
CONTINUOUS
10
0.7412111023622047
20
1.0647060629921259
11
0.7457194881889764
21
1.0662088976377952
0
LINE
8
BLACK
6
CONTINUOUS
10
0.7457194881889764
20
1.0662088976377952
11
0.7677238188976377
21
1.0882131496062992
0
LINE
8
BLACK
6
CONTINUOUS
10
0.7677238188976377
20
1.0882131496062992
11
0.7682518503937008
21
1.0885829527559054
0
LINE
8
BLACK
6
CONTINUOUS
10
0.7682518503937008
20
1.0885829527559054
11
0.7683353543307087
21
1.0886824015748031
0
LINE
8
BLACK
6
CONTINUOUS
10
0.7683353543307087
20
1.0886824015748031
11
0.7684136614173228
21
1.0886962204724409
0
LINE
8
BLACK
6
CONTINUOUS
10
0.7684136614173228
20
1.0886962204724409
11
0.7685638582677166
21
1.0888013779527559
0
LINE
8
BLACK
6
CONTINUOUS
10
0.7685638582677166
20
1.0888013779527559
11
0.7694494094488189
21
1.0888788582677165
0
LINE
8
BLACK
6
CONTINUOUS
10
0.7694494094488189
20
1.0888788582677165
11
0.7703244881889764
21
1.0890331496062993
0
LINE
8
BLACK
6
CONTINUOUS
10
0.7703244881889764
20
1.0890331496062993
11
0.7704414173228347
21
1.0889656692913385
0
LINE
8
BLACK
6
CONTINUOUS
10
0.460262716535433
20
1.0840194881889764
11
0.4609535433070866
21
1.0821214960629921
0
LINE
8
BLACK
6
CONTINUOUS
10
0.4609535433070866
20
1.0821214960629921
11
0.4609535433070866
21
1.078371968503937
0
LINE
8
BLACK
6
CONTINUOUS
10
0.4609535433070866
20
1.078371968503937
11
0.4608002362204724
21
1.0775025984251969
0
LINE
8
BLACK
6
CONTINUOUS
10
0.4608002362204724
20
1.0775025984251969
11
0.4608020078740158
21
1.077438188976378
0
LINE
8
BLACK
6
CONTINUOUS
10
0.4608020078740158
20
1.077438188976378
11
0.4589272440944882
21
1.0718139370078741
0
LINE
8
BLACK
6
CONTINUOUS
10
0.4589272440944882
20
1.0718139370078741
11
0.458438937007874
21
1.0709121653543308
0
LINE
8
BLACK
6
CONTINUOUS
10
0.458438937007874
20
1.0709121653543308
11
0.4582885433070866
21
1.0708198031496063
0
LINE
8
BLACK
6
CONTINUOUS
10
0.4582885433070866
20
1.0708198031496063
11
0.458213937007874
21
1.0706597637795274
0
LINE
8
BLACK
6
CONTINUOUS
10
0.458213937007874
20
1.0706597637795274
11
0.4544643700787401
21
1.0669102362204723
0
LINE
8
BLACK
6
CONTINUOUS
10
0.4544643700787401
20
1.0669102362204723
11
0.4536243307086614
21
1.0663220078740157
0
LINE
8
BLACK
6
CONTINUOUS
10
0.4536243307086614
20
1.0663220078740157
11
0.4534483858267717
21
1.066306653543307
0
LINE
8
BLACK
6
CONTINUOUS
10
0.4534483858267717
20
1.066306653543307
11
0.4533101968503937
21
1.0661969291338582
0
LINE
8
BLACK
6
CONTINUOUS
10
0.4533101968503937
20
1.0661969291338582
11
0.447685905511811
21
1.0643221653543307
0
LINE
8
BLACK
6
CONTINUOUS
10
0.447685905511811
20
1.0643221653543307
11
0.4468127165354331
21
1.064192716535433
0
LINE
8
BLACK
6
CONTINUOUS
10
0.4468127165354331
20
1.064192716535433
11
0.4467521653543307
21
1.0641706299212599
0
LINE
8
BLACK
6
CONTINUOUS
10
0.4467521653543307
20
1.0641706299212599
11
0.4186307086614173
21
1.0641706299212599
0
LINE
8
BLACK
6
CONTINUOUS
10
0.4186307086614173
20
1.0641706299212599
11
0.4176207874015748
21
1.0643487007874015
0
LINE
8
BLACK
6
CONTINUOUS
10
0.4176207874015748
20
1.0643487007874015
11
0.4160735433070866
21
1.0656470078740157
0
LINE
8
BLACK
6
CONTINUOUS
10
0.4160735433070866
20
1.0656470078740157
11
0.4157227952755905
21
1.0676361417322835
0
LINE
8
BLACK
6
CONTINUOUS
10
0.4157227952755905
20
1.0676361417322835
11
0.416732716535433
21
1.0693853149606298
0
LINE
8
BLACK
6
CONTINUOUS
10
0.416732716535433
20
1.0693853149606298
11
0.4186307086614173
21
1.0700761417322835
0
LINE
8
BLACK
6
CONTINUOUS
10
0.4186307086614173
20
1.0700761417322835
11
0.446273031496063
21
1.0700761417322835
0
LINE
8
BLACK
6
CONTINUOUS
10
0.446273031496063
20
1.0700761417322835
11
0.4507814173228346
21
1.0715789763779526
0
LINE
8
BLACK
6
CONTINUOUS
10
0.4507814173228346
20
1.0715789763779526
11
0.4535452362204724
21
1.0743427559055119
0
LINE
8
BLACK
6
CONTINUOUS
10
0.4535452362204724
20
1.0743427559055119
11
0.455048031496063
21
1.0788511023622047
0
LINE
8
BLACK
6
CONTINUOUS
10
0.455048031496063
20
1.0788511023622047
11
0.455048031496063
21
1.0821214960629921
0
LINE
8
BLACK
6
CONTINUOUS
10
0.455048031496063
20
1.0821214960629921
11
0.4552261023622047
21
1.0831314173228346
0
LINE
8
BLACK
6
CONTINUOUS
10
0.4552261023622047
20
1.0831314173228346
11
0.4565244094488189
21
1.0846786614173227
0
LINE
8
BLACK
6
CONTINUOUS
10
0.4565244094488189
20
1.0846786614173227
11
0.4585135433070866
21
1.0850294094488189
0
LINE
8
BLACK
6
CONTINUOUS
10
0.4585135433070866
20
1.0850294094488189
11
0.460262716535433
21
1.0840194881889764
0
LINE
8
BLACK
6
CONTINUOUS
10
0.7720736614173228
20
1.1180194881889765
11
0.7727644881889764
21
1.1161214960629922
0
LINE
8
BLACK
6
CONTINUOUS
10
0.7727644881889764
20
1.1161214960629922
11
0.7727644881889764
21
1.112371968503937
0
LINE
8
BLACK
6
CONTINUOUS
10
0.7727644881889764
20
1.112371968503937
11
0.7726111811023622
21
1.1115025984251967
0
LINE
8
BLACK
6
CONTINUOUS
10
0.7726111811023622
20
1.1115025984251967
11
0.7726129527559055
21
1.111438188976378
0
LINE
8
BLACK
6
CONTINUOUS
10
0.7726129527559055
20
1.111438188976378
11
0.7707381889763779
21
1.1058139370078739
0
LINE
8
BLACK
6
CONTINUOUS
10
0.7707381889763779
20
1.1058139370078739
11
0.7702498818897637
21
1.1049121653543308
0
LINE
8
BLACK
6
CONTINUOUS
10
0.7702498818897637
20
1.1049121653543308
11
0.7700994881889763
21
1.1048198031496064
0
LINE
8
BLACK
6
CONTINUOUS
10
0.7700994881889763
20
1.1048198031496064
11
0.7700248818897638
21
1.1046597637795275
0
LINE
8
BLACK
6
CONTINUOUS
10
0.7700248818897638
20
1.1046597637795275
11
0.7662753149606299
21
1.1009102362204723
0
LINE
8
BLACK
6
CONTINUOUS
10
0.7662753149606299
20
1.1009102362204723
11
0.7654352755905511
21
1.1003220078740157
0
LINE
8
BLACK
6
CONTINUOUS
10
0.7654352755905511
20
1.1003220078740157
11
0.7652593307086614
21
1.100306653543307
0
LINE
8
BLACK
6
CONTINUOUS
10
0.7652593307086614
20
1.100306653543307
11
0.7651211417322834
21
1.1001969291338582
0
LINE
8
BLACK
6
CONTINUOUS
10
0.7651211417322834
20
1.1001969291338582
11
0.7594968503937007
21
1.0983221653543307
0
LINE
8
BLACK
6
CONTINUOUS
10
0.7594968503937007
20
1.0983221653543307
11
0.7586236614173228
21
1.098192716535433
0
LINE
8
BLACK
6
CONTINUOUS
10
0.7586236614173228
20
1.098192716535433
11
0.7585631102362205
21
1.0981706299212599
0
LINE
8
BLACK
6
CONTINUOUS
10
0.7585631102362205
20
1.0981706299212599
11
0.730441653543307
21
1.0981706299212599
0
LINE
8
BLACK
6
CONTINUOUS
10
0.730441653543307
20
1.0981706299212599
11
0.7294317322834646
21
1.0983487007874015
0
LINE
8
BLACK
6
CONTINUOUS
10
0.7294317322834646
20
1.0983487007874015
11
0.7278844881889763
21
1.0996470078740157
0
LINE
8
BLACK
6
CONTINUOUS
10
0.7278844881889763
20
1.0996470078740157
11
0.7275337401574803
21
1.1016361417322835
0
LINE
8
BLACK
6
CONTINUOUS
10
0.7275337401574803
20
1.1016361417322835
11
0.7285436614173229
21
1.1033853149606299
0
LINE
8
BLACK
6
CONTINUOUS
10
0.7285436614173229
20
1.1033853149606299
11
0.730441653543307
21
1.1040761417322835
0
LINE
8
BLACK
6
CONTINUOUS
10
0.730441653543307
20
1.1040761417322835
11
0.7580839763779528
21
1.1040761417322835
0
LINE
8
BLACK
6
CONTINUOUS
10
0.7580839763779528
20
1.1040761417322835
11
0.7625923622047244
21
1.1055789763779527
0
LINE
8
BLACK
6
CONTINUOUS
10
0.7625923622047244
20
1.1055789763779527
11
0.7653561811023621
21
1.1083427559055117
0
LINE
8
BLACK
6
CONTINUOUS
10
0.7653561811023621
20
1.1083427559055117
11
0.7668589763779528
21
1.1128511023622047
0
LINE
8
BLACK
6
CONTINUOUS
10
0.7668589763779528
20
1.1128511023622047
11
0.7668589763779528
21
1.1161214960629922
0
LINE
8
BLACK
6
CONTINUOUS
10
0.7668589763779528
20
1.1161214960629922
11
0.7670370472440945
21
1.1171314173228346
0
LINE
8
BLACK
6
CONTINUOUS
10
0.7670370472440945
20
1.1171314173228346
11
0.7683353543307087
21
1.1186786614173228
0
LINE
8
BLACK
6
CONTINUOUS
10
0.7683353543307087
20
1.1186786614173228
11
0.7703244881889764
21
1.1190294094488189
0
LINE
8
BLACK
6
CONTINUOUS
10
0.7703244881889764
20
1.1190294094488189
11
0.7720736614173228
21
1.1180194881889765
0
LINE
8
BLACK
6
CONTINUOUS
10
0.2349774409448819
20
1.3404025984251968
11
0.2356693307086614
21
1.338732283464567
0
LINE
8
BLACK
6
CONTINUOUS
10
0.2356693307086614
20
1.338732283464567
11
0.2356693307086614
21
1.105267716535433
0
LINE
8
BLACK
6
CONTINUOUS
10
0.2356693307086614
20
1.105267716535433
11
0.2349774409448819
21
1.1035974015748031
0
LINE
8
BLACK
6
CONTINUOUS
10
0.2349774409448819
20
1.1035974015748031
11
0.233307125984252
21
1.1029055118110236
0
LINE
8
BLACK
6
CONTINUOUS
10
0.233307125984252
20
1.1029055118110236
11
0.231636811023622
21
1.1035974015748031
0
LINE
8
BLACK
6
CONTINUOUS
10
0.231636811023622
20
1.1035974015748031
11
0.2309449212598425
21
1.105267716535433
0
LINE
8
BLACK
6
CONTINUOUS
10
0.2309449212598425
20
1.105267716535433
11
0.2309449212598425
21
1.338732283464567
0
LINE
8
BLACK
6
CONTINUOUS
10
0.2309449212598425
20
1.338732283464567
11
0.231636811023622
21
1.3404025984251968
0
LINE
8
BLACK
6
CONTINUOUS
10
0.231636811023622
20
1.3404025984251968
11
0.233307125984252
21
1.3410944881889764
0
LINE
8
BLACK
6
CONTINUOUS
10
0.233307125984252
20
1.3410944881889764
11
0.2349774409448819
21
1.3404025984251968
0
LINE
8
BLACK
6
CONTINUOUS
10
0.968363188976378
20
1.3404025984251968
11
0.9690550787401575
21
1.338732283464567
0
LINE
8
BLACK
6
CONTINUOUS
10
0.9690550787401575
20
1.338732283464567
11
0.9690550787401575
21
1.105267716535433
0
LINE
8
BLACK
6
CONTINUOUS
10
0.9690550787401575
20
1.105267716535433
11
0.968363188976378
21
1.1035974015748031
0
LINE
8
BLACK
6
CONTINUOUS
10
0.968363188976378
20
1.1035974015748031
11
0.966692874015748
21
1.1029055118110236
0
LINE
8
BLACK
6
CONTINUOUS
10
0.966692874015748
20
1.1029055118110236
11
0.9650225590551181
21
1.1035974015748031
0
LINE
8
BLACK
6
CONTINUOUS
10
0.9650225590551181
20
1.1035974015748031
11
0.9643306692913386
21
1.105267716535433
0
LINE
8
BLACK
6
CONTINUOUS
10
0.9643306692913386
20
1.105267716535433
11
0.9643306692913386
21
1.338732283464567
0
LINE
8
BLACK
6
CONTINUOUS
10
0.9643306692913386
20
1.338732283464567
11
0.9650225590551181
21
1.3404025984251968
0
LINE
8
BLACK
6
CONTINUOUS
10
0.9650225590551181
20
1.3404025984251968
11
0.966692874015748
21
1.3410944881889764
0
LINE
8
BLACK
6
CONTINUOUS
10
0.966692874015748
20
1.3410944881889764
11
0.968363188976378
21
1.3404025984251968
0
LINE
8
BLACK
6
CONTINUOUS
10
0.4014173622047244
20
1.3910944881889764
11
0.4030876771653543
21
1.3904025984251969
0
LINE
8
BLACK
6
CONTINUOUS
10
0.4030876771653543
20
1.3904025984251969
11
0.4037795669291339
21
1.388732283464567
0
LINE
8
BLACK
6
CONTINUOUS
10
0.4037795669291339
20
1.388732283464567
11
0.4037795669291339
21
1.3178661417322834
0
LINE
8
BLACK
6
CONTINUOUS
10
0.4037795669291339
20
1.3178661417322834
11
0.4030876771653543
21
1.3161958267716536
0
LINE
8
BLACK
6
CONTINUOUS
10
0.4030876771653543
20
1.3161958267716536
11
0.4014173622047244
21
1.315503937007874
0
LINE
8
BLACK
6
CONTINUOUS
10
0.4014173622047244
20
1.315503937007874
11
0.3997470472440945
21
1.3161958267716536
0
LINE
8
BLACK
6
CONTINUOUS
10
0.3997470472440945
20
1.3161958267716536
11
0.3990551574803149
21
1.3178661417322834
0
LINE
8
BLACK
6
CONTINUOUS
10
0.3990551574803149
20
1.3178661417322834
11
0.3990551574803149
21
1.3863700787401574
0
LINE
8
BLACK
6
CONTINUOUS
10
0.3990551574803149
20
1.3863700787401574
11
0.344330748031496
21
1.3863700787401574
0
LINE
8
BLACK
6
CONTINUOUS
10
0.344330748031496
20
1.3863700787401574
11
0.3426604330708661
21
1.3870619685039369
0
LINE
8
BLACK
6
CONTINUOUS
10
0.3426604330708661
20
1.3870619685039369
11
0.3419685433070866
21
1.388732283464567
0
LINE
8
BLACK
6
CONTINUOUS
10
0.3419685433070866
20
1.388732283464567
11
0.3426604330708661
21
1.3904025984251969
0
LINE
8
BLACK
6
CONTINUOUS
10
0.3426604330708661
20
1.3904025984251969
11
0.344330748031496
21
1.3910944881889764
0
LINE
8
BLACK
6
CONTINUOUS
10
0.344330748031496
20
1.3910944881889764
11
0.4014173622047244
21
1.3910944881889764
0
LINE
8
BLACK
6
CONTINUOUS
10
0.8573395669291338
20
1.3904025984251969
11
0.8580314566929134
21
1.388732283464567
0
LINE
8
BLACK
6
CONTINUOUS
10
0.8580314566929134
20
1.388732283464567
11
0.8573395669291338
21
1.3870619685039369
0
LINE
8
BLACK
6
CONTINUOUS
10
0.8573395669291338
20
1.3870619685039369
11
0.855669251968504
21
1.3863700787401574
0
LINE
8
BLACK
6
CONTINUOUS
10
0.855669251968504
20
1.3863700787401574
11
0.800944842519685
21
1.3863700787401574
0
LINE
8
BLACK
6
CONTINUOUS
10
0.800944842519685
20
1.3863700787401574
11
0.800944842519685
21
1.3178661417322834
0
LINE
8
BLACK
6
CONTINUOUS
10
0.800944842519685
20
1.3178661417322834
11
0.8002529527559055
21
1.3161958267716536
0
LINE
8
BLACK
6
CONTINUOUS
10
0.8002529527559055
20
1.3161958267716536
11
0.7985826377952756
21
1.315503937007874
0
LINE
8
BLACK
6
CONTINUOUS
10
0.7985826377952756
20
1.315503937007874
11
0.7596062598425196
21
1.315503937007874
0
LINE
8
BLACK
6
CONTINUOUS
10
0.7596062598425196
20
1.315503937007874
11
0.7579359448818898
21
1.3161958267716536
0
LINE
8
BLACK
6
CONTINUOUS
10
0.7579359448818898
20
1.3161958267716536
11
0.7572440551181102
21
1.3178661417322834
0
LINE
8
BLACK
6
CONTINUOUS
10
0.7572440551181102
20
1.3178661417322834
11
0.7579359448818898
21
1.3195364566929133
0
LINE
8
BLACK
6
CONTINUOUS
10
0.7579359448818898
20
1.3195364566929133
11
0.7596062598425196
21
1.3202283464566928
0
LINE
8
BLACK
6
CONTINUOUS
10
0.7596062598425196
20
1.3202283464566928
11
0.7962204330708661
21
1.3202283464566928
0
LINE
8
BLACK
6
CONTINUOUS
10
0.7962204330708661
20
1.3202283464566928
11
0.7962204330708661
21
1.388732283464567
0
LINE
8
BLACK
6
CONTINUOUS
10
0.7962204330708661
20
1.388732283464567
11
0.7969123228346456
21
1.3904025984251969
0
LINE
8
BLACK
6
CONTINUOUS
10
0.7969123228346456
20
1.3904025984251969
11
0.7985826377952756
21
1.3910944881889764
0
LINE
8
BLACK
6
CONTINUOUS
10
0.7985826377952756
20
1.3910944881889764
11
0.855669251968504
21
1.3910944881889764
0
LINE
8
BLACK
6
CONTINUOUS
10
0.855669251968504
20
1.3910944881889764
11
0.8573395669291338
21
1.3904025984251969
0
CIRCLE
8
BLACK
10
0.8000000393700787
20
1.5999999999999999
40
0.0068897637795276
0
CIRCLE
8
BLACK
10
0.8000000393700787
20
0.4
40
0.0068897637795276
0
CIRCLE
8
BLACK
10
0.4000000393700787
20
0.4
40
0.0068897637795276
0
CIRCLE
8
BLACK
10
0.4000000393700787
20
1.5999999999999999
40
0.0068897637795276
0
CIRCLE
8
BLACK
10
0.5500000393700787
20
1.2
40
0.0068897637795276
0
CIRCLE
8
BLACK
10
0.6500000393700788
20
1.2
40
0.0068897637795276
0
CIRCLE
8
BLACK
10
0.5500000393700787
20
1.0999999999999999
40
0.0068897637795276
0
CIRCLE
8
BLACK
10
0.6500000393700788
20
1.0999999999999999
40
0.0068897637795276
0
CIRCLE
8
BLACK
10
0.5500000393700787
20
1.
40
0.0068897637795276
0
CIRCLE
8
BLACK
10
0.6500000393700788
20
1.
40
0.0068897637795276
0
CIRCLE
8
BLACK
10
0.5500000393700787
20
0.9
40
0.0068897637795276
0
CIRCLE
8
BLACK
10
0.6500000393700788
20
0.9
40
0.0068897637795276
0
CIRCLE
8
BLACK
10
0.5500000393700787
20
0.7999999999999999
40
0.0068897637795276
0
CIRCLE
8
BLACK
10
0.6500000393700788
20
0.7999999999999999
40
0.0068897637795276
  0
ENDSEC
  0
EOF
