  0
SECTION
  2
HEADER
  9
$ANGBASE
  50
0.0
  9
$ANGDIR
  70
1
  9
$MEASUREMENT
  70
0
  0
ENDSEC
  0
SECTION
  2
TABLES
  0
TABLE
  2
LTYPE
  70
4
  0
LTYPE
  5
40F
  2
CONTINUOUS
  70
0
  3
Solid line
  72
65
  73
0
  40
0.0
  0
LTYPE
  5
410
  2
DASHDOT
 70
0
  3
Dash Dot ____ _ ____ _
 72
65
 73
4
 40
2.0
 49
1.25
 49
-0.25
 49
0.25
 49
-0.25
  0
LTYPE
  5
411
  2
DASHED
 70
0
  3
Dashed __ __ __ __ __
 72
65
 73
2
 40
0.75
 49
0.5
 49
-0.25
  0
LTYPE
  5
43B
  2
DOTTED
 70
0
  3
Dotted .  .  .  .
 72
65
 73
2
 40
0.2
 49
0.0
 49
-0.2
  0
ENDTAB
  0
TABLE
  2
STYLE
  70
4
  0
STYLE
  2
KICAD
  70
0
  40
0
  41
1
  42
1
  50
0
  71
0
  3
isocp.shx
  0
STYLE
  2
KICADB
  70
0
  40
0
  41
1
  42
1
  50
0
  71
0
  3
isocp.shx
  0
STYLE
  2
KICADI
  70
0
  40
0
  41
1
  42
1
  50
15
  71
0
  3
isocp.shx
  0
STYLE
  2
KICADBI
  70
0
  40
0
  41
1
  42
1
  50
15
  71
0
  3
isocp.shx
  0
ENDTAB
  0
TABLE
  2
LAYER
  70
1
  0
LAYER
  2
BLACK
  70
0
  62
7
  6
CONTINUOUS
  0
ENDTAB
  0
ENDSEC
  0
SECTION
  2
ENTITIES
0
LINE
8
BLACK
6
CONTINUOUS
10
0.3695120866141732
20
0.9809774409448818
11
0.373902125984252
21
0.9787405905511811
0
LINE
8
BLACK
6
CONTINUOUS
10
0.373902125984252
20
0.9787405905511811
11
0.3773861023622047
21
0.9752566141732283
0
LINE
8
BLACK
6
CONTINUOUS
10
0.3773861023622047
20
0.9752566141732283
11
0.3776651181102362
21
0.9747089763779527
0
LINE
8
BLACK
6
CONTINUOUS
10
0.3776651181102362
20
0.9747089763779527
11
0.4839998818897638
21
0.9748584251968504
0
LINE
8
BLACK
6
CONTINUOUS
10
0.4839998818897638
20
0.9748584251968504
11
0.485728031496063
21
0.9746882283464566
0
LINE
8
BLACK
6
CONTINUOUS
10
0.485728031496063
20
0.9746882283464566
11
0.4857280708661417
21
0.9746882283464566
0
LINE
8
BLACK
6
CONTINUOUS
10
0.4857280708661417
20
0.9746882283464566
11
0.4889212992125984
21
0.9733655511811024
0
LINE
8
BLACK
6
CONTINUOUS
10
0.4889212992125984
20
0.9733655511811024
11
0.5324424015748032
21
0.9299999999999999
0
LINE
8
BLACK
6
CONTINUOUS
10
0.5324424015748032
20
0.9299999999999999
11
0.5800000393700787
21
0.9299999999999999
0
LINE
8
BLACK
6
CONTINUOUS
10
0.5800000393700787
20
0.9299999999999999
11
0.5800000393700787
21
0.9087411811023622
0
LINE
8
BLACK
6
CONTINUOUS
10
0.5800000393700787
20
0.9087411811023622
11
0.6200000393700787
21
0.9088081102362204
0
LINE
8
BLACK
6
CONTINUOUS
10
0.6200000393700787
20
0.9088081102362204
11
0.6200000393700787
21
0.9299999999999999
0
LINE
8
BLACK
6
CONTINUOUS
10
0.6200000393700787
20
0.9299999999999999
11
0.6800000393700787
21
0.9299999999999999
0
LINE
8
BLACK
6
CONTINUOUS
10
0.6800000393700787
20
0.9299999999999999
11
0.6800000393700787
21
0.8987081102362204
0
LINE
8
BLACK
6
CONTINUOUS
10
0.6800000393700787
20
0.8987081102362204
11
0.8303785039370079
21
0.8988466535433071
0
LINE
8
BLACK
6
CONTINUOUS
10
0.8303785039370079
20
0.8988466535433071
11
0.8309052362204724
21
0.8998803543307087
0
LINE
8
BLACK
6
CONTINUOUS
10
0.8309052362204724
20
0.8998803543307087
11
0.8343892125984251
21
0.9033643307086614
0
LINE
8
BLACK
6
CONTINUOUS
10
0.8343892125984251
20
0.9033643307086614
11
0.8387792519685039
21
0.9056011811023622
0
LINE
8
BLACK
6
CONTINUOUS
10
0.8387792519685039
20
0.9056011811023622
11
0.8436456692913386
21
0.9063719291338582
0
LINE
8
BLACK
6
CONTINUOUS
10
0.8436456692913386
20
0.9063719291338582
11
0.8485120866141732
21
0.9056011811023622
0
LINE
8
BLACK
6
CONTINUOUS
10
0.8485120866141732
20
0.9056011811023622
11
0.852902125984252
21
0.9033643307086614
0
LINE
8
BLACK
6
CONTINUOUS
10
0.852902125984252
20
0.9033643307086614
11
0.8563861023622047
21
0.8998803543307087
0
LINE
8
BLACK
6
CONTINUOUS
10
0.8563861023622047
20
0.8998803543307087
11
0.8586229527559055
21
0.8954903149606299
0
LINE
8
BLACK
6
CONTINUOUS
10
0.8586229527559055
20
0.8954903149606299
11
0.8593937007874015
21
0.8906238976377953
0
LINE
8
BLACK
6
CONTINUOUS
10
0.8593937007874015
20
0.8906238976377953
11
0.8586229527559055
21
0.8857574803149606
0
LINE
8
BLACK
6
CONTINUOUS
10
0.8586229527559055
20
0.8857574803149606
11
0.8563861023622047
21
0.8813674409448818
0
LINE
8
BLACK
6
CONTINUOUS
10
0.8563861023622047
20
0.8813674409448818
11
0.852902125984252
21
0.8778834645669291
0
LINE
8
BLACK
6
CONTINUOUS
10
0.852902125984252
20
0.8778834645669291
11
0.8485120866141732
21
0.8756466141732283
0
LINE
8
BLACK
6
CONTINUOUS
10
0.8485120866141732
20
0.8756466141732283
11
0.8436456692913386
21
0.8748758661417323
0
LINE
8
BLACK
6
CONTINUOUS
10
0.8436456692913386
20
0.8748758661417323
11
0.8387792519685039
21
0.8756466141732283
0
LINE
8
BLACK
6
CONTINUOUS
10
0.8387792519685039
20
0.8756466141732283
11
0.8343892125984251
21
0.8778834645669291
0
LINE
8
BLACK
6
CONTINUOUS
10
0.8343892125984251
20
0.8778834645669291
11
0.8309734251968504
21
0.8812992519685039
0
LINE
8
BLACK
6
CONTINUOUS
10
0.8309734251968504
20
0.8812992519685039
11
0.6800000393700787
21
0.881160157480315
0
LINE
8
BLACK
6
CONTINUOUS
10
0.6800000393700787
20
0.881160157480315
11
0.6800000393700787
21
0.87
0
LINE
8
BLACK
6
CONTINUOUS
10
0.6800000393700787
20
0.87
11
0.6200000393700787
21
0.87
0
LINE
8
BLACK
6
CONTINUOUS
10
0.6200000393700787
20
0.87
11
0.6200000393700787
21
0.8912588582677166
0
LINE
8
BLACK
6
CONTINUOUS
10
0.6200000393700787
20
0.8912588582677166
11
0.5800000393700787
21
0.8911919291338583
0
LINE
8
BLACK
6
CONTINUOUS
10
0.5800000393700787
20
0.8911919291338583
11
0.5800000393700787
21
0.87
0
LINE
8
BLACK
6
CONTINUOUS
10
0.5800000393700787
20
0.87
11
0.5200000393700788
21
0.87
0
LINE
8
BLACK
6
CONTINUOUS
10
0.5200000393700788
20
0.87
11
0.5200000393700788
21
0.9176236220472441
0
LINE
8
BLACK
6
CONTINUOUS
10
0.5200000393700788
20
0.9176236220472441
11
0.480176968503937
21
0.9573042913385826
0
LINE
8
BLACK
6
CONTINUOUS
10
0.480176968503937
20
0.9573042913385826
11
0.3775982677165354
21
0.9571601181102362
0
LINE
8
BLACK
6
CONTINUOUS
10
0.3775982677165354
20
0.9571601181102362
11
0.3773861023622047
21
0.9567437007874016
0
LINE
8
BLACK
6
CONTINUOUS
10
0.3773861023622047
20
0.9567437007874016
11
0.373902125984252
21
0.9532597244094488
0
LINE
8
BLACK
6
CONTINUOUS
10
0.373902125984252
20
0.9532597244094488
11
0.3695120866141732
21
0.951022874015748
0
LINE
8
BLACK
6
CONTINUOUS
10
0.3695120866141732
20
0.951022874015748
11
0.3646456692913386
21
0.9502521259842519
0
LINE
8
BLACK
6
CONTINUOUS
10
0.3646456692913386
20
0.9502521259842519
11
0.3597792519685039
21
0.951022874015748
0
LINE
8
BLACK
6
CONTINUOUS
10
0.3597792519685039
20
0.951022874015748
11
0.3553892125984252
21
0.9532597244094488
0
LINE
8
BLACK
6
CONTINUOUS
10
0.3553892125984252
20
0.9532597244094488
11
0.3519052362204724
21
0.9567437007874016
0
LINE
8
BLACK
6
CONTINUOUS
10
0.3519052362204724
20
0.9567437007874016
11
0.3496683858267716
21
0.9611337401574803
0
LINE
8
BLACK
6
CONTINUOUS
10
0.3496683858267716
20
0.9611337401574803
11
0.3488976377952756
21
0.966000157480315
0
LINE
8
BLACK
6
CONTINUOUS
10
0.3488976377952756
20
0.966000157480315
11
0.3496683858267716
21
0.9708665748031495
0
LINE
8
BLACK
6
CONTINUOUS
10
0.3496683858267716
20
0.9708665748031495
11
0.3519052362204724
21
0.9752566141732283
0
LINE
8
BLACK
6
CONTINUOUS
10
0.3519052362204724
20
0.9752566141732283
11
0.3553892125984252
21
0.9787405905511811
0
LINE
8
BLACK
6
CONTINUOUS
10
0.3553892125984252
20
0.9787405905511811
11
0.3597792519685039
21
0.9809774409448818
0
LINE
8
BLACK
6
CONTINUOUS
10
0.3597792519685039
20
0.9809774409448818
11
0.3646456692913386
21
0.9817481889763779
0
LINE
8
BLACK
6
CONTINUOUS
10
0.3646456692913386
20
0.9817481889763779
11
0.3695120866141732
21
0.9809774409448818
0
LINE
8
BLACK
6
CONTINUOUS
10
0.7348662598425196
20
1.2649771259842519
11
0.7392562992125984
21
1.2627402755905512
0
LINE
8
BLACK
6
CONTINUOUS
10
0.7392562992125984
20
1.2627402755905512
11
0.7427402755905511
21
1.2592562992125984
0
LINE
8
BLACK
6
CONTINUOUS
10
0.7427402755905511
20
1.2592562992125984
11
0.7449771259842519
21
1.2548662598425198
0
LINE
8
BLACK
6
CONTINUOUS
10
0.7449771259842519
20
1.2548662598425198
11
0.745747874015748
21
1.249999842519685
0
LINE
8
BLACK
6
CONTINUOUS
10
0.745747874015748
20
1.249999842519685
11
0.7449771259842519
21
1.2451334251968504
0
LINE
8
BLACK
6
CONTINUOUS
10
0.7449771259842519
20
1.2451334251968504
11
0.7427402755905511
21
1.2407433858267716
0
LINE
8
BLACK
6
CONTINUOUS
10
0.7427402755905511
20
1.2407433858267716
11
0.7392562992125984
21
1.237259409448819
0
LINE
8
BLACK
6
CONTINUOUS
10
0.7392562992125984
20
1.237259409448819
11
0.7387025196850393
21
1.2369772834645669
0
LINE
8
BLACK
6
CONTINUOUS
10
0.7387025196850393
20
1.2369772834645669
11
0.73885468503937
21
1.0834462598425196
0
LINE
8
BLACK
6
CONTINUOUS
10
0.73885468503937
20
1.0834462598425196
11
0.8042637401574803
21
1.0182642125984251
0
LINE
8
BLACK
6
CONTINUOUS
10
0.8042637401574803
20
1.0182642125984251
11
0.8053653937007874
21
1.0169218897637795
0
LINE
8
BLACK
6
CONTINUOUS
10
0.8053653937007874
20
1.0169218897637795
11
0.8062257874015748
21
1.0148447244094487
0
LINE
8
BLACK
6
CONTINUOUS
10
0.8062257874015748
20
1.0148447244094487
11
0.8066880708661417
21
1.0137286220472441
0
LINE
8
BLACK
6
CONTINUOUS
10
0.8066880708661417
20
1.0137286220472441
11
0.8068287401574803
21
0.9519583858267716
0
LINE
8
BLACK
6
CONTINUOUS
10
0.8068287401574803
20
0.9519583858267716
11
0.8072564566929133
21
0.9517404330708661
0
LINE
8
BLACK
6
CONTINUOUS
10
0.8072564566929133
20
0.9517404330708661
11
0.8107404330708661
21
0.9482564566929134
0
LINE
8
BLACK
6
CONTINUOUS
10
0.8107404330708661
20
0.9482564566929134
11
0.8129772834645669
21
0.9438664173228346
0
LINE
8
BLACK
6
CONTINUOUS
10
0.8129772834645669
20
0.9438664173228346
11
0.813748031496063
21
0.9389999999999999
0
LINE
8
BLACK
6
CONTINUOUS
10
0.813748031496063
20
0.9389999999999999
11
0.8129772834645669
21
0.9341335826771653
0
LINE
8
BLACK
6
CONTINUOUS
10
0.8129772834645669
20
0.9341335826771653
11
0.8107404330708661
21
0.9297435433070866
0
LINE
8
BLACK
6
CONTINUOUS
10
0.8107404330708661
20
0.9297435433070866
11
0.8072564566929133
21
0.9262595669291338
0
LINE
8
BLACK
6
CONTINUOUS
10
0.8072564566929133
20
0.9262595669291338
11
0.8028664173228346
21
0.924022716535433
0
LINE
8
BLACK
6
CONTINUOUS
10
0.8028664173228346
20
0.924022716535433
11
0.7979999999999999
21
0.923251968503937
0
LINE
8
BLACK
6
CONTINUOUS
10
0.7979999999999999
20
0.923251968503937
11
0.7931335826771654
21
0.924022716535433
0
LINE
8
BLACK
6
CONTINUOUS
10
0.7931335826771654
20
0.924022716535433
11
0.7887435433070866
21
0.9262595669291338
0
LINE
8
BLACK
6
CONTINUOUS
10
0.7887435433070866
20
0.9262595669291338
11
0.7852595669291338
21
0.9297435433070866
0
LINE
8
BLACK
6
CONTINUOUS
10
0.7852595669291338
20
0.9297435433070866
11
0.7830227165354331
21
0.9341335826771653
0
LINE
8
BLACK
6
CONTINUOUS
10
0.7830227165354331
20
0.9341335826771653
11
0.782251968503937
21
0.9389999999999999
0
LINE
8
BLACK
6
CONTINUOUS
10
0.782251968503937
20
0.9389999999999999
11
0.7830227165354331
21
0.9438664173228346
0
LINE
8
BLACK
6
CONTINUOUS
10
0.7830227165354331
20
0.9438664173228346
11
0.7852595669291338
21
0.9482564566929134
0
LINE
8
BLACK
6
CONTINUOUS
10
0.7852595669291338
20
0.9482564566929134
11
0.7887435433070866
21
0.9517404330708661
0
LINE
8
BLACK
6
CONTINUOUS
10
0.7887435433070866
20
0.9517404330708661
11
0.7892783464566929
21
0.9520129527559055
0
LINE
8
BLACK
6
CONTINUOUS
10
0.7892783464566929
20
0.9520129527559055
11
0.7891495669291338
21
1.0085504724409449
0
LINE
8
BLACK
6
CONTINUOUS
10
0.7891495669291338
20
1.0085504724409449
11
0.7299016929133858
21
1.0675927165354331
0
LINE
8
BLACK
6
CONTINUOUS
10
0.7299016929133858
20
1.0675927165354331
11
0.6800000393700787
21
1.0175429527559054
0
LINE
8
BLACK
6
CONTINUOUS
10
0.6800000393700787
20
1.0175429527559054
11
0.6800000393700787
21
0.97
0
LINE
8
BLACK
6
CONTINUOUS
10
0.6800000393700787
20
0.97
11
0.6200000393700787
21
0.97
0
LINE
8
BLACK
6
CONTINUOUS
10
0.6200000393700787
20
0.97
11
0.6200000393700787
21
1.03
0
LINE
8
BLACK
6
CONTINUOUS
10
0.6200000393700787
20
1.03
11
0.6676390551181102
21
1.03
0
LINE
8
BLACK
6
CONTINUOUS
10
0.6676390551181102
20
1.03
11
0.7213062598425196
21
1.0838264960629922
0
LINE
8
BLACK
6
CONTINUOUS
10
0.7213062598425196
20
1.0838264960629922
11
0.7211543700787402
21
1.23705
0
LINE
8
BLACK
6
CONTINUOUS
10
0.7211543700787402
20
1.23705
11
0.7207433858267717
21
1.237259409448819
0
LINE
8
BLACK
6
CONTINUOUS
10
0.7207433858267717
20
1.237259409448819
11
0.7172594094488188
21
1.2407433858267716
0
LINE
8
BLACK
6
CONTINUOUS
10
0.7172594094488188
20
1.2407433858267716
11
0.7150225590551181
21
1.2451334251968504
0
LINE
8
BLACK
6
CONTINUOUS
10
0.7150225590551181
20
1.2451334251968504
11
0.714251811023622
21
1.249999842519685
0
LINE
8
BLACK
6
CONTINUOUS
10
0.714251811023622
20
1.249999842519685
11
0.7150225590551181
21
1.2548662598425198
0
LINE
8
BLACK
6
CONTINUOUS
10
0.7150225590551181
20
1.2548662598425198
11
0.7172594094488188
21
1.2592562992125984
0
LINE
8
BLACK
6
CONTINUOUS
10
0.7172594094488188
20
1.2592562992125984
11
0.7207433858267717
21
1.2627402755905512
0
LINE
8
BLACK
6
CONTINUOUS
10
0.7207433858267717
20
1.2627402755905512
11
0.7251334251968504
21
1.2649771259842519
0
LINE
8
BLACK
6
CONTINUOUS
10
0.7251334251968504
20
1.2649771259842519
11
0.729999842519685
21
1.265747874015748
0
LINE
8
BLACK
6
CONTINUOUS
10
0.729999842519685
20
1.265747874015748
11
0.7348662598425196
21
1.2649771259842519
0
LINE
8
BLACK
6
CONTINUOUS
10
0.4048664173228346
20
1.1149772834645668
11
0.4092564566929134
21
1.1127404330708661
0
LINE
8
BLACK
6
CONTINUOUS
10
0.4092564566929134
20
1.1127404330708661
11
0.4127404330708661
21
1.1092564566929133
0
LINE
8
BLACK
6
CONTINUOUS
10
0.4127404330708661
20
1.1092564566929133
11
0.4149772834645669
21
1.1048664173228346
0
LINE
8
BLACK
6
CONTINUOUS
10
0.4149772834645669
20
1.1048664173228346
11
0.415748031496063
21
1.0999999999999999
0
LINE
8
BLACK
6
CONTINUOUS
10
0.415748031496063
20
1.0999999999999999
11
0.4152781496062992
21
1.0970332677165353
0
LINE
8
BLACK
6
CONTINUOUS
10
0.4152781496062992
20
1.0970332677165353
11
0.5038153543307087
21
1.0087063385826771
0
LINE
8
BLACK
6
CONTINUOUS
10
0.5038153543307087
20
1.0087063385826771
11
0.5200000393700788
21
1.0087595669291338
0
LINE
8
BLACK
6
CONTINUOUS
10
0.5200000393700788
20
1.0087595669291338
11
0.5200000393700788
21
1.03
0
LINE
8
BLACK
6
CONTINUOUS
10
0.5200000393700788
20
1.03
11
0.5800000393700787
21
1.03
0
LINE
8
BLACK
6
CONTINUOUS
10
0.5800000393700787
20
1.03
11
0.5800000393700787
21
0.97
0
LINE
8
BLACK
6
CONTINUOUS
10
0.5800000393700787
20
0.97
11
0.5200000393700788
21
0.97
0
LINE
8
BLACK
6
CONTINUOUS
10
0.5200000393700788
20
0.97
11
0.5200000393700788
21
0.991207559055118
0
LINE
8
BLACK
6
CONTINUOUS
10
0.5200000393700788
20
0.991207559055118
11
0.5
21
0.9911417322834646
0
LINE
8
BLACK
6
CONTINUOUS
10
0.5
20
0.9911417322834646
11
0.4982718503937008
21
0.9913119291338582
0
LINE
8
BLACK
6
CONTINUOUS
10
0.4982718503937008
20
0.9913119291338582
11
0.4950786220472441
21
0.9926346062992126
0
LINE
8
BLACK
6
CONTINUOUS
10
0.4950786220472441
20
0.9926346062992126
11
0.4950785826771654
21
0.9926346456692913
0
LINE
8
BLACK
6
CONTINUOUS
10
0.4950785826771654
20
0.9926346456692913
11
0.402798779527559
21
1.0846952755905512
0
LINE
8
BLACK
6
CONTINUOUS
10
0.402798779527559
20
1.0846952755905512
11
0.4
21
1.0842519685039369
0
LINE
8
BLACK
6
CONTINUOUS
10
0.4
20
1.0842519685039369
11
0.3951335826771654
21
1.0850227165354331
0
LINE
8
BLACK
6
CONTINUOUS
10
0.3951335826771654
20
1.0850227165354331
11
0.3907435433070866
21
1.0872595669291338
0
LINE
8
BLACK
6
CONTINUOUS
10
0.3907435433070866
20
1.0872595669291338
11
0.3872595669291338
21
1.0907435433070867
0
LINE
8
BLACK
6
CONTINUOUS
10
0.3872595669291338
20
1.0907435433070867
11
0.3850227165354331
21
1.0951335826771653
0
LINE
8
BLACK
6
CONTINUOUS
10
0.3850227165354331
20
1.0951335826771653
11
0.384251968503937
21
1.0999999999999999
0
LINE
8
BLACK
6
CONTINUOUS
10
0.384251968503937
20
1.0999999999999999
11
0.3850227165354331
21
1.1048664173228346
0
LINE
8
BLACK
6
CONTINUOUS
10
0.3850227165354331
20
1.1048664173228346
11
0.3872595669291338
21
1.1092564566929133
0
LINE
8
BLACK
6
CONTINUOUS
10
0.3872595669291338
20
1.1092564566929133
11
0.3907435433070866
21
1.1127404330708661
0
LINE
8
BLACK
6
CONTINUOUS
10
0.3907435433070866
20
1.1127404330708661
11
0.3951335826771654
21
1.1149772834645668
0
LINE
8
BLACK
6
CONTINUOUS
10
0.3951335826771654
20
1.1149772834645668
11
0.4
21
1.1157480314960631
0
LINE
8
BLACK
6
CONTINUOUS
10
0.4
20
1.1157480314960631
11
0.4048664173228346
21
1.1149772834645668
0
LINE
8
BLACK
6
CONTINUOUS
10
0.5800000393700787
20
1.0700000000000001
11
0.5200000393700788
21
1.0700000000000001
0
LINE
8
BLACK
6
CONTINUOUS
10
0.5200000393700788
20
1.0700000000000001
11
0.5200000393700788
21
1.1299999999999999
0
LINE
8
BLACK
6
CONTINUOUS
10
0.5200000393700788
20
1.1299999999999999
11
0.5800000393700787
21
1.1299999999999999
0
LINE
8
BLACK
6
CONTINUOUS
10
0.5800000393700787
20
1.1299999999999999
11
0.5800000393700787
21
1.0700000000000001
0
LINE
8
BLACK
6
CONTINUOUS
10
0.6800000393700787
20
1.0700000000000001
11
0.6200000393700787
21
1.0700000000000001
0
LINE
8
BLACK
6
CONTINUOUS
10
0.6200000393700787
20
1.0700000000000001
11
0.6200000393700787
21
1.1299999999999999
0
LINE
8
BLACK
6
CONTINUOUS
10
0.6200000393700787
20
1.1299999999999999
11
0.6800000393700787
21
1.1299999999999999
0
LINE
8
BLACK
6
CONTINUOUS
10
0.6800000393700787
20
1.1299999999999999
11
0.6800000393700787
21
1.0700000000000001
0
LINE
8
BLACK
6
CONTINUOUS
10
0.6174508267716535
20
1.5304017716535432
11
0.6185152362204724
21
1.5299608661417323
0
LINE
8
BLACK
6
CONTINUOUS
10
0.6185152362204724
20
1.5299608661417323
11
0.6193298818897638
21
1.5291462204724409
0
LINE
8
BLACK
6
CONTINUOUS
10
0.6193298818897638
20
1.5291462204724409
11
0.6197707874015748
21
1.5280818110236221
0
LINE
8
BLACK
6
CONTINUOUS
10
0.6197707874015748
20
1.5280818110236221
11
0.6197707874015748
21
1.5269296850393701
0
LINE
8
BLACK
6
CONTINUOUS
10
0.6197707874015748
20
1.5269296850393701
11
0.6193298818897638
21
1.5258652755905511
0
LINE
8
BLACK
6
CONTINUOUS
10
0.6193298818897638
20
1.5258652755905511
11
0.6185152362204724
21
1.5250506299212598
0
LINE
8
BLACK
6
CONTINUOUS
10
0.6185152362204724
20
1.5250506299212598
11
0.6174508267716535
21
1.5246097244094488
0
LINE
8
BLACK
6
CONTINUOUS
10
0.6174508267716535
20
1.5246097244094488
11
0.5906985826771654
21
1.5245717322834644
0
LINE
8
BLACK
6
CONTINUOUS
10
0.5906985826771654
20
1.5245717322834644
11
0.606874842519685
21
1.5170581496062991
0
LINE
8
BLACK
6
CONTINUOUS
10
0.606874842519685
20
1.5170581496062991
11
0.6070858267716536
21
1.516933188976378
0
LINE
8
BLACK
6
CONTINUOUS
10
0.6070858267716536
20
1.516933188976378
11
0.6071572047244095
21
1.5169072047244094
0
LINE
8
BLACK
6
CONTINUOUS
10
0.6071572047244095
20
1.5169072047244094
11
0.6072076771653543
21
1.5168609842519685
0
LINE
8
BLACK
6
CONTINUOUS
10
0.6072076771653543
20
1.5168609842519685
11
0.607372874015748
21
1.5167631102362205
0
LINE
8
BLACK
6
CONTINUOUS
10
0.607372874015748
20
1.5167631102362205
11
0.6076759055118111
21
1.5164322047244094
0
LINE
8
BLACK
6
CONTINUOUS
10
0.6076759055118111
20
1.5164322047244094
11
0.6080068897637795
21
1.5161290944881889
0
LINE
8
BLACK
6
CONTINUOUS
10
0.6080068897637795
20
1.5161290944881889
11
0.6080623622047244
21
1.5160101968503936
0
LINE
8
BLACK
6
CONTINUOUS
10
0.6080623622047244
20
1.5160101968503936
11
0.6081509448818897
21
1.515913464566929
0
LINE
8
BLACK
6
CONTINUOUS
10
0.6081509448818897
20
1.515913464566929
11
0.6083042519685039
21
1.5154918503937007
0
LINE
8
BLACK
6
CONTINUOUS
10
0.6083042519685039
20
1.5154918503937007
11
0.6084940944881889
21
1.5150850787401575
0
LINE
8
BLACK
6
CONTINUOUS
10
0.6084940944881889
20
1.5150850787401575
11
0.608499842519685
21
1.5149540551181102
0
LINE
8
BLACK
6
CONTINUOUS
10
0.608499842519685
20
1.5149540551181102
11
0.6085446850393701
21
1.514830748031496
0
LINE
8
BLACK
6
CONTINUOUS
10
0.6085446850393701
20
1.514830748031496
11
0.6085249606299212
21
1.5143824015748031
0
LINE
8
BLACK
6
CONTINUOUS
10
0.6085249606299212
20
1.5143824015748031
11
0.6085446850393701
21
1.5139340551181102
0
LINE
8
BLACK
6
CONTINUOUS
10
0.6085446850393701
20
1.5139340551181102
11
0.608499842519685
21
1.5138107874015747
0
LINE
8
BLACK
6
CONTINUOUS
10
0.608499842519685
20
1.5138107874015747
11
0.6084940944881889
21
1.5136797244094489
0
LINE
8
BLACK
6
CONTINUOUS
10
0.6084940944881889
20
1.5136797244094489
11
0.6083042519685039
21
1.5132729921259842
0
LINE
8
BLACK
6
CONTINUOUS
10
0.6083042519685039
20
1.5132729921259842
11
0.6081509448818897
21
1.5128513385826772
0
LINE
8
BLACK
6
CONTINUOUS
10
0.6081509448818897
20
1.5128513385826772
11
0.6080623622047244
21
1.5127546456692913
0
LINE
8
BLACK
6
CONTINUOUS
10
0.6080623622047244
20
1.5127546456692913
11
0.6080068897637795
21
1.5126357086614173
0
LINE
8
BLACK
6
CONTINUOUS
10
0.6080068897637795
20
1.5126357086614173
11
0.6076759055118111
21
1.5123326377952755
0
LINE
8
BLACK
6
CONTINUOUS
10
0.6076759055118111
20
1.5123326377952755
11
0.607372874015748
21
1.5120016929133857
0
LINE
8
BLACK
6
CONTINUOUS
10
0.607372874015748
20
1.5120016929133857
11
0.6072533464566929
21
1.5119456692913384
0
LINE
8
BLACK
6
CONTINUOUS
10
0.6072533464566929
20
1.5119456692913384
11
0.6071572047244095
21
1.5118575984251967
0
LINE
8
BLACK
6
CONTINUOUS
10
0.6071572047244095
20
1.5118575984251967
11
0.606748779527559
21
1.511709094488189
0
LINE
8
BLACK
6
CONTINUOUS
10
0.606748779527559
20
1.511709094488189
11
0.5906787795275591
21
1.5041746456692913
0
LINE
8
BLACK
6
CONTINUOUS
10
0.5906787795275591
20
1.5041746456692913
11
0.6168747637795275
21
1.504211811023622
0
LINE
8
BLACK
6
CONTINUOUS
10
0.6168747637795275
20
1.504211811023622
11
0.6174508267716535
21
1.5041550787401574
0
LINE
8
BLACK
6
CONTINUOUS
10
0.6174508267716535
20
1.5041550787401574
11
0.6185152362204724
21
1.5037141732283463
0
LINE
8
BLACK
6
CONTINUOUS
10
0.6185152362204724
20
1.5037141732283463
11
0.6193298818897638
21
1.5028995275590551
0
LINE
8
BLACK
6
CONTINUOUS
10
0.6193298818897638
20
1.5028995275590551
11
0.6197707874015748
21
1.5018351181102363
0
LINE
8
BLACK
6
CONTINUOUS
10
0.6197707874015748
20
1.5018351181102363
11
0.6197707874015748
21
1.5006829921259843
0
LINE
8
BLACK
6
CONTINUOUS
10
0.6197707874015748
20
1.5006829921259843
11
0.6193298818897638
21
1.4996185826771653
0
LINE
8
BLACK
6
CONTINUOUS
10
0.6193298818897638
20
1.4996185826771653
11
0.6185152362204724
21
1.4988039370078741
0
LINE
8
BLACK
6
CONTINUOUS
10
0.6185152362204724
20
1.4988039370078741
11
0.6174508267716535
21
1.498363031496063
0
LINE
8
BLACK
6
CONTINUOUS
10
0.6174508267716535
20
1.498363031496063
11
0.57750468503937
21
1.4983062992125984
0
LINE
8
BLACK
6
CONTINUOUS
10
0.57750468503937
20
1.4983062992125984
11
0.5771258661417322
21
1.4983436220472441
0
LINE
8
BLACK
6
CONTINUOUS
10
0.5771258661417322
20
1.4983436220472441
11
0.5770563385826771
21
1.4983405511811023
0
LINE
8
BLACK
6
CONTINUOUS
10
0.5770563385826771
20
1.4983405511811023
11
0.5770189763779527
21
1.4983541338582678
0
LINE
8
BLACK
6
CONTINUOUS
10
0.5770189763779527
20
1.4983541338582678
11
0.576928622047244
21
1.498363031496063
0
LINE
8
BLACK
6
CONTINUOUS
10
0.576928622047244
20
1.498363031496063
11
0.5764551181102362
21
1.4985591732283465
0
LINE
8
BLACK
6
CONTINUOUS
10
0.5764551181102362
20
1.4985591732283465
11
0.5759736220472441
21
1.4987342519685038
0
LINE
8
BLACK
6
CONTINUOUS
10
0.5759736220472441
20
1.4987342519685038
11
0.5759250393700788
21
1.4987787401574804
0
LINE
8
BLACK
6
CONTINUOUS
10
0.5759250393700788
20
1.4987787401574804
11
0.5758642125984251
21
1.4988039370078741
0
LINE
8
BLACK
6
CONTINUOUS
10
0.5758642125984251
20
1.4988039370078741
11
0.5755017716535433
21
1.499166377952756
0
LINE
8
BLACK
6
CONTINUOUS
10
0.5755017716535433
20
1.499166377952756
11
0.5751239763779528
21
1.4995123622047244
0
LINE
8
BLACK
6
CONTINUOUS
10
0.5751239763779528
20
1.4995123622047244
11
0.5750961023622048
21
1.4995720472440945
0
LINE
8
BLACK
6
CONTINUOUS
10
0.5750961023622048
20
1.4995720472440945
11
0.5750495669291339
21
1.4996185826771653
0
LINE
8
BLACK
6
CONTINUOUS
10
0.5750495669291339
20
1.4996185826771653
11
0.5748535039370078
21
1.5000918897637794
0
LINE
8
BLACK
6
CONTINUOUS
10
0.5748535039370078
20
1.5000918897637794
11
0.5746367322834646
21
1.500556377952756
0
LINE
8
BLACK
6
CONTINUOUS
10
0.5746367322834646
20
1.500556377952756
11
0.5746338188976378
21
1.5006222047244093
0
LINE
8
BLACK
6
CONTINUOUS
10
0.5746338188976378
20
1.5006222047244093
11
0.5746086614173228
21
1.5006829921259843
0
LINE
8
BLACK
6
CONTINUOUS
10
0.5746086614173228
20
1.5006829921259843
11
0.5746086614173228
21
1.5011955511811024
0
LINE
8
BLACK
6
CONTINUOUS
10
0.5746086614173228
20
1.5011955511811024
11
0.5745861811023621
21
1.5017074015748031
0
LINE
8
BLACK
6
CONTINUOUS
10
0.5745861811023621
20
1.5017074015748031
11
0.5746086614173228
21
1.501769251968504
0
LINE
8
BLACK
6
CONTINUOUS
10
0.5746086614173228
20
1.501769251968504
11
0.5746086614173228
21
1.5018351181102363
0
LINE
8
BLACK
6
CONTINUOUS
10
0.5746086614173228
20
1.5018351181102363
11
0.5748047637795275
21
1.5023086220472441
0
LINE
8
BLACK
6
CONTINUOUS
10
0.5748047637795275
20
1.5023086220472441
11
0.5749798818897638
21
1.5027901181102361
0
LINE
8
BLACK
6
CONTINUOUS
10
0.5749798818897638
20
1.5027901181102361
11
0.5750243307086614
21
1.5028387007874016
0
LINE
8
BLACK
6
CONTINUOUS
10
0.5750243307086614
20
1.5028387007874016
11
0.5750495669291339
21
1.5028995275590551
0
LINE
8
BLACK
6
CONTINUOUS
10
0.5750495669291339
20
1.5028995275590551
11
0.5754119685039369
21
1.503261968503937
0
LINE
8
BLACK
6
CONTINUOUS
10
0.5754119685039369
20
1.503261968503937
11
0.5757579921259842
21
1.5036397637795276
0
LINE
8
BLACK
6
CONTINUOUS
10
0.5757579921259842
20
1.5036397637795276
11
0.575817874015748
21
1.5036678740157481
0
LINE
8
BLACK
6
CONTINUOUS
10
0.575817874015748
20
1.5036678740157481
11
0.5758642125984251
21
1.5037141732283463
0
LINE
8
BLACK
6
CONTINUOUS
10
0.5758642125984251
20
1.5037141732283463
11
0.5763146456692914
21
1.5039007874015748
0
LINE
8
BLACK
6
CONTINUOUS
10
0.5763146456692914
20
1.5039007874015748
11
0.5987095275590552
21
1.514400748031496
0
LINE
8
BLACK
6
CONTINUOUS
10
0.5987095275590552
20
1.514400748031496
11
0.5762560236220472
21
1.5248299999999999
0
LINE
8
BLACK
6
CONTINUOUS
10
0.5762560236220472
20
1.5248299999999999
11
0.575928622047244
21
1.525023937007874
0
LINE
8
BLACK
6
CONTINUOUS
10
0.575928622047244
20
1.525023937007874
11
0.5758642125984251
21
1.5250506299212598
0
LINE
8
BLACK
6
CONTINUOUS
10
0.5758642125984251
20
1.5250506299212598
11
0.5758360236220472
21
1.5250788188976379
0
LINE
8
BLACK
6
CONTINUOUS
10
0.5758360236220472
20
1.5250788188976379
11
0.5757579921259842
21
1.5251250393700786
0
LINE
8
BLACK
6
CONTINUOUS
10
0.5757579921259842
20
1.5251250393700786
11
0.5754119685039369
21
1.5255028740157479
0
LINE
8
BLACK
6
CONTINUOUS
10
0.5754119685039369
20
1.5255028740157479
11
0.5750495669291339
21
1.5258652755905511
0
LINE
8
BLACK
6
CONTINUOUS
10
0.5750495669291339
20
1.5258652755905511
11
0.5750243307086614
21
1.5259261417322834
0
LINE
8
BLACK
6
CONTINUOUS
10
0.5750243307086614
20
1.5259261417322834
11
0.5749798818897638
21
1.5259746850393701
0
LINE
8
BLACK
6
CONTINUOUS
10
0.5749798818897638
20
1.5259746850393701
11
0.5748047637795275
21
1.526456220472441
0
LINE
8
BLACK
6
CONTINUOUS
10
0.5748047637795275
20
1.526456220472441
11
0.5746086614173228
21
1.5269296850393701
0
LINE
8
BLACK
6
CONTINUOUS
10
0.5746086614173228
20
1.5269296850393701
11
0.5746086614173228
21
1.5269955905511812
0
LINE
8
BLACK
6
CONTINUOUS
10
0.5746086614173228
20
1.5269955905511812
11
0.5745861811023621
21
1.5270574015748031
0
LINE
8
BLACK
6
CONTINUOUS
10
0.5745861811023621
20
1.5270574015748031
11
0.5746086614173228
21
1.5275692913385825
0
LINE
8
BLACK
6
CONTINUOUS
10
0.5746086614173228
20
1.5275692913385825
11
0.5746086614173228
21
1.5280818110236221
0
LINE
8
BLACK
6
CONTINUOUS
10
0.5746086614173228
20
1.5280818110236221
11
0.5746338188976378
21
1.5281426377952756
0
LINE
8
BLACK
6
CONTINUOUS
10
0.5746338188976378
20
1.5281426377952756
11
0.5746367322834646
21
1.5282084251968504
0
LINE
8
BLACK
6
CONTINUOUS
10
0.5746367322834646
20
1.5282084251968504
11
0.5748535039370078
21
1.5286729527559055
0
LINE
8
BLACK
6
CONTINUOUS
10
0.5748535039370078
20
1.5286729527559055
11
0.5750495669291339
21
1.5291462204724409
0
LINE
8
BLACK
6
CONTINUOUS
10
0.5750495669291339
20
1.5291462204724409
11
0.5750961023622048
21
1.5291927952755906
0
LINE
8
BLACK
6
CONTINUOUS
10
0.5750961023622048
20
1.5291927952755906
11
0.5751239763779528
21
1.5292524409448818
0
LINE
8
BLACK
6
CONTINUOUS
10
0.5751239763779528
20
1.5292524409448818
11
0.5755017716535433
21
1.5295984645669292
0
LINE
8
BLACK
6
CONTINUOUS
10
0.5755017716535433
20
1.5295984645669292
11
0.5758642125984251
21
1.5299608661417323
0
LINE
8
BLACK
6
CONTINUOUS
10
0.5758642125984251
20
1.5299608661417323
11
0.5759250393700788
21
1.5299861023622048
0
LINE
8
BLACK
6
CONTINUOUS
10
0.5759250393700788
20
1.5299861023622048
11
0.5759736220472441
21
1.5300305511811023
0
LINE
8
BLACK
6
CONTINUOUS
10
0.5759736220472441
20
1.5300305511811023
11
0.5764551181102362
21
1.5302056692913386
0
LINE
8
BLACK
6
CONTINUOUS
10
0.5764551181102362
20
1.5302056692913386
11
0.576928622047244
21
1.5304017716535432
0
LINE
8
BLACK
6
CONTINUOUS
10
0.576928622047244
20
1.5304017716535432
11
0.5769947637795275
21
1.5304018897637794
0
LINE
8
BLACK
6
CONTINUOUS
10
0.5769947637795275
20
1.5304018897637794
11
0.5770563385826771
21
1.5304242519685038
0
LINE
8
BLACK
6
CONTINUOUS
10
0.5770563385826771
20
1.5304242519685038
11
0.5775481496062992
21
1.5304026771653543
0
LINE
8
BLACK
6
CONTINUOUS
10
0.5775481496062992
20
1.5304026771653543
11
0.6168747637795275
21
1.5304585039370078
0
LINE
8
BLACK
6
CONTINUOUS
10
0.6168747637795275
20
1.5304585039370078
11
0.6174508267716535
21
1.5304017716535432
0
LINE
8
BLACK
6
CONTINUOUS
10
0.6185152362204724
20
1.5674561811023622
11
0.6193298818897638
21
1.5666415354330707
0
LINE
8
BLACK
6
CONTINUOUS
10
0.6193298818897638
20
1.5666415354330707
11
0.6197707874015748
21
1.5655771259842519
0
LINE
8
BLACK
6
CONTINUOUS
10
0.6197707874015748
20
1.5655771259842519
11
0.6198275196850394
21
1.5462534251968503
0
LINE
8
BLACK
6
CONTINUOUS
10
0.6198275196850394
20
1.5462534251968503
11
0.6197707874015748
21
1.5456773622047244
0
LINE
8
BLACK
6
CONTINUOUS
10
0.6197707874015748
20
1.5456773622047244
11
0.6193298818897638
21
1.5446129527559054
0
LINE
8
BLACK
6
CONTINUOUS
10
0.6193298818897638
20
1.5446129527559054
11
0.6185152362204724
21
1.5437983070866141
0
LINE
8
BLACK
6
CONTINUOUS
10
0.6185152362204724
20
1.5437983070866141
11
0.6174508267716535
21
1.5433574015748031
0
LINE
8
BLACK
6
CONTINUOUS
10
0.6174508267716535
20
1.5433574015748031
11
0.57750468503937
21
1.5433006692913385
0
LINE
8
BLACK
6
CONTINUOUS
10
0.57750468503937
20
1.5433006692913385
11
0.576928622047244
21
1.5433574015748031
0
LINE
8
BLACK
6
CONTINUOUS
10
0.576928622047244
20
1.5433574015748031
11
0.5758642125984251
21
1.5437983070866141
0
LINE
8
BLACK
6
CONTINUOUS
10
0.5758642125984251
20
1.5437983070866141
11
0.5750495669291339
21
1.5446129527559054
0
LINE
8
BLACK
6
CONTINUOUS
10
0.5750495669291339
20
1.5446129527559054
11
0.5746086614173228
21
1.5456773622047244
0
LINE
8
BLACK
6
CONTINUOUS
10
0.5746086614173228
20
1.5456773622047244
11
0.5746086614173228
21
1.5468294881889764
0
LINE
8
BLACK
6
CONTINUOUS
10
0.5746086614173228
20
1.5468294881889764
11
0.5750495669291339
21
1.5478938976377952
0
LINE
8
BLACK
6
CONTINUOUS
10
0.5750495669291339
20
1.5478938976377952
11
0.5758642125984251
21
1.5487085433070866
0
LINE
8
BLACK
6
CONTINUOUS
10
0.5758642125984251
20
1.5487085433070866
11
0.576928622047244
21
1.5491494488188977
0
LINE
8
BLACK
6
CONTINUOUS
10
0.576928622047244
20
1.5491494488188977
11
0.6139683858267716
21
1.5492020866141731
0
LINE
8
BLACK
6
CONTINUOUS
10
0.6139683858267716
20
1.5492020866141731
11
0.6139220078740157
21
1.565001062992126
0
LINE
8
BLACK
6
CONTINUOUS
10
0.6139220078740157
20
1.565001062992126
11
0.6139787401574803
21
1.5655771259842519
0
LINE
8
BLACK
6
CONTINUOUS
10
0.6139787401574803
20
1.5655771259842519
11
0.6144196456692913
21
1.5666415354330707
0
LINE
8
BLACK
6
CONTINUOUS
10
0.6144196456692913
20
1.5666415354330707
11
0.6152342913385827
21
1.5674561811023622
0
LINE
8
BLACK
6
CONTINUOUS
10
0.6152342913385827
20
1.5674561811023622
11
0.6162987007874016
21
1.5678970866141733
0
LINE
8
BLACK
6
CONTINUOUS
10
0.6162987007874016
20
1.5678970866141733
11
0.6174508267716535
21
1.5678970866141733
0
LINE
8
BLACK
6
CONTINUOUS
10
0.6174508267716535
20
1.5678970866141733
11
0.6185152362204724
21
1.5674561811023622
0
LINE
8
BLACK
6
CONTINUOUS
10
0.6176546456692913
20
1.6015947244094488
11
0.6186851181102362
21
1.601079527559055
0
LINE
8
BLACK
6
CONTINUOUS
10
0.6186851181102362
20
1.601079527559055
11
0.61944
21
1.6002091338582676
0
LINE
8
BLACK
6
CONTINUOUS
10
0.61944
20
1.6002091338582676
11
0.6198043307086614
21
1.5991161417322834
0
LINE
8
BLACK
6
CONTINUOUS
10
0.6198043307086614
20
1.5991161417322834
11
0.6197226377952756
21
1.5979669291338583
0
LINE
8
BLACK
6
CONTINUOUS
10
0.6197226377952756
20
1.5979669291338583
11
0.6192074015748031
21
1.5969364960629922
0
LINE
8
BLACK
6
CONTINUOUS
10
0.6192074015748031
20
1.5969364960629922
11
0.6183370472440944
21
1.5961816141732283
0
LINE
8
BLACK
6
CONTINUOUS
10
0.6183370472440944
20
1.5961816141732283
11
0.60853
21
1.5928979133858268
0
LINE
8
BLACK
6
CONTINUOUS
10
0.60853
20
1.5928979133858268
11
0.6085726771653543
21
1.5783661811023622
0
LINE
8
BLACK
6
CONTINUOUS
10
0.6085726771653543
20
1.5783661811023622
11
0.6178085039370078
21
1.5753013779527558
0
LINE
8
BLACK
6
CONTINUOUS
10
0.6178085039370078
20
1.5753013779527558
11
0.6183370472440944
21
1.5750653937007875
0
LINE
8
BLACK
6
CONTINUOUS
10
0.6183370472440944
20
1.5750653937007875
11
0.6192074015748031
21
1.5743105118110237
0
LINE
8
BLACK
6
CONTINUOUS
10
0.6192074015748031
20
1.5743105118110237
11
0.6197226377952756
21
1.5732800787401575
0
LINE
8
BLACK
6
CONTINUOUS
10
0.6197226377952756
20
1.5732800787401575
11
0.6198043307086614
21
1.5721308661417321
0
LINE
8
BLACK
6
CONTINUOUS
10
0.6198043307086614
20
1.5721308661417321
11
0.61944
21
1.571037874015748
0
LINE
8
BLACK
6
CONTINUOUS
10
0.61944
20
1.571037874015748
11
0.6186851181102362
21
1.5701674803149606
0
LINE
8
BLACK
6
CONTINUOUS
10
0.6186851181102362
20
1.5701674803149606
11
0.6176546456692913
21
1.569652283464567
0
LINE
8
BLACK
6
CONTINUOUS
10
0.6176546456692913
20
1.569652283464567
11
0.6165054330708661
21
1.569570590551181
0
LINE
8
BLACK
6
CONTINUOUS
10
0.6165054330708661
20
1.569570590551181
11
0.605105
21
1.5733536614173227
0
LINE
8
BLACK
6
CONTINUOUS
10
0.605105
20
1.5733536614173227
11
0.6050500787401575
21
1.5733536614173227
0
LINE
8
BLACK
6
CONTINUOUS
10
0.6050500787401575
20
1.5733536614173227
11
0.6048288582677165
21
1.5734453149606298
0
LINE
8
BLACK
6
CONTINUOUS
10
0.6048288582677165
20
1.5734453149606298
11
0.5765709448818898
21
1.5828222834645669
0
LINE
8
BLACK
6
CONTINUOUS
10
0.5765709448818898
20
1.5828222834645669
11
0.5760423622047244
21
1.5830582677165355
0
LINE
8
BLACK
6
CONTINUOUS
10
0.5760423622047244
20
1.5830582677165355
11
0.5758829527559055
21
1.5831965354330708
0
LINE
8
BLACK
6
CONTINUOUS
10
0.5758829527559055
20
1.5831965354330708
11
0.5756943307086614
21
1.5832908267716534
0
LINE
8
BLACK
6
CONTINUOUS
10
0.5756943307086614
20
1.5832908267716534
11
0.5754516929133858
21
1.5835705511811022
0
LINE
8
BLACK
6
CONTINUOUS
10
0.5754516929133858
20
1.5835705511811022
11
0.5751720078740158
21
1.5838131496062993
0
LINE
8
BLACK
6
CONTINUOUS
10
0.5751720078740158
20
1.5838131496062993
11
0.5750776771653543
21
1.584001811023622
0
LINE
8
BLACK
6
CONTINUOUS
10
0.5750776771653543
20
1.584001811023622
11
0.5749394488188976
21
1.5841611811023621
0
LINE
8
BLACK
6
CONTINUOUS
10
0.5749394488188976
20
1.5841611811023621
11
0.5748223228346456
21
1.5845125196850394
0
LINE
8
BLACK
6
CONTINUOUS
10
0.5748223228346456
20
1.5845125196850394
11
0.574656811023622
21
1.5848435826771654
0
LINE
8
BLACK
6
CONTINUOUS
10
0.574656811023622
20
1.5848435826771654
11
0.5746418503937007
21
1.5850540157480315
0
LINE
8
BLACK
6
CONTINUOUS
10
0.5746418503937007
20
1.5850540157480315
11
0.5745751181102362
21
1.5852542125984252
0
LINE
8
BLACK
6
CONTINUOUS
10
0.5745751181102362
20
1.5852542125984252
11
0.5746013385826771
21
1.5856235039370079
0
LINE
8
BLACK
6
CONTINUOUS
10
0.5746013385826771
20
1.5856235039370079
11
0.5745751181102362
21
1.5859927952755906
0
LINE
8
BLACK
6
CONTINUOUS
10
0.5745751181102362
20
1.5859927952755906
11
0.5746418503937007
21
1.5861930314960631
0
LINE
8
BLACK
6
CONTINUOUS
10
0.5746418503937007
20
1.5861930314960631
11
0.574656811023622
21
1.5864034251968504
0
LINE
8
BLACK
6
CONTINUOUS
10
0.574656811023622
20
1.5864034251968504
11
0.5748223228346456
21
1.586734527559055
0
LINE
8
BLACK
6
CONTINUOUS
10
0.5748223228346456
20
1.586734527559055
11
0.5749394488188976
21
1.5870858267716534
0
LINE
8
BLACK
6
CONTINUOUS
10
0.5749394488188976
20
1.5870858267716534
11
0.5750776771653543
21
1.5872452362204723
0
LINE
8
BLACK
6
CONTINUOUS
10
0.5750776771653543
20
1.5872452362204723
11
0.5751720078740158
21
1.5874338582677165
0
LINE
8
BLACK
6
CONTINUOUS
10
0.5751720078740158
20
1.5874338582677165
11
0.5754516929133858
21
1.5876764960629921
0
LINE
8
BLACK
6
CONTINUOUS
10
0.5754516929133858
20
1.5876764960629921
11
0.5756943307086614
21
1.5879561811023621
0
LINE
8
BLACK
6
CONTINUOUS
10
0.5756943307086614
20
1.5879561811023621
11
0.5758829527559055
21
1.5880505118110235
0
LINE
8
BLACK
6
CONTINUOUS
10
0.5758829527559055
20
1.5880505118110235
11
0.5760423622047244
21
1.5881887401574803
0
LINE
8
BLACK
6
CONTINUOUS
10
0.5760423622047244
20
1.5881887401574803
11
0.5763968503937008
21
1.5883074803149606
0
LINE
8
BLACK
6
CONTINUOUS
10
0.5763968503937008
20
1.5883074803149606
11
0.5767247637795275
21
1.5884713779527559
0
LINE
8
BLACK
6
CONTINUOUS
10
0.5767247637795275
20
1.5884713779527559
11
0.5769300393700787
21
1.5884859842519685
0
LINE
8
BLACK
6
CONTINUOUS
10
0.5769300393700787
20
1.5884859842519685
11
0.6159410236220473
21
1.6015480708661416
0
LINE
8
BLACK
6
CONTINUOUS
10
0.6159410236220473
20
1.6015480708661416
11
0.6165054330708661
21
1.6016764173228346
0
LINE
8
BLACK
6
CONTINUOUS
10
0.6165054330708661
20
1.6016764173228346
11
0.6176546456692913
21
1.6015947244094488
0
LINE
8
BLACK
6
CONTINUOUS
10
0.5867536220472441
20
1.5856064960629921
11
0.6027164960629922
21
1.5803094488188976
0
LINE
8
BLACK
6
CONTINUOUS
10
0.6027164960629922
20
1.5803094488188976
11
0.6026852755905512
21
1.5909409448818896
0
LINE
8
BLACK
6
CONTINUOUS
10
0.6026852755905512
20
1.5909409448818896
11
0.5867536220472441
21
1.5856064960629921
0
LINE
8
BLACK
6
CONTINUOUS
10
0.6099517322834646
20
1.6372634251968503
11
0.6100497244094488
21
1.6372228346456692
0
LINE
8
BLACK
6
CONTINUOUS
10
0.6100497244094488
20
1.6372228346456692
11
0.6101555511811023
21
1.6372153149606299
0
LINE
8
BLACK
6
CONTINUOUS
10
0.6101555511811023
20
1.6372153149606299
11
0.6106670866141732
21
1.636967125984252
0
LINE
8
BLACK
6
CONTINUOUS
10
0.6106670866141732
20
1.636967125984252
11
0.6110161417322835
21
1.6368225196850392
0
LINE
8
BLACK
6
CONTINUOUS
10
0.6110161417322835
20
1.6368225196850392
11
0.6110642519685039
21
1.6367744094488188
0
LINE
8
BLACK
6
CONTINUOUS
10
0.6110642519685039
20
1.6367744094488188
11
0.6144457086614173
21
1.6351336614173229
0
LINE
8
BLACK
6
CONTINUOUS
10
0.6144457086614173
20
1.6351336614173229
11
0.6146935826771653
21
1.6349776377952756
0
LINE
8
BLACK
6
CONTINUOUS
10
0.6146935826771653
20
1.6349776377952756
11
0.6147656299212598
21
1.6349477952755904
0
LINE
8
BLACK
6
CONTINUOUS
10
0.6147656299212598
20
1.6349477952755904
11
0.6148117322834645
21
1.6349032677165354
0
LINE
8
BLACK
6
CONTINUOUS
10
0.6148117322834645
20
1.6349032677165354
11
0.6149355905511811
21
1.63482531496063
0
LINE
8
BLACK
6
CONTINUOUS
10
0.6149355905511811
20
1.63482531496063
11
0.6151572834645669
21
1.6345696850393701
0
LINE
8
BLACK
6
CONTINUOUS
10
0.6151572834645669
20
1.6345696850393701
11
0.6170878740157481
21
1.6327058267716534
0
LINE
8
BLACK
6
CONTINUOUS
10
0.6170878740157481
20
1.6327058267716534
11
0.6172736220472441
21
1.6324794881889764
0
LINE
8
BLACK
6
CONTINUOUS
10
0.6172736220472441
20
1.6324794881889764
11
0.6173326771653543
21
1.6324282677165354
0
LINE
8
BLACK
6
CONTINUOUS
10
0.6173326771653543
20
1.6324282677165354
11
0.6173612992125984
21
1.6323726377952756
0
LINE
8
BLACK
6
CONTINUOUS
10
0.6173612992125984
20
1.6323726377952756
11
0.6174551181102362
21
1.6322583464566929
0
LINE
8
BLACK
6
CONTINUOUS
10
0.6174551181102362
20
1.6322583464566929
11
0.617598779527559
21
1.6319114960629921
0
LINE
8
BLACK
6
CONTINUOUS
10
0.617598779527559
20
1.6319114960629921
11
0.6195157874015748
21
1.6281888582677164
0
LINE
8
BLACK
6
CONTINUOUS
10
0.6195157874015748
20
1.6281888582677164
11
0.6197226771653543
21
1.6276482677165354
0
LINE
8
BLACK
6
CONTINUOUS
10
0.6197226771653543
20
1.6276482677165354
11
0.6197301968503937
21
1.627542401574803
0
LINE
8
BLACK
6
CONTINUOUS
10
0.6197301968503937
20
1.627542401574803
11
0.6197707874015748
21
1.627444409448819
0
LINE
8
BLACK
6
CONTINUOUS
10
0.6197707874015748
20
1.627444409448819
11
0.6197725984251968
21
1.6269455905511812
0
LINE
8
BLACK
6
CONTINUOUS
10
0.6197725984251968
20
1.6269455905511812
11
0.6198043307086614
21
1.6264990551181102
0
LINE
8
BLACK
6
CONTINUOUS
10
0.6198043307086614
20
1.6264990551181102
11
0.6197745275590552
21
1.6264097637795276
0
LINE
8
BLACK
6
CONTINUOUS
10
0.6197745275590552
20
1.6264097637795276
11
0.6198275196850394
21
1.6118702362204724
0
LINE
8
BLACK
6
CONTINUOUS
10
0.6198275196850394
20
1.6118702362204724
11
0.6197707874015748
21
1.6112941732283463
0
LINE
8
BLACK
6
CONTINUOUS
10
0.6197707874015748
20
1.6112941732283463
11
0.6193298818897638
21
1.6102297637795275
0
LINE
8
BLACK
6
CONTINUOUS
10
0.6193298818897638
20
1.6102297637795275
11
0.6185152362204724
21
1.6094151181102361
0
LINE
8
BLACK
6
CONTINUOUS
10
0.6185152362204724
20
1.6094151181102361
11
0.6174508267716535
21
1.6089742125984252
0
LINE
8
BLACK
6
CONTINUOUS
10
0.6174508267716535
20
1.6089742125984252
11
0.57750468503937
21
1.6089174803149606
0
LINE
8
BLACK
6
CONTINUOUS
10
0.57750468503937
20
1.6089174803149606
11
0.576928622047244
21
1.6089742125984252
0
LINE
8
BLACK
6
CONTINUOUS
10
0.576928622047244
20
1.6089742125984252
11
0.5758642125984251
21
1.6094151181102361
0
LINE
8
BLACK
6
CONTINUOUS
10
0.5758642125984251
20
1.6094151181102361
11
0.5750495669291339
21
1.6102297637795275
0
LINE
8
BLACK
6
CONTINUOUS
10
0.5750495669291339
20
1.6102297637795275
11
0.5746086614173228
21
1.6112941732283463
0
LINE
8
BLACK
6
CONTINUOUS
10
0.5746086614173228
20
1.6112941732283463
11
0.5745519291338582
21
1.6249935826771653
0
LINE
8
BLACK
6
CONTINUOUS
10
0.5745519291338582
20
1.6249935826771653
11
0.5746086614173228
21
1.6255696456692914
0
LINE
8
BLACK
6
CONTINUOUS
10
0.5746086614173228
20
1.6255696456692914
11
0.5746492519685039
21
1.6256676771653542
0
LINE
8
BLACK
6
CONTINUOUS
10
0.5746492519685039
20
1.6256676771653542
11
0.5746567716535433
21
1.6257734645669291
0
LINE
8
BLACK
6
CONTINUOUS
10
0.5746567716535433
20
1.6257734645669291
11
0.5749049606299212
21
1.6262850393700787
0
LINE
8
BLACK
6
CONTINUOUS
10
0.5749049606299212
20
1.6262850393700787
11
0.5750495669291339
21
1.6266340551181102
0
LINE
8
BLACK
6
CONTINUOUS
10
0.5750495669291339
20
1.6266340551181102
11
0.5750976771653543
21
1.6266822047244094
0
LINE
8
BLACK
6
CONTINUOUS
10
0.5750976771653543
20
1.6266822047244094
11
0.5767384251968504
21
1.630063622047244
0
LINE
8
BLACK
6
CONTINUOUS
10
0.5767384251968504
20
1.630063622047244
11
0.5768944881889764
21
1.6303116535433071
0
LINE
8
BLACK
6
CONTINUOUS
10
0.5768944881889764
20
1.6303116535433071
11
0.5769243307086614
21
1.6303835826771653
0
LINE
8
BLACK
6
CONTINUOUS
10
0.5769243307086614
20
1.6303835826771653
11
0.5769688188976377
21
1.63042968503937
0
LINE
8
BLACK
6
CONTINUOUS
10
0.5769688188976377
20
1.63042968503937
11
0.5770467716535433
21
1.6305535039370078
0
LINE
8
BLACK
6
CONTINUOUS
10
0.5770467716535433
20
1.6305535039370078
11
0.5773024409448819
21
1.6307752755905511
0
LINE
8
BLACK
6
CONTINUOUS
10
0.5773024409448819
20
1.6307752755905511
11
0.5791662992125984
21
1.6327057874015747
0
LINE
8
BLACK
6
CONTINUOUS
10
0.5791662992125984
20
1.6327057874015747
11
0.5793926377952756
21
1.6328915748031496
0
LINE
8
BLACK
6
CONTINUOUS
10
0.5793926377952756
20
1.6328915748031496
11
0.5794438188976377
21
1.6329505511811022
0
LINE
8
BLACK
6
CONTINUOUS
10
0.5794438188976377
20
1.6329505511811022
11
0.5794994488188976
21
1.6329792125984253
0
LINE
8
BLACK
6
CONTINUOUS
10
0.5794994488188976
20
1.6329792125984253
11
0.5796137401574804
21
1.6330729921259841
0
LINE
8
BLACK
6
CONTINUOUS
10
0.5796137401574804
20
1.6330729921259841
11
0.5799605905511811
21
1.6332166929133858
0
LINE
8
BLACK
6
CONTINUOUS
10
0.5799605905511811
20
1.6332166929133858
11
0.5836832283464567
21
1.6351336614173229
0
LINE
8
BLACK
6
CONTINUOUS
10
0.5836832283464567
20
1.6351336614173229
11
0.5842238188976377
21
1.6353405511811023
0
LINE
8
BLACK
6
CONTINUOUS
10
0.5842238188976377
20
1.6353405511811023
11
0.5843296850393701
21
1.6353481102362204
0
LINE
8
BLACK
6
CONTINUOUS
10
0.5843296850393701
20
1.6353481102362204
11
0.5844276771653543
21
1.6353886614173228
0
LINE
8
BLACK
6
CONTINUOUS
10
0.5844276771653543
20
1.6353886614173228
11
0.585008031496063
21
1.6353962992125983
0
LINE
8
BLACK
6
CONTINUOUS
10
0.585008031496063
20
1.6353962992125983
11
0.585373031496063
21
1.6354222047244094
0
LINE
8
BLACK
6
CONTINUOUS
10
0.585373031496063
20
1.6354222047244094
11
0.5854340551181102
21
1.6354018897637794
0
LINE
8
BLACK
6
CONTINUOUS
10
0.5854340551181102
20
1.6354018897637794
11
0.5887532677165355
21
1.6354453937007873
0
LINE
8
BLACK
6
CONTINUOUS
10
0.5887532677165355
20
1.6354453937007873
11
0.5893293307086614
21
1.6353886614173228
0
LINE
8
BLACK
6
CONTINUOUS
10
0.5893293307086614
20
1.6353886614173228
11
0.5894273228346456
21
1.6353480708661416
0
LINE
8
BLACK
6
CONTINUOUS
10
0.5894273228346456
20
1.6353480708661416
11
0.5895331496062992
21
1.6353405511811023
0
LINE
8
BLACK
6
CONTINUOUS
10
0.5895331496062992
20
1.6353405511811023
11
0.59004468503937
21
1.6350923622047244
0
LINE
8
BLACK
6
CONTINUOUS
10
0.59004468503937
20
1.6350923622047244
11
0.5903937401574803
21
1.6349477559055117
0
LINE
8
BLACK
6
CONTINUOUS
10
0.5903937401574803
20
1.6349477559055117
11
0.5904418503937008
21
1.6348996456692912
0
LINE
8
BLACK
6
CONTINUOUS
10
0.5904418503937008
20
1.6348996456692912
11
0.5938233070866141
21
1.6332588976377953
0
LINE
8
BLACK
6
CONTINUOUS
10
0.5938233070866141
20
1.6332588976377953
11
0.5940712992125984
21
1.6331028346456693
0
LINE
8
BLACK
6
CONTINUOUS
10
0.5940712992125984
20
1.6331028346456693
11
0.5941432677165355
21
1.6330729921259841
0
LINE
8
BLACK
6
CONTINUOUS
10
0.5941432677165355
20
1.6330729921259841
11
0.5941893307086614
21
1.6330285039370078
0
LINE
8
BLACK
6
CONTINUOUS
10
0.5941893307086614
20
1.6330285039370078
11
0.594313188976378
21
1.6329505511811022
0
LINE
8
BLACK
6
CONTINUOUS
10
0.594313188976378
20
1.6329505511811022
11
0.5945349212598425
21
1.6326948818897637
0
LINE
8
BLACK
6
CONTINUOUS
10
0.5945349212598425
20
1.6326948818897637
11
0.5954442913385827
21
1.6318169291338582
0
LINE
8
BLACK
6
CONTINUOUS
10
0.5954442913385827
20
1.6318169291338582
11
0.5955618503937008
21
1.632080157480315
0
LINE
8
BLACK
6
CONTINUOUS
10
0.5955618503937008
20
1.632080157480315
11
0.5956313385826771
21
1.6321603149606299
0
LINE
8
BLACK
6
CONTINUOUS
10
0.5956313385826771
20
1.6321603149606299
11
0.595671968503937
21
1.6322583464566929
0
LINE
8
BLACK
6
CONTINUOUS
10
0.595671968503937
20
1.6322583464566929
11
0.5961090944881889
21
1.6327111811023622
0
LINE
8
BLACK
6
CONTINUOUS
10
0.5961090944881889
20
1.6327111811023622
11
0.5963167322834646
21
1.6329505118110237
0
LINE
8
BLACK
6
CONTINUOUS
10
0.5963167322834646
20
1.6329505118110237
11
0.596362125984252
21
1.6329732283464566
0
LINE
8
BLACK
6
CONTINUOUS
10
0.596362125984252
20
1.6329732283464566
11
0.597913937007874
21
1.6345805511811022
0
LINE
8
BLACK
6
CONTINUOUS
10
0.597913937007874
20
1.6345805511811022
11
0.5981402755905512
21
1.6347663385826772
0
LINE
8
BLACK
6
CONTINUOUS
10
0.5981402755905512
20
1.6347663385826772
11
0.5981914566929134
21
1.63482531496063
0
LINE
8
BLACK
6
CONTINUOUS
10
0.5981914566929134
20
1.63482531496063
11
0.5982470866141733
21
1.6348539763779528
0
LINE
8
BLACK
6
CONTINUOUS
10
0.5982470866141733
20
1.6348539763779528
11
0.5983613779527559
21
1.6349477559055117
0
LINE
8
BLACK
6
CONTINUOUS
10
0.5983613779527559
20
1.6349477559055117
11
0.5987082283464567
21
1.6350914566929133
0
LINE
8
BLACK
6
CONTINUOUS
10
0.5987082283464567
20
1.6350914566929133
11
0.6024308661417322
21
1.6370084251968504
0
LINE
8
BLACK
6
CONTINUOUS
10
0.6024308661417322
20
1.6370084251968504
11
0.6029714566929134
21
1.6372153149606299
0
LINE
8
BLACK
6
CONTINUOUS
10
0.6029714566929134
20
1.6372153149606299
11
0.6030773228346457
21
1.637222874015748
0
LINE
8
BLACK
6
CONTINUOUS
10
0.6030773228346457
20
1.637222874015748
11
0.6031753149606299
21
1.6372634251968503
0
LINE
8
BLACK
6
CONTINUOUS
10
0.6031753149606299
20
1.6372634251968503
11
0.6037185039370079
21
1.6372684251968503
0
LINE
8
BLACK
6
CONTINUOUS
10
0.6037185039370079
20
1.6372684251968503
11
0.6041206692913386
21
1.6372969685039369
0
LINE
8
BLACK
6
CONTINUOUS
10
0.6041206692913386
20
1.6372969685039369
11
0.6041933464566929
21
1.6372727559055118
0
LINE
8
BLACK
6
CONTINUOUS
10
0.6041933464566929
20
1.6372727559055118
11
0.6093756692913386
21
1.6373201574803149
0
LINE
8
BLACK
6
CONTINUOUS
10
0.6093756692913386
20
1.6373201574803149
11
0.6099517322834646
21
1.6372634251968503
0
LINE
8
BLACK
6
CONTINUOUS
10
0.5856258267716535
20
1.6295480708661416
11
0.5829100393700787
21
1.6281495669291339
0
LINE
8
BLACK
6
CONTINUOUS
10
0.5829100393700787
20
1.6281495669291339
11
0.5817193307086614
21
1.626916220472441
0
LINE
8
BLACK
6
CONTINUOUS
10
0.5817193307086614
20
1.626916220472441
11
0.5804062992125985
21
1.6242102362204724
0
LINE
8
BLACK
6
CONTINUOUS
10
0.5804062992125985
20
1.6242102362204724
11
0.5804453937007874
21
1.6147712598425197
0
LINE
8
BLACK
6
CONTINUOUS
10
0.5804453937007874
20
1.6147712598425197
11
0.593341811023622
21
1.6147896062992126
0
LINE
8
BLACK
6
CONTINUOUS
10
0.593341811023622
20
1.6147896062992126
11
0.5933020866141732
21
1.6243824409448819
0
LINE
8
BLACK
6
CONTINUOUS
10
0.5933020866141732
20
1.6243824409448819
11
0.5919092125984252
21
1.6270872834645669
0
LINE
8
BLACK
6
CONTINUOUS
10
0.5919092125984252
20
1.6270872834645669
11
0.5906758661417323
21
1.6282779921259842
0
LINE
8
BLACK
6
CONTINUOUS
10
0.5906758661417323
20
1.6282779921259842
11
0.5879943700787401
21
1.6295791338582677
0
LINE
8
BLACK
6
CONTINUOUS
10
0.5879943700787401
20
1.6295791338582677
11
0.5856258267716535
21
1.6295480708661416
0
LINE
8
BLACK
6
CONTINUOUS
10
0.6043685826771653
20
1.6314203149606299
11
0.6016576771653543
21
1.6300243307086615
0
LINE
8
BLACK
6
CONTINUOUS
10
0.6016576771653543
20
1.6300243307086615
11
0.6006443307086614
21
1.62897468503937
0
LINE
8
BLACK
6
CONTINUOUS
10
0.6006443307086614
20
1.62897468503937
11
0.5991533070866142
21
1.6243681496062992
0
LINE
8
BLACK
6
CONTINUOUS
10
0.5991533070866142
20
1.6243681496062992
11
0.5991929527559055
21
1.6147979133858268
0
LINE
8
BLACK
6
CONTINUOUS
10
0.5991929527559055
20
1.6147979133858268
11
0.6139658661417323
21
1.6148188976377953
0
LINE
8
BLACK
6
CONTINUOUS
10
0.6139658661417323
20
1.6148188976377953
11
0.6139242125984252
21
1.6262577952755906
0
LINE
8
BLACK
6
CONTINUOUS
10
0.6139242125984252
20
1.6262577952755906
11
0.6125316535433071
21
1.6289620078740157
0
LINE
8
BLACK
6
CONTINUOUS
10
0.6125316535433071
20
1.6289620078740157
11
0.6112982677165354
21
1.6301527559055118
0
LINE
8
BLACK
6
CONTINUOUS
10
0.6112982677165354
20
1.6301527559055118
11
0.6086060629921259
21
1.631459094488189
0
LINE
8
BLACK
6
CONTINUOUS
10
0.6086060629921259
20
1.631459094488189
11
0.6043685826771653
21
1.6314203149606299
0
LINE
8
BLACK
6
CONTINUOUS
10
0.6166403937007874
20
1.6555702362204725
11
0.6166404724409449
21
1.6555701968503937
0
LINE
8
BLACK
6
CONTINUOUS
10
0.6166404724409449
20
1.6555701968503937
11
0.6189626771653544
21
1.6533282283464568
0
LINE
8
BLACK
6
CONTINUOUS
10
0.6189626771653544
20
1.6533282283464568
11
0.6193298818897638
21
1.6528807874015747
0
LINE
8
BLACK
6
CONTINUOUS
10
0.6193298818897638
20
1.6528807874015747
11
0.6194714566929134
21
1.6525390157480315
0
LINE
8
BLACK
6
CONTINUOUS
10
0.6194714566929134
20
1.6525390157480315
11
0.6197707874015748
21
1.6518163385826772
0
LINE
8
BLACK
6
CONTINUOUS
10
0.6197707874015748
20
1.6518163385826772
11
0.6197707874015748
21
1.650664251968504
0
LINE
8
BLACK
6
CONTINUOUS
10
0.6197707874015748
20
1.650664251968504
11
0.6193298818897638
21
1.6495998425196849
0
LINE
8
BLACK
6
CONTINUOUS
10
0.6193298818897638
20
1.6495998425196849
11
0.6170879133858268
21
1.6472776377952756
0
LINE
8
BLACK
6
CONTINUOUS
10
0.6170879133858268
20
1.6472776377952756
11
0.6166404724409449
21
1.6469104330708662
0
LINE
8
BLACK
6
CONTINUOUS
10
0.6166404724409449
20
1.6469104330708662
11
0.615576062992126
21
1.6464695275590551
0
LINE
8
BLACK
6
CONTINUOUS
10
0.615576062992126
20
1.6464695275590551
11
0.6144239763779528
21
1.6464695275590551
0
LINE
8
BLACK
6
CONTINUOUS
10
0.6144239763779528
20
1.6464695275590551
11
0.6133595669291338
21
1.6469103937007874
0
LINE
8
BLACK
6
CONTINUOUS
10
0.6133595669291338
20
1.6469103937007874
11
0.6110373228346456
21
1.6491523622047244
0
LINE
8
BLACK
6
CONTINUOUS
10
0.6110373228346456
20
1.6491523622047244
11
0.6106700787401574
21
1.6495998425196849
0
LINE
8
BLACK
6
CONTINUOUS
10
0.6106700787401574
20
1.6495998425196849
11
0.6106700393700787
21
1.6495998818897637
0
LINE
8
BLACK
6
CONTINUOUS
10
0.6106700393700787
20
1.6495998818897637
11
0.6102291732283465
21
1.6506642913385827
0
LINE
8
BLACK
6
CONTINUOUS
10
0.6102291732283465
20
1.6506642913385827
11
0.6102291732283465
21
1.6518163779527559
0
LINE
8
BLACK
6
CONTINUOUS
10
0.6102291732283465
20
1.6518163779527559
11
0.6105285039370079
21
1.6525390157480315
0
LINE
8
BLACK
6
CONTINUOUS
10
0.6105285039370079
20
1.6525390157480315
11
0.6106700393700787
21
1.652880748031496
0
LINE
8
BLACK
6
CONTINUOUS
10
0.6106700393700787
20
1.652880748031496
11
0.6106700787401574
21
1.6528807874015747
0
LINE
8
BLACK
6
CONTINUOUS
10
0.6106700787401574
20
1.6528807874015747
11
0.6129120866141732
21
1.6552029921259843
0
LINE
8
BLACK
6
CONTINUOUS
10
0.6129120866141732
20
1.6552029921259843
11
0.6133595669291338
21
1.6555702362204725
0
LINE
8
BLACK
6
CONTINUOUS
10
0.6133595669291338
20
1.6555702362204725
11
0.6144239763779528
21
1.6560111023622046
0
LINE
8
BLACK
6
CONTINUOUS
10
0.6144239763779528
20
1.6560111023622046
11
0.615576062992126
21
1.6560111023622046
0
LINE
8
BLACK
6
CONTINUOUS
10
0.615576062992126
20
1.6560111023622046
11
0.6166403937007874
21
1.6555702362204725
0
LINE
8
BLACK
6
CONTINUOUS
10
0.6164622834645669
20
1.6894260629921261
11
0.6173326771653543
21
1.688671220472441
0
LINE
8
BLACK
6
CONTINUOUS
10
0.6173326771653543
20
1.688671220472441
11
0.6195157874015748
21
1.684431811023622
0
LINE
8
BLACK
6
CONTINUOUS
10
0.6195157874015748
20
1.684431811023622
11
0.6197226771653543
21
1.683891220472441
0
LINE
8
BLACK
6
CONTINUOUS
10
0.6197226771653543
20
1.683891220472441
11
0.6197301968503937
21
1.6837853543307086
0
LINE
8
BLACK
6
CONTINUOUS
10
0.6197301968503937
20
1.6837853543307086
11
0.6197707874015748
21
1.6836873622047244
0
LINE
8
BLACK
6
CONTINUOUS
10
0.6197707874015748
20
1.6836873622047244
11
0.6197744488188976
21
1.6831622047244095
0
LINE
8
BLACK
6
CONTINUOUS
10
0.6197744488188976
20
1.6831622047244095
11
0.6198043307086614
21
1.6827420078740156
0
LINE
8
BLACK
6
CONTINUOUS
10
0.6198043307086614
20
1.6827420078740156
11
0.6197779527559055
21
1.6826629921259841
0
LINE
8
BLACK
6
CONTINUOUS
10
0.6197779527559055
20
1.6826629921259841
11
0.6198275196850394
21
1.6756122440944881
0
LINE
8
BLACK
6
CONTINUOUS
10
0.6198275196850394
20
1.6756122440944881
11
0.6197707874015748
21
1.6750361811023622
0
LINE
8
BLACK
6
CONTINUOUS
10
0.6197707874015748
20
1.6750361811023622
11
0.6197301968503937
21
1.6749382283464567
0
LINE
8
BLACK
6
CONTINUOUS
10
0.6197301968503937
20
1.6749382283464567
11
0.6197226771653543
21
1.6748323228346456
0
LINE
8
BLACK
6
CONTINUOUS
10
0.6197226771653543
20
1.6748323228346456
11
0.6194743307086614
21
1.6743205905511811
0
LINE
8
BLACK
6
CONTINUOUS
10
0.6194743307086614
20
1.6743205905511811
11
0.6193298818897638
21
1.6739717716535432
0
LINE
8
BLACK
6
CONTINUOUS
10
0.6193298818897638
20
1.6739717716535432
11
0.6192817716535433
21
1.6739237007874015
0
LINE
8
BLACK
6
CONTINUOUS
10
0.6192817716535433
20
1.6739237007874015
11
0.6176410236220472
21
1.6705422047244094
0
LINE
8
BLACK
6
CONTINUOUS
10
0.6176410236220472
20
1.6705422047244094
11
0.6174849212598426
21
1.6702942125984253
0
LINE
8
BLACK
6
CONTINUOUS
10
0.6174849212598426
20
1.6702942125984253
11
0.6174551181102362
21
1.6702222440944881
0
LINE
8
BLACK
6
CONTINUOUS
10
0.6174551181102362
20
1.6702222440944881
11
0.6174105905511811
21
1.6701761811023621
0
LINE
8
BLACK
6
CONTINUOUS
10
0.6174105905511811
20
1.6701761811023621
11
0.6173326771653543
21
1.6700523228346456
0
LINE
8
BLACK
6
CONTINUOUS
10
0.6173326771653543
20
1.6700523228346456
11
0.6170768897637795
21
1.6698305511811022
0
LINE
8
BLACK
6
CONTINUOUS
10
0.6170768897637795
20
1.6698305511811022
11
0.6152130708661417
21
1.6678999999999999
0
LINE
8
BLACK
6
CONTINUOUS
10
0.6152130708661417
20
1.6678999999999999
11
0.6149867322834646
21
1.6677142913385827
0
LINE
8
BLACK
6
CONTINUOUS
10
0.6149867322834646
20
1.6677142913385827
11
0.6149355905511811
21
1.6676552755905512
0
LINE
8
BLACK
6
CONTINUOUS
10
0.6149355905511811
20
1.6676552755905512
11
0.6148799606299212
21
1.6676266535433071
0
LINE
8
BLACK
6
CONTINUOUS
10
0.6148799606299212
20
1.6676266535433071
11
0.6147656299212598
21
1.6675327952755905
0
LINE
8
BLACK
6
CONTINUOUS
10
0.6147656299212598
20
1.6675327952755905
11
0.6144187007874016
21
1.6673891338582676
0
LINE
8
BLACK
6
CONTINUOUS
10
0.6144187007874016
20
1.6673891338582676
11
0.6106961811023622
21
1.6654721653543307
0
LINE
8
BLACK
6
CONTINUOUS
10
0.6106961811023622
20
1.6654721653543307
11
0.6101555511811023
21
1.665265275590551
0
LINE
8
BLACK
6
CONTINUOUS
10
0.6101555511811023
20
1.665265275590551
11
0.6100497244094488
21
1.6652577952755905
0
LINE
8
BLACK
6
CONTINUOUS
10
0.6100497244094488
20
1.6652577952755905
11
0.6099517322834646
21
1.6652171653543306
0
LINE
8
BLACK
6
CONTINUOUS
10
0.6099517322834646
20
1.6652171653543306
11
0.6094441338582677
21
1.6652147637795276
0
LINE
8
BLACK
6
CONTINUOUS
10
0.6094441338582677
20
1.6652147637795276
11
0.6090063385826772
21
1.665183622047244
0
LINE
8
BLACK
6
CONTINUOUS
10
0.6090063385826772
20
1.665183622047244
11
0.6089205511811023
21
1.6652122440944881
0
LINE
8
BLACK
6
CONTINUOUS
10
0.6089205511811023
20
1.6652122440944881
11
0.5981270866141732
21
1.665160433070866
0
LINE
8
BLACK
6
CONTINUOUS
10
0.5981270866141732
20
1.665160433070866
11
0.5975510236220473
21
1.6652171653543306
0
LINE
8
BLACK
6
CONTINUOUS
10
0.5975510236220473
20
1.6652171653543306
11
0.597453031496063
21
1.6652577559055117
0
LINE
8
BLACK
6
CONTINUOUS
10
0.597453031496063
20
1.6652577559055117
11
0.5973471653543307
21
1.665265275590551
0
LINE
8
BLACK
6
CONTINUOUS
10
0.5973471653543307
20
1.665265275590551
11
0.5968353937007874
21
1.665513622047244
0
LINE
8
BLACK
6
CONTINUOUS
10
0.5968353937007874
20
1.665513622047244
11
0.5964866141732283
21
1.6656580708661417
0
LINE
8
BLACK
6
CONTINUOUS
10
0.5964866141732283
20
1.6656580708661417
11
0.5964385039370078
21
1.6657061811023621
0
LINE
8
BLACK
6
CONTINUOUS
10
0.5964385039370078
20
1.6657061811023621
11
0.5930570472440945
21
1.6673469291338583
0
LINE
8
BLACK
6
CONTINUOUS
10
0.5930570472440945
20
1.6673469291338583
11
0.5928090157480315
21
1.667503031496063
0
LINE
8
BLACK
6
CONTINUOUS
10
0.5928090157480315
20
1.667503031496063
11
0.5927370866141732
21
1.6675328346456693
0
LINE
8
BLACK
6
CONTINUOUS
10
0.5927370866141732
20
1.6675328346456693
11
0.5926909842519685
21
1.6675773622047243
0
LINE
8
BLACK
6
CONTINUOUS
10
0.5926909842519685
20
1.6675773622047243
11
0.5925671653543307
21
1.6676552755905512
0
LINE
8
BLACK
6
CONTINUOUS
10
0.5925671653543307
20
1.6676552755905512
11
0.5923453937007874
21
1.6679109842519684
0
LINE
8
BLACK
6
CONTINUOUS
10
0.5923453937007874
20
1.6679109842519684
11
0.5904148818897638
21
1.6697748031496062
0
LINE
8
BLACK
6
CONTINUOUS
10
0.5904148818897638
20
1.6697748031496062
11
0.5902290944881889
21
1.6700011811023621
0
LINE
8
BLACK
6
CONTINUOUS
10
0.5902290944881889
20
1.6700011811023621
11
0.5901701181102362
21
1.6700523228346456
0
LINE
8
BLACK
6
CONTINUOUS
10
0.5901701181102362
20
1.6700523228346456
11
0.5901414566929134
21
1.6701079921259843
0
LINE
8
BLACK
6
CONTINUOUS
10
0.5901414566929134
20
1.6701079921259843
11
0.5900476771653543
21
1.6702222440944881
0
LINE
8
BLACK
6
CONTINUOUS
10
0.5900476771653543
20
1.6702222440944881
11
0.5899040157480315
21
1.6705690551181103
0
LINE
8
BLACK
6
CONTINUOUS
10
0.5899040157480315
20
1.6705690551181103
11
0.5879870078740157
21
1.6742917322834645
0
LINE
8
BLACK
6
CONTINUOUS
10
0.5879870078740157
20
1.6742917322834645
11
0.5877801181102362
21
1.6748323622047243
0
LINE
8
BLACK
6
CONTINUOUS
10
0.5877801181102362
20
1.6748323622047243
11
0.5877725984251968
21
1.6749381889763779
0
LINE
8
BLACK
6
CONTINUOUS
10
0.5877725984251968
20
1.6749381889763779
11
0.5877320078740157
21
1.6750361811023622
0
LINE
8
BLACK
6
CONTINUOUS
10
0.5877320078740157
20
1.6750361811023622
11
0.5877283070866142
21
1.6755614173228346
0
LINE
8
BLACK
6
CONTINUOUS
10
0.5877283070866142
20
1.6755614173228346
11
0.5876984645669291
21
1.6759815748031495
0
LINE
8
BLACK
6
CONTINUOUS
10
0.5876984645669291
20
1.6759815748031495
11
0.5877248031496063
21
1.6760606299212597
0
LINE
8
BLACK
6
CONTINUOUS
10
0.5877248031496063
20
1.6760606299212597
11
0.5876752755905512
21
1.6831112992125983
0
LINE
8
BLACK
6
CONTINUOUS
10
0.5876752755905512
20
1.6831112992125983
11
0.5877320078740157
21
1.6836873622047244
0
LINE
8
BLACK
6
CONTINUOUS
10
0.5877320078740157
20
1.6836873622047244
11
0.5877725984251968
21
1.6837853937007874
0
LINE
8
BLACK
6
CONTINUOUS
10
0.5877725984251968
20
1.6837853937007874
11
0.5877801181102362
21
1.6838911811023622
0
LINE
8
BLACK
6
CONTINUOUS
10
0.5877801181102362
20
1.6838911811023622
11
0.5880283070866141
21
1.6844027559055117
0
LINE
8
BLACK
6
CONTINUOUS
10
0.5880283070866141
20
1.6844027559055117
11
0.5881729133858268
21
1.6847517716535432
0
LINE
8
BLACK
6
CONTINUOUS
10
0.5881729133858268
20
1.6847517716535432
11
0.5882210236220472
21
1.6847999212598426
0
LINE
8
BLACK
6
CONTINUOUS
10
0.5882210236220472
20
1.6847999212598426
11
0.5898617716535433
21
1.6881813385826772
0
LINE
8
BLACK
6
CONTINUOUS
10
0.5898617716535433
20
1.6881813385826772
11
0.5901701181102362
21
1.688671220472441
0
LINE
8
BLACK
6
CONTINUOUS
10
0.5901701181102362
20
1.688671220472441
11
0.5910405118110236
21
1.6894260629921261
0
LINE
8
BLACK
6
CONTINUOUS
10
0.5910405118110236
20
1.6894260629921261
11
0.5921334645669292
21
1.6897903937007874
0
LINE
8
BLACK
6
CONTINUOUS
10
0.5921334645669292
20
1.6897903937007874
11
0.5932826771653543
21
1.6897087401574802
0
LINE
8
BLACK
6
CONTINUOUS
10
0.5932826771653543
20
1.6897087401574802
11
0.594313188976378
21
1.6891934645669291
0
LINE
8
BLACK
6
CONTINUOUS
10
0.594313188976378
20
1.6891934645669291
11
0.595068031496063
21
1.6883231102362204
0
LINE
8
BLACK
6
CONTINUOUS
10
0.595068031496063
20
1.6883231102362204
11
0.5954323622047244
21
1.6872301181102363
0
LINE
8
BLACK
6
CONTINUOUS
10
0.5954323622047244
20
1.6872301181102363
11
0.5953507086614173
21
1.6860809055118109
0
LINE
8
BLACK
6
CONTINUOUS
10
0.5953507086614173
20
1.6860809055118109
11
0.5935335433070866
21
1.682335905511811
0
LINE
8
BLACK
6
CONTINUOUS
10
0.5935335433070866
20
1.682335905511811
11
0.5935764566929134
21
1.6762268897637795
0
LINE
8
BLACK
6
CONTINUOUS
10
0.5935764566929134
20
1.6762268897637795
11
0.5949711023622047
21
1.6735185826771652
0
LINE
8
BLACK
6
CONTINUOUS
10
0.5949711023622047
20
1.6735185826771652
11
0.5962044881889763
21
1.6723278346456691
0
LINE
8
BLACK
6
CONTINUOUS
10
0.5962044881889763
20
1.6723278346456691
11
0.598908622047244
21
1.671015748031496
0
LINE
8
BLACK
6
CONTINUOUS
10
0.598908622047244
20
1.671015748031496
11
0.6087637007874016
21
1.6710630314960631
0
LINE
8
BLACK
6
CONTINUOUS
10
0.6087637007874016
20
1.6710630314960631
11
0.6114693307086614
21
1.6724563385826772
0
LINE
8
BLACK
6
CONTINUOUS
10
0.6114693307086614
20
1.6724563385826772
11
0.6126601181102362
21
1.6736896850393701
0
LINE
8
BLACK
6
CONTINUOUS
10
0.6126601181102362
20
1.6736896850393701
11
0.6139692125984252
21
1.6763876771653543
0
LINE
8
BLACK
6
CONTINUOUS
10
0.6139692125984252
20
1.6763876771653543
11
0.6139262992125984
21
1.6824966929133858
0
LINE
8
BLACK
6
CONTINUOUS
10
0.6139262992125984
20
1.6824966929133858
11
0.6123589763779528
21
1.6855403149606298
0
LINE
8
BLACK
6
CONTINUOUS
10
0.6123589763779528
20
1.6855403149606298
11
0.6121520866141732
21
1.6860809448818896
0
LINE
8
BLACK
6
CONTINUOUS
10
0.6121520866141732
20
1.6860809448818896
11
0.6120704330708662
21
1.687230157480315
0
LINE
8
BLACK
6
CONTINUOUS
10
0.6120704330708662
20
1.687230157480315
11
0.6124347637795275
21
1.6883231102362204
0
LINE
8
BLACK
6
CONTINUOUS
10
0.6124347637795275
20
1.6883231102362204
11
0.6131896062992126
21
1.6891935039370078
0
LINE
8
BLACK
6
CONTINUOUS
10
0.6131896062992126
20
1.6891935039370078
11
0.6142201181102362
21
1.6897087401574802
0
LINE
8
BLACK
6
CONTINUOUS
10
0.6142201181102362
20
1.6897087401574802
11
0.6153693307086614
21
1.6897903937007874
0
LINE
8
BLACK
6
CONTINUOUS
10
0.6153693307086614
20
1.6897903937007874
11
0.6164622834645669
21
1.6894260629921261
0
LINE
8
BLACK
6
CONTINUOUS
10
0.5910261811023622
20
1.7235026377952756
11
0.591204094488189
21
1.7235026377952756
0
LINE
8
BLACK
6
CONTINUOUS
10
0.591204094488189
20
1.7235026377952756
11
0.5915762992125985
21
1.723348464566929
0
LINE
8
BLACK
6
CONTINUOUS
10
0.5915762992125985
20
1.723348464566929
11
0.5919642913385826
21
1.7232397244094488
0
LINE
8
BLACK
6
CONTINUOUS
10
0.5919642913385826
20
1.7232397244094488
11
0.5921052362204724
21
1.72312937007874
0
LINE
8
BLACK
6
CONTINUOUS
10
0.5921052362204724
20
1.72312937007874
11
0.5922685039370078
21
1.7230617322834645
0
LINE
8
BLACK
6
CONTINUOUS
10
0.5922685039370078
20
1.7230617322834645
11
0.5925459842519685
21
1.7227842519685039
0
LINE
8
BLACK
6
CONTINUOUS
10
0.5925459842519685
20
1.7227842519685039
11
0.6139610236220472
21
1.7060159448818897
0
LINE
8
BLACK
6
CONTINUOUS
10
0.6139610236220472
20
1.7060159448818897
11
0.6139220078740157
21
1.7206066141732284
0
LINE
8
BLACK
6
CONTINUOUS
10
0.6139220078740157
20
1.7206066141732284
11
0.6139787401574803
21
1.7211826771653542
0
LINE
8
BLACK
6
CONTINUOUS
10
0.6139787401574803
20
1.7211826771653542
11
0.6144196456692913
21
1.7222470866141733
0
LINE
8
BLACK
6
CONTINUOUS
10
0.6144196456692913
20
1.7222470866141733
11
0.6152342913385827
21
1.7230617322834645
0
LINE
8
BLACK
6
CONTINUOUS
10
0.6152342913385827
20
1.7230617322834645
11
0.6162987007874016
21
1.7235026377952756
0
LINE
8
BLACK
6
CONTINUOUS
10
0.6162987007874016
20
1.7235026377952756
11
0.6174508267716535
21
1.7235026377952756
0
LINE
8
BLACK
6
CONTINUOUS
10
0.6174508267716535
20
1.7235026377952756
11
0.6185152362204724
21
1.7230617322834645
0
LINE
8
BLACK
6
CONTINUOUS
10
0.6185152362204724
20
1.7230617322834645
11
0.6193298818897638
21
1.7222470866141733
0
LINE
8
BLACK
6
CONTINUOUS
10
0.6193298818897638
20
1.7222470866141733
11
0.6197707874015748
21
1.7211826771653542
0
LINE
8
BLACK
6
CONTINUOUS
10
0.6197707874015748
20
1.7211826771653542
11
0.6198275196850394
21
1.6999842125984252
0
LINE
8
BLACK
6
CONTINUOUS
10
0.6198275196850394
20
1.6999842125984252
11
0.6198112992125984
21
1.6998196062992126
0
LINE
8
BLACK
6
CONTINUOUS
10
0.6198112992125984
20
1.6998196062992126
11
0.619818779527559
21
1.6997573228346456
0
LINE
8
BLACK
6
CONTINUOUS
10
0.619818779527559
20
1.6997573228346456
11
0.6197977952755905
21
1.6996824803149606
0
LINE
8
BLACK
6
CONTINUOUS
10
0.6197977952755905
20
1.6996824803149606
11
0.6197707874015748
21
1.6994081496062992
0
LINE
8
BLACK
6
CONTINUOUS
10
0.6197707874015748
20
1.6994081496062992
11
0.6196165748031496
21
1.6990359448818897
0
LINE
8
BLACK
6
CONTINUOUS
10
0.6196165748031496
20
1.6990359448818897
11
0.619507874015748
21
1.6986479527559055
0
LINE
8
BLACK
6
CONTINUOUS
10
0.619507874015748
20
1.6986479527559055
11
0.6193979133858267
21
1.698508031496063
0
LINE
8
BLACK
6
CONTINUOUS
10
0.6193979133858267
20
1.698508031496063
11
0.6193298818897638
21
1.6983437401574804
0
LINE
8
BLACK
6
CONTINUOUS
10
0.6193298818897638
20
1.6983437401574804
11
0.6190450393700787
21
1.698058937007874
0
LINE
8
BLACK
6
CONTINUOUS
10
0.6190450393700787
20
1.698058937007874
11
0.618796062992126
21
1.6977420078740157
0
LINE
8
BLACK
6
CONTINUOUS
10
0.618796062992126
20
1.6977420078740157
11
0.6186409448818897
21
1.6976548425196849
0
LINE
8
BLACK
6
CONTINUOUS
10
0.6186409448818897
20
1.6976548425196849
11
0.6185152362204724
21
1.6975290944881889
0
LINE
8
BLACK
6
CONTINUOUS
10
0.6185152362204724
20
1.6975290944881889
11
0.618143031496063
21
1.6973749212598426
0
LINE
8
BLACK
6
CONTINUOUS
10
0.618143031496063
20
1.6973749212598426
11
0.6177917322834645
21
1.6971774409448819
0
LINE
8
BLACK
6
CONTINUOUS
10
0.6177917322834645
20
1.6971774409448819
11
0.6176151181102362
21
1.6971562598425196
0
LINE
8
BLACK
6
CONTINUOUS
10
0.6176151181102362
20
1.6971562598425196
11
0.6174508267716535
21
1.6970881889763778
0
LINE
8
BLACK
6
CONTINUOUS
10
0.6174508267716535
20
1.6970881889763778
11
0.617047874015748
21
1.6970881889763778
0
LINE
8
BLACK
6
CONTINUOUS
10
0.617047874015748
20
1.6970881889763778
11
0.6166478740157481
21
1.6970401968503936
0
LINE
8
BLACK
6
CONTINUOUS
10
0.6166478740157481
20
1.6970401968503936
11
0.6164766141732283
21
1.6970881889763778
0
LINE
8
BLACK
6
CONTINUOUS
10
0.6164766141732283
20
1.6970881889763778
11
0.6162987007874016
21
1.6970881889763778
0
LINE
8
BLACK
6
CONTINUOUS
10
0.6162987007874016
20
1.6970881889763778
11
0.6159264566929133
21
1.6972424015748031
0
LINE
8
BLACK
6
CONTINUOUS
10
0.6159264566929133
20
1.6972424015748031
11
0.6155385039370078
21
1.6973511023622048
0
LINE
8
BLACK
6
CONTINUOUS
10
0.6155385039370078
20
1.6973511023622048
11
0.6153975196850393
21
1.6974614960629921
0
LINE
8
BLACK
6
CONTINUOUS
10
0.6153975196850393
20
1.6974614960629921
11
0.6152342913385827
21
1.6975290944881889
0
LINE
8
BLACK
6
CONTINUOUS
10
0.6152342913385827
20
1.6975290944881889
11
0.6149567716535433
21
1.6978066141732282
0
LINE
8
BLACK
6
CONTINUOUS
10
0.6149567716535433
20
1.6978066141732282
11
0.5935417322834645
21
1.7145749212598425
0
LINE
8
BLACK
6
CONTINUOUS
10
0.5935417322834645
20
1.7145749212598425
11
0.5935807874015748
21
1.6999842125984252
0
LINE
8
BLACK
6
CONTINUOUS
10
0.5935807874015748
20
1.6999842125984252
11
0.5935240551181102
21
1.6994081496062992
0
LINE
8
BLACK
6
CONTINUOUS
10
0.5935240551181102
20
1.6994081496062992
11
0.5930831496062992
21
1.6983437401574804
0
LINE
8
BLACK
6
CONTINUOUS
10
0.5930831496062992
20
1.6983437401574804
11
0.5922685039370078
21
1.6975290944881889
0
LINE
8
BLACK
6
CONTINUOUS
10
0.5922685039370078
20
1.6975290944881889
11
0.591204094488189
21
1.6970881889763778
0
LINE
8
BLACK
6
CONTINUOUS
10
0.591204094488189
20
1.6970881889763778
11
0.590051968503937
21
1.6970881889763778
0
LINE
8
BLACK
6
CONTINUOUS
10
0.590051968503937
20
1.6970881889763778
11
0.5889875590551181
21
1.6975290944881889
0
LINE
8
BLACK
6
CONTINUOUS
10
0.5889875590551181
20
1.6975290944881889
11
0.5881729133858268
21
1.6983437401574804
0
LINE
8
BLACK
6
CONTINUOUS
10
0.5881729133858268
20
1.6983437401574804
11
0.5877320078740157
21
1.6994081496062992
0
LINE
8
BLACK
6
CONTINUOUS
10
0.5877320078740157
20
1.6994081496062992
11
0.5876752755905512
21
1.7206066141732284
0
LINE
8
BLACK
6
CONTINUOUS
10
0.5876752755905512
20
1.7206066141732284
11
0.5876914566929133
21
1.7207712598425196
0
LINE
8
BLACK
6
CONTINUOUS
10
0.5876914566929133
20
1.7207712598425196
11
0.5876840157480315
21
1.7208335039370077
0
LINE
8
BLACK
6
CONTINUOUS
10
0.5876840157480315
20
1.7208335039370077
11
0.5877049606299213
21
1.7209083858267715
0
LINE
8
BLACK
6
CONTINUOUS
10
0.5877049606299213
20
1.7209083858267715
11
0.5877320078740157
21
1.7211826771653542
0
LINE
8
BLACK
6
CONTINUOUS
10
0.5877320078740157
20
1.7211826771653542
11
0.5878861811023622
21
1.7215549212598424
0
LINE
8
BLACK
6
CONTINUOUS
10
0.5878861811023622
20
1.7215549212598424
11
0.5879949212598425
21
1.7219428740157481
0
LINE
8
BLACK
6
CONTINUOUS
10
0.5879949212598425
20
1.7219428740157481
11
0.588104842519685
21
1.7220828346456694
0
LINE
8
BLACK
6
CONTINUOUS
10
0.588104842519685
20
1.7220828346456694
11
0.5881729133858268
21
1.7222470866141733
0
LINE
8
BLACK
6
CONTINUOUS
10
0.5881729133858268
20
1.7222470866141733
11
0.5884577165354331
21
1.7225319291338583
0
LINE
8
BLACK
6
CONTINUOUS
10
0.5884577165354331
20
1.7225319291338583
11
0.5887067322834646
21
1.7228488188976379
0
LINE
8
BLACK
6
CONTINUOUS
10
0.5887067322834646
20
1.7228488188976379
11
0.588861811023622
21
1.7229360236220472
0
LINE
8
BLACK
6
CONTINUOUS
10
0.588861811023622
20
1.7229360236220472
11
0.5889875590551181
21
1.7230617322834645
0
LINE
8
BLACK
6
CONTINUOUS
10
0.5889875590551181
20
1.7230617322834645
11
0.5893597244094488
21
1.7232159448818898
0
LINE
8
BLACK
6
CONTINUOUS
10
0.5893597244094488
20
1.7232159448818898
11
0.5897110629921259
21
1.7234133858267715
0
LINE
8
BLACK
6
CONTINUOUS
10
0.5897110629921259
20
1.7234133858267715
11
0.5898876377952755
21
1.7234346062992125
0
LINE
8
BLACK
6
CONTINUOUS
10
0.5898876377952755
20
1.7234346062992125
11
0.590051968503937
21
1.7235026377952756
0
LINE
8
BLACK
6
CONTINUOUS
10
0.590051968503937
20
1.7235026377952756
11
0.5904549212598426
21
1.7235026377952756
0
LINE
8
BLACK
6
CONTINUOUS
10
0.5904549212598426
20
1.7235026377952756
11
0.5908549212598425
21
1.7235506299212597
0
LINE
8
BLACK
6
CONTINUOUS
10
0.5908549212598425
20
1.7235506299212597
11
0.5910261811023622
21
1.7235026377952756
0
LINE
8
BLACK
6
CONTINUOUS
10
0.9759267716535432
20
1.7773942913385827
11
0.9777281496062992
21
1.7753153937007873
0
LINE
8
BLACK
6
CONTINUOUS
10
0.9777281496062992
20
1.7753153937007873
11
0.9781693307086614
21
1.773287401574803
0
LINE
8
BLACK
6
CONTINUOUS
10
0.9781693307086614
20
1.773287401574803
11
0.9781693307086614
21
0.2267125984251968
0
LINE
8
BLACK
6
CONTINUOUS
10
0.9781693307086614
20
0.2267125984251968
11
0.9773943307086614
21
0.2240732677165354
0
LINE
8
BLACK
6
CONTINUOUS
10
0.9773943307086614
20
0.2240732677165354
11
0.9753154330708661
21
0.2222718897637795
0
LINE
8
BLACK
6
CONTINUOUS
10
0.9753154330708661
20
0.2222718897637795
11
0.9732874409448818
21
0.2218307086614173
0
LINE
8
BLACK
6
CONTINUOUS
10
0.9732874409448818
20
0.2218307086614173
11
0.2267126377952756
21
0.2218307086614173
0
LINE
8
BLACK
6
CONTINUOUS
10
0.2267126377952756
20
0.2218307086614173
11
0.2240733070866142
21
0.2226057086614173
0
LINE
8
BLACK
6
CONTINUOUS
10
0.2240733070866142
20
0.2226057086614173
11
0.2222719291338583
21
0.2246846062992126
0
LINE
8
BLACK
6
CONTINUOUS
10
0.2222719291338583
20
0.2246846062992126
11
0.2218307480314961
21
0.2267125984251968
0
LINE
8
BLACK
6
CONTINUOUS
10
0.2218307480314961
20
0.2267125984251968
11
0.2218307480314961
21
0.966000157480315
0
LINE
8
BLACK
6
CONTINUOUS
10
0.2218307480314961
20
0.966000157480315
11
0.2218307480314961
21
1.4780670078740157
0
LINE
8
BLACK
6
CONTINUOUS
10
0.2218307480314961
20
1.4780670078740157
11
0.2218307480314961
21
1.773287401574803
0
LINE
8
BLACK
6
CONTINUOUS
10
0.2218307480314961
20
1.773287401574803
11
0.222605748031496
21
1.7759267322834644
0
LINE
8
BLACK
6
CONTINUOUS
10
0.222605748031496
20
1.7759267322834644
11
0.2246846456692913
21
1.7777281102362203
0
LINE
8
BLACK
6
CONTINUOUS
10
0.2246846456692913
20
1.7777281102362203
11
0.2267126377952756
21
1.7781692913385827
0
LINE
8
BLACK
6
CONTINUOUS
10
0.2267126377952756
20
1.7781692913385827
11
0.9732874409448818
21
1.7781692913385827
0
LINE
8
BLACK
6
CONTINUOUS
10
0.9732874409448818
20
1.7781692913385827
11
0.9759267716535432
21
1.7773942913385827
0
LINE
8
BLACK
6
CONTINUOUS
10
0.500315
20
0.7901574803149606
11
0.500315
21
0.7681163779527559
0
LINE
8
BLACK
6
CONTINUOUS
10
0.500315
20
0.7681163779527559
11
0.5005670078740158
21
0.7657727559055117
0
LINE
8
BLACK
6
CONTINUOUS
10
0.5005670078740158
20
0.7657727559055117
11
0.5005670866141733
21
0.7657724803149606
0
LINE
8
BLACK
6
CONTINUOUS
10
0.5005670866141733
20
0.7657724803149606
11
0.5025451181102362
21
0.7604690551181102
0
LINE
8
BLACK
6
CONTINUOUS
10
0.5025451181102362
20
0.7604690551181102
11
0.5025452755905512
21
0.7604687795275591
0
LINE
8
BLACK
6
CONTINUOUS
10
0.5025452755905512
20
0.7604687795275591
11
0.5059374015748032
21
0.7559375196850393
0
LINE
8
BLACK
6
CONTINUOUS
10
0.5059374015748032
20
0.7559375196850393
11
0.5059375196850393
21
0.7559374015748032
0
LINE
8
BLACK
6
CONTINUOUS
10
0.5059375196850393
20
0.7559374015748032
11
0.5104687795275591
21
0.7525452755905512
0
LINE
8
BLACK
6
CONTINUOUS
10
0.5104687795275591
20
0.7525452755905512
11
0.5104690551181102
21
0.7525451181102362
0
LINE
8
BLACK
6
CONTINUOUS
10
0.5104690551181102
20
0.7525451181102362
11
0.5157724803149606
21
0.7505670866141733
0
LINE
8
BLACK
6
CONTINUOUS
10
0.5157724803149606
20
0.7505670866141733
11
0.5157727559055117
21
0.7505670078740158
0
LINE
8
BLACK
6
CONTINUOUS
10
0.5157727559055117
20
0.7505670078740158
11
0.5181163779527559
21
0.750315
0
LINE
8
BLACK
6
CONTINUOUS
10
0.5181163779527559
20
0.750315
11
0.5181170472440945
21
0.7503149606299212
0
LINE
8
BLACK
6
CONTINUOUS
10
0.5181170472440945
20
0.7503149606299212
11
0.5401575196850393
21
0.7503149606299212
0
LINE
8
BLACK
6
CONTINUOUS
10
0.5401575196850393
20
0.7503149606299212
11
0.5401575196850393
21
0.77
0
LINE
8
BLACK
6
CONTINUOUS
10
0.5401575196850393
20
0.77
11
0.5200000393700788
21
0.77
0
LINE
8
BLACK
6
CONTINUOUS
10
0.5200000393700788
20
0.77
11
0.5200000393700788
21
0.7901574803149606
0
LINE
8
BLACK
6
CONTINUOUS
10
0.5200000393700788
20
0.7901574803149606
11
0.500315
21
0.7901574803149606
0
LINE
8
BLACK
6
CONTINUOUS
10
0.5800000393700787
20
0.7901574803149606
11
0.5800000393700787
21
0.77
0
LINE
8
BLACK
6
CONTINUOUS
10
0.5800000393700787
20
0.77
11
0.5598425590551181
21
0.77
0
LINE
8
BLACK
6
CONTINUOUS
10
0.5598425590551181
20
0.77
11
0.5598425590551181
21
0.7503149606299212
0
LINE
8
BLACK
6
CONTINUOUS
10
0.5598425590551181
20
0.7503149606299212
11
0.581883031496063
21
0.7503149606299212
0
LINE
8
BLACK
6
CONTINUOUS
10
0.581883031496063
20
0.7503149606299212
11
0.5818836614173228
21
0.750315
0
LINE
8
BLACK
6
CONTINUOUS
10
0.5818836614173228
20
0.750315
11
0.5842272834645669
21
0.7505670078740158
0
LINE
8
BLACK
6
CONTINUOUS
10
0.5842272834645669
20
0.7505670078740158
11
0.5842275590551181
21
0.7505670866141733
0
LINE
8
BLACK
6
CONTINUOUS
10
0.5842275590551181
20
0.7505670866141733
11
0.5895309842519685
21
0.7525451181102362
0
LINE
8
BLACK
6
CONTINUOUS
10
0.5895309842519685
20
0.7525451181102362
11
0.5895312598425196
21
0.7525452755905512
0
LINE
8
BLACK
6
CONTINUOUS
10
0.5895312598425196
20
0.7525452755905512
11
0.5940624803149606
21
0.7559373622047244
0
LINE
8
BLACK
6
CONTINUOUS
10
0.5940624803149606
20
0.7559373622047244
11
0.5960918897637795
21
0.7586482677165354
0
LINE
8
BLACK
6
CONTINUOUS
10
0.5960918897637795
20
0.7586482677165354
11
0.5982940157480315
21
0.7602967322834645
0
LINE
8
BLACK
6
CONTINUOUS
10
0.5982940157480315
20
0.7602967322834645
11
0.6010377952755905
21
0.7604929527559054
0
LINE
8
BLACK
6
CONTINUOUS
10
0.6010377952755905
20
0.7604929527559054
11
0.6034520866141733
21
0.7591746456692913
0
LINE
8
BLACK
6
CONTINUOUS
10
0.6034520866141733
20
0.7591746456692913
11
0.603908188976378
21
0.7586482677165354
0
LINE
8
BLACK
6
CONTINUOUS
10
0.603908188976378
20
0.7586482677165354
11
0.6059375590551181
21
0.7559373622047244
0
LINE
8
BLACK
6
CONTINUOUS
10
0.6059375590551181
20
0.7559373622047244
11
0.6104687795275591
21
0.7525452755905512
0
LINE
8
BLACK
6
CONTINUOUS
10
0.6104687795275591
20
0.7525452755905512
11
0.6104690551181102
21
0.7525451181102362
0
LINE
8
BLACK
6
CONTINUOUS
10
0.6104690551181102
20
0.7525451181102362
11
0.6157724803149606
21
0.7505670866141733
0
LINE
8
BLACK
6
CONTINUOUS
10
0.6157724803149606
20
0.7505670866141733
11
0.6157727559055118
21
0.7505670078740158
0
LINE
8
BLACK
6
CONTINUOUS
10
0.6157727559055118
20
0.7505670078740158
11
0.6181163779527559
21
0.750315
0
LINE
8
BLACK
6
CONTINUOUS
10
0.6181163779527559
20
0.750315
11
0.6181170472440944
21
0.7503149606299212
0
LINE
8
BLACK
6
CONTINUOUS
10
0.6181170472440944
20
0.7503149606299212
11
0.6401575196850393
21
0.7503149606299212
0
LINE
8
BLACK
6
CONTINUOUS
10
0.6401575196850393
20
0.7503149606299212
11
0.6401575196850393
21
0.77
0
LINE
8
BLACK
6
CONTINUOUS
10
0.6401575196850393
20
0.77
11
0.6200000393700787
21
0.77
0
LINE
8
BLACK
6
CONTINUOUS
10
0.6200000393700787
20
0.77
11
0.6200000393700787
21
0.7901574803149606
0
LINE
8
BLACK
6
CONTINUOUS
10
0.6200000393700787
20
0.7901574803149606
11
0.5800000393700787
21
0.7901574803149606
0
LINE
8
BLACK
6
CONTINUOUS
10
0.6800000393700787
20
0.77
11
0.6598425590551181
21
0.77
0
LINE
8
BLACK
6
CONTINUOUS
10
0.6598425590551181
20
0.77
11
0.6598425590551181
21
0.7503149606299212
0
LINE
8
BLACK
6
CONTINUOUS
10
0.6598425590551181
20
0.7503149606299212
11
0.681883031496063
21
0.7503149606299212
0
LINE
8
BLACK
6
CONTINUOUS
10
0.681883031496063
20
0.7503149606299212
11
0.6818836614173228
21
0.750315
0
LINE
8
BLACK
6
CONTINUOUS
10
0.6818836614173228
20
0.750315
11
0.684227283464567
21
0.7505670078740158
0
LINE
8
BLACK
6
CONTINUOUS
10
0.684227283464567
20
0.7505670078740158
11
0.6842275590551181
21
0.7505670866141733
0
LINE
8
BLACK
6
CONTINUOUS
10
0.6842275590551181
20
0.7505670866141733
11
0.6895309842519685
21
0.7525451181102362
0
LINE
8
BLACK
6
CONTINUOUS
10
0.6895309842519685
20
0.7525451181102362
11
0.6895312598425196
21
0.7525452755905512
0
LINE
8
BLACK
6
CONTINUOUS
10
0.6895312598425196
20
0.7525452755905512
11
0.6940625196850394
21
0.7559374015748032
0
LINE
8
BLACK
6
CONTINUOUS
10
0.6940625196850394
20
0.7559374015748032
11
0.6940626377952755
21
0.7559375196850393
0
LINE
8
BLACK
6
CONTINUOUS
10
0.6940626377952755
20
0.7559375196850393
11
0.6974547637795275
21
0.7604687795275591
0
LINE
8
BLACK
6
CONTINUOUS
10
0.6974547637795275
20
0.7604687795275591
11
0.6974549212598425
21
0.7604690551181102
0
LINE
8
BLACK
6
CONTINUOUS
10
0.6974549212598425
20
0.7604690551181102
11
0.6994329527559054
21
0.7657724803149606
0
LINE
8
BLACK
6
CONTINUOUS
10
0.6994329527559054
20
0.7657724803149606
11
0.699433031496063
21
0.7657727559055117
0
LINE
8
BLACK
6
CONTINUOUS
10
0.699433031496063
20
0.7657727559055117
11
0.6996850393700788
21
0.7681163779527559
0
LINE
8
BLACK
6
CONTINUOUS
10
0.6996850393700788
20
0.7681163779527559
11
0.6996850787401575
21
0.7681170472440945
0
LINE
8
BLACK
6
CONTINUOUS
10
0.6996850787401575
20
0.7681170472440945
11
0.6996850787401575
21
0.7901574803149606
0
LINE
8
BLACK
6
CONTINUOUS
10
0.6996850787401575
20
0.7901574803149606
11
0.6800000393700787
21
0.7901574803149606
0
LINE
8
BLACK
6
CONTINUOUS
10
0.6800000393700787
20
0.7901574803149606
11
0.6800000393700787
21
0.77
0
LINE
8
BLACK
6
CONTINUOUS
10
0.3294668503937008
20
0.9585226771653543
11
0.3294668897637795
21
0.9585225590551181
0
LINE
8
BLACK
6
CONTINUOUS
10
0.3294668897637795
20
0.9585225590551181
11
0.3317901574803149
21
0.9513722440944882
0
LINE
8
BLACK
6
CONTINUOUS
10
0.3317901574803149
20
0.9513722440944882
11
0.3317902755905512
21
0.951371968503937
0
LINE
8
BLACK
6
CONTINUOUS
10
0.3317902755905512
20
0.951371968503937
11
0.3355496062992126
21
0.9448606299212599
0
LINE
8
BLACK
6
CONTINUOUS
10
0.3355496062992126
20
0.9448606299212599
11
0.3405805905511811
21
0.9392731496062992
0
LINE
8
BLACK
6
CONTINUOUS
10
0.3405805905511811
20
0.9392731496062992
11
0.3466633070866142
21
0.934853779527559
0
LINE
8
BLACK
6
CONTINUOUS
10
0.3466633070866142
20
0.934853779527559
11
0.353531968503937
21
0.9317956692913386
0
LINE
8
BLACK
6
CONTINUOUS
10
0.353531968503937
20
0.9317956692913386
11
0.3608863385826772
21
0.9302324409448819
0
LINE
8
BLACK
6
CONTINUOUS
10
0.3608863385826772
20
0.9302324409448819
11
0.368405
21
0.9302324409448819
0
LINE
8
BLACK
6
CONTINUOUS
10
0.368405
20
0.9302324409448819
11
0.3757593700787402
21
0.9317956692913386
0
LINE
8
BLACK
6
CONTINUOUS
10
0.3757593700787402
20
0.9317956692913386
11
0.382628031496063
21
0.934853779527559
0
LINE
8
BLACK
6
CONTINUOUS
10
0.382628031496063
20
0.934853779527559
11
0.3827916535433071
21
0.934972716535433
0
LINE
8
BLACK
6
CONTINUOUS
10
0.3827916535433071
20
0.934972716535433
11
0.3844670078740157
21
0.9361898425196851
0
LINE
8
BLACK
6
CONTINUOUS
10
0.3844670078740157
20
0.9361898425196851
11
0.3870577952755905
21
0.937114251968504
0
LINE
8
BLACK
6
CONTINUOUS
10
0.3870577952755905
20
0.937114251968504
11
0.3873364960629921
21
0.9371222047244094
0
LINE
8
BLACK
6
CONTINUOUS
10
0.3873364960629921
20
0.9371222047244094
11
0.4700161417322835
21
0.9371222047244094
0
LINE
8
BLACK
6
CONTINUOUS
10
0.4700161417322835
20
0.9371222047244094
11
0.4726554724409449
21
0.9363472047244095
0
LINE
8
BLACK
6
CONTINUOUS
10
0.4726554724409449
20
0.9363472047244095
11
0.4734681496062992
21
0.9356923228346457
0
LINE
8
BLACK
6
CONTINUOUS
10
0.4734681496062992
20
0.9356923228346457
11
0.4985504724409449
21
0.91061
0
LINE
8
BLACK
6
CONTINUOUS
10
0.4985504724409449
20
0.91061
11
0.499868779527559
21
0.9081957086614173
0
LINE
8
BLACK
6
CONTINUOUS
10
0.499868779527559
20
0.9081957086614173
11
0.4999803543307086
21
0.9071579921259842
0
LINE
8
BLACK
6
CONTINUOUS
10
0.4999803543307086
20
0.9071579921259842
11
0.4999803543307086
21
0.8680844881889763
0
LINE
8
BLACK
6
CONTINUOUS
10
0.4999803543307086
20
0.8680844881889763
11
0.5002366929133858
21
0.8657007086614174
0
LINE
8
BLACK
6
CONTINUOUS
10
0.5002366929133858
20
0.8657007086614174
11
0.5002366929133858
21
0.8657006299212598
0
LINE
8
BLACK
6
CONTINUOUS
10
0.5002366929133858
20
0.8657006299212598
11
0.5009094881889764
21
0.8638968897637795
0
LINE
8
BLACK
6
CONTINUOUS
10
0.5009094881889764
20
0.8638968897637795
11
0.5022485039370078
21
0.8603069291338582
0
LINE
8
BLACK
6
CONTINUOUS
10
0.5022485039370078
20
0.8603069291338582
11
0.5056984251968504
21
0.8556983858267716
0
LINE
8
BLACK
6
CONTINUOUS
10
0.5056984251968504
20
0.8556983858267716
11
0.5083691338582677
21
0.8536991338582677
0
LINE
8
BLACK
6
CONTINUOUS
10
0.5083691338582677
20
0.8536991338582677
11
0.5100175590551181
21
0.8514970472440945
0
LINE
8
BLACK
6
CONTINUOUS
10
0.5100175590551181
20
0.8514970472440945
11
0.5102137795275591
21
0.8487533070866141
0
LINE
8
BLACK
6
CONTINUOUS
10
0.5102137795275591
20
0.8487533070866141
11
0.5088954724409449
21
0.8463390157480315
0
LINE
8
BLACK
6
CONTINUOUS
10
0.5088954724409449
20
0.8463390157480315
11
0.5083691338582677
21
0.8458829133858268
0
LINE
8
BLACK
6
CONTINUOUS
10
0.5083691338582677
20
0.8458829133858268
11
0.5059374015748032
21
0.8440625196850393
0
LINE
8
BLACK
6
CONTINUOUS
10
0.5059374015748032
20
0.8440625196850393
11
0.5025452755905512
21
0.8395312598425196
0
LINE
8
BLACK
6
CONTINUOUS
10
0.5025452755905512
20
0.8395312598425196
11
0.5025451181102362
21
0.8395309842519685
0
LINE
8
BLACK
6
CONTINUOUS
10
0.5025451181102362
20
0.8395309842519685
11
0.5005670866141733
21
0.8342275590551181
0
LINE
8
BLACK
6
CONTINUOUS
10
0.5005670866141733
20
0.8342275590551181
11
0.5005670078740158
21
0.8342272834645669
0
LINE
8
BLACK
6
CONTINUOUS
10
0.5005670078740158
20
0.8342272834645669
11
0.500315
21
0.8318836614173228
0
LINE
8
BLACK
6
CONTINUOUS
10
0.500315
20
0.8318836614173228
11
0.500315
21
0.8098425196850394
0
LINE
8
BLACK
6
CONTINUOUS
10
0.500315
20
0.8098425196850394
11
0.5200000393700788
21
0.8098425196850394
0
LINE
8
BLACK
6
CONTINUOUS
10
0.5200000393700788
20
0.8098425196850394
11
0.5200000393700788
21
0.83
0
LINE
8
BLACK
6
CONTINUOUS
10
0.5200000393700788
20
0.83
11
0.5800000393700787
21
0.83
0
LINE
8
BLACK
6
CONTINUOUS
10
0.5800000393700787
20
0.83
11
0.5800000393700787
21
0.8098425196850394
0
LINE
8
BLACK
6
CONTINUOUS
10
0.5800000393700787
20
0.8098425196850394
11
0.6200000393700787
21
0.8098425196850394
0
LINE
8
BLACK
6
CONTINUOUS
10
0.6200000393700787
20
0.8098425196850394
11
0.6200000393700787
21
0.83
0
LINE
8
BLACK
6
CONTINUOUS
10
0.6200000393700787
20
0.83
11
0.6800000393700787
21
0.83
0
LINE
8
BLACK
6
CONTINUOUS
10
0.6800000393700787
20
0.83
11
0.6800000393700787
21
0.8098425196850394
0
LINE
8
BLACK
6
CONTINUOUS
10
0.6800000393700787
20
0.8098425196850394
11
0.6996850787401575
21
0.8098425196850394
0
LINE
8
BLACK
6
CONTINUOUS
10
0.6996850787401575
20
0.8098425196850394
11
0.6996850787401575
21
0.8318829921259843
0
LINE
8
BLACK
6
CONTINUOUS
10
0.6996850787401575
20
0.8318829921259843
11
0.6996850393700788
21
0.8318836614173228
0
LINE
8
BLACK
6
CONTINUOUS
10
0.6996850393700788
20
0.8318836614173228
11
0.699433031496063
21
0.8342272834645669
0
LINE
8
BLACK
6
CONTINUOUS
10
0.699433031496063
20
0.8342272834645669
11
0.6994329527559054
21
0.8342275590551181
0
LINE
8
BLACK
6
CONTINUOUS
10
0.6994329527559054
20
0.8342275590551181
11
0.6974549212598425
21
0.8395309842519685
0
LINE
8
BLACK
6
CONTINUOUS
10
0.6974549212598425
20
0.8395309842519685
11
0.6974547637795275
21
0.8395312598425196
0
LINE
8
BLACK
6
CONTINUOUS
10
0.6974547637795275
20
0.8395312598425196
11
0.6940626377952755
21
0.8440624803149606
0
LINE
8
BLACK
6
CONTINUOUS
10
0.6940626377952755
20
0.8440624803149606
11
0.6916309448818897
21
0.845882874015748
0
LINE
8
BLACK
6
CONTINUOUS
10
0.6916309448818897
20
0.845882874015748
11
0.6899824803149606
21
0.848085
0
LINE
8
BLACK
6
CONTINUOUS
10
0.6899824803149606
20
0.848085
11
0.6897862598425196
21
0.8508287795275591
0
LINE
8
BLACK
6
CONTINUOUS
10
0.6897862598425196
20
0.8508287795275591
11
0.6911045669291338
21
0.8532430708661417
0
LINE
8
BLACK
6
CONTINUOUS
10
0.6911045669291338
20
0.8532430708661417
11
0.6916303543307086
21
0.8536987007874015
0
LINE
8
BLACK
6
CONTINUOUS
10
0.6916303543307086
20
0.8536987007874015
11
0.6943016535433071
21
0.8556983858267716
0
LINE
8
BLACK
6
CONTINUOUS
10
0.6943016535433071
20
0.8556983858267716
11
0.6968973228346457
21
0.8591658267716535
0
LINE
8
BLACK
6
CONTINUOUS
10
0.6968973228346457
20
0.8591658267716535
11
0.6990994488188976
21
0.8608142519685039
0
LINE
8
BLACK
6
CONTINUOUS
10
0.6990994488188976
20
0.8608142519685039
11
0.7008054724409448
21
0.8611220472440945
0
LINE
8
BLACK
6
CONTINUOUS
10
0.7008054724409448
20
0.8611220472440945
11
0.8218135826771653
21
0.8611220472440945
0
LINE
8
BLACK
6
CONTINUOUS
10
0.8218135826771653
20
0.8611220472440945
11
0.8244529133858267
21
0.8603470472440945
0
LINE
8
BLACK
6
CONTINUOUS
10
0.8244529133858267
20
0.8603470472440945
11
0.8246831102362204
21
0.8601896850393701
0
LINE
8
BLACK
6
CONTINUOUS
10
0.8246831102362204
20
0.8601896850393701
11
0.8256633464566929
21
0.8594774803149606
0
LINE
8
BLACK
6
CONTINUOUS
10
0.8256633464566929
20
0.8594774803149606
11
0.8283
21
0.8583036220472441
0
LINE
8
BLACK
6
CONTINUOUS
10
0.8283
20
0.8583036220472441
11
0.832531968503937
21
0.8564194094488189
0
LINE
8
BLACK
6
CONTINUOUS
10
0.832531968503937
20
0.8564194094488189
11
0.8398863385826771
21
0.8548561811023622
0
LINE
8
BLACK
6
CONTINUOUS
10
0.8398863385826771
20
0.8548561811023622
11
0.847405
21
0.8548561811023622
0
LINE
8
BLACK
6
CONTINUOUS
10
0.847405
20
0.8548561811023622
11
0.8547593700787401
21
0.8564194094488189
0
LINE
8
BLACK
6
CONTINUOUS
10
0.8547593700787401
20
0.8564194094488189
11
0.8616280314960629
21
0.8594775196850394
0
LINE
8
BLACK
6
CONTINUOUS
10
0.8616280314960629
20
0.8594775196850394
11
0.8677107480314961
21
0.8638968897637795
0
LINE
8
BLACK
6
CONTINUOUS
10
0.8677107480314961
20
0.8638968897637795
11
0.8727417322834645
21
0.8694843700787401
0
LINE
8
BLACK
6
CONTINUOUS
10
0.8727417322834645
20
0.8694843700787401
11
0.8765010629921259
21
0.8759957086614173
0
LINE
8
BLACK
6
CONTINUOUS
10
0.8765010629921259
20
0.8759957086614173
11
0.8788244881889764
21
0.8831464173228346
0
LINE
8
BLACK
6
CONTINUOUS
10
0.8788244881889764
20
0.8831464173228346
11
0.8796103937007874
21
0.8906238976377953
0
LINE
8
BLACK
6
CONTINUOUS
10
0.8796103937007874
20
0.8906238976377953
11
0.8788244881889764
21
0.8981013779527559
0
LINE
8
BLACK
6
CONTINUOUS
10
0.8788244881889764
20
0.8981013779527559
11
0.8765010629921259
21
0.9052520866141732
0
LINE
8
BLACK
6
CONTINUOUS
10
0.8765010629921259
20
0.9052520866141732
11
0.8727417322834645
21
0.9117634251968504
0
LINE
8
BLACK
6
CONTINUOUS
10
0.8727417322834645
20
0.9117634251968504
11
0.8677107480314961
21
0.917350905511811
0
LINE
8
BLACK
6
CONTINUOUS
10
0.8677107480314961
20
0.917350905511811
11
0.8616280314960629
21
0.9217702755905511
0
LINE
8
BLACK
6
CONTINUOUS
10
0.8616280314960629
20
0.9217702755905511
11
0.8547593700787401
21
0.9248283858267716
0
LINE
8
BLACK
6
CONTINUOUS
10
0.8547593700787401
20
0.9248283858267716
11
0.8547592913385826
21
0.9248284251968504
0
LINE
8
BLACK
6
CONTINUOUS
10
0.8547592913385826
20
0.9248284251968504
11
0.847405
21
0.9263916141732284
0
LINE
8
BLACK
6
CONTINUOUS
10
0.847405
20
0.9263916141732284
11
0.8398863385826771
21
0.9263916141732284
0
LINE
8
BLACK
6
CONTINUOUS
10
0.8398863385826771
20
0.9263916141732284
11
0.839565905511811
21
0.9263235433070865
0
LINE
8
BLACK
6
CONTINUOUS
10
0.839565905511811
20
0.9263235433070865
11
0.8390462992125984
21
0.9262130708661417
0
LINE
8
BLACK
6
CONTINUOUS
10
0.8390462992125984
20
0.9262130708661417
11
0.8363035039370078
21
0.9264224409448819
0
LINE
8
BLACK
6
CONTINUOUS
10
0.8363035039370078
20
0.9264224409448819
11
0.8341093307086614
21
0.9280814173228347
0
LINE
8
BLACK
6
CONTINUOUS
10
0.8341093307086614
20
0.9280814173228347
11
0.8331603543307087
21
0.9306633464566929
0
LINE
8
BLACK
6
CONTINUOUS
10
0.8331603543307087
20
0.9306633464566929
11
0.8331762598425196
21
0.9314986220472441
0
LINE
8
BLACK
6
CONTINUOUS
10
0.8331762598425196
20
0.9314986220472441
11
0.8331787401574803
21
0.9315223228346456
0
LINE
8
BLACK
6
CONTINUOUS
10
0.8331787401574803
20
0.9315223228346456
11
0.8331788188976378
21
0.9315225196850393
0
LINE
8
BLACK
6
CONTINUOUS
10
0.8331788188976378
20
0.9315225196850393
11
0.8339647244094488
21
0.9389999999999999
0
LINE
8
BLACK
6
CONTINUOUS
10
0.8339647244094488
20
0.9389999999999999
11
0.8331788188976378
21
0.9464774803149606
0
LINE
8
BLACK
6
CONTINUOUS
10
0.8331788188976378
20
0.9464774803149606
11
0.8308553937007874
21
0.9536281889763779
0
LINE
8
BLACK
6
CONTINUOUS
10
0.8308553937007874
20
0.9536281889763779
11
0.8294172440944881
21
0.956119094488189
0
LINE
8
BLACK
6
CONTINUOUS
10
0.8294172440944881
20
0.956119094488189
11
0.8275320078740157
21
0.9593844881889764
0
LINE
8
BLACK
6
CONTINUOUS
10
0.8275320078740157
20
0.9593844881889764
11
0.8268779527559055
21
0.9618254330708661
0
LINE
8
BLACK
6
CONTINUOUS
10
0.8268779527559055
20
0.9618254330708661
11
0.8268779527559055
21
1.0148447244094487
0
LINE
8
BLACK
6
CONTINUOUS
10
0.8268779527559055
20
1.0148447244094487
11
0.8268779133858267
21
1.0148448818897637
0
LINE
8
BLACK
6
CONTINUOUS
10
0.8268779133858267
20
1.0148448818897637
11
0.8257682283464567
21
1.0204235826771653
0
LINE
8
BLACK
6
CONTINUOUS
10
0.8257682283464567
20
1.0204235826771653
11
0.8257681889763779
21
1.0204238582677165
0
LINE
8
BLACK
6
CONTINUOUS
10
0.8257681889763779
20
1.0204238582677165
11
0.8235912992125984
21
1.0256792913385826
0
LINE
8
BLACK
6
CONTINUOUS
10
0.8235912992125984
20
1.0256792913385826
11
0.8235912598425197
21
1.0256793700787401
0
LINE
8
BLACK
6
CONTINUOUS
10
0.8235912598425197
20
1.0256793700787401
11
0.8235912598425197
21
1.0256794094488189
0
LINE
8
BLACK
6
CONTINUOUS
10
0.8235912598425197
20
1.0256794094488189
11
0.8204310236220472
21
1.0304090551181102
0
LINE
8
BLACK
6
CONTINUOUS
10
0.8204310236220472
20
1.0304090551181102
11
0.8204309842519685
21
1.030409094488189
0
LINE
8
BLACK
6
CONTINUOUS
10
0.8204309842519685
20
1.030409094488189
11
0.8187420866141732
21
1.0320979921259843
0
LINE
8
BLACK
6
CONTINUOUS
10
0.8187420866141732
20
1.0320979921259843
11
0.8164086220472441
21
1.0344314566929134
0
LINE
8
BLACK
6
CONTINUOUS
10
0.8164086220472441
20
1.0344314566929134
11
0.8164085826771653
21
1.0344314960629921
0
LINE
8
BLACK
6
CONTINUOUS
10
0.8164085826771653
20
1.0344314960629921
11
0.7603076771653543
21
1.090532401574803
0
LINE
8
BLACK
6
CONTINUOUS
10
0.7603076771653543
20
1.090532401574803
11
0.7589893700787401
21
1.0929466929133858
0
LINE
8
BLACK
6
CONTINUOUS
10
0.7589893700787401
20
1.0929466929133858
11
0.7588777952755905
21
1.0939844094488189
0
LINE
8
BLACK
6
CONTINUOUS
10
0.7588777952755905
20
1.0939844094488189
11
0.7588777952755905
21
1.2271744488188976
0
LINE
8
BLACK
6
CONTINUOUS
10
0.7588777952755905
20
1.2271744488188976
11
0.7595318503937007
21
1.2296153937007874
0
LINE
8
BLACK
6
CONTINUOUS
10
0.7595318503937007
20
1.2296153937007874
11
0.7628552362204725
21
1.235371653543307
0
LINE
8
BLACK
6
CONTINUOUS
10
0.7628552362204725
20
1.235371653543307
11
0.7651786614173228
21
1.2425223622047243
0
LINE
8
BLACK
6
CONTINUOUS
10
0.7651786614173228
20
1.2425223622047243
11
0.7659645669291338
21
1.249999842519685
0
LINE
8
BLACK
6
CONTINUOUS
10
0.7659645669291338
20
1.249999842519685
11
0.7651786614173228
21
1.2574773228346456
0
LINE
8
BLACK
6
CONTINUOUS
10
0.7651786614173228
20
1.2574773228346456
11
0.7628552362204725
21
1.264628031496063
0
LINE
8
BLACK
6
CONTINUOUS
10
0.7628552362204725
20
1.264628031496063
11
0.7590959055118111
21
1.2711393700787401
0
LINE
8
BLACK
6
CONTINUOUS
10
0.7590959055118111
20
1.2711393700787401
11
0.7540649212598425
21
1.2767268503937008
0
LINE
8
BLACK
6
CONTINUOUS
10
0.7540649212598425
20
1.2767268503937008
11
0.7479822047244095
21
1.2811462204724409
0
LINE
8
BLACK
6
CONTINUOUS
10
0.7479822047244095
20
1.2811462204724409
11
0.7411135433070866
21
1.2842043307086615
0
LINE
8
BLACK
6
CONTINUOUS
10
0.7411135433070866
20
1.2842043307086615
11
0.7411134645669292
21
1.2842043700787402
0
LINE
8
BLACK
6
CONTINUOUS
10
0.7411134645669292
20
1.2842043700787402
11
0.7337591732283465
21
1.2857675590551181
0
LINE
8
BLACK
6
CONTINUOUS
10
0.7337591732283465
20
1.2857675590551181
11
0.7262405118110236
21
1.2857675590551181
0
LINE
8
BLACK
6
CONTINUOUS
10
0.7262405118110236
20
1.2857675590551181
11
0.7188862204724409
21
1.2842043700787402
0
LINE
8
BLACK
6
CONTINUOUS
10
0.7188862204724409
20
1.2842043700787402
11
0.7120174015748031
21
1.2811461811023621
0
LINE
8
BLACK
6
CONTINUOUS
10
0.7120174015748031
20
1.2811461811023621
11
0.7059346850393701
21
1.2767268110236221
0
LINE
8
BLACK
6
CONTINUOUS
10
0.7059346850393701
20
1.2767268110236221
11
0.7009037401574802
21
1.2711393307086614
0
LINE
8
BLACK
6
CONTINUOUS
10
0.7009037401574802
20
1.2711393307086614
11
0.6971444488188976
21
1.2646280708661417
0
LINE
8
BLACK
6
CONTINUOUS
10
0.6971444488188976
20
1.2646280708661417
11
0.6971443307086614
21
1.2646277952755904
0
LINE
8
BLACK
6
CONTINUOUS
10
0.6971443307086614
20
1.2646277952755904
11
0.694821062992126
21
1.2574774803149606
0
LINE
8
BLACK
6
CONTINUOUS
10
0.694821062992126
20
1.2574774803149606
11
0.6948210236220472
21
1.2574773228346456
0
LINE
8
BLACK
6
CONTINUOUS
10
0.6948210236220472
20
1.2574773228346456
11
0.6942663385826772
21
1.25219968503937
0
LINE
8
BLACK
6
CONTINUOUS
10
0.6942663385826772
20
1.25219968503937
11
0.69321968503937
21
1.2496558267716535
0
LINE
8
BLACK
6
CONTINUOUS
10
0.69321968503937
20
1.2496558267716535
11
0.6909638976377953
21
1.2480816141732283
0
LINE
8
BLACK
6
CONTINUOUS
10
0.6909638976377953
20
1.2480816141732283
11
0.6882151181102362
21
1.2479768897637795
0
LINE
8
BLACK
6
CONTINUOUS
10
0.6882151181102362
20
1.2479768897637795
11
0.6877051574803149
21
1.2481359055118111
0
LINE
8
BLACK
6
CONTINUOUS
10
0.6877051574803149
20
1.2481359055118111
11
0.6842275984251969
21
1.2494329527559054
0
LINE
8
BLACK
6
CONTINUOUS
10
0.6842275984251969
20
1.2494329527559054
11
0.684227283464567
21
1.2494330314960629
0
LINE
8
BLACK
6
CONTINUOUS
10
0.684227283464567
20
1.2494330314960629
11
0.6818836614173228
21
1.2496850393700787
0
LINE
8
BLACK
6
CONTINUOUS
10
0.6818836614173228
20
1.2496850393700787
11
0.6598425590551181
21
1.2496850393700787
0
LINE
8
BLACK
6
CONTINUOUS
10
0.6598425590551181
20
1.2496850393700787
11
0.6598425590551181
21
1.23
0
LINE
8
BLACK
6
CONTINUOUS
10
0.6598425590551181
20
1.23
11
0.6800000393700787
21
1.23
0
LINE
8
BLACK
6
CONTINUOUS
10
0.6800000393700787
20
1.23
11
0.6800000393700787
21
1.1699999999999999
0
LINE
8
BLACK
6
CONTINUOUS
10
0.6800000393700787
20
1.1699999999999999
11
0.6200000393700787
21
1.1699999999999999
0
LINE
8
BLACK
6
CONTINUOUS
10
0.6200000393700787
20
1.1699999999999999
11
0.6200000393700787
21
1.1901574803149606
0
LINE
8
BLACK
6
CONTINUOUS
10
0.6200000393700787
20
1.1901574803149606
11
0.5800000393700787
21
1.1901574803149606
0
LINE
8
BLACK
6
CONTINUOUS
10
0.5800000393700787
20
1.1901574803149606
11
0.5800000393700787
21
1.1699999999999999
0
LINE
8
BLACK
6
CONTINUOUS
10
0.5800000393700787
20
1.1699999999999999
11
0.5200000393700788
21
1.1699999999999999
0
LINE
8
BLACK
6
CONTINUOUS
10
0.5200000393700788
20
1.1699999999999999
11
0.5200000393700788
21
1.1901574803149606
0
LINE
8
BLACK
6
CONTINUOUS
10
0.5200000393700788
20
1.1901574803149606
11
0.500315
21
1.1901574803149606
0
LINE
8
BLACK
6
CONTINUOUS
10
0.500315
20
1.1901574803149606
11
0.500315
21
1.1681163779527559
0
LINE
8
BLACK
6
CONTINUOUS
10
0.500315
20
1.1681163779527559
11
0.5005670078740158
21
1.1657727559055118
0
LINE
8
BLACK
6
CONTINUOUS
10
0.5005670078740158
20
1.1657727559055118
11
0.5005670866141733
21
1.1657724803149605
0
LINE
8
BLACK
6
CONTINUOUS
10
0.5005670866141733
20
1.1657724803149605
11
0.5025451181102362
21
1.1604690551181103
0
LINE
8
BLACK
6
CONTINUOUS
10
0.5025451181102362
20
1.1604690551181103
11
0.5025452755905512
21
1.160468779527559
0
LINE
8
BLACK
6
CONTINUOUS
10
0.5025452755905512
20
1.160468779527559
11
0.5059374015748032
21
1.1559375590551182
0
LINE
8
BLACK
6
CONTINUOUS
10
0.5059374015748032
20
1.1559375590551182
11
0.508369094488189
21
1.1541171653543307
0
LINE
8
BLACK
6
CONTINUOUS
10
0.508369094488189
20
1.1541171653543307
11
0.5100175590551181
21
1.1519150393700788
0
LINE
8
BLACK
6
CONTINUOUS
10
0.5100175590551181
20
1.1519150393700788
11
0.5102137795275591
21
1.1491712598425197
0
LINE
8
BLACK
6
CONTINUOUS
10
0.5102137795275591
20
1.1491712598425197
11
0.5088954724409449
21
1.1467569685039369
0
LINE
8
BLACK
6
CONTINUOUS
10
0.5088954724409449
20
1.1467569685039369
11
0.508369094488189
21
1.146300905511811
0
LINE
8
BLACK
6
CONTINUOUS
10
0.508369094488189
20
1.146300905511811
11
0.5056985039370079
21
1.1443016929133858
0
LINE
8
BLACK
6
CONTINUOUS
10
0.5056985039370079
20
1.1443016929133858
11
0.5056984645669291
21
1.144301653543307
0
LINE
8
BLACK
6
CONTINUOUS
10
0.5056984645669291
20
1.144301653543307
11
0.5056984251968504
21
1.1443016141732283
0
LINE
8
BLACK
6
CONTINUOUS
10
0.5056984251968504
20
1.1443016141732283
11
0.5056983858267716
21
1.1443015354330708
0
LINE
8
BLACK
6
CONTINUOUS
10
0.5056983858267716
20
1.1443015354330708
11
0.5022485039370078
21
1.1396931102362204
0
LINE
8
BLACK
6
CONTINUOUS
10
0.5022485039370078
20
1.1396931102362204
11
0.5002366929133858
21
1.1342994094488188
0
LINE
8
BLACK
6
CONTINUOUS
10
0.5002366929133858
20
1.1342994094488188
11
0.5002366929133858
21
1.1342993307086613
0
LINE
8
BLACK
6
CONTINUOUS
10
0.5002366929133858
20
1.1342993307086613
11
0.4999803543307086
21
1.1319155511811023
0
LINE
8
BLACK
6
CONTINUOUS
10
0.4999803543307086
20
1.1319155511811023
11
0.4999803543307086
21
1.0680844881889764
0
LINE
8
BLACK
6
CONTINUOUS
10
0.4999803543307086
20
1.0680844881889764
11
0.5002366929133858
21
1.0657007086614172
0
LINE
8
BLACK
6
CONTINUOUS
10
0.5002366929133858
20
1.0657007086614172
11
0.5002366929133858
21
1.0657006299212599
0
LINE
8
BLACK
6
CONTINUOUS
10
0.5002366929133858
20
1.0657006299212599
11
0.5010336220472441
21
1.063564094488189
0
LINE
8
BLACK
6
CONTINUOUS
10
0.5010336220472441
20
1.063564094488189
11
0.5022485039370078
21
1.0603069291338583
0
LINE
8
BLACK
6
CONTINUOUS
10
0.5022485039370078
20
1.0603069291338583
11
0.5056984251968504
21
1.0556983858267717
0
LINE
8
BLACK
6
CONTINUOUS
10
0.5056984251968504
20
1.0556983858267717
11
0.5056984645669291
21
1.0556983858267717
0
LINE
8
BLACK
6
CONTINUOUS
10
0.5056984645669291
20
1.0556983858267717
11
0.5056985039370079
21
1.0556983070866142
0
LINE
8
BLACK
6
CONTINUOUS
10
0.5056985039370079
20
1.0556983070866142
11
0.5080898818897638
21
1.0539081102362204
0
LINE
8
BLACK
6
CONTINUOUS
10
0.5080898818897638
20
1.0539081102362204
11
0.5097383464566929
21
1.0517059842519685
0
LINE
8
BLACK
6
CONTINUOUS
10
0.5097383464566929
20
1.0517059842519685
11
0.5099345669291339
21
1.0489622440944881
0
LINE
8
BLACK
6
CONTINUOUS
10
0.5099345669291339
20
1.0489622440944881
11
0.5086162204724409
21
1.0465479527559054
0
LINE
8
BLACK
6
CONTINUOUS
10
0.5086162204724409
20
1.0465479527559054
11
0.5080898818897638
21
1.0460918897637794
0
LINE
8
BLACK
6
CONTINUOUS
10
0.5080898818897638
20
1.0460918897637794
11
0.5056984645669291
21
1.0443016929133857
0
LINE
8
BLACK
6
CONTINUOUS
10
0.5056984645669291
20
1.0443016929133857
11
0.5056984251968504
21
1.0443016535433072
0
LINE
8
BLACK
6
CONTINUOUS
10
0.5056984251968504
20
1.0443016535433072
11
0.5051529133858268
21
1.0435729527559054
0
LINE
8
BLACK
6
CONTINUOUS
10
0.5051529133858268
20
1.0435729527559054
11
0.5029507086614173
21
1.0419245669291339
0
LINE
8
BLACK
6
CONTINUOUS
10
0.5029507086614173
20
1.0419245669291339
11
0.5002069291338582
21
1.0417284645669291
0
LINE
8
BLACK
6
CONTINUOUS
10
0.5002069291338582
20
1.0417284645669291
11
0.497792874015748
21
1.0430467322834645
0
LINE
8
BLACK
6
CONTINUOUS
10
0.497792874015748
20
1.0430467322834645
11
0.4366146062992126
21
1.1042249606299213
0
LINE
8
BLACK
6
CONTINUOUS
10
0.4366146062992126
20
1.1042249606299213
11
0.4352962992125984
21
1.106639251968504
0
LINE
8
BLACK
6
CONTINUOUS
10
0.4352962992125984
20
1.106639251968504
11
0.4352114960629921
21
1.1071664960629921
0
LINE
8
BLACK
6
CONTINUOUS
10
0.4352114960629921
20
1.1071664960629921
11
0.4351788188976378
21
1.1074774803149605
0
LINE
8
BLACK
6
CONTINUOUS
10
0.4351788188976378
20
1.1074774803149605
11
0.4328553937007874
21
1.1146281889763778
0
LINE
8
BLACK
6
CONTINUOUS
10
0.4328553937007874
20
1.1146281889763778
11
0.429096062992126
21
1.121139527559055
0
LINE
8
BLACK
6
CONTINUOUS
10
0.429096062992126
20
1.121139527559055
11
0.4240650787401575
21
1.1267270078740157
0
LINE
8
BLACK
6
CONTINUOUS
10
0.4240650787401575
20
1.1267270078740157
11
0.4179823622047244
21
1.131146377952756
0
LINE
8
BLACK
6
CONTINUOUS
10
0.4179823622047244
20
1.131146377952756
11
0.4111137007874016
21
1.1342044881889763
0
LINE
8
BLACK
6
CONTINUOUS
10
0.4111137007874016
20
1.1342044881889763
11
0.4111136220472441
21
1.1342045275590551
0
LINE
8
BLACK
6
CONTINUOUS
10
0.4111136220472441
20
1.1342045275590551
11
0.4037593307086614
21
1.135767716535433
0
LINE
8
BLACK
6
CONTINUOUS
10
0.4037593307086614
20
1.135767716535433
11
0.3962406692913386
21
1.135767716535433
0
LINE
8
BLACK
6
CONTINUOUS
10
0.3962406692913386
20
1.135767716535433
11
0.3888863779527559
21
1.1342045275590551
0
LINE
8
BLACK
6
CONTINUOUS
10
0.3888863779527559
20
1.1342045275590551
11
0.3820175590551181
21
1.1311463385826772
0
LINE
8
BLACK
6
CONTINUOUS
10
0.3820175590551181
20
1.1311463385826772
11
0.375934842519685
21
1.1267269685039369
0
LINE
8
BLACK
6
CONTINUOUS
10
0.375934842519685
20
1.1267269685039369
11
0.3709038976377952
21
1.1211394881889765
0
LINE
8
BLACK
6
CONTINUOUS
10
0.3709038976377952
20
1.1211394881889765
11
0.3671446062992126
21
1.1146282283464566
0
LINE
8
BLACK
6
CONTINUOUS
10
0.3671446062992126
20
1.1146282283464566
11
0.3671444881889764
21
1.1146279527559055
0
LINE
8
BLACK
6
CONTINUOUS
10
0.3671444881889764
20
1.1146279527559055
11
0.3648212204724409
21
1.1074776377952755
0
LINE
8
BLACK
6
CONTINUOUS
10
0.3648212204724409
20
1.1074776377952755
11
0.3648211811023622
21
1.1074774803149605
0
LINE
8
BLACK
6
CONTINUOUS
10
0.3648211811023622
20
1.1074774803149605
11
0.3640352755905512
21
1.0999999999999999
0
LINE
8
BLACK
6
CONTINUOUS
10
0.3640352755905512
20
1.0999999999999999
11
0.3648211811023622
21
1.0925225196850394
0
LINE
8
BLACK
6
CONTINUOUS
10
0.3648211811023622
20
1.0925225196850394
11
0.3648212204724409
21
1.0925224015748032
0
LINE
8
BLACK
6
CONTINUOUS
10
0.3648212204724409
20
1.0925224015748032
11
0.3671444881889764
21
1.0853720866141732
0
LINE
8
BLACK
6
CONTINUOUS
10
0.3671444881889764
20
1.0853720866141732
11
0.3671446062992126
21
1.0853718110236221
0
LINE
8
BLACK
6
CONTINUOUS
10
0.3671446062992126
20
1.0853718110236221
11
0.370903937007874
21
1.078860472440945
0
LINE
8
BLACK
6
CONTINUOUS
10
0.370903937007874
20
1.078860472440945
11
0.3759349212598425
21
1.0732729921259843
0
LINE
8
BLACK
6
CONTINUOUS
10
0.3759349212598425
20
1.0732729921259843
11
0.3820176377952756
21
1.068853622047244
0
LINE
8
BLACK
6
CONTINUOUS
10
0.3820176377952756
20
1.068853622047244
11
0.3888862992125984
21
1.0657955118110236
0
LINE
8
BLACK
6
CONTINUOUS
10
0.3888862992125984
20
1.0657955118110236
11
0.3931592913385827
21
1.0648872834645668
0
LINE
8
BLACK
6
CONTINUOUS
10
0.3931592913385827
20
1.0648872834645668
11
0.395579842519685
21
1.0635805118110235
0
LINE
8
BLACK
6
CONTINUOUS
10
0.395579842519685
20
1.0635805118110235
11
0.3955963385826772
21
1.063564094488189
0
LINE
8
BLACK
6
CONTINUOUS
10
0.3955963385826772
20
1.063564094488189
11
0.4559483858267717
21
1.0032120078740157
0
LINE
8
BLACK
6
CONTINUOUS
10
0.4559483858267717
20
1.0032120078740157
11
0.4572666929133858
21
1.0007977165354331
0
LINE
8
BLACK
6
CONTINUOUS
10
0.4572666929133858
20
1.0007977165354331
11
0.4570704724409449
21
0.998053937007874
0
LINE
8
BLACK
6
CONTINUOUS
10
0.4570704724409449
20
0.998053937007874
11
0.455421968503937
21
0.9958518503937007
0
LINE
8
BLACK
6
CONTINUOUS
10
0.455421968503937
20
0.9958518503937007
11
0.4528446456692913
21
0.9948905511811024
0
LINE
8
BLACK
6
CONTINUOUS
10
0.4528446456692913
20
0.9948905511811024
11
0.4524963779527559
21
0.9948781102362204
0
LINE
8
BLACK
6
CONTINUOUS
10
0.4524963779527559
20
0.9948781102362204
11
0.3873364960629921
21
0.9948781102362204
0
LINE
8
BLACK
6
CONTINUOUS
10
0.3873364960629921
20
0.9948781102362204
11
0.3846971653543307
21
0.9956531102362205
0
LINE
8
BLACK
6
CONTINUOUS
10
0.3846971653543307
20
0.9956531102362205
11
0.3844670078740157
21
0.9958104724409449
0
LINE
8
BLACK
6
CONTINUOUS
10
0.3844670078740157
20
0.9958104724409449
11
0.382628188976378
21
0.9971464566929134
0
LINE
8
BLACK
6
CONTINUOUS
10
0.382628188976378
20
0.9971464566929134
11
0.382628031496063
21
0.9971465354330709
0
LINE
8
BLACK
6
CONTINUOUS
10
0.382628031496063
20
0.9971465354330709
11
0.3757593700787402
21
1.0002046456692912
0
LINE
8
BLACK
6
CONTINUOUS
10
0.3757593700787402
20
1.0002046456692912
11
0.3757592913385827
21
1.00020468503937
0
LINE
8
BLACK
6
CONTINUOUS
10
0.3757592913385827
20
1.00020468503937
11
0.368405
21
1.0017678740157481
0
LINE
8
BLACK
6
CONTINUOUS
10
0.368405
20
1.0017678740157481
11
0.3608863385826772
21
1.0017678740157481
0
LINE
8
BLACK
6
CONTINUOUS
10
0.3608863385826772
20
1.0017678740157481
11
0.3535320472440945
21
1.00020468503937
0
LINE
8
BLACK
6
CONTINUOUS
10
0.3535320472440945
20
1.00020468503937
11
0.3466632283464567
21
0.9971464960629921
0
LINE
8
BLACK
6
CONTINUOUS
10
0.3466632283464567
20
0.9971464960629921
11
0.3405805118110236
21
0.9927271259842519
0
LINE
8
BLACK
6
CONTINUOUS
10
0.3405805118110236
20
0.9927271259842519
11
0.3355495669291338
21
0.9871396456692914
0
LINE
8
BLACK
6
CONTINUOUS
10
0.3355495669291338
20
0.9871396456692914
11
0.3317902755905512
21
0.9806283858267716
0
LINE
8
BLACK
6
CONTINUOUS
10
0.3317902755905512
20
0.9806283858267716
11
0.3317901574803149
21
0.9806281102362204
0
LINE
8
BLACK
6
CONTINUOUS
10
0.3317901574803149
20
0.9806281102362204
11
0.3294668897637795
21
0.9734777952755905
0
LINE
8
BLACK
6
CONTINUOUS
10
0.3294668897637795
20
0.9734777952755905
11
0.3294668503937008
21
0.9734776377952755
0
LINE
8
BLACK
6
CONTINUOUS
10
0.3294668503937008
20
0.9734776377952755
11
0.3286809448818898
21
0.966000157480315
0
LINE
8
BLACK
6
CONTINUOUS
10
0.3286809448818898
20
0.966000157480315
11
0.3294668503937008
21
0.9585226771653543
0
LINE
8
BLACK
6
CONTINUOUS
10
0.5598425590551181
20
1.23
11
0.5800000393700787
21
1.23
0
LINE
8
BLACK
6
CONTINUOUS
10
0.5800000393700787
20
1.23
11
0.5800000393700787
21
1.2098425196850393
0
LINE
8
BLACK
6
CONTINUOUS
10
0.5800000393700787
20
1.2098425196850393
11
0.6200000393700787
21
1.2098425196850393
0
LINE
8
BLACK
6
CONTINUOUS
10
0.6200000393700787
20
1.2098425196850393
11
0.6200000393700787
21
1.23
0
LINE
8
BLACK
6
CONTINUOUS
10
0.6200000393700787
20
1.23
11
0.6401575196850393
21
1.23
0
LINE
8
BLACK
6
CONTINUOUS
10
0.6401575196850393
20
1.23
11
0.6401575196850393
21
1.2496850393700787
0
LINE
8
BLACK
6
CONTINUOUS
10
0.6401575196850393
20
1.2496850393700787
11
0.6181163779527559
21
1.2496850393700787
0
LINE
8
BLACK
6
CONTINUOUS
10
0.6181163779527559
20
1.2496850393700787
11
0.6157727559055118
21
1.2494330314960629
0
LINE
8
BLACK
6
CONTINUOUS
10
0.6157727559055118
20
1.2494330314960629
11
0.6157724803149606
21
1.2494329527559054
0
LINE
8
BLACK
6
CONTINUOUS
10
0.6157724803149606
20
1.2494329527559054
11
0.6104690551181102
21
1.2474549212598425
0
LINE
8
BLACK
6
CONTINUOUS
10
0.6104690551181102
20
1.2474549212598425
11
0.6104687795275591
21
1.2474547637795275
0
LINE
8
BLACK
6
CONTINUOUS
10
0.6104687795275591
20
1.2474547637795275
11
0.6059375196850394
21
1.2440626377952755
0
LINE
8
BLACK
6
CONTINUOUS
10
0.6059375196850394
20
1.2440626377952755
11
0.6039081496062992
21
1.2413517322834646
0
LINE
8
BLACK
6
CONTINUOUS
10
0.6039081496062992
20
1.2413517322834646
11
0.6017060236220473
21
1.2397033070866141
0
LINE
8
BLACK
6
CONTINUOUS
10
0.6017060236220473
20
1.2397033070866141
11
0.5989622834645669
21
1.2395070866141733
0
LINE
8
BLACK
6
CONTINUOUS
10
0.5989622834645669
20
1.2395070866141733
11
0.5965479921259842
21
1.2408254330708661
0
LINE
8
BLACK
6
CONTINUOUS
10
0.5965479921259842
20
1.2408254330708661
11
0.5960919291338582
21
1.2413517322834646
0
LINE
8
BLACK
6
CONTINUOUS
10
0.5960919291338582
20
1.2413517322834646
11
0.5940625196850393
21
1.2440626377952755
0
LINE
8
BLACK
6
CONTINUOUS
10
0.5940625196850393
20
1.2440626377952755
11
0.5895312598425196
21
1.2474547637795275
0
LINE
8
BLACK
6
CONTINUOUS
10
0.5895312598425196
20
1.2474547637795275
11
0.5895309842519685
21
1.2474549212598425
0
LINE
8
BLACK
6
CONTINUOUS
10
0.5895309842519685
20
1.2474549212598425
11
0.5842275590551181
21
1.2494329527559054
0
LINE
8
BLACK
6
CONTINUOUS
10
0.5842275590551181
20
1.2494329527559054
11
0.5842272834645669
21
1.2494330314960629
0
LINE
8
BLACK
6
CONTINUOUS
10
0.5842272834645669
20
1.2494330314960629
11
0.5818836614173228
21
1.2496850393700787
0
LINE
8
BLACK
6
CONTINUOUS
10
0.5818836614173228
20
1.2496850393700787
11
0.5598425590551181
21
1.2496850393700787
0
LINE
8
BLACK
6
CONTINUOUS
10
0.5598425590551181
20
1.2496850393700787
11
0.5598425590551181
21
1.23
0
LINE
8
BLACK
6
CONTINUOUS
10
0.5157727559055117
20
1.2494330314960629
11
0.5157724803149606
21
1.2494329527559054
0
LINE
8
BLACK
6
CONTINUOUS
10
0.5157724803149606
20
1.2494329527559054
11
0.5104690551181102
21
1.2474549212598425
0
LINE
8
BLACK
6
CONTINUOUS
10
0.5104690551181102
20
1.2474549212598425
11
0.5104687795275591
21
1.2474547637795275
0
LINE
8
BLACK
6
CONTINUOUS
10
0.5104687795275591
20
1.2474547637795275
11
0.5059375196850393
21
1.2440626377952755
0
LINE
8
BLACK
6
CONTINUOUS
10
0.5059375196850393
20
1.2440626377952755
11
0.5059374015748032
21
1.2440625196850394
0
LINE
8
BLACK
6
CONTINUOUS
10
0.5059374015748032
20
1.2440625196850394
11
0.5025452755905512
21
1.2395312598425197
0
LINE
8
BLACK
6
CONTINUOUS
10
0.5025452755905512
20
1.2395312598425197
11
0.5025451181102362
21
1.2395309842519684
0
LINE
8
BLACK
6
CONTINUOUS
10
0.5025451181102362
20
1.2395309842519684
11
0.5005670866141733
21
1.2342275590551182
0
LINE
8
BLACK
6
CONTINUOUS
10
0.5005670866141733
20
1.2342275590551182
11
0.5005670078740158
21
1.2342272834645669
0
LINE
8
BLACK
6
CONTINUOUS
10
0.5005670078740158
20
1.2342272834645669
11
0.500315
21
1.2318836614173228
0
LINE
8
BLACK
6
CONTINUOUS
10
0.500315
20
1.2318836614173228
11
0.500315
21
1.2098425196850393
0
LINE
8
BLACK
6
CONTINUOUS
10
0.500315
20
1.2098425196850393
11
0.5200000393700788
21
1.2098425196850393
0
LINE
8
BLACK
6
CONTINUOUS
10
0.5200000393700788
20
1.2098425196850393
11
0.5200000393700788
21
1.23
0
LINE
8
BLACK
6
CONTINUOUS
10
0.5200000393700788
20
1.23
11
0.5401575196850393
21
1.23
0
LINE
8
BLACK
6
CONTINUOUS
10
0.5401575196850393
20
1.23
11
0.5401575196850393
21
1.2496850393700787
0
LINE
8
BLACK
6
CONTINUOUS
10
0.5401575196850393
20
1.2496850393700787
11
0.5181163779527559
21
1.2496850393700787
0
LINE
8
BLACK
6
CONTINUOUS
10
0.5181163779527559
20
1.2496850393700787
11
0.5157727559055117
21
1.2494330314960629
0
LINE
8
BLACK
6
CONTINUOUS
10
0.6400915748031496
20
1.4780670078740157
11
0.6400915748031496
21
1.7438234251968503
0
LINE
8
BLACK
6
CONTINUOUS
10
0.6400915748031496
20
1.7438234251968503
11
0.5543016929133858
21
1.7438234251968503
0
LINE
8
BLACK
6
CONTINUOUS
10
0.5543016929133858
20
1.7438234251968503
11
0.5543016929133858
21
1.4780670078740157
0
LINE
8
BLACK
6
CONTINUOUS
10
0.5543016929133858
20
1.4780670078740157
11
0.6400915748031496
21
1.4780670078740157
0
CIRCLE
8
BLACK
10
0.8000000393700787
20
1.5999999999999999
40
0.0068897637795276
0
CIRCLE
8
BLACK
10
0.8000000393700787
20
0.4
40
0.0068897637795276
0
CIRCLE
8
BLACK
10
0.4000000393700787
20
0.4
40
0.0068897637795276
0
CIRCLE
8
BLACK
10
0.4000000393700787
20
1.5999999999999999
40
0.0068897637795276
0
CIRCLE
8
BLACK
10
0.5500000393700787
20
1.2
40
0.0068897637795276
0
CIRCLE
8
BLACK
10
0.6500000393700788
20
1.2
40
0.0068897637795276
0
CIRCLE
8
BLACK
10
0.5500000393700787
20
1.0999999999999999
40
0.0068897637795276
0
CIRCLE
8
BLACK
10
0.6500000393700788
20
1.0999999999999999
40
0.0068897637795276
0
CIRCLE
8
BLACK
10
0.5500000393700787
20
1.
40
0.0068897637795276
0
CIRCLE
8
BLACK
10
0.6500000393700788
20
1.
40
0.0068897637795276
0
CIRCLE
8
BLACK
10
0.5500000393700787
20
0.9
40
0.0068897637795276
0
CIRCLE
8
BLACK
10
0.6500000393700788
20
0.9
40
0.0068897637795276
0
CIRCLE
8
BLACK
10
0.5500000393700787
20
0.7999999999999999
40
0.0068897637795276
0
CIRCLE
8
BLACK
10
0.6500000393700788
20
0.7999999999999999
40
0.0068897637795276
0
CIRCLE
8
BLACK
10
0.7979999999999999
20
0.9389999999999999
40
0.0078740157480315
0
CIRCLE
8
BLACK
10
0.4
20
1.0999999999999999
40
0.0078740157480315
0
CIRCLE
8
BLACK
10
0.729999842519685
20
1.249999842519685
40
0.0078740157480315
0
CIRCLE
8
BLACK
10
0.405
20
0.89
40
0.0078740157480315
0
CIRCLE
8
BLACK
10
0.309
20
0.9269999999999999
40
0.0078740157480315
0
CIRCLE
8
BLACK
10
0.948
20
0.633
40
0.0078740157480315
0
CIRCLE
8
BLACK
10
0.800944842519685
20
1.0900000000000001
40
0.0078740157480315
0
CIRCLE
8
BLACK
10
0.248
20
0.9269999999999999
40
0.0078740157480315
0
CIRCLE
8
BLACK
10
0.249
20
1.075
40
0.0078740157480315
0
CIRCLE
8
BLACK
10
0.949
20
0.9269999999999999
40
0.0078740157480315
0
CIRCLE
8
BLACK
10
0.249
20
1.369
40
0.0078740157480315
0
CIRCLE
8
BLACK
10
0.95
20
1.369
40
0.0078740157480315
0
CIRCLE
8
BLACK
10
0.887
20
0.633
40
0.0078740157480315
0
CIRCLE
8
BLACK
10
0.25
20
0.633
40
0.0078740157480315
0
CIRCLE
8
BLACK
10
0.887
20
1.075
40
0.0078740157480315
0
CIRCLE
8
BLACK
10
0.889
20
1.369
40
0.0078740157480315
0
CIRCLE
8
BLACK
10
0.888
20
0.9269999999999999
40
0.0078740157480315
0
CIRCLE
8
BLACK
10
0.31
20
1.369
40
0.0078740157480315
0
CIRCLE
8
BLACK
10
0.311
20
0.633
40
0.0078740157480315
0
CIRCLE
8
BLACK
10
0.31
20
1.075
40
0.0078740157480315
0
CIRCLE
8
BLACK
10
0.948
20
1.075
40
0.0078740157480315
0
CIRCLE
8
BLACK
10
0.3646456692913386
20
0.966000157480315
40
0.0078740157480315
0
CIRCLE
8
BLACK
10
0.8436456692913386
20
0.8906238976377953
40
0.0078740157480315
  0
ENDSEC
  0
EOF
