  0
SECTION
  2
HEADER
  9
$ANGBASE
  50
0.0
  9
$ANGDIR
  70
1
  9
$MEASUREMENT
  70
0
  0
ENDSEC
  0
SECTION
  2
TABLES
  0
TABLE
  2
LTYPE
  70
4
  0
LTYPE
  5
40F
  2
CONTINUOUS
  70
0
  3
Solid line
  72
65
  73
0
  40
0.0
  0
LTYPE
  5
410
  2
DASHDOT
 70
0
  3
Dash Dot ____ _ ____ _
 72
65
 73
4
 40
2.0
 49
1.25
 49
-0.25
 49
0.25
 49
-0.25
  0
LTYPE
  5
411
  2
DASHED
 70
0
  3
Dashed __ __ __ __ __
 72
65
 73
2
 40
0.75
 49
0.5
 49
-0.25
  0
LTYPE
  5
43B
  2
DOTTED
 70
0
  3
Dotted .  .  .  .
 72
65
 73
2
 40
0.2
 49
0.0
 49
-0.2
  0
ENDTAB
  0
TABLE
  2
STYLE
  70
4
  0
STYLE
  2
KICAD
  70
0
  40
0
  41
1
  42
1
  50
0
  71
0
  3
isocp.shx
  0
STYLE
  2
KICADB
  70
0
  40
0
  41
1
  42
1
  50
0
  71
0
  3
isocp.shx
  0
STYLE
  2
KICADI
  70
0
  40
0
  41
1
  42
1
  50
15
  71
0
  3
isocp.shx
  0
STYLE
  2
KICADBI
  70
0
  40
0
  41
1
  42
1
  50
15
  71
0
  3
isocp.shx
  0
ENDTAB
  0
TABLE
  2
LAYER
  70
1
  0
LAYER
  2
BLACK
  70
0
  62
7
  6
CONTINUOUS
  0
ENDTAB
  0
ENDSEC
  0
SECTION
  2
ENTITIES
0
LINE
8
BLACK
6
CONTINUOUS
10
0.660223
20
0.172282
11
0.663416
21
0.170149
0
LINE
8
BLACK
6
CONTINUOUS
10
0.663416
20
0.170149
11
0.66555
21
0.166956
0
LINE
8
BLACK
6
CONTINUOUS
10
0.66555
20
0.166956
11
0.666299
21
0.163189
0
LINE
8
BLACK
6
CONTINUOUS
10
0.666299
20
0.163189
11
0.666299
21
0.143504
0
LINE
8
BLACK
6
CONTINUOUS
10
0.666299
20
0.143504
11
0.66555
21
0.139737
0
LINE
8
BLACK
6
CONTINUOUS
10
0.66555
20
0.139737
11
0.663416
21
0.136544
0
LINE
8
BLACK
6
CONTINUOUS
10
0.663416
20
0.136544
11
0.660223
21
0.134411
0
LINE
8
BLACK
6
CONTINUOUS
10
0.660223
20
0.134411
11
0.656457
21
0.133661
0
LINE
8
BLACK
6
CONTINUOUS
10
0.656457
20
0.133661
11
0.569843
21
0.133661
0
LINE
8
BLACK
6
CONTINUOUS
10
0.569843
20
0.133661
11
0.566076
21
0.134411
0
LINE
8
BLACK
6
CONTINUOUS
10
0.566076
20
0.134411
11
0.562883
21
0.136544
0
LINE
8
BLACK
6
CONTINUOUS
10
0.562883
20
0.136544
11
0.560749
21
0.139737
0
LINE
8
BLACK
6
CONTINUOUS
10
0.560749
20
0.139737
11
0.56
21
0.143504
0
LINE
8
BLACK
6
CONTINUOUS
10
0.56
20
0.143504
11
0.56
21
0.163189
0
LINE
8
BLACK
6
CONTINUOUS
10
0.56
20
0.163189
11
0.560749
21
0.166956
0
LINE
8
BLACK
6
CONTINUOUS
10
0.560749
20
0.166956
11
0.562883
21
0.170149
0
LINE
8
BLACK
6
CONTINUOUS
10
0.562883
20
0.170149
11
0.566076
21
0.172282
0
LINE
8
BLACK
6
CONTINUOUS
10
0.566076
20
0.172282
11
0.569843
21
0.173031
0
LINE
8
BLACK
6
CONTINUOUS
10
0.569843
20
0.173031
11
0.656457
21
0.173031
0
LINE
8
BLACK
6
CONTINUOUS
10
0.656457
20
0.173031
11
0.660223
21
0.172282
0
LINE
8
BLACK
6
CONTINUOUS
10
0.516984
20
0.237543
11
0.5189
21
0.236262
0
LINE
8
BLACK
6
CONTINUOUS
10
0.5189
20
0.236262
11
0.52018
21
0.234347
0
LINE
8
BLACK
6
CONTINUOUS
10
0.52018
20
0.234347
11
0.52063
21
0.232087
0
LINE
8
BLACK
6
CONTINUOUS
10
0.52063
20
0.232087
11
0.52063
21
0.220276
0
LINE
8
BLACK
6
CONTINUOUS
10
0.52063
20
0.220276
11
0.52018
21
0.218016
0
LINE
8
BLACK
6
CONTINUOUS
10
0.52018
20
0.218016
11
0.5189
21
0.2161
0
LINE
8
BLACK
6
CONTINUOUS
10
0.5189
20
0.2161
11
0.516984
21
0.21482
0
LINE
8
BLACK
6
CONTINUOUS
10
0.516984
20
0.21482
11
0.514724
21
0.21437
0
LINE
8
BLACK
6
CONTINUOUS
10
0.514724
20
0.21437
11
0.459606
21
0.21437
0
LINE
8
BLACK
6
CONTINUOUS
10
0.459606
20
0.21437
11
0.457346
21
0.21482
0
LINE
8
BLACK
6
CONTINUOUS
10
0.457346
20
0.21482
11
0.45543
21
0.2161
0
LINE
8
BLACK
6
CONTINUOUS
10
0.45543
20
0.2161
11
0.45415
21
0.218016
0
LINE
8
BLACK
6
CONTINUOUS
10
0.45415
20
0.218016
11
0.453701
21
0.220276
0
LINE
8
BLACK
6
CONTINUOUS
10
0.453701
20
0.220276
11
0.453701
21
0.232087
0
LINE
8
BLACK
6
CONTINUOUS
10
0.453701
20
0.232087
11
0.45415
21
0.234347
0
LINE
8
BLACK
6
CONTINUOUS
10
0.45415
20
0.234347
11
0.45543
21
0.236262
0
LINE
8
BLACK
6
CONTINUOUS
10
0.45543
20
0.236262
11
0.457346
21
0.237543
0
LINE
8
BLACK
6
CONTINUOUS
10
0.457346
20
0.237543
11
0.459606
21
0.237992
0
LINE
8
BLACK
6
CONTINUOUS
10
0.459606
20
0.237992
11
0.514724
21
0.237992
0
LINE
8
BLACK
6
CONTINUOUS
10
0.514724
20
0.237992
11
0.516984
21
0.237543
0
LINE
8
BLACK
6
CONTINUOUS
10
0.516984
20
0.286755
11
0.5189
21
0.285475
0
LINE
8
BLACK
6
CONTINUOUS
10
0.5189
20
0.285475
11
0.52018
21
0.283559
0
LINE
8
BLACK
6
CONTINUOUS
10
0.52018
20
0.283559
11
0.52063
21
0.281299
0
LINE
8
BLACK
6
CONTINUOUS
10
0.52063
20
0.281299
11
0.52063
21
0.269488
0
LINE
8
BLACK
6
CONTINUOUS
10
0.52063
20
0.269488
11
0.52018
21
0.267228
0
LINE
8
BLACK
6
CONTINUOUS
10
0.52018
20
0.267228
11
0.5189
21
0.265312
0
LINE
8
BLACK
6
CONTINUOUS
10
0.5189
20
0.265312
11
0.516984
21
0.264032
0
LINE
8
BLACK
6
CONTINUOUS
10
0.516984
20
0.264032
11
0.514724
21
0.263583
0
LINE
8
BLACK
6
CONTINUOUS
10
0.514724
20
0.263583
11
0.459606
21
0.263583
0
LINE
8
BLACK
6
CONTINUOUS
10
0.459606
20
0.263583
11
0.457346
21
0.264032
0
LINE
8
BLACK
6
CONTINUOUS
10
0.457346
20
0.264032
11
0.45543
21
0.265312
0
LINE
8
BLACK
6
CONTINUOUS
10
0.45543
20
0.265312
11
0.45415
21
0.267228
0
LINE
8
BLACK
6
CONTINUOUS
10
0.45415
20
0.267228
11
0.453701
21
0.269488
0
LINE
8
BLACK
6
CONTINUOUS
10
0.453701
20
0.269488
11
0.453701
21
0.281299
0
LINE
8
BLACK
6
CONTINUOUS
10
0.453701
20
0.281299
11
0.45415
21
0.283559
0
LINE
8
BLACK
6
CONTINUOUS
10
0.45415
20
0.283559
11
0.45543
21
0.285475
0
LINE
8
BLACK
6
CONTINUOUS
10
0.45543
20
0.285475
11
0.457346
21
0.286755
0
LINE
8
BLACK
6
CONTINUOUS
10
0.457346
20
0.286755
11
0.459606
21
0.287205
0
LINE
8
BLACK
6
CONTINUOUS
10
0.459606
20
0.287205
11
0.514724
21
0.287205
0
LINE
8
BLACK
6
CONTINUOUS
10
0.514724
20
0.287205
11
0.516984
21
0.286755
0
LINE
8
BLACK
6
CONTINUOUS
10
0.516984
20
0.335968
11
0.5189
21
0.334688
0
LINE
8
BLACK
6
CONTINUOUS
10
0.5189
20
0.334688
11
0.52018
21
0.332772
0
LINE
8
BLACK
6
CONTINUOUS
10
0.52018
20
0.332772
11
0.52063
21
0.330512
0
LINE
8
BLACK
6
CONTINUOUS
10
0.52063
20
0.330512
11
0.52063
21
0.318701
0
LINE
8
BLACK
6
CONTINUOUS
10
0.52063
20
0.318701
11
0.52018
21
0.316441
0
LINE
8
BLACK
6
CONTINUOUS
10
0.52018
20
0.316441
11
0.5189
21
0.314525
0
LINE
8
BLACK
6
CONTINUOUS
10
0.5189
20
0.314525
11
0.516984
21
0.313245
0
LINE
8
BLACK
6
CONTINUOUS
10
0.516984
20
0.313245
11
0.514724
21
0.312795
0
LINE
8
BLACK
6
CONTINUOUS
10
0.514724
20
0.312795
11
0.459606
21
0.312795
0
LINE
8
BLACK
6
CONTINUOUS
10
0.459606
20
0.312795
11
0.457346
21
0.313245
0
LINE
8
BLACK
6
CONTINUOUS
10
0.457346
20
0.313245
11
0.45543
21
0.314525
0
LINE
8
BLACK
6
CONTINUOUS
10
0.45543
20
0.314525
11
0.45415
21
0.316441
0
LINE
8
BLACK
6
CONTINUOUS
10
0.45415
20
0.316441
11
0.453701
21
0.318701
0
LINE
8
BLACK
6
CONTINUOUS
10
0.453701
20
0.318701
11
0.453701
21
0.330512
0
LINE
8
BLACK
6
CONTINUOUS
10
0.453701
20
0.330512
11
0.45415
21
0.332772
0
LINE
8
BLACK
6
CONTINUOUS
10
0.45415
20
0.332772
11
0.45543
21
0.334688
0
LINE
8
BLACK
6
CONTINUOUS
10
0.45543
20
0.334688
11
0.457346
21
0.335968
0
LINE
8
BLACK
6
CONTINUOUS
10
0.457346
20
0.335968
11
0.459606
21
0.336417
0
LINE
8
BLACK
6
CONTINUOUS
10
0.459606
20
0.336417
11
0.514724
21
0.336417
0
LINE
8
BLACK
6
CONTINUOUS
10
0.514724
20
0.336417
11
0.516984
21
0.335968
0
LINE
8
BLACK
6
CONTINUOUS
10
0.516984
20
0.38518
11
0.5189
21
0.3839
0
LINE
8
BLACK
6
CONTINUOUS
10
0.5189
20
0.3839
11
0.52018
21
0.381984
0
LINE
8
BLACK
6
CONTINUOUS
10
0.52018
20
0.381984
11
0.52063
21
0.379724
0
LINE
8
BLACK
6
CONTINUOUS
10
0.52063
20
0.379724
11
0.52063
21
0.367913
0
LINE
8
BLACK
6
CONTINUOUS
10
0.52063
20
0.367913
11
0.52018
21
0.365653
0
LINE
8
BLACK
6
CONTINUOUS
10
0.52018
20
0.365653
11
0.5189
21
0.363738
0
LINE
8
BLACK
6
CONTINUOUS
10
0.5189
20
0.363738
11
0.516984
21
0.362457
0
LINE
8
BLACK
6
CONTINUOUS
10
0.516984
20
0.362457
11
0.514724
21
0.362008
0
LINE
8
BLACK
6
CONTINUOUS
10
0.514724
20
0.362008
11
0.459606
21
0.362008
0
LINE
8
BLACK
6
CONTINUOUS
10
0.459606
20
0.362008
11
0.457346
21
0.362457
0
LINE
8
BLACK
6
CONTINUOUS
10
0.457346
20
0.362457
11
0.45543
21
0.363738
0
LINE
8
BLACK
6
CONTINUOUS
10
0.45543
20
0.363738
11
0.45415
21
0.365653
0
LINE
8
BLACK
6
CONTINUOUS
10
0.45415
20
0.365653
11
0.453701
21
0.367913
0
LINE
8
BLACK
6
CONTINUOUS
10
0.453701
20
0.367913
11
0.453701
21
0.379724
0
LINE
8
BLACK
6
CONTINUOUS
10
0.453701
20
0.379724
11
0.45415
21
0.381984
0
LINE
8
BLACK
6
CONTINUOUS
10
0.45415
20
0.381984
11
0.45543
21
0.3839
0
LINE
8
BLACK
6
CONTINUOUS
10
0.45543
20
0.3839
11
0.457346
21
0.38518
0
LINE
8
BLACK
6
CONTINUOUS
10
0.457346
20
0.38518
11
0.459606
21
0.38563
0
LINE
8
BLACK
6
CONTINUOUS
10
0.459606
20
0.38563
11
0.514724
21
0.38563
0
LINE
8
BLACK
6
CONTINUOUS
10
0.514724
20
0.38563
11
0.516984
21
0.38518
0
LINE
8
BLACK
6
CONTINUOUS
10
0.660223
20
0.465589
11
0.663416
21
0.463456
0
LINE
8
BLACK
6
CONTINUOUS
10
0.663416
20
0.463456
11
0.66555
21
0.460263
0
LINE
8
BLACK
6
CONTINUOUS
10
0.66555
20
0.460263
11
0.666299
21
0.456496
0
LINE
8
BLACK
6
CONTINUOUS
10
0.666299
20
0.456496
11
0.666299
21
0.436811
0
LINE
8
BLACK
6
CONTINUOUS
10
0.666299
20
0.436811
11
0.66555
21
0.433044
0
LINE
8
BLACK
6
CONTINUOUS
10
0.66555
20
0.433044
11
0.663416
21
0.429851
0
LINE
8
BLACK
6
CONTINUOUS
10
0.663416
20
0.429851
11
0.660223
21
0.427718
0
LINE
8
BLACK
6
CONTINUOUS
10
0.660223
20
0.427718
11
0.656457
21
0.426969
0
LINE
8
BLACK
6
CONTINUOUS
10
0.656457
20
0.426969
11
0.569843
21
0.426969
0
LINE
8
BLACK
6
CONTINUOUS
10
0.569843
20
0.426969
11
0.566076
21
0.427718
0
LINE
8
BLACK
6
CONTINUOUS
10
0.566076
20
0.427718
11
0.562883
21
0.429851
0
LINE
8
BLACK
6
CONTINUOUS
10
0.562883
20
0.429851
11
0.560749
21
0.433044
0
LINE
8
BLACK
6
CONTINUOUS
10
0.560749
20
0.433044
11
0.56
21
0.436811
0
LINE
8
BLACK
6
CONTINUOUS
10
0.56
20
0.436811
11
0.56
21
0.456496
0
LINE
8
BLACK
6
CONTINUOUS
10
0.56
20
0.456496
11
0.560749
21
0.460263
0
LINE
8
BLACK
6
CONTINUOUS
10
0.560749
20
0.460263
11
0.562883
21
0.463456
0
LINE
8
BLACK
6
CONTINUOUS
10
0.562883
20
0.463456
11
0.566076
21
0.465589
0
LINE
8
BLACK
6
CONTINUOUS
10
0.566076
20
0.465589
11
0.569843
21
0.466339
0
LINE
8
BLACK
6
CONTINUOUS
10
0.569843
20
0.466339
11
0.656457
21
0.466339
0
LINE
8
BLACK
6
CONTINUOUS
10
0.656457
20
0.466339
11
0.660223
21
0.465589
0
LINE
8
BLACK
6
CONTINUOUS
10
0.660223
20
0.612282
11
0.663416
21
0.610149
0
LINE
8
BLACK
6
CONTINUOUS
10
0.663416
20
0.610149
11
0.66555
21
0.606956
0
LINE
8
BLACK
6
CONTINUOUS
10
0.66555
20
0.606956
11
0.666299
21
0.603189
0
LINE
8
BLACK
6
CONTINUOUS
10
0.666299
20
0.603189
11
0.666299
21
0.583504
0
LINE
8
BLACK
6
CONTINUOUS
10
0.666299
20
0.583504
11
0.66555
21
0.579737
0
LINE
8
BLACK
6
CONTINUOUS
10
0.66555
20
0.579737
11
0.663416
21
0.576544
0
LINE
8
BLACK
6
CONTINUOUS
10
0.663416
20
0.576544
11
0.660223
21
0.574411
0
LINE
8
BLACK
6
CONTINUOUS
10
0.660223
20
0.574411
11
0.656457
21
0.573661
0
LINE
8
BLACK
6
CONTINUOUS
10
0.656457
20
0.573661
11
0.569843
21
0.573661
0
LINE
8
BLACK
6
CONTINUOUS
10
0.569843
20
0.573661
11
0.566076
21
0.574411
0
LINE
8
BLACK
6
CONTINUOUS
10
0.566076
20
0.574411
11
0.562883
21
0.576544
0
LINE
8
BLACK
6
CONTINUOUS
10
0.562883
20
0.576544
11
0.560749
21
0.579737
0
LINE
8
BLACK
6
CONTINUOUS
10
0.560749
20
0.579737
11
0.56
21
0.583504
0
LINE
8
BLACK
6
CONTINUOUS
10
0.56
20
0.583504
11
0.56
21
0.603189
0
LINE
8
BLACK
6
CONTINUOUS
10
0.56
20
0.603189
11
0.560749
21
0.606956
0
LINE
8
BLACK
6
CONTINUOUS
10
0.560749
20
0.606956
11
0.562883
21
0.610149
0
LINE
8
BLACK
6
CONTINUOUS
10
0.562883
20
0.610149
11
0.566076
21
0.612282
0
LINE
8
BLACK
6
CONTINUOUS
10
0.566076
20
0.612282
11
0.569843
21
0.613031
0
LINE
8
BLACK
6
CONTINUOUS
10
0.569843
20
0.613031
11
0.656457
21
0.613031
0
LINE
8
BLACK
6
CONTINUOUS
10
0.656457
20
0.613031
11
0.660223
21
0.612282
0
LINE
8
BLACK
6
CONTINUOUS
10
0.516984
20
0.677543
11
0.5189
21
0.676262
0
LINE
8
BLACK
6
CONTINUOUS
10
0.5189
20
0.676262
11
0.52018
21
0.674347
0
LINE
8
BLACK
6
CONTINUOUS
10
0.52018
20
0.674347
11
0.52063
21
0.672087
0
LINE
8
BLACK
6
CONTINUOUS
10
0.52063
20
0.672087
11
0.52063
21
0.660276
0
LINE
8
BLACK
6
CONTINUOUS
10
0.52063
20
0.660276
11
0.52018
21
0.658016
0
LINE
8
BLACK
6
CONTINUOUS
10
0.52018
20
0.658016
11
0.5189
21
0.6561
0
LINE
8
BLACK
6
CONTINUOUS
10
0.5189
20
0.6561
11
0.516984
21
0.65482
0
LINE
8
BLACK
6
CONTINUOUS
10
0.516984
20
0.65482
11
0.514724
21
0.65437
0
LINE
8
BLACK
6
CONTINUOUS
10
0.514724
20
0.65437
11
0.459606
21
0.65437
0
LINE
8
BLACK
6
CONTINUOUS
10
0.459606
20
0.65437
11
0.457346
21
0.65482
0
LINE
8
BLACK
6
CONTINUOUS
10
0.457346
20
0.65482
11
0.45543
21
0.6561
0
LINE
8
BLACK
6
CONTINUOUS
10
0.45543
20
0.6561
11
0.45415
21
0.658016
0
LINE
8
BLACK
6
CONTINUOUS
10
0.45415
20
0.658016
11
0.453701
21
0.660276
0
LINE
8
BLACK
6
CONTINUOUS
10
0.453701
20
0.660276
11
0.453701
21
0.672087
0
LINE
8
BLACK
6
CONTINUOUS
10
0.453701
20
0.672087
11
0.45415
21
0.674347
0
LINE
8
BLACK
6
CONTINUOUS
10
0.45415
20
0.674347
11
0.45543
21
0.676262
0
LINE
8
BLACK
6
CONTINUOUS
10
0.45543
20
0.676262
11
0.457346
21
0.677543
0
LINE
8
BLACK
6
CONTINUOUS
10
0.457346
20
0.677543
11
0.459606
21
0.677992
0
LINE
8
BLACK
6
CONTINUOUS
10
0.459606
20
0.677992
11
0.514724
21
0.677992
0
LINE
8
BLACK
6
CONTINUOUS
10
0.514724
20
0.677992
11
0.516984
21
0.677543
0
LINE
8
BLACK
6
CONTINUOUS
10
0.516984
20
0.726755
11
0.5189
21
0.725475
0
LINE
8
BLACK
6
CONTINUOUS
10
0.5189
20
0.725475
11
0.52018
21
0.723559
0
LINE
8
BLACK
6
CONTINUOUS
10
0.52018
20
0.723559
11
0.52063
21
0.721299
0
LINE
8
BLACK
6
CONTINUOUS
10
0.52063
20
0.721299
11
0.52063
21
0.709488
0
LINE
8
BLACK
6
CONTINUOUS
10
0.52063
20
0.709488
11
0.52018
21
0.707228
0
LINE
8
BLACK
6
CONTINUOUS
10
0.52018
20
0.707228
11
0.5189
21
0.705312
0
LINE
8
BLACK
6
CONTINUOUS
10
0.5189
20
0.705312
11
0.516984
21
0.704032
0
LINE
8
BLACK
6
CONTINUOUS
10
0.516984
20
0.704032
11
0.514724
21
0.703583
0
LINE
8
BLACK
6
CONTINUOUS
10
0.514724
20
0.703583
11
0.459606
21
0.703583
0
LINE
8
BLACK
6
CONTINUOUS
10
0.459606
20
0.703583
11
0.457346
21
0.704032
0
LINE
8
BLACK
6
CONTINUOUS
10
0.457346
20
0.704032
11
0.45543
21
0.705312
0
LINE
8
BLACK
6
CONTINUOUS
10
0.45543
20
0.705312
11
0.45415
21
0.707228
0
LINE
8
BLACK
6
CONTINUOUS
10
0.45415
20
0.707228
11
0.453701
21
0.709488
0
LINE
8
BLACK
6
CONTINUOUS
10
0.453701
20
0.709488
11
0.453701
21
0.721299
0
LINE
8
BLACK
6
CONTINUOUS
10
0.453701
20
0.721299
11
0.45415
21
0.723559
0
LINE
8
BLACK
6
CONTINUOUS
10
0.45415
20
0.723559
11
0.45543
21
0.725475
0
LINE
8
BLACK
6
CONTINUOUS
10
0.45543
20
0.725475
11
0.457346
21
0.726755
0
LINE
8
BLACK
6
CONTINUOUS
10
0.457346
20
0.726755
11
0.459606
21
0.727205
0
LINE
8
BLACK
6
CONTINUOUS
10
0.459606
20
0.727205
11
0.514724
21
0.727205
0
LINE
8
BLACK
6
CONTINUOUS
10
0.514724
20
0.727205
11
0.516984
21
0.726755
0
LINE
8
BLACK
6
CONTINUOUS
10
0.516984
20
0.775968
11
0.5189
21
0.774688
0
LINE
8
BLACK
6
CONTINUOUS
10
0.5189
20
0.774688
11
0.52018
21
0.772772
0
LINE
8
BLACK
6
CONTINUOUS
10
0.52018
20
0.772772
11
0.52063
21
0.770512
0
LINE
8
BLACK
6
CONTINUOUS
10
0.52063
20
0.770512
11
0.52063
21
0.758701
0
LINE
8
BLACK
6
CONTINUOUS
10
0.52063
20
0.758701
11
0.52018
21
0.756441
0
LINE
8
BLACK
6
CONTINUOUS
10
0.52018
20
0.756441
11
0.5189
21
0.754525
0
LINE
8
BLACK
6
CONTINUOUS
10
0.5189
20
0.754525
11
0.516984
21
0.753245
0
LINE
8
BLACK
6
CONTINUOUS
10
0.516984
20
0.753245
11
0.514724
21
0.752795
0
LINE
8
BLACK
6
CONTINUOUS
10
0.514724
20
0.752795
11
0.459606
21
0.752795
0
LINE
8
BLACK
6
CONTINUOUS
10
0.459606
20
0.752795
11
0.457346
21
0.753245
0
LINE
8
BLACK
6
CONTINUOUS
10
0.457346
20
0.753245
11
0.45543
21
0.754525
0
LINE
8
BLACK
6
CONTINUOUS
10
0.45543
20
0.754525
11
0.45415
21
0.756441
0
LINE
8
BLACK
6
CONTINUOUS
10
0.45415
20
0.756441
11
0.453701
21
0.758701
0
LINE
8
BLACK
6
CONTINUOUS
10
0.453701
20
0.758701
11
0.453701
21
0.770512
0
LINE
8
BLACK
6
CONTINUOUS
10
0.453701
20
0.770512
11
0.45415
21
0.772772
0
LINE
8
BLACK
6
CONTINUOUS
10
0.45415
20
0.772772
11
0.45543
21
0.774688
0
LINE
8
BLACK
6
CONTINUOUS
10
0.45543
20
0.774688
11
0.457346
21
0.775968
0
LINE
8
BLACK
6
CONTINUOUS
10
0.457346
20
0.775968
11
0.459606
21
0.776417
0
LINE
8
BLACK
6
CONTINUOUS
10
0.459606
20
0.776417
11
0.514724
21
0.776417
0
LINE
8
BLACK
6
CONTINUOUS
10
0.514724
20
0.776417
11
0.516984
21
0.775968
0
LINE
8
BLACK
6
CONTINUOUS
10
0.516984
20
0.82518
11
0.5189
21
0.8239
0
LINE
8
BLACK
6
CONTINUOUS
10
0.5189
20
0.8239
11
0.52018
21
0.821984
0
LINE
8
BLACK
6
CONTINUOUS
10
0.52018
20
0.821984
11
0.52063
21
0.819724
0
LINE
8
BLACK
6
CONTINUOUS
10
0.52063
20
0.819724
11
0.52063
21
0.807913
0
LINE
8
BLACK
6
CONTINUOUS
10
0.52063
20
0.807913
11
0.52018
21
0.805653
0
LINE
8
BLACK
6
CONTINUOUS
10
0.52018
20
0.805653
11
0.5189
21
0.803738
0
LINE
8
BLACK
6
CONTINUOUS
10
0.5189
20
0.803738
11
0.516984
21
0.802457
0
LINE
8
BLACK
6
CONTINUOUS
10
0.516984
20
0.802457
11
0.514724
21
0.802008
0
LINE
8
BLACK
6
CONTINUOUS
10
0.514724
20
0.802008
11
0.459606
21
0.802008
0
LINE
8
BLACK
6
CONTINUOUS
10
0.459606
20
0.802008
11
0.457346
21
0.802457
0
LINE
8
BLACK
6
CONTINUOUS
10
0.457346
20
0.802457
11
0.45543
21
0.803738
0
LINE
8
BLACK
6
CONTINUOUS
10
0.45543
20
0.803738
11
0.45415
21
0.805653
0
LINE
8
BLACK
6
CONTINUOUS
10
0.45415
20
0.805653
11
0.453701
21
0.807913
0
LINE
8
BLACK
6
CONTINUOUS
10
0.453701
20
0.807913
11
0.453701
21
0.819724
0
LINE
8
BLACK
6
CONTINUOUS
10
0.453701
20
0.819724
11
0.45415
21
0.821984
0
LINE
8
BLACK
6
CONTINUOUS
10
0.45415
20
0.821984
11
0.45543
21
0.8239
0
LINE
8
BLACK
6
CONTINUOUS
10
0.45543
20
0.8239
11
0.457346
21
0.82518
0
LINE
8
BLACK
6
CONTINUOUS
10
0.457346
20
0.82518
11
0.459606
21
0.82563
0
LINE
8
BLACK
6
CONTINUOUS
10
0.459606
20
0.82563
11
0.514724
21
0.82563
0
LINE
8
BLACK
6
CONTINUOUS
10
0.514724
20
0.82563
11
0.516984
21
0.82518
0
LINE
8
BLACK
6
CONTINUOUS
10
0.660223
20
0.905589
11
0.663416
21
0.903456
0
LINE
8
BLACK
6
CONTINUOUS
10
0.663416
20
0.903456
11
0.66555
21
0.900263
0
LINE
8
BLACK
6
CONTINUOUS
10
0.66555
20
0.900263
11
0.666299
21
0.896496
0
LINE
8
BLACK
6
CONTINUOUS
10
0.666299
20
0.896496
11
0.666299
21
0.876811
0
LINE
8
BLACK
6
CONTINUOUS
10
0.666299
20
0.876811
11
0.66555
21
0.873044
0
LINE
8
BLACK
6
CONTINUOUS
10
0.66555
20
0.873044
11
0.663416
21
0.869851
0
LINE
8
BLACK
6
CONTINUOUS
10
0.663416
20
0.869851
11
0.660223
21
0.867718
0
LINE
8
BLACK
6
CONTINUOUS
10
0.660223
20
0.867718
11
0.656457
21
0.866969
0
LINE
8
BLACK
6
CONTINUOUS
10
0.656457
20
0.866969
11
0.569843
21
0.866969
0
LINE
8
BLACK
6
CONTINUOUS
10
0.569843
20
0.866969
11
0.566076
21
0.867718
0
LINE
8
BLACK
6
CONTINUOUS
10
0.566076
20
0.867718
11
0.562883
21
0.869851
0
LINE
8
BLACK
6
CONTINUOUS
10
0.562883
20
0.869851
11
0.560749
21
0.873044
0
LINE
8
BLACK
6
CONTINUOUS
10
0.560749
20
0.873044
11
0.56
21
0.876811
0
LINE
8
BLACK
6
CONTINUOUS
10
0.56
20
0.876811
11
0.56
21
0.896496
0
LINE
8
BLACK
6
CONTINUOUS
10
0.56
20
0.896496
11
0.560749
21
0.900263
0
LINE
8
BLACK
6
CONTINUOUS
10
0.560749
20
0.900263
11
0.562883
21
0.903456
0
LINE
8
BLACK
6
CONTINUOUS
10
0.562883
20
0.903456
11
0.566076
21
0.905589
0
LINE
8
BLACK
6
CONTINUOUS
10
0.566076
20
0.905589
11
0.569843
21
0.906339
0
LINE
8
BLACK
6
CONTINUOUS
10
0.569843
20
0.906339
11
0.656457
21
0.906339
0
LINE
8
BLACK
6
CONTINUOUS
10
0.656457
20
0.906339
11
0.660223
21
0.905589
  0
ENDSEC
  0
EOF
