  0
SECTION
  2
HEADER
  9
$ANGBASE
  50
0.0
  9
$ANGDIR
  70
1
  9
$MEASUREMENT
  70
0
  0
ENDSEC
  0
SECTION
  2
TABLES
  0
TABLE
  2
LTYPE
  70
4
  0
LTYPE
  5
40F
  2
CONTINUOUS
  70
0
  3
Solid line
  72
65
  73
0
  40
0.0
  0
LTYPE
  5
410
  2
DASHDOT
 70
0
  3
Dash Dot ____ _ ____ _
 72
65
 73
4
 40
2.0
 49
1.25
 49
-0.25
 49
0.25
 49
-0.25
  0
LTYPE
  5
411
  2
DASHED
 70
0
  3
Dashed __ __ __ __ __
 72
65
 73
2
 40
0.75
 49
0.5
 49
-0.25
  0
LTYPE
  5
43B
  2
DOTTED
 70
0
  3
Dotted .  .  .  .
 72
65
 73
2
 40
0.2
 49
0.0
 49
-0.2
  0
ENDTAB
  0
TABLE
  2
STYLE
  70
4
  0
STYLE
  2
KICAD
  70
0
  40
0
  41
1
  42
1
  50
0
  71
0
  3
isocp.shx
  0
STYLE
  2
KICADB
  70
0
  40
0
  41
1
  42
1
  50
0
  71
0
  3
isocp.shx
  0
STYLE
  2
KICADI
  70
0
  40
0
  41
1
  42
1
  50
15
  71
0
  3
isocp.shx
  0
STYLE
  2
KICADBI
  70
0
  40
0
  41
1
  42
1
  50
15
  71
0
  3
isocp.shx
  0
ENDTAB
  0
TABLE
  2
LAYER
  70
1
  0
LAYER
  2
BLACK
  70
0
  62
7
  6
CONTINUOUS
  0
ENDTAB
  0
ENDSEC
  0
SECTION
  2
ENTITIES
0
LINE
8
BLACK
6
CONTINUOUS
10
1.02918
20
0.638114
11
1.02931
21
0.638001
0
LINE
8
BLACK
6
CONTINUOUS
10
1.02931
20
0.638001
11
1.02949
21
0.63798
0
LINE
8
BLACK
6
CONTINUOUS
10
1.02949
20
0.63798
11
1.03324
21
0.636106
0
LINE
8
BLACK
6
CONTINUOUS
10
1.03324
20
0.636106
11
1.03395
21
0.63558
0
LINE
8
BLACK
6
CONTINUOUS
10
1.03395
20
0.63558
11
1.03401
21
0.635552
0
LINE
8
BLACK
6
CONTINUOUS
10
1.03401
20
0.635552
11
1.03588
21
0.633678
0
LINE
8
BLACK
6
CONTINUOUS
10
1.03588
20
0.633678
11
1.03639
21
0.632955
0
LINE
8
BLACK
6
CONTINUOUS
10
1.03639
20
0.632955
11
1.03643
21
0.63291
0
LINE
8
BLACK
6
CONTINUOUS
10
1.03643
20
0.63291
11
1.03831
21
0.629161
0
LINE
8
BLACK
6
CONTINUOUS
10
1.03831
20
0.629161
11
1.0386
21
0.628178
0
LINE
8
BLACK
6
CONTINUOUS
10
1.0386
20
0.628178
11
1.03856
21
0.628006
0
LINE
8
BLACK
6
CONTINUOUS
10
1.03856
20
0.628006
11
1.03862
21
0.62784
0
LINE
8
BLACK
6
CONTINUOUS
10
1.03862
20
0.62784
11
1.03862
21
0.624091
0
LINE
8
BLACK
6
CONTINUOUS
10
1.03862
20
0.624091
11
1.03844
21
0.623081
0
LINE
8
BLACK
6
CONTINUOUS
10
1.03844
20
0.623081
11
1.03833
21
0.622946
0
LINE
8
BLACK
6
CONTINUOUS
10
1.03833
20
0.622946
11
1.03831
21
0.62277
0
LINE
8
BLACK
6
CONTINUOUS
10
1.03831
20
0.62277
11
1.03643
21
0.619021
0
LINE
8
BLACK
6
CONTINUOUS
10
1.03643
20
0.619021
11
1.03591
21
0.618312
0
LINE
8
BLACK
6
CONTINUOUS
10
1.03591
20
0.618312
11
1.03588
21
0.618253
0
LINE
8
BLACK
6
CONTINUOUS
10
1.03588
20
0.618253
11
1.035
21
0.617371
0
LINE
8
BLACK
6
CONTINUOUS
10
1.035
20
0.617371
11
1.03563
21
0.61703
0
LINE
8
BLACK
6
CONTINUOUS
10
1.03563
20
0.61703
11
1.03572
21
0.616879
0
LINE
8
BLACK
6
CONTINUOUS
10
1.03572
20
0.616879
11
1.03588
21
0.616805
0
LINE
8
BLACK
6
CONTINUOUS
10
1.03588
20
0.616805
11
1.03776
21
0.61493
0
LINE
8
BLACK
6
CONTINUOUS
10
1.03776
20
0.61493
11
1.03826
21
0.614207
0
LINE
8
BLACK
6
CONTINUOUS
10
1.03826
20
0.614207
11
1.03831
21
0.614163
0
LINE
8
BLACK
6
CONTINUOUS
10
1.03831
20
0.614163
11
1.04018
21
0.610413
0
LINE
8
BLACK
6
CONTINUOUS
10
1.04018
20
0.610413
11
1.04048
21
0.60943
0
LINE
8
BLACK
6
CONTINUOUS
10
1.04048
20
0.60943
11
1.04043
21
0.609259
0
LINE
8
BLACK
6
CONTINUOUS
10
1.04043
20
0.609259
11
1.04049
21
0.609093
0
LINE
8
BLACK
6
CONTINUOUS
10
1.04049
20
0.609093
11
1.04049
21
0.603468
0
LINE
8
BLACK
6
CONTINUOUS
10
1.04049
20
0.603468
11
1.04032
21
0.602458
0
LINE
8
BLACK
6
CONTINUOUS
10
1.04032
20
0.602458
11
1.0402
21
0.602323
0
LINE
8
BLACK
6
CONTINUOUS
10
1.0402
20
0.602323
11
1.04018
21
0.602148
0
LINE
8
BLACK
6
CONTINUOUS
10
1.04018
20
0.602148
11
1.03831
21
0.598398
0
LINE
8
BLACK
6
CONTINUOUS
10
1.03831
20
0.598398
11
1.03778
21
0.597689
0
LINE
8
BLACK
6
CONTINUOUS
10
1.03778
20
0.597689
11
1.03776
21
0.597631
0
LINE
8
BLACK
6
CONTINUOUS
10
1.03776
20
0.597631
11
1.03588
21
0.595756
0
LINE
8
BLACK
6
CONTINUOUS
10
1.03588
20
0.595756
11
1.03516
21
0.59525
0
LINE
8
BLACK
6
CONTINUOUS
10
1.03516
20
0.59525
11
1.03511
21
0.595203
0
LINE
8
BLACK
6
CONTINUOUS
10
1.03511
20
0.595203
11
1.03136
21
0.593328
0
LINE
8
BLACK
6
CONTINUOUS
10
1.03136
20
0.593328
11
1.03038
21
0.593036
0
LINE
8
BLACK
6
CONTINUOUS
10
1.03038
20
0.593036
11
1.03021
21
0.593077
0
LINE
8
BLACK
6
CONTINUOUS
10
1.03021
20
0.593077
11
1.03004
21
0.593017
0
LINE
8
BLACK
6
CONTINUOUS
10
1.03004
20
0.593017
11
1.01504
21
0.593017
0
LINE
8
BLACK
6
CONTINUOUS
10
1.01504
20
0.593017
11
1.01466
21
0.593084
0
LINE
8
BLACK
6
CONTINUOUS
10
1.01466
20
0.593084
11
1.01453
21
0.593061
0
LINE
8
BLACK
6
CONTINUOUS
10
1.01453
20
0.593061
11
1.01442
21
0.593127
0
LINE
8
BLACK
6
CONTINUOUS
10
1.01442
20
0.593127
11
1.01404
21
0.593195
0
LINE
8
BLACK
6
CONTINUOUS
10
1.01404
20
0.593195
11
1.01345
21
0.593688
0
LINE
8
BLACK
6
CONTINUOUS
10
1.01345
20
0.593688
11
1.01278
21
0.594071
0
LINE
8
BLACK
6
CONTINUOUS
10
1.01278
20
0.594071
11
1.01269
21
0.594322
0
LINE
8
BLACK
6
CONTINUOUS
10
1.01269
20
0.594322
11
1.01249
21
0.594493
0
LINE
8
BLACK
6
CONTINUOUS
10
1.01249
20
0.594493
11
1.01235
21
0.595248
0
LINE
8
BLACK
6
CONTINUOUS
10
1.01235
20
0.595248
11
1.01209
21
0.595969
0
LINE
8
BLACK
6
CONTINUOUS
10
1.01209
20
0.595969
11
1.01209
21
0.635339
0
LINE
8
BLACK
6
CONTINUOUS
10
1.01209
20
0.635339
11
1.01216
21
0.635723
0
LINE
8
BLACK
6
CONTINUOUS
10
1.01216
20
0.635723
11
1.01214
21
0.635852
0
LINE
8
BLACK
6
CONTINUOUS
10
1.01214
20
0.635852
11
1.0122
21
0.635966
0
LINE
8
BLACK
6
CONTINUOUS
10
1.0122
20
0.635966
11
1.01227
21
0.636349
0
LINE
8
BLACK
6
CONTINUOUS
10
1.01227
20
0.636349
11
1.01276
21
0.636937
0
LINE
8
BLACK
6
CONTINUOUS
10
1.01276
20
0.636937
11
1.01315
21
0.637601
0
LINE
8
BLACK
6
CONTINUOUS
10
1.01315
20
0.637601
11
1.0134
21
0.637692
0
LINE
8
BLACK
6
CONTINUOUS
10
1.0134
20
0.637692
11
1.01357
21
0.637897
0
LINE
8
BLACK
6
CONTINUOUS
10
1.01357
20
0.637897
11
1.01432
21
0.63803
0
LINE
8
BLACK
6
CONTINUOUS
10
1.01432
20
0.63803
11
1.01504
21
0.638292
0
LINE
8
BLACK
6
CONTINUOUS
10
1.01504
20
0.638292
11
1.02817
21
0.638292
0
LINE
8
BLACK
6
CONTINUOUS
10
1.02817
20
0.638292
11
1.02918
21
0.638114
0
LINE
8
BLACK
6
CONTINUOUS
10
1.018
20
0.613639
11
1.018
21
0.598922
0
LINE
8
BLACK
6
CONTINUOUS
10
1.018
20
0.598922
11
1.02935
21
0.598922
0
LINE
8
BLACK
6
CONTINUOUS
10
1.02935
20
0.598922
11
1.03204
21
0.600271
0
LINE
8
BLACK
6
CONTINUOUS
10
1.03204
20
0.600271
11
1.03324
21
0.601468
0
LINE
8
BLACK
6
CONTINUOUS
10
1.03324
20
0.601468
11
1.03459
21
0.604165
0
LINE
8
BLACK
6
CONTINUOUS
10
1.03459
20
0.604165
11
1.03459
21
0.608396
0
LINE
8
BLACK
6
CONTINUOUS
10
1.03459
20
0.608396
11
1.03324
21
0.611093
0
LINE
8
BLACK
6
CONTINUOUS
10
1.03324
20
0.611093
11
1.0322
21
0.612136
0
LINE
8
BLACK
6
CONTINUOUS
10
1.0322
20
0.612136
11
1.02769
21
0.613639
0
LINE
8
BLACK
6
CONTINUOUS
10
1.02769
20
0.613639
11
1.018
21
0.613639
0
LINE
8
BLACK
6
CONTINUOUS
10
1.018
20
0.632387
11
1.018
21
0.619544
0
LINE
8
BLACK
6
CONTINUOUS
10
1.018
20
0.619544
11
1.02747
21
0.619544
0
LINE
8
BLACK
6
CONTINUOUS
10
1.02747
20
0.619544
11
1.03017
21
0.620893
0
LINE
8
BLACK
6
CONTINUOUS
10
1.03017
20
0.620893
11
1.03137
21
0.62209
0
LINE
8
BLACK
6
CONTINUOUS
10
1.03137
20
0.62209
11
1.03271
21
0.624788
0
LINE
8
BLACK
6
CONTINUOUS
10
1.03271
20
0.624788
11
1.03271
21
0.627143
0
LINE
8
BLACK
6
CONTINUOUS
10
1.03271
20
0.627143
11
1.03137
21
0.629841
0
LINE
8
BLACK
6
CONTINUOUS
10
1.03137
20
0.629841
11
1.03017
21
0.631038
0
LINE
8
BLACK
6
CONTINUOUS
10
1.03017
20
0.631038
11
1.02747
21
0.632387
0
LINE
8
BLACK
6
CONTINUOUS
10
1.02747
20
0.632387
11
1.018
21
0.632387
0
LINE
8
BLACK
6
CONTINUOUS
10
0.667349
20
0.638114
11
0.667484
21
0.638001
0
LINE
8
BLACK
6
CONTINUOUS
10
0.667484
20
0.638001
11
0.667659
21
0.63798
0
LINE
8
BLACK
6
CONTINUOUS
10
0.667659
20
0.63798
11
0.671409
21
0.636106
0
LINE
8
BLACK
6
CONTINUOUS
10
0.671409
20
0.636106
11
0.672118
21
0.63558
0
LINE
8
BLACK
6
CONTINUOUS
10
0.672118
20
0.63558
11
0.672176
21
0.635552
0
LINE
8
BLACK
6
CONTINUOUS
10
0.672176
20
0.635552
11
0.674051
21
0.633678
0
LINE
8
BLACK
6
CONTINUOUS
10
0.674051
20
0.633678
11
0.674557
21
0.632955
0
LINE
8
BLACK
6
CONTINUOUS
10
0.674557
20
0.632955
11
0.674604
21
0.63291
0
LINE
8
BLACK
6
CONTINUOUS
10
0.674604
20
0.63291
11
0.676479
21
0.629161
0
LINE
8
BLACK
6
CONTINUOUS
10
0.676479
20
0.629161
11
0.676624
21
0.628672
0
LINE
8
BLACK
6
CONTINUOUS
10
0.676624
20
0.628672
11
0.676702
21
0.628556
0
LINE
8
BLACK
6
CONTINUOUS
10
0.676702
20
0.628556
11
0.678577
21
0.621057
0
LINE
8
BLACK
6
CONTINUOUS
10
0.678577
20
0.621057
11
0.678618
21
0.620469
0
LINE
8
BLACK
6
CONTINUOUS
10
0.678618
20
0.620469
11
0.678665
21
0.620341
0
LINE
8
BLACK
6
CONTINUOUS
10
0.678665
20
0.620341
11
0.678665
21
0.610967
0
LINE
8
BLACK
6
CONTINUOUS
10
0.678665
20
0.610967
11
0.678563
21
0.610387
0
LINE
8
BLACK
6
CONTINUOUS
10
0.678563
20
0.610387
11
0.678577
21
0.610251
0
LINE
8
BLACK
6
CONTINUOUS
10
0.678577
20
0.610251
11
0.676702
21
0.602752
0
LINE
8
BLACK
6
CONTINUOUS
10
0.676702
20
0.602752
11
0.676495
21
0.602287
0
LINE
8
BLACK
6
CONTINUOUS
10
0.676495
20
0.602287
11
0.676479
21
0.602148
0
LINE
8
BLACK
6
CONTINUOUS
10
0.676479
20
0.602148
11
0.674604
21
0.598398
0
LINE
8
BLACK
6
CONTINUOUS
10
0.674604
20
0.598398
11
0.674078
21
0.597689
0
LINE
8
BLACK
6
CONTINUOUS
10
0.674078
20
0.597689
11
0.674051
21
0.597631
0
LINE
8
BLACK
6
CONTINUOUS
10
0.674051
20
0.597631
11
0.672176
21
0.595756
0
LINE
8
BLACK
6
CONTINUOUS
10
0.672176
20
0.595756
11
0.671453
21
0.59525
0
LINE
8
BLACK
6
CONTINUOUS
10
0.671453
20
0.59525
11
0.671409
21
0.595203
0
LINE
8
BLACK
6
CONTINUOUS
10
0.671409
20
0.595203
11
0.667659
21
0.593328
0
LINE
8
BLACK
6
CONTINUOUS
10
0.667659
20
0.593328
11
0.666676
21
0.593036
0
LINE
8
BLACK
6
CONTINUOUS
10
0.666676
20
0.593036
11
0.666504
21
0.593077
0
LINE
8
BLACK
6
CONTINUOUS
10
0.666504
20
0.593077
11
0.666339
21
0.593017
0
LINE
8
BLACK
6
CONTINUOUS
10
0.666339
20
0.593017
11
0.662589
21
0.593017
0
LINE
8
BLACK
6
CONTINUOUS
10
0.662589
20
0.593017
11
0.661579
21
0.593195
0
LINE
8
BLACK
6
CONTINUOUS
10
0.661579
20
0.593195
11
0.661444
21
0.593308
0
LINE
8
BLACK
6
CONTINUOUS
10
0.661444
20
0.593308
11
0.661269
21
0.593328
0
LINE
8
BLACK
6
CONTINUOUS
10
0.661269
20
0.593328
11
0.657519
21
0.595203
0
LINE
8
BLACK
6
CONTINUOUS
10
0.657519
20
0.595203
11
0.65681
21
0.595729
0
LINE
8
BLACK
6
CONTINUOUS
10
0.65681
20
0.595729
11
0.656752
21
0.595756
0
LINE
8
BLACK
6
CONTINUOUS
10
0.656752
20
0.595756
11
0.654877
21
0.597631
0
LINE
8
BLACK
6
CONTINUOUS
10
0.654877
20
0.597631
11
0.654371
21
0.598354
0
LINE
8
BLACK
6
CONTINUOUS
10
0.654371
20
0.598354
11
0.654324
21
0.598398
0
LINE
8
BLACK
6
CONTINUOUS
10
0.654324
20
0.598398
11
0.652449
21
0.602148
0
LINE
8
BLACK
6
CONTINUOUS
10
0.652449
20
0.602148
11
0.652304
21
0.602636
0
LINE
8
BLACK
6
CONTINUOUS
10
0.652304
20
0.602636
11
0.652225
21
0.602752
0
LINE
8
BLACK
6
CONTINUOUS
10
0.652225
20
0.602752
11
0.650351
21
0.610251
0
LINE
8
BLACK
6
CONTINUOUS
10
0.650351
20
0.610251
11
0.650309
21
0.610839
0
LINE
8
BLACK
6
CONTINUOUS
10
0.650309
20
0.610839
11
0.650262
21
0.610967
0
LINE
8
BLACK
6
CONTINUOUS
10
0.650262
20
0.610967
11
0.650262
21
0.620341
0
LINE
8
BLACK
6
CONTINUOUS
10
0.650262
20
0.620341
11
0.650365
21
0.620922
0
LINE
8
BLACK
6
CONTINUOUS
10
0.650365
20
0.620922
11
0.650351
21
0.621057
0
LINE
8
BLACK
6
CONTINUOUS
10
0.650351
20
0.621057
11
0.652225
21
0.628556
0
LINE
8
BLACK
6
CONTINUOUS
10
0.652225
20
0.628556
11
0.652433
21
0.629022
0
LINE
8
BLACK
6
CONTINUOUS
10
0.652433
20
0.629022
11
0.652449
21
0.629161
0
LINE
8
BLACK
6
CONTINUOUS
10
0.652449
20
0.629161
11
0.654324
21
0.63291
0
LINE
8
BLACK
6
CONTINUOUS
10
0.654324
20
0.63291
11
0.65485
21
0.633619
0
LINE
8
BLACK
6
CONTINUOUS
10
0.65485
20
0.633619
11
0.654877
21
0.633678
0
LINE
8
BLACK
6
CONTINUOUS
10
0.654877
20
0.633678
11
0.656752
21
0.635552
0
LINE
8
BLACK
6
CONTINUOUS
10
0.656752
20
0.635552
11
0.657475
21
0.636059
0
LINE
8
BLACK
6
CONTINUOUS
10
0.657475
20
0.636059
11
0.657519
21
0.636106
0
LINE
8
BLACK
6
CONTINUOUS
10
0.657519
20
0.636106
11
0.661269
21
0.63798
0
LINE
8
BLACK
6
CONTINUOUS
10
0.661269
20
0.63798
11
0.662251
21
0.638273
0
LINE
8
BLACK
6
CONTINUOUS
10
0.662251
20
0.638273
11
0.662423
21
0.638232
0
LINE
8
BLACK
6
CONTINUOUS
10
0.662423
20
0.638232
11
0.662589
21
0.638292
0
LINE
8
BLACK
6
CONTINUOUS
10
0.662589
20
0.638292
11
0.666339
21
0.638292
0
LINE
8
BLACK
6
CONTINUOUS
10
0.666339
20
0.638292
11
0.667349
21
0.638114
0
LINE
8
BLACK
6
CONTINUOUS
10
0.663286
20
0.632387
11
0.660589
21
0.631038
0
LINE
8
BLACK
6
CONTINUOUS
10
0.660589
20
0.631038
11
0.659391
21
0.629841
0
LINE
8
BLACK
6
CONTINUOUS
10
0.659391
20
0.629841
11
0.657876
21
0.62681
0
LINE
8
BLACK
6
CONTINUOUS
10
0.657876
20
0.62681
11
0.656168
21
0.619978
0
LINE
8
BLACK
6
CONTINUOUS
10
0.656168
20
0.619978
11
0.656168
21
0.611331
0
LINE
8
BLACK
6
CONTINUOUS
10
0.656168
20
0.611331
11
0.657876
21
0.604499
0
LINE
8
BLACK
6
CONTINUOUS
10
0.657876
20
0.604499
11
0.659391
21
0.601468
0
LINE
8
BLACK
6
CONTINUOUS
10
0.659391
20
0.601468
11
0.660589
21
0.600271
0
LINE
8
BLACK
6
CONTINUOUS
10
0.660589
20
0.600271
11
0.663286
21
0.598922
0
LINE
8
BLACK
6
CONTINUOUS
10
0.663286
20
0.598922
11
0.665642
21
0.598922
0
LINE
8
BLACK
6
CONTINUOUS
10
0.665642
20
0.598922
11
0.668339
21
0.600271
0
LINE
8
BLACK
6
CONTINUOUS
10
0.668339
20
0.600271
11
0.669536
21
0.601468
0
LINE
8
BLACK
6
CONTINUOUS
10
0.669536
20
0.601468
11
0.671052
21
0.604499
0
LINE
8
BLACK
6
CONTINUOUS
10
0.671052
20
0.604499
11
0.67276
21
0.611331
0
LINE
8
BLACK
6
CONTINUOUS
10
0.67276
20
0.611331
11
0.67276
21
0.619978
0
LINE
8
BLACK
6
CONTINUOUS
10
0.67276
20
0.619978
11
0.671052
21
0.62681
0
LINE
8
BLACK
6
CONTINUOUS
10
0.671052
20
0.62681
11
0.669536
21
0.629841
0
LINE
8
BLACK
6
CONTINUOUS
10
0.669536
20
0.629841
11
0.668339
21
0.631038
0
LINE
8
BLACK
6
CONTINUOUS
10
0.668339
20
0.631038
11
0.665641
21
0.632387
0
LINE
8
BLACK
6
CONTINUOUS
10
0.665641
20
0.632387
11
0.663286
21
0.632387
0
LINE
8
BLACK
6
CONTINUOUS
10
0.588468
20
0.638139
11
0.588532
21
0.638141
0
LINE
8
BLACK
6
CONTINUOUS
10
0.588532
20
0.638141
11
0.594156
21
0.636266
0
LINE
8
BLACK
6
CONTINUOUS
10
0.594156
20
0.636266
11
0.595058
21
0.635777
0
LINE
8
BLACK
6
CONTINUOUS
10
0.595058
20
0.635777
11
0.596116
21
0.634056
0
LINE
8
BLACK
6
CONTINUOUS
10
0.596116
20
0.634056
11
0.595819
21
0.632059
0
LINE
8
BLACK
6
CONTINUOUS
10
0.595819
20
0.632059
11
0.594308
21
0.630719
0
LINE
8
BLACK
6
CONTINUOUS
10
0.594308
20
0.630719
11
0.592289
21
0.630663
0
LINE
8
BLACK
6
CONTINUOUS
10
0.592289
20
0.630663
11
0.587119
21
0.632387
0
LINE
8
BLACK
6
CONTINUOUS
10
0.587119
20
0.632387
11
0.578922
21
0.632387
0
LINE
8
BLACK
6
CONTINUOUS
10
0.578922
20
0.632387
11
0.576224
21
0.631038
0
LINE
8
BLACK
6
CONTINUOUS
10
0.576224
20
0.631038
11
0.575027
21
0.629841
0
LINE
8
BLACK
6
CONTINUOUS
10
0.575027
20
0.629841
11
0.573678
21
0.627143
0
LINE
8
BLACK
6
CONTINUOUS
10
0.573678
20
0.627143
11
0.573678
21
0.624788
0
LINE
8
BLACK
6
CONTINUOUS
10
0.573678
20
0.624788
11
0.575027
21
0.62209
0
LINE
8
BLACK
6
CONTINUOUS
10
0.575027
20
0.62209
11
0.576224
21
0.620893
0
LINE
8
BLACK
6
CONTINUOUS
10
0.576224
20
0.620893
11
0.579255
21
0.619378
0
LINE
8
BLACK
6
CONTINUOUS
10
0.579255
20
0.619378
11
0.58644
21
0.617582
0
LINE
8
BLACK
6
CONTINUOUS
10
0.58644
20
0.617582
11
0.586905
21
0.617374
0
LINE
8
BLACK
6
CONTINUOUS
10
0.586905
20
0.617374
11
0.587044
21
0.617358
0
LINE
8
BLACK
6
CONTINUOUS
10
0.587044
20
0.617358
11
0.590794
21
0.615483
0
LINE
8
BLACK
6
CONTINUOUS
10
0.590794
20
0.615483
11
0.591503
21
0.614957
0
LINE
8
BLACK
6
CONTINUOUS
10
0.591503
20
0.614957
11
0.591561
21
0.61493
0
LINE
8
BLACK
6
CONTINUOUS
10
0.591561
20
0.61493
11
0.593436
21
0.613055
0
LINE
8
BLACK
6
CONTINUOUS
10
0.593436
20
0.613055
11
0.593942
21
0.612332
0
LINE
8
BLACK
6
CONTINUOUS
10
0.593942
20
0.612332
11
0.593989
21
0.612288
0
LINE
8
BLACK
6
CONTINUOUS
10
0.593989
20
0.612288
11
0.595864
21
0.608538
0
LINE
8
BLACK
6
CONTINUOUS
10
0.595864
20
0.608538
11
0.596156
21
0.607555
0
LINE
8
BLACK
6
CONTINUOUS
10
0.596156
20
0.607555
11
0.596115
21
0.607384
0
LINE
8
BLACK
6
CONTINUOUS
10
0.596115
20
0.607384
11
0.596175
21
0.607218
0
LINE
8
BLACK
6
CONTINUOUS
10
0.596175
20
0.607218
11
0.596175
21
0.603468
0
LINE
8
BLACK
6
CONTINUOUS
10
0.596175
20
0.603468
11
0.595997
21
0.602458
0
LINE
8
BLACK
6
CONTINUOUS
10
0.595997
20
0.602458
11
0.595884
21
0.602323
0
LINE
8
BLACK
6
CONTINUOUS
10
0.595884
20
0.602323
11
0.595864
21
0.602148
0
LINE
8
BLACK
6
CONTINUOUS
10
0.595864
20
0.602148
11
0.593989
21
0.598398
0
LINE
8
BLACK
6
CONTINUOUS
10
0.593989
20
0.598398
11
0.593463
21
0.597689
0
LINE
8
BLACK
6
CONTINUOUS
10
0.593463
20
0.597689
11
0.593436
21
0.597631
0
LINE
8
BLACK
6
CONTINUOUS
10
0.593436
20
0.597631
11
0.591561
21
0.595756
0
LINE
8
BLACK
6
CONTINUOUS
10
0.591561
20
0.595756
11
0.590838
21
0.59525
0
LINE
8
BLACK
6
CONTINUOUS
10
0.590838
20
0.59525
11
0.590794
21
0.595203
0
LINE
8
BLACK
6
CONTINUOUS
10
0.590794
20
0.595203
11
0.587044
21
0.593328
0
LINE
8
BLACK
6
CONTINUOUS
10
0.587044
20
0.593328
11
0.586061
21
0.593036
0
LINE
8
BLACK
6
CONTINUOUS
10
0.586061
20
0.593036
11
0.585889
21
0.593077
0
LINE
8
BLACK
6
CONTINUOUS
10
0.585889
20
0.593077
11
0.585724
21
0.593017
0
LINE
8
BLACK
6
CONTINUOUS
10
0.585724
20
0.593017
11
0.57635
21
0.593017
0
LINE
8
BLACK
6
CONTINUOUS
10
0.57635
20
0.593017
11
0.57548
21
0.59317
0
LINE
8
BLACK
6
CONTINUOUS
10
0.57548
20
0.59317
11
0.575416
21
0.593168
0
LINE
8
BLACK
6
CONTINUOUS
10
0.575416
20
0.593168
11
0.569792
21
0.595043
0
LINE
8
BLACK
6
CONTINUOUS
10
0.569792
20
0.595043
11
0.56889
21
0.595531
0
LINE
8
BLACK
6
CONTINUOUS
10
0.56889
20
0.595531
11
0.567833
21
0.597252
0
LINE
8
BLACK
6
CONTINUOUS
10
0.567833
20
0.597252
11
0.568129
21
0.59925
0
LINE
8
BLACK
6
CONTINUOUS
10
0.568129
20
0.59925
11
0.56964
21
0.60059
0
LINE
8
BLACK
6
CONTINUOUS
10
0.56964
20
0.60059
11
0.571659
21
0.600645
0
LINE
8
BLACK
6
CONTINUOUS
10
0.571659
20
0.600645
11
0.576829
21
0.598922
0
LINE
8
BLACK
6
CONTINUOUS
10
0.576829
20
0.598922
11
0.585027
21
0.598922
0
LINE
8
BLACK
6
CONTINUOUS
10
0.585027
20
0.598922
11
0.587724
21
0.600271
0
LINE
8
BLACK
6
CONTINUOUS
10
0.587724
20
0.600271
11
0.588921
21
0.601468
0
LINE
8
BLACK
6
CONTINUOUS
10
0.588921
20
0.601468
11
0.59027
21
0.604165
0
LINE
8
BLACK
6
CONTINUOUS
10
0.59027
20
0.604165
11
0.59027
21
0.606521
0
LINE
8
BLACK
6
CONTINUOUS
10
0.59027
20
0.606521
11
0.588921
21
0.609218
0
LINE
8
BLACK
6
CONTINUOUS
10
0.588921
20
0.609218
11
0.587724
21
0.610415
0
LINE
8
BLACK
6
CONTINUOUS
10
0.587724
20
0.610415
11
0.584693
21
0.611931
0
LINE
8
BLACK
6
CONTINUOUS
10
0.584693
20
0.611931
11
0.577508
21
0.613727
0
LINE
8
BLACK
6
CONTINUOUS
10
0.577508
20
0.613727
11
0.577043
21
0.613935
0
LINE
8
BLACK
6
CONTINUOUS
10
0.577043
20
0.613935
11
0.576904
21
0.613951
0
LINE
8
BLACK
6
CONTINUOUS
10
0.576904
20
0.613951
11
0.573155
21
0.615825
0
LINE
8
BLACK
6
CONTINUOUS
10
0.573155
20
0.615825
11
0.572445
21
0.616351
0
LINE
8
BLACK
6
CONTINUOUS
10
0.572445
20
0.616351
11
0.572387
21
0.616379
0
LINE
8
BLACK
6
CONTINUOUS
10
0.572387
20
0.616379
11
0.570512
21
0.618253
0
LINE
8
BLACK
6
CONTINUOUS
10
0.570512
20
0.618253
11
0.570006
21
0.618976
0
LINE
8
BLACK
6
CONTINUOUS
10
0.570006
20
0.618976
11
0.569959
21
0.619021
0
LINE
8
BLACK
6
CONTINUOUS
10
0.569959
20
0.619021
11
0.568084
21
0.62277
0
LINE
8
BLACK
6
CONTINUOUS
10
0.568084
20
0.62277
11
0.567792
21
0.623753
0
LINE
8
BLACK
6
CONTINUOUS
10
0.567792
20
0.623753
11
0.567833
21
0.623925
0
LINE
8
BLACK
6
CONTINUOUS
10
0.567833
20
0.623925
11
0.567773
21
0.624091
0
LINE
8
BLACK
6
CONTINUOUS
10
0.567773
20
0.624091
11
0.567773
21
0.62784
0
LINE
8
BLACK
6
CONTINUOUS
10
0.567773
20
0.62784
11
0.567951
21
0.62885
0
LINE
8
BLACK
6
CONTINUOUS
10
0.567951
20
0.62885
11
0.568064
21
0.628985
0
LINE
8
BLACK
6
CONTINUOUS
10
0.568064
20
0.628985
11
0.568084
21
0.629161
0
LINE
8
BLACK
6
CONTINUOUS
10
0.568084
20
0.629161
11
0.569959
21
0.63291
0
LINE
8
BLACK
6
CONTINUOUS
10
0.569959
20
0.63291
11
0.570485
21
0.633619
0
LINE
8
BLACK
6
CONTINUOUS
10
0.570485
20
0.633619
11
0.570512
21
0.633678
0
LINE
8
BLACK
6
CONTINUOUS
10
0.570512
20
0.633678
11
0.572387
21
0.635552
0
LINE
8
BLACK
6
CONTINUOUS
10
0.572387
20
0.635552
11
0.57311
21
0.636059
0
LINE
8
BLACK
6
CONTINUOUS
10
0.57311
20
0.636059
11
0.573154
21
0.636106
0
LINE
8
BLACK
6
CONTINUOUS
10
0.573154
20
0.636106
11
0.576904
21
0.63798
0
LINE
8
BLACK
6
CONTINUOUS
10
0.576904
20
0.63798
11
0.577887
21
0.638273
0
LINE
8
BLACK
6
CONTINUOUS
10
0.577887
20
0.638273
11
0.578059
21
0.638232
0
LINE
8
BLACK
6
CONTINUOUS
10
0.578059
20
0.638232
11
0.578225
21
0.638292
0
LINE
8
BLACK
6
CONTINUOUS
10
0.578225
20
0.638292
11
0.587598
21
0.638292
0
LINE
8
BLACK
6
CONTINUOUS
10
0.587598
20
0.638292
11
0.588468
21
0.638139
0
LINE
8
BLACK
6
CONTINUOUS
10
0.744214
20
0.638114
11
0.744349
21
0.638001
0
LINE
8
BLACK
6
CONTINUOUS
10
0.744349
20
0.638001
11
0.744524
21
0.63798
0
LINE
8
BLACK
6
CONTINUOUS
10
0.744524
20
0.63798
11
0.748274
21
0.636106
0
LINE
8
BLACK
6
CONTINUOUS
10
0.748274
20
0.636106
11
0.748983
21
0.63558
0
LINE
8
BLACK
6
CONTINUOUS
10
0.748983
20
0.63558
11
0.749041
21
0.635552
0
LINE
8
BLACK
6
CONTINUOUS
10
0.749041
20
0.635552
11
0.750916
21
0.633678
0
LINE
8
BLACK
6
CONTINUOUS
10
0.750916
20
0.633678
11
0.751422
21
0.632955
0
LINE
8
BLACK
6
CONTINUOUS
10
0.751422
20
0.632955
11
0.751469
21
0.63291
0
LINE
8
BLACK
6
CONTINUOUS
10
0.751469
20
0.63291
11
0.753344
21
0.629161
0
LINE
8
BLACK
6
CONTINUOUS
10
0.753344
20
0.629161
11
0.753636
21
0.628178
0
LINE
8
BLACK
6
CONTINUOUS
10
0.753636
20
0.628178
11
0.753595
21
0.628006
0
LINE
8
BLACK
6
CONTINUOUS
10
0.753595
20
0.628006
11
0.753656
21
0.62784
0
LINE
8
BLACK
6
CONTINUOUS
10
0.753656
20
0.62784
11
0.753656
21
0.624091
0
LINE
8
BLACK
6
CONTINUOUS
10
0.753656
20
0.624091
11
0.753478
21
0.623081
0
LINE
8
BLACK
6
CONTINUOUS
10
0.753478
20
0.623081
11
0.753364
21
0.622946
0
LINE
8
BLACK
6
CONTINUOUS
10
0.753364
20
0.622946
11
0.753344
21
0.62277
0
LINE
8
BLACK
6
CONTINUOUS
10
0.753344
20
0.62277
11
0.751469
21
0.619021
0
LINE
8
BLACK
6
CONTINUOUS
10
0.751469
20
0.619021
11
0.750943
21
0.618312
0
LINE
8
BLACK
6
CONTINUOUS
10
0.750943
20
0.618312
11
0.750916
21
0.618253
0
LINE
8
BLACK
6
CONTINUOUS
10
0.750916
20
0.618253
11
0.750034
21
0.617371
0
LINE
8
BLACK
6
CONTINUOUS
10
0.750034
20
0.617371
11
0.750664
21
0.61703
0
LINE
8
BLACK
6
CONTINUOUS
10
0.750664
20
0.61703
11
0.750756
21
0.616879
0
LINE
8
BLACK
6
CONTINUOUS
10
0.750756
20
0.616879
11
0.750916
21
0.616805
0
LINE
8
BLACK
6
CONTINUOUS
10
0.750916
20
0.616805
11
0.752791
21
0.61493
0
LINE
8
BLACK
6
CONTINUOUS
10
0.752791
20
0.61493
11
0.753297
21
0.614207
0
LINE
8
BLACK
6
CONTINUOUS
10
0.753297
20
0.614207
11
0.753344
21
0.614163
0
LINE
8
BLACK
6
CONTINUOUS
10
0.753344
20
0.614163
11
0.755219
21
0.610413
0
LINE
8
BLACK
6
CONTINUOUS
10
0.755219
20
0.610413
11
0.755511
21
0.60943
0
LINE
8
BLACK
6
CONTINUOUS
10
0.755511
20
0.60943
11
0.75547
21
0.609259
0
LINE
8
BLACK
6
CONTINUOUS
10
0.75547
20
0.609259
11
0.755531
21
0.609093
0
LINE
8
BLACK
6
CONTINUOUS
10
0.755531
20
0.609093
11
0.755531
21
0.603468
0
LINE
8
BLACK
6
CONTINUOUS
10
0.755531
20
0.603468
11
0.755352
21
0.602458
0
LINE
8
BLACK
6
CONTINUOUS
10
0.755352
20
0.602458
11
0.755239
21
0.602323
0
LINE
8
BLACK
6
CONTINUOUS
10
0.755239
20
0.602323
11
0.755219
21
0.602148
0
LINE
8
BLACK
6
CONTINUOUS
10
0.755219
20
0.602148
11
0.753344
21
0.598398
0
LINE
8
BLACK
6
CONTINUOUS
10
0.753344
20
0.598398
11
0.752818
21
0.597689
0
LINE
8
BLACK
6
CONTINUOUS
10
0.752818
20
0.597689
11
0.752791
21
0.597631
0
LINE
8
BLACK
6
CONTINUOUS
10
0.752791
20
0.597631
11
0.750916
21
0.595756
0
LINE
8
BLACK
6
CONTINUOUS
10
0.750916
20
0.595756
11
0.750193
21
0.59525
0
LINE
8
BLACK
6
CONTINUOUS
10
0.750193
20
0.59525
11
0.750149
21
0.595203
0
LINE
8
BLACK
6
CONTINUOUS
10
0.750149
20
0.595203
11
0.746399
21
0.593328
0
LINE
8
BLACK
6
CONTINUOUS
10
0.746399
20
0.593328
11
0.745416
21
0.593036
0
LINE
8
BLACK
6
CONTINUOUS
10
0.745416
20
0.593036
11
0.745245
21
0.593077
0
LINE
8
BLACK
6
CONTINUOUS
10
0.745245
20
0.593077
11
0.745079
21
0.593017
0
LINE
8
BLACK
6
CONTINUOUS
10
0.745079
20
0.593017
11
0.730081
21
0.593017
0
LINE
8
BLACK
6
CONTINUOUS
10
0.730081
20
0.593017
11
0.729697
21
0.593084
0
LINE
8
BLACK
6
CONTINUOUS
10
0.729697
20
0.593084
11
0.729568
21
0.593061
0
LINE
8
BLACK
6
CONTINUOUS
10
0.729568
20
0.593061
11
0.729454
21
0.593127
0
LINE
8
BLACK
6
CONTINUOUS
10
0.729454
20
0.593127
11
0.729071
21
0.593195
0
LINE
8
BLACK
6
CONTINUOUS
10
0.729071
20
0.593195
11
0.728483
21
0.593688
0
LINE
8
BLACK
6
CONTINUOUS
10
0.728483
20
0.593688
11
0.727819
21
0.594071
0
LINE
8
BLACK
6
CONTINUOUS
10
0.727819
20
0.594071
11
0.727728
21
0.594322
0
LINE
8
BLACK
6
CONTINUOUS
10
0.727728
20
0.594322
11
0.727523
21
0.594493
0
LINE
8
BLACK
6
CONTINUOUS
10
0.727523
20
0.594493
11
0.72739
21
0.595248
0
LINE
8
BLACK
6
CONTINUOUS
10
0.72739
20
0.595248
11
0.727128
21
0.595969
0
LINE
8
BLACK
6
CONTINUOUS
10
0.727128
20
0.595969
11
0.727128
21
0.635339
0
LINE
8
BLACK
6
CONTINUOUS
10
0.727128
20
0.635339
11
0.727195
21
0.635723
0
LINE
8
BLACK
6
CONTINUOUS
10
0.727195
20
0.635723
11
0.727173
21
0.635852
0
LINE
8
BLACK
6
CONTINUOUS
10
0.727173
20
0.635852
11
0.727238
21
0.635966
0
LINE
8
BLACK
6
CONTINUOUS
10
0.727238
20
0.635966
11
0.727306
21
0.636349
0
LINE
8
BLACK
6
CONTINUOUS
10
0.727306
20
0.636349
11
0.727799
21
0.636937
0
LINE
8
BLACK
6
CONTINUOUS
10
0.727799
20
0.636937
11
0.728183
21
0.637601
0
LINE
8
BLACK
6
CONTINUOUS
10
0.728183
20
0.637601
11
0.728433
21
0.637692
0
LINE
8
BLACK
6
CONTINUOUS
10
0.728433
20
0.637692
11
0.728604
21
0.637897
0
LINE
8
BLACK
6
CONTINUOUS
10
0.728604
20
0.637897
11
0.72936
21
0.63803
0
LINE
8
BLACK
6
CONTINUOUS
10
0.72936
20
0.63803
11
0.730081
21
0.638292
0
LINE
8
BLACK
6
CONTINUOUS
10
0.730081
20
0.638292
11
0.743204
21
0.638292
0
LINE
8
BLACK
6
CONTINUOUS
10
0.743204
20
0.638292
11
0.744214
21
0.638114
0
LINE
8
BLACK
6
CONTINUOUS
10
0.733033
20
0.613639
11
0.733033
21
0.598922
0
LINE
8
BLACK
6
CONTINUOUS
10
0.733033
20
0.598922
11
0.744382
21
0.598922
0
LINE
8
BLACK
6
CONTINUOUS
10
0.744382
20
0.598922
11
0.747079
21
0.600271
0
LINE
8
BLACK
6
CONTINUOUS
10
0.747079
20
0.600271
11
0.748276
21
0.601468
0
LINE
8
BLACK
6
CONTINUOUS
10
0.748276
20
0.601468
11
0.749625
21
0.604165
0
LINE
8
BLACK
6
CONTINUOUS
10
0.749625
20
0.604165
11
0.749625
21
0.608396
0
LINE
8
BLACK
6
CONTINUOUS
10
0.749625
20
0.608396
11
0.748276
21
0.611093
0
LINE
8
BLACK
6
CONTINUOUS
10
0.748276
20
0.611093
11
0.747233
21
0.612136
0
LINE
8
BLACK
6
CONTINUOUS
10
0.747233
20
0.612136
11
0.742725
21
0.613639
0
LINE
8
BLACK
6
CONTINUOUS
10
0.742725
20
0.613639
11
0.733033
21
0.613639
0
LINE
8
BLACK
6
CONTINUOUS
10
0.733033
20
0.632387
11
0.733033
21
0.619544
0
LINE
8
BLACK
6
CONTINUOUS
10
0.733033
20
0.619544
11
0.742507
21
0.619544
0
LINE
8
BLACK
6
CONTINUOUS
10
0.742507
20
0.619544
11
0.745204
21
0.620893
0
LINE
8
BLACK
6
CONTINUOUS
10
0.745204
20
0.620893
11
0.746402
21
0.62209
0
LINE
8
BLACK
6
CONTINUOUS
10
0.746402
20
0.62209
11
0.74775
21
0.624788
0
LINE
8
BLACK
6
CONTINUOUS
10
0.74775
20
0.624788
11
0.74775
21
0.627143
0
LINE
8
BLACK
6
CONTINUOUS
10
0.74775
20
0.627143
11
0.746402
21
0.629841
0
LINE
8
BLACK
6
CONTINUOUS
10
0.746402
20
0.629841
11
0.745204
21
0.631038
0
LINE
8
BLACK
6
CONTINUOUS
10
0.745204
20
0.631038
11
0.742507
21
0.632387
0
LINE
8
BLACK
6
CONTINUOUS
10
0.742507
20
0.632387
11
0.733033
21
0.632387
0
LINE
8
BLACK
6
CONTINUOUS
10
0.836077
20
0.638114
11
0.836213
21
0.638001
0
LINE
8
BLACK
6
CONTINUOUS
10
0.836213
20
0.638001
11
0.836388
21
0.63798
0
LINE
8
BLACK
6
CONTINUOUS
10
0.836388
20
0.63798
11
0.840138
21
0.636106
0
LINE
8
BLACK
6
CONTINUOUS
10
0.840138
20
0.636106
11
0.840961
21
0.635495
0
LINE
8
BLACK
6
CONTINUOUS
10
0.840961
20
0.635495
11
0.841764
21
0.633641
0
LINE
8
BLACK
6
CONTINUOUS
10
0.841764
20
0.633641
11
0.841189
21
0.631705
0
LINE
8
BLACK
6
CONTINUOUS
10
0.841189
20
0.631705
11
0.839503
21
0.630593
0
LINE
8
BLACK
6
CONTINUOUS
10
0.839503
20
0.630593
11
0.837496
21
0.630824
0
LINE
8
BLACK
6
CONTINUOUS
10
0.837496
20
0.630824
11
0.83437
21
0.632387
0
LINE
8
BLACK
6
CONTINUOUS
10
0.83437
20
0.632387
11
0.829922
21
0.632387
0
LINE
8
BLACK
6
CONTINUOUS
10
0.829922
20
0.632387
11
0.825414
21
0.630884
0
LINE
8
BLACK
6
CONTINUOUS
10
0.825414
20
0.630884
11
0.822496
21
0.627966
0
LINE
8
BLACK
6
CONTINUOUS
10
0.822496
20
0.627966
11
0.820981
21
0.624935
0
LINE
8
BLACK
6
CONTINUOUS
10
0.820981
20
0.624935
11
0.819273
21
0.618103
0
LINE
8
BLACK
6
CONTINUOUS
10
0.819273
20
0.618103
11
0.819273
21
0.613206
0
LINE
8
BLACK
6
CONTINUOUS
10
0.819273
20
0.613206
11
0.820981
21
0.606374
0
LINE
8
BLACK
6
CONTINUOUS
10
0.820981
20
0.606374
11
0.822496
21
0.603343
0
LINE
8
BLACK
6
CONTINUOUS
10
0.822496
20
0.603343
11
0.825414
21
0.600425
0
LINE
8
BLACK
6
CONTINUOUS
10
0.825414
20
0.600425
11
0.829922
21
0.598922
0
LINE
8
BLACK
6
CONTINUOUS
10
0.829922
20
0.598922
11
0.832714
21
0.598922
0
LINE
8
BLACK
6
CONTINUOUS
10
0.832714
20
0.598922
11
0.837222
21
0.600425
0
LINE
8
BLACK
6
CONTINUOUS
10
0.837222
20
0.600425
11
0.837739
21
0.600942
0
LINE
8
BLACK
6
CONTINUOUS
10
0.837739
20
0.600942
11
0.837739
21
0.609889
0
LINE
8
BLACK
6
CONTINUOUS
10
0.837739
20
0.609889
11
0.833193
21
0.609889
0
LINE
8
BLACK
6
CONTINUOUS
10
0.833193
20
0.609889
11
0.832183
21
0.610067
0
LINE
8
BLACK
6
CONTINUOUS
10
0.832183
20
0.610067
11
0.830636
21
0.611366
0
LINE
8
BLACK
6
CONTINUOUS
10
0.830636
20
0.611366
11
0.830285
21
0.613355
0
LINE
8
BLACK
6
CONTINUOUS
10
0.830285
20
0.613355
11
0.831295
21
0.615104
0
LINE
8
BLACK
6
CONTINUOUS
10
0.831295
20
0.615104
11
0.833193
21
0.615795
0
LINE
8
BLACK
6
CONTINUOUS
10
0.833193
20
0.615795
11
0.840692
21
0.615795
0
LINE
8
BLACK
6
CONTINUOUS
10
0.840692
20
0.615795
11
0.841075
21
0.615727
0
LINE
8
BLACK
6
CONTINUOUS
10
0.841075
20
0.615727
11
0.841205
21
0.61575
0
LINE
8
BLACK
6
CONTINUOUS
10
0.841205
20
0.61575
11
0.841318
21
0.615684
0
LINE
8
BLACK
6
CONTINUOUS
10
0.841318
20
0.615684
11
0.841702
21
0.615617
0
LINE
8
BLACK
6
CONTINUOUS
10
0.841702
20
0.615617
11
0.842289
21
0.615124
0
LINE
8
BLACK
6
CONTINUOUS
10
0.842289
20
0.615124
11
0.842954
21
0.61474
0
LINE
8
BLACK
6
CONTINUOUS
10
0.842954
20
0.61474
11
0.843045
21
0.61449
0
LINE
8
BLACK
6
CONTINUOUS
10
0.843045
20
0.61449
11
0.843249
21
0.614319
0
LINE
8
BLACK
6
CONTINUOUS
10
0.843249
20
0.614319
11
0.843382
21
0.613563
0
LINE
8
BLACK
6
CONTINUOUS
10
0.843382
20
0.613563
11
0.843645
21
0.612842
0
LINE
8
BLACK
6
CONTINUOUS
10
0.843645
20
0.612842
11
0.843645
21
0.599719
0
LINE
8
BLACK
6
CONTINUOUS
10
0.843645
20
0.599719
11
0.843613
21
0.599538
0
LINE
8
BLACK
6
CONTINUOUS
10
0.843613
20
0.599538
11
0.843633
21
0.599461
0
LINE
8
BLACK
6
CONTINUOUS
10
0.843633
20
0.599461
11
0.843578
21
0.599344
0
LINE
8
BLACK
6
CONTINUOUS
10
0.843578
20
0.599344
11
0.843466
21
0.598709
0
LINE
8
BLACK
6
CONTINUOUS
10
0.843466
20
0.598709
11
0.843052
21
0.598215
0
LINE
8
BLACK
6
CONTINUOUS
10
0.843052
20
0.598215
11
0.84278
21
0.597631
0
LINE
8
BLACK
6
CONTINUOUS
10
0.84278
20
0.597631
11
0.840905
21
0.595756
0
LINE
8
BLACK
6
CONTINUOUS
10
0.840905
20
0.595756
11
0.840065
21
0.595168
0
LINE
8
BLACK
6
CONTINUOUS
10
0.840065
20
0.595168
11
0.839889
21
0.595153
0
LINE
8
BLACK
6
CONTINUOUS
10
0.839889
20
0.595153
11
0.839751
21
0.595043
0
LINE
8
BLACK
6
CONTINUOUS
10
0.839751
20
0.595043
11
0.834126
21
0.593168
0
LINE
8
BLACK
6
CONTINUOUS
10
0.834126
20
0.593168
11
0.833253
21
0.593039
0
LINE
8
BLACK
6
CONTINUOUS
10
0.833253
20
0.593039
11
0.833193
21
0.593017
0
LINE
8
BLACK
6
CONTINUOUS
10
0.833193
20
0.593017
11
0.829443
21
0.593017
0
LINE
8
BLACK
6
CONTINUOUS
10
0.829443
20
0.593017
11
0.828574
21
0.59317
0
LINE
8
BLACK
6
CONTINUOUS
10
0.828574
20
0.59317
11
0.828509
21
0.593168
0
LINE
8
BLACK
6
CONTINUOUS
10
0.828509
20
0.593168
11
0.822885
21
0.595043
0
LINE
8
BLACK
6
CONTINUOUS
10
0.822885
20
0.595043
11
0.821983
21
0.595531
0
LINE
8
BLACK
6
CONTINUOUS
10
0.821983
20
0.595531
11
0.821891
21
0.595681
0
LINE
8
BLACK
6
CONTINUOUS
10
0.821891
20
0.595681
11
0.821731
21
0.595756
0
LINE
8
BLACK
6
CONTINUOUS
10
0.821731
20
0.595756
11
0.817981
21
0.599506
0
LINE
8
BLACK
6
CONTINUOUS
10
0.817981
20
0.599506
11
0.817475
21
0.600229
0
LINE
8
BLACK
6
CONTINUOUS
10
0.817475
20
0.600229
11
0.817428
21
0.600273
0
LINE
8
BLACK
6
CONTINUOUS
10
0.817428
20
0.600273
11
0.815554
21
0.604023
0
LINE
8
BLACK
6
CONTINUOUS
10
0.815554
20
0.604023
11
0.815408
21
0.604511
0
LINE
8
BLACK
6
CONTINUOUS
10
0.815408
20
0.604511
11
0.81533
21
0.604627
0
LINE
8
BLACK
6
CONTINUOUS
10
0.81533
20
0.604627
11
0.813455
21
0.612126
0
LINE
8
BLACK
6
CONTINUOUS
10
0.813455
20
0.612126
11
0.813414
21
0.612714
0
LINE
8
BLACK
6
CONTINUOUS
10
0.813414
20
0.612714
11
0.813367
21
0.612842
0
LINE
8
BLACK
6
CONTINUOUS
10
0.813367
20
0.612842
11
0.813367
21
0.618466
0
LINE
8
BLACK
6
CONTINUOUS
10
0.813367
20
0.618466
11
0.813469
21
0.619047
0
LINE
8
BLACK
6
CONTINUOUS
10
0.813469
20
0.619047
11
0.813455
21
0.619183
0
LINE
8
BLACK
6
CONTINUOUS
10
0.813455
20
0.619183
11
0.81533
21
0.626682
0
LINE
8
BLACK
6
CONTINUOUS
10
0.81533
20
0.626682
11
0.815538
21
0.627147
0
LINE
8
BLACK
6
CONTINUOUS
10
0.815538
20
0.627147
11
0.815554
21
0.627286
0
LINE
8
BLACK
6
CONTINUOUS
10
0.815554
20
0.627286
11
0.817428
21
0.631036
0
LINE
8
BLACK
6
CONTINUOUS
10
0.817428
20
0.631036
11
0.817954
21
0.631745
0
LINE
8
BLACK
6
CONTINUOUS
10
0.817954
20
0.631745
11
0.817981
21
0.631803
0
LINE
8
BLACK
6
CONTINUOUS
10
0.817981
20
0.631803
11
0.821731
21
0.635553
0
LINE
8
BLACK
6
CONTINUOUS
10
0.821731
20
0.635553
11
0.822571
21
0.636141
0
LINE
8
BLACK
6
CONTINUOUS
10
0.822571
20
0.636141
11
0.822747
21
0.636156
0
LINE
8
BLACK
6
CONTINUOUS
10
0.822747
20
0.636156
11
0.822885
21
0.636266
0
LINE
8
BLACK
6
CONTINUOUS
10
0.822885
20
0.636266
11
0.828509
21
0.638141
0
LINE
8
BLACK
6
CONTINUOUS
10
0.828509
20
0.638141
11
0.829383
21
0.63827
0
LINE
8
BLACK
6
CONTINUOUS
10
0.829383
20
0.63827
11
0.829443
21
0.638292
0
LINE
8
BLACK
6
CONTINUOUS
10
0.829443
20
0.638292
11
0.835067
21
0.638292
0
LINE
8
BLACK
6
CONTINUOUS
10
0.835067
20
0.638292
11
0.836077
21
0.638114
0
LINE
8
BLACK
6
CONTINUOUS
10
0.914677
20
0.638139
11
0.914741
21
0.638141
0
LINE
8
BLACK
6
CONTINUOUS
10
0.914741
20
0.638141
11
0.920366
21
0.636266
0
LINE
8
BLACK
6
CONTINUOUS
10
0.920366
20
0.636266
11
0.921267
21
0.635777
0
LINE
8
BLACK
6
CONTINUOUS
10
0.921267
20
0.635777
11
0.922325
21
0.634056
0
LINE
8
BLACK
6
CONTINUOUS
10
0.922325
20
0.634056
11
0.922028
21
0.632059
0
LINE
8
BLACK
6
CONTINUOUS
10
0.922028
20
0.632059
11
0.920517
21
0.630719
0
LINE
8
BLACK
6
CONTINUOUS
10
0.920517
20
0.630719
11
0.918498
21
0.630663
0
LINE
8
BLACK
6
CONTINUOUS
10
0.918498
20
0.630663
11
0.913328
21
0.632387
0
LINE
8
BLACK
6
CONTINUOUS
10
0.913328
20
0.632387
11
0.905131
21
0.632387
0
LINE
8
BLACK
6
CONTINUOUS
10
0.905131
20
0.632387
11
0.902433
21
0.631038
0
LINE
8
BLACK
6
CONTINUOUS
10
0.902433
20
0.631038
11
0.901236
21
0.629841
0
LINE
8
BLACK
6
CONTINUOUS
10
0.901236
20
0.629841
11
0.899887
21
0.627143
0
LINE
8
BLACK
6
CONTINUOUS
10
0.899887
20
0.627143
11
0.899887
21
0.624788
0
LINE
8
BLACK
6
CONTINUOUS
10
0.899887
20
0.624788
11
0.901236
21
0.62209
0
LINE
8
BLACK
6
CONTINUOUS
10
0.901236
20
0.62209
11
0.902433
21
0.620893
0
LINE
8
BLACK
6
CONTINUOUS
10
0.902433
20
0.620893
11
0.905464
21
0.619378
0
LINE
8
BLACK
6
CONTINUOUS
10
0.905464
20
0.619378
11
0.912649
21
0.617582
0
LINE
8
BLACK
6
CONTINUOUS
10
0.912649
20
0.617582
11
0.913114
21
0.617374
0
LINE
8
BLACK
6
CONTINUOUS
10
0.913114
20
0.617374
11
0.913253
21
0.617358
0
LINE
8
BLACK
6
CONTINUOUS
10
0.913253
20
0.617358
11
0.917003
21
0.615483
0
LINE
8
BLACK
6
CONTINUOUS
10
0.917003
20
0.615483
11
0.917712
21
0.614957
0
LINE
8
BLACK
6
CONTINUOUS
10
0.917712
20
0.614957
11
0.91777
21
0.61493
0
LINE
8
BLACK
6
CONTINUOUS
10
0.91777
20
0.61493
11
0.919645
21
0.613055
0
LINE
8
BLACK
6
CONTINUOUS
10
0.919645
20
0.613055
11
0.920151
21
0.612332
0
LINE
8
BLACK
6
CONTINUOUS
10
0.920151
20
0.612332
11
0.920198
21
0.612288
0
LINE
8
BLACK
6
CONTINUOUS
10
0.920198
20
0.612288
11
0.922073
21
0.608538
0
LINE
8
BLACK
6
CONTINUOUS
10
0.922073
20
0.608538
11
0.922365
21
0.607555
0
LINE
8
BLACK
6
CONTINUOUS
10
0.922365
20
0.607555
11
0.922324
21
0.607384
0
LINE
8
BLACK
6
CONTINUOUS
10
0.922324
20
0.607384
11
0.922385
21
0.607218
0
LINE
8
BLACK
6
CONTINUOUS
10
0.922385
20
0.607218
11
0.922385
21
0.603468
0
LINE
8
BLACK
6
CONTINUOUS
10
0.922385
20
0.603468
11
0.922207
21
0.602458
0
LINE
8
BLACK
6
CONTINUOUS
10
0.922207
20
0.602458
11
0.922093
21
0.602323
0
LINE
8
BLACK
6
CONTINUOUS
10
0.922093
20
0.602323
11
0.922073
21
0.602148
0
LINE
8
BLACK
6
CONTINUOUS
10
0.922073
20
0.602148
11
0.920198
21
0.598398
0
LINE
8
BLACK
6
CONTINUOUS
10
0.920198
20
0.598398
11
0.919672
21
0.597689
0
LINE
8
BLACK
6
CONTINUOUS
10
0.919672
20
0.597689
11
0.919645
21
0.597631
0
LINE
8
BLACK
6
CONTINUOUS
10
0.919645
20
0.597631
11
0.91777
21
0.595756
0
LINE
8
BLACK
6
CONTINUOUS
10
0.91777
20
0.595756
11
0.917047
21
0.59525
0
LINE
8
BLACK
6
CONTINUOUS
10
0.917047
20
0.59525
11
0.917003
21
0.595203
0
LINE
8
BLACK
6
CONTINUOUS
10
0.917003
20
0.595203
11
0.913253
21
0.593328
0
LINE
8
BLACK
6
CONTINUOUS
10
0.913253
20
0.593328
11
0.91227
21
0.593036
0
LINE
8
BLACK
6
CONTINUOUS
10
0.91227
20
0.593036
11
0.912099
21
0.593077
0
LINE
8
BLACK
6
CONTINUOUS
10
0.912099
20
0.593077
11
0.911933
21
0.593017
0
LINE
8
BLACK
6
CONTINUOUS
10
0.911933
20
0.593017
11
0.902559
21
0.593017
0
LINE
8
BLACK
6
CONTINUOUS
10
0.902559
20
0.593017
11
0.90169
21
0.59317
0
LINE
8
BLACK
6
CONTINUOUS
10
0.90169
20
0.59317
11
0.901625
21
0.593168
0
LINE
8
BLACK
6
CONTINUOUS
10
0.901625
20
0.593168
11
0.896001
21
0.595043
0
LINE
8
BLACK
6
CONTINUOUS
10
0.896001
20
0.595043
11
0.895099
21
0.595531
0
LINE
8
BLACK
6
CONTINUOUS
10
0.895099
20
0.595531
11
0.894042
21
0.597252
0
LINE
8
BLACK
6
CONTINUOUS
10
0.894042
20
0.597252
11
0.894338
21
0.59925
0
LINE
8
BLACK
6
CONTINUOUS
10
0.894338
20
0.59925
11
0.895849
21
0.60059
0
LINE
8
BLACK
6
CONTINUOUS
10
0.895849
20
0.60059
11
0.897868
21
0.600645
0
LINE
8
BLACK
6
CONTINUOUS
10
0.897868
20
0.600645
11
0.903038
21
0.598922
0
LINE
8
BLACK
6
CONTINUOUS
10
0.903038
20
0.598922
11
0.911236
21
0.598922
0
LINE
8
BLACK
6
CONTINUOUS
10
0.911236
20
0.598922
11
0.913933
21
0.600271
0
LINE
8
BLACK
6
CONTINUOUS
10
0.913933
20
0.600271
11
0.91513
21
0.601468
0
LINE
8
BLACK
6
CONTINUOUS
10
0.91513
20
0.601468
11
0.916479
21
0.604165
0
LINE
8
BLACK
6
CONTINUOUS
10
0.916479
20
0.604165
11
0.916479
21
0.606521
0
LINE
8
BLACK
6
CONTINUOUS
10
0.916479
20
0.606521
11
0.91513
21
0.609218
0
LINE
8
BLACK
6
CONTINUOUS
10
0.91513
20
0.609218
11
0.913933
21
0.610415
0
LINE
8
BLACK
6
CONTINUOUS
10
0.913933
20
0.610415
11
0.910902
21
0.611931
0
LINE
8
BLACK
6
CONTINUOUS
10
0.910902
20
0.611931
11
0.903718
21
0.613727
0
LINE
8
BLACK
6
CONTINUOUS
10
0.903718
20
0.613727
11
0.903252
21
0.613935
0
LINE
8
BLACK
6
CONTINUOUS
10
0.903252
20
0.613935
11
0.903113
21
0.613951
0
LINE
8
BLACK
6
CONTINUOUS
10
0.903113
20
0.613951
11
0.899364
21
0.615825
0
LINE
8
BLACK
6
CONTINUOUS
10
0.899364
20
0.615825
11
0.898655
21
0.616351
0
LINE
8
BLACK
6
CONTINUOUS
10
0.898655
20
0.616351
11
0.898596
21
0.616379
0
LINE
8
BLACK
6
CONTINUOUS
10
0.898596
20
0.616379
11
0.896722
21
0.618253
0
LINE
8
BLACK
6
CONTINUOUS
10
0.896722
20
0.618253
11
0.896215
21
0.618976
0
LINE
8
BLACK
6
CONTINUOUS
10
0.896215
20
0.618976
11
0.896168
21
0.619021
0
LINE
8
BLACK
6
CONTINUOUS
10
0.896168
20
0.619021
11
0.894294
21
0.62277
0
LINE
8
BLACK
6
CONTINUOUS
10
0.894294
20
0.62277
11
0.894001
21
0.623753
0
LINE
8
BLACK
6
CONTINUOUS
10
0.894001
20
0.623753
11
0.894042
21
0.623925
0
LINE
8
BLACK
6
CONTINUOUS
10
0.894042
20
0.623925
11
0.893982
21
0.624091
0
LINE
8
BLACK
6
CONTINUOUS
10
0.893982
20
0.624091
11
0.893982
21
0.62784
0
LINE
8
BLACK
6
CONTINUOUS
10
0.893982
20
0.62784
11
0.89416
21
0.62885
0
LINE
8
BLACK
6
CONTINUOUS
10
0.89416
20
0.62885
11
0.894274
21
0.628985
0
LINE
8
BLACK
6
CONTINUOUS
10
0.894274
20
0.628985
11
0.894294
21
0.629161
0
LINE
8
BLACK
6
CONTINUOUS
10
0.894294
20
0.629161
11
0.896168
21
0.63291
0
LINE
8
BLACK
6
CONTINUOUS
10
0.896168
20
0.63291
11
0.896694
21
0.633619
0
LINE
8
BLACK
6
CONTINUOUS
10
0.896694
20
0.633619
11
0.896722
21
0.633678
0
LINE
8
BLACK
6
CONTINUOUS
10
0.896722
20
0.633678
11
0.898596
21
0.635552
0
LINE
8
BLACK
6
CONTINUOUS
10
0.898596
20
0.635552
11
0.899319
21
0.636059
0
LINE
8
BLACK
6
CONTINUOUS
10
0.899319
20
0.636059
11
0.899364
21
0.636106
0
LINE
8
BLACK
6
CONTINUOUS
10
0.899364
20
0.636106
11
0.903113
21
0.63798
0
LINE
8
BLACK
6
CONTINUOUS
10
0.903113
20
0.63798
11
0.904096
21
0.638273
0
LINE
8
BLACK
6
CONTINUOUS
10
0.904096
20
0.638273
11
0.904268
21
0.638232
0
LINE
8
BLACK
6
CONTINUOUS
10
0.904268
20
0.638232
11
0.904434
21
0.638292
0
LINE
8
BLACK
6
CONTINUOUS
10
0.904434
20
0.638292
11
0.913808
21
0.638292
0
LINE
8
BLACK
6
CONTINUOUS
10
0.913808
20
0.638292
11
0.914677
21
0.638139
0
LINE
8
BLACK
6
CONTINUOUS
10
0.882324
20
0.637237
11
0.883015
21
0.635339
0
LINE
8
BLACK
6
CONTINUOUS
10
0.883015
20
0.635339
11
0.883015
21
0.595969
0
LINE
8
BLACK
6
CONTINUOUS
10
0.883015
20
0.595969
11
0.882837
21
0.594959
0
LINE
8
BLACK
6
CONTINUOUS
10
0.882837
20
0.594959
11
0.881538
21
0.593412
0
LINE
8
BLACK
6
CONTINUOUS
10
0.881538
20
0.593412
11
0.879549
21
0.593061
0
LINE
8
BLACK
6
CONTINUOUS
10
0.879549
20
0.593061
11
0.8778
21
0.594071
0
LINE
8
BLACK
6
CONTINUOUS
10
0.8778
20
0.594071
11
0.877109
21
0.595969
0
LINE
8
BLACK
6
CONTINUOUS
10
0.877109
20
0.595969
11
0.877109
21
0.613639
0
LINE
8
BLACK
6
CONTINUOUS
10
0.877109
20
0.613639
11
0.860517
21
0.613639
0
LINE
8
BLACK
6
CONTINUOUS
10
0.860517
20
0.613639
11
0.860517
21
0.595969
0
LINE
8
BLACK
6
CONTINUOUS
10
0.860517
20
0.595969
11
0.860339
21
0.594959
0
LINE
8
BLACK
6
CONTINUOUS
10
0.860339
20
0.594959
11
0.859041
21
0.593412
0
LINE
8
BLACK
6
CONTINUOUS
10
0.859041
20
0.593412
11
0.857052
21
0.593061
0
LINE
8
BLACK
6
CONTINUOUS
10
0.857052
20
0.593061
11
0.855303
21
0.594071
0
LINE
8
BLACK
6
CONTINUOUS
10
0.855303
20
0.594071
11
0.854612
21
0.595969
0
LINE
8
BLACK
6
CONTINUOUS
10
0.854612
20
0.595969
11
0.854612
21
0.635339
0
LINE
8
BLACK
6
CONTINUOUS
10
0.854612
20
0.635339
11
0.85479
21
0.636349
0
LINE
8
BLACK
6
CONTINUOUS
10
0.85479
20
0.636349
11
0.856088
21
0.637897
0
LINE
8
BLACK
6
CONTINUOUS
10
0.856088
20
0.637897
11
0.858077
21
0.638247
0
LINE
8
BLACK
6
CONTINUOUS
10
0.858077
20
0.638247
11
0.859827
21
0.637237
0
LINE
8
BLACK
6
CONTINUOUS
10
0.859827
20
0.637237
11
0.860517
21
0.635339
0
LINE
8
BLACK
6
CONTINUOUS
10
0.860517
20
0.635339
11
0.860517
21
0.619544
0
LINE
8
BLACK
6
CONTINUOUS
10
0.860517
20
0.619544
11
0.877109
21
0.619544
0
LINE
8
BLACK
6
CONTINUOUS
10
0.877109
20
0.619544
11
0.877109
21
0.635339
0
LINE
8
BLACK
6
CONTINUOUS
10
0.877109
20
0.635339
11
0.877287
21
0.636349
0
LINE
8
BLACK
6
CONTINUOUS
10
0.877287
20
0.636349
11
0.878585
21
0.637897
0
LINE
8
BLACK
6
CONTINUOUS
10
0.878585
20
0.637897
11
0.880575
21
0.638247
0
LINE
8
BLACK
6
CONTINUOUS
10
0.880575
20
0.638247
11
0.882324
21
0.637237
0
LINE
8
BLACK
6
CONTINUOUS
10
1.00293
20
0.638114
11
1.00448
21
0.636816
0
LINE
8
BLACK
6
CONTINUOUS
10
1.00448
20
0.636816
11
1.00483
21
0.634827
0
LINE
8
BLACK
6
CONTINUOUS
10
1.00483
20
0.634827
11
1.00382
21
0.633077
0
LINE
8
BLACK
6
CONTINUOUS
10
1.00382
20
0.633077
11
1.00192
21
0.632387
0
LINE
8
BLACK
6
CONTINUOUS
10
1.00192
20
0.632387
11
0.993626
21
0.632387
0
LINE
8
BLACK
6
CONTINUOUS
10
0.993626
20
0.632387
11
0.993626
21
0.595969
0
LINE
8
BLACK
6
CONTINUOUS
10
0.993626
20
0.595969
11
0.993448
21
0.594959
0
LINE
8
BLACK
6
CONTINUOUS
10
0.993448
20
0.594959
11
0.992149
21
0.593412
0
LINE
8
BLACK
6
CONTINUOUS
10
0.992149
20
0.593412
11
0.99016
21
0.593061
0
LINE
8
BLACK
6
CONTINUOUS
10
0.99016
20
0.593061
11
0.988411
21
0.594071
0
LINE
8
BLACK
6
CONTINUOUS
10
0.988411
20
0.594071
11
0.98772
21
0.595969
0
LINE
8
BLACK
6
CONTINUOUS
10
0.98772
20
0.595969
11
0.98772
21
0.632387
0
LINE
8
BLACK
6
CONTINUOUS
10
0.98772
20
0.632387
11
0.979424
21
0.632387
0
LINE
8
BLACK
6
CONTINUOUS
10
0.979424
20
0.632387
11
0.978414
21
0.632565
0
LINE
8
BLACK
6
CONTINUOUS
10
0.978414
20
0.632565
11
0.976867
21
0.633863
0
LINE
8
BLACK
6
CONTINUOUS
10
0.976867
20
0.633863
11
0.976516
21
0.635852
0
LINE
8
BLACK
6
CONTINUOUS
10
0.976516
20
0.635852
11
0.977526
21
0.637601
0
LINE
8
BLACK
6
CONTINUOUS
10
0.977526
20
0.637601
11
0.979424
21
0.638292
0
LINE
8
BLACK
6
CONTINUOUS
10
0.979424
20
0.638292
11
1.00192
21
0.638292
0
LINE
8
BLACK
6
CONTINUOUS
10
1.00192
20
0.638292
11
1.00293
21
0.638114
0
LINE
8
BLACK
6
CONTINUOUS
10
0.636467
20
0.638179
11
0.636855
21
0.638247
0
LINE
8
BLACK
6
CONTINUOUS
10
0.636855
20
0.638247
11
0.637414
21
0.637925
0
LINE
8
BLACK
6
CONTINUOUS
10
0.637414
20
0.637925
11
0.638037
21
0.637758
0
LINE
8
BLACK
6
CONTINUOUS
10
0.638037
20
0.637758
11
0.638263
21
0.637434
0
LINE
8
BLACK
6
CONTINUOUS
10
0.638263
20
0.637434
11
0.638604
21
0.637237
0
LINE
8
BLACK
6
CONTINUOUS
10
0.638604
20
0.637237
11
0.638825
21
0.636631
0
LINE
8
BLACK
6
CONTINUOUS
10
0.638825
20
0.636631
11
0.639195
21
0.636103
0
LINE
8
BLACK
6
CONTINUOUS
10
0.639195
20
0.636103
11
0.63916
21
0.63571
0
LINE
8
BLACK
6
CONTINUOUS
10
0.63916
20
0.63571
11
0.639295
21
0.635339
0
LINE
8
BLACK
6
CONTINUOUS
10
0.639295
20
0.635339
11
0.639295
21
0.595969
0
LINE
8
BLACK
6
CONTINUOUS
10
0.639295
20
0.595969
11
0.639117
21
0.594959
0
LINE
8
BLACK
6
CONTINUOUS
10
0.639117
20
0.594959
11
0.637819
21
0.593412
0
LINE
8
BLACK
6
CONTINUOUS
10
0.637819
20
0.593412
11
0.63583
21
0.593061
0
LINE
8
BLACK
6
CONTINUOUS
10
0.63583
20
0.593061
11
0.63408
21
0.594071
0
LINE
8
BLACK
6
CONTINUOUS
10
0.63408
20
0.594071
11
0.63339
21
0.595969
0
LINE
8
BLACK
6
CONTINUOUS
10
0.63339
20
0.595969
11
0.63339
21
0.62203
0
LINE
8
BLACK
6
CONTINUOUS
10
0.63339
20
0.62203
11
0.625895
21
0.605969
0
LINE
8
BLACK
6
CONTINUOUS
10
0.625895
20
0.605969
11
0.625672
21
0.605651
0
LINE
8
BLACK
6
CONTINUOUS
10
0.625672
20
0.605651
11
0.625638
21
0.605525
0
LINE
8
BLACK
6
CONTINUOUS
10
0.625638
20
0.605525
11
0.625531
21
0.605449
0
LINE
8
BLACK
6
CONTINUOUS
10
0.625531
20
0.605449
11
0.625306
21
0.605129
0
LINE
8
BLACK
6
CONTINUOUS
10
0.625306
20
0.605129
11
0.624612
21
0.604806
0
LINE
8
BLACK
6
CONTINUOUS
10
0.624612
20
0.604806
11
0.623984
21
0.604366
0
LINE
8
BLACK
6
CONTINUOUS
10
0.623984
20
0.604366
11
0.623718
21
0.604389
0
LINE
8
BLACK
6
CONTINUOUS
10
0.623718
20
0.604389
11
0.623475
21
0.604276
0
LINE
8
BLACK
6
CONTINUOUS
10
0.623475
20
0.604276
11
0.622735
21
0.604475
0
LINE
8
BLACK
6
CONTINUOUS
10
0.622735
20
0.604475
11
0.621972
21
0.604541
0
LINE
8
BLACK
6
CONTINUOUS
10
0.621972
20
0.604541
11
0.621783
21
0.60473
0
LINE
8
BLACK
6
CONTINUOUS
10
0.621783
20
0.60473
11
0.621525
21
0.6048
0
LINE
8
BLACK
6
CONTINUOUS
10
0.621525
20
0.6048
11
0.621085
21
0.605427
0
LINE
8
BLACK
6
CONTINUOUS
10
0.621085
20
0.605427
11
0.620543
21
0.605969
0
LINE
8
BLACK
6
CONTINUOUS
10
0.620543
20
0.605969
11
0.613048
21
0.62203
0
LINE
8
BLACK
6
CONTINUOUS
10
0.613048
20
0.62203
11
0.613048
21
0.595969
0
LINE
8
BLACK
6
CONTINUOUS
10
0.613048
20
0.595969
11
0.61287
21
0.594959
0
LINE
8
BLACK
6
CONTINUOUS
10
0.61287
20
0.594959
11
0.611572
21
0.593412
0
LINE
8
BLACK
6
CONTINUOUS
10
0.611572
20
0.593412
11
0.609583
21
0.593061
0
LINE
8
BLACK
6
CONTINUOUS
10
0.609583
20
0.593061
11
0.607834
21
0.594071
0
LINE
8
BLACK
6
CONTINUOUS
10
0.607834
20
0.594071
11
0.607143
21
0.595969
0
LINE
8
BLACK
6
CONTINUOUS
10
0.607143
20
0.595969
11
0.607143
21
0.635339
0
LINE
8
BLACK
6
CONTINUOUS
10
0.607143
20
0.635339
11
0.607321
21
0.636349
0
LINE
8
BLACK
6
CONTINUOUS
10
0.607321
20
0.636349
11
0.607574
21
0.636651
0
LINE
8
BLACK
6
CONTINUOUS
10
0.607574
20
0.636651
11
0.607676
21
0.637032
0
LINE
8
BLACK
6
CONTINUOUS
10
0.607676
20
0.637032
11
0.608205
21
0.637402
0
LINE
8
BLACK
6
CONTINUOUS
10
0.608205
20
0.637402
11
0.608619
21
0.637897
0
LINE
8
BLACK
6
CONTINUOUS
10
0.608619
20
0.637897
11
0.609008
21
0.637965
0
LINE
8
BLACK
6
CONTINUOUS
10
0.609008
20
0.637965
11
0.609331
21
0.638191
0
LINE
8
BLACK
6
CONTINUOUS
10
0.609331
20
0.638191
11
0.609973
21
0.638135
0
LINE
8
BLACK
6
CONTINUOUS
10
0.609973
20
0.638135
11
0.610608
21
0.638247
0
LINE
8
BLACK
6
CONTINUOUS
10
0.610608
20
0.638247
11
0.61095
21
0.63805
0
LINE
8
BLACK
6
CONTINUOUS
10
0.61095
20
0.63805
11
0.611343
21
0.638016
0
LINE
8
BLACK
6
CONTINUOUS
10
0.611343
20
0.638016
11
0.611799
21
0.63756
0
LINE
8
BLACK
6
CONTINUOUS
10
0.611799
20
0.63756
11
0.612358
21
0.637237
0
LINE
8
BLACK
6
CONTINUOUS
10
0.612358
20
0.637237
11
0.612492
21
0.636867
0
LINE
8
BLACK
6
CONTINUOUS
10
0.612492
20
0.636867
11
0.612771
21
0.636588
0
LINE
8
BLACK
6
CONTINUOUS
10
0.612771
20
0.636588
11
0.623219
21
0.6142
0
LINE
8
BLACK
6
CONTINUOUS
10
0.623219
20
0.6142
11
0.633667
21
0.636588
0
LINE
8
BLACK
6
CONTINUOUS
10
0.633667
20
0.636588
11
0.634255
21
0.637428
0
LINE
8
BLACK
6
CONTINUOUS
10
0.634255
20
0.637428
11
0.634612
21
0.637594
0
LINE
8
BLACK
6
CONTINUOUS
10
0.634612
20
0.637594
11
0.634866
21
0.637897
0
LINE
8
BLACK
6
CONTINUOUS
10
0.634866
20
0.637897
11
0.635501
21
0.638009
0
LINE
8
BLACK
6
CONTINUOUS
10
0.635501
20
0.638009
11
0.636086
21
0.638281
0
LINE
8
BLACK
6
CONTINUOUS
10
0.636086
20
0.638281
11
0.636467
21
0.638179
0
LINE
8
BLACK
6
CONTINUOUS
10
0.70149
20
0.639811
11
0.70283
21
0.638299
0
LINE
8
BLACK
6
CONTINUOUS
10
0.70283
20
0.638299
11
0.702886
21
0.63628
0
LINE
8
BLACK
6
CONTINUOUS
10
0.702886
20
0.63628
11
0.694807
21
0.612045
0
LINE
8
BLACK
6
CONTINUOUS
10
0.694807
20
0.612045
11
0.706505
21
0.612045
0
LINE
8
BLACK
6
CONTINUOUS
10
0.706505
20
0.612045
11
0.706505
21
0.622216
0
LINE
8
BLACK
6
CONTINUOUS
10
0.706505
20
0.622216
11
0.706684
21
0.623226
0
LINE
8
BLACK
6
CONTINUOUS
10
0.706684
20
0.623226
11
0.707982
21
0.624773
0
LINE
8
BLACK
6
CONTINUOUS
10
0.707982
20
0.624773
11
0.709971
21
0.625124
0
LINE
8
BLACK
6
CONTINUOUS
10
0.709971
20
0.625124
11
0.71172
21
0.624114
0
LINE
8
BLACK
6
CONTINUOUS
10
0.71172
20
0.624114
11
0.712411
21
0.622216
0
LINE
8
BLACK
6
CONTINUOUS
10
0.712411
20
0.622216
11
0.712411
21
0.612045
0
LINE
8
BLACK
6
CONTINUOUS
10
0.712411
20
0.612045
11
0.715082
21
0.612045
0
LINE
8
BLACK
6
CONTINUOUS
10
0.715082
20
0.612045
11
0.716092
21
0.611867
0
LINE
8
BLACK
6
CONTINUOUS
10
0.716092
20
0.611867
11
0.71764
21
0.610569
0
LINE
8
BLACK
6
CONTINUOUS
10
0.71764
20
0.610569
11
0.71799
21
0.60858
0
LINE
8
BLACK
6
CONTINUOUS
10
0.71799
20
0.60858
11
0.71698
21
0.606831
0
LINE
8
BLACK
6
CONTINUOUS
10
0.71698
20
0.606831
11
0.715082
21
0.60614
0
LINE
8
BLACK
6
CONTINUOUS
10
0.715082
20
0.60614
11
0.712411
21
0.60614
0
LINE
8
BLACK
6
CONTINUOUS
10
0.712411
20
0.60614
11
0.712411
21
0.595969
0
LINE
8
BLACK
6
CONTINUOUS
10
0.712411
20
0.595969
11
0.712233
21
0.594959
0
LINE
8
BLACK
6
CONTINUOUS
10
0.712233
20
0.594959
11
0.710935
21
0.593412
0
LINE
8
BLACK
6
CONTINUOUS
10
0.710935
20
0.593412
11
0.708945
21
0.593061
0
LINE
8
BLACK
6
CONTINUOUS
10
0.708945
20
0.593061
11
0.707196
21
0.594071
0
LINE
8
BLACK
6
CONTINUOUS
10
0.707196
20
0.594071
11
0.706505
21
0.595969
0
LINE
8
BLACK
6
CONTINUOUS
10
0.706505
20
0.595969
11
0.706505
21
0.60614
0
LINE
8
BLACK
6
CONTINUOUS
10
0.706505
20
0.60614
11
0.690711
21
0.60614
0
LINE
8
BLACK
6
CONTINUOUS
10
0.690711
20
0.60614
11
0.689701
21
0.606318
0
LINE
8
BLACK
6
CONTINUOUS
10
0.689701
20
0.606318
11
0.689528
21
0.606463
0
LINE
8
BLACK
6
CONTINUOUS
10
0.689528
20
0.606463
11
0.689304
21
0.606496
0
LINE
8
BLACK
6
CONTINUOUS
10
0.689304
20
0.606496
11
0.68877
21
0.607099
0
LINE
8
BLACK
6
CONTINUOUS
10
0.68877
20
0.607099
11
0.688153
21
0.607616
0
LINE
8
BLACK
6
CONTINUOUS
10
0.688153
20
0.607616
11
0.688114
21
0.607839
0
LINE
8
BLACK
6
CONTINUOUS
10
0.688114
20
0.607839
11
0.687964
21
0.608007
0
LINE
8
BLACK
6
CONTINUOUS
10
0.687964
20
0.608007
11
0.687942
21
0.608812
0
LINE
8
BLACK
6
CONTINUOUS
10
0.687942
20
0.608812
11
0.687803
21
0.609605
0
LINE
8
BLACK
6
CONTINUOUS
10
0.687803
20
0.609605
11
0.687915
21
0.609801
0
LINE
8
BLACK
6
CONTINUOUS
10
0.687915
20
0.609801
11
0.687909
21
0.610026
0
LINE
8
BLACK
6
CONTINUOUS
10
0.687909
20
0.610026
11
0.697283
21
0.638148
0
LINE
8
BLACK
6
CONTINUOUS
10
0.697283
20
0.638148
11
0.697771
21
0.63905
0
LINE
8
BLACK
6
CONTINUOUS
10
0.697771
20
0.63905
11
0.699492
21
0.640107
0
LINE
8
BLACK
6
CONTINUOUS
10
0.699492
20
0.640107
11
0.70149
21
0.639811
0
LINE
8
BLACK
6
CONTINUOUS
10
0.800457
20
0.613742
11
0.802004
21
0.612444
0
LINE
8
BLACK
6
CONTINUOUS
10
0.802004
20
0.612444
11
0.802355
21
0.610455
0
LINE
8
BLACK
6
CONTINUOUS
10
0.802355
20
0.610455
11
0.801345
21
0.608705
0
LINE
8
BLACK
6
CONTINUOUS
10
0.801345
20
0.608705
11
0.799447
21
0.608015
0
LINE
8
BLACK
6
CONTINUOUS
10
0.799447
20
0.608015
11
0.769451
21
0.608015
0
LINE
8
BLACK
6
CONTINUOUS
10
0.769451
20
0.608015
11
0.768441
21
0.608193
0
LINE
8
BLACK
6
CONTINUOUS
10
0.768441
20
0.608193
11
0.766894
21
0.609491
0
LINE
8
BLACK
6
CONTINUOUS
10
0.766894
20
0.609491
11
0.766543
21
0.61148
0
LINE
8
BLACK
6
CONTINUOUS
10
0.766543
20
0.61148
11
0.767553
21
0.613229
0
LINE
8
BLACK
6
CONTINUOUS
10
0.767553
20
0.613229
11
0.769451
21
0.61392
0
LINE
8
BLACK
6
CONTINUOUS
10
0.769451
20
0.61392
11
0.799447
21
0.61392
0
LINE
8
BLACK
6
CONTINUOUS
10
0.799447
20
0.61392
11
0.800457
21
0.613742
0
LINE
8
BLACK
6
CONTINUOUS
10
0.967311
20
0.613742
11
0.968858
21
0.612444
0
LINE
8
BLACK
6
CONTINUOUS
10
0.968858
20
0.612444
11
0.969209
21
0.610455
0
LINE
8
BLACK
6
CONTINUOUS
10
0.969209
20
0.610455
11
0.968199
21
0.608705
0
LINE
8
BLACK
6
CONTINUOUS
10
0.968199
20
0.608705
11
0.966301
21
0.608015
0
LINE
8
BLACK
6
CONTINUOUS
10
0.966301
20
0.608015
11
0.936305
21
0.608015
0
LINE
8
BLACK
6
CONTINUOUS
10
0.936305
20
0.608015
11
0.935295
21
0.608193
0
LINE
8
BLACK
6
CONTINUOUS
10
0.935295
20
0.608193
11
0.933748
21
0.609491
0
LINE
8
BLACK
6
CONTINUOUS
10
0.933748
20
0.609491
11
0.933397
21
0.61148
0
LINE
8
BLACK
6
CONTINUOUS
10
0.933397
20
0.61148
11
0.934407
21
0.613229
0
LINE
8
BLACK
6
CONTINUOUS
10
0.934407
20
0.613229
11
0.936305
21
0.61392
0
LINE
8
BLACK
6
CONTINUOUS
10
0.936305
20
0.61392
11
0.966301
21
0.61392
0
LINE
8
BLACK
6
CONTINUOUS
10
0.966301
20
0.61392
11
0.967311
21
0.613742
0
LINE
8
BLACK
6
CONTINUOUS
10
0.64034
20
0.669474
11
0.639764
21
0.670866
0
LINE
8
BLACK
6
CONTINUOUS
10
0.639764
20
0.670866
11
0.639764
21
0.830315
0
LINE
8
BLACK
6
CONTINUOUS
10
0.639764
20
0.830315
11
0.64034
21
0.831707
0
LINE
8
BLACK
6
CONTINUOUS
10
0.64034
20
0.831707
11
0.641732
21
0.832283
0
LINE
8
BLACK
6
CONTINUOUS
10
0.641732
20
0.832283
11
0.966535
21
0.832283
0
LINE
8
BLACK
6
CONTINUOUS
10
0.966535
20
0.832283
11
0.967927
21
0.831707
0
LINE
8
BLACK
6
CONTINUOUS
10
0.967927
20
0.831707
11
0.968504
21
0.830315
0
LINE
8
BLACK
6
CONTINUOUS
10
0.968504
20
0.830315
11
0.968504
21
0.670866
0
LINE
8
BLACK
6
CONTINUOUS
10
0.968504
20
0.670866
11
0.967927
21
0.669474
0
LINE
8
BLACK
6
CONTINUOUS
10
0.967927
20
0.669474
11
0.966535
21
0.668898
0
LINE
8
BLACK
6
CONTINUOUS
10
0.966535
20
0.668898
11
0.641732
21
0.668898
0
LINE
8
BLACK
6
CONTINUOUS
10
0.641732
20
0.668898
11
0.64034
21
0.669474
0
LINE
8
BLACK
6
CONTINUOUS
10
0.751019
20
0.828346
11
0.731922
21
0.80134
0
LINE
8
BLACK
6
CONTINUOUS
10
0.731922
20
0.80134
11
0.731634
21
0.801158
0
LINE
8
BLACK
6
CONTINUOUS
10
0.731634
20
0.801158
11
0.731451
21
0.800869
0
LINE
8
BLACK
6
CONTINUOUS
10
0.731451
20
0.800869
11
0.731021
21
0.800771
0
LINE
8
BLACK
6
CONTINUOUS
10
0.731021
20
0.800771
11
0.730648
21
0.800536
0
LINE
8
BLACK
6
CONTINUOUS
10
0.730648
20
0.800536
11
0.730315
21
0.800611
0
LINE
8
BLACK
6
CONTINUOUS
10
0.730315
20
0.800611
11
0.729982
21
0.800536
0
LINE
8
BLACK
6
CONTINUOUS
10
0.729982
20
0.800536
11
0.729609
21
0.800771
0
LINE
8
BLACK
6
CONTINUOUS
10
0.729609
20
0.800771
11
0.729178
21
0.800869
0
LINE
8
BLACK
6
CONTINUOUS
10
0.729178
20
0.800869
11
0.728996
21
0.801158
0
LINE
8
BLACK
6
CONTINUOUS
10
0.728996
20
0.801158
11
0.728708
21
0.80134
0
LINE
8
BLACK
6
CONTINUOUS
10
0.728708
20
0.80134
11
0.709611
21
0.828346
0
LINE
8
BLACK
6
CONTINUOUS
10
0.709611
20
0.828346
11
0.643701
21
0.828346
0
LINE
8
BLACK
6
CONTINUOUS
10
0.643701
20
0.828346
11
0.643701
21
0.672835
0
LINE
8
BLACK
6
CONTINUOUS
10
0.643701
20
0.672835
11
0.964567
21
0.672835
0
LINE
8
BLACK
6
CONTINUOUS
10
0.964567
20
0.672835
11
0.964567
21
0.828346
0
LINE
8
BLACK
6
CONTINUOUS
10
0.964567
20
0.828346
11
0.751019
21
0.828346
0
LINE
8
BLACK
6
CONTINUOUS
10
0.714433
20
0.828346
11
0.730315
21
0.805886
0
LINE
8
BLACK
6
CONTINUOUS
10
0.730315
20
0.805886
11
0.746197
21
0.828346
0
LINE
8
BLACK
6
CONTINUOUS
10
0.746197
20
0.828346
11
0.714433
21
0.828346
0
LINE
8
BLACK
6
CONTINUOUS
10
0.819478
20
0.791761
11
0.819645
21
0.791791
0
LINE
8
BLACK
6
CONTINUOUS
10
0.819645
20
0.791791
11
0.820387
21
0.791362
0
LINE
8
BLACK
6
CONTINUOUS
10
0.820387
20
0.791362
11
0.821172
21
0.791018
0
LINE
8
BLACK
6
CONTINUOUS
10
0.821172
20
0.791018
11
0.821247
21
0.790866
0
LINE
8
BLACK
6
CONTINUOUS
10
0.821247
20
0.790866
11
0.821394
21
0.790781
0
LINE
8
BLACK
6
CONTINUOUS
10
0.821394
20
0.790781
11
0.821687
21
0.789976
0
LINE
8
BLACK
6
CONTINUOUS
10
0.821687
20
0.789976
11
0.822067
21
0.789207
0
LINE
8
BLACK
6
CONTINUOUS
10
0.822067
20
0.789207
11
0.822027
21
0.789042
0
LINE
8
BLACK
6
CONTINUOUS
10
0.822027
20
0.789042
11
0.822085
21
0.788883
0
LINE
8
BLACK
6
CONTINUOUS
10
0.822085
20
0.788883
11
0.822085
21
0.752465
0
LINE
8
BLACK
6
CONTINUOUS
10
0.822085
20
0.752465
11
0.830381
21
0.752465
0
LINE
8
BLACK
6
CONTINUOUS
10
0.830381
20
0.752465
11
0.83139
21
0.752287
0
LINE
8
BLACK
6
CONTINUOUS
10
0.83139
20
0.752287
11
0.832938
21
0.750989
0
LINE
8
BLACK
6
CONTINUOUS
10
0.832938
20
0.750989
11
0.833288
21
0.749
0
LINE
8
BLACK
6
CONTINUOUS
10
0.833288
20
0.749
11
0.832279
21
0.747251
0
LINE
8
BLACK
6
CONTINUOUS
10
0.832279
20
0.747251
11
0.830381
21
0.74656
0
LINE
8
BLACK
6
CONTINUOUS
10
0.830381
20
0.74656
11
0.807883
21
0.74656
0
LINE
8
BLACK
6
CONTINUOUS
10
0.807883
20
0.74656
11
0.806873
21
0.746738
0
LINE
8
BLACK
6
CONTINUOUS
10
0.806873
20
0.746738
11
0.805326
21
0.748036
0
LINE
8
BLACK
6
CONTINUOUS
10
0.805326
20
0.748036
11
0.804975
21
0.750025
0
LINE
8
BLACK
6
CONTINUOUS
10
0.804975
20
0.750025
11
0.805985
21
0.751775
0
LINE
8
BLACK
6
CONTINUOUS
10
0.805985
20
0.751775
11
0.807883
21
0.752465
0
LINE
8
BLACK
6
CONTINUOUS
10
0.807883
20
0.752465
11
0.816179
21
0.752465
0
LINE
8
BLACK
6
CONTINUOUS
10
0.816179
20
0.752465
11
0.816179
21
0.779879
0
LINE
8
BLACK
6
CONTINUOUS
10
0.816179
20
0.779879
11
0.813721
21
0.777421
0
LINE
8
BLACK
6
CONTINUOUS
10
0.813721
20
0.777421
11
0.812998
21
0.776915
0
LINE
8
BLACK
6
CONTINUOUS
10
0.812998
20
0.776915
11
0.812953
21
0.776868
0
LINE
8
BLACK
6
CONTINUOUS
10
0.812953
20
0.776868
11
0.809204
21
0.774993
0
LINE
8
BLACK
6
CONTINUOUS
10
0.809204
20
0.774993
11
0.808221
21
0.774701
0
LINE
8
BLACK
6
CONTINUOUS
10
0.808221
20
0.774701
11
0.806256
21
0.77517
0
LINE
8
BLACK
6
CONTINUOUS
10
0.806256
20
0.77517
11
0.805053
21
0.776792
0
LINE
8
BLACK
6
CONTINUOUS
10
0.805053
20
0.776792
11
0.805174
21
0.778808
0
LINE
8
BLACK
6
CONTINUOUS
10
0.805174
20
0.778808
11
0.806563
21
0.780275
0
LINE
8
BLACK
6
CONTINUOUS
10
0.806563
20
0.780275
11
0.809884
21
0.781936
0
LINE
8
BLACK
6
CONTINUOUS
10
0.809884
20
0.781936
11
0.813088
21
0.78514
0
LINE
8
BLACK
6
CONTINUOUS
10
0.813088
20
0.78514
11
0.816675
21
0.790521
0
LINE
8
BLACK
6
CONTINUOUS
10
0.816675
20
0.790521
11
0.817384
21
0.791262
0
LINE
8
BLACK
6
CONTINUOUS
10
0.817384
20
0.791262
11
0.817546
21
0.79131
0
LINE
8
BLACK
6
CONTINUOUS
10
0.817546
20
0.79131
11
0.817656
21
0.79144
0
LINE
8
BLACK
6
CONTINUOUS
10
0.817656
20
0.79144
11
0.818499
21
0.791589
0
LINE
8
BLACK
6
CONTINUOUS
10
0.818499
20
0.791589
11
0.819322
21
0.791829
0
LINE
8
BLACK
6
CONTINUOUS
10
0.819322
20
0.791829
11
0.819478
21
0.791761
0
LINE
8
BLACK
6
CONTINUOUS
10
0.793272
20
0.790781
11
0.793963
21
0.788883
0
LINE
8
BLACK
6
CONTINUOUS
10
0.793963
20
0.788883
11
0.793963
21
0.760761
0
LINE
8
BLACK
6
CONTINUOUS
10
0.793963
20
0.760761
11
0.79381
21
0.759892
0
LINE
8
BLACK
6
CONTINUOUS
10
0.79381
20
0.759892
11
0.793812
21
0.759827
0
LINE
8
BLACK
6
CONTINUOUS
10
0.793812
20
0.759827
11
0.791937
21
0.754203
0
LINE
8
BLACK
6
CONTINUOUS
10
0.791937
20
0.754203
11
0.791449
21
0.753301
0
LINE
8
BLACK
6
CONTINUOUS
10
0.791449
20
0.753301
11
0.791298
21
0.753209
0
LINE
8
BLACK
6
CONTINUOUS
10
0.791298
20
0.753209
11
0.791224
21
0.753049
0
LINE
8
BLACK
6
CONTINUOUS
10
0.791224
20
0.753049
11
0.787474
21
0.749299
0
LINE
8
BLACK
6
CONTINUOUS
10
0.787474
20
0.749299
11
0.786634
21
0.748711
0
LINE
8
BLACK
6
CONTINUOUS
10
0.786634
20
0.748711
11
0.786458
21
0.748696
0
LINE
8
BLACK
6
CONTINUOUS
10
0.786458
20
0.748696
11
0.78632
21
0.748586
0
LINE
8
BLACK
6
CONTINUOUS
10
0.78632
20
0.748586
11
0.780696
21
0.746711
0
LINE
8
BLACK
6
CONTINUOUS
10
0.780696
20
0.746711
11
0.779822
21
0.746582
0
LINE
8
BLACK
6
CONTINUOUS
10
0.779822
20
0.746582
11
0.779762
21
0.74656
0
LINE
8
BLACK
6
CONTINUOUS
10
0.779762
20
0.74656
11
0.776012
21
0.74656
0
LINE
8
BLACK
6
CONTINUOUS
10
0.776012
20
0.74656
11
0.775002
21
0.746738
0
LINE
8
BLACK
6
CONTINUOUS
10
0.775002
20
0.746738
11
0.773455
21
0.748036
0
LINE
8
BLACK
6
CONTINUOUS
10
0.773455
20
0.748036
11
0.773104
21
0.750025
0
LINE
8
BLACK
6
CONTINUOUS
10
0.773104
20
0.750025
11
0.774114
21
0.751775
0
LINE
8
BLACK
6
CONTINUOUS
10
0.774114
20
0.751775
11
0.776012
21
0.752465
0
LINE
8
BLACK
6
CONTINUOUS
10
0.776012
20
0.752465
11
0.779283
21
0.752465
0
LINE
8
BLACK
6
CONTINUOUS
10
0.779283
20
0.752465
11
0.783791
21
0.753968
0
LINE
8
BLACK
6
CONTINUOUS
10
0.783791
20
0.753968
11
0.786555
21
0.756732
0
LINE
8
BLACK
6
CONTINUOUS
10
0.786555
20
0.756732
11
0.788058
21
0.76124
0
LINE
8
BLACK
6
CONTINUOUS
10
0.788058
20
0.76124
11
0.788058
21
0.788883
0
LINE
8
BLACK
6
CONTINUOUS
10
0.788058
20
0.788883
11
0.788236
21
0.789893
0
LINE
8
BLACK
6
CONTINUOUS
10
0.788236
20
0.789893
11
0.789534
21
0.79144
0
LINE
8
BLACK
6
CONTINUOUS
10
0.789534
20
0.79144
11
0.791523
21
0.791791
0
LINE
8
BLACK
6
CONTINUOUS
10
0.791523
20
0.791791
11
0.793272
21
0.790781
0
LINE
8
BLACK
6
CONTINUOUS
10
0.831944
20
0.996775
11
0.832079
21
0.996662
0
LINE
8
BLACK
6
CONTINUOUS
10
0.832079
20
0.996662
11
0.832254
21
0.996642
0
LINE
8
BLACK
6
CONTINUOUS
10
0.832254
20
0.996642
11
0.836004
21
0.994767
0
LINE
8
BLACK
6
CONTINUOUS
10
0.836004
20
0.994767
11
0.836827
21
0.994156
0
LINE
8
BLACK
6
CONTINUOUS
10
0.836827
20
0.994156
11
0.837631
21
0.992303
0
LINE
8
BLACK
6
CONTINUOUS
10
0.837631
20
0.992303
11
0.837055
21
0.990367
0
LINE
8
BLACK
6
CONTINUOUS
10
0.837055
20
0.990367
11
0.835369
21
0.989254
0
LINE
8
BLACK
6
CONTINUOUS
10
0.835369
20
0.989254
11
0.833363
21
0.989485
0
LINE
8
BLACK
6
CONTINUOUS
10
0.833363
20
0.989485
11
0.830237
21
0.991048
0
LINE
8
BLACK
6
CONTINUOUS
10
0.830237
20
0.991048
11
0.825789
21
0.991048
0
LINE
8
BLACK
6
CONTINUOUS
10
0.825789
20
0.991048
11
0.82128
21
0.989545
0
LINE
8
BLACK
6
CONTINUOUS
10
0.82128
20
0.989545
11
0.818362
21
0.986627
0
LINE
8
BLACK
6
CONTINUOUS
10
0.818362
20
0.986627
11
0.816847
21
0.983596
0
LINE
8
BLACK
6
CONTINUOUS
10
0.816847
20
0.983596
11
0.815139
21
0.976764
0
LINE
8
BLACK
6
CONTINUOUS
10
0.815139
20
0.976764
11
0.815139
21
0.971867
0
LINE
8
BLACK
6
CONTINUOUS
10
0.815139
20
0.971867
11
0.816847
21
0.965035
0
LINE
8
BLACK
6
CONTINUOUS
10
0.816847
20
0.965035
11
0.818362
21
0.962004
0
LINE
8
BLACK
6
CONTINUOUS
10
0.818362
20
0.962004
11
0.82128
21
0.959086
0
LINE
8
BLACK
6
CONTINUOUS
10
0.82128
20
0.959086
11
0.825788
21
0.957583
0
LINE
8
BLACK
6
CONTINUOUS
10
0.825788
20
0.957583
11
0.82858
21
0.957583
0
LINE
8
BLACK
6
CONTINUOUS
10
0.82858
20
0.957583
11
0.833088
21
0.959086
0
LINE
8
BLACK
6
CONTINUOUS
10
0.833088
20
0.959086
11
0.833605
21
0.959603
0
LINE
8
BLACK
6
CONTINUOUS
10
0.833605
20
0.959603
11
0.833605
21
0.968551
0
LINE
8
BLACK
6
CONTINUOUS
10
0.833605
20
0.968551
11
0.829059
21
0.968551
0
LINE
8
BLACK
6
CONTINUOUS
10
0.829059
20
0.968551
11
0.828049
21
0.968729
0
LINE
8
BLACK
6
CONTINUOUS
10
0.828049
20
0.968729
11
0.826502
21
0.970027
0
LINE
8
BLACK
6
CONTINUOUS
10
0.826502
20
0.970027
11
0.826151
21
0.972016
0
LINE
8
BLACK
6
CONTINUOUS
10
0.826151
20
0.972016
11
0.827161
21
0.973766
0
LINE
8
BLACK
6
CONTINUOUS
10
0.827161
20
0.973766
11
0.829059
21
0.974456
0
LINE
8
BLACK
6
CONTINUOUS
10
0.829059
20
0.974456
11
0.836558
21
0.974456
0
LINE
8
BLACK
6
CONTINUOUS
10
0.836558
20
0.974456
11
0.836941
21
0.974389
0
LINE
8
BLACK
6
CONTINUOUS
10
0.836941
20
0.974389
11
0.837071
21
0.974411
0
LINE
8
BLACK
6
CONTINUOUS
10
0.837071
20
0.974411
11
0.837184
21
0.974346
0
LINE
8
BLACK
6
CONTINUOUS
10
0.837184
20
0.974346
11
0.837568
21
0.974278
0
LINE
8
BLACK
6
CONTINUOUS
10
0.837568
20
0.974278
11
0.838156
21
0.973785
0
LINE
8
BLACK
6
CONTINUOUS
10
0.838156
20
0.973785
11
0.83882
21
0.973402
0
LINE
8
BLACK
6
CONTINUOUS
10
0.83882
20
0.973402
11
0.838911
21
0.973151
0
LINE
8
BLACK
6
CONTINUOUS
10
0.838911
20
0.973151
11
0.839115
21
0.97298
0
LINE
8
BLACK
6
CONTINUOUS
10
0.839115
20
0.97298
11
0.839248
21
0.972224
0
LINE
8
BLACK
6
CONTINUOUS
10
0.839248
20
0.972224
11
0.839511
21
0.971504
0
LINE
8
BLACK
6
CONTINUOUS
10
0.839511
20
0.971504
11
0.839511
21
0.95838
0
LINE
8
BLACK
6
CONTINUOUS
10
0.839511
20
0.95838
11
0.839479
21
0.9582
0
LINE
8
BLACK
6
CONTINUOUS
10
0.839479
20
0.9582
11
0.839499
21
0.958123
0
LINE
8
BLACK
6
CONTINUOUS
10
0.839499
20
0.958123
11
0.839445
21
0.958005
0
LINE
8
BLACK
6
CONTINUOUS
10
0.839445
20
0.958005
11
0.839333
21
0.95737
0
LINE
8
BLACK
6
CONTINUOUS
10
0.839333
20
0.95737
11
0.838918
21
0.956876
0
LINE
8
BLACK
6
CONTINUOUS
10
0.838918
20
0.956876
11
0.838646
21
0.956292
0
LINE
8
BLACK
6
CONTINUOUS
10
0.838646
20
0.956292
11
0.836771
21
0.954418
0
LINE
8
BLACK
6
CONTINUOUS
10
0.836771
20
0.954418
11
0.835931
21
0.953829
0
LINE
8
BLACK
6
CONTINUOUS
10
0.835931
20
0.953829
11
0.835755
21
0.953814
0
LINE
8
BLACK
6
CONTINUOUS
10
0.835755
20
0.953814
11
0.835617
21
0.953704
0
LINE
8
BLACK
6
CONTINUOUS
10
0.835617
20
0.953704
11
0.829993
21
0.951829
0
LINE
8
BLACK
6
CONTINUOUS
10
0.829993
20
0.951829
11
0.829119
21
0.9517
0
LINE
8
BLACK
6
CONTINUOUS
10
0.829119
20
0.9517
11
0.829059
21
0.951678
0
LINE
8
BLACK
6
CONTINUOUS
10
0.829059
20
0.951678
11
0.825309
21
0.951678
0
LINE
8
BLACK
6
CONTINUOUS
10
0.825309
20
0.951678
11
0.82444
21
0.951831
0
LINE
8
BLACK
6
CONTINUOUS
10
0.82444
20
0.951831
11
0.824376
21
0.951829
0
LINE
8
BLACK
6
CONTINUOUS
10
0.824376
20
0.951829
11
0.818751
21
0.953704
0
LINE
8
BLACK
6
CONTINUOUS
10
0.818751
20
0.953704
11
0.81785
21
0.954193
0
LINE
8
BLACK
6
CONTINUOUS
10
0.81785
20
0.954193
11
0.817757
21
0.954343
0
LINE
8
BLACK
6
CONTINUOUS
10
0.817757
20
0.954343
11
0.817597
21
0.954418
0
LINE
8
BLACK
6
CONTINUOUS
10
0.817597
20
0.954418
11
0.813848
21
0.958167
0
LINE
8
BLACK
6
CONTINUOUS
10
0.813848
20
0.958167
11
0.813341
21
0.95889
0
LINE
8
BLACK
6
CONTINUOUS
10
0.813341
20
0.95889
11
0.813294
21
0.958934
0
LINE
8
BLACK
6
CONTINUOUS
10
0.813294
20
0.958934
11
0.81142
21
0.962684
0
LINE
8
BLACK
6
CONTINUOUS
10
0.81142
20
0.962684
11
0.811274
21
0.963172
0
LINE
8
BLACK
6
CONTINUOUS
10
0.811274
20
0.963172
11
0.811196
21
0.963288
0
LINE
8
BLACK
6
CONTINUOUS
10
0.811196
20
0.963288
11
0.809321
21
0.970787
0
LINE
8
BLACK
6
CONTINUOUS
10
0.809321
20
0.970787
11
0.80928
21
0.971375
0
LINE
8
BLACK
6
CONTINUOUS
10
0.80928
20
0.971375
11
0.809233
21
0.971504
0
LINE
8
BLACK
6
CONTINUOUS
10
0.809233
20
0.971504
11
0.809233
21
0.977128
0
LINE
8
BLACK
6
CONTINUOUS
10
0.809233
20
0.977128
11
0.809336
21
0.977708
0
LINE
8
BLACK
6
CONTINUOUS
10
0.809336
20
0.977708
11
0.809321
21
0.977844
0
LINE
8
BLACK
6
CONTINUOUS
10
0.809321
20
0.977844
11
0.811196
21
0.985343
0
LINE
8
BLACK
6
CONTINUOUS
10
0.811196
20
0.985343
11
0.811404
21
0.985809
0
LINE
8
BLACK
6
CONTINUOUS
10
0.811404
20
0.985809
11
0.81142
21
0.985947
0
LINE
8
BLACK
6
CONTINUOUS
10
0.81142
20
0.985947
11
0.813294
21
0.989697
0
LINE
8
BLACK
6
CONTINUOUS
10
0.813294
20
0.989697
11
0.81382
21
0.990406
0
LINE
8
BLACK
6
CONTINUOUS
10
0.81382
20
0.990406
11
0.813848
21
0.990464
0
LINE
8
BLACK
6
CONTINUOUS
10
0.813848
20
0.990464
11
0.817597
21
0.994214
0
LINE
8
BLACK
6
CONTINUOUS
10
0.817597
20
0.994214
11
0.818437
21
0.994802
0
LINE
8
BLACK
6
CONTINUOUS
10
0.818437
20
0.994802
11
0.818613
21
0.994818
0
LINE
8
BLACK
6
CONTINUOUS
10
0.818613
20
0.994818
11
0.818751
21
0.994927
0
LINE
8
BLACK
6
CONTINUOUS
10
0.818751
20
0.994927
11
0.824376
21
0.996802
0
LINE
8
BLACK
6
CONTINUOUS
10
0.824376
20
0.996802
11
0.825249
21
0.996931
0
LINE
8
BLACK
6
CONTINUOUS
10
0.825249
20
0.996931
11
0.825309
21
0.996954
0
LINE
8
BLACK
6
CONTINUOUS
10
0.825309
20
0.996954
11
0.830934
21
0.996954
0
LINE
8
BLACK
6
CONTINUOUS
10
0.830934
20
0.996954
11
0.831944
21
0.996775
0
LINE
8
BLACK
6
CONTINUOUS
10
0.910543
20
0.9968
11
0.910608
21
0.996802
0
LINE
8
BLACK
6
CONTINUOUS
10
0.910608
20
0.996802
11
0.916232
21
0.994927
0
LINE
8
BLACK
6
CONTINUOUS
10
0.916232
20
0.994927
11
0.917134
21
0.994439
0
LINE
8
BLACK
6
CONTINUOUS
10
0.917134
20
0.994439
11
0.918191
21
0.992718
0
LINE
8
BLACK
6
CONTINUOUS
10
0.918191
20
0.992718
11
0.917895
21
0.99072
0
LINE
8
BLACK
6
CONTINUOUS
10
0.917895
20
0.99072
11
0.916383
21
0.98938
0
LINE
8
BLACK
6
CONTINUOUS
10
0.916383
20
0.98938
11
0.914364
21
0.989325
0
LINE
8
BLACK
6
CONTINUOUS
10
0.914364
20
0.989325
11
0.909195
21
0.991048
0
LINE
8
BLACK
6
CONTINUOUS
10
0.909195
20
0.991048
11
0.900997
21
0.991048
0
LINE
8
BLACK
6
CONTINUOUS
10
0.900997
20
0.991048
11
0.898299
21
0.989699
0
LINE
8
BLACK
6
CONTINUOUS
10
0.898299
20
0.989699
11
0.897102
21
0.988502
0
LINE
8
BLACK
6
CONTINUOUS
10
0.897102
20
0.988502
11
0.895754
21
0.985805
0
LINE
8
BLACK
6
CONTINUOUS
10
0.895754
20
0.985805
11
0.895754
21
0.983449
0
LINE
8
BLACK
6
CONTINUOUS
10
0.895754
20
0.983449
11
0.897102
21
0.980752
0
LINE
8
BLACK
6
CONTINUOUS
10
0.897102
20
0.980752
11
0.898299
21
0.979555
0
LINE
8
BLACK
6
CONTINUOUS
10
0.898299
20
0.979555
11
0.901331
21
0.978039
0
LINE
8
BLACK
6
CONTINUOUS
10
0.901331
20
0.978039
11
0.908515
21
0.976243
0
LINE
8
BLACK
6
CONTINUOUS
10
0.908515
20
0.976243
11
0.908981
21
0.976035
0
LINE
8
BLACK
6
CONTINUOUS
10
0.908981
20
0.976035
11
0.90912
21
0.976019
0
LINE
8
BLACK
6
CONTINUOUS
10
0.90912
20
0.976019
11
0.912869
21
0.974145
0
LINE
8
BLACK
6
CONTINUOUS
10
0.912869
20
0.974145
11
0.913578
21
0.973619
0
LINE
8
BLACK
6
CONTINUOUS
10
0.913578
20
0.973619
11
0.913636
21
0.973591
0
LINE
8
BLACK
6
CONTINUOUS
10
0.913636
20
0.973591
11
0.915511
21
0.971717
0
LINE
8
BLACK
6
CONTINUOUS
10
0.915511
20
0.971717
11
0.916018
21
0.970994
0
LINE
8
BLACK
6
CONTINUOUS
10
0.916018
20
0.970994
11
0.916064
21
0.970949
0
LINE
8
BLACK
6
CONTINUOUS
10
0.916064
20
0.970949
11
0.917939
21
0.9672
0
LINE
8
BLACK
6
CONTINUOUS
10
0.917939
20
0.9672
11
0.918231
21
0.966217
0
LINE
8
BLACK
6
CONTINUOUS
10
0.918231
20
0.966217
11
0.91819
21
0.966045
0
LINE
8
BLACK
6
CONTINUOUS
10
0.91819
20
0.966045
11
0.918251
21
0.965879
0
LINE
8
BLACK
6
CONTINUOUS
10
0.918251
20
0.965879
11
0.918251
21
0.96213
0
LINE
8
BLACK
6
CONTINUOUS
10
0.918251
20
0.96213
11
0.918073
21
0.96112
0
LINE
8
BLACK
6
CONTINUOUS
10
0.918073
20
0.96112
11
0.917959
21
0.960985
0
LINE
8
BLACK
6
CONTINUOUS
10
0.917959
20
0.960985
11
0.917939
21
0.960809
0
LINE
8
BLACK
6
CONTINUOUS
10
0.917939
20
0.960809
11
0.916064
21
0.95706
0
LINE
8
BLACK
6
CONTINUOUS
10
0.916064
20
0.95706
11
0.915538
21
0.956351
0
LINE
8
BLACK
6
CONTINUOUS
10
0.915538
20
0.956351
11
0.915511
21
0.956292
0
LINE
8
BLACK
6
CONTINUOUS
10
0.915511
20
0.956292
11
0.913636
21
0.954418
0
LINE
8
BLACK
6
CONTINUOUS
10
0.913636
20
0.954418
11
0.912913
21
0.953911
0
LINE
8
BLACK
6
CONTINUOUS
10
0.912913
20
0.953911
11
0.912869
21
0.953864
0
LINE
8
BLACK
6
CONTINUOUS
10
0.912869
20
0.953864
11
0.90912
21
0.95199
0
LINE
8
BLACK
6
CONTINUOUS
10
0.90912
20
0.95199
11
0.908137
21
0.951697
0
LINE
8
BLACK
6
CONTINUOUS
10
0.908137
20
0.951697
11
0.907965
21
0.951738
0
LINE
8
BLACK
6
CONTINUOUS
10
0.907965
20
0.951738
11
0.907799
21
0.951678
0
LINE
8
BLACK
6
CONTINUOUS
10
0.907799
20
0.951678
11
0.898425
21
0.951678
0
LINE
8
BLACK
6
CONTINUOUS
10
0.898425
20
0.951678
11
0.897556
21
0.951831
0
LINE
8
BLACK
6
CONTINUOUS
10
0.897556
20
0.951831
11
0.897491
21
0.951829
0
LINE
8
BLACK
6
CONTINUOUS
10
0.897491
20
0.951829
11
0.891867
21
0.953704
0
LINE
8
BLACK
6
CONTINUOUS
10
0.891867
20
0.953704
11
0.890965
21
0.954193
0
LINE
8
BLACK
6
CONTINUOUS
10
0.890965
20
0.954193
11
0.889908
21
0.955914
0
LINE
8
BLACK
6
CONTINUOUS
10
0.889908
20
0.955914
11
0.890204
21
0.957911
0
LINE
8
BLACK
6
CONTINUOUS
10
0.890204
20
0.957911
11
0.891716
21
0.959252
0
LINE
8
BLACK
6
CONTINUOUS
10
0.891716
20
0.959252
11
0.893735
21
0.959307
0
LINE
8
BLACK
6
CONTINUOUS
10
0.893735
20
0.959307
11
0.898904
21
0.957583
0
LINE
8
BLACK
6
CONTINUOUS
10
0.898904
20
0.957583
11
0.907102
21
0.957583
0
LINE
8
BLACK
6
CONTINUOUS
10
0.907102
20
0.957583
11
0.909799
21
0.958932
0
LINE
8
BLACK
6
CONTINUOUS
10
0.909799
20
0.958932
11
0.910997
21
0.960129
0
LINE
8
BLACK
6
CONTINUOUS
10
0.910997
20
0.960129
11
0.912345
21
0.962827
0
LINE
8
BLACK
6
CONTINUOUS
10
0.912345
20
0.962827
11
0.912345
21
0.965182
0
LINE
8
BLACK
6
CONTINUOUS
10
0.912345
20
0.965182
11
0.910997
21
0.96788
0
LINE
8
BLACK
6
CONTINUOUS
10
0.910997
20
0.96788
11
0.909799
21
0.969077
0
LINE
8
BLACK
6
CONTINUOUS
10
0.909799
20
0.969077
11
0.906768
21
0.970592
0
LINE
8
BLACK
6
CONTINUOUS
10
0.906768
20
0.970592
11
0.899584
21
0.972389
0
LINE
8
BLACK
6
CONTINUOUS
10
0.899584
20
0.972389
11
0.899118
21
0.972596
0
LINE
8
BLACK
6
CONTINUOUS
10
0.899118
20
0.972596
11
0.898979
21
0.972612
0
LINE
8
BLACK
6
CONTINUOUS
10
0.898979
20
0.972612
11
0.89523
21
0.974487
0
LINE
8
BLACK
6
CONTINUOUS
10
0.89523
20
0.974487
11
0.894521
21
0.975013
0
LINE
8
BLACK
6
CONTINUOUS
10
0.894521
20
0.975013
11
0.894462
21
0.97504
0
LINE
8
BLACK
6
CONTINUOUS
10
0.894462
20
0.97504
11
0.892588
21
0.976915
0
LINE
8
BLACK
6
CONTINUOUS
10
0.892588
20
0.976915
11
0.892081
21
0.977638
0
LINE
8
BLACK
6
CONTINUOUS
10
0.892081
20
0.977638
11
0.892035
21
0.977682
0
LINE
8
BLACK
6
CONTINUOUS
10
0.892035
20
0.977682
11
0.89016
21
0.981432
0
LINE
8
BLACK
6
CONTINUOUS
10
0.89016
20
0.981432
11
0.889867
21
0.982415
0
LINE
8
BLACK
6
CONTINUOUS
10
0.889867
20
0.982415
11
0.889909
21
0.982586
0
LINE
8
BLACK
6
CONTINUOUS
10
0.889909
20
0.982586
11
0.889848
21
0.982752
0
LINE
8
BLACK
6
CONTINUOUS
10
0.889848
20
0.982752
11
0.889848
21
0.986502
0
LINE
8
BLACK
6
CONTINUOUS
10
0.889848
20
0.986502
11
0.890026
21
0.987512
0
LINE
8
BLACK
6
CONTINUOUS
10
0.890026
20
0.987512
11
0.89014
21
0.987647
0
LINE
8
BLACK
6
CONTINUOUS
10
0.89014
20
0.987647
11
0.89016
21
0.987822
0
LINE
8
BLACK
6
CONTINUOUS
10
0.89016
20
0.987822
11
0.892035
21
0.991572
0
LINE
8
BLACK
6
CONTINUOUS
10
0.892035
20
0.991572
11
0.892561
21
0.992281
0
LINE
8
BLACK
6
CONTINUOUS
10
0.892561
20
0.992281
11
0.892588
21
0.992339
0
LINE
8
BLACK
6
CONTINUOUS
10
0.892588
20
0.992339
11
0.894462
21
0.994214
0
LINE
8
BLACK
6
CONTINUOUS
10
0.894462
20
0.994214
11
0.895186
21
0.99472
0
LINE
8
BLACK
6
CONTINUOUS
10
0.895186
20
0.99472
11
0.89523
21
0.994767
0
LINE
8
BLACK
6
CONTINUOUS
10
0.89523
20
0.994767
11
0.898979
21
0.996642
0
LINE
8
BLACK
6
CONTINUOUS
10
0.898979
20
0.996642
11
0.899962
21
0.996934
0
LINE
8
BLACK
6
CONTINUOUS
10
0.899962
20
0.996934
11
0.900134
21
0.996893
0
LINE
8
BLACK
6
CONTINUOUS
10
0.900134
20
0.996893
11
0.9003
21
0.996954
0
LINE
8
BLACK
6
CONTINUOUS
10
0.9003
20
0.996954
11
0.909674
21
0.996954
0
LINE
8
BLACK
6
CONTINUOUS
10
0.909674
20
0.996954
11
0.910543
21
0.9968
0
LINE
8
BLACK
6
CONTINUOUS
10
0.663215
20
0.996775
11
0.66335
21
0.996662
0
LINE
8
BLACK
6
CONTINUOUS
10
0.66335
20
0.996662
11
0.663525
21
0.996642
0
LINE
8
BLACK
6
CONTINUOUS
10
0.663525
20
0.996642
11
0.667275
21
0.994767
0
LINE
8
BLACK
6
CONTINUOUS
10
0.667275
20
0.994767
11
0.667984
21
0.994241
0
LINE
8
BLACK
6
CONTINUOUS
10
0.667984
20
0.994241
11
0.668042
21
0.994214
0
LINE
8
BLACK
6
CONTINUOUS
10
0.668042
20
0.994214
11
0.669917
21
0.992339
0
LINE
8
BLACK
6
CONTINUOUS
10
0.669917
20
0.992339
11
0.670423
21
0.991616
0
LINE
8
BLACK
6
CONTINUOUS
10
0.670423
20
0.991616
11
0.67047
21
0.991572
0
LINE
8
BLACK
6
CONTINUOUS
10
0.67047
20
0.991572
11
0.672345
21
0.987822
0
LINE
8
BLACK
6
CONTINUOUS
10
0.672345
20
0.987822
11
0.67249
21
0.987334
0
LINE
8
BLACK
6
CONTINUOUS
10
0.67249
20
0.987334
11
0.672568
21
0.987218
0
LINE
8
BLACK
6
CONTINUOUS
10
0.672568
20
0.987218
11
0.674443
21
0.979719
0
LINE
8
BLACK
6
CONTINUOUS
10
0.674443
20
0.979719
11
0.674485
21
0.979131
0
LINE
8
BLACK
6
CONTINUOUS
10
0.674485
20
0.979131
11
0.674531
21
0.979003
0
LINE
8
BLACK
6
CONTINUOUS
10
0.674531
20
0.979003
11
0.674531
21
0.969629
0
LINE
8
BLACK
6
CONTINUOUS
10
0.674531
20
0.969629
11
0.674429
21
0.969048
0
LINE
8
BLACK
6
CONTINUOUS
10
0.674429
20
0.969048
11
0.674443
21
0.968913
0
LINE
8
BLACK
6
CONTINUOUS
10
0.674443
20
0.968913
11
0.672568
21
0.961414
0
LINE
8
BLACK
6
CONTINUOUS
10
0.672568
20
0.961414
11
0.672361
21
0.960948
0
LINE
8
BLACK
6
CONTINUOUS
10
0.672361
20
0.960948
11
0.672345
21
0.960809
0
LINE
8
BLACK
6
CONTINUOUS
10
0.672345
20
0.960809
11
0.67047
21
0.95706
0
LINE
8
BLACK
6
CONTINUOUS
10
0.67047
20
0.95706
11
0.669944
21
0.956351
0
LINE
8
BLACK
6
CONTINUOUS
10
0.669944
20
0.956351
11
0.669917
21
0.956292
0
LINE
8
BLACK
6
CONTINUOUS
10
0.669917
20
0.956292
11
0.668042
21
0.954418
0
LINE
8
BLACK
6
CONTINUOUS
10
0.668042
20
0.954418
11
0.667319
21
0.953911
0
LINE
8
BLACK
6
CONTINUOUS
10
0.667319
20
0.953911
11
0.667275
21
0.953864
0
LINE
8
BLACK
6
CONTINUOUS
10
0.667275
20
0.953864
11
0.663525
21
0.95199
0
LINE
8
BLACK
6
CONTINUOUS
10
0.663525
20
0.95199
11
0.662542
21
0.951697
0
LINE
8
BLACK
6
CONTINUOUS
10
0.662542
20
0.951697
11
0.662371
21
0.951738
0
LINE
8
BLACK
6
CONTINUOUS
10
0.662371
20
0.951738
11
0.662205
21
0.951678
0
LINE
8
BLACK
6
CONTINUOUS
10
0.662205
20
0.951678
11
0.658455
21
0.951678
0
LINE
8
BLACK
6
CONTINUOUS
10
0.658455
20
0.951678
11
0.657445
21
0.951856
0
LINE
8
BLACK
6
CONTINUOUS
10
0.657445
20
0.951856
11
0.65731
21
0.951969
0
LINE
8
BLACK
6
CONTINUOUS
10
0.65731
20
0.951969
11
0.657135
21
0.95199
0
LINE
8
BLACK
6
CONTINUOUS
10
0.657135
20
0.95199
11
0.653385
21
0.953864
0
LINE
8
BLACK
6
CONTINUOUS
10
0.653385
20
0.953864
11
0.652676
21
0.95439
0
LINE
8
BLACK
6
CONTINUOUS
10
0.652676
20
0.95439
11
0.652618
21
0.954418
0
LINE
8
BLACK
6
CONTINUOUS
10
0.652618
20
0.954418
11
0.650743
21
0.956292
0
LINE
8
BLACK
6
CONTINUOUS
10
0.650743
20
0.956292
11
0.650237
21
0.957015
0
LINE
8
BLACK
6
CONTINUOUS
10
0.650237
20
0.957015
11
0.65019
21
0.95706
0
LINE
8
BLACK
6
CONTINUOUS
10
0.65019
20
0.95706
11
0.648315
21
0.960809
0
LINE
8
BLACK
6
CONTINUOUS
10
0.648315
20
0.960809
11
0.64817
21
0.961298
0
LINE
8
BLACK
6
CONTINUOUS
10
0.64817
20
0.961298
11
0.648091
21
0.961414
0
LINE
8
BLACK
6
CONTINUOUS
10
0.648091
20
0.961414
11
0.646217
21
0.968913
0
LINE
8
BLACK
6
CONTINUOUS
10
0.646217
20
0.968913
11
0.646175
21
0.969501
0
LINE
8
BLACK
6
CONTINUOUS
10
0.646175
20
0.969501
11
0.646129
21
0.969629
0
LINE
8
BLACK
6
CONTINUOUS
10
0.646129
20
0.969629
11
0.646129
21
0.979003
0
LINE
8
BLACK
6
CONTINUOUS
10
0.646129
20
0.979003
11
0.646231
21
0.979583
0
LINE
8
BLACK
6
CONTINUOUS
10
0.646231
20
0.979583
11
0.646217
21
0.979719
0
LINE
8
BLACK
6
CONTINUOUS
10
0.646217
20
0.979719
11
0.648091
21
0.987218
0
LINE
8
BLACK
6
CONTINUOUS
10
0.648091
20
0.987218
11
0.648299
21
0.987683
0
LINE
8
BLACK
6
CONTINUOUS
10
0.648299
20
0.987683
11
0.648315
21
0.987822
0
LINE
8
BLACK
6
CONTINUOUS
10
0.648315
20
0.987822
11
0.65019
21
0.991572
0
LINE
8
BLACK
6
CONTINUOUS
10
0.65019
20
0.991572
11
0.650716
21
0.992281
0
LINE
8
BLACK
6
CONTINUOUS
10
0.650716
20
0.992281
11
0.650743
21
0.992339
0
LINE
8
BLACK
6
CONTINUOUS
10
0.650743
20
0.992339
11
0.652618
21
0.994214
0
LINE
8
BLACK
6
CONTINUOUS
10
0.652618
20
0.994214
11
0.653341
21
0.99472
0
LINE
8
BLACK
6
CONTINUOUS
10
0.653341
20
0.99472
11
0.653385
21
0.994767
0
LINE
8
BLACK
6
CONTINUOUS
10
0.653385
20
0.994767
11
0.657135
21
0.996642
0
LINE
8
BLACK
6
CONTINUOUS
10
0.657135
20
0.996642
11
0.658118
21
0.996934
0
LINE
8
BLACK
6
CONTINUOUS
10
0.658118
20
0.996934
11
0.658289
21
0.996893
0
LINE
8
BLACK
6
CONTINUOUS
10
0.658289
20
0.996893
11
0.658455
21
0.996954
0
LINE
8
BLACK
6
CONTINUOUS
10
0.658455
20
0.996954
11
0.662205
21
0.996954
0
LINE
8
BLACK
6
CONTINUOUS
10
0.662205
20
0.996954
11
0.663215
21
0.996775
0
LINE
8
BLACK
6
CONTINUOUS
10
0.659152
20
0.991048
11
0.656455
21
0.989699
0
LINE
8
BLACK
6
CONTINUOUS
10
0.656455
20
0.989699
11
0.655258
21
0.988502
0
LINE
8
BLACK
6
CONTINUOUS
10
0.655258
20
0.988502
11
0.653742
21
0.985471
0
LINE
8
BLACK
6
CONTINUOUS
10
0.653742
20
0.985471
11
0.652034
21
0.978639
0
LINE
8
BLACK
6
CONTINUOUS
10
0.652034
20
0.978639
11
0.652034
21
0.969992
0
LINE
8
BLACK
6
CONTINUOUS
10
0.652034
20
0.969992
11
0.653742
21
0.96316
0
LINE
8
BLACK
6
CONTINUOUS
10
0.653742
20
0.96316
11
0.655258
21
0.960129
0
LINE
8
BLACK
6
CONTINUOUS
10
0.655258
20
0.960129
11
0.656455
21
0.958932
0
LINE
8
BLACK
6
CONTINUOUS
10
0.656455
20
0.958932
11
0.659152
21
0.957583
0
LINE
8
BLACK
6
CONTINUOUS
10
0.659152
20
0.957583
11
0.661508
21
0.957583
0
LINE
8
BLACK
6
CONTINUOUS
10
0.661508
20
0.957583
11
0.664205
21
0.958932
0
LINE
8
BLACK
6
CONTINUOUS
10
0.664205
20
0.958932
11
0.665402
21
0.960129
0
LINE
8
BLACK
6
CONTINUOUS
10
0.665402
20
0.960129
11
0.666918
21
0.96316
0
LINE
8
BLACK
6
CONTINUOUS
10
0.666918
20
0.96316
11
0.668626
21
0.969992
0
LINE
8
BLACK
6
CONTINUOUS
10
0.668626
20
0.969992
11
0.668626
21
0.978639
0
LINE
8
BLACK
6
CONTINUOUS
10
0.668626
20
0.978639
11
0.666918
21
0.985471
0
LINE
8
BLACK
6
CONTINUOUS
10
0.666918
20
0.985471
11
0.665402
21
0.988502
0
LINE
8
BLACK
6
CONTINUOUS
10
0.665402
20
0.988502
11
0.664205
21
0.989699
0
LINE
8
BLACK
6
CONTINUOUS
10
0.664205
20
0.989699
11
0.661508
21
0.991048
0
LINE
8
BLACK
6
CONTINUOUS
10
0.661508
20
0.991048
11
0.659152
21
0.991048
0
LINE
8
BLACK
6
CONTINUOUS
10
0.584334
20
0.9968
11
0.584398
21
0.996802
0
LINE
8
BLACK
6
CONTINUOUS
10
0.584398
20
0.996802
11
0.590023
21
0.994927
0
LINE
8
BLACK
6
CONTINUOUS
10
0.590023
20
0.994927
11
0.590924
21
0.994439
0
LINE
8
BLACK
6
CONTINUOUS
10
0.590924
20
0.994439
11
0.591982
21
0.992718
0
LINE
8
BLACK
6
CONTINUOUS
10
0.591982
20
0.992718
11
0.591685
21
0.99072
0
LINE
8
BLACK
6
CONTINUOUS
10
0.591685
20
0.99072
11
0.590174
21
0.98938
0
LINE
8
BLACK
6
CONTINUOUS
10
0.590174
20
0.98938
11
0.588155
21
0.989325
0
LINE
8
BLACK
6
CONTINUOUS
10
0.588155
20
0.989325
11
0.582985
21
0.991048
0
LINE
8
BLACK
6
CONTINUOUS
10
0.582985
20
0.991048
11
0.574788
21
0.991048
0
LINE
8
BLACK
6
CONTINUOUS
10
0.574788
20
0.991048
11
0.57209
21
0.989699
0
LINE
8
BLACK
6
CONTINUOUS
10
0.57209
20
0.989699
11
0.570893
21
0.988502
0
LINE
8
BLACK
6
CONTINUOUS
10
0.570893
20
0.988502
11
0.569544
21
0.985805
0
LINE
8
BLACK
6
CONTINUOUS
10
0.569544
20
0.985805
11
0.569544
21
0.983449
0
LINE
8
BLACK
6
CONTINUOUS
10
0.569544
20
0.983449
11
0.570893
21
0.980752
0
LINE
8
BLACK
6
CONTINUOUS
10
0.570893
20
0.980752
11
0.57209
21
0.979555
0
LINE
8
BLACK
6
CONTINUOUS
10
0.57209
20
0.979555
11
0.575121
21
0.978039
0
LINE
8
BLACK
6
CONTINUOUS
10
0.575121
20
0.978039
11
0.582306
21
0.976243
0
LINE
8
BLACK
6
CONTINUOUS
10
0.582306
20
0.976243
11
0.582771
21
0.976035
0
LINE
8
BLACK
6
CONTINUOUS
10
0.582771
20
0.976035
11
0.58291
21
0.976019
0
LINE
8
BLACK
6
CONTINUOUS
10
0.58291
20
0.976019
11
0.58666
21
0.974145
0
LINE
8
BLACK
6
CONTINUOUS
10
0.58666
20
0.974145
11
0.587369
21
0.973619
0
LINE
8
BLACK
6
CONTINUOUS
10
0.587369
20
0.973619
11
0.587427
21
0.973591
0
LINE
8
BLACK
6
CONTINUOUS
10
0.587427
20
0.973591
11
0.589302
21
0.971717
0
LINE
8
BLACK
6
CONTINUOUS
10
0.589302
20
0.971717
11
0.589808
21
0.970994
0
LINE
8
BLACK
6
CONTINUOUS
10
0.589808
20
0.970994
11
0.589855
21
0.970949
0
LINE
8
BLACK
6
CONTINUOUS
10
0.589855
20
0.970949
11
0.59173
21
0.9672
0
LINE
8
BLACK
6
CONTINUOUS
10
0.59173
20
0.9672
11
0.592022
21
0.966217
0
LINE
8
BLACK
6
CONTINUOUS
10
0.592022
20
0.966217
11
0.591981
21
0.966045
0
LINE
8
BLACK
6
CONTINUOUS
10
0.591981
20
0.966045
11
0.592042
21
0.965879
0
LINE
8
BLACK
6
CONTINUOUS
10
0.592042
20
0.965879
11
0.592042
21
0.96213
0
LINE
8
BLACK
6
CONTINUOUS
10
0.592042
20
0.96213
11
0.591864
21
0.96112
0
LINE
8
BLACK
6
CONTINUOUS
10
0.591864
20
0.96112
11
0.59175
21
0.960985
0
LINE
8
BLACK
6
CONTINUOUS
10
0.59175
20
0.960985
11
0.59173
21
0.960809
0
LINE
8
BLACK
6
CONTINUOUS
10
0.59173
20
0.960809
11
0.589855
21
0.95706
0
LINE
8
BLACK
6
CONTINUOUS
10
0.589855
20
0.95706
11
0.589329
21
0.956351
0
LINE
8
BLACK
6
CONTINUOUS
10
0.589329
20
0.956351
11
0.589302
21
0.956292
0
LINE
8
BLACK
6
CONTINUOUS
10
0.589302
20
0.956292
11
0.587427
21
0.954418
0
LINE
8
BLACK
6
CONTINUOUS
10
0.587427
20
0.954418
11
0.586704
21
0.953911
0
LINE
8
BLACK
6
CONTINUOUS
10
0.586704
20
0.953911
11
0.58666
21
0.953864
0
LINE
8
BLACK
6
CONTINUOUS
10
0.58666
20
0.953864
11
0.58291
21
0.95199
0
LINE
8
BLACK
6
CONTINUOUS
10
0.58291
20
0.95199
11
0.581927
21
0.951697
0
LINE
8
BLACK
6
CONTINUOUS
10
0.581927
20
0.951697
11
0.581756
21
0.951738
0
LINE
8
BLACK
6
CONTINUOUS
10
0.581756
20
0.951738
11
0.58159
21
0.951678
0
LINE
8
BLACK
6
CONTINUOUS
10
0.58159
20
0.951678
11
0.572216
21
0.951678
0
LINE
8
BLACK
6
CONTINUOUS
10
0.572216
20
0.951678
11
0.571347
21
0.951831
0
LINE
8
BLACK
6
CONTINUOUS
10
0.571347
20
0.951831
11
0.571282
21
0.951829
0
LINE
8
BLACK
6
CONTINUOUS
10
0.571282
20
0.951829
11
0.565658
21
0.953704
0
LINE
8
BLACK
6
CONTINUOUS
10
0.565658
20
0.953704
11
0.564756
21
0.954193
0
LINE
8
BLACK
6
CONTINUOUS
10
0.564756
20
0.954193
11
0.563699
21
0.955914
0
LINE
8
BLACK
6
CONTINUOUS
10
0.563699
20
0.955914
11
0.563995
21
0.957911
0
LINE
8
BLACK
6
CONTINUOUS
10
0.563995
20
0.957911
11
0.565506
21
0.959252
0
LINE
8
BLACK
6
CONTINUOUS
10
0.565506
20
0.959252
11
0.567525
21
0.959307
0
LINE
8
BLACK
6
CONTINUOUS
10
0.567525
20
0.959307
11
0.572695
21
0.957583
0
LINE
8
BLACK
6
CONTINUOUS
10
0.572695
20
0.957583
11
0.580893
21
0.957583
0
LINE
8
BLACK
6
CONTINUOUS
10
0.580893
20
0.957583
11
0.58359
21
0.958932
0
LINE
8
BLACK
6
CONTINUOUS
10
0.58359
20
0.958932
11
0.584787
21
0.960129
0
LINE
8
BLACK
6
CONTINUOUS
10
0.584787
20
0.960129
11
0.586136
21
0.962827
0
LINE
8
BLACK
6
CONTINUOUS
10
0.586136
20
0.962827
11
0.586136
21
0.965182
0
LINE
8
BLACK
6
CONTINUOUS
10
0.586136
20
0.965182
11
0.584787
21
0.96788
0
LINE
8
BLACK
6
CONTINUOUS
10
0.584787
20
0.96788
11
0.58359
21
0.969077
0
LINE
8
BLACK
6
CONTINUOUS
10
0.58359
20
0.969077
11
0.580559
21
0.970592
0
LINE
8
BLACK
6
CONTINUOUS
10
0.580559
20
0.970592
11
0.573375
21
0.972389
0
LINE
8
BLACK
6
CONTINUOUS
10
0.573375
20
0.972389
11
0.572909
21
0.972596
0
LINE
8
BLACK
6
CONTINUOUS
10
0.572909
20
0.972596
11
0.57277
21
0.972612
0
LINE
8
BLACK
6
CONTINUOUS
10
0.57277
20
0.972612
11
0.569021
21
0.974487
0
LINE
8
BLACK
6
CONTINUOUS
10
0.569021
20
0.974487
11
0.568312
21
0.975013
0
LINE
8
BLACK
6
CONTINUOUS
10
0.568312
20
0.975013
11
0.568253
21
0.97504
0
LINE
8
BLACK
6
CONTINUOUS
10
0.568253
20
0.97504
11
0.566379
21
0.976915
0
LINE
8
BLACK
6
CONTINUOUS
10
0.566379
20
0.976915
11
0.565872
21
0.977638
0
LINE
8
BLACK
6
CONTINUOUS
10
0.565872
20
0.977638
11
0.565825
21
0.977682
0
LINE
8
BLACK
6
CONTINUOUS
10
0.565825
20
0.977682
11
0.563951
21
0.981432
0
LINE
8
BLACK
6
CONTINUOUS
10
0.563951
20
0.981432
11
0.563658
21
0.982415
0
LINE
8
BLACK
6
CONTINUOUS
10
0.563658
20
0.982415
11
0.563699
21
0.982586
0
LINE
8
BLACK
6
CONTINUOUS
10
0.563699
20
0.982586
11
0.563639
21
0.982752
0
LINE
8
BLACK
6
CONTINUOUS
10
0.563639
20
0.982752
11
0.563639
21
0.986502
0
LINE
8
BLACK
6
CONTINUOUS
10
0.563639
20
0.986502
11
0.563817
21
0.987512
0
LINE
8
BLACK
6
CONTINUOUS
10
0.563817
20
0.987512
11
0.56393
21
0.987647
0
LINE
8
BLACK
6
CONTINUOUS
10
0.56393
20
0.987647
11
0.563951
21
0.987822
0
LINE
8
BLACK
6
CONTINUOUS
10
0.563951
20
0.987822
11
0.565825
21
0.991572
0
LINE
8
BLACK
6
CONTINUOUS
10
0.565825
20
0.991572
11
0.566351
21
0.992281
0
LINE
8
BLACK
6
CONTINUOUS
10
0.566351
20
0.992281
11
0.566379
21
0.992339
0
LINE
8
BLACK
6
CONTINUOUS
10
0.566379
20
0.992339
11
0.568253
21
0.994214
0
LINE
8
BLACK
6
CONTINUOUS
10
0.568253
20
0.994214
11
0.568976
21
0.99472
0
LINE
8
BLACK
6
CONTINUOUS
10
0.568976
20
0.99472
11
0.569021
21
0.994767
0
LINE
8
BLACK
6
CONTINUOUS
10
0.569021
20
0.994767
11
0.57277
21
0.996642
0
LINE
8
BLACK
6
CONTINUOUS
10
0.57277
20
0.996642
11
0.573753
21
0.996934
0
LINE
8
BLACK
6
CONTINUOUS
10
0.573753
20
0.996934
11
0.573925
21
0.996893
0
LINE
8
BLACK
6
CONTINUOUS
10
0.573925
20
0.996893
11
0.574091
21
0.996954
0
LINE
8
BLACK
6
CONTINUOUS
10
0.574091
20
0.996954
11
0.583465
21
0.996954
0
LINE
8
BLACK
6
CONTINUOUS
10
0.583465
20
0.996954
11
0.584334
21
0.9968
0
LINE
8
BLACK
6
CONTINUOUS
10
0.74008
20
0.996775
11
0.740215
21
0.996662
0
LINE
8
BLACK
6
CONTINUOUS
10
0.740215
20
0.996662
11
0.740391
21
0.996642
0
LINE
8
BLACK
6
CONTINUOUS
10
0.740391
20
0.996642
11
0.74414
21
0.994767
0
LINE
8
BLACK
6
CONTINUOUS
10
0.74414
20
0.994767
11
0.744849
21
0.994241
0
LINE
8
BLACK
6
CONTINUOUS
10
0.744849
20
0.994241
11
0.744908
21
0.994214
0
LINE
8
BLACK
6
CONTINUOUS
10
0.744908
20
0.994214
11
0.746782
21
0.992339
0
LINE
8
BLACK
6
CONTINUOUS
10
0.746782
20
0.992339
11
0.747289
21
0.991616
0
LINE
8
BLACK
6
CONTINUOUS
10
0.747289
20
0.991616
11
0.747335
21
0.991572
0
LINE
8
BLACK
6
CONTINUOUS
10
0.747335
20
0.991572
11
0.74921
21
0.987822
0
LINE
8
BLACK
6
CONTINUOUS
10
0.74921
20
0.987822
11
0.749503
21
0.986839
0
LINE
8
BLACK
6
CONTINUOUS
10
0.749503
20
0.986839
11
0.749462
21
0.986668
0
LINE
8
BLACK
6
CONTINUOUS
10
0.749462
20
0.986668
11
0.749522
21
0.986502
0
LINE
8
BLACK
6
CONTINUOUS
10
0.749522
20
0.986502
11
0.749522
21
0.982752
0
LINE
8
BLACK
6
CONTINUOUS
10
0.749522
20
0.982752
11
0.749344
21
0.981742
0
LINE
8
BLACK
6
CONTINUOUS
10
0.749344
20
0.981742
11
0.74923
21
0.981607
0
LINE
8
BLACK
6
CONTINUOUS
10
0.74923
20
0.981607
11
0.74921
21
0.981432
0
LINE
8
BLACK
6
CONTINUOUS
10
0.74921
20
0.981432
11
0.747335
21
0.977682
0
LINE
8
BLACK
6
CONTINUOUS
10
0.747335
20
0.977682
11
0.74681
21
0.976973
0
LINE
8
BLACK
6
CONTINUOUS
10
0.74681
20
0.976973
11
0.746782
21
0.976915
0
LINE
8
BLACK
6
CONTINUOUS
10
0.746782
20
0.976915
11
0.7459
21
0.976032
0
LINE
8
BLACK
6
CONTINUOUS
10
0.7459
20
0.976032
11
0.74653
21
0.975691
0
LINE
8
BLACK
6
CONTINUOUS
10
0.74653
20
0.975691
11
0.746622
21
0.975541
0
LINE
8
BLACK
6
CONTINUOUS
10
0.746622
20
0.975541
11
0.746782
21
0.975466
0
LINE
8
BLACK
6
CONTINUOUS
10
0.746782
20
0.975466
11
0.748657
21
0.973591
0
LINE
8
BLACK
6
CONTINUOUS
10
0.748657
20
0.973591
11
0.749163
21
0.972868
0
LINE
8
BLACK
6
CONTINUOUS
10
0.749163
20
0.972868
11
0.74921
21
0.972824
0
LINE
8
BLACK
6
CONTINUOUS
10
0.74921
20
0.972824
11
0.751085
21
0.969075
0
LINE
8
BLACK
6
CONTINUOUS
10
0.751085
20
0.969075
11
0.751377
21
0.968092
0
LINE
8
BLACK
6
CONTINUOUS
10
0.751377
20
0.968092
11
0.751336
21
0.96792
0
LINE
8
BLACK
6
CONTINUOUS
10
0.751336
20
0.96792
11
0.751397
21
0.967754
0
LINE
8
BLACK
6
CONTINUOUS
10
0.751397
20
0.967754
11
0.751397
21
0.96213
0
LINE
8
BLACK
6
CONTINUOUS
10
0.751397
20
0.96213
11
0.751219
21
0.96112
0
LINE
8
BLACK
6
CONTINUOUS
10
0.751219
20
0.96112
11
0.751105
21
0.960985
0
LINE
8
BLACK
6
CONTINUOUS
10
0.751105
20
0.960985
11
0.751085
21
0.960809
0
LINE
8
BLACK
6
CONTINUOUS
10
0.751085
20
0.960809
11
0.74921
21
0.95706
0
LINE
8
BLACK
6
CONTINUOUS
10
0.74921
20
0.95706
11
0.748684
21
0.956351
0
LINE
8
BLACK
6
CONTINUOUS
10
0.748684
20
0.956351
11
0.748657
21
0.956292
0
LINE
8
BLACK
6
CONTINUOUS
10
0.748657
20
0.956292
11
0.746782
21
0.954418
0
LINE
8
BLACK
6
CONTINUOUS
10
0.746782
20
0.954418
11
0.746059
21
0.953911
0
LINE
8
BLACK
6
CONTINUOUS
10
0.746059
20
0.953911
11
0.746015
21
0.953864
0
LINE
8
BLACK
6
CONTINUOUS
10
0.746015
20
0.953864
11
0.742265
21
0.95199
0
LINE
8
BLACK
6
CONTINUOUS
10
0.742265
20
0.95199
11
0.741282
21
0.951697
0
LINE
8
BLACK
6
CONTINUOUS
10
0.741282
20
0.951697
11
0.741111
21
0.951738
0
LINE
8
BLACK
6
CONTINUOUS
10
0.741111
20
0.951738
11
0.740945
21
0.951678
0
LINE
8
BLACK
6
CONTINUOUS
10
0.740945
20
0.951678
11
0.725947
21
0.951678
0
LINE
8
BLACK
6
CONTINUOUS
10
0.725947
20
0.951678
11
0.725563
21
0.951746
0
LINE
8
BLACK
6
CONTINUOUS
10
0.725563
20
0.951746
11
0.725434
21
0.951723
0
LINE
8
BLACK
6
CONTINUOUS
10
0.725434
20
0.951723
11
0.72532
21
0.951788
0
LINE
8
BLACK
6
CONTINUOUS
10
0.72532
20
0.951788
11
0.724937
21
0.951856
0
LINE
8
BLACK
6
CONTINUOUS
10
0.724937
20
0.951856
11
0.724349
21
0.952349
0
LINE
8
BLACK
6
CONTINUOUS
10
0.724349
20
0.952349
11
0.723685
21
0.952733
0
LINE
8
BLACK
6
CONTINUOUS
10
0.723685
20
0.952733
11
0.723594
21
0.952983
0
LINE
8
BLACK
6
CONTINUOUS
10
0.723594
20
0.952983
11
0.72339
21
0.953154
0
LINE
8
BLACK
6
CONTINUOUS
10
0.72339
20
0.953154
11
0.723256
21
0.95391
0
LINE
8
BLACK
6
CONTINUOUS
10
0.723256
20
0.95391
11
0.722994
21
0.954631
0
LINE
8
BLACK
6
CONTINUOUS
10
0.722994
20
0.954631
11
0.722994
21
0.994001
0
LINE
8
BLACK
6
CONTINUOUS
10
0.722994
20
0.994001
11
0.723062
21
0.994384
0
LINE
8
BLACK
6
CONTINUOUS
10
0.723062
20
0.994384
11
0.723039
21
0.994514
0
LINE
8
BLACK
6
CONTINUOUS
10
0.723039
20
0.994514
11
0.723104
21
0.994627
0
LINE
8
BLACK
6
CONTINUOUS
10
0.723104
20
0.994627
11
0.723172
21
0.995011
0
LINE
8
BLACK
6
CONTINUOUS
10
0.723172
20
0.995011
11
0.723665
21
0.995598
0
LINE
8
BLACK
6
CONTINUOUS
10
0.723665
20
0.995598
11
0.724049
21
0.996263
0
LINE
8
BLACK
6
CONTINUOUS
10
0.724049
20
0.996263
11
0.724299
21
0.996354
0
LINE
8
BLACK
6
CONTINUOUS
10
0.724299
20
0.996354
11
0.72447
21
0.996558
0
LINE
8
BLACK
6
CONTINUOUS
10
0.72447
20
0.996558
11
0.725226
21
0.996691
0
LINE
8
BLACK
6
CONTINUOUS
10
0.725226
20
0.996691
11
0.725947
21
0.996954
0
LINE
8
BLACK
6
CONTINUOUS
10
0.725947
20
0.996954
11
0.73907
21
0.996954
0
LINE
8
BLACK
6
CONTINUOUS
10
0.73907
20
0.996954
11
0.74008
21
0.996775
0
LINE
8
BLACK
6
CONTINUOUS
10
0.728899
20
0.9723
11
0.728899
21
0.957583
0
LINE
8
BLACK
6
CONTINUOUS
10
0.728899
20
0.957583
11
0.740248
21
0.957583
0
LINE
8
BLACK
6
CONTINUOUS
10
0.740248
20
0.957583
11
0.742945
21
0.958932
0
LINE
8
BLACK
6
CONTINUOUS
10
0.742945
20
0.958932
11
0.744142
21
0.960129
0
LINE
8
BLACK
6
CONTINUOUS
10
0.744142
20
0.960129
11
0.745491
21
0.962827
0
LINE
8
BLACK
6
CONTINUOUS
10
0.745491
20
0.962827
11
0.745491
21
0.967057
0
LINE
8
BLACK
6
CONTINUOUS
10
0.745491
20
0.967057
11
0.744142
21
0.969754
0
LINE
8
BLACK
6
CONTINUOUS
10
0.744142
20
0.969754
11
0.743099
21
0.970798
0
LINE
8
BLACK
6
CONTINUOUS
10
0.743099
20
0.970798
11
0.738591
21
0.9723
0
LINE
8
BLACK
6
CONTINUOUS
10
0.738591
20
0.9723
11
0.728899
21
0.9723
0
LINE
8
BLACK
6
CONTINUOUS
10
0.728899
20
0.991048
11
0.728899
21
0.978206
0
LINE
8
BLACK
6
CONTINUOUS
10
0.728899
20
0.978206
11
0.738373
21
0.978206
0
LINE
8
BLACK
6
CONTINUOUS
10
0.738373
20
0.978206
11
0.741071
21
0.979555
0
LINE
8
BLACK
6
CONTINUOUS
10
0.741071
20
0.979555
11
0.742268
21
0.980752
0
LINE
8
BLACK
6
CONTINUOUS
10
0.742268
20
0.980752
11
0.743616
21
0.983449
0
LINE
8
BLACK
6
CONTINUOUS
10
0.743616
20
0.983449
11
0.743616
21
0.985805
0
LINE
8
BLACK
6
CONTINUOUS
10
0.743616
20
0.985805
11
0.742268
21
0.988502
0
LINE
8
BLACK
6
CONTINUOUS
10
0.742268
20
0.988502
11
0.741071
21
0.989699
0
LINE
8
BLACK
6
CONTINUOUS
10
0.741071
20
0.989699
11
0.738373
21
0.991048
0
LINE
8
BLACK
6
CONTINUOUS
10
0.738373
20
0.991048
11
0.728899
21
0.991048
0
LINE
8
BLACK
6
CONTINUOUS
10
1.02504
20
0.996775
11
1.02518
21
0.996662
0
LINE
8
BLACK
6
CONTINUOUS
10
1.02518
20
0.996662
11
1.02536
21
0.996642
0
LINE
8
BLACK
6
CONTINUOUS
10
1.02536
20
0.996642
11
1.0291
21
0.994767
0
LINE
8
BLACK
6
CONTINUOUS
10
1.0291
20
0.994767
11
1.02981
21
0.994241
0
LINE
8
BLACK
6
CONTINUOUS
10
1.02981
20
0.994241
11
1.02987
21
0.994214
0
LINE
8
BLACK
6
CONTINUOUS
10
1.02987
20
0.994214
11
1.03175
21
0.992339
0
LINE
8
BLACK
6
CONTINUOUS
10
1.03175
20
0.992339
11
1.03225
21
0.991616
0
LINE
8
BLACK
6
CONTINUOUS
10
1.03225
20
0.991616
11
1.0323
21
0.991572
0
LINE
8
BLACK
6
CONTINUOUS
10
1.0323
20
0.991572
11
1.03417
21
0.987822
0
LINE
8
BLACK
6
CONTINUOUS
10
1.03417
20
0.987822
11
1.03447
21
0.986839
0
LINE
8
BLACK
6
CONTINUOUS
10
1.03447
20
0.986839
11
1.03443
21
0.986668
0
LINE
8
BLACK
6
CONTINUOUS
10
1.03443
20
0.986668
11
1.03449
21
0.986502
0
LINE
8
BLACK
6
CONTINUOUS
10
1.03449
20
0.986502
11
1.03449
21
0.982752
0
LINE
8
BLACK
6
CONTINUOUS
10
1.03449
20
0.982752
11
1.03431
21
0.981742
0
LINE
8
BLACK
6
CONTINUOUS
10
1.03431
20
0.981742
11
1.03419
21
0.981607
0
LINE
8
BLACK
6
CONTINUOUS
10
1.03419
20
0.981607
11
1.03417
21
0.981432
0
LINE
8
BLACK
6
CONTINUOUS
10
1.03417
20
0.981432
11
1.0323
21
0.977682
0
LINE
8
BLACK
6
CONTINUOUS
10
1.0323
20
0.977682
11
1.03177
21
0.976973
0
LINE
8
BLACK
6
CONTINUOUS
10
1.03177
20
0.976973
11
1.03175
21
0.976915
0
LINE
8
BLACK
6
CONTINUOUS
10
1.03175
20
0.976915
11
1.03086
21
0.976032
0
LINE
8
BLACK
6
CONTINUOUS
10
1.03086
20
0.976032
11
1.03149
21
0.975691
0
LINE
8
BLACK
6
CONTINUOUS
10
1.03149
20
0.975691
11
1.03159
21
0.975541
0
LINE
8
BLACK
6
CONTINUOUS
10
1.03159
20
0.975541
11
1.03175
21
0.975466
0
LINE
8
BLACK
6
CONTINUOUS
10
1.03175
20
0.975466
11
1.03362
21
0.973591
0
LINE
8
BLACK
6
CONTINUOUS
10
1.03362
20
0.973591
11
1.03413
21
0.972868
0
LINE
8
BLACK
6
CONTINUOUS
10
1.03413
20
0.972868
11
1.03417
21
0.972824
0
LINE
8
BLACK
6
CONTINUOUS
10
1.03417
20
0.972824
11
1.03605
21
0.969075
0
LINE
8
BLACK
6
CONTINUOUS
10
1.03605
20
0.969075
11
1.03634
21
0.968092
0
LINE
8
BLACK
6
CONTINUOUS
10
1.03634
20
0.968092
11
1.0363
21
0.96792
0
LINE
8
BLACK
6
CONTINUOUS
10
1.0363
20
0.96792
11
1.03636
21
0.967754
0
LINE
8
BLACK
6
CONTINUOUS
10
1.03636
20
0.967754
11
1.03636
21
0.96213
0
LINE
8
BLACK
6
CONTINUOUS
10
1.03636
20
0.96213
11
1.03618
21
0.96112
0
LINE
8
BLACK
6
CONTINUOUS
10
1.03618
20
0.96112
11
1.03607
21
0.960985
0
LINE
8
BLACK
6
CONTINUOUS
10
1.03607
20
0.960985
11
1.03605
21
0.960809
0
LINE
8
BLACK
6
CONTINUOUS
10
1.03605
20
0.960809
11
1.03417
21
0.95706
0
LINE
8
BLACK
6
CONTINUOUS
10
1.03417
20
0.95706
11
1.03365
21
0.956351
0
LINE
8
BLACK
6
CONTINUOUS
10
1.03365
20
0.956351
11
1.03362
21
0.956292
0
LINE
8
BLACK
6
CONTINUOUS
10
1.03362
20
0.956292
11
1.03175
21
0.954418
0
LINE
8
BLACK
6
CONTINUOUS
10
1.03175
20
0.954418
11
1.03102
21
0.953911
0
LINE
8
BLACK
6
CONTINUOUS
10
1.03102
20
0.953911
11
1.03098
21
0.953864
0
LINE
8
BLACK
6
CONTINUOUS
10
1.03098
20
0.953864
11
1.02723
21
0.95199
0
LINE
8
BLACK
6
CONTINUOUS
10
1.02723
20
0.95199
11
1.02625
21
0.951697
0
LINE
8
BLACK
6
CONTINUOUS
10
1.02625
20
0.951697
11
1.02608
21
0.951738
0
LINE
8
BLACK
6
CONTINUOUS
10
1.02608
20
0.951738
11
1.02591
21
0.951678
0
LINE
8
BLACK
6
CONTINUOUS
10
1.02591
20
0.951678
11
1.01091
21
0.951678
0
LINE
8
BLACK
6
CONTINUOUS
10
1.01091
20
0.951678
11
1.01053
21
0.951746
0
LINE
8
BLACK
6
CONTINUOUS
10
1.01053
20
0.951746
11
1.0104
21
0.951723
0
LINE
8
BLACK
6
CONTINUOUS
10
1.0104
20
0.951723
11
1.01028
21
0.951788
0
LINE
8
BLACK
6
CONTINUOUS
10
1.01028
20
0.951788
11
1.0099
21
0.951856
0
LINE
8
BLACK
6
CONTINUOUS
10
1.0099
20
0.951856
11
1.00931
21
0.952349
0
LINE
8
BLACK
6
CONTINUOUS
10
1.00931
20
0.952349
11
1.00865
21
0.952733
0
LINE
8
BLACK
6
CONTINUOUS
10
1.00865
20
0.952733
11
1.00856
21
0.952983
0
LINE
8
BLACK
6
CONTINUOUS
10
1.00856
20
0.952983
11
1.00835
21
0.953154
0
LINE
8
BLACK
6
CONTINUOUS
10
1.00835
20
0.953154
11
1.00822
21
0.95391
0
LINE
8
BLACK
6
CONTINUOUS
10
1.00822
20
0.95391
11
1.00796
21
0.954631
0
LINE
8
BLACK
6
CONTINUOUS
10
1.00796
20
0.954631
11
1.00796
21
0.994001
0
LINE
8
BLACK
6
CONTINUOUS
10
1.00796
20
0.994001
11
1.00803
21
0.994384
0
LINE
8
BLACK
6
CONTINUOUS
10
1.00803
20
0.994384
11
1.008
21
0.994514
0
LINE
8
BLACK
6
CONTINUOUS
10
1.008
20
0.994514
11
1.00807
21
0.994627
0
LINE
8
BLACK
6
CONTINUOUS
10
1.00807
20
0.994627
11
1.00814
21
0.995011
0
LINE
8
BLACK
6
CONTINUOUS
10
1.00814
20
0.995011
11
1.00863
21
0.995598
0
LINE
8
BLACK
6
CONTINUOUS
10
1.00863
20
0.995598
11
1.00901
21
0.996263
0
LINE
8
BLACK
6
CONTINUOUS
10
1.00901
20
0.996263
11
1.00926
21
0.996354
0
LINE
8
BLACK
6
CONTINUOUS
10
1.00926
20
0.996354
11
1.00943
21
0.996558
0
LINE
8
BLACK
6
CONTINUOUS
10
1.00943
20
0.996558
11
1.01019
21
0.996691
0
LINE
8
BLACK
6
CONTINUOUS
10
1.01019
20
0.996691
11
1.01091
21
0.996954
0
LINE
8
BLACK
6
CONTINUOUS
10
1.01091
20
0.996954
11
1.02403
21
0.996954
0
LINE
8
BLACK
6
CONTINUOUS
10
1.02403
20
0.996954
11
1.02504
21
0.996775
0
LINE
8
BLACK
6
CONTINUOUS
10
1.01386
20
0.9723
11
1.01386
21
0.957583
0
LINE
8
BLACK
6
CONTINUOUS
10
1.01386
20
0.957583
11
1.02521
21
0.957583
0
LINE
8
BLACK
6
CONTINUOUS
10
1.02521
20
0.957583
11
1.02791
21
0.958932
0
LINE
8
BLACK
6
CONTINUOUS
10
1.02791
20
0.958932
11
1.02911
21
0.960129
0
LINE
8
BLACK
6
CONTINUOUS
10
1.02911
20
0.960129
11
1.03046
21
0.962827
0
LINE
8
BLACK
6
CONTINUOUS
10
1.03046
20
0.962827
11
1.03046
21
0.967057
0
LINE
8
BLACK
6
CONTINUOUS
10
1.03046
20
0.967057
11
1.02911
21
0.969754
0
LINE
8
BLACK
6
CONTINUOUS
10
1.02911
20
0.969754
11
1.02806
21
0.970798
0
LINE
8
BLACK
6
CONTINUOUS
10
1.02806
20
0.970798
11
1.02356
21
0.9723
0
LINE
8
BLACK
6
CONTINUOUS
10
1.02356
20
0.9723
11
1.01386
21
0.9723
0
LINE
8
BLACK
6
CONTINUOUS
10
1.01386
20
0.991048
11
1.01386
21
0.978206
0
LINE
8
BLACK
6
CONTINUOUS
10
1.01386
20
0.978206
11
1.02334
21
0.978206
0
LINE
8
BLACK
6
CONTINUOUS
10
1.02334
20
0.978206
11
1.02603
21
0.979555
0
LINE
8
BLACK
6
CONTINUOUS
10
1.02603
20
0.979555
11
1.02723
21
0.980752
0
LINE
8
BLACK
6
CONTINUOUS
10
1.02723
20
0.980752
11
1.02858
21
0.983449
0
LINE
8
BLACK
6
CONTINUOUS
10
1.02858
20
0.983449
11
1.02858
21
0.985805
0
LINE
8
BLACK
6
CONTINUOUS
10
1.02858
20
0.985805
11
1.02723
21
0.988502
0
LINE
8
BLACK
6
CONTINUOUS
10
1.02723
20
0.988502
11
1.02603
21
0.989699
0
LINE
8
BLACK
6
CONTINUOUS
10
1.02603
20
0.989699
11
1.02334
21
0.991048
0
LINE
8
BLACK
6
CONTINUOUS
10
1.02334
20
0.991048
11
1.01386
21
0.991048
0
LINE
8
BLACK
6
CONTINUOUS
10
0.632333
20
0.99684
11
0.632721
21
0.996909
0
LINE
8
BLACK
6
CONTINUOUS
10
0.632721
20
0.996909
11
0.63328
21
0.996586
0
LINE
8
BLACK
6
CONTINUOUS
10
0.63328
20
0.996586
11
0.633903
21
0.996419
0
LINE
8
BLACK
6
CONTINUOUS
10
0.633903
20
0.996419
11
0.634129
21
0.996096
0
LINE
8
BLACK
6
CONTINUOUS
10
0.634129
20
0.996096
11
0.63447
21
0.995899
0
LINE
8
BLACK
6
CONTINUOUS
10
0.63447
20
0.995899
11
0.634691
21
0.995293
0
LINE
8
BLACK
6
CONTINUOUS
10
0.634691
20
0.995293
11
0.635061
21
0.994764
0
LINE
8
BLACK
6
CONTINUOUS
10
0.635061
20
0.994764
11
0.635026
21
0.994371
0
LINE
8
BLACK
6
CONTINUOUS
10
0.635026
20
0.994371
11
0.635161
21
0.994001
0
LINE
8
BLACK
6
CONTINUOUS
10
0.635161
20
0.994001
11
0.635161
21
0.954631
0
LINE
8
BLACK
6
CONTINUOUS
10
0.635161
20
0.954631
11
0.634983
21
0.953621
0
LINE
8
BLACK
6
CONTINUOUS
10
0.634983
20
0.953621
11
0.633685
21
0.952074
0
LINE
8
BLACK
6
CONTINUOUS
10
0.633685
20
0.952074
11
0.631696
21
0.951723
0
LINE
8
BLACK
6
CONTINUOUS
10
0.631696
20
0.951723
11
0.629947
21
0.952733
0
LINE
8
BLACK
6
CONTINUOUS
10
0.629947
20
0.952733
11
0.629256
21
0.954631
0
LINE
8
BLACK
6
CONTINUOUS
10
0.629256
20
0.954631
11
0.629256
21
0.980691
0
LINE
8
BLACK
6
CONTINUOUS
10
0.629256
20
0.980691
11
0.621761
21
0.964631
0
LINE
8
BLACK
6
CONTINUOUS
10
0.621761
20
0.964631
11
0.621538
21
0.964313
0
LINE
8
BLACK
6
CONTINUOUS
10
0.621538
20
0.964313
11
0.621504
21
0.964186
0
LINE
8
BLACK
6
CONTINUOUS
10
0.621504
20
0.964186
11
0.621397
21
0.964111
0
LINE
8
BLACK
6
CONTINUOUS
10
0.621397
20
0.964111
11
0.621172
21
0.963791
0
LINE
8
BLACK
6
CONTINUOUS
10
0.621172
20
0.963791
11
0.620478
21
0.963467
0
LINE
8
BLACK
6
CONTINUOUS
10
0.620478
20
0.963467
11
0.61985
21
0.963027
0
LINE
8
BLACK
6
CONTINUOUS
10
0.61985
20
0.963027
11
0.619584
21
0.963051
0
LINE
8
BLACK
6
CONTINUOUS
10
0.619584
20
0.963051
11
0.619342
21
0.962938
0
LINE
8
BLACK
6
CONTINUOUS
10
0.619342
20
0.962938
11
0.618601
21
0.963136
0
LINE
8
BLACK
6
CONTINUOUS
10
0.618601
20
0.963136
11
0.617838
21
0.963203
0
LINE
8
BLACK
6
CONTINUOUS
10
0.617838
20
0.963203
11
0.617649
21
0.963392
0
LINE
8
BLACK
6
CONTINUOUS
10
0.617649
20
0.963392
11
0.617391
21
0.963461
0
LINE
8
BLACK
6
CONTINUOUS
10
0.617391
20
0.963461
11
0.616951
21
0.964089
0
LINE
8
BLACK
6
CONTINUOUS
10
0.616951
20
0.964089
11
0.616409
21
0.964631
0
LINE
8
BLACK
6
CONTINUOUS
10
0.616409
20
0.964631
11
0.608914
21
0.980691
0
LINE
8
BLACK
6
CONTINUOUS
10
0.608914
20
0.980691
11
0.608914
21
0.954631
0
LINE
8
BLACK
6
CONTINUOUS
10
0.608914
20
0.954631
11
0.608736
21
0.953621
0
LINE
8
BLACK
6
CONTINUOUS
10
0.608736
20
0.953621
11
0.607438
21
0.952074
0
LINE
8
BLACK
6
CONTINUOUS
10
0.607438
20
0.952074
11
0.605449
21
0.951723
0
LINE
8
BLACK
6
CONTINUOUS
10
0.605449
20
0.951723
11
0.6037
21
0.952733
0
LINE
8
BLACK
6
CONTINUOUS
10
0.6037
20
0.952733
11
0.603009
21
0.954631
0
LINE
8
BLACK
6
CONTINUOUS
10
0.603009
20
0.954631
11
0.603009
21
0.994001
0
LINE
8
BLACK
6
CONTINUOUS
10
0.603009
20
0.994001
11
0.603187
21
0.995011
0
LINE
8
BLACK
6
CONTINUOUS
10
0.603187
20
0.995011
11
0.603441
21
0.995313
0
LINE
8
BLACK
6
CONTINUOUS
10
0.603441
20
0.995313
11
0.603542
21
0.995694
0
LINE
8
BLACK
6
CONTINUOUS
10
0.603542
20
0.995694
11
0.604071
21
0.996064
0
LINE
8
BLACK
6
CONTINUOUS
10
0.604071
20
0.996064
11
0.604485
21
0.996558
0
LINE
8
BLACK
6
CONTINUOUS
10
0.604485
20
0.996558
11
0.604874
21
0.996626
0
LINE
8
BLACK
6
CONTINUOUS
10
0.604874
20
0.996626
11
0.605197
21
0.996853
0
LINE
8
BLACK
6
CONTINUOUS
10
0.605197
20
0.996853
11
0.605839
21
0.996797
0
LINE
8
BLACK
6
CONTINUOUS
10
0.605839
20
0.996797
11
0.606474
21
0.996909
0
LINE
8
BLACK
6
CONTINUOUS
10
0.606474
20
0.996909
11
0.606816
21
0.996711
0
LINE
8
BLACK
6
CONTINUOUS
10
0.606816
20
0.996711
11
0.607209
21
0.996677
0
LINE
8
BLACK
6
CONTINUOUS
10
0.607209
20
0.996677
11
0.607665
21
0.996221
0
LINE
8
BLACK
6
CONTINUOUS
10
0.607665
20
0.996221
11
0.608224
21
0.995899
0
LINE
8
BLACK
6
CONTINUOUS
10
0.608224
20
0.995899
11
0.608359
21
0.995528
0
LINE
8
BLACK
6
CONTINUOUS
10
0.608359
20
0.995528
11
0.608637
21
0.995249
0
LINE
8
BLACK
6
CONTINUOUS
10
0.608637
20
0.995249
11
0.619085
21
0.972862
0
LINE
8
BLACK
6
CONTINUOUS
10
0.619085
20
0.972862
11
0.629533
21
0.995249
0
LINE
8
BLACK
6
CONTINUOUS
10
0.629533
20
0.995249
11
0.630121
21
0.996089
0
LINE
8
BLACK
6
CONTINUOUS
10
0.630121
20
0.996089
11
0.630479
21
0.996256
0
LINE
8
BLACK
6
CONTINUOUS
10
0.630479
20
0.996256
11
0.630732
21
0.996558
0
LINE
8
BLACK
6
CONTINUOUS
10
0.630732
20
0.996558
11
0.631367
21
0.99667
0
LINE
8
BLACK
6
CONTINUOUS
10
0.631367
20
0.99667
11
0.631952
21
0.996942
0
LINE
8
BLACK
6
CONTINUOUS
10
0.631952
20
0.996942
11
0.632333
21
0.99684
0
LINE
8
BLACK
6
CONTINUOUS
10
0.87819
20
0.995899
11
0.878881
21
0.994001
0
LINE
8
BLACK
6
CONTINUOUS
10
0.878881
20
0.994001
11
0.878881
21
0.954631
0
LINE
8
BLACK
6
CONTINUOUS
10
0.878881
20
0.954631
11
0.878703
21
0.953621
0
LINE
8
BLACK
6
CONTINUOUS
10
0.878703
20
0.953621
11
0.877404
21
0.952074
0
LINE
8
BLACK
6
CONTINUOUS
10
0.877404
20
0.952074
11
0.875415
21
0.951723
0
LINE
8
BLACK
6
CONTINUOUS
10
0.875415
20
0.951723
11
0.873666
21
0.952733
0
LINE
8
BLACK
6
CONTINUOUS
10
0.873666
20
0.952733
11
0.872975
21
0.954631
0
LINE
8
BLACK
6
CONTINUOUS
10
0.872975
20
0.954631
11
0.872975
21
0.9723
0
LINE
8
BLACK
6
CONTINUOUS
10
0.872975
20
0.9723
11
0.856384
21
0.9723
0
LINE
8
BLACK
6
CONTINUOUS
10
0.856384
20
0.9723
11
0.856384
21
0.954631
0
LINE
8
BLACK
6
CONTINUOUS
10
0.856384
20
0.954631
11
0.856205
21
0.953621
0
LINE
8
BLACK
6
CONTINUOUS
10
0.856205
20
0.953621
11
0.854907
21
0.952074
0
LINE
8
BLACK
6
CONTINUOUS
10
0.854907
20
0.952074
11
0.852918
21
0.951723
0
LINE
8
BLACK
6
CONTINUOUS
10
0.852918
20
0.951723
11
0.851169
21
0.952733
0
LINE
8
BLACK
6
CONTINUOUS
10
0.851169
20
0.952733
11
0.850478
21
0.954631
0
LINE
8
BLACK
6
CONTINUOUS
10
0.850478
20
0.954631
11
0.850478
21
0.994001
0
LINE
8
BLACK
6
CONTINUOUS
10
0.850478
20
0.994001
11
0.850656
21
0.995011
0
LINE
8
BLACK
6
CONTINUOUS
10
0.850656
20
0.995011
11
0.851954
21
0.996558
0
LINE
8
BLACK
6
CONTINUOUS
10
0.851954
20
0.996558
11
0.853944
21
0.996909
0
LINE
8
BLACK
6
CONTINUOUS
10
0.853944
20
0.996909
11
0.855693
21
0.995899
0
LINE
8
BLACK
6
CONTINUOUS
10
0.855693
20
0.995899
11
0.856384
21
0.994001
0
LINE
8
BLACK
6
CONTINUOUS
10
0.856384
20
0.994001
11
0.856384
21
0.978206
0
LINE
8
BLACK
6
CONTINUOUS
10
0.856384
20
0.978206
11
0.872975
21
0.978206
0
LINE
8
BLACK
6
CONTINUOUS
10
0.872975
20
0.978206
11
0.872975
21
0.994001
0
LINE
8
BLACK
6
CONTINUOUS
10
0.872975
20
0.994001
11
0.873153
21
0.995011
0
LINE
8
BLACK
6
CONTINUOUS
10
0.873153
20
0.995011
11
0.874452
21
0.996558
0
LINE
8
BLACK
6
CONTINUOUS
10
0.874452
20
0.996558
11
0.876441
21
0.996909
0
LINE
8
BLACK
6
CONTINUOUS
10
0.876441
20
0.996909
11
0.87819
21
0.995899
0
LINE
8
BLACK
6
CONTINUOUS
10
0.697356
20
0.998472
11
0.698697
21
0.996961
0
LINE
8
BLACK
6
CONTINUOUS
10
0.698697
20
0.996961
11
0.698752
21
0.994942
0
LINE
8
BLACK
6
CONTINUOUS
10
0.698752
20
0.994942
11
0.690673
21
0.970707
0
LINE
8
BLACK
6
CONTINUOUS
10
0.690673
20
0.970707
11
0.702372
21
0.970707
0
LINE
8
BLACK
6
CONTINUOUS
10
0.702372
20
0.970707
11
0.702372
21
0.980877
0
LINE
8
BLACK
6
CONTINUOUS
10
0.702372
20
0.980877
11
0.70255
21
0.981887
0
LINE
8
BLACK
6
CONTINUOUS
10
0.70255
20
0.981887
11
0.703848
21
0.983435
0
LINE
8
BLACK
6
CONTINUOUS
10
0.703848
20
0.983435
11
0.705837
21
0.983785
0
LINE
8
BLACK
6
CONTINUOUS
10
0.705837
20
0.983785
11
0.707586
21
0.982775
0
LINE
8
BLACK
6
CONTINUOUS
10
0.707586
20
0.982775
11
0.708277
21
0.980877
0
LINE
8
BLACK
6
CONTINUOUS
10
0.708277
20
0.980877
11
0.708277
21
0.970707
0
LINE
8
BLACK
6
CONTINUOUS
10
0.708277
20
0.970707
11
0.710949
21
0.970707
0
LINE
8
BLACK
6
CONTINUOUS
10
0.710949
20
0.970707
11
0.711959
21
0.970529
0
LINE
8
BLACK
6
CONTINUOUS
10
0.711959
20
0.970529
11
0.713506
21
0.96923
0
LINE
8
BLACK
6
CONTINUOUS
10
0.713506
20
0.96923
11
0.713857
21
0.967241
0
LINE
8
BLACK
6
CONTINUOUS
10
0.713857
20
0.967241
11
0.712847
21
0.965492
0
LINE
8
BLACK
6
CONTINUOUS
10
0.712847
20
0.965492
11
0.710949
21
0.964801
0
LINE
8
BLACK
6
CONTINUOUS
10
0.710949
20
0.964801
11
0.708277
21
0.964801
0
LINE
8
BLACK
6
CONTINUOUS
10
0.708277
20
0.964801
11
0.708277
21
0.954631
0
LINE
8
BLACK
6
CONTINUOUS
10
0.708277
20
0.954631
11
0.708099
21
0.953621
0
LINE
8
BLACK
6
CONTINUOUS
10
0.708099
20
0.953621
11
0.706801
21
0.952074
0
LINE
8
BLACK
6
CONTINUOUS
10
0.706801
20
0.952074
11
0.704812
21
0.951723
0
LINE
8
BLACK
6
CONTINUOUS
10
0.704812
20
0.951723
11
0.703062
21
0.952733
0
LINE
8
BLACK
6
CONTINUOUS
10
0.703062
20
0.952733
11
0.702372
21
0.954631
0
LINE
8
BLACK
6
CONTINUOUS
10
0.702372
20
0.954631
11
0.702372
21
0.964801
0
LINE
8
BLACK
6
CONTINUOUS
10
0.702372
20
0.964801
11
0.686577
21
0.964801
0
LINE
8
BLACK
6
CONTINUOUS
10
0.686577
20
0.964801
11
0.685567
21
0.964979
0
LINE
8
BLACK
6
CONTINUOUS
10
0.685567
20
0.964979
11
0.685394
21
0.965124
0
LINE
8
BLACK
6
CONTINUOUS
10
0.685394
20
0.965124
11
0.685171
21
0.965158
0
LINE
8
BLACK
6
CONTINUOUS
10
0.685171
20
0.965158
11
0.684636
21
0.96576
0
LINE
8
BLACK
6
CONTINUOUS
10
0.684636
20
0.96576
11
0.684019
21
0.966278
0
LINE
8
BLACK
6
CONTINUOUS
10
0.684019
20
0.966278
11
0.68398
21
0.9665
0
LINE
8
BLACK
6
CONTINUOUS
10
0.68398
20
0.9665
11
0.683831
21
0.966669
0
LINE
8
BLACK
6
CONTINUOUS
10
0.683831
20
0.966669
11
0.683809
21
0.967474
0
LINE
8
BLACK
6
CONTINUOUS
10
0.683809
20
0.967474
11
0.683669
21
0.968267
0
LINE
8
BLACK
6
CONTINUOUS
10
0.683669
20
0.968267
11
0.683782
21
0.968462
0
LINE
8
BLACK
6
CONTINUOUS
10
0.683782
20
0.968462
11
0.683775
21
0.968688
0
LINE
8
BLACK
6
CONTINUOUS
10
0.683775
20
0.968688
11
0.693149
21
0.996809
0
LINE
8
BLACK
6
CONTINUOUS
10
0.693149
20
0.996809
11
0.693638
21
0.997711
0
LINE
8
BLACK
6
CONTINUOUS
10
0.693638
20
0.997711
11
0.695359
21
0.998768
0
LINE
8
BLACK
6
CONTINUOUS
10
0.695359
20
0.998768
11
0.697356
21
0.998472
0
LINE
8
BLACK
6
CONTINUOUS
10
0.998798
20
0.996775
11
1.00034
21
0.995477
0
LINE
8
BLACK
6
CONTINUOUS
10
1.00034
20
0.995477
11
1.0007
21
0.993488
0
LINE
8
BLACK
6
CONTINUOUS
10
1.0007
20
0.993488
11
0.999686
21
0.991739
0
LINE
8
BLACK
6
CONTINUOUS
10
0.999686
20
0.991739
11
0.997788
21
0.991048
0
LINE
8
BLACK
6
CONTINUOUS
10
0.997788
20
0.991048
11
0.989492
21
0.991048
0
LINE
8
BLACK
6
CONTINUOUS
10
0.989492
20
0.991048
11
0.989492
21
0.954631
0
LINE
8
BLACK
6
CONTINUOUS
10
0.989492
20
0.954631
11
0.989314
21
0.953621
0
LINE
8
BLACK
6
CONTINUOUS
10
0.989314
20
0.953621
11
0.988016
21
0.952074
0
LINE
8
BLACK
6
CONTINUOUS
10
0.988016
20
0.952074
11
0.986026
21
0.951723
0
LINE
8
BLACK
6
CONTINUOUS
10
0.986026
20
0.951723
11
0.984277
21
0.952733
0
LINE
8
BLACK
6
CONTINUOUS
10
0.984277
20
0.952733
11
0.983586
21
0.954631
0
LINE
8
BLACK
6
CONTINUOUS
10
0.983586
20
0.954631
11
0.983586
21
0.991048
0
LINE
8
BLACK
6
CONTINUOUS
10
0.983586
20
0.991048
11
0.975291
21
0.991048
0
LINE
8
BLACK
6
CONTINUOUS
10
0.975291
20
0.991048
11
0.974281
21
0.991226
0
LINE
8
BLACK
6
CONTINUOUS
10
0.974281
20
0.991226
11
0.972733
21
0.992524
0
LINE
8
BLACK
6
CONTINUOUS
10
0.972733
20
0.992524
11
0.972383
21
0.994514
0
LINE
8
BLACK
6
CONTINUOUS
10
0.972383
20
0.994514
11
0.973393
21
0.996263
0
LINE
8
BLACK
6
CONTINUOUS
10
0.973393
20
0.996263
11
0.975291
21
0.996954
0
LINE
8
BLACK
6
CONTINUOUS
10
0.975291
20
0.996954
11
0.997788
21
0.996954
0
LINE
8
BLACK
6
CONTINUOUS
10
0.997788
20
0.996954
11
0.998798
21
0.996775
0
LINE
8
BLACK
6
CONTINUOUS
10
0.796323
20
0.972404
11
0.79787
21
0.971105
0
LINE
8
BLACK
6
CONTINUOUS
10
0.79787
20
0.971105
11
0.798221
21
0.969116
0
LINE
8
BLACK
6
CONTINUOUS
10
0.798221
20
0.969116
11
0.797211
21
0.967367
0
LINE
8
BLACK
6
CONTINUOUS
10
0.797211
20
0.967367
11
0.795313
21
0.966676
0
LINE
8
BLACK
6
CONTINUOUS
10
0.795313
20
0.966676
11
0.765317
21
0.966676
0
LINE
8
BLACK
6
CONTINUOUS
10
0.765317
20
0.966676
11
0.764307
21
0.966854
0
LINE
8
BLACK
6
CONTINUOUS
10
0.764307
20
0.966854
11
0.76276
21
0.968152
0
LINE
8
BLACK
6
CONTINUOUS
10
0.76276
20
0.968152
11
0.762409
21
0.970142
0
LINE
8
BLACK
6
CONTINUOUS
10
0.762409
20
0.970142
11
0.763419
21
0.971891
0
LINE
8
BLACK
6
CONTINUOUS
10
0.763419
20
0.971891
11
0.765317
21
0.972582
0
LINE
8
BLACK
6
CONTINUOUS
10
0.765317
20
0.972582
11
0.795313
21
0.972582
0
LINE
8
BLACK
6
CONTINUOUS
10
0.795313
20
0.972582
11
0.796323
21
0.972404
0
LINE
8
BLACK
6
CONTINUOUS
10
0.963177
20
0.972404
11
0.964724
21
0.971105
0
LINE
8
BLACK
6
CONTINUOUS
10
0.964724
20
0.971105
11
0.965075
21
0.969116
0
LINE
8
BLACK
6
CONTINUOUS
10
0.965075
20
0.969116
11
0.964065
21
0.967367
0
LINE
8
BLACK
6
CONTINUOUS
10
0.964065
20
0.967367
11
0.962167
21
0.966676
0
LINE
8
BLACK
6
CONTINUOUS
10
0.962167
20
0.966676
11
0.932171
21
0.966676
0
LINE
8
BLACK
6
CONTINUOUS
10
0.932171
20
0.966676
11
0.931161
21
0.966854
0
LINE
8
BLACK
6
CONTINUOUS
10
0.931161
20
0.966854
11
0.929614
21
0.968152
0
LINE
8
BLACK
6
CONTINUOUS
10
0.929614
20
0.968152
11
0.929263
21
0.970142
0
LINE
8
BLACK
6
CONTINUOUS
10
0.929263
20
0.970142
11
0.930273
21
0.971891
0
LINE
8
BLACK
6
CONTINUOUS
10
0.930273
20
0.971891
11
0.932171
21
0.972582
0
LINE
8
BLACK
6
CONTINUOUS
10
0.932171
20
0.972582
11
0.962167
21
0.972582
0
LINE
8
BLACK
6
CONTINUOUS
10
0.962167
20
0.972582
11
0.963177
21
0.972404
0
LINE
8
BLACK
6
CONTINUOUS
10
0.636206
20
1.02814
11
0.63563
21
1.02953
0
LINE
8
BLACK
6
CONTINUOUS
10
0.63563
20
1.02953
11
0.63563
21
1.18898
0
LINE
8
BLACK
6
CONTINUOUS
10
0.63563
20
1.18898
11
0.636206
21
1.19037
0
LINE
8
BLACK
6
CONTINUOUS
10
0.636206
20
1.19037
11
0.637598
21
1.19094
0
LINE
8
BLACK
6
CONTINUOUS
10
0.637598
20
1.19094
11
0.962402
21
1.19094
0
LINE
8
BLACK
6
CONTINUOUS
10
0.962402
20
1.19094
11
0.963794
21
1.19037
0
LINE
8
BLACK
6
CONTINUOUS
10
0.963794
20
1.19037
11
0.96437
21
1.18898
0
LINE
8
BLACK
6
CONTINUOUS
10
0.96437
20
1.18898
11
0.96437
21
1.02953
0
LINE
8
BLACK
6
CONTINUOUS
10
0.96437
20
1.02953
11
0.963794
21
1.02814
0
LINE
8
BLACK
6
CONTINUOUS
10
0.963794
20
1.02814
11
0.962402
21
1.02756
0
LINE
8
BLACK
6
CONTINUOUS
10
0.962402
20
1.02756
11
0.637598
21
1.02756
0
LINE
8
BLACK
6
CONTINUOUS
10
0.637598
20
1.02756
11
0.636206
21
1.02814
0
LINE
8
BLACK
6
CONTINUOUS
10
0.746885
20
1.18701
11
0.727788
21
1.16
0
LINE
8
BLACK
6
CONTINUOUS
10
0.727788
20
1.16
11
0.7275
21
1.15982
0
LINE
8
BLACK
6
CONTINUOUS
10
0.7275
20
1.15982
11
0.727318
21
1.15953
0
LINE
8
BLACK
6
CONTINUOUS
10
0.727318
20
1.15953
11
0.726887
21
1.15943
0
LINE
8
BLACK
6
CONTINUOUS
10
0.726887
20
1.15943
11
0.726514
21
1.1592
0
LINE
8
BLACK
6
CONTINUOUS
10
0.726514
20
1.1592
11
0.726181
21
1.15927
0
LINE
8
BLACK
6
CONTINUOUS
10
0.726181
20
1.15927
11
0.725848
21
1.1592
0
LINE
8
BLACK
6
CONTINUOUS
10
0.725848
20
1.1592
11
0.725475
21
1.15943
0
LINE
8
BLACK
6
CONTINUOUS
10
0.725475
20
1.15943
11
0.725045
21
1.15953
0
LINE
8
BLACK
6
CONTINUOUS
10
0.725045
20
1.15953
11
0.724863
21
1.15982
0
LINE
8
BLACK
6
CONTINUOUS
10
0.724863
20
1.15982
11
0.724574
21
1.16
0
LINE
8
BLACK
6
CONTINUOUS
10
0.724574
20
1.16
11
0.705477
21
1.18701
0
LINE
8
BLACK
6
CONTINUOUS
10
0.705477
20
1.18701
11
0.639567
21
1.18701
0
LINE
8
BLACK
6
CONTINUOUS
10
0.639567
20
1.18701
11
0.639567
21
1.0315
0
LINE
8
BLACK
6
CONTINUOUS
10
0.639567
20
1.0315
11
0.960433
21
1.0315
0
LINE
8
BLACK
6
CONTINUOUS
10
0.960433
20
1.0315
11
0.960433
21
1.18701
0
LINE
8
BLACK
6
CONTINUOUS
10
0.960433
20
1.18701
11
0.746885
21
1.18701
0
LINE
8
BLACK
6
CONTINUOUS
10
0.710299
20
1.18701
11
0.726181
21
1.16455
0
LINE
8
BLACK
6
CONTINUOUS
10
0.726181
20
1.16455
11
0.742063
21
1.18701
0
LINE
8
BLACK
6
CONTINUOUS
10
0.742063
20
1.18701
11
0.710299
21
1.18701
0
LINE
8
BLACK
6
CONTINUOUS
10
0.789139
20
1.14944
11
0.789829
21
1.14754
0
LINE
8
BLACK
6
CONTINUOUS
10
0.789829
20
1.14754
11
0.789829
21
1.11942
0
LINE
8
BLACK
6
CONTINUOUS
10
0.789829
20
1.11942
11
0.789676
21
1.11855
0
LINE
8
BLACK
6
CONTINUOUS
10
0.789676
20
1.11855
11
0.789678
21
1.11849
0
LINE
8
BLACK
6
CONTINUOUS
10
0.789678
20
1.11849
11
0.787803
21
1.11286
0
LINE
8
BLACK
6
CONTINUOUS
10
0.787803
20
1.11286
11
0.787315
21
1.11196
0
LINE
8
BLACK
6
CONTINUOUS
10
0.787315
20
1.11196
11
0.787164
21
1.11187
0
LINE
8
BLACK
6
CONTINUOUS
10
0.787164
20
1.11187
11
0.78709
21
1.11171
0
LINE
8
BLACK
6
CONTINUOUS
10
0.78709
20
1.11171
11
0.78334
21
1.10796
0
LINE
8
BLACK
6
CONTINUOUS
10
0.78334
20
1.10796
11
0.7825
21
1.10737
0
LINE
8
BLACK
6
CONTINUOUS
10
0.7825
20
1.10737
11
0.782324
21
1.10736
0
LINE
8
BLACK
6
CONTINUOUS
10
0.782324
20
1.10736
11
0.782186
21
1.10725
0
LINE
8
BLACK
6
CONTINUOUS
10
0.782186
20
1.10725
11
0.776562
21
1.10537
0
LINE
8
BLACK
6
CONTINUOUS
10
0.776562
20
1.10537
11
0.775689
21
1.10524
0
LINE
8
BLACK
6
CONTINUOUS
10
0.775689
20
1.10524
11
0.775628
21
1.10522
0
LINE
8
BLACK
6
CONTINUOUS
10
0.775628
20
1.10522
11
0.771879
21
1.10522
0
LINE
8
BLACK
6
CONTINUOUS
10
0.771879
20
1.10522
11
0.770869
21
1.1054
0
LINE
8
BLACK
6
CONTINUOUS
10
0.770869
20
1.1054
11
0.769321
21
1.1067
0
LINE
8
BLACK
6
CONTINUOUS
10
0.769321
20
1.1067
11
0.768971
21
1.10869
0
LINE
8
BLACK
6
CONTINUOUS
10
0.768971
20
1.10869
11
0.769981
21
1.11044
0
LINE
8
BLACK
6
CONTINUOUS
10
0.769981
20
1.11044
11
0.771879
21
1.11113
0
LINE
8
BLACK
6
CONTINUOUS
10
0.771879
20
1.11113
11
0.775149
21
1.11113
0
LINE
8
BLACK
6
CONTINUOUS
10
0.775149
20
1.11113
11
0.779657
21
1.11263
0
LINE
8
BLACK
6
CONTINUOUS
10
0.779657
20
1.11263
11
0.782421
21
1.11539
0
LINE
8
BLACK
6
CONTINUOUS
10
0.782421
20
1.11539
11
0.783924
21
1.1199
0
LINE
8
BLACK
6
CONTINUOUS
10
0.783924
20
1.1199
11
0.783924
21
1.14754
0
LINE
8
BLACK
6
CONTINUOUS
10
0.783924
20
1.14754
11
0.784102
21
1.14855
0
LINE
8
BLACK
6
CONTINUOUS
10
0.784102
20
1.14855
11
0.7854
21
1.1501
0
LINE
8
BLACK
6
CONTINUOUS
10
0.7854
20
1.1501
11
0.787389
21
1.15045
0
LINE
8
BLACK
6
CONTINUOUS
10
0.787389
20
1.15045
11
0.789139
21
1.14944
0
LINE
8
BLACK
6
CONTINUOUS
10
0.819758
20
1.15032
11
0.819893
21
1.15021
0
LINE
8
BLACK
6
CONTINUOUS
10
0.819893
20
1.15021
11
0.820068
21
1.15019
0
LINE
8
BLACK
6
CONTINUOUS
10
0.820068
20
1.15019
11
0.823818
21
1.14831
0
LINE
8
BLACK
6
CONTINUOUS
10
0.823818
20
1.14831
11
0.824527
21
1.14778
0
LINE
8
BLACK
6
CONTINUOUS
10
0.824527
20
1.14778
11
0.824585
21
1.14776
0
LINE
8
BLACK
6
CONTINUOUS
10
0.824585
20
1.14776
11
0.82646
21
1.14588
0
LINE
8
BLACK
6
CONTINUOUS
10
0.82646
20
1.14588
11
0.826966
21
1.14516
0
LINE
8
BLACK
6
CONTINUOUS
10
0.826966
20
1.14516
11
0.827013
21
1.14512
0
LINE
8
BLACK
6
CONTINUOUS
10
0.827013
20
1.14512
11
0.828888
21
1.14137
0
LINE
8
BLACK
6
CONTINUOUS
10
0.828888
20
1.14137
11
0.82918
21
1.14038
0
LINE
8
BLACK
6
CONTINUOUS
10
0.82918
20
1.14038
11
0.829139
21
1.14021
0
LINE
8
BLACK
6
CONTINUOUS
10
0.829139
20
1.14021
11
0.829199
21
1.14004
0
LINE
8
BLACK
6
CONTINUOUS
10
0.829199
20
1.14004
11
0.829199
21
1.1363
0
LINE
8
BLACK
6
CONTINUOUS
10
0.829199
20
1.1363
11
0.829046
21
1.13543
0
LINE
8
BLACK
6
CONTINUOUS
10
0.829046
20
1.13543
11
0.829048
21
1.13536
0
LINE
8
BLACK
6
CONTINUOUS
10
0.829048
20
1.13536
11
0.827173
21
1.12974
0
LINE
8
BLACK
6
CONTINUOUS
10
0.827173
20
1.12974
11
0.826685
21
1.12884
0
LINE
8
BLACK
6
CONTINUOUS
10
0.826685
20
1.12884
11
0.826534
21
1.12874
0
LINE
8
BLACK
6
CONTINUOUS
10
0.826534
20
1.12874
11
0.82646
21
1.12858
0
LINE
8
BLACK
6
CONTINUOUS
10
0.82646
20
1.12858
11
0.809003
21
1.11113
0
LINE
8
BLACK
6
CONTINUOUS
10
0.809003
20
1.11113
11
0.826247
21
1.11113
0
LINE
8
BLACK
6
CONTINUOUS
10
0.826247
20
1.11113
11
0.827257
21
1.11095
0
LINE
8
BLACK
6
CONTINUOUS
10
0.827257
20
1.11095
11
0.828804
21
1.10965
0
LINE
8
BLACK
6
CONTINUOUS
10
0.828804
20
1.10965
11
0.829155
21
1.10766
0
LINE
8
BLACK
6
CONTINUOUS
10
0.829155
20
1.10766
11
0.828145
21
1.10591
0
LINE
8
BLACK
6
CONTINUOUS
10
0.828145
20
1.10591
11
0.826247
21
1.10522
0
LINE
8
BLACK
6
CONTINUOUS
10
0.826247
20
1.10522
11
0.801875
21
1.10522
0
LINE
8
BLACK
6
CONTINUOUS
10
0.801875
20
1.10522
11
0.80124
21
1.10533
0
LINE
8
BLACK
6
CONTINUOUS
10
0.80124
20
1.10533
11
0.801111
21
1.10532
0
LINE
8
BLACK
6
CONTINUOUS
10
0.801111
20
1.10532
11
0.801045
21
1.10537
0
LINE
8
BLACK
6
CONTINUOUS
10
0.801045
20
1.10537
11
0.800865
21
1.1054
0
LINE
8
BLACK
6
CONTINUOUS
10
0.800865
20
1.1054
11
0.800184
21
1.10597
0
LINE
8
BLACK
6
CONTINUOUS
10
0.800184
20
1.10597
11
0.799456
21
1.10648
0
LINE
8
BLACK
6
CONTINUOUS
10
0.799456
20
1.10648
11
0.799421
21
1.10661
0
LINE
8
BLACK
6
CONTINUOUS
10
0.799421
20
1.10661
11
0.799318
21
1.1067
0
LINE
8
BLACK
6
CONTINUOUS
10
0.799318
20
1.1067
11
0.799163
21
1.10757
0
LINE
8
BLACK
6
CONTINUOUS
10
0.799163
20
1.10757
11
0.798933
21
1.10843
0
LINE
8
BLACK
6
CONTINUOUS
10
0.798933
20
1.10843
11
0.79899
21
1.10855
0
LINE
8
BLACK
6
CONTINUOUS
10
0.79899
20
1.10855
11
0.798967
21
1.10869
0
LINE
8
BLACK
6
CONTINUOUS
10
0.798967
20
1.10869
11
0.799411
21
1.10946
0
LINE
8
BLACK
6
CONTINUOUS
10
0.799411
20
1.10946
11
0.799787
21
1.11026
0
LINE
8
BLACK
6
CONTINUOUS
10
0.799787
20
1.11026
11
0.821791
21
1.13227
0
LINE
8
BLACK
6
CONTINUOUS
10
0.821791
20
1.13227
11
0.823294
21
1.13677
0
LINE
8
BLACK
6
CONTINUOUS
10
0.823294
20
1.13677
11
0.823294
21
1.13935
0
LINE
8
BLACK
6
CONTINUOUS
10
0.823294
20
1.13935
11
0.821945
21
1.14205
0
LINE
8
BLACK
6
CONTINUOUS
10
0.821945
20
1.14205
11
0.820748
21
1.14324
0
LINE
8
BLACK
6
CONTINUOUS
10
0.820748
20
1.14324
11
0.818051
21
1.14459
0
LINE
8
BLACK
6
CONTINUOUS
10
0.818051
20
1.14459
11
0.810071
21
1.14459
0
LINE
8
BLACK
6
CONTINUOUS
10
0.810071
20
1.14459
11
0.807373
21
1.14324
0
LINE
8
BLACK
6
CONTINUOUS
10
0.807373
20
1.14324
11
0.805837
21
1.14171
0
LINE
8
BLACK
6
CONTINUOUS
10
0.805837
20
1.14171
11
0.804997
21
1.14112
0
LINE
8
BLACK
6
CONTINUOUS
10
0.804997
20
1.14112
11
0.802985
21
1.14094
0
LINE
8
BLACK
6
CONTINUOUS
10
0.802985
20
1.14094
11
0.801331
21
1.1421
0
LINE
8
BLACK
6
CONTINUOUS
10
0.801331
20
1.1421
11
0.800808
21
1.14405
0
LINE
8
BLACK
6
CONTINUOUS
10
0.800808
20
1.14405
11
0.801662
21
1.14588
0
LINE
8
BLACK
6
CONTINUOUS
10
0.801662
20
1.14588
11
0.803536
21
1.14776
0
LINE
8
BLACK
6
CONTINUOUS
10
0.803536
20
1.14776
11
0.804259
21
1.14826
0
LINE
8
BLACK
6
CONTINUOUS
10
0.804259
20
1.14826
11
0.804304
21
1.14831
0
LINE
8
BLACK
6
CONTINUOUS
10
0.804304
20
1.14831
11
0.808053
21
1.15019
0
LINE
8
BLACK
6
CONTINUOUS
10
0.808053
20
1.15019
11
0.809036
21
1.15048
0
LINE
8
BLACK
6
CONTINUOUS
10
0.809036
20
1.15048
11
0.809208
21
1.15044
0
LINE
8
BLACK
6
CONTINUOUS
10
0.809208
20
1.15044
11
0.809374
21
1.1505
0
LINE
8
BLACK
6
CONTINUOUS
10
0.809374
20
1.1505
11
0.818748
21
1.1505
0
LINE
8
BLACK
6
CONTINUOUS
10
0.818748
20
1.1505
11
0.819758
21
1.15032
0
LINE
8
BLACK
6
CONTINUOUS
10
1.07792
20
0.0295339
11
1.08197
21
0.0429577
0
LINE
8
BLACK
6
CONTINUOUS
10
1.08197
20
0.0429577
11
1.0875
21
0.0558462
0
LINE
8
BLACK
6
CONTINUOUS
10
1.0875
20
0.0558462
11
1.09442
21
0.0680385
0
LINE
8
BLACK
6
CONTINUOUS
10
1.09442
20
0.0680385
11
1.10267
21
0.0793829
0
LINE
8
BLACK
6
CONTINUOUS
10
1.10267
20
0.0793829
11
1.11212
21
0.0897378
0
LINE
8
BLACK
6
CONTINUOUS
10
1.11212
20
0.0897378
11
1.12267
21
0.0989741
0
LINE
8
BLACK
6
CONTINUOUS
10
1.12267
20
0.0989741
11
1.13419
21
0.106977
0
LINE
8
BLACK
6
CONTINUOUS
10
1.13419
20
0.106977
11
1.14652
21
0.113646
0
LINE
8
BLACK
6
CONTINUOUS
10
1.14652
20
0.113646
11
1.15952
21
0.118899
0
LINE
8
BLACK
6
CONTINUOUS
10
1.15952
20
0.118899
11
1.17303
21
0.12267
0
LINE
8
BLACK
6
CONTINUOUS
10
1.17303
20
0.12267
11
1.18687
21
0.124912
0
LINE
8
BLACK
6
CONTINUOUS
10
1.18687
20
0.124912
11
1.20088
21
0.125597
0
LINE
8
BLACK
6
CONTINUOUS
10
1.20088
20
0.125597
11
1.21487
21
0.124716
0
LINE
8
BLACK
6
CONTINUOUS
10
1.21487
20
0.124716
11
1.22868
21
0.122281
0
LINE
8
BLACK
6
CONTINUOUS
10
1.22868
20
0.122281
11
1.24213
21
0.118322
0
LINE
8
BLACK
6
CONTINUOUS
10
1.24213
20
0.118322
11
1.25506
21
0.112889
0
LINE
8
BLACK
6
CONTINUOUS
10
1.25506
20
0.112889
11
1.2673
21
0.106048
0
LINE
8
BLACK
6
CONTINUOUS
10
1.2673
20
0.106048
11
1.2787
21
0.0978848
0
LINE
8
BLACK
6
CONTINUOUS
10
1.2787
20
0.0978848
11
1.28912
21
0.088502
0
LINE
8
BLACK
6
CONTINUOUS
10
1.28912
20
0.088502
11
1.29843
21
0.0780161
0
LINE
8
BLACK
6
CONTINUOUS
10
1.29843
20
0.0780161
11
1.30651
21
0.0665579
0
LINE
8
BLACK
6
CONTINUOUS
10
1.30651
20
0.0665579
11
1.31327
21
0.05427
0
LINE
8
BLACK
6
CONTINUOUS
10
1.31327
20
0.05427
11
1.31861
21
0.0413057
0
LINE
8
BLACK
6
CONTINUOUS
10
1.31861
20
0.0413057
11
1.32248
21
0.0278265
0
LINE
8
BLACK
6
CONTINUOUS
10
1.32248
20
0.0278265
11
1.32482
21
0.0140005
0
LINE
8
BLACK
6
CONTINUOUS
10
1.32482
20
0.0140005
11
1.3256
21
0
0
LINE
8
BLACK
6
CONTINUOUS
10
1.3256
20
0
11
1.32555
21
-0.00350697
0
LINE
8
BLACK
6
CONTINUOUS
10
1.32555
20
-0.00350697
11
1.32438
21
-0.0174802
0
LINE
8
BLACK
6
CONTINUOUS
10
1.32438
20
-0.0174802
11
1.32165
21
-0.0312354
0
LINE
8
BLACK
6
CONTINUOUS
10
1.32165
20
-0.0312354
11
1.31741
21
-0.0446014
0
LINE
8
BLACK
6
CONTINUOUS
10
1.31741
20
-0.0446014
11
1.31171
21
-0.0574115
0
LINE
8
BLACK
6
CONTINUOUS
10
1.31171
20
-0.0574115
11
1.30461
21
-0.069506
0
LINE
8
BLACK
6
CONTINUOUS
10
1.30461
20
-0.069506
11
1.29622
21
-0.0807341
0
LINE
8
BLACK
6
CONTINUOUS
10
1.29622
20
-0.0807341
11
1.28662
21
-0.090956
0
LINE
8
BLACK
6
CONTINUOUS
10
1.28662
20
-0.090956
11
1.27594
21
-0.100044
0
LINE
8
BLACK
6
CONTINUOUS
10
1.27594
20
-0.100044
11
1.26431
21
-0.107885
0
LINE
8
BLACK
6
CONTINUOUS
10
1.26431
20
-0.107885
11
1.25189
21
-0.114382
0
LINE
8
BLACK
6
CONTINUOUS
10
1.25189
20
-0.114382
11
1.23881
21
-0.119453
0
LINE
8
BLACK
6
CONTINUOUS
10
1.23881
20
-0.119453
11
1.22526
21
-0.123035
0
LINE
8
BLACK
6
CONTINUOUS
10
1.22526
20
-0.123035
11
1.21138
21
-0.125083
0
LINE
8
BLACK
6
CONTINUOUS
10
1.21138
20
-0.125083
11
1.19737
21
-0.125572
0
LINE
8
BLACK
6
CONTINUOUS
10
1.19737
20
-0.125572
11
1.18339
21
-0.124497
0
LINE
8
BLACK
6
CONTINUOUS
10
1.18339
20
-0.124497
11
1.16961
21
-0.121869
0
LINE
8
BLACK
6
CONTINUOUS
10
1.16961
20
-0.121869
11
1.15622
21
-0.117723
0
LINE
8
BLACK
6
CONTINUOUS
10
1.15622
20
-0.117723
11
1.14337
21
-0.112109
0
LINE
8
BLACK
6
CONTINUOUS
10
1.14337
20
-0.112109
11
1.13123
21
-0.105098
0
LINE
8
BLACK
6
CONTINUOUS
10
1.13123
20
-0.105098
11
1.11994
21
-0.0967765
0
LINE
8
BLACK
6
CONTINUOUS
10
1.11994
20
-0.0967765
11
1.10965
21
-0.0872491
0
LINE
8
BLACK
6
CONTINUOUS
10
1.10965
20
-0.0872491
11
1.10049
21
-0.0766343
0
LINE
8
BLACK
6
CONTINUOUS
10
1.10049
20
-0.0766343
11
1.09257
21
-0.0650642
0
LINE
8
BLACK
6
CONTINUOUS
10
1.09257
20
-0.0650642
11
1.08598
21
-0.0526832
0
LINE
8
BLACK
6
CONTINUOUS
10
1.08598
20
-0.0526832
11
1.08082
21
-0.0396455
0
LINE
8
BLACK
6
CONTINUOUS
10
1.08082
20
-0.0396455
11
1.07714
21
-0.0261137
0
LINE
8
BLACK
6
CONTINUOUS
10
1.07714
20
-0.0261137
11
1.075
21
-0.0122564
0
LINE
8
BLACK
6
CONTINUOUS
10
1.075
20
-0.0122564
11
1.07441
21
0.00175366
0
LINE
8
BLACK
6
CONTINUOUS
10
1.07441
20
0.00175366
11
1.07453
21
0.00347992
0
LINE
8
BLACK
6
CONTINUOUS
10
1.07453
20
0.00347992
11
1.07539
21
0.0157419
0
LINE
8
BLACK
6
CONTINUOUS
10
1.07539
20
0.0157419
11
1.07792
21
0.0295339
0
LINE
8
BLACK
6
CONTINUOUS
10
1.0914
20
-0.021898
11
1.09463
21
-0.0342352
0
LINE
8
BLACK
6
CONTINUOUS
10
1.09463
20
-0.0342352
11
1.09927
21
-0.0461187
0
LINE
8
BLACK
6
CONTINUOUS
10
1.09927
20
-0.0461187
11
1.10524
21
-0.0573909
0
LINE
8
BLACK
6
CONTINUOUS
10
1.10524
20
-0.0573909
11
1.11246
21
-0.0679024
0
LINE
8
BLACK
6
CONTINUOUS
10
1.11246
20
-0.0679024
11
1.12085
21
-0.0775139
0
LINE
8
BLACK
6
CONTINUOUS
10
1.12085
20
-0.0775139
11
1.13028
21
-0.086098
0
LINE
8
BLACK
6
CONTINUOUS
10
1.13028
20
-0.086098
11
1.14064
21
-0.0935409
0
LINE
8
BLACK
6
CONTINUOUS
10
1.14064
20
-0.0935409
11
1.15178
21
-0.099744
0
LINE
8
BLACK
6
CONTINUOUS
10
1.15178
20
-0.099744
11
1.16357
21
-0.104625
0
LINE
8
BLACK
6
CONTINUOUS
10
1.16357
20
-0.104625
11
1.17583
21
-0.108119
0
LINE
8
BLACK
6
CONTINUOUS
10
1.17583
20
-0.108119
11
1.18842
21
-0.110181
0
LINE
8
BLACK
6
CONTINUOUS
10
1.18842
20
-0.110181
11
1.20116
21
-0.110781
0
LINE
8
BLACK
6
CONTINUOUS
10
1.20116
20
-0.110781
11
1.21389
21
-0.109914
0
LINE
8
BLACK
6
CONTINUOUS
10
1.21389
20
-0.109914
11
1.22643
21
-0.107589
0
LINE
8
BLACK
6
CONTINUOUS
10
1.22643
20
-0.107589
11
1.23862
21
-0.103839
0
LINE
8
BLACK
6
CONTINUOUS
10
1.23862
20
-0.103839
11
1.2503
21
-0.0987123
0
LINE
8
BLACK
6
CONTINUOUS
10
1.2503
20
-0.0987123
11
1.26131
21
-0.0922772
0
LINE
8
BLACK
6
CONTINUOUS
10
1.26131
20
-0.0922772
11
1.27151
21
-0.084619
0
LINE
8
BLACK
6
CONTINUOUS
10
1.27151
20
-0.084619
11
1.28076
21
-0.0758392
0
LINE
8
BLACK
6
CONTINUOUS
10
1.28076
20
-0.0758392
11
1.28894
21
-0.0660542
0
LINE
8
BLACK
6
CONTINUOUS
10
1.28894
20
-0.0660542
11
1.29594
21
-0.0553937
0
LINE
8
BLACK
6
CONTINUOUS
10
1.29594
20
-0.0553937
11
1.30168
21
-0.043999
0
LINE
8
BLACK
6
CONTINUOUS
10
1.30168
20
-0.043999
11
1.30606
21
-0.0320211
0
LINE
8
BLACK
6
CONTINUOUS
10
1.30606
20
-0.0320211
11
1.30904
21
-0.0196188
0
LINE
8
BLACK
6
CONTINUOUS
10
1.30904
20
-0.0196188
11
1.31057
21
-0.00695642
0
LINE
8
BLACK
6
CONTINUOUS
10
1.31057
20
-0.00695642
11
1.31079
21
0
0
LINE
8
BLACK
6
CONTINUOUS
10
1.31079
20
0
11
1.31005
21
0.0127336
0
LINE
8
BLACK
6
CONTINUOUS
10
1.31005
20
0.0127336
11
1.30786
21
0.0252984
0
LINE
8
BLACK
6
CONTINUOUS
10
1.30786
20
0.0252984
11
1.30424
21
0.0375279
0
LINE
8
BLACK
6
CONTINUOUS
10
1.30424
20
0.0375279
11
1.29923
21
0.04926
0
LINE
8
BLACK
6
CONTINUOUS
10
1.29923
20
0.04926
11
1.29291
21
0.0603392
0
LINE
8
BLACK
6
CONTINUOUS
10
1.29291
20
0.0603392
11
1.28536
21
0.0706186
0
LINE
8
BLACK
6
CONTINUOUS
10
1.28536
20
0.0706186
11
1.27668
21
0.079962
0
LINE
8
BLACK
6
CONTINUOUS
10
1.27668
20
0.079962
11
1.26698
21
0.0882455
0
LINE
8
BLACK
6
CONTINUOUS
10
1.26698
20
0.0882455
11
1.2564
21
0.0953594
0
LINE
8
BLACK
6
CONTINUOUS
10
1.2564
20
0.0953594
11
1.24506
21
0.101209
0
LINE
8
BLACK
6
CONTINUOUS
10
1.24506
20
0.101209
11
1.23313
21
0.105718
0
LINE
8
BLACK
6
CONTINUOUS
10
1.23313
20
0.105718
11
1.22076
21
0.108825
0
LINE
8
BLACK
6
CONTINUOUS
10
1.22076
20
0.108825
11
1.20811
21
0.11049
0
LINE
8
BLACK
6
CONTINUOUS
10
1.20811
20
0.11049
11
1.19536
21
0.11069
0
LINE
8
BLACK
6
CONTINUOUS
10
1.19536
20
0.11069
11
1.18267
21
0.109423
0
LINE
8
BLACK
6
CONTINUOUS
10
1.18267
20
0.109423
11
1.17021
21
0.106706
0
LINE
8
BLACK
6
CONTINUOUS
10
1.17021
20
0.106706
11
1.15814
21
0.102575
0
LINE
8
BLACK
6
CONTINUOUS
10
1.15814
20
0.102575
11
1.14663
21
0.0970838
0
LINE
8
BLACK
6
CONTINUOUS
10
1.14663
20
0.0970838
11
1.13582
21
0.0903059
0
LINE
8
BLACK
6
CONTINUOUS
10
1.13582
20
0.0903059
11
1.12587
21
0.0823311
0
LINE
8
BLACK
6
CONTINUOUS
10
1.12587
20
0.0823311
11
1.1169
21
0.073265
0
LINE
8
BLACK
6
CONTINUOUS
10
1.1169
20
0.073265
11
1.10903
21
0.0632279
0
LINE
8
BLACK
6
CONTINUOUS
10
1.10903
20
0.0632279
11
1.10236
21
0.0523527
0
LINE
8
BLACK
6
CONTINUOUS
10
1.10236
20
0.0523527
11
1.09699
21
0.0407836
0
LINE
8
BLACK
6
CONTINUOUS
10
1.09699
20
0.0407836
11
1.09299
21
0.0286739
0
LINE
8
BLACK
6
CONTINUOUS
10
1.09299
20
0.0286739
11
1.0904
21
0.0161842
0
LINE
8
BLACK
6
CONTINUOUS
10
1.0904
20
0.0161842
11
1.08927
21
0.00347992
0
LINE
8
BLACK
6
CONTINUOUS
10
1.08927
20
0.00347992
11
1.0896
21
-0.00927047
0
LINE
8
BLACK
6
CONTINUOUS
10
1.0896
20
-0.00927047
11
1.0914
21
-0.021898
0
LINE
8
BLACK
6
CONTINUOUS
10
-0.122078
20
0.0295339
11
-0.118025
21
0.0429577
0
LINE
8
BLACK
6
CONTINUOUS
10
-0.118025
20
0.0429577
11
-0.112501
21
0.0558462
0
LINE
8
BLACK
6
CONTINUOUS
10
-0.112501
20
0.0558462
11
-0.105575
21
0.0680385
0
LINE
8
BLACK
6
CONTINUOUS
10
-0.105575
20
0.0680385
11
-0.097333
21
0.0793829
0
LINE
8
BLACK
6
CONTINUOUS
10
-0.097333
20
0.0793829
11
-0.0878777
21
0.0897378
0
LINE
8
BLACK
6
CONTINUOUS
10
-0.0878777
20
0.0897378
11
-0.0773271
21
0.0989741
0
LINE
8
BLACK
6
CONTINUOUS
10
-0.0773271
20
0.0989741
11
-0.0658126
21
0.106977
0
LINE
8
BLACK
6
CONTINUOUS
10
-0.0658126
20
0.106977
11
-0.0534779
21
0.113646
0
LINE
8
BLACK
6
CONTINUOUS
10
-0.0534779
20
0.113646
11
-0.0404766
21
0.118899
0
LINE
8
BLACK
6
CONTINUOUS
10
-0.0404766
20
0.118899
11
-0.0269707
21
0.12267
0
LINE
8
BLACK
6
CONTINUOUS
10
-0.0269707
20
0.12267
11
-0.0131288
21
0.124912
0
LINE
8
BLACK
6
CONTINUOUS
10
-0.0131288
20
0.124912
11
0.00087685
21
0.125597
0
LINE
8
BLACK
6
CONTINUOUS
10
0.00087685
20
0.125597
11
0.0148715
21
0.124716
0
LINE
8
BLACK
6
CONTINUOUS
10
0.0148715
20
0.124716
11
0.0286809
21
0.122281
0
LINE
8
BLACK
6
CONTINUOUS
10
0.0286809
20
0.122281
11
0.0421327
21
0.118322
0
LINE
8
BLACK
6
CONTINUOUS
10
0.0421327
20
0.118322
11
0.0550594
21
0.112889
0
LINE
8
BLACK
6
CONTINUOUS
10
0.0550594
20
0.112889
11
0.0672998
21
0.106048
0
LINE
8
BLACK
6
CONTINUOUS
10
0.0672998
20
0.106048
11
0.0787015
21
0.0978848
0
LINE
8
BLACK
6
CONTINUOUS
10
0.0787015
20
0.0978848
11
0.0891221
21
0.088502
0
LINE
8
BLACK
6
CONTINUOUS
10
0.0891221
20
0.088502
11
0.0984319
21
0.0780161
0
LINE
8
BLACK
6
CONTINUOUS
10
0.0984319
20
0.0780161
11
0.106515
21
0.0665579
0
LINE
8
BLACK
6
CONTINUOUS
10
0.106515
20
0.0665579
11
0.11327
21
0.05427
0
LINE
8
BLACK
6
CONTINUOUS
10
0.11327
20
0.05427
11
0.118614
21
0.0413057
0
LINE
8
BLACK
6
CONTINUOUS
10
0.118614
20
0.0413057
11
0.122479
21
0.0278265
0
LINE
8
BLACK
6
CONTINUOUS
10
0.122479
20
0.0278265
11
0.124817
21
0.0140005
0
LINE
8
BLACK
6
CONTINUOUS
10
0.124817
20
0.0140005
11
0.1256
21
0
0
LINE
8
BLACK
6
CONTINUOUS
10
0.1256
20
0
11
0.125551
21
-0.00350697
0
LINE
8
BLACK
6
CONTINUOUS
10
0.125551
20
-0.00350697
11
0.124378
21
-0.0174802
0
LINE
8
BLACK
6
CONTINUOUS
10
0.124378
20
-0.0174802
11
0.121654
21
-0.0312354
0
LINE
8
BLACK
6
CONTINUOUS
10
0.121654
20
-0.0312354
11
0.117414
21
-0.0446014
0
LINE
8
BLACK
6
CONTINUOUS
10
0.117414
20
-0.0446014
11
0.111711
21
-0.0574115
0
LINE
8
BLACK
6
CONTINUOUS
10
0.111711
20
-0.0574115
11
0.104615
21
-0.069506
0
LINE
8
BLACK
6
CONTINUOUS
10
0.104615
20
-0.069506
11
0.0962152
21
-0.0807341
0
LINE
8
BLACK
6
CONTINUOUS
10
0.0962152
20
-0.0807341
11
0.0866162
21
-0.090956
0
LINE
8
BLACK
6
CONTINUOUS
10
0.0866162
20
-0.090956
11
0.0759376
21
-0.100044
0
LINE
8
BLACK
6
CONTINUOUS
10
0.0759376
20
-0.100044
11
0.0643126
21
-0.107885
0
LINE
8
BLACK
6
CONTINUOUS
10
0.0643126
20
-0.107885
11
0.0518859
21
-0.114382
0
LINE
8
BLACK
6
CONTINUOUS
10
0.0518859
20
-0.114382
11
0.0388125
21
-0.119453
0
LINE
8
BLACK
6
CONTINUOUS
10
0.0388125
20
-0.119453
11
0.0252554
21
-0.123035
0
LINE
8
BLACK
6
CONTINUOUS
10
0.0252554
20
-0.123035
11
0.0113835
21
-0.125083
0
LINE
8
BLACK
6
CONTINUOUS
10
0.0113835
20
-0.125083
11
-0.00263035
21
-0.125572
0
LINE
8
BLACK
6
CONTINUOUS
10
-0.00263035
20
-0.125572
11
-0.0166114
21
-0.124497
0
LINE
8
BLACK
6
CONTINUOUS
10
-0.0166114
20
-0.124497
11
-0.0303854
21
-0.121869
0
LINE
8
BLACK
6
CONTINUOUS
10
-0.0303854
20
-0.121869
11
-0.0437806
21
-0.117723
0
LINE
8
BLACK
6
CONTINUOUS
10
-0.0437806
20
-0.117723
11
-0.0566302
21
-0.112109
0
LINE
8
BLACK
6
CONTINUOUS
10
-0.0566302
20
-0.112109
11
-0.0687739
21
-0.105098
0
LINE
8
BLACK
6
CONTINUOUS
10
-0.0687739
20
-0.105098
11
-0.0800605
21
-0.0967765
0
LINE
8
BLACK
6
CONTINUOUS
10
-0.0800605
20
-0.0967765
11
-0.0903491
21
-0.0872491
0
LINE
8
BLACK
6
CONTINUOUS
10
-0.0903491
20
-0.0872491
11
-0.0995116
21
-0.0766343
0
LINE
8
BLACK
6
CONTINUOUS
10
-0.0995116
20
-0.0766343
11
-0.107434
21
-0.0650642
0
LINE
8
BLACK
6
CONTINUOUS
10
-0.107434
20
-0.0650642
11
-0.114017
21
-0.0526832
0
LINE
8
BLACK
6
CONTINUOUS
10
-0.114017
20
-0.0526832
11
-0.119179
21
-0.0396455
0
LINE
8
BLACK
6
CONTINUOUS
10
-0.119179
20
-0.0396455
11
-0.122855
21
-0.0261137
0
LINE
8
BLACK
6
CONTINUOUS
10
-0.122855
20
-0.0261137
11
-0.125001
21
-0.0122564
0
LINE
8
BLACK
6
CONTINUOUS
10
-0.125001
20
-0.0122564
11
-0.125588
21
0.00175366
0
LINE
8
BLACK
6
CONTINUOUS
10
-0.125588
20
0.00175366
11
-0.125467
21
0.00347992
0
LINE
8
BLACK
6
CONTINUOUS
10
-0.125467
20
0.00347992
11
-0.12461
21
0.0157419
0
LINE
8
BLACK
6
CONTINUOUS
10
-0.12461
20
0.0157419
11
-0.122078
21
0.0295339
0
LINE
8
BLACK
6
CONTINUOUS
10
-0.108602
20
-0.021898
11
-0.105365
21
-0.0342352
0
LINE
8
BLACK
6
CONTINUOUS
10
-0.105365
20
-0.0342352
11
-0.100732
21
-0.0461187
0
LINE
8
BLACK
6
CONTINUOUS
10
-0.100732
20
-0.0461187
11
-0.0947636
21
-0.0573909
0
LINE
8
BLACK
6
CONTINUOUS
10
-0.0947636
20
-0.0573909
11
-0.0875393
21
-0.0679024
0
LINE
8
BLACK
6
CONTINUOUS
10
-0.0875393
20
-0.0679024
11
-0.0791546
21
-0.0775139
0
LINE
8
BLACK
6
CONTINUOUS
10
-0.0791546
20
-0.0775139
11
-0.0697208
21
-0.086098
0
LINE
8
BLACK
6
CONTINUOUS
10
-0.0697208
20
-0.086098
11
-0.0593629
21
-0.0935409
0
LINE
8
BLACK
6
CONTINUOUS
10
-0.0593629
20
-0.0935409
11
-0.0482181
21
-0.099744
0
LINE
8
BLACK
6
CONTINUOUS
10
-0.0482181
20
-0.099744
11
-0.0364343
21
-0.104625
0
LINE
8
BLACK
6
CONTINUOUS
10
-0.0364343
20
-0.104625
11
-0.0241675
21
-0.108119
0
LINE
8
BLACK
6
CONTINUOUS
10
-0.0241675
20
-0.108119
11
-0.0115804
21
-0.110181
0
LINE
8
BLACK
6
CONTINUOUS
10
-0.0115804
20
-0.110181
11
0.00116016
21
-0.110781
0
LINE
8
BLACK
6
CONTINUOUS
10
0.00116016
20
-0.110781
11
0.0138854
21
-0.109914
0
LINE
8
BLACK
6
CONTINUOUS
10
0.0138854
20
-0.109914
11
0.0264265
21
-0.107589
0
LINE
8
BLACK
6
CONTINUOUS
10
0.0264265
20
-0.107589
11
0.0386174
21
-0.103839
0
LINE
8
BLACK
6
CONTINUOUS
10
0.0386174
20
-0.103839
11
0.0502965
21
-0.0987123
0
LINE
8
BLACK
6
CONTINUOUS
10
0.0502965
20
-0.0987123
11
0.0613088
21
-0.0922772
0
LINE
8
BLACK
6
CONTINUOUS
10
0.0613088
20
-0.0922772
11
0.0715086
21
-0.084619
0
LINE
8
BLACK
6
CONTINUOUS
10
0.0715086
20
-0.084619
11
0.0807606
21
-0.0758392
0
LINE
8
BLACK
6
CONTINUOUS
10
0.0807606
20
-0.0758392
11
0.0889421
21
-0.0660542
0
LINE
8
BLACK
6
CONTINUOUS
10
0.0889421
20
-0.0660542
11
0.0959447
21
-0.0553937
0
LINE
8
BLACK
6
CONTINUOUS
10
0.0959447
20
-0.0553937
11
0.101676
21
-0.043999
0
LINE
8
BLACK
6
CONTINUOUS
10
0.101676
20
-0.043999
11
0.106059
21
-0.0320211
0
LINE
8
BLACK
6
CONTINUOUS
10
0.106059
20
-0.0320211
11
0.109036
21
-0.0196188
0
LINE
8
BLACK
6
CONTINUOUS
10
0.109036
20
-0.0196188
11
0.110569
21
-0.00695642
0
LINE
8
BLACK
6
CONTINUOUS
10
0.110569
20
-0.00695642
11
0.110787
21
0
0
LINE
8
BLACK
6
CONTINUOUS
10
0.110787
20
0
11
0.110053
21
0.0127336
0
LINE
8
BLACK
6
CONTINUOUS
10
0.110053
20
0.0127336
11
0.10786
21
0.0252984
0
LINE
8
BLACK
6
CONTINUOUS
10
0.10786
20
0.0252984
11
0.104238
21
0.0375279
0
LINE
8
BLACK
6
CONTINUOUS
10
0.104238
20
0.0375279
11
0.0992336
21
0.04926
0
LINE
8
BLACK
6
CONTINUOUS
10
0.0992336
20
0.04926
11
0.0929142
21
0.0603392
0
LINE
8
BLACK
6
CONTINUOUS
10
0.0929142
20
0.0603392
11
0.0853632
21
0.0706186
0
LINE
8
BLACK
6
CONTINUOUS
10
0.0853632
20
0.0706186
11
0.0766808
21
0.079962
0
LINE
8
BLACK
6
CONTINUOUS
10
0.0766808
20
0.079962
11
0.066982
21
0.0882455
0
LINE
8
BLACK
6
CONTINUOUS
10
0.066982
20
0.0882455
11
0.0563954
21
0.0953594
0
LINE
8
BLACK
6
CONTINUOUS
10
0.0563954
20
0.0953594
11
0.0450613
21
0.101209
0
LINE
8
BLACK
6
CONTINUOUS
10
0.0450613
20
0.101209
11
0.03313
21
0.105718
0
LINE
8
BLACK
6
CONTINUOUS
10
0.03313
20
0.105718
11
0.0207595
21
0.108825
0
LINE
8
BLACK
6
CONTINUOUS
10
0.0207595
20
0.108825
11
0.00811386
21
0.11049
0
LINE
8
BLACK
6
CONTINUOUS
10
0.00811386
20
0.11049
11
-0.00463929
21
0.11069
0
LINE
8
BLACK
6
CONTINUOUS
10
-0.00463929
20
0.11069
11
-0.017331
21
0.109423
0
LINE
8
BLACK
6
CONTINUOUS
10
-0.017331
20
0.109423
11
-0.029793
21
0.106706
0
LINE
8
BLACK
6
CONTINUOUS
10
-0.029793
20
0.106706
11
-0.04186
21
0.102575
0
LINE
8
BLACK
6
CONTINUOUS
10
-0.04186
20
0.102575
11
-0.0533722
21
0.0970838
0
LINE
8
BLACK
6
CONTINUOUS
10
-0.0533722
20
0.0970838
11
-0.0641771
21
0.0903059
0
LINE
8
BLACK
6
CONTINUOUS
10
-0.0641771
20
0.0903059
11
-0.0741313
21
0.0823311
0
LINE
8
BLACK
6
CONTINUOUS
10
-0.0741313
20
0.0823311
11
-0.0831029
21
0.073265
0
LINE
8
BLACK
6
CONTINUOUS
10
-0.0831029
20
0.073265
11
-0.090973
21
0.0632279
0
LINE
8
BLACK
6
CONTINUOUS
10
-0.090973
20
0.0632279
11
-0.0976374
21
0.0523527
0
LINE
8
BLACK
6
CONTINUOUS
10
-0.0976374
20
0.0523527
11
-0.103008
21
0.0407836
0
LINE
8
BLACK
6
CONTINUOUS
10
-0.103008
20
0.0407836
11
-0.107012
21
0.0286739
0
LINE
8
BLACK
6
CONTINUOUS
10
-0.107012
20
0.0286739
11
-0.109599
21
0.0161842
0
LINE
8
BLACK
6
CONTINUOUS
10
-0.109599
20
0.0161842
11
-0.110733
21
0.00347992
0
LINE
8
BLACK
6
CONTINUOUS
10
-0.110733
20
0.00347992
11
-0.110399
21
-0.00927047
0
LINE
8
BLACK
6
CONTINUOUS
10
-0.110399
20
-0.00927047
11
-0.108602
21
-0.021898
0
LINE
8
BLACK
6
CONTINUOUS
10
1.07792
20
1.22953
11
1.08197
21
1.24296
0
LINE
8
BLACK
6
CONTINUOUS
10
1.08197
20
1.24296
11
1.0875
21
1.25585
0
LINE
8
BLACK
6
CONTINUOUS
10
1.0875
20
1.25585
11
1.09442
21
1.26804
0
LINE
8
BLACK
6
CONTINUOUS
10
1.09442
20
1.26804
11
1.10267
21
1.27938
0
LINE
8
BLACK
6
CONTINUOUS
10
1.10267
20
1.27938
11
1.11212
21
1.28974
0
LINE
8
BLACK
6
CONTINUOUS
10
1.11212
20
1.28974
11
1.12267
21
1.29897
0
LINE
8
BLACK
6
CONTINUOUS
10
1.12267
20
1.29897
11
1.13419
21
1.30698
0
LINE
8
BLACK
6
CONTINUOUS
10
1.13419
20
1.30698
11
1.14652
21
1.31365
0
LINE
8
BLACK
6
CONTINUOUS
10
1.14652
20
1.31365
11
1.15952
21
1.3189
0
LINE
8
BLACK
6
CONTINUOUS
10
1.15952
20
1.3189
11
1.17303
21
1.32267
0
LINE
8
BLACK
6
CONTINUOUS
10
1.17303
20
1.32267
11
1.18687
21
1.32491
0
LINE
8
BLACK
6
CONTINUOUS
10
1.18687
20
1.32491
11
1.20088
21
1.3256
0
LINE
8
BLACK
6
CONTINUOUS
10
1.20088
20
1.3256
11
1.21487
21
1.32472
0
LINE
8
BLACK
6
CONTINUOUS
10
1.21487
20
1.32472
11
1.22868
21
1.32228
0
LINE
8
BLACK
6
CONTINUOUS
10
1.22868
20
1.32228
11
1.24213
21
1.31832
0
LINE
8
BLACK
6
CONTINUOUS
10
1.24213
20
1.31832
11
1.25506
21
1.31289
0
LINE
8
BLACK
6
CONTINUOUS
10
1.25506
20
1.31289
11
1.2673
21
1.30605
0
LINE
8
BLACK
6
CONTINUOUS
10
1.2673
20
1.30605
11
1.2787
21
1.29788
0
LINE
8
BLACK
6
CONTINUOUS
10
1.2787
20
1.29788
11
1.28912
21
1.2885
0
LINE
8
BLACK
6
CONTINUOUS
10
1.28912
20
1.2885
11
1.29843
21
1.27802
0
LINE
8
BLACK
6
CONTINUOUS
10
1.29843
20
1.27802
11
1.30651
21
1.26656
0
LINE
8
BLACK
6
CONTINUOUS
10
1.30651
20
1.26656
11
1.31327
21
1.25427
0
LINE
8
BLACK
6
CONTINUOUS
10
1.31327
20
1.25427
11
1.31861
21
1.24131
0
LINE
8
BLACK
6
CONTINUOUS
10
1.31861
20
1.24131
11
1.32248
21
1.22783
0
LINE
8
BLACK
6
CONTINUOUS
10
1.32248
20
1.22783
11
1.32482
21
1.214
0
LINE
8
BLACK
6
CONTINUOUS
10
1.32482
20
1.214
11
1.3256
21
1.2
0
LINE
8
BLACK
6
CONTINUOUS
10
1.3256
20
1.2
11
1.32555
21
1.19649
0
LINE
8
BLACK
6
CONTINUOUS
10
1.32555
20
1.19649
11
1.32438
21
1.18252
0
LINE
8
BLACK
6
CONTINUOUS
10
1.32438
20
1.18252
11
1.32165
21
1.16876
0
LINE
8
BLACK
6
CONTINUOUS
10
1.32165
20
1.16876
11
1.31741
21
1.1554
0
LINE
8
BLACK
6
CONTINUOUS
10
1.31741
20
1.1554
11
1.31171
21
1.14259
0
LINE
8
BLACK
6
CONTINUOUS
10
1.31171
20
1.14259
11
1.30461
21
1.13049
0
LINE
8
BLACK
6
CONTINUOUS
10
1.30461
20
1.13049
11
1.29622
21
1.11927
0
LINE
8
BLACK
6
CONTINUOUS
10
1.29622
20
1.11927
11
1.28662
21
1.10904
0
LINE
8
BLACK
6
CONTINUOUS
10
1.28662
20
1.10904
11
1.27594
21
1.09996
0
LINE
8
BLACK
6
CONTINUOUS
10
1.27594
20
1.09996
11
1.26431
21
1.09211
0
LINE
8
BLACK
6
CONTINUOUS
10
1.26431
20
1.09211
11
1.25189
21
1.08562
0
LINE
8
BLACK
6
CONTINUOUS
10
1.25189
20
1.08562
11
1.23881
21
1.08055
0
LINE
8
BLACK
6
CONTINUOUS
10
1.23881
20
1.08055
11
1.22526
21
1.07697
0
LINE
8
BLACK
6
CONTINUOUS
10
1.22526
20
1.07697
11
1.21138
21
1.07492
0
LINE
8
BLACK
6
CONTINUOUS
10
1.21138
20
1.07492
11
1.19737
21
1.07443
0
LINE
8
BLACK
6
CONTINUOUS
10
1.19737
20
1.07443
11
1.18339
21
1.0755
0
LINE
8
BLACK
6
CONTINUOUS
10
1.18339
20
1.0755
11
1.16961
21
1.07813
0
LINE
8
BLACK
6
CONTINUOUS
10
1.16961
20
1.07813
11
1.15622
21
1.08228
0
LINE
8
BLACK
6
CONTINUOUS
10
1.15622
20
1.08228
11
1.14337
21
1.08789
0
LINE
8
BLACK
6
CONTINUOUS
10
1.14337
20
1.08789
11
1.13123
21
1.0949
0
LINE
8
BLACK
6
CONTINUOUS
10
1.13123
20
1.0949
11
1.11994
21
1.10322
0
LINE
8
BLACK
6
CONTINUOUS
10
1.11994
20
1.10322
11
1.10965
21
1.11275
0
LINE
8
BLACK
6
CONTINUOUS
10
1.10965
20
1.11275
11
1.10049
21
1.12337
0
LINE
8
BLACK
6
CONTINUOUS
10
1.10049
20
1.12337
11
1.09257
21
1.13494
0
LINE
8
BLACK
6
CONTINUOUS
10
1.09257
20
1.13494
11
1.08598
21
1.14732
0
LINE
8
BLACK
6
CONTINUOUS
10
1.08598
20
1.14732
11
1.08082
21
1.16035
0
LINE
8
BLACK
6
CONTINUOUS
10
1.08082
20
1.16035
11
1.07714
21
1.17389
0
LINE
8
BLACK
6
CONTINUOUS
10
1.07714
20
1.17389
11
1.075
21
1.18774
0
LINE
8
BLACK
6
CONTINUOUS
10
1.075
20
1.18774
11
1.07441
21
1.20175
0
LINE
8
BLACK
6
CONTINUOUS
10
1.07441
20
1.20175
11
1.07453
21
1.20348
0
LINE
8
BLACK
6
CONTINUOUS
10
1.07453
20
1.20348
11
1.07539
21
1.21574
0
LINE
8
BLACK
6
CONTINUOUS
10
1.07539
20
1.21574
11
1.07792
21
1.22953
0
LINE
8
BLACK
6
CONTINUOUS
10
1.0914
20
1.1781
11
1.09463
21
1.16576
0
LINE
8
BLACK
6
CONTINUOUS
10
1.09463
20
1.16576
11
1.09927
21
1.15388
0
LINE
8
BLACK
6
CONTINUOUS
10
1.09927
20
1.15388
11
1.10524
21
1.14261
0
LINE
8
BLACK
6
CONTINUOUS
10
1.10524
20
1.14261
11
1.11246
21
1.1321
0
LINE
8
BLACK
6
CONTINUOUS
10
1.11246
20
1.1321
11
1.12085
21
1.12249
0
LINE
8
BLACK
6
CONTINUOUS
10
1.12085
20
1.12249
11
1.13028
21
1.1139
0
LINE
8
BLACK
6
CONTINUOUS
10
1.13028
20
1.1139
11
1.14064
21
1.10646
0
LINE
8
BLACK
6
CONTINUOUS
10
1.14064
20
1.10646
11
1.15178
21
1.10026
0
LINE
8
BLACK
6
CONTINUOUS
10
1.15178
20
1.10026
11
1.16357
21
1.09537
0
LINE
8
BLACK
6
CONTINUOUS
10
1.16357
20
1.09537
11
1.17583
21
1.09188
0
LINE
8
BLACK
6
CONTINUOUS
10
1.17583
20
1.09188
11
1.18842
21
1.08982
0
LINE
8
BLACK
6
CONTINUOUS
10
1.18842
20
1.08982
11
1.20116
21
1.08922
0
LINE
8
BLACK
6
CONTINUOUS
10
1.20116
20
1.08922
11
1.21389
21
1.09009
0
LINE
8
BLACK
6
CONTINUOUS
10
1.21389
20
1.09009
11
1.22643
21
1.09241
0
LINE
8
BLACK
6
CONTINUOUS
10
1.22643
20
1.09241
11
1.23862
21
1.09616
0
LINE
8
BLACK
6
CONTINUOUS
10
1.23862
20
1.09616
11
1.2503
21
1.10129
0
LINE
8
BLACK
6
CONTINUOUS
10
1.2503
20
1.10129
11
1.26131
21
1.10772
0
LINE
8
BLACK
6
CONTINUOUS
10
1.26131
20
1.10772
11
1.27151
21
1.11538
0
LINE
8
BLACK
6
CONTINUOUS
10
1.27151
20
1.11538
11
1.28076
21
1.12416
0
LINE
8
BLACK
6
CONTINUOUS
10
1.28076
20
1.12416
11
1.28894
21
1.13395
0
LINE
8
BLACK
6
CONTINUOUS
10
1.28894
20
1.13395
11
1.29594
21
1.14461
0
LINE
8
BLACK
6
CONTINUOUS
10
1.29594
20
1.14461
11
1.30168
21
1.156
0
LINE
8
BLACK
6
CONTINUOUS
10
1.30168
20
1.156
11
1.30606
21
1.16798
0
LINE
8
BLACK
6
CONTINUOUS
10
1.30606
20
1.16798
11
1.30904
21
1.18038
0
LINE
8
BLACK
6
CONTINUOUS
10
1.30904
20
1.18038
11
1.31057
21
1.19304
0
LINE
8
BLACK
6
CONTINUOUS
10
1.31057
20
1.19304
11
1.31079
21
1.2
0
LINE
8
BLACK
6
CONTINUOUS
10
1.31079
20
1.2
11
1.31005
21
1.21273
0
LINE
8
BLACK
6
CONTINUOUS
10
1.31005
20
1.21273
11
1.30786
21
1.2253
0
LINE
8
BLACK
6
CONTINUOUS
10
1.30786
20
1.2253
11
1.30424
21
1.23753
0
LINE
8
BLACK
6
CONTINUOUS
10
1.30424
20
1.23753
11
1.29923
21
1.24926
0
LINE
8
BLACK
6
CONTINUOUS
10
1.29923
20
1.24926
11
1.29291
21
1.26034
0
LINE
8
BLACK
6
CONTINUOUS
10
1.29291
20
1.26034
11
1.28536
21
1.27062
0
LINE
8
BLACK
6
CONTINUOUS
10
1.28536
20
1.27062
11
1.27668
21
1.27996
0
LINE
8
BLACK
6
CONTINUOUS
10
1.27668
20
1.27996
11
1.26698
21
1.28825
0
LINE
8
BLACK
6
CONTINUOUS
10
1.26698
20
1.28825
11
1.2564
21
1.29536
0
LINE
8
BLACK
6
CONTINUOUS
10
1.2564
20
1.29536
11
1.24506
21
1.30121
0
LINE
8
BLACK
6
CONTINUOUS
10
1.24506
20
1.30121
11
1.23313
21
1.30572
0
LINE
8
BLACK
6
CONTINUOUS
10
1.23313
20
1.30572
11
1.22076
21
1.30883
0
LINE
8
BLACK
6
CONTINUOUS
10
1.22076
20
1.30883
11
1.20811
21
1.31049
0
LINE
8
BLACK
6
CONTINUOUS
10
1.20811
20
1.31049
11
1.19536
21
1.31069
0
LINE
8
BLACK
6
CONTINUOUS
10
1.19536
20
1.31069
11
1.18267
21
1.30942
0
LINE
8
BLACK
6
CONTINUOUS
10
1.18267
20
1.30942
11
1.17021
21
1.30671
0
LINE
8
BLACK
6
CONTINUOUS
10
1.17021
20
1.30671
11
1.15814
21
1.30257
0
LINE
8
BLACK
6
CONTINUOUS
10
1.15814
20
1.30257
11
1.14663
21
1.29708
0
LINE
8
BLACK
6
CONTINUOUS
10
1.14663
20
1.29708
11
1.13582
21
1.29031
0
LINE
8
BLACK
6
CONTINUOUS
10
1.13582
20
1.29031
11
1.12587
21
1.28233
0
LINE
8
BLACK
6
CONTINUOUS
10
1.12587
20
1.28233
11
1.1169
21
1.27327
0
LINE
8
BLACK
6
CONTINUOUS
10
1.1169
20
1.27327
11
1.10903
21
1.26323
0
LINE
8
BLACK
6
CONTINUOUS
10
1.10903
20
1.26323
11
1.10236
21
1.25235
0
LINE
8
BLACK
6
CONTINUOUS
10
1.10236
20
1.25235
11
1.09699
21
1.24078
0
LINE
8
BLACK
6
CONTINUOUS
10
1.09699
20
1.24078
11
1.09299
21
1.22867
0
LINE
8
BLACK
6
CONTINUOUS
10
1.09299
20
1.22867
11
1.0904
21
1.21618
0
LINE
8
BLACK
6
CONTINUOUS
10
1.0904
20
1.21618
11
1.08927
21
1.20348
0
LINE
8
BLACK
6
CONTINUOUS
10
1.08927
20
1.20348
11
1.0896
21
1.19073
0
LINE
8
BLACK
6
CONTINUOUS
10
1.0896
20
1.19073
11
1.0914
21
1.1781
0
LINE
8
BLACK
6
CONTINUOUS
10
-0.122078
20
1.22953
11
-0.118025
21
1.24296
0
LINE
8
BLACK
6
CONTINUOUS
10
-0.118025
20
1.24296
11
-0.112501
21
1.25585
0
LINE
8
BLACK
6
CONTINUOUS
10
-0.112501
20
1.25585
11
-0.105575
21
1.26804
0
LINE
8
BLACK
6
CONTINUOUS
10
-0.105575
20
1.26804
11
-0.097333
21
1.27938
0
LINE
8
BLACK
6
CONTINUOUS
10
-0.097333
20
1.27938
11
-0.0878777
21
1.28974
0
LINE
8
BLACK
6
CONTINUOUS
10
-0.0878777
20
1.28974
11
-0.0773271
21
1.29897
0
LINE
8
BLACK
6
CONTINUOUS
10
-0.0773271
20
1.29897
11
-0.0658126
21
1.30698
0
LINE
8
BLACK
6
CONTINUOUS
10
-0.0658126
20
1.30698
11
-0.0534779
21
1.31365
0
LINE
8
BLACK
6
CONTINUOUS
10
-0.0534779
20
1.31365
11
-0.0404766
21
1.3189
0
LINE
8
BLACK
6
CONTINUOUS
10
-0.0404766
20
1.3189
11
-0.0269707
21
1.32267
0
LINE
8
BLACK
6
CONTINUOUS
10
-0.0269707
20
1.32267
11
-0.0131288
21
1.32491
0
LINE
8
BLACK
6
CONTINUOUS
10
-0.0131288
20
1.32491
11
0.00087685
21
1.3256
0
LINE
8
BLACK
6
CONTINUOUS
10
0.00087685
20
1.3256
11
0.0148715
21
1.32472
0
LINE
8
BLACK
6
CONTINUOUS
10
0.0148715
20
1.32472
11
0.0286809
21
1.32228
0
LINE
8
BLACK
6
CONTINUOUS
10
0.0286809
20
1.32228
11
0.0421327
21
1.31832
0
LINE
8
BLACK
6
CONTINUOUS
10
0.0421327
20
1.31832
11
0.0550594
21
1.31289
0
LINE
8
BLACK
6
CONTINUOUS
10
0.0550594
20
1.31289
11
0.0672998
21
1.30605
0
LINE
8
BLACK
6
CONTINUOUS
10
0.0672998
20
1.30605
11
0.0787015
21
1.29788
0
LINE
8
BLACK
6
CONTINUOUS
10
0.0787015
20
1.29788
11
0.0891221
21
1.2885
0
LINE
8
BLACK
6
CONTINUOUS
10
0.0891221
20
1.2885
11
0.0984319
21
1.27802
0
LINE
8
BLACK
6
CONTINUOUS
10
0.0984319
20
1.27802
11
0.106515
21
1.26656
0
LINE
8
BLACK
6
CONTINUOUS
10
0.106515
20
1.26656
11
0.11327
21
1.25427
0
LINE
8
BLACK
6
CONTINUOUS
10
0.11327
20
1.25427
11
0.118614
21
1.24131
0
LINE
8
BLACK
6
CONTINUOUS
10
0.118614
20
1.24131
11
0.122479
21
1.22783
0
LINE
8
BLACK
6
CONTINUOUS
10
0.122479
20
1.22783
11
0.124817
21
1.214
0
LINE
8
BLACK
6
CONTINUOUS
10
0.124817
20
1.214
11
0.1256
21
1.2
0
LINE
8
BLACK
6
CONTINUOUS
10
0.1256
20
1.2
11
0.125551
21
1.19649
0
LINE
8
BLACK
6
CONTINUOUS
10
0.125551
20
1.19649
11
0.124378
21
1.18252
0
LINE
8
BLACK
6
CONTINUOUS
10
0.124378
20
1.18252
11
0.121654
21
1.16876
0
LINE
8
BLACK
6
CONTINUOUS
10
0.121654
20
1.16876
11
0.117414
21
1.1554
0
LINE
8
BLACK
6
CONTINUOUS
10
0.117414
20
1.1554
11
0.111711
21
1.14259
0
LINE
8
BLACK
6
CONTINUOUS
10
0.111711
20
1.14259
11
0.104615
21
1.13049
0
LINE
8
BLACK
6
CONTINUOUS
10
0.104615
20
1.13049
11
0.0962152
21
1.11927
0
LINE
8
BLACK
6
CONTINUOUS
10
0.0962152
20
1.11927
11
0.0866162
21
1.10904
0
LINE
8
BLACK
6
CONTINUOUS
10
0.0866162
20
1.10904
11
0.0759376
21
1.09996
0
LINE
8
BLACK
6
CONTINUOUS
10
0.0759376
20
1.09996
11
0.0643126
21
1.09211
0
LINE
8
BLACK
6
CONTINUOUS
10
0.0643126
20
1.09211
11
0.0518859
21
1.08562
0
LINE
8
BLACK
6
CONTINUOUS
10
0.0518859
20
1.08562
11
0.0388125
21
1.08055
0
LINE
8
BLACK
6
CONTINUOUS
10
0.0388125
20
1.08055
11
0.0252554
21
1.07697
0
LINE
8
BLACK
6
CONTINUOUS
10
0.0252554
20
1.07697
11
0.0113835
21
1.07492
0
LINE
8
BLACK
6
CONTINUOUS
10
0.0113835
20
1.07492
11
-0.00263035
21
1.07443
0
LINE
8
BLACK
6
CONTINUOUS
10
-0.00263035
20
1.07443
11
-0.0166114
21
1.0755
0
LINE
8
BLACK
6
CONTINUOUS
10
-0.0166114
20
1.0755
11
-0.0303854
21
1.07813
0
LINE
8
BLACK
6
CONTINUOUS
10
-0.0303854
20
1.07813
11
-0.0437806
21
1.08228
0
LINE
8
BLACK
6
CONTINUOUS
10
-0.0437806
20
1.08228
11
-0.0566302
21
1.08789
0
LINE
8
BLACK
6
CONTINUOUS
10
-0.0566302
20
1.08789
11
-0.0687739
21
1.0949
0
LINE
8
BLACK
6
CONTINUOUS
10
-0.0687739
20
1.0949
11
-0.0800605
21
1.10322
0
LINE
8
BLACK
6
CONTINUOUS
10
-0.0800605
20
1.10322
11
-0.0903491
21
1.11275
0
LINE
8
BLACK
6
CONTINUOUS
10
-0.0903491
20
1.11275
11
-0.0995116
21
1.12337
0
LINE
8
BLACK
6
CONTINUOUS
10
-0.0995116
20
1.12337
11
-0.107434
21
1.13494
0
LINE
8
BLACK
6
CONTINUOUS
10
-0.107434
20
1.13494
11
-0.114017
21
1.14732
0
LINE
8
BLACK
6
CONTINUOUS
10
-0.114017
20
1.14732
11
-0.119179
21
1.16035
0
LINE
8
BLACK
6
CONTINUOUS
10
-0.119179
20
1.16035
11
-0.122855
21
1.17389
0
LINE
8
BLACK
6
CONTINUOUS
10
-0.122855
20
1.17389
11
-0.125001
21
1.18774
0
LINE
8
BLACK
6
CONTINUOUS
10
-0.125001
20
1.18774
11
-0.125588
21
1.20175
0
LINE
8
BLACK
6
CONTINUOUS
10
-0.125588
20
1.20175
11
-0.125467
21
1.20348
0
LINE
8
BLACK
6
CONTINUOUS
10
-0.125467
20
1.20348
11
-0.12461
21
1.21574
0
LINE
8
BLACK
6
CONTINUOUS
10
-0.12461
20
1.21574
11
-0.122078
21
1.22953
0
LINE
8
BLACK
6
CONTINUOUS
10
-0.108602
20
1.1781
11
-0.105365
21
1.16576
0
LINE
8
BLACK
6
CONTINUOUS
10
-0.105365
20
1.16576
11
-0.100732
21
1.15388
0
LINE
8
BLACK
6
CONTINUOUS
10
-0.100732
20
1.15388
11
-0.0947636
21
1.14261
0
LINE
8
BLACK
6
CONTINUOUS
10
-0.0947636
20
1.14261
11
-0.0875393
21
1.1321
0
LINE
8
BLACK
6
CONTINUOUS
10
-0.0875393
20
1.1321
11
-0.0791546
21
1.12249
0
LINE
8
BLACK
6
CONTINUOUS
10
-0.0791546
20
1.12249
11
-0.0697208
21
1.1139
0
LINE
8
BLACK
6
CONTINUOUS
10
-0.0697208
20
1.1139
11
-0.0593629
21
1.10646
0
LINE
8
BLACK
6
CONTINUOUS
10
-0.0593629
20
1.10646
11
-0.0482181
21
1.10026
0
LINE
8
BLACK
6
CONTINUOUS
10
-0.0482181
20
1.10026
11
-0.0364343
21
1.09537
0
LINE
8
BLACK
6
CONTINUOUS
10
-0.0364343
20
1.09537
11
-0.0241675
21
1.09188
0
LINE
8
BLACK
6
CONTINUOUS
10
-0.0241675
20
1.09188
11
-0.0115804
21
1.08982
0
LINE
8
BLACK
6
CONTINUOUS
10
-0.0115804
20
1.08982
11
0.00116016
21
1.08922
0
LINE
8
BLACK
6
CONTINUOUS
10
0.00116016
20
1.08922
11
0.0138854
21
1.09009
0
LINE
8
BLACK
6
CONTINUOUS
10
0.0138854
20
1.09009
11
0.0264265
21
1.09241
0
LINE
8
BLACK
6
CONTINUOUS
10
0.0264265
20
1.09241
11
0.0386174
21
1.09616
0
LINE
8
BLACK
6
CONTINUOUS
10
0.0386174
20
1.09616
11
0.0502965
21
1.10129
0
LINE
8
BLACK
6
CONTINUOUS
10
0.0502965
20
1.10129
11
0.0613088
21
1.10772
0
LINE
8
BLACK
6
CONTINUOUS
10
0.0613088
20
1.10772
11
0.0715086
21
1.11538
0
LINE
8
BLACK
6
CONTINUOUS
10
0.0715086
20
1.11538
11
0.0807606
21
1.12416
0
LINE
8
BLACK
6
CONTINUOUS
10
0.0807606
20
1.12416
11
0.0889421
21
1.13395
0
LINE
8
BLACK
6
CONTINUOUS
10
0.0889421
20
1.13395
11
0.0959447
21
1.14461
0
LINE
8
BLACK
6
CONTINUOUS
10
0.0959447
20
1.14461
11
0.101676
21
1.156
0
LINE
8
BLACK
6
CONTINUOUS
10
0.101676
20
1.156
11
0.106059
21
1.16798
0
LINE
8
BLACK
6
CONTINUOUS
10
0.106059
20
1.16798
11
0.109036
21
1.18038
0
LINE
8
BLACK
6
CONTINUOUS
10
0.109036
20
1.18038
11
0.110569
21
1.19304
0
LINE
8
BLACK
6
CONTINUOUS
10
0.110569
20
1.19304
11
0.110787
21
1.2
0
LINE
8
BLACK
6
CONTINUOUS
10
0.110787
20
1.2
11
0.110053
21
1.21273
0
LINE
8
BLACK
6
CONTINUOUS
10
0.110053
20
1.21273
11
0.10786
21
1.2253
0
LINE
8
BLACK
6
CONTINUOUS
10
0.10786
20
1.2253
11
0.104238
21
1.23753
0
LINE
8
BLACK
6
CONTINUOUS
10
0.104238
20
1.23753
11
0.0992336
21
1.24926
0
LINE
8
BLACK
6
CONTINUOUS
10
0.0992336
20
1.24926
11
0.0929142
21
1.26034
0
LINE
8
BLACK
6
CONTINUOUS
10
0.0929142
20
1.26034
11
0.0853632
21
1.27062
0
LINE
8
BLACK
6
CONTINUOUS
10
0.0853632
20
1.27062
11
0.0766808
21
1.27996
0
LINE
8
BLACK
6
CONTINUOUS
10
0.0766808
20
1.27996
11
0.066982
21
1.28825
0
LINE
8
BLACK
6
CONTINUOUS
10
0.066982
20
1.28825
11
0.0563954
21
1.29536
0
LINE
8
BLACK
6
CONTINUOUS
10
0.0563954
20
1.29536
11
0.0450613
21
1.30121
0
LINE
8
BLACK
6
CONTINUOUS
10
0.0450613
20
1.30121
11
0.03313
21
1.30572
0
LINE
8
BLACK
6
CONTINUOUS
10
0.03313
20
1.30572
11
0.0207595
21
1.30883
0
LINE
8
BLACK
6
CONTINUOUS
10
0.0207595
20
1.30883
11
0.00811386
21
1.31049
0
LINE
8
BLACK
6
CONTINUOUS
10
0.00811386
20
1.31049
11
-0.00463929
21
1.31069
0
LINE
8
BLACK
6
CONTINUOUS
10
-0.00463929
20
1.31069
11
-0.017331
21
1.30942
0
LINE
8
BLACK
6
CONTINUOUS
10
-0.017331
20
1.30942
11
-0.029793
21
1.30671
0
LINE
8
BLACK
6
CONTINUOUS
10
-0.029793
20
1.30671
11
-0.04186
21
1.30257
0
LINE
8
BLACK
6
CONTINUOUS
10
-0.04186
20
1.30257
11
-0.0533722
21
1.29708
0
LINE
8
BLACK
6
CONTINUOUS
10
-0.0533722
20
1.29708
11
-0.0641771
21
1.29031
0
LINE
8
BLACK
6
CONTINUOUS
10
-0.0641771
20
1.29031
11
-0.0741313
21
1.28233
0
LINE
8
BLACK
6
CONTINUOUS
10
-0.0741313
20
1.28233
11
-0.0831029
21
1.27327
0
LINE
8
BLACK
6
CONTINUOUS
10
-0.0831029
20
1.27327
11
-0.090973
21
1.26323
0
LINE
8
BLACK
6
CONTINUOUS
10
-0.090973
20
1.26323
11
-0.0976374
21
1.25235
0
LINE
8
BLACK
6
CONTINUOUS
10
-0.0976374
20
1.25235
11
-0.103008
21
1.24078
0
LINE
8
BLACK
6
CONTINUOUS
10
-0.103008
20
1.24078
11
-0.107012
21
1.22867
0
LINE
8
BLACK
6
CONTINUOUS
10
-0.107012
20
1.22867
11
-0.109599
21
1.21618
0
LINE
8
BLACK
6
CONTINUOUS
10
-0.109599
20
1.21618
11
-0.110733
21
1.20348
0
LINE
8
BLACK
6
CONTINUOUS
10
-0.110733
20
1.20348
11
-0.110399
21
1.19073
0
LINE
8
BLACK
6
CONTINUOUS
10
-0.110399
20
1.19073
11
-0.108602
21
1.1781
  0
ENDSEC
  0
EOF
