  0
SECTION
  2
HEADER
  9
$ANGBASE
  50
0.0
  9
$ANGDIR
  70
1
  9
$MEASUREMENT
  70
0
  0
ENDSEC
  0
SECTION
  2
TABLES
  0
TABLE
  2
LTYPE
  70
4
  0
LTYPE
  5
40F
  2
CONTINUOUS
  70
0
  3
Solid line
  72
65
  73
0
  40
0.0
  0
LTYPE
  5
410
  2
DASHDOT
 70
0
  3
Dash Dot ____ _ ____ _
 72
65
 73
4
 40
2.0
 49
1.25
 49
-0.25
 49
0.25
 49
-0.25
  0
LTYPE
  5
411
  2
DASHED
 70
0
  3
Dashed __ __ __ __ __
 72
65
 73
2
 40
0.75
 49
0.5
 49
-0.25
  0
LTYPE
  5
43B
  2
DOTTED
 70
0
  3
Dotted .  .  .  .
 72
65
 73
2
 40
0.2
 49
0.0
 49
-0.2
  0
ENDTAB
  0
TABLE
  2
STYLE
  70
4
  0
STYLE
  2
KICAD
  70
0
  40
0
  41
1
  42
1
  50
0
  71
0
  3
isocp.shx
  0
STYLE
  2
KICADB
  70
0
  40
0
  41
1
  42
1
  50
0
  71
0
  3
isocp.shx
  0
STYLE
  2
KICADI
  70
0
  40
0
  41
1
  42
1
  50
15
  71
0
  3
isocp.shx
  0
STYLE
  2
KICADBI
  70
0
  40
0
  41
1
  42
1
  50
15
  71
0
  3
isocp.shx
  0
ENDTAB
  0
TABLE
  2
LAYER
  70
1
  0
LAYER
  2
BLACK
  70
0
  62
7
  6
CONTINUOUS
  0
ENDTAB
  0
ENDSEC
  0
SECTION
  2
ENTITIES
0
LINE
8
BLACK
6
CONTINUOUS
10
0.4239695275590551
20
0.6858041732283464
11
0.4246614173228346
21
0.6841338582677166
0
LINE
8
BLACK
6
CONTINUOUS
10
0.4246614173228346
20
0.6841338582677166
11
0.4239695275590551
21
0.6824635433070866
0
LINE
8
BLACK
6
CONTINUOUS
10
0.4239695275590551
20
0.6824635433070866
11
0.4222992125984252
21
0.681771653543307
0
LINE
8
BLACK
6
CONTINUOUS
10
0.4222992125984252
20
0.681771653543307
11
0.3856850393700788
21
0.681771653543307
0
LINE
8
BLACK
6
CONTINUOUS
10
0.3856850393700788
20
0.681771653543307
11
0.3856850393700788
21
0.6132677165354331
0
LINE
8
BLACK
6
CONTINUOUS
10
0.3856850393700788
20
0.6132677165354331
11
0.3849931496062992
21
0.6115974015748031
0
LINE
8
BLACK
6
CONTINUOUS
10
0.3849931496062992
20
0.6115974015748031
11
0.3833228346456693
21
0.6109055118110236
0
LINE
8
BLACK
6
CONTINUOUS
10
0.3833228346456693
20
0.6109055118110236
11
0.3262362204724409
21
0.6109055118110236
0
LINE
8
BLACK
6
CONTINUOUS
10
0.3262362204724409
20
0.6109055118110236
11
0.324565905511811
21
0.6115974015748031
0
LINE
8
BLACK
6
CONTINUOUS
10
0.324565905511811
20
0.6115974015748031
11
0.3238740157480315
21
0.6132677165354331
0
LINE
8
BLACK
6
CONTINUOUS
10
0.3238740157480315
20
0.6132677165354331
11
0.324565905511811
21
0.614938031496063
0
LINE
8
BLACK
6
CONTINUOUS
10
0.324565905511811
20
0.614938031496063
11
0.3262362204724409
21
0.6156299212598425
0
LINE
8
BLACK
6
CONTINUOUS
10
0.3262362204724409
20
0.6156299212598425
11
0.3809606299212598
21
0.6156299212598425
0
LINE
8
BLACK
6
CONTINUOUS
10
0.3809606299212598
20
0.6156299212598425
11
0.3809606299212598
21
0.6841338582677166
0
LINE
8
BLACK
6
CONTINUOUS
10
0.3809606299212598
20
0.6841338582677166
11
0.3816525196850394
21
0.6858041732283464
0
LINE
8
BLACK
6
CONTINUOUS
10
0.3816525196850394
20
0.6858041732283464
11
0.3833228346456693
21
0.686496062992126
0
LINE
8
BLACK
6
CONTINUOUS
10
0.3833228346456693
20
0.686496062992126
11
0.4222992125984252
21
0.686496062992126
0
LINE
8
BLACK
6
CONTINUOUS
10
0.4222992125984252
20
0.686496062992126
11
0.4239695275590551
21
0.6858041732283464
0
LINE
8
BLACK
6
CONTINUOUS
10
0.8183474803149606
20
0.6858041732283464
11
0.8190393700787402
21
0.6841338582677166
0
LINE
8
BLACK
6
CONTINUOUS
10
0.8190393700787402
20
0.6841338582677166
11
0.8190393700787402
21
0.6156299212598425
0
LINE
8
BLACK
6
CONTINUOUS
10
0.8190393700787402
20
0.6156299212598425
11
0.873763779527559
21
0.6156299212598425
0
LINE
8
BLACK
6
CONTINUOUS
10
0.873763779527559
20
0.6156299212598425
11
0.875434094488189
21
0.614938031496063
0
LINE
8
BLACK
6
CONTINUOUS
10
0.875434094488189
20
0.614938031496063
11
0.8761259842519685
21
0.6132677165354331
0
LINE
8
BLACK
6
CONTINUOUS
10
0.8761259842519685
20
0.6132677165354331
11
0.875434094488189
21
0.6115974015748031
0
LINE
8
BLACK
6
CONTINUOUS
10
0.875434094488189
20
0.6115974015748031
11
0.873763779527559
21
0.6109055118110236
0
LINE
8
BLACK
6
CONTINUOUS
10
0.873763779527559
20
0.6109055118110236
11
0.8166771653543307
21
0.6109055118110236
0
LINE
8
BLACK
6
CONTINUOUS
10
0.8166771653543307
20
0.6109055118110236
11
0.8150068503937008
21
0.6115974015748031
0
LINE
8
BLACK
6
CONTINUOUS
10
0.8150068503937008
20
0.6115974015748031
11
0.8143149606299213
21
0.6132677165354331
0
LINE
8
BLACK
6
CONTINUOUS
10
0.8143149606299213
20
0.6132677165354331
11
0.8143149606299213
21
0.6841338582677166
0
LINE
8
BLACK
6
CONTINUOUS
10
0.8143149606299213
20
0.6841338582677166
11
0.8150068503937008
21
0.6858041732283464
0
LINE
8
BLACK
6
CONTINUOUS
10
0.8150068503937008
20
0.6858041732283464
11
0.8166771653543307
21
0.686496062992126
0
LINE
8
BLACK
6
CONTINUOUS
10
0.8166771653543307
20
0.686496062992126
11
0.8183474803149606
21
0.6858041732283464
0
LINE
8
BLACK
6
CONTINUOUS
10
0.2168829133858268
20
0.8984025984251969
11
0.2175748031496063
21
0.8967322834645669
0
LINE
8
BLACK
6
CONTINUOUS
10
0.2175748031496063
20
0.8967322834645669
11
0.2175748031496063
21
0.663267716535433
0
LINE
8
BLACK
6
CONTINUOUS
10
0.2175748031496063
20
0.663267716535433
11
0.2168829133858268
21
0.6615974015748032
0
LINE
8
BLACK
6
CONTINUOUS
10
0.2168829133858268
20
0.6615974015748032
11
0.2152125984251969
21
0.6609055118110236
0
LINE
8
BLACK
6
CONTINUOUS
10
0.2152125984251969
20
0.6609055118110236
11
0.2135422834645669
21
0.6615974015748032
0
LINE
8
BLACK
6
CONTINUOUS
10
0.2135422834645669
20
0.6615974015748032
11
0.2128503937007874
21
0.663267716535433
0
LINE
8
BLACK
6
CONTINUOUS
10
0.2128503937007874
20
0.663267716535433
11
0.2128503937007874
21
0.8967322834645669
0
LINE
8
BLACK
6
CONTINUOUS
10
0.2128503937007874
20
0.8967322834645669
11
0.2135422834645669
21
0.8984025984251969
0
LINE
8
BLACK
6
CONTINUOUS
10
0.2135422834645669
20
0.8984025984251969
11
0.2152125984251969
21
0.8990944881889763
0
LINE
8
BLACK
6
CONTINUOUS
10
0.2152125984251969
20
0.8990944881889763
11
0.2168829133858268
21
0.8984025984251969
0
LINE
8
BLACK
6
CONTINUOUS
10
0.986457716535433
20
0.8984025984251969
11
0.9871496062992126
21
0.8967322834645669
0
LINE
8
BLACK
6
CONTINUOUS
10
0.9871496062992126
20
0.8967322834645669
11
0.9871496062992126
21
0.663267716535433
0
LINE
8
BLACK
6
CONTINUOUS
10
0.9871496062992126
20
0.663267716535433
11
0.986457716535433
21
0.6615974015748032
0
LINE
8
BLACK
6
CONTINUOUS
10
0.986457716535433
20
0.6615974015748032
11
0.9847874015748032
21
0.6609055118110236
0
LINE
8
BLACK
6
CONTINUOUS
10
0.9847874015748032
20
0.6609055118110236
11
0.9831170866141732
21
0.6615974015748032
0
LINE
8
BLACK
6
CONTINUOUS
10
0.9831170866141732
20
0.6615974015748032
11
0.9824251968503936
21
0.663267716535433
0
LINE
8
BLACK
6
CONTINUOUS
10
0.9824251968503936
20
0.663267716535433
11
0.9824251968503936
21
0.8967322834645669
0
LINE
8
BLACK
6
CONTINUOUS
10
0.9824251968503936
20
0.8967322834645669
11
0.9831170866141732
21
0.8984025984251969
0
LINE
8
BLACK
6
CONTINUOUS
10
0.9831170866141732
20
0.8984025984251969
11
0.9847874015748032
21
0.8990944881889763
0
LINE
8
BLACK
6
CONTINUOUS
10
0.9847874015748032
20
0.8990944881889763
11
0.986457716535433
21
0.8984025984251969
0
LINE
8
BLACK
6
CONTINUOUS
10
0.485787874015748
20
0.7783384251968504
11
0.4876626771653543
21
0.7764636614173228
0
LINE
8
BLACK
6
CONTINUOUS
10
0.4876626771653543
20
0.7764636614173228
11
0.4881690551181102
21
0.7757405118110237
0
LINE
8
BLACK
6
CONTINUOUS
10
0.4881690551181102
20
0.7757405118110237
11
0.4882158267716535
21
0.7756962204724409
0
LINE
8
BLACK
6
CONTINUOUS
10
0.4882158267716535
20
0.7756962204724409
11
0.4900905905511811
21
0.7719466929133858
0
LINE
8
BLACK
6
CONTINUOUS
10
0.4900905905511811
20
0.7719466929133858
11
0.4903829527559055
21
0.770963779527559
0
LINE
8
BLACK
6
CONTINUOUS
10
0.4903829527559055
20
0.770963779527559
11
0.4903419291338583
21
0.7707920866141732
0
LINE
8
BLACK
6
CONTINUOUS
10
0.4903419291338583
20
0.7707920866141732
11
0.4904023228346456
21
0.7706261811023621
0
LINE
8
BLACK
6
CONTINUOUS
10
0.4904023228346456
20
0.7706261811023621
11
0.4904023228346456
21
0.7612523622047244
0
LINE
8
BLACK
6
CONTINUOUS
10
0.4904023228346456
20
0.7612523622047244
11
0.4902242519685039
21
0.7602424409448819
0
LINE
8
BLACK
6
CONTINUOUS
10
0.4902242519685039
20
0.7602424409448819
11
0.4901107480314961
21
0.7601072047244094
0
LINE
8
BLACK
6
CONTINUOUS
10
0.4901107480314961
20
0.7601072047244094
11
0.4900905905511811
21
0.7599318503937008
0
LINE
8
BLACK
6
CONTINUOUS
10
0.4900905905511811
20
0.7599318503937008
11
0.4882158267716535
21
0.7561823228346457
0
LINE
8
BLACK
6
CONTINUOUS
10
0.4882158267716535
20
0.7561823228346457
11
0.487689842519685
21
0.7554732283464567
0
LINE
8
BLACK
6
CONTINUOUS
10
0.487689842519685
20
0.7554732283464567
11
0.4876626771653543
21
0.7554148818897638
0
LINE
8
BLACK
6
CONTINUOUS
10
0.4876626771653543
20
0.7554148818897638
11
0.485787874015748
21
0.7535401181102362
0
LINE
8
BLACK
6
CONTINUOUS
10
0.485787874015748
20
0.7535401181102362
11
0.4850648031496063
21
0.7530338582677165
0
LINE
8
BLACK
6
CONTINUOUS
10
0.4850648031496063
20
0.7530338582677165
11
0.4850205118110236
21
0.7529870472440945
0
LINE
8
BLACK
6
CONTINUOUS
10
0.4850205118110236
20
0.7529870472440945
11
0.4812709842519685
21
0.7511122834645669
0
LINE
8
BLACK
6
CONTINUOUS
10
0.4812709842519685
20
0.7511122834645669
11
0.480288031496063
21
0.7508199212598425
0
LINE
8
BLACK
6
CONTINUOUS
10
0.480288031496063
20
0.7508199212598425
11
0.4801163385826772
21
0.7508609448818897
0
LINE
8
BLACK
6
CONTINUOUS
10
0.4801163385826772
20
0.7508609448818897
11
0.4799504724409449
21
0.7508005511811023
0
LINE
8
BLACK
6
CONTINUOUS
10
0.4799504724409449
20
0.7508005511811023
11
0.4705766535433071
21
0.7508005511811023
0
LINE
8
BLACK
6
CONTINUOUS
10
0.4705766535433071
20
0.7508005511811023
11
0.4695667322834646
21
0.7509786220472441
0
LINE
8
BLACK
6
CONTINUOUS
10
0.4695667322834646
20
0.7509786220472441
11
0.4694314566929134
21
0.7510921259842519
0
LINE
8
BLACK
6
CONTINUOUS
10
0.4694314566929134
20
0.7510921259842519
11
0.4692561417322835
21
0.7511122834645669
0
LINE
8
BLACK
6
CONTINUOUS
10
0.4692561417322835
20
0.7511122834645669
11
0.4655066141732284
21
0.7529870472440945
0
LINE
8
BLACK
6
CONTINUOUS
10
0.4655066141732284
20
0.7529870472440945
11
0.4647975196850394
21
0.7535129527559055
0
LINE
8
BLACK
6
CONTINUOUS
10
0.4647975196850394
20
0.7535129527559055
11
0.4647392125984252
21
0.753540157480315
0
LINE
8
BLACK
6
CONTINUOUS
10
0.4647392125984252
20
0.753540157480315
11
0.4628644488188976
21
0.7554149212598426
0
LINE
8
BLACK
6
CONTINUOUS
10
0.4628644488188976
20
0.7554149212598426
11
0.4623581496062992
21
0.756138031496063
0
LINE
8
BLACK
6
CONTINUOUS
10
0.4623581496062992
20
0.756138031496063
11
0.4623113385826771
21
0.7561823228346457
0
LINE
8
BLACK
6
CONTINUOUS
10
0.4623113385826771
20
0.7561823228346457
11
0.4604365748031496
21
0.7599318503937008
0
LINE
8
BLACK
6
CONTINUOUS
10
0.4604365748031496
20
0.7599318503937008
11
0.4601442125984252
21
0.7609148031496062
0
LINE
8
BLACK
6
CONTINUOUS
10
0.4601442125984252
20
0.7609148031496062
11
0.4601851968503937
21
0.7610864960629921
0
LINE
8
BLACK
6
CONTINUOUS
10
0.4601851968503937
20
0.7610864960629921
11
0.4601248425196851
21
0.7612523622047244
0
LINE
8
BLACK
6
CONTINUOUS
10
0.4601248425196851
20
0.7612523622047244
11
0.4601248425196851
21
0.7706261811023621
0
LINE
8
BLACK
6
CONTINUOUS
10
0.4601248425196851
20
0.7706261811023621
11
0.4603029133858267
21
0.7716361023622047
0
LINE
8
BLACK
6
CONTINUOUS
10
0.4603029133858267
20
0.7716361023622047
11
0.4604163779527559
21
0.7717713779527559
0
LINE
8
BLACK
6
CONTINUOUS
10
0.4604163779527559
20
0.7717713779527559
11
0.4604365748031496
21
0.7719466929133858
0
LINE
8
BLACK
6
CONTINUOUS
10
0.4604365748031496
20
0.7719466929133858
11
0.4608035039370079
21
0.7726806299212599
0
LINE
8
BLACK
6
CONTINUOUS
10
0.4608035039370079
20
0.7726806299212599
11
0.4510322440944882
21
0.7717035039370078
0
LINE
8
BLACK
6
CONTINUOUS
10
0.4510322440944882
20
0.7717035039370078
11
0.4510322440944882
21
0.7556280708661417
0
LINE
8
BLACK
6
CONTINUOUS
10
0.4510322440944882
20
0.7556280708661417
11
0.4508541732283464
21
0.7546181496062992
0
LINE
8
BLACK
6
CONTINUOUS
10
0.4508541732283464
20
0.7546181496062992
11
0.4495558661417323
21
0.753070905511811
0
LINE
8
BLACK
6
CONTINUOUS
10
0.4495558661417323
20
0.753070905511811
11
0.4475667322834646
21
0.752720157480315
0
LINE
8
BLACK
6
CONTINUOUS
10
0.4475667322834646
20
0.752720157480315
11
0.4458175590551181
21
0.7537300787401575
0
LINE
8
BLACK
6
CONTINUOUS
10
0.4458175590551181
20
0.7537300787401575
11
0.4451267322834646
21
0.7556280708661417
0
LINE
8
BLACK
6
CONTINUOUS
10
0.4451267322834646
20
0.7556280708661417
11
0.4451267322834646
21
0.7743757086614173
0
LINE
8
BLACK
6
CONTINUOUS
10
0.4451267322834646
20
0.7743757086614173
11
0.4451538188976378
21
0.7745295669291339
0
LINE
8
BLACK
6
CONTINUOUS
10
0.4451538188976378
20
0.7745295669291339
11
0.445135
21
0.7745965748031496
0
LINE
8
BLACK
6
CONTINUOUS
10
0.445135
20
0.7745965748031496
11
0.4451853149606299
21
0.7747081496062992
0
LINE
8
BLACK
6
CONTINUOUS
10
0.4451853149606299
20
0.7747081496062992
11
0.4453048031496063
21
0.7753856299212598
0
LINE
8
BLACK
6
CONTINUOUS
10
0.4453048031496063
20
0.7753856299212598
11
0.445707874015748
21
0.7758660236220473
0
LINE
8
BLACK
6
CONTINUOUS
10
0.445707874015748
20
0.7758660236220473
11
0.4459658267716535
21
0.7764375590551181
0
LINE
8
BLACK
6
CONTINUOUS
10
0.4459658267716535
20
0.7764375590551181
11
0.4463377559055118
21
0.7766166535433071
0
LINE
8
BLACK
6
CONTINUOUS
10
0.4463377559055118
20
0.7766166535433071
11
0.4466031102362205
21
0.7769328740157481
0
LINE
8
BLACK
6
CONTINUOUS
10
0.4466031102362205
20
0.7769328740157481
11
0.4472206299212598
21
0.7770417716535433
0
LINE
8
BLACK
6
CONTINUOUS
10
0.4472206299212598
20
0.7770417716535433
11
0.4477856692913386
21
0.7773138188976377
0
LINE
8
BLACK
6
CONTINUOUS
10
0.4477856692913386
20
0.7773138188976377
11
0.4665333070866142
21
0.7791885826771653
0
LINE
8
BLACK
6
CONTINUOUS
10
0.4665333070866142
20
0.7791885826771653
11
0.4675559448818897
21
0.7791118897637795
0
LINE
8
BLACK
6
CONTINUOUS
10
0.4675559448818897
20
0.7791118897637795
11
0.4675720078740158
21
0.7791009448818897
0
LINE
8
BLACK
6
CONTINUOUS
10
0.4675720078740158
20
0.7791009448818897
11
0.4675913385826772
21
0.7791025984251968
0
LINE
8
BLACK
6
CONTINUOUS
10
0.4675913385826772
20
0.7791025984251968
11
0.4684030708661417
21
0.7785342519685039
0
LINE
8
BLACK
6
CONTINUOUS
10
0.4684030708661417
20
0.7785342519685039
11
0.4692246850393701
21
0.7779739763779527
0
LINE
8
BLACK
6
CONTINUOUS
10
0.4692246850393701
20
0.7779739763779527
11
0.4692299212598425
21
0.7779552755905511
0
LINE
8
BLACK
6
CONTINUOUS
10
0.4692299212598425
20
0.7779552755905511
11
0.469245905511811
21
0.7779440944881889
0
LINE
8
BLACK
6
CONTINUOUS
10
0.469245905511811
20
0.7779440944881889
11
0.4695027952755905
21
0.7769851968503937
0
LINE
8
BLACK
6
CONTINUOUS
10
0.4695027952755905
20
0.7769851968503937
11
0.4697716141732283
21
0.7760296062992126
0
LINE
8
BLACK
6
CONTINUOUS
10
0.4697716141732283
20
0.7760296062992126
11
0.4697635826771653
21
0.7760118897637795
0
LINE
8
BLACK
6
CONTINUOUS
10
0.4697635826771653
20
0.7760118897637795
11
0.4697686220472441
21
0.7759931102362204
0
LINE
8
BLACK
6
CONTINUOUS
10
0.4697686220472441
20
0.7759931102362204
11
0.4693496850393701
21
0.7750947637795276
0
LINE
8
BLACK
6
CONTINUOUS
10
0.4693496850393701
20
0.7750947637795276
11
0.4689407874015748
21
0.774188622047244
0
LINE
8
BLACK
6
CONTINUOUS
10
0.4689407874015748
20
0.774188622047244
11
0.4689232283464567
21
0.7741801968503936
0
LINE
8
BLACK
6
CONTINUOUS
10
0.4689232283464567
20
0.7741801968503936
11
0.4689150393700787
21
0.7741625590551181
0
LINE
8
BLACK
6
CONTINUOUS
10
0.4689150393700787
20
0.7741625590551181
11
0.467379094488189
21
0.7726266141732283
0
LINE
8
BLACK
6
CONTINUOUS
10
0.467379094488189
20
0.7726266141732283
11
0.4660303543307087
21
0.7699291338582677
0
LINE
8
BLACK
6
CONTINUOUS
10
0.4660303543307087
20
0.7699291338582677
11
0.4660303543307087
21
0.7619494094488188
0
LINE
8
BLACK
6
CONTINUOUS
10
0.4660303543307087
20
0.7619494094488188
11
0.467379094488189
21
0.7592519291338583
0
LINE
8
BLACK
6
CONTINUOUS
10
0.467379094488189
20
0.7592519291338583
11
0.4685762204724409
21
0.7580548031496063
0
LINE
8
BLACK
6
CONTINUOUS
10
0.4685762204724409
20
0.7580548031496063
11
0.4712737007874016
21
0.7567060629921259
0
LINE
8
BLACK
6
CONTINUOUS
10
0.4712737007874016
20
0.7567060629921259
11
0.4792534251968504
21
0.7567060629921259
0
LINE
8
BLACK
6
CONTINUOUS
10
0.4792534251968504
20
0.7567060629921259
11
0.481950905511811
21
0.758054842519685
0
LINE
8
BLACK
6
CONTINUOUS
10
0.481950905511811
20
0.758054842519685
11
0.4831480708661417
21
0.7592519685039369
0
LINE
8
BLACK
6
CONTINUOUS
10
0.4831480708661417
20
0.7592519685039369
11
0.484496811023622
21
0.7619494094488188
0
LINE
8
BLACK
6
CONTINUOUS
10
0.484496811023622
20
0.7619494094488188
11
0.484496811023622
21
0.7699291338582677
0
LINE
8
BLACK
6
CONTINUOUS
10
0.484496811023622
20
0.7699291338582677
11
0.4831480708661417
21
0.7726266141732283
0
LINE
8
BLACK
6
CONTINUOUS
10
0.4831480708661417
20
0.7726266141732283
11
0.481612125984252
21
0.7741625196850394
0
LINE
8
BLACK
6
CONTINUOUS
10
0.481612125984252
20
0.7741625196850394
11
0.4810238976377952
21
0.7750025590551181
0
LINE
8
BLACK
6
CONTINUOUS
10
0.4810238976377952
20
0.7750025590551181
11
0.4808478346456693
21
0.7770146850393701
0
LINE
8
BLACK
6
CONTINUOUS
10
0.4808478346456693
20
0.7770146850393701
11
0.4820063385826772
21
0.7786692519685039
0
LINE
8
BLACK
6
CONTINUOUS
10
0.4820063385826772
20
0.7786692519685039
11
0.4839573228346457
21
0.779191968503937
0
LINE
8
BLACK
6
CONTINUOUS
10
0.4839573228346457
20
0.779191968503937
11
0.485787874015748
21
0.7783384251968504
0
LINE
8
BLACK
6
CONTINUOUS
10
0.7220005511811024
20
0.7786220472440945
11
0.7231133858267716
21
0.7769364960629921
0
LINE
8
BLACK
6
CONTINUOUS
10
0.7231133858267716
20
0.7769364960629921
11
0.7228824803149606
21
0.7749299606299213
0
LINE
8
BLACK
6
CONTINUOUS
10
0.7228824803149606
20
0.7749299606299213
11
0.7210077165354331
21
0.7711804330708661
0
LINE
8
BLACK
6
CONTINUOUS
10
0.7210077165354331
20
0.7711804330708661
11
0.7204817716535433
21
0.7704713779527559
0
LINE
8
BLACK
6
CONTINUOUS
10
0.7204817716535433
20
0.7704713779527559
11
0.7204546062992125
21
0.770413031496063
0
LINE
8
BLACK
6
CONTINUOUS
10
0.7204546062992125
20
0.770413031496063
11
0.7179962204724409
21
0.7679546456692913
0
LINE
8
BLACK
6
CONTINUOUS
10
0.7179962204724409
20
0.7679546456692913
11
0.7454101968503937
21
0.7679546456692913
0
LINE
8
BLACK
6
CONTINUOUS
10
0.7454101968503937
20
0.7679546456692913
11
0.7454101968503937
21
0.7762504724409449
0
LINE
8
BLACK
6
CONTINUOUS
10
0.7454101968503937
20
0.7762504724409449
11
0.7455882677165354
21
0.7772603937007874
0
LINE
8
BLACK
6
CONTINUOUS
10
0.7455882677165354
20
0.7772603937007874
11
0.7468865748031496
21
0.7788076377952756
0
LINE
8
BLACK
6
CONTINUOUS
10
0.7468865748031496
20
0.7788076377952756
11
0.7488757086614173
21
0.7791583858267717
0
LINE
8
BLACK
6
CONTINUOUS
10
0.7488757086614173
20
0.7791583858267717
11
0.7506248818897637
21
0.7781484645669291
0
LINE
8
BLACK
6
CONTINUOUS
10
0.7506248818897637
20
0.7781484645669291
11
0.7513157086614173
21
0.7762504724409449
0
LINE
8
BLACK
6
CONTINUOUS
10
0.7513157086614173
20
0.7762504724409449
11
0.7513157086614173
21
0.7537533070866141
0
LINE
8
BLACK
6
CONTINUOUS
10
0.7513157086614173
20
0.7537533070866141
11
0.7511376377952755
21
0.7527433858267716
0
LINE
8
BLACK
6
CONTINUOUS
10
0.7511376377952755
20
0.7527433858267716
11
0.7498393307086614
21
0.7511961417322834
0
LINE
8
BLACK
6
CONTINUOUS
10
0.7498393307086614
20
0.7511961417322834
11
0.7478501968503937
21
0.7508453937007874
0
LINE
8
BLACK
6
CONTINUOUS
10
0.7478501968503937
20
0.7508453937007874
11
0.7461010236220472
21
0.7518553149606299
0
LINE
8
BLACK
6
CONTINUOUS
10
0.7461010236220472
20
0.7518553149606299
11
0.7454101968503937
21
0.7537533070866141
0
LINE
8
BLACK
6
CONTINUOUS
10
0.7454101968503937
20
0.7537533070866141
11
0.7454101968503937
21
0.7620491338582677
0
LINE
8
BLACK
6
CONTINUOUS
10
0.7454101968503937
20
0.7620491338582677
11
0.7089928740157481
21
0.7620491338582677
0
LINE
8
BLACK
6
CONTINUOUS
10
0.7089928740157481
20
0.7620491338582677
11
0.7079829527559055
21
0.7622272047244094
0
LINE
8
BLACK
6
CONTINUOUS
10
0.7079829527559055
20
0.7622272047244094
11
0.707852874015748
21
0.7623363385826771
0
LINE
8
BLACK
6
CONTINUOUS
10
0.707852874015748
20
0.7623363385826771
11
0.7076841338582677
21
0.762355
0
LINE
8
BLACK
6
CONTINUOUS
10
0.7076841338582677
20
0.762355
11
0.7070922047244095
21
0.7629746456692913
0
LINE
8
BLACK
6
CONTINUOUS
10
0.7070922047244095
20
0.7629746456692913
11
0.7064357086614174
21
0.7635255118110236
0
LINE
8
BLACK
6
CONTINUOUS
10
0.7064357086614174
20
0.7635255118110236
11
0.7064062204724409
21
0.7636927559055118
0
LINE
8
BLACK
6
CONTINUOUS
10
0.7064062204724409
20
0.7636927559055118
11
0.706288937007874
21
0.7638155118110236
0
LINE
8
BLACK
6
CONTINUOUS
10
0.706288937007874
20
0.7638155118110236
11
0.7062337795275591
21
0.7646706692913385
0
LINE
8
BLACK
6
CONTINUOUS
10
0.7062337795275591
20
0.7646706692913385
11
0.7060849606299212
21
0.7655146456692913
0
LINE
8
BLACK
6
CONTINUOUS
10
0.7060849606299212
20
0.7655146456692913
11
0.7061698425196851
21
0.7656617322834646
0
LINE
8
BLACK
6
CONTINUOUS
10
0.7061698425196851
20
0.7656617322834646
11
0.706158937007874
21
0.7658311023622048
0
LINE
8
BLACK
6
CONTINUOUS
10
0.706158937007874
20
0.7658311023622048
11
0.7066663779527559
21
0.7665217322834645
0
LINE
8
BLACK
6
CONTINUOUS
10
0.7066663779527559
20
0.7665217322834645
11
0.7070948818897638
21
0.7672638188976377
0
LINE
8
BLACK
6
CONTINUOUS
10
0.7070948818897638
20
0.7672638188976377
11
0.7072543700787401
21
0.7673218897637795
0
LINE
8
BLACK
6
CONTINUOUS
10
0.7072543700787401
20
0.7673218897637795
11
0.7073549606299212
21
0.7674587401574803
0
LINE
8
BLACK
6
CONTINUOUS
10
0.7073549606299212
20
0.7674587401574803
11
0.7127359842519685
21
0.7710461023622047
0
LINE
8
BLACK
6
CONTINUOUS
10
0.7127359842519685
20
0.7710461023622047
11
0.7159399606299213
21
0.7742500393700787
0
LINE
8
BLACK
6
CONTINUOUS
10
0.7159399606299213
20
0.7742500393700787
11
0.7176004330708661
21
0.7775709842519685
0
LINE
8
BLACK
6
CONTINUOUS
10
0.7176004330708661
20
0.7775709842519685
11
0.7182113385826772
21
0.7783946456692913
0
LINE
8
BLACK
6
CONTINUOUS
10
0.7182113385826772
20
0.7783946456692913
11
0.7200645275590551
21
0.7791979133858268
0
LINE
8
BLACK
6
CONTINUOUS
10
0.7200645275590551
20
0.7791979133858268
11
0.7220005511811024
21
0.7786220472440945
0
LINE
8
BLACK
6
CONTINUOUS
10
0.4897114960629921
20
0.8100194881889764
11
0.4904023228346456
21
0.8081214960629921
0
LINE
8
BLACK
6
CONTINUOUS
10
0.4904023228346456
20
0.8081214960629921
11
0.4904023228346456
21
0.804371968503937
0
LINE
8
BLACK
6
CONTINUOUS
10
0.4904023228346456
20
0.804371968503937
11
0.4902490157480315
21
0.8035025984251968
0
LINE
8
BLACK
6
CONTINUOUS
10
0.4902490157480315
20
0.8035025984251968
11
0.4902507874015748
21
0.803438188976378
0
LINE
8
BLACK
6
CONTINUOUS
10
0.4902507874015748
20
0.803438188976378
11
0.4883760236220472
21
0.797813937007874
0
LINE
8
BLACK
6
CONTINUOUS
10
0.4883760236220472
20
0.797813937007874
11
0.4878877165354331
21
0.7969121653543307
0
LINE
8
BLACK
6
CONTINUOUS
10
0.4878877165354331
20
0.7969121653543307
11
0.4877373228346457
21
0.7968198031496063
0
LINE
8
BLACK
6
CONTINUOUS
10
0.4877373228346457
20
0.7968198031496063
11
0.4876627165354331
21
0.7966597637795275
0
LINE
8
BLACK
6
CONTINUOUS
10
0.4876627165354331
20
0.7966597637795275
11
0.4839131496062992
21
0.7929102362204724
0
LINE
8
BLACK
6
CONTINUOUS
10
0.4839131496062992
20
0.7929102362204724
11
0.4830731102362205
21
0.7923220078740157
0
LINE
8
BLACK
6
CONTINUOUS
10
0.4830731102362205
20
0.7923220078740157
11
0.4828971653543307
21
0.7923066535433071
0
LINE
8
BLACK
6
CONTINUOUS
10
0.4828971653543307
20
0.7923066535433071
11
0.4827589763779527
21
0.7921969291338582
0
LINE
8
BLACK
6
CONTINUOUS
10
0.4827589763779527
20
0.7921969291338582
11
0.4771346850393701
21
0.7903221653543306
0
LINE
8
BLACK
6
CONTINUOUS
10
0.4771346850393701
20
0.7903221653543306
11
0.4762614960629921
21
0.7901927165354331
0
LINE
8
BLACK
6
CONTINUOUS
10
0.4762614960629921
20
0.7901927165354331
11
0.4762009448818897
21
0.7901706299212599
0
LINE
8
BLACK
6
CONTINUOUS
10
0.4762009448818897
20
0.7901706299212599
11
0.4480794881889764
21
0.7901706299212599
0
LINE
8
BLACK
6
CONTINUOUS
10
0.4480794881889764
20
0.7901706299212599
11
0.4470695669291339
21
0.7903487007874016
0
LINE
8
BLACK
6
CONTINUOUS
10
0.4470695669291339
20
0.7903487007874016
11
0.4455223228346457
21
0.7916470078740158
0
LINE
8
BLACK
6
CONTINUOUS
10
0.4455223228346457
20
0.7916470078740158
11
0.4451715748031496
21
0.7936361417322835
0
LINE
8
BLACK
6
CONTINUOUS
10
0.4451715748031496
20
0.7936361417322835
11
0.4461814960629921
21
0.7953853149606299
0
LINE
8
BLACK
6
CONTINUOUS
10
0.4461814960629921
20
0.7953853149606299
11
0.4480794881889764
21
0.7960761417322835
0
LINE
8
BLACK
6
CONTINUOUS
10
0.4480794881889764
20
0.7960761417322835
11
0.475721811023622
21
0.7960761417322835
0
LINE
8
BLACK
6
CONTINUOUS
10
0.475721811023622
20
0.7960761417322835
11
0.4802301968503937
21
0.7975789763779527
0
LINE
8
BLACK
6
CONTINUOUS
10
0.4802301968503937
20
0.7975789763779527
11
0.4829940157480315
21
0.8003427559055117
0
LINE
8
BLACK
6
CONTINUOUS
10
0.4829940157480315
20
0.8003427559055117
11
0.484496811023622
21
0.8048511023622047
0
LINE
8
BLACK
6
CONTINUOUS
10
0.484496811023622
20
0.8048511023622047
11
0.484496811023622
21
0.8081214960629921
0
LINE
8
BLACK
6
CONTINUOUS
10
0.484496811023622
20
0.8081214960629921
11
0.4846748818897638
21
0.8091314173228347
0
LINE
8
BLACK
6
CONTINUOUS
10
0.4846748818897638
20
0.8091314173228347
11
0.4859731889763779
21
0.8106786614173228
0
LINE
8
BLACK
6
CONTINUOUS
10
0.4859731889763779
20
0.8106786614173228
11
0.4879623228346456
21
0.8110294094488188
0
LINE
8
BLACK
6
CONTINUOUS
10
0.4879623228346456
20
0.8110294094488188
11
0.4897114960629921
21
0.8100194881889764
0
LINE
8
BLACK
6
CONTINUOUS
10
0.7506248818897637
20
0.8100194881889764
11
0.7513157086614173
21
0.8081214960629921
0
LINE
8
BLACK
6
CONTINUOUS
10
0.7513157086614173
20
0.8081214960629921
11
0.7513157086614173
21
0.804371968503937
0
LINE
8
BLACK
6
CONTINUOUS
10
0.7513157086614173
20
0.804371968503937
11
0.7511624015748032
21
0.8035025984251968
0
LINE
8
BLACK
6
CONTINUOUS
10
0.7511624015748032
20
0.8035025984251968
11
0.7511641732283464
21
0.803438188976378
0
LINE
8
BLACK
6
CONTINUOUS
10
0.7511641732283464
20
0.803438188976378
11
0.7492894094488188
21
0.797813937007874
0
LINE
8
BLACK
6
CONTINUOUS
10
0.7492894094488188
20
0.797813937007874
11
0.7488011023622048
21
0.7969121653543307
0
LINE
8
BLACK
6
CONTINUOUS
10
0.7488011023622048
20
0.7969121653543307
11
0.7486507086614173
21
0.7968198031496063
0
LINE
8
BLACK
6
CONTINUOUS
10
0.7486507086614173
20
0.7968198031496063
11
0.7485761023622047
21
0.7966597637795275
0
LINE
8
BLACK
6
CONTINUOUS
10
0.7485761023622047
20
0.7966597637795275
11
0.7448265354330709
21
0.7929102362204724
0
LINE
8
BLACK
6
CONTINUOUS
10
0.7448265354330709
20
0.7929102362204724
11
0.7439864960629922
21
0.7923220078740157
0
LINE
8
BLACK
6
CONTINUOUS
10
0.7439864960629922
20
0.7923220078740157
11
0.7438105511811024
21
0.7923066535433071
0
LINE
8
BLACK
6
CONTINUOUS
10
0.7438105511811024
20
0.7923066535433071
11
0.7436723622047244
21
0.7921969291338582
0
LINE
8
BLACK
6
CONTINUOUS
10
0.7436723622047244
20
0.7921969291338582
11
0.7380480708661418
21
0.7903221653543306
0
LINE
8
BLACK
6
CONTINUOUS
10
0.7380480708661418
20
0.7903221653543306
11
0.7371748818897638
21
0.7901927165354331
0
LINE
8
BLACK
6
CONTINUOUS
10
0.7371748818897638
20
0.7901927165354331
11
0.7371143307086614
21
0.7901706299212599
0
LINE
8
BLACK
6
CONTINUOUS
10
0.7371143307086614
20
0.7901706299212599
11
0.7089928740157481
21
0.7901706299212599
0
LINE
8
BLACK
6
CONTINUOUS
10
0.7089928740157481
20
0.7901706299212599
11
0.7079829527559055
21
0.7903487007874016
0
LINE
8
BLACK
6
CONTINUOUS
10
0.7079829527559055
20
0.7903487007874016
11
0.7064357086614174
21
0.7916470078740158
0
LINE
8
BLACK
6
CONTINUOUS
10
0.7064357086614174
20
0.7916470078740158
11
0.7060849606299212
21
0.7936361417322835
0
LINE
8
BLACK
6
CONTINUOUS
10
0.7060849606299212
20
0.7936361417322835
11
0.7070948818897638
21
0.7953853149606299
0
LINE
8
BLACK
6
CONTINUOUS
10
0.7070948818897638
20
0.7953853149606299
11
0.7089928740157481
21
0.7960761417322835
0
LINE
8
BLACK
6
CONTINUOUS
10
0.7089928740157481
20
0.7960761417322835
11
0.7366351968503937
21
0.7960761417322835
0
LINE
8
BLACK
6
CONTINUOUS
10
0.7366351968503937
20
0.7960761417322835
11
0.7411435826771653
21
0.7975789763779527
0
LINE
8
BLACK
6
CONTINUOUS
10
0.7411435826771653
20
0.7975789763779527
11
0.7439074015748032
21
0.8003427559055117
0
LINE
8
BLACK
6
CONTINUOUS
10
0.7439074015748032
20
0.8003427559055117
11
0.7454101968503937
21
0.8048511023622047
0
LINE
8
BLACK
6
CONTINUOUS
10
0.7454101968503937
20
0.8048511023622047
11
0.7454101968503937
21
0.8081214960629921
0
LINE
8
BLACK
6
CONTINUOUS
10
0.7454101968503937
20
0.8081214960629921
11
0.7455882677165354
21
0.8091314173228347
0
LINE
8
BLACK
6
CONTINUOUS
10
0.7455882677165354
20
0.8091314173228347
11
0.7468865748031496
21
0.8106786614173228
0
LINE
8
BLACK
6
CONTINUOUS
10
0.7468865748031496
20
0.8106786614173228
11
0.7488757086614173
21
0.8110294094488188
0
LINE
8
BLACK
6
CONTINUOUS
10
0.7488757086614173
20
0.8110294094488188
11
0.7506248818897637
21
0.8100194881889764
0
LINE
8
BLACK
6
CONTINUOUS
10
0.3833228346456693
20
0.9490944881889763
11
0.3849931496062992
21
0.9484025984251968
0
LINE
8
BLACK
6
CONTINUOUS
10
0.3849931496062992
20
0.9484025984251968
11
0.3856850393700788
21
0.9467322834645669
0
LINE
8
BLACK
6
CONTINUOUS
10
0.3856850393700788
20
0.9467322834645669
11
0.3856850393700788
21
0.8758661417322835
0
LINE
8
BLACK
6
CONTINUOUS
10
0.3856850393700788
20
0.8758661417322835
11
0.3849931496062992
21
0.8741958267716535
0
LINE
8
BLACK
6
CONTINUOUS
10
0.3849931496062992
20
0.8741958267716535
11
0.3833228346456693
21
0.873503937007874
0
LINE
8
BLACK
6
CONTINUOUS
10
0.3833228346456693
20
0.873503937007874
11
0.3816525196850394
21
0.8741958267716535
0
LINE
8
BLACK
6
CONTINUOUS
10
0.3816525196850394
20
0.8741958267716535
11
0.3809606299212598
21
0.8758661417322835
0
LINE
8
BLACK
6
CONTINUOUS
10
0.3809606299212598
20
0.8758661417322835
11
0.3809606299212598
21
0.9443700787401574
0
LINE
8
BLACK
6
CONTINUOUS
10
0.3809606299212598
20
0.9443700787401574
11
0.3262362204724409
21
0.9443700787401574
0
LINE
8
BLACK
6
CONTINUOUS
10
0.3262362204724409
20
0.9443700787401574
11
0.324565905511811
21
0.945061968503937
0
LINE
8
BLACK
6
CONTINUOUS
10
0.324565905511811
20
0.945061968503937
11
0.3238740157480315
21
0.9467322834645669
0
LINE
8
BLACK
6
CONTINUOUS
10
0.3238740157480315
20
0.9467322834645669
11
0.324565905511811
21
0.9484025984251968
0
LINE
8
BLACK
6
CONTINUOUS
10
0.324565905511811
20
0.9484025984251968
11
0.3262362204724409
21
0.9490944881889763
0
LINE
8
BLACK
6
CONTINUOUS
10
0.3262362204724409
20
0.9490944881889763
11
0.3833228346456693
21
0.9490944881889763
0
LINE
8
BLACK
6
CONTINUOUS
10
0.875434094488189
20
0.9484025984251968
11
0.8761259842519685
21
0.9467322834645669
0
LINE
8
BLACK
6
CONTINUOUS
10
0.8761259842519685
20
0.9467322834645669
11
0.875434094488189
21
0.945061968503937
0
LINE
8
BLACK
6
CONTINUOUS
10
0.875434094488189
20
0.945061968503937
11
0.873763779527559
21
0.9443700787401574
0
LINE
8
BLACK
6
CONTINUOUS
10
0.873763779527559
20
0.9443700787401574
11
0.8190393700787402
21
0.9443700787401574
0
LINE
8
BLACK
6
CONTINUOUS
10
0.8190393700787402
20
0.9443700787401574
11
0.8190393700787402
21
0.8758661417322835
0
LINE
8
BLACK
6
CONTINUOUS
10
0.8190393700787402
20
0.8758661417322835
11
0.8183474803149606
21
0.8741958267716535
0
LINE
8
BLACK
6
CONTINUOUS
10
0.8183474803149606
20
0.8741958267716535
11
0.8166771653543307
21
0.873503937007874
0
LINE
8
BLACK
6
CONTINUOUS
10
0.8166771653543307
20
0.873503937007874
11
0.7777007874015748
21
0.873503937007874
0
LINE
8
BLACK
6
CONTINUOUS
10
0.7777007874015748
20
0.873503937007874
11
0.7760304724409449
21
0.8741958267716535
0
LINE
8
BLACK
6
CONTINUOUS
10
0.7760304724409449
20
0.8741958267716535
11
0.7753385826771654
21
0.8758661417322835
0
LINE
8
BLACK
6
CONTINUOUS
10
0.7753385826771654
20
0.8758661417322835
11
0.7760304724409449
21
0.8775364566929134
0
LINE
8
BLACK
6
CONTINUOUS
10
0.7760304724409449
20
0.8775364566929134
11
0.7777007874015748
21
0.8782283464566929
0
LINE
8
BLACK
6
CONTINUOUS
10
0.7777007874015748
20
0.8782283464566929
11
0.8143149606299213
21
0.8782283464566929
0
LINE
8
BLACK
6
CONTINUOUS
10
0.8143149606299213
20
0.8782283464566929
11
0.8143149606299213
21
0.9467322834645669
0
LINE
8
BLACK
6
CONTINUOUS
10
0.8143149606299213
20
0.9467322834645669
11
0.8150068503937008
21
0.9484025984251968
0
LINE
8
BLACK
6
CONTINUOUS
10
0.8150068503937008
20
0.9484025984251968
11
0.8166771653543307
21
0.9490944881889763
0
LINE
8
BLACK
6
CONTINUOUS
10
0.8166771653543307
20
0.9490944881889763
11
0.873763779527559
21
0.9490944881889763
0
LINE
8
BLACK
6
CONTINUOUS
10
0.873763779527559
20
0.9490944881889763
11
0.875434094488189
21
0.9484025984251968
0
LINE
8
BLACK
6
CONTINUOUS
10
0.4239695275590551
20
1.1278041732283464
11
0.4246614173228346
21
1.1261338582677165
0
LINE
8
BLACK
6
CONTINUOUS
10
0.4246614173228346
20
1.1261338582677165
11
0.4239695275590551
21
1.1244635433070866
0
LINE
8
BLACK
6
CONTINUOUS
10
0.4239695275590551
20
1.1244635433070866
11
0.4222992125984252
21
1.1237716535433071
0
LINE
8
BLACK
6
CONTINUOUS
10
0.4222992125984252
20
1.1237716535433071
11
0.3856850393700788
21
1.1237716535433071
0
LINE
8
BLACK
6
CONTINUOUS
10
0.3856850393700788
20
1.1237716535433071
11
0.3856850393700788
21
1.0552677165354329
0
LINE
8
BLACK
6
CONTINUOUS
10
0.3856850393700788
20
1.0552677165354329
11
0.3849931496062992
21
1.0535974015748031
0
LINE
8
BLACK
6
CONTINUOUS
10
0.3849931496062992
20
1.0535974015748031
11
0.3833228346456693
21
1.0529055118110235
0
LINE
8
BLACK
6
CONTINUOUS
10
0.3833228346456693
20
1.0529055118110235
11
0.3262362204724409
21
1.0529055118110235
0
LINE
8
BLACK
6
CONTINUOUS
10
0.3262362204724409
20
1.0529055118110235
11
0.324565905511811
21
1.0535974015748031
0
LINE
8
BLACK
6
CONTINUOUS
10
0.324565905511811
20
1.0535974015748031
11
0.3238740157480315
21
1.0552677165354329
0
LINE
8
BLACK
6
CONTINUOUS
10
0.3238740157480315
20
1.0552677165354329
11
0.324565905511811
21
1.056938031496063
0
LINE
8
BLACK
6
CONTINUOUS
10
0.324565905511811
20
1.056938031496063
11
0.3262362204724409
21
1.0576299212598426
0
LINE
8
BLACK
6
CONTINUOUS
10
0.3262362204724409
20
1.0576299212598426
11
0.3809606299212598
21
1.0576299212598426
0
LINE
8
BLACK
6
CONTINUOUS
10
0.3809606299212598
20
1.0576299212598426
11
0.3809606299212598
21
1.1261338582677165
0
LINE
8
BLACK
6
CONTINUOUS
10
0.3809606299212598
20
1.1261338582677165
11
0.3816525196850394
21
1.1278041732283464
0
LINE
8
BLACK
6
CONTINUOUS
10
0.3816525196850394
20
1.1278041732283464
11
0.3833228346456693
21
1.1284960629921259
0
LINE
8
BLACK
6
CONTINUOUS
10
0.3833228346456693
20
1.1284960629921259
11
0.4222992125984252
21
1.1284960629921259
0
LINE
8
BLACK
6
CONTINUOUS
10
0.4222992125984252
20
1.1284960629921259
11
0.4239695275590551
21
1.1278041732283464
0
LINE
8
BLACK
6
CONTINUOUS
10
0.8183474803149606
20
1.1278041732283464
11
0.8190393700787402
21
1.1261338582677165
0
LINE
8
BLACK
6
CONTINUOUS
10
0.8190393700787402
20
1.1261338582677165
11
0.8190393700787402
21
1.0576299212598426
0
LINE
8
BLACK
6
CONTINUOUS
10
0.8190393700787402
20
1.0576299212598426
11
0.873763779527559
21
1.0576299212598426
0
LINE
8
BLACK
6
CONTINUOUS
10
0.873763779527559
20
1.0576299212598426
11
0.875434094488189
21
1.056938031496063
0
LINE
8
BLACK
6
CONTINUOUS
10
0.875434094488189
20
1.056938031496063
11
0.8761259842519685
21
1.0552677165354329
0
LINE
8
BLACK
6
CONTINUOUS
10
0.8761259842519685
20
1.0552677165354329
11
0.875434094488189
21
1.0535974015748031
0
LINE
8
BLACK
6
CONTINUOUS
10
0.875434094488189
20
1.0535974015748031
11
0.873763779527559
21
1.0529055118110235
0
LINE
8
BLACK
6
CONTINUOUS
10
0.873763779527559
20
1.0529055118110235
11
0.8166771653543307
21
1.0529055118110235
0
LINE
8
BLACK
6
CONTINUOUS
10
0.8166771653543307
20
1.0529055118110235
11
0.8150068503937008
21
1.0535974015748031
0
LINE
8
BLACK
6
CONTINUOUS
10
0.8150068503937008
20
1.0535974015748031
11
0.8143149606299213
21
1.0552677165354329
0
LINE
8
BLACK
6
CONTINUOUS
10
0.8143149606299213
20
1.0552677165354329
11
0.8143149606299213
21
1.1261338582677165
0
LINE
8
BLACK
6
CONTINUOUS
10
0.8143149606299213
20
1.1261338582677165
11
0.8150068503937008
21
1.1278041732283464
0
LINE
8
BLACK
6
CONTINUOUS
10
0.8150068503937008
20
1.1278041732283464
11
0.8166771653543307
21
1.1284960629921259
0
LINE
8
BLACK
6
CONTINUOUS
10
0.8166771653543307
20
1.1284960629921259
11
0.8183474803149606
21
1.1278041732283464
0
LINE
8
BLACK
6
CONTINUOUS
10
0.2168829133858268
20
1.3404025984251968
11
0.2175748031496063
21
1.338732283464567
0
LINE
8
BLACK
6
CONTINUOUS
10
0.2175748031496063
20
1.338732283464567
11
0.2175748031496063
21
1.105267716535433
0
LINE
8
BLACK
6
CONTINUOUS
10
0.2175748031496063
20
1.105267716535433
11
0.2168829133858268
21
1.1035974015748031
0
LINE
8
BLACK
6
CONTINUOUS
10
0.2168829133858268
20
1.1035974015748031
11
0.2152125984251969
21
1.1029055118110236
0
LINE
8
BLACK
6
CONTINUOUS
10
0.2152125984251969
20
1.1029055118110236
11
0.2135422834645669
21
1.1035974015748031
0
LINE
8
BLACK
6
CONTINUOUS
10
0.2135422834645669
20
1.1035974015748031
11
0.2128503937007874
21
1.105267716535433
0
LINE
8
BLACK
6
CONTINUOUS
10
0.2128503937007874
20
1.105267716535433
11
0.2128503937007874
21
1.338732283464567
0
LINE
8
BLACK
6
CONTINUOUS
10
0.2128503937007874
20
1.338732283464567
11
0.2135422834645669
21
1.3404025984251968
0
LINE
8
BLACK
6
CONTINUOUS
10
0.2135422834645669
20
1.3404025984251968
11
0.2152125984251969
21
1.3410944881889764
0
LINE
8
BLACK
6
CONTINUOUS
10
0.2152125984251969
20
1.3410944881889764
11
0.2168829133858268
21
1.3404025984251968
0
LINE
8
BLACK
6
CONTINUOUS
10
0.986457716535433
20
1.3404025984251968
11
0.9871496062992126
21
1.338732283464567
0
LINE
8
BLACK
6
CONTINUOUS
10
0.9871496062992126
20
1.338732283464567
11
0.9871496062992126
21
1.105267716535433
0
LINE
8
BLACK
6
CONTINUOUS
10
0.9871496062992126
20
1.105267716535433
11
0.986457716535433
21
1.1035974015748031
0
LINE
8
BLACK
6
CONTINUOUS
10
0.986457716535433
20
1.1035974015748031
11
0.9847874015748032
21
1.1029055118110236
0
LINE
8
BLACK
6
CONTINUOUS
10
0.9847874015748032
20
1.1029055118110236
11
0.9831170866141732
21
1.1035974015748031
0
LINE
8
BLACK
6
CONTINUOUS
10
0.9831170866141732
20
1.1035974015748031
11
0.9824251968503936
21
1.105267716535433
0
LINE
8
BLACK
6
CONTINUOUS
10
0.9824251968503936
20
1.105267716535433
11
0.9824251968503936
21
1.338732283464567
0
LINE
8
BLACK
6
CONTINUOUS
10
0.9824251968503936
20
1.338732283464567
11
0.9831170866141732
21
1.3404025984251968
0
LINE
8
BLACK
6
CONTINUOUS
10
0.9831170866141732
20
1.3404025984251968
11
0.9847874015748032
21
1.3410944881889764
0
LINE
8
BLACK
6
CONTINUOUS
10
0.9847874015748032
20
1.3410944881889764
11
0.986457716535433
21
1.3404025984251968
0
LINE
8
BLACK
6
CONTINUOUS
10
0.4746166535433071
20
1.2211192125984252
11
0.474838937007874
21
1.2211583858267716
0
LINE
8
BLACK
6
CONTINUOUS
10
0.474838937007874
20
1.2211583858267716
11
0.4755364173228346
21
1.2207556692913386
0
LINE
8
BLACK
6
CONTINUOUS
10
0.4755364173228346
20
1.2207556692913386
11
0.4762852362204724
21
1.2204597244094488
0
LINE
8
BLACK
6
CONTINUOUS
10
0.4762852362204724
20
1.2204597244094488
11
0.4763926771653543
21
1.2202612992125983
0
LINE
8
BLACK
6
CONTINUOUS
10
0.4763926771653543
20
1.2202612992125983
11
0.4765881102362204
21
1.2201484645669292
0
LINE
8
BLACK
6
CONTINUOUS
10
0.4765881102362204
20
1.2201484645669292
11
0.4768635039370079
21
1.2193917716535432
0
LINE
8
BLACK
6
CONTINUOUS
10
0.4768635039370079
20
1.2193917716535432
11
0.4772470078740157
21
1.2186835826771654
0
LINE
8
BLACK
6
CONTINUOUS
10
0.4772470078740157
20
1.2186835826771654
11
0.4772017322834646
21
1.2184625196850394
0
LINE
8
BLACK
6
CONTINUOUS
10
0.4772017322834646
20
1.2184625196850394
11
0.477278937007874
21
1.2182504724409449
0
LINE
8
BLACK
6
CONTINUOUS
10
0.477278937007874
20
1.2182504724409449
11
0.477278937007874
21
1.2024555905511811
0
LINE
8
BLACK
6
CONTINUOUS
10
0.477278937007874
20
1.2024555905511811
11
0.4874495669291338
21
1.2024555905511811
0
LINE
8
BLACK
6
CONTINUOUS
10
0.4874495669291338
20
1.2024555905511811
11
0.4884594881889764
21
1.2022775196850393
0
LINE
8
BLACK
6
CONTINUOUS
10
0.4884594881889764
20
1.2022775196850393
11
0.4900067322834645
21
1.2009792125984251
0
LINE
8
BLACK
6
CONTINUOUS
10
0.4900067322834645
20
1.2009792125984251
11
0.4903574803149606
21
1.1989900787401575
0
LINE
8
BLACK
6
CONTINUOUS
10
0.4903574803149606
20
1.1989900787401575
11
0.4893475590551181
21
1.1972409055118109
0
LINE
8
BLACK
6
CONTINUOUS
10
0.4893475590551181
20
1.1972409055118109
11
0.4874495669291338
21
1.1965500787401575
0
LINE
8
BLACK
6
CONTINUOUS
10
0.4874495669291338
20
1.1965500787401575
11
0.477278937007874
21
1.1965500787401575
0
LINE
8
BLACK
6
CONTINUOUS
10
0.477278937007874
20
1.1965500787401575
11
0.477278937007874
21
1.1938785433070866
0
LINE
8
BLACK
6
CONTINUOUS
10
0.477278937007874
20
1.1938785433070866
11
0.4771008661417322
21
1.192868622047244
0
LINE
8
BLACK
6
CONTINUOUS
10
0.4771008661417322
20
1.192868622047244
11
0.4758025590551181
21
1.1913213779527558
0
LINE
8
BLACK
6
CONTINUOUS
10
0.4758025590551181
20
1.1913213779527558
11
0.4738134251968504
21
1.1909706299212599
0
LINE
8
BLACK
6
CONTINUOUS
10
0.4738134251968504
20
1.1909706299212599
11
0.4720642519685039
21
1.1919805511811024
0
LINE
8
BLACK
6
CONTINUOUS
10
0.4720642519685039
20
1.1919805511811024
11
0.4713734251968504
21
1.1938785433070866
0
LINE
8
BLACK
6
CONTINUOUS
10
0.4713734251968504
20
1.1938785433070866
11
0.4713734251968504
21
1.1965500787401575
0
LINE
8
BLACK
6
CONTINUOUS
10
0.4713734251968504
20
1.1965500787401575
11
0.4612028346456693
21
1.1965500787401575
0
LINE
8
BLACK
6
CONTINUOUS
10
0.4612028346456693
20
1.1965500787401575
11
0.4601929133858267
21
1.1967281496062991
0
LINE
8
BLACK
6
CONTINUOUS
10
0.4601929133858267
20
1.1967281496062991
11
0.4586456692913386
21
1.1980264566929133
0
LINE
8
BLACK
6
CONTINUOUS
10
0.4586456692913386
20
1.1980264566929133
11
0.4582949212598425
21
1.2000155905511811
0
LINE
8
BLACK
6
CONTINUOUS
10
0.4582949212598425
20
1.2000155905511811
11
0.459304842519685
21
1.2017647637795275
0
LINE
8
BLACK
6
CONTINUOUS
10
0.459304842519685
20
1.2017647637795275
11
0.4612028346456693
21
1.2024555905511811
0
LINE
8
BLACK
6
CONTINUOUS
10
0.4612028346456693
20
1.2024555905511811
11
0.4713734251968504
21
1.2024555905511811
0
LINE
8
BLACK
6
CONTINUOUS
10
0.4713734251968504
20
1.2024555905511811
11
0.4713734251968504
21
1.214153779527559
0
LINE
8
BLACK
6
CONTINUOUS
10
0.4713734251968504
20
1.214153779527559
11
0.4471384645669291
21
1.2060754330708661
0
LINE
8
BLACK
6
CONTINUOUS
10
0.4471384645669291
20
1.2060754330708661
11
0.4461240551181102
21
1.2059249999999999
0
LINE
8
BLACK
6
CONTINUOUS
10
0.4461240551181102
20
1.2059249999999999
11
0.4442456692913386
21
1.2066674015748031
0
LINE
8
BLACK
6
CONTINUOUS
10
0.4442456692913386
20
1.2066674015748031
11
0.4432838976377952
21
1.2084435433070866
0
LINE
8
BLACK
6
CONTINUOUS
10
0.4432838976377952
20
1.2084435433070866
11
0.4436888582677165
21
1.2104223228346456
0
LINE
8
BLACK
6
CONTINUOUS
10
0.4436888582677165
20
1.2104223228346456
11
0.4452709842519685
21
1.2116778740157481
0
LINE
8
BLACK
6
CONTINUOUS
10
0.4452709842519685
20
1.2116778740157481
11
0.4733924015748031
21
1.2210516929133859
0
LINE
8
BLACK
6
CONTINUOUS
10
0.4733924015748031
20
1.2210516929133859
11
0.474406811023622
21
1.221202125984252
0
LINE
8
BLACK
6
CONTINUOUS
10
0.474406811023622
20
1.221202125984252
11
0.4746166535433071
21
1.2211192125984252
0
LINE
8
BLACK
6
CONTINUOUS
10
0.7489926377952756
20
1.2229656692913387
11
0.7491272047244094
21
1.2229774015748032
0
LINE
8
BLACK
6
CONTINUOUS
10
0.7491272047244094
20
1.2229774015748032
11
0.7498553543307086
21
1.2224675590551182
0
LINE
8
BLACK
6
CONTINUOUS
10
0.7498553543307086
20
1.2224675590551182
11
0.7506248818897637
21
1.2220232283464567
0
LINE
8
BLACK
6
CONTINUOUS
10
0.7506248818897637
20
1.2220232283464567
11
0.7506710236220472
21
1.2218963779527559
0
LINE
8
BLACK
6
CONTINUOUS
10
0.7506710236220472
20
1.2218963779527559
11
0.7507817322834646
21
1.2218188582677165
0
LINE
8
BLACK
6
CONTINUOUS
10
0.7507817322834646
20
1.2218188582677165
11
0.7510117322834645
21
1.2209603543307086
0
LINE
8
BLACK
6
CONTINUOUS
10
0.7510117322834645
20
1.2209603543307086
11
0.7513157086614173
21
1.2201252362204724
0
LINE
8
BLACK
6
CONTINUOUS
10
0.7513157086614173
20
1.2201252362204724
11
0.7513157086614173
21
1.1957533070866142
0
LINE
8
BLACK
6
CONTINUOUS
10
0.7513157086614173
20
1.1957533070866142
11
0.7511376377952755
21
1.1947433858267715
0
LINE
8
BLACK
6
CONTINUOUS
10
0.7511376377952755
20
1.1947433858267715
11
0.7498393307086614
21
1.1931961417322834
0
LINE
8
BLACK
6
CONTINUOUS
10
0.7498393307086614
20
1.1931961417322834
11
0.7478501968503937
21
1.1928453937007875
0
LINE
8
BLACK
6
CONTINUOUS
10
0.7478501968503937
20
1.1928453937007875
11
0.7461010236220472
21
1.1938553149606299
0
LINE
8
BLACK
6
CONTINUOUS
10
0.7461010236220472
20
1.1938553149606299
11
0.7454101968503937
21
1.1957533070866142
0
LINE
8
BLACK
6
CONTINUOUS
10
0.7454101968503937
20
1.1957533070866142
11
0.7454101968503937
21
1.2129966929133857
0
LINE
8
BLACK
6
CONTINUOUS
10
0.7454101968503937
20
1.2129966929133857
11
0.7279536614173229
21
1.1955401574803148
0
LINE
8
BLACK
6
CONTINUOUS
10
0.7279536614173229
20
1.1955401574803148
11
0.7271136220472441
21
1.1949519685039369
0
LINE
8
BLACK
6
CONTINUOUS
10
0.7271136220472441
20
1.1949519685039369
11
0.7269377559055118
21
1.1949366141732283
0
LINE
8
BLACK
6
CONTINUOUS
10
0.7269377559055118
20
1.1949366141732283
11
0.7267994881889763
21
1.1948268503937007
0
LINE
8
BLACK
6
CONTINUOUS
10
0.7267994881889763
20
1.1948268503937007
11
0.7211751968503937
21
1.1929520866141732
0
LINE
8
BLACK
6
CONTINUOUS
10
0.7211751968503937
20
1.1929520866141732
11
0.7203020078740158
21
1.1928226377952755
0
LINE
8
BLACK
6
CONTINUOUS
10
0.7203020078740158
20
1.1928226377952755
11
0.7202414566929134
21
1.1928005511811024
0
LINE
8
BLACK
6
CONTINUOUS
10
0.7202414566929134
20
1.1928005511811024
11
0.7164919291338583
21
1.1928005511811024
0
LINE
8
BLACK
6
CONTINUOUS
10
0.7164919291338583
20
1.1928005511811024
11
0.7154820078740157
21
1.192978622047244
0
LINE
8
BLACK
6
CONTINUOUS
10
0.7154820078740157
20
1.192978622047244
11
0.7153467322834646
21
1.193092125984252
0
LINE
8
BLACK
6
CONTINUOUS
10
0.7153467322834646
20
1.193092125984252
11
0.7151714173228346
21
1.1931122834645669
0
LINE
8
BLACK
6
CONTINUOUS
10
0.7151714173228346
20
1.1931122834645669
11
0.7114218897637795
21
1.1949870472440944
0
LINE
8
BLACK
6
CONTINUOUS
10
0.7114218897637795
20
1.1949870472440944
11
0.7107127952755905
21
1.1955129527559054
0
LINE
8
BLACK
6
CONTINUOUS
10
0.7107127952755905
20
1.1955129527559054
11
0.7106544881889764
21
1.1955401574803148
0
LINE
8
BLACK
6
CONTINUOUS
10
0.7106544881889764
20
1.1955401574803148
11
0.7087797244094488
21
1.1974149212598424
0
LINE
8
BLACK
6
CONTINUOUS
10
0.7087797244094488
20
1.1974149212598424
11
0.7082734251968503
21
1.198138031496063
0
LINE
8
BLACK
6
CONTINUOUS
10
0.7082734251968503
20
1.198138031496063
11
0.7082266141732283
21
1.1981823228346455
0
LINE
8
BLACK
6
CONTINUOUS
10
0.7082266141732283
20
1.1981823228346455
11
0.7063518503937007
21
1.2019318503937007
0
LINE
8
BLACK
6
CONTINUOUS
10
0.7063518503937007
20
1.2019318503937007
11
0.7060594881889763
21
1.2029148031496062
0
LINE
8
BLACK
6
CONTINUOUS
10
0.7060594881889763
20
1.2029148031496062
11
0.7061004724409449
21
1.2030864960629921
0
LINE
8
BLACK
6
CONTINUOUS
10
0.7061004724409449
20
1.2030864960629921
11
0.7060401181102363
21
1.2032523622047244
0
LINE
8
BLACK
6
CONTINUOUS
10
0.7060401181102363
20
1.2032523622047244
11
0.7060401181102363
21
1.2126261811023622
0
LINE
8
BLACK
6
CONTINUOUS
10
0.7060401181102363
20
1.2126261811023622
11
0.7062181889763779
21
1.2136361023622046
0
LINE
8
BLACK
6
CONTINUOUS
10
0.7062181889763779
20
1.2136361023622046
11
0.7063316535433071
21
1.2137713779527559
0
LINE
8
BLACK
6
CONTINUOUS
10
0.7063316535433071
20
1.2137713779527559
11
0.7063518503937007
21
1.2139466929133857
0
LINE
8
BLACK
6
CONTINUOUS
10
0.7063518503937007
20
1.2139466929133857
11
0.7082266141732283
21
1.2176962204724409
0
LINE
8
BLACK
6
CONTINUOUS
10
0.7082266141732283
20
1.2176962204724409
11
0.7087525196850394
21
1.21840531496063
0
LINE
8
BLACK
6
CONTINUOUS
10
0.7087525196850394
20
1.21840531496063
11
0.7087797244094488
21
1.218463622047244
0
LINE
8
BLACK
6
CONTINUOUS
10
0.7087797244094488
20
1.218463622047244
11
0.7106544881889764
21
1.2203383858267716
0
LINE
8
BLACK
6
CONTINUOUS
10
0.7106544881889764
20
1.2203383858267716
11
0.7114945275590551
21
1.2209265748031495
0
LINE
8
BLACK
6
CONTINUOUS
10
0.7114945275590551
20
1.2209265748031495
11
0.7135066141732284
21
1.2211025984251969
0
LINE
8
BLACK
6
CONTINUOUS
10
0.7135066141732284
20
1.2211025984251969
11
0.7151611811023622
21
1.219944094488189
0
LINE
8
BLACK
6
CONTINUOUS
10
0.7151611811023622
20
1.219944094488189
11
0.7156838976377953
21
1.2179931102362205
0
LINE
8
BLACK
6
CONTINUOUS
10
0.7156838976377953
20
1.2179931102362205
11
0.7148303149606299
21
1.2161625590551182
0
LINE
8
BLACK
6
CONTINUOUS
10
0.7148303149606299
20
1.2161625590551182
11
0.7132943700787402
21
1.2146266141732283
0
LINE
8
BLACK
6
CONTINUOUS
10
0.7132943700787402
20
1.2146266141732283
11
0.7119456299212599
21
1.2119291338582676
0
LINE
8
BLACK
6
CONTINUOUS
10
0.7119456299212599
20
1.2119291338582676
11
0.7119456299212599
21
1.2039494094488188
0
LINE
8
BLACK
6
CONTINUOUS
10
0.7119456299212599
20
1.2039494094488188
11
0.7132943700787402
21
1.2012519291338581
0
LINE
8
BLACK
6
CONTINUOUS
10
0.7132943700787402
20
1.2012519291338581
11
0.7144914960629921
21
1.2000548031496063
0
LINE
8
BLACK
6
CONTINUOUS
10
0.7144914960629921
20
1.2000548031496063
11
0.7171889763779528
21
1.198706062992126
0
LINE
8
BLACK
6
CONTINUOUS
10
0.7171889763779528
20
1.198706062992126
11
0.7197623228346457
21
1.198706062992126
0
LINE
8
BLACK
6
CONTINUOUS
10
0.7197623228346457
20
1.198706062992126
11
0.7242707086614173
21
1.2002088976377951
0
LINE
8
BLACK
6
CONTINUOUS
10
0.7242707086614173
20
1.2002088976377951
11
0.7462750393700788
21
1.2222131496062991
0
LINE
8
BLACK
6
CONTINUOUS
10
0.7462750393700788
20
1.2222131496062991
11
0.7468030708661417
21
1.2225829527559056
0
LINE
8
BLACK
6
CONTINUOUS
10
0.7468030708661417
20
1.2225829527559056
11
0.7468865748031496
21
1.222682401574803
0
LINE
8
BLACK
6
CONTINUOUS
10
0.7468865748031496
20
1.222682401574803
11
0.7469648818897637
21
1.222696220472441
0
LINE
8
BLACK
6
CONTINUOUS
10
0.7469648818897637
20
1.222696220472441
11
0.7471150787401575
21
1.2228013779527558
0
LINE
8
BLACK
6
CONTINUOUS
10
0.7471150787401575
20
1.2228013779527558
11
0.7480006299212598
21
1.2228788582677166
0
LINE
8
BLACK
6
CONTINUOUS
10
0.7480006299212598
20
1.2228788582677166
11
0.7488757086614173
21
1.2230331496062992
0
LINE
8
BLACK
6
CONTINUOUS
10
0.7488757086614173
20
1.2230331496062992
11
0.7489926377952756
21
1.2229656692913387
0
LINE
8
BLACK
6
CONTINUOUS
10
0.4897114960629921
20
1.2520194881889763
11
0.4904023228346456
21
1.2501214960629921
0
LINE
8
BLACK
6
CONTINUOUS
10
0.4904023228346456
20
1.2501214960629921
11
0.4904023228346456
21
1.2463719685039369
0
LINE
8
BLACK
6
CONTINUOUS
10
0.4904023228346456
20
1.2463719685039369
11
0.4902490157480315
21
1.2455025984251968
0
LINE
8
BLACK
6
CONTINUOUS
10
0.4902490157480315
20
1.2455025984251968
11
0.4902507874015748
21
1.2454381889763779
0
LINE
8
BLACK
6
CONTINUOUS
10
0.4902507874015748
20
1.2454381889763779
11
0.4883760236220472
21
1.239813937007874
0
LINE
8
BLACK
6
CONTINUOUS
10
0.4883760236220472
20
1.239813937007874
11
0.4878877165354331
21
1.2389121653543307
0
LINE
8
BLACK
6
CONTINUOUS
10
0.4878877165354331
20
1.2389121653543307
11
0.4877373228346457
21
1.2388198031496063
0
LINE
8
BLACK
6
CONTINUOUS
10
0.4877373228346457
20
1.2388198031496063
11
0.4876627165354331
21
1.2386597637795276
0
LINE
8
BLACK
6
CONTINUOUS
10
0.4876627165354331
20
1.2386597637795276
11
0.4839131496062992
21
1.2349102362204725
0
LINE
8
BLACK
6
CONTINUOUS
10
0.4839131496062992
20
1.2349102362204725
11
0.4830731102362205
21
1.2343220078740158
0
LINE
8
BLACK
6
CONTINUOUS
10
0.4830731102362205
20
1.2343220078740158
11
0.4828971653543307
21
1.2343066535433072
0
LINE
8
BLACK
6
CONTINUOUS
10
0.4828971653543307
20
1.2343066535433072
11
0.4827589763779527
21
1.2341969291338581
0
LINE
8
BLACK
6
CONTINUOUS
10
0.4827589763779527
20
1.2341969291338581
11
0.4771346850393701
21
1.2323221653543306
0
LINE
8
BLACK
6
CONTINUOUS
10
0.4771346850393701
20
1.2323221653543306
11
0.4762614960629921
21
1.2321927165354329
0
LINE
8
BLACK
6
CONTINUOUS
10
0.4762614960629921
20
1.2321927165354329
11
0.4762009448818897
21
1.2321706299212598
0
LINE
8
BLACK
6
CONTINUOUS
10
0.4762009448818897
20
1.2321706299212598
11
0.4480794881889764
21
1.2321706299212598
0
LINE
8
BLACK
6
CONTINUOUS
10
0.4480794881889764
20
1.2321706299212598
11
0.4470695669291339
21
1.2323487007874014
0
LINE
8
BLACK
6
CONTINUOUS
10
0.4470695669291339
20
1.2323487007874014
11
0.4455223228346457
21
1.2336470078740158
0
LINE
8
BLACK
6
CONTINUOUS
10
0.4455223228346457
20
1.2336470078740158
11
0.4451715748031496
21
1.2356361417322834
0
LINE
8
BLACK
6
CONTINUOUS
10
0.4451715748031496
20
1.2356361417322834
11
0.4461814960629921
21
1.23738531496063
0
LINE
8
BLACK
6
CONTINUOUS
10
0.4461814960629921
20
1.23738531496063
11
0.4480794881889764
21
1.2380761417322834
0
LINE
8
BLACK
6
CONTINUOUS
10
0.4480794881889764
20
1.2380761417322834
11
0.475721811023622
21
1.2380761417322834
0
LINE
8
BLACK
6
CONTINUOUS
10
0.475721811023622
20
1.2380761417322834
11
0.4802301968503937
21
1.2395789763779528
0
LINE
8
BLACK
6
CONTINUOUS
10
0.4802301968503937
20
1.2395789763779528
11
0.4829940157480315
21
1.2423427559055118
0
LINE
8
BLACK
6
CONTINUOUS
10
0.4829940157480315
20
1.2423427559055118
11
0.484496811023622
21
1.2468511023622046
0
LINE
8
BLACK
6
CONTINUOUS
10
0.484496811023622
20
1.2468511023622046
11
0.484496811023622
21
1.2501214960629921
0
LINE
8
BLACK
6
CONTINUOUS
10
0.484496811023622
20
1.2501214960629921
11
0.4846748818897638
21
1.2511314173228347
0
LINE
8
BLACK
6
CONTINUOUS
10
0.4846748818897638
20
1.2511314173228347
11
0.4859731889763779
21
1.2526786614173229
0
LINE
8
BLACK
6
CONTINUOUS
10
0.4859731889763779
20
1.2526786614173229
11
0.4879623228346456
21
1.2530294094488188
0
LINE
8
BLACK
6
CONTINUOUS
10
0.4879623228346456
20
1.2530294094488188
11
0.4897114960629921
21
1.2520194881889763
0
LINE
8
BLACK
6
CONTINUOUS
10
0.7506248818897637
20
1.2520194881889763
11
0.7513157086614173
21
1.2501214960629921
0
LINE
8
BLACK
6
CONTINUOUS
10
0.7513157086614173
20
1.2501214960629921
11
0.7513157086614173
21
1.2463719685039369
0
LINE
8
BLACK
6
CONTINUOUS
10
0.7513157086614173
20
1.2463719685039369
11
0.7511624015748032
21
1.2455025984251968
0
LINE
8
BLACK
6
CONTINUOUS
10
0.7511624015748032
20
1.2455025984251968
11
0.7511641732283464
21
1.2454381889763779
0
LINE
8
BLACK
6
CONTINUOUS
10
0.7511641732283464
20
1.2454381889763779
11
0.7492894094488188
21
1.239813937007874
0
LINE
8
BLACK
6
CONTINUOUS
10
0.7492894094488188
20
1.239813937007874
11
0.7488011023622048
21
1.2389121653543307
0
LINE
8
BLACK
6
CONTINUOUS
10
0.7488011023622048
20
1.2389121653543307
11
0.7486507086614173
21
1.2388198031496063
0
LINE
8
BLACK
6
CONTINUOUS
10
0.7486507086614173
20
1.2388198031496063
11
0.7485761023622047
21
1.2386597637795276
0
LINE
8
BLACK
6
CONTINUOUS
10
0.7485761023622047
20
1.2386597637795276
11
0.7448265354330709
21
1.2349102362204725
0
LINE
8
BLACK
6
CONTINUOUS
10
0.7448265354330709
20
1.2349102362204725
11
0.7439864960629922
21
1.2343220078740158
0
LINE
8
BLACK
6
CONTINUOUS
10
0.7439864960629922
20
1.2343220078740158
11
0.7438105511811024
21
1.2343066535433072
0
LINE
8
BLACK
6
CONTINUOUS
10
0.7438105511811024
20
1.2343066535433072
11
0.7436723622047244
21
1.2341969291338581
0
LINE
8
BLACK
6
CONTINUOUS
10
0.7436723622047244
20
1.2341969291338581
11
0.7380480708661418
21
1.2323221653543306
0
LINE
8
BLACK
6
CONTINUOUS
10
0.7380480708661418
20
1.2323221653543306
11
0.7371748818897638
21
1.2321927165354329
0
LINE
8
BLACK
6
CONTINUOUS
10
0.7371748818897638
20
1.2321927165354329
11
0.7371143307086614
21
1.2321706299212598
0
LINE
8
BLACK
6
CONTINUOUS
10
0.7371143307086614
20
1.2321706299212598
11
0.7089928740157481
21
1.2321706299212598
0
LINE
8
BLACK
6
CONTINUOUS
10
0.7089928740157481
20
1.2321706299212598
11
0.7079829527559055
21
1.2323487007874014
0
LINE
8
BLACK
6
CONTINUOUS
10
0.7079829527559055
20
1.2323487007874014
11
0.7064357086614174
21
1.2336470078740158
0
LINE
8
BLACK
6
CONTINUOUS
10
0.7064357086614174
20
1.2336470078740158
11
0.7060849606299212
21
1.2356361417322834
0
LINE
8
BLACK
6
CONTINUOUS
10
0.7060849606299212
20
1.2356361417322834
11
0.7070948818897638
21
1.23738531496063
0
LINE
8
BLACK
6
CONTINUOUS
10
0.7070948818897638
20
1.23738531496063
11
0.7089928740157481
21
1.2380761417322834
0
LINE
8
BLACK
6
CONTINUOUS
10
0.7089928740157481
20
1.2380761417322834
11
0.7366351968503937
21
1.2380761417322834
0
LINE
8
BLACK
6
CONTINUOUS
10
0.7366351968503937
20
1.2380761417322834
11
0.7411435826771653
21
1.2395789763779528
0
LINE
8
BLACK
6
CONTINUOUS
10
0.7411435826771653
20
1.2395789763779528
11
0.7439074015748032
21
1.2423427559055118
0
LINE
8
BLACK
6
CONTINUOUS
10
0.7439074015748032
20
1.2423427559055118
11
0.7454101968503937
21
1.2468511023622046
0
LINE
8
BLACK
6
CONTINUOUS
10
0.7454101968503937
20
1.2468511023622046
11
0.7454101968503937
21
1.2501214960629921
0
LINE
8
BLACK
6
CONTINUOUS
10
0.7454101968503937
20
1.2501214960629921
11
0.7455882677165354
21
1.2511314173228347
0
LINE
8
BLACK
6
CONTINUOUS
10
0.7455882677165354
20
1.2511314173228347
11
0.7468865748031496
21
1.2526786614173229
0
LINE
8
BLACK
6
CONTINUOUS
10
0.7468865748031496
20
1.2526786614173229
11
0.7488757086614173
21
1.2530294094488188
0
LINE
8
BLACK
6
CONTINUOUS
10
0.7488757086614173
20
1.2530294094488188
11
0.7506248818897637
21
1.2520194881889763
0
LINE
8
BLACK
6
CONTINUOUS
10
0.3833228346456693
20
1.3910944881889764
11
0.3849931496062992
21
1.3904025984251969
0
LINE
8
BLACK
6
CONTINUOUS
10
0.3849931496062992
20
1.3904025984251969
11
0.3856850393700788
21
1.388732283464567
0
LINE
8
BLACK
6
CONTINUOUS
10
0.3856850393700788
20
1.388732283464567
11
0.3856850393700788
21
1.3178661417322834
0
LINE
8
BLACK
6
CONTINUOUS
10
0.3856850393700788
20
1.3178661417322834
11
0.3849931496062992
21
1.3161958267716536
0
LINE
8
BLACK
6
CONTINUOUS
10
0.3849931496062992
20
1.3161958267716536
11
0.3833228346456693
21
1.315503937007874
0
LINE
8
BLACK
6
CONTINUOUS
10
0.3833228346456693
20
1.315503937007874
11
0.3816525196850394
21
1.3161958267716536
0
LINE
8
BLACK
6
CONTINUOUS
10
0.3816525196850394
20
1.3161958267716536
11
0.3809606299212598
21
1.3178661417322834
0
LINE
8
BLACK
6
CONTINUOUS
10
0.3809606299212598
20
1.3178661417322834
11
0.3809606299212598
21
1.3863700787401574
0
LINE
8
BLACK
6
CONTINUOUS
10
0.3809606299212598
20
1.3863700787401574
11
0.3262362204724409
21
1.3863700787401574
0
LINE
8
BLACK
6
CONTINUOUS
10
0.3262362204724409
20
1.3863700787401574
11
0.324565905511811
21
1.3870619685039369
0
LINE
8
BLACK
6
CONTINUOUS
10
0.324565905511811
20
1.3870619685039369
11
0.3238740157480315
21
1.388732283464567
0
LINE
8
BLACK
6
CONTINUOUS
10
0.3238740157480315
20
1.388732283464567
11
0.324565905511811
21
1.3904025984251969
0
LINE
8
BLACK
6
CONTINUOUS
10
0.324565905511811
20
1.3904025984251969
11
0.3262362204724409
21
1.3910944881889764
0
LINE
8
BLACK
6
CONTINUOUS
10
0.3262362204724409
20
1.3910944881889764
11
0.3833228346456693
21
1.3910944881889764
0
LINE
8
BLACK
6
CONTINUOUS
10
0.875434094488189
20
1.3904025984251969
11
0.8761259842519685
21
1.388732283464567
0
LINE
8
BLACK
6
CONTINUOUS
10
0.8761259842519685
20
1.388732283464567
11
0.875434094488189
21
1.3870619685039369
0
LINE
8
BLACK
6
CONTINUOUS
10
0.875434094488189
20
1.3870619685039369
11
0.873763779527559
21
1.3863700787401574
0
LINE
8
BLACK
6
CONTINUOUS
10
0.873763779527559
20
1.3863700787401574
11
0.8190393700787402
21
1.3863700787401574
0
LINE
8
BLACK
6
CONTINUOUS
10
0.8190393700787402
20
1.3863700787401574
11
0.8190393700787402
21
1.3178661417322834
0
LINE
8
BLACK
6
CONTINUOUS
10
0.8190393700787402
20
1.3178661417322834
11
0.8183474803149606
21
1.3161958267716536
0
LINE
8
BLACK
6
CONTINUOUS
10
0.8183474803149606
20
1.3161958267716536
11
0.8166771653543307
21
1.315503937007874
0
LINE
8
BLACK
6
CONTINUOUS
10
0.8166771653543307
20
1.315503937007874
11
0.7777007874015748
21
1.315503937007874
0
LINE
8
BLACK
6
CONTINUOUS
10
0.7777007874015748
20
1.315503937007874
11
0.7760304724409449
21
1.3161958267716536
0
LINE
8
BLACK
6
CONTINUOUS
10
0.7760304724409449
20
1.3161958267716536
11
0.7753385826771654
21
1.3178661417322834
0
LINE
8
BLACK
6
CONTINUOUS
10
0.7753385826771654
20
1.3178661417322834
11
0.7760304724409449
21
1.3195364566929133
0
LINE
8
BLACK
6
CONTINUOUS
10
0.7760304724409449
20
1.3195364566929133
11
0.7777007874015748
21
1.3202283464566928
0
LINE
8
BLACK
6
CONTINUOUS
10
0.7777007874015748
20
1.3202283464566928
11
0.8143149606299213
21
1.3202283464566928
0
LINE
8
BLACK
6
CONTINUOUS
10
0.8143149606299213
20
1.3202283464566928
11
0.8143149606299213
21
1.388732283464567
0
LINE
8
BLACK
6
CONTINUOUS
10
0.8143149606299213
20
1.388732283464567
11
0.8150068503937008
21
1.3904025984251969
0
LINE
8
BLACK
6
CONTINUOUS
10
0.8150068503937008
20
1.3904025984251969
11
0.8166771653543307
21
1.3910944881889764
0
LINE
8
BLACK
6
CONTINUOUS
10
0.8166771653543307
20
1.3910944881889764
11
0.873763779527559
21
1.3910944881889764
0
LINE
8
BLACK
6
CONTINUOUS
10
0.873763779527559
20
1.3910944881889764
11
0.875434094488189
21
1.3904025984251969
0
CIRCLE
8
BLACK
10
0.8000000393700787
20
1.5999999999999999
40
0.0068897637795276
0
CIRCLE
8
BLACK
10
0.8000000393700787
20
0.4
40
0.0068897637795276
0
CIRCLE
8
BLACK
10
0.4000000393700787
20
0.4
40
0.0068897637795276
0
CIRCLE
8
BLACK
10
0.4000000393700787
20
1.5999999999999999
40
0.0068897637795276
0
CIRCLE
8
BLACK
10
0.5500000393700787
20
1.2
40
0.0068897637795276
0
CIRCLE
8
BLACK
10
0.6500000393700788
20
1.2
40
0.0068897637795276
0
CIRCLE
8
BLACK
10
0.5500000393700787
20
1.0999999999999999
40
0.0068897637795276
0
CIRCLE
8
BLACK
10
0.6500000393700788
20
1.0999999999999999
40
0.0068897637795276
0
CIRCLE
8
BLACK
10
0.5500000393700787
20
1.
40
0.0068897637795276
0
CIRCLE
8
BLACK
10
0.6500000393700788
20
1.
40
0.0068897637795276
0
CIRCLE
8
BLACK
10
0.5500000393700787
20
0.9
40
0.0068897637795276
0
CIRCLE
8
BLACK
10
0.6500000393700788
20
0.9
40
0.0068897637795276
0
CIRCLE
8
BLACK
10
0.5500000393700787
20
0.7999999999999999
40
0.0068897637795276
0
CIRCLE
8
BLACK
10
0.6500000393700788
20
0.7999999999999999
40
0.0068897637795276
  0
ENDSEC
  0
EOF
