  0
SECTION
  2
HEADER
  9
$ANGBASE
  50
0.0
  9
$ANGDIR
  70
1
  9
$MEASUREMENT
  70
0
  0
ENDSEC
  0
SECTION
  2
TABLES
  0
TABLE
  2
LTYPE
  70
4
  0
LTYPE
  5
40F
  2
CONTINUOUS
  70
0
  3
Solid line
  72
65
  73
0
  40
0.0
  0
LTYPE
  5
410
  2
DASHDOT
 70
0
  3
Dash Dot ____ _ ____ _
 72
65
 73
4
 40
2.0
 49
1.25
 49
-0.25
 49
0.25
 49
-0.25
  0
LTYPE
  5
411
  2
DASHED
 70
0
  3
Dashed __ __ __ __ __
 72
65
 73
2
 40
0.75
 49
0.5
 49
-0.25
  0
LTYPE
  5
43B
  2
DOTTED
 70
0
  3
Dotted .  .  .  .
 72
65
 73
2
 40
0.2
 49
0.0
 49
-0.2
  0
ENDTAB
  0
TABLE
  2
STYLE
  70
4
  0
STYLE
  2
KICAD
  70
0
  40
0
  41
1
  42
1
  50
0
  71
0
  3
isocp.shx
  0
STYLE
  2
KICADB
  70
0
  40
0
  41
1
  42
1
  50
0
  71
0
  3
isocp.shx
  0
STYLE
  2
KICADI
  70
0
  40
0
  41
1
  42
1
  50
15
  71
0
  3
isocp.shx
  0
STYLE
  2
KICADBI
  70
0
  40
0
  41
1
  42
1
  50
15
  71
0
  3
isocp.shx
  0
ENDTAB
  0
TABLE
  2
LAYER
  70
1
  0
LAYER
  2
BLACK
  70
0
  62
7
  6
CONTINUOUS
  0
ENDTAB
  0
ENDSEC
  0
SECTION
  2
ENTITIES
0
LINE
8
BLACK
6
CONTINUOUS
10
0.6107165748031496
20
0.3374342519685039
11
0.6191683464566929
21
0.3351696062992126
0
LINE
8
BLACK
6
CONTINUOUS
10
0.6191683464566929
20
0.3351696062992126
11
0.6270984251968503
21
0.3314717322834645
0
LINE
8
BLACK
6
CONTINUOUS
10
0.6270984251968503
20
0.3314717322834645
11
0.6342659055118111
21
0.326453031496063
0
LINE
8
BLACK
6
CONTINUOUS
10
0.6342659055118111
20
0.326453031496063
11
0.640453031496063
21
0.320265905511811
0
LINE
8
BLACK
6
CONTINUOUS
10
0.640453031496063
20
0.320265905511811
11
0.6454717322834645
21
0.3130984251968504
0
LINE
8
BLACK
6
CONTINUOUS
10
0.6454717322834645
20
0.3130984251968504
11
0.6491696062992126
21
0.3051683464566929
0
LINE
8
BLACK
6
CONTINUOUS
10
0.6491696062992126
20
0.3051683464566929
11
0.6514342519685039
21
0.2967165748031496
0
LINE
8
BLACK
6
CONTINUOUS
10
0.6514342519685039
20
0.2967165748031496
11
0.6521968503937008
21
0.288
0
LINE
8
BLACK
6
CONTINUOUS
10
0.6521968503937008
20
0.288
11
0.6514342519685039
21
0.2792834251968504
0
LINE
8
BLACK
6
CONTINUOUS
10
0.6514342519685039
20
0.2792834251968504
11
0.6491696062992126
21
0.2708316535433071
0
LINE
8
BLACK
6
CONTINUOUS
10
0.6491696062992126
20
0.2708316535433071
11
0.6454717322834645
21
0.2629015748031496
0
LINE
8
BLACK
6
CONTINUOUS
10
0.6454717322834645
20
0.2629015748031496
11
0.640453031496063
21
0.255734094488189
0
LINE
8
BLACK
6
CONTINUOUS
10
0.640453031496063
20
0.255734094488189
11
0.6342659055118111
21
0.249546968503937
0
LINE
8
BLACK
6
CONTINUOUS
10
0.6342659055118111
20
0.249546968503937
11
0.6270984251968503
21
0.2445282677165354
0
LINE
8
BLACK
6
CONTINUOUS
10
0.6270984251968503
20
0.2445282677165354
11
0.6191683464566929
21
0.2408303937007874
0
LINE
8
BLACK
6
CONTINUOUS
10
0.6191683464566929
20
0.2408303937007874
11
0.6107165748031496
21
0.238565748031496
0
LINE
8
BLACK
6
CONTINUOUS
10
0.6107165748031496
20
0.238565748031496
11
0.602
21
0.2378031496062992
0
LINE
8
BLACK
6
CONTINUOUS
10
0.602
20
0.2378031496062992
11
0.5932834251968504
21
0.238565748031496
0
LINE
8
BLACK
6
CONTINUOUS
10
0.5932834251968504
20
0.238565748031496
11
0.5848316535433071
21
0.2408303937007874
0
LINE
8
BLACK
6
CONTINUOUS
10
0.5848316535433071
20
0.2408303937007874
11
0.5769015748031496
21
0.2445282677165354
0
LINE
8
BLACK
6
CONTINUOUS
10
0.5769015748031496
20
0.2445282677165354
11
0.569734094488189
21
0.249546968503937
0
LINE
8
BLACK
6
CONTINUOUS
10
0.569734094488189
20
0.249546968503937
11
0.563546968503937
21
0.255734094488189
0
LINE
8
BLACK
6
CONTINUOUS
10
0.563546968503937
20
0.255734094488189
11
0.5585282677165354
21
0.2629015748031496
0
LINE
8
BLACK
6
CONTINUOUS
10
0.5585282677165354
20
0.2629015748031496
11
0.5548303937007873
21
0.2708316535433071
0
LINE
8
BLACK
6
CONTINUOUS
10
0.5548303937007873
20
0.2708316535433071
11
0.5525657480314961
21
0.2792834251968504
0
LINE
8
BLACK
6
CONTINUOUS
10
0.5525657480314961
20
0.2792834251968504
11
0.5518031496062992
21
0.288
0
LINE
8
BLACK
6
CONTINUOUS
10
0.5518031496062992
20
0.288
11
0.5525657480314961
21
0.2967165748031496
0
LINE
8
BLACK
6
CONTINUOUS
10
0.5525657480314961
20
0.2967165748031496
11
0.5548303937007873
21
0.3051683464566929
0
LINE
8
BLACK
6
CONTINUOUS
10
0.5548303937007873
20
0.3051683464566929
11
0.5585282677165354
21
0.3130984251968504
0
LINE
8
BLACK
6
CONTINUOUS
10
0.5585282677165354
20
0.3130984251968504
11
0.563546968503937
21
0.320265905511811
0
LINE
8
BLACK
6
CONTINUOUS
10
0.563546968503937
20
0.320265905511811
11
0.569734094488189
21
0.326453031496063
0
LINE
8
BLACK
6
CONTINUOUS
10
0.569734094488189
20
0.326453031496063
11
0.5769015748031496
21
0.3314717322834645
0
LINE
8
BLACK
6
CONTINUOUS
10
0.5769015748031496
20
0.3314717322834645
11
0.5848316535433071
21
0.3351696062992126
0
LINE
8
BLACK
6
CONTINUOUS
10
0.5848316535433071
20
0.3351696062992126
11
0.5932834251968504
21
0.3374342519685039
0
LINE
8
BLACK
6
CONTINUOUS
10
0.5932834251968504
20
0.3374342519685039
11
0.602
21
0.3381968503937008
0
LINE
8
BLACK
6
CONTINUOUS
10
0.602
20
0.3381968503937008
11
0.6107165748031496
21
0.3374342519685039
0
LINE
8
BLACK
6
CONTINUOUS
10
0.5543229527559055
20
0.2795932283464567
11
0.5565070866141733
21
0.2714419291338583
0
LINE
8
BLACK
6
CONTINUOUS
10
0.5565070866141733
20
0.2714419291338583
11
0.5600735039370078
21
0.2637937007874016
0
LINE
8
BLACK
6
CONTINUOUS
10
0.5600735039370078
20
0.2637937007874016
11
0.5649138188976378
21
0.2568810236220472
0
LINE
8
BLACK
6
CONTINUOUS
10
0.5649138188976378
20
0.2568810236220472
11
0.5708810236220472
21
0.2509138188976378
0
LINE
8
BLACK
6
CONTINUOUS
10
0.5708810236220472
20
0.2509138188976378
11
0.5777937007874016
21
0.2460735039370079
0
LINE
8
BLACK
6
CONTINUOUS
10
0.5777937007874016
20
0.2460735039370079
11
0.5854419291338583
21
0.2425070866141732
0
LINE
8
BLACK
6
CONTINUOUS
10
0.5854419291338583
20
0.2425070866141732
11
0.5935932283464567
21
0.2403229527559055
0
LINE
8
BLACK
6
CONTINUOUS
10
0.5935932283464567
20
0.2403229527559055
11
0.602
21
0.2395874409448819
0
LINE
8
BLACK
6
CONTINUOUS
10
0.602
20
0.2395874409448819
11
0.6104067716535433
21
0.2403229527559055
0
LINE
8
BLACK
6
CONTINUOUS
10
0.6104067716535433
20
0.2403229527559055
11
0.6185580708661417
21
0.2425070866141732
0
LINE
8
BLACK
6
CONTINUOUS
10
0.6185580708661417
20
0.2425070866141732
11
0.6262062992125984
21
0.2460735039370079
0
LINE
8
BLACK
6
CONTINUOUS
10
0.6262062992125984
20
0.2460735039370079
11
0.6331189763779528
21
0.2509138188976378
0
LINE
8
BLACK
6
CONTINUOUS
10
0.6331189763779528
20
0.2509138188976378
11
0.6390861811023621
21
0.2568810236220472
0
LINE
8
BLACK
6
CONTINUOUS
10
0.6390861811023621
20
0.2568810236220472
11
0.6439264960629921
21
0.2637937007874016
0
LINE
8
BLACK
6
CONTINUOUS
10
0.6439264960629921
20
0.2637937007874016
11
0.6474929133858267
21
0.2714419291338583
0
LINE
8
BLACK
6
CONTINUOUS
10
0.6474929133858267
20
0.2714419291338583
11
0.6496770472440945
21
0.2795932283464567
0
LINE
8
BLACK
6
CONTINUOUS
10
0.6496770472440945
20
0.2795932283464567
11
0.6504125590551181
21
0.288
0
LINE
8
BLACK
6
CONTINUOUS
10
0.6504125590551181
20
0.288
11
0.6496770472440945
21
0.2964067716535433
0
LINE
8
BLACK
6
CONTINUOUS
10
0.6496770472440945
20
0.2964067716535433
11
0.6474929133858267
21
0.3045580708661417
0
LINE
8
BLACK
6
CONTINUOUS
10
0.6474929133858267
20
0.3045580708661417
11
0.6439264960629921
21
0.3122062598425197
0
LINE
8
BLACK
6
CONTINUOUS
10
0.6439264960629921
20
0.3122062598425197
11
0.6390861811023621
21
0.3191189763779527
0
LINE
8
BLACK
6
CONTINUOUS
10
0.6390861811023621
20
0.3191189763779527
11
0.6331189763779528
21
0.3250861811023622
0
LINE
8
BLACK
6
CONTINUOUS
10
0.6331189763779528
20
0.3250861811023622
11
0.6262062992125984
21
0.3299264960629921
0
LINE
8
BLACK
6
CONTINUOUS
10
0.6262062992125984
20
0.3299264960629921
11
0.6185580708661417
21
0.3334929133858268
0
LINE
8
BLACK
6
CONTINUOUS
10
0.6185580708661417
20
0.3334929133858268
11
0.6104067716535433
21
0.3356770472440945
0
LINE
8
BLACK
6
CONTINUOUS
10
0.6104067716535433
20
0.3356770472440945
11
0.602
21
0.3364125590551181
0
LINE
8
BLACK
6
CONTINUOUS
10
0.602
20
0.3364125590551181
11
0.5935932283464567
21
0.3356770472440945
0
LINE
8
BLACK
6
CONTINUOUS
10
0.5935932283464567
20
0.3356770472440945
11
0.5854419291338583
21
0.3334929133858268
0
LINE
8
BLACK
6
CONTINUOUS
10
0.5854419291338583
20
0.3334929133858268
11
0.5777937401574803
21
0.3299264960629921
0
LINE
8
BLACK
6
CONTINUOUS
10
0.5777937401574803
20
0.3299264960629921
11
0.5708810236220472
21
0.3250861811023622
0
LINE
8
BLACK
6
CONTINUOUS
10
0.5708810236220472
20
0.3250861811023622
11
0.5649138188976378
21
0.3191189763779527
0
LINE
8
BLACK
6
CONTINUOUS
10
0.5649138188976378
20
0.3191189763779527
11
0.5600735039370078
21
0.3122062598425197
0
LINE
8
BLACK
6
CONTINUOUS
10
0.5600735039370078
20
0.3122062598425197
11
0.5565070866141733
21
0.3045580708661417
0
LINE
8
BLACK
6
CONTINUOUS
10
0.5565070866141733
20
0.3045580708661417
11
0.5543229527559055
21
0.2964067716535433
0
LINE
8
BLACK
6
CONTINUOUS
10
0.5543229527559055
20
0.2964067716535433
11
0.5535874409448819
21
0.288
0
LINE
8
BLACK
6
CONTINUOUS
10
0.5535874409448819
20
0.288
11
0.5543229527559055
21
0.2795932283464567
0
LINE
8
BLACK
6
CONTINUOUS
10
0.460078779527559
20
0.9668110236220472
11
0.4607747637795275
21
0.9665227559055118
0
LINE
8
BLACK
6
CONTINUOUS
10
0.4607747637795275
20
0.9665227559055118
11
0.461063031496063
21
0.9658267716535432
0
LINE
8
BLACK
6
CONTINUOUS
10
0.461063031496063
20
0.9658267716535432
11
0.461063031496063
21
0.5941732283464567
0
LINE
8
BLACK
6
CONTINUOUS
10
0.461063031496063
20
0.5941732283464567
11
0.4607747637795275
21
0.5934772440944882
0
LINE
8
BLACK
6
CONTINUOUS
10
0.4607747637795275
20
0.5934772440944882
11
0.460078779527559
21
0.5931889763779528
0
LINE
8
BLACK
6
CONTINUOUS
10
0.460078779527559
20
0.5931889763779528
11
0.2081102755905512
21
0.5931889763779528
0
LINE
8
BLACK
6
CONTINUOUS
10
0.2081102755905512
20
0.5931889763779528
11
0.2074142913385827
21
0.5934772440944882
0
LINE
8
BLACK
6
CONTINUOUS
10
0.2074142913385827
20
0.5934772440944882
11
0.2071260236220472
21
0.5941732283464567
0
LINE
8
BLACK
6
CONTINUOUS
10
0.2071260236220472
20
0.5941732283464567
11
0.2071260236220472
21
0.9658267716535432
0
LINE
8
BLACK
6
CONTINUOUS
10
0.2071260236220472
20
0.9658267716535432
11
0.2074142913385827
21
0.9665227559055118
0
LINE
8
BLACK
6
CONTINUOUS
10
0.2074142913385827
20
0.9665227559055118
11
0.2081102755905512
21
0.9668110236220472
0
LINE
8
BLACK
6
CONTINUOUS
10
0.2081102755905512
20
0.9668110236220472
11
0.460078779527559
21
0.9668110236220472
0
LINE
8
BLACK
6
CONTINUOUS
10
0.2090945275590551
20
0.9648425196850393
11
0.2090945275590551
21
0.5951574803149606
0
LINE
8
BLACK
6
CONTINUOUS
10
0.2090945275590551
20
0.5951574803149606
11
0.4590945275590551
21
0.5951574803149606
0
LINE
8
BLACK
6
CONTINUOUS
10
0.4590945275590551
20
0.5951574803149606
11
0.4590945275590551
21
0.9648425196850393
0
LINE
8
BLACK
6
CONTINUOUS
10
0.4590945275590551
20
0.9648425196850393
11
0.2090945275590551
21
0.9648425196850393
0
LINE
8
BLACK
6
CONTINUOUS
10
0.9918897244094488
20
0.9668110236220472
11
0.9925857086614173
21
0.9665227559055118
0
LINE
8
BLACK
6
CONTINUOUS
10
0.9925857086614173
20
0.9665227559055118
11
0.9928739763779527
21
0.9658267716535432
0
LINE
8
BLACK
6
CONTINUOUS
10
0.9928739763779527
20
0.9658267716535432
11
0.9928739763779527
21
0.5941732283464567
0
LINE
8
BLACK
6
CONTINUOUS
10
0.9928739763779527
20
0.5941732283464567
11
0.9925857086614173
21
0.5934772440944882
0
LINE
8
BLACK
6
CONTINUOUS
10
0.9925857086614173
20
0.5934772440944882
11
0.9918897244094488
21
0.5931889763779528
0
LINE
8
BLACK
6
CONTINUOUS
10
0.9918897244094488
20
0.5931889763779528
11
0.7399212204724409
21
0.5931889763779528
0
LINE
8
BLACK
6
CONTINUOUS
10
0.7399212204724409
20
0.5931889763779528
11
0.7392252362204724
21
0.5934772440944882
0
LINE
8
BLACK
6
CONTINUOUS
10
0.7392252362204724
20
0.5934772440944882
11
0.738936968503937
21
0.5941732283464567
0
LINE
8
BLACK
6
CONTINUOUS
10
0.738936968503937
20
0.5941732283464567
11
0.738936968503937
21
0.9658267716535432
0
LINE
8
BLACK
6
CONTINUOUS
10
0.738936968503937
20
0.9658267716535432
11
0.7392252362204724
21
0.9665227559055118
0
LINE
8
BLACK
6
CONTINUOUS
10
0.7392252362204724
20
0.9665227559055118
11
0.7399212204724409
21
0.9668110236220472
0
LINE
8
BLACK
6
CONTINUOUS
10
0.7399212204724409
20
0.9668110236220472
11
0.9918897244094488
21
0.9668110236220472
0
LINE
8
BLACK
6
CONTINUOUS
10
0.7409054724409448
20
0.9648425196850393
11
0.7409054724409448
21
0.5951574803149606
0
LINE
8
BLACK
6
CONTINUOUS
10
0.7409054724409448
20
0.5951574803149606
11
0.9909054724409448
21
0.5951574803149606
0
LINE
8
BLACK
6
CONTINUOUS
10
0.9909054724409448
20
0.5951574803149606
11
0.9909054724409448
21
0.9648425196850393
0
LINE
8
BLACK
6
CONTINUOUS
10
0.9909054724409448
20
0.9648425196850393
11
0.7409054724409448
21
0.9648425196850393
0
LINE
8
BLACK
6
CONTINUOUS
10
0.460078779527559
20
1.4088110236220472
11
0.4607747637795275
21
1.4085227559055118
0
LINE
8
BLACK
6
CONTINUOUS
10
0.4607747637795275
20
1.4085227559055118
11
0.461063031496063
21
1.4078267716535433
0
LINE
8
BLACK
6
CONTINUOUS
10
0.461063031496063
20
1.4078267716535433
11
0.461063031496063
21
1.0361732283464566
0
LINE
8
BLACK
6
CONTINUOUS
10
0.461063031496063
20
1.0361732283464566
11
0.4607747637795275
21
1.0354772440944882
0
LINE
8
BLACK
6
CONTINUOUS
10
0.4607747637795275
20
1.0354772440944882
11
0.460078779527559
21
1.0351889763779527
0
LINE
8
BLACK
6
CONTINUOUS
10
0.460078779527559
20
1.0351889763779527
11
0.2081102755905512
21
1.0351889763779527
0
LINE
8
BLACK
6
CONTINUOUS
10
0.2081102755905512
20
1.0351889763779527
11
0.2074142913385827
21
1.0354772440944882
0
LINE
8
BLACK
6
CONTINUOUS
10
0.2074142913385827
20
1.0354772440944882
11
0.2071260236220472
21
1.0361732283464566
0
LINE
8
BLACK
6
CONTINUOUS
10
0.2071260236220472
20
1.0361732283464566
11
0.2071260236220472
21
1.4078267716535433
0
LINE
8
BLACK
6
CONTINUOUS
10
0.2071260236220472
20
1.4078267716535433
11
0.2074142913385827
21
1.4085227559055118
0
LINE
8
BLACK
6
CONTINUOUS
10
0.2074142913385827
20
1.4085227559055118
11
0.2081102755905512
21
1.4088110236220472
0
LINE
8
BLACK
6
CONTINUOUS
10
0.2081102755905512
20
1.4088110236220472
11
0.460078779527559
21
1.4088110236220472
0
LINE
8
BLACK
6
CONTINUOUS
10
0.2090945275590551
20
1.4068425196850394
11
0.2090945275590551
21
1.0371574803149606
0
LINE
8
BLACK
6
CONTINUOUS
10
0.2090945275590551
20
1.0371574803149606
11
0.4590945275590551
21
1.0371574803149606
0
LINE
8
BLACK
6
CONTINUOUS
10
0.4590945275590551
20
1.0371574803149606
11
0.4590945275590551
21
1.4068425196850394
0
LINE
8
BLACK
6
CONTINUOUS
10
0.4590945275590551
20
1.4068425196850394
11
0.2090945275590551
21
1.4068425196850394
0
LINE
8
BLACK
6
CONTINUOUS
10
0.9918897244094488
20
1.4088110236220472
11
0.9925857086614173
21
1.4085227559055118
0
LINE
8
BLACK
6
CONTINUOUS
10
0.9925857086614173
20
1.4085227559055118
11
0.9928739763779527
21
1.4078267716535433
0
LINE
8
BLACK
6
CONTINUOUS
10
0.9928739763779527
20
1.4078267716535433
11
0.9928739763779527
21
1.0361732283464566
0
LINE
8
BLACK
6
CONTINUOUS
10
0.9928739763779527
20
1.0361732283464566
11
0.9925857086614173
21
1.0354772440944882
0
LINE
8
BLACK
6
CONTINUOUS
10
0.9925857086614173
20
1.0354772440944882
11
0.9918897244094488
21
1.0351889763779527
0
LINE
8
BLACK
6
CONTINUOUS
10
0.9918897244094488
20
1.0351889763779527
11
0.7399212204724409
21
1.0351889763779527
0
LINE
8
BLACK
6
CONTINUOUS
10
0.7399212204724409
20
1.0351889763779527
11
0.7392252362204724
21
1.0354772440944882
0
LINE
8
BLACK
6
CONTINUOUS
10
0.7392252362204724
20
1.0354772440944882
11
0.738936968503937
21
1.0361732283464566
0
LINE
8
BLACK
6
CONTINUOUS
10
0.738936968503937
20
1.0361732283464566
11
0.738936968503937
21
1.4078267716535433
0
LINE
8
BLACK
6
CONTINUOUS
10
0.738936968503937
20
1.4078267716535433
11
0.7392252362204724
21
1.4085227559055118
0
LINE
8
BLACK
6
CONTINUOUS
10
0.7392252362204724
20
1.4085227559055118
11
0.7399212204724409
21
1.4088110236220472
0
LINE
8
BLACK
6
CONTINUOUS
10
0.7399212204724409
20
1.4088110236220472
11
0.9918897244094488
21
1.4088110236220472
0
LINE
8
BLACK
6
CONTINUOUS
10
0.7409054724409448
20
1.4068425196850394
11
0.7409054724409448
21
1.0371574803149606
0
LINE
8
BLACK
6
CONTINUOUS
10
0.7409054724409448
20
1.0371574803149606
11
0.9909054724409448
21
1.0371574803149606
0
LINE
8
BLACK
6
CONTINUOUS
10
0.9909054724409448
20
1.0371574803149606
11
0.9909054724409448
21
1.4068425196850394
0
LINE
8
BLACK
6
CONTINUOUS
10
0.9909054724409448
20
1.4068425196850394
11
0.7409054724409448
21
1.4068425196850394
0
LINE
8
BLACK
6
CONTINUOUS
10
0.6087165748031496
20
1.7551980314960629
11
0.6171683464566929
21
1.7529333858267717
0
LINE
8
BLACK
6
CONTINUOUS
10
0.6171683464566929
20
1.7529333858267717
11
0.6250984251968503
21
1.7492355118110237
0
LINE
8
BLACK
6
CONTINUOUS
10
0.6250984251968503
20
1.7492355118110237
11
0.6322659055118111
21
1.744216811023622
0
LINE
8
BLACK
6
CONTINUOUS
10
0.6322659055118111
20
1.744216811023622
11
0.638453031496063
21
1.7380296850393699
0
LINE
8
BLACK
6
CONTINUOUS
10
0.638453031496063
20
1.7380296850393699
11
0.6434717322834645
21
1.7308622047244093
0
LINE
8
BLACK
6
CONTINUOUS
10
0.6434717322834645
20
1.7308622047244093
11
0.6471696062992126
21
1.7229321259842518
0
LINE
8
BLACK
6
CONTINUOUS
10
0.6471696062992126
20
1.7229321259842518
11
0.6494342519685039
21
1.7144803543307086
0
LINE
8
BLACK
6
CONTINUOUS
10
0.6494342519685039
20
1.7144803543307086
11
0.6501968503937008
21
1.7057637795275591
0
LINE
8
BLACK
6
CONTINUOUS
10
0.6501968503937008
20
1.7057637795275591
11
0.6494342519685039
21
1.6970472047244094
0
LINE
8
BLACK
6
CONTINUOUS
10
0.6494342519685039
20
1.6970472047244094
11
0.6471696062992126
21
1.6885954330708661
0
LINE
8
BLACK
6
CONTINUOUS
10
0.6471696062992126
20
1.6885954330708661
11
0.6434717322834645
21
1.6806653543307086
0
LINE
8
BLACK
6
CONTINUOUS
10
0.6434717322834645
20
1.6806653543307086
11
0.638453031496063
21
1.673497874015748
0
LINE
8
BLACK
6
CONTINUOUS
10
0.638453031496063
20
1.673497874015748
11
0.6322659055118111
21
1.6673107480314959
0
LINE
8
BLACK
6
CONTINUOUS
10
0.6322659055118111
20
1.6673107480314959
11
0.6250984251968503
21
1.6622920472440945
0
LINE
8
BLACK
6
CONTINUOUS
10
0.6250984251968503
20
1.6622920472440945
11
0.6171683464566929
21
1.6585941732283465
0
LINE
8
BLACK
6
CONTINUOUS
10
0.6171683464566929
20
1.6585941732283465
11
0.6087165748031496
21
1.656329527559055
0
LINE
8
BLACK
6
CONTINUOUS
10
0.6087165748031496
20
1.656329527559055
11
0.6
21
1.6555669291338582
0
LINE
8
BLACK
6
CONTINUOUS
10
0.6
20
1.6555669291338582
11
0.5912834251968504
21
1.656329527559055
0
LINE
8
BLACK
6
CONTINUOUS
10
0.5912834251968504
20
1.656329527559055
11
0.5828316535433071
21
1.6585941732283465
0
LINE
8
BLACK
6
CONTINUOUS
10
0.5828316535433071
20
1.6585941732283465
11
0.5749015748031496
21
1.6622920472440945
0
LINE
8
BLACK
6
CONTINUOUS
10
0.5749015748031496
20
1.6622920472440945
11
0.567734094488189
21
1.6673107480314959
0
LINE
8
BLACK
6
CONTINUOUS
10
0.567734094488189
20
1.6673107480314959
11
0.561546968503937
21
1.673497874015748
0
LINE
8
BLACK
6
CONTINUOUS
10
0.561546968503937
20
1.673497874015748
11
0.5565282677165354
21
1.6806653543307086
0
LINE
8
BLACK
6
CONTINUOUS
10
0.5565282677165354
20
1.6806653543307086
11
0.5528303937007873
21
1.6885954330708661
0
LINE
8
BLACK
6
CONTINUOUS
10
0.5528303937007873
20
1.6885954330708661
11
0.550565748031496
21
1.6970472047244094
0
LINE
8
BLACK
6
CONTINUOUS
10
0.550565748031496
20
1.6970472047244094
11
0.5498031496062992
21
1.7057637795275591
0
LINE
8
BLACK
6
CONTINUOUS
10
0.5498031496062992
20
1.7057637795275591
11
0.550565748031496
21
1.7144803543307086
0
LINE
8
BLACK
6
CONTINUOUS
10
0.550565748031496
20
1.7144803543307086
11
0.5528303937007873
21
1.7229321259842518
0
LINE
8
BLACK
6
CONTINUOUS
10
0.5528303937007873
20
1.7229321259842518
11
0.5565282677165354
21
1.7308622047244093
0
LINE
8
BLACK
6
CONTINUOUS
10
0.5565282677165354
20
1.7308622047244093
11
0.561546968503937
21
1.7380296850393699
0
LINE
8
BLACK
6
CONTINUOUS
10
0.561546968503937
20
1.7380296850393699
11
0.567734094488189
21
1.744216811023622
0
LINE
8
BLACK
6
CONTINUOUS
10
0.567734094488189
20
1.744216811023622
11
0.5749015748031496
21
1.7492355118110237
0
LINE
8
BLACK
6
CONTINUOUS
10
0.5749015748031496
20
1.7492355118110237
11
0.5828316535433071
21
1.7529333858267717
0
LINE
8
BLACK
6
CONTINUOUS
10
0.5828316535433071
20
1.7529333858267717
11
0.5912834251968504
21
1.7551980314960629
0
LINE
8
BLACK
6
CONTINUOUS
10
0.5912834251968504
20
1.7551980314960629
11
0.6
21
1.7559606299212598
0
LINE
8
BLACK
6
CONTINUOUS
10
0.6
20
1.7559606299212598
11
0.6087165748031496
21
1.7551980314960629
0
LINE
8
BLACK
6
CONTINUOUS
10
0.5523229527559055
20
1.6973570078740157
11
0.5545070866141733
21
1.6892057086614174
0
LINE
8
BLACK
6
CONTINUOUS
10
0.5545070866141733
20
1.6892057086614174
11
0.5580735039370078
21
1.6815574803149607
0
LINE
8
BLACK
6
CONTINUOUS
10
0.5580735039370078
20
1.6815574803149607
11
0.5629138188976378
21
1.6746448031496062
0
LINE
8
BLACK
6
CONTINUOUS
10
0.5629138188976378
20
1.6746448031496062
11
0.5688810236220472
21
1.6686775984251969
0
LINE
8
BLACK
6
CONTINUOUS
10
0.5688810236220472
20
1.6686775984251969
11
0.5757937007874016
21
1.6638372834645669
0
LINE
8
BLACK
6
CONTINUOUS
10
0.5757937007874016
20
1.6638372834645669
11
0.5834419291338583
21
1.6602708661417322
0
LINE
8
BLACK
6
CONTINUOUS
10
0.5834419291338583
20
1.6602708661417322
11
0.5915932283464567
21
1.6580867322834645
0
LINE
8
BLACK
6
CONTINUOUS
10
0.5915932283464567
20
1.6580867322834645
11
0.6
21
1.657351220472441
0
LINE
8
BLACK
6
CONTINUOUS
10
0.6
20
1.657351220472441
11
0.6084067716535433
21
1.6580867322834645
0
LINE
8
BLACK
6
CONTINUOUS
10
0.6084067716535433
20
1.6580867322834645
11
0.6165580708661417
21
1.6602708661417322
0
LINE
8
BLACK
6
CONTINUOUS
10
0.6165580708661417
20
1.6602708661417322
11
0.6242062992125984
21
1.6638372834645669
0
LINE
8
BLACK
6
CONTINUOUS
10
0.6242062992125984
20
1.6638372834645669
11
0.6311189763779528
21
1.6686775984251969
0
LINE
8
BLACK
6
CONTINUOUS
10
0.6311189763779528
20
1.6686775984251969
11
0.6370861811023621
21
1.6746448031496062
0
LINE
8
BLACK
6
CONTINUOUS
10
0.6370861811023621
20
1.6746448031496062
11
0.6419264960629921
21
1.6815574803149607
0
LINE
8
BLACK
6
CONTINUOUS
10
0.6419264960629921
20
1.6815574803149607
11
0.6454929133858267
21
1.6892057086614174
0
LINE
8
BLACK
6
CONTINUOUS
10
0.6454929133858267
20
1.6892057086614174
11
0.6476770472440945
21
1.6973570078740157
0
LINE
8
BLACK
6
CONTINUOUS
10
0.6476770472440945
20
1.6973570078740157
11
0.6484125590551181
21
1.7057637795275591
0
LINE
8
BLACK
6
CONTINUOUS
10
0.6484125590551181
20
1.7057637795275591
11
0.6476770472440945
21
1.7141705511811023
0
LINE
8
BLACK
6
CONTINUOUS
10
0.6476770472440945
20
1.7141705511811023
11
0.6454929133858267
21
1.7223218503937008
0
LINE
8
BLACK
6
CONTINUOUS
10
0.6454929133858267
20
1.7223218503937008
11
0.6419264960629921
21
1.7299700393700788
0
LINE
8
BLACK
6
CONTINUOUS
10
0.6419264960629921
20
1.7299700393700788
11
0.6370861811023621
21
1.7368827559055118
0
LINE
8
BLACK
6
CONTINUOUS
10
0.6370861811023621
20
1.7368827559055118
11
0.6311189763779528
21
1.7428499606299213
0
LINE
8
BLACK
6
CONTINUOUS
10
0.6311189763779528
20
1.7428499606299213
11
0.6242062992125984
21
1.7476902755905512
0
LINE
8
BLACK
6
CONTINUOUS
10
0.6242062992125984
20
1.7476902755905512
11
0.6165580708661417
21
1.7512566929133857
0
LINE
8
BLACK
6
CONTINUOUS
10
0.6165580708661417
20
1.7512566929133857
11
0.6084067716535433
21
1.7534408267716535
0
LINE
8
BLACK
6
CONTINUOUS
10
0.6084067716535433
20
1.7534408267716535
11
0.6
21
1.7541763385826772
0
LINE
8
BLACK
6
CONTINUOUS
10
0.6
20
1.7541763385826772
11
0.5915932283464567
21
1.7534408267716535
0
LINE
8
BLACK
6
CONTINUOUS
10
0.5915932283464567
20
1.7534408267716535
11
0.5834419291338583
21
1.7512566929133857
0
LINE
8
BLACK
6
CONTINUOUS
10
0.5834419291338583
20
1.7512566929133857
11
0.5757937401574803
21
1.7476902755905512
0
LINE
8
BLACK
6
CONTINUOUS
10
0.5757937401574803
20
1.7476902755905512
11
0.5688810236220472
21
1.7428499606299213
0
LINE
8
BLACK
6
CONTINUOUS
10
0.5688810236220472
20
1.7428499606299213
11
0.5629138188976378
21
1.7368827559055118
0
LINE
8
BLACK
6
CONTINUOUS
10
0.5629138188976378
20
1.7368827559055118
11
0.5580735039370078
21
1.7299700393700788
0
LINE
8
BLACK
6
CONTINUOUS
10
0.5580735039370078
20
1.7299700393700788
11
0.5545070866141733
21
1.7223218503937008
0
LINE
8
BLACK
6
CONTINUOUS
10
0.5545070866141733
20
1.7223218503937008
11
0.5523229527559055
21
1.7141705511811023
0
LINE
8
BLACK
6
CONTINUOUS
10
0.5523229527559055
20
1.7141705511811023
11
0.5515874409448819
21
1.7057637795275591
0
LINE
8
BLACK
6
CONTINUOUS
10
0.5515874409448819
20
1.7057637795275591
11
0.5523229527559055
21
1.6973570078740157
  0
ENDSEC
  0
EOF
