  0
SECTION
  2
HEADER
  9
$ANGBASE
  50
0.0
  9
$ANGDIR
  70
1
  9
$MEASUREMENT
  70
0
  0
ENDSEC
  0
SECTION
  2
TABLES
  0
TABLE
  2
LTYPE
  70
4
  0
LTYPE
  5
40F
  2
CONTINUOUS
  70
0
  3
Solid line
  72
65
  73
0
  40
0.0
  0
LTYPE
  5
410
  2
DASHDOT
 70
0
  3
Dash Dot ____ _ ____ _
 72
65
 73
4
 40
2.0
 49
1.25
 49
-0.25
 49
0.25
 49
-0.25
  0
LTYPE
  5
411
  2
DASHED
 70
0
  3
Dashed __ __ __ __ __
 72
65
 73
2
 40
0.75
 49
0.5
 49
-0.25
  0
LTYPE
  5
43B
  2
DOTTED
 70
0
  3
Dotted .  .  .  .
 72
65
 73
2
 40
0.2
 49
0.0
 49
-0.2
  0
ENDTAB
  0
TABLE
  2
STYLE
  70
4
  0
STYLE
  2
KICAD
  70
0
  40
0
  41
1
  42
1
  50
0
  71
0
  3
isocp.shx
  0
STYLE
  2
KICADB
  70
0
  40
0
  41
1
  42
1
  50
0
  71
0
  3
isocp.shx
  0
STYLE
  2
KICADI
  70
0
  40
0
  41
1
  42
1
  50
15
  71
0
  3
isocp.shx
  0
STYLE
  2
KICADBI
  70
0
  40
0
  41
1
  42
1
  50
15
  71
0
  3
isocp.shx
  0
ENDTAB
  0
TABLE
  2
LAYER
  70
1
  0
LAYER
  2
BLACK
  70
0
  62
7
  6
CONTINUOUS
  0
ENDTAB
  0
ENDSEC
  0
SECTION
  2
ENTITIES
0
LINE
8
BLACK
6
CONTINUOUS
10
1.20865
20
0.117793
11
1.22213
21
0.116018
0
LINE
8
BLACK
6
CONTINUOUS
10
1.22213
20
0.116018
11
1.23532
21
0.112706
0
LINE
8
BLACK
6
CONTINUOUS
10
1.23532
20
0.112706
11
1.24804
21
0.107899
0
LINE
8
BLACK
6
CONTINUOUS
10
1.24804
20
0.107899
11
1.26012
21
0.101662
0
LINE
8
BLACK
6
CONTINUOUS
10
1.26012
20
0.101662
11
1.27141
21
0.0940783
0
LINE
8
BLACK
6
CONTINUOUS
10
1.27141
20
0.0940783
11
1.28175
21
0.0852473
0
LINE
8
BLACK
6
CONTINUOUS
10
1.28175
20
0.0852473
11
1.29101
21
0.0752863
0
LINE
8
BLACK
6
CONTINUOUS
10
1.29101
20
0.0752863
11
1.29906
21
0.0643274
0
LINE
8
BLACK
6
CONTINUOUS
10
1.29906
20
0.0643274
11
1.30579
21
0.052516
0
LINE
8
BLACK
6
CONTINUOUS
10
1.30579
20
0.052516
11
1.31113
21
0.0400084
0
LINE
8
BLACK
6
CONTINUOUS
10
1.31113
20
0.0400084
11
1.31499
21
0.0269706
0
LINE
8
BLACK
6
CONTINUOUS
10
1.31499
20
0.0269706
11
1.31733
21
0.0135752
0
LINE
8
BLACK
6
CONTINUOUS
10
1.31733
20
0.0135752
11
1.31811
21
0
0
LINE
8
BLACK
6
CONTINUOUS
10
1.31811
20
0
11
1.31788
21
-0.00741622
0
LINE
8
BLACK
6
CONTINUOUS
10
1.31788
20
-0.00741622
11
1.31624
21
-0.0209155
0
LINE
8
BLACK
6
CONTINUOUS
10
1.31624
20
-0.0209155
11
1.31307
21
-0.0341376
0
LINE
8
BLACK
6
CONTINUOUS
10
1.31307
20
-0.0341376
11
1.3084
21
-0.0469072
0
LINE
8
BLACK
6
CONTINUOUS
10
1.3084
20
-0.0469072
11
1.30229
21
-0.0590551
0
LINE
8
BLACK
6
CONTINUOUS
10
1.30229
20
-0.0590551
11
1.29482
21
-0.0704203
0
LINE
8
BLACK
6
CONTINUOUS
10
1.29482
20
-0.0704203
11
1.2861
21
-0.080852
0
LINE
8
BLACK
6
CONTINUOUS
10
1.2861
20
-0.080852
11
1.27624
21
-0.0902121
0
LINE
8
BLACK
6
CONTINUOUS
10
1.27624
20
-0.0902121
11
1.26536
21
-0.0983765
0
LINE
8
BLACK
6
CONTINUOUS
10
1.26536
20
-0.0983765
11
1.25362
21
-0.105237
0
LINE
8
BLACK
6
CONTINUOUS
10
1.25362
20
-0.105237
11
1.24117
21
-0.110703
0
LINE
8
BLACK
6
CONTINUOUS
10
1.24117
20
-0.110703
11
1.22817
21
-0.114701
0
LINE
8
BLACK
6
CONTINUOUS
10
1.22817
20
-0.114701
11
1.2148
21
-0.117179
0
LINE
8
BLACK
6
CONTINUOUS
10
1.2148
20
-0.117179
11
1.20124
21
-0.118104
0
LINE
8
BLACK
6
CONTINUOUS
10
1.20124
20
-0.118104
11
1.18765
21
-0.117463
0
LINE
8
BLACK
6
CONTINUOUS
10
1.18765
20
-0.117463
11
1.17424
21
-0.115266
0
LINE
8
BLACK
6
CONTINUOUS
10
1.17424
20
-0.115266
11
1.16116
21
-0.111541
0
LINE
8
BLACK
6
CONTINUOUS
10
1.16116
20
-0.111541
11
1.14859
21
-0.106337
0
LINE
8
BLACK
6
CONTINUOUS
10
1.14859
20
-0.106337
11
1.13671
21
-0.0997238
0
LINE
8
BLACK
6
CONTINUOUS
10
1.13671
20
-0.0997238
11
1.12567
21
-0.0917889
0
LINE
8
BLACK
6
CONTINUOUS
10
1.12567
20
-0.0917889
11
1.11561
21
-0.0826374
0
LINE
8
BLACK
6
CONTINUOUS
10
1.11561
20
-0.0826374
11
1.10667
21
-0.0723906
0
LINE
8
BLACK
6
CONTINUOUS
10
1.10667
20
-0.0723906
11
1.09897
21
-0.0611843
0
LINE
8
BLACK
6
CONTINUOUS
10
1.09897
20
-0.0611843
11
1.09261
21
-0.049167
0
LINE
8
BLACK
6
CONTINUOUS
10
1.09261
20
-0.049167
11
1.08767
21
-0.0364981
0
LINE
8
BLACK
6
CONTINUOUS
10
1.08767
20
-0.0364981
11
1.08422
21
-0.0233454
0
LINE
8
BLACK
6
CONTINUOUS
10
1.08422
20
-0.0233454
11
1.0823
21
-0.00988323
0
LINE
8
BLACK
6
CONTINUOUS
10
1.0823
20
-0.00988323
11
1.08195
21
0.00370992
0
LINE
8
BLACK
6
CONTINUOUS
10
1.08195
20
0.00370992
11
1.08316
21
0.0172539
0
LINE
8
BLACK
6
CONTINUOUS
10
1.08316
20
0.0172539
11
1.08591
21
0.0305692
0
LINE
8
BLACK
6
CONTINUOUS
10
1.08591
20
0.0305692
11
1.09018
21
0.0434793
0
LINE
8
BLACK
6
CONTINUOUS
10
1.09018
20
0.0434793
11
1.09591
21
0.0558131
0
LINE
8
BLACK
6
CONTINUOUS
10
1.09591
20
0.0558131
11
1.10301
21
0.0674071
0
LINE
8
BLACK
6
CONTINUOUS
10
1.10301
20
0.0674071
11
1.1114
21
0.0781077
0
LINE
8
BLACK
6
CONTINUOUS
10
1.1114
20
0.0781077
11
1.12097
21
0.087773
0
LINE
8
BLACK
6
CONTINUOUS
10
1.12097
20
0.087773
11
1.13158
21
0.0962749
0
LINE
8
BLACK
6
CONTINUOUS
10
1.13158
20
0.0962749
11
1.1431
21
0.103501
0
LINE
8
BLACK
6
CONTINUOUS
10
1.1431
20
0.103501
11
1.15537
21
0.109355
0
LINE
8
BLACK
6
CONTINUOUS
10
1.15537
20
0.109355
11
1.16824
21
0.113759
0
LINE
8
BLACK
6
CONTINUOUS
10
1.16824
20
0.113759
11
1.18152
21
0.116656
0
LINE
8
BLACK
6
CONTINUOUS
10
1.18152
20
0.116656
11
1.19505
21
0.118007
0
LINE
8
BLACK
6
CONTINUOUS
10
1.19505
20
0.118007
11
1.20865
21
0.117793
0
LINE
8
BLACK
6
CONTINUOUS
10
0.0086502
20
0.117793
11
0.0221317
21
0.116018
0
LINE
8
BLACK
6
CONTINUOUS
10
0.0221317
20
0.116018
11
0.0353198
21
0.112706
0
LINE
8
BLACK
6
CONTINUOUS
10
0.0353198
20
0.112706
11
0.0480398
21
0.107899
0
LINE
8
BLACK
6
CONTINUOUS
10
0.0480398
20
0.107899
11
0.060123
21
0.101662
0
LINE
8
BLACK
6
CONTINUOUS
10
0.060123
20
0.101662
11
0.0714093
21
0.0940783
0
LINE
8
BLACK
6
CONTINUOUS
10
0.0714093
20
0.0940783
11
0.0817492
21
0.0852473
0
LINE
8
BLACK
6
CONTINUOUS
10
0.0817492
20
0.0852473
11
0.0910055
21
0.0752863
0
LINE
8
BLACK
6
CONTINUOUS
10
0.0910055
20
0.0752863
11
0.0990556
21
0.0643274
0
LINE
8
BLACK
6
CONTINUOUS
10
0.0990556
20
0.0643274
11
0.105793
21
0.052516
0
LINE
8
BLACK
6
CONTINUOUS
10
0.105793
20
0.052516
11
0.111128
21
0.0400084
0
LINE
8
BLACK
6
CONTINUOUS
10
0.111128
20
0.0400084
11
0.11499
21
0.0269706
0
LINE
8
BLACK
6
CONTINUOUS
10
0.11499
20
0.0269706
11
0.117327
21
0.0135752
0
LINE
8
BLACK
6
CONTINUOUS
10
0.117327
20
0.0135752
11
0.11811
21
0
0
LINE
8
BLACK
6
CONTINUOUS
10
0.11811
20
0
11
0.117877
21
-0.00741622
0
LINE
8
BLACK
6
CONTINUOUS
10
0.117877
20
-0.00741622
11
0.116244
21
-0.0209155
0
LINE
8
BLACK
6
CONTINUOUS
10
0.116244
20
-0.0209155
11
0.113069
21
-0.0341376
0
LINE
8
BLACK
6
CONTINUOUS
10
0.113069
20
-0.0341376
11
0.108396
21
-0.0469072
0
LINE
8
BLACK
6
CONTINUOUS
10
0.108396
20
-0.0469072
11
0.102286
21
-0.0590551
0
LINE
8
BLACK
6
CONTINUOUS
10
0.102286
20
-0.0590551
11
0.0948209
21
-0.0704203
0
LINE
8
BLACK
6
CONTINUOUS
10
0.0948209
20
-0.0704203
11
0.0860987
21
-0.080852
0
LINE
8
BLACK
6
CONTINUOUS
10
0.0860987
20
-0.080852
11
0.0762352
21
-0.0902121
0
LINE
8
BLACK
6
CONTINUOUS
10
0.0762352
20
-0.0902121
11
0.0653612
21
-0.0983765
0
LINE
8
BLACK
6
CONTINUOUS
10
0.0653612
20
-0.0983765
11
0.0536209
21
-0.105237
0
LINE
8
BLACK
6
CONTINUOUS
10
0.0536209
20
-0.105237
11
0.0411699
21
-0.110703
0
LINE
8
BLACK
6
CONTINUOUS
10
0.0411699
20
-0.110703
11
0.0281732
21
-0.114701
0
LINE
8
BLACK
6
CONTINUOUS
10
0.0281732
20
-0.114701
11
0.0148031
21
-0.117179
0
LINE
8
BLACK
6
CONTINUOUS
10
0.0148031
20
-0.117179
11
0.00123681
21
-0.118104
0
LINE
8
BLACK
6
CONTINUOUS
10
0.00123681
20
-0.118104
11
-0.0123459
21
-0.117463
0
LINE
8
BLACK
6
CONTINUOUS
10
-0.0123459
20
-0.117463
11
-0.025765
21
-0.115266
0
LINE
8
BLACK
6
CONTINUOUS
10
-0.025765
20
-0.115266
11
-0.0388425
21
-0.111541
0
LINE
8
BLACK
6
CONTINUOUS
10
-0.0388425
20
-0.111541
11
-0.0514052
21
-0.106337
0
LINE
8
BLACK
6
CONTINUOUS
10
-0.0514052
20
-0.106337
11
-0.0632866
21
-0.0997238
0
LINE
8
BLACK
6
CONTINUOUS
10
-0.0632866
20
-0.0997238
11
-0.0743292
21
-0.0917889
0
LINE
8
BLACK
6
CONTINUOUS
10
-0.0743292
20
-0.0917889
11
-0.0843865
21
-0.0826374
0
LINE
8
BLACK
6
CONTINUOUS
10
-0.0843865
20
-0.0826374
11
-0.0933254
21
-0.0723906
0
LINE
8
BLACK
6
CONTINUOUS
10
-0.0933254
20
-0.0723906
11
-0.101027
21
-0.0611843
0
LINE
8
BLACK
6
CONTINUOUS
10
-0.101027
20
-0.0611843
11
-0.10739
21
-0.049167
0
LINE
8
BLACK
6
CONTINUOUS
10
-0.10739
20
-0.049167
11
-0.11233
21
-0.0364981
0
LINE
8
BLACK
6
CONTINUOUS
10
-0.11233
20
-0.0364981
11
-0.11578
21
-0.0233454
0
LINE
8
BLACK
6
CONTINUOUS
10
-0.11578
20
-0.0233454
11
-0.117696
21
-0.00988323
0
LINE
8
BLACK
6
CONTINUOUS
10
-0.117696
20
-0.00988323
11
-0.118052
21
0.00370992
0
LINE
8
BLACK
6
CONTINUOUS
10
-0.118052
20
0.00370992
11
-0.116843
21
0.0172539
0
LINE
8
BLACK
6
CONTINUOUS
10
-0.116843
20
0.0172539
11
-0.114086
21
0.0305692
0
LINE
8
BLACK
6
CONTINUOUS
10
-0.114086
20
0.0305692
11
-0.109816
21
0.0434793
0
LINE
8
BLACK
6
CONTINUOUS
10
-0.109816
20
0.0434793
11
-0.104091
21
0.0558131
0
LINE
8
BLACK
6
CONTINUOUS
10
-0.104091
20
0.0558131
11
-0.0969861
21
0.0674071
0
LINE
8
BLACK
6
CONTINUOUS
10
-0.0969861
20
0.0674071
11
-0.0885958
21
0.0781077
0
LINE
8
BLACK
6
CONTINUOUS
10
-0.0885958
20
0.0781077
11
-0.0790312
21
0.087773
0
LINE
8
BLACK
6
CONTINUOUS
10
-0.0790312
20
0.087773
11
-0.0684191
21
0.0962749
0
LINE
8
BLACK
6
CONTINUOUS
10
-0.0684191
20
0.0962749
11
-0.0569
21
0.103501
0
LINE
8
BLACK
6
CONTINUOUS
10
-0.0569
20
0.103501
11
-0.0446269
21
0.109355
0
LINE
8
BLACK
6
CONTINUOUS
10
-0.0446269
20
0.109355
11
-0.0317622
21
0.113759
0
LINE
8
BLACK
6
CONTINUOUS
10
-0.0317622
20
0.113759
11
-0.0184765
21
0.116656
0
LINE
8
BLACK
6
CONTINUOUS
10
-0.0184765
20
0.116656
11
-0.00494594
21
0.118007
0
LINE
8
BLACK
6
CONTINUOUS
10
-0.00494594
20
0.118007
11
0.0086502
21
0.117793
0
LINE
8
BLACK
6
CONTINUOUS
10
0.37
20
0.48
11
0.31
21
0.48
0
LINE
8
BLACK
6
CONTINUOUS
10
0.31
20
0.48
11
0.31
21
0.54
0
LINE
8
BLACK
6
CONTINUOUS
10
0.31
20
0.54
11
0.37
21
0.54
0
LINE
8
BLACK
6
CONTINUOUS
10
0.37
20
0.54
11
0.37
21
0.48
0
LINE
8
BLACK
6
CONTINUOUS
10
0.27
20
0.48
11
0.21
21
0.48
0
LINE
8
BLACK
6
CONTINUOUS
10
0.21
20
0.48
11
0.21
21
0.54
0
LINE
8
BLACK
6
CONTINUOUS
10
0.21
20
0.54
11
0.27
21
0.54
0
LINE
8
BLACK
6
CONTINUOUS
10
0.27
20
0.54
11
0.27
21
0.48
0
LINE
8
BLACK
6
CONTINUOUS
10
0.37
20
0.58
11
0.31
21
0.58
0
LINE
8
BLACK
6
CONTINUOUS
10
0.31
20
0.58
11
0.31
21
0.64
0
LINE
8
BLACK
6
CONTINUOUS
10
0.31
20
0.64
11
0.37
21
0.64
0
LINE
8
BLACK
6
CONTINUOUS
10
0.37
20
0.64
11
0.37
21
0.58
0
LINE
8
BLACK
6
CONTINUOUS
10
0.27
20
0.58
11
0.21
21
0.58
0
LINE
8
BLACK
6
CONTINUOUS
10
0.21
20
0.58
11
0.21
21
0.64
0
LINE
8
BLACK
6
CONTINUOUS
10
0.21
20
0.64
11
0.27
21
0.64
0
LINE
8
BLACK
6
CONTINUOUS
10
0.27
20
0.64
11
0.27
21
0.58
0
LINE
8
BLACK
6
CONTINUOUS
10
0.671089
20
0.766574
11
0.674283
21
0.76444
0
LINE
8
BLACK
6
CONTINUOUS
10
0.674283
20
0.76444
11
0.676416
21
0.761247
0
LINE
8
BLACK
6
CONTINUOUS
10
0.676416
20
0.761247
11
0.677165
21
0.75748
0
LINE
8
BLACK
6
CONTINUOUS
10
0.677165
20
0.75748
11
0.677165
21
0.670866
0
LINE
8
BLACK
6
CONTINUOUS
10
0.677165
20
0.670866
11
0.676416
21
0.6671
0
LINE
8
BLACK
6
CONTINUOUS
10
0.676416
20
0.6671
11
0.674283
21
0.663906
0
LINE
8
BLACK
6
CONTINUOUS
10
0.674283
20
0.663906
11
0.671089
21
0.661773
0
LINE
8
BLACK
6
CONTINUOUS
10
0.671089
20
0.661773
11
0.667323
21
0.661024
0
LINE
8
BLACK
6
CONTINUOUS
10
0.667323
20
0.661024
11
0.647638
21
0.661024
0
LINE
8
BLACK
6
CONTINUOUS
10
0.647638
20
0.661024
11
0.643871
21
0.661773
0
LINE
8
BLACK
6
CONTINUOUS
10
0.643871
20
0.661773
11
0.640678
21
0.663906
0
LINE
8
BLACK
6
CONTINUOUS
10
0.640678
20
0.663906
11
0.638544
21
0.6671
0
LINE
8
BLACK
6
CONTINUOUS
10
0.638544
20
0.6671
11
0.637795
21
0.670866
0
LINE
8
BLACK
6
CONTINUOUS
10
0.637795
20
0.670866
11
0.637795
21
0.75748
0
LINE
8
BLACK
6
CONTINUOUS
10
0.637795
20
0.75748
11
0.638544
21
0.761247
0
LINE
8
BLACK
6
CONTINUOUS
10
0.638544
20
0.761247
11
0.640678
21
0.76444
0
LINE
8
BLACK
6
CONTINUOUS
10
0.640678
20
0.76444
11
0.643871
21
0.766574
0
LINE
8
BLACK
6
CONTINUOUS
10
0.643871
20
0.766574
11
0.647638
21
0.767323
0
LINE
8
BLACK
6
CONTINUOUS
10
0.647638
20
0.767323
11
0.667323
21
0.767323
0
LINE
8
BLACK
6
CONTINUOUS
10
0.667323
20
0.767323
11
0.671089
21
0.766574
0
LINE
8
BLACK
6
CONTINUOUS
10
0.964396
20
0.766574
11
0.96759
21
0.76444
0
LINE
8
BLACK
6
CONTINUOUS
10
0.96759
20
0.76444
11
0.969723
21
0.761247
0
LINE
8
BLACK
6
CONTINUOUS
10
0.969723
20
0.761247
11
0.970472
21
0.75748
0
LINE
8
BLACK
6
CONTINUOUS
10
0.970472
20
0.75748
11
0.970472
21
0.670866
0
LINE
8
BLACK
6
CONTINUOUS
10
0.970472
20
0.670866
11
0.969723
21
0.6671
0
LINE
8
BLACK
6
CONTINUOUS
10
0.969723
20
0.6671
11
0.96759
21
0.663906
0
LINE
8
BLACK
6
CONTINUOUS
10
0.96759
20
0.663906
11
0.964396
21
0.661773
0
LINE
8
BLACK
6
CONTINUOUS
10
0.964396
20
0.661773
11
0.96063
21
0.661024
0
LINE
8
BLACK
6
CONTINUOUS
10
0.96063
20
0.661024
11
0.940945
21
0.661024
0
LINE
8
BLACK
6
CONTINUOUS
10
0.940945
20
0.661024
11
0.937178
21
0.661773
0
LINE
8
BLACK
6
CONTINUOUS
10
0.937178
20
0.661773
11
0.933985
21
0.663906
0
LINE
8
BLACK
6
CONTINUOUS
10
0.933985
20
0.663906
11
0.931852
21
0.6671
0
LINE
8
BLACK
6
CONTINUOUS
10
0.931852
20
0.6671
11
0.931102
21
0.670866
0
LINE
8
BLACK
6
CONTINUOUS
10
0.931102
20
0.670866
11
0.931102
21
0.75748
0
LINE
8
BLACK
6
CONTINUOUS
10
0.931102
20
0.75748
11
0.931852
21
0.761247
0
LINE
8
BLACK
6
CONTINUOUS
10
0.931852
20
0.761247
11
0.933985
21
0.76444
0
LINE
8
BLACK
6
CONTINUOUS
10
0.933985
20
0.76444
11
0.937178
21
0.766574
0
LINE
8
BLACK
6
CONTINUOUS
10
0.937178
20
0.766574
11
0.940945
21
0.767323
0
LINE
8
BLACK
6
CONTINUOUS
10
0.940945
20
0.767323
11
0.96063
21
0.767323
0
LINE
8
BLACK
6
CONTINUOUS
10
0.96063
20
0.767323
11
0.964396
21
0.766574
0
LINE
8
BLACK
6
CONTINUOUS
10
0.37
20
0.68
11
0.31
21
0.68
0
LINE
8
BLACK
6
CONTINUOUS
10
0.31
20
0.68
11
0.31
21
0.74
0
LINE
8
BLACK
6
CONTINUOUS
10
0.31
20
0.74
11
0.37
21
0.74
0
LINE
8
BLACK
6
CONTINUOUS
10
0.37
20
0.74
11
0.37
21
0.68
0
LINE
8
BLACK
6
CONTINUOUS
10
0.27
20
0.68
11
0.21
21
0.68
0
LINE
8
BLACK
6
CONTINUOUS
10
0.21
20
0.68
11
0.21
21
0.74
0
LINE
8
BLACK
6
CONTINUOUS
10
0.21
20
0.74
11
0.27
21
0.74
0
LINE
8
BLACK
6
CONTINUOUS
10
0.27
20
0.74
11
0.27
21
0.68
0
LINE
8
BLACK
6
CONTINUOUS
10
0.37
20
0.78
11
0.31
21
0.78
0
LINE
8
BLACK
6
CONTINUOUS
10
0.31
20
0.78
11
0.31
21
0.84
0
LINE
8
BLACK
6
CONTINUOUS
10
0.31
20
0.84
11
0.37
21
0.84
0
LINE
8
BLACK
6
CONTINUOUS
10
0.37
20
0.84
11
0.37
21
0.78
0
LINE
8
BLACK
6
CONTINUOUS
10
0.27
20
0.78
11
0.21
21
0.78
0
LINE
8
BLACK
6
CONTINUOUS
10
0.21
20
0.78
11
0.21
21
0.84
0
LINE
8
BLACK
6
CONTINUOUS
10
0.21
20
0.84
11
0.27
21
0.84
0
LINE
8
BLACK
6
CONTINUOUS
10
0.27
20
0.84
11
0.27
21
0.78
0
LINE
8
BLACK
6
CONTINUOUS
10
0.787693
20
0.873173
11
0.789609
21
0.871892
0
LINE
8
BLACK
6
CONTINUOUS
10
0.789609
20
0.871892
11
0.790889
21
0.869976
0
LINE
8
BLACK
6
CONTINUOUS
10
0.790889
20
0.869976
11
0.791339
21
0.867717
0
LINE
8
BLACK
6
CONTINUOUS
10
0.791339
20
0.867717
11
0.791339
21
0.812598
0
LINE
8
BLACK
6
CONTINUOUS
10
0.791339
20
0.812598
11
0.790889
21
0.810338
0
LINE
8
BLACK
6
CONTINUOUS
10
0.790889
20
0.810338
11
0.789609
21
0.808423
0
LINE
8
BLACK
6
CONTINUOUS
10
0.789609
20
0.808423
11
0.787693
21
0.807142
0
LINE
8
BLACK
6
CONTINUOUS
10
0.787693
20
0.807142
11
0.785433
21
0.806693
0
LINE
8
BLACK
6
CONTINUOUS
10
0.785433
20
0.806693
11
0.773622
21
0.806693
0
LINE
8
BLACK
6
CONTINUOUS
10
0.773622
20
0.806693
11
0.771362
21
0.807142
0
LINE
8
BLACK
6
CONTINUOUS
10
0.771362
20
0.807142
11
0.769446
21
0.808423
0
LINE
8
BLACK
6
CONTINUOUS
10
0.769446
20
0.808423
11
0.768166
21
0.810338
0
LINE
8
BLACK
6
CONTINUOUS
10
0.768166
20
0.810338
11
0.767717
21
0.812598
0
LINE
8
BLACK
6
CONTINUOUS
10
0.767717
20
0.812598
11
0.767717
21
0.867717
0
LINE
8
BLACK
6
CONTINUOUS
10
0.767717
20
0.867717
11
0.768166
21
0.869976
0
LINE
8
BLACK
6
CONTINUOUS
10
0.768166
20
0.869976
11
0.769446
21
0.871892
0
LINE
8
BLACK
6
CONTINUOUS
10
0.769446
20
0.871892
11
0.771362
21
0.873173
0
LINE
8
BLACK
6
CONTINUOUS
10
0.771362
20
0.873173
11
0.773622
21
0.873622
0
LINE
8
BLACK
6
CONTINUOUS
10
0.773622
20
0.873622
11
0.785433
21
0.873622
0
LINE
8
BLACK
6
CONTINUOUS
10
0.785433
20
0.873622
11
0.787693
21
0.873173
0
LINE
8
BLACK
6
CONTINUOUS
10
0.886118
20
0.873173
11
0.888034
21
0.871892
0
LINE
8
BLACK
6
CONTINUOUS
10
0.888034
20
0.871892
11
0.889314
21
0.869976
0
LINE
8
BLACK
6
CONTINUOUS
10
0.889314
20
0.869976
11
0.889764
21
0.867717
0
LINE
8
BLACK
6
CONTINUOUS
10
0.889764
20
0.867717
11
0.889764
21
0.812598
0
LINE
8
BLACK
6
CONTINUOUS
10
0.889764
20
0.812598
11
0.889314
21
0.810338
0
LINE
8
BLACK
6
CONTINUOUS
10
0.889314
20
0.810338
11
0.888034
21
0.808423
0
LINE
8
BLACK
6
CONTINUOUS
10
0.888034
20
0.808423
11
0.886118
21
0.807142
0
LINE
8
BLACK
6
CONTINUOUS
10
0.886118
20
0.807142
11
0.883858
21
0.806693
0
LINE
8
BLACK
6
CONTINUOUS
10
0.883858
20
0.806693
11
0.872047
21
0.806693
0
LINE
8
BLACK
6
CONTINUOUS
10
0.872047
20
0.806693
11
0.869787
21
0.807142
0
LINE
8
BLACK
6
CONTINUOUS
10
0.869787
20
0.807142
11
0.867871
21
0.808423
0
LINE
8
BLACK
6
CONTINUOUS
10
0.867871
20
0.808423
11
0.866591
21
0.810338
0
LINE
8
BLACK
6
CONTINUOUS
10
0.866591
20
0.810338
11
0.866142
21
0.812598
0
LINE
8
BLACK
6
CONTINUOUS
10
0.866142
20
0.812598
11
0.866142
21
0.867717
0
LINE
8
BLACK
6
CONTINUOUS
10
0.866142
20
0.867717
11
0.866591
21
0.869976
0
LINE
8
BLACK
6
CONTINUOUS
10
0.866591
20
0.869976
11
0.867871
21
0.871892
0
LINE
8
BLACK
6
CONTINUOUS
10
0.867871
20
0.871892
11
0.869787
21
0.873173
0
LINE
8
BLACK
6
CONTINUOUS
10
0.869787
20
0.873173
11
0.872047
21
0.873622
0
LINE
8
BLACK
6
CONTINUOUS
10
0.872047
20
0.873622
11
0.883858
21
0.873622
0
LINE
8
BLACK
6
CONTINUOUS
10
0.883858
20
0.873622
11
0.886118
21
0.873173
0
LINE
8
BLACK
6
CONTINUOUS
10
0.836906
20
0.873173
11
0.838821
21
0.871892
0
LINE
8
BLACK
6
CONTINUOUS
10
0.838821
20
0.871892
11
0.840102
21
0.869976
0
LINE
8
BLACK
6
CONTINUOUS
10
0.840102
20
0.869976
11
0.840551
21
0.867717
0
LINE
8
BLACK
6
CONTINUOUS
10
0.840551
20
0.867717
11
0.840551
21
0.812598
0
LINE
8
BLACK
6
CONTINUOUS
10
0.840551
20
0.812598
11
0.840102
21
0.810338
0
LINE
8
BLACK
6
CONTINUOUS
10
0.840102
20
0.810338
11
0.838821
21
0.808423
0
LINE
8
BLACK
6
CONTINUOUS
10
0.838821
20
0.808423
11
0.836906
21
0.807142
0
LINE
8
BLACK
6
CONTINUOUS
10
0.836906
20
0.807142
11
0.834646
21
0.806693
0
LINE
8
BLACK
6
CONTINUOUS
10
0.834646
20
0.806693
11
0.822835
21
0.806693
0
LINE
8
BLACK
6
CONTINUOUS
10
0.822835
20
0.806693
11
0.820575
21
0.807142
0
LINE
8
BLACK
6
CONTINUOUS
10
0.820575
20
0.807142
11
0.818659
21
0.808423
0
LINE
8
BLACK
6
CONTINUOUS
10
0.818659
20
0.808423
11
0.817379
21
0.810338
0
LINE
8
BLACK
6
CONTINUOUS
10
0.817379
20
0.810338
11
0.816929
21
0.812598
0
LINE
8
BLACK
6
CONTINUOUS
10
0.816929
20
0.812598
11
0.816929
21
0.867717
0
LINE
8
BLACK
6
CONTINUOUS
10
0.816929
20
0.867717
11
0.817379
21
0.869976
0
LINE
8
BLACK
6
CONTINUOUS
10
0.817379
20
0.869976
11
0.818659
21
0.871892
0
LINE
8
BLACK
6
CONTINUOUS
10
0.818659
20
0.871892
11
0.820575
21
0.873173
0
LINE
8
BLACK
6
CONTINUOUS
10
0.820575
20
0.873173
11
0.822835
21
0.873622
0
LINE
8
BLACK
6
CONTINUOUS
10
0.822835
20
0.873622
11
0.834646
21
0.873622
0
LINE
8
BLACK
6
CONTINUOUS
10
0.834646
20
0.873622
11
0.836906
21
0.873173
0
LINE
8
BLACK
6
CONTINUOUS
10
0.73848
20
0.873173
11
0.740396
21
0.871892
0
LINE
8
BLACK
6
CONTINUOUS
10
0.740396
20
0.871892
11
0.741676
21
0.869976
0
LINE
8
BLACK
6
CONTINUOUS
10
0.741676
20
0.869976
11
0.742126
21
0.867717
0
LINE
8
BLACK
6
CONTINUOUS
10
0.742126
20
0.867717
11
0.742126
21
0.812598
0
LINE
8
BLACK
6
CONTINUOUS
10
0.742126
20
0.812598
11
0.741676
21
0.810338
0
LINE
8
BLACK
6
CONTINUOUS
10
0.741676
20
0.810338
11
0.740396
21
0.808423
0
LINE
8
BLACK
6
CONTINUOUS
10
0.740396
20
0.808423
11
0.73848
21
0.807142
0
LINE
8
BLACK
6
CONTINUOUS
10
0.73848
20
0.807142
11
0.73622
21
0.806693
0
LINE
8
BLACK
6
CONTINUOUS
10
0.73622
20
0.806693
11
0.724409
21
0.806693
0
LINE
8
BLACK
6
CONTINUOUS
10
0.724409
20
0.806693
11
0.722149
21
0.807142
0
LINE
8
BLACK
6
CONTINUOUS
10
0.722149
20
0.807142
11
0.720234
21
0.808423
0
LINE
8
BLACK
6
CONTINUOUS
10
0.720234
20
0.808423
11
0.718953
21
0.810338
0
LINE
8
BLACK
6
CONTINUOUS
10
0.718953
20
0.810338
11
0.718504
21
0.812598
0
LINE
8
BLACK
6
CONTINUOUS
10
0.718504
20
0.812598
11
0.718504
21
0.867717
0
LINE
8
BLACK
6
CONTINUOUS
10
0.718504
20
0.867717
11
0.718953
21
0.869976
0
LINE
8
BLACK
6
CONTINUOUS
10
0.718953
20
0.869976
11
0.720234
21
0.871892
0
LINE
8
BLACK
6
CONTINUOUS
10
0.720234
20
0.871892
11
0.722149
21
0.873173
0
LINE
8
BLACK
6
CONTINUOUS
10
0.722149
20
0.873173
11
0.724409
21
0.873622
0
LINE
8
BLACK
6
CONTINUOUS
10
0.724409
20
0.873622
11
0.73622
21
0.873622
0
LINE
8
BLACK
6
CONTINUOUS
10
0.73622
20
0.873622
11
0.73848
21
0.873173
0
LINE
8
BLACK
6
CONTINUOUS
10
0.37
20
0.88
11
0.31
21
0.88
0
LINE
8
BLACK
6
CONTINUOUS
10
0.31
20
0.88
11
0.31
21
0.94
0
LINE
8
BLACK
6
CONTINUOUS
10
0.31
20
0.94
11
0.37
21
0.94
0
LINE
8
BLACK
6
CONTINUOUS
10
0.37
20
0.94
11
0.37
21
0.88
0
LINE
8
BLACK
6
CONTINUOUS
10
0.27
20
0.88
11
0.21
21
0.88
0
LINE
8
BLACK
6
CONTINUOUS
10
0.21
20
0.88
11
0.21
21
0.94
0
LINE
8
BLACK
6
CONTINUOUS
10
0.21
20
0.94
11
0.27
21
0.94
0
LINE
8
BLACK
6
CONTINUOUS
10
0.27
20
0.94
11
0.27
21
0.88
0
LINE
8
BLACK
6
CONTINUOUS
10
0.960263
20
1.12524
11
0.963456
21
1.1231
0
LINE
8
BLACK
6
CONTINUOUS
10
0.963456
20
1.1231
11
0.965589
21
1.11991
0
LINE
8
BLACK
6
CONTINUOUS
10
0.965589
20
1.11991
11
0.966339
21
1.11614
0
LINE
8
BLACK
6
CONTINUOUS
10
0.966339
20
1.11614
11
0.966339
21
1.02953
0
LINE
8
BLACK
6
CONTINUOUS
10
0.966339
20
1.02953
11
0.965589
21
1.02576
0
LINE
8
BLACK
6
CONTINUOUS
10
0.965589
20
1.02576
11
0.963456
21
1.02257
0
LINE
8
BLACK
6
CONTINUOUS
10
0.963456
20
1.02257
11
0.960263
21
1.02043
0
LINE
8
BLACK
6
CONTINUOUS
10
0.960263
20
1.02043
11
0.956496
21
1.01969
0
LINE
8
BLACK
6
CONTINUOUS
10
0.956496
20
1.01969
11
0.936811
21
1.01969
0
LINE
8
BLACK
6
CONTINUOUS
10
0.936811
20
1.01969
11
0.933044
21
1.02043
0
LINE
8
BLACK
6
CONTINUOUS
10
0.933044
20
1.02043
11
0.929851
21
1.02257
0
LINE
8
BLACK
6
CONTINUOUS
10
0.929851
20
1.02257
11
0.927718
21
1.02576
0
LINE
8
BLACK
6
CONTINUOUS
10
0.927718
20
1.02576
11
0.926969
21
1.02953
0
LINE
8
BLACK
6
CONTINUOUS
10
0.926969
20
1.02953
11
0.926969
21
1.11614
0
LINE
8
BLACK
6
CONTINUOUS
10
0.926969
20
1.11614
11
0.927718
21
1.11991
0
LINE
8
BLACK
6
CONTINUOUS
10
0.927718
20
1.11991
11
0.929851
21
1.1231
0
LINE
8
BLACK
6
CONTINUOUS
10
0.929851
20
1.1231
11
0.933044
21
1.12524
0
LINE
8
BLACK
6
CONTINUOUS
10
0.933044
20
1.12524
11
0.936811
21
1.12598
0
LINE
8
BLACK
6
CONTINUOUS
10
0.936811
20
1.12598
11
0.956496
21
1.12598
0
LINE
8
BLACK
6
CONTINUOUS
10
0.956496
20
1.12598
11
0.960263
21
1.12524
0
LINE
8
BLACK
6
CONTINUOUS
10
0.666956
20
1.12524
11
0.670149
21
1.1231
0
LINE
8
BLACK
6
CONTINUOUS
10
0.670149
20
1.1231
11
0.672282
21
1.11991
0
LINE
8
BLACK
6
CONTINUOUS
10
0.672282
20
1.11991
11
0.673031
21
1.11614
0
LINE
8
BLACK
6
CONTINUOUS
10
0.673031
20
1.11614
11
0.673031
21
1.02953
0
LINE
8
BLACK
6
CONTINUOUS
10
0.673031
20
1.02953
11
0.672282
21
1.02576
0
LINE
8
BLACK
6
CONTINUOUS
10
0.672282
20
1.02576
11
0.670149
21
1.02257
0
LINE
8
BLACK
6
CONTINUOUS
10
0.670149
20
1.02257
11
0.666956
21
1.02043
0
LINE
8
BLACK
6
CONTINUOUS
10
0.666956
20
1.02043
11
0.663189
21
1.01969
0
LINE
8
BLACK
6
CONTINUOUS
10
0.663189
20
1.01969
11
0.643504
21
1.01969
0
LINE
8
BLACK
6
CONTINUOUS
10
0.643504
20
1.01969
11
0.639737
21
1.02043
0
LINE
8
BLACK
6
CONTINUOUS
10
0.639737
20
1.02043
11
0.636544
21
1.02257
0
LINE
8
BLACK
6
CONTINUOUS
10
0.636544
20
1.02257
11
0.634411
21
1.02576
0
LINE
8
BLACK
6
CONTINUOUS
10
0.634411
20
1.02576
11
0.633661
21
1.02953
0
LINE
8
BLACK
6
CONTINUOUS
10
0.633661
20
1.02953
11
0.633661
21
1.11614
0
LINE
8
BLACK
6
CONTINUOUS
10
0.633661
20
1.11614
11
0.634411
21
1.11991
0
LINE
8
BLACK
6
CONTINUOUS
10
0.634411
20
1.11991
11
0.636544
21
1.1231
0
LINE
8
BLACK
6
CONTINUOUS
10
0.636544
20
1.1231
11
0.639737
21
1.12524
0
LINE
8
BLACK
6
CONTINUOUS
10
0.639737
20
1.12524
11
0.643504
21
1.12598
0
LINE
8
BLACK
6
CONTINUOUS
10
0.643504
20
1.12598
11
0.663189
21
1.12598
0
LINE
8
BLACK
6
CONTINUOUS
10
0.663189
20
1.12598
11
0.666956
21
1.12524
0
LINE
8
BLACK
6
CONTINUOUS
10
1.20865
20
1.31779
11
1.22213
21
1.31602
0
LINE
8
BLACK
6
CONTINUOUS
10
1.22213
20
1.31602
11
1.23532
21
1.31271
0
LINE
8
BLACK
6
CONTINUOUS
10
1.23532
20
1.31271
11
1.24804
21
1.3079
0
LINE
8
BLACK
6
CONTINUOUS
10
1.24804
20
1.3079
11
1.26012
21
1.30166
0
LINE
8
BLACK
6
CONTINUOUS
10
1.26012
20
1.30166
11
1.27141
21
1.29408
0
LINE
8
BLACK
6
CONTINUOUS
10
1.27141
20
1.29408
11
1.28175
21
1.28525
0
LINE
8
BLACK
6
CONTINUOUS
10
1.28175
20
1.28525
11
1.29101
21
1.27529
0
LINE
8
BLACK
6
CONTINUOUS
10
1.29101
20
1.27529
11
1.29906
21
1.26433
0
LINE
8
BLACK
6
CONTINUOUS
10
1.29906
20
1.26433
11
1.30579
21
1.25252
0
LINE
8
BLACK
6
CONTINUOUS
10
1.30579
20
1.25252
11
1.31113
21
1.24001
0
LINE
8
BLACK
6
CONTINUOUS
10
1.31113
20
1.24001
11
1.31499
21
1.22697
0
LINE
8
BLACK
6
CONTINUOUS
10
1.31499
20
1.22697
11
1.31733
21
1.21358
0
LINE
8
BLACK
6
CONTINUOUS
10
1.31733
20
1.21358
11
1.31811
21
1.2
0
LINE
8
BLACK
6
CONTINUOUS
10
1.31811
20
1.2
11
1.31788
21
1.19258
0
LINE
8
BLACK
6
CONTINUOUS
10
1.31788
20
1.19258
11
1.31624
21
1.17908
0
LINE
8
BLACK
6
CONTINUOUS
10
1.31624
20
1.17908
11
1.31307
21
1.16586
0
LINE
8
BLACK
6
CONTINUOUS
10
1.31307
20
1.16586
11
1.3084
21
1.15309
0
LINE
8
BLACK
6
CONTINUOUS
10
1.3084
20
1.15309
11
1.30229
21
1.14094
0
LINE
8
BLACK
6
CONTINUOUS
10
1.30229
20
1.14094
11
1.29482
21
1.12958
0
LINE
8
BLACK
6
CONTINUOUS
10
1.29482
20
1.12958
11
1.2861
21
1.11915
0
LINE
8
BLACK
6
CONTINUOUS
10
1.2861
20
1.11915
11
1.27624
21
1.10979
0
LINE
8
BLACK
6
CONTINUOUS
10
1.27624
20
1.10979
11
1.26536
21
1.10162
0
LINE
8
BLACK
6
CONTINUOUS
10
1.26536
20
1.10162
11
1.25362
21
1.09476
0
LINE
8
BLACK
6
CONTINUOUS
10
1.25362
20
1.09476
11
1.24117
21
1.0893
0
LINE
8
BLACK
6
CONTINUOUS
10
1.24117
20
1.0893
11
1.22817
21
1.0853
0
LINE
8
BLACK
6
CONTINUOUS
10
1.22817
20
1.0853
11
1.2148
21
1.08282
0
LINE
8
BLACK
6
CONTINUOUS
10
1.2148
20
1.08282
11
1.20124
21
1.0819
0
LINE
8
BLACK
6
CONTINUOUS
10
1.20124
20
1.0819
11
1.18765
21
1.08254
0
LINE
8
BLACK
6
CONTINUOUS
10
1.18765
20
1.08254
11
1.17424
21
1.08473
0
LINE
8
BLACK
6
CONTINUOUS
10
1.17424
20
1.08473
11
1.16116
21
1.08846
0
LINE
8
BLACK
6
CONTINUOUS
10
1.16116
20
1.08846
11
1.14859
21
1.09366
0
LINE
8
BLACK
6
CONTINUOUS
10
1.14859
20
1.09366
11
1.13671
21
1.10028
0
LINE
8
BLACK
6
CONTINUOUS
10
1.13671
20
1.10028
11
1.12567
21
1.10821
0
LINE
8
BLACK
6
CONTINUOUS
10
1.12567
20
1.10821
11
1.11561
21
1.11736
0
LINE
8
BLACK
6
CONTINUOUS
10
1.11561
20
1.11736
11
1.10667
21
1.12761
0
LINE
8
BLACK
6
CONTINUOUS
10
1.10667
20
1.12761
11
1.09897
21
1.13882
0
LINE
8
BLACK
6
CONTINUOUS
10
1.09897
20
1.13882
11
1.09261
21
1.15083
0
LINE
8
BLACK
6
CONTINUOUS
10
1.09261
20
1.15083
11
1.08767
21
1.1635
0
LINE
8
BLACK
6
CONTINUOUS
10
1.08767
20
1.1635
11
1.08422
21
1.17665
0
LINE
8
BLACK
6
CONTINUOUS
10
1.08422
20
1.17665
11
1.0823
21
1.19012
0
LINE
8
BLACK
6
CONTINUOUS
10
1.0823
20
1.19012
11
1.08195
21
1.20371
0
LINE
8
BLACK
6
CONTINUOUS
10
1.08195
20
1.20371
11
1.08316
21
1.21725
0
LINE
8
BLACK
6
CONTINUOUS
10
1.08316
20
1.21725
11
1.08591
21
1.23057
0
LINE
8
BLACK
6
CONTINUOUS
10
1.08591
20
1.23057
11
1.09018
21
1.24348
0
LINE
8
BLACK
6
CONTINUOUS
10
1.09018
20
1.24348
11
1.09591
21
1.25581
0
LINE
8
BLACK
6
CONTINUOUS
10
1.09591
20
1.25581
11
1.10301
21
1.26741
0
LINE
8
BLACK
6
CONTINUOUS
10
1.10301
20
1.26741
11
1.1114
21
1.27811
0
LINE
8
BLACK
6
CONTINUOUS
10
1.1114
20
1.27811
11
1.12097
21
1.28777
0
LINE
8
BLACK
6
CONTINUOUS
10
1.12097
20
1.28777
11
1.13158
21
1.29627
0
LINE
8
BLACK
6
CONTINUOUS
10
1.13158
20
1.29627
11
1.1431
21
1.3035
0
LINE
8
BLACK
6
CONTINUOUS
10
1.1431
20
1.3035
11
1.15537
21
1.30935
0
LINE
8
BLACK
6
CONTINUOUS
10
1.15537
20
1.30935
11
1.16824
21
1.31376
0
LINE
8
BLACK
6
CONTINUOUS
10
1.16824
20
1.31376
11
1.18152
21
1.31666
0
LINE
8
BLACK
6
CONTINUOUS
10
1.18152
20
1.31666
11
1.19505
21
1.31801
0
LINE
8
BLACK
6
CONTINUOUS
10
1.19505
20
1.31801
11
1.20865
21
1.31779
0
LINE
8
BLACK
6
CONTINUOUS
10
0.0086502
20
1.31779
11
0.0221317
21
1.31602
0
LINE
8
BLACK
6
CONTINUOUS
10
0.0221317
20
1.31602
11
0.0353198
21
1.31271
0
LINE
8
BLACK
6
CONTINUOUS
10
0.0353198
20
1.31271
11
0.0480398
21
1.3079
0
LINE
8
BLACK
6
CONTINUOUS
10
0.0480398
20
1.3079
11
0.060123
21
1.30166
0
LINE
8
BLACK
6
CONTINUOUS
10
0.060123
20
1.30166
11
0.0714093
21
1.29408
0
LINE
8
BLACK
6
CONTINUOUS
10
0.0714093
20
1.29408
11
0.0817492
21
1.28525
0
LINE
8
BLACK
6
CONTINUOUS
10
0.0817492
20
1.28525
11
0.0910055
21
1.27529
0
LINE
8
BLACK
6
CONTINUOUS
10
0.0910055
20
1.27529
11
0.0990556
21
1.26433
0
LINE
8
BLACK
6
CONTINUOUS
10
0.0990556
20
1.26433
11
0.105793
21
1.25252
0
LINE
8
BLACK
6
CONTINUOUS
10
0.105793
20
1.25252
11
0.111128
21
1.24001
0
LINE
8
BLACK
6
CONTINUOUS
10
0.111128
20
1.24001
11
0.11499
21
1.22697
0
LINE
8
BLACK
6
CONTINUOUS
10
0.11499
20
1.22697
11
0.117327
21
1.21358
0
LINE
8
BLACK
6
CONTINUOUS
10
0.117327
20
1.21358
11
0.11811
21
1.2
0
LINE
8
BLACK
6
CONTINUOUS
10
0.11811
20
1.2
11
0.117877
21
1.19258
0
LINE
8
BLACK
6
CONTINUOUS
10
0.117877
20
1.19258
11
0.116244
21
1.17908
0
LINE
8
BLACK
6
CONTINUOUS
10
0.116244
20
1.17908
11
0.113069
21
1.16586
0
LINE
8
BLACK
6
CONTINUOUS
10
0.113069
20
1.16586
11
0.108396
21
1.15309
0
LINE
8
BLACK
6
CONTINUOUS
10
0.108396
20
1.15309
11
0.102286
21
1.14094
0
LINE
8
BLACK
6
CONTINUOUS
10
0.102286
20
1.14094
11
0.0948209
21
1.12958
0
LINE
8
BLACK
6
CONTINUOUS
10
0.0948209
20
1.12958
11
0.0860987
21
1.11915
0
LINE
8
BLACK
6
CONTINUOUS
10
0.0860987
20
1.11915
11
0.0762352
21
1.10979
0
LINE
8
BLACK
6
CONTINUOUS
10
0.0762352
20
1.10979
11
0.0653612
21
1.10162
0
LINE
8
BLACK
6
CONTINUOUS
10
0.0653612
20
1.10162
11
0.0536209
21
1.09476
0
LINE
8
BLACK
6
CONTINUOUS
10
0.0536209
20
1.09476
11
0.0411699
21
1.0893
0
LINE
8
BLACK
6
CONTINUOUS
10
0.0411699
20
1.0893
11
0.0281732
21
1.0853
0
LINE
8
BLACK
6
CONTINUOUS
10
0.0281732
20
1.0853
11
0.0148031
21
1.08282
0
LINE
8
BLACK
6
CONTINUOUS
10
0.0148031
20
1.08282
11
0.00123681
21
1.0819
0
LINE
8
BLACK
6
CONTINUOUS
10
0.00123681
20
1.0819
11
-0.0123459
21
1.08254
0
LINE
8
BLACK
6
CONTINUOUS
10
-0.0123459
20
1.08254
11
-0.025765
21
1.08473
0
LINE
8
BLACK
6
CONTINUOUS
10
-0.025765
20
1.08473
11
-0.0388425
21
1.08846
0
LINE
8
BLACK
6
CONTINUOUS
10
-0.0388425
20
1.08846
11
-0.0514052
21
1.09366
0
LINE
8
BLACK
6
CONTINUOUS
10
-0.0514052
20
1.09366
11
-0.0632866
21
1.10028
0
LINE
8
BLACK
6
CONTINUOUS
10
-0.0632866
20
1.10028
11
-0.0743292
21
1.10821
0
LINE
8
BLACK
6
CONTINUOUS
10
-0.0743292
20
1.10821
11
-0.0843865
21
1.11736
0
LINE
8
BLACK
6
CONTINUOUS
10
-0.0843865
20
1.11736
11
-0.0933254
21
1.12761
0
LINE
8
BLACK
6
CONTINUOUS
10
-0.0933254
20
1.12761
11
-0.101027
21
1.13882
0
LINE
8
BLACK
6
CONTINUOUS
10
-0.101027
20
1.13882
11
-0.10739
21
1.15083
0
LINE
8
BLACK
6
CONTINUOUS
10
-0.10739
20
1.15083
11
-0.11233
21
1.1635
0
LINE
8
BLACK
6
CONTINUOUS
10
-0.11233
20
1.1635
11
-0.11578
21
1.17665
0
LINE
8
BLACK
6
CONTINUOUS
10
-0.11578
20
1.17665
11
-0.117696
21
1.19012
0
LINE
8
BLACK
6
CONTINUOUS
10
-0.117696
20
1.19012
11
-0.118052
21
1.20371
0
LINE
8
BLACK
6
CONTINUOUS
10
-0.118052
20
1.20371
11
-0.116843
21
1.21725
0
LINE
8
BLACK
6
CONTINUOUS
10
-0.116843
20
1.21725
11
-0.114086
21
1.23057
0
LINE
8
BLACK
6
CONTINUOUS
10
-0.114086
20
1.23057
11
-0.109816
21
1.24348
0
LINE
8
BLACK
6
CONTINUOUS
10
-0.109816
20
1.24348
11
-0.104091
21
1.25581
0
LINE
8
BLACK
6
CONTINUOUS
10
-0.104091
20
1.25581
11
-0.0969861
21
1.26741
0
LINE
8
BLACK
6
CONTINUOUS
10
-0.0969861
20
1.26741
11
-0.0885958
21
1.27811
0
LINE
8
BLACK
6
CONTINUOUS
10
-0.0885958
20
1.27811
11
-0.0790312
21
1.28777
0
LINE
8
BLACK
6
CONTINUOUS
10
-0.0790312
20
1.28777
11
-0.0684191
21
1.29627
0
LINE
8
BLACK
6
CONTINUOUS
10
-0.0684191
20
1.29627
11
-0.0569
21
1.3035
0
LINE
8
BLACK
6
CONTINUOUS
10
-0.0569
20
1.3035
11
-0.0446269
21
1.30935
0
LINE
8
BLACK
6
CONTINUOUS
10
-0.0446269
20
1.30935
11
-0.0317622
21
1.31376
0
LINE
8
BLACK
6
CONTINUOUS
10
-0.0317622
20
1.31376
11
-0.0184765
21
1.31666
0
LINE
8
BLACK
6
CONTINUOUS
10
-0.0184765
20
1.31666
11
-0.00494594
21
1.31801
0
LINE
8
BLACK
6
CONTINUOUS
10
-0.00494594
20
1.31801
11
0.0086502
21
1.31779
0
LINE
8
BLACK
6
CONTINUOUS
10
0.734347
20
1.23183
11
0.736262
21
1.23055
0
LINE
8
BLACK
6
CONTINUOUS
10
0.736262
20
1.23055
11
0.737543
21
1.22864
0
LINE
8
BLACK
6
CONTINUOUS
10
0.737543
20
1.22864
11
0.737992
21
1.22638
0
LINE
8
BLACK
6
CONTINUOUS
10
0.737992
20
1.22638
11
0.737992
21
1.17126
0
LINE
8
BLACK
6
CONTINUOUS
10
0.737992
20
1.17126
11
0.737543
21
1.169
0
LINE
8
BLACK
6
CONTINUOUS
10
0.737543
20
1.169
11
0.736262
21
1.16708
0
LINE
8
BLACK
6
CONTINUOUS
10
0.736262
20
1.16708
11
0.734347
21
1.1658
0
LINE
8
BLACK
6
CONTINUOUS
10
0.734347
20
1.1658
11
0.732087
21
1.16535
0
LINE
8
BLACK
6
CONTINUOUS
10
0.732087
20
1.16535
11
0.720276
21
1.16535
0
LINE
8
BLACK
6
CONTINUOUS
10
0.720276
20
1.16535
11
0.718016
21
1.1658
0
LINE
8
BLACK
6
CONTINUOUS
10
0.718016
20
1.1658
11
0.7161
21
1.16708
0
LINE
8
BLACK
6
CONTINUOUS
10
0.7161
20
1.16708
11
0.71482
21
1.169
0
LINE
8
BLACK
6
CONTINUOUS
10
0.71482
20
1.169
11
0.71437
21
1.17126
0
LINE
8
BLACK
6
CONTINUOUS
10
0.71437
20
1.17126
11
0.71437
21
1.22638
0
LINE
8
BLACK
6
CONTINUOUS
10
0.71437
20
1.22638
11
0.71482
21
1.22864
0
LINE
8
BLACK
6
CONTINUOUS
10
0.71482
20
1.22864
11
0.7161
21
1.23055
0
LINE
8
BLACK
6
CONTINUOUS
10
0.7161
20
1.23055
11
0.718016
21
1.23183
0
LINE
8
BLACK
6
CONTINUOUS
10
0.718016
20
1.23183
11
0.720276
21
1.23228
0
LINE
8
BLACK
6
CONTINUOUS
10
0.720276
20
1.23228
11
0.732087
21
1.23228
0
LINE
8
BLACK
6
CONTINUOUS
10
0.732087
20
1.23228
11
0.734347
21
1.23183
0
LINE
8
BLACK
6
CONTINUOUS
10
0.783559
20
1.23183
11
0.785475
21
1.23055
0
LINE
8
BLACK
6
CONTINUOUS
10
0.785475
20
1.23055
11
0.786755
21
1.22864
0
LINE
8
BLACK
6
CONTINUOUS
10
0.786755
20
1.22864
11
0.787205
21
1.22638
0
LINE
8
BLACK
6
CONTINUOUS
10
0.787205
20
1.22638
11
0.787205
21
1.17126
0
LINE
8
BLACK
6
CONTINUOUS
10
0.787205
20
1.17126
11
0.786755
21
1.169
0
LINE
8
BLACK
6
CONTINUOUS
10
0.786755
20
1.169
11
0.785475
21
1.16708
0
LINE
8
BLACK
6
CONTINUOUS
10
0.785475
20
1.16708
11
0.783559
21
1.1658
0
LINE
8
BLACK
6
CONTINUOUS
10
0.783559
20
1.1658
11
0.781299
21
1.16535
0
LINE
8
BLACK
6
CONTINUOUS
10
0.781299
20
1.16535
11
0.769488
21
1.16535
0
LINE
8
BLACK
6
CONTINUOUS
10
0.769488
20
1.16535
11
0.767228
21
1.1658
0
LINE
8
BLACK
6
CONTINUOUS
10
0.767228
20
1.1658
11
0.765312
21
1.16708
0
LINE
8
BLACK
6
CONTINUOUS
10
0.765312
20
1.16708
11
0.764032
21
1.169
0
LINE
8
BLACK
6
CONTINUOUS
10
0.764032
20
1.169
11
0.763583
21
1.17126
0
LINE
8
BLACK
6
CONTINUOUS
10
0.763583
20
1.17126
11
0.763583
21
1.22638
0
LINE
8
BLACK
6
CONTINUOUS
10
0.763583
20
1.22638
11
0.764032
21
1.22864
0
LINE
8
BLACK
6
CONTINUOUS
10
0.764032
20
1.22864
11
0.765312
21
1.23055
0
LINE
8
BLACK
6
CONTINUOUS
10
0.765312
20
1.23055
11
0.767228
21
1.23183
0
LINE
8
BLACK
6
CONTINUOUS
10
0.767228
20
1.23183
11
0.769488
21
1.23228
0
LINE
8
BLACK
6
CONTINUOUS
10
0.769488
20
1.23228
11
0.781299
21
1.23228
0
LINE
8
BLACK
6
CONTINUOUS
10
0.781299
20
1.23228
11
0.783559
21
1.23183
0
LINE
8
BLACK
6
CONTINUOUS
10
0.832772
20
1.23183
11
0.834688
21
1.23055
0
LINE
8
BLACK
6
CONTINUOUS
10
0.834688
20
1.23055
11
0.835968
21
1.22864
0
LINE
8
BLACK
6
CONTINUOUS
10
0.835968
20
1.22864
11
0.836417
21
1.22638
0
LINE
8
BLACK
6
CONTINUOUS
10
0.836417
20
1.22638
11
0.836417
21
1.17126
0
LINE
8
BLACK
6
CONTINUOUS
10
0.836417
20
1.17126
11
0.835968
21
1.169
0
LINE
8
BLACK
6
CONTINUOUS
10
0.835968
20
1.169
11
0.834688
21
1.16708
0
LINE
8
BLACK
6
CONTINUOUS
10
0.834688
20
1.16708
11
0.832772
21
1.1658
0
LINE
8
BLACK
6
CONTINUOUS
10
0.832772
20
1.1658
11
0.830512
21
1.16535
0
LINE
8
BLACK
6
CONTINUOUS
10
0.830512
20
1.16535
11
0.818701
21
1.16535
0
LINE
8
BLACK
6
CONTINUOUS
10
0.818701
20
1.16535
11
0.816441
21
1.1658
0
LINE
8
BLACK
6
CONTINUOUS
10
0.816441
20
1.1658
11
0.814525
21
1.16708
0
LINE
8
BLACK
6
CONTINUOUS
10
0.814525
20
1.16708
11
0.813245
21
1.169
0
LINE
8
BLACK
6
CONTINUOUS
10
0.813245
20
1.169
11
0.812795
21
1.17126
0
LINE
8
BLACK
6
CONTINUOUS
10
0.812795
20
1.17126
11
0.812795
21
1.22638
0
LINE
8
BLACK
6
CONTINUOUS
10
0.812795
20
1.22638
11
0.813245
21
1.22864
0
LINE
8
BLACK
6
CONTINUOUS
10
0.813245
20
1.22864
11
0.814525
21
1.23055
0
LINE
8
BLACK
6
CONTINUOUS
10
0.814525
20
1.23055
11
0.816441
21
1.23183
0
LINE
8
BLACK
6
CONTINUOUS
10
0.816441
20
1.23183
11
0.818701
21
1.23228
0
LINE
8
BLACK
6
CONTINUOUS
10
0.818701
20
1.23228
11
0.830512
21
1.23228
0
LINE
8
BLACK
6
CONTINUOUS
10
0.830512
20
1.23228
11
0.832772
21
1.23183
0
LINE
8
BLACK
6
CONTINUOUS
10
0.881984
20
1.23183
11
0.8839
21
1.23055
0
LINE
8
BLACK
6
CONTINUOUS
10
0.8839
20
1.23055
11
0.88518
21
1.22864
0
LINE
8
BLACK
6
CONTINUOUS
10
0.88518
20
1.22864
11
0.88563
21
1.22638
0
LINE
8
BLACK
6
CONTINUOUS
10
0.88563
20
1.22638
11
0.88563
21
1.17126
0
LINE
8
BLACK
6
CONTINUOUS
10
0.88563
20
1.17126
11
0.88518
21
1.169
0
LINE
8
BLACK
6
CONTINUOUS
10
0.88518
20
1.169
11
0.8839
21
1.16708
0
LINE
8
BLACK
6
CONTINUOUS
10
0.8839
20
1.16708
11
0.881984
21
1.1658
0
LINE
8
BLACK
6
CONTINUOUS
10
0.881984
20
1.1658
11
0.879724
21
1.16535
0
LINE
8
BLACK
6
CONTINUOUS
10
0.879724
20
1.16535
11
0.867913
21
1.16535
0
LINE
8
BLACK
6
CONTINUOUS
10
0.867913
20
1.16535
11
0.865653
21
1.1658
0
LINE
8
BLACK
6
CONTINUOUS
10
0.865653
20
1.1658
11
0.863738
21
1.16708
0
LINE
8
BLACK
6
CONTINUOUS
10
0.863738
20
1.16708
11
0.862457
21
1.169
0
LINE
8
BLACK
6
CONTINUOUS
10
0.862457
20
1.169
11
0.862008
21
1.17126
0
LINE
8
BLACK
6
CONTINUOUS
10
0.862008
20
1.17126
11
0.862008
21
1.22638
0
LINE
8
BLACK
6
CONTINUOUS
10
0.862008
20
1.22638
11
0.862457
21
1.22864
0
LINE
8
BLACK
6
CONTINUOUS
10
0.862457
20
1.22864
11
0.863738
21
1.23055
0
LINE
8
BLACK
6
CONTINUOUS
10
0.863738
20
1.23055
11
0.865653
21
1.23183
0
LINE
8
BLACK
6
CONTINUOUS
10
0.865653
20
1.23183
11
0.867913
21
1.23228
0
LINE
8
BLACK
6
CONTINUOUS
10
0.867913
20
1.23228
11
0.879724
21
1.23228
0
LINE
8
BLACK
6
CONTINUOUS
10
0.879724
20
1.23228
11
0.881984
21
1.23183
  0
ENDSEC
  0
EOF
