  0
SECTION
  2
HEADER
  9
$ANGBASE
  50
0.0
  9
$ANGDIR
  70
1
  9
$MEASUREMENT
  70
0
  0
ENDSEC
  0
SECTION
  2
TABLES
  0
TABLE
  2
LTYPE
  70
4
  0
LTYPE
  5
40F
  2
CONTINUOUS
  70
0
  3
Solid line
  72
65
  73
0
  40
0.0
  0
LTYPE
  5
410
  2
DASHDOT
 70
0
  3
Dash Dot ____ _ ____ _
 72
65
 73
4
 40
2.0
 49
1.25
 49
-0.25
 49
0.25
 49
-0.25
  0
LTYPE
  5
411
  2
DASHED
 70
0
  3
Dashed __ __ __ __ __
 72
65
 73
2
 40
0.75
 49
0.5
 49
-0.25
  0
LTYPE
  5
43B
  2
DOTTED
 70
0
  3
Dotted .  .  .  .
 72
65
 73
2
 40
0.2
 49
0.0
 49
-0.2
  0
ENDTAB
  0
TABLE
  2
STYLE
  70
4
  0
STYLE
  2
KICAD
  70
0
  40
0
  41
1
  42
1
  50
0
  71
0
  3
isocp.shx
  0
STYLE
  2
KICADB
  70
0
  40
0
  41
1
  42
1
  50
0
  71
0
  3
isocp.shx
  0
STYLE
  2
KICADI
  70
0
  40
0
  41
1
  42
1
  50
15
  71
0
  3
isocp.shx
  0
STYLE
  2
KICADBI
  70
0
  40
0
  41
1
  42
1
  50
15
  71
0
  3
isocp.shx
  0
ENDTAB
  0
TABLE
  2
LAYER
  70
1
  0
LAYER
  2
BLACK
  70
0
  62
7
  6
CONTINUOUS
  0
ENDTAB
  0
ENDSEC
  0
SECTION
  2
ENTITIES
0
LINE
8
BLACK
6
CONTINUOUS
10
0.4419842519685039
20
0.9668110236220472
11
0.4426802362204724
21
0.9665227559055118
0
LINE
8
BLACK
6
CONTINUOUS
10
0.4426802362204724
20
0.9665227559055118
11
0.4429685039370079
21
0.9658267716535432
0
LINE
8
BLACK
6
CONTINUOUS
10
0.4429685039370079
20
0.9658267716535432
11
0.4429685039370079
21
0.5941732283464567
0
LINE
8
BLACK
6
CONTINUOUS
10
0.4429685039370079
20
0.5941732283464567
11
0.4426802362204724
21
0.5934772440944882
0
LINE
8
BLACK
6
CONTINUOUS
10
0.4426802362204724
20
0.5934772440944882
11
0.4419842519685039
21
0.5931889763779528
0
LINE
8
BLACK
6
CONTINUOUS
10
0.4419842519685039
20
0.5931889763779528
11
0.1900157480314961
21
0.5931889763779528
0
LINE
8
BLACK
6
CONTINUOUS
10
0.1900157480314961
20
0.5931889763779528
11
0.1893197637795276
21
0.5934772440944882
0
LINE
8
BLACK
6
CONTINUOUS
10
0.1893197637795276
20
0.5934772440944882
11
0.1890314960629921
21
0.5941732283464567
0
LINE
8
BLACK
6
CONTINUOUS
10
0.1890314960629921
20
0.5941732283464567
11
0.1890314960629921
21
0.9658267716535432
0
LINE
8
BLACK
6
CONTINUOUS
10
0.1890314960629921
20
0.9658267716535432
11
0.1893197637795276
21
0.9665227559055118
0
LINE
8
BLACK
6
CONTINUOUS
10
0.1893197637795276
20
0.9665227559055118
11
0.1900157480314961
21
0.9668110236220472
0
LINE
8
BLACK
6
CONTINUOUS
10
0.1900157480314961
20
0.9668110236220472
11
0.4419842519685039
21
0.9668110236220472
0
LINE
8
BLACK
6
CONTINUOUS
10
0.191
20
0.9648425196850393
11
0.191
21
0.5951574803149606
0
LINE
8
BLACK
6
CONTINUOUS
10
0.191
20
0.5951574803149606
11
0.441
21
0.5951574803149606
0
LINE
8
BLACK
6
CONTINUOUS
10
0.441
20
0.5951574803149606
11
0.441
21
0.9648425196850393
0
LINE
8
BLACK
6
CONTINUOUS
10
0.441
20
0.9648425196850393
11
0.191
21
0.9648425196850393
0
LINE
8
BLACK
6
CONTINUOUS
10
1.0099842519685038
20
0.9668110236220472
11
1.0106802362204723
21
0.9665227559055118
0
LINE
8
BLACK
6
CONTINUOUS
10
1.0106802362204723
20
0.9665227559055118
11
1.0109685039370078
21
0.9658267716535432
0
LINE
8
BLACK
6
CONTINUOUS
10
1.0109685039370078
20
0.9658267716535432
11
1.0109685039370078
21
0.5941732283464567
0
LINE
8
BLACK
6
CONTINUOUS
10
1.0109685039370078
20
0.5941732283464567
11
1.0106802362204723
21
0.5934772440944882
0
LINE
8
BLACK
6
CONTINUOUS
10
1.0106802362204723
20
0.5934772440944882
11
1.0099842519685038
21
0.5931889763779528
0
LINE
8
BLACK
6
CONTINUOUS
10
1.0099842519685038
20
0.5931889763779528
11
0.7580157480314961
21
0.5931889763779528
0
LINE
8
BLACK
6
CONTINUOUS
10
0.7580157480314961
20
0.5931889763779528
11
0.7573197637795276
21
0.5934772440944882
0
LINE
8
BLACK
6
CONTINUOUS
10
0.7573197637795276
20
0.5934772440944882
11
0.7570314960629921
21
0.5941732283464567
0
LINE
8
BLACK
6
CONTINUOUS
10
0.7570314960629921
20
0.5941732283464567
11
0.7570314960629921
21
0.9658267716535432
0
LINE
8
BLACK
6
CONTINUOUS
10
0.7570314960629921
20
0.9658267716535432
11
0.7573197637795276
21
0.9665227559055118
0
LINE
8
BLACK
6
CONTINUOUS
10
0.7573197637795276
20
0.9665227559055118
11
0.7580157480314961
21
0.9668110236220472
0
LINE
8
BLACK
6
CONTINUOUS
10
0.7580157480314961
20
0.9668110236220472
11
1.0099842519685038
21
0.9668110236220472
0
LINE
8
BLACK
6
CONTINUOUS
10
0.759
20
0.9648425196850393
11
0.759
21
0.5951574803149606
0
LINE
8
BLACK
6
CONTINUOUS
10
0.759
20
0.5951574803149606
11
1.0089999999999999
21
0.5951574803149606
0
LINE
8
BLACK
6
CONTINUOUS
10
1.0089999999999999
20
0.5951574803149606
11
1.0089999999999999
21
0.9648425196850393
0
LINE
8
BLACK
6
CONTINUOUS
10
1.0089999999999999
20
0.9648425196850393
11
0.759
21
0.9648425196850393
0
LINE
8
BLACK
6
CONTINUOUS
10
0.4419842519685039
20
1.4088110236220472
11
0.4426802362204724
21
1.4085227559055118
0
LINE
8
BLACK
6
CONTINUOUS
10
0.4426802362204724
20
1.4085227559055118
11
0.4429685039370079
21
1.4078267716535433
0
LINE
8
BLACK
6
CONTINUOUS
10
0.4429685039370079
20
1.4078267716535433
11
0.4429685039370079
21
1.0361732283464566
0
LINE
8
BLACK
6
CONTINUOUS
10
0.4429685039370079
20
1.0361732283464566
11
0.4426802362204724
21
1.0354772440944882
0
LINE
8
BLACK
6
CONTINUOUS
10
0.4426802362204724
20
1.0354772440944882
11
0.4419842519685039
21
1.0351889763779527
0
LINE
8
BLACK
6
CONTINUOUS
10
0.4419842519685039
20
1.0351889763779527
11
0.1900157480314961
21
1.0351889763779527
0
LINE
8
BLACK
6
CONTINUOUS
10
0.1900157480314961
20
1.0351889763779527
11
0.1893197637795276
21
1.0354772440944882
0
LINE
8
BLACK
6
CONTINUOUS
10
0.1893197637795276
20
1.0354772440944882
11
0.1890314960629921
21
1.0361732283464566
0
LINE
8
BLACK
6
CONTINUOUS
10
0.1890314960629921
20
1.0361732283464566
11
0.1890314960629921
21
1.4078267716535433
0
LINE
8
BLACK
6
CONTINUOUS
10
0.1890314960629921
20
1.4078267716535433
11
0.1893197637795276
21
1.4085227559055118
0
LINE
8
BLACK
6
CONTINUOUS
10
0.1893197637795276
20
1.4085227559055118
11
0.1900157480314961
21
1.4088110236220472
0
LINE
8
BLACK
6
CONTINUOUS
10
0.1900157480314961
20
1.4088110236220472
11
0.4419842519685039
21
1.4088110236220472
0
LINE
8
BLACK
6
CONTINUOUS
10
0.191
20
1.4068425196850394
11
0.191
21
1.0371574803149606
0
LINE
8
BLACK
6
CONTINUOUS
10
0.191
20
1.0371574803149606
11
0.441
21
1.0371574803149606
0
LINE
8
BLACK
6
CONTINUOUS
10
0.441
20
1.0371574803149606
11
0.441
21
1.4068425196850394
0
LINE
8
BLACK
6
CONTINUOUS
10
0.441
20
1.4068425196850394
11
0.191
21
1.4068425196850394
0
LINE
8
BLACK
6
CONTINUOUS
10
1.0099842519685038
20
1.4088110236220472
11
1.0106802362204723
21
1.4085227559055118
0
LINE
8
BLACK
6
CONTINUOUS
10
1.0106802362204723
20
1.4085227559055118
11
1.0109685039370078
21
1.4078267716535433
0
LINE
8
BLACK
6
CONTINUOUS
10
1.0109685039370078
20
1.4078267716535433
11
1.0109685039370078
21
1.0361732283464566
0
LINE
8
BLACK
6
CONTINUOUS
10
1.0109685039370078
20
1.0361732283464566
11
1.0106802362204723
21
1.0354772440944882
0
LINE
8
BLACK
6
CONTINUOUS
10
1.0106802362204723
20
1.0354772440944882
11
1.0099842519685038
21
1.0351889763779527
0
LINE
8
BLACK
6
CONTINUOUS
10
1.0099842519685038
20
1.0351889763779527
11
0.7580157480314961
21
1.0351889763779527
0
LINE
8
BLACK
6
CONTINUOUS
10
0.7580157480314961
20
1.0351889763779527
11
0.7573197637795276
21
1.0354772440944882
0
LINE
8
BLACK
6
CONTINUOUS
10
0.7573197637795276
20
1.0354772440944882
11
0.7570314960629921
21
1.0361732283464566
0
LINE
8
BLACK
6
CONTINUOUS
10
0.7570314960629921
20
1.0361732283464566
11
0.7570314960629921
21
1.4078267716535433
0
LINE
8
BLACK
6
CONTINUOUS
10
0.7570314960629921
20
1.4078267716535433
11
0.7573197637795276
21
1.4085227559055118
0
LINE
8
BLACK
6
CONTINUOUS
10
0.7573197637795276
20
1.4085227559055118
11
0.7580157480314961
21
1.4088110236220472
0
LINE
8
BLACK
6
CONTINUOUS
10
0.7580157480314961
20
1.4088110236220472
11
1.0099842519685038
21
1.4088110236220472
0
LINE
8
BLACK
6
CONTINUOUS
10
0.759
20
1.4068425196850394
11
0.759
21
1.0371574803149606
0
LINE
8
BLACK
6
CONTINUOUS
10
0.759
20
1.0371574803149606
11
1.0089999999999999
21
1.0371574803149606
0
LINE
8
BLACK
6
CONTINUOUS
10
1.0089999999999999
20
1.0371574803149606
11
1.0089999999999999
21
1.4068425196850394
0
LINE
8
BLACK
6
CONTINUOUS
10
1.0089999999999999
20
1.4068425196850394
11
0.759
21
1.4068425196850394
  0
ENDSEC
  0
EOF
