  0
SECTION
  2
HEADER
  9
$ANGBASE
  50
0.0
  9
$ANGDIR
  70
1
  9
$MEASUREMENT
  70
0
  0
ENDSEC
  0
SECTION
  2
TABLES
  0
TABLE
  2
LTYPE
  70
4
  0
LTYPE
  5
40F
  2
CONTINUOUS
  70
0
  3
Solid line
  72
65
  73
0
  40
0.0
  0
LTYPE
  5
410
  2
DASHDOT
 70
0
  3
Dash Dot ____ _ ____ _
 72
65
 73
4
 40
2.0
 49
1.25
 49
-0.25
 49
0.25
 49
-0.25
  0
LTYPE
  5
411
  2
DASHED
 70
0
  3
Dashed __ __ __ __ __
 72
65
 73
2
 40
0.75
 49
0.5
 49
-0.25
  0
LTYPE
  5
43B
  2
DOTTED
 70
0
  3
Dotted .  .  .  .
 72
65
 73
2
 40
0.2
 49
0.0
 49
-0.2
  0
ENDTAB
  0
TABLE
  2
STYLE
  70
4
  0
STYLE
  2
KICAD
  70
0
  40
0
  41
1
  42
1
  50
0
  71
0
  3
isocp.shx
  0
STYLE
  2
KICADB
  70
0
  40
0
  41
1
  42
1
  50
0
  71
0
  3
isocp.shx
  0
STYLE
  2
KICADI
  70
0
  40
0
  41
1
  42
1
  50
15
  71
0
  3
isocp.shx
  0
STYLE
  2
KICADBI
  70
0
  40
0
  41
1
  42
1
  50
15
  71
0
  3
isocp.shx
  0
ENDTAB
  0
TABLE
  2
LAYER
  70
1
  0
LAYER
  2
BLACK
  70
0
  62
7
  6
CONTINUOUS
  0
ENDTAB
  0
ENDSEC
  0
SECTION
  2
ENTITIES
0
LINE
8
BLACK
6
CONTINUOUS
10
0.731833
20
0.091974
11
0.731962
21
0.0919968
0
LINE
8
BLACK
6
CONTINUOUS
10
0.731962
20
0.0919968
11
0.732076
21
0.0919312
0
LINE
8
BLACK
6
CONTINUOUS
10
0.732076
20
0.0919312
11
0.732459
21
0.0918635
0
LINE
8
BLACK
6
CONTINUOUS
10
0.732459
20
0.0918635
11
0.733047
21
0.0913704
0
LINE
8
BLACK
6
CONTINUOUS
10
0.733047
20
0.0913704
11
0.733711
21
0.0909869
0
LINE
8
BLACK
6
CONTINUOUS
10
0.733711
20
0.0909869
11
0.733803
21
0.0907365
0
LINE
8
BLACK
6
CONTINUOUS
10
0.733803
20
0.0907365
11
0.734007
21
0.0905652
0
LINE
8
BLACK
6
CONTINUOUS
10
0.734007
20
0.0905652
11
0.73414
21
0.0898097
0
LINE
8
BLACK
6
CONTINUOUS
10
0.73414
20
0.0898097
11
0.734402
21
0.0890889
0
LINE
8
BLACK
6
CONTINUOUS
10
0.734402
20
0.0890889
11
0.734402
21
0.0740907
0
LINE
8
BLACK
6
CONTINUOUS
10
0.734402
20
0.0740907
11
0.734224
21
0.0730808
0
LINE
8
BLACK
6
CONTINUOUS
10
0.734224
20
0.0730808
11
0.734111
21
0.0729456
0
LINE
8
BLACK
6
CONTINUOUS
10
0.734111
20
0.0729456
11
0.734091
21
0.0727702
0
LINE
8
BLACK
6
CONTINUOUS
10
0.734091
20
0.0727702
11
0.732216
21
0.0690207
0
LINE
8
BLACK
6
CONTINUOUS
10
0.732216
20
0.0690207
11
0.73169
21
0.0683116
0
LINE
8
BLACK
6
CONTINUOUS
10
0.73169
20
0.0683116
11
0.731663
21
0.0682533
0
LINE
8
BLACK
6
CONTINUOUS
10
0.731663
20
0.0682533
11
0.729788
21
0.0663785
0
LINE
8
BLACK
6
CONTINUOUS
10
0.729788
20
0.0663785
11
0.729065
21
0.0658722
0
LINE
8
BLACK
6
CONTINUOUS
10
0.729065
20
0.0658722
11
0.729021
21
0.0658254
0
LINE
8
BLACK
6
CONTINUOUS
10
0.729021
20
0.0658254
11
0.725271
21
0.0639507
0
LINE
8
BLACK
6
CONTINUOUS
10
0.725271
20
0.0639507
11
0.724288
21
0.0636583
0
LINE
8
BLACK
6
CONTINUOUS
10
0.724288
20
0.0636583
11
0.724116
21
0.0636993
0
LINE
8
BLACK
6
CONTINUOUS
10
0.724116
20
0.0636993
11
0.72395
21
0.0636389
0
LINE
8
BLACK
6
CONTINUOUS
10
0.72395
20
0.0636389
11
0.718326
21
0.0636389
0
LINE
8
BLACK
6
CONTINUOUS
10
0.718326
20
0.0636389
11
0.717316
21
0.063817
0
LINE
8
BLACK
6
CONTINUOUS
10
0.717316
20
0.063817
11
0.717181
21
0.0639305
0
LINE
8
BLACK
6
CONTINUOUS
10
0.717181
20
0.0639305
11
0.717006
21
0.0639507
0
LINE
8
BLACK
6
CONTINUOUS
10
0.717006
20
0.0639507
11
0.713256
21
0.0658254
0
LINE
8
BLACK
6
CONTINUOUS
10
0.713256
20
0.0658254
11
0.712547
21
0.0663513
0
LINE
8
BLACK
6
CONTINUOUS
10
0.712547
20
0.0663513
11
0.712489
21
0.0663785
0
LINE
8
BLACK
6
CONTINUOUS
10
0.712489
20
0.0663785
11
0.710614
21
0.0682533
0
LINE
8
BLACK
6
CONTINUOUS
10
0.710614
20
0.0682533
11
0.710026
21
0.0690933
0
LINE
8
BLACK
6
CONTINUOUS
10
0.710026
20
0.0690933
11
0.710024
21
0.069112
0
LINE
8
BLACK
6
CONTINUOUS
10
0.710024
20
0.069112
11
0.709166
21
0.0682533
0
LINE
8
BLACK
6
CONTINUOUS
10
0.709166
20
0.0682533
11
0.708442
21
0.067747
0
LINE
8
BLACK
6
CONTINUOUS
10
0.708442
20
0.067747
11
0.708398
21
0.0677002
0
LINE
8
BLACK
6
CONTINUOUS
10
0.708398
20
0.0677002
11
0.704649
21
0.0658254
0
LINE
8
BLACK
6
CONTINUOUS
10
0.704649
20
0.0658254
11
0.703666
21
0.0655331
0
LINE
8
BLACK
6
CONTINUOUS
10
0.703666
20
0.0655331
11
0.703494
21
0.0655741
0
LINE
8
BLACK
6
CONTINUOUS
10
0.703494
20
0.0655741
11
0.703328
21
0.0655137
0
LINE
8
BLACK
6
CONTINUOUS
10
0.703328
20
0.0655137
11
0.699579
21
0.0655137
0
LINE
8
BLACK
6
CONTINUOUS
10
0.699579
20
0.0655137
11
0.698569
21
0.0656918
0
LINE
8
BLACK
6
CONTINUOUS
10
0.698569
20
0.0656918
11
0.698433
21
0.0658053
0
LINE
8
BLACK
6
CONTINUOUS
10
0.698433
20
0.0658053
11
0.698258
21
0.0658254
0
LINE
8
BLACK
6
CONTINUOUS
10
0.698258
20
0.0658254
11
0.694509
21
0.0677002
0
LINE
8
BLACK
6
CONTINUOUS
10
0.694509
20
0.0677002
11
0.693799
21
0.0682261
0
LINE
8
BLACK
6
CONTINUOUS
10
0.693799
20
0.0682261
11
0.693741
21
0.0682533
0
LINE
8
BLACK
6
CONTINUOUS
10
0.693741
20
0.0682533
11
0.691866
21
0.0701281
0
LINE
8
BLACK
6
CONTINUOUS
10
0.691866
20
0.0701281
11
0.69136
21
0.0708512
0
LINE
8
BLACK
6
CONTINUOUS
10
0.69136
20
0.0708512
11
0.691313
21
0.0708955
0
LINE
8
BLACK
6
CONTINUOUS
10
0.691313
20
0.0708955
11
0.689438
21
0.074645
0
LINE
8
BLACK
6
CONTINUOUS
10
0.689438
20
0.074645
11
0.689146
21
0.075628
0
LINE
8
BLACK
6
CONTINUOUS
10
0.689146
20
0.075628
11
0.689187
21
0.0757996
0
LINE
8
BLACK
6
CONTINUOUS
10
0.689187
20
0.0757996
11
0.689127
21
0.0759655
0
LINE
8
BLACK
6
CONTINUOUS
10
0.689127
20
0.0759655
11
0.689127
21
0.0890889
0
LINE
8
BLACK
6
CONTINUOUS
10
0.689127
20
0.0890889
11
0.689194
21
0.0894724
0
LINE
8
BLACK
6
CONTINUOUS
10
0.689194
20
0.0894724
11
0.689172
21
0.0896016
0
LINE
8
BLACK
6
CONTINUOUS
10
0.689172
20
0.0896016
11
0.689237
21
0.0897152
0
LINE
8
BLACK
6
CONTINUOUS
10
0.689237
20
0.0897152
11
0.689305
21
0.0900988
0
LINE
8
BLACK
6
CONTINUOUS
10
0.689305
20
0.0900988
11
0.689798
21
0.0906865
0
LINE
8
BLACK
6
CONTINUOUS
10
0.689798
20
0.0906865
11
0.690181
21
0.0913508
0
LINE
8
BLACK
6
CONTINUOUS
10
0.690181
20
0.0913508
11
0.690432
21
0.0914419
0
LINE
8
BLACK
6
CONTINUOUS
10
0.690432
20
0.0914419
11
0.690603
21
0.091646
0
LINE
8
BLACK
6
CONTINUOUS
10
0.690603
20
0.091646
11
0.691359
21
0.0917793
0
LINE
8
BLACK
6
CONTINUOUS
10
0.691359
20
0.0917793
11
0.692079
21
0.0920416
0
LINE
8
BLACK
6
CONTINUOUS
10
0.692079
20
0.0920416
11
0.73145
21
0.0920416
0
LINE
8
BLACK
6
CONTINUOUS
10
0.73145
20
0.0920416
11
0.731833
21
0.091974
0
LINE
8
BLACK
6
CONTINUOUS
10
0.71378
20
0.0764447
11
0.715283
21
0.0719363
0
LINE
8
BLACK
6
CONTINUOUS
10
0.715283
20
0.0719363
11
0.716326
21
0.0708932
0
LINE
8
BLACK
6
CONTINUOUS
10
0.716326
20
0.0708932
11
0.719023
21
0.0695444
0
LINE
8
BLACK
6
CONTINUOUS
10
0.719023
20
0.0695444
11
0.723253
21
0.0695444
0
LINE
8
BLACK
6
CONTINUOUS
10
0.723253
20
0.0695444
11
0.725951
21
0.0708932
0
LINE
8
BLACK
6
CONTINUOUS
10
0.725951
20
0.0708932
11
0.727148
21
0.0720904
0
LINE
8
BLACK
6
CONTINUOUS
10
0.727148
20
0.0720904
11
0.728497
21
0.0747878
0
LINE
8
BLACK
6
CONTINUOUS
10
0.728497
20
0.0747878
11
0.728497
21
0.0861361
0
LINE
8
BLACK
6
CONTINUOUS
10
0.728497
20
0.0861361
11
0.71378
21
0.0861361
0
LINE
8
BLACK
6
CONTINUOUS
10
0.71378
20
0.0861361
11
0.71378
21
0.0764447
0
LINE
8
BLACK
6
CONTINUOUS
10
0.695032
20
0.0766626
11
0.696381
21
0.0739651
0
LINE
8
BLACK
6
CONTINUOUS
10
0.696381
20
0.0739651
11
0.697578
21
0.072768
0
LINE
8
BLACK
6
CONTINUOUS
10
0.697578
20
0.072768
11
0.700276
21
0.0714192
0
LINE
8
BLACK
6
CONTINUOUS
10
0.700276
20
0.0714192
11
0.702631
21
0.0714192
0
LINE
8
BLACK
6
CONTINUOUS
10
0.702631
20
0.0714192
11
0.705328
21
0.072768
0
LINE
8
BLACK
6
CONTINUOUS
10
0.705328
20
0.072768
11
0.706526
21
0.0739651
0
LINE
8
BLACK
6
CONTINUOUS
10
0.706526
20
0.0739651
11
0.707874
21
0.0766626
0
LINE
8
BLACK
6
CONTINUOUS
10
0.707874
20
0.0766626
11
0.707874
21
0.0861361
0
LINE
8
BLACK
6
CONTINUOUS
10
0.707874
20
0.0861361
11
0.695032
21
0.0861361
0
LINE
8
BLACK
6
CONTINUOUS
10
0.695032
20
0.0861361
11
0.695032
21
0.0766626
0
LINE
8
BLACK
6
CONTINUOUS
10
0.694341
20
0.126607
11
0.695032
21
0.124709
0
LINE
8
BLACK
6
CONTINUOUS
10
0.695032
20
0.124709
11
0.695032
21
0.116414
0
LINE
8
BLACK
6
CONTINUOUS
10
0.695032
20
0.116414
11
0.73145
21
0.116414
0
LINE
8
BLACK
6
CONTINUOUS
10
0.73145
20
0.116414
11
0.732459
21
0.116236
0
LINE
8
BLACK
6
CONTINUOUS
10
0.732459
20
0.116236
11
0.734007
21
0.114937
0
LINE
8
BLACK
6
CONTINUOUS
10
0.734007
20
0.114937
11
0.734357
21
0.112948
0
LINE
8
BLACK
6
CONTINUOUS
10
0.734357
20
0.112948
11
0.733348
21
0.111199
0
LINE
8
BLACK
6
CONTINUOUS
10
0.733348
20
0.111199
11
0.73145
21
0.110508
0
LINE
8
BLACK
6
CONTINUOUS
10
0.73145
20
0.110508
11
0.695032
21
0.110508
0
LINE
8
BLACK
6
CONTINUOUS
10
0.695032
20
0.110508
11
0.695032
21
0.102212
0
LINE
8
BLACK
6
CONTINUOUS
10
0.695032
20
0.102212
11
0.694854
21
0.101202
0
LINE
8
BLACK
6
CONTINUOUS
10
0.694854
20
0.101202
11
0.693556
21
0.0996551
0
LINE
8
BLACK
6
CONTINUOUS
10
0.693556
20
0.0996551
11
0.691567
21
0.0993043
0
LINE
8
BLACK
6
CONTINUOUS
10
0.691567
20
0.0993043
11
0.689818
21
0.100314
0
LINE
8
BLACK
6
CONTINUOUS
10
0.689818
20
0.100314
11
0.689127
21
0.102212
0
LINE
8
BLACK
6
CONTINUOUS
10
0.689127
20
0.102212
11
0.689127
21
0.124709
0
LINE
8
BLACK
6
CONTINUOUS
10
0.689127
20
0.124709
11
0.689305
21
0.125719
0
LINE
8
BLACK
6
CONTINUOUS
10
0.689305
20
0.125719
11
0.690603
21
0.127267
0
LINE
8
BLACK
6
CONTINUOUS
10
0.690603
20
0.127267
11
0.692592
21
0.127617
0
LINE
8
BLACK
6
CONTINUOUS
10
0.692592
20
0.127617
11
0.694341
21
0.126607
0
LINE
8
BLACK
6
CONTINUOUS
10
0.718713
20
0.169727
11
0.719404
21
0.167829
0
LINE
8
BLACK
6
CONTINUOUS
10
0.719404
20
0.167829
11
0.719404
21
0.137833
0
LINE
8
BLACK
6
CONTINUOUS
10
0.719404
20
0.137833
11
0.719226
21
0.136823
0
LINE
8
BLACK
6
CONTINUOUS
10
0.719226
20
0.136823
11
0.717928
21
0.135276
0
LINE
8
BLACK
6
CONTINUOUS
10
0.717928
20
0.135276
11
0.715939
21
0.134925
0
LINE
8
BLACK
6
CONTINUOUS
10
0.715939
20
0.134925
11
0.714189
21
0.135935
0
LINE
8
BLACK
6
CONTINUOUS
10
0.714189
20
0.135935
11
0.713499
21
0.137833
0
LINE
8
BLACK
6
CONTINUOUS
10
0.713499
20
0.137833
11
0.713499
21
0.167829
0
LINE
8
BLACK
6
CONTINUOUS
10
0.713499
20
0.167829
11
0.713677
21
0.168839
0
LINE
8
BLACK
6
CONTINUOUS
10
0.713677
20
0.168839
11
0.714975
21
0.170386
0
LINE
8
BLACK
6
CONTINUOUS
10
0.714975
20
0.170386
11
0.716964
21
0.170737
0
LINE
8
BLACK
6
CONTINUOUS
10
0.716964
20
0.170737
11
0.718713
21
0.169727
0
LINE
8
BLACK
6
CONTINUOUS
10
0.551544
20
0.298622
11
0.552657
21
0.296936
0
LINE
8
BLACK
6
CONTINUOUS
10
0.552657
20
0.296936
11
0.552426
21
0.29493
0
LINE
8
BLACK
6
CONTINUOUS
10
0.552426
20
0.29493
11
0.550551
21
0.29118
0
LINE
8
BLACK
6
CONTINUOUS
10
0.550551
20
0.29118
11
0.550025
21
0.290471
0
LINE
8
BLACK
6
CONTINUOUS
10
0.550025
20
0.290471
11
0.549998
21
0.290413
0
LINE
8
BLACK
6
CONTINUOUS
10
0.549998
20
0.290413
11
0.54754
21
0.287955
0
LINE
8
BLACK
6
CONTINUOUS
10
0.54754
20
0.287955
11
0.574954
21
0.287955
0
LINE
8
BLACK
6
CONTINUOUS
10
0.574954
20
0.287955
11
0.574954
21
0.29625
0
LINE
8
BLACK
6
CONTINUOUS
10
0.574954
20
0.29625
11
0.575132
21
0.29726
0
LINE
8
BLACK
6
CONTINUOUS
10
0.575132
20
0.29726
11
0.57643
21
0.298808
0
LINE
8
BLACK
6
CONTINUOUS
10
0.57643
20
0.298808
11
0.578419
21
0.299158
0
LINE
8
BLACK
6
CONTINUOUS
10
0.578419
20
0.299158
11
0.580168
21
0.298148
0
LINE
8
BLACK
6
CONTINUOUS
10
0.580168
20
0.298148
11
0.580859
21
0.29625
0
LINE
8
BLACK
6
CONTINUOUS
10
0.580859
20
0.29625
11
0.580859
21
0.273753
0
LINE
8
BLACK
6
CONTINUOUS
10
0.580859
20
0.273753
11
0.580681
21
0.272743
0
LINE
8
BLACK
6
CONTINUOUS
10
0.580681
20
0.272743
11
0.579383
21
0.271196
0
LINE
8
BLACK
6
CONTINUOUS
10
0.579383
20
0.271196
11
0.577394
21
0.270845
0
LINE
8
BLACK
6
CONTINUOUS
10
0.577394
20
0.270845
11
0.575644
21
0.271855
0
LINE
8
BLACK
6
CONTINUOUS
10
0.575644
20
0.271855
11
0.574954
21
0.273753
0
LINE
8
BLACK
6
CONTINUOUS
10
0.574954
20
0.273753
11
0.574954
21
0.282049
0
LINE
8
BLACK
6
CONTINUOUS
10
0.574954
20
0.282049
11
0.538536
21
0.282049
0
LINE
8
BLACK
6
CONTINUOUS
10
0.538536
20
0.282049
11
0.537526
21
0.282227
0
LINE
8
BLACK
6
CONTINUOUS
10
0.537526
20
0.282227
11
0.537396
21
0.282336
0
LINE
8
BLACK
6
CONTINUOUS
10
0.537396
20
0.282336
11
0.537227
21
0.282355
0
LINE
8
BLACK
6
CONTINUOUS
10
0.537227
20
0.282355
11
0.536636
21
0.282975
0
LINE
8
BLACK
6
CONTINUOUS
10
0.536636
20
0.282975
11
0.535979
21
0.283526
0
LINE
8
BLACK
6
CONTINUOUS
10
0.535979
20
0.283526
11
0.53595
21
0.283693
0
LINE
8
BLACK
6
CONTINUOUS
10
0.53595
20
0.283693
11
0.535832
21
0.283816
0
LINE
8
BLACK
6
CONTINUOUS
10
0.535832
20
0.283816
11
0.535777
21
0.284671
0
LINE
8
BLACK
6
CONTINUOUS
10
0.535777
20
0.284671
11
0.535628
21
0.285515
0
LINE
8
BLACK
6
CONTINUOUS
10
0.535628
20
0.285515
11
0.535713
21
0.285662
0
LINE
8
BLACK
6
CONTINUOUS
10
0.535713
20
0.285662
11
0.535702
21
0.285831
0
LINE
8
BLACK
6
CONTINUOUS
10
0.535702
20
0.285831
11
0.53621
21
0.286522
0
LINE
8
BLACK
6
CONTINUOUS
10
0.53621
20
0.286522
11
0.536638
21
0.287264
0
LINE
8
BLACK
6
CONTINUOUS
10
0.536638
20
0.287264
11
0.536798
21
0.287322
0
LINE
8
BLACK
6
CONTINUOUS
10
0.536798
20
0.287322
11
0.536898
21
0.287459
0
LINE
8
BLACK
6
CONTINUOUS
10
0.536898
20
0.287459
11
0.542279
21
0.291046
0
LINE
8
BLACK
6
CONTINUOUS
10
0.542279
20
0.291046
11
0.545483
21
0.29425
0
LINE
8
BLACK
6
CONTINUOUS
10
0.545483
20
0.29425
11
0.547144
21
0.297571
0
LINE
8
BLACK
6
CONTINUOUS
10
0.547144
20
0.297571
11
0.547755
21
0.298395
0
LINE
8
BLACK
6
CONTINUOUS
10
0.547755
20
0.298395
11
0.549608
21
0.299198
0
LINE
8
BLACK
6
CONTINUOUS
10
0.549608
20
0.299198
11
0.551544
21
0.298622
0
LINE
8
BLACK
6
CONTINUOUS
10
0.580168
20
0.330019
11
0.580859
21
0.328121
0
LINE
8
BLACK
6
CONTINUOUS
10
0.580859
20
0.328121
11
0.580859
21
0.324372
0
LINE
8
BLACK
6
CONTINUOUS
10
0.580859
20
0.324372
11
0.580706
21
0.323503
0
LINE
8
BLACK
6
CONTINUOUS
10
0.580706
20
0.323503
11
0.580707
21
0.323438
0
LINE
8
BLACK
6
CONTINUOUS
10
0.580707
20
0.323438
11
0.578833
21
0.317814
0
LINE
8
BLACK
6
CONTINUOUS
10
0.578833
20
0.317814
11
0.578344
21
0.316912
0
LINE
8
BLACK
6
CONTINUOUS
10
0.578344
20
0.316912
11
0.578194
21
0.31682
0
LINE
8
BLACK
6
CONTINUOUS
10
0.578194
20
0.31682
11
0.578119
21
0.31666
0
LINE
8
BLACK
6
CONTINUOUS
10
0.578119
20
0.31666
11
0.57437
21
0.31291
0
LINE
8
BLACK
6
CONTINUOUS
10
0.57437
20
0.31291
11
0.57353
21
0.312322
0
LINE
8
BLACK
6
CONTINUOUS
10
0.57353
20
0.312322
11
0.573354
21
0.312307
0
LINE
8
BLACK
6
CONTINUOUS
10
0.573354
20
0.312307
11
0.573216
21
0.312197
0
LINE
8
BLACK
6
CONTINUOUS
10
0.573216
20
0.312197
11
0.567591
21
0.310322
0
LINE
8
BLACK
6
CONTINUOUS
10
0.567591
20
0.310322
11
0.566718
21
0.310193
0
LINE
8
BLACK
6
CONTINUOUS
10
0.566718
20
0.310193
11
0.566658
21
0.310171
0
LINE
8
BLACK
6
CONTINUOUS
10
0.566658
20
0.310171
11
0.538536
21
0.310171
0
LINE
8
BLACK
6
CONTINUOUS
10
0.538536
20
0.310171
11
0.537526
21
0.310349
0
LINE
8
BLACK
6
CONTINUOUS
10
0.537526
20
0.310349
11
0.535979
21
0.311647
0
LINE
8
BLACK
6
CONTINUOUS
10
0.535979
20
0.311647
11
0.535628
21
0.313636
0
LINE
8
BLACK
6
CONTINUOUS
10
0.535628
20
0.313636
11
0.536638
21
0.315385
0
LINE
8
BLACK
6
CONTINUOUS
10
0.536638
20
0.315385
11
0.538536
21
0.316076
0
LINE
8
BLACK
6
CONTINUOUS
10
0.538536
20
0.316076
11
0.566179
21
0.316076
0
LINE
8
BLACK
6
CONTINUOUS
10
0.566179
20
0.316076
11
0.570687
21
0.317579
0
LINE
8
BLACK
6
CONTINUOUS
10
0.570687
20
0.317579
11
0.573451
21
0.320343
0
LINE
8
BLACK
6
CONTINUOUS
10
0.573451
20
0.320343
11
0.574954
21
0.324851
0
LINE
8
BLACK
6
CONTINUOUS
10
0.574954
20
0.324851
11
0.574954
21
0.328121
0
LINE
8
BLACK
6
CONTINUOUS
10
0.574954
20
0.328121
11
0.575132
21
0.329131
0
LINE
8
BLACK
6
CONTINUOUS
10
0.575132
20
0.329131
11
0.57643
21
0.330679
0
LINE
8
BLACK
6
CONTINUOUS
10
0.57643
20
0.330679
11
0.578419
21
0.331029
0
LINE
8
BLACK
6
CONTINUOUS
10
0.578419
20
0.331029
11
0.580168
21
0.330019
0
LINE
8
BLACK
6
CONTINUOUS
10
0.656457
20
0.46437
11
0.657849
21
0.463794
0
LINE
8
BLACK
6
CONTINUOUS
10
0.657849
20
0.463794
11
0.658425
21
0.462402
0
LINE
8
BLACK
6
CONTINUOUS
10
0.658425
20
0.462402
11
0.658425
21
0.137598
0
LINE
8
BLACK
6
CONTINUOUS
10
0.658425
20
0.137598
11
0.657849
21
0.136206
0
LINE
8
BLACK
6
CONTINUOUS
10
0.657849
20
0.136206
11
0.656457
21
0.13563
0
LINE
8
BLACK
6
CONTINUOUS
10
0.656457
20
0.13563
11
0.497008
21
0.13563
0
LINE
8
BLACK
6
CONTINUOUS
10
0.497008
20
0.13563
11
0.495616
21
0.136206
0
LINE
8
BLACK
6
CONTINUOUS
10
0.495616
20
0.136206
11
0.495039
21
0.137598
0
LINE
8
BLACK
6
CONTINUOUS
10
0.495039
20
0.137598
11
0.495039
21
0.462402
0
LINE
8
BLACK
6
CONTINUOUS
10
0.495039
20
0.462402
11
0.495616
21
0.463794
0
LINE
8
BLACK
6
CONTINUOUS
10
0.495616
20
0.463794
11
0.497008
21
0.46437
0
LINE
8
BLACK
6
CONTINUOUS
10
0.497008
20
0.46437
11
0.656457
21
0.46437
0
LINE
8
BLACK
6
CONTINUOUS
10
0.498976
20
0.460433
11
0.498976
21
0.394523
0
LINE
8
BLACK
6
CONTINUOUS
10
0.498976
20
0.394523
11
0.525983
21
0.375426
0
LINE
8
BLACK
6
CONTINUOUS
10
0.525983
20
0.375426
11
0.526165
21
0.375138
0
LINE
8
BLACK
6
CONTINUOUS
10
0.526165
20
0.375138
11
0.526454
21
0.374955
0
LINE
8
BLACK
6
CONTINUOUS
10
0.526454
20
0.374955
11
0.526551
21
0.374525
0
LINE
8
BLACK
6
CONTINUOUS
10
0.526551
20
0.374525
11
0.526787
21
0.374152
0
LINE
8
BLACK
6
CONTINUOUS
10
0.526787
20
0.374152
11
0.526711
21
0.373819
0
LINE
8
BLACK
6
CONTINUOUS
10
0.526711
20
0.373819
11
0.526787
21
0.373486
0
LINE
8
BLACK
6
CONTINUOUS
10
0.526787
20
0.373486
11
0.526551
21
0.373113
0
LINE
8
BLACK
6
CONTINUOUS
10
0.526551
20
0.373113
11
0.526454
21
0.372682
0
LINE
8
BLACK
6
CONTINUOUS
10
0.526454
20
0.372682
11
0.526165
21
0.3725
0
LINE
8
BLACK
6
CONTINUOUS
10
0.526165
20
0.3725
11
0.525983
21
0.372212
0
LINE
8
BLACK
6
CONTINUOUS
10
0.525983
20
0.372212
11
0.498976
21
0.353115
0
LINE
8
BLACK
6
CONTINUOUS
10
0.498976
20
0.353115
11
0.498976
21
0.139567
0
LINE
8
BLACK
6
CONTINUOUS
10
0.498976
20
0.139567
11
0.654488
21
0.139567
0
LINE
8
BLACK
6
CONTINUOUS
10
0.654488
20
0.139567
11
0.654488
21
0.460433
0
LINE
8
BLACK
6
CONTINUOUS
10
0.654488
20
0.460433
11
0.498976
21
0.460433
0
LINE
8
BLACK
6
CONTINUOUS
10
0.498976
20
0.357937
11
0.521437
21
0.373819
0
LINE
8
BLACK
6
CONTINUOUS
10
0.521437
20
0.373819
11
0.498976
21
0.389701
0
LINE
8
BLACK
6
CONTINUOUS
10
0.498976
20
0.389701
11
0.498976
21
0.357937
0
LINE
8
BLACK
6
CONTINUOUS
10
0.704338
20
0.209974
11
0.704473
21
0.20986
0
LINE
8
BLACK
6
CONTINUOUS
10
0.704473
20
0.20986
11
0.704649
21
0.20984
0
LINE
8
BLACK
6
CONTINUOUS
10
0.704649
20
0.20984
11
0.708398
21
0.207965
0
LINE
8
BLACK
6
CONTINUOUS
10
0.708398
20
0.207965
11
0.709107
21
0.207439
0
LINE
8
BLACK
6
CONTINUOUS
10
0.709107
20
0.207439
11
0.709166
21
0.207412
0
LINE
8
BLACK
6
CONTINUOUS
10
0.709166
20
0.207412
11
0.71104
21
0.205537
0
LINE
8
BLACK
6
CONTINUOUS
10
0.71104
20
0.205537
11
0.711547
21
0.204814
0
LINE
8
BLACK
6
CONTINUOUS
10
0.711547
20
0.204814
11
0.711593
21
0.20477
0
LINE
8
BLACK
6
CONTINUOUS
10
0.711593
20
0.20477
11
0.713468
21
0.201021
0
LINE
8
BLACK
6
CONTINUOUS
10
0.713468
20
0.201021
11
0.713613
21
0.200532
0
LINE
8
BLACK
6
CONTINUOUS
10
0.713613
20
0.200532
11
0.713692
21
0.200416
0
LINE
8
BLACK
6
CONTINUOUS
10
0.713692
20
0.200416
11
0.715488
21
0.193232
0
LINE
8
BLACK
6
CONTINUOUS
10
0.715488
20
0.193232
11
0.717003
21
0.190201
0
LINE
8
BLACK
6
CONTINUOUS
10
0.717003
20
0.190201
11
0.7182
21
0.189003
0
LINE
8
BLACK
6
CONTINUOUS
10
0.7182
20
0.189003
11
0.720898
21
0.187655
0
LINE
8
BLACK
6
CONTINUOUS
10
0.720898
20
0.187655
11
0.723253
21
0.187655
0
LINE
8
BLACK
6
CONTINUOUS
10
0.723253
20
0.187655
11
0.725951
21
0.189003
0
LINE
8
BLACK
6
CONTINUOUS
10
0.725951
20
0.189003
11
0.727148
21
0.190201
0
LINE
8
BLACK
6
CONTINUOUS
10
0.727148
20
0.190201
11
0.728497
21
0.192898
0
LINE
8
BLACK
6
CONTINUOUS
10
0.728497
20
0.192898
11
0.728497
21
0.201096
0
LINE
8
BLACK
6
CONTINUOUS
10
0.728497
20
0.201096
11
0.726774
21
0.206265
0
LINE
8
BLACK
6
CONTINUOUS
10
0.726774
20
0.206265
11
0.726623
21
0.20728
0
LINE
8
BLACK
6
CONTINUOUS
10
0.726623
20
0.20728
11
0.727366
21
0.209158
0
LINE
8
BLACK
6
CONTINUOUS
10
0.727366
20
0.209158
11
0.729142
21
0.21012
0
LINE
8
BLACK
6
CONTINUOUS
10
0.729142
20
0.21012
11
0.73112
21
0.209715
0
LINE
8
BLACK
6
CONTINUOUS
10
0.73112
20
0.209715
11
0.732376
21
0.208133
0
LINE
8
BLACK
6
CONTINUOUS
10
0.732376
20
0.208133
11
0.734251
21
0.202509
0
LINE
8
BLACK
6
CONTINUOUS
10
0.734251
20
0.202509
11
0.73438
21
0.201635
0
LINE
8
BLACK
6
CONTINUOUS
10
0.73438
20
0.201635
11
0.734402
21
0.201575
0
LINE
8
BLACK
6
CONTINUOUS
10
0.734402
20
0.201575
11
0.734402
21
0.192201
0
LINE
8
BLACK
6
CONTINUOUS
10
0.734402
20
0.192201
11
0.734224
21
0.191191
0
LINE
8
BLACK
6
CONTINUOUS
10
0.734224
20
0.191191
11
0.734111
21
0.191056
0
LINE
8
BLACK
6
CONTINUOUS
10
0.734111
20
0.191056
11
0.734091
21
0.19088
0
LINE
8
BLACK
6
CONTINUOUS
10
0.734091
20
0.19088
11
0.732216
21
0.187131
0
LINE
8
BLACK
6
CONTINUOUS
10
0.732216
20
0.187131
11
0.73169
21
0.186422
0
LINE
8
BLACK
6
CONTINUOUS
10
0.73169
20
0.186422
11
0.731663
21
0.186364
0
LINE
8
BLACK
6
CONTINUOUS
10
0.731663
20
0.186364
11
0.729788
21
0.184489
0
LINE
8
BLACK
6
CONTINUOUS
10
0.729788
20
0.184489
11
0.729065
21
0.183982
0
LINE
8
BLACK
6
CONTINUOUS
10
0.729065
20
0.183982
11
0.729021
21
0.183936
0
LINE
8
BLACK
6
CONTINUOUS
10
0.729021
20
0.183936
11
0.725271
21
0.182061
0
LINE
8
BLACK
6
CONTINUOUS
10
0.725271
20
0.182061
11
0.724288
21
0.181769
0
LINE
8
BLACK
6
CONTINUOUS
10
0.724288
20
0.181769
11
0.724116
21
0.18181
0
LINE
8
BLACK
6
CONTINUOUS
10
0.724116
20
0.18181
11
0.72395
21
0.181749
0
LINE
8
BLACK
6
CONTINUOUS
10
0.72395
20
0.181749
11
0.720201
21
0.181749
0
LINE
8
BLACK
6
CONTINUOUS
10
0.720201
20
0.181749
11
0.719191
21
0.181927
0
LINE
8
BLACK
6
CONTINUOUS
10
0.719191
20
0.181927
11
0.719056
21
0.182041
0
LINE
8
BLACK
6
CONTINUOUS
10
0.719056
20
0.182041
11
0.71888
21
0.182061
0
LINE
8
BLACK
6
CONTINUOUS
10
0.71888
20
0.182061
11
0.715131
21
0.183936
0
LINE
8
BLACK
6
CONTINUOUS
10
0.715131
20
0.183936
11
0.714422
21
0.184462
0
LINE
8
BLACK
6
CONTINUOUS
10
0.714422
20
0.184462
11
0.714364
21
0.184489
0
LINE
8
BLACK
6
CONTINUOUS
10
0.714364
20
0.184489
11
0.712489
21
0.186364
0
LINE
8
BLACK
6
CONTINUOUS
10
0.712489
20
0.186364
11
0.711982
21
0.187087
0
LINE
8
BLACK
6
CONTINUOUS
10
0.711982
20
0.187087
11
0.711936
21
0.187131
0
LINE
8
BLACK
6
CONTINUOUS
10
0.711936
20
0.187131
11
0.710061
21
0.19088
0
LINE
8
BLACK
6
CONTINUOUS
10
0.710061
20
0.19088
11
0.709916
21
0.191369
0
LINE
8
BLACK
6
CONTINUOUS
10
0.709916
20
0.191369
11
0.709837
21
0.191485
0
LINE
8
BLACK
6
CONTINUOUS
10
0.709837
20
0.191485
11
0.708041
21
0.198669
0
LINE
8
BLACK
6
CONTINUOUS
10
0.708041
20
0.198669
11
0.706526
21
0.2017
0
LINE
8
BLACK
6
CONTINUOUS
10
0.706526
20
0.2017
11
0.705329
21
0.202898
0
LINE
8
BLACK
6
CONTINUOUS
10
0.705329
20
0.202898
11
0.702631
21
0.204246
0
LINE
8
BLACK
6
CONTINUOUS
10
0.702631
20
0.204246
11
0.700276
21
0.204246
0
LINE
8
BLACK
6
CONTINUOUS
10
0.700276
20
0.204246
11
0.697578
21
0.202898
0
LINE
8
BLACK
6
CONTINUOUS
10
0.697578
20
0.202898
11
0.696381
21
0.2017
0
LINE
8
BLACK
6
CONTINUOUS
10
0.696381
20
0.2017
11
0.695032
21
0.199003
0
LINE
8
BLACK
6
CONTINUOUS
10
0.695032
20
0.199003
11
0.695032
21
0.190805
0
LINE
8
BLACK
6
CONTINUOUS
10
0.695032
20
0.190805
11
0.696755
21
0.185636
0
LINE
8
BLACK
6
CONTINUOUS
10
0.696755
20
0.185636
11
0.696906
21
0.184621
0
LINE
8
BLACK
6
CONTINUOUS
10
0.696906
20
0.184621
11
0.696164
21
0.182743
0
LINE
8
BLACK
6
CONTINUOUS
10
0.696164
20
0.182743
11
0.694387
21
0.181781
0
LINE
8
BLACK
6
CONTINUOUS
10
0.694387
20
0.181781
11
0.692409
21
0.182186
0
LINE
8
BLACK
6
CONTINUOUS
10
0.692409
20
0.182186
11
0.691153
21
0.183768
0
LINE
8
BLACK
6
CONTINUOUS
10
0.691153
20
0.183768
11
0.689278
21
0.189392
0
LINE
8
BLACK
6
CONTINUOUS
10
0.689278
20
0.189392
11
0.689149
21
0.190266
0
LINE
8
BLACK
6
CONTINUOUS
10
0.689149
20
0.190266
11
0.689127
21
0.190326
0
LINE
8
BLACK
6
CONTINUOUS
10
0.689127
20
0.190326
11
0.689127
21
0.1997
0
LINE
8
BLACK
6
CONTINUOUS
10
0.689127
20
0.1997
11
0.689305
21
0.20071
0
LINE
8
BLACK
6
CONTINUOUS
10
0.689305
20
0.20071
11
0.689418
21
0.200845
0
LINE
8
BLACK
6
CONTINUOUS
10
0.689418
20
0.200845
11
0.689438
21
0.201021
0
LINE
8
BLACK
6
CONTINUOUS
10
0.689438
20
0.201021
11
0.691313
21
0.20477
0
LINE
8
BLACK
6
CONTINUOUS
10
0.691313
20
0.20477
11
0.691839
21
0.205479
0
LINE
8
BLACK
6
CONTINUOUS
10
0.691839
20
0.205479
11
0.691866
21
0.205537
0
LINE
8
BLACK
6
CONTINUOUS
10
0.691866
20
0.205537
11
0.693741
21
0.207412
0
LINE
8
BLACK
6
CONTINUOUS
10
0.693741
20
0.207412
11
0.694464
21
0.207919
0
LINE
8
BLACK
6
CONTINUOUS
10
0.694464
20
0.207919
11
0.694509
21
0.207965
0
LINE
8
BLACK
6
CONTINUOUS
10
0.694509
20
0.207965
11
0.698258
21
0.20984
0
LINE
8
BLACK
6
CONTINUOUS
10
0.698258
20
0.20984
11
0.699241
21
0.210132
0
LINE
8
BLACK
6
CONTINUOUS
10
0.699241
20
0.210132
11
0.699413
21
0.210091
0
LINE
8
BLACK
6
CONTINUOUS
10
0.699413
20
0.210091
11
0.699579
21
0.210152
0
LINE
8
BLACK
6
CONTINUOUS
10
0.699579
20
0.210152
11
0.703328
21
0.210152
0
LINE
8
BLACK
6
CONTINUOUS
10
0.703328
20
0.210152
11
0.704338
21
0.209974
0
LINE
8
BLACK
6
CONTINUOUS
10
0.732459
20
0.249344
11
0.734007
21
0.248046
0
LINE
8
BLACK
6
CONTINUOUS
10
0.734007
20
0.248046
11
0.734357
21
0.246056
0
LINE
8
BLACK
6
CONTINUOUS
10
0.734357
20
0.246056
11
0.733348
21
0.244307
0
LINE
8
BLACK
6
CONTINUOUS
10
0.733348
20
0.244307
11
0.73145
21
0.243616
0
LINE
8
BLACK
6
CONTINUOUS
10
0.73145
20
0.243616
11
0.71378
21
0.243616
0
LINE
8
BLACK
6
CONTINUOUS
10
0.71378
20
0.243616
11
0.71378
21
0.227025
0
LINE
8
BLACK
6
CONTINUOUS
10
0.71378
20
0.227025
11
0.73145
21
0.227025
0
LINE
8
BLACK
6
CONTINUOUS
10
0.73145
20
0.227025
11
0.732459
21
0.226847
0
LINE
8
BLACK
6
CONTINUOUS
10
0.732459
20
0.226847
11
0.734007
21
0.225548
0
LINE
8
BLACK
6
CONTINUOUS
10
0.734007
20
0.225548
11
0.734357
21
0.223559
0
LINE
8
BLACK
6
CONTINUOUS
10
0.734357
20
0.223559
11
0.733348
21
0.22181
0
LINE
8
BLACK
6
CONTINUOUS
10
0.733348
20
0.22181
11
0.73145
21
0.221119
0
LINE
8
BLACK
6
CONTINUOUS
10
0.73145
20
0.221119
11
0.692079
21
0.221119
0
LINE
8
BLACK
6
CONTINUOUS
10
0.692079
20
0.221119
11
0.69107
21
0.221297
0
LINE
8
BLACK
6
CONTINUOUS
10
0.69107
20
0.221297
11
0.689522
21
0.222596
0
LINE
8
BLACK
6
CONTINUOUS
10
0.689522
20
0.222596
11
0.689172
21
0.224585
0
LINE
8
BLACK
6
CONTINUOUS
10
0.689172
20
0.224585
11
0.690181
21
0.226334
0
LINE
8
BLACK
6
CONTINUOUS
10
0.690181
20
0.226334
11
0.692079
21
0.227025
0
LINE
8
BLACK
6
CONTINUOUS
10
0.692079
20
0.227025
11
0.707874
21
0.227025
0
LINE
8
BLACK
6
CONTINUOUS
10
0.707874
20
0.227025
11
0.707874
21
0.243616
0
LINE
8
BLACK
6
CONTINUOUS
10
0.707874
20
0.243616
11
0.692079
21
0.243616
0
LINE
8
BLACK
6
CONTINUOUS
10
0.692079
20
0.243616
11
0.69107
21
0.243794
0
LINE
8
BLACK
6
CONTINUOUS
10
0.69107
20
0.243794
11
0.689522
21
0.245093
0
LINE
8
BLACK
6
CONTINUOUS
10
0.689522
20
0.245093
11
0.689172
21
0.247082
0
LINE
8
BLACK
6
CONTINUOUS
10
0.689172
20
0.247082
11
0.690181
21
0.248831
0
LINE
8
BLACK
6
CONTINUOUS
10
0.690181
20
0.248831
11
0.692079
21
0.249522
0
LINE
8
BLACK
6
CONTINUOUS
10
0.692079
20
0.249522
11
0.73145
21
0.249522
0
LINE
8
BLACK
6
CONTINUOUS
10
0.73145
20
0.249522
11
0.732459
21
0.249344
0
LINE
8
BLACK
6
CONTINUOUS
10
0.715157
20
0.290664
11
0.715293
21
0.290679
0
LINE
8
BLACK
6
CONTINUOUS
10
0.715293
20
0.290679
11
0.722792
21
0.288804
0
LINE
8
BLACK
6
CONTINUOUS
10
0.722792
20
0.288804
11
0.723257
21
0.288596
0
LINE
8
BLACK
6
CONTINUOUS
10
0.723257
20
0.288596
11
0.723396
21
0.28858
0
LINE
8
BLACK
6
CONTINUOUS
10
0.723396
20
0.28858
11
0.727146
21
0.286706
0
LINE
8
BLACK
6
CONTINUOUS
10
0.727146
20
0.286706
11
0.727855
21
0.28618
0
LINE
8
BLACK
6
CONTINUOUS
10
0.727855
20
0.28618
11
0.727913
21
0.286152
0
LINE
8
BLACK
6
CONTINUOUS
10
0.727913
20
0.286152
11
0.731663
21
0.282403
0
LINE
8
BLACK
6
CONTINUOUS
10
0.731663
20
0.282403
11
0.732251
21
0.281563
0
LINE
8
BLACK
6
CONTINUOUS
10
0.732251
20
0.281563
11
0.732266
21
0.281387
0
LINE
8
BLACK
6
CONTINUOUS
10
0.732266
20
0.281387
11
0.732376
21
0.281249
0
LINE
8
BLACK
6
CONTINUOUS
10
0.732376
20
0.281249
11
0.734251
21
0.275624
0
LINE
8
BLACK
6
CONTINUOUS
10
0.734251
20
0.275624
11
0.73438
21
0.274751
0
LINE
8
BLACK
6
CONTINUOUS
10
0.73438
20
0.274751
11
0.734402
21
0.274691
0
LINE
8
BLACK
6
CONTINUOUS
10
0.734402
20
0.274691
11
0.734402
21
0.270941
0
LINE
8
BLACK
6
CONTINUOUS
10
0.734402
20
0.270941
11
0.734249
21
0.270072
0
LINE
8
BLACK
6
CONTINUOUS
10
0.734249
20
0.270072
11
0.734251
21
0.270007
0
LINE
8
BLACK
6
CONTINUOUS
10
0.734251
20
0.270007
11
0.732376
21
0.264383
0
LINE
8
BLACK
6
CONTINUOUS
10
0.732376
20
0.264383
11
0.731888
21
0.263481
0
LINE
8
BLACK
6
CONTINUOUS
10
0.731888
20
0.263481
11
0.731737
21
0.263389
0
LINE
8
BLACK
6
CONTINUOUS
10
0.731737
20
0.263389
11
0.731663
21
0.263229
0
LINE
8
BLACK
6
CONTINUOUS
10
0.731663
20
0.263229
11
0.729788
21
0.261354
0
LINE
8
BLACK
6
CONTINUOUS
10
0.729788
20
0.261354
11
0.729638
21
0.261249
0
LINE
8
BLACK
6
CONTINUOUS
10
0.729638
20
0.261249
11
0.729598
21
0.26118
0
LINE
8
BLACK
6
CONTINUOUS
10
0.729598
20
0.26118
11
0.729476
21
0.261136
0
LINE
8
BLACK
6
CONTINUOUS
10
0.729476
20
0.261136
11
0.728948
21
0.260766
0
LINE
8
BLACK
6
CONTINUOUS
10
0.728948
20
0.260766
11
0.728306
21
0.26071
0
LINE
8
BLACK
6
CONTINUOUS
10
0.728306
20
0.26071
11
0.7277
21
0.260489
0
LINE
8
BLACK
6
CONTINUOUS
10
0.7277
20
0.260489
11
0.714577
21
0.260489
0
LINE
8
BLACK
6
CONTINUOUS
10
0.714577
20
0.260489
11
0.714193
21
0.260557
0
LINE
8
BLACK
6
CONTINUOUS
10
0.714193
20
0.260557
11
0.714064
21
0.260534
0
LINE
8
BLACK
6
CONTINUOUS
10
0.714064
20
0.260534
11
0.71395
21
0.2606
0
LINE
8
BLACK
6
CONTINUOUS
10
0.71395
20
0.2606
11
0.713567
21
0.260667
0
LINE
8
BLACK
6
CONTINUOUS
10
0.713567
20
0.260667
11
0.712979
21
0.261161
0
LINE
8
BLACK
6
CONTINUOUS
10
0.712979
20
0.261161
11
0.712315
21
0.261544
0
LINE
8
BLACK
6
CONTINUOUS
10
0.712315
20
0.261544
11
0.712224
21
0.261794
0
LINE
8
BLACK
6
CONTINUOUS
10
0.712224
20
0.261794
11
0.712019
21
0.261966
0
LINE
8
BLACK
6
CONTINUOUS
10
0.712019
20
0.261966
11
0.711886
21
0.262721
0
LINE
8
BLACK
6
CONTINUOUS
10
0.711886
20
0.262721
11
0.711624
21
0.263442
0
LINE
8
BLACK
6
CONTINUOUS
10
0.711624
20
0.263442
11
0.711624
21
0.270941
0
LINE
8
BLACK
6
CONTINUOUS
10
0.711624
20
0.270941
11
0.711802
21
0.271951
0
LINE
8
BLACK
6
CONTINUOUS
10
0.711802
20
0.271951
11
0.7131
21
0.273498
0
LINE
8
BLACK
6
CONTINUOUS
10
0.7131
20
0.273498
11
0.715089
21
0.273849
0
LINE
8
BLACK
6
CONTINUOUS
10
0.715089
20
0.273849
11
0.716839
21
0.272839
0
LINE
8
BLACK
6
CONTINUOUS
10
0.716839
20
0.272839
11
0.717529
21
0.270941
0
LINE
8
BLACK
6
CONTINUOUS
10
0.717529
20
0.270941
11
0.717529
21
0.266395
0
LINE
8
BLACK
6
CONTINUOUS
10
0.717529
20
0.266395
11
0.726477
21
0.266395
0
LINE
8
BLACK
6
CONTINUOUS
10
0.726477
20
0.266395
11
0.726994
21
0.266912
0
LINE
8
BLACK
6
CONTINUOUS
10
0.726994
20
0.266912
11
0.728497
21
0.27142
0
LINE
8
BLACK
6
CONTINUOUS
10
0.728497
20
0.27142
11
0.728497
21
0.274212
0
LINE
8
BLACK
6
CONTINUOUS
10
0.728497
20
0.274212
11
0.726994
21
0.27872
0
LINE
8
BLACK
6
CONTINUOUS
10
0.726994
20
0.27872
11
0.724076
21
0.281638
0
LINE
8
BLACK
6
CONTINUOUS
10
0.724076
20
0.281638
11
0.721045
21
0.283153
0
LINE
8
BLACK
6
CONTINUOUS
10
0.721045
20
0.283153
11
0.714213
21
0.284861
0
LINE
8
BLACK
6
CONTINUOUS
10
0.714213
20
0.284861
11
0.709316
21
0.284861
0
LINE
8
BLACK
6
CONTINUOUS
10
0.709316
20
0.284861
11
0.702484
21
0.283153
0
LINE
8
BLACK
6
CONTINUOUS
10
0.702484
20
0.283153
11
0.699453
21
0.281638
0
LINE
8
BLACK
6
CONTINUOUS
10
0.699453
20
0.281638
11
0.696535
21
0.27872
0
LINE
8
BLACK
6
CONTINUOUS
10
0.696535
20
0.27872
11
0.695032
21
0.274212
0
LINE
8
BLACK
6
CONTINUOUS
10
0.695032
20
0.274212
11
0.695032
21
0.269763
0
LINE
8
BLACK
6
CONTINUOUS
10
0.695032
20
0.269763
11
0.696595
21
0.266637
0
LINE
8
BLACK
6
CONTINUOUS
10
0.696595
20
0.266637
11
0.696888
21
0.265654
0
LINE
8
BLACK
6
CONTINUOUS
10
0.696888
20
0.265654
11
0.696418
21
0.26369
0
LINE
8
BLACK
6
CONTINUOUS
10
0.696418
20
0.26369
11
0.694796
21
0.262487
0
LINE
8
BLACK
6
CONTINUOUS
10
0.694796
20
0.262487
11
0.69278
21
0.262608
0
LINE
8
BLACK
6
CONTINUOUS
10
0.69278
20
0.262608
11
0.691313
21
0.263996
0
LINE
8
BLACK
6
CONTINUOUS
10
0.691313
20
0.263996
11
0.689438
21
0.267746
0
LINE
8
BLACK
6
CONTINUOUS
10
0.689438
20
0.267746
11
0.689146
21
0.268729
0
LINE
8
BLACK
6
CONTINUOUS
10
0.689146
20
0.268729
11
0.689187
21
0.268901
0
LINE
8
BLACK
6
CONTINUOUS
10
0.689187
20
0.268901
11
0.689127
21
0.269066
0
LINE
8
BLACK
6
CONTINUOUS
10
0.689127
20
0.269066
11
0.689127
21
0.274691
0
LINE
8
BLACK
6
CONTINUOUS
10
0.689127
20
0.274691
11
0.68928
21
0.27556
0
LINE
8
BLACK
6
CONTINUOUS
10
0.68928
20
0.27556
11
0.689278
21
0.275624
0
LINE
8
BLACK
6
CONTINUOUS
10
0.689278
20
0.275624
11
0.691153
21
0.281249
0
LINE
8
BLACK
6
CONTINUOUS
10
0.691153
20
0.281249
11
0.691641
21
0.28215
0
LINE
8
BLACK
6
CONTINUOUS
10
0.691641
20
0.28215
11
0.691792
21
0.282243
0
LINE
8
BLACK
6
CONTINUOUS
10
0.691792
20
0.282243
11
0.691866
21
0.282403
0
LINE
8
BLACK
6
CONTINUOUS
10
0.691866
20
0.282403
11
0.695616
21
0.286152
0
LINE
8
BLACK
6
CONTINUOUS
10
0.695616
20
0.286152
11
0.696339
21
0.286659
0
LINE
8
BLACK
6
CONTINUOUS
10
0.696339
20
0.286659
11
0.696383
21
0.286706
0
LINE
8
BLACK
6
CONTINUOUS
10
0.696383
20
0.286706
11
0.700133
21
0.28858
0
LINE
8
BLACK
6
CONTINUOUS
10
0.700133
20
0.28858
11
0.700621
21
0.288726
0
LINE
8
BLACK
6
CONTINUOUS
10
0.700621
20
0.288726
11
0.700737
21
0.288804
0
LINE
8
BLACK
6
CONTINUOUS
10
0.700737
20
0.288804
11
0.708236
21
0.290679
0
LINE
8
BLACK
6
CONTINUOUS
10
0.708236
20
0.290679
11
0.708824
21
0.29072
0
LINE
8
BLACK
6
CONTINUOUS
10
0.708824
20
0.29072
11
0.708952
21
0.290767
0
LINE
8
BLACK
6
CONTINUOUS
10
0.708952
20
0.290767
11
0.714577
21
0.290767
0
LINE
8
BLACK
6
CONTINUOUS
10
0.714577
20
0.290767
11
0.715157
21
0.290664
0
LINE
8
BLACK
6
CONTINUOUS
10
0.718713
20
0.336581
11
0.719404
21
0.334683
0
LINE
8
BLACK
6
CONTINUOUS
10
0.719404
20
0.334683
11
0.719404
21
0.304687
0
LINE
8
BLACK
6
CONTINUOUS
10
0.719404
20
0.304687
11
0.719226
21
0.303677
0
LINE
8
BLACK
6
CONTINUOUS
10
0.719226
20
0.303677
11
0.717928
21
0.30213
0
LINE
8
BLACK
6
CONTINUOUS
10
0.717928
20
0.30213
11
0.715939
21
0.301779
0
LINE
8
BLACK
6
CONTINUOUS
10
0.715939
20
0.301779
11
0.714189
21
0.302789
0
LINE
8
BLACK
6
CONTINUOUS
10
0.714189
20
0.302789
11
0.713499
21
0.304687
0
LINE
8
BLACK
6
CONTINUOUS
10
0.713499
20
0.304687
11
0.713499
21
0.334683
0
LINE
8
BLACK
6
CONTINUOUS
10
0.713499
20
0.334683
11
0.713677
21
0.335693
0
LINE
8
BLACK
6
CONTINUOUS
10
0.713677
20
0.335693
11
0.714975
21
0.33724
0
LINE
8
BLACK
6
CONTINUOUS
10
0.714975
20
0.33724
11
0.716964
21
0.337591
0
LINE
8
BLACK
6
CONTINUOUS
10
0.716964
20
0.337591
11
0.718713
21
0.336581
0
LINE
8
BLACK
6
CONTINUOUS
10
0.731833
20
0.376938
11
0.731962
21
0.376961
0
LINE
8
BLACK
6
CONTINUOUS
10
0.731962
20
0.376961
11
0.732076
21
0.376896
0
LINE
8
BLACK
6
CONTINUOUS
10
0.732076
20
0.376896
11
0.732459
21
0.376828
0
LINE
8
BLACK
6
CONTINUOUS
10
0.732459
20
0.376828
11
0.733047
21
0.376335
0
LINE
8
BLACK
6
CONTINUOUS
10
0.733047
20
0.376335
11
0.733711
21
0.375951
0
LINE
8
BLACK
6
CONTINUOUS
10
0.733711
20
0.375951
11
0.733803
21
0.375701
0
LINE
8
BLACK
6
CONTINUOUS
10
0.733803
20
0.375701
11
0.734007
21
0.37553
0
LINE
8
BLACK
6
CONTINUOUS
10
0.734007
20
0.37553
11
0.73414
21
0.374774
0
LINE
8
BLACK
6
CONTINUOUS
10
0.73414
20
0.374774
11
0.734402
21
0.374053
0
LINE
8
BLACK
6
CONTINUOUS
10
0.734402
20
0.374053
11
0.734402
21
0.359055
0
LINE
8
BLACK
6
CONTINUOUS
10
0.734402
20
0.359055
11
0.734224
21
0.358045
0
LINE
8
BLACK
6
CONTINUOUS
10
0.734224
20
0.358045
11
0.734111
21
0.35791
0
LINE
8
BLACK
6
CONTINUOUS
10
0.734111
20
0.35791
11
0.734091
21
0.357735
0
LINE
8
BLACK
6
CONTINUOUS
10
0.734091
20
0.357735
11
0.732216
21
0.353985
0
LINE
8
BLACK
6
CONTINUOUS
10
0.732216
20
0.353985
11
0.73169
21
0.353276
0
LINE
8
BLACK
6
CONTINUOUS
10
0.73169
20
0.353276
11
0.731663
21
0.353218
0
LINE
8
BLACK
6
CONTINUOUS
10
0.731663
20
0.353218
11
0.729788
21
0.351343
0
LINE
8
BLACK
6
CONTINUOUS
10
0.729788
20
0.351343
11
0.729065
21
0.350837
0
LINE
8
BLACK
6
CONTINUOUS
10
0.729065
20
0.350837
11
0.729021
21
0.35079
0
LINE
8
BLACK
6
CONTINUOUS
10
0.729021
20
0.35079
11
0.725271
21
0.348915
0
LINE
8
BLACK
6
CONTINUOUS
10
0.725271
20
0.348915
11
0.724288
21
0.348623
0
LINE
8
BLACK
6
CONTINUOUS
10
0.724288
20
0.348623
11
0.724116
21
0.348664
0
LINE
8
BLACK
6
CONTINUOUS
10
0.724116
20
0.348664
11
0.72395
21
0.348603
0
LINE
8
BLACK
6
CONTINUOUS
10
0.72395
20
0.348603
11
0.718326
21
0.348603
0
LINE
8
BLACK
6
CONTINUOUS
10
0.718326
20
0.348603
11
0.717316
21
0.348781
0
LINE
8
BLACK
6
CONTINUOUS
10
0.717316
20
0.348781
11
0.717181
21
0.348895
0
LINE
8
BLACK
6
CONTINUOUS
10
0.717181
20
0.348895
11
0.717006
21
0.348915
0
LINE
8
BLACK
6
CONTINUOUS
10
0.717006
20
0.348915
11
0.713256
21
0.35079
0
LINE
8
BLACK
6
CONTINUOUS
10
0.713256
20
0.35079
11
0.712547
21
0.351316
0
LINE
8
BLACK
6
CONTINUOUS
10
0.712547
20
0.351316
11
0.712489
21
0.351343
0
LINE
8
BLACK
6
CONTINUOUS
10
0.712489
20
0.351343
11
0.710614
21
0.353218
0
LINE
8
BLACK
6
CONTINUOUS
10
0.710614
20
0.353218
11
0.710026
21
0.354058
0
LINE
8
BLACK
6
CONTINUOUS
10
0.710026
20
0.354058
11
0.710024
21
0.354076
0
LINE
8
BLACK
6
CONTINUOUS
10
0.710024
20
0.354076
11
0.709166
21
0.353218
0
LINE
8
BLACK
6
CONTINUOUS
10
0.709166
20
0.353218
11
0.708442
21
0.352711
0
LINE
8
BLACK
6
CONTINUOUS
10
0.708442
20
0.352711
11
0.708398
21
0.352665
0
LINE
8
BLACK
6
CONTINUOUS
10
0.708398
20
0.352665
11
0.704649
21
0.35079
0
LINE
8
BLACK
6
CONTINUOUS
10
0.704649
20
0.35079
11
0.703666
21
0.350497
0
LINE
8
BLACK
6
CONTINUOUS
10
0.703666
20
0.350497
11
0.703494
21
0.350538
0
LINE
8
BLACK
6
CONTINUOUS
10
0.703494
20
0.350538
11
0.703328
21
0.350478
0
LINE
8
BLACK
6
CONTINUOUS
10
0.703328
20
0.350478
11
0.699579
21
0.350478
0
LINE
8
BLACK
6
CONTINUOUS
10
0.699579
20
0.350478
11
0.698569
21
0.350656
0
LINE
8
BLACK
6
CONTINUOUS
10
0.698569
20
0.350656
11
0.698433
21
0.35077
0
LINE
8
BLACK
6
CONTINUOUS
10
0.698433
20
0.35077
11
0.698258
21
0.35079
0
LINE
8
BLACK
6
CONTINUOUS
10
0.698258
20
0.35079
11
0.694509
21
0.352665
0
LINE
8
BLACK
6
CONTINUOUS
10
0.694509
20
0.352665
11
0.693799
21
0.35319
0
LINE
8
BLACK
6
CONTINUOUS
10
0.693799
20
0.35319
11
0.693741
21
0.353218
0
LINE
8
BLACK
6
CONTINUOUS
10
0.693741
20
0.353218
11
0.691866
21
0.355092
0
LINE
8
BLACK
6
CONTINUOUS
10
0.691866
20
0.355092
11
0.69136
21
0.355816
0
LINE
8
BLACK
6
CONTINUOUS
10
0.69136
20
0.355816
11
0.691313
21
0.35586
0
LINE
8
BLACK
6
CONTINUOUS
10
0.691313
20
0.35586
11
0.689438
21
0.359609
0
LINE
8
BLACK
6
CONTINUOUS
10
0.689438
20
0.359609
11
0.689146
21
0.360592
0
LINE
8
BLACK
6
CONTINUOUS
10
0.689146
20
0.360592
11
0.689187
21
0.360764
0
LINE
8
BLACK
6
CONTINUOUS
10
0.689187
20
0.360764
11
0.689127
21
0.36093
0
LINE
8
BLACK
6
CONTINUOUS
10
0.689127
20
0.36093
11
0.689127
21
0.374053
0
LINE
8
BLACK
6
CONTINUOUS
10
0.689127
20
0.374053
11
0.689194
21
0.374437
0
LINE
8
BLACK
6
CONTINUOUS
10
0.689194
20
0.374437
11
0.689172
21
0.374566
0
LINE
8
BLACK
6
CONTINUOUS
10
0.689172
20
0.374566
11
0.689237
21
0.37468
0
LINE
8
BLACK
6
CONTINUOUS
10
0.689237
20
0.37468
11
0.689305
21
0.375063
0
LINE
8
BLACK
6
CONTINUOUS
10
0.689305
20
0.375063
11
0.689798
21
0.375651
0
LINE
8
BLACK
6
CONTINUOUS
10
0.689798
20
0.375651
11
0.690181
21
0.376315
0
LINE
8
BLACK
6
CONTINUOUS
10
0.690181
20
0.376315
11
0.690432
21
0.376406
0
LINE
8
BLACK
6
CONTINUOUS
10
0.690432
20
0.376406
11
0.690603
21
0.37661
0
LINE
8
BLACK
6
CONTINUOUS
10
0.690603
20
0.37661
11
0.691359
21
0.376744
0
LINE
8
BLACK
6
CONTINUOUS
10
0.691359
20
0.376744
11
0.692079
21
0.377006
0
LINE
8
BLACK
6
CONTINUOUS
10
0.692079
20
0.377006
11
0.73145
21
0.377006
0
LINE
8
BLACK
6
CONTINUOUS
10
0.73145
20
0.377006
11
0.731833
21
0.376938
0
LINE
8
BLACK
6
CONTINUOUS
10
0.71378
20
0.361409
11
0.715283
21
0.356901
0
LINE
8
BLACK
6
CONTINUOUS
10
0.715283
20
0.356901
11
0.716326
21
0.355858
0
LINE
8
BLACK
6
CONTINUOUS
10
0.716326
20
0.355858
11
0.719023
21
0.354509
0
LINE
8
BLACK
6
CONTINUOUS
10
0.719023
20
0.354509
11
0.723253
21
0.354509
0
LINE
8
BLACK
6
CONTINUOUS
10
0.723253
20
0.354509
11
0.725951
21
0.355858
0
LINE
8
BLACK
6
CONTINUOUS
10
0.725951
20
0.355858
11
0.727148
21
0.357055
0
LINE
8
BLACK
6
CONTINUOUS
10
0.727148
20
0.357055
11
0.728497
21
0.359752
0
LINE
8
BLACK
6
CONTINUOUS
10
0.728497
20
0.359752
11
0.728497
21
0.3711
0
LINE
8
BLACK
6
CONTINUOUS
10
0.728497
20
0.3711
11
0.71378
21
0.3711
0
LINE
8
BLACK
6
CONTINUOUS
10
0.71378
20
0.3711
11
0.71378
21
0.361409
0
LINE
8
BLACK
6
CONTINUOUS
10
0.695032
20
0.361627
11
0.696381
21
0.358929
0
LINE
8
BLACK
6
CONTINUOUS
10
0.696381
20
0.358929
11
0.697578
21
0.357732
0
LINE
8
BLACK
6
CONTINUOUS
10
0.697578
20
0.357732
11
0.700276
21
0.356384
0
LINE
8
BLACK
6
CONTINUOUS
10
0.700276
20
0.356384
11
0.702631
21
0.356384
0
LINE
8
BLACK
6
CONTINUOUS
10
0.702631
20
0.356384
11
0.705329
21
0.357732
0
LINE
8
BLACK
6
CONTINUOUS
10
0.705329
20
0.357732
11
0.706526
21
0.358929
0
LINE
8
BLACK
6
CONTINUOUS
10
0.706526
20
0.358929
11
0.707874
21
0.361627
0
LINE
8
BLACK
6
CONTINUOUS
10
0.707874
20
0.361627
11
0.707874
21
0.3711
0
LINE
8
BLACK
6
CONTINUOUS
10
0.707874
20
0.3711
11
0.695032
21
0.3711
0
LINE
8
BLACK
6
CONTINUOUS
10
0.695032
20
0.3711
11
0.695032
21
0.361627
0
LINE
8
BLACK
6
CONTINUOUS
10
0.718617
20
0.416292
11
0.718839
21
0.416331
0
LINE
8
BLACK
6
CONTINUOUS
10
0.718839
20
0.416331
11
0.719536
21
0.415929
0
LINE
8
BLACK
6
CONTINUOUS
10
0.719536
20
0.415929
11
0.720285
21
0.415633
0
LINE
8
BLACK
6
CONTINUOUS
10
0.720285
20
0.415633
11
0.720393
21
0.415434
0
LINE
8
BLACK
6
CONTINUOUS
10
0.720393
20
0.415434
11
0.720588
21
0.415321
0
LINE
8
BLACK
6
CONTINUOUS
10
0.720588
20
0.415321
11
0.720864
21
0.414565
0
LINE
8
BLACK
6
CONTINUOUS
10
0.720864
20
0.414565
11
0.721247
21
0.413856
0
LINE
8
BLACK
6
CONTINUOUS
10
0.721247
20
0.413856
11
0.721202
21
0.413635
0
LINE
8
BLACK
6
CONTINUOUS
10
0.721202
20
0.413635
11
0.721279
21
0.413423
0
LINE
8
BLACK
6
CONTINUOUS
10
0.721279
20
0.413423
11
0.721279
21
0.397628
0
LINE
8
BLACK
6
CONTINUOUS
10
0.721279
20
0.397628
11
0.73145
21
0.397628
0
LINE
8
BLACK
6
CONTINUOUS
10
0.73145
20
0.397628
11
0.732459
21
0.39745
0
LINE
8
BLACK
6
CONTINUOUS
10
0.732459
20
0.39745
11
0.734007
21
0.396152
0
LINE
8
BLACK
6
CONTINUOUS
10
0.734007
20
0.396152
11
0.734357
21
0.394163
0
LINE
8
BLACK
6
CONTINUOUS
10
0.734357
20
0.394163
11
0.733348
21
0.392414
0
LINE
8
BLACK
6
CONTINUOUS
10
0.733348
20
0.392414
11
0.73145
21
0.391723
0
LINE
8
BLACK
6
CONTINUOUS
10
0.73145
20
0.391723
11
0.721279
21
0.391723
0
LINE
8
BLACK
6
CONTINUOUS
10
0.721279
20
0.391723
11
0.721279
21
0.389051
0
LINE
8
BLACK
6
CONTINUOUS
10
0.721279
20
0.389051
11
0.721101
21
0.388041
0
LINE
8
BLACK
6
CONTINUOUS
10
0.721101
20
0.388041
11
0.719803
21
0.386494
0
LINE
8
BLACK
6
CONTINUOUS
10
0.719803
20
0.386494
11
0.717813
21
0.386143
0
LINE
8
BLACK
6
CONTINUOUS
10
0.717813
20
0.386143
11
0.716064
21
0.387153
0
LINE
8
BLACK
6
CONTINUOUS
10
0.716064
20
0.387153
11
0.715373
21
0.389051
0
LINE
8
BLACK
6
CONTINUOUS
10
0.715373
20
0.389051
11
0.715373
21
0.391723
0
LINE
8
BLACK
6
CONTINUOUS
10
0.715373
20
0.391723
11
0.705203
21
0.391723
0
LINE
8
BLACK
6
CONTINUOUS
10
0.705203
20
0.391723
11
0.704193
21
0.391901
0
LINE
8
BLACK
6
CONTINUOUS
10
0.704193
20
0.391901
11
0.702646
21
0.393199
0
LINE
8
BLACK
6
CONTINUOUS
10
0.702646
20
0.393199
11
0.702295
21
0.395188
0
LINE
8
BLACK
6
CONTINUOUS
10
0.702295
20
0.395188
11
0.703305
21
0.396938
0
LINE
8
BLACK
6
CONTINUOUS
10
0.703305
20
0.396938
11
0.705203
21
0.397628
0
LINE
8
BLACK
6
CONTINUOUS
10
0.705203
20
0.397628
11
0.715373
21
0.397628
0
LINE
8
BLACK
6
CONTINUOUS
10
0.715373
20
0.397628
11
0.715373
21
0.409327
0
LINE
8
BLACK
6
CONTINUOUS
10
0.715373
20
0.409327
11
0.691138
21
0.401248
0
LINE
8
BLACK
6
CONTINUOUS
10
0.691138
20
0.401248
11
0.690124
21
0.401098
0
LINE
8
BLACK
6
CONTINUOUS
10
0.690124
20
0.401098
11
0.688246
21
0.40184
0
LINE
8
BLACK
6
CONTINUOUS
10
0.688246
20
0.40184
11
0.687284
21
0.403616
0
LINE
8
BLACK
6
CONTINUOUS
10
0.687284
20
0.403616
11
0.687689
21
0.405595
0
LINE
8
BLACK
6
CONTINUOUS
10
0.687689
20
0.405595
11
0.689271
21
0.406851
0
LINE
8
BLACK
6
CONTINUOUS
10
0.689271
20
0.406851
11
0.717392
21
0.416225
0
LINE
8
BLACK
6
CONTINUOUS
10
0.717392
20
0.416225
11
0.718407
21
0.416375
0
LINE
8
BLACK
6
CONTINUOUS
10
0.718407
20
0.416375
11
0.718617
21
0.416292
0
LINE
8
BLACK
6
CONTINUOUS
10
0.717032
20
0.453769
11
0.717168
21
0.453783
0
LINE
8
BLACK
6
CONTINUOUS
10
0.717168
20
0.453783
11
0.724667
21
0.451908
0
LINE
8
BLACK
6
CONTINUOUS
10
0.724667
20
0.451908
11
0.725132
21
0.451701
0
LINE
8
BLACK
6
CONTINUOUS
10
0.725132
20
0.451701
11
0.725271
21
0.451685
0
LINE
8
BLACK
6
CONTINUOUS
10
0.725271
20
0.451685
11
0.729021
21
0.44981
0
LINE
8
BLACK
6
CONTINUOUS
10
0.729021
20
0.44981
11
0.729729
21
0.449284
0
LINE
8
BLACK
6
CONTINUOUS
10
0.729729
20
0.449284
11
0.729788
21
0.449257
0
LINE
8
BLACK
6
CONTINUOUS
10
0.729788
20
0.449257
11
0.731663
21
0.447382
0
LINE
8
BLACK
6
CONTINUOUS
10
0.731663
20
0.447382
11
0.732169
21
0.446659
0
LINE
8
BLACK
6
CONTINUOUS
10
0.732169
20
0.446659
11
0.732216
21
0.446615
0
LINE
8
BLACK
6
CONTINUOUS
10
0.732216
20
0.446615
11
0.734091
21
0.442865
0
LINE
8
BLACK
6
CONTINUOUS
10
0.734091
20
0.442865
11
0.734383
21
0.441882
0
LINE
8
BLACK
6
CONTINUOUS
10
0.734383
20
0.441882
11
0.734342
21
0.441711
0
LINE
8
BLACK
6
CONTINUOUS
10
0.734342
20
0.441711
11
0.734402
21
0.441545
0
LINE
8
BLACK
6
CONTINUOUS
10
0.734402
20
0.441545
11
0.734402
21
0.437795
0
LINE
8
BLACK
6
CONTINUOUS
10
0.734402
20
0.437795
11
0.734224
21
0.436785
0
LINE
8
BLACK
6
CONTINUOUS
10
0.734224
20
0.436785
11
0.734111
21
0.43665
0
LINE
8
BLACK
6
CONTINUOUS
10
0.734111
20
0.43665
11
0.734091
21
0.436475
0
LINE
8
BLACK
6
CONTINUOUS
10
0.734091
20
0.436475
11
0.732216
21
0.432725
0
LINE
8
BLACK
6
CONTINUOUS
10
0.732216
20
0.432725
11
0.73169
21
0.432016
0
LINE
8
BLACK
6
CONTINUOUS
10
0.73169
20
0.432016
11
0.731663
21
0.431958
0
LINE
8
BLACK
6
CONTINUOUS
10
0.731663
20
0.431958
11
0.729788
21
0.430083
0
LINE
8
BLACK
6
CONTINUOUS
10
0.729788
20
0.430083
11
0.729065
21
0.429577
0
LINE
8
BLACK
6
CONTINUOUS
10
0.729065
20
0.429577
11
0.729021
21
0.42953
0
LINE
8
BLACK
6
CONTINUOUS
10
0.729021
20
0.42953
11
0.725271
21
0.427655
0
LINE
8
BLACK
6
CONTINUOUS
10
0.725271
20
0.427655
11
0.724783
21
0.42751
0
LINE
8
BLACK
6
CONTINUOUS
10
0.724783
20
0.42751
11
0.724667
21
0.427432
0
LINE
8
BLACK
6
CONTINUOUS
10
0.724667
20
0.427432
11
0.717168
21
0.425557
0
LINE
8
BLACK
6
CONTINUOUS
10
0.717168
20
0.425557
11
0.71658
21
0.425515
0
LINE
8
BLACK
6
CONTINUOUS
10
0.71658
20
0.425515
11
0.716451
21
0.425469
0
LINE
8
BLACK
6
CONTINUOUS
10
0.716451
20
0.425469
11
0.707078
21
0.425469
0
LINE
8
BLACK
6
CONTINUOUS
10
0.707078
20
0.425469
11
0.706497
21
0.425571
0
LINE
8
BLACK
6
CONTINUOUS
10
0.706497
20
0.425571
11
0.706361
21
0.425557
0
LINE
8
BLACK
6
CONTINUOUS
10
0.706361
20
0.425557
11
0.698862
21
0.427432
0
LINE
8
BLACK
6
CONTINUOUS
10
0.698862
20
0.427432
11
0.698397
21
0.427639
0
LINE
8
BLACK
6
CONTINUOUS
10
0.698397
20
0.427639
11
0.698258
21
0.427655
0
LINE
8
BLACK
6
CONTINUOUS
10
0.698258
20
0.427655
11
0.694509
21
0.42953
0
LINE
8
BLACK
6
CONTINUOUS
10
0.694509
20
0.42953
11
0.693799
21
0.430056
0
LINE
8
BLACK
6
CONTINUOUS
10
0.693799
20
0.430056
11
0.693741
21
0.430083
0
LINE
8
BLACK
6
CONTINUOUS
10
0.693741
20
0.430083
11
0.691866
21
0.431958
0
LINE
8
BLACK
6
CONTINUOUS
10
0.691866
20
0.431958
11
0.69136
21
0.432681
0
LINE
8
BLACK
6
CONTINUOUS
10
0.69136
20
0.432681
11
0.691313
21
0.432725
0
LINE
8
BLACK
6
CONTINUOUS
10
0.691313
20
0.432725
11
0.689438
21
0.436475
0
LINE
8
BLACK
6
CONTINUOUS
10
0.689438
20
0.436475
11
0.689146
21
0.437458
0
LINE
8
BLACK
6
CONTINUOUS
10
0.689146
20
0.437458
11
0.689187
21
0.437629
0
LINE
8
BLACK
6
CONTINUOUS
10
0.689187
20
0.437629
11
0.689127
21
0.437795
0
LINE
8
BLACK
6
CONTINUOUS
10
0.689127
20
0.437795
11
0.689127
21
0.441545
0
LINE
8
BLACK
6
CONTINUOUS
10
0.689127
20
0.441545
11
0.689305
21
0.442555
0
LINE
8
BLACK
6
CONTINUOUS
10
0.689305
20
0.442555
11
0.689418
21
0.44269
0
LINE
8
BLACK
6
CONTINUOUS
10
0.689418
20
0.44269
11
0.689438
21
0.442865
0
LINE
8
BLACK
6
CONTINUOUS
10
0.689438
20
0.442865
11
0.691313
21
0.446615
0
LINE
8
BLACK
6
CONTINUOUS
10
0.691313
20
0.446615
11
0.691839
21
0.447324
0
LINE
8
BLACK
6
CONTINUOUS
10
0.691839
20
0.447324
11
0.691866
21
0.447382
0
LINE
8
BLACK
6
CONTINUOUS
10
0.691866
20
0.447382
11
0.693741
21
0.449257
0
LINE
8
BLACK
6
CONTINUOUS
10
0.693741
20
0.449257
11
0.694464
21
0.449763
0
LINE
8
BLACK
6
CONTINUOUS
10
0.694464
20
0.449763
11
0.694509
21
0.44981
0
LINE
8
BLACK
6
CONTINUOUS
10
0.694509
20
0.44981
11
0.698258
21
0.451685
0
LINE
8
BLACK
6
CONTINUOUS
10
0.698258
20
0.451685
11
0.698746
21
0.45183
0
LINE
8
BLACK
6
CONTINUOUS
10
0.698746
20
0.45183
11
0.698862
21
0.451908
0
LINE
8
BLACK
6
CONTINUOUS
10
0.698862
20
0.451908
11
0.706361
21
0.453783
0
LINE
8
BLACK
6
CONTINUOUS
10
0.706361
20
0.453783
11
0.706949
21
0.453825
0
LINE
8
BLACK
6
CONTINUOUS
10
0.706949
20
0.453825
11
0.707078
21
0.453871
0
LINE
8
BLACK
6
CONTINUOUS
10
0.707078
20
0.453871
11
0.716451
21
0.453871
0
LINE
8
BLACK
6
CONTINUOUS
10
0.716451
20
0.453871
11
0.717032
21
0.453769
0
LINE
8
BLACK
6
CONTINUOUS
10
0.700609
20
0.446258
11
0.697578
21
0.444742
0
LINE
8
BLACK
6
CONTINUOUS
10
0.697578
20
0.444742
11
0.696381
21
0.443545
0
LINE
8
BLACK
6
CONTINUOUS
10
0.696381
20
0.443545
11
0.695032
21
0.440848
0
LINE
8
BLACK
6
CONTINUOUS
10
0.695032
20
0.440848
11
0.695032
21
0.438492
0
LINE
8
BLACK
6
CONTINUOUS
10
0.695032
20
0.438492
11
0.696381
21
0.435795
0
LINE
8
BLACK
6
CONTINUOUS
10
0.696381
20
0.435795
11
0.697578
21
0.434598
0
LINE
8
BLACK
6
CONTINUOUS
10
0.697578
20
0.434598
11
0.700609
21
0.433082
0
LINE
8
BLACK
6
CONTINUOUS
10
0.700609
20
0.433082
11
0.707441
21
0.431374
0
LINE
8
BLACK
6
CONTINUOUS
10
0.707441
20
0.431374
11
0.716088
21
0.431374
0
LINE
8
BLACK
6
CONTINUOUS
10
0.716088
20
0.431374
11
0.72292
21
0.433082
0
LINE
8
BLACK
6
CONTINUOUS
10
0.72292
20
0.433082
11
0.725951
21
0.434598
0
LINE
8
BLACK
6
CONTINUOUS
10
0.725951
20
0.434598
11
0.727148
21
0.435795
0
LINE
8
BLACK
6
CONTINUOUS
10
0.727148
20
0.435795
11
0.728497
21
0.438492
0
LINE
8
BLACK
6
CONTINUOUS
10
0.728497
20
0.438492
11
0.728497
21
0.440848
0
LINE
8
BLACK
6
CONTINUOUS
10
0.728497
20
0.440848
11
0.727148
21
0.443545
0
LINE
8
BLACK
6
CONTINUOUS
10
0.727148
20
0.443545
11
0.725951
21
0.444742
0
LINE
8
BLACK
6
CONTINUOUS
10
0.725951
20
0.444742
11
0.72292
21
0.446258
0
LINE
8
BLACK
6
CONTINUOUS
10
0.72292
20
0.446258
11
0.716088
21
0.447966
0
LINE
8
BLACK
6
CONTINUOUS
10
0.716088
20
0.447966
11
0.707441
21
0.447966
0
LINE
8
BLACK
6
CONTINUOUS
10
0.707441
20
0.447966
11
0.700609
21
0.446258
0
LINE
8
BLACK
6
CONTINUOUS
10
0.732459
20
0.496813
11
0.734007
21
0.495515
0
LINE
8
BLACK
6
CONTINUOUS
10
0.734007
20
0.495515
11
0.734357
21
0.493525
0
LINE
8
BLACK
6
CONTINUOUS
10
0.734357
20
0.493525
11
0.733348
21
0.491776
0
LINE
8
BLACK
6
CONTINUOUS
10
0.733348
20
0.491776
11
0.73145
21
0.491085
0
LINE
8
BLACK
6
CONTINUOUS
10
0.73145
20
0.491085
11
0.705389
21
0.491085
0
LINE
8
BLACK
6
CONTINUOUS
10
0.705389
20
0.491085
11
0.72145
21
0.483591
0
LINE
8
BLACK
6
CONTINUOUS
10
0.72145
20
0.483591
11
0.721767
21
0.483368
0
LINE
8
BLACK
6
CONTINUOUS
10
0.721767
20
0.483368
11
0.721894
21
0.483334
0
LINE
8
BLACK
6
CONTINUOUS
10
0.721894
20
0.483334
11
0.721969
21
0.483227
0
LINE
8
BLACK
6
CONTINUOUS
10
0.721969
20
0.483227
11
0.722289
21
0.483002
0
LINE
8
BLACK
6
CONTINUOUS
10
0.722289
20
0.483002
11
0.722613
21
0.482308
0
LINE
8
BLACK
6
CONTINUOUS
10
0.722613
20
0.482308
11
0.723053
21
0.48168
0
LINE
8
BLACK
6
CONTINUOUS
10
0.723053
20
0.48168
11
0.72303
21
0.481414
0
LINE
8
BLACK
6
CONTINUOUS
10
0.72303
20
0.481414
11
0.723143
21
0.481171
0
LINE
8
BLACK
6
CONTINUOUS
10
0.723143
20
0.481171
11
0.722944
21
0.480431
0
LINE
8
BLACK
6
CONTINUOUS
10
0.722944
20
0.480431
11
0.722877
21
0.479668
0
LINE
8
BLACK
6
CONTINUOUS
10
0.722877
20
0.479668
11
0.722688
21
0.479479
0
LINE
8
BLACK
6
CONTINUOUS
10
0.722688
20
0.479479
11
0.722619
21
0.479221
0
LINE
8
BLACK
6
CONTINUOUS
10
0.722619
20
0.479221
11
0.721991
21
0.478781
0
LINE
8
BLACK
6
CONTINUOUS
10
0.721991
20
0.478781
11
0.72145
21
0.478239
0
LINE
8
BLACK
6
CONTINUOUS
10
0.72145
20
0.478239
11
0.705389
21
0.470744
0
LINE
8
BLACK
6
CONTINUOUS
10
0.705389
20
0.470744
11
0.73145
21
0.470744
0
LINE
8
BLACK
6
CONTINUOUS
10
0.73145
20
0.470744
11
0.732459
21
0.470566
0
LINE
8
BLACK
6
CONTINUOUS
10
0.732459
20
0.470566
11
0.734007
21
0.469268
0
LINE
8
BLACK
6
CONTINUOUS
10
0.734007
20
0.469268
11
0.734357
21
0.467279
0
LINE
8
BLACK
6
CONTINUOUS
10
0.734357
20
0.467279
11
0.733348
21
0.46553
0
LINE
8
BLACK
6
CONTINUOUS
10
0.733348
20
0.46553
11
0.73145
21
0.464839
0
LINE
8
BLACK
6
CONTINUOUS
10
0.73145
20
0.464839
11
0.692079
21
0.464839
0
LINE
8
BLACK
6
CONTINUOUS
10
0.692079
20
0.464839
11
0.69107
21
0.465017
0
LINE
8
BLACK
6
CONTINUOUS
10
0.69107
20
0.465017
11
0.690767
21
0.46527
0
LINE
8
BLACK
6
CONTINUOUS
10
0.690767
20
0.46527
11
0.690387
21
0.465372
0
LINE
8
BLACK
6
CONTINUOUS
10
0.690387
20
0.465372
11
0.690016
21
0.465901
0
LINE
8
BLACK
6
CONTINUOUS
10
0.690016
20
0.465901
11
0.689522
21
0.466315
0
LINE
8
BLACK
6
CONTINUOUS
10
0.689522
20
0.466315
11
0.689454
21
0.466704
0
LINE
8
BLACK
6
CONTINUOUS
10
0.689454
20
0.466704
11
0.689228
21
0.467026
0
LINE
8
BLACK
6
CONTINUOUS
10
0.689228
20
0.467026
11
0.689284
21
0.467669
0
LINE
8
BLACK
6
CONTINUOUS
10
0.689284
20
0.467669
11
0.689172
21
0.468304
0
LINE
8
BLACK
6
CONTINUOUS
10
0.689172
20
0.468304
11
0.689369
21
0.468646
0
LINE
8
BLACK
6
CONTINUOUS
10
0.689369
20
0.468646
11
0.689403
21
0.469039
0
LINE
8
BLACK
6
CONTINUOUS
10
0.689403
20
0.469039
11
0.689859
21
0.469495
0
LINE
8
BLACK
6
CONTINUOUS
10
0.689859
20
0.469495
11
0.690181
21
0.470053
0
LINE
8
BLACK
6
CONTINUOUS
10
0.690181
20
0.470053
11
0.690552
21
0.470188
0
LINE
8
BLACK
6
CONTINUOUS
10
0.690552
20
0.470188
11
0.690831
21
0.470467
0
LINE
8
BLACK
6
CONTINUOUS
10
0.690831
20
0.470467
11
0.713219
21
0.480915
0
LINE
8
BLACK
6
CONTINUOUS
10
0.713219
20
0.480915
11
0.690831
21
0.491362
0
LINE
8
BLACK
6
CONTINUOUS
10
0.690831
20
0.491362
11
0.689991
21
0.491951
0
LINE
8
BLACK
6
CONTINUOUS
10
0.689991
20
0.491951
11
0.689824
21
0.492308
0
LINE
8
BLACK
6
CONTINUOUS
10
0.689824
20
0.492308
11
0.689522
21
0.492562
0
LINE
8
BLACK
6
CONTINUOUS
10
0.689522
20
0.492562
11
0.68941
21
0.493197
0
LINE
8
BLACK
6
CONTINUOUS
10
0.68941
20
0.493197
11
0.689138
21
0.493782
0
LINE
8
BLACK
6
CONTINUOUS
10
0.689138
20
0.493782
11
0.68924
21
0.494163
0
LINE
8
BLACK
6
CONTINUOUS
10
0.68924
20
0.494163
11
0.689172
21
0.494551
0
LINE
8
BLACK
6
CONTINUOUS
10
0.689172
20
0.494551
11
0.689494
21
0.49511
0
LINE
8
BLACK
6
CONTINUOUS
10
0.689494
20
0.49511
11
0.689661
21
0.495733
0
LINE
8
BLACK
6
CONTINUOUS
10
0.689661
20
0.495733
11
0.689984
21
0.495959
0
LINE
8
BLACK
6
CONTINUOUS
10
0.689984
20
0.495959
11
0.690181
21
0.4963
0
LINE
8
BLACK
6
CONTINUOUS
10
0.690181
20
0.4963
11
0.690788
21
0.496521
0
LINE
8
BLACK
6
CONTINUOUS
10
0.690788
20
0.496521
11
0.691316
21
0.496891
0
LINE
8
BLACK
6
CONTINUOUS
10
0.691316
20
0.496891
11
0.691709
21
0.496856
0
LINE
8
BLACK
6
CONTINUOUS
10
0.691709
20
0.496856
11
0.692079
21
0.496991
0
LINE
8
BLACK
6
CONTINUOUS
10
0.692079
20
0.496991
11
0.73145
21
0.496991
0
LINE
8
BLACK
6
CONTINUOUS
10
0.73145
20
0.496991
11
0.732459
21
0.496813
0
LINE
8
BLACK
6
CONTINUOUS
10
0.704338
20
0.536183
11
0.704473
21
0.53607
0
LINE
8
BLACK
6
CONTINUOUS
10
0.704473
20
0.53607
11
0.704649
21
0.536049
0
LINE
8
BLACK
6
CONTINUOUS
10
0.704649
20
0.536049
11
0.708398
21
0.534175
0
LINE
8
BLACK
6
CONTINUOUS
10
0.708398
20
0.534175
11
0.709107
21
0.533649
0
LINE
8
BLACK
6
CONTINUOUS
10
0.709107
20
0.533649
11
0.709166
21
0.533621
0
LINE
8
BLACK
6
CONTINUOUS
10
0.709166
20
0.533621
11
0.710745
21
0.532042
0
LINE
8
BLACK
6
CONTINUOUS
10
0.710745
20
0.532042
11
0.726918
21
0.532042
0
LINE
8
BLACK
6
CONTINUOUS
10
0.726918
20
0.532042
11
0.726774
21
0.532475
0
LINE
8
BLACK
6
CONTINUOUS
10
0.726774
20
0.532475
11
0.726623
21
0.533489
0
LINE
8
BLACK
6
CONTINUOUS
10
0.726623
20
0.533489
11
0.727366
21
0.535367
0
LINE
8
BLACK
6
CONTINUOUS
10
0.727366
20
0.535367
11
0.729142
21
0.536329
0
LINE
8
BLACK
6
CONTINUOUS
10
0.729142
20
0.536329
11
0.73112
21
0.535924
0
LINE
8
BLACK
6
CONTINUOUS
10
0.73112
20
0.535924
11
0.732376
21
0.534342
0
LINE
8
BLACK
6
CONTINUOUS
10
0.732376
20
0.534342
11
0.733443
21
0.531142
0
LINE
8
BLACK
6
CONTINUOUS
10
0.733443
20
0.531142
11
0.733711
21
0.530987
0
LINE
8
BLACK
6
CONTINUOUS
10
0.733711
20
0.530987
11
0.733803
21
0.530737
0
LINE
8
BLACK
6
CONTINUOUS
10
0.733803
20
0.530737
11
0.734007
21
0.530565
0
LINE
8
BLACK
6
CONTINUOUS
10
0.734007
20
0.530565
11
0.73414
21
0.52981
0
LINE
8
BLACK
6
CONTINUOUS
10
0.73414
20
0.52981
11
0.734402
21
0.529089
0
LINE
8
BLACK
6
CONTINUOUS
10
0.734402
20
0.529089
11
0.734402
21
0.514091
0
LINE
8
BLACK
6
CONTINUOUS
10
0.734402
20
0.514091
11
0.734224
21
0.513081
0
LINE
8
BLACK
6
CONTINUOUS
10
0.734224
20
0.513081
11
0.734111
21
0.512946
0
LINE
8
BLACK
6
CONTINUOUS
10
0.734111
20
0.512946
11
0.734091
21
0.51277
0
LINE
8
BLACK
6
CONTINUOUS
10
0.734091
20
0.51277
11
0.732216
21
0.509021
0
LINE
8
BLACK
6
CONTINUOUS
10
0.732216
20
0.509021
11
0.73169
21
0.508312
0
LINE
8
BLACK
6
CONTINUOUS
10
0.73169
20
0.508312
11
0.731663
21
0.508253
0
LINE
8
BLACK
6
CONTINUOUS
10
0.731663
20
0.508253
11
0.729788
21
0.506379
0
LINE
8
BLACK
6
CONTINUOUS
10
0.729788
20
0.506379
11
0.729065
21
0.505872
0
LINE
8
BLACK
6
CONTINUOUS
10
0.729065
20
0.505872
11
0.729021
21
0.505825
0
LINE
8
BLACK
6
CONTINUOUS
10
0.729021
20
0.505825
11
0.725271
21
0.503951
0
LINE
8
BLACK
6
CONTINUOUS
10
0.725271
20
0.503951
11
0.724288
21
0.503658
0
LINE
8
BLACK
6
CONTINUOUS
10
0.724288
20
0.503658
11
0.724116
21
0.503699
0
LINE
8
BLACK
6
CONTINUOUS
10
0.724116
20
0.503699
11
0.72395
21
0.503639
0
LINE
8
BLACK
6
CONTINUOUS
10
0.72395
20
0.503639
11
0.718326
21
0.503639
0
LINE
8
BLACK
6
CONTINUOUS
10
0.718326
20
0.503639
11
0.717316
21
0.503817
0
LINE
8
BLACK
6
CONTINUOUS
10
0.717316
20
0.503817
11
0.717181
21
0.503931
0
LINE
8
BLACK
6
CONTINUOUS
10
0.717181
20
0.503931
11
0.717006
21
0.503951
0
LINE
8
BLACK
6
CONTINUOUS
10
0.717006
20
0.503951
11
0.713256
21
0.505825
0
LINE
8
BLACK
6
CONTINUOUS
10
0.713256
20
0.505825
11
0.712547
21
0.506351
0
LINE
8
BLACK
6
CONTINUOUS
10
0.712547
20
0.506351
11
0.712489
21
0.506379
0
LINE
8
BLACK
6
CONTINUOUS
10
0.712489
20
0.506379
11
0.710614
21
0.508253
0
LINE
8
BLACK
6
CONTINUOUS
10
0.710614
20
0.508253
11
0.710026
21
0.509093
0
LINE
8
BLACK
6
CONTINUOUS
10
0.710026
20
0.509093
11
0.710024
21
0.509112
0
LINE
8
BLACK
6
CONTINUOUS
10
0.710024
20
0.509112
11
0.709166
21
0.508253
0
LINE
8
BLACK
6
CONTINUOUS
10
0.709166
20
0.508253
11
0.708442
21
0.507747
0
LINE
8
BLACK
6
CONTINUOUS
10
0.708442
20
0.507747
11
0.708398
21
0.5077
0
LINE
8
BLACK
6
CONTINUOUS
10
0.708398
20
0.5077
11
0.704649
21
0.505825
0
LINE
8
BLACK
6
CONTINUOUS
10
0.704649
20
0.505825
11
0.703666
21
0.505533
0
LINE
8
BLACK
6
CONTINUOUS
10
0.703666
20
0.505533
11
0.703494
21
0.505574
0
LINE
8
BLACK
6
CONTINUOUS
10
0.703494
20
0.505574
11
0.703328
21
0.505514
0
LINE
8
BLACK
6
CONTINUOUS
10
0.703328
20
0.505514
11
0.699579
21
0.505514
0
LINE
8
BLACK
6
CONTINUOUS
10
0.699579
20
0.505514
11
0.698569
21
0.505692
0
LINE
8
BLACK
6
CONTINUOUS
10
0.698569
20
0.505692
11
0.698433
21
0.505805
0
LINE
8
BLACK
6
CONTINUOUS
10
0.698433
20
0.505805
11
0.698258
21
0.505825
0
LINE
8
BLACK
6
CONTINUOUS
10
0.698258
20
0.505825
11
0.694509
21
0.5077
0
LINE
8
BLACK
6
CONTINUOUS
10
0.694509
20
0.5077
11
0.694014
21
0.508067
0
LINE
8
BLACK
6
CONTINUOUS
10
0.694014
20
0.508067
11
0.692409
21
0.508395
0
LINE
8
BLACK
6
CONTINUOUS
10
0.692409
20
0.508395
11
0.691153
21
0.509977
0
LINE
8
BLACK
6
CONTINUOUS
10
0.691153
20
0.509977
11
0.689915
21
0.513693
0
LINE
8
BLACK
6
CONTINUOUS
10
0.689915
20
0.513693
11
0.689438
21
0.514645
0
LINE
8
BLACK
6
CONTINUOUS
10
0.689438
20
0.514645
11
0.689146
21
0.515628
0
LINE
8
BLACK
6
CONTINUOUS
10
0.689146
20
0.515628
11
0.689187
21
0.5158
0
LINE
8
BLACK
6
CONTINUOUS
10
0.689187
20
0.5158
11
0.689127
21
0.515966
0
LINE
8
BLACK
6
CONTINUOUS
10
0.689127
20
0.515966
11
0.689127
21
0.529089
0
LINE
8
BLACK
6
CONTINUOUS
10
0.689127
20
0.529089
11
0.689194
21
0.529472
0
LINE
8
BLACK
6
CONTINUOUS
10
0.689194
20
0.529472
11
0.689172
21
0.529602
0
LINE
8
BLACK
6
CONTINUOUS
10
0.689172
20
0.529602
11
0.689237
21
0.529715
0
LINE
8
BLACK
6
CONTINUOUS
10
0.689237
20
0.529715
11
0.689305
21
0.530099
0
LINE
8
BLACK
6
CONTINUOUS
10
0.689305
20
0.530099
11
0.689798
21
0.530686
0
LINE
8
BLACK
6
CONTINUOUS
10
0.689798
20
0.530686
11
0.690181
21
0.531351
0
LINE
8
BLACK
6
CONTINUOUS
10
0.690181
20
0.531351
11
0.690432
21
0.531442
0
LINE
8
BLACK
6
CONTINUOUS
10
0.690432
20
0.531442
11
0.690603
21
0.531646
0
LINE
8
BLACK
6
CONTINUOUS
10
0.690603
20
0.531646
11
0.691359
21
0.531779
0
LINE
8
BLACK
6
CONTINUOUS
10
0.691359
20
0.531779
11
0.692079
21
0.532042
0
LINE
8
BLACK
6
CONTINUOUS
10
0.692079
20
0.532042
11
0.692161
21
0.532042
0
LINE
8
BLACK
6
CONTINUOUS
10
0.692161
20
0.532042
11
0.693741
21
0.533621
0
LINE
8
BLACK
6
CONTINUOUS
10
0.693741
20
0.533621
11
0.694464
21
0.534128
0
LINE
8
BLACK
6
CONTINUOUS
10
0.694464
20
0.534128
11
0.694509
21
0.534175
0
LINE
8
BLACK
6
CONTINUOUS
10
0.694509
20
0.534175
11
0.698258
21
0.536049
0
LINE
8
BLACK
6
CONTINUOUS
10
0.698258
20
0.536049
11
0.699241
21
0.536342
0
LINE
8
BLACK
6
CONTINUOUS
10
0.699241
20
0.536342
11
0.699413
21
0.536301
0
LINE
8
BLACK
6
CONTINUOUS
10
0.699413
20
0.536301
11
0.699579
21
0.536361
0
LINE
8
BLACK
6
CONTINUOUS
10
0.699579
20
0.536361
11
0.703328
21
0.536361
0
LINE
8
BLACK
6
CONTINUOUS
10
0.703328
20
0.536361
11
0.704338
21
0.536183
0
LINE
8
BLACK
6
CONTINUOUS
10
0.695032
20
0.525212
11
0.695032
21
0.517015
0
LINE
8
BLACK
6
CONTINUOUS
10
0.695032
20
0.517015
11
0.695384
21
0.515959
0
LINE
8
BLACK
6
CONTINUOUS
10
0.695384
20
0.515959
11
0.696381
21
0.513965
0
LINE
8
BLACK
6
CONTINUOUS
10
0.696381
20
0.513965
11
0.697578
21
0.512768
0
LINE
8
BLACK
6
CONTINUOUS
10
0.697578
20
0.512768
11
0.700276
21
0.511419
0
LINE
8
BLACK
6
CONTINUOUS
10
0.700276
20
0.511419
11
0.702631
21
0.511419
0
LINE
8
BLACK
6
CONTINUOUS
10
0.702631
20
0.511419
11
0.705328
21
0.512768
0
LINE
8
BLACK
6
CONTINUOUS
10
0.705328
20
0.512768
11
0.706526
21
0.513965
0
LINE
8
BLACK
6
CONTINUOUS
10
0.706526
20
0.513965
11
0.707874
21
0.516663
0
LINE
8
BLACK
6
CONTINUOUS
10
0.707874
20
0.516663
11
0.707874
21
0.525212
0
LINE
8
BLACK
6
CONTINUOUS
10
0.707874
20
0.525212
11
0.707412
21
0.526136
0
LINE
8
BLACK
6
CONTINUOUS
10
0.707412
20
0.526136
11
0.695494
21
0.526136
0
LINE
8
BLACK
6
CONTINUOUS
10
0.695494
20
0.526136
11
0.695032
21
0.525212
0
LINE
8
BLACK
6
CONTINUOUS
10
0.715488
20
0.519441
11
0.717003
21
0.51641
0
LINE
8
BLACK
6
CONTINUOUS
10
0.717003
20
0.51641
11
0.718201
21
0.515213
0
LINE
8
BLACK
6
CONTINUOUS
10
0.718201
20
0.515213
11
0.720898
21
0.513864
0
LINE
8
BLACK
6
CONTINUOUS
10
0.720898
20
0.513864
11
0.723253
21
0.513864
0
LINE
8
BLACK
6
CONTINUOUS
10
0.723253
20
0.513864
11
0.725951
21
0.515213
0
LINE
8
BLACK
6
CONTINUOUS
10
0.725951
20
0.515213
11
0.727148
21
0.51641
0
LINE
8
BLACK
6
CONTINUOUS
10
0.727148
20
0.51641
11
0.728497
21
0.519107
0
LINE
8
BLACK
6
CONTINUOUS
10
0.728497
20
0.519107
11
0.728497
21
0.526136
0
LINE
8
BLACK
6
CONTINUOUS
10
0.728497
20
0.526136
11
0.713814
21
0.526136
0
LINE
8
BLACK
6
CONTINUOUS
10
0.713814
20
0.526136
11
0.715488
21
0.519441
0
LINE
8
BLACK
6
CONTINUOUS
10
0.694341
20
0.566607
11
0.695032
21
0.564709
0
LINE
8
BLACK
6
CONTINUOUS
10
0.695032
20
0.564709
11
0.695032
21
0.556414
0
LINE
8
BLACK
6
CONTINUOUS
10
0.695032
20
0.556414
11
0.73145
21
0.556414
0
LINE
8
BLACK
6
CONTINUOUS
10
0.73145
20
0.556414
11
0.732459
21
0.556236
0
LINE
8
BLACK
6
CONTINUOUS
10
0.732459
20
0.556236
11
0.734007
21
0.554937
0
LINE
8
BLACK
6
CONTINUOUS
10
0.734007
20
0.554937
11
0.734357
21
0.552948
0
LINE
8
BLACK
6
CONTINUOUS
10
0.734357
20
0.552948
11
0.733348
21
0.551199
0
LINE
8
BLACK
6
CONTINUOUS
10
0.733348
20
0.551199
11
0.73145
21
0.550508
0
LINE
8
BLACK
6
CONTINUOUS
10
0.73145
20
0.550508
11
0.695032
21
0.550508
0
LINE
8
BLACK
6
CONTINUOUS
10
0.695032
20
0.550508
11
0.695032
21
0.542212
0
LINE
8
BLACK
6
CONTINUOUS
10
0.695032
20
0.542212
11
0.694854
21
0.541202
0
LINE
8
BLACK
6
CONTINUOUS
10
0.694854
20
0.541202
11
0.693556
21
0.539655
0
LINE
8
BLACK
6
CONTINUOUS
10
0.693556
20
0.539655
11
0.691567
21
0.539304
0
LINE
8
BLACK
6
CONTINUOUS
10
0.691567
20
0.539304
11
0.689818
21
0.540314
0
LINE
8
BLACK
6
CONTINUOUS
10
0.689818
20
0.540314
11
0.689127
21
0.542212
0
LINE
8
BLACK
6
CONTINUOUS
10
0.689127
20
0.542212
11
0.689127
21
0.564709
0
LINE
8
BLACK
6
CONTINUOUS
10
0.689127
20
0.564709
11
0.689305
21
0.565719
0
LINE
8
BLACK
6
CONTINUOUS
10
0.689305
20
0.565719
11
0.690603
21
0.567267
0
LINE
8
BLACK
6
CONTINUOUS
10
0.690603
20
0.567267
11
0.692592
21
0.567617
0
LINE
8
BLACK
6
CONTINUOUS
10
0.692592
20
0.567617
11
0.694341
21
0.566607
0
LINE
8
BLACK
6
CONTINUOUS
10
0.718713
20
0.609727
11
0.719404
21
0.607829
0
LINE
8
BLACK
6
CONTINUOUS
10
0.719404
20
0.607829
11
0.719404
21
0.577833
0
LINE
8
BLACK
6
CONTINUOUS
10
0.719404
20
0.577833
11
0.719226
21
0.576823
0
LINE
8
BLACK
6
CONTINUOUS
10
0.719226
20
0.576823
11
0.717928
21
0.575276
0
LINE
8
BLACK
6
CONTINUOUS
10
0.717928
20
0.575276
11
0.715939
21
0.574925
0
LINE
8
BLACK
6
CONTINUOUS
10
0.715939
20
0.574925
11
0.714189
21
0.575935
0
LINE
8
BLACK
6
CONTINUOUS
10
0.714189
20
0.575935
11
0.713499
21
0.577833
0
LINE
8
BLACK
6
CONTINUOUS
10
0.713499
20
0.577833
11
0.713499
21
0.607829
0
LINE
8
BLACK
6
CONTINUOUS
10
0.713499
20
0.607829
11
0.713677
21
0.608839
0
LINE
8
BLACK
6
CONTINUOUS
10
0.713677
20
0.608839
11
0.714975
21
0.610386
0
LINE
8
BLACK
6
CONTINUOUS
10
0.714975
20
0.610386
11
0.716964
21
0.610737
0
LINE
8
BLACK
6
CONTINUOUS
10
0.716964
20
0.610737
11
0.718713
21
0.609727
0
LINE
8
BLACK
6
CONTINUOUS
10
0.578536
20
0.740966
11
0.578671
21
0.740977
0
LINE
8
BLACK
6
CONTINUOUS
10
0.578671
20
0.740977
11
0.579399
21
0.740468
0
LINE
8
BLACK
6
CONTINUOUS
10
0.579399
20
0.740468
11
0.580168
21
0.740023
0
LINE
8
BLACK
6
CONTINUOUS
10
0.580168
20
0.740023
11
0.580214
21
0.739896
0
LINE
8
BLACK
6
CONTINUOUS
10
0.580214
20
0.739896
11
0.580325
21
0.739819
0
LINE
8
BLACK
6
CONTINUOUS
10
0.580325
20
0.739819
11
0.580555
21
0.73896
0
LINE
8
BLACK
6
CONTINUOUS
10
0.580555
20
0.73896
11
0.580859
21
0.738125
0
LINE
8
BLACK
6
CONTINUOUS
10
0.580859
20
0.738125
11
0.580859
21
0.713753
0
LINE
8
BLACK
6
CONTINUOUS
10
0.580859
20
0.713753
11
0.580681
21
0.712743
0
LINE
8
BLACK
6
CONTINUOUS
10
0.580681
20
0.712743
11
0.579383
21
0.711196
0
LINE
8
BLACK
6
CONTINUOUS
10
0.579383
20
0.711196
11
0.577394
21
0.710845
0
LINE
8
BLACK
6
CONTINUOUS
10
0.577394
20
0.710845
11
0.575644
21
0.711855
0
LINE
8
BLACK
6
CONTINUOUS
10
0.575644
20
0.711855
11
0.574954
21
0.713753
0
LINE
8
BLACK
6
CONTINUOUS
10
0.574954
20
0.713753
11
0.574954
21
0.730997
0
LINE
8
BLACK
6
CONTINUOUS
10
0.574954
20
0.730997
11
0.557497
21
0.71354
0
LINE
8
BLACK
6
CONTINUOUS
10
0.557497
20
0.71354
11
0.556657
21
0.712952
0
LINE
8
BLACK
6
CONTINUOUS
10
0.556657
20
0.712952
11
0.556481
21
0.712937
0
LINE
8
BLACK
6
CONTINUOUS
10
0.556481
20
0.712937
11
0.556343
21
0.712827
0
LINE
8
BLACK
6
CONTINUOUS
10
0.556343
20
0.712827
11
0.550719
21
0.710952
0
LINE
8
BLACK
6
CONTINUOUS
10
0.550719
20
0.710952
11
0.549845
21
0.710823
0
LINE
8
BLACK
6
CONTINUOUS
10
0.549845
20
0.710823
11
0.549785
21
0.710801
0
LINE
8
BLACK
6
CONTINUOUS
10
0.549785
20
0.710801
11
0.546035
21
0.710801
0
LINE
8
BLACK
6
CONTINUOUS
10
0.546035
20
0.710801
11
0.545025
21
0.710979
0
LINE
8
BLACK
6
CONTINUOUS
10
0.545025
20
0.710979
11
0.54489
21
0.711092
0
LINE
8
BLACK
6
CONTINUOUS
10
0.54489
20
0.711092
11
0.544715
21
0.711112
0
LINE
8
BLACK
6
CONTINUOUS
10
0.544715
20
0.711112
11
0.540965
21
0.712987
0
LINE
8
BLACK
6
CONTINUOUS
10
0.540965
20
0.712987
11
0.540256
21
0.713513
0
LINE
8
BLACK
6
CONTINUOUS
10
0.540256
20
0.713513
11
0.540198
21
0.71354
0
LINE
8
BLACK
6
CONTINUOUS
10
0.540198
20
0.71354
11
0.538323
21
0.715415
0
LINE
8
BLACK
6
CONTINUOUS
10
0.538323
20
0.715415
11
0.537817
21
0.716138
0
LINE
8
BLACK
6
CONTINUOUS
10
0.537817
20
0.716138
11
0.53777
21
0.716182
0
LINE
8
BLACK
6
CONTINUOUS
10
0.53777
20
0.716182
11
0.535895
21
0.719932
0
LINE
8
BLACK
6
CONTINUOUS
10
0.535895
20
0.719932
11
0.535603
21
0.720915
0
LINE
8
BLACK
6
CONTINUOUS
10
0.535603
20
0.720915
11
0.535644
21
0.721086
0
LINE
8
BLACK
6
CONTINUOUS
10
0.535644
20
0.721086
11
0.535583
21
0.721252
0
LINE
8
BLACK
6
CONTINUOUS
10
0.535583
20
0.721252
11
0.535583
21
0.730626
0
LINE
8
BLACK
6
CONTINUOUS
10
0.535583
20
0.730626
11
0.535761
21
0.731636
0
LINE
8
BLACK
6
CONTINUOUS
10
0.535761
20
0.731636
11
0.535875
21
0.731771
0
LINE
8
BLACK
6
CONTINUOUS
10
0.535875
20
0.731771
11
0.535895
21
0.731947
0
LINE
8
BLACK
6
CONTINUOUS
10
0.535895
20
0.731947
11
0.53777
21
0.735696
0
LINE
8
BLACK
6
CONTINUOUS
10
0.53777
20
0.735696
11
0.538296
21
0.736405
0
LINE
8
BLACK
6
CONTINUOUS
10
0.538296
20
0.736405
11
0.538323
21
0.736464
0
LINE
8
BLACK
6
CONTINUOUS
10
0.538323
20
0.736464
11
0.540198
21
0.738338
0
LINE
8
BLACK
6
CONTINUOUS
10
0.540198
20
0.738338
11
0.541038
21
0.738927
0
LINE
8
BLACK
6
CONTINUOUS
10
0.541038
20
0.738927
11
0.54305
21
0.739103
0
LINE
8
BLACK
6
CONTINUOUS
10
0.54305
20
0.739103
11
0.544704
21
0.737944
0
LINE
8
BLACK
6
CONTINUOUS
10
0.544704
20
0.737944
11
0.545227
21
0.735993
0
LINE
8
BLACK
6
CONTINUOUS
10
0.545227
20
0.735993
11
0.544374
21
0.734163
0
LINE
8
BLACK
6
CONTINUOUS
10
0.544374
20
0.734163
11
0.542838
21
0.732627
0
LINE
8
BLACK
6
CONTINUOUS
10
0.542838
20
0.732627
11
0.541489
21
0.729929
0
LINE
8
BLACK
6
CONTINUOUS
10
0.541489
20
0.729929
11
0.541489
21
0.721949
0
LINE
8
BLACK
6
CONTINUOUS
10
0.541489
20
0.721949
11
0.542838
21
0.719252
0
LINE
8
BLACK
6
CONTINUOUS
10
0.542838
20
0.719252
11
0.544035
21
0.718055
0
LINE
8
BLACK
6
CONTINUOUS
10
0.544035
20
0.718055
11
0.546732
21
0.716706
0
LINE
8
BLACK
6
CONTINUOUS
10
0.546732
20
0.716706
11
0.549306
21
0.716706
0
LINE
8
BLACK
6
CONTINUOUS
10
0.549306
20
0.716706
11
0.553814
21
0.718209
0
LINE
8
BLACK
6
CONTINUOUS
10
0.553814
20
0.718209
11
0.575818
21
0.740213
0
LINE
8
BLACK
6
CONTINUOUS
10
0.575818
20
0.740213
11
0.576346
21
0.740583
0
LINE
8
BLACK
6
CONTINUOUS
10
0.576346
20
0.740583
11
0.57643
21
0.740682
0
LINE
8
BLACK
6
CONTINUOUS
10
0.57643
20
0.740682
11
0.576508
21
0.740696
0
LINE
8
BLACK
6
CONTINUOUS
10
0.576508
20
0.740696
11
0.576658
21
0.740801
0
LINE
8
BLACK
6
CONTINUOUS
10
0.576658
20
0.740801
11
0.577544
21
0.740879
0
LINE
8
BLACK
6
CONTINUOUS
10
0.577544
20
0.740879
11
0.578419
21
0.741033
0
LINE
8
BLACK
6
CONTINUOUS
10
0.578419
20
0.741033
11
0.578536
21
0.740966
0
LINE
8
BLACK
6
CONTINUOUS
10
0.580168
20
0.770019
11
0.580859
21
0.768121
0
LINE
8
BLACK
6
CONTINUOUS
10
0.580859
20
0.768121
11
0.580859
21
0.764372
0
LINE
8
BLACK
6
CONTINUOUS
10
0.580859
20
0.764372
11
0.580706
21
0.763503
0
LINE
8
BLACK
6
CONTINUOUS
10
0.580706
20
0.763503
11
0.580707
21
0.763438
0
LINE
8
BLACK
6
CONTINUOUS
10
0.580707
20
0.763438
11
0.578833
21
0.757814
0
LINE
8
BLACK
6
CONTINUOUS
10
0.578833
20
0.757814
11
0.578344
21
0.756912
0
LINE
8
BLACK
6
CONTINUOUS
10
0.578344
20
0.756912
11
0.578194
21
0.75682
0
LINE
8
BLACK
6
CONTINUOUS
10
0.578194
20
0.75682
11
0.578119
21
0.75666
0
LINE
8
BLACK
6
CONTINUOUS
10
0.578119
20
0.75666
11
0.57437
21
0.75291
0
LINE
8
BLACK
6
CONTINUOUS
10
0.57437
20
0.75291
11
0.57353
21
0.752322
0
LINE
8
BLACK
6
CONTINUOUS
10
0.57353
20
0.752322
11
0.573354
21
0.752307
0
LINE
8
BLACK
6
CONTINUOUS
10
0.573354
20
0.752307
11
0.573216
21
0.752197
0
LINE
8
BLACK
6
CONTINUOUS
10
0.573216
20
0.752197
11
0.567591
21
0.750322
0
LINE
8
BLACK
6
CONTINUOUS
10
0.567591
20
0.750322
11
0.566718
21
0.750193
0
LINE
8
BLACK
6
CONTINUOUS
10
0.566718
20
0.750193
11
0.566658
21
0.750171
0
LINE
8
BLACK
6
CONTINUOUS
10
0.566658
20
0.750171
11
0.538536
21
0.750171
0
LINE
8
BLACK
6
CONTINUOUS
10
0.538536
20
0.750171
11
0.537526
21
0.750349
0
LINE
8
BLACK
6
CONTINUOUS
10
0.537526
20
0.750349
11
0.535979
21
0.751647
0
LINE
8
BLACK
6
CONTINUOUS
10
0.535979
20
0.751647
11
0.535628
21
0.753636
0
LINE
8
BLACK
6
CONTINUOUS
10
0.535628
20
0.753636
11
0.536638
21
0.755385
0
LINE
8
BLACK
6
CONTINUOUS
10
0.536638
20
0.755385
11
0.538536
21
0.756076
0
LINE
8
BLACK
6
CONTINUOUS
10
0.538536
20
0.756076
11
0.566179
21
0.756076
0
LINE
8
BLACK
6
CONTINUOUS
10
0.566179
20
0.756076
11
0.570687
21
0.757579
0
LINE
8
BLACK
6
CONTINUOUS
10
0.570687
20
0.757579
11
0.573451
21
0.760343
0
LINE
8
BLACK
6
CONTINUOUS
10
0.573451
20
0.760343
11
0.574954
21
0.764851
0
LINE
8
BLACK
6
CONTINUOUS
10
0.574954
20
0.764851
11
0.574954
21
0.768121
0
LINE
8
BLACK
6
CONTINUOUS
10
0.574954
20
0.768121
11
0.575132
21
0.769131
0
LINE
8
BLACK
6
CONTINUOUS
10
0.575132
20
0.769131
11
0.57643
21
0.770679
0
LINE
8
BLACK
6
CONTINUOUS
10
0.57643
20
0.770679
11
0.578419
21
0.771029
0
LINE
8
BLACK
6
CONTINUOUS
10
0.578419
20
0.771029
11
0.580168
21
0.770019
0
LINE
8
BLACK
6
CONTINUOUS
10
0.656457
20
0.90437
11
0.657849
21
0.903794
0
LINE
8
BLACK
6
CONTINUOUS
10
0.657849
20
0.903794
11
0.658425
21
0.902402
0
LINE
8
BLACK
6
CONTINUOUS
10
0.658425
20
0.902402
11
0.658425
21
0.577598
0
LINE
8
BLACK
6
CONTINUOUS
10
0.658425
20
0.577598
11
0.657849
21
0.576206
0
LINE
8
BLACK
6
CONTINUOUS
10
0.657849
20
0.576206
11
0.656457
21
0.57563
0
LINE
8
BLACK
6
CONTINUOUS
10
0.656457
20
0.57563
11
0.497008
21
0.57563
0
LINE
8
BLACK
6
CONTINUOUS
10
0.497008
20
0.57563
11
0.495616
21
0.576206
0
LINE
8
BLACK
6
CONTINUOUS
10
0.495616
20
0.576206
11
0.495039
21
0.577598
0
LINE
8
BLACK
6
CONTINUOUS
10
0.495039
20
0.577598
11
0.495039
21
0.577598
0
LINE
8
BLACK
6
CONTINUOUS
10
0.495039
20
0.577598
11
0.495039
21
0.902402
0
LINE
8
BLACK
6
CONTINUOUS
10
0.495039
20
0.902402
11
0.495616
21
0.903794
0
LINE
8
BLACK
6
CONTINUOUS
10
0.495616
20
0.903794
11
0.497008
21
0.90437
0
LINE
8
BLACK
6
CONTINUOUS
10
0.497008
20
0.90437
11
0.656457
21
0.90437
0
LINE
8
BLACK
6
CONTINUOUS
10
0.498976
20
0.900433
11
0.498976
21
0.834523
0
LINE
8
BLACK
6
CONTINUOUS
10
0.498976
20
0.834523
11
0.525983
21
0.815426
0
LINE
8
BLACK
6
CONTINUOUS
10
0.525983
20
0.815426
11
0.526165
21
0.815138
0
LINE
8
BLACK
6
CONTINUOUS
10
0.526165
20
0.815138
11
0.526454
21
0.814955
0
LINE
8
BLACK
6
CONTINUOUS
10
0.526454
20
0.814955
11
0.526551
21
0.814525
0
LINE
8
BLACK
6
CONTINUOUS
10
0.526551
20
0.814525
11
0.526787
21
0.814152
0
LINE
8
BLACK
6
CONTINUOUS
10
0.526787
20
0.814152
11
0.526711
21
0.813819
0
LINE
8
BLACK
6
CONTINUOUS
10
0.526711
20
0.813819
11
0.526787
21
0.813486
0
LINE
8
BLACK
6
CONTINUOUS
10
0.526787
20
0.813486
11
0.526551
21
0.813113
0
LINE
8
BLACK
6
CONTINUOUS
10
0.526551
20
0.813113
11
0.526454
21
0.812682
0
LINE
8
BLACK
6
CONTINUOUS
10
0.526454
20
0.812682
11
0.526165
21
0.8125
0
LINE
8
BLACK
6
CONTINUOUS
10
0.526165
20
0.8125
11
0.525983
21
0.812212
0
LINE
8
BLACK
6
CONTINUOUS
10
0.525983
20
0.812212
11
0.498976
21
0.793115
0
LINE
8
BLACK
6
CONTINUOUS
10
0.498976
20
0.793115
11
0.498976
21
0.579567
0
LINE
8
BLACK
6
CONTINUOUS
10
0.498976
20
0.579567
11
0.654488
21
0.579567
0
LINE
8
BLACK
6
CONTINUOUS
10
0.654488
20
0.579567
11
0.654488
21
0.900433
0
LINE
8
BLACK
6
CONTINUOUS
10
0.654488
20
0.900433
11
0.498976
21
0.900433
0
LINE
8
BLACK
6
CONTINUOUS
10
0.498976
20
0.797937
11
0.521437
21
0.813819
0
LINE
8
BLACK
6
CONTINUOUS
10
0.521437
20
0.813819
11
0.498976
21
0.829701
0
LINE
8
BLACK
6
CONTINUOUS
10
0.498976
20
0.829701
11
0.498976
21
0.797937
0
LINE
8
BLACK
6
CONTINUOUS
10
0.704338
20
0.649974
11
0.704473
21
0.64986
0
LINE
8
BLACK
6
CONTINUOUS
10
0.704473
20
0.64986
11
0.704649
21
0.64984
0
LINE
8
BLACK
6
CONTINUOUS
10
0.704649
20
0.64984
11
0.708398
21
0.647965
0
LINE
8
BLACK
6
CONTINUOUS
10
0.708398
20
0.647965
11
0.709107
21
0.647439
0
LINE
8
BLACK
6
CONTINUOUS
10
0.709107
20
0.647439
11
0.709166
21
0.647412
0
LINE
8
BLACK
6
CONTINUOUS
10
0.709166
20
0.647412
11
0.71104
21
0.645537
0
LINE
8
BLACK
6
CONTINUOUS
10
0.71104
20
0.645537
11
0.711547
21
0.644814
0
LINE
8
BLACK
6
CONTINUOUS
10
0.711547
20
0.644814
11
0.711593
21
0.64477
0
LINE
8
BLACK
6
CONTINUOUS
10
0.711593
20
0.64477
11
0.713468
21
0.641021
0
LINE
8
BLACK
6
CONTINUOUS
10
0.713468
20
0.641021
11
0.713613
21
0.640532
0
LINE
8
BLACK
6
CONTINUOUS
10
0.713613
20
0.640532
11
0.713692
21
0.640416
0
LINE
8
BLACK
6
CONTINUOUS
10
0.713692
20
0.640416
11
0.715488
21
0.633232
0
LINE
8
BLACK
6
CONTINUOUS
10
0.715488
20
0.633232
11
0.717003
21
0.630201
0
LINE
8
BLACK
6
CONTINUOUS
10
0.717003
20
0.630201
11
0.7182
21
0.629003
0
LINE
8
BLACK
6
CONTINUOUS
10
0.7182
20
0.629003
11
0.720898
21
0.627655
0
LINE
8
BLACK
6
CONTINUOUS
10
0.720898
20
0.627655
11
0.723253
21
0.627655
0
LINE
8
BLACK
6
CONTINUOUS
10
0.723253
20
0.627655
11
0.725951
21
0.629003
0
LINE
8
BLACK
6
CONTINUOUS
10
0.725951
20
0.629003
11
0.727148
21
0.630201
0
LINE
8
BLACK
6
CONTINUOUS
10
0.727148
20
0.630201
11
0.728497
21
0.632898
0
LINE
8
BLACK
6
CONTINUOUS
10
0.728497
20
0.632898
11
0.728497
21
0.641096
0
LINE
8
BLACK
6
CONTINUOUS
10
0.728497
20
0.641096
11
0.726774
21
0.646265
0
LINE
8
BLACK
6
CONTINUOUS
10
0.726774
20
0.646265
11
0.726623
21
0.64728
0
LINE
8
BLACK
6
CONTINUOUS
10
0.726623
20
0.64728
11
0.727366
21
0.649158
0
LINE
8
BLACK
6
CONTINUOUS
10
0.727366
20
0.649158
11
0.729142
21
0.65012
0
LINE
8
BLACK
6
CONTINUOUS
10
0.729142
20
0.65012
11
0.73112
21
0.649715
0
LINE
8
BLACK
6
CONTINUOUS
10
0.73112
20
0.649715
11
0.732376
21
0.648133
0
LINE
8
BLACK
6
CONTINUOUS
10
0.732376
20
0.648133
11
0.734251
21
0.642509
0
LINE
8
BLACK
6
CONTINUOUS
10
0.734251
20
0.642509
11
0.73438
21
0.641635
0
LINE
8
BLACK
6
CONTINUOUS
10
0.73438
20
0.641635
11
0.734402
21
0.641575
0
LINE
8
BLACK
6
CONTINUOUS
10
0.734402
20
0.641575
11
0.734402
21
0.632201
0
LINE
8
BLACK
6
CONTINUOUS
10
0.734402
20
0.632201
11
0.734224
21
0.631191
0
LINE
8
BLACK
6
CONTINUOUS
10
0.734224
20
0.631191
11
0.734111
21
0.631056
0
LINE
8
BLACK
6
CONTINUOUS
10
0.734111
20
0.631056
11
0.734091
21
0.63088
0
LINE
8
BLACK
6
CONTINUOUS
10
0.734091
20
0.63088
11
0.732216
21
0.627131
0
LINE
8
BLACK
6
CONTINUOUS
10
0.732216
20
0.627131
11
0.73169
21
0.626422
0
LINE
8
BLACK
6
CONTINUOUS
10
0.73169
20
0.626422
11
0.731663
21
0.626364
0
LINE
8
BLACK
6
CONTINUOUS
10
0.731663
20
0.626364
11
0.729788
21
0.624489
0
LINE
8
BLACK
6
CONTINUOUS
10
0.729788
20
0.624489
11
0.729065
21
0.623982
0
LINE
8
BLACK
6
CONTINUOUS
10
0.729065
20
0.623982
11
0.729021
21
0.623936
0
LINE
8
BLACK
6
CONTINUOUS
10
0.729021
20
0.623936
11
0.725271
21
0.622061
0
LINE
8
BLACK
6
CONTINUOUS
10
0.725271
20
0.622061
11
0.724288
21
0.621769
0
LINE
8
BLACK
6
CONTINUOUS
10
0.724288
20
0.621769
11
0.724116
21
0.62181
0
LINE
8
BLACK
6
CONTINUOUS
10
0.724116
20
0.62181
11
0.72395
21
0.621749
0
LINE
8
BLACK
6
CONTINUOUS
10
0.72395
20
0.621749
11
0.720201
21
0.621749
0
LINE
8
BLACK
6
CONTINUOUS
10
0.720201
20
0.621749
11
0.719191
21
0.621927
0
LINE
8
BLACK
6
CONTINUOUS
10
0.719191
20
0.621927
11
0.719056
21
0.622041
0
LINE
8
BLACK
6
CONTINUOUS
10
0.719056
20
0.622041
11
0.71888
21
0.622061
0
LINE
8
BLACK
6
CONTINUOUS
10
0.71888
20
0.622061
11
0.715131
21
0.623936
0
LINE
8
BLACK
6
CONTINUOUS
10
0.715131
20
0.623936
11
0.714422
21
0.624462
0
LINE
8
BLACK
6
CONTINUOUS
10
0.714422
20
0.624462
11
0.714364
21
0.624489
0
LINE
8
BLACK
6
CONTINUOUS
10
0.714364
20
0.624489
11
0.712489
21
0.626364
0
LINE
8
BLACK
6
CONTINUOUS
10
0.712489
20
0.626364
11
0.711982
21
0.627087
0
LINE
8
BLACK
6
CONTINUOUS
10
0.711982
20
0.627087
11
0.711936
21
0.627131
0
LINE
8
BLACK
6
CONTINUOUS
10
0.711936
20
0.627131
11
0.710061
21
0.63088
0
LINE
8
BLACK
6
CONTINUOUS
10
0.710061
20
0.63088
11
0.709916
21
0.631369
0
LINE
8
BLACK
6
CONTINUOUS
10
0.709916
20
0.631369
11
0.709837
21
0.631485
0
LINE
8
BLACK
6
CONTINUOUS
10
0.709837
20
0.631485
11
0.708041
21
0.638669
0
LINE
8
BLACK
6
CONTINUOUS
10
0.708041
20
0.638669
11
0.706526
21
0.6417
0
LINE
8
BLACK
6
CONTINUOUS
10
0.706526
20
0.6417
11
0.705329
21
0.642898
0
LINE
8
BLACK
6
CONTINUOUS
10
0.705329
20
0.642898
11
0.702631
21
0.644246
0
LINE
8
BLACK
6
CONTINUOUS
10
0.702631
20
0.644246
11
0.700276
21
0.644246
0
LINE
8
BLACK
6
CONTINUOUS
10
0.700276
20
0.644246
11
0.697578
21
0.642898
0
LINE
8
BLACK
6
CONTINUOUS
10
0.697578
20
0.642898
11
0.696381
21
0.6417
0
LINE
8
BLACK
6
CONTINUOUS
10
0.696381
20
0.6417
11
0.695032
21
0.639003
0
LINE
8
BLACK
6
CONTINUOUS
10
0.695032
20
0.639003
11
0.695032
21
0.630805
0
LINE
8
BLACK
6
CONTINUOUS
10
0.695032
20
0.630805
11
0.696755
21
0.625636
0
LINE
8
BLACK
6
CONTINUOUS
10
0.696755
20
0.625636
11
0.696906
21
0.624621
0
LINE
8
BLACK
6
CONTINUOUS
10
0.696906
20
0.624621
11
0.696164
21
0.622743
0
LINE
8
BLACK
6
CONTINUOUS
10
0.696164
20
0.622743
11
0.694387
21
0.621781
0
LINE
8
BLACK
6
CONTINUOUS
10
0.694387
20
0.621781
11
0.692409
21
0.622186
0
LINE
8
BLACK
6
CONTINUOUS
10
0.692409
20
0.622186
11
0.691153
21
0.623768
0
LINE
8
BLACK
6
CONTINUOUS
10
0.691153
20
0.623768
11
0.689278
21
0.629392
0
LINE
8
BLACK
6
CONTINUOUS
10
0.689278
20
0.629392
11
0.689149
21
0.630266
0
LINE
8
BLACK
6
CONTINUOUS
10
0.689149
20
0.630266
11
0.689127
21
0.630326
0
LINE
8
BLACK
6
CONTINUOUS
10
0.689127
20
0.630326
11
0.689127
21
0.6397
0
LINE
8
BLACK
6
CONTINUOUS
10
0.689127
20
0.6397
11
0.689305
21
0.64071
0
LINE
8
BLACK
6
CONTINUOUS
10
0.689305
20
0.64071
11
0.689418
21
0.640845
0
LINE
8
BLACK
6
CONTINUOUS
10
0.689418
20
0.640845
11
0.689438
21
0.641021
0
LINE
8
BLACK
6
CONTINUOUS
10
0.689438
20
0.641021
11
0.691313
21
0.64477
0
LINE
8
BLACK
6
CONTINUOUS
10
0.691313
20
0.64477
11
0.691839
21
0.645479
0
LINE
8
BLACK
6
CONTINUOUS
10
0.691839
20
0.645479
11
0.691866
21
0.645537
0
LINE
8
BLACK
6
CONTINUOUS
10
0.691866
20
0.645537
11
0.693741
21
0.647412
0
LINE
8
BLACK
6
CONTINUOUS
10
0.693741
20
0.647412
11
0.694464
21
0.647919
0
LINE
8
BLACK
6
CONTINUOUS
10
0.694464
20
0.647919
11
0.694509
21
0.647965
0
LINE
8
BLACK
6
CONTINUOUS
10
0.694509
20
0.647965
11
0.698258
21
0.64984
0
LINE
8
BLACK
6
CONTINUOUS
10
0.698258
20
0.64984
11
0.699241
21
0.650132
0
LINE
8
BLACK
6
CONTINUOUS
10
0.699241
20
0.650132
11
0.699413
21
0.650091
0
LINE
8
BLACK
6
CONTINUOUS
10
0.699413
20
0.650091
11
0.699579
21
0.650152
0
LINE
8
BLACK
6
CONTINUOUS
10
0.699579
20
0.650152
11
0.703328
21
0.650152
0
LINE
8
BLACK
6
CONTINUOUS
10
0.703328
20
0.650152
11
0.704338
21
0.649974
0
LINE
8
BLACK
6
CONTINUOUS
10
0.732459
20
0.689344
11
0.734007
21
0.688046
0
LINE
8
BLACK
6
CONTINUOUS
10
0.734007
20
0.688046
11
0.734357
21
0.686056
0
LINE
8
BLACK
6
CONTINUOUS
10
0.734357
20
0.686056
11
0.733348
21
0.684307
0
LINE
8
BLACK
6
CONTINUOUS
10
0.733348
20
0.684307
11
0.73145
21
0.683616
0
LINE
8
BLACK
6
CONTINUOUS
10
0.73145
20
0.683616
11
0.71378
21
0.683616
0
LINE
8
BLACK
6
CONTINUOUS
10
0.71378
20
0.683616
11
0.71378
21
0.667025
0
LINE
8
BLACK
6
CONTINUOUS
10
0.71378
20
0.667025
11
0.73145
21
0.667025
0
LINE
8
BLACK
6
CONTINUOUS
10
0.73145
20
0.667025
11
0.732459
21
0.666847
0
LINE
8
BLACK
6
CONTINUOUS
10
0.732459
20
0.666847
11
0.734007
21
0.665548
0
LINE
8
BLACK
6
CONTINUOUS
10
0.734007
20
0.665548
11
0.734357
21
0.663559
0
LINE
8
BLACK
6
CONTINUOUS
10
0.734357
20
0.663559
11
0.733348
21
0.66181
0
LINE
8
BLACK
6
CONTINUOUS
10
0.733348
20
0.66181
11
0.73145
21
0.661119
0
LINE
8
BLACK
6
CONTINUOUS
10
0.73145
20
0.661119
11
0.692079
21
0.661119
0
LINE
8
BLACK
6
CONTINUOUS
10
0.692079
20
0.661119
11
0.69107
21
0.661297
0
LINE
8
BLACK
6
CONTINUOUS
10
0.69107
20
0.661297
11
0.689522
21
0.662596
0
LINE
8
BLACK
6
CONTINUOUS
10
0.689522
20
0.662596
11
0.689172
21
0.664585
0
LINE
8
BLACK
6
CONTINUOUS
10
0.689172
20
0.664585
11
0.690181
21
0.666334
0
LINE
8
BLACK
6
CONTINUOUS
10
0.690181
20
0.666334
11
0.692079
21
0.667025
0
LINE
8
BLACK
6
CONTINUOUS
10
0.692079
20
0.667025
11
0.707874
21
0.667025
0
LINE
8
BLACK
6
CONTINUOUS
10
0.707874
20
0.667025
11
0.707874
21
0.683616
0
LINE
8
BLACK
6
CONTINUOUS
10
0.707874
20
0.683616
11
0.692079
21
0.683616
0
LINE
8
BLACK
6
CONTINUOUS
10
0.692079
20
0.683616
11
0.69107
21
0.683794
0
LINE
8
BLACK
6
CONTINUOUS
10
0.69107
20
0.683794
11
0.689522
21
0.685093
0
LINE
8
BLACK
6
CONTINUOUS
10
0.689522
20
0.685093
11
0.689172
21
0.687082
0
LINE
8
BLACK
6
CONTINUOUS
10
0.689172
20
0.687082
11
0.690181
21
0.688831
0
LINE
8
BLACK
6
CONTINUOUS
10
0.690181
20
0.688831
11
0.692079
21
0.689522
0
LINE
8
BLACK
6
CONTINUOUS
10
0.692079
20
0.689522
11
0.73145
21
0.689522
0
LINE
8
BLACK
6
CONTINUOUS
10
0.73145
20
0.689522
11
0.732459
21
0.689344
0
LINE
8
BLACK
6
CONTINUOUS
10
0.715157
20
0.730664
11
0.715293
21
0.730679
0
LINE
8
BLACK
6
CONTINUOUS
10
0.715293
20
0.730679
11
0.722792
21
0.728804
0
LINE
8
BLACK
6
CONTINUOUS
10
0.722792
20
0.728804
11
0.723257
21
0.728596
0
LINE
8
BLACK
6
CONTINUOUS
10
0.723257
20
0.728596
11
0.723396
21
0.72858
0
LINE
8
BLACK
6
CONTINUOUS
10
0.723396
20
0.72858
11
0.727146
21
0.726706
0
LINE
8
BLACK
6
CONTINUOUS
10
0.727146
20
0.726706
11
0.727855
21
0.72618
0
LINE
8
BLACK
6
CONTINUOUS
10
0.727855
20
0.72618
11
0.727913
21
0.726152
0
LINE
8
BLACK
6
CONTINUOUS
10
0.727913
20
0.726152
11
0.731663
21
0.722403
0
LINE
8
BLACK
6
CONTINUOUS
10
0.731663
20
0.722403
11
0.732251
21
0.721563
0
LINE
8
BLACK
6
CONTINUOUS
10
0.732251
20
0.721563
11
0.732266
21
0.721387
0
LINE
8
BLACK
6
CONTINUOUS
10
0.732266
20
0.721387
11
0.732376
21
0.721249
0
LINE
8
BLACK
6
CONTINUOUS
10
0.732376
20
0.721249
11
0.734251
21
0.715624
0
LINE
8
BLACK
6
CONTINUOUS
10
0.734251
20
0.715624
11
0.73438
21
0.714751
0
LINE
8
BLACK
6
CONTINUOUS
10
0.73438
20
0.714751
11
0.734402
21
0.714691
0
LINE
8
BLACK
6
CONTINUOUS
10
0.734402
20
0.714691
11
0.734402
21
0.710941
0
LINE
8
BLACK
6
CONTINUOUS
10
0.734402
20
0.710941
11
0.734249
21
0.710072
0
LINE
8
BLACK
6
CONTINUOUS
10
0.734249
20
0.710072
11
0.734251
21
0.710007
0
LINE
8
BLACK
6
CONTINUOUS
10
0.734251
20
0.710007
11
0.732376
21
0.704383
0
LINE
8
BLACK
6
CONTINUOUS
10
0.732376
20
0.704383
11
0.731888
21
0.703481
0
LINE
8
BLACK
6
CONTINUOUS
10
0.731888
20
0.703481
11
0.731737
21
0.703389
0
LINE
8
BLACK
6
CONTINUOUS
10
0.731737
20
0.703389
11
0.731663
21
0.703229
0
LINE
8
BLACK
6
CONTINUOUS
10
0.731663
20
0.703229
11
0.729788
21
0.701354
0
LINE
8
BLACK
6
CONTINUOUS
10
0.729788
20
0.701354
11
0.729638
21
0.701249
0
LINE
8
BLACK
6
CONTINUOUS
10
0.729638
20
0.701249
11
0.729598
21
0.70118
0
LINE
8
BLACK
6
CONTINUOUS
10
0.729598
20
0.70118
11
0.729476
21
0.701136
0
LINE
8
BLACK
6
CONTINUOUS
10
0.729476
20
0.701136
11
0.728948
21
0.700766
0
LINE
8
BLACK
6
CONTINUOUS
10
0.728948
20
0.700766
11
0.728306
21
0.70071
0
LINE
8
BLACK
6
CONTINUOUS
10
0.728306
20
0.70071
11
0.7277
21
0.700489
0
LINE
8
BLACK
6
CONTINUOUS
10
0.7277
20
0.700489
11
0.714577
21
0.700489
0
LINE
8
BLACK
6
CONTINUOUS
10
0.714577
20
0.700489
11
0.714193
21
0.700557
0
LINE
8
BLACK
6
CONTINUOUS
10
0.714193
20
0.700557
11
0.714064
21
0.700534
0
LINE
8
BLACK
6
CONTINUOUS
10
0.714064
20
0.700534
11
0.71395
21
0.7006
0
LINE
8
BLACK
6
CONTINUOUS
10
0.71395
20
0.7006
11
0.713567
21
0.700667
0
LINE
8
BLACK
6
CONTINUOUS
10
0.713567
20
0.700667
11
0.712979
21
0.701161
0
LINE
8
BLACK
6
CONTINUOUS
10
0.712979
20
0.701161
11
0.712315
21
0.701544
0
LINE
8
BLACK
6
CONTINUOUS
10
0.712315
20
0.701544
11
0.712224
21
0.701794
0
LINE
8
BLACK
6
CONTINUOUS
10
0.712224
20
0.701794
11
0.712019
21
0.701966
0
LINE
8
BLACK
6
CONTINUOUS
10
0.712019
20
0.701966
11
0.711886
21
0.702721
0
LINE
8
BLACK
6
CONTINUOUS
10
0.711886
20
0.702721
11
0.711624
21
0.703442
0
LINE
8
BLACK
6
CONTINUOUS
10
0.711624
20
0.703442
11
0.711624
21
0.710941
0
LINE
8
BLACK
6
CONTINUOUS
10
0.711624
20
0.710941
11
0.711802
21
0.711951
0
LINE
8
BLACK
6
CONTINUOUS
10
0.711802
20
0.711951
11
0.7131
21
0.713498
0
LINE
8
BLACK
6
CONTINUOUS
10
0.7131
20
0.713498
11
0.715089
21
0.713849
0
LINE
8
BLACK
6
CONTINUOUS
10
0.715089
20
0.713849
11
0.716839
21
0.712839
0
LINE
8
BLACK
6
CONTINUOUS
10
0.716839
20
0.712839
11
0.717529
21
0.710941
0
LINE
8
BLACK
6
CONTINUOUS
10
0.717529
20
0.710941
11
0.717529
21
0.706395
0
LINE
8
BLACK
6
CONTINUOUS
10
0.717529
20
0.706395
11
0.726477
21
0.706395
0
LINE
8
BLACK
6
CONTINUOUS
10
0.726477
20
0.706395
11
0.726994
21
0.706912
0
LINE
8
BLACK
6
CONTINUOUS
10
0.726994
20
0.706912
11
0.728497
21
0.71142
0
LINE
8
BLACK
6
CONTINUOUS
10
0.728497
20
0.71142
11
0.728497
21
0.714212
0
LINE
8
BLACK
6
CONTINUOUS
10
0.728497
20
0.714212
11
0.726994
21
0.71872
0
LINE
8
BLACK
6
CONTINUOUS
10
0.726994
20
0.71872
11
0.724076
21
0.721638
0
LINE
8
BLACK
6
CONTINUOUS
10
0.724076
20
0.721638
11
0.721045
21
0.723153
0
LINE
8
BLACK
6
CONTINUOUS
10
0.721045
20
0.723153
11
0.714213
21
0.724861
0
LINE
8
BLACK
6
CONTINUOUS
10
0.714213
20
0.724861
11
0.709316
21
0.724861
0
LINE
8
BLACK
6
CONTINUOUS
10
0.709316
20
0.724861
11
0.702484
21
0.723153
0
LINE
8
BLACK
6
CONTINUOUS
10
0.702484
20
0.723153
11
0.699453
21
0.721638
0
LINE
8
BLACK
6
CONTINUOUS
10
0.699453
20
0.721638
11
0.696535
21
0.71872
0
LINE
8
BLACK
6
CONTINUOUS
10
0.696535
20
0.71872
11
0.695032
21
0.714212
0
LINE
8
BLACK
6
CONTINUOUS
10
0.695032
20
0.714212
11
0.695032
21
0.709763
0
LINE
8
BLACK
6
CONTINUOUS
10
0.695032
20
0.709763
11
0.696595
21
0.706637
0
LINE
8
BLACK
6
CONTINUOUS
10
0.696595
20
0.706637
11
0.696888
21
0.705654
0
LINE
8
BLACK
6
CONTINUOUS
10
0.696888
20
0.705654
11
0.696418
21
0.70369
0
LINE
8
BLACK
6
CONTINUOUS
10
0.696418
20
0.70369
11
0.694796
21
0.702487
0
LINE
8
BLACK
6
CONTINUOUS
10
0.694796
20
0.702487
11
0.69278
21
0.702608
0
LINE
8
BLACK
6
CONTINUOUS
10
0.69278
20
0.702608
11
0.691313
21
0.703996
0
LINE
8
BLACK
6
CONTINUOUS
10
0.691313
20
0.703996
11
0.689438
21
0.707746
0
LINE
8
BLACK
6
CONTINUOUS
10
0.689438
20
0.707746
11
0.689146
21
0.708729
0
LINE
8
BLACK
6
CONTINUOUS
10
0.689146
20
0.708729
11
0.689187
21
0.708901
0
LINE
8
BLACK
6
CONTINUOUS
10
0.689187
20
0.708901
11
0.689127
21
0.709066
0
LINE
8
BLACK
6
CONTINUOUS
10
0.689127
20
0.709066
11
0.689127
21
0.714691
0
LINE
8
BLACK
6
CONTINUOUS
10
0.689127
20
0.714691
11
0.68928
21
0.71556
0
LINE
8
BLACK
6
CONTINUOUS
10
0.68928
20
0.71556
11
0.689278
21
0.715624
0
LINE
8
BLACK
6
CONTINUOUS
10
0.689278
20
0.715624
11
0.691153
21
0.721249
0
LINE
8
BLACK
6
CONTINUOUS
10
0.691153
20
0.721249
11
0.691641
21
0.72215
0
LINE
8
BLACK
6
CONTINUOUS
10
0.691641
20
0.72215
11
0.691792
21
0.722243
0
LINE
8
BLACK
6
CONTINUOUS
10
0.691792
20
0.722243
11
0.691866
21
0.722403
0
LINE
8
BLACK
6
CONTINUOUS
10
0.691866
20
0.722403
11
0.695616
21
0.726152
0
LINE
8
BLACK
6
CONTINUOUS
10
0.695616
20
0.726152
11
0.696339
21
0.726659
0
LINE
8
BLACK
6
CONTINUOUS
10
0.696339
20
0.726659
11
0.696383
21
0.726706
0
LINE
8
BLACK
6
CONTINUOUS
10
0.696383
20
0.726706
11
0.700133
21
0.72858
0
LINE
8
BLACK
6
CONTINUOUS
10
0.700133
20
0.72858
11
0.700621
21
0.728726
0
LINE
8
BLACK
6
CONTINUOUS
10
0.700621
20
0.728726
11
0.700737
21
0.728804
0
LINE
8
BLACK
6
CONTINUOUS
10
0.700737
20
0.728804
11
0.708236
21
0.730679
0
LINE
8
BLACK
6
CONTINUOUS
10
0.708236
20
0.730679
11
0.708824
21
0.73072
0
LINE
8
BLACK
6
CONTINUOUS
10
0.708824
20
0.73072
11
0.708952
21
0.730767
0
LINE
8
BLACK
6
CONTINUOUS
10
0.708952
20
0.730767
11
0.714577
21
0.730767
0
LINE
8
BLACK
6
CONTINUOUS
10
0.714577
20
0.730767
11
0.715157
21
0.730664
0
LINE
8
BLACK
6
CONTINUOUS
10
0.718713
20
0.776581
11
0.719404
21
0.774683
0
LINE
8
BLACK
6
CONTINUOUS
10
0.719404
20
0.774683
11
0.719404
21
0.744687
0
LINE
8
BLACK
6
CONTINUOUS
10
0.719404
20
0.744687
11
0.719226
21
0.743677
0
LINE
8
BLACK
6
CONTINUOUS
10
0.719226
20
0.743677
11
0.717928
21
0.74213
0
LINE
8
BLACK
6
CONTINUOUS
10
0.717928
20
0.74213
11
0.715939
21
0.741779
0
LINE
8
BLACK
6
CONTINUOUS
10
0.715939
20
0.741779
11
0.714189
21
0.742789
0
LINE
8
BLACK
6
CONTINUOUS
10
0.714189
20
0.742789
11
0.713499
21
0.744687
0
LINE
8
BLACK
6
CONTINUOUS
10
0.713499
20
0.744687
11
0.713499
21
0.774683
0
LINE
8
BLACK
6
CONTINUOUS
10
0.713499
20
0.774683
11
0.713677
21
0.775693
0
LINE
8
BLACK
6
CONTINUOUS
10
0.713677
20
0.775693
11
0.714975
21
0.77724
0
LINE
8
BLACK
6
CONTINUOUS
10
0.714975
20
0.77724
11
0.716964
21
0.777591
0
LINE
8
BLACK
6
CONTINUOUS
10
0.716964
20
0.777591
11
0.718713
21
0.776581
0
LINE
8
BLACK
6
CONTINUOUS
10
0.731833
20
0.816938
11
0.731962
21
0.816961
0
LINE
8
BLACK
6
CONTINUOUS
10
0.731962
20
0.816961
11
0.732076
21
0.816896
0
LINE
8
BLACK
6
CONTINUOUS
10
0.732076
20
0.816896
11
0.732459
21
0.816828
0
LINE
8
BLACK
6
CONTINUOUS
10
0.732459
20
0.816828
11
0.733047
21
0.816335
0
LINE
8
BLACK
6
CONTINUOUS
10
0.733047
20
0.816335
11
0.733711
21
0.815951
0
LINE
8
BLACK
6
CONTINUOUS
10
0.733711
20
0.815951
11
0.733803
21
0.815701
0
LINE
8
BLACK
6
CONTINUOUS
10
0.733803
20
0.815701
11
0.734007
21
0.81553
0
LINE
8
BLACK
6
CONTINUOUS
10
0.734007
20
0.81553
11
0.73414
21
0.814774
0
LINE
8
BLACK
6
CONTINUOUS
10
0.73414
20
0.814774
11
0.734402
21
0.814053
0
LINE
8
BLACK
6
CONTINUOUS
10
0.734402
20
0.814053
11
0.734402
21
0.799055
0
LINE
8
BLACK
6
CONTINUOUS
10
0.734402
20
0.799055
11
0.734224
21
0.798045
0
LINE
8
BLACK
6
CONTINUOUS
10
0.734224
20
0.798045
11
0.734111
21
0.79791
0
LINE
8
BLACK
6
CONTINUOUS
10
0.734111
20
0.79791
11
0.734091
21
0.797735
0
LINE
8
BLACK
6
CONTINUOUS
10
0.734091
20
0.797735
11
0.732216
21
0.793985
0
LINE
8
BLACK
6
CONTINUOUS
10
0.732216
20
0.793985
11
0.73169
21
0.793276
0
LINE
8
BLACK
6
CONTINUOUS
10
0.73169
20
0.793276
11
0.731663
21
0.793218
0
LINE
8
BLACK
6
CONTINUOUS
10
0.731663
20
0.793218
11
0.729788
21
0.791343
0
LINE
8
BLACK
6
CONTINUOUS
10
0.729788
20
0.791343
11
0.729065
21
0.790837
0
LINE
8
BLACK
6
CONTINUOUS
10
0.729065
20
0.790837
11
0.729021
21
0.79079
0
LINE
8
BLACK
6
CONTINUOUS
10
0.729021
20
0.79079
11
0.725271
21
0.788915
0
LINE
8
BLACK
6
CONTINUOUS
10
0.725271
20
0.788915
11
0.724288
21
0.788623
0
LINE
8
BLACK
6
CONTINUOUS
10
0.724288
20
0.788623
11
0.724116
21
0.788664
0
LINE
8
BLACK
6
CONTINUOUS
10
0.724116
20
0.788664
11
0.72395
21
0.788603
0
LINE
8
BLACK
6
CONTINUOUS
10
0.72395
20
0.788603
11
0.718326
21
0.788603
0
LINE
8
BLACK
6
CONTINUOUS
10
0.718326
20
0.788603
11
0.717316
21
0.788781
0
LINE
8
BLACK
6
CONTINUOUS
10
0.717316
20
0.788781
11
0.717181
21
0.788895
0
LINE
8
BLACK
6
CONTINUOUS
10
0.717181
20
0.788895
11
0.717006
21
0.788915
0
LINE
8
BLACK
6
CONTINUOUS
10
0.717006
20
0.788915
11
0.713256
21
0.79079
0
LINE
8
BLACK
6
CONTINUOUS
10
0.713256
20
0.79079
11
0.712547
21
0.791316
0
LINE
8
BLACK
6
CONTINUOUS
10
0.712547
20
0.791316
11
0.712489
21
0.791343
0
LINE
8
BLACK
6
CONTINUOUS
10
0.712489
20
0.791343
11
0.710614
21
0.793218
0
LINE
8
BLACK
6
CONTINUOUS
10
0.710614
20
0.793218
11
0.710026
21
0.794058
0
LINE
8
BLACK
6
CONTINUOUS
10
0.710026
20
0.794058
11
0.710024
21
0.794076
0
LINE
8
BLACK
6
CONTINUOUS
10
0.710024
20
0.794076
11
0.709166
21
0.793218
0
LINE
8
BLACK
6
CONTINUOUS
10
0.709166
20
0.793218
11
0.708442
21
0.792711
0
LINE
8
BLACK
6
CONTINUOUS
10
0.708442
20
0.792711
11
0.708398
21
0.792665
0
LINE
8
BLACK
6
CONTINUOUS
10
0.708398
20
0.792665
11
0.704649
21
0.79079
0
LINE
8
BLACK
6
CONTINUOUS
10
0.704649
20
0.79079
11
0.703666
21
0.790497
0
LINE
8
BLACK
6
CONTINUOUS
10
0.703666
20
0.790497
11
0.703494
21
0.790538
0
LINE
8
BLACK
6
CONTINUOUS
10
0.703494
20
0.790538
11
0.703328
21
0.790478
0
LINE
8
BLACK
6
CONTINUOUS
10
0.703328
20
0.790478
11
0.699579
21
0.790478
0
LINE
8
BLACK
6
CONTINUOUS
10
0.699579
20
0.790478
11
0.698569
21
0.790656
0
LINE
8
BLACK
6
CONTINUOUS
10
0.698569
20
0.790656
11
0.698433
21
0.79077
0
LINE
8
BLACK
6
CONTINUOUS
10
0.698433
20
0.79077
11
0.698258
21
0.79079
0
LINE
8
BLACK
6
CONTINUOUS
10
0.698258
20
0.79079
11
0.694509
21
0.792665
0
LINE
8
BLACK
6
CONTINUOUS
10
0.694509
20
0.792665
11
0.693799
21
0.79319
0
LINE
8
BLACK
6
CONTINUOUS
10
0.693799
20
0.79319
11
0.693741
21
0.793218
0
LINE
8
BLACK
6
CONTINUOUS
10
0.693741
20
0.793218
11
0.691866
21
0.795092
0
LINE
8
BLACK
6
CONTINUOUS
10
0.691866
20
0.795092
11
0.69136
21
0.795816
0
LINE
8
BLACK
6
CONTINUOUS
10
0.69136
20
0.795816
11
0.691313
21
0.79586
0
LINE
8
BLACK
6
CONTINUOUS
10
0.691313
20
0.79586
11
0.689438
21
0.799609
0
LINE
8
BLACK
6
CONTINUOUS
10
0.689438
20
0.799609
11
0.689146
21
0.800592
0
LINE
8
BLACK
6
CONTINUOUS
10
0.689146
20
0.800592
11
0.689187
21
0.800764
0
LINE
8
BLACK
6
CONTINUOUS
10
0.689187
20
0.800764
11
0.689127
21
0.80093
0
LINE
8
BLACK
6
CONTINUOUS
10
0.689127
20
0.80093
11
0.689127
21
0.814053
0
LINE
8
BLACK
6
CONTINUOUS
10
0.689127
20
0.814053
11
0.689194
21
0.814437
0
LINE
8
BLACK
6
CONTINUOUS
10
0.689194
20
0.814437
11
0.689172
21
0.814566
0
LINE
8
BLACK
6
CONTINUOUS
10
0.689172
20
0.814566
11
0.689237
21
0.81468
0
LINE
8
BLACK
6
CONTINUOUS
10
0.689237
20
0.81468
11
0.689305
21
0.815063
0
LINE
8
BLACK
6
CONTINUOUS
10
0.689305
20
0.815063
11
0.689798
21
0.815651
0
LINE
8
BLACK
6
CONTINUOUS
10
0.689798
20
0.815651
11
0.690181
21
0.816315
0
LINE
8
BLACK
6
CONTINUOUS
10
0.690181
20
0.816315
11
0.690432
21
0.816406
0
LINE
8
BLACK
6
CONTINUOUS
10
0.690432
20
0.816406
11
0.690603
21
0.81661
0
LINE
8
BLACK
6
CONTINUOUS
10
0.690603
20
0.81661
11
0.691359
21
0.816744
0
LINE
8
BLACK
6
CONTINUOUS
10
0.691359
20
0.816744
11
0.692079
21
0.817006
0
LINE
8
BLACK
6
CONTINUOUS
10
0.692079
20
0.817006
11
0.73145
21
0.817006
0
LINE
8
BLACK
6
CONTINUOUS
10
0.73145
20
0.817006
11
0.731833
21
0.816938
0
LINE
8
BLACK
6
CONTINUOUS
10
0.71378
20
0.801409
11
0.715283
21
0.796901
0
LINE
8
BLACK
6
CONTINUOUS
10
0.715283
20
0.796901
11
0.716326
21
0.795858
0
LINE
8
BLACK
6
CONTINUOUS
10
0.716326
20
0.795858
11
0.719023
21
0.794509
0
LINE
8
BLACK
6
CONTINUOUS
10
0.719023
20
0.794509
11
0.723253
21
0.794509
0
LINE
8
BLACK
6
CONTINUOUS
10
0.723253
20
0.794509
11
0.725951
21
0.795858
0
LINE
8
BLACK
6
CONTINUOUS
10
0.725951
20
0.795858
11
0.727148
21
0.797055
0
LINE
8
BLACK
6
CONTINUOUS
10
0.727148
20
0.797055
11
0.728497
21
0.799752
0
LINE
8
BLACK
6
CONTINUOUS
10
0.728497
20
0.799752
11
0.728497
21
0.8111
0
LINE
8
BLACK
6
CONTINUOUS
10
0.728497
20
0.8111
11
0.71378
21
0.8111
0
LINE
8
BLACK
6
CONTINUOUS
10
0.71378
20
0.8111
11
0.71378
21
0.801409
0
LINE
8
BLACK
6
CONTINUOUS
10
0.695032
20
0.801627
11
0.696381
21
0.798929
0
LINE
8
BLACK
6
CONTINUOUS
10
0.696381
20
0.798929
11
0.697578
21
0.797732
0
LINE
8
BLACK
6
CONTINUOUS
10
0.697578
20
0.797732
11
0.700276
21
0.796384
0
LINE
8
BLACK
6
CONTINUOUS
10
0.700276
20
0.796384
11
0.702631
21
0.796384
0
LINE
8
BLACK
6
CONTINUOUS
10
0.702631
20
0.796384
11
0.705329
21
0.797732
0
LINE
8
BLACK
6
CONTINUOUS
10
0.705329
20
0.797732
11
0.706526
21
0.798929
0
LINE
8
BLACK
6
CONTINUOUS
10
0.706526
20
0.798929
11
0.707874
21
0.801627
0
LINE
8
BLACK
6
CONTINUOUS
10
0.707874
20
0.801627
11
0.707874
21
0.8111
0
LINE
8
BLACK
6
CONTINUOUS
10
0.707874
20
0.8111
11
0.695032
21
0.8111
0
LINE
8
BLACK
6
CONTINUOUS
10
0.695032
20
0.8111
11
0.695032
21
0.801627
0
LINE
8
BLACK
6
CONTINUOUS
10
0.718617
20
0.856292
11
0.718839
21
0.856331
0
LINE
8
BLACK
6
CONTINUOUS
10
0.718839
20
0.856331
11
0.719536
21
0.855929
0
LINE
8
BLACK
6
CONTINUOUS
10
0.719536
20
0.855929
11
0.720285
21
0.855633
0
LINE
8
BLACK
6
CONTINUOUS
10
0.720285
20
0.855633
11
0.720393
21
0.855434
0
LINE
8
BLACK
6
CONTINUOUS
10
0.720393
20
0.855434
11
0.720588
21
0.855321
0
LINE
8
BLACK
6
CONTINUOUS
10
0.720588
20
0.855321
11
0.720864
21
0.854565
0
LINE
8
BLACK
6
CONTINUOUS
10
0.720864
20
0.854565
11
0.721247
21
0.853856
0
LINE
8
BLACK
6
CONTINUOUS
10
0.721247
20
0.853856
11
0.721202
21
0.853635
0
LINE
8
BLACK
6
CONTINUOUS
10
0.721202
20
0.853635
11
0.721279
21
0.853423
0
LINE
8
BLACK
6
CONTINUOUS
10
0.721279
20
0.853423
11
0.721279
21
0.837628
0
LINE
8
BLACK
6
CONTINUOUS
10
0.721279
20
0.837628
11
0.73145
21
0.837628
0
LINE
8
BLACK
6
CONTINUOUS
10
0.73145
20
0.837628
11
0.732459
21
0.83745
0
LINE
8
BLACK
6
CONTINUOUS
10
0.732459
20
0.83745
11
0.734007
21
0.836152
0
LINE
8
BLACK
6
CONTINUOUS
10
0.734007
20
0.836152
11
0.734357
21
0.834163
0
LINE
8
BLACK
6
CONTINUOUS
10
0.734357
20
0.834163
11
0.733348
21
0.832414
0
LINE
8
BLACK
6
CONTINUOUS
10
0.733348
20
0.832414
11
0.73145
21
0.831723
0
LINE
8
BLACK
6
CONTINUOUS
10
0.73145
20
0.831723
11
0.721279
21
0.831723
0
LINE
8
BLACK
6
CONTINUOUS
10
0.721279
20
0.831723
11
0.721279
21
0.829051
0
LINE
8
BLACK
6
CONTINUOUS
10
0.721279
20
0.829051
11
0.721101
21
0.828041
0
LINE
8
BLACK
6
CONTINUOUS
10
0.721101
20
0.828041
11
0.719803
21
0.826494
0
LINE
8
BLACK
6
CONTINUOUS
10
0.719803
20
0.826494
11
0.717813
21
0.826143
0
LINE
8
BLACK
6
CONTINUOUS
10
0.717813
20
0.826143
11
0.716064
21
0.827153
0
LINE
8
BLACK
6
CONTINUOUS
10
0.716064
20
0.827153
11
0.715373
21
0.829051
0
LINE
8
BLACK
6
CONTINUOUS
10
0.715373
20
0.829051
11
0.715373
21
0.831723
0
LINE
8
BLACK
6
CONTINUOUS
10
0.715373
20
0.831723
11
0.705203
21
0.831723
0
LINE
8
BLACK
6
CONTINUOUS
10
0.705203
20
0.831723
11
0.704193
21
0.831901
0
LINE
8
BLACK
6
CONTINUOUS
10
0.704193
20
0.831901
11
0.702646
21
0.833199
0
LINE
8
BLACK
6
CONTINUOUS
10
0.702646
20
0.833199
11
0.702295
21
0.835188
0
LINE
8
BLACK
6
CONTINUOUS
10
0.702295
20
0.835188
11
0.703305
21
0.836938
0
LINE
8
BLACK
6
CONTINUOUS
10
0.703305
20
0.836938
11
0.705203
21
0.837628
0
LINE
8
BLACK
6
CONTINUOUS
10
0.705203
20
0.837628
11
0.715373
21
0.837628
0
LINE
8
BLACK
6
CONTINUOUS
10
0.715373
20
0.837628
11
0.715373
21
0.849327
0
LINE
8
BLACK
6
CONTINUOUS
10
0.715373
20
0.849327
11
0.691138
21
0.841248
0
LINE
8
BLACK
6
CONTINUOUS
10
0.691138
20
0.841248
11
0.690124
21
0.841098
0
LINE
8
BLACK
6
CONTINUOUS
10
0.690124
20
0.841098
11
0.688246
21
0.84184
0
LINE
8
BLACK
6
CONTINUOUS
10
0.688246
20
0.84184
11
0.687284
21
0.843616
0
LINE
8
BLACK
6
CONTINUOUS
10
0.687284
20
0.843616
11
0.687689
21
0.845595
0
LINE
8
BLACK
6
CONTINUOUS
10
0.687689
20
0.845595
11
0.689271
21
0.846851
0
LINE
8
BLACK
6
CONTINUOUS
10
0.689271
20
0.846851
11
0.717392
21
0.856225
0
LINE
8
BLACK
6
CONTINUOUS
10
0.717392
20
0.856225
11
0.718407
21
0.856375
0
LINE
8
BLACK
6
CONTINUOUS
10
0.718407
20
0.856375
11
0.718617
21
0.856292
0
LINE
8
BLACK
6
CONTINUOUS
10
0.717032
20
0.893769
11
0.717168
21
0.893783
0
LINE
8
BLACK
6
CONTINUOUS
10
0.717168
20
0.893783
11
0.724667
21
0.891908
0
LINE
8
BLACK
6
CONTINUOUS
10
0.724667
20
0.891908
11
0.725132
21
0.891701
0
LINE
8
BLACK
6
CONTINUOUS
10
0.725132
20
0.891701
11
0.725271
21
0.891685
0
LINE
8
BLACK
6
CONTINUOUS
10
0.725271
20
0.891685
11
0.729021
21
0.88981
0
LINE
8
BLACK
6
CONTINUOUS
10
0.729021
20
0.88981
11
0.729729
21
0.889284
0
LINE
8
BLACK
6
CONTINUOUS
10
0.729729
20
0.889284
11
0.729788
21
0.889257
0
LINE
8
BLACK
6
CONTINUOUS
10
0.729788
20
0.889257
11
0.731663
21
0.887382
0
LINE
8
BLACK
6
CONTINUOUS
10
0.731663
20
0.887382
11
0.732169
21
0.886659
0
LINE
8
BLACK
6
CONTINUOUS
10
0.732169
20
0.886659
11
0.732216
21
0.886615
0
LINE
8
BLACK
6
CONTINUOUS
10
0.732216
20
0.886615
11
0.734091
21
0.882865
0
LINE
8
BLACK
6
CONTINUOUS
10
0.734091
20
0.882865
11
0.734383
21
0.881882
0
LINE
8
BLACK
6
CONTINUOUS
10
0.734383
20
0.881882
11
0.734342
21
0.881711
0
LINE
8
BLACK
6
CONTINUOUS
10
0.734342
20
0.881711
11
0.734402
21
0.881545
0
LINE
8
BLACK
6
CONTINUOUS
10
0.734402
20
0.881545
11
0.734402
21
0.877795
0
LINE
8
BLACK
6
CONTINUOUS
10
0.734402
20
0.877795
11
0.734224
21
0.876785
0
LINE
8
BLACK
6
CONTINUOUS
10
0.734224
20
0.876785
11
0.734111
21
0.87665
0
LINE
8
BLACK
6
CONTINUOUS
10
0.734111
20
0.87665
11
0.734091
21
0.876475
0
LINE
8
BLACK
6
CONTINUOUS
10
0.734091
20
0.876475
11
0.732216
21
0.872725
0
LINE
8
BLACK
6
CONTINUOUS
10
0.732216
20
0.872725
11
0.73169
21
0.872016
0
LINE
8
BLACK
6
CONTINUOUS
10
0.73169
20
0.872016
11
0.731663
21
0.871958
0
LINE
8
BLACK
6
CONTINUOUS
10
0.731663
20
0.871958
11
0.729788
21
0.870083
0
LINE
8
BLACK
6
CONTINUOUS
10
0.729788
20
0.870083
11
0.729065
21
0.869577
0
LINE
8
BLACK
6
CONTINUOUS
10
0.729065
20
0.869577
11
0.729021
21
0.86953
0
LINE
8
BLACK
6
CONTINUOUS
10
0.729021
20
0.86953
11
0.725271
21
0.867655
0
LINE
8
BLACK
6
CONTINUOUS
10
0.725271
20
0.867655
11
0.724783
21
0.86751
0
LINE
8
BLACK
6
CONTINUOUS
10
0.724783
20
0.86751
11
0.724667
21
0.867432
0
LINE
8
BLACK
6
CONTINUOUS
10
0.724667
20
0.867432
11
0.717168
21
0.865557
0
LINE
8
BLACK
6
CONTINUOUS
10
0.717168
20
0.865557
11
0.71658
21
0.865515
0
LINE
8
BLACK
6
CONTINUOUS
10
0.71658
20
0.865515
11
0.716451
21
0.865469
0
LINE
8
BLACK
6
CONTINUOUS
10
0.716451
20
0.865469
11
0.707078
21
0.865469
0
LINE
8
BLACK
6
CONTINUOUS
10
0.707078
20
0.865469
11
0.706497
21
0.865571
0
LINE
8
BLACK
6
CONTINUOUS
10
0.706497
20
0.865571
11
0.706361
21
0.865557
0
LINE
8
BLACK
6
CONTINUOUS
10
0.706361
20
0.865557
11
0.698862
21
0.867432
0
LINE
8
BLACK
6
CONTINUOUS
10
0.698862
20
0.867432
11
0.698397
21
0.867639
0
LINE
8
BLACK
6
CONTINUOUS
10
0.698397
20
0.867639
11
0.698258
21
0.867655
0
LINE
8
BLACK
6
CONTINUOUS
10
0.698258
20
0.867655
11
0.694509
21
0.86953
0
LINE
8
BLACK
6
CONTINUOUS
10
0.694509
20
0.86953
11
0.693799
21
0.870056
0
LINE
8
BLACK
6
CONTINUOUS
10
0.693799
20
0.870056
11
0.693741
21
0.870083
0
LINE
8
BLACK
6
CONTINUOUS
10
0.693741
20
0.870083
11
0.691866
21
0.871958
0
LINE
8
BLACK
6
CONTINUOUS
10
0.691866
20
0.871958
11
0.69136
21
0.872681
0
LINE
8
BLACK
6
CONTINUOUS
10
0.69136
20
0.872681
11
0.691313
21
0.872725
0
LINE
8
BLACK
6
CONTINUOUS
10
0.691313
20
0.872725
11
0.689438
21
0.876475
0
LINE
8
BLACK
6
CONTINUOUS
10
0.689438
20
0.876475
11
0.689146
21
0.877458
0
LINE
8
BLACK
6
CONTINUOUS
10
0.689146
20
0.877458
11
0.689187
21
0.877629
0
LINE
8
BLACK
6
CONTINUOUS
10
0.689187
20
0.877629
11
0.689127
21
0.877795
0
LINE
8
BLACK
6
CONTINUOUS
10
0.689127
20
0.877795
11
0.689127
21
0.881545
0
LINE
8
BLACK
6
CONTINUOUS
10
0.689127
20
0.881545
11
0.689305
21
0.882555
0
LINE
8
BLACK
6
CONTINUOUS
10
0.689305
20
0.882555
11
0.689418
21
0.88269
0
LINE
8
BLACK
6
CONTINUOUS
10
0.689418
20
0.88269
11
0.689438
21
0.882865
0
LINE
8
BLACK
6
CONTINUOUS
10
0.689438
20
0.882865
11
0.691313
21
0.886615
0
LINE
8
BLACK
6
CONTINUOUS
10
0.691313
20
0.886615
11
0.691839
21
0.887324
0
LINE
8
BLACK
6
CONTINUOUS
10
0.691839
20
0.887324
11
0.691866
21
0.887382
0
LINE
8
BLACK
6
CONTINUOUS
10
0.691866
20
0.887382
11
0.693741
21
0.889257
0
LINE
8
BLACK
6
CONTINUOUS
10
0.693741
20
0.889257
11
0.694464
21
0.889763
0
LINE
8
BLACK
6
CONTINUOUS
10
0.694464
20
0.889763
11
0.694509
21
0.88981
0
LINE
8
BLACK
6
CONTINUOUS
10
0.694509
20
0.88981
11
0.698258
21
0.891685
0
LINE
8
BLACK
6
CONTINUOUS
10
0.698258
20
0.891685
11
0.698746
21
0.89183
0
LINE
8
BLACK
6
CONTINUOUS
10
0.698746
20
0.89183
11
0.698862
21
0.891908
0
LINE
8
BLACK
6
CONTINUOUS
10
0.698862
20
0.891908
11
0.706361
21
0.893783
0
LINE
8
BLACK
6
CONTINUOUS
10
0.706361
20
0.893783
11
0.706949
21
0.893825
0
LINE
8
BLACK
6
CONTINUOUS
10
0.706949
20
0.893825
11
0.707078
21
0.893871
0
LINE
8
BLACK
6
CONTINUOUS
10
0.707078
20
0.893871
11
0.716451
21
0.893871
0
LINE
8
BLACK
6
CONTINUOUS
10
0.716451
20
0.893871
11
0.717032
21
0.893769
0
LINE
8
BLACK
6
CONTINUOUS
10
0.700609
20
0.886258
11
0.697578
21
0.884742
0
LINE
8
BLACK
6
CONTINUOUS
10
0.697578
20
0.884742
11
0.696381
21
0.883545
0
LINE
8
BLACK
6
CONTINUOUS
10
0.696381
20
0.883545
11
0.695032
21
0.880848
0
LINE
8
BLACK
6
CONTINUOUS
10
0.695032
20
0.880848
11
0.695032
21
0.878492
0
LINE
8
BLACK
6
CONTINUOUS
10
0.695032
20
0.878492
11
0.696381
21
0.875795
0
LINE
8
BLACK
6
CONTINUOUS
10
0.696381
20
0.875795
11
0.697578
21
0.874598
0
LINE
8
BLACK
6
CONTINUOUS
10
0.697578
20
0.874598
11
0.700609
21
0.873082
0
LINE
8
BLACK
6
CONTINUOUS
10
0.700609
20
0.873082
11
0.707441
21
0.871374
0
LINE
8
BLACK
6
CONTINUOUS
10
0.707441
20
0.871374
11
0.716088
21
0.871374
0
LINE
8
BLACK
6
CONTINUOUS
10
0.716088
20
0.871374
11
0.72292
21
0.873082
0
LINE
8
BLACK
6
CONTINUOUS
10
0.72292
20
0.873082
11
0.725951
21
0.874598
0
LINE
8
BLACK
6
CONTINUOUS
10
0.725951
20
0.874598
11
0.727148
21
0.875795
0
LINE
8
BLACK
6
CONTINUOUS
10
0.727148
20
0.875795
11
0.728497
21
0.878492
0
LINE
8
BLACK
6
CONTINUOUS
10
0.728497
20
0.878492
11
0.728497
21
0.880848
0
LINE
8
BLACK
6
CONTINUOUS
10
0.728497
20
0.880848
11
0.727148
21
0.883545
0
LINE
8
BLACK
6
CONTINUOUS
10
0.727148
20
0.883545
11
0.725951
21
0.884742
0
LINE
8
BLACK
6
CONTINUOUS
10
0.725951
20
0.884742
11
0.72292
21
0.886258
0
LINE
8
BLACK
6
CONTINUOUS
10
0.72292
20
0.886258
11
0.716088
21
0.887966
0
LINE
8
BLACK
6
CONTINUOUS
10
0.716088
20
0.887966
11
0.707441
21
0.887966
0
LINE
8
BLACK
6
CONTINUOUS
10
0.707441
20
0.887966
11
0.700609
21
0.886258
0
LINE
8
BLACK
6
CONTINUOUS
10
0.732459
20
0.936813
11
0.734007
21
0.935515
0
LINE
8
BLACK
6
CONTINUOUS
10
0.734007
20
0.935515
11
0.734357
21
0.933525
0
LINE
8
BLACK
6
CONTINUOUS
10
0.734357
20
0.933525
11
0.733348
21
0.931776
0
LINE
8
BLACK
6
CONTINUOUS
10
0.733348
20
0.931776
11
0.73145
21
0.931085
0
LINE
8
BLACK
6
CONTINUOUS
10
0.73145
20
0.931085
11
0.705389
21
0.931085
0
LINE
8
BLACK
6
CONTINUOUS
10
0.705389
20
0.931085
11
0.72145
21
0.923591
0
LINE
8
BLACK
6
CONTINUOUS
10
0.72145
20
0.923591
11
0.721767
21
0.923368
0
LINE
8
BLACK
6
CONTINUOUS
10
0.721767
20
0.923368
11
0.721894
21
0.923334
0
LINE
8
BLACK
6
CONTINUOUS
10
0.721894
20
0.923334
11
0.721969
21
0.923227
0
LINE
8
BLACK
6
CONTINUOUS
10
0.721969
20
0.923227
11
0.722289
21
0.923002
0
LINE
8
BLACK
6
CONTINUOUS
10
0.722289
20
0.923002
11
0.722613
21
0.922308
0
LINE
8
BLACK
6
CONTINUOUS
10
0.722613
20
0.922308
11
0.723053
21
0.92168
0
LINE
8
BLACK
6
CONTINUOUS
10
0.723053
20
0.92168
11
0.72303
21
0.921414
0
LINE
8
BLACK
6
CONTINUOUS
10
0.72303
20
0.921414
11
0.723143
21
0.921171
0
LINE
8
BLACK
6
CONTINUOUS
10
0.723143
20
0.921171
11
0.722944
21
0.920431
0
LINE
8
BLACK
6
CONTINUOUS
10
0.722944
20
0.920431
11
0.722877
21
0.919668
0
LINE
8
BLACK
6
CONTINUOUS
10
0.722877
20
0.919668
11
0.722688
21
0.919479
0
LINE
8
BLACK
6
CONTINUOUS
10
0.722688
20
0.919479
11
0.722619
21
0.919221
0
LINE
8
BLACK
6
CONTINUOUS
10
0.722619
20
0.919221
11
0.721991
21
0.918781
0
LINE
8
BLACK
6
CONTINUOUS
10
0.721991
20
0.918781
11
0.72145
21
0.918239
0
LINE
8
BLACK
6
CONTINUOUS
10
0.72145
20
0.918239
11
0.705389
21
0.910744
0
LINE
8
BLACK
6
CONTINUOUS
10
0.705389
20
0.910744
11
0.73145
21
0.910744
0
LINE
8
BLACK
6
CONTINUOUS
10
0.73145
20
0.910744
11
0.732459
21
0.910566
0
LINE
8
BLACK
6
CONTINUOUS
10
0.732459
20
0.910566
11
0.734007
21
0.909268
0
LINE
8
BLACK
6
CONTINUOUS
10
0.734007
20
0.909268
11
0.734357
21
0.907279
0
LINE
8
BLACK
6
CONTINUOUS
10
0.734357
20
0.907279
11
0.733348
21
0.90553
0
LINE
8
BLACK
6
CONTINUOUS
10
0.733348
20
0.90553
11
0.73145
21
0.904839
0
LINE
8
BLACK
6
CONTINUOUS
10
0.73145
20
0.904839
11
0.692079
21
0.904839
0
LINE
8
BLACK
6
CONTINUOUS
10
0.692079
20
0.904839
11
0.69107
21
0.905017
0
LINE
8
BLACK
6
CONTINUOUS
10
0.69107
20
0.905017
11
0.690767
21
0.90527
0
LINE
8
BLACK
6
CONTINUOUS
10
0.690767
20
0.90527
11
0.690387
21
0.905372
0
LINE
8
BLACK
6
CONTINUOUS
10
0.690387
20
0.905372
11
0.690016
21
0.905901
0
LINE
8
BLACK
6
CONTINUOUS
10
0.690016
20
0.905901
11
0.689522
21
0.906315
0
LINE
8
BLACK
6
CONTINUOUS
10
0.689522
20
0.906315
11
0.689454
21
0.906704
0
LINE
8
BLACK
6
CONTINUOUS
10
0.689454
20
0.906704
11
0.689228
21
0.907026
0
LINE
8
BLACK
6
CONTINUOUS
10
0.689228
20
0.907026
11
0.689284
21
0.907669
0
LINE
8
BLACK
6
CONTINUOUS
10
0.689284
20
0.907669
11
0.689172
21
0.908304
0
LINE
8
BLACK
6
CONTINUOUS
10
0.689172
20
0.908304
11
0.689369
21
0.908646
0
LINE
8
BLACK
6
CONTINUOUS
10
0.689369
20
0.908646
11
0.689403
21
0.909039
0
LINE
8
BLACK
6
CONTINUOUS
10
0.689403
20
0.909039
11
0.689859
21
0.909495
0
LINE
8
BLACK
6
CONTINUOUS
10
0.689859
20
0.909495
11
0.690181
21
0.910053
0
LINE
8
BLACK
6
CONTINUOUS
10
0.690181
20
0.910053
11
0.690552
21
0.910188
0
LINE
8
BLACK
6
CONTINUOUS
10
0.690552
20
0.910188
11
0.690831
21
0.910467
0
LINE
8
BLACK
6
CONTINUOUS
10
0.690831
20
0.910467
11
0.713219
21
0.920915
0
LINE
8
BLACK
6
CONTINUOUS
10
0.713219
20
0.920915
11
0.690831
21
0.931362
0
LINE
8
BLACK
6
CONTINUOUS
10
0.690831
20
0.931362
11
0.689991
21
0.931951
0
LINE
8
BLACK
6
CONTINUOUS
10
0.689991
20
0.931951
11
0.689824
21
0.932308
0
LINE
8
BLACK
6
CONTINUOUS
10
0.689824
20
0.932308
11
0.689522
21
0.932562
0
LINE
8
BLACK
6
CONTINUOUS
10
0.689522
20
0.932562
11
0.68941
21
0.933197
0
LINE
8
BLACK
6
CONTINUOUS
10
0.68941
20
0.933197
11
0.689138
21
0.933782
0
LINE
8
BLACK
6
CONTINUOUS
10
0.689138
20
0.933782
11
0.68924
21
0.934163
0
LINE
8
BLACK
6
CONTINUOUS
10
0.68924
20
0.934163
11
0.689172
21
0.934551
0
LINE
8
BLACK
6
CONTINUOUS
10
0.689172
20
0.934551
11
0.689494
21
0.93511
0
LINE
8
BLACK
6
CONTINUOUS
10
0.689494
20
0.93511
11
0.689661
21
0.935733
0
LINE
8
BLACK
6
CONTINUOUS
10
0.689661
20
0.935733
11
0.689984
21
0.935959
0
LINE
8
BLACK
6
CONTINUOUS
10
0.689984
20
0.935959
11
0.690181
21
0.9363
0
LINE
8
BLACK
6
CONTINUOUS
10
0.690181
20
0.9363
11
0.690788
21
0.936521
0
LINE
8
BLACK
6
CONTINUOUS
10
0.690788
20
0.936521
11
0.691316
21
0.936891
0
LINE
8
BLACK
6
CONTINUOUS
10
0.691316
20
0.936891
11
0.691709
21
0.936856
0
LINE
8
BLACK
6
CONTINUOUS
10
0.691709
20
0.936856
11
0.692079
21
0.936991
0
LINE
8
BLACK
6
CONTINUOUS
10
0.692079
20
0.936991
11
0.73145
21
0.936991
0
LINE
8
BLACK
6
CONTINUOUS
10
0.73145
20
0.936991
11
0.732459
21
0.936813
0
LINE
8
BLACK
6
CONTINUOUS
10
0.704338
20
0.976183
11
0.704473
21
0.97607
0
LINE
8
BLACK
6
CONTINUOUS
10
0.704473
20
0.97607
11
0.704649
21
0.976049
0
LINE
8
BLACK
6
CONTINUOUS
10
0.704649
20
0.976049
11
0.708398
21
0.974175
0
LINE
8
BLACK
6
CONTINUOUS
10
0.708398
20
0.974175
11
0.709107
21
0.973649
0
LINE
8
BLACK
6
CONTINUOUS
10
0.709107
20
0.973649
11
0.709166
21
0.973621
0
LINE
8
BLACK
6
CONTINUOUS
10
0.709166
20
0.973621
11
0.71104
21
0.971747
0
LINE
8
BLACK
6
CONTINUOUS
10
0.71104
20
0.971747
11
0.711547
21
0.971024
0
LINE
8
BLACK
6
CONTINUOUS
10
0.711547
20
0.971024
11
0.711593
21
0.970979
0
LINE
8
BLACK
6
CONTINUOUS
10
0.711593
20
0.970979
11
0.713468
21
0.96723
0
LINE
8
BLACK
6
CONTINUOUS
10
0.713468
20
0.96723
11
0.713613
21
0.966741
0
LINE
8
BLACK
6
CONTINUOUS
10
0.713613
20
0.966741
11
0.713692
21
0.966625
0
LINE
8
BLACK
6
CONTINUOUS
10
0.713692
20
0.966625
11
0.715488
21
0.959441
0
LINE
8
BLACK
6
CONTINUOUS
10
0.715488
20
0.959441
11
0.717003
21
0.95641
0
LINE
8
BLACK
6
CONTINUOUS
10
0.717003
20
0.95641
11
0.7182
21
0.955213
0
LINE
8
BLACK
6
CONTINUOUS
10
0.7182
20
0.955213
11
0.720898
21
0.953864
0
LINE
8
BLACK
6
CONTINUOUS
10
0.720898
20
0.953864
11
0.723253
21
0.953864
0
LINE
8
BLACK
6
CONTINUOUS
10
0.723253
20
0.953864
11
0.725951
21
0.955213
0
LINE
8
BLACK
6
CONTINUOUS
10
0.725951
20
0.955213
11
0.727148
21
0.95641
0
LINE
8
BLACK
6
CONTINUOUS
10
0.727148
20
0.95641
11
0.728497
21
0.959107
0
LINE
8
BLACK
6
CONTINUOUS
10
0.728497
20
0.959107
11
0.728497
21
0.967305
0
LINE
8
BLACK
6
CONTINUOUS
10
0.728497
20
0.967305
11
0.726774
21
0.972475
0
LINE
8
BLACK
6
CONTINUOUS
10
0.726774
20
0.972475
11
0.726623
21
0.973489
0
LINE
8
BLACK
6
CONTINUOUS
10
0.726623
20
0.973489
11
0.727366
21
0.975367
0
LINE
8
BLACK
6
CONTINUOUS
10
0.727366
20
0.975367
11
0.729142
21
0.976329
0
LINE
8
BLACK
6
CONTINUOUS
10
0.729142
20
0.976329
11
0.73112
21
0.975924
0
LINE
8
BLACK
6
CONTINUOUS
10
0.73112
20
0.975924
11
0.732376
21
0.974342
0
LINE
8
BLACK
6
CONTINUOUS
10
0.732376
20
0.974342
11
0.734251
21
0.968718
0
LINE
8
BLACK
6
CONTINUOUS
10
0.734251
20
0.968718
11
0.73438
21
0.967845
0
LINE
8
BLACK
6
CONTINUOUS
10
0.73438
20
0.967845
11
0.734402
21
0.967784
0
LINE
8
BLACK
6
CONTINUOUS
10
0.734402
20
0.967784
11
0.734402
21
0.95841
0
LINE
8
BLACK
6
CONTINUOUS
10
0.734402
20
0.95841
11
0.734224
21
0.9574
0
LINE
8
BLACK
6
CONTINUOUS
10
0.734224
20
0.9574
11
0.734111
21
0.957265
0
LINE
8
BLACK
6
CONTINUOUS
10
0.734111
20
0.957265
11
0.734091
21
0.95709
0
LINE
8
BLACK
6
CONTINUOUS
10
0.734091
20
0.95709
11
0.732216
21
0.95334
0
LINE
8
BLACK
6
CONTINUOUS
10
0.732216
20
0.95334
11
0.73169
21
0.952631
0
LINE
8
BLACK
6
CONTINUOUS
10
0.73169
20
0.952631
11
0.731663
21
0.952573
0
LINE
8
BLACK
6
CONTINUOUS
10
0.731663
20
0.952573
11
0.729788
21
0.950698
0
LINE
8
BLACK
6
CONTINUOUS
10
0.729788
20
0.950698
11
0.729065
21
0.950192
0
LINE
8
BLACK
6
CONTINUOUS
10
0.729065
20
0.950192
11
0.729021
21
0.950145
0
LINE
8
BLACK
6
CONTINUOUS
10
0.729021
20
0.950145
11
0.725271
21
0.94827
0
LINE
8
BLACK
6
CONTINUOUS
10
0.725271
20
0.94827
11
0.724288
21
0.947978
0
LINE
8
BLACK
6
CONTINUOUS
10
0.724288
20
0.947978
11
0.724116
21
0.948019
0
LINE
8
BLACK
6
CONTINUOUS
10
0.724116
20
0.948019
11
0.72395
21
0.947958
0
LINE
8
BLACK
6
CONTINUOUS
10
0.72395
20
0.947958
11
0.720201
21
0.947958
0
LINE
8
BLACK
6
CONTINUOUS
10
0.720201
20
0.947958
11
0.719191
21
0.948136
0
LINE
8
BLACK
6
CONTINUOUS
10
0.719191
20
0.948136
11
0.719056
21
0.94825
0
LINE
8
BLACK
6
CONTINUOUS
10
0.719056
20
0.94825
11
0.71888
21
0.94827
0
LINE
8
BLACK
6
CONTINUOUS
10
0.71888
20
0.94827
11
0.715131
21
0.950145
0
LINE
8
BLACK
6
CONTINUOUS
10
0.715131
20
0.950145
11
0.714422
21
0.950671
0
LINE
8
BLACK
6
CONTINUOUS
10
0.714422
20
0.950671
11
0.714364
21
0.950698
0
LINE
8
BLACK
6
CONTINUOUS
10
0.714364
20
0.950698
11
0.712489
21
0.952573
0
LINE
8
BLACK
6
CONTINUOUS
10
0.712489
20
0.952573
11
0.711982
21
0.953296
0
LINE
8
BLACK
6
CONTINUOUS
10
0.711982
20
0.953296
11
0.711936
21
0.95334
0
LINE
8
BLACK
6
CONTINUOUS
10
0.711936
20
0.95334
11
0.710061
21
0.95709
0
LINE
8
BLACK
6
CONTINUOUS
10
0.710061
20
0.95709
11
0.709916
21
0.957578
0
LINE
8
BLACK
6
CONTINUOUS
10
0.709916
20
0.957578
11
0.709837
21
0.957694
0
LINE
8
BLACK
6
CONTINUOUS
10
0.709837
20
0.957694
11
0.708041
21
0.964879
0
LINE
8
BLACK
6
CONTINUOUS
10
0.708041
20
0.964879
11
0.706526
21
0.96791
0
LINE
8
BLACK
6
CONTINUOUS
10
0.706526
20
0.96791
11
0.705329
21
0.969107
0
LINE
8
BLACK
6
CONTINUOUS
10
0.705329
20
0.969107
11
0.702631
21
0.970456
0
LINE
8
BLACK
6
CONTINUOUS
10
0.702631
20
0.970456
11
0.700276
21
0.970456
0
LINE
8
BLACK
6
CONTINUOUS
10
0.700276
20
0.970456
11
0.697578
21
0.969107
0
LINE
8
BLACK
6
CONTINUOUS
10
0.697578
20
0.969107
11
0.696381
21
0.96791
0
LINE
8
BLACK
6
CONTINUOUS
10
0.696381
20
0.96791
11
0.695032
21
0.965212
0
LINE
8
BLACK
6
CONTINUOUS
10
0.695032
20
0.965212
11
0.695032
21
0.957015
0
LINE
8
BLACK
6
CONTINUOUS
10
0.695032
20
0.957015
11
0.696755
21
0.951845
0
LINE
8
BLACK
6
CONTINUOUS
10
0.696755
20
0.951845
11
0.696906
21
0.950831
0
LINE
8
BLACK
6
CONTINUOUS
10
0.696906
20
0.950831
11
0.696164
21
0.948952
0
LINE
8
BLACK
6
CONTINUOUS
10
0.696164
20
0.948952
11
0.694387
21
0.94799
0
LINE
8
BLACK
6
CONTINUOUS
10
0.694387
20
0.94799
11
0.692409
21
0.948395
0
LINE
8
BLACK
6
CONTINUOUS
10
0.692409
20
0.948395
11
0.691153
21
0.949977
0
LINE
8
BLACK
6
CONTINUOUS
10
0.691153
20
0.949977
11
0.689278
21
0.955602
0
LINE
8
BLACK
6
CONTINUOUS
10
0.689278
20
0.955602
11
0.689149
21
0.956475
0
LINE
8
BLACK
6
CONTINUOUS
10
0.689149
20
0.956475
11
0.689127
21
0.956535
0
LINE
8
BLACK
6
CONTINUOUS
10
0.689127
20
0.956535
11
0.689127
21
0.965909
0
LINE
8
BLACK
6
CONTINUOUS
10
0.689127
20
0.965909
11
0.689305
21
0.966919
0
LINE
8
BLACK
6
CONTINUOUS
10
0.689305
20
0.966919
11
0.689418
21
0.967054
0
LINE
8
BLACK
6
CONTINUOUS
10
0.689418
20
0.967054
11
0.689438
21
0.96723
0
LINE
8
BLACK
6
CONTINUOUS
10
0.689438
20
0.96723
11
0.691313
21
0.970979
0
LINE
8
BLACK
6
CONTINUOUS
10
0.691313
20
0.970979
11
0.691839
21
0.971688
0
LINE
8
BLACK
6
CONTINUOUS
10
0.691839
20
0.971688
11
0.691866
21
0.971747
0
LINE
8
BLACK
6
CONTINUOUS
10
0.691866
20
0.971747
11
0.693741
21
0.973621
0
LINE
8
BLACK
6
CONTINUOUS
10
0.693741
20
0.973621
11
0.694464
21
0.974128
0
LINE
8
BLACK
6
CONTINUOUS
10
0.694464
20
0.974128
11
0.694509
21
0.974175
0
LINE
8
BLACK
6
CONTINUOUS
10
0.694509
20
0.974175
11
0.698258
21
0.976049
0
LINE
8
BLACK
6
CONTINUOUS
10
0.698258
20
0.976049
11
0.699241
21
0.976342
0
LINE
8
BLACK
6
CONTINUOUS
10
0.699241
20
0.976342
11
0.699413
21
0.976301
0
LINE
8
BLACK
6
CONTINUOUS
10
0.699413
20
0.976301
11
0.699579
21
0.976361
0
LINE
8
BLACK
6
CONTINUOUS
10
0.699579
20
0.976361
11
0.703328
21
0.976361
0
LINE
8
BLACK
6
CONTINUOUS
10
0.703328
20
0.976361
11
0.704338
21
0.976183
  0
ENDSEC
  0
EOF
