  0
SECTION
  2
HEADER
  9
$ANGBASE
  50
0.0
  9
$ANGDIR
  70
1
  9
$MEASUREMENT
  70
0
  0
ENDSEC
  0
SECTION
  2
TABLES
  0
TABLE
  2
LTYPE
  70
4
  0
LTYPE
  5
40F
  2
CONTINUOUS
  70
0
  3
Solid line
  72
65
  73
0
  40
0.0
  0
LTYPE
  5
410
  2
DASHDOT
 70
0
  3
Dash Dot ____ _ ____ _
 72
65
 73
4
 40
2.0
 49
1.25
 49
-0.25
 49
0.25
 49
-0.25
  0
LTYPE
  5
411
  2
DASHED
 70
0
  3
Dashed __ __ __ __ __
 72
65
 73
2
 40
0.75
 49
0.5
 49
-0.25
  0
LTYPE
  5
43B
  2
DOTTED
 70
0
  3
Dotted .  .  .  .
 72
65
 73
2
 40
0.2
 49
0.0
 49
-0.2
  0
ENDTAB
  0
TABLE
  2
STYLE
  70
4
  0
STYLE
  2
KICAD
  70
0
  40
0
  41
1
  42
1
  50
0
  71
0
  3
isocp.shx
  0
STYLE
  2
KICADB
  70
0
  40
0
  41
1
  42
1
  50
0
  71
0
  3
isocp.shx
  0
STYLE
  2
KICADI
  70
0
  40
0
  41
1
  42
1
  50
15
  71
0
  3
isocp.shx
  0
STYLE
  2
KICADBI
  70
0
  40
0
  41
1
  42
1
  50
15
  71
0
  3
isocp.shx
  0
ENDTAB
  0
TABLE
  2
LAYER
  70
1
  0
LAYER
  2
BLACK
  70
0
  62
7
  6
CONTINUOUS
  0
ENDTAB
  0
ENDSEC
  0
SECTION
  2
ENTITIES
0
LINE
8
BLACK
6
CONTINUOUS
10
0.617611
20
0.640643
11
0.617323
21
0.641339
0
LINE
8
BLACK
6
CONTINUOUS
10
0.617323
20
0.641339
11
0.617323
21
0.893307
0
LINE
8
BLACK
6
CONTINUOUS
10
0.617323
20
0.893307
11
0.617611
21
0.894003
0
LINE
8
BLACK
6
CONTINUOUS
10
0.617611
20
0.894003
11
0.618307
21
0.894291
0
LINE
8
BLACK
6
CONTINUOUS
10
0.618307
20
0.894291
11
0.989961
21
0.894291
0
LINE
8
BLACK
6
CONTINUOUS
10
0.989961
20
0.894291
11
0.990657
21
0.894003
0
LINE
8
BLACK
6
CONTINUOUS
10
0.990657
20
0.894003
11
0.990945
21
0.893307
0
LINE
8
BLACK
6
CONTINUOUS
10
0.990945
20
0.893307
11
0.990945
21
0.641339
0
LINE
8
BLACK
6
CONTINUOUS
10
0.990945
20
0.641339
11
0.990657
21
0.640643
0
LINE
8
BLACK
6
CONTINUOUS
10
0.990657
20
0.640643
11
0.989961
21
0.640354
0
LINE
8
BLACK
6
CONTINUOUS
10
0.989961
20
0.640354
11
0.618307
21
0.640354
0
LINE
8
BLACK
6
CONTINUOUS
10
0.618307
20
0.640354
11
0.617611
21
0.640643
0
LINE
8
BLACK
6
CONTINUOUS
10
0.619291
20
0.892323
11
0.619291
21
0.642323
0
LINE
8
BLACK
6
CONTINUOUS
10
0.619291
20
0.642323
11
0.988976
21
0.642323
0
LINE
8
BLACK
6
CONTINUOUS
10
0.988976
20
0.642323
11
0.988976
21
0.892323
0
LINE
8
BLACK
6
CONTINUOUS
10
0.988976
20
0.892323
11
0.619291
21
0.892323
0
LINE
8
BLACK
6
CONTINUOUS
10
0.613477
20
0.999304
11
0.613189
21
1
0
LINE
8
BLACK
6
CONTINUOUS
10
0.613189
20
1
11
0.613189
21
1.25197
0
LINE
8
BLACK
6
CONTINUOUS
10
0.613189
20
1.25197
11
0.613477
21
1.25266
0
LINE
8
BLACK
6
CONTINUOUS
10
0.613477
20
1.25266
11
0.614173
21
1.25295
0
LINE
8
BLACK
6
CONTINUOUS
10
0.614173
20
1.25295
11
0.985827
21
1.25295
0
LINE
8
BLACK
6
CONTINUOUS
10
0.985827
20
1.25295
11
0.986523
21
1.25266
0
LINE
8
BLACK
6
CONTINUOUS
10
0.986523
20
1.25266
11
0.986811
21
1.25197
0
LINE
8
BLACK
6
CONTINUOUS
10
0.986811
20
1.25197
11
0.986811
21
1
0
LINE
8
BLACK
6
CONTINUOUS
10
0.986811
20
1
11
0.986523
21
0.999304
0
LINE
8
BLACK
6
CONTINUOUS
10
0.986523
20
0.999304
11
0.985827
21
0.999016
0
LINE
8
BLACK
6
CONTINUOUS
10
0.985827
20
0.999016
11
0.614173
21
0.999016
0
LINE
8
BLACK
6
CONTINUOUS
10
0.614173
20
0.999016
11
0.613477
21
0.999304
0
LINE
8
BLACK
6
CONTINUOUS
10
0.615157
20
1.25098
11
0.615157
21
1.00098
0
LINE
8
BLACK
6
CONTINUOUS
10
0.615157
20
1.00098
11
0.984843
21
1.00098
0
LINE
8
BLACK
6
CONTINUOUS
10
0.984843
20
1.00098
11
0.984843
21
1.25098
0
LINE
8
BLACK
6
CONTINUOUS
10
0.984843
20
1.25098
11
0.615157
21
1.25098
  0
ENDSEC
  0
EOF
