  0
SECTION
  2
HEADER
  9
$ANGBASE
  50
0.0
  9
$ANGDIR
  70
1
  9
$MEASUREMENT
  70
0
  0
ENDSEC
  0
SECTION
  2
TABLES
  0
TABLE
  2
LTYPE
  70
4
  0
LTYPE
  5
40F
  2
CONTINUOUS
  70
0
  3
Solid line
  72
65
  73
0
  40
0.0
  0
LTYPE
  5
410
  2
DASHDOT
 70
0
  3
Dash Dot ____ _ ____ _
 72
65
 73
4
 40
2.0
 49
1.25
 49
-0.25
 49
0.25
 49
-0.25
  0
LTYPE
  5
411
  2
DASHED
 70
0
  3
Dashed __ __ __ __ __
 72
65
 73
2
 40
0.75
 49
0.5
 49
-0.25
  0
LTYPE
  5
43B
  2
DOTTED
 70
0
  3
Dotted .  .  .  .
 72
65
 73
2
 40
0.2
 49
0.0
 49
-0.2
  0
ENDTAB
  0
TABLE
  2
STYLE
  70
4
  0
STYLE
  2
KICAD
  70
0
  40
0
  41
1
  42
1
  50
0
  71
0
  3
isocp.shx
  0
STYLE
  2
KICADB
  70
0
  40
0
  41
1
  42
1
  50
0
  71
0
  3
isocp.shx
  0
STYLE
  2
KICADI
  70
0
  40
0
  41
1
  42
1
  50
15
  71
0
  3
isocp.shx
  0
STYLE
  2
KICADBI
  70
0
  40
0
  41
1
  42
1
  50
15
  71
0
  3
isocp.shx
  0
ENDTAB
  0
TABLE
  2
LAYER
  70
1
  0
LAYER
  2
BLACK
  70
0
  62
7
  6
CONTINUOUS
  0
ENDTAB
  0
ENDSEC
  0
SECTION
  2
ENTITIES
0
LINE
8
BLACK
6
CONTINUOUS
10
0.3798664173228347
20
0.9649771259842519
11
0.3842564566929134
21
0.9627402755905512
0
LINE
8
BLACK
6
CONTINUOUS
10
0.3842564566929134
20
0.9627402755905512
11
0.3877404330708661
21
0.9592562992125984
0
LINE
8
BLACK
6
CONTINUOUS
10
0.3877404330708661
20
0.9592562992125984
11
0.3879432283464567
21
0.9588582677165354
0
LINE
8
BLACK
6
CONTINUOUS
10
0.3879432283464567
20
0.9588582677165354
11
0.5000000393700788
21
0.9588582677165354
0
LINE
8
BLACK
6
CONTINUOUS
10
0.5000000393700788
20
0.9588582677165354
11
0.5018417716535433
21
0.9586646850393701
0
LINE
8
BLACK
6
CONTINUOUS
10
0.5018417716535433
20
0.9586646850393701
11
0.5024820866141733
21
0.9583796062992126
0
LINE
8
BLACK
6
CONTINUOUS
10
0.5024820866141733
20
0.9583796062992126
11
0.5031745669291339
21
0.9582699212598424
0
LINE
8
BLACK
6
CONTINUOUS
10
0.5031745669291339
20
0.9582699212598424
11
0.5041472834645669
21
0.9576382283464566
0
LINE
8
BLACK
6
CONTINUOUS
10
0.5041472834645669
20
0.9576382283464566
11
0.5052068110236221
21
0.9571664960629921
0
LINE
8
BLACK
6
CONTINUOUS
10
0.5052068110236221
20
0.9571664960629921
11
0.5056758661417323
21
0.9566455511811024
0
LINE
8
BLACK
6
CONTINUOUS
10
0.5056758661417323
20
0.9566455511811024
11
0.5062637795275591
21
0.9562637401574803
0
LINE
8
BLACK
6
CONTINUOUS
10
0.5062637795275591
20
0.9562637401574803
11
0.5325275196850393
21
0.9299999999999999
0
LINE
8
BLACK
6
CONTINUOUS
10
0.5325275196850393
20
0.9299999999999999
11
0.5800000393700787
21
0.9299999999999999
0
LINE
8
BLACK
6
CONTINUOUS
10
0.5800000393700787
20
0.9299999999999999
11
0.5800000393700787
21
0.9088582677165354
0
LINE
8
BLACK
6
CONTINUOUS
10
0.5800000393700787
20
0.9088582677165354
11
0.6200000393700787
21
0.9088582677165354
0
LINE
8
BLACK
6
CONTINUOUS
10
0.6200000393700787
20
0.9088582677165354
11
0.6200000393700787
21
0.9299999999999999
0
LINE
8
BLACK
6
CONTINUOUS
10
0.6200000393700787
20
0.9299999999999999
11
0.6800000393700787
21
0.9299999999999999
0
LINE
8
BLACK
6
CONTINUOUS
10
0.6800000393700787
20
0.9299999999999999
11
0.6800000393700787
21
0.9088582677165354
0
LINE
8
BLACK
6
CONTINUOUS
10
0.6800000393700787
20
0.9088582677165354
11
0.8501911811023621
21
0.9088582677165354
0
LINE
8
BLACK
6
CONTINUOUS
10
0.8501911811023621
20
0.9088582677165354
11
0.8534653937007873
21
0.9105265748031496
0
LINE
8
BLACK
6
CONTINUOUS
10
0.8534653937007873
20
0.9105265748031496
11
0.858331811023622
21
0.9112973228346456
0
LINE
8
BLACK
6
CONTINUOUS
10
0.858331811023622
20
0.9112973228346456
11
0.8631982283464567
21
0.9105265748031496
0
LINE
8
BLACK
6
CONTINUOUS
10
0.8631982283464567
20
0.9105265748031496
11
0.8675882677165354
21
0.9082897244094488
0
LINE
8
BLACK
6
CONTINUOUS
10
0.8675882677165354
20
0.9082897244094488
11
0.8710722440944881
21
0.904805748031496
0
LINE
8
BLACK
6
CONTINUOUS
10
0.8710722440944881
20
0.904805748031496
11
0.8733090944881889
21
0.9004157086614173
0
LINE
8
BLACK
6
CONTINUOUS
10
0.8733090944881889
20
0.9004157086614173
11
0.8740798425196851
21
0.8955492913385826
0
LINE
8
BLACK
6
CONTINUOUS
10
0.8740798425196851
20
0.8955492913385826
11
0.8733090944881889
21
0.890682874015748
0
LINE
8
BLACK
6
CONTINUOUS
10
0.8733090944881889
20
0.890682874015748
11
0.8710722440944881
21
0.8862928346456693
0
LINE
8
BLACK
6
CONTINUOUS
10
0.8710722440944881
20
0.8862928346456693
11
0.8675882677165354
21
0.8828088582677165
0
LINE
8
BLACK
6
CONTINUOUS
10
0.8675882677165354
20
0.8828088582677165
11
0.8631982283464567
21
0.8805720078740157
0
LINE
8
BLACK
6
CONTINUOUS
10
0.8631982283464567
20
0.8805720078740157
11
0.858331811023622
21
0.8798012598425197
0
LINE
8
BLACK
6
CONTINUOUS
10
0.858331811023622
20
0.8798012598425197
11
0.8534653937007873
21
0.8805720078740157
0
LINE
8
BLACK
6
CONTINUOUS
10
0.8534653937007873
20
0.8805720078740157
11
0.8490753543307087
21
0.8828088582677165
0
LINE
8
BLACK
6
CONTINUOUS
10
0.8490753543307087
20
0.8828088582677165
11
0.8455913779527559
21
0.8862928346456693
0
LINE
8
BLACK
6
CONTINUOUS
10
0.8455913779527559
20
0.8862928346456693
11
0.843354527559055
21
0.890682874015748
0
LINE
8
BLACK
6
CONTINUOUS
10
0.843354527559055
20
0.890682874015748
11
0.8432818503937007
21
0.8911417322834645
0
LINE
8
BLACK
6
CONTINUOUS
10
0.8432818503937007
20
0.8911417322834645
11
0.6800000393700787
21
0.8911417322834645
0
LINE
8
BLACK
6
CONTINUOUS
10
0.6800000393700787
20
0.8911417322834645
11
0.6800000393700787
21
0.87
0
LINE
8
BLACK
6
CONTINUOUS
10
0.6800000393700787
20
0.87
11
0.6200000393700787
21
0.87
0
LINE
8
BLACK
6
CONTINUOUS
10
0.6200000393700787
20
0.87
11
0.6200000393700787
21
0.8911417322834645
0
LINE
8
BLACK
6
CONTINUOUS
10
0.6200000393700787
20
0.8911417322834645
11
0.5800000393700787
21
0.8911417322834645
0
LINE
8
BLACK
6
CONTINUOUS
10
0.5800000393700787
20
0.8911417322834645
11
0.5800000393700787
21
0.87
0
LINE
8
BLACK
6
CONTINUOUS
10
0.5800000393700787
20
0.87
11
0.5200000393700788
21
0.87
0
LINE
8
BLACK
6
CONTINUOUS
10
0.5200000393700788
20
0.87
11
0.5200000393700788
21
0.9174725196850394
0
LINE
8
BLACK
6
CONTINUOUS
10
0.5200000393700788
20
0.9174725196850394
11
0.4963308267716535
21
0.9411417322834645
0
LINE
8
BLACK
6
CONTINUOUS
10
0.4963308267716535
20
0.9411417322834645
11
0.3879433858267716
21
0.9411417322834645
0
LINE
8
BLACK
6
CONTINUOUS
10
0.3879433858267716
20
0.9411417322834645
11
0.3877404330708661
21
0.9407433858267716
0
LINE
8
BLACK
6
CONTINUOUS
10
0.3877404330708661
20
0.9407433858267716
11
0.3842564566929134
21
0.9372594094488189
0
LINE
8
BLACK
6
CONTINUOUS
10
0.3842564566929134
20
0.9372594094488189
11
0.3798664173228347
21
0.9350225590551181
0
LINE
8
BLACK
6
CONTINUOUS
10
0.3798664173228347
20
0.9350225590551181
11
0.375
21
0.934251811023622
0
LINE
8
BLACK
6
CONTINUOUS
10
0.375
20
0.934251811023622
11
0.3701335826771653
21
0.9350225590551181
0
LINE
8
BLACK
6
CONTINUOUS
10
0.3701335826771653
20
0.9350225590551181
11
0.3657435433070866
21
0.9372594094488189
0
LINE
8
BLACK
6
CONTINUOUS
10
0.3657435433070866
20
0.9372594094488189
11
0.3622595669291339
21
0.9407433858267716
0
LINE
8
BLACK
6
CONTINUOUS
10
0.3622595669291339
20
0.9407433858267716
11
0.3600227165354331
21
0.9451334251968504
0
LINE
8
BLACK
6
CONTINUOUS
10
0.3600227165354331
20
0.9451334251968504
11
0.359251968503937
21
0.9499998425196851
0
LINE
8
BLACK
6
CONTINUOUS
10
0.359251968503937
20
0.9499998425196851
11
0.3600227165354331
21
0.9548662598425197
0
LINE
8
BLACK
6
CONTINUOUS
10
0.3600227165354331
20
0.9548662598425197
11
0.3622595669291339
21
0.9592562992125984
0
LINE
8
BLACK
6
CONTINUOUS
10
0.3622595669291339
20
0.9592562992125984
11
0.3657435433070866
21
0.9627402755905512
0
LINE
8
BLACK
6
CONTINUOUS
10
0.3657435433070866
20
0.9627402755905512
11
0.3701335826771653
21
0.9649771259842519
0
LINE
8
BLACK
6
CONTINUOUS
10
0.3701335826771653
20
0.9649771259842519
11
0.375
21
0.965747874015748
0
LINE
8
BLACK
6
CONTINUOUS
10
0.375
20
0.965747874015748
11
0.3798664173228347
21
0.9649771259842519
0
LINE
8
BLACK
6
CONTINUOUS
10
0.7348662598425196
20
1.2649771259842519
11
0.7392562992125984
21
1.2627402755905512
0
LINE
8
BLACK
6
CONTINUOUS
10
0.7392562992125984
20
1.2627402755905512
11
0.7427402755905511
21
1.2592562992125984
0
LINE
8
BLACK
6
CONTINUOUS
10
0.7427402755905511
20
1.2592562992125984
11
0.7449771259842519
21
1.2548662598425198
0
LINE
8
BLACK
6
CONTINUOUS
10
0.7449771259842519
20
1.2548662598425198
11
0.745747874015748
21
1.249999842519685
0
LINE
8
BLACK
6
CONTINUOUS
10
0.745747874015748
20
1.249999842519685
11
0.7449771259842519
21
1.2451334251968504
0
LINE
8
BLACK
6
CONTINUOUS
10
0.7449771259842519
20
1.2451334251968504
11
0.7427402755905511
21
1.2407433858267716
0
LINE
8
BLACK
6
CONTINUOUS
10
0.7427402755905511
20
1.2407433858267716
11
0.7392562992125984
21
1.237259409448819
0
LINE
8
BLACK
6
CONTINUOUS
10
0.7392562992125984
20
1.237259409448819
11
0.7388581102362205
21
1.2370565354330709
0
LINE
8
BLACK
6
CONTINUOUS
10
0.7388581102362205
20
1.2370565354330709
11
0.7388581102362205
21
1.0836698425196851
0
LINE
8
BLACK
6
CONTINUOUS
10
0.7388581102362205
20
1.0836698425196851
11
0.817429094488189
21
1.0050988582677165
0
LINE
8
BLACK
6
CONTINUOUS
10
0.817429094488189
20
1.0050988582677165
11
0.8185945275590552
21
1.00365968503937
0
LINE
8
BLACK
6
CONTINUOUS
10
0.8185945275590552
20
1.00365968503937
11
0.8188457086614173
21
1.0030052755905512
0
LINE
8
BLACK
6
CONTINUOUS
10
0.8188457086614173
20
1.0030052755905512
11
0.8192577952755905
21
1.0024381102362205
0
LINE
8
BLACK
6
CONTINUOUS
10
0.8192577952755905
20
1.0024381102362205
11
0.819498937007874
21
1.0013035826771652
0
LINE
8
BLACK
6
CONTINUOUS
10
0.819498937007874
20
1.0013035826771652
11
0.8199145669291339
21
1.0002208267716535
0
LINE
8
BLACK
6
CONTINUOUS
10
0.8199145669291339
20
1.0002208267716535
11
0.819877874015748
21
0.9995207874015748
0
LINE
8
BLACK
6
CONTINUOUS
10
0.819877874015748
20
0.9995207874015748
11
0.8200236220472441
21
0.9988351181102362
0
LINE
8
BLACK
6
CONTINUOUS
10
0.8200236220472441
20
0.9988351181102362
11
0.8200236220472441
21
0.9529433464566929
0
LINE
8
BLACK
6
CONTINUOUS
10
0.8200236220472441
20
0.9529433464566929
11
0.820421811023622
21
0.9527404330708661
0
LINE
8
BLACK
6
CONTINUOUS
10
0.820421811023622
20
0.9527404330708661
11
0.8239057874015748
21
0.9492564566929134
0
LINE
8
BLACK
6
CONTINUOUS
10
0.8239057874015748
20
0.9492564566929134
11
0.8261426377952755
21
0.9448664173228346
0
LINE
8
BLACK
6
CONTINUOUS
10
0.8261426377952755
20
0.9448664173228346
11
0.8269133858267717
21
0.9399999999999999
0
LINE
8
BLACK
6
CONTINUOUS
10
0.8269133858267717
20
0.9399999999999999
11
0.8261426377952755
21
0.9351335826771653
0
LINE
8
BLACK
6
CONTINUOUS
10
0.8261426377952755
20
0.9351335826771653
11
0.8239057874015748
21
0.9307435433070866
0
LINE
8
BLACK
6
CONTINUOUS
10
0.8239057874015748
20
0.9307435433070866
11
0.820421811023622
21
0.9272595669291338
0
LINE
8
BLACK
6
CONTINUOUS
10
0.820421811023622
20
0.9272595669291338
11
0.8160317716535432
21
0.925022716535433
0
LINE
8
BLACK
6
CONTINUOUS
10
0.8160317716535432
20
0.925022716535433
11
0.8111653543307087
21
0.924251968503937
0
LINE
8
BLACK
6
CONTINUOUS
10
0.8111653543307087
20
0.924251968503937
11
0.806298937007874
21
0.925022716535433
0
LINE
8
BLACK
6
CONTINUOUS
10
0.806298937007874
20
0.925022716535433
11
0.8019088976377953
21
0.9272595669291338
0
LINE
8
BLACK
6
CONTINUOUS
10
0.8019088976377953
20
0.9272595669291338
11
0.7984249212598425
21
0.9307435433070866
0
LINE
8
BLACK
6
CONTINUOUS
10
0.7984249212598425
20
0.9307435433070866
11
0.7961880708661417
21
0.9351335826771653
0
LINE
8
BLACK
6
CONTINUOUS
10
0.7961880708661417
20
0.9351335826771653
11
0.7954173228346456
21
0.9399999999999999
0
LINE
8
BLACK
6
CONTINUOUS
10
0.7954173228346456
20
0.9399999999999999
11
0.7961880708661417
21
0.9448664173228346
0
LINE
8
BLACK
6
CONTINUOUS
10
0.7961880708661417
20
0.9448664173228346
11
0.7984249212598425
21
0.9492564566929134
0
LINE
8
BLACK
6
CONTINUOUS
10
0.7984249212598425
20
0.9492564566929134
11
0.8019088976377953
21
0.9527404330708661
0
LINE
8
BLACK
6
CONTINUOUS
10
0.8019088976377953
20
0.9527404330708661
11
0.8023070866141732
21
0.9529433464566929
0
LINE
8
BLACK
6
CONTINUOUS
10
0.8023070866141732
20
0.9529433464566929
11
0.8023070866141732
21
0.9951659055118111
0
LINE
8
BLACK
6
CONTINUOUS
10
0.8023070866141732
20
0.9951659055118111
11
0.7300002362204724
21
1.0674727559055117
0
LINE
8
BLACK
6
CONTINUOUS
10
0.7300002362204724
20
1.0674727559055117
11
0.6800000393700787
21
1.0174725196850394
0
LINE
8
BLACK
6
CONTINUOUS
10
0.6800000393700787
20
1.0174725196850394
11
0.6800000393700787
21
0.97
0
LINE
8
BLACK
6
CONTINUOUS
10
0.6800000393700787
20
0.97
11
0.6200000393700787
21
0.97
0
LINE
8
BLACK
6
CONTINUOUS
10
0.6200000393700787
20
0.97
11
0.6200000393700787
21
1.03
0
LINE
8
BLACK
6
CONTINUOUS
10
0.6200000393700787
20
1.03
11
0.667472559055118
21
1.03
0
LINE
8
BLACK
6
CONTINUOUS
10
0.667472559055118
20
1.03
11
0.7211415748031496
21
1.0836690157480315
0
LINE
8
BLACK
6
CONTINUOUS
10
0.7211415748031496
20
1.0836690157480315
11
0.7211415748031496
21
1.2370565354330709
0
LINE
8
BLACK
6
CONTINUOUS
10
0.7211415748031496
20
1.2370565354330709
11
0.7207433858267717
21
1.237259409448819
0
LINE
8
BLACK
6
CONTINUOUS
10
0.7207433858267717
20
1.237259409448819
11
0.7172594094488188
21
1.2407433858267716
0
LINE
8
BLACK
6
CONTINUOUS
10
0.7172594094488188
20
1.2407433858267716
11
0.7150225590551181
21
1.2451334251968504
0
LINE
8
BLACK
6
CONTINUOUS
10
0.7150225590551181
20
1.2451334251968504
11
0.714251811023622
21
1.249999842519685
0
LINE
8
BLACK
6
CONTINUOUS
10
0.714251811023622
20
1.249999842519685
11
0.7150225590551181
21
1.2548662598425198
0
LINE
8
BLACK
6
CONTINUOUS
10
0.7150225590551181
20
1.2548662598425198
11
0.7172594094488188
21
1.2592562992125984
0
LINE
8
BLACK
6
CONTINUOUS
10
0.7172594094488188
20
1.2592562992125984
11
0.7207433858267717
21
1.2627402755905512
0
LINE
8
BLACK
6
CONTINUOUS
10
0.7207433858267717
20
1.2627402755905512
11
0.7251334251968504
21
1.2649771259842519
0
LINE
8
BLACK
6
CONTINUOUS
10
0.7251334251968504
20
1.2649771259842519
11
0.729999842519685
21
1.265747874015748
0
LINE
8
BLACK
6
CONTINUOUS
10
0.729999842519685
20
1.265747874015748
11
0.7348662598425196
21
1.2649771259842519
0
LINE
8
BLACK
6
CONTINUOUS
10
0.4048664173228346
20
1.1149772834645668
11
0.4092564566929134
21
1.1127404330708661
0
LINE
8
BLACK
6
CONTINUOUS
10
0.4092564566929134
20
1.1127404330708661
11
0.4127404330708661
21
1.1092564566929133
0
LINE
8
BLACK
6
CONTINUOUS
10
0.4127404330708661
20
1.1092564566929133
11
0.4149772834645669
21
1.1048664173228346
0
LINE
8
BLACK
6
CONTINUOUS
10
0.4149772834645669
20
1.1048664173228346
11
0.415748031496063
21
1.0999999999999999
0
LINE
8
BLACK
6
CONTINUOUS
10
0.415748031496063
20
1.0999999999999999
11
0.4153076771653543
21
1.0972198031496063
0
LINE
8
BLACK
6
CONTINUOUS
10
0.4153076771653543
20
1.0972198031496063
11
0.5036692125984252
21
1.0088582677165354
0
LINE
8
BLACK
6
CONTINUOUS
10
0.5036692125984252
20
1.0088582677165354
11
0.5200000393700788
21
1.0088582677165354
0
LINE
8
BLACK
6
CONTINUOUS
10
0.5200000393700788
20
1.0088582677165354
11
0.5200000393700788
21
1.03
0
LINE
8
BLACK
6
CONTINUOUS
10
0.5200000393700788
20
1.03
11
0.5800000393700787
21
1.03
0
LINE
8
BLACK
6
CONTINUOUS
10
0.5800000393700787
20
1.03
11
0.5800000393700787
21
0.97
0
LINE
8
BLACK
6
CONTINUOUS
10
0.5800000393700787
20
0.97
11
0.5200000393700788
21
0.97
0
LINE
8
BLACK
6
CONTINUOUS
10
0.5200000393700788
20
0.97
11
0.5200000393700788
21
0.9911417322834646
0
LINE
8
BLACK
6
CONTINUOUS
10
0.5200000393700788
20
0.9911417322834646
11
0.5
21
0.9911417322834646
0
LINE
8
BLACK
6
CONTINUOUS
10
0.5
20
0.9911417322834646
11
0.4981582677165354
21
0.9913353149606299
0
LINE
8
BLACK
6
CONTINUOUS
10
0.4981582677165354
20
0.9913353149606299
11
0.497517874015748
21
0.9916204330708661
0
LINE
8
BLACK
6
CONTINUOUS
10
0.497517874015748
20
0.9916204330708661
11
0.4968254724409449
21
0.9917300787401575
0
LINE
8
BLACK
6
CONTINUOUS
10
0.4968254724409449
20
0.9917300787401575
11
0.4958527165354331
21
0.992361811023622
0
LINE
8
BLACK
6
CONTINUOUS
10
0.4958527165354331
20
0.992361811023622
11
0.4947932283464567
21
0.9928335039370079
0
LINE
8
BLACK
6
CONTINUOUS
10
0.4947932283464567
20
0.9928335039370079
11
0.4943241338582677
21
0.9933544881889763
0
LINE
8
BLACK
6
CONTINUOUS
10
0.4943241338582677
20
0.9933544881889763
11
0.4937362598425197
21
0.9937362598425197
0
LINE
8
BLACK
6
CONTINUOUS
10
0.4937362598425197
20
0.9937362598425197
11
0.4027801968503937
21
1.0846923228346457
0
LINE
8
BLACK
6
CONTINUOUS
10
0.4027801968503937
20
1.0846923228346457
11
0.4
21
1.0842519685039369
0
LINE
8
BLACK
6
CONTINUOUS
10
0.4
20
1.0842519685039369
11
0.3951335826771654
21
1.0850227165354331
0
LINE
8
BLACK
6
CONTINUOUS
10
0.3951335826771654
20
1.0850227165354331
11
0.3907435433070866
21
1.0872595669291338
0
LINE
8
BLACK
6
CONTINUOUS
10
0.3907435433070866
20
1.0872595669291338
11
0.3872595669291338
21
1.0907435433070867
0
LINE
8
BLACK
6
CONTINUOUS
10
0.3872595669291338
20
1.0907435433070867
11
0.3850227165354331
21
1.0951335826771653
0
LINE
8
BLACK
6
CONTINUOUS
10
0.3850227165354331
20
1.0951335826771653
11
0.384251968503937
21
1.0999999999999999
0
LINE
8
BLACK
6
CONTINUOUS
10
0.384251968503937
20
1.0999999999999999
11
0.3850227165354331
21
1.1048664173228346
0
LINE
8
BLACK
6
CONTINUOUS
10
0.3850227165354331
20
1.1048664173228346
11
0.3872595669291338
21
1.1092564566929133
0
LINE
8
BLACK
6
CONTINUOUS
10
0.3872595669291338
20
1.1092564566929133
11
0.3907435433070866
21
1.1127404330708661
0
LINE
8
BLACK
6
CONTINUOUS
10
0.3907435433070866
20
1.1127404330708661
11
0.3951335826771654
21
1.1149772834645668
0
LINE
8
BLACK
6
CONTINUOUS
10
0.3951335826771654
20
1.1149772834645668
11
0.4
21
1.1157480314960631
0
LINE
8
BLACK
6
CONTINUOUS
10
0.4
20
1.1157480314960631
11
0.4048664173228346
21
1.1149772834645668
0
LINE
8
BLACK
6
CONTINUOUS
10
0.5800000393700787
20
1.0700000000000001
11
0.5200000393700788
21
1.0700000000000001
0
LINE
8
BLACK
6
CONTINUOUS
10
0.5200000393700788
20
1.0700000000000001
11
0.5200000393700788
21
1.1299999999999999
0
LINE
8
BLACK
6
CONTINUOUS
10
0.5200000393700788
20
1.1299999999999999
11
0.5800000393700787
21
1.1299999999999999
0
LINE
8
BLACK
6
CONTINUOUS
10
0.5800000393700787
20
1.1299999999999999
11
0.5800000393700787
21
1.0700000000000001
0
LINE
8
BLACK
6
CONTINUOUS
10
0.6800000393700787
20
1.0700000000000001
11
0.6200000393700787
21
1.0700000000000001
0
LINE
8
BLACK
6
CONTINUOUS
10
0.6200000393700787
20
1.0700000000000001
11
0.6200000393700787
21
1.1299999999999999
0
LINE
8
BLACK
6
CONTINUOUS
10
0.6200000393700787
20
1.1299999999999999
11
0.6800000393700787
21
1.1299999999999999
0
LINE
8
BLACK
6
CONTINUOUS
10
0.6800000393700787
20
1.1299999999999999
11
0.6800000393700787
21
1.0700000000000001
0
LINE
8
BLACK
6
CONTINUOUS
10
0.9680527559055118
20
1.7695202755905513
11
0.9698541338582677
21
1.7674413779527558
0
LINE
8
BLACK
6
CONTINUOUS
10
0.9698541338582677
20
1.7674413779527558
11
0.9702953149606299
21
1.7654133858267715
0
LINE
8
BLACK
6
CONTINUOUS
10
0.9702953149606299
20
1.7654133858267715
11
0.9702953149606299
21
0.2345866141732283
0
LINE
8
BLACK
6
CONTINUOUS
10
0.9702953149606299
20
0.2345866141732283
11
0.9695203149606298
21
0.2319472834645669
0
LINE
8
BLACK
6
CONTINUOUS
10
0.9695203149606298
20
0.2319472834645669
11
0.9674414173228346
21
0.230145905511811
0
LINE
8
BLACK
6
CONTINUOUS
10
0.9674414173228346
20
0.230145905511811
11
0.9654134251968504
21
0.2297047244094488
0
LINE
8
BLACK
6
CONTINUOUS
10
0.9654134251968504
20
0.2297047244094488
11
0.2345866535433071
21
0.2297047244094488
0
LINE
8
BLACK
6
CONTINUOUS
10
0.2345866535433071
20
0.2297047244094488
11
0.2319473228346457
21
0.2304797244094488
0
LINE
8
BLACK
6
CONTINUOUS
10
0.2319473228346457
20
0.2304797244094488
11
0.2301459448818897
21
0.2325586220472441
0
LINE
8
BLACK
6
CONTINUOUS
10
0.2301459448818897
20
0.2325586220472441
11
0.2297047637795276
21
0.2345866141732283
0
LINE
8
BLACK
6
CONTINUOUS
10
0.2297047637795276
20
0.2345866141732283
11
0.2297047637795276
21
0.9499998425196851
0
LINE
8
BLACK
6
CONTINUOUS
10
0.2297047637795276
20
0.9499998425196851
11
0.2297047637795276
21
1.7654133858267715
0
LINE
8
BLACK
6
CONTINUOUS
10
0.2297047637795276
20
1.7654133858267715
11
0.2304797637795276
21
1.7680527165354329
0
LINE
8
BLACK
6
CONTINUOUS
10
0.2304797637795276
20
1.7680527165354329
11
0.2325586614173228
21
1.7698540944881889
0
LINE
8
BLACK
6
CONTINUOUS
10
0.2325586614173228
20
1.7698540944881889
11
0.2345866535433071
21
1.7702952755905512
0
LINE
8
BLACK
6
CONTINUOUS
10
0.2345866535433071
20
1.7702952755905512
11
0.9654134251968504
21
1.7702952755905512
0
LINE
8
BLACK
6
CONTINUOUS
10
0.9654134251968504
20
1.7702952755905512
11
0.9680527559055118
21
1.7695202755905513
0
LINE
8
BLACK
6
CONTINUOUS
10
0.500315
20
0.7901574803149606
11
0.500315
21
0.7681163779527559
0
LINE
8
BLACK
6
CONTINUOUS
10
0.500315
20
0.7681163779527559
11
0.5005670078740158
21
0.7657727559055117
0
LINE
8
BLACK
6
CONTINUOUS
10
0.5005670078740158
20
0.7657727559055117
11
0.5005670866141733
21
0.7657724803149606
0
LINE
8
BLACK
6
CONTINUOUS
10
0.5005670866141733
20
0.7657724803149606
11
0.5025451181102362
21
0.7604690551181102
0
LINE
8
BLACK
6
CONTINUOUS
10
0.5025451181102362
20
0.7604690551181102
11
0.5025452755905512
21
0.7604687795275591
0
LINE
8
BLACK
6
CONTINUOUS
10
0.5025452755905512
20
0.7604687795275591
11
0.5059374015748032
21
0.7559375196850393
0
LINE
8
BLACK
6
CONTINUOUS
10
0.5059374015748032
20
0.7559375196850393
11
0.5059375196850393
21
0.7559374015748032
0
LINE
8
BLACK
6
CONTINUOUS
10
0.5059375196850393
20
0.7559374015748032
11
0.5104687795275591
21
0.7525452755905512
0
LINE
8
BLACK
6
CONTINUOUS
10
0.5104687795275591
20
0.7525452755905512
11
0.5104690551181102
21
0.7525451181102362
0
LINE
8
BLACK
6
CONTINUOUS
10
0.5104690551181102
20
0.7525451181102362
11
0.5157724803149606
21
0.7505670866141733
0
LINE
8
BLACK
6
CONTINUOUS
10
0.5157724803149606
20
0.7505670866141733
11
0.5157727559055117
21
0.7505670078740158
0
LINE
8
BLACK
6
CONTINUOUS
10
0.5157727559055117
20
0.7505670078740158
11
0.5181163779527559
21
0.750315
0
LINE
8
BLACK
6
CONTINUOUS
10
0.5181163779527559
20
0.750315
11
0.5181170472440945
21
0.7503149606299212
0
LINE
8
BLACK
6
CONTINUOUS
10
0.5181170472440945
20
0.7503149606299212
11
0.5401575196850393
21
0.7503149606299212
0
LINE
8
BLACK
6
CONTINUOUS
10
0.5401575196850393
20
0.7503149606299212
11
0.5401575196850393
21
0.77
0
LINE
8
BLACK
6
CONTINUOUS
10
0.5401575196850393
20
0.77
11
0.5200000393700788
21
0.77
0
LINE
8
BLACK
6
CONTINUOUS
10
0.5200000393700788
20
0.77
11
0.5200000393700788
21
0.7901574803149606
0
LINE
8
BLACK
6
CONTINUOUS
10
0.5200000393700788
20
0.7901574803149606
11
0.500315
21
0.7901574803149606
0
LINE
8
BLACK
6
CONTINUOUS
10
0.5800000393700787
20
0.7901574803149606
11
0.5800000393700787
21
0.77
0
LINE
8
BLACK
6
CONTINUOUS
10
0.5800000393700787
20
0.77
11
0.5598425590551181
21
0.77
0
LINE
8
BLACK
6
CONTINUOUS
10
0.5598425590551181
20
0.77
11
0.5598425590551181
21
0.7503149606299212
0
LINE
8
BLACK
6
CONTINUOUS
10
0.5598425590551181
20
0.7503149606299212
11
0.581883031496063
21
0.7503149606299212
0
LINE
8
BLACK
6
CONTINUOUS
10
0.581883031496063
20
0.7503149606299212
11
0.5818836614173228
21
0.750315
0
LINE
8
BLACK
6
CONTINUOUS
10
0.5818836614173228
20
0.750315
11
0.5842272834645669
21
0.7505670078740158
0
LINE
8
BLACK
6
CONTINUOUS
10
0.5842272834645669
20
0.7505670078740158
11
0.5842275590551181
21
0.7505670866141733
0
LINE
8
BLACK
6
CONTINUOUS
10
0.5842275590551181
20
0.7505670866141733
11
0.5895309842519685
21
0.7525451181102362
0
LINE
8
BLACK
6
CONTINUOUS
10
0.5895309842519685
20
0.7525451181102362
11
0.5895312598425196
21
0.7525452755905512
0
LINE
8
BLACK
6
CONTINUOUS
10
0.5895312598425196
20
0.7525452755905512
11
0.5940624803149606
21
0.7559373622047244
0
LINE
8
BLACK
6
CONTINUOUS
10
0.5940624803149606
20
0.7559373622047244
11
0.5960918897637795
21
0.7586482677165354
0
LINE
8
BLACK
6
CONTINUOUS
10
0.5960918897637795
20
0.7586482677165354
11
0.5982940157480315
21
0.7602967322834645
0
LINE
8
BLACK
6
CONTINUOUS
10
0.5982940157480315
20
0.7602967322834645
11
0.6010377952755905
21
0.7604929527559054
0
LINE
8
BLACK
6
CONTINUOUS
10
0.6010377952755905
20
0.7604929527559054
11
0.6034520866141733
21
0.7591746456692913
0
LINE
8
BLACK
6
CONTINUOUS
10
0.6034520866141733
20
0.7591746456692913
11
0.603908188976378
21
0.7586482677165354
0
LINE
8
BLACK
6
CONTINUOUS
10
0.603908188976378
20
0.7586482677165354
11
0.6059375590551181
21
0.7559373622047244
0
LINE
8
BLACK
6
CONTINUOUS
10
0.6059375590551181
20
0.7559373622047244
11
0.6104687795275591
21
0.7525452755905512
0
LINE
8
BLACK
6
CONTINUOUS
10
0.6104687795275591
20
0.7525452755905512
11
0.6104690551181102
21
0.7525451181102362
0
LINE
8
BLACK
6
CONTINUOUS
10
0.6104690551181102
20
0.7525451181102362
11
0.6157724803149606
21
0.7505670866141733
0
LINE
8
BLACK
6
CONTINUOUS
10
0.6157724803149606
20
0.7505670866141733
11
0.6157727559055118
21
0.7505670078740158
0
LINE
8
BLACK
6
CONTINUOUS
10
0.6157727559055118
20
0.7505670078740158
11
0.6181163779527559
21
0.750315
0
LINE
8
BLACK
6
CONTINUOUS
10
0.6181163779527559
20
0.750315
11
0.6181170472440944
21
0.7503149606299212
0
LINE
8
BLACK
6
CONTINUOUS
10
0.6181170472440944
20
0.7503149606299212
11
0.6401575196850393
21
0.7503149606299212
0
LINE
8
BLACK
6
CONTINUOUS
10
0.6401575196850393
20
0.7503149606299212
11
0.6401575196850393
21
0.77
0
LINE
8
BLACK
6
CONTINUOUS
10
0.6401575196850393
20
0.77
11
0.6200000393700787
21
0.77
0
LINE
8
BLACK
6
CONTINUOUS
10
0.6200000393700787
20
0.77
11
0.6200000393700787
21
0.7901574803149606
0
LINE
8
BLACK
6
CONTINUOUS
10
0.6200000393700787
20
0.7901574803149606
11
0.5800000393700787
21
0.7901574803149606
0
LINE
8
BLACK
6
CONTINUOUS
10
0.6800000393700787
20
0.77
11
0.6598425590551181
21
0.77
0
LINE
8
BLACK
6
CONTINUOUS
10
0.6598425590551181
20
0.77
11
0.6598425590551181
21
0.7503149606299212
0
LINE
8
BLACK
6
CONTINUOUS
10
0.6598425590551181
20
0.7503149606299212
11
0.681883031496063
21
0.7503149606299212
0
LINE
8
BLACK
6
CONTINUOUS
10
0.681883031496063
20
0.7503149606299212
11
0.6818836614173228
21
0.750315
0
LINE
8
BLACK
6
CONTINUOUS
10
0.6818836614173228
20
0.750315
11
0.684227283464567
21
0.7505670078740158
0
LINE
8
BLACK
6
CONTINUOUS
10
0.684227283464567
20
0.7505670078740158
11
0.6842275590551181
21
0.7505670866141733
0
LINE
8
BLACK
6
CONTINUOUS
10
0.6842275590551181
20
0.7505670866141733
11
0.6895309842519685
21
0.7525451181102362
0
LINE
8
BLACK
6
CONTINUOUS
10
0.6895309842519685
20
0.7525451181102362
11
0.6895312598425196
21
0.7525452755905512
0
LINE
8
BLACK
6
CONTINUOUS
10
0.6895312598425196
20
0.7525452755905512
11
0.6940625196850394
21
0.7559374015748032
0
LINE
8
BLACK
6
CONTINUOUS
10
0.6940625196850394
20
0.7559374015748032
11
0.6940626377952755
21
0.7559375196850393
0
LINE
8
BLACK
6
CONTINUOUS
10
0.6940626377952755
20
0.7559375196850393
11
0.6974547637795275
21
0.7604687795275591
0
LINE
8
BLACK
6
CONTINUOUS
10
0.6974547637795275
20
0.7604687795275591
11
0.6974549212598425
21
0.7604690551181102
0
LINE
8
BLACK
6
CONTINUOUS
10
0.6974549212598425
20
0.7604690551181102
11
0.6994329527559054
21
0.7657724803149606
0
LINE
8
BLACK
6
CONTINUOUS
10
0.6994329527559054
20
0.7657724803149606
11
0.699433031496063
21
0.7657727559055117
0
LINE
8
BLACK
6
CONTINUOUS
10
0.699433031496063
20
0.7657727559055117
11
0.6996850393700788
21
0.7681163779527559
0
LINE
8
BLACK
6
CONTINUOUS
10
0.6996850393700788
20
0.7681163779527559
11
0.6996850787401575
21
0.7681170472440945
0
LINE
8
BLACK
6
CONTINUOUS
10
0.6996850787401575
20
0.7681170472440945
11
0.6996850787401575
21
0.7901574803149606
0
LINE
8
BLACK
6
CONTINUOUS
10
0.6996850787401575
20
0.7901574803149606
11
0.6800000393700787
21
0.7901574803149606
0
LINE
8
BLACK
6
CONTINUOUS
10
0.6800000393700787
20
0.7901574803149606
11
0.6800000393700787
21
0.77
0
LINE
8
BLACK
6
CONTINUOUS
10
0.3398211811023622
20
0.9425223622047244
11
0.339821220472441
21
0.9425222440944881
0
LINE
8
BLACK
6
CONTINUOUS
10
0.339821220472441
20
0.9425222440944881
11
0.3421444881889764
21
0.9353719291338582
0
LINE
8
BLACK
6
CONTINUOUS
10
0.3421444881889764
20
0.9353719291338582
11
0.3421446062992126
21
0.9353716535433071
0
LINE
8
BLACK
6
CONTINUOUS
10
0.3421446062992126
20
0.9353716535433071
11
0.345903937007874
21
0.9288603149606299
0
LINE
8
BLACK
6
CONTINUOUS
10
0.345903937007874
20
0.9288603149606299
11
0.3509349212598425
21
0.9232728346456692
0
LINE
8
BLACK
6
CONTINUOUS
10
0.3509349212598425
20
0.9232728346456692
11
0.3570176377952756
21
0.9188534645669291
0
LINE
8
BLACK
6
CONTINUOUS
10
0.3570176377952756
20
0.9188534645669291
11
0.3638862992125984
21
0.9157953543307087
0
LINE
8
BLACK
6
CONTINUOUS
10
0.3638862992125984
20
0.9157953543307087
11
0.3712406692913386
21
0.914232125984252
0
LINE
8
BLACK
6
CONTINUOUS
10
0.3712406692913386
20
0.914232125984252
11
0.3787593307086614
21
0.914232125984252
0
LINE
8
BLACK
6
CONTINUOUS
10
0.3787593307086614
20
0.914232125984252
11
0.3861137007874016
21
0.9157953543307087
0
LINE
8
BLACK
6
CONTINUOUS
10
0.3861137007874016
20
0.9157953543307087
11
0.3929823622047244
21
0.9188534645669291
0
LINE
8
BLACK
6
CONTINUOUS
10
0.3929823622047244
20
0.9188534645669291
11
0.3948214960629921
21
0.9201897244094488
0
LINE
8
BLACK
6
CONTINUOUS
10
0.3948214960629921
20
0.9201897244094488
11
0.3974123228346457
21
0.9211140944881889
0
LINE
8
BLACK
6
CONTINUOUS
10
0.3974123228346457
20
0.9211140944881889
11
0.3976910236220472
21
0.9211220472440945
0
LINE
8
BLACK
6
CONTINUOUS
10
0.3976910236220472
20
0.9211220472440945
11
0.4860162598425197
21
0.9211220472440945
0
LINE
8
BLACK
6
CONTINUOUS
10
0.4860162598425197
20
0.9211220472440945
11
0.4886555905511811
21
0.9203470472440944
0
LINE
8
BLACK
6
CONTINUOUS
10
0.4886555905511811
20
0.9203470472440944
11
0.4894682677165354
21
0.9196921653543307
0
LINE
8
BLACK
6
CONTINUOUS
10
0.4894682677165354
20
0.9196921653543307
11
0.4985504724409449
21
0.9106099606299213
0
LINE
8
BLACK
6
CONTINUOUS
10
0.4985504724409449
20
0.9106099606299213
11
0.499868779527559
21
0.9081956692913385
0
LINE
8
BLACK
6
CONTINUOUS
10
0.499868779527559
20
0.9081956692913385
11
0.4999803543307086
21
0.9071579527559055
0
LINE
8
BLACK
6
CONTINUOUS
10
0.4999803543307086
20
0.9071579527559055
11
0.4999803543307086
21
0.8680844881889763
0
LINE
8
BLACK
6
CONTINUOUS
10
0.4999803543307086
20
0.8680844881889763
11
0.5002366929133858
21
0.8657007086614174
0
LINE
8
BLACK
6
CONTINUOUS
10
0.5002366929133858
20
0.8657007086614174
11
0.5002366929133858
21
0.8657006299212598
0
LINE
8
BLACK
6
CONTINUOUS
10
0.5002366929133858
20
0.8657006299212598
11
0.500720748031496
21
0.8644029133858268
0
LINE
8
BLACK
6
CONTINUOUS
10
0.500720748031496
20
0.8644029133858268
11
0.5022485039370078
21
0.8603069291338582
0
LINE
8
BLACK
6
CONTINUOUS
10
0.5022485039370078
20
0.8603069291338582
11
0.5056984251968504
21
0.8556983858267716
0
LINE
8
BLACK
6
CONTINUOUS
10
0.5056984251968504
20
0.8556983858267716
11
0.5083691338582677
21
0.8536991338582677
0
LINE
8
BLACK
6
CONTINUOUS
10
0.5083691338582677
20
0.8536991338582677
11
0.5100175590551181
21
0.8514970472440945
0
LINE
8
BLACK
6
CONTINUOUS
10
0.5100175590551181
20
0.8514970472440945
11
0.5102137795275591
21
0.8487533070866141
0
LINE
8
BLACK
6
CONTINUOUS
10
0.5102137795275591
20
0.8487533070866141
11
0.5088954724409449
21
0.8463390157480315
0
LINE
8
BLACK
6
CONTINUOUS
10
0.5088954724409449
20
0.8463390157480315
11
0.5083691338582677
21
0.8458829133858268
0
LINE
8
BLACK
6
CONTINUOUS
10
0.5083691338582677
20
0.8458829133858268
11
0.5059374015748032
21
0.8440625196850393
0
LINE
8
BLACK
6
CONTINUOUS
10
0.5059374015748032
20
0.8440625196850393
11
0.5025452755905512
21
0.8395312598425196
0
LINE
8
BLACK
6
CONTINUOUS
10
0.5025452755905512
20
0.8395312598425196
11
0.5025451181102362
21
0.8395309842519685
0
LINE
8
BLACK
6
CONTINUOUS
10
0.5025451181102362
20
0.8395309842519685
11
0.5005670866141733
21
0.8342275590551181
0
LINE
8
BLACK
6
CONTINUOUS
10
0.5005670866141733
20
0.8342275590551181
11
0.5005670078740158
21
0.8342272834645669
0
LINE
8
BLACK
6
CONTINUOUS
10
0.5005670078740158
20
0.8342272834645669
11
0.500315
21
0.8318836614173228
0
LINE
8
BLACK
6
CONTINUOUS
10
0.500315
20
0.8318836614173228
11
0.500315
21
0.8098425196850394
0
LINE
8
BLACK
6
CONTINUOUS
10
0.500315
20
0.8098425196850394
11
0.5200000393700788
21
0.8098425196850394
0
LINE
8
BLACK
6
CONTINUOUS
10
0.5200000393700788
20
0.8098425196850394
11
0.5200000393700788
21
0.83
0
LINE
8
BLACK
6
CONTINUOUS
10
0.5200000393700788
20
0.83
11
0.5800000393700787
21
0.83
0
LINE
8
BLACK
6
CONTINUOUS
10
0.5800000393700787
20
0.83
11
0.5800000393700787
21
0.8098425196850394
0
LINE
8
BLACK
6
CONTINUOUS
10
0.5800000393700787
20
0.8098425196850394
11
0.6200000393700787
21
0.8098425196850394
0
LINE
8
BLACK
6
CONTINUOUS
10
0.6200000393700787
20
0.8098425196850394
11
0.6200000393700787
21
0.83
0
LINE
8
BLACK
6
CONTINUOUS
10
0.6200000393700787
20
0.83
11
0.6800000393700787
21
0.83
0
LINE
8
BLACK
6
CONTINUOUS
10
0.6800000393700787
20
0.83
11
0.6800000393700787
21
0.8098425196850394
0
LINE
8
BLACK
6
CONTINUOUS
10
0.6800000393700787
20
0.8098425196850394
11
0.6996850787401575
21
0.8098425196850394
0
LINE
8
BLACK
6
CONTINUOUS
10
0.6996850787401575
20
0.8098425196850394
11
0.6996850787401575
21
0.8318829921259843
0
LINE
8
BLACK
6
CONTINUOUS
10
0.6996850787401575
20
0.8318829921259843
11
0.6996850393700788
21
0.8318836614173228
0
LINE
8
BLACK
6
CONTINUOUS
10
0.6996850393700788
20
0.8318836614173228
11
0.699433031496063
21
0.8342272834645669
0
LINE
8
BLACK
6
CONTINUOUS
10
0.699433031496063
20
0.8342272834645669
11
0.6994329527559054
21
0.8342275590551181
0
LINE
8
BLACK
6
CONTINUOUS
10
0.6994329527559054
20
0.8342275590551181
11
0.6974549212598425
21
0.8395309842519685
0
LINE
8
BLACK
6
CONTINUOUS
10
0.6974549212598425
20
0.8395309842519685
11
0.6974547637795275
21
0.8395312598425196
0
LINE
8
BLACK
6
CONTINUOUS
10
0.6974547637795275
20
0.8395312598425196
11
0.6940626377952755
21
0.8440624803149606
0
LINE
8
BLACK
6
CONTINUOUS
10
0.6940626377952755
20
0.8440624803149606
11
0.6916309448818897
21
0.845882874015748
0
LINE
8
BLACK
6
CONTINUOUS
10
0.6916309448818897
20
0.845882874015748
11
0.6899824803149606
21
0.848085
0
LINE
8
BLACK
6
CONTINUOUS
10
0.6899824803149606
20
0.848085
11
0.6897862598425196
21
0.8508287795275591
0
LINE
8
BLACK
6
CONTINUOUS
10
0.6897862598425196
20
0.8508287795275591
11
0.6911045669291338
21
0.8532430708661417
0
LINE
8
BLACK
6
CONTINUOUS
10
0.6911045669291338
20
0.8532430708661417
11
0.6916303543307086
21
0.8536987007874015
0
LINE
8
BLACK
6
CONTINUOUS
10
0.6916303543307086
20
0.8536987007874015
11
0.6943016535433071
21
0.8556983858267716
0
LINE
8
BLACK
6
CONTINUOUS
10
0.6943016535433071
20
0.8556983858267716
11
0.6977515748031496
21
0.8603069291338582
0
LINE
8
BLACK
6
CONTINUOUS
10
0.6977515748031496
20
0.8603069291338582
11
0.6997633858267717
21
0.865700748031496
0
LINE
8
BLACK
6
CONTINUOUS
10
0.6997633858267717
20
0.865700748031496
11
0.6998238976377953
21
0.8662637007874016
0
LINE
8
BLACK
6
CONTINUOUS
10
0.6998238976377953
20
0.8662637007874016
11
0.6998775196850393
21
0.866762125984252
0
LINE
8
BLACK
6
CONTINUOUS
10
0.6998775196850393
20
0.866762125984252
11
0.7009302362204725
21
0.8693034645669291
0
LINE
8
BLACK
6
CONTINUOUS
10
0.7009302362204725
20
0.8693034645669291
11
0.703189842519685
21
0.8708722440944882
0
LINE
8
BLACK
6
CONTINUOUS
10
0.703189842519685
20
0.8708722440944882
11
0.7047314173228346
21
0.8711220472440945
0
LINE
8
BLACK
6
CONTINUOUS
10
0.7047314173228346
20
0.8711220472440945
11
0.8300224803149606
21
0.8711220472440945
0
LINE
8
BLACK
6
CONTINUOUS
10
0.8300224803149606
20
0.8711220472440945
11
0.832661811023622
21
0.8703470472440945
0
LINE
8
BLACK
6
CONTINUOUS
10
0.832661811023622
20
0.8703470472440945
11
0.8336503937007874
21
0.869506811023622
0
LINE
8
BLACK
6
CONTINUOUS
10
0.8336503937007874
20
0.869506811023622
11
0.8342667322834646
21
0.8688222834645669
0
LINE
8
BLACK
6
CONTINUOUS
10
0.8342667322834646
20
0.8688222834645669
11
0.8403494488188976
21
0.8644029133858268
0
LINE
8
BLACK
6
CONTINUOUS
10
0.8403494488188976
20
0.8644029133858268
11
0.8472181102362204
21
0.8613448031496063
0
LINE
8
BLACK
6
CONTINUOUS
10
0.8472181102362204
20
0.8613448031496063
11
0.8545724803149606
21
0.8597815748031495
0
LINE
8
BLACK
6
CONTINUOUS
10
0.8545724803149606
20
0.8597815748031495
11
0.8620911417322834
21
0.8597815748031495
0
LINE
8
BLACK
6
CONTINUOUS
10
0.8620911417322834
20
0.8597815748031495
11
0.8694455118110236
21
0.8613448031496063
0
LINE
8
BLACK
6
CONTINUOUS
10
0.8694455118110236
20
0.8613448031496063
11
0.8763141732283465
21
0.8644029133858268
0
LINE
8
BLACK
6
CONTINUOUS
10
0.8763141732283465
20
0.8644029133858268
11
0.8823968897637795
21
0.8688222834645669
0
LINE
8
BLACK
6
CONTINUOUS
10
0.8823968897637795
20
0.8688222834645669
11
0.887427874015748
21
0.8744097637795275
0
LINE
8
BLACK
6
CONTINUOUS
10
0.887427874015748
20
0.8744097637795275
11
0.8911872047244094
21
0.8809211023622047
0
LINE
8
BLACK
6
CONTINUOUS
10
0.8911872047244094
20
0.8809211023622047
11
0.8935106299212598
21
0.888071811023622
0
LINE
8
BLACK
6
CONTINUOUS
10
0.8935106299212598
20
0.888071811023622
11
0.8942965354330709
21
0.8955492913385826
0
LINE
8
BLACK
6
CONTINUOUS
10
0.8942965354330709
20
0.8955492913385826
11
0.8935106299212598
21
0.9030267716535433
0
LINE
8
BLACK
6
CONTINUOUS
10
0.8935106299212598
20
0.9030267716535433
11
0.8911872047244094
21
0.9101774803149606
0
LINE
8
BLACK
6
CONTINUOUS
10
0.8911872047244094
20
0.9101774803149606
11
0.887427874015748
21
0.9166888188976378
0
LINE
8
BLACK
6
CONTINUOUS
10
0.887427874015748
20
0.9166888188976378
11
0.8823968897637795
21
0.9222762992125983
0
LINE
8
BLACK
6
CONTINUOUS
10
0.8823968897637795
20
0.9222762992125983
11
0.8763141732283465
21
0.9266956692913385
0
LINE
8
BLACK
6
CONTINUOUS
10
0.8763141732283465
20
0.9266956692913385
11
0.8694455118110236
21
0.929753779527559
0
LINE
8
BLACK
6
CONTINUOUS
10
0.8694455118110236
20
0.929753779527559
11
0.8694454330708661
21
0.9297538188976378
0
LINE
8
BLACK
6
CONTINUOUS
10
0.8694454330708661
20
0.9297538188976378
11
0.8620911417322834
21
0.9313170078740157
0
LINE
8
BLACK
6
CONTINUOUS
10
0.8620911417322834
20
0.9313170078740157
11
0.8545724803149606
21
0.9313170078740157
0
LINE
8
BLACK
6
CONTINUOUS
10
0.8545724803149606
20
0.9313170078740157
11
0.852598937007874
21
0.9308975590551181
0
LINE
8
BLACK
6
CONTINUOUS
10
0.852598937007874
20
0.9308975590551181
11
0.8498561811023622
21
0.9311068503937008
0
LINE
8
BLACK
6
CONTINUOUS
10
0.8498561811023622
20
0.9311068503937008
11
0.8476619685039369
21
0.9327658267716535
0
LINE
8
BLACK
6
CONTINUOUS
10
0.8476619685039369
20
0.9327658267716535
11
0.8467129527559055
21
0.935347716535433
0
LINE
8
BLACK
6
CONTINUOUS
10
0.8467129527559055
20
0.935347716535433
11
0.8467288188976377
21
0.9361825196850393
0
LINE
8
BLACK
6
CONTINUOUS
10
0.8467288188976377
20
0.9361825196850393
11
0.8471300787401574
21
0.9399999999999999
0
LINE
8
BLACK
6
CONTINUOUS
10
0.8471300787401574
20
0.9399999999999999
11
0.8463441732283464
21
0.9474774803149606
0
LINE
8
BLACK
6
CONTINUOUS
10
0.8463441732283464
20
0.9474774803149606
11
0.8440207480314961
21
0.9546281889763779
0
LINE
8
BLACK
6
CONTINUOUS
10
0.8440207480314961
20
0.9546281889763779
11
0.8410703937007874
21
0.9597383464566929
0
LINE
8
BLACK
6
CONTINUOUS
10
0.8410703937007874
20
0.9597383464566929
11
0.8406973622047244
21
0.9603844881889764
0
LINE
8
BLACK
6
CONTINUOUS
10
0.8406973622047244
20
0.9603844881889764
11
0.8400433070866141
21
0.9628254330708661
0
LINE
8
BLACK
6
CONTINUOUS
10
0.8400433070866141
20
0.9628254330708661
11
0.8400433070866141
21
0.9963757086614173
0
LINE
8
BLACK
6
CONTINUOUS
10
0.8400433070866141
20
0.9963757086614173
11
0.840094842519685
21
0.9970832283464567
0
LINE
8
BLACK
6
CONTINUOUS
10
0.840094842519685
20
0.9970832283464567
11
0.8402275984251968
21
0.9979894881889764
0
LINE
8
BLACK
6
CONTINUOUS
10
0.8402275984251968
20
0.9979894881889764
11
0.8400618897637795
21
0.9998836220472441
0
LINE
8
BLACK
6
CONTINUOUS
10
0.8400618897637795
20
0.9998836220472441
11
0.8400433070866141
21
1.0003091338582677
0
LINE
8
BLACK
6
CONTINUOUS
10
0.8400433070866141
20
1.0003091338582677
11
0.8400433070866141
21
1.0005167716535432
0
LINE
8
BLACK
6
CONTINUOUS
10
0.8400433070866141
20
1.0005167716535432
11
0.8400433070866141
21
1.0005169291338583
0
LINE
8
BLACK
6
CONTINUOUS
10
0.8400433070866141
20
1.0005169291338583
11
0.8399048031496062
21
1.0017015354330709
0
LINE
8
BLACK
6
CONTINUOUS
10
0.8399048031496062
20
1.0017015354330709
11
0.8398906299212598
21
1.0018405905511811
0
LINE
8
BLACK
6
CONTINUOUS
10
0.8398906299212598
20
1.0018405905511811
11
0.8396392519685039
21
1.004714409448819
0
LINE
8
BLACK
6
CONTINUOUS
10
0.8396392519685039
20
1.004714409448819
11
0.8395817322834646
21
1.0049931102362204
0
LINE
8
BLACK
6
CONTINUOUS
10
0.8395817322834646
20
1.0049931102362204
11
0.839585
21
1.0049938188976377
0
LINE
8
BLACK
6
CONTINUOUS
10
0.839585
20
1.0049938188976377
11
0.839525
21
1.0052644488188975
0
LINE
8
BLACK
6
CONTINUOUS
10
0.839525
20
1.0052644488188975
11
0.8395216929133859
21
1.0052636220472442
0
LINE
8
BLACK
6
CONTINUOUS
10
0.8395216929133859
20
1.0052636220472442
11
0.8394561811023622
21
1.0055399212598426
0
LINE
8
BLACK
6
CONTINUOUS
10
0.8394561811023622
20
1.0055399212598426
11
0.8394561811023622
21
1.0055401574803149
0
LINE
8
BLACK
6
CONTINUOUS
10
0.8394561811023622
20
1.0055401574803149
11
0.8384692125984252
21
1.0082516929133858
0
LINE
8
BLACK
6
CONTINUOUS
10
0.8384692125984252
20
1.0082516929133858
11
0.8384231496062992
21
1.0083842913385828
0
LINE
8
BLACK
6
CONTINUOUS
10
0.8384231496062992
20
1.0083842913385828
11
0.8375158267716535
21
1.0111224803149605
0
LINE
8
BLACK
6
CONTINUOUS
10
0.8375158267716535
20
1.0111224803149605
11
0.8373956692913386
21
1.0113801181102362
0
LINE
8
BLACK
6
CONTINUOUS
10
0.8373956692913386
20
1.0113801181102362
11
0.8373987401574803
21
1.0113815748031496
0
LINE
8
BLACK
6
CONTINUOUS
10
0.8373987401574803
20
1.0113815748031496
11
0.8372780708661417
21
1.0116308661417324
0
LINE
8
BLACK
6
CONTINUOUS
10
0.8372780708661417
20
1.0116308661417324
11
0.8372750787401575
21
1.0116293307086615
0
LINE
8
BLACK
6
CONTINUOUS
10
0.8372750787401575
20
1.0116293307086615
11
0.8371473622047244
21
1.0118835826771653
0
LINE
8
BLACK
6
CONTINUOUS
10
0.8371473622047244
20
1.0118835826771653
11
0.8371472834645669
21
1.0118836614173228
0
LINE
8
BLACK
6
CONTINUOUS
10
0.8371472834645669
20
1.0118836614173228
11
0.8371472834645669
21
1.0118837401574803
0
LINE
8
BLACK
6
CONTINUOUS
10
0.8371472834645669
20
1.0118837401574803
11
0.8363951574803149
21
1.0130272834645668
0
LINE
8
BLACK
6
CONTINUOUS
10
0.8363951574803149
20
1.0130272834645668
11
0.8355623622047244
21
1.0142935433070865
0
LINE
8
BLACK
6
CONTINUOUS
10
0.8355623622047244
20
1.0142935433070865
11
0.8354860629921259
21
1.0144133070866141
0
LINE
8
BLACK
6
CONTINUOUS
10
0.8354860629921259
20
1.0144133070866141
11
0.8339718897637796
21
1.016868188976378
0
LINE
8
BLACK
6
CONTINUOUS
10
0.8339718897637796
20
1.016868188976378
11
0.8337955905511811
21
1.0170911417322834
0
LINE
8
BLACK
6
CONTINUOUS
10
0.8337955905511811
20
1.0170911417322834
11
0.8337981889763779
21
1.0170932283464567
0
LINE
8
BLACK
6
CONTINUOUS
10
0.8337981889763779
20
1.0170932283464567
11
0.8336229921259842
21
1.0173083070866142
0
LINE
8
BLACK
6
CONTINUOUS
10
0.8336229921259842
20
1.0173083070866142
11
0.8336204330708661
21
1.0173061023622048
0
LINE
8
BLACK
6
CONTINUOUS
10
0.8336204330708661
20
1.0173061023622048
11
0.8334375984251968
21
1.0175239763779527
0
LINE
8
BLACK
6
CONTINUOUS
10
0.8334375984251968
20
1.0175239763779527
11
0.8313407874015748
21
1.0195022047244093
0
LINE
8
BLACK
6
CONTINUOUS
10
0.8313407874015748
20
1.0195022047244093
11
0.8312388976377952
21
1.0196011811023622
0
LINE
8
BLACK
6
CONTINUOUS
10
0.8312388976377952
20
1.0196011811023622
11
0.7603076771653543
21
1.090532401574803
0
LINE
8
BLACK
6
CONTINUOUS
10
0.7603076771653543
20
1.090532401574803
11
0.7589893700787401
21
1.0929466929133858
0
LINE
8
BLACK
6
CONTINUOUS
10
0.7589893700787401
20
1.0929466929133858
11
0.7588777952755905
21
1.0939844094488189
0
LINE
8
BLACK
6
CONTINUOUS
10
0.7588777952755905
20
1.0939844094488189
11
0.7588777952755905
21
1.2271744488188976
0
LINE
8
BLACK
6
CONTINUOUS
10
0.7588777952755905
20
1.2271744488188976
11
0.7595318503937007
21
1.2296153937007874
0
LINE
8
BLACK
6
CONTINUOUS
10
0.7595318503937007
20
1.2296153937007874
11
0.7628552362204725
21
1.235371653543307
0
LINE
8
BLACK
6
CONTINUOUS
10
0.7628552362204725
20
1.235371653543307
11
0.7651786614173228
21
1.2425223622047243
0
LINE
8
BLACK
6
CONTINUOUS
10
0.7651786614173228
20
1.2425223622047243
11
0.7659645669291338
21
1.249999842519685
0
LINE
8
BLACK
6
CONTINUOUS
10
0.7659645669291338
20
1.249999842519685
11
0.7651786614173228
21
1.2574773228346456
0
LINE
8
BLACK
6
CONTINUOUS
10
0.7651786614173228
20
1.2574773228346456
11
0.7628552362204725
21
1.264628031496063
0
LINE
8
BLACK
6
CONTINUOUS
10
0.7628552362204725
20
1.264628031496063
11
0.7590959055118111
21
1.2711393700787401
0
LINE
8
BLACK
6
CONTINUOUS
10
0.7590959055118111
20
1.2711393700787401
11
0.7540649212598425
21
1.2767268503937008
0
LINE
8
BLACK
6
CONTINUOUS
10
0.7540649212598425
20
1.2767268503937008
11
0.7479822047244095
21
1.2811462204724409
0
LINE
8
BLACK
6
CONTINUOUS
10
0.7479822047244095
20
1.2811462204724409
11
0.7411135433070866
21
1.2842043307086615
0
LINE
8
BLACK
6
CONTINUOUS
10
0.7411135433070866
20
1.2842043307086615
11
0.7411134645669292
21
1.2842043700787402
0
LINE
8
BLACK
6
CONTINUOUS
10
0.7411134645669292
20
1.2842043700787402
11
0.7337591732283465
21
1.2857675590551181
0
LINE
8
BLACK
6
CONTINUOUS
10
0.7337591732283465
20
1.2857675590551181
11
0.7262405118110236
21
1.2857675590551181
0
LINE
8
BLACK
6
CONTINUOUS
10
0.7262405118110236
20
1.2857675590551181
11
0.7188862204724409
21
1.2842043700787402
0
LINE
8
BLACK
6
CONTINUOUS
10
0.7188862204724409
20
1.2842043700787402
11
0.7120174015748031
21
1.2811461811023621
0
LINE
8
BLACK
6
CONTINUOUS
10
0.7120174015748031
20
1.2811461811023621
11
0.7059346850393701
21
1.2767268110236221
0
LINE
8
BLACK
6
CONTINUOUS
10
0.7059346850393701
20
1.2767268110236221
11
0.7009037401574802
21
1.2711393307086614
0
LINE
8
BLACK
6
CONTINUOUS
10
0.7009037401574802
20
1.2711393307086614
11
0.6971444488188976
21
1.2646280708661417
0
LINE
8
BLACK
6
CONTINUOUS
10
0.6971444488188976
20
1.2646280708661417
11
0.6971443307086614
21
1.2646277952755904
0
LINE
8
BLACK
6
CONTINUOUS
10
0.6971443307086614
20
1.2646277952755904
11
0.694821062992126
21
1.2574774803149606
0
LINE
8
BLACK
6
CONTINUOUS
10
0.694821062992126
20
1.2574774803149606
11
0.6948210236220472
21
1.2574773228346456
0
LINE
8
BLACK
6
CONTINUOUS
10
0.6948210236220472
20
1.2574773228346456
11
0.6942663385826772
21
1.25219968503937
0
LINE
8
BLACK
6
CONTINUOUS
10
0.6942663385826772
20
1.25219968503937
11
0.69321968503937
21
1.2496558267716535
0
LINE
8
BLACK
6
CONTINUOUS
10
0.69321968503937
20
1.2496558267716535
11
0.6909638976377953
21
1.2480816141732283
0
LINE
8
BLACK
6
CONTINUOUS
10
0.6909638976377953
20
1.2480816141732283
11
0.6882151181102362
21
1.2479768897637795
0
LINE
8
BLACK
6
CONTINUOUS
10
0.6882151181102362
20
1.2479768897637795
11
0.6877051574803149
21
1.2481359055118111
0
LINE
8
BLACK
6
CONTINUOUS
10
0.6877051574803149
20
1.2481359055118111
11
0.6842275984251969
21
1.2494329527559054
0
LINE
8
BLACK
6
CONTINUOUS
10
0.6842275984251969
20
1.2494329527559054
11
0.684227283464567
21
1.2494330314960629
0
LINE
8
BLACK
6
CONTINUOUS
10
0.684227283464567
20
1.2494330314960629
11
0.6818836614173228
21
1.2496850393700787
0
LINE
8
BLACK
6
CONTINUOUS
10
0.6818836614173228
20
1.2496850393700787
11
0.6598425590551181
21
1.2496850393700787
0
LINE
8
BLACK
6
CONTINUOUS
10
0.6598425590551181
20
1.2496850393700787
11
0.6598425590551181
21
1.23
0
LINE
8
BLACK
6
CONTINUOUS
10
0.6598425590551181
20
1.23
11
0.6800000393700787
21
1.23
0
LINE
8
BLACK
6
CONTINUOUS
10
0.6800000393700787
20
1.23
11
0.6800000393700787
21
1.1699999999999999
0
LINE
8
BLACK
6
CONTINUOUS
10
0.6800000393700787
20
1.1699999999999999
11
0.6200000393700787
21
1.1699999999999999
0
LINE
8
BLACK
6
CONTINUOUS
10
0.6200000393700787
20
1.1699999999999999
11
0.6200000393700787
21
1.1901574803149606
0
LINE
8
BLACK
6
CONTINUOUS
10
0.6200000393700787
20
1.1901574803149606
11
0.5800000393700787
21
1.1901574803149606
0
LINE
8
BLACK
6
CONTINUOUS
10
0.5800000393700787
20
1.1901574803149606
11
0.5800000393700787
21
1.1699999999999999
0
LINE
8
BLACK
6
CONTINUOUS
10
0.5800000393700787
20
1.1699999999999999
11
0.5200000393700788
21
1.1699999999999999
0
LINE
8
BLACK
6
CONTINUOUS
10
0.5200000393700788
20
1.1699999999999999
11
0.5200000393700788
21
1.1901574803149606
0
LINE
8
BLACK
6
CONTINUOUS
10
0.5200000393700788
20
1.1901574803149606
11
0.500315
21
1.1901574803149606
0
LINE
8
BLACK
6
CONTINUOUS
10
0.500315
20
1.1901574803149606
11
0.500315
21
1.1681163779527559
0
LINE
8
BLACK
6
CONTINUOUS
10
0.500315
20
1.1681163779527559
11
0.5005670078740158
21
1.1657727559055118
0
LINE
8
BLACK
6
CONTINUOUS
10
0.5005670078740158
20
1.1657727559055118
11
0.5005670866141733
21
1.1657724803149605
0
LINE
8
BLACK
6
CONTINUOUS
10
0.5005670866141733
20
1.1657724803149605
11
0.5025451181102362
21
1.1604690551181103
0
LINE
8
BLACK
6
CONTINUOUS
10
0.5025451181102362
20
1.1604690551181103
11
0.5025452755905512
21
1.160468779527559
0
LINE
8
BLACK
6
CONTINUOUS
10
0.5025452755905512
20
1.160468779527559
11
0.5059374015748032
21
1.1559375590551182
0
LINE
8
BLACK
6
CONTINUOUS
10
0.5059374015748032
20
1.1559375590551182
11
0.508369094488189
21
1.1541171653543307
0
LINE
8
BLACK
6
CONTINUOUS
10
0.508369094488189
20
1.1541171653543307
11
0.5100175590551181
21
1.1519150393700788
0
LINE
8
BLACK
6
CONTINUOUS
10
0.5100175590551181
20
1.1519150393700788
11
0.5102137795275591
21
1.1491712598425197
0
LINE
8
BLACK
6
CONTINUOUS
10
0.5102137795275591
20
1.1491712598425197
11
0.5088954724409449
21
1.1467569685039369
0
LINE
8
BLACK
6
CONTINUOUS
10
0.5088954724409449
20
1.1467569685039369
11
0.508369094488189
21
1.146300905511811
0
LINE
8
BLACK
6
CONTINUOUS
10
0.508369094488189
20
1.146300905511811
11
0.5056985039370079
21
1.1443016929133858
0
LINE
8
BLACK
6
CONTINUOUS
10
0.5056985039370079
20
1.1443016929133858
11
0.5056984645669291
21
1.144301653543307
0
LINE
8
BLACK
6
CONTINUOUS
10
0.5056984645669291
20
1.144301653543307
11
0.5056984251968504
21
1.1443016141732283
0
LINE
8
BLACK
6
CONTINUOUS
10
0.5056984251968504
20
1.1443016141732283
11
0.5056983858267716
21
1.1443015354330708
0
LINE
8
BLACK
6
CONTINUOUS
10
0.5056983858267716
20
1.1443015354330708
11
0.5022485039370078
21
1.1396931102362204
0
LINE
8
BLACK
6
CONTINUOUS
10
0.5022485039370078
20
1.1396931102362204
11
0.5002366929133858
21
1.1342994094488188
0
LINE
8
BLACK
6
CONTINUOUS
10
0.5002366929133858
20
1.1342994094488188
11
0.5002366929133858
21
1.1342993307086613
0
LINE
8
BLACK
6
CONTINUOUS
10
0.5002366929133858
20
1.1342993307086613
11
0.4999803543307086
21
1.1319155511811023
0
LINE
8
BLACK
6
CONTINUOUS
10
0.4999803543307086
20
1.1319155511811023
11
0.4999803543307086
21
1.0680844881889764
0
LINE
8
BLACK
6
CONTINUOUS
10
0.4999803543307086
20
1.0680844881889764
11
0.5002366929133858
21
1.0657007086614172
0
LINE
8
BLACK
6
CONTINUOUS
10
0.5002366929133858
20
1.0657007086614172
11
0.5002366929133858
21
1.0657006299212599
0
LINE
8
BLACK
6
CONTINUOUS
10
0.5002366929133858
20
1.0657006299212599
11
0.5010336220472441
21
1.063564094488189
0
LINE
8
BLACK
6
CONTINUOUS
10
0.5010336220472441
20
1.063564094488189
11
0.5022485039370078
21
1.0603069291338583
0
LINE
8
BLACK
6
CONTINUOUS
10
0.5022485039370078
20
1.0603069291338583
11
0.5056984251968504
21
1.0556983858267717
0
LINE
8
BLACK
6
CONTINUOUS
10
0.5056984251968504
20
1.0556983858267717
11
0.5056984645669291
21
1.0556983858267717
0
LINE
8
BLACK
6
CONTINUOUS
10
0.5056984645669291
20
1.0556983858267717
11
0.5056985039370079
21
1.0556983070866142
0
LINE
8
BLACK
6
CONTINUOUS
10
0.5056985039370079
20
1.0556983070866142
11
0.5080898818897638
21
1.0539081102362204
0
LINE
8
BLACK
6
CONTINUOUS
10
0.5080898818897638
20
1.0539081102362204
11
0.5097383464566929
21
1.0517059842519685
0
LINE
8
BLACK
6
CONTINUOUS
10
0.5097383464566929
20
1.0517059842519685
11
0.5099345669291339
21
1.0489622440944881
0
LINE
8
BLACK
6
CONTINUOUS
10
0.5099345669291339
20
1.0489622440944881
11
0.5086162204724409
21
1.0465479527559054
0
LINE
8
BLACK
6
CONTINUOUS
10
0.5086162204724409
20
1.0465479527559054
11
0.5080898818897638
21
1.0460918897637794
0
LINE
8
BLACK
6
CONTINUOUS
10
0.5080898818897638
20
1.0460918897637794
11
0.5056984645669291
21
1.0443016929133857
0
LINE
8
BLACK
6
CONTINUOUS
10
0.5056984645669291
20
1.0443016929133857
11
0.5056984251968504
21
1.0443016535433072
0
LINE
8
BLACK
6
CONTINUOUS
10
0.5056984251968504
20
1.0443016535433072
11
0.5051529133858268
21
1.0435729527559054
0
LINE
8
BLACK
6
CONTINUOUS
10
0.5051529133858268
20
1.0435729527559054
11
0.5029507086614173
21
1.0419245669291339
0
LINE
8
BLACK
6
CONTINUOUS
10
0.5029507086614173
20
1.0419245669291339
11
0.5002069291338582
21
1.0417284645669291
0
LINE
8
BLACK
6
CONTINUOUS
10
0.5002069291338582
20
1.0417284645669291
11
0.497792874015748
21
1.0430467322834645
0
LINE
8
BLACK
6
CONTINUOUS
10
0.497792874015748
20
1.0430467322834645
11
0.4366146062992126
21
1.104225
0
LINE
8
BLACK
6
CONTINUOUS
10
0.4366146062992126
20
1.104225
11
0.4352962992125984
21
1.1066392913385827
0
LINE
8
BLACK
6
CONTINUOUS
10
0.4352962992125984
20
1.1066392913385827
11
0.4352114566929134
21
1.1071670078740157
0
LINE
8
BLACK
6
CONTINUOUS
10
0.4352114566929134
20
1.1071670078740157
11
0.4351788188976378
21
1.1074774015748032
0
LINE
8
BLACK
6
CONTINUOUS
10
0.4351788188976378
20
1.1074774015748032
11
0.4351788188976378
21
1.1074774803149605
0
LINE
8
BLACK
6
CONTINUOUS
10
0.4351788188976378
20
1.1074774803149605
11
0.4328553937007874
21
1.1146281889763778
0
LINE
8
BLACK
6
CONTINUOUS
10
0.4328553937007874
20
1.1146281889763778
11
0.429096062992126
21
1.121139527559055
0
LINE
8
BLACK
6
CONTINUOUS
10
0.429096062992126
20
1.121139527559055
11
0.4240650787401575
21
1.1267270078740157
0
LINE
8
BLACK
6
CONTINUOUS
10
0.4240650787401575
20
1.1267270078740157
11
0.4179823622047244
21
1.131146377952756
0
LINE
8
BLACK
6
CONTINUOUS
10
0.4179823622047244
20
1.131146377952756
11
0.4111137007874016
21
1.1342044881889763
0
LINE
8
BLACK
6
CONTINUOUS
10
0.4111137007874016
20
1.1342044881889763
11
0.4111136220472441
21
1.1342045275590551
0
LINE
8
BLACK
6
CONTINUOUS
10
0.4111136220472441
20
1.1342045275590551
11
0.4037593307086614
21
1.135767716535433
0
LINE
8
BLACK
6
CONTINUOUS
10
0.4037593307086614
20
1.135767716535433
11
0.3962406692913386
21
1.135767716535433
0
LINE
8
BLACK
6
CONTINUOUS
10
0.3962406692913386
20
1.135767716535433
11
0.3888863779527559
21
1.1342045275590551
0
LINE
8
BLACK
6
CONTINUOUS
10
0.3888863779527559
20
1.1342045275590551
11
0.3820175590551181
21
1.1311463385826772
0
LINE
8
BLACK
6
CONTINUOUS
10
0.3820175590551181
20
1.1311463385826772
11
0.375934842519685
21
1.1267269685039369
0
LINE
8
BLACK
6
CONTINUOUS
10
0.375934842519685
20
1.1267269685039369
11
0.3709038976377952
21
1.1211394881889765
0
LINE
8
BLACK
6
CONTINUOUS
10
0.3709038976377952
20
1.1211394881889765
11
0.3671446062992126
21
1.1146282283464566
0
LINE
8
BLACK
6
CONTINUOUS
10
0.3671446062992126
20
1.1146282283464566
11
0.3671444881889764
21
1.1146279527559055
0
LINE
8
BLACK
6
CONTINUOUS
10
0.3671444881889764
20
1.1146279527559055
11
0.3648212204724409
21
1.1074776377952755
0
LINE
8
BLACK
6
CONTINUOUS
10
0.3648212204724409
20
1.1074776377952755
11
0.3648211811023622
21
1.1074774803149605
0
LINE
8
BLACK
6
CONTINUOUS
10
0.3648211811023622
20
1.1074774803149605
11
0.3640352755905512
21
1.0999999999999999
0
LINE
8
BLACK
6
CONTINUOUS
10
0.3640352755905512
20
1.0999999999999999
11
0.3648211811023622
21
1.0925225196850394
0
LINE
8
BLACK
6
CONTINUOUS
10
0.3648211811023622
20
1.0925225196850394
11
0.3648212204724409
21
1.0925224015748032
0
LINE
8
BLACK
6
CONTINUOUS
10
0.3648212204724409
20
1.0925224015748032
11
0.3671444881889764
21
1.0853720866141732
0
LINE
8
BLACK
6
CONTINUOUS
10
0.3671444881889764
20
1.0853720866141732
11
0.3671446062992126
21
1.0853718110236221
0
LINE
8
BLACK
6
CONTINUOUS
10
0.3671446062992126
20
1.0853718110236221
11
0.370903937007874
21
1.078860472440945
0
LINE
8
BLACK
6
CONTINUOUS
10
0.370903937007874
20
1.078860472440945
11
0.3759349212598425
21
1.0732729921259843
0
LINE
8
BLACK
6
CONTINUOUS
10
0.3759349212598425
20
1.0732729921259843
11
0.3820176377952756
21
1.068853622047244
0
LINE
8
BLACK
6
CONTINUOUS
10
0.3820176377952756
20
1.068853622047244
11
0.3888862992125984
21
1.0657955118110236
0
LINE
8
BLACK
6
CONTINUOUS
10
0.3888862992125984
20
1.0657955118110236
11
0.3931592519685039
21
1.0648872834645668
0
LINE
8
BLACK
6
CONTINUOUS
10
0.3931592519685039
20
1.0648872834645668
11
0.3955798031496063
21
1.0635805118110235
0
LINE
8
BLACK
6
CONTINUOUS
10
0.3955798031496063
20
1.0635805118110235
11
0.3955962992125984
21
1.063564094488189
0
LINE
8
BLACK
6
CONTINUOUS
10
0.3955962992125984
20
1.063564094488189
11
0.4719485433070866
21
0.9872118503937007
0
LINE
8
BLACK
6
CONTINUOUS
10
0.4719485433070866
20
0.9872118503937007
11
0.4732668503937008
21
0.9847975590551181
0
LINE
8
BLACK
6
CONTINUOUS
10
0.4732668503937008
20
0.9847975590551181
11
0.4730706299212598
21
0.982053779527559
0
LINE
8
BLACK
6
CONTINUOUS
10
0.4730706299212598
20
0.982053779527559
11
0.471422125984252
21
0.9798516929133858
0
LINE
8
BLACK
6
CONTINUOUS
10
0.471422125984252
20
0.9798516929133858
11
0.4688448031496063
21
0.9788903937007873
0
LINE
8
BLACK
6
CONTINUOUS
10
0.4688448031496063
20
0.9788903937007873
11
0.4684965354330708
21
0.9788779527559055
0
LINE
8
BLACK
6
CONTINUOUS
10
0.4684965354330708
20
0.9788779527559055
11
0.3976905905511811
21
0.9788779527559055
0
LINE
8
BLACK
6
CONTINUOUS
10
0.3976905905511811
20
0.9788779527559055
11
0.3950512598425197
21
0.9796529527559055
0
LINE
8
BLACK
6
CONTINUOUS
10
0.3950512598425197
20
0.9796529527559055
11
0.394821062992126
21
0.9798103149606299
0
LINE
8
BLACK
6
CONTINUOUS
10
0.394821062992126
20
0.9798103149606299
11
0.3947640944881889
21
0.9798516929133858
0
LINE
8
BLACK
6
CONTINUOUS
10
0.3947640944881889
20
0.9798516929133858
11
0.3941151181102362
21
0.9803232283464567
0
LINE
8
BLACK
6
CONTINUOUS
10
0.3941151181102362
20
0.9803232283464567
11
0.3929822834645669
21
0.9811462992125984
0
LINE
8
BLACK
6
CONTINUOUS
10
0.3929822834645669
20
0.9811462992125984
11
0.387708937007874
21
0.9834940944881889
0
LINE
8
BLACK
6
CONTINUOUS
10
0.387708937007874
20
0.9834940944881889
11
0.3861137007874016
21
0.9842043307086614
0
LINE
8
BLACK
6
CONTINUOUS
10
0.3861137007874016
20
0.9842043307086614
11
0.3861136220472441
21
0.9842043700787402
0
LINE
8
BLACK
6
CONTINUOUS
10
0.3861136220472441
20
0.9842043700787402
11
0.3787593307086614
21
0.985767559055118
0
LINE
8
BLACK
6
CONTINUOUS
10
0.3787593307086614
20
0.985767559055118
11
0.3712406692913386
21
0.985767559055118
0
LINE
8
BLACK
6
CONTINUOUS
10
0.3712406692913386
20
0.985767559055118
11
0.3638863779527559
21
0.9842043700787402
0
LINE
8
BLACK
6
CONTINUOUS
10
0.3638863779527559
20
0.9842043700787402
11
0.3638862992125984
21
0.9842043307086614
0
LINE
8
BLACK
6
CONTINUOUS
10
0.3638862992125984
20
0.9842043307086614
11
0.3570178346456693
21
0.9811462992125984
0
LINE
8
BLACK
6
CONTINUOUS
10
0.3570178346456693
20
0.9811462992125984
11
0.3570175590551181
21
0.9811461811023622
0
LINE
8
BLACK
6
CONTINUOUS
10
0.3570175590551181
20
0.9811461811023622
11
0.350934842519685
21
0.976726811023622
0
LINE
8
BLACK
6
CONTINUOUS
10
0.350934842519685
20
0.976726811023622
11
0.3459038976377953
21
0.9711393307086614
0
LINE
8
BLACK
6
CONTINUOUS
10
0.3459038976377953
20
0.9711393307086614
11
0.3421446062992126
21
0.9646280708661417
0
LINE
8
BLACK
6
CONTINUOUS
10
0.3421446062992126
20
0.9646280708661417
11
0.3421444881889764
21
0.9646277952755905
0
LINE
8
BLACK
6
CONTINUOUS
10
0.3421444881889764
20
0.9646277952755905
11
0.3400201968503937
21
0.9580898818897637
0
LINE
8
BLACK
6
CONTINUOUS
10
0.3400201968503937
20
0.9580898818897637
11
0.3398211811023622
21
0.9574773228346456
0
LINE
8
BLACK
6
CONTINUOUS
10
0.3398211811023622
20
0.9574773228346456
11
0.3390352755905512
21
0.9499998425196851
0
LINE
8
BLACK
6
CONTINUOUS
10
0.3390352755905512
20
0.9499998425196851
11
0.3398211811023622
21
0.9425223622047244
0
LINE
8
BLACK
6
CONTINUOUS
10
0.5598425590551181
20
1.23
11
0.5800000393700787
21
1.23
0
LINE
8
BLACK
6
CONTINUOUS
10
0.5800000393700787
20
1.23
11
0.5800000393700787
21
1.2098425196850393
0
LINE
8
BLACK
6
CONTINUOUS
10
0.5800000393700787
20
1.2098425196850393
11
0.6200000393700787
21
1.2098425196850393
0
LINE
8
BLACK
6
CONTINUOUS
10
0.6200000393700787
20
1.2098425196850393
11
0.6200000393700787
21
1.23
0
LINE
8
BLACK
6
CONTINUOUS
10
0.6200000393700787
20
1.23
11
0.6401575196850393
21
1.23
0
LINE
8
BLACK
6
CONTINUOUS
10
0.6401575196850393
20
1.23
11
0.6401575196850393
21
1.2496850393700787
0
LINE
8
BLACK
6
CONTINUOUS
10
0.6401575196850393
20
1.2496850393700787
11
0.6181163779527559
21
1.2496850393700787
0
LINE
8
BLACK
6
CONTINUOUS
10
0.6181163779527559
20
1.2496850393700787
11
0.6157727559055118
21
1.2494330314960629
0
LINE
8
BLACK
6
CONTINUOUS
10
0.6157727559055118
20
1.2494330314960629
11
0.6157724803149606
21
1.2494329527559054
0
LINE
8
BLACK
6
CONTINUOUS
10
0.6157724803149606
20
1.2494329527559054
11
0.6104690551181102
21
1.2474549212598425
0
LINE
8
BLACK
6
CONTINUOUS
10
0.6104690551181102
20
1.2474549212598425
11
0.6104687795275591
21
1.2474547637795275
0
LINE
8
BLACK
6
CONTINUOUS
10
0.6104687795275591
20
1.2474547637795275
11
0.6059375196850394
21
1.2440626377952755
0
LINE
8
BLACK
6
CONTINUOUS
10
0.6059375196850394
20
1.2440626377952755
11
0.6039081496062992
21
1.2413517322834646
0
LINE
8
BLACK
6
CONTINUOUS
10
0.6039081496062992
20
1.2413517322834646
11
0.6017060236220473
21
1.2397033070866141
0
LINE
8
BLACK
6
CONTINUOUS
10
0.6017060236220473
20
1.2397033070866141
11
0.5989622834645669
21
1.2395070866141733
0
LINE
8
BLACK
6
CONTINUOUS
10
0.5989622834645669
20
1.2395070866141733
11
0.5965479921259842
21
1.2408254330708661
0
LINE
8
BLACK
6
CONTINUOUS
10
0.5965479921259842
20
1.2408254330708661
11
0.5960919291338582
21
1.2413517322834646
0
LINE
8
BLACK
6
CONTINUOUS
10
0.5960919291338582
20
1.2413517322834646
11
0.5940625196850393
21
1.2440626377952755
0
LINE
8
BLACK
6
CONTINUOUS
10
0.5940625196850393
20
1.2440626377952755
11
0.5895312598425196
21
1.2474547637795275
0
LINE
8
BLACK
6
CONTINUOUS
10
0.5895312598425196
20
1.2474547637795275
11
0.5895309842519685
21
1.2474549212598425
0
LINE
8
BLACK
6
CONTINUOUS
10
0.5895309842519685
20
1.2474549212598425
11
0.5842275590551181
21
1.2494329527559054
0
LINE
8
BLACK
6
CONTINUOUS
10
0.5842275590551181
20
1.2494329527559054
11
0.5842272834645669
21
1.2494330314960629
0
LINE
8
BLACK
6
CONTINUOUS
10
0.5842272834645669
20
1.2494330314960629
11
0.5818836614173228
21
1.2496850393700787
0
LINE
8
BLACK
6
CONTINUOUS
10
0.5818836614173228
20
1.2496850393700787
11
0.5598425590551181
21
1.2496850393700787
0
LINE
8
BLACK
6
CONTINUOUS
10
0.5598425590551181
20
1.2496850393700787
11
0.5598425590551181
21
1.23
0
LINE
8
BLACK
6
CONTINUOUS
10
0.5157727559055117
20
1.2494330314960629
11
0.5157724803149606
21
1.2494329527559054
0
LINE
8
BLACK
6
CONTINUOUS
10
0.5157724803149606
20
1.2494329527559054
11
0.5104690551181102
21
1.2474549212598425
0
LINE
8
BLACK
6
CONTINUOUS
10
0.5104690551181102
20
1.2474549212598425
11
0.5104687795275591
21
1.2474547637795275
0
LINE
8
BLACK
6
CONTINUOUS
10
0.5104687795275591
20
1.2474547637795275
11
0.5059375196850393
21
1.2440626377952755
0
LINE
8
BLACK
6
CONTINUOUS
10
0.5059375196850393
20
1.2440626377952755
11
0.5059374015748032
21
1.2440625196850394
0
LINE
8
BLACK
6
CONTINUOUS
10
0.5059374015748032
20
1.2440625196850394
11
0.5025452755905512
21
1.2395312598425197
0
LINE
8
BLACK
6
CONTINUOUS
10
0.5025452755905512
20
1.2395312598425197
11
0.5025451181102362
21
1.2395309842519684
0
LINE
8
BLACK
6
CONTINUOUS
10
0.5025451181102362
20
1.2395309842519684
11
0.5005670866141733
21
1.2342275590551182
0
LINE
8
BLACK
6
CONTINUOUS
10
0.5005670866141733
20
1.2342275590551182
11
0.5005670078740158
21
1.2342272834645669
0
LINE
8
BLACK
6
CONTINUOUS
10
0.5005670078740158
20
1.2342272834645669
11
0.500315
21
1.2318836614173228
0
LINE
8
BLACK
6
CONTINUOUS
10
0.500315
20
1.2318836614173228
11
0.500315
21
1.2098425196850393
0
LINE
8
BLACK
6
CONTINUOUS
10
0.500315
20
1.2098425196850393
11
0.5200000393700788
21
1.2098425196850393
0
LINE
8
BLACK
6
CONTINUOUS
10
0.5200000393700788
20
1.2098425196850393
11
0.5200000393700788
21
1.23
0
LINE
8
BLACK
6
CONTINUOUS
10
0.5200000393700788
20
1.23
11
0.5401575196850393
21
1.23
0
LINE
8
BLACK
6
CONTINUOUS
10
0.5401575196850393
20
1.23
11
0.5401575196850393
21
1.2496850393700787
0
LINE
8
BLACK
6
CONTINUOUS
10
0.5401575196850393
20
1.2496850393700787
11
0.5181163779527559
21
1.2496850393700787
0
LINE
8
BLACK
6
CONTINUOUS
10
0.5181163779527559
20
1.2496850393700787
11
0.5157727559055117
21
1.2494330314960629
0
CIRCLE
8
BLACK
10
0.8000000393700787
20
1.5999999999999999
40
0.0068897637795276
0
CIRCLE
8
BLACK
10
0.8000000393700787
20
0.4
40
0.0068897637795276
0
CIRCLE
8
BLACK
10
0.4000000393700787
20
0.4
40
0.0068897637795276
0
CIRCLE
8
BLACK
10
0.4000000393700787
20
1.5999999999999999
40
0.0068897637795276
0
CIRCLE
8
BLACK
10
0.5500000393700787
20
1.2
40
0.0068897637795276
0
CIRCLE
8
BLACK
10
0.6500000393700788
20
1.2
40
0.0068897637795276
0
CIRCLE
8
BLACK
10
0.5500000393700787
20
1.0999999999999999
40
0.0068897637795276
0
CIRCLE
8
BLACK
10
0.6500000393700788
20
1.0999999999999999
40
0.0068897637795276
0
CIRCLE
8
BLACK
10
0.5500000393700787
20
1.
40
0.0068897637795276
0
CIRCLE
8
BLACK
10
0.6500000393700788
20
1.
40
0.0068897637795276
0
CIRCLE
8
BLACK
10
0.5500000393700787
20
0.9
40
0.0068897637795276
0
CIRCLE
8
BLACK
10
0.6500000393700788
20
0.9
40
0.0068897637795276
0
CIRCLE
8
BLACK
10
0.5500000393700787
20
0.7999999999999999
40
0.0068897637795276
0
CIRCLE
8
BLACK
10
0.6500000393700788
20
0.7999999999999999
40
0.0068897637795276
0
CIRCLE
8
BLACK
10
0.8111653543307087
20
0.9399999999999999
40
0.0078740157480315
0
CIRCLE
8
BLACK
10
0.4
20
1.0999999999999999
40
0.0078740157480315
0
CIRCLE
8
BLACK
10
0.729999842519685
20
1.249999842519685
40
0.0078740157480315
0
CIRCLE
8
BLACK
10
0.405
20
0.89
40
0.0078740157480315
0
CIRCLE
8
BLACK
10
0.8099999999999999
20
1.0900000000000001
40
0.0078740157480315
0
CIRCLE
8
BLACK
10
0.375
20
0.9499998425196851
40
0.0078740157480315
0
CIRCLE
8
BLACK
10
0.858331811023622
20
0.8955492913385826
40
0.0078740157480315
  0
ENDSEC
  0
EOF
