  0
SECTION
  2
HEADER
  9
$ANGBASE
  50
0.0
  9
$ANGDIR
  70
1
  9
$MEASUREMENT
  70
0
  0
ENDSEC
  0
SECTION
  2
TABLES
  0
TABLE
  2
LTYPE
  70
4
  0
LTYPE
  5
40F
  2
CONTINUOUS
  70
0
  3
Solid line
  72
65
  73
0
  40
0.0
  0
LTYPE
  5
410
  2
DASHDOT
 70
0
  3
Dash Dot ____ _ ____ _
 72
65
 73
4
 40
2.0
 49
1.25
 49
-0.25
 49
0.25
 49
-0.25
  0
LTYPE
  5
411
  2
DASHED
 70
0
  3
Dashed __ __ __ __ __
 72
65
 73
2
 40
0.75
 49
0.5
 49
-0.25
  0
LTYPE
  5
43B
  2
DOTTED
 70
0
  3
Dotted .  .  .  .
 72
65
 73
2
 40
0.2
 49
0.0
 49
-0.2
  0
ENDTAB
  0
TABLE
  2
STYLE
  70
4
  0
STYLE
  2
KICAD
  70
0
  40
0
  41
1
  42
1
  50
0
  71
0
  3
isocp.shx
  0
STYLE
  2
KICADB
  70
0
  40
0
  41
1
  42
1
  50
0
  71
0
  3
isocp.shx
  0
STYLE
  2
KICADI
  70
0
  40
0
  41
1
  42
1
  50
15
  71
0
  3
isocp.shx
  0
STYLE
  2
KICADBI
  70
0
  40
0
  41
1
  42
1
  50
15
  71
0
  3
isocp.shx
  0
ENDTAB
  0
TABLE
  2
LAYER
  70
1
  0
LAYER
  2
BLACK
  70
0
  62
7
  6
CONTINUOUS
  0
ENDTAB
  0
ENDSEC
  0
SECTION
  2
ENTITIES
0
LINE
8
BLACK
6
CONTINUOUS
10
0.6096807086614173
20
0.3266135826771653
11
0.6170662598425197
21
0.3243732283464567
0
LINE
8
BLACK
6
CONTINUOUS
10
0.6170662598425197
20
0.3243732283464567
11
0.6238728346456692
21
0.3207350393700787
0
LINE
8
BLACK
6
CONTINUOUS
10
0.6238728346456692
20
0.3207350393700787
11
0.6298388582677166
21
0.3158388582677165
0
LINE
8
BLACK
6
CONTINUOUS
10
0.6298388582677166
20
0.3158388582677165
11
0.6347350393700787
21
0.3098728346456693
0
LINE
8
BLACK
6
CONTINUOUS
10
0.6347350393700787
20
0.3098728346456693
11
0.6383732283464567
21
0.3030662598425197
0
LINE
8
BLACK
6
CONTINUOUS
10
0.6383732283464567
20
0.3030662598425197
11
0.6406135826771654
21
0.2956807086614173
0
LINE
8
BLACK
6
CONTINUOUS
10
0.6406135826771654
20
0.2956807086614173
11
0.6413700787401575
21
0.288
0
LINE
8
BLACK
6
CONTINUOUS
10
0.6413700787401575
20
0.288
11
0.6406135826771654
21
0.2803192913385827
0
LINE
8
BLACK
6
CONTINUOUS
10
0.6406135826771654
20
0.2803192913385827
11
0.6383732283464567
21
0.2729337401574803
0
LINE
8
BLACK
6
CONTINUOUS
10
0.6383732283464567
20
0.2729337401574803
11
0.6347350393700787
21
0.2661271653543307
0
LINE
8
BLACK
6
CONTINUOUS
10
0.6347350393700787
20
0.2661271653543307
11
0.6298388582677166
21
0.2601611417322834
0
LINE
8
BLACK
6
CONTINUOUS
10
0.6298388582677166
20
0.2601611417322834
11
0.6238728346456692
21
0.2552649606299213
0
LINE
8
BLACK
6
CONTINUOUS
10
0.6238728346456692
20
0.2552649606299213
11
0.6170662598425197
21
0.2516267716535433
0
LINE
8
BLACK
6
CONTINUOUS
10
0.6170662598425197
20
0.2516267716535433
11
0.6096807086614173
21
0.2493864173228346
0
LINE
8
BLACK
6
CONTINUOUS
10
0.6096807086614173
20
0.2493864173228346
11
0.602
21
0.2486299212598425
0
LINE
8
BLACK
6
CONTINUOUS
10
0.602
20
0.2486299212598425
11
0.5943192913385826
21
0.2493864173228346
0
LINE
8
BLACK
6
CONTINUOUS
10
0.5943192913385826
20
0.2493864173228346
11
0.5869337401574803
21
0.2516267716535433
0
LINE
8
BLACK
6
CONTINUOUS
10
0.5869337401574803
20
0.2516267716535433
11
0.5801271653543307
21
0.2552649606299213
0
LINE
8
BLACK
6
CONTINUOUS
10
0.5801271653543307
20
0.2552649606299213
11
0.5741611417322835
21
0.2601611417322834
0
LINE
8
BLACK
6
CONTINUOUS
10
0.5741611417322835
20
0.2601611417322834
11
0.5692649606299213
21
0.2661271653543307
0
LINE
8
BLACK
6
CONTINUOUS
10
0.5692649606299213
20
0.2661271653543307
11
0.5656267716535432
21
0.2729337401574803
0
LINE
8
BLACK
6
CONTINUOUS
10
0.5656267716535432
20
0.2729337401574803
11
0.5633864173228347
21
0.2803192913385827
0
LINE
8
BLACK
6
CONTINUOUS
10
0.5633864173228347
20
0.2803192913385827
11
0.5626299212598425
21
0.288
0
LINE
8
BLACK
6
CONTINUOUS
10
0.5626299212598425
20
0.288
11
0.5633864173228347
21
0.2956807086614173
0
LINE
8
BLACK
6
CONTINUOUS
10
0.5633864173228347
20
0.2956807086614173
11
0.5656267716535432
21
0.3030662598425197
0
LINE
8
BLACK
6
CONTINUOUS
10
0.5656267716535432
20
0.3030662598425197
11
0.5692649606299213
21
0.3098728346456693
0
LINE
8
BLACK
6
CONTINUOUS
10
0.5692649606299213
20
0.3098728346456693
11
0.5741611417322835
21
0.3158388582677165
0
LINE
8
BLACK
6
CONTINUOUS
10
0.5741611417322835
20
0.3158388582677165
11
0.5801271653543307
21
0.3207350393700787
0
LINE
8
BLACK
6
CONTINUOUS
10
0.5801271653543307
20
0.3207350393700787
11
0.5869337401574803
21
0.3243732283464567
0
LINE
8
BLACK
6
CONTINUOUS
10
0.5869337401574803
20
0.3243732283464567
11
0.5943192913385826
21
0.3266135826771653
0
LINE
8
BLACK
6
CONTINUOUS
10
0.5943192913385826
20
0.3266135826771653
11
0.602
21
0.3273700787401575
0
LINE
8
BLACK
6
CONTINUOUS
10
0.602
20
0.3273700787401575
11
0.6096807086614173
21
0.3266135826771653
0
LINE
8
BLACK
6
CONTINUOUS
10
0.4135768503937008
20
0.5204974015748032
11
0.426982874015748
21
0.5182196062992126
0
LINE
8
BLACK
6
CONTINUOUS
10
0.426982874015748
20
0.5182196062992126
11
0.4400496456692913
21
0.5144551574803149
0
LINE
8
BLACK
6
CONTINUOUS
10
0.4400496456692913
20
0.5144551574803149
11
0.4526127165354331
21
0.5092513385826771
0
LINE
8
BLACK
6
CONTINUOUS
10
0.4526127165354331
20
0.5092513385826771
11
0.4645141732283464
21
0.5026736614173228
0
LINE
8
BLACK
6
CONTINUOUS
10
0.4645141732283464
20
0.5026736614173228
11
0.4756043307086614
21
0.4948047637795275
0
LINE
8
BLACK
6
CONTINUOUS
10
0.4756043307086614
20
0.4948047637795275
11
0.4857437007874016
21
0.4857436614173228
0
LINE
8
BLACK
6
CONTINUOUS
10
0.4857437007874016
20
0.4857436614173228
11
0.4948048031496063
21
0.4756042913385827
0
LINE
8
BLACK
6
CONTINUOUS
10
0.4948048031496063
20
0.4756042913385827
11
0.5026737007874016
21
0.4645141338582677
0
LINE
8
BLACK
6
CONTINUOUS
10
0.5026737007874016
20
0.4645141338582677
11
0.5092513779527559
21
0.4526126771653543
0
LINE
8
BLACK
6
CONTINUOUS
10
0.5092513779527559
20
0.4526126771653543
11
0.5144551968503936
21
0.4400496062992126
0
LINE
8
BLACK
6
CONTINUOUS
10
0.5144551968503936
20
0.4400496062992126
11
0.5182196456692914
21
0.4269828346456693
0
LINE
8
BLACK
6
CONTINUOUS
10
0.5182196456692914
20
0.4269828346456693
11
0.5204974409448819
21
0.413576811023622
0
LINE
8
BLACK
6
CONTINUOUS
10
0.5204974409448819
20
0.413576811023622
11
0.5212598818897638
21
0.4
0
LINE
8
BLACK
6
CONTINUOUS
10
0.5212598818897638
20
0.4
11
0.5204974409448819
21
0.386423188976378
0
LINE
8
BLACK
6
CONTINUOUS
10
0.5204974409448819
20
0.386423188976378
11
0.5182196456692914
21
0.3730171653543307
0
LINE
8
BLACK
6
CONTINUOUS
10
0.5182196456692914
20
0.3730171653543307
11
0.5144551968503936
21
0.3599503937007874
0
LINE
8
BLACK
6
CONTINUOUS
10
0.5144551968503936
20
0.3599503937007874
11
0.5092513779527559
21
0.3473873228346457
0
LINE
8
BLACK
6
CONTINUOUS
10
0.5092513779527559
20
0.3473873228346457
11
0.5026737007874016
21
0.3354858661417323
0
LINE
8
BLACK
6
CONTINUOUS
10
0.5026737007874016
20
0.3354858661417323
11
0.4948048031496063
21
0.3243957086614173
0
LINE
8
BLACK
6
CONTINUOUS
10
0.4948048031496063
20
0.3243957086614173
11
0.4857437007874016
21
0.3142563385826772
0
LINE
8
BLACK
6
CONTINUOUS
10
0.4857437007874016
20
0.3142563385826772
11
0.4756043307086614
21
0.3051952362204725
0
LINE
8
BLACK
6
CONTINUOUS
10
0.4756043307086614
20
0.3051952362204725
11
0.4645141732283464
21
0.2973263385826772
0
LINE
8
BLACK
6
CONTINUOUS
10
0.4645141732283464
20
0.2973263385826772
11
0.4526127165354331
21
0.2907486614173228
0
LINE
8
BLACK
6
CONTINUOUS
10
0.4526127165354331
20
0.2907486614173228
11
0.4400496456692913
21
0.285544842519685
0
LINE
8
BLACK
6
CONTINUOUS
10
0.4400496456692913
20
0.285544842519685
11
0.426982874015748
21
0.2817803937007874
0
LINE
8
BLACK
6
CONTINUOUS
10
0.426982874015748
20
0.2817803937007874
11
0.4135768503937008
21
0.2795025984251969
0
LINE
8
BLACK
6
CONTINUOUS
10
0.4135768503937008
20
0.2795025984251969
11
0.4000000393700787
21
0.2787401574803149
0
LINE
8
BLACK
6
CONTINUOUS
10
0.4000000393700787
20
0.2787401574803149
11
0.3864232283464567
21
0.2795025984251969
0
LINE
8
BLACK
6
CONTINUOUS
10
0.3864232283464567
20
0.2795025984251969
11
0.3730172047244095
21
0.2817803937007874
0
LINE
8
BLACK
6
CONTINUOUS
10
0.3730172047244095
20
0.2817803937007874
11
0.3599504330708662
21
0.285544842519685
0
LINE
8
BLACK
6
CONTINUOUS
10
0.3599504330708662
20
0.285544842519685
11
0.3473873622047244
21
0.2907486614173228
0
LINE
8
BLACK
6
CONTINUOUS
10
0.3473873622047244
20
0.2907486614173228
11
0.335485905511811
21
0.2973263385826772
0
LINE
8
BLACK
6
CONTINUOUS
10
0.335485905511811
20
0.2973263385826772
11
0.3243957480314961
21
0.3051952362204725
0
LINE
8
BLACK
6
CONTINUOUS
10
0.3243957480314961
20
0.3051952362204725
11
0.3142563779527559
21
0.3142563385826772
0
LINE
8
BLACK
6
CONTINUOUS
10
0.3142563779527559
20
0.3142563385826772
11
0.3051952755905512
21
0.3243957086614173
0
LINE
8
BLACK
6
CONTINUOUS
10
0.3051952755905512
20
0.3243957086614173
11
0.2973263779527559
21
0.3354858661417323
0
LINE
8
BLACK
6
CONTINUOUS
10
0.2973263779527559
20
0.3354858661417323
11
0.2907487007874016
21
0.3473873228346457
0
LINE
8
BLACK
6
CONTINUOUS
10
0.2907487007874016
20
0.3473873228346457
11
0.2855448818897638
21
0.3599503937007874
0
LINE
8
BLACK
6
CONTINUOUS
10
0.2855448818897638
20
0.3599503937007874
11
0.2817804330708661
21
0.3730171653543307
0
LINE
8
BLACK
6
CONTINUOUS
10
0.2817804330708661
20
0.3730171653543307
11
0.2795026377952756
21
0.386423188976378
0
LINE
8
BLACK
6
CONTINUOUS
10
0.2795026377952756
20
0.386423188976378
11
0.2787401968503937
21
0.4
0
LINE
8
BLACK
6
CONTINUOUS
10
0.2787401968503937
20
0.4
11
0.2795026377952756
21
0.413576811023622
0
LINE
8
BLACK
6
CONTINUOUS
10
0.2795026377952756
20
0.413576811023622
11
0.2817804330708661
21
0.4269828346456693
0
LINE
8
BLACK
6
CONTINUOUS
10
0.2817804330708661
20
0.4269828346456693
11
0.2855448818897638
21
0.4400496062992126
0
LINE
8
BLACK
6
CONTINUOUS
10
0.2855448818897638
20
0.4400496062992126
11
0.2907487007874016
21
0.4526126771653543
0
LINE
8
BLACK
6
CONTINUOUS
10
0.2907487007874016
20
0.4526126771653543
11
0.2973263779527559
21
0.4645141338582677
0
LINE
8
BLACK
6
CONTINUOUS
10
0.2973263779527559
20
0.4645141338582677
11
0.3051952755905512
21
0.4756042913385827
0
LINE
8
BLACK
6
CONTINUOUS
10
0.3051952755905512
20
0.4756042913385827
11
0.3142563779527559
21
0.4857436614173228
0
LINE
8
BLACK
6
CONTINUOUS
10
0.3142563779527559
20
0.4857436614173228
11
0.3243957480314961
21
0.4948047637795275
0
LINE
8
BLACK
6
CONTINUOUS
10
0.3243957480314961
20
0.4948047637795275
11
0.335485905511811
21
0.5026736614173228
0
LINE
8
BLACK
6
CONTINUOUS
10
0.335485905511811
20
0.5026736614173228
11
0.3473873622047244
21
0.5092513385826771
0
LINE
8
BLACK
6
CONTINUOUS
10
0.3473873622047244
20
0.5092513385826771
11
0.3599504330708662
21
0.5144551574803149
0
LINE
8
BLACK
6
CONTINUOUS
10
0.3599504330708662
20
0.5144551574803149
11
0.3730172047244095
21
0.5182196062992126
0
LINE
8
BLACK
6
CONTINUOUS
10
0.3730172047244095
20
0.5182196062992126
11
0.3864232283464567
21
0.5204974015748032
0
LINE
8
BLACK
6
CONTINUOUS
10
0.3864232283464567
20
0.5204974015748032
11
0.4000000393700787
21
0.521259842519685
0
LINE
8
BLACK
6
CONTINUOUS
10
0.4000000393700787
20
0.521259842519685
11
0.4135768503937008
21
0.5204974015748032
0
LINE
8
BLACK
6
CONTINUOUS
10
0.8135768503937008
20
0.5204974015748032
11
0.826982874015748
21
0.5182196062992126
0
LINE
8
BLACK
6
CONTINUOUS
10
0.826982874015748
20
0.5182196062992126
11
0.8400496456692913
21
0.5144551574803149
0
LINE
8
BLACK
6
CONTINUOUS
10
0.8400496456692913
20
0.5144551574803149
11
0.852612716535433
21
0.5092513385826771
0
LINE
8
BLACK
6
CONTINUOUS
10
0.852612716535433
20
0.5092513385826771
11
0.8645141732283464
21
0.5026736614173228
0
LINE
8
BLACK
6
CONTINUOUS
10
0.8645141732283464
20
0.5026736614173228
11
0.8756043307086614
21
0.4948047637795275
0
LINE
8
BLACK
6
CONTINUOUS
10
0.8756043307086614
20
0.4948047637795275
11
0.8857437007874015
21
0.4857436614173228
0
LINE
8
BLACK
6
CONTINUOUS
10
0.8857437007874015
20
0.4857436614173228
11
0.8948048031496063
21
0.4756042913385827
0
LINE
8
BLACK
6
CONTINUOUS
10
0.8948048031496063
20
0.4756042913385827
11
0.9026737007874015
21
0.4645141338582677
0
LINE
8
BLACK
6
CONTINUOUS
10
0.9026737007874015
20
0.4645141338582677
11
0.9092513779527559
21
0.4526126771653543
0
LINE
8
BLACK
6
CONTINUOUS
10
0.9092513779527559
20
0.4526126771653543
11
0.9144551968503937
21
0.4400496062992126
0
LINE
8
BLACK
6
CONTINUOUS
10
0.9144551968503937
20
0.4400496062992126
11
0.9182196456692913
21
0.4269828346456693
0
LINE
8
BLACK
6
CONTINUOUS
10
0.9182196456692913
20
0.4269828346456693
11
0.9204974409448818
21
0.413576811023622
0
LINE
8
BLACK
6
CONTINUOUS
10
0.9204974409448818
20
0.413576811023622
11
0.9212598818897637
21
0.4
0
LINE
8
BLACK
6
CONTINUOUS
10
0.9212598818897637
20
0.4
11
0.9204974409448818
21
0.386423188976378
0
LINE
8
BLACK
6
CONTINUOUS
10
0.9204974409448818
20
0.386423188976378
11
0.9182196456692913
21
0.3730171653543307
0
LINE
8
BLACK
6
CONTINUOUS
10
0.9182196456692913
20
0.3730171653543307
11
0.9144551968503937
21
0.3599503937007874
0
LINE
8
BLACK
6
CONTINUOUS
10
0.9144551968503937
20
0.3599503937007874
11
0.9092513779527559
21
0.3473873228346457
0
LINE
8
BLACK
6
CONTINUOUS
10
0.9092513779527559
20
0.3473873228346457
11
0.9026737007874015
21
0.3354858661417323
0
LINE
8
BLACK
6
CONTINUOUS
10
0.9026737007874015
20
0.3354858661417323
11
0.8948048031496063
21
0.3243957086614173
0
LINE
8
BLACK
6
CONTINUOUS
10
0.8948048031496063
20
0.3243957086614173
11
0.8857437007874015
21
0.3142563385826772
0
LINE
8
BLACK
6
CONTINUOUS
10
0.8857437007874015
20
0.3142563385826772
11
0.8756043307086614
21
0.3051952362204725
0
LINE
8
BLACK
6
CONTINUOUS
10
0.8756043307086614
20
0.3051952362204725
11
0.8645141732283464
21
0.2973263385826772
0
LINE
8
BLACK
6
CONTINUOUS
10
0.8645141732283464
20
0.2973263385826772
11
0.852612716535433
21
0.2907486614173228
0
LINE
8
BLACK
6
CONTINUOUS
10
0.852612716535433
20
0.2907486614173228
11
0.8400496456692913
21
0.285544842519685
0
LINE
8
BLACK
6
CONTINUOUS
10
0.8400496456692913
20
0.285544842519685
11
0.826982874015748
21
0.2817803937007874
0
LINE
8
BLACK
6
CONTINUOUS
10
0.826982874015748
20
0.2817803937007874
11
0.8135768503937008
21
0.2795025984251969
0
LINE
8
BLACK
6
CONTINUOUS
10
0.8135768503937008
20
0.2795025984251969
11
0.8000000393700787
21
0.2787401574803149
0
LINE
8
BLACK
6
CONTINUOUS
10
0.8000000393700787
20
0.2787401574803149
11
0.7864232283464567
21
0.2795025984251969
0
LINE
8
BLACK
6
CONTINUOUS
10
0.7864232283464567
20
0.2795025984251969
11
0.7730172047244094
21
0.2817803937007874
0
LINE
8
BLACK
6
CONTINUOUS
10
0.7730172047244094
20
0.2817803937007874
11
0.7599504330708661
21
0.285544842519685
0
LINE
8
BLACK
6
CONTINUOUS
10
0.7599504330708661
20
0.285544842519685
11
0.7473873622047243
21
0.2907486614173228
0
LINE
8
BLACK
6
CONTINUOUS
10
0.7473873622047243
20
0.2907486614173228
11
0.735485905511811
21
0.2973263385826772
0
LINE
8
BLACK
6
CONTINUOUS
10
0.735485905511811
20
0.2973263385826772
11
0.7243957480314961
21
0.3051952362204725
0
LINE
8
BLACK
6
CONTINUOUS
10
0.7243957480314961
20
0.3051952362204725
11
0.7142563779527559
21
0.3142563385826772
0
LINE
8
BLACK
6
CONTINUOUS
10
0.7142563779527559
20
0.3142563385826772
11
0.7051952755905512
21
0.3243957086614173
0
LINE
8
BLACK
6
CONTINUOUS
10
0.7051952755905512
20
0.3243957086614173
11
0.6973263779527559
21
0.3354858661417323
0
LINE
8
BLACK
6
CONTINUOUS
10
0.6973263779527559
20
0.3354858661417323
11
0.6907487007874016
21
0.3473873228346457
0
LINE
8
BLACK
6
CONTINUOUS
10
0.6907487007874016
20
0.3473873228346457
11
0.6855448818897638
21
0.3599503937007874
0
LINE
8
BLACK
6
CONTINUOUS
10
0.6855448818897638
20
0.3599503937007874
11
0.6817804330708661
21
0.3730171653543307
0
LINE
8
BLACK
6
CONTINUOUS
10
0.6817804330708661
20
0.3730171653543307
11
0.6795026377952755
21
0.386423188976378
0
LINE
8
BLACK
6
CONTINUOUS
10
0.6795026377952755
20
0.386423188976378
11
0.6787401968503937
21
0.4
0
LINE
8
BLACK
6
CONTINUOUS
10
0.6787401968503937
20
0.4
11
0.6795026377952755
21
0.413576811023622
0
LINE
8
BLACK
6
CONTINUOUS
10
0.6795026377952755
20
0.413576811023622
11
0.6817804330708661
21
0.4269828346456693
0
LINE
8
BLACK
6
CONTINUOUS
10
0.6817804330708661
20
0.4269828346456693
11
0.6855448818897638
21
0.4400496062992126
0
LINE
8
BLACK
6
CONTINUOUS
10
0.6855448818897638
20
0.4400496062992126
11
0.6907487007874016
21
0.4526126771653543
0
LINE
8
BLACK
6
CONTINUOUS
10
0.6907487007874016
20
0.4526126771653543
11
0.6973263779527559
21
0.4645141338582677
0
LINE
8
BLACK
6
CONTINUOUS
10
0.6973263779527559
20
0.4645141338582677
11
0.7051952755905512
21
0.4756042913385827
0
LINE
8
BLACK
6
CONTINUOUS
10
0.7051952755905512
20
0.4756042913385827
11
0.7142563779527559
21
0.4857436614173228
0
LINE
8
BLACK
6
CONTINUOUS
10
0.7142563779527559
20
0.4857436614173228
11
0.7243957480314961
21
0.4948047637795275
0
LINE
8
BLACK
6
CONTINUOUS
10
0.7243957480314961
20
0.4948047637795275
11
0.735485905511811
21
0.5026736614173228
0
LINE
8
BLACK
6
CONTINUOUS
10
0.735485905511811
20
0.5026736614173228
11
0.7473873622047243
21
0.5092513385826771
0
LINE
8
BLACK
6
CONTINUOUS
10
0.7473873622047243
20
0.5092513385826771
11
0.7599504330708661
21
0.5144551574803149
0
LINE
8
BLACK
6
CONTINUOUS
10
0.7599504330708661
20
0.5144551574803149
11
0.7730172047244094
21
0.5182196062992126
0
LINE
8
BLACK
6
CONTINUOUS
10
0.7730172047244094
20
0.5182196062992126
11
0.7864232283464567
21
0.5204974015748032
0
LINE
8
BLACK
6
CONTINUOUS
10
0.7864232283464567
20
0.5204974015748032
11
0.8000000393700787
21
0.521259842519685
0
LINE
8
BLACK
6
CONTINUOUS
10
0.8000000393700787
20
0.521259842519685
11
0.8135768503937008
21
0.5204974015748032
0
LINE
8
BLACK
6
CONTINUOUS
10
0.6771895669291338
20
0.5863744094488189
11
0.6782113779527559
21
0.5856916929133859
0
LINE
8
BLACK
6
CONTINUOUS
10
0.6782113779527559
20
0.5856916929133859
11
0.6788940944881889
21
0.5846698818897638
0
LINE
8
BLACK
6
CONTINUOUS
10
0.6788940944881889
20
0.5846698818897638
11
0.6791338582677166
21
0.5834645669291338
0
LINE
8
BLACK
6
CONTINUOUS
10
0.6791338582677166
20
0.5834645669291338
11
0.6791338582677166
21
0.5165354330708661
0
LINE
8
BLACK
6
CONTINUOUS
10
0.6791338582677166
20
0.5165354330708661
11
0.6788940944881889
21
0.5153301181102362
0
LINE
8
BLACK
6
CONTINUOUS
10
0.6788940944881889
20
0.5153301181102362
11
0.6782113779527559
21
0.5143083070866141
0
LINE
8
BLACK
6
CONTINUOUS
10
0.6782113779527559
20
0.5143083070866141
11
0.6771895669291338
21
0.5136255905511811
0
LINE
8
BLACK
6
CONTINUOUS
10
0.6771895669291338
20
0.5136255905511811
11
0.6759842519685039
21
0.5133858267716536
0
LINE
8
BLACK
6
CONTINUOUS
10
0.6759842519685039
20
0.5133858267716536
11
0.6090551181102362
21
0.5133858267716536
0
LINE
8
BLACK
6
CONTINUOUS
10
0.6090551181102362
20
0.5133858267716536
11
0.6078498031496062
21
0.5136255905511811
0
LINE
8
BLACK
6
CONTINUOUS
10
0.6078498031496062
20
0.5136255905511811
11
0.6068279921259843
21
0.5143083070866141
0
LINE
8
BLACK
6
CONTINUOUS
10
0.6068279921259843
20
0.5143083070866141
11
0.6061452755905512
21
0.5153301181102362
0
LINE
8
BLACK
6
CONTINUOUS
10
0.6061452755905512
20
0.5153301181102362
11
0.6059055118110236
21
0.5165354330708661
0
LINE
8
BLACK
6
CONTINUOUS
10
0.6059055118110236
20
0.5165354330708661
11
0.6059055118110236
21
0.5834645669291338
0
LINE
8
BLACK
6
CONTINUOUS
10
0.6059055118110236
20
0.5834645669291338
11
0.6061452755905512
21
0.5846698818897638
0
LINE
8
BLACK
6
CONTINUOUS
10
0.6061452755905512
20
0.5846698818897638
11
0.6068279921259843
21
0.5856916929133859
0
LINE
8
BLACK
6
CONTINUOUS
10
0.6068279921259843
20
0.5856916929133859
11
0.6078498031496062
21
0.5863744094488189
0
LINE
8
BLACK
6
CONTINUOUS
10
0.6078498031496062
20
0.5863744094488189
11
0.6090551181102362
21
0.5866141732283464
0
LINE
8
BLACK
6
CONTINUOUS
10
0.6090551181102362
20
0.5866141732283464
11
0.6759842519685039
21
0.5866141732283464
0
LINE
8
BLACK
6
CONTINUOUS
10
0.6759842519685039
20
0.5866141732283464
11
0.6771895669291338
21
0.5863744094488189
0
LINE
8
BLACK
6
CONTINUOUS
10
0.553834094488189
20
0.5848221653543307
11
0.5608267716535433
21
0.5817088188976378
0
LINE
8
BLACK
6
CONTINUOUS
10
0.5608267716535433
20
0.5817088188976378
11
0.5670193307086614
21
0.5772096456692913
0
LINE
8
BLACK
6
CONTINUOUS
10
0.5670193307086614
20
0.5772096456692913
11
0.5721411811023622
21
0.5715212598425197
0
LINE
8
BLACK
6
CONTINUOUS
10
0.5721411811023622
20
0.5715212598425197
11
0.5759683858267717
21
0.5648923228346456
0
LINE
8
BLACK
6
CONTINUOUS
10
0.5759683858267717
20
0.5648923228346456
11
0.5783337401574803
21
0.5576125196850393
0
LINE
8
BLACK
6
CONTINUOUS
10
0.5783337401574803
20
0.5576125196850393
11
0.5791338582677166
21
0.5499999999999999
0
LINE
8
BLACK
6
CONTINUOUS
10
0.5791338582677166
20
0.5499999999999999
11
0.5783337401574803
21
0.5423874803149606
0
LINE
8
BLACK
6
CONTINUOUS
10
0.5783337401574803
20
0.5423874803149606
11
0.5759683858267717
21
0.5351076771653543
0
LINE
8
BLACK
6
CONTINUOUS
10
0.5759683858267717
20
0.5351076771653543
11
0.5721411811023622
21
0.5284787401574803
0
LINE
8
BLACK
6
CONTINUOUS
10
0.5721411811023622
20
0.5284787401574803
11
0.5670193307086614
21
0.5227903543307086
0
LINE
8
BLACK
6
CONTINUOUS
10
0.5670193307086614
20
0.5227903543307086
11
0.5608267716535433
21
0.5182911811023622
0
LINE
8
BLACK
6
CONTINUOUS
10
0.5608267716535433
20
0.5182911811023622
11
0.553834094488189
21
0.5151778346456692
0
LINE
8
BLACK
6
CONTINUOUS
10
0.553834094488189
20
0.5151778346456692
11
0.5463468897637795
21
0.5135864173228346
0
LINE
8
BLACK
6
CONTINUOUS
10
0.5463468897637795
20
0.5135864173228346
11
0.5386924803149606
21
0.5135864173228346
0
LINE
8
BLACK
6
CONTINUOUS
10
0.5386924803149606
20
0.5135864173228346
11
0.5312052755905512
21
0.5151778346456692
0
LINE
8
BLACK
6
CONTINUOUS
10
0.5312052755905512
20
0.5151778346456692
11
0.5242125984251969
21
0.5182911811023622
0
LINE
8
BLACK
6
CONTINUOUS
10
0.5242125984251969
20
0.5182911811023622
11
0.5180200393700787
21
0.5227903543307086
0
LINE
8
BLACK
6
CONTINUOUS
10
0.5180200393700787
20
0.5227903543307086
11
0.512898188976378
21
0.5284787401574803
0
LINE
8
BLACK
6
CONTINUOUS
10
0.512898188976378
20
0.5284787401574803
11
0.5090709842519685
21
0.5351076771653543
0
LINE
8
BLACK
6
CONTINUOUS
10
0.5090709842519685
20
0.5351076771653543
11
0.5067056299212598
21
0.5423874803149606
0
LINE
8
BLACK
6
CONTINUOUS
10
0.5067056299212598
20
0.5423874803149606
11
0.5059055118110236
21
0.5499999999999999
0
LINE
8
BLACK
6
CONTINUOUS
10
0.5059055118110236
20
0.5499999999999999
11
0.5067056299212598
21
0.5576125196850393
0
LINE
8
BLACK
6
CONTINUOUS
10
0.5067056299212598
20
0.5576125196850393
11
0.5090709842519685
21
0.5648923228346456
0
LINE
8
BLACK
6
CONTINUOUS
10
0.5090709842519685
20
0.5648923228346456
11
0.512898188976378
21
0.5715212598425197
0
LINE
8
BLACK
6
CONTINUOUS
10
0.512898188976378
20
0.5715212598425197
11
0.5180200393700787
21
0.5772096456692913
0
LINE
8
BLACK
6
CONTINUOUS
10
0.5180200393700787
20
0.5772096456692913
11
0.5242125984251969
21
0.5817088188976378
0
LINE
8
BLACK
6
CONTINUOUS
10
0.5242125984251969
20
0.5817088188976378
11
0.5312052755905512
21
0.5848221653543307
0
LINE
8
BLACK
6
CONTINUOUS
10
0.5312052755905512
20
0.5848221653543307
11
0.5386924803149606
21
0.5864135826771654
0
LINE
8
BLACK
6
CONTINUOUS
10
0.5386924803149606
20
0.5864135826771654
11
0.5463468897637795
21
0.5864135826771654
0
LINE
8
BLACK
6
CONTINUOUS
10
0.5463468897637795
20
0.5864135826771654
11
0.553834094488189
21
0.5848221653543307
0
LINE
8
BLACK
6
CONTINUOUS
10
0.553834094488189
20
0.6848221653543307
11
0.5608267716535433
21
0.6817088188976378
0
LINE
8
BLACK
6
CONTINUOUS
10
0.5608267716535433
20
0.6817088188976378
11
0.5670193307086614
21
0.6772096456692913
0
LINE
8
BLACK
6
CONTINUOUS
10
0.5670193307086614
20
0.6772096456692913
11
0.5721411811023622
21
0.6715212598425196
0
LINE
8
BLACK
6
CONTINUOUS
10
0.5721411811023622
20
0.6715212598425196
11
0.5759683858267717
21
0.6648923228346456
0
LINE
8
BLACK
6
CONTINUOUS
10
0.5759683858267717
20
0.6648923228346456
11
0.5783337401574803
21
0.6576125196850393
0
LINE
8
BLACK
6
CONTINUOUS
10
0.5783337401574803
20
0.6576125196850393
11
0.5791338582677166
21
0.65
0
LINE
8
BLACK
6
CONTINUOUS
10
0.5791338582677166
20
0.65
11
0.5783337401574803
21
0.6423874803149606
0
LINE
8
BLACK
6
CONTINUOUS
10
0.5783337401574803
20
0.6423874803149606
11
0.5759683858267717
21
0.6351076771653543
0
LINE
8
BLACK
6
CONTINUOUS
10
0.5759683858267717
20
0.6351076771653543
11
0.5721411811023622
21
0.6284787401574803
0
LINE
8
BLACK
6
CONTINUOUS
10
0.5721411811023622
20
0.6284787401574803
11
0.5670193307086614
21
0.6227903543307086
0
LINE
8
BLACK
6
CONTINUOUS
10
0.5670193307086614
20
0.6227903543307086
11
0.5608267716535433
21
0.6182911811023621
0
LINE
8
BLACK
6
CONTINUOUS
10
0.5608267716535433
20
0.6182911811023621
11
0.553834094488189
21
0.6151778346456693
0
LINE
8
BLACK
6
CONTINUOUS
10
0.553834094488189
20
0.6151778346456693
11
0.5463468897637795
21
0.6135864173228346
0
LINE
8
BLACK
6
CONTINUOUS
10
0.5463468897637795
20
0.6135864173228346
11
0.5386924803149606
21
0.6135864173228346
0
LINE
8
BLACK
6
CONTINUOUS
10
0.5386924803149606
20
0.6135864173228346
11
0.5312052755905512
21
0.6151778346456693
0
LINE
8
BLACK
6
CONTINUOUS
10
0.5312052755905512
20
0.6151778346456693
11
0.5242125984251969
21
0.6182911811023621
0
LINE
8
BLACK
6
CONTINUOUS
10
0.5242125984251969
20
0.6182911811023621
11
0.5180200393700787
21
0.6227903543307086
0
LINE
8
BLACK
6
CONTINUOUS
10
0.5180200393700787
20
0.6227903543307086
11
0.512898188976378
21
0.6284787401574803
0
LINE
8
BLACK
6
CONTINUOUS
10
0.512898188976378
20
0.6284787401574803
11
0.5090709842519685
21
0.6351076771653543
0
LINE
8
BLACK
6
CONTINUOUS
10
0.5090709842519685
20
0.6351076771653543
11
0.5067056299212598
21
0.6423874803149606
0
LINE
8
BLACK
6
CONTINUOUS
10
0.5067056299212598
20
0.6423874803149606
11
0.5059055118110236
21
0.65
0
LINE
8
BLACK
6
CONTINUOUS
10
0.5059055118110236
20
0.65
11
0.5067056299212598
21
0.6576125196850393
0
LINE
8
BLACK
6
CONTINUOUS
10
0.5067056299212598
20
0.6576125196850393
11
0.5090709842519685
21
0.6648923228346456
0
LINE
8
BLACK
6
CONTINUOUS
10
0.5090709842519685
20
0.6648923228346456
11
0.512898188976378
21
0.6715212598425196
0
LINE
8
BLACK
6
CONTINUOUS
10
0.512898188976378
20
0.6715212598425196
11
0.5180200393700787
21
0.6772096456692913
0
LINE
8
BLACK
6
CONTINUOUS
10
0.5180200393700787
20
0.6772096456692913
11
0.5242125984251969
21
0.6817088188976378
0
LINE
8
BLACK
6
CONTINUOUS
10
0.5242125984251969
20
0.6817088188976378
11
0.5312052755905512
21
0.6848221653543307
0
LINE
8
BLACK
6
CONTINUOUS
10
0.5312052755905512
20
0.6848221653543307
11
0.5386924803149606
21
0.6864135826771653
0
LINE
8
BLACK
6
CONTINUOUS
10
0.5386924803149606
20
0.6864135826771653
11
0.5463468897637795
21
0.6864135826771653
0
LINE
8
BLACK
6
CONTINUOUS
10
0.5463468897637795
20
0.6864135826771653
11
0.553834094488189
21
0.6848221653543307
0
LINE
8
BLACK
6
CONTINUOUS
10
0.653834094488189
20
0.6848221653543307
11
0.6608267716535433
21
0.6817088188976378
0
LINE
8
BLACK
6
CONTINUOUS
10
0.6608267716535433
20
0.6817088188976378
11
0.6670193307086614
21
0.6772096456692913
0
LINE
8
BLACK
6
CONTINUOUS
10
0.6670193307086614
20
0.6772096456692913
11
0.6721411811023622
21
0.6715212598425196
0
LINE
8
BLACK
6
CONTINUOUS
10
0.6721411811023622
20
0.6715212598425196
11
0.6759683858267717
21
0.6648923228346456
0
LINE
8
BLACK
6
CONTINUOUS
10
0.6759683858267717
20
0.6648923228346456
11
0.6783337401574803
21
0.6576125196850393
0
LINE
8
BLACK
6
CONTINUOUS
10
0.6783337401574803
20
0.6576125196850393
11
0.6791338582677166
21
0.65
0
LINE
8
BLACK
6
CONTINUOUS
10
0.6791338582677166
20
0.65
11
0.6783337401574803
21
0.6423874803149606
0
LINE
8
BLACK
6
CONTINUOUS
10
0.6783337401574803
20
0.6423874803149606
11
0.6759683858267717
21
0.6351076771653543
0
LINE
8
BLACK
6
CONTINUOUS
10
0.6759683858267717
20
0.6351076771653543
11
0.6721411811023622
21
0.6284787401574803
0
LINE
8
BLACK
6
CONTINUOUS
10
0.6721411811023622
20
0.6284787401574803
11
0.6670193307086614
21
0.6227903543307086
0
LINE
8
BLACK
6
CONTINUOUS
10
0.6670193307086614
20
0.6227903543307086
11
0.6608267716535433
21
0.6182911811023621
0
LINE
8
BLACK
6
CONTINUOUS
10
0.6608267716535433
20
0.6182911811023621
11
0.653834094488189
21
0.6151778346456693
0
LINE
8
BLACK
6
CONTINUOUS
10
0.653834094488189
20
0.6151778346456693
11
0.6463468897637795
21
0.6135864173228346
0
LINE
8
BLACK
6
CONTINUOUS
10
0.6463468897637795
20
0.6135864173228346
11
0.6386924803149606
21
0.6135864173228346
0
LINE
8
BLACK
6
CONTINUOUS
10
0.6386924803149606
20
0.6135864173228346
11
0.6312052755905512
21
0.6151778346456693
0
LINE
8
BLACK
6
CONTINUOUS
10
0.6312052755905512
20
0.6151778346456693
11
0.6242125984251968
21
0.6182911811023621
0
LINE
8
BLACK
6
CONTINUOUS
10
0.6242125984251968
20
0.6182911811023621
11
0.6180200393700788
21
0.6227903543307086
0
LINE
8
BLACK
6
CONTINUOUS
10
0.6180200393700788
20
0.6227903543307086
11
0.6128981889763779
21
0.6284787401574803
0
LINE
8
BLACK
6
CONTINUOUS
10
0.6128981889763779
20
0.6284787401574803
11
0.6090709842519685
21
0.6351076771653543
0
LINE
8
BLACK
6
CONTINUOUS
10
0.6090709842519685
20
0.6351076771653543
11
0.6067056299212599
21
0.6423874803149606
0
LINE
8
BLACK
6
CONTINUOUS
10
0.6067056299212599
20
0.6423874803149606
11
0.6059055118110236
21
0.65
0
LINE
8
BLACK
6
CONTINUOUS
10
0.6059055118110236
20
0.65
11
0.6067056299212599
21
0.6576125196850393
0
LINE
8
BLACK
6
CONTINUOUS
10
0.6067056299212599
20
0.6576125196850393
11
0.6090709842519685
21
0.6648923228346456
0
LINE
8
BLACK
6
CONTINUOUS
10
0.6090709842519685
20
0.6648923228346456
11
0.6128981889763779
21
0.6715212598425196
0
LINE
8
BLACK
6
CONTINUOUS
10
0.6128981889763779
20
0.6715212598425196
11
0.6180200393700788
21
0.6772096456692913
0
LINE
8
BLACK
6
CONTINUOUS
10
0.6180200393700788
20
0.6772096456692913
11
0.6242125984251968
21
0.6817088188976378
0
LINE
8
BLACK
6
CONTINUOUS
10
0.6242125984251968
20
0.6817088188976378
11
0.6312052755905512
21
0.6848221653543307
0
LINE
8
BLACK
6
CONTINUOUS
10
0.6312052755905512
20
0.6848221653543307
11
0.6386924803149606
21
0.6864135826771653
0
LINE
8
BLACK
6
CONTINUOUS
10
0.6386924803149606
20
0.6864135826771653
11
0.6463468897637795
21
0.6864135826771653
0
LINE
8
BLACK
6
CONTINUOUS
10
0.6463468897637795
20
0.6864135826771653
11
0.653834094488189
21
0.6848221653543307
0
LINE
8
BLACK
6
CONTINUOUS
10
0.553834094488189
20
0.7848221653543307
11
0.5608267716535433
21
0.7817088188976378
0
LINE
8
BLACK
6
CONTINUOUS
10
0.5608267716535433
20
0.7817088188976378
11
0.5670193307086614
21
0.7772096456692913
0
LINE
8
BLACK
6
CONTINUOUS
10
0.5670193307086614
20
0.7772096456692913
11
0.5721411811023622
21
0.7715212598425196
0
LINE
8
BLACK
6
CONTINUOUS
10
0.5721411811023622
20
0.7715212598425196
11
0.5759683858267717
21
0.7648923228346457
0
LINE
8
BLACK
6
CONTINUOUS
10
0.5759683858267717
20
0.7648923228346457
11
0.5783337401574803
21
0.7576125196850394
0
LINE
8
BLACK
6
CONTINUOUS
10
0.5783337401574803
20
0.7576125196850394
11
0.5791338582677166
21
0.75
0
LINE
8
BLACK
6
CONTINUOUS
10
0.5791338582677166
20
0.75
11
0.5783337401574803
21
0.7423874803149606
0
LINE
8
BLACK
6
CONTINUOUS
10
0.5783337401574803
20
0.7423874803149606
11
0.5759683858267717
21
0.7351076771653543
0
LINE
8
BLACK
6
CONTINUOUS
10
0.5759683858267717
20
0.7351076771653543
11
0.5721411811023622
21
0.7284787401574803
0
LINE
8
BLACK
6
CONTINUOUS
10
0.5721411811023622
20
0.7284787401574803
11
0.5670193307086614
21
0.7227903543307086
0
LINE
8
BLACK
6
CONTINUOUS
10
0.5670193307086614
20
0.7227903543307086
11
0.5608267716535433
21
0.7182911811023622
0
LINE
8
BLACK
6
CONTINUOUS
10
0.5608267716535433
20
0.7182911811023622
11
0.553834094488189
21
0.7151778346456693
0
LINE
8
BLACK
6
CONTINUOUS
10
0.553834094488189
20
0.7151778346456693
11
0.5463468897637795
21
0.7135864173228347
0
LINE
8
BLACK
6
CONTINUOUS
10
0.5463468897637795
20
0.7135864173228347
11
0.5386924803149606
21
0.7135864173228347
0
LINE
8
BLACK
6
CONTINUOUS
10
0.5386924803149606
20
0.7135864173228347
11
0.5312052755905512
21
0.7151778346456693
0
LINE
8
BLACK
6
CONTINUOUS
10
0.5312052755905512
20
0.7151778346456693
11
0.5242125984251969
21
0.7182911811023622
0
LINE
8
BLACK
6
CONTINUOUS
10
0.5242125984251969
20
0.7182911811023622
11
0.5180200393700787
21
0.7227903543307086
0
LINE
8
BLACK
6
CONTINUOUS
10
0.5180200393700787
20
0.7227903543307086
11
0.512898188976378
21
0.7284787401574803
0
LINE
8
BLACK
6
CONTINUOUS
10
0.512898188976378
20
0.7284787401574803
11
0.5090709842519685
21
0.7351076771653543
0
LINE
8
BLACK
6
CONTINUOUS
10
0.5090709842519685
20
0.7351076771653543
11
0.5067056299212598
21
0.7423874803149606
0
LINE
8
BLACK
6
CONTINUOUS
10
0.5067056299212598
20
0.7423874803149606
11
0.5059055118110236
21
0.75
0
LINE
8
BLACK
6
CONTINUOUS
10
0.5059055118110236
20
0.75
11
0.5067056299212598
21
0.7576125196850394
0
LINE
8
BLACK
6
CONTINUOUS
10
0.5067056299212598
20
0.7576125196850394
11
0.5090709842519685
21
0.7648923228346457
0
LINE
8
BLACK
6
CONTINUOUS
10
0.5090709842519685
20
0.7648923228346457
11
0.512898188976378
21
0.7715212598425196
0
LINE
8
BLACK
6
CONTINUOUS
10
0.512898188976378
20
0.7715212598425196
11
0.5180200393700787
21
0.7772096456692913
0
LINE
8
BLACK
6
CONTINUOUS
10
0.5180200393700787
20
0.7772096456692913
11
0.5242125984251969
21
0.7817088188976378
0
LINE
8
BLACK
6
CONTINUOUS
10
0.5242125984251969
20
0.7817088188976378
11
0.5312052755905512
21
0.7848221653543307
0
LINE
8
BLACK
6
CONTINUOUS
10
0.5312052755905512
20
0.7848221653543307
11
0.5386924803149606
21
0.7864135826771653
0
LINE
8
BLACK
6
CONTINUOUS
10
0.5386924803149606
20
0.7864135826771653
11
0.5463468897637795
21
0.7864135826771653
0
LINE
8
BLACK
6
CONTINUOUS
10
0.5463468897637795
20
0.7864135826771653
11
0.553834094488189
21
0.7848221653543307
0
LINE
8
BLACK
6
CONTINUOUS
10
0.653834094488189
20
0.7848221653543307
11
0.6608267716535433
21
0.7817088188976378
0
LINE
8
BLACK
6
CONTINUOUS
10
0.6608267716535433
20
0.7817088188976378
11
0.6670193307086614
21
0.7772096456692913
0
LINE
8
BLACK
6
CONTINUOUS
10
0.6670193307086614
20
0.7772096456692913
11
0.6721411811023622
21
0.7715212598425196
0
LINE
8
BLACK
6
CONTINUOUS
10
0.6721411811023622
20
0.7715212598425196
11
0.6759683858267717
21
0.7648923228346457
0
LINE
8
BLACK
6
CONTINUOUS
10
0.6759683858267717
20
0.7648923228346457
11
0.6783337401574803
21
0.7576125196850394
0
LINE
8
BLACK
6
CONTINUOUS
10
0.6783337401574803
20
0.7576125196850394
11
0.6791338582677166
21
0.75
0
LINE
8
BLACK
6
CONTINUOUS
10
0.6791338582677166
20
0.75
11
0.6783337401574803
21
0.7423874803149606
0
LINE
8
BLACK
6
CONTINUOUS
10
0.6783337401574803
20
0.7423874803149606
11
0.6759683858267717
21
0.7351076771653543
0
LINE
8
BLACK
6
CONTINUOUS
10
0.6759683858267717
20
0.7351076771653543
11
0.6721411811023622
21
0.7284787401574803
0
LINE
8
BLACK
6
CONTINUOUS
10
0.6721411811023622
20
0.7284787401574803
11
0.6670193307086614
21
0.7227903543307086
0
LINE
8
BLACK
6
CONTINUOUS
10
0.6670193307086614
20
0.7227903543307086
11
0.6608267716535433
21
0.7182911811023622
0
LINE
8
BLACK
6
CONTINUOUS
10
0.6608267716535433
20
0.7182911811023622
11
0.653834094488189
21
0.7151778346456693
0
LINE
8
BLACK
6
CONTINUOUS
10
0.653834094488189
20
0.7151778346456693
11
0.6463468897637795
21
0.7135864173228347
0
LINE
8
BLACK
6
CONTINUOUS
10
0.6463468897637795
20
0.7135864173228347
11
0.6386924803149606
21
0.7135864173228347
0
LINE
8
BLACK
6
CONTINUOUS
10
0.6386924803149606
20
0.7135864173228347
11
0.6312052755905512
21
0.7151778346456693
0
LINE
8
BLACK
6
CONTINUOUS
10
0.6312052755905512
20
0.7151778346456693
11
0.6242125984251968
21
0.7182911811023622
0
LINE
8
BLACK
6
CONTINUOUS
10
0.6242125984251968
20
0.7182911811023622
11
0.6180200393700788
21
0.7227903543307086
0
LINE
8
BLACK
6
CONTINUOUS
10
0.6180200393700788
20
0.7227903543307086
11
0.6128981889763779
21
0.7284787401574803
0
LINE
8
BLACK
6
CONTINUOUS
10
0.6128981889763779
20
0.7284787401574803
11
0.6090709842519685
21
0.7351076771653543
0
LINE
8
BLACK
6
CONTINUOUS
10
0.6090709842519685
20
0.7351076771653543
11
0.6067056299212599
21
0.7423874803149606
0
LINE
8
BLACK
6
CONTINUOUS
10
0.6067056299212599
20
0.7423874803149606
11
0.6059055118110236
21
0.75
0
LINE
8
BLACK
6
CONTINUOUS
10
0.6059055118110236
20
0.75
11
0.6067056299212599
21
0.7576125196850394
0
LINE
8
BLACK
6
CONTINUOUS
10
0.6067056299212599
20
0.7576125196850394
11
0.6090709842519685
21
0.7648923228346457
0
LINE
8
BLACK
6
CONTINUOUS
10
0.6090709842519685
20
0.7648923228346457
11
0.6128981889763779
21
0.7715212598425196
0
LINE
8
BLACK
6
CONTINUOUS
10
0.6128981889763779
20
0.7715212598425196
11
0.6180200393700788
21
0.7772096456692913
0
LINE
8
BLACK
6
CONTINUOUS
10
0.6180200393700788
20
0.7772096456692913
11
0.6242125984251968
21
0.7817088188976378
0
LINE
8
BLACK
6
CONTINUOUS
10
0.6242125984251968
20
0.7817088188976378
11
0.6312052755905512
21
0.7848221653543307
0
LINE
8
BLACK
6
CONTINUOUS
10
0.6312052755905512
20
0.7848221653543307
11
0.6386924803149606
21
0.7864135826771653
0
LINE
8
BLACK
6
CONTINUOUS
10
0.6386924803149606
20
0.7864135826771653
11
0.6463468897637795
21
0.7864135826771653
0
LINE
8
BLACK
6
CONTINUOUS
10
0.6463468897637795
20
0.7864135826771653
11
0.653834094488189
21
0.7848221653543307
0
LINE
8
BLACK
6
CONTINUOUS
10
0.553834094488189
20
0.8848221653543307
11
0.5608267716535433
21
0.8817088188976377
0
LINE
8
BLACK
6
CONTINUOUS
10
0.5608267716535433
20
0.8817088188976377
11
0.5670193307086614
21
0.8772096456692913
0
LINE
8
BLACK
6
CONTINUOUS
10
0.5670193307086614
20
0.8772096456692913
11
0.5721411811023622
21
0.8715212598425197
0
LINE
8
BLACK
6
CONTINUOUS
10
0.5721411811023622
20
0.8715212598425197
11
0.5759683858267717
21
0.8648923228346457
0
LINE
8
BLACK
6
CONTINUOUS
10
0.5759683858267717
20
0.8648923228346457
11
0.5783337401574803
21
0.8576125196850394
0
LINE
8
BLACK
6
CONTINUOUS
10
0.5783337401574803
20
0.8576125196850394
11
0.5791338582677166
21
0.85
0
LINE
8
BLACK
6
CONTINUOUS
10
0.5791338582677166
20
0.85
11
0.5783337401574803
21
0.8423874803149606
0
LINE
8
BLACK
6
CONTINUOUS
10
0.5783337401574803
20
0.8423874803149606
11
0.5759683858267717
21
0.8351076771653543
0
LINE
8
BLACK
6
CONTINUOUS
10
0.5759683858267717
20
0.8351076771653543
11
0.5721411811023622
21
0.8284787401574802
0
LINE
8
BLACK
6
CONTINUOUS
10
0.5721411811023622
20
0.8284787401574802
11
0.5670193307086614
21
0.8227903543307087
0
LINE
8
BLACK
6
CONTINUOUS
10
0.5670193307086614
20
0.8227903543307087
11
0.5608267716535433
21
0.8182911811023622
0
LINE
8
BLACK
6
CONTINUOUS
10
0.5608267716535433
20
0.8182911811023622
11
0.553834094488189
21
0.8151778346456693
0
LINE
8
BLACK
6
CONTINUOUS
10
0.553834094488189
20
0.8151778346456693
11
0.5463468897637795
21
0.8135864173228347
0
LINE
8
BLACK
6
CONTINUOUS
10
0.5463468897637795
20
0.8135864173228347
11
0.5386924803149606
21
0.8135864173228347
0
LINE
8
BLACK
6
CONTINUOUS
10
0.5386924803149606
20
0.8135864173228347
11
0.5312052755905512
21
0.8151778346456693
0
LINE
8
BLACK
6
CONTINUOUS
10
0.5312052755905512
20
0.8151778346456693
11
0.5242125984251969
21
0.8182911811023622
0
LINE
8
BLACK
6
CONTINUOUS
10
0.5242125984251969
20
0.8182911811023622
11
0.5180200393700787
21
0.8227903543307087
0
LINE
8
BLACK
6
CONTINUOUS
10
0.5180200393700787
20
0.8227903543307087
11
0.512898188976378
21
0.8284787401574802
0
LINE
8
BLACK
6
CONTINUOUS
10
0.512898188976378
20
0.8284787401574802
11
0.5090709842519685
21
0.8351076771653543
0
LINE
8
BLACK
6
CONTINUOUS
10
0.5090709842519685
20
0.8351076771653543
11
0.5067056299212598
21
0.8423874803149606
0
LINE
8
BLACK
6
CONTINUOUS
10
0.5067056299212598
20
0.8423874803149606
11
0.5059055118110236
21
0.85
0
LINE
8
BLACK
6
CONTINUOUS
10
0.5059055118110236
20
0.85
11
0.5067056299212598
21
0.8576125196850394
0
LINE
8
BLACK
6
CONTINUOUS
10
0.5067056299212598
20
0.8576125196850394
11
0.5090709842519685
21
0.8648923228346457
0
LINE
8
BLACK
6
CONTINUOUS
10
0.5090709842519685
20
0.8648923228346457
11
0.512898188976378
21
0.8715212598425197
0
LINE
8
BLACK
6
CONTINUOUS
10
0.512898188976378
20
0.8715212598425197
11
0.5180200393700787
21
0.8772096456692913
0
LINE
8
BLACK
6
CONTINUOUS
10
0.5180200393700787
20
0.8772096456692913
11
0.5242125984251969
21
0.8817088188976377
0
LINE
8
BLACK
6
CONTINUOUS
10
0.5242125984251969
20
0.8817088188976377
11
0.5312052755905512
21
0.8848221653543307
0
LINE
8
BLACK
6
CONTINUOUS
10
0.5312052755905512
20
0.8848221653543307
11
0.5386924803149606
21
0.8864135826771653
0
LINE
8
BLACK
6
CONTINUOUS
10
0.5386924803149606
20
0.8864135826771653
11
0.5463468897637795
21
0.8864135826771653
0
LINE
8
BLACK
6
CONTINUOUS
10
0.5463468897637795
20
0.8864135826771653
11
0.553834094488189
21
0.8848221653543307
0
LINE
8
BLACK
6
CONTINUOUS
10
0.653834094488189
20
0.8848221653543307
11
0.6608267716535433
21
0.8817088188976377
0
LINE
8
BLACK
6
CONTINUOUS
10
0.6608267716535433
20
0.8817088188976377
11
0.6670193307086614
21
0.8772096456692913
0
LINE
8
BLACK
6
CONTINUOUS
10
0.6670193307086614
20
0.8772096456692913
11
0.6721411811023622
21
0.8715212598425197
0
LINE
8
BLACK
6
CONTINUOUS
10
0.6721411811023622
20
0.8715212598425197
11
0.6759683858267717
21
0.8648923228346457
0
LINE
8
BLACK
6
CONTINUOUS
10
0.6759683858267717
20
0.8648923228346457
11
0.6783337401574803
21
0.8576125196850394
0
LINE
8
BLACK
6
CONTINUOUS
10
0.6783337401574803
20
0.8576125196850394
11
0.6791338582677166
21
0.85
0
LINE
8
BLACK
6
CONTINUOUS
10
0.6791338582677166
20
0.85
11
0.6783337401574803
21
0.8423874803149606
0
LINE
8
BLACK
6
CONTINUOUS
10
0.6783337401574803
20
0.8423874803149606
11
0.6759683858267717
21
0.8351076771653543
0
LINE
8
BLACK
6
CONTINUOUS
10
0.6759683858267717
20
0.8351076771653543
11
0.6721411811023622
21
0.8284787401574802
0
LINE
8
BLACK
6
CONTINUOUS
10
0.6721411811023622
20
0.8284787401574802
11
0.6670193307086614
21
0.8227903543307087
0
LINE
8
BLACK
6
CONTINUOUS
10
0.6670193307086614
20
0.8227903543307087
11
0.6608267716535433
21
0.8182911811023622
0
LINE
8
BLACK
6
CONTINUOUS
10
0.6608267716535433
20
0.8182911811023622
11
0.653834094488189
21
0.8151778346456693
0
LINE
8
BLACK
6
CONTINUOUS
10
0.653834094488189
20
0.8151778346456693
11
0.6463468897637795
21
0.8135864173228347
0
LINE
8
BLACK
6
CONTINUOUS
10
0.6463468897637795
20
0.8135864173228347
11
0.6386924803149606
21
0.8135864173228347
0
LINE
8
BLACK
6
CONTINUOUS
10
0.6386924803149606
20
0.8135864173228347
11
0.6312052755905512
21
0.8151778346456693
0
LINE
8
BLACK
6
CONTINUOUS
10
0.6312052755905512
20
0.8151778346456693
11
0.6242125984251968
21
0.8182911811023622
0
LINE
8
BLACK
6
CONTINUOUS
10
0.6242125984251968
20
0.8182911811023622
11
0.6180200393700788
21
0.8227903543307087
0
LINE
8
BLACK
6
CONTINUOUS
10
0.6180200393700788
20
0.8227903543307087
11
0.6128981889763779
21
0.8284787401574802
0
LINE
8
BLACK
6
CONTINUOUS
10
0.6128981889763779
20
0.8284787401574802
11
0.6090709842519685
21
0.8351076771653543
0
LINE
8
BLACK
6
CONTINUOUS
10
0.6090709842519685
20
0.8351076771653543
11
0.6067056299212599
21
0.8423874803149606
0
LINE
8
BLACK
6
CONTINUOUS
10
0.6067056299212599
20
0.8423874803149606
11
0.6059055118110236
21
0.85
0
LINE
8
BLACK
6
CONTINUOUS
10
0.6059055118110236
20
0.85
11
0.6067056299212599
21
0.8576125196850394
0
LINE
8
BLACK
6
CONTINUOUS
10
0.6067056299212599
20
0.8576125196850394
11
0.6090709842519685
21
0.8648923228346457
0
LINE
8
BLACK
6
CONTINUOUS
10
0.6090709842519685
20
0.8648923228346457
11
0.6128981889763779
21
0.8715212598425197
0
LINE
8
BLACK
6
CONTINUOUS
10
0.6128981889763779
20
0.8715212598425197
11
0.6180200393700788
21
0.8772096456692913
0
LINE
8
BLACK
6
CONTINUOUS
10
0.6180200393700788
20
0.8772096456692913
11
0.6242125984251968
21
0.8817088188976377
0
LINE
8
BLACK
6
CONTINUOUS
10
0.6242125984251968
20
0.8817088188976377
11
0.6312052755905512
21
0.8848221653543307
0
LINE
8
BLACK
6
CONTINUOUS
10
0.6312052755905512
20
0.8848221653543307
11
0.6386924803149606
21
0.8864135826771653
0
LINE
8
BLACK
6
CONTINUOUS
10
0.6386924803149606
20
0.8864135826771653
11
0.6463468897637795
21
0.8864135826771653
0
LINE
8
BLACK
6
CONTINUOUS
10
0.6463468897637795
20
0.8864135826771653
11
0.653834094488189
21
0.8848221653543307
0
LINE
8
BLACK
6
CONTINUOUS
10
0.553834094488189
20
0.9848221653543306
11
0.5608267716535433
21
0.9817088188976377
0
LINE
8
BLACK
6
CONTINUOUS
10
0.5608267716535433
20
0.9817088188976377
11
0.5670193307086614
21
0.9772096456692914
0
LINE
8
BLACK
6
CONTINUOUS
10
0.5670193307086614
20
0.9772096456692914
11
0.5721411811023622
21
0.9715212598425197
0
LINE
8
BLACK
6
CONTINUOUS
10
0.5721411811023622
20
0.9715212598425197
11
0.5759683858267717
21
0.9648923228346457
0
LINE
8
BLACK
6
CONTINUOUS
10
0.5759683858267717
20
0.9648923228346457
11
0.5783337401574803
21
0.9576125196850394
0
LINE
8
BLACK
6
CONTINUOUS
10
0.5783337401574803
20
0.9576125196850394
11
0.5791338582677166
21
0.95
0
LINE
8
BLACK
6
CONTINUOUS
10
0.5791338582677166
20
0.95
11
0.5783337401574803
21
0.9423874803149606
0
LINE
8
BLACK
6
CONTINUOUS
10
0.5783337401574803
20
0.9423874803149606
11
0.5759683858267717
21
0.9351076771653543
0
LINE
8
BLACK
6
CONTINUOUS
10
0.5759683858267717
20
0.9351076771653543
11
0.5721411811023622
21
0.9284787401574803
0
LINE
8
BLACK
6
CONTINUOUS
10
0.5721411811023622
20
0.9284787401574803
11
0.5670193307086614
21
0.9227903543307087
0
LINE
8
BLACK
6
CONTINUOUS
10
0.5670193307086614
20
0.9227903543307087
11
0.5608267716535433
21
0.9182911811023622
0
LINE
8
BLACK
6
CONTINUOUS
10
0.5608267716535433
20
0.9182911811023622
11
0.553834094488189
21
0.9151778346456693
0
LINE
8
BLACK
6
CONTINUOUS
10
0.553834094488189
20
0.9151778346456693
11
0.5463468897637795
21
0.9135864173228346
0
LINE
8
BLACK
6
CONTINUOUS
10
0.5463468897637795
20
0.9135864173228346
11
0.5386924803149606
21
0.9135864173228346
0
LINE
8
BLACK
6
CONTINUOUS
10
0.5386924803149606
20
0.9135864173228346
11
0.5312052755905512
21
0.9151778346456693
0
LINE
8
BLACK
6
CONTINUOUS
10
0.5312052755905512
20
0.9151778346456693
11
0.5242125984251969
21
0.9182911811023622
0
LINE
8
BLACK
6
CONTINUOUS
10
0.5242125984251969
20
0.9182911811023622
11
0.5180200393700787
21
0.9227903543307087
0
LINE
8
BLACK
6
CONTINUOUS
10
0.5180200393700787
20
0.9227903543307087
11
0.512898188976378
21
0.9284787401574803
0
LINE
8
BLACK
6
CONTINUOUS
10
0.512898188976378
20
0.9284787401574803
11
0.5090709842519685
21
0.9351076771653543
0
LINE
8
BLACK
6
CONTINUOUS
10
0.5090709842519685
20
0.9351076771653543
11
0.5067056299212598
21
0.9423874803149606
0
LINE
8
BLACK
6
CONTINUOUS
10
0.5067056299212598
20
0.9423874803149606
11
0.5059055118110236
21
0.95
0
LINE
8
BLACK
6
CONTINUOUS
10
0.5059055118110236
20
0.95
11
0.5067056299212598
21
0.9576125196850394
0
LINE
8
BLACK
6
CONTINUOUS
10
0.5067056299212598
20
0.9576125196850394
11
0.5090709842519685
21
0.9648923228346457
0
LINE
8
BLACK
6
CONTINUOUS
10
0.5090709842519685
20
0.9648923228346457
11
0.512898188976378
21
0.9715212598425197
0
LINE
8
BLACK
6
CONTINUOUS
10
0.512898188976378
20
0.9715212598425197
11
0.5180200393700787
21
0.9772096456692914
0
LINE
8
BLACK
6
CONTINUOUS
10
0.5180200393700787
20
0.9772096456692914
11
0.5242125984251969
21
0.9817088188976377
0
LINE
8
BLACK
6
CONTINUOUS
10
0.5242125984251969
20
0.9817088188976377
11
0.5312052755905512
21
0.9848221653543306
0
LINE
8
BLACK
6
CONTINUOUS
10
0.5312052755905512
20
0.9848221653543306
11
0.5386924803149606
21
0.9864135826771653
0
LINE
8
BLACK
6
CONTINUOUS
10
0.5386924803149606
20
0.9864135826771653
11
0.5463468897637795
21
0.9864135826771653
0
LINE
8
BLACK
6
CONTINUOUS
10
0.5463468897637795
20
0.9864135826771653
11
0.553834094488189
21
0.9848221653543306
0
LINE
8
BLACK
6
CONTINUOUS
10
0.653834094488189
20
0.9848221653543306
11
0.6608267716535433
21
0.9817088188976377
0
LINE
8
BLACK
6
CONTINUOUS
10
0.6608267716535433
20
0.9817088188976377
11
0.6670193307086614
21
0.9772096456692914
0
LINE
8
BLACK
6
CONTINUOUS
10
0.6670193307086614
20
0.9772096456692914
11
0.6721411811023622
21
0.9715212598425197
0
LINE
8
BLACK
6
CONTINUOUS
10
0.6721411811023622
20
0.9715212598425197
11
0.6759683858267717
21
0.9648923228346457
0
LINE
8
BLACK
6
CONTINUOUS
10
0.6759683858267717
20
0.9648923228346457
11
0.6783337401574803
21
0.9576125196850394
0
LINE
8
BLACK
6
CONTINUOUS
10
0.6783337401574803
20
0.9576125196850394
11
0.6791338582677166
21
0.95
0
LINE
8
BLACK
6
CONTINUOUS
10
0.6791338582677166
20
0.95
11
0.6783337401574803
21
0.9423874803149606
0
LINE
8
BLACK
6
CONTINUOUS
10
0.6783337401574803
20
0.9423874803149606
11
0.6759683858267717
21
0.9351076771653543
0
LINE
8
BLACK
6
CONTINUOUS
10
0.6759683858267717
20
0.9351076771653543
11
0.6721411811023622
21
0.9284787401574803
0
LINE
8
BLACK
6
CONTINUOUS
10
0.6721411811023622
20
0.9284787401574803
11
0.6670193307086614
21
0.9227903543307087
0
LINE
8
BLACK
6
CONTINUOUS
10
0.6670193307086614
20
0.9227903543307087
11
0.6608267716535433
21
0.9182911811023622
0
LINE
8
BLACK
6
CONTINUOUS
10
0.6608267716535433
20
0.9182911811023622
11
0.653834094488189
21
0.9151778346456693
0
LINE
8
BLACK
6
CONTINUOUS
10
0.653834094488189
20
0.9151778346456693
11
0.6463468897637795
21
0.9135864173228346
0
LINE
8
BLACK
6
CONTINUOUS
10
0.6463468897637795
20
0.9135864173228346
11
0.6386924803149606
21
0.9135864173228346
0
LINE
8
BLACK
6
CONTINUOUS
10
0.6386924803149606
20
0.9135864173228346
11
0.6312052755905512
21
0.9151778346456693
0
LINE
8
BLACK
6
CONTINUOUS
10
0.6312052755905512
20
0.9151778346456693
11
0.6242125984251968
21
0.9182911811023622
0
LINE
8
BLACK
6
CONTINUOUS
10
0.6242125984251968
20
0.9182911811023622
11
0.6180200393700788
21
0.9227903543307087
0
LINE
8
BLACK
6
CONTINUOUS
10
0.6180200393700788
20
0.9227903543307087
11
0.6128981889763779
21
0.9284787401574803
0
LINE
8
BLACK
6
CONTINUOUS
10
0.6128981889763779
20
0.9284787401574803
11
0.6090709842519685
21
0.9351076771653543
0
LINE
8
BLACK
6
CONTINUOUS
10
0.6090709842519685
20
0.9351076771653543
11
0.6067056299212599
21
0.9423874803149606
0
LINE
8
BLACK
6
CONTINUOUS
10
0.6067056299212599
20
0.9423874803149606
11
0.6059055118110236
21
0.95
0
LINE
8
BLACK
6
CONTINUOUS
10
0.6059055118110236
20
0.95
11
0.6067056299212599
21
0.9576125196850394
0
LINE
8
BLACK
6
CONTINUOUS
10
0.6067056299212599
20
0.9576125196850394
11
0.6090709842519685
21
0.9648923228346457
0
LINE
8
BLACK
6
CONTINUOUS
10
0.6090709842519685
20
0.9648923228346457
11
0.6128981889763779
21
0.9715212598425197
0
LINE
8
BLACK
6
CONTINUOUS
10
0.6128981889763779
20
0.9715212598425197
11
0.6180200393700788
21
0.9772096456692914
0
LINE
8
BLACK
6
CONTINUOUS
10
0.6180200393700788
20
0.9772096456692914
11
0.6242125984251968
21
0.9817088188976377
0
LINE
8
BLACK
6
CONTINUOUS
10
0.6242125984251968
20
0.9817088188976377
11
0.6312052755905512
21
0.9848221653543306
0
LINE
8
BLACK
6
CONTINUOUS
10
0.6312052755905512
20
0.9848221653543306
11
0.6386924803149606
21
0.9864135826771653
0
LINE
8
BLACK
6
CONTINUOUS
10
0.6386924803149606
20
0.9864135826771653
11
0.6463468897637795
21
0.9864135826771653
0
LINE
8
BLACK
6
CONTINUOUS
10
0.6463468897637795
20
0.9864135826771653
11
0.653834094488189
21
0.9848221653543306
0
LINE
8
BLACK
6
CONTINUOUS
10
0.553834094488189
20
1.0848221653543306
11
0.5608267716535433
21
1.0817088188976378
0
LINE
8
BLACK
6
CONTINUOUS
10
0.5608267716535433
20
1.0817088188976378
11
0.5670193307086614
21
1.0772096456692912
0
LINE
8
BLACK
6
CONTINUOUS
10
0.5670193307086614
20
1.0772096456692912
11
0.5721411811023622
21
1.0715212598425197
0
LINE
8
BLACK
6
CONTINUOUS
10
0.5721411811023622
20
1.0715212598425197
11
0.5759683858267717
21
1.0648923228346456
0
LINE
8
BLACK
6
CONTINUOUS
10
0.5759683858267717
20
1.0648923228346456
11
0.5783337401574803
21
1.0576125196850394
0
LINE
8
BLACK
6
CONTINUOUS
10
0.5783337401574803
20
1.0576125196850394
11
0.5791338582677166
21
1.05
0
LINE
8
BLACK
6
CONTINUOUS
10
0.5791338582677166
20
1.05
11
0.5783337401574803
21
1.0423874803149606
0
LINE
8
BLACK
6
CONTINUOUS
10
0.5783337401574803
20
1.0423874803149606
11
0.5759683858267717
21
1.0351076771653542
0
LINE
8
BLACK
6
CONTINUOUS
10
0.5759683858267717
20
1.0351076771653542
11
0.5721411811023622
21
1.0284787401574802
0
LINE
8
BLACK
6
CONTINUOUS
10
0.5721411811023622
20
1.0284787401574802
11
0.5670193307086614
21
1.0227903543307086
0
LINE
8
BLACK
6
CONTINUOUS
10
0.5670193307086614
20
1.0227903543307086
11
0.5608267716535433
21
1.0182911811023623
0
LINE
8
BLACK
6
CONTINUOUS
10
0.5608267716535433
20
1.0182911811023623
11
0.553834094488189
21
1.0151778346456692
0
LINE
8
BLACK
6
CONTINUOUS
10
0.553834094488189
20
1.0151778346456692
11
0.5463468897637795
21
1.0135864173228346
0
LINE
8
BLACK
6
CONTINUOUS
10
0.5463468897637795
20
1.0135864173228346
11
0.5386924803149606
21
1.0135864173228346
0
LINE
8
BLACK
6
CONTINUOUS
10
0.5386924803149606
20
1.0135864173228346
11
0.5312052755905512
21
1.0151778346456692
0
LINE
8
BLACK
6
CONTINUOUS
10
0.5312052755905512
20
1.0151778346456692
11
0.5242125984251969
21
1.0182911811023623
0
LINE
8
BLACK
6
CONTINUOUS
10
0.5242125984251969
20
1.0182911811023623
11
0.5180200393700787
21
1.0227903543307086
0
LINE
8
BLACK
6
CONTINUOUS
10
0.5180200393700787
20
1.0227903543307086
11
0.512898188976378
21
1.0284787401574802
0
LINE
8
BLACK
6
CONTINUOUS
10
0.512898188976378
20
1.0284787401574802
11
0.5090709842519685
21
1.0351076771653542
0
LINE
8
BLACK
6
CONTINUOUS
10
0.5090709842519685
20
1.0351076771653542
11
0.5067056299212598
21
1.0423874803149606
0
LINE
8
BLACK
6
CONTINUOUS
10
0.5067056299212598
20
1.0423874803149606
11
0.5059055118110236
21
1.05
0
LINE
8
BLACK
6
CONTINUOUS
10
0.5059055118110236
20
1.05
11
0.5067056299212598
21
1.0576125196850394
0
LINE
8
BLACK
6
CONTINUOUS
10
0.5067056299212598
20
1.0576125196850394
11
0.5090709842519685
21
1.0648923228346456
0
LINE
8
BLACK
6
CONTINUOUS
10
0.5090709842519685
20
1.0648923228346456
11
0.512898188976378
21
1.0715212598425197
0
LINE
8
BLACK
6
CONTINUOUS
10
0.512898188976378
20
1.0715212598425197
11
0.5180200393700787
21
1.0772096456692912
0
LINE
8
BLACK
6
CONTINUOUS
10
0.5180200393700787
20
1.0772096456692912
11
0.5242125984251969
21
1.0817088188976378
0
LINE
8
BLACK
6
CONTINUOUS
10
0.5242125984251969
20
1.0817088188976378
11
0.5312052755905512
21
1.0848221653543306
0
LINE
8
BLACK
6
CONTINUOUS
10
0.5312052755905512
20
1.0848221653543306
11
0.5386924803149606
21
1.0864135826771653
0
LINE
8
BLACK
6
CONTINUOUS
10
0.5386924803149606
20
1.0864135826771653
11
0.5463468897637795
21
1.0864135826771653
0
LINE
8
BLACK
6
CONTINUOUS
10
0.5463468897637795
20
1.0864135826771653
11
0.553834094488189
21
1.0848221653543306
0
LINE
8
BLACK
6
CONTINUOUS
10
0.653834094488189
20
1.0848221653543306
11
0.6608267716535433
21
1.0817088188976378
0
LINE
8
BLACK
6
CONTINUOUS
10
0.6608267716535433
20
1.0817088188976378
11
0.6670193307086614
21
1.0772096456692912
0
LINE
8
BLACK
6
CONTINUOUS
10
0.6670193307086614
20
1.0772096456692912
11
0.6721411811023622
21
1.0715212598425197
0
LINE
8
BLACK
6
CONTINUOUS
10
0.6721411811023622
20
1.0715212598425197
11
0.6759683858267717
21
1.0648923228346456
0
LINE
8
BLACK
6
CONTINUOUS
10
0.6759683858267717
20
1.0648923228346456
11
0.6783337401574803
21
1.0576125196850394
0
LINE
8
BLACK
6
CONTINUOUS
10
0.6783337401574803
20
1.0576125196850394
11
0.6791338582677166
21
1.05
0
LINE
8
BLACK
6
CONTINUOUS
10
0.6791338582677166
20
1.05
11
0.6783337401574803
21
1.0423874803149606
0
LINE
8
BLACK
6
CONTINUOUS
10
0.6783337401574803
20
1.0423874803149606
11
0.6759683858267717
21
1.0351076771653542
0
LINE
8
BLACK
6
CONTINUOUS
10
0.6759683858267717
20
1.0351076771653542
11
0.6721411811023622
21
1.0284787401574802
0
LINE
8
BLACK
6
CONTINUOUS
10
0.6721411811023622
20
1.0284787401574802
11
0.6670193307086614
21
1.0227903543307086
0
LINE
8
BLACK
6
CONTINUOUS
10
0.6670193307086614
20
1.0227903543307086
11
0.6608267716535433
21
1.0182911811023623
0
LINE
8
BLACK
6
CONTINUOUS
10
0.6608267716535433
20
1.0182911811023623
11
0.653834094488189
21
1.0151778346456692
0
LINE
8
BLACK
6
CONTINUOUS
10
0.653834094488189
20
1.0151778346456692
11
0.6463468897637795
21
1.0135864173228346
0
LINE
8
BLACK
6
CONTINUOUS
10
0.6463468897637795
20
1.0135864173228346
11
0.6386924803149606
21
1.0135864173228346
0
LINE
8
BLACK
6
CONTINUOUS
10
0.6386924803149606
20
1.0135864173228346
11
0.6312052755905512
21
1.0151778346456692
0
LINE
8
BLACK
6
CONTINUOUS
10
0.6312052755905512
20
1.0151778346456692
11
0.6242125984251968
21
1.0182911811023623
0
LINE
8
BLACK
6
CONTINUOUS
10
0.6242125984251968
20
1.0182911811023623
11
0.6180200393700788
21
1.0227903543307086
0
LINE
8
BLACK
6
CONTINUOUS
10
0.6180200393700788
20
1.0227903543307086
11
0.6128981889763779
21
1.0284787401574802
0
LINE
8
BLACK
6
CONTINUOUS
10
0.6128981889763779
20
1.0284787401574802
11
0.6090709842519685
21
1.0351076771653542
0
LINE
8
BLACK
6
CONTINUOUS
10
0.6090709842519685
20
1.0351076771653542
11
0.6067056299212599
21
1.0423874803149606
0
LINE
8
BLACK
6
CONTINUOUS
10
0.6067056299212599
20
1.0423874803149606
11
0.6059055118110236
21
1.05
0
LINE
8
BLACK
6
CONTINUOUS
10
0.6059055118110236
20
1.05
11
0.6067056299212599
21
1.0576125196850394
0
LINE
8
BLACK
6
CONTINUOUS
10
0.6067056299212599
20
1.0576125196850394
11
0.6090709842519685
21
1.0648923228346456
0
LINE
8
BLACK
6
CONTINUOUS
10
0.6090709842519685
20
1.0648923228346456
11
0.6128981889763779
21
1.0715212598425197
0
LINE
8
BLACK
6
CONTINUOUS
10
0.6128981889763779
20
1.0715212598425197
11
0.6180200393700788
21
1.0772096456692912
0
LINE
8
BLACK
6
CONTINUOUS
10
0.6180200393700788
20
1.0772096456692912
11
0.6242125984251968
21
1.0817088188976378
0
LINE
8
BLACK
6
CONTINUOUS
10
0.6242125984251968
20
1.0817088188976378
11
0.6312052755905512
21
1.0848221653543306
0
LINE
8
BLACK
6
CONTINUOUS
10
0.6312052755905512
20
1.0848221653543306
11
0.6386924803149606
21
1.0864135826771653
0
LINE
8
BLACK
6
CONTINUOUS
10
0.6386924803149606
20
1.0864135826771653
11
0.6463468897637795
21
1.0864135826771653
0
LINE
8
BLACK
6
CONTINUOUS
10
0.6463468897637795
20
1.0864135826771653
11
0.653834094488189
21
1.0848221653543306
0
LINE
8
BLACK
6
CONTINUOUS
10
0.553834094488189
20
1.1848221653543307
11
0.5608267716535433
21
1.1817088188976377
0
LINE
8
BLACK
6
CONTINUOUS
10
0.5608267716535433
20
1.1817088188976377
11
0.5670193307086614
21
1.1772096456692913
0
LINE
8
BLACK
6
CONTINUOUS
10
0.5670193307086614
20
1.1772096456692913
11
0.5721411811023622
21
1.1715212598425198
0
LINE
8
BLACK
6
CONTINUOUS
10
0.5721411811023622
20
1.1715212598425198
11
0.5759683858267717
21
1.1648923228346457
0
LINE
8
BLACK
6
CONTINUOUS
10
0.5759683858267717
20
1.1648923228346457
11
0.5783337401574803
21
1.1576125196850393
0
LINE
8
BLACK
6
CONTINUOUS
10
0.5783337401574803
20
1.1576125196850393
11
0.5791338582677166
21
1.1499999999999999
0
LINE
8
BLACK
6
CONTINUOUS
10
0.5791338582677166
20
1.1499999999999999
11
0.5783337401574803
21
1.1423874803149605
0
LINE
8
BLACK
6
CONTINUOUS
10
0.5783337401574803
20
1.1423874803149605
11
0.5759683858267717
21
1.1351076771653543
0
LINE
8
BLACK
6
CONTINUOUS
10
0.5759683858267717
20
1.1351076771653543
11
0.5721411811023622
21
1.1284787401574803
0
LINE
8
BLACK
6
CONTINUOUS
10
0.5721411811023622
20
1.1284787401574803
11
0.5670193307086614
21
1.1227903543307087
0
LINE
8
BLACK
6
CONTINUOUS
10
0.5670193307086614
20
1.1227903543307087
11
0.5608267716535433
21
1.1182911811023621
0
LINE
8
BLACK
6
CONTINUOUS
10
0.5608267716535433
20
1.1182911811023621
11
0.553834094488189
21
1.1151778346456693
0
LINE
8
BLACK
6
CONTINUOUS
10
0.553834094488189
20
1.1151778346456693
11
0.5463468897637795
21
1.1135864173228347
0
LINE
8
BLACK
6
CONTINUOUS
10
0.5463468897637795
20
1.1135864173228347
11
0.5386924803149606
21
1.1135864173228347
0
LINE
8
BLACK
6
CONTINUOUS
10
0.5386924803149606
20
1.1135864173228347
11
0.5312052755905512
21
1.1151778346456693
0
LINE
8
BLACK
6
CONTINUOUS
10
0.5312052755905512
20
1.1151778346456693
11
0.5242125984251969
21
1.1182911811023621
0
LINE
8
BLACK
6
CONTINUOUS
10
0.5242125984251969
20
1.1182911811023621
11
0.5180200393700787
21
1.1227903543307087
0
LINE
8
BLACK
6
CONTINUOUS
10
0.5180200393700787
20
1.1227903543307087
11
0.512898188976378
21
1.1284787401574803
0
LINE
8
BLACK
6
CONTINUOUS
10
0.512898188976378
20
1.1284787401574803
11
0.5090709842519685
21
1.1351076771653543
0
LINE
8
BLACK
6
CONTINUOUS
10
0.5090709842519685
20
1.1351076771653543
11
0.5067056299212598
21
1.1423874803149605
0
LINE
8
BLACK
6
CONTINUOUS
10
0.5067056299212598
20
1.1423874803149605
11
0.5059055118110236
21
1.1499999999999999
0
LINE
8
BLACK
6
CONTINUOUS
10
0.5059055118110236
20
1.1499999999999999
11
0.5067056299212598
21
1.1576125196850393
0
LINE
8
BLACK
6
CONTINUOUS
10
0.5067056299212598
20
1.1576125196850393
11
0.5090709842519685
21
1.1648923228346457
0
LINE
8
BLACK
6
CONTINUOUS
10
0.5090709842519685
20
1.1648923228346457
11
0.512898188976378
21
1.1715212598425198
0
LINE
8
BLACK
6
CONTINUOUS
10
0.512898188976378
20
1.1715212598425198
11
0.5180200393700787
21
1.1772096456692913
0
LINE
8
BLACK
6
CONTINUOUS
10
0.5180200393700787
20
1.1772096456692913
11
0.5242125984251969
21
1.1817088188976377
0
LINE
8
BLACK
6
CONTINUOUS
10
0.5242125984251969
20
1.1817088188976377
11
0.5312052755905512
21
1.1848221653543307
0
LINE
8
BLACK
6
CONTINUOUS
10
0.5312052755905512
20
1.1848221653543307
11
0.5386924803149606
21
1.1864135826771653
0
LINE
8
BLACK
6
CONTINUOUS
10
0.5386924803149606
20
1.1864135826771653
11
0.5463468897637795
21
1.1864135826771653
0
LINE
8
BLACK
6
CONTINUOUS
10
0.5463468897637795
20
1.1864135826771653
11
0.553834094488189
21
1.1848221653543307
0
LINE
8
BLACK
6
CONTINUOUS
10
0.653834094488189
20
1.1848221653543307
11
0.6608267716535433
21
1.1817088188976377
0
LINE
8
BLACK
6
CONTINUOUS
10
0.6608267716535433
20
1.1817088188976377
11
0.6670193307086614
21
1.1772096456692913
0
LINE
8
BLACK
6
CONTINUOUS
10
0.6670193307086614
20
1.1772096456692913
11
0.6721411811023622
21
1.1715212598425198
0
LINE
8
BLACK
6
CONTINUOUS
10
0.6721411811023622
20
1.1715212598425198
11
0.6759683858267717
21
1.1648923228346457
0
LINE
8
BLACK
6
CONTINUOUS
10
0.6759683858267717
20
1.1648923228346457
11
0.6783337401574803
21
1.1576125196850393
0
LINE
8
BLACK
6
CONTINUOUS
10
0.6783337401574803
20
1.1576125196850393
11
0.6791338582677166
21
1.1499999999999999
0
LINE
8
BLACK
6
CONTINUOUS
10
0.6791338582677166
20
1.1499999999999999
11
0.6783337401574803
21
1.1423874803149605
0
LINE
8
BLACK
6
CONTINUOUS
10
0.6783337401574803
20
1.1423874803149605
11
0.6759683858267717
21
1.1351076771653543
0
LINE
8
BLACK
6
CONTINUOUS
10
0.6759683858267717
20
1.1351076771653543
11
0.6721411811023622
21
1.1284787401574803
0
LINE
8
BLACK
6
CONTINUOUS
10
0.6721411811023622
20
1.1284787401574803
11
0.6670193307086614
21
1.1227903543307087
0
LINE
8
BLACK
6
CONTINUOUS
10
0.6670193307086614
20
1.1227903543307087
11
0.6608267716535433
21
1.1182911811023621
0
LINE
8
BLACK
6
CONTINUOUS
10
0.6608267716535433
20
1.1182911811023621
11
0.653834094488189
21
1.1151778346456693
0
LINE
8
BLACK
6
CONTINUOUS
10
0.653834094488189
20
1.1151778346456693
11
0.6463468897637795
21
1.1135864173228347
0
LINE
8
BLACK
6
CONTINUOUS
10
0.6463468897637795
20
1.1135864173228347
11
0.6386924803149606
21
1.1135864173228347
0
LINE
8
BLACK
6
CONTINUOUS
10
0.6386924803149606
20
1.1135864173228347
11
0.6312052755905512
21
1.1151778346456693
0
LINE
8
BLACK
6
CONTINUOUS
10
0.6312052755905512
20
1.1151778346456693
11
0.6242125984251968
21
1.1182911811023621
0
LINE
8
BLACK
6
CONTINUOUS
10
0.6242125984251968
20
1.1182911811023621
11
0.6180200393700788
21
1.1227903543307087
0
LINE
8
BLACK
6
CONTINUOUS
10
0.6180200393700788
20
1.1227903543307087
11
0.6128981889763779
21
1.1284787401574803
0
LINE
8
BLACK
6
CONTINUOUS
10
0.6128981889763779
20
1.1284787401574803
11
0.6090709842519685
21
1.1351076771653543
0
LINE
8
BLACK
6
CONTINUOUS
10
0.6090709842519685
20
1.1351076771653543
11
0.6067056299212599
21
1.1423874803149605
0
LINE
8
BLACK
6
CONTINUOUS
10
0.6067056299212599
20
1.1423874803149605
11
0.6059055118110236
21
1.1499999999999999
0
LINE
8
BLACK
6
CONTINUOUS
10
0.6059055118110236
20
1.1499999999999999
11
0.6067056299212599
21
1.1576125196850393
0
LINE
8
BLACK
6
CONTINUOUS
10
0.6067056299212599
20
1.1576125196850393
11
0.6090709842519685
21
1.1648923228346457
0
LINE
8
BLACK
6
CONTINUOUS
10
0.6090709842519685
20
1.1648923228346457
11
0.6128981889763779
21
1.1715212598425198
0
LINE
8
BLACK
6
CONTINUOUS
10
0.6128981889763779
20
1.1715212598425198
11
0.6180200393700788
21
1.1772096456692913
0
LINE
8
BLACK
6
CONTINUOUS
10
0.6180200393700788
20
1.1772096456692913
11
0.6242125984251968
21
1.1817088188976377
0
LINE
8
BLACK
6
CONTINUOUS
10
0.6242125984251968
20
1.1817088188976377
11
0.6312052755905512
21
1.1848221653543307
0
LINE
8
BLACK
6
CONTINUOUS
10
0.6312052755905512
20
1.1848221653543307
11
0.6386924803149606
21
1.1864135826771653
0
LINE
8
BLACK
6
CONTINUOUS
10
0.6386924803149606
20
1.1864135826771653
11
0.6463468897637795
21
1.1864135826771653
0
LINE
8
BLACK
6
CONTINUOUS
10
0.6463468897637795
20
1.1864135826771653
11
0.653834094488189
21
1.1848221653543307
0
LINE
8
BLACK
6
CONTINUOUS
10
0.553834094488189
20
1.2848221653543306
11
0.5608267716535433
21
1.2817088188976378
0
LINE
8
BLACK
6
CONTINUOUS
10
0.5608267716535433
20
1.2817088188976378
11
0.5670193307086614
21
1.2772096456692914
0
LINE
8
BLACK
6
CONTINUOUS
10
0.5670193307086614
20
1.2772096456692914
11
0.5721411811023622
21
1.2715212598425196
0
LINE
8
BLACK
6
CONTINUOUS
10
0.5721411811023622
20
1.2715212598425196
11
0.5759683858267717
21
1.2648923228346456
0
LINE
8
BLACK
6
CONTINUOUS
10
0.5759683858267717
20
1.2648923228346456
11
0.5783337401574803
21
1.2576125196850394
0
LINE
8
BLACK
6
CONTINUOUS
10
0.5783337401574803
20
1.2576125196850394
11
0.5791338582677166
21
1.25
0
LINE
8
BLACK
6
CONTINUOUS
10
0.5791338582677166
20
1.25
11
0.5783337401574803
21
1.2423874803149606
0
LINE
8
BLACK
6
CONTINUOUS
10
0.5783337401574803
20
1.2423874803149606
11
0.5759683858267717
21
1.2351076771653544
0
LINE
8
BLACK
6
CONTINUOUS
10
0.5759683858267717
20
1.2351076771653544
11
0.5721411811023622
21
1.2284787401574804
0
LINE
8
BLACK
6
CONTINUOUS
10
0.5721411811023622
20
1.2284787401574804
11
0.5670193307086614
21
1.2227903543307086
0
LINE
8
BLACK
6
CONTINUOUS
10
0.5670193307086614
20
1.2227903543307086
11
0.5608267716535433
21
1.2182911811023622
0
LINE
8
BLACK
6
CONTINUOUS
10
0.5608267716535433
20
1.2182911811023622
11
0.553834094488189
21
1.2151778346456692
0
LINE
8
BLACK
6
CONTINUOUS
10
0.553834094488189
20
1.2151778346456692
11
0.5463468897637795
21
1.2135864173228346
0
LINE
8
BLACK
6
CONTINUOUS
10
0.5463468897637795
20
1.2135864173228346
11
0.5386924803149606
21
1.2135864173228346
0
LINE
8
BLACK
6
CONTINUOUS
10
0.5386924803149606
20
1.2135864173228346
11
0.5312052755905512
21
1.2151778346456692
0
LINE
8
BLACK
6
CONTINUOUS
10
0.5312052755905512
20
1.2151778346456692
11
0.5242125984251969
21
1.2182911811023622
0
LINE
8
BLACK
6
CONTINUOUS
10
0.5242125984251969
20
1.2182911811023622
11
0.5180200393700787
21
1.2227903543307086
0
LINE
8
BLACK
6
CONTINUOUS
10
0.5180200393700787
20
1.2227903543307086
11
0.512898188976378
21
1.2284787401574804
0
LINE
8
BLACK
6
CONTINUOUS
10
0.512898188976378
20
1.2284787401574804
11
0.5090709842519685
21
1.2351076771653544
0
LINE
8
BLACK
6
CONTINUOUS
10
0.5090709842519685
20
1.2351076771653544
11
0.5067056299212598
21
1.2423874803149606
0
LINE
8
BLACK
6
CONTINUOUS
10
0.5067056299212598
20
1.2423874803149606
11
0.5059055118110236
21
1.25
0
LINE
8
BLACK
6
CONTINUOUS
10
0.5059055118110236
20
1.25
11
0.5067056299212598
21
1.2576125196850394
0
LINE
8
BLACK
6
CONTINUOUS
10
0.5067056299212598
20
1.2576125196850394
11
0.5090709842519685
21
1.2648923228346456
0
LINE
8
BLACK
6
CONTINUOUS
10
0.5090709842519685
20
1.2648923228346456
11
0.512898188976378
21
1.2715212598425196
0
LINE
8
BLACK
6
CONTINUOUS
10
0.512898188976378
20
1.2715212598425196
11
0.5180200393700787
21
1.2772096456692914
0
LINE
8
BLACK
6
CONTINUOUS
10
0.5180200393700787
20
1.2772096456692914
11
0.5242125984251969
21
1.2817088188976378
0
LINE
8
BLACK
6
CONTINUOUS
10
0.5242125984251969
20
1.2817088188976378
11
0.5312052755905512
21
1.2848221653543306
0
LINE
8
BLACK
6
CONTINUOUS
10
0.5312052755905512
20
1.2848221653543306
11
0.5386924803149606
21
1.2864135826771654
0
LINE
8
BLACK
6
CONTINUOUS
10
0.5386924803149606
20
1.2864135826771654
11
0.5463468897637795
21
1.2864135826771654
0
LINE
8
BLACK
6
CONTINUOUS
10
0.5463468897637795
20
1.2864135826771654
11
0.553834094488189
21
1.2848221653543306
0
LINE
8
BLACK
6
CONTINUOUS
10
0.653834094488189
20
1.2848221653543306
11
0.6608267716535433
21
1.2817088188976378
0
LINE
8
BLACK
6
CONTINUOUS
10
0.6608267716535433
20
1.2817088188976378
11
0.6670193307086614
21
1.2772096456692914
0
LINE
8
BLACK
6
CONTINUOUS
10
0.6670193307086614
20
1.2772096456692914
11
0.6721411811023622
21
1.2715212598425196
0
LINE
8
BLACK
6
CONTINUOUS
10
0.6721411811023622
20
1.2715212598425196
11
0.6759683858267717
21
1.2648923228346456
0
LINE
8
BLACK
6
CONTINUOUS
10
0.6759683858267717
20
1.2648923228346456
11
0.6783337401574803
21
1.2576125196850394
0
LINE
8
BLACK
6
CONTINUOUS
10
0.6783337401574803
20
1.2576125196850394
11
0.6791338582677166
21
1.25
0
LINE
8
BLACK
6
CONTINUOUS
10
0.6791338582677166
20
1.25
11
0.6783337401574803
21
1.2423874803149606
0
LINE
8
BLACK
6
CONTINUOUS
10
0.6783337401574803
20
1.2423874803149606
11
0.6759683858267717
21
1.2351076771653544
0
LINE
8
BLACK
6
CONTINUOUS
10
0.6759683858267717
20
1.2351076771653544
11
0.6721411811023622
21
1.2284787401574804
0
LINE
8
BLACK
6
CONTINUOUS
10
0.6721411811023622
20
1.2284787401574804
11
0.6670193307086614
21
1.2227903543307086
0
LINE
8
BLACK
6
CONTINUOUS
10
0.6670193307086614
20
1.2227903543307086
11
0.6608267716535433
21
1.2182911811023622
0
LINE
8
BLACK
6
CONTINUOUS
10
0.6608267716535433
20
1.2182911811023622
11
0.653834094488189
21
1.2151778346456692
0
LINE
8
BLACK
6
CONTINUOUS
10
0.653834094488189
20
1.2151778346456692
11
0.6463468897637795
21
1.2135864173228346
0
LINE
8
BLACK
6
CONTINUOUS
10
0.6463468897637795
20
1.2135864173228346
11
0.6386924803149606
21
1.2135864173228346
0
LINE
8
BLACK
6
CONTINUOUS
10
0.6386924803149606
20
1.2135864173228346
11
0.6312052755905512
21
1.2151778346456692
0
LINE
8
BLACK
6
CONTINUOUS
10
0.6312052755905512
20
1.2151778346456692
11
0.6242125984251968
21
1.2182911811023622
0
LINE
8
BLACK
6
CONTINUOUS
10
0.6242125984251968
20
1.2182911811023622
11
0.6180200393700788
21
1.2227903543307086
0
LINE
8
BLACK
6
CONTINUOUS
10
0.6180200393700788
20
1.2227903543307086
11
0.6128981889763779
21
1.2284787401574804
0
LINE
8
BLACK
6
CONTINUOUS
10
0.6128981889763779
20
1.2284787401574804
11
0.6090709842519685
21
1.2351076771653544
0
LINE
8
BLACK
6
CONTINUOUS
10
0.6090709842519685
20
1.2351076771653544
11
0.6067056299212599
21
1.2423874803149606
0
LINE
8
BLACK
6
CONTINUOUS
10
0.6067056299212599
20
1.2423874803149606
11
0.6059055118110236
21
1.25
0
LINE
8
BLACK
6
CONTINUOUS
10
0.6059055118110236
20
1.25
11
0.6067056299212599
21
1.2576125196850394
0
LINE
8
BLACK
6
CONTINUOUS
10
0.6067056299212599
20
1.2576125196850394
11
0.6090709842519685
21
1.2648923228346456
0
LINE
8
BLACK
6
CONTINUOUS
10
0.6090709842519685
20
1.2648923228346456
11
0.6128981889763779
21
1.2715212598425196
0
LINE
8
BLACK
6
CONTINUOUS
10
0.6128981889763779
20
1.2715212598425196
11
0.6180200393700788
21
1.2772096456692914
0
LINE
8
BLACK
6
CONTINUOUS
10
0.6180200393700788
20
1.2772096456692914
11
0.6242125984251968
21
1.2817088188976378
0
LINE
8
BLACK
6
CONTINUOUS
10
0.6242125984251968
20
1.2817088188976378
11
0.6312052755905512
21
1.2848221653543306
0
LINE
8
BLACK
6
CONTINUOUS
10
0.6312052755905512
20
1.2848221653543306
11
0.6386924803149606
21
1.2864135826771654
0
LINE
8
BLACK
6
CONTINUOUS
10
0.6386924803149606
20
1.2864135826771654
11
0.6463468897637795
21
1.2864135826771654
0
LINE
8
BLACK
6
CONTINUOUS
10
0.6463468897637795
20
1.2864135826771654
11
0.653834094488189
21
1.2848221653543306
0
LINE
8
BLACK
6
CONTINUOUS
10
0.553834094488189
20
1.3848221653543307
11
0.5608267716535433
21
1.3817088188976379
0
LINE
8
BLACK
6
CONTINUOUS
10
0.5608267716535433
20
1.3817088188976379
11
0.5670193307086614
21
1.3772096456692913
0
LINE
8
BLACK
6
CONTINUOUS
10
0.5670193307086614
20
1.3772096456692913
11
0.5721411811023622
21
1.3715212598425197
0
LINE
8
BLACK
6
CONTINUOUS
10
0.5721411811023622
20
1.3715212598425197
11
0.5759683858267717
21
1.3648923228346457
0
LINE
8
BLACK
6
CONTINUOUS
10
0.5759683858267717
20
1.3648923228346457
11
0.5783337401574803
21
1.3576125196850393
0
LINE
8
BLACK
6
CONTINUOUS
10
0.5783337401574803
20
1.3576125196850393
11
0.5791338582677166
21
1.3499999999999999
0
LINE
8
BLACK
6
CONTINUOUS
10
0.5791338582677166
20
1.3499999999999999
11
0.5783337401574803
21
1.3423874803149607
0
LINE
8
BLACK
6
CONTINUOUS
10
0.5783337401574803
20
1.3423874803149607
11
0.5759683858267717
21
1.3351076771653543
0
LINE
8
BLACK
6
CONTINUOUS
10
0.5759683858267717
20
1.3351076771653543
11
0.5721411811023622
21
1.3284787401574802
0
LINE
8
BLACK
6
CONTINUOUS
10
0.5721411811023622
20
1.3284787401574802
11
0.5670193307086614
21
1.3227903543307087
0
LINE
8
BLACK
6
CONTINUOUS
10
0.5670193307086614
20
1.3227903543307087
11
0.5608267716535433
21
1.3182911811023621
0
LINE
8
BLACK
6
CONTINUOUS
10
0.5608267716535433
20
1.3182911811023621
11
0.553834094488189
21
1.3151778346456693
0
LINE
8
BLACK
6
CONTINUOUS
10
0.553834094488189
20
1.3151778346456693
11
0.5463468897637795
21
1.3135864173228347
0
LINE
8
BLACK
6
CONTINUOUS
10
0.5463468897637795
20
1.3135864173228347
11
0.5386924803149606
21
1.3135864173228347
0
LINE
8
BLACK
6
CONTINUOUS
10
0.5386924803149606
20
1.3135864173228347
11
0.5312052755905512
21
1.3151778346456693
0
LINE
8
BLACK
6
CONTINUOUS
10
0.5312052755905512
20
1.3151778346456693
11
0.5242125984251969
21
1.3182911811023621
0
LINE
8
BLACK
6
CONTINUOUS
10
0.5242125984251969
20
1.3182911811023621
11
0.5180200393700787
21
1.3227903543307087
0
LINE
8
BLACK
6
CONTINUOUS
10
0.5180200393700787
20
1.3227903543307087
11
0.512898188976378
21
1.3284787401574802
0
LINE
8
BLACK
6
CONTINUOUS
10
0.512898188976378
20
1.3284787401574802
11
0.5090709842519685
21
1.3351076771653543
0
LINE
8
BLACK
6
CONTINUOUS
10
0.5090709842519685
20
1.3351076771653543
11
0.5067056299212598
21
1.3423874803149607
0
LINE
8
BLACK
6
CONTINUOUS
10
0.5067056299212598
20
1.3423874803149607
11
0.5059055118110236
21
1.3499999999999999
0
LINE
8
BLACK
6
CONTINUOUS
10
0.5059055118110236
20
1.3499999999999999
11
0.5067056299212598
21
1.3576125196850393
0
LINE
8
BLACK
6
CONTINUOUS
10
0.5067056299212598
20
1.3576125196850393
11
0.5090709842519685
21
1.3648923228346457
0
LINE
8
BLACK
6
CONTINUOUS
10
0.5090709842519685
20
1.3648923228346457
11
0.512898188976378
21
1.3715212598425197
0
LINE
8
BLACK
6
CONTINUOUS
10
0.512898188976378
20
1.3715212598425197
11
0.5180200393700787
21
1.3772096456692913
0
LINE
8
BLACK
6
CONTINUOUS
10
0.5180200393700787
20
1.3772096456692913
11
0.5242125984251969
21
1.3817088188976379
0
LINE
8
BLACK
6
CONTINUOUS
10
0.5242125984251969
20
1.3817088188976379
11
0.5312052755905512
21
1.3848221653543307
0
LINE
8
BLACK
6
CONTINUOUS
10
0.5312052755905512
20
1.3848221653543307
11
0.5386924803149606
21
1.3864135826771653
0
LINE
8
BLACK
6
CONTINUOUS
10
0.5386924803149606
20
1.3864135826771653
11
0.5463468897637795
21
1.3864135826771653
0
LINE
8
BLACK
6
CONTINUOUS
10
0.5463468897637795
20
1.3864135826771653
11
0.553834094488189
21
1.3848221653543307
0
LINE
8
BLACK
6
CONTINUOUS
10
0.653834094488189
20
1.3848221653543307
11
0.6608267716535433
21
1.3817088188976379
0
LINE
8
BLACK
6
CONTINUOUS
10
0.6608267716535433
20
1.3817088188976379
11
0.6670193307086614
21
1.3772096456692913
0
LINE
8
BLACK
6
CONTINUOUS
10
0.6670193307086614
20
1.3772096456692913
11
0.6721411811023622
21
1.3715212598425197
0
LINE
8
BLACK
6
CONTINUOUS
10
0.6721411811023622
20
1.3715212598425197
11
0.6759683858267717
21
1.3648923228346457
0
LINE
8
BLACK
6
CONTINUOUS
10
0.6759683858267717
20
1.3648923228346457
11
0.6783337401574803
21
1.3576125196850393
0
LINE
8
BLACK
6
CONTINUOUS
10
0.6783337401574803
20
1.3576125196850393
11
0.6791338582677166
21
1.3499999999999999
0
LINE
8
BLACK
6
CONTINUOUS
10
0.6791338582677166
20
1.3499999999999999
11
0.6783337401574803
21
1.3423874803149607
0
LINE
8
BLACK
6
CONTINUOUS
10
0.6783337401574803
20
1.3423874803149607
11
0.6759683858267717
21
1.3351076771653543
0
LINE
8
BLACK
6
CONTINUOUS
10
0.6759683858267717
20
1.3351076771653543
11
0.6721411811023622
21
1.3284787401574802
0
LINE
8
BLACK
6
CONTINUOUS
10
0.6721411811023622
20
1.3284787401574802
11
0.6670193307086614
21
1.3227903543307087
0
LINE
8
BLACK
6
CONTINUOUS
10
0.6670193307086614
20
1.3227903543307087
11
0.6608267716535433
21
1.3182911811023621
0
LINE
8
BLACK
6
CONTINUOUS
10
0.6608267716535433
20
1.3182911811023621
11
0.653834094488189
21
1.3151778346456693
0
LINE
8
BLACK
6
CONTINUOUS
10
0.653834094488189
20
1.3151778346456693
11
0.6463468897637795
21
1.3135864173228347
0
LINE
8
BLACK
6
CONTINUOUS
10
0.6463468897637795
20
1.3135864173228347
11
0.6386924803149606
21
1.3135864173228347
0
LINE
8
BLACK
6
CONTINUOUS
10
0.6386924803149606
20
1.3135864173228347
11
0.6312052755905512
21
1.3151778346456693
0
LINE
8
BLACK
6
CONTINUOUS
10
0.6312052755905512
20
1.3151778346456693
11
0.6242125984251968
21
1.3182911811023621
0
LINE
8
BLACK
6
CONTINUOUS
10
0.6242125984251968
20
1.3182911811023621
11
0.6180200393700788
21
1.3227903543307087
0
LINE
8
BLACK
6
CONTINUOUS
10
0.6180200393700788
20
1.3227903543307087
11
0.6128981889763779
21
1.3284787401574802
0
LINE
8
BLACK
6
CONTINUOUS
10
0.6128981889763779
20
1.3284787401574802
11
0.6090709842519685
21
1.3351076771653543
0
LINE
8
BLACK
6
CONTINUOUS
10
0.6090709842519685
20
1.3351076771653543
11
0.6067056299212599
21
1.3423874803149607
0
LINE
8
BLACK
6
CONTINUOUS
10
0.6067056299212599
20
1.3423874803149607
11
0.6059055118110236
21
1.3499999999999999
0
LINE
8
BLACK
6
CONTINUOUS
10
0.6059055118110236
20
1.3499999999999999
11
0.6067056299212599
21
1.3576125196850393
0
LINE
8
BLACK
6
CONTINUOUS
10
0.6067056299212599
20
1.3576125196850393
11
0.6090709842519685
21
1.3648923228346457
0
LINE
8
BLACK
6
CONTINUOUS
10
0.6090709842519685
20
1.3648923228346457
11
0.6128981889763779
21
1.3715212598425197
0
LINE
8
BLACK
6
CONTINUOUS
10
0.6128981889763779
20
1.3715212598425197
11
0.6180200393700788
21
1.3772096456692913
0
LINE
8
BLACK
6
CONTINUOUS
10
0.6180200393700788
20
1.3772096456692913
11
0.6242125984251968
21
1.3817088188976379
0
LINE
8
BLACK
6
CONTINUOUS
10
0.6242125984251968
20
1.3817088188976379
11
0.6312052755905512
21
1.3848221653543307
0
LINE
8
BLACK
6
CONTINUOUS
10
0.6312052755905512
20
1.3848221653543307
11
0.6386924803149606
21
1.3864135826771653
0
LINE
8
BLACK
6
CONTINUOUS
10
0.6386924803149606
20
1.3864135826771653
11
0.6463468897637795
21
1.3864135826771653
0
LINE
8
BLACK
6
CONTINUOUS
10
0.6463468897637795
20
1.3864135826771653
11
0.653834094488189
21
1.3848221653543307
0
LINE
8
BLACK
6
CONTINUOUS
10
0.553834094488189
20
1.4848221653543308
11
0.5608267716535433
21
1.4817088188976377
0
LINE
8
BLACK
6
CONTINUOUS
10
0.5608267716535433
20
1.4817088188976377
11
0.5670193307086614
21
1.4772096456692914
0
LINE
8
BLACK
6
CONTINUOUS
10
0.5670193307086614
20
1.4772096456692914
11
0.5721411811023622
21
1.4715212598425196
0
LINE
8
BLACK
6
CONTINUOUS
10
0.5721411811023622
20
1.4715212598425196
11
0.5759683858267717
21
1.4648923228346455
0
LINE
8
BLACK
6
CONTINUOUS
10
0.5759683858267717
20
1.4648923228346455
11
0.5783337401574803
21
1.4576125196850394
0
LINE
8
BLACK
6
CONTINUOUS
10
0.5783337401574803
20
1.4576125196850394
11
0.5791338582677166
21
1.45
0
LINE
8
BLACK
6
CONTINUOUS
10
0.5791338582677166
20
1.45
11
0.5783337401574803
21
1.4423874803149606
0
LINE
8
BLACK
6
CONTINUOUS
10
0.5783337401574803
20
1.4423874803149606
11
0.5759683858267717
21
1.4351076771653544
0
LINE
8
BLACK
6
CONTINUOUS
10
0.5759683858267717
20
1.4351076771653544
11
0.5721411811023622
21
1.4284787401574803
0
LINE
8
BLACK
6
CONTINUOUS
10
0.5721411811023622
20
1.4284787401574803
11
0.5670193307086614
21
1.4227903543307086
0
LINE
8
BLACK
6
CONTINUOUS
10
0.5670193307086614
20
1.4227903543307086
11
0.5608267716535433
21
1.4182911811023622
0
LINE
8
BLACK
6
CONTINUOUS
10
0.5608267716535433
20
1.4182911811023622
11
0.553834094488189
21
1.4151778346456692
0
LINE
8
BLACK
6
CONTINUOUS
10
0.553834094488189
20
1.4151778346456692
11
0.5463468897637795
21
1.4135864173228345
0
LINE
8
BLACK
6
CONTINUOUS
10
0.5463468897637795
20
1.4135864173228345
11
0.5386924803149606
21
1.4135864173228345
0
LINE
8
BLACK
6
CONTINUOUS
10
0.5386924803149606
20
1.4135864173228345
11
0.5312052755905512
21
1.4151778346456692
0
LINE
8
BLACK
6
CONTINUOUS
10
0.5312052755905512
20
1.4151778346456692
11
0.5242125984251969
21
1.4182911811023622
0
LINE
8
BLACK
6
CONTINUOUS
10
0.5242125984251969
20
1.4182911811023622
11
0.5180200393700787
21
1.4227903543307086
0
LINE
8
BLACK
6
CONTINUOUS
10
0.5180200393700787
20
1.4227903543307086
11
0.512898188976378
21
1.4284787401574803
0
LINE
8
BLACK
6
CONTINUOUS
10
0.512898188976378
20
1.4284787401574803
11
0.5090709842519685
21
1.4351076771653544
0
LINE
8
BLACK
6
CONTINUOUS
10
0.5090709842519685
20
1.4351076771653544
11
0.5067056299212598
21
1.4423874803149606
0
LINE
8
BLACK
6
CONTINUOUS
10
0.5067056299212598
20
1.4423874803149606
11
0.5059055118110236
21
1.45
0
LINE
8
BLACK
6
CONTINUOUS
10
0.5059055118110236
20
1.45
11
0.5067056299212598
21
1.4576125196850394
0
LINE
8
BLACK
6
CONTINUOUS
10
0.5067056299212598
20
1.4576125196850394
11
0.5090709842519685
21
1.4648923228346455
0
LINE
8
BLACK
6
CONTINUOUS
10
0.5090709842519685
20
1.4648923228346455
11
0.512898188976378
21
1.4715212598425196
0
LINE
8
BLACK
6
CONTINUOUS
10
0.512898188976378
20
1.4715212598425196
11
0.5180200393700787
21
1.4772096456692914
0
LINE
8
BLACK
6
CONTINUOUS
10
0.5180200393700787
20
1.4772096456692914
11
0.5242125984251969
21
1.4817088188976377
0
LINE
8
BLACK
6
CONTINUOUS
10
0.5242125984251969
20
1.4817088188976377
11
0.5312052755905512
21
1.4848221653543308
0
LINE
8
BLACK
6
CONTINUOUS
10
0.5312052755905512
20
1.4848221653543308
11
0.5386924803149606
21
1.4864135826771654
0
LINE
8
BLACK
6
CONTINUOUS
10
0.5386924803149606
20
1.4864135826771654
11
0.5463468897637795
21
1.4864135826771654
0
LINE
8
BLACK
6
CONTINUOUS
10
0.5463468897637795
20
1.4864135826771654
11
0.553834094488189
21
1.4848221653543308
0
LINE
8
BLACK
6
CONTINUOUS
10
0.653834094488189
20
1.4848221653543308
11
0.6608267716535433
21
1.4817088188976377
0
LINE
8
BLACK
6
CONTINUOUS
10
0.6608267716535433
20
1.4817088188976377
11
0.6670193307086614
21
1.4772096456692914
0
LINE
8
BLACK
6
CONTINUOUS
10
0.6670193307086614
20
1.4772096456692914
11
0.6721411811023622
21
1.4715212598425196
0
LINE
8
BLACK
6
CONTINUOUS
10
0.6721411811023622
20
1.4715212598425196
11
0.6759683858267717
21
1.4648923228346455
0
LINE
8
BLACK
6
CONTINUOUS
10
0.6759683858267717
20
1.4648923228346455
11
0.6783337401574803
21
1.4576125196850394
0
LINE
8
BLACK
6
CONTINUOUS
10
0.6783337401574803
20
1.4576125196850394
11
0.6791338582677166
21
1.45
0
LINE
8
BLACK
6
CONTINUOUS
10
0.6791338582677166
20
1.45
11
0.6783337401574803
21
1.4423874803149606
0
LINE
8
BLACK
6
CONTINUOUS
10
0.6783337401574803
20
1.4423874803149606
11
0.6759683858267717
21
1.4351076771653544
0
LINE
8
BLACK
6
CONTINUOUS
10
0.6759683858267717
20
1.4351076771653544
11
0.6721411811023622
21
1.4284787401574803
0
LINE
8
BLACK
6
CONTINUOUS
10
0.6721411811023622
20
1.4284787401574803
11
0.6670193307086614
21
1.4227903543307086
0
LINE
8
BLACK
6
CONTINUOUS
10
0.6670193307086614
20
1.4227903543307086
11
0.6608267716535433
21
1.4182911811023622
0
LINE
8
BLACK
6
CONTINUOUS
10
0.6608267716535433
20
1.4182911811023622
11
0.653834094488189
21
1.4151778346456692
0
LINE
8
BLACK
6
CONTINUOUS
10
0.653834094488189
20
1.4151778346456692
11
0.6463468897637795
21
1.4135864173228345
0
LINE
8
BLACK
6
CONTINUOUS
10
0.6463468897637795
20
1.4135864173228345
11
0.6386924803149606
21
1.4135864173228345
0
LINE
8
BLACK
6
CONTINUOUS
10
0.6386924803149606
20
1.4135864173228345
11
0.6312052755905512
21
1.4151778346456692
0
LINE
8
BLACK
6
CONTINUOUS
10
0.6312052755905512
20
1.4151778346456692
11
0.6242125984251968
21
1.4182911811023622
0
LINE
8
BLACK
6
CONTINUOUS
10
0.6242125984251968
20
1.4182911811023622
11
0.6180200393700788
21
1.4227903543307086
0
LINE
8
BLACK
6
CONTINUOUS
10
0.6180200393700788
20
1.4227903543307086
11
0.6128981889763779
21
1.4284787401574803
0
LINE
8
BLACK
6
CONTINUOUS
10
0.6128981889763779
20
1.4284787401574803
11
0.6090709842519685
21
1.4351076771653544
0
LINE
8
BLACK
6
CONTINUOUS
10
0.6090709842519685
20
1.4351076771653544
11
0.6067056299212599
21
1.4423874803149606
0
LINE
8
BLACK
6
CONTINUOUS
10
0.6067056299212599
20
1.4423874803149606
11
0.6059055118110236
21
1.45
0
LINE
8
BLACK
6
CONTINUOUS
10
0.6059055118110236
20
1.45
11
0.6067056299212599
21
1.4576125196850394
0
LINE
8
BLACK
6
CONTINUOUS
10
0.6067056299212599
20
1.4576125196850394
11
0.6090709842519685
21
1.4648923228346455
0
LINE
8
BLACK
6
CONTINUOUS
10
0.6090709842519685
20
1.4648923228346455
11
0.6128981889763779
21
1.4715212598425196
0
LINE
8
BLACK
6
CONTINUOUS
10
0.6128981889763779
20
1.4715212598425196
11
0.6180200393700788
21
1.4772096456692914
0
LINE
8
BLACK
6
CONTINUOUS
10
0.6180200393700788
20
1.4772096456692914
11
0.6242125984251968
21
1.4817088188976377
0
LINE
8
BLACK
6
CONTINUOUS
10
0.6242125984251968
20
1.4817088188976377
11
0.6312052755905512
21
1.4848221653543308
0
LINE
8
BLACK
6
CONTINUOUS
10
0.6312052755905512
20
1.4848221653543308
11
0.6386924803149606
21
1.4864135826771654
0
LINE
8
BLACK
6
CONTINUOUS
10
0.6386924803149606
20
1.4864135826771654
11
0.6463468897637795
21
1.4864135826771654
0
LINE
8
BLACK
6
CONTINUOUS
10
0.6463468897637795
20
1.4864135826771654
11
0.653834094488189
21
1.4848221653543308
0
LINE
8
BLACK
6
CONTINUOUS
10
0.4135768503937008
20
1.7204974015748031
11
0.426982874015748
21
1.7182196062992126
0
LINE
8
BLACK
6
CONTINUOUS
10
0.426982874015748
20
1.7182196062992126
11
0.4400496456692913
21
1.7144551574803149
0
LINE
8
BLACK
6
CONTINUOUS
10
0.4400496456692913
20
1.7144551574803149
11
0.4526127165354331
21
1.7092513385826771
0
LINE
8
BLACK
6
CONTINUOUS
10
0.4526127165354331
20
1.7092513385826771
11
0.4645141732283464
21
1.7026736614173228
0
LINE
8
BLACK
6
CONTINUOUS
10
0.4645141732283464
20
1.7026736614173228
11
0.4756043307086614
21
1.6948047637795276
0
LINE
8
BLACK
6
CONTINUOUS
10
0.4756043307086614
20
1.6948047637795276
11
0.4857437007874016
21
1.6857436614173229
0
LINE
8
BLACK
6
CONTINUOUS
10
0.4857437007874016
20
1.6857436614173229
11
0.4948048031496063
21
1.6756042913385827
0
LINE
8
BLACK
6
CONTINUOUS
10
0.4948048031496063
20
1.6756042913385827
11
0.5026737007874016
21
1.6645141338582676
0
LINE
8
BLACK
6
CONTINUOUS
10
0.5026737007874016
20
1.6645141338582676
11
0.5092513779527559
21
1.6526126771653542
0
LINE
8
BLACK
6
CONTINUOUS
10
0.5092513779527559
20
1.6526126771653542
11
0.5144551968503936
21
1.6400496062992125
0
LINE
8
BLACK
6
CONTINUOUS
10
0.5144551968503936
20
1.6400496062992125
11
0.5182196456692914
21
1.6269828346456692
0
LINE
8
BLACK
6
CONTINUOUS
10
0.5182196456692914
20
1.6269828346456692
11
0.5204974409448819
21
1.6135768110236219
0
LINE
8
BLACK
6
CONTINUOUS
10
0.5204974409448819
20
1.6135768110236219
11
0.5212598818897638
21
1.5999999999999999
0
LINE
8
BLACK
6
CONTINUOUS
10
0.5212598818897638
20
1.5999999999999999
11
0.5204974409448819
21
1.586423188976378
0
LINE
8
BLACK
6
CONTINUOUS
10
0.5204974409448819
20
1.586423188976378
11
0.5182196456692914
21
1.5730171653543308
0
LINE
8
BLACK
6
CONTINUOUS
10
0.5182196456692914
20
1.5730171653543308
11
0.5144551968503936
21
1.5599503937007875
0
LINE
8
BLACK
6
CONTINUOUS
10
0.5144551968503936
20
1.5599503937007875
11
0.5092513779527559
21
1.5473873228346455
0
LINE
8
BLACK
6
CONTINUOUS
10
0.5092513779527559
20
1.5473873228346455
11
0.5026737007874016
21
1.5354858661417323
0
LINE
8
BLACK
6
CONTINUOUS
10
0.5026737007874016
20
1.5354858661417323
11
0.4948048031496063
21
1.5243957086614173
0
LINE
8
BLACK
6
CONTINUOUS
10
0.4948048031496063
20
1.5243957086614173
11
0.4857437007874016
21
1.5142563385826771
0
LINE
8
BLACK
6
CONTINUOUS
10
0.4857437007874016
20
1.5142563385826771
11
0.4756043307086614
21
1.5051952362204724
0
LINE
8
BLACK
6
CONTINUOUS
10
0.4756043307086614
20
1.5051952362204724
11
0.4645141732283464
21
1.4973263385826772
0
LINE
8
BLACK
6
CONTINUOUS
10
0.4645141732283464
20
1.4973263385826772
11
0.4526127165354331
21
1.4907486614173229
0
LINE
8
BLACK
6
CONTINUOUS
10
0.4526127165354331
20
1.4907486614173229
11
0.4400496456692913
21
1.4855448425196851
0
LINE
8
BLACK
6
CONTINUOUS
10
0.4400496456692913
20
1.4855448425196851
11
0.426982874015748
21
1.4817803937007874
0
LINE
8
BLACK
6
CONTINUOUS
10
0.426982874015748
20
1.4817803937007874
11
0.4135768503937008
21
1.4795025984251968
0
LINE
8
BLACK
6
CONTINUOUS
10
0.4135768503937008
20
1.4795025984251968
11
0.4000000393700787
21
1.478740157480315
0
LINE
8
BLACK
6
CONTINUOUS
10
0.4000000393700787
20
1.478740157480315
11
0.3864232283464567
21
1.4795025984251968
0
LINE
8
BLACK
6
CONTINUOUS
10
0.3864232283464567
20
1.4795025984251968
11
0.3730172047244095
21
1.4817803937007874
0
LINE
8
BLACK
6
CONTINUOUS
10
0.3730172047244095
20
1.4817803937007874
11
0.3599504330708662
21
1.4855448425196851
0
LINE
8
BLACK
6
CONTINUOUS
10
0.3599504330708662
20
1.4855448425196851
11
0.3473873622047244
21
1.4907486614173229
0
LINE
8
BLACK
6
CONTINUOUS
10
0.3473873622047244
20
1.4907486614173229
11
0.335485905511811
21
1.4973263385826772
0
LINE
8
BLACK
6
CONTINUOUS
10
0.335485905511811
20
1.4973263385826772
11
0.3243957480314961
21
1.5051952362204724
0
LINE
8
BLACK
6
CONTINUOUS
10
0.3243957480314961
20
1.5051952362204724
11
0.3142563779527559
21
1.5142563385826771
0
LINE
8
BLACK
6
CONTINUOUS
10
0.3142563779527559
20
1.5142563385826771
11
0.3051952755905512
21
1.5243957086614173
0
LINE
8
BLACK
6
CONTINUOUS
10
0.3051952755905512
20
1.5243957086614173
11
0.2973263779527559
21
1.5354858661417323
0
LINE
8
BLACK
6
CONTINUOUS
10
0.2973263779527559
20
1.5354858661417323
11
0.2907487007874016
21
1.5473873228346455
0
LINE
8
BLACK
6
CONTINUOUS
10
0.2907487007874016
20
1.5473873228346455
11
0.2855448818897638
21
1.5599503937007875
0
LINE
8
BLACK
6
CONTINUOUS
10
0.2855448818897638
20
1.5599503937007875
11
0.2817804330708661
21
1.5730171653543308
0
LINE
8
BLACK
6
CONTINUOUS
10
0.2817804330708661
20
1.5730171653543308
11
0.2795026377952756
21
1.586423188976378
0
LINE
8
BLACK
6
CONTINUOUS
10
0.2795026377952756
20
1.586423188976378
11
0.2787401968503937
21
1.5999999999999999
0
LINE
8
BLACK
6
CONTINUOUS
10
0.2787401968503937
20
1.5999999999999999
11
0.2795026377952756
21
1.6135768110236219
0
LINE
8
BLACK
6
CONTINUOUS
10
0.2795026377952756
20
1.6135768110236219
11
0.2817804330708661
21
1.6269828346456692
0
LINE
8
BLACK
6
CONTINUOUS
10
0.2817804330708661
20
1.6269828346456692
11
0.2855448818897638
21
1.6400496062992125
0
LINE
8
BLACK
6
CONTINUOUS
10
0.2855448818897638
20
1.6400496062992125
11
0.2907487007874016
21
1.6526126771653542
0
LINE
8
BLACK
6
CONTINUOUS
10
0.2907487007874016
20
1.6526126771653542
11
0.2973263779527559
21
1.6645141338582676
0
LINE
8
BLACK
6
CONTINUOUS
10
0.2973263779527559
20
1.6645141338582676
11
0.3051952755905512
21
1.6756042913385827
0
LINE
8
BLACK
6
CONTINUOUS
10
0.3051952755905512
20
1.6756042913385827
11
0.3142563779527559
21
1.6857436614173229
0
LINE
8
BLACK
6
CONTINUOUS
10
0.3142563779527559
20
1.6857436614173229
11
0.3243957480314961
21
1.6948047637795276
0
LINE
8
BLACK
6
CONTINUOUS
10
0.3243957480314961
20
1.6948047637795276
11
0.335485905511811
21
1.7026736614173228
0
LINE
8
BLACK
6
CONTINUOUS
10
0.335485905511811
20
1.7026736614173228
11
0.3473873622047244
21
1.7092513385826771
0
LINE
8
BLACK
6
CONTINUOUS
10
0.3473873622047244
20
1.7092513385826771
11
0.3599504330708662
21
1.7144551574803149
0
LINE
8
BLACK
6
CONTINUOUS
10
0.3599504330708662
20
1.7144551574803149
11
0.3730172047244095
21
1.7182196062992126
0
LINE
8
BLACK
6
CONTINUOUS
10
0.3730172047244095
20
1.7182196062992126
11
0.3864232283464567
21
1.7204974015748031
0
LINE
8
BLACK
6
CONTINUOUS
10
0.3864232283464567
20
1.7204974015748031
11
0.4000000393700787
21
1.721259842519685
0
LINE
8
BLACK
6
CONTINUOUS
10
0.4000000393700787
20
1.721259842519685
11
0.4135768503937008
21
1.7204974015748031
0
LINE
8
BLACK
6
CONTINUOUS
10
0.8135768503937008
20
1.7204974015748031
11
0.826982874015748
21
1.7182196062992126
0
LINE
8
BLACK
6
CONTINUOUS
10
0.826982874015748
20
1.7182196062992126
11
0.8400496456692913
21
1.7144551574803149
0
LINE
8
BLACK
6
CONTINUOUS
10
0.8400496456692913
20
1.7144551574803149
11
0.852612716535433
21
1.7092513385826771
0
LINE
8
BLACK
6
CONTINUOUS
10
0.852612716535433
20
1.7092513385826771
11
0.8645141732283464
21
1.7026736614173228
0
LINE
8
BLACK
6
CONTINUOUS
10
0.8645141732283464
20
1.7026736614173228
11
0.8756043307086614
21
1.6948047637795276
0
LINE
8
BLACK
6
CONTINUOUS
10
0.8756043307086614
20
1.6948047637795276
11
0.8857437007874015
21
1.6857436614173229
0
LINE
8
BLACK
6
CONTINUOUS
10
0.8857437007874015
20
1.6857436614173229
11
0.8948048031496063
21
1.6756042913385827
0
LINE
8
BLACK
6
CONTINUOUS
10
0.8948048031496063
20
1.6756042913385827
11
0.9026737007874015
21
1.6645141338582676
0
LINE
8
BLACK
6
CONTINUOUS
10
0.9026737007874015
20
1.6645141338582676
11
0.9092513779527559
21
1.6526126771653542
0
LINE
8
BLACK
6
CONTINUOUS
10
0.9092513779527559
20
1.6526126771653542
11
0.9144551968503937
21
1.6400496062992125
0
LINE
8
BLACK
6
CONTINUOUS
10
0.9144551968503937
20
1.6400496062992125
11
0.9182196456692913
21
1.6269828346456692
0
LINE
8
BLACK
6
CONTINUOUS
10
0.9182196456692913
20
1.6269828346456692
11
0.9204974409448818
21
1.6135768110236219
0
LINE
8
BLACK
6
CONTINUOUS
10
0.9204974409448818
20
1.6135768110236219
11
0.9212598818897637
21
1.5999999999999999
0
LINE
8
BLACK
6
CONTINUOUS
10
0.9212598818897637
20
1.5999999999999999
11
0.9204974409448818
21
1.586423188976378
0
LINE
8
BLACK
6
CONTINUOUS
10
0.9204974409448818
20
1.586423188976378
11
0.9182196456692913
21
1.5730171653543308
0
LINE
8
BLACK
6
CONTINUOUS
10
0.9182196456692913
20
1.5730171653543308
11
0.9144551968503937
21
1.5599503937007875
0
LINE
8
BLACK
6
CONTINUOUS
10
0.9144551968503937
20
1.5599503937007875
11
0.9092513779527559
21
1.5473873228346455
0
LINE
8
BLACK
6
CONTINUOUS
10
0.9092513779527559
20
1.5473873228346455
11
0.9026737007874015
21
1.5354858661417323
0
LINE
8
BLACK
6
CONTINUOUS
10
0.9026737007874015
20
1.5354858661417323
11
0.8948048031496063
21
1.5243957086614173
0
LINE
8
BLACK
6
CONTINUOUS
10
0.8948048031496063
20
1.5243957086614173
11
0.8857437007874015
21
1.5142563385826771
0
LINE
8
BLACK
6
CONTINUOUS
10
0.8857437007874015
20
1.5142563385826771
11
0.8756043307086614
21
1.5051952362204724
0
LINE
8
BLACK
6
CONTINUOUS
10
0.8756043307086614
20
1.5051952362204724
11
0.8645141732283464
21
1.4973263385826772
0
LINE
8
BLACK
6
CONTINUOUS
10
0.8645141732283464
20
1.4973263385826772
11
0.852612716535433
21
1.4907486614173229
0
LINE
8
BLACK
6
CONTINUOUS
10
0.852612716535433
20
1.4907486614173229
11
0.8400496456692913
21
1.4855448425196851
0
LINE
8
BLACK
6
CONTINUOUS
10
0.8400496456692913
20
1.4855448425196851
11
0.826982874015748
21
1.4817803937007874
0
LINE
8
BLACK
6
CONTINUOUS
10
0.826982874015748
20
1.4817803937007874
11
0.8135768503937008
21
1.4795025984251968
0
LINE
8
BLACK
6
CONTINUOUS
10
0.8135768503937008
20
1.4795025984251968
11
0.8000000393700787
21
1.478740157480315
0
LINE
8
BLACK
6
CONTINUOUS
10
0.8000000393700787
20
1.478740157480315
11
0.7864232283464567
21
1.4795025984251968
0
LINE
8
BLACK
6
CONTINUOUS
10
0.7864232283464567
20
1.4795025984251968
11
0.7730172047244094
21
1.4817803937007874
0
LINE
8
BLACK
6
CONTINUOUS
10
0.7730172047244094
20
1.4817803937007874
11
0.7599504330708661
21
1.4855448425196851
0
LINE
8
BLACK
6
CONTINUOUS
10
0.7599504330708661
20
1.4855448425196851
11
0.7473873622047243
21
1.4907486614173229
0
LINE
8
BLACK
6
CONTINUOUS
10
0.7473873622047243
20
1.4907486614173229
11
0.735485905511811
21
1.4973263385826772
0
LINE
8
BLACK
6
CONTINUOUS
10
0.735485905511811
20
1.4973263385826772
11
0.7243957480314961
21
1.5051952362204724
0
LINE
8
BLACK
6
CONTINUOUS
10
0.7243957480314961
20
1.5051952362204724
11
0.7142563779527559
21
1.5142563385826771
0
LINE
8
BLACK
6
CONTINUOUS
10
0.7142563779527559
20
1.5142563385826771
11
0.7051952755905512
21
1.5243957086614173
0
LINE
8
BLACK
6
CONTINUOUS
10
0.7051952755905512
20
1.5243957086614173
11
0.6973263779527559
21
1.5354858661417323
0
LINE
8
BLACK
6
CONTINUOUS
10
0.6973263779527559
20
1.5354858661417323
11
0.6907487007874016
21
1.5473873228346455
0
LINE
8
BLACK
6
CONTINUOUS
10
0.6907487007874016
20
1.5473873228346455
11
0.6855448818897638
21
1.5599503937007875
0
LINE
8
BLACK
6
CONTINUOUS
10
0.6855448818897638
20
1.5599503937007875
11
0.6817804330708661
21
1.5730171653543308
0
LINE
8
BLACK
6
CONTINUOUS
10
0.6817804330708661
20
1.5730171653543308
11
0.6795026377952755
21
1.586423188976378
0
LINE
8
BLACK
6
CONTINUOUS
10
0.6795026377952755
20
1.586423188976378
11
0.6787401968503937
21
1.5999999999999999
0
LINE
8
BLACK
6
CONTINUOUS
10
0.6787401968503937
20
1.5999999999999999
11
0.6795026377952755
21
1.6135768110236219
0
LINE
8
BLACK
6
CONTINUOUS
10
0.6795026377952755
20
1.6135768110236219
11
0.6817804330708661
21
1.6269828346456692
0
LINE
8
BLACK
6
CONTINUOUS
10
0.6817804330708661
20
1.6269828346456692
11
0.6855448818897638
21
1.6400496062992125
0
LINE
8
BLACK
6
CONTINUOUS
10
0.6855448818897638
20
1.6400496062992125
11
0.6907487007874016
21
1.6526126771653542
0
LINE
8
BLACK
6
CONTINUOUS
10
0.6907487007874016
20
1.6526126771653542
11
0.6973263779527559
21
1.6645141338582676
0
LINE
8
BLACK
6
CONTINUOUS
10
0.6973263779527559
20
1.6645141338582676
11
0.7051952755905512
21
1.6756042913385827
0
LINE
8
BLACK
6
CONTINUOUS
10
0.7051952755905512
20
1.6756042913385827
11
0.7142563779527559
21
1.6857436614173229
0
LINE
8
BLACK
6
CONTINUOUS
10
0.7142563779527559
20
1.6857436614173229
11
0.7243957480314961
21
1.6948047637795276
0
LINE
8
BLACK
6
CONTINUOUS
10
0.7243957480314961
20
1.6948047637795276
11
0.735485905511811
21
1.7026736614173228
0
LINE
8
BLACK
6
CONTINUOUS
10
0.735485905511811
20
1.7026736614173228
11
0.7473873622047243
21
1.7092513385826771
0
LINE
8
BLACK
6
CONTINUOUS
10
0.7473873622047243
20
1.7092513385826771
11
0.7599504330708661
21
1.7144551574803149
0
LINE
8
BLACK
6
CONTINUOUS
10
0.7599504330708661
20
1.7144551574803149
11
0.7730172047244094
21
1.7182196062992126
0
LINE
8
BLACK
6
CONTINUOUS
10
0.7730172047244094
20
1.7182196062992126
11
0.7864232283464567
21
1.7204974015748031
0
LINE
8
BLACK
6
CONTINUOUS
10
0.7864232283464567
20
1.7204974015748031
11
0.8000000393700787
21
1.721259842519685
0
LINE
8
BLACK
6
CONTINUOUS
10
0.8000000393700787
20
1.721259842519685
11
0.8135768503937008
21
1.7204974015748031
0
LINE
8
BLACK
6
CONTINUOUS
10
0.6076807086614173
20
1.7443773622047243
11
0.6150662598425197
21
1.7421370078740157
0
LINE
8
BLACK
6
CONTINUOUS
10
0.6150662598425197
20
1.7421370078740157
11
0.6218728346456692
21
1.7384988188976378
0
LINE
8
BLACK
6
CONTINUOUS
10
0.6218728346456692
20
1.7384988188976378
11
0.6278388582677166
21
1.7336026377952756
0
LINE
8
BLACK
6
CONTINUOUS
10
0.6278388582677166
20
1.7336026377952756
11
0.6327350393700787
21
1.7276366141732282
0
LINE
8
BLACK
6
CONTINUOUS
10
0.6327350393700787
20
1.7276366141732282
11
0.6363732283464567
21
1.7208300393700786
0
LINE
8
BLACK
6
CONTINUOUS
10
0.6363732283464567
20
1.7208300393700786
11
0.6386135826771654
21
1.7134444881889763
0
LINE
8
BLACK
6
CONTINUOUS
10
0.6386135826771654
20
1.7134444881889763
11
0.6393700787401575
21
1.7057637795275591
0
LINE
8
BLACK
6
CONTINUOUS
10
0.6393700787401575
20
1.7057637795275591
11
0.6386135826771654
21
1.6980830708661416
0
LINE
8
BLACK
6
CONTINUOUS
10
0.6386135826771654
20
1.6980830708661416
11
0.6363732283464567
21
1.6906975196850393
0
LINE
8
BLACK
6
CONTINUOUS
10
0.6363732283464567
20
1.6906975196850393
11
0.6327350393700787
21
1.6838909448818897
0
LINE
8
BLACK
6
CONTINUOUS
10
0.6327350393700787
20
1.6838909448818897
11
0.6278388582677166
21
1.6779249212598424
0
LINE
8
BLACK
6
CONTINUOUS
10
0.6278388582677166
20
1.6779249212598424
11
0.6218728346456692
21
1.6730287401574804
0
LINE
8
BLACK
6
CONTINUOUS
10
0.6218728346456692
20
1.6730287401574804
11
0.6150662598425197
21
1.6693905511811022
0
LINE
8
BLACK
6
CONTINUOUS
10
0.6150662598425197
20
1.6693905511811022
11
0.6076807086614173
21
1.6671501968503937
0
LINE
8
BLACK
6
CONTINUOUS
10
0.6076807086614173
20
1.6671501968503937
11
0.6
21
1.6663937007874015
0
LINE
8
BLACK
6
CONTINUOUS
10
0.6
20
1.6663937007874015
11
0.5923192913385826
21
1.6671501968503937
0
LINE
8
BLACK
6
CONTINUOUS
10
0.5923192913385826
20
1.6671501968503937
11
0.5849337401574803
21
1.6693905511811022
0
LINE
8
BLACK
6
CONTINUOUS
10
0.5849337401574803
20
1.6693905511811022
11
0.5781271653543307
21
1.6730287401574804
0
LINE
8
BLACK
6
CONTINUOUS
10
0.5781271653543307
20
1.6730287401574804
11
0.5721611417322835
21
1.6779249212598424
0
LINE
8
BLACK
6
CONTINUOUS
10
0.5721611417322835
20
1.6779249212598424
11
0.5672649606299213
21
1.6838909448818897
0
LINE
8
BLACK
6
CONTINUOUS
10
0.5672649606299213
20
1.6838909448818897
11
0.5636267716535432
21
1.6906975196850393
0
LINE
8
BLACK
6
CONTINUOUS
10
0.5636267716535432
20
1.6906975196850393
11
0.5613864173228347
21
1.6980830708661416
0
LINE
8
BLACK
6
CONTINUOUS
10
0.5613864173228347
20
1.6980830708661416
11
0.5606299212598425
21
1.7057637795275591
0
LINE
8
BLACK
6
CONTINUOUS
10
0.5606299212598425
20
1.7057637795275591
11
0.5613864173228347
21
1.7134444881889763
0
LINE
8
BLACK
6
CONTINUOUS
10
0.5613864173228347
20
1.7134444881889763
11
0.5636267716535432
21
1.7208300393700786
0
LINE
8
BLACK
6
CONTINUOUS
10
0.5636267716535432
20
1.7208300393700786
11
0.5672649606299213
21
1.7276366141732282
0
LINE
8
BLACK
6
CONTINUOUS
10
0.5672649606299213
20
1.7276366141732282
11
0.5721611417322835
21
1.7336026377952756
0
LINE
8
BLACK
6
CONTINUOUS
10
0.5721611417322835
20
1.7336026377952756
11
0.5781271653543307
21
1.7384988188976378
0
LINE
8
BLACK
6
CONTINUOUS
10
0.5781271653543307
20
1.7384988188976378
11
0.5849337401574803
21
1.7421370078740157
0
LINE
8
BLACK
6
CONTINUOUS
10
0.5849337401574803
20
1.7421370078740157
11
0.5923192913385826
21
1.7443773622047243
0
LINE
8
BLACK
6
CONTINUOUS
10
0.5923192913385826
20
1.7443773622047243
11
0.6
21
1.7451338582677165
0
LINE
8
BLACK
6
CONTINUOUS
10
0.6
20
1.7451338582677165
11
0.6076807086614173
21
1.7443773622047243
  0
ENDSEC
  0
EOF
