  0
SECTION
  2
HEADER
  9
$ANGBASE
  50
0.0
  9
$ANGDIR
  70
1
  9
$MEASUREMENT
  70
0
  0
ENDSEC
  0
SECTION
  2
TABLES
  0
TABLE
  2
LTYPE
  70
4
  0
LTYPE
  5
40F
  2
CONTINUOUS
  70
0
  3
Solid line
  72
65
  73
0
  40
0.0
  0
LTYPE
  5
410
  2
DASHDOT
 70
0
  3
Dash Dot ____ _ ____ _
 72
65
 73
4
 40
2.0
 49
1.25
 49
-0.25
 49
0.25
 49
-0.25
  0
LTYPE
  5
411
  2
DASHED
 70
0
  3
Dashed __ __ __ __ __
 72
65
 73
2
 40
0.75
 49
0.5
 49
-0.25
  0
LTYPE
  5
43B
  2
DOTTED
 70
0
  3
Dotted .  .  .  .
 72
65
 73
2
 40
0.2
 49
0.0
 49
-0.2
  0
ENDTAB
  0
TABLE
  2
STYLE
  70
4
  0
STYLE
  2
KICAD
  70
0
  40
0
  41
1
  42
1
  50
0
  71
0
  3
isocp.shx
  0
STYLE
  2
KICADB
  70
0
  40
0
  41
1
  42
1
  50
0
  71
0
  3
isocp.shx
  0
STYLE
  2
KICADI
  70
0
  40
0
  41
1
  42
1
  50
15
  71
0
  3
isocp.shx
  0
STYLE
  2
KICADBI
  70
0
  40
0
  41
1
  42
1
  50
15
  71
0
  3
isocp.shx
  0
ENDTAB
  0
TABLE
  2
LAYER
  70
1
  0
LAYER
  2
BLACK
  70
0
  62
7
  6
CONTINUOUS
  0
ENDTAB
  0
ENDSEC
  0
SECTION
  2
ENTITIES
0
LINE
8
BLACK
6
CONTINUOUS
10
0.5294601968503937
20
0.2204963385826772
11
0.529558188976378
21
0.2204557480314961
0
LINE
8
BLACK
6
CONTINUOUS
10
0.529558188976378
20
0.2204557480314961
11
0.5296640157480315
21
0.2204482283464567
0
LINE
8
BLACK
6
CONTINUOUS
10
0.5296640157480315
20
0.2204482283464567
11
0.5302046456692914
21
0.2202413385826772
0
LINE
8
BLACK
6
CONTINUOUS
10
0.5302046456692914
20
0.2202413385826772
11
0.5339541732283465
21
0.2183665748031496
0
LINE
8
BLACK
6
CONTINUOUS
10
0.5339541732283465
20
0.2183665748031496
11
0.5344440551181102
21
0.2180582283464567
0
LINE
8
BLACK
6
CONTINUOUS
10
0.5344440551181102
20
0.2180582283464567
11
0.5351988976377953
21
0.2171878346456693
0
LINE
8
BLACK
6
CONTINUOUS
10
0.5351988976377953
20
0.2171878346456693
11
0.5355632283464566
21
0.2160948818897638
0
LINE
8
BLACK
6
CONTINUOUS
10
0.5355632283464566
20
0.2160948818897638
11
0.5354815748031496
21
0.2149456692913386
0
LINE
8
BLACK
6
CONTINUOUS
10
0.5354815748031496
20
0.2149456692913386
11
0.5349662992125984
21
0.2139151574803149
0
LINE
8
BLACK
6
CONTINUOUS
10
0.5349662992125984
20
0.2139151574803149
11
0.5340959448818897
21
0.2131603149606299
0
LINE
8
BLACK
6
CONTINUOUS
10
0.5340959448818897
20
0.2131603149606299
11
0.5330029527559055
21
0.2127959842519685
0
LINE
8
BLACK
6
CONTINUOUS
10
0.5330029527559055
20
0.2127959842519685
11
0.5318537401574803
21
0.2128776377952756
0
LINE
8
BLACK
6
CONTINUOUS
10
0.5318537401574803
20
0.2128776377952756
11
0.5313131496062992
21
0.2130845275590551
0
LINE
8
BLACK
6
CONTINUOUS
10
0.5313131496062992
20
0.2130845275590551
11
0.5281870866141732
21
0.2146475590551181
0
LINE
8
BLACK
6
CONTINUOUS
10
0.5281870866141732
20
0.2146475590551181
11
0.522082125984252
21
0.2146475590551181
0
LINE
8
BLACK
6
CONTINUOUS
10
0.522082125984252
20
0.2146475590551181
11
0.5198363779527559
21
0.2135247244094488
0
LINE
8
BLACK
6
CONTINUOUS
10
0.5198363779527559
20
0.2135247244094488
11
0.5187135433070866
21
0.2112789763779528
0
LINE
8
BLACK
6
CONTINUOUS
10
0.5187135433070866
20
0.2112789763779528
11
0.5187135433070866
21
0.2100514173228346
0
LINE
8
BLACK
6
CONTINUOUS
10
0.5187135433070866
20
0.2100514173228346
11
0.5202073622047244
21
0.2093044881889764
0
LINE
8
BLACK
6
CONTINUOUS
10
0.5202073622047244
20
0.2093044881889764
11
0.5288841338582677
21
0.2093044881889764
0
LINE
8
BLACK
6
CONTINUOUS
10
0.5288841338582677
20
0.2093044881889764
11
0.5294601968503937
21
0.2092477559055118
0
LINE
8
BLACK
6
CONTINUOUS
10
0.5294601968503937
20
0.2092477559055118
11
0.529558188976378
21
0.2092071653543307
0
LINE
8
BLACK
6
CONTINUOUS
10
0.529558188976378
20
0.2092071653543307
11
0.5296640157480315
21
0.2091996456692913
0
LINE
8
BLACK
6
CONTINUOUS
10
0.5296640157480315
20
0.2091996456692913
11
0.5302046456692914
21
0.2089927559055118
0
LINE
8
BLACK
6
CONTINUOUS
10
0.5302046456692914
20
0.2089927559055118
11
0.5339541732283465
21
0.2071179921259843
0
LINE
8
BLACK
6
CONTINUOUS
10
0.5339541732283465
20
0.2071179921259843
11
0.5340505118110236
21
0.2070573622047244
0
LINE
8
BLACK
6
CONTINUOUS
10
0.5340505118110236
20
0.2070573622047244
11
0.5340959448818897
21
0.2070422047244095
0
LINE
8
BLACK
6
CONTINUOUS
10
0.5340959448818897
20
0.2070422047244095
11
0.5341524803149607
21
0.2069931889763779
0
LINE
8
BLACK
6
CONTINUOUS
10
0.5341524803149607
20
0.2069931889763779
11
0.5344440551181102
21
0.2068096456692913
0
LINE
8
BLACK
6
CONTINUOUS
10
0.5344440551181102
20
0.2068096456692913
11
0.5346866141732284
21
0.2065299606299213
0
LINE
8
BLACK
6
CONTINUOUS
10
0.5346866141732284
20
0.2065299606299213
11
0.5349663385826772
21
0.2062873622047244
0
LINE
8
BLACK
6
CONTINUOUS
10
0.5349663385826772
20
0.2062873622047244
11
0.535149842519685
21
0.2059958267716535
0
LINE
8
BLACK
6
CONTINUOUS
10
0.535149842519685
20
0.2059958267716535
11
0.5351988976377953
21
0.2059392519685039
0
LINE
8
BLACK
6
CONTINUOUS
10
0.5351988976377953
20
0.2059392519685039
11
0.5352140157480315
21
0.2058938582677165
0
LINE
8
BLACK
6
CONTINUOUS
10
0.5352140157480315
20
0.2058938582677165
11
0.53527468503937
21
0.2057974803149606
0
LINE
8
BLACK
6
CONTINUOUS
10
0.53527468503937
20
0.2057974803149606
11
0.5371494488188976
21
0.2020479527559055
0
LINE
8
BLACK
6
CONTINUOUS
10
0.5371494488188976
20
0.2020479527559055
11
0.5373563385826772
21
0.2015073622047244
0
LINE
8
BLACK
6
CONTINUOUS
10
0.5373563385826772
20
0.2015073622047244
11
0.5373638582677165
21
0.2014014960629921
0
LINE
8
BLACK
6
CONTINUOUS
10
0.5373638582677165
20
0.2014014960629921
11
0.5374044488188976
21
0.2013035039370079
0
LINE
8
BLACK
6
CONTINUOUS
10
0.5374044488188976
20
0.2013035039370079
11
0.5374611811023622
21
0.2007274409448819
0
LINE
8
BLACK
6
CONTINUOUS
10
0.5374611811023622
20
0.2007274409448819
11
0.5374611811023622
21
0.1969779133858268
0
LINE
8
BLACK
6
CONTINUOUS
10
0.5374611811023622
20
0.1969779133858268
11
0.5374044488188976
21
0.1964018503937008
0
LINE
8
BLACK
6
CONTINUOUS
10
0.5374044488188976
20
0.1964018503937008
11
0.5373638188976377
21
0.1963038582677165
0
LINE
8
BLACK
6
CONTINUOUS
10
0.5373638188976377
20
0.1963038582677165
11
0.5373563385826772
21
0.196198031496063
0
LINE
8
BLACK
6
CONTINUOUS
10
0.5373563385826772
20
0.196198031496063
11
0.5371494488188976
21
0.1956574015748032
0
LINE
8
BLACK
6
CONTINUOUS
10
0.5371494488188976
20
0.1956574015748032
11
0.53527468503937
21
0.1919078346456693
0
LINE
8
BLACK
6
CONTINUOUS
10
0.53527468503937
20
0.1919078346456693
11
0.5352140157480315
21
0.1918114960629921
0
LINE
8
BLACK
6
CONTINUOUS
10
0.5352140157480315
20
0.1918114960629921
11
0.5351988976377953
21
0.191766062992126
0
LINE
8
BLACK
6
CONTINUOUS
10
0.5351988976377953
20
0.191766062992126
11
0.535149842519685
21
0.1917095275590551
0
LINE
8
BLACK
6
CONTINUOUS
10
0.535149842519685
20
0.1917095275590551
11
0.5349663385826772
21
0.1914179527559055
0
LINE
8
BLACK
6
CONTINUOUS
10
0.5349663385826772
20
0.1914179527559055
11
0.5346866141732284
21
0.1911753937007874
0
LINE
8
BLACK
6
CONTINUOUS
10
0.5346866141732284
20
0.1911753937007874
11
0.5344440551181102
21
0.1908956692913386
0
LINE
8
BLACK
6
CONTINUOUS
10
0.5344440551181102
20
0.1908956692913386
11
0.5341524803149607
21
0.1907121653543307
0
LINE
8
BLACK
6
CONTINUOUS
10
0.5341524803149607
20
0.1907121653543307
11
0.5340959448818897
21
0.1906631102362205
0
LINE
8
BLACK
6
CONTINUOUS
10
0.5340959448818897
20
0.1906631102362205
11
0.5340505118110236
21
0.1906479921259842
0
LINE
8
BLACK
6
CONTINUOUS
10
0.5340505118110236
20
0.1906479921259842
11
0.5339541732283465
21
0.1905873228346457
0
LINE
8
BLACK
6
CONTINUOUS
10
0.5339541732283465
20
0.1905873228346457
11
0.5302046456692914
21
0.1887125590551181
0
LINE
8
BLACK
6
CONTINUOUS
10
0.5302046456692914
20
0.1887125590551181
11
0.5296640157480315
21
0.1885056692913386
0
LINE
8
BLACK
6
CONTINUOUS
10
0.5296640157480315
20
0.1885056692913386
11
0.529558188976378
21
0.188498188976378
0
LINE
8
BLACK
6
CONTINUOUS
10
0.529558188976378
20
0.188498188976378
11
0.5294601968503937
21
0.1884575590551181
0
LINE
8
BLACK
6
CONTINUOUS
10
0.5294601968503937
20
0.1884575590551181
11
0.5288841338582677
21
0.1884008267716535
0
LINE
8
BLACK
6
CONTINUOUS
10
0.5288841338582677
20
0.1884008267716535
11
0.5195103149606299
21
0.1884008267716535
0
LINE
8
BLACK
6
CONTINUOUS
10
0.5195103149606299
20
0.1884008267716535
11
0.518934251968504
21
0.1884575590551181
0
LINE
8
BLACK
6
CONTINUOUS
10
0.518934251968504
20
0.1884575590551181
11
0.5188362598425197
21
0.1884981496062992
0
LINE
8
BLACK
6
CONTINUOUS
10
0.5188362598425197
20
0.1884981496062992
11
0.5187303937007874
21
0.1885056692913386
0
LINE
8
BLACK
6
CONTINUOUS
10
0.5187303937007874
20
0.1885056692913386
11
0.5181898031496063
21
0.1887125590551181
0
LINE
8
BLACK
6
CONTINUOUS
10
0.5181898031496063
20
0.1887125590551181
11
0.5175401574803149
21
0.1890374015748031
0
LINE
8
BLACK
6
CONTINUOUS
10
0.5175401574803149
20
0.1890374015748031
11
0.5174012598425197
21
0.1888984645669291
0
LINE
8
BLACK
6
CONTINUOUS
10
0.5174012598425197
20
0.1888984645669291
11
0.5163368503937008
21
0.1884575590551181
0
LINE
8
BLACK
6
CONTINUOUS
10
0.5163368503937008
20
0.1884575590551181
11
0.5151847244094488
21
0.1884575590551181
0
LINE
8
BLACK
6
CONTINUOUS
10
0.5151847244094488
20
0.1884575590551181
11
0.5141203149606299
21
0.1888984645669291
0
LINE
8
BLACK
6
CONTINUOUS
10
0.5141203149606299
20
0.1888984645669291
11
0.5133056692913386
21
0.1897131102362205
0
LINE
8
BLACK
6
CONTINUOUS
10
0.5133056692913386
20
0.1897131102362205
11
0.5128647637795275
21
0.1907775196850394
0
LINE
8
BLACK
6
CONTINUOUS
10
0.5128647637795275
20
0.1907775196850394
11
0.512808031496063
21
0.1913535826771653
0
LINE
8
BLACK
6
CONTINUOUS
10
0.512808031496063
20
0.1913535826771653
11
0.512808031496063
21
0.2119760236220472
0
LINE
8
BLACK
6
CONTINUOUS
10
0.512808031496063
20
0.2119760236220472
11
0.5128647637795275
21
0.2125520866141732
0
LINE
8
BLACK
6
CONTINUOUS
10
0.5128647637795275
20
0.2125520866141732
11
0.5129053543307086
21
0.2126501181102362
0
LINE
8
BLACK
6
CONTINUOUS
10
0.5129053543307086
20
0.2126501181102362
11
0.512912874015748
21
0.212755905511811
0
LINE
8
BLACK
6
CONTINUOUS
10
0.512912874015748
20
0.212755905511811
11
0.5131197637795275
21
0.2132965354330709
0
LINE
8
BLACK
6
CONTINUOUS
10
0.5131197637795275
20
0.2132965354330709
11
0.5149945275590551
21
0.217046062992126
0
LINE
8
BLACK
6
CONTINUOUS
10
0.5149945275590551
20
0.217046062992126
11
0.5150551574803149
21
0.2171424409448819
0
LINE
8
BLACK
6
CONTINUOUS
10
0.5150551574803149
20
0.2171424409448819
11
0.5150703149606299
21
0.2171878346456693
0
LINE
8
BLACK
6
CONTINUOUS
10
0.5150703149606299
20
0.2171878346456693
11
0.5151193307086614
21
0.2172444094488189
0
LINE
8
BLACK
6
CONTINUOUS
10
0.5151193307086614
20
0.2172444094488189
11
0.515302874015748
21
0.2175359448818898
0
LINE
8
BLACK
6
CONTINUOUS
10
0.515302874015748
20
0.2175359448818898
11
0.5155825590551181
21
0.2177785433070866
0
LINE
8
BLACK
6
CONTINUOUS
10
0.5155825590551181
20
0.2177785433070866
11
0.515825157480315
21
0.2180582283464567
0
LINE
8
BLACK
6
CONTINUOUS
10
0.515825157480315
20
0.2180582283464567
11
0.5161166929133858
21
0.2182417716535433
0
LINE
8
BLACK
6
CONTINUOUS
10
0.5161166929133858
20
0.2182417716535433
11
0.5161732677165354
21
0.2182907874015748
0
LINE
8
BLACK
6
CONTINUOUS
10
0.5161732677165354
20
0.2182907874015748
11
0.5162186614173229
21
0.2183059448818898
0
LINE
8
BLACK
6
CONTINUOUS
10
0.5162186614173229
20
0.2183059448818898
11
0.5163150393700787
21
0.2183665748031496
0
LINE
8
BLACK
6
CONTINUOUS
10
0.5163150393700787
20
0.2183665748031496
11
0.5200645669291338
21
0.2202413385826772
0
LINE
8
BLACK
6
CONTINUOUS
10
0.5200645669291338
20
0.2202413385826772
11
0.520605157480315
21
0.2204482283464567
0
LINE
8
BLACK
6
CONTINUOUS
10
0.520605157480315
20
0.2204482283464567
11
0.5207110236220472
21
0.2204557874015748
0
LINE
8
BLACK
6
CONTINUOUS
10
0.5207110236220472
20
0.2204557874015748
11
0.5208090157480315
21
0.2204963385826772
0
LINE
8
BLACK
6
CONTINUOUS
10
0.5208090157480315
20
0.2204963385826772
11
0.5213850787401575
21
0.2205530708661417
0
LINE
8
BLACK
6
CONTINUOUS
10
0.5213850787401575
20
0.2205530708661417
11
0.5288841338582677
21
0.2205530708661417
0
LINE
8
BLACK
6
CONTINUOUS
10
0.5288841338582677
20
0.2205530708661417
11
0.5294601968503937
21
0.2204963385826772
0
LINE
8
BLACK
6
CONTINUOUS
10
0.5187135433070866
20
0.1950532677165354
11
0.5202073622047244
21
0.1943063385826772
0
LINE
8
BLACK
6
CONTINUOUS
10
0.5202073622047244
20
0.1943063385826772
11
0.5281870866141732
21
0.1943063385826772
0
LINE
8
BLACK
6
CONTINUOUS
10
0.5281870866141732
20
0.1943063385826772
11
0.5304327952755905
21
0.1954292125984252
0
LINE
8
BLACK
6
CONTINUOUS
10
0.5304327952755905
20
0.1954292125984252
11
0.5315556692913386
21
0.1976749606299213
0
LINE
8
BLACK
6
CONTINUOUS
10
0.5315556692913386
20
0.1976749606299213
11
0.5315556692913386
21
0.2000303937007874
0
LINE
8
BLACK
6
CONTINUOUS
10
0.5315556692913386
20
0.2000303937007874
11
0.5304327952755905
21
0.2022761417322834
0
LINE
8
BLACK
6
CONTINUOUS
10
0.5304327952755905
20
0.2022761417322834
11
0.5281870866141732
21
0.2033989763779528
0
LINE
8
BLACK
6
CONTINUOUS
10
0.5281870866141732
20
0.2033989763779528
11
0.5195103149606299
21
0.2033989763779528
0
LINE
8
BLACK
6
CONTINUOUS
10
0.5195103149606299
20
0.2033989763779528
11
0.518934251968504
21
0.2034557086614173
0
LINE
8
BLACK
6
CONTINUOUS
10
0.518934251968504
20
0.2034557086614173
11
0.5188362598425197
21
0.2034962992125984
0
LINE
8
BLACK
6
CONTINUOUS
10
0.5188362598425197
20
0.2034962992125984
11
0.5187303937007874
21
0.2035038188976378
0
LINE
8
BLACK
6
CONTINUOUS
10
0.5187303937007874
20
0.2035038188976378
11
0.5187135433070866
21
0.2035102755905512
0
LINE
8
BLACK
6
CONTINUOUS
10
0.5187135433070866
20
0.2035102755905512
11
0.5187135433070866
21
0.1950532677165354
0
LINE
8
BLACK
6
CONTINUOUS
10
0.5800788582677165
20
0.2204963385826772
11
0.5801768503937008
21
0.2204557480314961
0
LINE
8
BLACK
6
CONTINUOUS
10
0.5801768503937008
20
0.2204557480314961
11
0.5802826771653543
21
0.2204482283464567
0
LINE
8
BLACK
6
CONTINUOUS
10
0.5802826771653543
20
0.2204482283464567
11
0.5808233070866141
21
0.2202413385826772
0
LINE
8
BLACK
6
CONTINUOUS
10
0.5808233070866141
20
0.2202413385826772
11
0.5845728346456692
21
0.2183665748031496
0
LINE
8
BLACK
6
CONTINUOUS
10
0.5845728346456692
20
0.2183665748031496
11
0.5848208267716535
21
0.2182105118110236
0
LINE
8
BLACK
6
CONTINUOUS
10
0.5848208267716535
20
0.2182105118110236
11
0.5848927952755906
21
0.2181806692913386
0
LINE
8
BLACK
6
CONTINUOUS
10
0.5848927952755906
20
0.2181806692913386
11
0.5849737401574803
21
0.2181142125984252
0
LINE
8
BLACK
6
CONTINUOUS
10
0.5849737401574803
20
0.2181142125984252
11
0.5850627165354331
21
0.2180582283464567
0
LINE
8
BLACK
6
CONTINUOUS
10
0.5850627165354331
20
0.2180582283464567
11
0.5851138582677166
21
0.2179992519685039
0
LINE
8
BLACK
6
CONTINUOUS
10
0.5851138582677166
20
0.2179992519685039
11
0.5853402362204724
21
0.2178134645669291
0
LINE
8
BLACK
6
CONTINUOUS
10
0.5853402362204724
20
0.2178134645669291
11
0.5872149999999999
21
0.2159387007874016
0
LINE
8
BLACK
6
CONTINUOUS
10
0.5872149999999999
20
0.2159387007874016
11
0.587400748031496
21
0.2157123622047244
0
LINE
8
BLACK
6
CONTINUOUS
10
0.587400748031496
20
0.2157123622047244
11
0.5874597637795276
21
0.2156611811023622
0
LINE
8
BLACK
6
CONTINUOUS
10
0.5874597637795276
20
0.2156611811023622
11
0.5875157086614173
21
0.2155722440944882
0
LINE
8
BLACK
6
CONTINUOUS
10
0.5875157086614173
20
0.2155722440944882
11
0.5875822047244095
21
0.2154912598425197
0
LINE
8
BLACK
6
CONTINUOUS
10
0.5875822047244095
20
0.2154912598425197
11
0.5876120078740157
21
0.2154193307086614
0
LINE
8
BLACK
6
CONTINUOUS
10
0.5876120078740157
20
0.2154193307086614
11
0.5877681102362204
21
0.2151712992125984
0
LINE
8
BLACK
6
CONTINUOUS
10
0.5877681102362204
20
0.2151712992125984
11
0.589642874015748
21
0.2114217716535433
0
LINE
8
BLACK
6
CONTINUOUS
10
0.589642874015748
20
0.2114217716535433
11
0.5898497637795276
21
0.2108811811023622
0
LINE
8
BLACK
6
CONTINUOUS
10
0.5898497637795276
20
0.2108811811023622
11
0.5898572834645669
21
0.2107753149606299
0
LINE
8
BLACK
6
CONTINUOUS
10
0.5898572834645669
20
0.2107753149606299
11
0.589897874015748
21
0.2106773228346457
0
LINE
8
BLACK
6
CONTINUOUS
10
0.589897874015748
20
0.2106773228346457
11
0.5899546062992126
21
0.2101012598425197
0
LINE
8
BLACK
6
CONTINUOUS
10
0.5899546062992126
20
0.2101012598425197
11
0.5899546062992126
21
0.1988526771653543
0
LINE
8
BLACK
6
CONTINUOUS
10
0.5899546062992126
20
0.1988526771653543
11
0.589897874015748
21
0.1982766141732283
0
LINE
8
BLACK
6
CONTINUOUS
10
0.589897874015748
20
0.1982766141732283
11
0.5898572834645669
21
0.1981786614173228
0
LINE
8
BLACK
6
CONTINUOUS
10
0.5898572834645669
20
0.1981786614173228
11
0.5898497637795276
21
0.1980727559055118
0
LINE
8
BLACK
6
CONTINUOUS
10
0.5898497637795276
20
0.1980727559055118
11
0.589642874015748
21
0.1975321653543307
0
LINE
8
BLACK
6
CONTINUOUS
10
0.589642874015748
20
0.1975321653543307
11
0.5877681102362204
21
0.1937826377952756
0
LINE
8
BLACK
6
CONTINUOUS
10
0.5877681102362204
20
0.1937826377952756
11
0.5876120472440944
21
0.1935347637795276
0
LINE
8
BLACK
6
CONTINUOUS
10
0.5876120472440944
20
0.1935347637795276
11
0.5875822440944882
21
0.1934627165354331
0
LINE
8
BLACK
6
CONTINUOUS
10
0.5875822440944882
20
0.1934627165354331
11
0.5875157086614173
21
0.1933816929133858
0
LINE
8
BLACK
6
CONTINUOUS
10
0.5875157086614173
20
0.1933816929133858
11
0.5874597637795276
21
0.1932927559055118
0
LINE
8
BLACK
6
CONTINUOUS
10
0.5874597637795276
20
0.1932927559055118
11
0.587400748031496
21
0.1932416141732284
0
LINE
8
BLACK
6
CONTINUOUS
10
0.587400748031496
20
0.1932416141732284
11
0.5872149999999999
21
0.1930152362204724
0
LINE
8
BLACK
6
CONTINUOUS
10
0.5872149999999999
20
0.1930152362204724
11
0.5853402755905511
21
0.1911404724409449
0
LINE
8
BLACK
6
CONTINUOUS
10
0.5853402755905511
20
0.1911404724409449
11
0.5851138976377953
21
0.1909547244094488
0
LINE
8
BLACK
6
CONTINUOUS
10
0.5851138976377953
20
0.1909547244094488
11
0.5850627165354331
21
0.1908956692913386
0
LINE
8
BLACK
6
CONTINUOUS
10
0.5850627165354331
20
0.1908956692913386
11
0.5849737401574803
21
0.1908396850393701
0
LINE
8
BLACK
6
CONTINUOUS
10
0.5849737401574803
20
0.1908396850393701
11
0.5848927952755906
21
0.1907732283464567
0
LINE
8
BLACK
6
CONTINUOUS
10
0.5848927952755906
20
0.1907732283464567
11
0.5848208267716535
21
0.1907434251968504
0
LINE
8
BLACK
6
CONTINUOUS
10
0.5848208267716535
20
0.1907434251968504
11
0.5845728346456692
21
0.1905873228346457
0
LINE
8
BLACK
6
CONTINUOUS
10
0.5845728346456692
20
0.1905873228346457
11
0.5808233070866141
21
0.1887125590551181
0
LINE
8
BLACK
6
CONTINUOUS
10
0.5808233070866141
20
0.1887125590551181
11
0.5802826771653543
21
0.1885056692913386
0
LINE
8
BLACK
6
CONTINUOUS
10
0.5802826771653543
20
0.1885056692913386
11
0.5801768503937008
21
0.188498188976378
0
LINE
8
BLACK
6
CONTINUOUS
10
0.5801768503937008
20
0.188498188976378
11
0.5800788582677165
21
0.1884575590551181
0
LINE
8
BLACK
6
CONTINUOUS
10
0.5800788582677165
20
0.1884575590551181
11
0.5795027952755906
21
0.1884008267716535
0
LINE
8
BLACK
6
CONTINUOUS
10
0.5795027952755906
20
0.1884008267716535
11
0.5720037401574803
21
0.1884008267716535
0
LINE
8
BLACK
6
CONTINUOUS
10
0.5720037401574803
20
0.1884008267716535
11
0.5714276771653544
21
0.1884575590551181
0
LINE
8
BLACK
6
CONTINUOUS
10
0.5714276771653544
20
0.1884575590551181
11
0.5713296850393701
21
0.1884981496062992
0
LINE
8
BLACK
6
CONTINUOUS
10
0.5713296850393701
20
0.1884981496062992
11
0.5712238188976377
21
0.1885056692913386
0
LINE
8
BLACK
6
CONTINUOUS
10
0.5712238188976377
20
0.1885056692913386
11
0.5706832283464567
21
0.1887125590551181
0
LINE
8
BLACK
6
CONTINUOUS
10
0.5706832283464567
20
0.1887125590551181
11
0.5669337007874016
21
0.1905873228346457
0
LINE
8
BLACK
6
CONTINUOUS
10
0.5669337007874016
20
0.1905873228346457
11
0.5664438188976377
21
0.1908956692913386
0
LINE
8
BLACK
6
CONTINUOUS
10
0.5664438188976377
20
0.1908956692913386
11
0.5656889763779528
21
0.191766062992126
0
LINE
8
BLACK
6
CONTINUOUS
10
0.5656889763779528
20
0.191766062992126
11
0.5653246456692913
21
0.1928590157480315
0
LINE
8
BLACK
6
CONTINUOUS
10
0.5653246456692913
20
0.1928590157480315
11
0.5654062992125984
21
0.1940082283464567
0
LINE
8
BLACK
6
CONTINUOUS
10
0.5654062992125984
20
0.1940082283464567
11
0.5659215354330709
21
0.1950387401574803
0
LINE
8
BLACK
6
CONTINUOUS
10
0.5659215354330709
20
0.1950387401574803
11
0.5667919291338582
21
0.1957935826771653
0
LINE
8
BLACK
6
CONTINUOUS
10
0.5667919291338582
20
0.1957935826771653
11
0.5678848818897637
21
0.1961579133858268
0
LINE
8
BLACK
6
CONTINUOUS
10
0.5678848818897637
20
0.1961579133858268
11
0.569034094488189
21
0.1960762598425197
0
LINE
8
BLACK
6
CONTINUOUS
10
0.569034094488189
20
0.1960762598425197
11
0.5695747244094488
21
0.1958693700787401
0
LINE
8
BLACK
6
CONTINUOUS
10
0.5695747244094488
20
0.1958693700787401
11
0.5727007874015748
21
0.1943063385826772
0
LINE
8
BLACK
6
CONTINUOUS
10
0.5727007874015748
20
0.1943063385826772
11
0.5788057480314961
21
0.1943063385826772
0
LINE
8
BLACK
6
CONTINUOUS
10
0.5788057480314961
20
0.1943063385826772
11
0.581503188976378
21
0.1956550787401575
0
LINE
8
BLACK
6
CONTINUOUS
10
0.581503188976378
20
0.1956550787401575
11
0.5827003149606299
21
0.1968522440944882
0
LINE
8
BLACK
6
CONTINUOUS
10
0.5827003149606299
20
0.1968522440944882
11
0.584049094488189
21
0.1995497244094488
0
LINE
8
BLACK
6
CONTINUOUS
10
0.584049094488189
20
0.1995497244094488
11
0.584049094488189
21
0.2094042125984252
0
LINE
8
BLACK
6
CONTINUOUS
10
0.584049094488189
20
0.2094042125984252
11
0.5827003543307087
21
0.2121016929133858
0
LINE
8
BLACK
6
CONTINUOUS
10
0.5827003543307087
20
0.2121016929133858
11
0.5815032283464566
21
0.2132988188976378
0
LINE
8
BLACK
6
CONTINUOUS
10
0.5815032283464566
20
0.2132988188976378
11
0.5788057480314961
21
0.2146475590551181
0
LINE
8
BLACK
6
CONTINUOUS
10
0.5788057480314961
20
0.2146475590551181
11
0.5727007874015748
21
0.2146475590551181
0
LINE
8
BLACK
6
CONTINUOUS
10
0.5727007874015748
20
0.2146475590551181
11
0.5695747244094488
21
0.2130845275590551
0
LINE
8
BLACK
6
CONTINUOUS
10
0.5695747244094488
20
0.2130845275590551
11
0.569034094488189
21
0.2128776377952756
0
LINE
8
BLACK
6
CONTINUOUS
10
0.569034094488189
20
0.2128776377952756
11
0.5678848818897637
21
0.2127959842519685
0
LINE
8
BLACK
6
CONTINUOUS
10
0.5678848818897637
20
0.2127959842519685
11
0.5667919291338582
21
0.2131603149606299
0
LINE
8
BLACK
6
CONTINUOUS
10
0.5667919291338582
20
0.2131603149606299
11
0.5659215354330709
21
0.2139151574803149
0
LINE
8
BLACK
6
CONTINUOUS
10
0.5659215354330709
20
0.2139151574803149
11
0.5654062992125984
21
0.2149456692913386
0
LINE
8
BLACK
6
CONTINUOUS
10
0.5654062992125984
20
0.2149456692913386
11
0.5653246456692913
21
0.2160948818897638
0
LINE
8
BLACK
6
CONTINUOUS
10
0.5653246456692913
20
0.2160948818897638
11
0.5656889763779528
21
0.2171878346456693
0
LINE
8
BLACK
6
CONTINUOUS
10
0.5656889763779528
20
0.2171878346456693
11
0.5664438188976377
21
0.2180582283464567
0
LINE
8
BLACK
6
CONTINUOUS
10
0.5664438188976377
20
0.2180582283464567
11
0.5669337007874016
21
0.2183665748031496
0
LINE
8
BLACK
6
CONTINUOUS
10
0.5669337007874016
20
0.2183665748031496
11
0.5706832283464567
21
0.2202413385826772
0
LINE
8
BLACK
6
CONTINUOUS
10
0.5706832283464567
20
0.2202413385826772
11
0.5712238188976377
21
0.2204482283464567
0
LINE
8
BLACK
6
CONTINUOUS
10
0.5712238188976377
20
0.2204482283464567
11
0.5713296850393701
21
0.2204557874015748
0
LINE
8
BLACK
6
CONTINUOUS
10
0.5713296850393701
20
0.2204557874015748
11
0.5714276771653544
21
0.2204963385826772
0
LINE
8
BLACK
6
CONTINUOUS
10
0.5714276771653544
20
0.2204963385826772
11
0.5720037401574803
21
0.2205530708661417
0
LINE
8
BLACK
6
CONTINUOUS
10
0.5720037401574803
20
0.2205530708661417
11
0.5795027952755906
21
0.2205530708661417
0
LINE
8
BLACK
6
CONTINUOUS
10
0.5795027952755906
20
0.2205530708661417
11
0.5800788582677165
21
0.2204963385826772
0
LINE
8
BLACK
6
CONTINUOUS
10
0.6055152362204724
20
0.2200554330708661
11
0.6063298818897638
21
0.2192407874015748
0
LINE
8
BLACK
6
CONTINUOUS
10
0.6063298818897638
20
0.2192407874015748
11
0.6067707874015748
21
0.2181763779527559
0
LINE
8
BLACK
6
CONTINUOUS
10
0.6067707874015748
20
0.2181763779527559
11
0.6068275196850393
21
0.2176003149606299
0
LINE
8
BLACK
6
CONTINUOUS
10
0.6068275196850393
20
0.2176003149606299
11
0.6068275196850393
21
0.1963262204724409
0
LINE
8
BLACK
6
CONTINUOUS
10
0.6068275196850393
20
0.1963262204724409
11
0.607498622047244
21
0.1956550787401575
0
LINE
8
BLACK
6
CONTINUOUS
10
0.607498622047244
20
0.1956550787401575
11
0.6101961023622047
21
0.1943063385826772
0
LINE
8
BLACK
6
CONTINUOUS
10
0.6101961023622047
20
0.1943063385826772
11
0.6144262992125984
21
0.1943063385826772
0
LINE
8
BLACK
6
CONTINUOUS
10
0.6144262992125984
20
0.1943063385826772
11
0.6166720078740158
21
0.1954292125984252
0
LINE
8
BLACK
6
CONTINUOUS
10
0.6166720078740158
20
0.1954292125984252
11
0.6177948818897637
21
0.1976749606299213
0
LINE
8
BLACK
6
CONTINUOUS
10
0.6177948818897637
20
0.1976749606299213
11
0.6177948818897637
21
0.2176003149606299
0
LINE
8
BLACK
6
CONTINUOUS
10
0.6177948818897637
20
0.2176003149606299
11
0.6178516141732283
21
0.2181763779527559
0
LINE
8
BLACK
6
CONTINUOUS
10
0.6178516141732283
20
0.2181763779527559
11
0.6182925196850394
21
0.2192407874015748
0
LINE
8
BLACK
6
CONTINUOUS
10
0.6182925196850394
20
0.2192407874015748
11
0.6191071653543307
21
0.2200554330708661
0
LINE
8
BLACK
6
CONTINUOUS
10
0.6191071653543307
20
0.2200554330708661
11
0.6201715748031496
21
0.2204963385826772
0
LINE
8
BLACK
6
CONTINUOUS
10
0.6201715748031496
20
0.2204963385826772
11
0.6213237007874015
21
0.2204963385826772
0
LINE
8
BLACK
6
CONTINUOUS
10
0.6213237007874015
20
0.2204963385826772
11
0.6223881102362204
21
0.2200554330708661
0
LINE
8
BLACK
6
CONTINUOUS
10
0.6223881102362204
20
0.2200554330708661
11
0.6232027559055118
21
0.2192407874015748
0
LINE
8
BLACK
6
CONTINUOUS
10
0.6232027559055118
20
0.2192407874015748
11
0.6236436614173229
21
0.2181763779527559
0
LINE
8
BLACK
6
CONTINUOUS
10
0.6236436614173229
20
0.2181763779527559
11
0.6237003937007873
21
0.2176003149606299
0
LINE
8
BLACK
6
CONTINUOUS
10
0.6237003937007873
20
0.2176003149606299
11
0.6237003937007873
21
0.1969779133858268
0
LINE
8
BLACK
6
CONTINUOUS
10
0.6237003937007873
20
0.1969779133858268
11
0.6236436614173229
21
0.1964018503937008
0
LINE
8
BLACK
6
CONTINUOUS
10
0.6236436614173229
20
0.1964018503937008
11
0.623603031496063
21
0.1963038582677165
0
LINE
8
BLACK
6
CONTINUOUS
10
0.623603031496063
20
0.1963038582677165
11
0.6235955511811023
21
0.196198031496063
0
LINE
8
BLACK
6
CONTINUOUS
10
0.6235955511811023
20
0.196198031496063
11
0.6233886614173229
21
0.1956574015748032
0
LINE
8
BLACK
6
CONTINUOUS
10
0.6233886614173229
20
0.1956574015748032
11
0.6215138976377953
21
0.1919078346456693
0
LINE
8
BLACK
6
CONTINUOUS
10
0.6215138976377953
20
0.1919078346456693
11
0.6214532283464567
21
0.1918114960629921
0
LINE
8
BLACK
6
CONTINUOUS
10
0.6214532283464567
20
0.1918114960629921
11
0.6214381102362204
21
0.191766062992126
0
LINE
8
BLACK
6
CONTINUOUS
10
0.6214381102362204
20
0.191766062992126
11
0.6213890551181103
21
0.1917095275590551
0
LINE
8
BLACK
6
CONTINUOUS
10
0.6213890551181103
20
0.1917095275590551
11
0.6212055511811023
21
0.1914179527559055
0
LINE
8
BLACK
6
CONTINUOUS
10
0.6212055511811023
20
0.1914179527559055
11
0.6209258267716535
21
0.1911753937007874
0
LINE
8
BLACK
6
CONTINUOUS
10
0.6209258267716535
20
0.1911753937007874
11
0.6206832677165354
21
0.1908956692913386
0
LINE
8
BLACK
6
CONTINUOUS
10
0.6206832677165354
20
0.1908956692913386
11
0.6203916929133858
21
0.1907121653543307
0
LINE
8
BLACK
6
CONTINUOUS
10
0.6203916929133858
20
0.1907121653543307
11
0.620335157480315
21
0.1906631102362205
0
LINE
8
BLACK
6
CONTINUOUS
10
0.620335157480315
20
0.1906631102362205
11
0.6202897244094489
21
0.1906479921259842
0
LINE
8
BLACK
6
CONTINUOUS
10
0.6202897244094489
20
0.1906479921259842
11
0.6201933858267716
21
0.1905873228346457
0
LINE
8
BLACK
6
CONTINUOUS
10
0.6201933858267716
20
0.1905873228346457
11
0.6164438582677165
21
0.1887125590551181
0
LINE
8
BLACK
6
CONTINUOUS
10
0.6164438582677165
20
0.1887125590551181
11
0.6159032283464567
21
0.1885056692913386
0
LINE
8
BLACK
6
CONTINUOUS
10
0.6159032283464567
20
0.1885056692913386
11
0.6157974015748031
21
0.188498188976378
0
LINE
8
BLACK
6
CONTINUOUS
10
0.6157974015748031
20
0.188498188976378
11
0.6156994094488188
21
0.1884575590551181
0
LINE
8
BLACK
6
CONTINUOUS
10
0.6156994094488188
20
0.1884575590551181
11
0.6151233464566929
21
0.1884008267716535
0
LINE
8
BLACK
6
CONTINUOUS
10
0.6151233464566929
20
0.1884008267716535
11
0.6094990551181102
21
0.1884008267716535
0
LINE
8
BLACK
6
CONTINUOUS
10
0.6094990551181102
20
0.1884008267716535
11
0.6089229921259842
21
0.1884575590551181
0
LINE
8
BLACK
6
CONTINUOUS
10
0.6089229921259842
20
0.1884575590551181
11
0.6088249999999999
21
0.1884981496062992
0
LINE
8
BLACK
6
CONTINUOUS
10
0.6088249999999999
20
0.1884981496062992
11
0.6087191338582677
21
0.1885056692913386
0
LINE
8
BLACK
6
CONTINUOUS
10
0.6087191338582677
20
0.1885056692913386
11
0.6081785433070866
21
0.1887125590551181
0
LINE
8
BLACK
6
CONTINUOUS
10
0.6081785433070866
20
0.1887125590551181
11
0.6062790551181102
21
0.1896623228346457
0
LINE
8
BLACK
6
CONTINUOUS
10
0.6062790551181102
20
0.1896623228346457
11
0.6055152362204724
21
0.1888984645669291
0
LINE
8
BLACK
6
CONTINUOUS
10
0.6055152362204724
20
0.1888984645669291
11
0.6044508267716535
21
0.1884575590551181
0
LINE
8
BLACK
6
CONTINUOUS
10
0.6044508267716535
20
0.1884575590551181
11
0.6032987007874016
21
0.1884575590551181
0
LINE
8
BLACK
6
CONTINUOUS
10
0.6032987007874016
20
0.1884575590551181
11
0.6022342913385826
21
0.1888984645669291
0
LINE
8
BLACK
6
CONTINUOUS
10
0.6022342913385826
20
0.1888984645669291
11
0.6014196456692913
21
0.1897131102362205
0
LINE
8
BLACK
6
CONTINUOUS
10
0.6014196456692913
20
0.1897131102362205
11
0.6009787401574803
21
0.1907775196850394
0
LINE
8
BLACK
6
CONTINUOUS
10
0.6009787401574803
20
0.1907775196850394
11
0.6009220078740157
21
0.1913535826771653
0
LINE
8
BLACK
6
CONTINUOUS
10
0.6009220078740157
20
0.1913535826771653
11
0.6009220078740157
21
0.2176003149606299
0
LINE
8
BLACK
6
CONTINUOUS
10
0.6009220078740157
20
0.2176003149606299
11
0.6009787401574803
21
0.2181763779527559
0
LINE
8
BLACK
6
CONTINUOUS
10
0.6009787401574803
20
0.2181763779527559
11
0.6014196456692913
21
0.2192407874015748
0
LINE
8
BLACK
6
CONTINUOUS
10
0.6014196456692913
20
0.2192407874015748
11
0.6022342913385826
21
0.2200554330708661
0
LINE
8
BLACK
6
CONTINUOUS
10
0.6022342913385826
20
0.2200554330708661
11
0.6032987007874016
21
0.2204963385826772
0
LINE
8
BLACK
6
CONTINUOUS
10
0.6032987007874016
20
0.2204963385826772
11
0.6044508267716535
21
0.2204963385826772
0
LINE
8
BLACK
6
CONTINUOUS
10
0.6044508267716535
20
0.2204963385826772
11
0.6055152362204724
21
0.2200554330708661
0
LINE
8
BLACK
6
CONTINUOUS
10
0.6411357874015748
20
0.2331787795275591
11
0.6419504330708661
21
0.2323641338582677
0
LINE
8
BLACK
6
CONTINUOUS
10
0.6419504330708661
20
0.2323641338582677
11
0.6423913385826772
21
0.2312997244094488
0
LINE
8
BLACK
6
CONTINUOUS
10
0.6423913385826772
20
0.2312997244094488
11
0.6424480708661418
21
0.2307236614173228
0
LINE
8
BLACK
6
CONTINUOUS
10
0.6424480708661418
20
0.2307236614173228
11
0.6424480708661418
21
0.220441811023622
0
LINE
8
BLACK
6
CONTINUOUS
10
0.6424480708661418
20
0.220441811023622
11
0.6424649212598426
21
0.2204482283464567
0
LINE
8
BLACK
6
CONTINUOUS
10
0.6424649212598426
20
0.2204482283464567
11
0.6425707874015748
21
0.2204557874015748
0
LINE
8
BLACK
6
CONTINUOUS
10
0.6425707874015748
20
0.2204557874015748
11
0.6426687795275591
21
0.2204963385826772
0
LINE
8
BLACK
6
CONTINUOUS
10
0.6426687795275591
20
0.2204963385826772
11
0.6432448425196851
21
0.2205530708661417
0
LINE
8
BLACK
6
CONTINUOUS
10
0.6432448425196851
20
0.2205530708661417
11
0.6507438976377953
21
0.2205530708661417
0
LINE
8
BLACK
6
CONTINUOUS
10
0.6507438976377953
20
0.2205530708661417
11
0.6513199606299213
21
0.2204963385826772
0
LINE
8
BLACK
6
CONTINUOUS
10
0.6513199606299213
20
0.2204963385826772
11
0.6514179527559055
21
0.2204557480314961
0
LINE
8
BLACK
6
CONTINUOUS
10
0.6514179527559055
20
0.2204557480314961
11
0.651523779527559
21
0.2204482283464567
0
LINE
8
BLACK
6
CONTINUOUS
10
0.651523779527559
20
0.2204482283464567
11
0.6520644094488189
21
0.2202413385826772
0
LINE
8
BLACK
6
CONTINUOUS
10
0.6520644094488189
20
0.2202413385826772
11
0.655813937007874
21
0.2183665748031496
0
LINE
8
BLACK
6
CONTINUOUS
10
0.655813937007874
20
0.2183665748031496
11
0.6560619291338583
21
0.2182105118110236
0
LINE
8
BLACK
6
CONTINUOUS
10
0.6560619291338583
20
0.2182105118110236
11
0.6561338976377953
21
0.2181806692913386
0
LINE
8
BLACK
6
CONTINUOUS
10
0.6561338976377953
20
0.2181806692913386
11
0.656214842519685
21
0.2181142125984252
0
LINE
8
BLACK
6
CONTINUOUS
10
0.656214842519685
20
0.2181142125984252
11
0.6563038188976378
21
0.2180582283464567
0
LINE
8
BLACK
6
CONTINUOUS
10
0.6563038188976378
20
0.2180582283464567
11
0.6563549606299213
21
0.2179992519685039
0
LINE
8
BLACK
6
CONTINUOUS
10
0.6563549606299213
20
0.2179992519685039
11
0.6565813385826772
21
0.2178134645669291
0
LINE
8
BLACK
6
CONTINUOUS
10
0.6565813385826772
20
0.2178134645669291
11
0.6584561023622048
21
0.2159387007874016
0
LINE
8
BLACK
6
CONTINUOUS
10
0.6584561023622048
20
0.2159387007874016
11
0.6586418503937008
21
0.2157123622047244
0
LINE
8
BLACK
6
CONTINUOUS
10
0.6586418503937008
20
0.2157123622047244
11
0.6587008661417323
21
0.2156611811023622
0
LINE
8
BLACK
6
CONTINUOUS
10
0.6587008661417323
20
0.2156611811023622
11
0.658756811023622
21
0.2155722440944882
0
LINE
8
BLACK
6
CONTINUOUS
10
0.658756811023622
20
0.2155722440944882
11
0.6588233070866142
21
0.2154912598425197
0
LINE
8
BLACK
6
CONTINUOUS
10
0.6588233070866142
20
0.2154912598425197
11
0.6588531102362205
21
0.2154193307086614
0
LINE
8
BLACK
6
CONTINUOUS
10
0.6588531102362205
20
0.2154193307086614
11
0.6590092125984252
21
0.2151712992125984
0
LINE
8
BLACK
6
CONTINUOUS
10
0.6590092125984252
20
0.2151712992125984
11
0.6608839763779527
21
0.2114217716535433
0
LINE
8
BLACK
6
CONTINUOUS
10
0.6608839763779527
20
0.2114217716535433
11
0.6610908661417323
21
0.2108811811023622
0
LINE
8
BLACK
6
CONTINUOUS
10
0.6610908661417323
20
0.2108811811023622
11
0.6610983858267716
21
0.2107753149606299
0
LINE
8
BLACK
6
CONTINUOUS
10
0.6610983858267716
20
0.2107753149606299
11
0.6611389763779527
21
0.2106773228346457
0
LINE
8
BLACK
6
CONTINUOUS
10
0.6611389763779527
20
0.2106773228346457
11
0.6611957086614173
21
0.2101012598425197
0
LINE
8
BLACK
6
CONTINUOUS
10
0.6611957086614173
20
0.2101012598425197
11
0.6611957086614173
21
0.1988526771653543
0
LINE
8
BLACK
6
CONTINUOUS
10
0.6611957086614173
20
0.1988526771653543
11
0.6611389763779527
21
0.1982766141732283
0
LINE
8
BLACK
6
CONTINUOUS
10
0.6611389763779527
20
0.1982766141732283
11
0.6610983858267716
21
0.1981786614173228
0
LINE
8
BLACK
6
CONTINUOUS
10
0.6610983858267716
20
0.1981786614173228
11
0.6610908661417323
21
0.1980727559055118
0
LINE
8
BLACK
6
CONTINUOUS
10
0.6610908661417323
20
0.1980727559055118
11
0.6608839763779527
21
0.1975321653543307
0
LINE
8
BLACK
6
CONTINUOUS
10
0.6608839763779527
20
0.1975321653543307
11
0.6590092125984252
21
0.1937826377952756
0
LINE
8
BLACK
6
CONTINUOUS
10
0.6590092125984252
20
0.1937826377952756
11
0.6588531496062991
21
0.1935347637795276
0
LINE
8
BLACK
6
CONTINUOUS
10
0.6588531496062991
20
0.1935347637795276
11
0.6588233464566929
21
0.1934627165354331
0
LINE
8
BLACK
6
CONTINUOUS
10
0.6588233464566929
20
0.1934627165354331
11
0.658756811023622
21
0.1933816929133858
0
LINE
8
BLACK
6
CONTINUOUS
10
0.658756811023622
20
0.1933816929133858
11
0.6587008661417323
21
0.1932927559055118
0
LINE
8
BLACK
6
CONTINUOUS
10
0.6587008661417323
20
0.1932927559055118
11
0.6586418503937008
21
0.1932416141732284
0
LINE
8
BLACK
6
CONTINUOUS
10
0.6586418503937008
20
0.1932416141732284
11
0.6584561023622048
21
0.1930152362204724
0
LINE
8
BLACK
6
CONTINUOUS
10
0.6584561023622048
20
0.1930152362204724
11
0.6565813779527558
21
0.1911404724409449
0
LINE
8
BLACK
6
CONTINUOUS
10
0.6565813779527558
20
0.1911404724409449
11
0.656355
21
0.1909547244094488
0
LINE
8
BLACK
6
CONTINUOUS
10
0.656355
20
0.1909547244094488
11
0.6563038188976378
21
0.1908956692913386
0
LINE
8
BLACK
6
CONTINUOUS
10
0.6563038188976378
20
0.1908956692913386
11
0.656214842519685
21
0.1908396850393701
0
LINE
8
BLACK
6
CONTINUOUS
10
0.656214842519685
20
0.1908396850393701
11
0.6561338976377953
21
0.1907732283464567
0
LINE
8
BLACK
6
CONTINUOUS
10
0.6561338976377953
20
0.1907732283464567
11
0.6560619291338583
21
0.1907434251968504
0
LINE
8
BLACK
6
CONTINUOUS
10
0.6560619291338583
20
0.1907434251968504
11
0.655813937007874
21
0.1905873228346457
0
LINE
8
BLACK
6
CONTINUOUS
10
0.655813937007874
20
0.1905873228346457
11
0.6520644094488189
21
0.1887125590551181
0
LINE
8
BLACK
6
CONTINUOUS
10
0.6520644094488189
20
0.1887125590551181
11
0.651523779527559
21
0.1885056692913386
0
LINE
8
BLACK
6
CONTINUOUS
10
0.651523779527559
20
0.1885056692913386
11
0.6514179527559055
21
0.188498188976378
0
LINE
8
BLACK
6
CONTINUOUS
10
0.6514179527559055
20
0.188498188976378
11
0.6513199606299213
21
0.1884575590551181
0
LINE
8
BLACK
6
CONTINUOUS
10
0.6513199606299213
20
0.1884575590551181
11
0.6507438976377953
21
0.1884008267716535
0
LINE
8
BLACK
6
CONTINUOUS
10
0.6507438976377953
20
0.1884008267716535
11
0.6432448425196851
21
0.1884008267716535
0
LINE
8
BLACK
6
CONTINUOUS
10
0.6432448425196851
20
0.1884008267716535
11
0.6426687795275591
21
0.1884575590551181
0
LINE
8
BLACK
6
CONTINUOUS
10
0.6426687795275591
20
0.1884575590551181
11
0.6425707874015748
21
0.1884981496062992
0
LINE
8
BLACK
6
CONTINUOUS
10
0.6425707874015748
20
0.1884981496062992
11
0.6424649212598426
21
0.1885056692913386
0
LINE
8
BLACK
6
CONTINUOUS
10
0.6424649212598426
20
0.1885056692913386
11
0.6419243307086614
21
0.1887125590551181
0
LINE
8
BLACK
6
CONTINUOUS
10
0.6419243307086614
20
0.1887125590551181
11
0.64127468503937
21
0.1890374015748031
0
LINE
8
BLACK
6
CONTINUOUS
10
0.64127468503937
20
0.1890374015748031
11
0.6411357874015748
21
0.1888984645669291
0
LINE
8
BLACK
6
CONTINUOUS
10
0.6411357874015748
20
0.1888984645669291
11
0.6400713779527559
21
0.1884575590551181
0
LINE
8
BLACK
6
CONTINUOUS
10
0.6400713779527559
20
0.1884575590551181
11
0.638919251968504
21
0.1884575590551181
0
LINE
8
BLACK
6
CONTINUOUS
10
0.638919251968504
20
0.1884575590551181
11
0.6378548425196851
21
0.1888984645669291
0
LINE
8
BLACK
6
CONTINUOUS
10
0.6378548425196851
20
0.1888984645669291
11
0.6370401968503937
21
0.1897131102362205
0
LINE
8
BLACK
6
CONTINUOUS
10
0.6370401968503937
20
0.1897131102362205
11
0.6365992913385826
21
0.1907775196850394
0
LINE
8
BLACK
6
CONTINUOUS
10
0.6365992913385826
20
0.1907775196850394
11
0.6365425590551181
21
0.1913535826771653
0
LINE
8
BLACK
6
CONTINUOUS
10
0.6365425590551181
20
0.1913535826771653
11
0.6365425590551181
21
0.2307236614173228
0
LINE
8
BLACK
6
CONTINUOUS
10
0.6365425590551181
20
0.2307236614173228
11
0.6365992913385826
21
0.2312997244094488
0
LINE
8
BLACK
6
CONTINUOUS
10
0.6365992913385826
20
0.2312997244094488
11
0.6370401968503937
21
0.2323641338582677
0
LINE
8
BLACK
6
CONTINUOUS
10
0.6370401968503937
20
0.2323641338582677
11
0.6378548425196851
21
0.2331787795275591
0
LINE
8
BLACK
6
CONTINUOUS
10
0.6378548425196851
20
0.2331787795275591
11
0.638919251968504
21
0.2336196850393701
0
LINE
8
BLACK
6
CONTINUOUS
10
0.638919251968504
20
0.2336196850393701
11
0.6400713779527559
21
0.2336196850393701
0
LINE
8
BLACK
6
CONTINUOUS
10
0.6400713779527559
20
0.2336196850393701
11
0.6411357874015748
21
0.2331787795275591
0
LINE
8
BLACK
6
CONTINUOUS
10
0.6424480708661418
20
0.2139006692913386
11
0.6424480708661418
21
0.1950532677165354
0
LINE
8
BLACK
6
CONTINUOUS
10
0.6424480708661418
20
0.1950532677165354
11
0.6439418897637795
21
0.1943063385826772
0
LINE
8
BLACK
6
CONTINUOUS
10
0.6439418897637795
20
0.1943063385826772
11
0.6500468503937008
21
0.1943063385826772
0
LINE
8
BLACK
6
CONTINUOUS
10
0.6500468503937008
20
0.1943063385826772
11
0.6527442913385827
21
0.1956550787401575
0
LINE
8
BLACK
6
CONTINUOUS
10
0.6527442913385827
20
0.1956550787401575
11
0.6539414173228346
21
0.1968522440944882
0
LINE
8
BLACK
6
CONTINUOUS
10
0.6539414173228346
20
0.1968522440944882
11
0.6552901968503937
21
0.1995497244094488
0
LINE
8
BLACK
6
CONTINUOUS
10
0.6552901968503937
20
0.1995497244094488
11
0.6552901968503937
21
0.2094042125984252
0
LINE
8
BLACK
6
CONTINUOUS
10
0.6552901968503937
20
0.2094042125984252
11
0.6539414566929134
21
0.2121016929133858
0
LINE
8
BLACK
6
CONTINUOUS
10
0.6539414566929134
20
0.2121016929133858
11
0.6527443307086614
21
0.2132988188976378
0
LINE
8
BLACK
6
CONTINUOUS
10
0.6527443307086614
20
0.2132988188976378
11
0.6500468503937008
21
0.2146475590551181
0
LINE
8
BLACK
6
CONTINUOUS
10
0.6500468503937008
20
0.2146475590551181
11
0.6439418897637795
21
0.2146475590551181
0
LINE
8
BLACK
6
CONTINUOUS
10
0.6439418897637795
20
0.2146475590551181
11
0.6424480708661418
21
0.2139006692913386
0
LINE
8
BLACK
6
CONTINUOUS
10
0.4986535826771654
20
0.2331787795275591
11
0.4994682283464567
21
0.2323641338582677
0
LINE
8
BLACK
6
CONTINUOUS
10
0.4994682283464567
20
0.2323641338582677
11
0.4999091338582677
21
0.2312997244094488
0
LINE
8
BLACK
6
CONTINUOUS
10
0.4999091338582677
20
0.2312997244094488
11
0.4999658661417323
21
0.2307236614173228
0
LINE
8
BLACK
6
CONTINUOUS
10
0.4999658661417323
20
0.2307236614173228
11
0.4999658661417323
21
0.1969779133858268
0
LINE
8
BLACK
6
CONTINUOUS
10
0.4999658661417323
20
0.1969779133858268
11
0.4999091338582677
21
0.1964018503937008
0
LINE
8
BLACK
6
CONTINUOUS
10
0.4999091338582677
20
0.1964018503937008
11
0.4998685039370079
21
0.1963038582677165
0
LINE
8
BLACK
6
CONTINUOUS
10
0.4998685039370079
20
0.1963038582677165
11
0.4998610236220472
21
0.196198031496063
0
LINE
8
BLACK
6
CONTINUOUS
10
0.4998610236220472
20
0.196198031496063
11
0.4996541338582677
21
0.1956574015748032
0
LINE
8
BLACK
6
CONTINUOUS
10
0.4996541338582677
20
0.1956574015748032
11
0.4977793700787401
21
0.1919078346456693
0
LINE
8
BLACK
6
CONTINUOUS
10
0.4977793700787401
20
0.1919078346456693
11
0.4977187007874015
21
0.1918114960629921
0
LINE
8
BLACK
6
CONTINUOUS
10
0.4977187007874015
20
0.1918114960629921
11
0.4977035826771654
21
0.191766062992126
0
LINE
8
BLACK
6
CONTINUOUS
10
0.4977035826771654
20
0.191766062992126
11
0.4976545275590551
21
0.1917095275590551
0
LINE
8
BLACK
6
CONTINUOUS
10
0.4976545275590551
20
0.1917095275590551
11
0.4974710236220473
21
0.1914179527559055
0
LINE
8
BLACK
6
CONTINUOUS
10
0.4974710236220473
20
0.1914179527559055
11
0.4971912992125984
21
0.1911753937007874
0
LINE
8
BLACK
6
CONTINUOUS
10
0.4971912992125984
20
0.1911753937007874
11
0.4969487401574803
21
0.1908956692913386
0
LINE
8
BLACK
6
CONTINUOUS
10
0.4969487401574803
20
0.1908956692913386
11
0.4966571653543307
21
0.1907121653543307
0
LINE
8
BLACK
6
CONTINUOUS
10
0.4966571653543307
20
0.1907121653543307
11
0.4966006299212598
21
0.1906631102362205
0
LINE
8
BLACK
6
CONTINUOUS
10
0.4966006299212598
20
0.1906631102362205
11
0.4965551968503937
21
0.1906479921259842
0
LINE
8
BLACK
6
CONTINUOUS
10
0.4965551968503937
20
0.1906479921259842
11
0.4964588582677165
21
0.1905873228346457
0
LINE
8
BLACK
6
CONTINUOUS
10
0.4964588582677165
20
0.1905873228346457
11
0.4927093307086614
21
0.1887125590551181
0
LINE
8
BLACK
6
CONTINUOUS
10
0.4927093307086614
20
0.1887125590551181
11
0.4921687007874015
21
0.1885056692913386
0
LINE
8
BLACK
6
CONTINUOUS
10
0.4921687007874015
20
0.1885056692913386
11
0.4910194881889764
21
0.1884240157480315
0
LINE
8
BLACK
6
CONTINUOUS
10
0.4910194881889764
20
0.1884240157480315
11
0.4899265354330709
21
0.1887883464566929
0
LINE
8
BLACK
6
CONTINUOUS
10
0.4899265354330709
20
0.1887883464566929
11
0.4890561417322835
21
0.189543188976378
0
LINE
8
BLACK
6
CONTINUOUS
10
0.4890561417322835
20
0.189543188976378
11
0.488540905511811
21
0.1905737007874016
0
LINE
8
BLACK
6
CONTINUOUS
10
0.488540905511811
20
0.1905737007874016
11
0.4884592519685039
21
0.1917229133858268
0
LINE
8
BLACK
6
CONTINUOUS
10
0.4884592519685039
20
0.1917229133858268
11
0.4888235826771654
21
0.1928158661417323
0
LINE
8
BLACK
6
CONTINUOUS
10
0.4888235826771654
20
0.1928158661417323
11
0.4895784251968504
21
0.1936862598425197
0
LINE
8
BLACK
6
CONTINUOUS
10
0.4895784251968504
20
0.1936862598425197
11
0.4900683070866141
21
0.1939946062992126
0
LINE
8
BLACK
6
CONTINUOUS
10
0.4900683070866141
20
0.1939946062992126
11
0.4929374803149606
21
0.1954292125984252
0
LINE
8
BLACK
6
CONTINUOUS
10
0.4929374803149606
20
0.1954292125984252
11
0.4940603543307087
21
0.1976749606299213
0
LINE
8
BLACK
6
CONTINUOUS
10
0.4940603543307087
20
0.1976749606299213
11
0.4940603543307087
21
0.2307236614173228
0
LINE
8
BLACK
6
CONTINUOUS
10
0.4940603543307087
20
0.2307236614173228
11
0.4941170866141732
21
0.2312997244094488
0
LINE
8
BLACK
6
CONTINUOUS
10
0.4941170866141732
20
0.2312997244094488
11
0.4945579921259842
21
0.2323641338582677
0
LINE
8
BLACK
6
CONTINUOUS
10
0.4945579921259842
20
0.2323641338582677
11
0.4953726377952756
21
0.2331787795275591
0
LINE
8
BLACK
6
CONTINUOUS
10
0.4953726377952756
20
0.2331787795275591
11
0.4964370472440945
21
0.2336196850393701
0
LINE
8
BLACK
6
CONTINUOUS
10
0.4964370472440945
20
0.2336196850393701
11
0.4975891732283464
21
0.2336196850393701
0
LINE
8
BLACK
6
CONTINUOUS
10
0.4975891732283464
20
0.2336196850393701
11
0.4986535826771654
21
0.2331787795275591
0
LINE
8
BLACK
6
CONTINUOUS
10
0.5530217716535433
20
0.2200554330708661
11
0.5538364173228346
21
0.2192407874015748
0
LINE
8
BLACK
6
CONTINUOUS
10
0.5538364173228346
20
0.2192407874015748
11
0.5542773228346457
21
0.2181763779527559
0
LINE
8
BLACK
6
CONTINUOUS
10
0.5542773228346457
20
0.2181763779527559
11
0.5543340551181102
21
0.2176003149606299
0
LINE
8
BLACK
6
CONTINUOUS
10
0.5543340551181102
20
0.2176003149606299
11
0.5543340551181102
21
0.1913535826771653
0
LINE
8
BLACK
6
CONTINUOUS
10
0.5543340551181102
20
0.1913535826771653
11
0.5542773228346457
21
0.1907775196850394
0
LINE
8
BLACK
6
CONTINUOUS
10
0.5542773228346457
20
0.1907775196850394
11
0.5538364173228346
21
0.1897131102362205
0
LINE
8
BLACK
6
CONTINUOUS
10
0.5538364173228346
20
0.1897131102362205
11
0.5530217716535433
21
0.1888984645669291
0
LINE
8
BLACK
6
CONTINUOUS
10
0.5530217716535433
20
0.1888984645669291
11
0.5519573622047244
21
0.1884575590551181
0
LINE
8
BLACK
6
CONTINUOUS
10
0.5519573622047244
20
0.1884575590551181
11
0.5508052362204724
21
0.1884575590551181
0
LINE
8
BLACK
6
CONTINUOUS
10
0.5508052362204724
20
0.1884575590551181
11
0.5497408267716535
21
0.1888984645669291
0
LINE
8
BLACK
6
CONTINUOUS
10
0.5497408267716535
20
0.1888984645669291
11
0.5489261811023622
21
0.1897131102362205
0
LINE
8
BLACK
6
CONTINUOUS
10
0.5489261811023622
20
0.1897131102362205
11
0.5484852755905512
21
0.1907775196850394
0
LINE
8
BLACK
6
CONTINUOUS
10
0.5484852755905512
20
0.1907775196850394
11
0.5484285433070866
21
0.1913535826771653
0
LINE
8
BLACK
6
CONTINUOUS
10
0.5484285433070866
20
0.1913535826771653
11
0.5484285433070866
21
0.2176003149606299
0
LINE
8
BLACK
6
CONTINUOUS
10
0.5484285433070866
20
0.2176003149606299
11
0.5484852755905512
21
0.2181763779527559
0
LINE
8
BLACK
6
CONTINUOUS
10
0.5484852755905512
20
0.2181763779527559
11
0.5489261811023622
21
0.2192407874015748
0
LINE
8
BLACK
6
CONTINUOUS
10
0.5489261811023622
20
0.2192407874015748
11
0.5497408267716535
21
0.2200554330708661
0
LINE
8
BLACK
6
CONTINUOUS
10
0.5497408267716535
20
0.2200554330708661
11
0.5508052362204724
21
0.2204963385826772
0
LINE
8
BLACK
6
CONTINUOUS
10
0.5508052362204724
20
0.2204963385826772
11
0.5519573622047244
21
0.2204963385826772
0
LINE
8
BLACK
6
CONTINUOUS
10
0.5519573622047244
20
0.2204963385826772
11
0.5530217716535433
21
0.2200554330708661
0
LINE
8
BLACK
6
CONTINUOUS
10
0.6767562992125984
20
0.2200554330708661
11
0.6775709448818897
21
0.2192407874015748
0
LINE
8
BLACK
6
CONTINUOUS
10
0.6775709448818897
20
0.2192407874015748
11
0.6780118503937008
21
0.2181763779527559
0
LINE
8
BLACK
6
CONTINUOUS
10
0.6780118503937008
20
0.2181763779527559
11
0.6780685826771653
21
0.2176003149606299
0
LINE
8
BLACK
6
CONTINUOUS
10
0.6780685826771653
20
0.2176003149606299
11
0.6780685826771653
21
0.1913535826771653
0
LINE
8
BLACK
6
CONTINUOUS
10
0.6780685826771653
20
0.1913535826771653
11
0.6780118503937008
21
0.1907775196850394
0
LINE
8
BLACK
6
CONTINUOUS
10
0.6780118503937008
20
0.1907775196850394
11
0.6775709448818897
21
0.1897131102362205
0
LINE
8
BLACK
6
CONTINUOUS
10
0.6775709448818897
20
0.1897131102362205
11
0.6767562992125984
21
0.1888984645669291
0
LINE
8
BLACK
6
CONTINUOUS
10
0.6767562992125984
20
0.1888984645669291
11
0.6756918897637795
21
0.1884575590551181
0
LINE
8
BLACK
6
CONTINUOUS
10
0.6756918897637795
20
0.1884575590551181
11
0.6745397637795275
21
0.1884575590551181
0
LINE
8
BLACK
6
CONTINUOUS
10
0.6745397637795275
20
0.1884575590551181
11
0.6734753543307086
21
0.1888984645669291
0
LINE
8
BLACK
6
CONTINUOUS
10
0.6734753543307086
20
0.1888984645669291
11
0.6726607086614174
21
0.1897131102362205
0
LINE
8
BLACK
6
CONTINUOUS
10
0.6726607086614174
20
0.1897131102362205
11
0.6722198031496063
21
0.1907775196850394
0
LINE
8
BLACK
6
CONTINUOUS
10
0.6722198031496063
20
0.1907775196850394
11
0.6721630708661417
21
0.1913535826771653
0
LINE
8
BLACK
6
CONTINUOUS
10
0.6721630708661417
20
0.1913535826771653
11
0.6721630708661417
21
0.2176003149606299
0
LINE
8
BLACK
6
CONTINUOUS
10
0.6721630708661417
20
0.2176003149606299
11
0.6722198031496063
21
0.2181763779527559
0
LINE
8
BLACK
6
CONTINUOUS
10
0.6722198031496063
20
0.2181763779527559
11
0.6726607086614174
21
0.2192407874015748
0
LINE
8
BLACK
6
CONTINUOUS
10
0.6726607086614174
20
0.2192407874015748
11
0.6734753543307086
21
0.2200554330708661
0
LINE
8
BLACK
6
CONTINUOUS
10
0.6734753543307086
20
0.2200554330708661
11
0.6745397637795275
21
0.2204963385826772
0
LINE
8
BLACK
6
CONTINUOUS
10
0.6745397637795275
20
0.2204963385826772
11
0.6756918897637795
21
0.2204963385826772
0
LINE
8
BLACK
6
CONTINUOUS
10
0.6756918897637795
20
0.2204963385826772
11
0.6767562992125984
21
0.2200554330708661
0
LINE
8
BLACK
6
CONTINUOUS
10
0.7094376771653543
20
0.2336196850393701
11
0.7105020866141732
21
0.2331787795275591
0
LINE
8
BLACK
6
CONTINUOUS
10
0.7105020866141732
20
0.2331787795275591
11
0.7113167322834646
21
0.2323641338582677
0
LINE
8
BLACK
6
CONTINUOUS
10
0.7113167322834646
20
0.2323641338582677
11
0.7117576377952756
21
0.2312997244094488
0
LINE
8
BLACK
6
CONTINUOUS
10
0.7117576377952756
20
0.2312997244094488
11
0.7118143700787402
21
0.2307236614173228
0
LINE
8
BLACK
6
CONTINUOUS
10
0.7118143700787402
20
0.2307236614173228
11
0.7118143700787402
21
0.1913535826771653
0
LINE
8
BLACK
6
CONTINUOUS
10
0.7118143700787402
20
0.1913535826771653
11
0.7117576377952756
21
0.1907775196850394
0
LINE
8
BLACK
6
CONTINUOUS
10
0.7117576377952756
20
0.1907775196850394
11
0.7113167322834646
21
0.1897131102362205
0
LINE
8
BLACK
6
CONTINUOUS
10
0.7113167322834646
20
0.1897131102362205
11
0.7105020866141732
21
0.1888984645669291
0
LINE
8
BLACK
6
CONTINUOUS
10
0.7105020866141732
20
0.1888984645669291
11
0.7094376771653543
21
0.1884575590551181
0
LINE
8
BLACK
6
CONTINUOUS
10
0.7094376771653543
20
0.1884575590551181
11
0.7082855511811024
21
0.1884575590551181
0
LINE
8
BLACK
6
CONTINUOUS
10
0.7082855511811024
20
0.1884575590551181
11
0.7072211417322835
21
0.1888984645669291
0
LINE
8
BLACK
6
CONTINUOUS
10
0.7072211417322835
20
0.1888984645669291
11
0.7064064960629921
21
0.1897131102362205
0
LINE
8
BLACK
6
CONTINUOUS
10
0.7064064960629921
20
0.1897131102362205
11
0.7059655905511811
21
0.1907775196850394
0
LINE
8
BLACK
6
CONTINUOUS
10
0.7059655905511811
20
0.1907775196850394
11
0.7059088582677165
21
0.1913535826771653
0
LINE
8
BLACK
6
CONTINUOUS
10
0.7059088582677165
20
0.1913535826771653
11
0.7059088582677165
21
0.2090232677165354
0
LINE
8
BLACK
6
CONTINUOUS
10
0.7059088582677165
20
0.2090232677165354
11
0.6957382677165355
21
0.2090232677165354
0
LINE
8
BLACK
6
CONTINUOUS
10
0.6957382677165355
20
0.2090232677165354
11
0.6951622047244095
21
0.20908
0
LINE
8
BLACK
6
CONTINUOUS
10
0.6951622047244095
20
0.20908
11
0.6940977952755906
21
0.209520905511811
0
LINE
8
BLACK
6
CONTINUOUS
10
0.6940977952755906
20
0.209520905511811
11
0.6932831496062992
21
0.2103355511811024
0
LINE
8
BLACK
6
CONTINUOUS
10
0.6932831496062992
20
0.2103355511811024
11
0.6928422440944881
21
0.2113999606299213
0
LINE
8
BLACK
6
CONTINUOUS
10
0.6928422440944881
20
0.2113999606299213
11
0.6928422440944881
21
0.2125520866141732
0
LINE
8
BLACK
6
CONTINUOUS
10
0.6928422440944881
20
0.2125520866141732
11
0.6932831496062992
21
0.2136164960629921
0
LINE
8
BLACK
6
CONTINUOUS
10
0.6932831496062992
20
0.2136164960629921
11
0.6940977952755906
21
0.2144311417322834
0
LINE
8
BLACK
6
CONTINUOUS
10
0.6940977952755906
20
0.2144311417322834
11
0.6951622047244095
21
0.2148720472440945
0
LINE
8
BLACK
6
CONTINUOUS
10
0.6951622047244095
20
0.2148720472440945
11
0.6957382677165355
21
0.214928779527559
0
LINE
8
BLACK
6
CONTINUOUS
10
0.6957382677165355
20
0.214928779527559
11
0.7059088582677165
21
0.214928779527559
0
LINE
8
BLACK
6
CONTINUOUS
10
0.7059088582677165
20
0.214928779527559
11
0.7059088582677165
21
0.227770905511811
0
LINE
8
BLACK
6
CONTINUOUS
10
0.7059088582677165
20
0.227770905511811
11
0.6901139763779527
21
0.227770905511811
0
LINE
8
BLACK
6
CONTINUOUS
10
0.6901139763779527
20
0.227770905511811
11
0.6895379133858267
21
0.2278276377952756
0
LINE
8
BLACK
6
CONTINUOUS
10
0.6895379133858267
20
0.2278276377952756
11
0.6884735039370079
21
0.2282685433070866
0
LINE
8
BLACK
6
CONTINUOUS
10
0.6884735039370079
20
0.2282685433070866
11
0.6876588582677166
21
0.2290831889763779
0
LINE
8
BLACK
6
CONTINUOUS
10
0.6876588582677166
20
0.2290831889763779
11
0.6872179527559055
21
0.2301475984251969
0
LINE
8
BLACK
6
CONTINUOUS
10
0.6872179527559055
20
0.2301475984251969
11
0.6872179527559055
21
0.2312997244094488
0
LINE
8
BLACK
6
CONTINUOUS
10
0.6872179527559055
20
0.2312997244094488
11
0.6876588582677166
21
0.2323641338582677
0
LINE
8
BLACK
6
CONTINUOUS
10
0.6876588582677166
20
0.2323641338582677
11
0.6884735039370079
21
0.2331787795275591
0
LINE
8
BLACK
6
CONTINUOUS
10
0.6884735039370079
20
0.2331787795275591
11
0.6895379133858267
21
0.2336196850393701
0
LINE
8
BLACK
6
CONTINUOUS
10
0.6895379133858267
20
0.2336196850393701
11
0.6901139763779527
21
0.2336764173228346
0
LINE
8
BLACK
6
CONTINUOUS
10
0.6901139763779527
20
0.2336764173228346
11
0.7088616141732283
21
0.2336764173228346
0
LINE
8
BLACK
6
CONTINUOUS
10
0.7088616141732283
20
0.2336764173228346
11
0.7094376771653543
21
0.2336196850393701
0
LINE
8
BLACK
6
CONTINUOUS
10
0.5530217716535433
20
0.2331787795275591
11
0.5534692125984252
21
0.2328115748031496
0
LINE
8
BLACK
6
CONTINUOUS
10
0.5534692125984252
20
0.2328115748031496
11
0.5553439763779527
21
0.230936811023622
0
LINE
8
BLACK
6
CONTINUOUS
10
0.5553439763779527
20
0.230936811023622
11
0.5557111811023622
21
0.2304893700787402
0
LINE
8
BLACK
6
CONTINUOUS
10
0.5557111811023622
20
0.2304893700787402
11
0.5558527559055118
21
0.2301475984251969
0
LINE
8
BLACK
6
CONTINUOUS
10
0.5558527559055118
20
0.2301475984251969
11
0.5561520866141733
21
0.2294249212598425
0
LINE
8
BLACK
6
CONTINUOUS
10
0.5561520866141733
20
0.2294249212598425
11
0.5561520866141733
21
0.2282728346456693
0
LINE
8
BLACK
6
CONTINUOUS
10
0.5561520866141733
20
0.2282728346456693
11
0.5557111811023622
21
0.2272084251968504
0
LINE
8
BLACK
6
CONTINUOUS
10
0.5557111811023622
20
0.2272084251968504
11
0.5553439763779527
21
0.2267609842519685
0
LINE
8
BLACK
6
CONTINUOUS
10
0.5553439763779527
20
0.2267609842519685
11
0.5534692125984252
21
0.2248862204724409
0
LINE
8
BLACK
6
CONTINUOUS
10
0.5534692125984252
20
0.2248862204724409
11
0.5530217716535433
21
0.2245190157480315
0
LINE
8
BLACK
6
CONTINUOUS
10
0.5530217716535433
20
0.2245190157480315
11
0.5519573622047244
21
0.2240781102362205
0
LINE
8
BLACK
6
CONTINUOUS
10
0.5519573622047244
20
0.2240781102362205
11
0.5519573228346456
21
0.2240781102362205
0
LINE
8
BLACK
6
CONTINUOUS
10
0.5519573228346456
20
0.2240781102362205
11
0.5508052755905511
21
0.2240781102362205
0
LINE
8
BLACK
6
CONTINUOUS
10
0.5508052755905511
20
0.2240781102362205
11
0.5508052362204724
21
0.2240781102362205
0
LINE
8
BLACK
6
CONTINUOUS
10
0.5508052362204724
20
0.2240781102362205
11
0.5497408267716535
21
0.2245190157480315
0
LINE
8
BLACK
6
CONTINUOUS
10
0.5497408267716535
20
0.2245190157480315
11
0.5492933858267717
21
0.2248862204724409
0
LINE
8
BLACK
6
CONTINUOUS
10
0.5492933858267717
20
0.2248862204724409
11
0.5474186220472441
21
0.2267609842519685
0
LINE
8
BLACK
6
CONTINUOUS
10
0.5474186220472441
20
0.2267609842519685
11
0.5470514173228347
21
0.2272084251968504
0
LINE
8
BLACK
6
CONTINUOUS
10
0.5470514173228347
20
0.2272084251968504
11
0.5466105118110236
21
0.228272874015748
0
LINE
8
BLACK
6
CONTINUOUS
10
0.5466105118110236
20
0.228272874015748
11
0.5466105118110236
21
0.2294249212598425
0
LINE
8
BLACK
6
CONTINUOUS
10
0.5466105118110236
20
0.2294249212598425
11
0.5470514173228347
21
0.2304893700787402
0
LINE
8
BLACK
6
CONTINUOUS
10
0.5470514173228347
20
0.2304893700787402
11
0.5474186220472441
21
0.230936811023622
0
LINE
8
BLACK
6
CONTINUOUS
10
0.5474186220472441
20
0.230936811023622
11
0.5492933858267717
21
0.2328115748031496
0
LINE
8
BLACK
6
CONTINUOUS
10
0.5492933858267717
20
0.2328115748031496
11
0.5497408267716535
21
0.2331787795275591
0
LINE
8
BLACK
6
CONTINUOUS
10
0.5497408267716535
20
0.2331787795275591
11
0.5508052362204724
21
0.2336196850393701
0
LINE
8
BLACK
6
CONTINUOUS
10
0.5508052362204724
20
0.2336196850393701
11
0.5519573228346456
21
0.2336196850393701
0
LINE
8
BLACK
6
CONTINUOUS
10
0.5519573228346456
20
0.2336196850393701
11
0.5519573622047244
21
0.2336196850393701
0
LINE
8
BLACK
6
CONTINUOUS
10
0.5519573622047244
20
0.2336196850393701
11
0.5530217716535433
21
0.2331787795275591
0
LINE
8
BLACK
6
CONTINUOUS
10
0.6767562992125984
20
0.2331787795275591
11
0.6772037401574803
21
0.2328115748031496
0
LINE
8
BLACK
6
CONTINUOUS
10
0.6772037401574803
20
0.2328115748031496
11
0.6790785039370079
21
0.230936811023622
0
LINE
8
BLACK
6
CONTINUOUS
10
0.6790785039370079
20
0.230936811023622
11
0.6794457086614173
21
0.2304893700787402
0
LINE
8
BLACK
6
CONTINUOUS
10
0.6794457086614173
20
0.2304893700787402
11
0.6795872834645669
21
0.2301475984251969
0
LINE
8
BLACK
6
CONTINUOUS
10
0.6795872834645669
20
0.2301475984251969
11
0.6798866141732284
21
0.2294249212598425
0
LINE
8
BLACK
6
CONTINUOUS
10
0.6798866141732284
20
0.2294249212598425
11
0.6798866141732284
21
0.2282728346456693
0
LINE
8
BLACK
6
CONTINUOUS
10
0.6798866141732284
20
0.2282728346456693
11
0.6794457086614173
21
0.2272084251968504
0
LINE
8
BLACK
6
CONTINUOUS
10
0.6794457086614173
20
0.2272084251968504
11
0.6790785039370079
21
0.2267609842519685
0
LINE
8
BLACK
6
CONTINUOUS
10
0.6790785039370079
20
0.2267609842519685
11
0.6772037401574803
21
0.2248862204724409
0
LINE
8
BLACK
6
CONTINUOUS
10
0.6772037401574803
20
0.2248862204724409
11
0.6767562992125984
21
0.2245190157480315
0
LINE
8
BLACK
6
CONTINUOUS
10
0.6767562992125984
20
0.2245190157480315
11
0.6756918897637795
21
0.2240781102362205
0
LINE
8
BLACK
6
CONTINUOUS
10
0.6756918897637795
20
0.2240781102362205
11
0.6756918503937007
21
0.2240781102362205
0
LINE
8
BLACK
6
CONTINUOUS
10
0.6756918503937007
20
0.2240781102362205
11
0.6745398031496063
21
0.2240781102362205
0
LINE
8
BLACK
6
CONTINUOUS
10
0.6745398031496063
20
0.2240781102362205
11
0.6745397637795275
21
0.2240781102362205
0
LINE
8
BLACK
6
CONTINUOUS
10
0.6745397637795275
20
0.2240781102362205
11
0.6734753543307086
21
0.2245190157480315
0
LINE
8
BLACK
6
CONTINUOUS
10
0.6734753543307086
20
0.2245190157480315
11
0.6730279133858268
21
0.2248862204724409
0
LINE
8
BLACK
6
CONTINUOUS
10
0.6730279133858268
20
0.2248862204724409
11
0.6711531496062992
21
0.2267609842519685
0
LINE
8
BLACK
6
CONTINUOUS
10
0.6711531496062992
20
0.2267609842519685
11
0.6707859448818897
21
0.2272084251968504
0
LINE
8
BLACK
6
CONTINUOUS
10
0.6707859448818897
20
0.2272084251968504
11
0.6703450393700787
21
0.228272874015748
0
LINE
8
BLACK
6
CONTINUOUS
10
0.6703450393700787
20
0.228272874015748
11
0.6703450393700787
21
0.2294249212598425
0
LINE
8
BLACK
6
CONTINUOUS
10
0.6703450393700787
20
0.2294249212598425
11
0.6707859448818897
21
0.2304893700787402
0
LINE
8
BLACK
6
CONTINUOUS
10
0.6707859448818897
20
0.2304893700787402
11
0.6711531496062992
21
0.230936811023622
0
LINE
8
BLACK
6
CONTINUOUS
10
0.6711531496062992
20
0.230936811023622
11
0.6730279133858268
21
0.2328115748031496
0
LINE
8
BLACK
6
CONTINUOUS
10
0.6730279133858268
20
0.2328115748031496
11
0.6734753543307086
21
0.2331787795275591
0
LINE
8
BLACK
6
CONTINUOUS
10
0.6734753543307086
20
0.2331787795275591
11
0.6745397637795275
21
0.2336196850393701
0
LINE
8
BLACK
6
CONTINUOUS
10
0.6745397637795275
20
0.2336196850393701
11
0.6756918503937007
21
0.2336196850393701
0
LINE
8
BLACK
6
CONTINUOUS
10
0.6756918503937007
20
0.2336196850393701
11
0.6756918897637795
21
0.2336196850393701
0
LINE
8
BLACK
6
CONTINUOUS
10
0.6756918897637795
20
0.2336196850393701
11
0.6767562992125984
21
0.2331787795275591
0
LINE
8
BLACK
6
CONTINUOUS
10
0.585935
20
0.2977551181102362
11
0.5859606692913386
21
0.2977636614173228
0
LINE
8
BLACK
6
CONTINUOUS
10
0.5859606692913386
20
0.2977636614173228
11
0.586143188976378
21
0.2977137007874016
0
LINE
8
BLACK
6
CONTINUOUS
10
0.586143188976378
20
0.2977137007874016
11
0.5863289763779528
21
0.2976767322834646
0
LINE
8
BLACK
6
CONTINUOUS
10
0.5863289763779528
20
0.2976767322834646
11
0.5863481102362205
21
0.2976575984251968
0
LINE
8
BLACK
6
CONTINUOUS
10
0.5863481102362205
20
0.2976575984251968
11
0.5864051968503937
21
0.297641968503937
0
LINE
8
BLACK
6
CONTINUOUS
10
0.5864051968503937
20
0.297641968503937
11
0.587905
21
0.2968920472440945
0
LINE
8
BLACK
6
CONTINUOUS
10
0.587905
20
0.2968920472440945
11
0.5880544488188977
21
0.2967760236220472
0
LINE
8
BLACK
6
CONTINUOUS
10
0.5880544488188977
20
0.2967760236220472
11
0.5882119291338582
21
0.2966708267716535
0
LINE
8
BLACK
6
CONTINUOUS
10
0.5882119291338582
20
0.2966708267716535
11
0.588961811023622
21
0.2959209448818897
0
LINE
8
BLACK
6
CONTINUOUS
10
0.588961811023622
20
0.2959209448818897
11
0.589217874015748
21
0.2955377559055118
0
LINE
8
BLACK
6
CONTINUOUS
10
0.589217874015748
20
0.2955377559055118
11
0.5892179133858267
21
0.2946338188976378
0
LINE
8
BLACK
6
CONTINUOUS
10
0.5892179133858267
20
0.2946338188976378
11
0.5885786614173228
21
0.2939945669291338
0
LINE
8
BLACK
6
CONTINUOUS
10
0.5885786614173228
20
0.2939945669291338
11
0.5876747637795275
21
0.2939945275590551
0
LINE
8
BLACK
6
CONTINUOUS
10
0.5876747637795275
20
0.2939945275590551
11
0.5872915354330709
21
0.2942505511811024
0
LINE
8
BLACK
6
CONTINUOUS
10
0.5872915354330709
20
0.2942505511811024
11
0.5866770866141732
21
0.2948649606299212
0
LINE
8
BLACK
6
CONTINUOUS
10
0.5866770866141732
20
0.2948649606299212
11
0.5855981102362204
21
0.2954044488188977
0
LINE
8
BLACK
6
CONTINUOUS
10
0.5855981102362204
20
0.2954044488188977
11
0.5824062992125985
21
0.2954044488188977
0
LINE
8
BLACK
6
CONTINUOUS
10
0.5824062992125985
20
0.2954044488188977
11
0.5813272047244095
21
0.2948649212598425
0
LINE
8
BLACK
6
CONTINUOUS
10
0.5813272047244095
20
0.2948649212598425
11
0.5808483858267717
21
0.2943861023622047
0
LINE
8
BLACK
6
CONTINUOUS
10
0.5808483858267717
20
0.2943861023622047
11
0.580308937007874
21
0.293307125984252
0
LINE
8
BLACK
6
CONTINUOUS
10
0.580308937007874
20
0.293307125984252
11
0.580308937007874
21
0.2922778346456693
0
LINE
8
BLACK
6
CONTINUOUS
10
0.580308937007874
20
0.2922778346456693
11
0.5809100393700787
21
0.2904743700787402
0
LINE
8
BLACK
6
CONTINUOUS
10
0.5809100393700787
20
0.2904743700787402
11
0.5897117716535433
21
0.2816726771653543
0
LINE
8
BLACK
6
CONTINUOUS
10
0.5897117716535433
20
0.2816726771653543
11
0.5899676771653544
21
0.2812896456692913
0
LINE
8
BLACK
6
CONTINUOUS
10
0.5899676771653544
20
0.2812896456692913
11
0.5899677952755905
21
0.2812895275590551
0
LINE
8
BLACK
6
CONTINUOUS
10
0.5899677952755905
20
0.2812895275590551
11
0.5899677952755905
21
0.2812894881889764
0
LINE
8
BLACK
6
CONTINUOUS
10
0.5899677952755905
20
0.2812894881889764
11
0.5899678346456693
21
0.2803855511811024
0
LINE
8
BLACK
6
CONTINUOUS
10
0.5899678346456693
20
0.2803855511811024
11
0.5899677952755905
21
0.2803855511811024
0
LINE
8
BLACK
6
CONTINUOUS
10
0.5899677952755905
20
0.2803855511811024
11
0.5899677952755905
21
0.2803855118110236
0
LINE
8
BLACK
6
CONTINUOUS
10
0.5899677952755905
20
0.2803855118110236
11
0.5893286220472441
21
0.2797463385826772
0
LINE
8
BLACK
6
CONTINUOUS
10
0.5893286220472441
20
0.2797463385826772
11
0.5888766141732283
21
0.2796564173228346
0
LINE
8
BLACK
6
CONTINUOUS
10
0.5888766141732283
20
0.2796564173228346
11
0.5791278346456693
21
0.2796564173228346
0
LINE
8
BLACK
6
CONTINUOUS
10
0.5791278346456693
20
0.2796564173228346
11
0.5786758267716535
21
0.2797463385826772
0
LINE
8
BLACK
6
CONTINUOUS
10
0.5786758267716535
20
0.2797463385826772
11
0.578036653543307
21
0.2803855118110236
0
LINE
8
BLACK
6
CONTINUOUS
10
0.578036653543307
20
0.2803855118110236
11
0.578036653543307
21
0.2812895275590551
0
LINE
8
BLACK
6
CONTINUOUS
10
0.578036653543307
20
0.2812895275590551
11
0.5786758267716535
21
0.2819287007874016
0
LINE
8
BLACK
6
CONTINUOUS
10
0.5786758267716535
20
0.2819287007874016
11
0.5791278346456693
21
0.2820186220472441
0
LINE
8
BLACK
6
CONTINUOUS
10
0.5791278346456693
20
0.2820186220472441
11
0.5860251968503937
21
0.2820186220472441
0
LINE
8
BLACK
6
CONTINUOUS
10
0.5860251968503937
20
0.2820186220472441
11
0.5790425590551181
21
0.2890012204724409
0
LINE
8
BLACK
6
CONTINUOUS
10
0.5790425590551181
20
0.2890012204724409
11
0.5790096850393701
21
0.2890504330708661
0
LINE
8
BLACK
6
CONTINUOUS
10
0.5790096850393701
20
0.2890504330708661
11
0.5789854724409449
21
0.2890625196850394
0
LINE
8
BLACK
6
CONTINUOUS
10
0.5789854724409449
20
0.2890625196850394
11
0.5788915748031496
21
0.2892271653543307
0
LINE
8
BLACK
6
CONTINUOUS
10
0.5788915748031496
20
0.2892271653543307
11
0.5787865354330709
21
0.2893844094488189
0
LINE
8
BLACK
6
CONTINUOUS
10
0.5787865354330709
20
0.2893844094488189
11
0.5787865354330709
21
0.2894114566929134
0
LINE
8
BLACK
6
CONTINUOUS
10
0.5787865354330709
20
0.2894114566929134
11
0.5787572047244094
21
0.2894628740157481
0
LINE
8
BLACK
6
CONTINUOUS
10
0.5787572047244094
20
0.2894628740157481
11
0.5780073228346456
21
0.2917125984251969
0
LINE
8
BLACK
6
CONTINUOUS
10
0.5780073228346456
20
0.2917125984251969
11
0.5779836220472441
21
0.2919005118110236
0
LINE
8
BLACK
6
CONTINUOUS
10
0.5779836220472441
20
0.2919005118110236
11
0.5779467322834646
21
0.2920861023622047
0
LINE
8
BLACK
6
CONTINUOUS
10
0.5779467322834646
20
0.2920861023622047
11
0.5779467322834646
21
0.293585905511811
0
LINE
8
BLACK
6
CONTINUOUS
10
0.5779467322834646
20
0.293585905511811
11
0.5779582677165355
21
0.293643937007874
0
LINE
8
BLACK
6
CONTINUOUS
10
0.5779582677165355
20
0.293643937007874
11
0.5779497244094488
21
0.2936695669291339
0
LINE
8
BLACK
6
CONTINUOUS
10
0.5779497244094488
20
0.2936695669291339
11
0.5779996456692913
21
0.2938520472440945
0
LINE
8
BLACK
6
CONTINUOUS
10
0.5779996456692913
20
0.2938520472440945
11
0.578036653543307
21
0.2940379133858267
0
LINE
8
BLACK
6
CONTINUOUS
10
0.578036653543307
20
0.2940379133858267
11
0.5780557874015748
21
0.2940570866141732
0
LINE
8
BLACK
6
CONTINUOUS
10
0.5780557874015748
20
0.2940570866141732
11
0.5780714173228346
21
0.294114094488189
0
LINE
8
BLACK
6
CONTINUOUS
10
0.5780714173228346
20
0.294114094488189
11
0.5788212992125984
21
0.295613937007874
0
LINE
8
BLACK
6
CONTINUOUS
10
0.5788212992125984
20
0.295613937007874
11
0.5789372440944882
21
0.2957633464566929
0
LINE
8
BLACK
6
CONTINUOUS
10
0.5789372440944882
20
0.2957633464566929
11
0.5790425590551181
21
0.2959209448818897
0
LINE
8
BLACK
6
CONTINUOUS
10
0.5790425590551181
20
0.2959209448818897
11
0.5797924803149607
21
0.2966708267716535
0
LINE
8
BLACK
6
CONTINUOUS
10
0.5797924803149607
20
0.2966708267716535
11
0.5799499212598425
21
0.2967760236220472
0
LINE
8
BLACK
6
CONTINUOUS
10
0.5799499212598425
20
0.2967760236220472
11
0.5800994094488189
21
0.2968920472440945
0
LINE
8
BLACK
6
CONTINUOUS
10
0.5800994094488189
20
0.2968920472440945
11
0.5815992519685039
21
0.297641968503937
0
LINE
8
BLACK
6
CONTINUOUS
10
0.5815992519685039
20
0.297641968503937
11
0.5816562598425197
21
0.2976575984251968
0
LINE
8
BLACK
6
CONTINUOUS
10
0.5816562598425197
20
0.2976575984251968
11
0.5816754330708661
21
0.2976767322834646
0
LINE
8
BLACK
6
CONTINUOUS
10
0.5816754330708661
20
0.2976767322834646
11
0.581860905511811
21
0.2977136614173228
0
LINE
8
BLACK
6
CONTINUOUS
10
0.581860905511811
20
0.2977136614173228
11
0.5820437401574803
21
0.2977637007874016
0
LINE
8
BLACK
6
CONTINUOUS
10
0.5820437401574803
20
0.2977637007874016
11
0.5820694488188977
21
0.2977551574803149
0
LINE
8
BLACK
6
CONTINUOUS
10
0.5820694488188977
20
0.2977551574803149
11
0.5821274409448819
21
0.2977666535433071
0
LINE
8
BLACK
6
CONTINUOUS
10
0.5821274409448819
20
0.2977666535433071
11
0.585876968503937
21
0.2977666535433071
0
LINE
8
BLACK
6
CONTINUOUS
10
0.585876968503937
20
0.2977666535433071
11
0.585935
21
0.2977551181102362
0
LINE
8
BLACK
6
CONTINUOUS
10
0.603576811023622
20
0.2976767322834646
11
0.6042159842519685
21
0.2970375590551181
0
LINE
8
BLACK
6
CONTINUOUS
10
0.6042159842519685
20
0.2970375590551181
11
0.604305905511811
21
0.2965855511811024
0
LINE
8
BLACK
6
CONTINUOUS
10
0.604305905511811
20
0.2965855511811024
11
0.604305905511811
21
0.2808375196850393
0
LINE
8
BLACK
6
CONTINUOUS
10
0.604305905511811
20
0.2808375196850393
11
0.6042159842519685
21
0.2803855511811024
0
LINE
8
BLACK
6
CONTINUOUS
10
0.6042159842519685
20
0.2803855511811024
11
0.6042159842519685
21
0.2803855118110236
0
LINE
8
BLACK
6
CONTINUOUS
10
0.6042159842519685
20
0.2803855118110236
11
0.603576811023622
21
0.2797463385826772
0
LINE
8
BLACK
6
CONTINUOUS
10
0.603576811023622
20
0.2797463385826772
11
0.6031248031496063
21
0.2796564173228346
0
LINE
8
BLACK
6
CONTINUOUS
10
0.6031248031496063
20
0.2796564173228346
11
0.5993752755905511
21
0.2796564173228346
0
LINE
8
BLACK
6
CONTINUOUS
10
0.5993752755905511
20
0.2796564173228346
11
0.5991896062992126
21
0.2796933858267717
0
LINE
8
BLACK
6
CONTINUOUS
10
0.5991896062992126
20
0.2796933858267717
11
0.599001811023622
21
0.2797170078740158
0
LINE
8
BLACK
6
CONTINUOUS
10
0.599001811023622
20
0.2797170078740158
11
0.5967520472440945
21
0.2804668897637795
0
LINE
8
BLACK
6
CONTINUOUS
10
0.5967520472440945
20
0.2804668897637795
11
0.5967005905511811
21
0.2804962204724409
0
LINE
8
BLACK
6
CONTINUOUS
10
0.5967005905511811
20
0.2804962204724409
11
0.5966735826771653
21
0.2804962204724409
0
LINE
8
BLACK
6
CONTINUOUS
10
0.5966735826771653
20
0.2804962204724409
11
0.5965161811023622
21
0.2806013779527559
0
LINE
8
BLACK
6
CONTINUOUS
10
0.5965161811023622
20
0.2806013779527559
11
0.5963516929133859
21
0.2806951574803149
0
LINE
8
BLACK
6
CONTINUOUS
10
0.5963516929133859
20
0.2806951574803149
11
0.5963395669291338
21
0.2807193700787401
0
LINE
8
BLACK
6
CONTINUOUS
10
0.5963395669291338
20
0.2807193700787401
11
0.5962903543307086
21
0.2807522440944882
0
LINE
8
BLACK
6
CONTINUOUS
10
0.5962903543307086
20
0.2807522440944882
11
0.5947905905511811
21
0.2822520866141732
0
LINE
8
BLACK
6
CONTINUOUS
10
0.5947905905511811
20
0.2822520866141732
11
0.5946853543307087
21
0.2824095669291338
0
LINE
8
BLACK
6
CONTINUOUS
10
0.5946853543307087
20
0.2824095669291338
11
0.5945693307086614
21
0.2825590551181102
0
LINE
8
BLACK
6
CONTINUOUS
10
0.5945693307086614
20
0.2825590551181102
11
0.5938194488188976
21
0.2840588582677165
0
LINE
8
BLACK
6
CONTINUOUS
10
0.5938194488188976
20
0.2840588582677165
11
0.5937852755905512
21
0.2841836614173228
0
LINE
8
BLACK
6
CONTINUOUS
10
0.5937852755905512
20
0.2841836614173228
11
0.5937300393700787
21
0.2843005905511811
0
LINE
8
BLACK
6
CONTINUOUS
10
0.5937300393700787
20
0.2843005905511811
11
0.5929801181102362
21
0.2873001968503937
0
LINE
8
BLACK
6
CONTINUOUS
10
0.5929801181102362
20
0.2873001968503937
11
0.5929730708661417
21
0.2874446850393701
0
LINE
8
BLACK
6
CONTINUOUS
10
0.5929730708661417
20
0.2874446850393701
11
0.592944842519685
21
0.2875866535433071
0
LINE
8
BLACK
6
CONTINUOUS
10
0.592944842519685
20
0.2875866535433071
11
0.592944842519685
21
0.2898363779527559
0
LINE
8
BLACK
6
CONTINUOUS
10
0.592944842519685
20
0.2898363779527559
11
0.5929730708661417
21
0.2899783858267717
0
LINE
8
BLACK
6
CONTINUOUS
10
0.5929730708661417
20
0.2899783858267717
11
0.5929801181102362
21
0.2901228346456693
0
LINE
8
BLACK
6
CONTINUOUS
10
0.5929801181102362
20
0.2901228346456693
11
0.5937300393700787
21
0.2931224803149606
0
LINE
8
BLACK
6
CONTINUOUS
10
0.5937300393700787
20
0.2931224803149606
11
0.5937852755905512
21
0.2932394488188976
0
LINE
8
BLACK
6
CONTINUOUS
10
0.5937852755905512
20
0.2932394488188976
11
0.5938194488188976
21
0.2933642125984252
0
LINE
8
BLACK
6
CONTINUOUS
10
0.5938194488188976
20
0.2933642125984252
11
0.5945693307086614
21
0.2948640157480315
0
LINE
8
BLACK
6
CONTINUOUS
10
0.5945693307086614
20
0.2948640157480315
11
0.5946854724409448
21
0.2950136614173228
0
LINE
8
BLACK
6
CONTINUOUS
10
0.5946854724409448
20
0.2950136614173228
11
0.5947905905511811
21
0.2951709842519685
0
LINE
8
BLACK
6
CONTINUOUS
10
0.5947905905511811
20
0.2951709842519685
11
0.5962903543307086
21
0.2966707874015748
0
LINE
8
BLACK
6
CONTINUOUS
10
0.5962903543307086
20
0.2966707874015748
11
0.5963395275590551
21
0.2967036614173229
0
LINE
8
BLACK
6
CONTINUOUS
10
0.5963395275590551
20
0.2967036614173229
11
0.5963516535433071
21
0.296727874015748
0
LINE
8
BLACK
6
CONTINUOUS
10
0.5963516535433071
20
0.296727874015748
11
0.5965161811023622
21
0.2968216929133858
0
LINE
8
BLACK
6
CONTINUOUS
10
0.5965161811023622
20
0.2968216929133858
11
0.5966735826771653
21
0.2969268110236221
0
LINE
8
BLACK
6
CONTINUOUS
10
0.5966735826771653
20
0.2969268110236221
11
0.5967006692913386
21
0.2969268110236221
0
LINE
8
BLACK
6
CONTINUOUS
10
0.5967006692913386
20
0.2969268110236221
11
0.5967520472440945
21
0.2969561023622047
0
LINE
8
BLACK
6
CONTINUOUS
10
0.5967520472440945
20
0.2969561023622047
11
0.5990017716535433
21
0.2977060236220472
0
LINE
8
BLACK
6
CONTINUOUS
10
0.5990017716535433
20
0.2977060236220472
11
0.5991893700787402
21
0.2977296850393701
0
LINE
8
BLACK
6
CONTINUOUS
10
0.5991893700787402
20
0.2977296850393701
11
0.5993752755905511
21
0.2977666535433071
0
LINE
8
BLACK
6
CONTINUOUS
10
0.5993752755905511
20
0.2977666535433071
11
0.6031248031496063
21
0.2977666535433071
0
LINE
8
BLACK
6
CONTINUOUS
10
0.6031248031496063
20
0.2977666535433071
11
0.603576811023622
21
0.2976767322834646
0
LINE
8
BLACK
6
CONTINUOUS
10
0.5977635826771653
20
0.2948033464566929
11
0.5965964566929134
21
0.2936362204724409
0
LINE
8
BLACK
6
CONTINUOUS
10
0.5965964566929134
20
0.2936362204724409
11
0.5959902362204724
21
0.292423779527559
0
LINE
8
BLACK
6
CONTINUOUS
10
0.5959902362204724
20
0.292423779527559
11
0.5953070472440944
21
0.2896910236220472
0
LINE
8
BLACK
6
CONTINUOUS
10
0.5953070472440944
20
0.2896910236220472
11
0.5953070472440944
21
0.2877320472440945
0
LINE
8
BLACK
6
CONTINUOUS
10
0.5953070472440944
20
0.2877320472440945
11
0.5959901968503937
21
0.2849993307086614
0
LINE
8
BLACK
6
CONTINUOUS
10
0.5959901968503937
20
0.2849993307086614
11
0.5965964566929134
21
0.2837868503937008
0
LINE
8
BLACK
6
CONTINUOUS
10
0.5965964566929134
20
0.2837868503937008
11
0.5977635039370078
21
0.2826198031496063
0
LINE
8
BLACK
6
CONTINUOUS
10
0.5977635039370078
20
0.2826198031496063
11
0.5995670078740157
21
0.2820186220472441
0
LINE
8
BLACK
6
CONTINUOUS
10
0.5995670078740157
20
0.2820186220472441
11
0.6019437007874016
21
0.2820186220472441
0
LINE
8
BLACK
6
CONTINUOUS
10
0.6019437007874016
20
0.2820186220472441
11
0.6019437007874016
21
0.2954044488188977
0
LINE
8
BLACK
6
CONTINUOUS
10
0.6019437007874016
20
0.2954044488188977
11
0.5995668897637795
21
0.2954044488188977
0
LINE
8
BLACK
6
CONTINUOUS
10
0.5995668897637795
20
0.2954044488188977
11
0.5977635826771653
21
0.2948033464566929
0
LINE
8
BLACK
6
CONTINUOUS
10
0.6117150393700788
20
0.2970375590551181
11
0.6118049606299213
21
0.2965855511811024
0
LINE
8
BLACK
6
CONTINUOUS
10
0.6118049606299213
20
0.2965855511811024
11
0.6118049606299213
21
0.2808375196850393
0
LINE
8
BLACK
6
CONTINUOUS
10
0.6118049606299213
20
0.2808375196850393
11
0.6117150393700788
21
0.2803855118110236
0
LINE
8
BLACK
6
CONTINUOUS
10
0.6117150393700788
20
0.2803855118110236
11
0.6110758661417323
21
0.2797463385826772
0
LINE
8
BLACK
6
CONTINUOUS
10
0.6110758661417323
20
0.2797463385826772
11
0.6101718503937008
21
0.2797463385826772
0
LINE
8
BLACK
6
CONTINUOUS
10
0.6101718503937008
20
0.2797463385826772
11
0.6095326771653543
21
0.2803855118110236
0
LINE
8
BLACK
6
CONTINUOUS
10
0.6095326771653543
20
0.2803855118110236
11
0.6094427559055118
21
0.2808375196850393
0
LINE
8
BLACK
6
CONTINUOUS
10
0.6094427559055118
20
0.2808375196850393
11
0.6094427559055118
21
0.2965855511811024
0
LINE
8
BLACK
6
CONTINUOUS
10
0.6094427559055118
20
0.2965855511811024
11
0.6095326771653543
21
0.2970375590551181
0
LINE
8
BLACK
6
CONTINUOUS
10
0.6095326771653543
20
0.2970375590551181
11
0.6101718503937008
21
0.2976767322834646
0
LINE
8
BLACK
6
CONTINUOUS
10
0.6101718503937008
20
0.2976767322834646
11
0.6110758661417323
21
0.2976767322834646
0
LINE
8
BLACK
6
CONTINUOUS
10
0.6110758661417323
20
0.2976767322834646
11
0.6117150393700788
21
0.2970375590551181
0
LINE
8
BLACK
6
CONTINUOUS
10
0.6245741732283464
20
0.2976767322834646
11
0.6252133464566929
21
0.2970375590551181
0
LINE
8
BLACK
6
CONTINUOUS
10
0.6252133464566929
20
0.2970375590551181
11
0.6253032677165354
21
0.2965855511811024
0
LINE
8
BLACK
6
CONTINUOUS
10
0.6253032677165354
20
0.2965855511811024
11
0.6253032677165354
21
0.2808375196850393
0
LINE
8
BLACK
6
CONTINUOUS
10
0.6253032677165354
20
0.2808375196850393
11
0.6252133464566929
21
0.2803855118110236
0
LINE
8
BLACK
6
CONTINUOUS
10
0.6252133464566929
20
0.2803855118110236
11
0.6245741732283464
21
0.2797463385826772
0
LINE
8
BLACK
6
CONTINUOUS
10
0.6245741732283464
20
0.2797463385826772
11
0.623670157480315
21
0.2797463385826772
0
LINE
8
BLACK
6
CONTINUOUS
10
0.623670157480315
20
0.2797463385826772
11
0.6230309842519685
21
0.2803855118110236
0
LINE
8
BLACK
6
CONTINUOUS
10
0.6230309842519685
20
0.2803855118110236
11
0.6229410629921259
21
0.2808375196850393
0
LINE
8
BLACK
6
CONTINUOUS
10
0.6229410629921259
20
0.2808375196850393
11
0.6229410629921259
21
0.2879053937007874
0
LINE
8
BLACK
6
CONTINUOUS
10
0.6229410629921259
20
0.2879053937007874
11
0.6188728346456692
21
0.2879053937007874
0
LINE
8
BLACK
6
CONTINUOUS
10
0.6188728346456692
20
0.2879053937007874
11
0.6184208267716536
21
0.2879953149606299
0
LINE
8
BLACK
6
CONTINUOUS
10
0.6184208267716536
20
0.2879953149606299
11
0.6177816535433071
21
0.2886344881889764
0
LINE
8
BLACK
6
CONTINUOUS
10
0.6177816535433071
20
0.2886344881889764
11
0.6177816535433071
21
0.2895385039370079
0
LINE
8
BLACK
6
CONTINUOUS
10
0.6177816535433071
20
0.2895385039370079
11
0.6184208267716536
21
0.2901776771653543
0
LINE
8
BLACK
6
CONTINUOUS
10
0.6184208267716536
20
0.2901776771653543
11
0.6188728346456692
21
0.2902675984251968
0
LINE
8
BLACK
6
CONTINUOUS
10
0.6188728346456692
20
0.2902675984251968
11
0.6229410629921259
21
0.2902675984251968
0
LINE
8
BLACK
6
CONTINUOUS
10
0.6229410629921259
20
0.2902675984251968
11
0.6229410629921259
21
0.2954044488188977
0
LINE
8
BLACK
6
CONTINUOUS
10
0.6229410629921259
20
0.2954044488188977
11
0.6166231102362204
21
0.2954044488188977
0
LINE
8
BLACK
6
CONTINUOUS
10
0.6166231102362204
20
0.2954044488188977
11
0.6161711023622047
21
0.2954943700787401
0
LINE
8
BLACK
6
CONTINUOUS
10
0.6161711023622047
20
0.2954943700787401
11
0.6155319291338582
21
0.2961335433070866
0
LINE
8
BLACK
6
CONTINUOUS
10
0.6155319291338582
20
0.2961335433070866
11
0.6155319291338582
21
0.2970375590551181
0
LINE
8
BLACK
6
CONTINUOUS
10
0.6155319291338582
20
0.2970375590551181
11
0.6161711023622047
21
0.2976767322834646
0
LINE
8
BLACK
6
CONTINUOUS
10
0.6161711023622047
20
0.2976767322834646
11
0.6166231102362204
21
0.2977666535433071
0
LINE
8
BLACK
6
CONTINUOUS
10
0.6166231102362204
20
0.2977666535433071
11
0.6241221653543307
21
0.2977666535433071
0
LINE
8
BLACK
6
CONTINUOUS
10
0.6241221653543307
20
0.2977666535433071
11
0.6245741732283464
21
0.2976767322834646
0
LINE
8
BLACK
6
CONTINUOUS
10
0.6100647637795276
20
0.3285442913385827
11
0.6178196062992126
21
0.3261918897637795
0
LINE
8
BLACK
6
CONTINUOUS
10
0.6178196062992126
20
0.3261918897637795
11
0.6249664960629921
21
0.3223717716535433
0
LINE
8
BLACK
6
CONTINUOUS
10
0.6249664960629921
20
0.3223717716535433
11
0.6312307874015748
21
0.3172307874015748
0
LINE
8
BLACK
6
CONTINUOUS
10
0.6312307874015748
20
0.3172307874015748
11
0.6363717716535433
21
0.3109664960629921
0
LINE
8
BLACK
6
CONTINUOUS
10
0.6363717716535433
20
0.3109664960629921
11
0.6401918897637795
21
0.3038196062992126
0
LINE
8
BLACK
6
CONTINUOUS
10
0.6401918897637795
20
0.3038196062992126
11
0.6425442913385827
21
0.2960647637795276
0
LINE
8
BLACK
6
CONTINUOUS
10
0.6425442913385827
20
0.2960647637795276
11
0.6433385826771654
21
0.288
0
LINE
8
BLACK
6
CONTINUOUS
10
0.6433385826771654
20
0.288
11
0.6425442913385827
21
0.2799352362204724
0
LINE
8
BLACK
6
CONTINUOUS
10
0.6425442913385827
20
0.2799352362204724
11
0.6401918897637795
21
0.2721803937007874
0
LINE
8
BLACK
6
CONTINUOUS
10
0.6401918897637795
20
0.2721803937007874
11
0.6363717716535433
21
0.2650335039370079
0
LINE
8
BLACK
6
CONTINUOUS
10
0.6363717716535433
20
0.2650335039370079
11
0.6312307874015748
21
0.2587692125984252
0
LINE
8
BLACK
6
CONTINUOUS
10
0.6312307874015748
20
0.2587692125984252
11
0.6249664960629921
21
0.2536282283464567
0
LINE
8
BLACK
6
CONTINUOUS
10
0.6249664960629921
20
0.2536282283464567
11
0.6178196062992126
21
0.2498081102362205
0
LINE
8
BLACK
6
CONTINUOUS
10
0.6178196062992126
20
0.2498081102362205
11
0.6100647637795276
21
0.2474557086614173
0
LINE
8
BLACK
6
CONTINUOUS
10
0.6100647637795276
20
0.2474557086614173
11
0.602
21
0.2466614173228346
0
LINE
8
BLACK
6
CONTINUOUS
10
0.602
20
0.2466614173228346
11
0.5939352362204724
21
0.2474557086614173
0
LINE
8
BLACK
6
CONTINUOUS
10
0.5939352362204724
20
0.2474557086614173
11
0.5861803937007873
21
0.2498081102362205
0
LINE
8
BLACK
6
CONTINUOUS
10
0.5861803937007873
20
0.2498081102362205
11
0.5790335039370078
21
0.2536282283464567
0
LINE
8
BLACK
6
CONTINUOUS
10
0.5790335039370078
20
0.2536282283464567
11
0.5727692125984252
21
0.2587692125984252
0
LINE
8
BLACK
6
CONTINUOUS
10
0.5727692125984252
20
0.2587692125984252
11
0.5676282283464567
21
0.2650335039370079
0
LINE
8
BLACK
6
CONTINUOUS
10
0.5676282283464567
20
0.2650335039370079
11
0.5638081102362205
21
0.2721803937007874
0
LINE
8
BLACK
6
CONTINUOUS
10
0.5638081102362205
20
0.2721803937007874
11
0.5614557086614174
21
0.2799352362204724
0
LINE
8
BLACK
6
CONTINUOUS
10
0.5614557086614174
20
0.2799352362204724
11
0.5606614173228346
21
0.288
0
LINE
8
BLACK
6
CONTINUOUS
10
0.5606614173228346
20
0.288
11
0.5614557086614174
21
0.2960647637795276
0
LINE
8
BLACK
6
CONTINUOUS
10
0.5614557086614174
20
0.2960647637795276
11
0.5638081102362205
21
0.3038196062992126
0
LINE
8
BLACK
6
CONTINUOUS
10
0.5638081102362205
20
0.3038196062992126
11
0.5676282283464567
21
0.3109664960629921
0
LINE
8
BLACK
6
CONTINUOUS
10
0.5676282283464567
20
0.3109664960629921
11
0.5727692125984252
21
0.3172307874015748
0
LINE
8
BLACK
6
CONTINUOUS
10
0.5727692125984252
20
0.3172307874015748
11
0.5790335039370078
21
0.3223717716535433
0
LINE
8
BLACK
6
CONTINUOUS
10
0.5790335039370078
20
0.3223717716535433
11
0.5861803937007873
21
0.3261918897637795
0
LINE
8
BLACK
6
CONTINUOUS
10
0.5861803937007873
20
0.3261918897637795
11
0.5939352362204724
21
0.3285442913385827
0
LINE
8
BLACK
6
CONTINUOUS
10
0.5939352362204724
20
0.3285442913385827
11
0.602
21
0.3293385826771654
0
LINE
8
BLACK
6
CONTINUOUS
10
0.602
20
0.3293385826771654
11
0.6100647637795276
21
0.3285442913385827
0
LINE
8
BLACK
6
CONTINUOUS
10
0.5651395669291338
20
0.2806679921259843
11
0.5672782283464567
21
0.2736177952755905
0
LINE
8
BLACK
6
CONTINUOUS
10
0.5672782283464567
20
0.2736177952755905
11
0.5707512598425196
21
0.2671202362204724
0
LINE
8
BLACK
6
CONTINUOUS
10
0.5707512598425196
20
0.2671202362204724
11
0.5754251181102362
21
0.2614251181102362
0
LINE
8
BLACK
6
CONTINUOUS
10
0.5754251181102362
20
0.2614251181102362
11
0.5811202362204724
21
0.2567512598425197
0
LINE
8
BLACK
6
CONTINUOUS
10
0.5811202362204724
20
0.2567512598425197
11
0.5876177952755905
21
0.2532782283464567
0
LINE
8
BLACK
6
CONTINUOUS
10
0.5876177952755905
20
0.2532782283464567
11
0.5946679921259842
21
0.2511395669291339
0
LINE
8
BLACK
6
CONTINUOUS
10
0.5946679921259842
20
0.2511395669291339
11
0.602
21
0.2504174409448819
0
LINE
8
BLACK
6
CONTINUOUS
10
0.602
20
0.2504174409448819
11
0.6093320078740158
21
0.2511395669291339
0
LINE
8
BLACK
6
CONTINUOUS
10
0.6093320078740158
20
0.2511395669291339
11
0.6163822047244094
21
0.2532782283464567
0
LINE
8
BLACK
6
CONTINUOUS
10
0.6163822047244094
20
0.2532782283464567
11
0.6228797637795276
21
0.2567512598425197
0
LINE
8
BLACK
6
CONTINUOUS
10
0.6228797637795276
20
0.2567512598425197
11
0.6285748818897637
21
0.2614251181102362
0
LINE
8
BLACK
6
CONTINUOUS
10
0.6285748818897637
20
0.2614251181102362
11
0.6332487401574803
21
0.2671202362204724
0
LINE
8
BLACK
6
CONTINUOUS
10
0.6332487401574803
20
0.2671202362204724
11
0.6367217716535433
21
0.2736177952755905
0
LINE
8
BLACK
6
CONTINUOUS
10
0.6367217716535433
20
0.2736177952755905
11
0.6388604330708662
21
0.2806679921259843
0
LINE
8
BLACK
6
CONTINUOUS
10
0.6388604330708662
20
0.2806679921259843
11
0.6395825590551181
21
0.288
0
LINE
8
BLACK
6
CONTINUOUS
10
0.6395825590551181
20
0.288
11
0.6388604330708662
21
0.2953320078740158
0
LINE
8
BLACK
6
CONTINUOUS
10
0.6388604330708662
20
0.2953320078740158
11
0.6367217716535433
21
0.3023822047244095
0
LINE
8
BLACK
6
CONTINUOUS
10
0.6367217716535433
20
0.3023822047244095
11
0.6332487401574803
21
0.3088797637795275
0
LINE
8
BLACK
6
CONTINUOUS
10
0.6332487401574803
20
0.3088797637795275
11
0.6285748818897637
21
0.3145748818897638
0
LINE
8
BLACK
6
CONTINUOUS
10
0.6285748818897637
20
0.3145748818897638
11
0.6228797637795276
21
0.3192487401574803
0
LINE
8
BLACK
6
CONTINUOUS
10
0.6228797637795276
20
0.3192487401574803
11
0.6163822047244094
21
0.3227217716535433
0
LINE
8
BLACK
6
CONTINUOUS
10
0.6163822047244094
20
0.3227217716535433
11
0.6093320078740158
21
0.3248604330708662
0
LINE
8
BLACK
6
CONTINUOUS
10
0.6093320078740158
20
0.3248604330708662
11
0.602
21
0.3255825590551181
0
LINE
8
BLACK
6
CONTINUOUS
10
0.602
20
0.3255825590551181
11
0.5946679921259842
21
0.3248604330708662
0
LINE
8
BLACK
6
CONTINUOUS
10
0.5946679921259842
20
0.3248604330708662
11
0.5876177952755905
21
0.3227217716535433
0
LINE
8
BLACK
6
CONTINUOUS
10
0.5876177952755905
20
0.3227217716535433
11
0.5811202362204724
21
0.3192487401574803
0
LINE
8
BLACK
6
CONTINUOUS
10
0.5811202362204724
20
0.3192487401574803
11
0.5754251181102362
21
0.3145748818897638
0
LINE
8
BLACK
6
CONTINUOUS
10
0.5754251181102362
20
0.3145748818897638
11
0.5707512598425196
21
0.3088797637795275
0
LINE
8
BLACK
6
CONTINUOUS
10
0.5707512598425196
20
0.3088797637795275
11
0.5672782283464567
21
0.3023822047244095
0
LINE
8
BLACK
6
CONTINUOUS
10
0.5672782283464567
20
0.3023822047244095
11
0.5651395669291338
21
0.2953320078740158
0
LINE
8
BLACK
6
CONTINUOUS
10
0.5651395669291338
20
0.2953320078740158
11
0.5644174409448819
21
0.288
0
LINE
8
BLACK
6
CONTINUOUS
10
0.5644174409448819
20
0.288
11
0.5651395669291338
21
0.2806679921259843
0
LINE
8
BLACK
6
CONTINUOUS
10
0.5274601968503937
20
1.6382601181102361
11
0.527558188976378
21
1.638219527559055
0
LINE
8
BLACK
6
CONTINUOUS
10
0.527558188976378
20
1.638219527559055
11
0.5276640157480315
21
1.6382120078740157
0
LINE
8
BLACK
6
CONTINUOUS
10
0.5276640157480315
20
1.6382120078740157
11
0.5282046456692914
21
1.6380051181102362
0
LINE
8
BLACK
6
CONTINUOUS
10
0.5282046456692914
20
1.6380051181102362
11
0.5319541732283465
21
1.6361303543307086
0
LINE
8
BLACK
6
CONTINUOUS
10
0.5319541732283465
20
1.6361303543307086
11
0.5324440551181102
21
1.6358220078740158
0
LINE
8
BLACK
6
CONTINUOUS
10
0.5324440551181102
20
1.6358220078740158
11
0.5331988976377953
21
1.6349516141732283
0
LINE
8
BLACK
6
CONTINUOUS
10
0.5331988976377953
20
1.6349516141732283
11
0.5335632283464566
21
1.6338586614173227
0
LINE
8
BLACK
6
CONTINUOUS
10
0.5335632283464566
20
1.6338586614173227
11
0.5334815748031496
21
1.6327094488188976
0
LINE
8
BLACK
6
CONTINUOUS
10
0.5334815748031496
20
1.6327094488188976
11
0.5329662992125984
21
1.6316789370078739
0
LINE
8
BLACK
6
CONTINUOUS
10
0.5329662992125984
20
1.6316789370078739
11
0.5320959448818897
21
1.6309240944881889
0
LINE
8
BLACK
6
CONTINUOUS
10
0.5320959448818897
20
1.6309240944881889
11
0.5310029527559055
21
1.6305597637795275
0
LINE
8
BLACK
6
CONTINUOUS
10
0.5310029527559055
20
1.6305597637795275
11
0.5298537401574803
21
1.6306414173228345
0
LINE
8
BLACK
6
CONTINUOUS
10
0.5298537401574803
20
1.6306414173228345
11
0.5293131496062992
21
1.6308483070866142
0
LINE
8
BLACK
6
CONTINUOUS
10
0.5293131496062992
20
1.6308483070866142
11
0.5261870866141732
21
1.6324113385826771
0
LINE
8
BLACK
6
CONTINUOUS
10
0.5261870866141732
20
1.6324113385826771
11
0.520082125984252
21
1.6324113385826771
0
LINE
8
BLACK
6
CONTINUOUS
10
0.520082125984252
20
1.6324113385826771
11
0.5178363779527559
21
1.6312885039370078
0
LINE
8
BLACK
6
CONTINUOUS
10
0.5178363779527559
20
1.6312885039370078
11
0.5167135433070866
21
1.6290427559055118
0
LINE
8
BLACK
6
CONTINUOUS
10
0.5167135433070866
20
1.6290427559055118
11
0.5167135433070866
21
1.6278151968503936
0
LINE
8
BLACK
6
CONTINUOUS
10
0.5167135433070866
20
1.6278151968503936
11
0.5182073622047244
21
1.6270682677165353
0
LINE
8
BLACK
6
CONTINUOUS
10
0.5182073622047244
20
1.6270682677165353
11
0.5268841338582677
21
1.6270682677165353
0
LINE
8
BLACK
6
CONTINUOUS
10
0.5268841338582677
20
1.6270682677165353
11
0.5274601968503937
21
1.6270115354330708
0
LINE
8
BLACK
6
CONTINUOUS
10
0.5274601968503937
20
1.6270115354330708
11
0.527558188976378
21
1.6269709448818896
0
LINE
8
BLACK
6
CONTINUOUS
10
0.527558188976378
20
1.6269709448818896
11
0.5276640157480315
21
1.6269634251968503
0
LINE
8
BLACK
6
CONTINUOUS
10
0.5276640157480315
20
1.6269634251968503
11
0.5282046456692914
21
1.6267565354330709
0
LINE
8
BLACK
6
CONTINUOUS
10
0.5282046456692914
20
1.6267565354330709
11
0.5319541732283465
21
1.6248817716535433
0
LINE
8
BLACK
6
CONTINUOUS
10
0.5319541732283465
20
1.6248817716535433
11
0.5320505118110236
21
1.6248211417322835
0
LINE
8
BLACK
6
CONTINUOUS
10
0.5320505118110236
20
1.6248211417322835
11
0.5320959448818897
21
1.6248059842519684
0
LINE
8
BLACK
6
CONTINUOUS
10
0.5320959448818897
20
1.6248059842519684
11
0.5321524803149607
21
1.6247569685039369
0
LINE
8
BLACK
6
CONTINUOUS
10
0.5321524803149607
20
1.6247569685039369
11
0.5324440551181102
21
1.6245734251968504
0
LINE
8
BLACK
6
CONTINUOUS
10
0.5324440551181102
20
1.6245734251968504
11
0.5326866141732284
21
1.6242937401574802
0
LINE
8
BLACK
6
CONTINUOUS
10
0.5326866141732284
20
1.6242937401574802
11
0.5329663385826772
21
1.6240511417322834
0
LINE
8
BLACK
6
CONTINUOUS
10
0.5329663385826772
20
1.6240511417322834
11
0.533149842519685
21
1.6237596062992126
0
LINE
8
BLACK
6
CONTINUOUS
10
0.533149842519685
20
1.6237596062992126
11
0.5331988976377953
21
1.623703031496063
0
LINE
8
BLACK
6
CONTINUOUS
10
0.5331988976377953
20
1.623703031496063
11
0.5332140157480315
21
1.6236576377952756
0
LINE
8
BLACK
6
CONTINUOUS
10
0.5332140157480315
20
1.6236576377952756
11
0.53327468503937
21
1.6235612598425198
0
LINE
8
BLACK
6
CONTINUOUS
10
0.53327468503937
20
1.6235612598425198
11
0.5351494488188976
21
1.6198117322834644
0
LINE
8
BLACK
6
CONTINUOUS
10
0.5351494488188976
20
1.6198117322834644
11
0.5353563385826772
21
1.6192711417322834
0
LINE
8
BLACK
6
CONTINUOUS
10
0.5353563385826772
20
1.6192711417322834
11
0.5353638582677165
21
1.6191652755905512
0
LINE
8
BLACK
6
CONTINUOUS
10
0.5353638582677165
20
1.6191652755905512
11
0.5354044488188976
21
1.619067283464567
0
LINE
8
BLACK
6
CONTINUOUS
10
0.5354044488188976
20
1.619067283464567
11
0.5354611811023622
21
1.6184912204724409
0
LINE
8
BLACK
6
CONTINUOUS
10
0.5354611811023622
20
1.6184912204724409
11
0.5354611811023622
21
1.6147416929133858
0
LINE
8
BLACK
6
CONTINUOUS
10
0.5354611811023622
20
1.6147416929133858
11
0.5354044488188976
21
1.6141656299212599
0
LINE
8
BLACK
6
CONTINUOUS
10
0.5354044488188976
20
1.6141656299212599
11
0.5353638188976377
21
1.6140676377952756
0
LINE
8
BLACK
6
CONTINUOUS
10
0.5353638188976377
20
1.6140676377952756
11
0.5353563385826772
21
1.613961811023622
0
LINE
8
BLACK
6
CONTINUOUS
10
0.5353563385826772
20
1.613961811023622
11
0.5351494488188976
21
1.6134211811023622
0
LINE
8
BLACK
6
CONTINUOUS
10
0.5351494488188976
20
1.6134211811023622
11
0.53327468503937
21
1.6096716141732283
0
LINE
8
BLACK
6
CONTINUOUS
10
0.53327468503937
20
1.6096716141732283
11
0.5332140157480315
21
1.6095752755905512
0
LINE
8
BLACK
6
CONTINUOUS
10
0.5332140157480315
20
1.6095752755905512
11
0.5331988976377953
21
1.6095298425196849
0
LINE
8
BLACK
6
CONTINUOUS
10
0.5331988976377953
20
1.6095298425196849
11
0.533149842519685
21
1.6094733070866141
0
LINE
8
BLACK
6
CONTINUOUS
10
0.533149842519685
20
1.6094733070866141
11
0.5329663385826772
21
1.6091817322834645
0
LINE
8
BLACK
6
CONTINUOUS
10
0.5329663385826772
20
1.6091817322834645
11
0.5326866141732284
21
1.6089391732283465
0
LINE
8
BLACK
6
CONTINUOUS
10
0.5326866141732284
20
1.6089391732283465
11
0.5324440551181102
21
1.6086594488188977
0
LINE
8
BLACK
6
CONTINUOUS
10
0.5324440551181102
20
1.6086594488188977
11
0.5321524803149607
21
1.6084759448818897
0
LINE
8
BLACK
6
CONTINUOUS
10
0.5321524803149607
20
1.6084759448818897
11
0.5320959448818897
21
1.6084268897637795
0
LINE
8
BLACK
6
CONTINUOUS
10
0.5320959448818897
20
1.6084268897637795
11
0.5320505118110236
21
1.6084117716535433
0
LINE
8
BLACK
6
CONTINUOUS
10
0.5320505118110236
20
1.6084117716535433
11
0.5319541732283465
21
1.6083511023622048
0
LINE
8
BLACK
6
CONTINUOUS
10
0.5319541732283465
20
1.6083511023622048
11
0.5282046456692914
21
1.606476338582677
0
LINE
8
BLACK
6
CONTINUOUS
10
0.5282046456692914
20
1.606476338582677
11
0.5276640157480315
21
1.6062694488188975
0
LINE
8
BLACK
6
CONTINUOUS
10
0.5276640157480315
20
1.6062694488188975
11
0.527558188976378
21
1.606261968503937
0
LINE
8
BLACK
6
CONTINUOUS
10
0.527558188976378
20
1.606261968503937
11
0.5274601968503937
21
1.6062213385826771
0
LINE
8
BLACK
6
CONTINUOUS
10
0.5274601968503937
20
1.6062213385826771
11
0.5268841338582677
21
1.6061646062992125
0
LINE
8
BLACK
6
CONTINUOUS
10
0.5268841338582677
20
1.6061646062992125
11
0.5175103149606299
21
1.6061646062992125
0
LINE
8
BLACK
6
CONTINUOUS
10
0.5175103149606299
20
1.6061646062992125
11
0.516934251968504
21
1.6062213385826771
0
LINE
8
BLACK
6
CONTINUOUS
10
0.516934251968504
20
1.6062213385826771
11
0.5168362598425197
21
1.6062619291338582
0
LINE
8
BLACK
6
CONTINUOUS
10
0.5168362598425197
20
1.6062619291338582
11
0.5167303937007874
21
1.6062694488188975
0
LINE
8
BLACK
6
CONTINUOUS
10
0.5167303937007874
20
1.6062694488188975
11
0.5161898031496063
21
1.606476338582677
0
LINE
8
BLACK
6
CONTINUOUS
10
0.5161898031496063
20
1.606476338582677
11
0.5155401574803149
21
1.6068011811023621
0
LINE
8
BLACK
6
CONTINUOUS
10
0.5155401574803149
20
1.6068011811023621
11
0.5154012598425197
21
1.6066622440944882
0
LINE
8
BLACK
6
CONTINUOUS
10
0.5154012598425197
20
1.6066622440944882
11
0.5143368503937008
21
1.6062213385826771
0
LINE
8
BLACK
6
CONTINUOUS
10
0.5143368503937008
20
1.6062213385826771
11
0.5131847244094488
21
1.6062213385826771
0
LINE
8
BLACK
6
CONTINUOUS
10
0.5131847244094488
20
1.6062213385826771
11
0.5121203149606299
21
1.6066622440944882
0
LINE
8
BLACK
6
CONTINUOUS
10
0.5121203149606299
20
1.6066622440944882
11
0.5113056692913386
21
1.6074768897637794
0
LINE
8
BLACK
6
CONTINUOUS
10
0.5113056692913386
20
1.6074768897637794
11
0.5108647637795275
21
1.6085412992125985
0
LINE
8
BLACK
6
CONTINUOUS
10
0.5108647637795275
20
1.6085412992125985
11
0.510808031496063
21
1.6091173622047243
0
LINE
8
BLACK
6
CONTINUOUS
10
0.510808031496063
20
1.6091173622047243
11
0.510808031496063
21
1.6297398031496062
0
LINE
8
BLACK
6
CONTINUOUS
10
0.510808031496063
20
1.6297398031496062
11
0.5108647637795275
21
1.6303158661417323
0
LINE
8
BLACK
6
CONTINUOUS
10
0.5108647637795275
20
1.6303158661417323
11
0.5109053543307086
21
1.6304138976377953
0
LINE
8
BLACK
6
CONTINUOUS
10
0.5109053543307086
20
1.6304138976377953
11
0.510912874015748
21
1.6305196850393699
0
LINE
8
BLACK
6
CONTINUOUS
10
0.510912874015748
20
1.6305196850393699
11
0.5111197637795275
21
1.63106031496063
0
LINE
8
BLACK
6
CONTINUOUS
10
0.5111197637795275
20
1.63106031496063
11
0.5129945275590551
21
1.6348098425196851
0
LINE
8
BLACK
6
CONTINUOUS
10
0.5129945275590551
20
1.6348098425196851
11
0.5130551574803149
21
1.6349062204724409
0
LINE
8
BLACK
6
CONTINUOUS
10
0.5130551574803149
20
1.6349062204724409
11
0.5130703149606299
21
1.6349516141732283
0
LINE
8
BLACK
6
CONTINUOUS
10
0.5130703149606299
20
1.6349516141732283
11
0.5131193307086614
21
1.6350081889763779
0
LINE
8
BLACK
6
CONTINUOUS
10
0.5131193307086614
20
1.6350081889763779
11
0.513302874015748
21
1.6352997244094487
0
LINE
8
BLACK
6
CONTINUOUS
10
0.513302874015748
20
1.6352997244094487
11
0.5135825590551181
21
1.6355423228346457
0
LINE
8
BLACK
6
CONTINUOUS
10
0.5135825590551181
20
1.6355423228346457
11
0.513825157480315
21
1.6358220078740158
0
LINE
8
BLACK
6
CONTINUOUS
10
0.513825157480315
20
1.6358220078740158
11
0.5141166929133858
21
1.6360055511811022
0
LINE
8
BLACK
6
CONTINUOUS
10
0.5141166929133858
20
1.6360055511811022
11
0.5141732677165354
21
1.6360545669291338
0
LINE
8
BLACK
6
CONTINUOUS
10
0.5141732677165354
20
1.6360545669291338
11
0.5142186614173229
21
1.6360697244094489
0
LINE
8
BLACK
6
CONTINUOUS
10
0.5142186614173229
20
1.6360697244094489
11
0.5143150393700787
21
1.6361303543307086
0
LINE
8
BLACK
6
CONTINUOUS
10
0.5143150393700787
20
1.6361303543307086
11
0.5180645669291338
21
1.6380051181102362
0
LINE
8
BLACK
6
CONTINUOUS
10
0.5180645669291338
20
1.6380051181102362
11
0.518605157480315
21
1.6382120078740157
0
LINE
8
BLACK
6
CONTINUOUS
10
0.518605157480315
20
1.6382120078740157
11
0.5187110236220472
21
1.6382195669291337
0
LINE
8
BLACK
6
CONTINUOUS
10
0.5187110236220472
20
1.6382195669291337
11
0.5188090157480315
21
1.6382601181102361
0
LINE
8
BLACK
6
CONTINUOUS
10
0.5188090157480315
20
1.6382601181102361
11
0.5193850787401575
21
1.6383168503937007
0
LINE
8
BLACK
6
CONTINUOUS
10
0.5193850787401575
20
1.6383168503937007
11
0.5268841338582677
21
1.6383168503937007
0
LINE
8
BLACK
6
CONTINUOUS
10
0.5268841338582677
20
1.6383168503937007
11
0.5274601968503937
21
1.6382601181102361
0
LINE
8
BLACK
6
CONTINUOUS
10
0.5167135433070866
20
1.6128170472440944
11
0.5182073622047244
21
1.6120701181102361
0
LINE
8
BLACK
6
CONTINUOUS
10
0.5182073622047244
20
1.6120701181102361
11
0.5261870866141732
21
1.6120701181102361
0
LINE
8
BLACK
6
CONTINUOUS
10
0.5261870866141732
20
1.6120701181102361
11
0.5284327952755905
21
1.6131929921259842
0
LINE
8
BLACK
6
CONTINUOUS
10
0.5284327952755905
20
1.6131929921259842
11
0.5295556692913386
21
1.6154387401574803
0
LINE
8
BLACK
6
CONTINUOUS
10
0.5295556692913386
20
1.6154387401574803
11
0.5295556692913386
21
1.6177941732283465
0
LINE
8
BLACK
6
CONTINUOUS
10
0.5295556692913386
20
1.6177941732283465
11
0.5284327952755905
21
1.6200399212598424
0
LINE
8
BLACK
6
CONTINUOUS
10
0.5284327952755905
20
1.6200399212598424
11
0.5261870866141732
21
1.6211627559055117
0
LINE
8
BLACK
6
CONTINUOUS
10
0.5261870866141732
20
1.6211627559055117
11
0.5175103149606299
21
1.6211627559055117
0
LINE
8
BLACK
6
CONTINUOUS
10
0.5175103149606299
20
1.6211627559055117
11
0.516934251968504
21
1.6212194881889763
0
LINE
8
BLACK
6
CONTINUOUS
10
0.516934251968504
20
1.6212194881889763
11
0.5168362598425197
21
1.6212600787401574
0
LINE
8
BLACK
6
CONTINUOUS
10
0.5168362598425197
20
1.6212600787401574
11
0.5167303937007874
21
1.6212675984251967
0
LINE
8
BLACK
6
CONTINUOUS
10
0.5167303937007874
20
1.6212675984251967
11
0.5167135433070866
21
1.6212740551181102
0
LINE
8
BLACK
6
CONTINUOUS
10
0.5167135433070866
20
1.6212740551181102
11
0.5167135433070866
21
1.6128170472440944
0
LINE
8
BLACK
6
CONTINUOUS
10
0.5780788582677165
20
1.6382601181102361
11
0.5781768503937008
21
1.638219527559055
0
LINE
8
BLACK
6
CONTINUOUS
10
0.5781768503937008
20
1.638219527559055
11
0.5782826771653543
21
1.6382120078740157
0
LINE
8
BLACK
6
CONTINUOUS
10
0.5782826771653543
20
1.6382120078740157
11
0.5788233070866141
21
1.6380051181102362
0
LINE
8
BLACK
6
CONTINUOUS
10
0.5788233070866141
20
1.6380051181102362
11
0.5825728346456692
21
1.6361303543307086
0
LINE
8
BLACK
6
CONTINUOUS
10
0.5825728346456692
20
1.6361303543307086
11
0.5828208267716535
21
1.6359742913385826
0
LINE
8
BLACK
6
CONTINUOUS
10
0.5828208267716535
20
1.6359742913385826
11
0.5828927952755906
21
1.6359444488188977
0
LINE
8
BLACK
6
CONTINUOUS
10
0.5828927952755906
20
1.6359444488188977
11
0.5829737401574803
21
1.6358779921259843
0
LINE
8
BLACK
6
CONTINUOUS
10
0.5829737401574803
20
1.6358779921259843
11
0.5830627165354331
21
1.6358220078740158
0
LINE
8
BLACK
6
CONTINUOUS
10
0.5830627165354331
20
1.6358220078740158
11
0.5831138582677166
21
1.6357630314960629
0
LINE
8
BLACK
6
CONTINUOUS
10
0.5831138582677166
20
1.6357630314960629
11
0.5833402362204724
21
1.6355772440944882
0
LINE
8
BLACK
6
CONTINUOUS
10
0.5833402362204724
20
1.6355772440944882
11
0.585215
21
1.6337024803149607
0
LINE
8
BLACK
6
CONTINUOUS
10
0.585215
20
1.6337024803149607
11
0.585400748031496
21
1.6334761417322834
0
LINE
8
BLACK
6
CONTINUOUS
10
0.585400748031496
20
1.6334761417322834
11
0.5854597637795276
21
1.6334249606299212
0
LINE
8
BLACK
6
CONTINUOUS
10
0.5854597637795276
20
1.6334249606299212
11
0.5855157086614173
21
1.6333360236220471
0
LINE
8
BLACK
6
CONTINUOUS
10
0.5855157086614173
20
1.6333360236220471
11
0.5855822047244095
21
1.6332550393700787
0
LINE
8
BLACK
6
CONTINUOUS
10
0.5855822047244095
20
1.6332550393700787
11
0.5856120078740157
21
1.6331831102362204
0
LINE
8
BLACK
6
CONTINUOUS
10
0.5856120078740157
20
1.6331831102362204
11
0.5857681102362204
21
1.6329350787401575
0
LINE
8
BLACK
6
CONTINUOUS
10
0.5857681102362204
20
1.6329350787401575
11
0.587642874015748
21
1.6291855511811024
0
LINE
8
BLACK
6
CONTINUOUS
10
0.587642874015748
20
1.6291855511811024
11
0.5878497637795276
21
1.6286449606299211
0
LINE
8
BLACK
6
CONTINUOUS
10
0.5878497637795276
20
1.6286449606299211
11
0.5878572834645669
21
1.628539094488189
0
LINE
8
BLACK
6
CONTINUOUS
10
0.5878572834645669
20
1.628539094488189
11
0.587897874015748
21
1.6284411023622047
0
LINE
8
BLACK
6
CONTINUOUS
10
0.587897874015748
20
1.6284411023622047
11
0.5879546062992126
21
1.6278650393700786
0
LINE
8
BLACK
6
CONTINUOUS
10
0.5879546062992126
20
1.6278650393700786
11
0.5879546062992126
21
1.6166164566929133
0
LINE
8
BLACK
6
CONTINUOUS
10
0.5879546062992126
20
1.6166164566929133
11
0.587897874015748
21
1.6160403937007874
0
LINE
8
BLACK
6
CONTINUOUS
10
0.587897874015748
20
1.6160403937007874
11
0.5878572834645669
21
1.6159424409448819
0
LINE
8
BLACK
6
CONTINUOUS
10
0.5878572834645669
20
1.6159424409448819
11
0.5878497637795276
21
1.6158365354330708
0
LINE
8
BLACK
6
CONTINUOUS
10
0.5878497637795276
20
1.6158365354330708
11
0.587642874015748
21
1.6152959448818898
0
LINE
8
BLACK
6
CONTINUOUS
10
0.587642874015748
20
1.6152959448818898
11
0.5857681102362204
21
1.6115464173228347
0
LINE
8
BLACK
6
CONTINUOUS
10
0.5857681102362204
20
1.6115464173228347
11
0.5856120472440944
21
1.6112985433070866
0
LINE
8
BLACK
6
CONTINUOUS
10
0.5856120472440944
20
1.6112985433070866
11
0.5855822440944882
21
1.6112264960629921
0
LINE
8
BLACK
6
CONTINUOUS
10
0.5855822440944882
20
1.6112264960629921
11
0.5855157086614173
21
1.6111454724409449
0
LINE
8
BLACK
6
CONTINUOUS
10
0.5855157086614173
20
1.6111454724409449
11
0.5854597637795276
21
1.6110565354330708
0
LINE
8
BLACK
6
CONTINUOUS
10
0.5854597637795276
20
1.6110565354330708
11
0.585400748031496
21
1.6110053937007873
0
LINE
8
BLACK
6
CONTINUOUS
10
0.585400748031496
20
1.6110053937007873
11
0.585215
21
1.6107790157480315
0
LINE
8
BLACK
6
CONTINUOUS
10
0.585215
20
1.6107790157480315
11
0.5833402755905511
21
1.608904251968504
0
LINE
8
BLACK
6
CONTINUOUS
10
0.5833402755905511
20
1.608904251968504
11
0.5831138976377953
21
1.6087185039370078
0
LINE
8
BLACK
6
CONTINUOUS
10
0.5831138976377953
20
1.6087185039370078
11
0.5830627165354331
21
1.6086594488188977
0
LINE
8
BLACK
6
CONTINUOUS
10
0.5830627165354331
20
1.6086594488188977
11
0.5829737401574803
21
1.6086034645669292
0
LINE
8
BLACK
6
CONTINUOUS
10
0.5829737401574803
20
1.6086034645669292
11
0.5828927952755906
21
1.6085370078740158
0
LINE
8
BLACK
6
CONTINUOUS
10
0.5828927952755906
20
1.6085370078740158
11
0.5828208267716535
21
1.6085072047244093
0
LINE
8
BLACK
6
CONTINUOUS
10
0.5828208267716535
20
1.6085072047244093
11
0.5825728346456692
21
1.6083511023622048
0
LINE
8
BLACK
6
CONTINUOUS
10
0.5825728346456692
20
1.6083511023622048
11
0.5788233070866141
21
1.606476338582677
0
LINE
8
BLACK
6
CONTINUOUS
10
0.5788233070866141
20
1.606476338582677
11
0.5782826771653543
21
1.6062694488188975
0
LINE
8
BLACK
6
CONTINUOUS
10
0.5782826771653543
20
1.6062694488188975
11
0.5781768503937008
21
1.606261968503937
0
LINE
8
BLACK
6
CONTINUOUS
10
0.5781768503937008
20
1.606261968503937
11
0.5780788582677165
21
1.6062213385826771
0
LINE
8
BLACK
6
CONTINUOUS
10
0.5780788582677165
20
1.6062213385826771
11
0.5775027952755906
21
1.6061646062992125
0
LINE
8
BLACK
6
CONTINUOUS
10
0.5775027952755906
20
1.6061646062992125
11
0.5700037401574803
21
1.6061646062992125
0
LINE
8
BLACK
6
CONTINUOUS
10
0.5700037401574803
20
1.6061646062992125
11
0.5694276771653544
21
1.6062213385826771
0
LINE
8
BLACK
6
CONTINUOUS
10
0.5694276771653544
20
1.6062213385826771
11
0.5693296850393701
21
1.6062619291338582
0
LINE
8
BLACK
6
CONTINUOUS
10
0.5693296850393701
20
1.6062619291338582
11
0.5692238188976377
21
1.6062694488188975
0
LINE
8
BLACK
6
CONTINUOUS
10
0.5692238188976377
20
1.6062694488188975
11
0.5686832283464567
21
1.606476338582677
0
LINE
8
BLACK
6
CONTINUOUS
10
0.5686832283464567
20
1.606476338582677
11
0.5649337007874016
21
1.6083511023622048
0
LINE
8
BLACK
6
CONTINUOUS
10
0.5649337007874016
20
1.6083511023622048
11
0.5644438188976377
21
1.6086594488188977
0
LINE
8
BLACK
6
CONTINUOUS
10
0.5644438188976377
20
1.6086594488188977
11
0.5636889763779528
21
1.6095298425196849
0
LINE
8
BLACK
6
CONTINUOUS
10
0.5636889763779528
20
1.6095298425196849
11
0.5633246456692913
21
1.6106227952755905
0
LINE
8
BLACK
6
CONTINUOUS
10
0.5633246456692913
20
1.6106227952755905
11
0.5634062992125984
21
1.6117720078740156
0
LINE
8
BLACK
6
CONTINUOUS
10
0.5634062992125984
20
1.6117720078740156
11
0.5639215354330709
21
1.6128025196850393
0
LINE
8
BLACK
6
CONTINUOUS
10
0.5639215354330709
20
1.6128025196850393
11
0.5647919291338582
21
1.6135573622047243
0
LINE
8
BLACK
6
CONTINUOUS
10
0.5647919291338582
20
1.6135573622047243
11
0.5658848818897637
21
1.6139216929133857
0
LINE
8
BLACK
6
CONTINUOUS
10
0.5658848818897637
20
1.6139216929133857
11
0.567034094488189
21
1.6138400393700787
0
LINE
8
BLACK
6
CONTINUOUS
10
0.567034094488189
20
1.6138400393700787
11
0.5675747244094488
21
1.6136331496062992
0
LINE
8
BLACK
6
CONTINUOUS
10
0.5675747244094488
20
1.6136331496062992
11
0.5707007874015748
21
1.6120701181102361
0
LINE
8
BLACK
6
CONTINUOUS
10
0.5707007874015748
20
1.6120701181102361
11
0.5768057480314961
21
1.6120701181102361
0
LINE
8
BLACK
6
CONTINUOUS
10
0.5768057480314961
20
1.6120701181102361
11
0.579503188976378
21
1.6134188582677165
0
LINE
8
BLACK
6
CONTINUOUS
10
0.579503188976378
20
1.6134188582677165
11
0.5807003149606299
21
1.6146160236220473
0
LINE
8
BLACK
6
CONTINUOUS
10
0.5807003149606299
20
1.6146160236220473
11
0.582049094488189
21
1.6173135039370079
0
LINE
8
BLACK
6
CONTINUOUS
10
0.582049094488189
20
1.6173135039370079
11
0.582049094488189
21
1.6271679921259843
0
LINE
8
BLACK
6
CONTINUOUS
10
0.582049094488189
20
1.6271679921259843
11
0.5807003543307087
21
1.6298654724409449
0
LINE
8
BLACK
6
CONTINUOUS
10
0.5807003543307087
20
1.6298654724409449
11
0.5795032283464567
21
1.6310625984251967
0
LINE
8
BLACK
6
CONTINUOUS
10
0.5795032283464567
20
1.6310625984251967
11
0.5768057480314961
21
1.6324113385826771
0
LINE
8
BLACK
6
CONTINUOUS
10
0.5768057480314961
20
1.6324113385826771
11
0.5707007874015748
21
1.6324113385826771
0
LINE
8
BLACK
6
CONTINUOUS
10
0.5707007874015748
20
1.6324113385826771
11
0.5675747244094488
21
1.6308483070866142
0
LINE
8
BLACK
6
CONTINUOUS
10
0.5675747244094488
20
1.6308483070866142
11
0.567034094488189
21
1.6306414173228345
0
LINE
8
BLACK
6
CONTINUOUS
10
0.567034094488189
20
1.6306414173228345
11
0.5658848818897637
21
1.6305597637795275
0
LINE
8
BLACK
6
CONTINUOUS
10
0.5658848818897637
20
1.6305597637795275
11
0.5647919291338582
21
1.6309240944881889
0
LINE
8
BLACK
6
CONTINUOUS
10
0.5647919291338582
20
1.6309240944881889
11
0.5639215354330709
21
1.6316789370078739
0
LINE
8
BLACK
6
CONTINUOUS
10
0.5639215354330709
20
1.6316789370078739
11
0.5634062992125984
21
1.6327094488188976
0
LINE
8
BLACK
6
CONTINUOUS
10
0.5634062992125984
20
1.6327094488188976
11
0.5633246456692913
21
1.6338586614173227
0
LINE
8
BLACK
6
CONTINUOUS
10
0.5633246456692913
20
1.6338586614173227
11
0.5636889763779528
21
1.6349516141732283
0
LINE
8
BLACK
6
CONTINUOUS
10
0.5636889763779528
20
1.6349516141732283
11
0.5644438188976377
21
1.6358220078740158
0
LINE
8
BLACK
6
CONTINUOUS
10
0.5644438188976377
20
1.6358220078740158
11
0.5649337007874016
21
1.6361303543307086
0
LINE
8
BLACK
6
CONTINUOUS
10
0.5649337007874016
20
1.6361303543307086
11
0.5686832283464567
21
1.6380051181102362
0
LINE
8
BLACK
6
CONTINUOUS
10
0.5686832283464567
20
1.6380051181102362
11
0.5692238188976377
21
1.6382120078740157
0
LINE
8
BLACK
6
CONTINUOUS
10
0.5692238188976377
20
1.6382120078740157
11
0.5693296850393701
21
1.6382195669291337
0
LINE
8
BLACK
6
CONTINUOUS
10
0.5693296850393701
20
1.6382195669291337
11
0.5694276771653544
21
1.6382601181102361
0
LINE
8
BLACK
6
CONTINUOUS
10
0.5694276771653544
20
1.6382601181102361
11
0.5700037401574803
21
1.6383168503937007
0
LINE
8
BLACK
6
CONTINUOUS
10
0.5700037401574803
20
1.6383168503937007
11
0.5775027952755906
21
1.6383168503937007
0
LINE
8
BLACK
6
CONTINUOUS
10
0.5775027952755906
20
1.6383168503937007
11
0.5780788582677165
21
1.6382601181102361
0
LINE
8
BLACK
6
CONTINUOUS
10
0.6035152362204724
20
1.6378192125984252
11
0.6043298818897638
21
1.6370045669291338
0
LINE
8
BLACK
6
CONTINUOUS
10
0.6043298818897638
20
1.6370045669291338
11
0.6047707874015747
21
1.635940157480315
0
LINE
8
BLACK
6
CONTINUOUS
10
0.6047707874015747
20
1.635940157480315
11
0.6048275196850393
21
1.6353640944881889
0
LINE
8
BLACK
6
CONTINUOUS
10
0.6048275196850393
20
1.6353640944881889
11
0.6048275196850393
21
1.61409
0
LINE
8
BLACK
6
CONTINUOUS
10
0.6048275196850393
20
1.61409
11
0.605498622047244
21
1.6134188582677165
0
LINE
8
BLACK
6
CONTINUOUS
10
0.605498622047244
20
1.6134188582677165
11
0.6081961023622047
21
1.6120701181102361
0
LINE
8
BLACK
6
CONTINUOUS
10
0.6081961023622047
20
1.6120701181102361
11
0.6124262992125984
21
1.6120701181102361
0
LINE
8
BLACK
6
CONTINUOUS
10
0.6124262992125984
20
1.6120701181102361
11
0.6146720078740158
21
1.6131929921259842
0
LINE
8
BLACK
6
CONTINUOUS
10
0.6146720078740158
20
1.6131929921259842
11
0.6157948818897637
21
1.6154387401574803
0
LINE
8
BLACK
6
CONTINUOUS
10
0.6157948818897637
20
1.6154387401574803
11
0.6157948818897637
21
1.6353640944881889
0
LINE
8
BLACK
6
CONTINUOUS
10
0.6157948818897637
20
1.6353640944881889
11
0.6158516141732283
21
1.635940157480315
0
LINE
8
BLACK
6
CONTINUOUS
10
0.6158516141732283
20
1.635940157480315
11
0.6162925196850394
21
1.6370045669291338
0
LINE
8
BLACK
6
CONTINUOUS
10
0.6162925196850394
20
1.6370045669291338
11
0.6171071653543307
21
1.6378192125984252
0
LINE
8
BLACK
6
CONTINUOUS
10
0.6171071653543307
20
1.6378192125984252
11
0.6181715748031495
21
1.6382601181102361
0
LINE
8
BLACK
6
CONTINUOUS
10
0.6181715748031495
20
1.6382601181102361
11
0.6193237007874015
21
1.6382601181102361
0
LINE
8
BLACK
6
CONTINUOUS
10
0.6193237007874015
20
1.6382601181102361
11
0.6203881102362204
21
1.6378192125984252
0
LINE
8
BLACK
6
CONTINUOUS
10
0.6203881102362204
20
1.6378192125984252
11
0.6212027559055118
21
1.6370045669291338
0
LINE
8
BLACK
6
CONTINUOUS
10
0.6212027559055118
20
1.6370045669291338
11
0.6216436614173229
21
1.635940157480315
0
LINE
8
BLACK
6
CONTINUOUS
10
0.6216436614173229
20
1.635940157480315
11
0.6217003937007873
21
1.6353640944881889
0
LINE
8
BLACK
6
CONTINUOUS
10
0.6217003937007873
20
1.6353640944881889
11
0.6217003937007873
21
1.6147416929133858
0
LINE
8
BLACK
6
CONTINUOUS
10
0.6217003937007873
20
1.6147416929133858
11
0.6216436614173229
21
1.6141656299212599
0
LINE
8
BLACK
6
CONTINUOUS
10
0.6216436614173229
20
1.6141656299212599
11
0.621603031496063
21
1.6140676377952756
0
LINE
8
BLACK
6
CONTINUOUS
10
0.621603031496063
20
1.6140676377952756
11
0.6215955511811023
21
1.613961811023622
0
LINE
8
BLACK
6
CONTINUOUS
10
0.6215955511811023
20
1.613961811023622
11
0.6213886614173229
21
1.6134211811023622
0
LINE
8
BLACK
6
CONTINUOUS
10
0.6213886614173229
20
1.6134211811023622
11
0.6195138976377953
21
1.6096716141732283
0
LINE
8
BLACK
6
CONTINUOUS
10
0.6195138976377953
20
1.6096716141732283
11
0.6194532283464567
21
1.6095752755905512
0
LINE
8
BLACK
6
CONTINUOUS
10
0.6194532283464567
20
1.6095752755905512
11
0.6194381102362204
21
1.6095298425196849
0
LINE
8
BLACK
6
CONTINUOUS
10
0.6194381102362204
20
1.6095298425196849
11
0.6193890551181103
21
1.6094733070866141
0
LINE
8
BLACK
6
CONTINUOUS
10
0.6193890551181103
20
1.6094733070866141
11
0.6192055511811023
21
1.6091817322834645
0
LINE
8
BLACK
6
CONTINUOUS
10
0.6192055511811023
20
1.6091817322834645
11
0.6189258267716535
21
1.6089391732283465
0
LINE
8
BLACK
6
CONTINUOUS
10
0.6189258267716535
20
1.6089391732283465
11
0.6186832677165354
21
1.6086594488188977
0
LINE
8
BLACK
6
CONTINUOUS
10
0.6186832677165354
20
1.6086594488188977
11
0.6183916929133858
21
1.6084759448818897
0
LINE
8
BLACK
6
CONTINUOUS
10
0.6183916929133858
20
1.6084759448818897
11
0.618335157480315
21
1.6084268897637795
0
LINE
8
BLACK
6
CONTINUOUS
10
0.618335157480315
20
1.6084268897637795
11
0.6182897244094488
21
1.6084117716535433
0
LINE
8
BLACK
6
CONTINUOUS
10
0.6182897244094488
20
1.6084117716535433
11
0.6181933858267716
21
1.6083511023622048
0
LINE
8
BLACK
6
CONTINUOUS
10
0.6181933858267716
20
1.6083511023622048
11
0.6144438582677165
21
1.606476338582677
0
LINE
8
BLACK
6
CONTINUOUS
10
0.6144438582677165
20
1.606476338582677
11
0.6139032283464567
21
1.6062694488188975
0
LINE
8
BLACK
6
CONTINUOUS
10
0.6139032283464567
20
1.6062694488188975
11
0.6137974015748031
21
1.606261968503937
0
LINE
8
BLACK
6
CONTINUOUS
10
0.6137974015748031
20
1.606261968503937
11
0.6136994094488188
21
1.6062213385826771
0
LINE
8
BLACK
6
CONTINUOUS
10
0.6136994094488188
20
1.6062213385826771
11
0.6131233464566929
21
1.6061646062992125
0
LINE
8
BLACK
6
CONTINUOUS
10
0.6131233464566929
20
1.6061646062992125
11
0.6074990551181102
21
1.6061646062992125
0
LINE
8
BLACK
6
CONTINUOUS
10
0.6074990551181102
20
1.6061646062992125
11
0.6069229921259842
21
1.6062213385826771
0
LINE
8
BLACK
6
CONTINUOUS
10
0.6069229921259842
20
1.6062213385826771
11
0.6068249999999999
21
1.6062619291338582
0
LINE
8
BLACK
6
CONTINUOUS
10
0.6068249999999999
20
1.6062619291338582
11
0.6067191338582677
21
1.6062694488188975
0
LINE
8
BLACK
6
CONTINUOUS
10
0.6067191338582677
20
1.6062694488188975
11
0.6061785433070866
21
1.606476338582677
0
LINE
8
BLACK
6
CONTINUOUS
10
0.6061785433070866
20
1.606476338582677
11
0.6042790551181102
21
1.6074261023622047
0
LINE
8
BLACK
6
CONTINUOUS
10
0.6042790551181102
20
1.6074261023622047
11
0.6035152362204724
21
1.6066622440944882
0
LINE
8
BLACK
6
CONTINUOUS
10
0.6035152362204724
20
1.6066622440944882
11
0.6024508267716535
21
1.6062213385826771
0
LINE
8
BLACK
6
CONTINUOUS
10
0.6024508267716535
20
1.6062213385826771
11
0.6012987007874016
21
1.6062213385826771
0
LINE
8
BLACK
6
CONTINUOUS
10
0.6012987007874016
20
1.6062213385826771
11
0.6002342913385826
21
1.6066622440944882
0
LINE
8
BLACK
6
CONTINUOUS
10
0.6002342913385826
20
1.6066622440944882
11
0.5994196456692913
21
1.6074768897637794
0
LINE
8
BLACK
6
CONTINUOUS
10
0.5994196456692913
20
1.6074768897637794
11
0.5989787401574803
21
1.6085412992125985
0
LINE
8
BLACK
6
CONTINUOUS
10
0.5989787401574803
20
1.6085412992125985
11
0.5989220078740157
21
1.6091173622047243
0
LINE
8
BLACK
6
CONTINUOUS
10
0.5989220078740157
20
1.6091173622047243
11
0.5989220078740157
21
1.6353640944881889
0
LINE
8
BLACK
6
CONTINUOUS
10
0.5989220078740157
20
1.6353640944881889
11
0.5989787401574803
21
1.635940157480315
0
LINE
8
BLACK
6
CONTINUOUS
10
0.5989787401574803
20
1.635940157480315
11
0.5994196456692913
21
1.6370045669291338
0
LINE
8
BLACK
6
CONTINUOUS
10
0.5994196456692913
20
1.6370045669291338
11
0.6002342913385826
21
1.6378192125984252
0
LINE
8
BLACK
6
CONTINUOUS
10
0.6002342913385826
20
1.6378192125984252
11
0.6012987007874016
21
1.6382601181102361
0
LINE
8
BLACK
6
CONTINUOUS
10
0.6012987007874016
20
1.6382601181102361
11
0.6024508267716535
21
1.6382601181102361
0
LINE
8
BLACK
6
CONTINUOUS
10
0.6024508267716535
20
1.6382601181102361
11
0.6035152362204724
21
1.6378192125984252
0
LINE
8
BLACK
6
CONTINUOUS
10
0.6391357874015748
20
1.6509425590551181
11
0.6399504330708661
21
1.6501279133858267
0
LINE
8
BLACK
6
CONTINUOUS
10
0.6399504330708661
20
1.6501279133858267
11
0.6403913385826772
21
1.6490635039370078
0
LINE
8
BLACK
6
CONTINUOUS
10
0.6403913385826772
20
1.6490635039370078
11
0.6404480708661417
21
1.6484874409448818
0
LINE
8
BLACK
6
CONTINUOUS
10
0.6404480708661417
20
1.6484874409448818
11
0.6404480708661417
21
1.638205590551181
0
LINE
8
BLACK
6
CONTINUOUS
10
0.6404480708661417
20
1.638205590551181
11
0.6404649212598426
21
1.6382120078740157
0
LINE
8
BLACK
6
CONTINUOUS
10
0.6404649212598426
20
1.6382120078740157
11
0.6405707874015748
21
1.6382195669291337
0
LINE
8
BLACK
6
CONTINUOUS
10
0.6405707874015748
20
1.6382195669291337
11
0.6406687795275591
21
1.6382601181102361
0
LINE
8
BLACK
6
CONTINUOUS
10
0.6406687795275591
20
1.6382601181102361
11
0.6412448425196851
21
1.6383168503937007
0
LINE
8
BLACK
6
CONTINUOUS
10
0.6412448425196851
20
1.6383168503937007
11
0.6487438976377953
21
1.6383168503937007
0
LINE
8
BLACK
6
CONTINUOUS
10
0.6487438976377953
20
1.6383168503937007
11
0.6493199606299213
21
1.6382601181102361
0
LINE
8
BLACK
6
CONTINUOUS
10
0.6493199606299213
20
1.6382601181102361
11
0.6494179527559055
21
1.638219527559055
0
LINE
8
BLACK
6
CONTINUOUS
10
0.6494179527559055
20
1.638219527559055
11
0.649523779527559
21
1.6382120078740157
0
LINE
8
BLACK
6
CONTINUOUS
10
0.649523779527559
20
1.6382120078740157
11
0.6500644094488189
21
1.6380051181102362
0
LINE
8
BLACK
6
CONTINUOUS
10
0.6500644094488189
20
1.6380051181102362
11
0.653813937007874
21
1.6361303543307086
0
LINE
8
BLACK
6
CONTINUOUS
10
0.653813937007874
20
1.6361303543307086
11
0.6540619291338583
21
1.6359742913385826
0
LINE
8
BLACK
6
CONTINUOUS
10
0.6540619291338583
20
1.6359742913385826
11
0.6541338976377953
21
1.6359444488188977
0
LINE
8
BLACK
6
CONTINUOUS
10
0.6541338976377953
20
1.6359444488188977
11
0.654214842519685
21
1.6358779921259843
0
LINE
8
BLACK
6
CONTINUOUS
10
0.654214842519685
20
1.6358779921259843
11
0.6543038188976378
21
1.6358220078740158
0
LINE
8
BLACK
6
CONTINUOUS
10
0.6543038188976378
20
1.6358220078740158
11
0.6543549606299213
21
1.6357630314960629
0
LINE
8
BLACK
6
CONTINUOUS
10
0.6543549606299213
20
1.6357630314960629
11
0.6545813385826772
21
1.6355772440944882
0
LINE
8
BLACK
6
CONTINUOUS
10
0.6545813385826772
20
1.6355772440944882
11
0.6564561023622048
21
1.6337024803149607
0
LINE
8
BLACK
6
CONTINUOUS
10
0.6564561023622048
20
1.6337024803149607
11
0.6566418503937008
21
1.6334761417322834
0
LINE
8
BLACK
6
CONTINUOUS
10
0.6566418503937008
20
1.6334761417322834
11
0.6567008661417323
21
1.6334249606299212
0
LINE
8
BLACK
6
CONTINUOUS
10
0.6567008661417323
20
1.6334249606299212
11
0.656756811023622
21
1.6333360236220471
0
LINE
8
BLACK
6
CONTINUOUS
10
0.656756811023622
20
1.6333360236220471
11
0.6568233070866142
21
1.6332550393700787
0
LINE
8
BLACK
6
CONTINUOUS
10
0.6568233070866142
20
1.6332550393700787
11
0.6568531102362205
21
1.6331831102362204
0
LINE
8
BLACK
6
CONTINUOUS
10
0.6568531102362205
20
1.6331831102362204
11
0.6570092125984252
21
1.6329350787401575
0
LINE
8
BLACK
6
CONTINUOUS
10
0.6570092125984252
20
1.6329350787401575
11
0.6588839763779527
21
1.6291855511811024
0
LINE
8
BLACK
6
CONTINUOUS
10
0.6588839763779527
20
1.6291855511811024
11
0.6590908661417323
21
1.6286449606299211
0
LINE
8
BLACK
6
CONTINUOUS
10
0.6590908661417323
20
1.6286449606299211
11
0.6590983858267716
21
1.628539094488189
0
LINE
8
BLACK
6
CONTINUOUS
10
0.6590983858267716
20
1.628539094488189
11
0.6591389763779527
21
1.6284411023622047
0
LINE
8
BLACK
6
CONTINUOUS
10
0.6591389763779527
20
1.6284411023622047
11
0.6591957086614173
21
1.6278650393700786
0
LINE
8
BLACK
6
CONTINUOUS
10
0.6591957086614173
20
1.6278650393700786
11
0.6591957086614173
21
1.6166164566929133
0
LINE
8
BLACK
6
CONTINUOUS
10
0.6591957086614173
20
1.6166164566929133
11
0.6591389763779527
21
1.6160403937007874
0
LINE
8
BLACK
6
CONTINUOUS
10
0.6591389763779527
20
1.6160403937007874
11
0.6590983858267716
21
1.6159424409448819
0
LINE
8
BLACK
6
CONTINUOUS
10
0.6590983858267716
20
1.6159424409448819
11
0.6590908661417323
21
1.6158365354330708
0
LINE
8
BLACK
6
CONTINUOUS
10
0.6590908661417323
20
1.6158365354330708
11
0.6588839763779527
21
1.6152959448818898
0
LINE
8
BLACK
6
CONTINUOUS
10
0.6588839763779527
20
1.6152959448818898
11
0.6570092125984252
21
1.6115464173228347
0
LINE
8
BLACK
6
CONTINUOUS
10
0.6570092125984252
20
1.6115464173228347
11
0.6568531496062991
21
1.6112985433070866
0
LINE
8
BLACK
6
CONTINUOUS
10
0.6568531496062991
20
1.6112985433070866
11
0.6568233464566929
21
1.6112264960629921
0
LINE
8
BLACK
6
CONTINUOUS
10
0.6568233464566929
20
1.6112264960629921
11
0.656756811023622
21
1.6111454724409449
0
LINE
8
BLACK
6
CONTINUOUS
10
0.656756811023622
20
1.6111454724409449
11
0.6567008661417323
21
1.6110565354330708
0
LINE
8
BLACK
6
CONTINUOUS
10
0.6567008661417323
20
1.6110565354330708
11
0.6566418503937008
21
1.6110053937007873
0
LINE
8
BLACK
6
CONTINUOUS
10
0.6566418503937008
20
1.6110053937007873
11
0.6564561023622048
21
1.6107790157480315
0
LINE
8
BLACK
6
CONTINUOUS
10
0.6564561023622048
20
1.6107790157480315
11
0.6545813779527558
21
1.608904251968504
0
LINE
8
BLACK
6
CONTINUOUS
10
0.6545813779527558
20
1.608904251968504
11
0.654355
21
1.6087185039370078
0
LINE
8
BLACK
6
CONTINUOUS
10
0.654355
20
1.6087185039370078
11
0.6543038188976378
21
1.6086594488188977
0
LINE
8
BLACK
6
CONTINUOUS
10
0.6543038188976378
20
1.6086594488188977
11
0.654214842519685
21
1.6086034645669292
0
LINE
8
BLACK
6
CONTINUOUS
10
0.654214842519685
20
1.6086034645669292
11
0.6541338976377953
21
1.6085370078740158
0
LINE
8
BLACK
6
CONTINUOUS
10
0.6541338976377953
20
1.6085370078740158
11
0.6540619291338583
21
1.6085072047244093
0
LINE
8
BLACK
6
CONTINUOUS
10
0.6540619291338583
20
1.6085072047244093
11
0.653813937007874
21
1.6083511023622048
0
LINE
8
BLACK
6
CONTINUOUS
10
0.653813937007874
20
1.6083511023622048
11
0.6500644094488189
21
1.606476338582677
0
LINE
8
BLACK
6
CONTINUOUS
10
0.6500644094488189
20
1.606476338582677
11
0.649523779527559
21
1.6062694488188975
0
LINE
8
BLACK
6
CONTINUOUS
10
0.649523779527559
20
1.6062694488188975
11
0.6494179527559055
21
1.606261968503937
0
LINE
8
BLACK
6
CONTINUOUS
10
0.6494179527559055
20
1.606261968503937
11
0.6493199606299213
21
1.6062213385826771
0
LINE
8
BLACK
6
CONTINUOUS
10
0.6493199606299213
20
1.6062213385826771
11
0.6487438976377953
21
1.6061646062992125
0
LINE
8
BLACK
6
CONTINUOUS
10
0.6487438976377953
20
1.6061646062992125
11
0.6412448425196851
21
1.6061646062992125
0
LINE
8
BLACK
6
CONTINUOUS
10
0.6412448425196851
20
1.6061646062992125
11
0.6406687795275591
21
1.6062213385826771
0
LINE
8
BLACK
6
CONTINUOUS
10
0.6406687795275591
20
1.6062213385826771
11
0.6405707874015748
21
1.6062619291338582
0
LINE
8
BLACK
6
CONTINUOUS
10
0.6405707874015748
20
1.6062619291338582
11
0.6404649212598426
21
1.6062694488188975
0
LINE
8
BLACK
6
CONTINUOUS
10
0.6404649212598426
20
1.6062694488188975
11
0.6399243307086614
21
1.606476338582677
0
LINE
8
BLACK
6
CONTINUOUS
10
0.6399243307086614
20
1.606476338582677
11
0.63927468503937
21
1.6068011811023621
0
LINE
8
BLACK
6
CONTINUOUS
10
0.63927468503937
20
1.6068011811023621
11
0.6391357874015748
21
1.6066622440944882
0
LINE
8
BLACK
6
CONTINUOUS
10
0.6391357874015748
20
1.6066622440944882
11
0.6380713779527559
21
1.6062213385826771
0
LINE
8
BLACK
6
CONTINUOUS
10
0.6380713779527559
20
1.6062213385826771
11
0.636919251968504
21
1.6062213385826771
0
LINE
8
BLACK
6
CONTINUOUS
10
0.636919251968504
20
1.6062213385826771
11
0.635854842519685
21
1.6066622440944882
0
LINE
8
BLACK
6
CONTINUOUS
10
0.635854842519685
20
1.6066622440944882
11
0.6350401968503937
21
1.6074768897637794
0
LINE
8
BLACK
6
CONTINUOUS
10
0.6350401968503937
20
1.6074768897637794
11
0.6345992913385826
21
1.6085412992125985
0
LINE
8
BLACK
6
CONTINUOUS
10
0.6345992913385826
20
1.6085412992125985
11
0.6345425590551181
21
1.6091173622047243
0
LINE
8
BLACK
6
CONTINUOUS
10
0.6345425590551181
20
1.6091173622047243
11
0.6345425590551181
21
1.6484874409448818
0
LINE
8
BLACK
6
CONTINUOUS
10
0.6345425590551181
20
1.6484874409448818
11
0.6345992913385826
21
1.6490635039370078
0
LINE
8
BLACK
6
CONTINUOUS
10
0.6345992913385826
20
1.6490635039370078
11
0.6350401968503937
21
1.6501279133858267
0
LINE
8
BLACK
6
CONTINUOUS
10
0.6350401968503937
20
1.6501279133858267
11
0.635854842519685
21
1.6509425590551181
0
LINE
8
BLACK
6
CONTINUOUS
10
0.635854842519685
20
1.6509425590551181
11
0.636919251968504
21
1.6513834645669292
0
LINE
8
BLACK
6
CONTINUOUS
10
0.636919251968504
20
1.6513834645669292
11
0.6380713779527559
21
1.6513834645669292
0
LINE
8
BLACK
6
CONTINUOUS
10
0.6380713779527559
20
1.6513834645669292
11
0.6391357874015748
21
1.6509425590551181
0
LINE
8
BLACK
6
CONTINUOUS
10
0.6404480708661417
20
1.6316644488188976
11
0.6404480708661417
21
1.6128170472440944
0
LINE
8
BLACK
6
CONTINUOUS
10
0.6404480708661417
20
1.6128170472440944
11
0.6419418897637795
21
1.6120701181102361
0
LINE
8
BLACK
6
CONTINUOUS
10
0.6419418897637795
20
1.6120701181102361
11
0.6480468503937008
21
1.6120701181102361
0
LINE
8
BLACK
6
CONTINUOUS
10
0.6480468503937008
20
1.6120701181102361
11
0.6507442913385827
21
1.6134188582677165
0
LINE
8
BLACK
6
CONTINUOUS
10
0.6507442913385827
20
1.6134188582677165
11
0.6519414173228346
21
1.6146160236220473
0
LINE
8
BLACK
6
CONTINUOUS
10
0.6519414173228346
20
1.6146160236220473
11
0.6532901968503937
21
1.6173135039370079
0
LINE
8
BLACK
6
CONTINUOUS
10
0.6532901968503937
20
1.6173135039370079
11
0.6532901968503937
21
1.6271679921259843
0
LINE
8
BLACK
6
CONTINUOUS
10
0.6532901968503937
20
1.6271679921259843
11
0.6519414566929134
21
1.6298654724409449
0
LINE
8
BLACK
6
CONTINUOUS
10
0.6519414566929134
20
1.6298654724409449
11
0.6507443307086614
21
1.6310625984251967
0
LINE
8
BLACK
6
CONTINUOUS
10
0.6507443307086614
20
1.6310625984251967
11
0.6480468503937008
21
1.6324113385826771
0
LINE
8
BLACK
6
CONTINUOUS
10
0.6480468503937008
20
1.6324113385826771
11
0.6419418897637795
21
1.6324113385826771
0
LINE
8
BLACK
6
CONTINUOUS
10
0.6419418897637795
20
1.6324113385826771
11
0.6404480708661417
21
1.6316644488188976
0
LINE
8
BLACK
6
CONTINUOUS
10
0.4966535826771654
20
1.6509425590551181
11
0.4974682283464567
21
1.6501279133858267
0
LINE
8
BLACK
6
CONTINUOUS
10
0.4974682283464567
20
1.6501279133858267
11
0.4979091338582677
21
1.6490635039370078
0
LINE
8
BLACK
6
CONTINUOUS
10
0.4979091338582677
20
1.6490635039370078
11
0.4979658661417323
21
1.6484874409448818
0
LINE
8
BLACK
6
CONTINUOUS
10
0.4979658661417323
20
1.6484874409448818
11
0.4979658661417323
21
1.6147416929133858
0
LINE
8
BLACK
6
CONTINUOUS
10
0.4979658661417323
20
1.6147416929133858
11
0.4979091338582677
21
1.6141656299212599
0
LINE
8
BLACK
6
CONTINUOUS
10
0.4979091338582677
20
1.6141656299212599
11
0.4978685039370079
21
1.6140676377952756
0
LINE
8
BLACK
6
CONTINUOUS
10
0.4978685039370079
20
1.6140676377952756
11
0.4978610236220472
21
1.613961811023622
0
LINE
8
BLACK
6
CONTINUOUS
10
0.4978610236220472
20
1.613961811023622
11
0.4976541338582677
21
1.6134211811023622
0
LINE
8
BLACK
6
CONTINUOUS
10
0.4976541338582677
20
1.6134211811023622
11
0.4957793700787401
21
1.6096716141732283
0
LINE
8
BLACK
6
CONTINUOUS
10
0.4957793700787401
20
1.6096716141732283
11
0.4957187007874015
21
1.6095752755905512
0
LINE
8
BLACK
6
CONTINUOUS
10
0.4957187007874015
20
1.6095752755905512
11
0.4957035826771654
21
1.6095298425196849
0
LINE
8
BLACK
6
CONTINUOUS
10
0.4957035826771654
20
1.6095298425196849
11
0.4956545275590551
21
1.6094733070866141
0
LINE
8
BLACK
6
CONTINUOUS
10
0.4956545275590551
20
1.6094733070866141
11
0.4954710236220473
21
1.6091817322834645
0
LINE
8
BLACK
6
CONTINUOUS
10
0.4954710236220473
20
1.6091817322834645
11
0.4951912992125984
21
1.6089391732283465
0
LINE
8
BLACK
6
CONTINUOUS
10
0.4951912992125984
20
1.6089391732283465
11
0.4949487401574803
21
1.6086594488188977
0
LINE
8
BLACK
6
CONTINUOUS
10
0.4949487401574803
20
1.6086594488188977
11
0.4946571653543307
21
1.6084759448818897
0
LINE
8
BLACK
6
CONTINUOUS
10
0.4946571653543307
20
1.6084759448818897
11
0.4946006299212598
21
1.6084268897637795
0
LINE
8
BLACK
6
CONTINUOUS
10
0.4946006299212598
20
1.6084268897637795
11
0.4945551968503937
21
1.6084117716535433
0
LINE
8
BLACK
6
CONTINUOUS
10
0.4945551968503937
20
1.6084117716535433
11
0.4944588582677165
21
1.6083511023622048
0
LINE
8
BLACK
6
CONTINUOUS
10
0.4944588582677165
20
1.6083511023622048
11
0.4907093307086614
21
1.606476338582677
0
LINE
8
BLACK
6
CONTINUOUS
10
0.4907093307086614
20
1.606476338582677
11
0.4901687007874015
21
1.6062694488188975
0
LINE
8
BLACK
6
CONTINUOUS
10
0.4901687007874015
20
1.6062694488188975
11
0.4890194881889764
21
1.6061877952755905
0
LINE
8
BLACK
6
CONTINUOUS
10
0.4890194881889764
20
1.6061877952755905
11
0.4879265354330709
21
1.6065521259842519
0
LINE
8
BLACK
6
CONTINUOUS
10
0.4879265354330709
20
1.6065521259842519
11
0.4870561417322835
21
1.607306968503937
0
LINE
8
BLACK
6
CONTINUOUS
10
0.4870561417322835
20
1.607306968503937
11
0.486540905511811
21
1.6083374803149606
0
LINE
8
BLACK
6
CONTINUOUS
10
0.486540905511811
20
1.6083374803149606
11
0.4864592519685039
21
1.6094866929133858
0
LINE
8
BLACK
6
CONTINUOUS
10
0.4864592519685039
20
1.6094866929133858
11
0.4868235826771654
21
1.6105796456692913
0
LINE
8
BLACK
6
CONTINUOUS
10
0.4868235826771654
20
1.6105796456692913
11
0.4875784251968504
21
1.6114500393700788
0
LINE
8
BLACK
6
CONTINUOUS
10
0.4875784251968504
20
1.6114500393700788
11
0.4880683070866141
21
1.6117583858267717
0
LINE
8
BLACK
6
CONTINUOUS
10
0.4880683070866141
20
1.6117583858267717
11
0.4909374803149606
21
1.6131929921259842
0
LINE
8
BLACK
6
CONTINUOUS
10
0.4909374803149606
20
1.6131929921259842
11
0.4920603543307087
21
1.6154387401574803
0
LINE
8
BLACK
6
CONTINUOUS
10
0.4920603543307087
20
1.6154387401574803
11
0.4920603543307087
21
1.6484874409448818
0
LINE
8
BLACK
6
CONTINUOUS
10
0.4920603543307087
20
1.6484874409448818
11
0.4921170866141732
21
1.6490635039370078
0
LINE
8
BLACK
6
CONTINUOUS
10
0.4921170866141732
20
1.6490635039370078
11
0.4925579921259842
21
1.6501279133858267
0
LINE
8
BLACK
6
CONTINUOUS
10
0.4925579921259842
20
1.6501279133858267
11
0.4933726377952756
21
1.6509425590551181
0
LINE
8
BLACK
6
CONTINUOUS
10
0.4933726377952756
20
1.6509425590551181
11
0.4944370472440945
21
1.6513834645669292
0
LINE
8
BLACK
6
CONTINUOUS
10
0.4944370472440945
20
1.6513834645669292
11
0.4955891732283464
21
1.6513834645669292
0
LINE
8
BLACK
6
CONTINUOUS
10
0.4955891732283464
20
1.6513834645669292
11
0.4966535826771654
21
1.6509425590551181
0
LINE
8
BLACK
6
CONTINUOUS
10
0.5510217716535433
20
1.6378192125984252
11
0.5518364173228346
21
1.6370045669291338
0
LINE
8
BLACK
6
CONTINUOUS
10
0.5518364173228346
20
1.6370045669291338
11
0.5522773228346457
21
1.635940157480315
0
LINE
8
BLACK
6
CONTINUOUS
10
0.5522773228346457
20
1.635940157480315
11
0.5523340551181102
21
1.6353640944881889
0
LINE
8
BLACK
6
CONTINUOUS
10
0.5523340551181102
20
1.6353640944881889
11
0.5523340551181102
21
1.6091173622047243
0
LINE
8
BLACK
6
CONTINUOUS
10
0.5523340551181102
20
1.6091173622047243
11
0.5522773228346457
21
1.6085412992125985
0
LINE
8
BLACK
6
CONTINUOUS
10
0.5522773228346457
20
1.6085412992125985
11
0.5518364173228346
21
1.6074768897637794
0
LINE
8
BLACK
6
CONTINUOUS
10
0.5518364173228346
20
1.6074768897637794
11
0.5510217716535433
21
1.6066622440944882
0
LINE
8
BLACK
6
CONTINUOUS
10
0.5510217716535433
20
1.6066622440944882
11
0.5499573622047244
21
1.6062213385826771
0
LINE
8
BLACK
6
CONTINUOUS
10
0.5499573622047244
20
1.6062213385826771
11
0.5488052362204724
21
1.6062213385826771
0
LINE
8
BLACK
6
CONTINUOUS
10
0.5488052362204724
20
1.6062213385826771
11
0.5477408267716535
21
1.6066622440944882
0
LINE
8
BLACK
6
CONTINUOUS
10
0.5477408267716535
20
1.6066622440944882
11
0.5469261811023622
21
1.6074768897637794
0
LINE
8
BLACK
6
CONTINUOUS
10
0.5469261811023622
20
1.6074768897637794
11
0.5464852755905512
21
1.6085412992125985
0
LINE
8
BLACK
6
CONTINUOUS
10
0.5464852755905512
20
1.6085412992125985
11
0.5464285433070866
21
1.6091173622047243
0
LINE
8
BLACK
6
CONTINUOUS
10
0.5464285433070866
20
1.6091173622047243
11
0.5464285433070866
21
1.6353640944881889
0
LINE
8
BLACK
6
CONTINUOUS
10
0.5464285433070866
20
1.6353640944881889
11
0.5464852755905512
21
1.635940157480315
0
LINE
8
BLACK
6
CONTINUOUS
10
0.5464852755905512
20
1.635940157480315
11
0.5469261811023622
21
1.6370045669291338
0
LINE
8
BLACK
6
CONTINUOUS
10
0.5469261811023622
20
1.6370045669291338
11
0.5477408267716535
21
1.6378192125984252
0
LINE
8
BLACK
6
CONTINUOUS
10
0.5477408267716535
20
1.6378192125984252
11
0.5488052362204724
21
1.6382601181102361
0
LINE
8
BLACK
6
CONTINUOUS
10
0.5488052362204724
20
1.6382601181102361
11
0.5499573622047244
21
1.6382601181102361
0
LINE
8
BLACK
6
CONTINUOUS
10
0.5499573622047244
20
1.6382601181102361
11
0.5510217716535433
21
1.6378192125984252
0
LINE
8
BLACK
6
CONTINUOUS
10
0.6747562992125984
20
1.6378192125984252
11
0.6755709448818897
21
1.6370045669291338
0
LINE
8
BLACK
6
CONTINUOUS
10
0.6755709448818897
20
1.6370045669291338
11
0.6760118503937008
21
1.635940157480315
0
LINE
8
BLACK
6
CONTINUOUS
10
0.6760118503937008
20
1.635940157480315
11
0.6760685826771653
21
1.6353640944881889
0
LINE
8
BLACK
6
CONTINUOUS
10
0.6760685826771653
20
1.6353640944881889
11
0.6760685826771653
21
1.6091173622047243
0
LINE
8
BLACK
6
CONTINUOUS
10
0.6760685826771653
20
1.6091173622047243
11
0.6760118503937008
21
1.6085412992125985
0
LINE
8
BLACK
6
CONTINUOUS
10
0.6760118503937008
20
1.6085412992125985
11
0.6755709448818897
21
1.6074768897637794
0
LINE
8
BLACK
6
CONTINUOUS
10
0.6755709448818897
20
1.6074768897637794
11
0.6747562992125984
21
1.6066622440944882
0
LINE
8
BLACK
6
CONTINUOUS
10
0.6747562992125984
20
1.6066622440944882
11
0.6736918897637795
21
1.6062213385826771
0
LINE
8
BLACK
6
CONTINUOUS
10
0.6736918897637795
20
1.6062213385826771
11
0.6725397637795275
21
1.6062213385826771
0
LINE
8
BLACK
6
CONTINUOUS
10
0.6725397637795275
20
1.6062213385826771
11
0.6714753543307086
21
1.6066622440944882
0
LINE
8
BLACK
6
CONTINUOUS
10
0.6714753543307086
20
1.6066622440944882
11
0.6706607086614174
21
1.6074768897637794
0
LINE
8
BLACK
6
CONTINUOUS
10
0.6706607086614174
20
1.6074768897637794
11
0.6702198031496063
21
1.6085412992125985
0
LINE
8
BLACK
6
CONTINUOUS
10
0.6702198031496063
20
1.6085412992125985
11
0.6701630708661417
21
1.6091173622047243
0
LINE
8
BLACK
6
CONTINUOUS
10
0.6701630708661417
20
1.6091173622047243
11
0.6701630708661417
21
1.6353640944881889
0
LINE
8
BLACK
6
CONTINUOUS
10
0.6701630708661417
20
1.6353640944881889
11
0.6702198031496063
21
1.635940157480315
0
LINE
8
BLACK
6
CONTINUOUS
10
0.6702198031496063
20
1.635940157480315
11
0.6706607086614174
21
1.6370045669291338
0
LINE
8
BLACK
6
CONTINUOUS
10
0.6706607086614174
20
1.6370045669291338
11
0.6714753543307086
21
1.6378192125984252
0
LINE
8
BLACK
6
CONTINUOUS
10
0.6714753543307086
20
1.6378192125984252
11
0.6725397637795275
21
1.6382601181102361
0
LINE
8
BLACK
6
CONTINUOUS
10
0.6725397637795275
20
1.6382601181102361
11
0.6736918897637795
21
1.6382601181102361
0
LINE
8
BLACK
6
CONTINUOUS
10
0.6736918897637795
20
1.6382601181102361
11
0.6747562992125984
21
1.6378192125984252
0
LINE
8
BLACK
6
CONTINUOUS
10
0.7074376771653543
20
1.6513834645669292
11
0.7085020866141732
21
1.6509425590551181
0
LINE
8
BLACK
6
CONTINUOUS
10
0.7085020866141732
20
1.6509425590551181
11
0.7093167322834646
21
1.6501279133858267
0
LINE
8
BLACK
6
CONTINUOUS
10
0.7093167322834646
20
1.6501279133858267
11
0.7097576377952756
21
1.6490635039370078
0
LINE
8
BLACK
6
CONTINUOUS
10
0.7097576377952756
20
1.6490635039370078
11
0.7098143700787402
21
1.6484874409448818
0
LINE
8
BLACK
6
CONTINUOUS
10
0.7098143700787402
20
1.6484874409448818
11
0.7098143700787402
21
1.6091173622047243
0
LINE
8
BLACK
6
CONTINUOUS
10
0.7098143700787402
20
1.6091173622047243
11
0.7097576377952756
21
1.6085412992125985
0
LINE
8
BLACK
6
CONTINUOUS
10
0.7097576377952756
20
1.6085412992125985
11
0.7093167322834646
21
1.6074768897637794
0
LINE
8
BLACK
6
CONTINUOUS
10
0.7093167322834646
20
1.6074768897637794
11
0.7085020866141732
21
1.6066622440944882
0
LINE
8
BLACK
6
CONTINUOUS
10
0.7085020866141732
20
1.6066622440944882
11
0.7074376771653543
21
1.6062213385826771
0
LINE
8
BLACK
6
CONTINUOUS
10
0.7074376771653543
20
1.6062213385826771
11
0.7062855511811024
21
1.6062213385826771
0
LINE
8
BLACK
6
CONTINUOUS
10
0.7062855511811024
20
1.6062213385826771
11
0.7052211417322835
21
1.6066622440944882
0
LINE
8
BLACK
6
CONTINUOUS
10
0.7052211417322835
20
1.6066622440944882
11
0.7044064960629921
21
1.6074768897637794
0
LINE
8
BLACK
6
CONTINUOUS
10
0.7044064960629921
20
1.6074768897637794
11
0.7039655905511811
21
1.6085412992125985
0
LINE
8
BLACK
6
CONTINUOUS
10
0.7039655905511811
20
1.6085412992125985
11
0.7039088582677165
21
1.6091173622047243
0
LINE
8
BLACK
6
CONTINUOUS
10
0.7039088582677165
20
1.6091173622047243
11
0.7039088582677165
21
1.6267870472440944
0
LINE
8
BLACK
6
CONTINUOUS
10
0.7039088582677165
20
1.6267870472440944
11
0.6937382677165355
21
1.6267870472440944
0
LINE
8
BLACK
6
CONTINUOUS
10
0.6937382677165355
20
1.6267870472440944
11
0.6931622047244095
21
1.626843779527559
0
LINE
8
BLACK
6
CONTINUOUS
10
0.6931622047244095
20
1.626843779527559
11
0.6920977952755906
21
1.6272846850393701
0
LINE
8
BLACK
6
CONTINUOUS
10
0.6920977952755906
20
1.6272846850393701
11
0.6912831496062992
21
1.6280993307086613
0
LINE
8
BLACK
6
CONTINUOUS
10
0.6912831496062992
20
1.6280993307086613
11
0.6908422440944881
21
1.6291637401574803
0
LINE
8
BLACK
6
CONTINUOUS
10
0.6908422440944881
20
1.6291637401574803
11
0.6908422440944881
21
1.6303158661417323
0
LINE
8
BLACK
6
CONTINUOUS
10
0.6908422440944881
20
1.6303158661417323
11
0.6912831496062992
21
1.6313802755905511
0
LINE
8
BLACK
6
CONTINUOUS
10
0.6912831496062992
20
1.6313802755905511
11
0.6920977952755906
21
1.6321949212598426
0
LINE
8
BLACK
6
CONTINUOUS
10
0.6920977952755906
20
1.6321949212598426
11
0.6931622047244095
21
1.6326358267716534
0
LINE
8
BLACK
6
CONTINUOUS
10
0.6931622047244095
20
1.6326358267716534
11
0.6937382677165355
21
1.632692559055118
0
LINE
8
BLACK
6
CONTINUOUS
10
0.6937382677165355
20
1.632692559055118
11
0.7039088582677165
21
1.632692559055118
0
LINE
8
BLACK
6
CONTINUOUS
10
0.7039088582677165
20
1.632692559055118
11
0.7039088582677165
21
1.6455346850393699
0
LINE
8
BLACK
6
CONTINUOUS
10
0.7039088582677165
20
1.6455346850393699
11
0.6881139763779527
21
1.6455346850393699
0
LINE
8
BLACK
6
CONTINUOUS
10
0.6881139763779527
20
1.6455346850393699
11
0.6875379133858267
21
1.6455914173228345
0
LINE
8
BLACK
6
CONTINUOUS
10
0.6875379133858267
20
1.6455914173228345
11
0.6864735039370079
21
1.6460323228346456
0
LINE
8
BLACK
6
CONTINUOUS
10
0.6864735039370079
20
1.6460323228346456
11
0.6856588582677166
21
1.6468469685039371
0
LINE
8
BLACK
6
CONTINUOUS
10
0.6856588582677166
20
1.6468469685039371
11
0.6852179527559055
21
1.6479113779527559
0
LINE
8
BLACK
6
CONTINUOUS
10
0.6852179527559055
20
1.6479113779527559
11
0.6852179527559055
21
1.6490635039370078
0
LINE
8
BLACK
6
CONTINUOUS
10
0.6852179527559055
20
1.6490635039370078
11
0.6856588582677166
21
1.6501279133858267
0
LINE
8
BLACK
6
CONTINUOUS
10
0.6856588582677166
20
1.6501279133858267
11
0.6864735039370079
21
1.6509425590551181
0
LINE
8
BLACK
6
CONTINUOUS
10
0.6864735039370079
20
1.6509425590551181
11
0.6875379133858267
21
1.6513834645669292
0
LINE
8
BLACK
6
CONTINUOUS
10
0.6875379133858267
20
1.6513834645669292
11
0.6881139763779527
21
1.6514401968503936
0
LINE
8
BLACK
6
CONTINUOUS
10
0.6881139763779527
20
1.6514401968503936
11
0.7068616141732283
21
1.6514401968503936
0
LINE
8
BLACK
6
CONTINUOUS
10
0.7068616141732283
20
1.6514401968503936
11
0.7074376771653543
21
1.6513834645669292
0
LINE
8
BLACK
6
CONTINUOUS
10
0.5510217716535433
20
1.6509425590551181
11
0.5514692125984252
21
1.6505753543307087
0
LINE
8
BLACK
6
CONTINUOUS
10
0.5514692125984252
20
1.6505753543307087
11
0.5533439763779527
21
1.6487005905511811
0
LINE
8
BLACK
6
CONTINUOUS
10
0.5533439763779527
20
1.6487005905511811
11
0.5537111811023622
21
1.6482531496062991
0
LINE
8
BLACK
6
CONTINUOUS
10
0.5537111811023622
20
1.6482531496062991
11
0.5538527559055118
21
1.6479113779527559
0
LINE
8
BLACK
6
CONTINUOUS
10
0.5538527559055118
20
1.6479113779527559
11
0.5541520866141733
21
1.6471887007874015
0
LINE
8
BLACK
6
CONTINUOUS
10
0.5541520866141733
20
1.6471887007874015
11
0.5541520866141733
21
1.6460366141732283
0
LINE
8
BLACK
6
CONTINUOUS
10
0.5541520866141733
20
1.6460366141732283
11
0.5537111811023622
21
1.6449722047244093
0
LINE
8
BLACK
6
CONTINUOUS
10
0.5537111811023622
20
1.6449722047244093
11
0.5533439763779527
21
1.6445247637795275
0
LINE
8
BLACK
6
CONTINUOUS
10
0.5533439763779527
20
1.6445247637795275
11
0.5514692125984252
21
1.6426499999999999
0
LINE
8
BLACK
6
CONTINUOUS
10
0.5514692125984252
20
1.6426499999999999
11
0.5510217716535433
21
1.6422827952755905
0
LINE
8
BLACK
6
CONTINUOUS
10
0.5510217716535433
20
1.6422827952755905
11
0.5499573622047244
21
1.6418418897637794
0
LINE
8
BLACK
6
CONTINUOUS
10
0.5499573622047244
20
1.6418418897637794
11
0.5499573228346457
21
1.6418418897637794
0
LINE
8
BLACK
6
CONTINUOUS
10
0.5499573228346457
20
1.6418418897637794
11
0.5488052755905511
21
1.6418418897637794
0
LINE
8
BLACK
6
CONTINUOUS
10
0.5488052755905511
20
1.6418418897637794
11
0.5488052362204724
21
1.6418418897637794
0
LINE
8
BLACK
6
CONTINUOUS
10
0.5488052362204724
20
1.6418418897637794
11
0.5477408267716535
21
1.6422827952755905
0
LINE
8
BLACK
6
CONTINUOUS
10
0.5477408267716535
20
1.6422827952755905
11
0.5472933858267717
21
1.6426499999999999
0
LINE
8
BLACK
6
CONTINUOUS
10
0.5472933858267717
20
1.6426499999999999
11
0.5454186220472441
21
1.6445247637795275
0
LINE
8
BLACK
6
CONTINUOUS
10
0.5454186220472441
20
1.6445247637795275
11
0.5450514173228347
21
1.6449722047244093
0
LINE
8
BLACK
6
CONTINUOUS
10
0.5450514173228347
20
1.6449722047244093
11
0.5446105118110236
21
1.6460366535433071
0
LINE
8
BLACK
6
CONTINUOUS
10
0.5446105118110236
20
1.6460366535433071
11
0.5446105118110236
21
1.6471887007874015
0
LINE
8
BLACK
6
CONTINUOUS
10
0.5446105118110236
20
1.6471887007874015
11
0.5450514173228347
21
1.6482531496062991
0
LINE
8
BLACK
6
CONTINUOUS
10
0.5450514173228347
20
1.6482531496062991
11
0.5454186220472441
21
1.6487005905511811
0
LINE
8
BLACK
6
CONTINUOUS
10
0.5454186220472441
20
1.6487005905511811
11
0.5472933858267717
21
1.6505753543307087
0
LINE
8
BLACK
6
CONTINUOUS
10
0.5472933858267717
20
1.6505753543307087
11
0.5477408267716535
21
1.6509425590551181
0
LINE
8
BLACK
6
CONTINUOUS
10
0.5477408267716535
20
1.6509425590551181
11
0.5488052362204724
21
1.6513834645669292
0
LINE
8
BLACK
6
CONTINUOUS
10
0.5488052362204724
20
1.6513834645669292
11
0.5499573228346457
21
1.6513834645669292
0
LINE
8
BLACK
6
CONTINUOUS
10
0.5499573228346457
20
1.6513834645669292
11
0.5499573622047244
21
1.6513834645669292
0
LINE
8
BLACK
6
CONTINUOUS
10
0.5499573622047244
20
1.6513834645669292
11
0.5510217716535433
21
1.6509425590551181
0
LINE
8
BLACK
6
CONTINUOUS
10
0.6747562992125984
20
1.6509425590551181
11
0.6752037401574803
21
1.6505753543307087
0
LINE
8
BLACK
6
CONTINUOUS
10
0.6752037401574803
20
1.6505753543307087
11
0.6770785039370079
21
1.6487005905511811
0
LINE
8
BLACK
6
CONTINUOUS
10
0.6770785039370079
20
1.6487005905511811
11
0.6774457086614173
21
1.6482531496062991
0
LINE
8
BLACK
6
CONTINUOUS
10
0.6774457086614173
20
1.6482531496062991
11
0.6775872834645669
21
1.6479113779527559
0
LINE
8
BLACK
6
CONTINUOUS
10
0.6775872834645669
20
1.6479113779527559
11
0.6778866141732284
21
1.6471887007874015
0
LINE
8
BLACK
6
CONTINUOUS
10
0.6778866141732284
20
1.6471887007874015
11
0.6778866141732284
21
1.6460366141732283
0
LINE
8
BLACK
6
CONTINUOUS
10
0.6778866141732284
20
1.6460366141732283
11
0.6774457086614173
21
1.6449722047244093
0
LINE
8
BLACK
6
CONTINUOUS
10
0.6774457086614173
20
1.6449722047244093
11
0.6770785039370079
21
1.6445247637795275
0
LINE
8
BLACK
6
CONTINUOUS
10
0.6770785039370079
20
1.6445247637795275
11
0.6752037401574803
21
1.6426499999999999
0
LINE
8
BLACK
6
CONTINUOUS
10
0.6752037401574803
20
1.6426499999999999
11
0.6747562992125984
21
1.6422827952755905
0
LINE
8
BLACK
6
CONTINUOUS
10
0.6747562992125984
20
1.6422827952755905
11
0.6736918897637795
21
1.6418418897637794
0
LINE
8
BLACK
6
CONTINUOUS
10
0.6736918897637795
20
1.6418418897637794
11
0.6736918503937007
21
1.6418418897637794
0
LINE
8
BLACK
6
CONTINUOUS
10
0.6736918503937007
20
1.6418418897637794
11
0.6725398031496063
21
1.6418418897637794
0
LINE
8
BLACK
6
CONTINUOUS
10
0.6725398031496063
20
1.6418418897637794
11
0.6725397637795275
21
1.6418418897637794
0
LINE
8
BLACK
6
CONTINUOUS
10
0.6725397637795275
20
1.6418418897637794
11
0.6714753543307086
21
1.6422827952755905
0
LINE
8
BLACK
6
CONTINUOUS
10
0.6714753543307086
20
1.6422827952755905
11
0.6710279133858268
21
1.6426499999999999
0
LINE
8
BLACK
6
CONTINUOUS
10
0.6710279133858268
20
1.6426499999999999
11
0.6691531496062992
21
1.6445247637795275
0
LINE
8
BLACK
6
CONTINUOUS
10
0.6691531496062992
20
1.6445247637795275
11
0.6687859448818897
21
1.6449722047244093
0
LINE
8
BLACK
6
CONTINUOUS
10
0.6687859448818897
20
1.6449722047244093
11
0.6683450393700787
21
1.6460366535433071
0
LINE
8
BLACK
6
CONTINUOUS
10
0.6683450393700787
20
1.6460366535433071
11
0.6683450393700787
21
1.6471887007874015
0
LINE
8
BLACK
6
CONTINUOUS
10
0.6683450393700787
20
1.6471887007874015
11
0.6687859448818897
21
1.6482531496062991
0
LINE
8
BLACK
6
CONTINUOUS
10
0.6687859448818897
20
1.6482531496062991
11
0.6691531496062992
21
1.6487005905511811
0
LINE
8
BLACK
6
CONTINUOUS
10
0.6691531496062992
20
1.6487005905511811
11
0.6710279133858268
21
1.6505753543307087
0
LINE
8
BLACK
6
CONTINUOUS
10
0.6710279133858268
20
1.6505753543307087
11
0.6714753543307086
21
1.6509425590551181
0
LINE
8
BLACK
6
CONTINUOUS
10
0.6714753543307086
20
1.6509425590551181
11
0.6725397637795275
21
1.6513834645669292
0
LINE
8
BLACK
6
CONTINUOUS
10
0.6725397637795275
20
1.6513834645669292
11
0.6736918503937007
21
1.6513834645669292
0
LINE
8
BLACK
6
CONTINUOUS
10
0.6736918503937007
20
1.6513834645669292
11
0.6736918897637795
21
1.6513834645669292
0
LINE
8
BLACK
6
CONTINUOUS
10
0.6736918897637795
20
1.6513834645669292
11
0.6747562992125984
21
1.6509425590551181
0
LINE
8
BLACK
6
CONTINUOUS
10
0.5817354330708662
20
1.7154405118110236
11
0.582079251968504
21
1.7154405118110236
0
LINE
8
BLACK
6
CONTINUOUS
10
0.582079251968504
20
1.7154405118110236
11
0.5821651968503937
21
1.7153545669291339
0
LINE
8
BLACK
6
CONTINUOUS
10
0.5821651968503937
20
1.7153545669291339
11
0.5822844094488189
21
1.7153307086614173
0
LINE
8
BLACK
6
CONTINUOUS
10
0.5822844094488189
20
1.7153307086614173
11
0.5826099606299212
21
1.7150044881889763
0
LINE
8
BLACK
6
CONTINUOUS
10
0.5826099606299212
20
1.7150044881889763
11
0.584045
21
1.7128520078740157
0
LINE
8
BLACK
6
CONTINUOUS
10
0.584045
20
1.7128520078740157
11
0.5853264960629921
21
1.7115705118110236
0
LINE
8
BLACK
6
CONTINUOUS
10
0.5853264960629921
20
1.7115705118110236
11
0.5866549212598425
21
1.7109062992125983
0
LINE
8
BLACK
6
CONTINUOUS
10
0.5866549212598425
20
1.7109062992125983
11
0.5870189763779528
21
1.7106237007874014
0
LINE
8
BLACK
6
CONTINUOUS
10
0.5870189763779528
20
1.7106237007874014
11
0.5873048425196851
21
1.7097661811023621
0
LINE
8
BLACK
6
CONTINUOUS
10
0.5873048425196851
20
1.7097661811023621
11
0.5869005118110237
21
1.7089575984251968
0
LINE
8
BLACK
6
CONTINUOUS
10
0.5869005118110237
20
1.7089575984251968
11
0.5860429921259842
21
1.7086717322834646
0
LINE
8
BLACK
6
CONTINUOUS
10
0.5860429921259842
20
1.7086717322834646
11
0.5855985039370079
21
1.7087934645669292
0
LINE
8
BLACK
6
CONTINUOUS
10
0.5855985039370079
20
1.7087934645669292
11
0.5840986614173228
21
1.7095433858267717
0
LINE
8
BLACK
6
CONTINUOUS
10
0.5840986614173228
20
1.7095433858267717
11
0.5839490551181102
21
1.7096595275590551
0
LINE
8
BLACK
6
CONTINUOUS
10
0.5839490551181102
20
1.7096595275590551
11
0.5837916929133858
21
1.7097646456692912
0
LINE
8
BLACK
6
CONTINUOUS
10
0.5837916929133858
20
1.7097646456692912
11
0.5828083464566929
21
1.710748031496063
0
LINE
8
BLACK
6
CONTINUOUS
10
0.5828083464566929
20
1.710748031496063
11
0.5828083464566929
21
1.6997824015748031
0
LINE
8
BLACK
6
CONTINUOUS
10
0.5828083464566929
20
1.6997824015748031
11
0.5861266929133858
21
1.6997824015748031
0
LINE
8
BLACK
6
CONTINUOUS
10
0.5861266929133858
20
1.6997824015748031
11
0.5865787007874016
21
1.6996924803149607
0
LINE
8
BLACK
6
CONTINUOUS
10
0.5865787007874016
20
1.6996924803149607
11
0.587217874015748
21
1.6990533070866141
0
LINE
8
BLACK
6
CONTINUOUS
10
0.587217874015748
20
1.6990533070866141
11
0.587217874015748
21
1.6981492913385827
0
LINE
8
BLACK
6
CONTINUOUS
10
0.587217874015748
20
1.6981492913385827
11
0.5865787007874016
21
1.6975101181102361
0
LINE
8
BLACK
6
CONTINUOUS
10
0.5865787007874016
20
1.6975101181102361
11
0.5861266929133858
21
1.6974201968503937
0
LINE
8
BLACK
6
CONTINUOUS
10
0.5861266929133858
20
1.6974201968503937
11
0.5771278346456693
21
1.6974201968503937
0
LINE
8
BLACK
6
CONTINUOUS
10
0.5771278346456693
20
1.6974201968503937
11
0.5766758267716535
21
1.6975101181102361
0
LINE
8
BLACK
6
CONTINUOUS
10
0.5766758267716535
20
1.6975101181102361
11
0.576036653543307
21
1.6981492913385827
0
LINE
8
BLACK
6
CONTINUOUS
10
0.576036653543307
20
1.6981492913385827
11
0.576036653543307
21
1.6990533070866141
0
LINE
8
BLACK
6
CONTINUOUS
10
0.576036653543307
20
1.6990533070866141
11
0.5766758267716535
21
1.6996924803149607
0
LINE
8
BLACK
6
CONTINUOUS
10
0.5766758267716535
20
1.6996924803149607
11
0.5771278346456693
21
1.6997824015748031
0
LINE
8
BLACK
6
CONTINUOUS
10
0.5771278346456693
20
1.6997824015748031
11
0.5804461417322835
21
1.6997824015748031
0
LINE
8
BLACK
6
CONTINUOUS
10
0.5804461417322835
20
1.6997824015748031
11
0.5804461417322835
21
1.7143493307086615
0
LINE
8
BLACK
6
CONTINUOUS
10
0.5804461417322835
20
1.7143493307086615
11
0.580536062992126
21
1.714801338582677
0
LINE
8
BLACK
6
CONTINUOUS
10
0.580536062992126
20
1.714801338582677
11
0.5806220078740157
21
1.7148873228346457
0
LINE
8
BLACK
6
CONTINUOUS
10
0.5806220078740157
20
1.7148873228346457
11
0.5806458661417323
21
1.715006496062992
0
LINE
8
BLACK
6
CONTINUOUS
10
0.5806458661417323
20
1.715006496062992
11
0.580931968503937
21
1.7151972834645668
0
LINE
8
BLACK
6
CONTINUOUS
10
0.580931968503937
20
1.7151972834645668
11
0.5811752362204724
21
1.7154405118110236
0
LINE
8
BLACK
6
CONTINUOUS
10
0.5811752362204724
20
1.7154405118110236
11
0.5812968110236221
21
1.7154405118110236
0
LINE
8
BLACK
6
CONTINUOUS
10
0.5812968110236221
20
1.7154405118110236
11
0.581398031496063
21
1.7155079921259841
0
LINE
8
BLACK
6
CONTINUOUS
10
0.581398031496063
20
1.7155079921259841
11
0.5817354330708662
21
1.7154405118110236
0
LINE
8
BLACK
6
CONTINUOUS
10
0.601576811023622
20
1.7154405118110236
11
0.6022159842519685
21
1.714801338582677
0
LINE
8
BLACK
6
CONTINUOUS
10
0.6022159842519685
20
1.714801338582677
11
0.602305905511811
21
1.7143493307086615
0
LINE
8
BLACK
6
CONTINUOUS
10
0.602305905511811
20
1.7143493307086615
11
0.602305905511811
21
1.6986012992125983
0
LINE
8
BLACK
6
CONTINUOUS
10
0.602305905511811
20
1.6986012992125983
11
0.6022159842519685
21
1.6981492913385827
0
LINE
8
BLACK
6
CONTINUOUS
10
0.6022159842519685
20
1.6981492913385827
11
0.601576811023622
21
1.6975101181102361
0
LINE
8
BLACK
6
CONTINUOUS
10
0.601576811023622
20
1.6975101181102361
11
0.6011248031496063
21
1.6974201968503937
0
LINE
8
BLACK
6
CONTINUOUS
10
0.6011248031496063
20
1.6974201968503937
11
0.5973752755905511
21
1.6974201968503937
0
LINE
8
BLACK
6
CONTINUOUS
10
0.5973752755905511
20
1.6974201968503937
11
0.5971896062992126
21
1.6974571653543307
0
LINE
8
BLACK
6
CONTINUOUS
10
0.5971896062992126
20
1.6974571653543307
11
0.597001811023622
21
1.6974807874015747
0
LINE
8
BLACK
6
CONTINUOUS
10
0.597001811023622
20
1.6974807874015747
11
0.5947520472440945
21
1.6982306692913385
0
LINE
8
BLACK
6
CONTINUOUS
10
0.5947520472440945
20
1.6982306692913385
11
0.5947005905511811
21
1.6982599999999999
0
LINE
8
BLACK
6
CONTINUOUS
10
0.5947005905511811
20
1.6982599999999999
11
0.5946735826771653
21
1.6982599999999999
0
LINE
8
BLACK
6
CONTINUOUS
10
0.5946735826771653
20
1.6982599999999999
11
0.5945161811023622
21
1.6983651574803149
0
LINE
8
BLACK
6
CONTINUOUS
10
0.5945161811023622
20
1.6983651574803149
11
0.5943516929133859
21
1.698458937007874
0
LINE
8
BLACK
6
CONTINUOUS
10
0.5943516929133859
20
1.698458937007874
11
0.5943395669291338
21
1.6984831496062991
0
LINE
8
BLACK
6
CONTINUOUS
10
0.5943395669291338
20
1.6984831496062991
11
0.5942903543307086
21
1.6985160236220471
0
LINE
8
BLACK
6
CONTINUOUS
10
0.5942903543307086
20
1.6985160236220471
11
0.5927905905511811
21
1.7000158661417322
0
LINE
8
BLACK
6
CONTINUOUS
10
0.5927905905511811
20
1.7000158661417322
11
0.5926853543307087
21
1.7001733464566928
0
LINE
8
BLACK
6
CONTINUOUS
10
0.5926853543307087
20
1.7001733464566928
11
0.5925693307086614
21
1.7003228346456694
0
LINE
8
BLACK
6
CONTINUOUS
10
0.5925693307086614
20
1.7003228346456694
11
0.5918194488188976
21
1.7018226377952757
0
LINE
8
BLACK
6
CONTINUOUS
10
0.5918194488188976
20
1.7018226377952757
11
0.5917852755905512
21
1.7019474409448818
0
LINE
8
BLACK
6
CONTINUOUS
10
0.5917852755905512
20
1.7019474409448818
11
0.5917300393700787
21
1.7020643700787401
0
LINE
8
BLACK
6
CONTINUOUS
10
0.5917300393700787
20
1.7020643700787401
11
0.5909801181102362
21
1.7050639763779527
0
LINE
8
BLACK
6
CONTINUOUS
10
0.5909801181102362
20
1.7050639763779527
11
0.5909730708661417
21
1.7052084645669292
0
LINE
8
BLACK
6
CONTINUOUS
10
0.5909730708661417
20
1.7052084645669292
11
0.590944842519685
21
1.7053504330708662
0
LINE
8
BLACK
6
CONTINUOUS
10
0.590944842519685
20
1.7053504330708662
11
0.590944842519685
21
1.707600157480315
0
LINE
8
BLACK
6
CONTINUOUS
10
0.590944842519685
20
1.707600157480315
11
0.5909730708661417
21
1.7077421653543308
0
LINE
8
BLACK
6
CONTINUOUS
10
0.5909730708661417
20
1.7077421653543308
11
0.5909801181102362
21
1.7078866141732283
0
LINE
8
BLACK
6
CONTINUOUS
10
0.5909801181102362
20
1.7078866141732283
11
0.5917300393700787
21
1.7108862598425196
0
LINE
8
BLACK
6
CONTINUOUS
10
0.5917300393700787
20
1.7108862598425196
11
0.5917852755905512
21
1.7110032283464567
0
LINE
8
BLACK
6
CONTINUOUS
10
0.5917852755905512
20
1.7110032283464567
11
0.5918194488188976
21
1.7111279921259843
0
LINE
8
BLACK
6
CONTINUOUS
10
0.5918194488188976
20
1.7111279921259843
11
0.5925693307086614
21
1.7126277952755906
0
LINE
8
BLACK
6
CONTINUOUS
10
0.5925693307086614
20
1.7126277952755906
11
0.5926854724409448
21
1.7127774409448819
0
LINE
8
BLACK
6
CONTINUOUS
10
0.5926854724409448
20
1.7127774409448819
11
0.5927905905511811
21
1.7129347637795276
0
LINE
8
BLACK
6
CONTINUOUS
10
0.5927905905511811
20
1.7129347637795276
11
0.5942903543307086
21
1.7144345669291339
0
LINE
8
BLACK
6
CONTINUOUS
10
0.5942903543307086
20
1.7144345669291339
11
0.5943395275590551
21
1.7144674409448819
0
LINE
8
BLACK
6
CONTINUOUS
10
0.5943395275590551
20
1.7144674409448819
11
0.5943516535433071
21
1.714491653543307
0
LINE
8
BLACK
6
CONTINUOUS
10
0.5943516535433071
20
1.714491653543307
11
0.5945161811023622
21
1.7145854724409448
0
LINE
8
BLACK
6
CONTINUOUS
10
0.5945161811023622
20
1.7145854724409448
11
0.5946735826771653
21
1.7146905905511811
0
LINE
8
BLACK
6
CONTINUOUS
10
0.5946735826771653
20
1.7146905905511811
11
0.5947006692913386
21
1.7146905905511811
0
LINE
8
BLACK
6
CONTINUOUS
10
0.5947006692913386
20
1.7146905905511811
11
0.5947520472440945
21
1.7147198818897638
0
LINE
8
BLACK
6
CONTINUOUS
10
0.5947520472440945
20
1.7147198818897638
11
0.5970017716535433
21
1.7154698031496063
0
LINE
8
BLACK
6
CONTINUOUS
10
0.5970017716535433
20
1.7154698031496063
11
0.5971893700787402
21
1.7154934645669291
0
LINE
8
BLACK
6
CONTINUOUS
10
0.5971893700787402
20
1.7154934645669291
11
0.5973752755905511
21
1.7155304330708661
0
LINE
8
BLACK
6
CONTINUOUS
10
0.5973752755905511
20
1.7155304330708661
11
0.6011248031496063
21
1.7155304330708661
0
LINE
8
BLACK
6
CONTINUOUS
10
0.6011248031496063
20
1.7155304330708661
11
0.601576811023622
21
1.7154405118110236
0
LINE
8
BLACK
6
CONTINUOUS
10
0.5957635826771653
20
1.7125671259842519
11
0.5945964566929134
21
1.7114
0
LINE
8
BLACK
6
CONTINUOUS
10
0.5945964566929134
20
1.7114
11
0.5939902362204724
21
1.7101875590551181
0
LINE
8
BLACK
6
CONTINUOUS
10
0.5939902362204724
20
1.7101875590551181
11
0.5933070472440944
21
1.7074548031496062
0
LINE
8
BLACK
6
CONTINUOUS
10
0.5933070472440944
20
1.7074548031496062
11
0.5933070472440944
21
1.7054958267716536
0
LINE
8
BLACK
6
CONTINUOUS
10
0.5933070472440944
20
1.7054958267716536
11
0.5939901968503937
21
1.7027631102362204
0
LINE
8
BLACK
6
CONTINUOUS
10
0.5939901968503937
20
1.7027631102362204
11
0.5945964566929134
21
1.7015506299212597
0
LINE
8
BLACK
6
CONTINUOUS
10
0.5945964566929134
20
1.7015506299212597
11
0.5957635039370078
21
1.7003835826771654
0
LINE
8
BLACK
6
CONTINUOUS
10
0.5957635039370078
20
1.7003835826771654
11
0.5975670078740157
21
1.6997824015748031
0
LINE
8
BLACK
6
CONTINUOUS
10
0.5975670078740157
20
1.6997824015748031
11
0.5999437007874016
21
1.6997824015748031
0
LINE
8
BLACK
6
CONTINUOUS
10
0.5999437007874016
20
1.6997824015748031
11
0.5999437007874016
21
1.7131682283464567
0
LINE
8
BLACK
6
CONTINUOUS
10
0.5999437007874016
20
1.7131682283464567
11
0.5975668897637795
21
1.7131682283464567
0
LINE
8
BLACK
6
CONTINUOUS
10
0.5975668897637795
20
1.7131682283464567
11
0.5957635826771653
21
1.7125671259842519
0
LINE
8
BLACK
6
CONTINUOUS
10
0.6097150393700788
20
1.714801338582677
11
0.6098049606299213
21
1.7143493307086615
0
LINE
8
BLACK
6
CONTINUOUS
10
0.6098049606299213
20
1.7143493307086615
11
0.6098049606299213
21
1.6986012992125983
0
LINE
8
BLACK
6
CONTINUOUS
10
0.6098049606299213
20
1.6986012992125983
11
0.6097150393700788
21
1.6981492913385827
0
LINE
8
BLACK
6
CONTINUOUS
10
0.6097150393700788
20
1.6981492913385827
11
0.6090758661417323
21
1.6975101181102361
0
LINE
8
BLACK
6
CONTINUOUS
10
0.6090758661417323
20
1.6975101181102361
11
0.6081718503937008
21
1.6975101181102361
0
LINE
8
BLACK
6
CONTINUOUS
10
0.6081718503937008
20
1.6975101181102361
11
0.6075326771653543
21
1.6981492913385827
0
LINE
8
BLACK
6
CONTINUOUS
10
0.6075326771653543
20
1.6981492913385827
11
0.6074427559055118
21
1.6986012992125983
0
LINE
8
BLACK
6
CONTINUOUS
10
0.6074427559055118
20
1.6986012992125983
11
0.6074427559055118
21
1.7143493307086615
0
LINE
8
BLACK
6
CONTINUOUS
10
0.6074427559055118
20
1.7143493307086615
11
0.6075326771653543
21
1.714801338582677
0
LINE
8
BLACK
6
CONTINUOUS
10
0.6075326771653543
20
1.714801338582677
11
0.6081718503937008
21
1.7154405118110236
0
LINE
8
BLACK
6
CONTINUOUS
10
0.6081718503937008
20
1.7154405118110236
11
0.6090758661417323
21
1.7154405118110236
0
LINE
8
BLACK
6
CONTINUOUS
10
0.6090758661417323
20
1.7154405118110236
11
0.6097150393700788
21
1.714801338582677
0
LINE
8
BLACK
6
CONTINUOUS
10
0.6225741732283464
20
1.7154405118110236
11
0.6232133464566929
21
1.714801338582677
0
LINE
8
BLACK
6
CONTINUOUS
10
0.6232133464566929
20
1.714801338582677
11
0.6233032677165354
21
1.7143493307086615
0
LINE
8
BLACK
6
CONTINUOUS
10
0.6233032677165354
20
1.7143493307086615
11
0.6233032677165354
21
1.6986012992125983
0
LINE
8
BLACK
6
CONTINUOUS
10
0.6233032677165354
20
1.6986012992125983
11
0.6232133464566929
21
1.6981492913385827
0
LINE
8
BLACK
6
CONTINUOUS
10
0.6232133464566929
20
1.6981492913385827
11
0.6225741732283464
21
1.6975101181102361
0
LINE
8
BLACK
6
CONTINUOUS
10
0.6225741732283464
20
1.6975101181102361
11
0.621670157480315
21
1.6975101181102361
0
LINE
8
BLACK
6
CONTINUOUS
10
0.621670157480315
20
1.6975101181102361
11
0.6210309842519685
21
1.6981492913385827
0
LINE
8
BLACK
6
CONTINUOUS
10
0.6210309842519685
20
1.6981492913385827
11
0.6209410629921259
21
1.6986012992125983
0
LINE
8
BLACK
6
CONTINUOUS
10
0.6209410629921259
20
1.6986012992125983
11
0.6209410629921259
21
1.7056691732283464
0
LINE
8
BLACK
6
CONTINUOUS
10
0.6209410629921259
20
1.7056691732283464
11
0.6168728346456693
21
1.7056691732283464
0
LINE
8
BLACK
6
CONTINUOUS
10
0.6168728346456693
20
1.7056691732283464
11
0.6164208267716536
21
1.7057590944881889
0
LINE
8
BLACK
6
CONTINUOUS
10
0.6164208267716536
20
1.7057590944881889
11
0.6157816535433071
21
1.7063982677165355
0
LINE
8
BLACK
6
CONTINUOUS
10
0.6157816535433071
20
1.7063982677165355
11
0.6157816535433071
21
1.7073022834645668
0
LINE
8
BLACK
6
CONTINUOUS
10
0.6157816535433071
20
1.7073022834645668
11
0.6164208267716536
21
1.7079414566929134
0
LINE
8
BLACK
6
CONTINUOUS
10
0.6164208267716536
20
1.7079414566929134
11
0.6168728346456693
21
1.7080313779527558
0
LINE
8
BLACK
6
CONTINUOUS
10
0.6168728346456693
20
1.7080313779527558
11
0.6209410629921259
21
1.7080313779527558
0
LINE
8
BLACK
6
CONTINUOUS
10
0.6209410629921259
20
1.7080313779527558
11
0.6209410629921259
21
1.7131682283464567
0
LINE
8
BLACK
6
CONTINUOUS
10
0.6209410629921259
20
1.7131682283464567
11
0.6146231102362204
21
1.7131682283464567
0
LINE
8
BLACK
6
CONTINUOUS
10
0.6146231102362204
20
1.7131682283464567
11
0.6141711023622047
21
1.7132581496062991
0
LINE
8
BLACK
6
CONTINUOUS
10
0.6141711023622047
20
1.7132581496062991
11
0.6135319291338582
21
1.7138973228346457
0
LINE
8
BLACK
6
CONTINUOUS
10
0.6135319291338582
20
1.7138973228346457
11
0.6135319291338582
21
1.714801338582677
0
LINE
8
BLACK
6
CONTINUOUS
10
0.6135319291338582
20
1.714801338582677
11
0.6141711023622047
21
1.7154405118110236
0
LINE
8
BLACK
6
CONTINUOUS
10
0.6141711023622047
20
1.7154405118110236
11
0.6146231102362204
21
1.7155304330708661
0
LINE
8
BLACK
6
CONTINUOUS
10
0.6146231102362204
20
1.7155304330708661
11
0.6221221653543307
21
1.7155304330708661
0
LINE
8
BLACK
6
CONTINUOUS
10
0.6221221653543307
20
1.7155304330708661
11
0.6225741732283464
21
1.7154405118110236
0
LINE
8
BLACK
6
CONTINUOUS
10
0.6080647637795276
20
1.7463080708661416
11
0.6158196062992126
21
1.7439556692913385
0
LINE
8
BLACK
6
CONTINUOUS
10
0.6158196062992126
20
1.7439556692913385
11
0.6229664960629921
21
1.7401355511811023
0
LINE
8
BLACK
6
CONTINUOUS
10
0.6229664960629921
20
1.7401355511811023
11
0.6292307874015748
21
1.7349945669291338
0
LINE
8
BLACK
6
CONTINUOUS
10
0.6292307874015748
20
1.7349945669291338
11
0.6343717716535433
21
1.7287302755905511
0
LINE
8
BLACK
6
CONTINUOUS
10
0.6343717716535433
20
1.7287302755905511
11
0.6381918897637795
21
1.7215833858267715
0
LINE
8
BLACK
6
CONTINUOUS
10
0.6381918897637795
20
1.7215833858267715
11
0.6405442913385827
21
1.7138285433070866
0
LINE
8
BLACK
6
CONTINUOUS
10
0.6405442913385827
20
1.7138285433070866
11
0.6413385826771654
21
1.7057637795275591
0
LINE
8
BLACK
6
CONTINUOUS
10
0.6413385826771654
20
1.7057637795275591
11
0.6405442913385827
21
1.6976990157480314
0
LINE
8
BLACK
6
CONTINUOUS
10
0.6405442913385827
20
1.6976990157480314
11
0.6381918897637795
21
1.6899441732283464
0
LINE
8
BLACK
6
CONTINUOUS
10
0.6381918897637795
20
1.6899441732283464
11
0.6343717716535433
21
1.6827972834645668
0
LINE
8
BLACK
6
CONTINUOUS
10
0.6343717716535433
20
1.6827972834645668
11
0.6292307874015748
21
1.6765329921259842
0
LINE
8
BLACK
6
CONTINUOUS
10
0.6292307874015748
20
1.6765329921259842
11
0.6229664960629921
21
1.6713920078740157
0
LINE
8
BLACK
6
CONTINUOUS
10
0.6229664960629921
20
1.6713920078740157
11
0.6158196062992126
21
1.6675718897637795
0
LINE
8
BLACK
6
CONTINUOUS
10
0.6158196062992126
20
1.6675718897637795
11
0.6080647637795276
21
1.6652194881889764
0
LINE
8
BLACK
6
CONTINUOUS
10
0.6080647637795276
20
1.6652194881889764
11
0.6
21
1.6644251968503936
0
LINE
8
BLACK
6
CONTINUOUS
10
0.6
20
1.6644251968503936
11
0.5919352362204724
21
1.6652194881889764
0
LINE
8
BLACK
6
CONTINUOUS
10
0.5919352362204724
20
1.6652194881889764
11
0.5841803937007873
21
1.6675718897637795
0
LINE
8
BLACK
6
CONTINUOUS
10
0.5841803937007873
20
1.6675718897637795
11
0.5770335039370078
21
1.6713920078740157
0
LINE
8
BLACK
6
CONTINUOUS
10
0.5770335039370078
20
1.6713920078740157
11
0.5707692125984252
21
1.6765329921259842
0
LINE
8
BLACK
6
CONTINUOUS
10
0.5707692125984252
20
1.6765329921259842
11
0.5656282283464567
21
1.6827972834645668
0
LINE
8
BLACK
6
CONTINUOUS
10
0.5656282283464567
20
1.6827972834645668
11
0.5618081102362205
21
1.6899441732283464
0
LINE
8
BLACK
6
CONTINUOUS
10
0.5618081102362205
20
1.6899441732283464
11
0.5594557086614174
21
1.6976990157480314
0
LINE
8
BLACK
6
CONTINUOUS
10
0.5594557086614174
20
1.6976990157480314
11
0.5586614173228346
21
1.7057637795275591
0
LINE
8
BLACK
6
CONTINUOUS
10
0.5586614173228346
20
1.7057637795275591
11
0.5594557086614174
21
1.7138285433070866
0
LINE
8
BLACK
6
CONTINUOUS
10
0.5594557086614174
20
1.7138285433070866
11
0.5618081102362205
21
1.7215833858267715
0
LINE
8
BLACK
6
CONTINUOUS
10
0.5618081102362205
20
1.7215833858267715
11
0.5656282283464567
21
1.7287302755905511
0
LINE
8
BLACK
6
CONTINUOUS
10
0.5656282283464567
20
1.7287302755905511
11
0.5707692125984252
21
1.7349945669291338
0
LINE
8
BLACK
6
CONTINUOUS
10
0.5707692125984252
20
1.7349945669291338
11
0.5770335039370078
21
1.7401355511811023
0
LINE
8
BLACK
6
CONTINUOUS
10
0.5770335039370078
20
1.7401355511811023
11
0.5841803937007873
21
1.7439556692913385
0
LINE
8
BLACK
6
CONTINUOUS
10
0.5841803937007873
20
1.7439556692913385
11
0.5919352362204724
21
1.7463080708661416
0
LINE
8
BLACK
6
CONTINUOUS
10
0.5919352362204724
20
1.7463080708661416
11
0.6
21
1.7471023622047244
0
LINE
8
BLACK
6
CONTINUOUS
10
0.6
20
1.7471023622047244
11
0.6080647637795276
21
1.7463080708661416
0
LINE
8
BLACK
6
CONTINUOUS
10
0.5631395669291338
20
1.6984317716535433
11
0.5652782283464567
21
1.6913815748031495
0
LINE
8
BLACK
6
CONTINUOUS
10
0.5652782283464567
20
1.6913815748031495
11
0.5687512598425196
21
1.6848840157480314
0
LINE
8
BLACK
6
CONTINUOUS
10
0.5687512598425196
20
1.6848840157480314
11
0.5734251181102362
21
1.6791888976377953
0
LINE
8
BLACK
6
CONTINUOUS
10
0.5734251181102362
20
1.6791888976377953
11
0.5791202362204724
21
1.6745150393700787
0
LINE
8
BLACK
6
CONTINUOUS
10
0.5791202362204724
20
1.6745150393700787
11
0.5856177952755905
21
1.6710420078740158
0
LINE
8
BLACK
6
CONTINUOUS
10
0.5856177952755905
20
1.6710420078740158
11
0.5926679921259842
21
1.6689033464566929
0
LINE
8
BLACK
6
CONTINUOUS
10
0.5926679921259842
20
1.6689033464566929
11
0.6
21
1.6681812204724409
0
LINE
8
BLACK
6
CONTINUOUS
10
0.6
20
1.6681812204724409
11
0.6073320078740158
21
1.6689033464566929
0
LINE
8
BLACK
6
CONTINUOUS
10
0.6073320078740158
20
1.6689033464566929
11
0.6143822047244094
21
1.6710420078740158
0
LINE
8
BLACK
6
CONTINUOUS
10
0.6143822047244094
20
1.6710420078740158
11
0.6208797637795276
21
1.6745150393700787
0
LINE
8
BLACK
6
CONTINUOUS
10
0.6208797637795276
20
1.6745150393700787
11
0.6265748818897637
21
1.6791888976377953
0
LINE
8
BLACK
6
CONTINUOUS
10
0.6265748818897637
20
1.6791888976377953
11
0.6312487401574803
21
1.6848840157480314
0
LINE
8
BLACK
6
CONTINUOUS
10
0.6312487401574803
20
1.6848840157480314
11
0.6347217716535433
21
1.6913815748031495
0
LINE
8
BLACK
6
CONTINUOUS
10
0.6347217716535433
20
1.6913815748031495
11
0.6368604330708661
21
1.6984317716535433
0
LINE
8
BLACK
6
CONTINUOUS
10
0.6368604330708661
20
1.6984317716535433
11
0.6375825590551181
21
1.7057637795275591
0
LINE
8
BLACK
6
CONTINUOUS
10
0.6375825590551181
20
1.7057637795275591
11
0.6368604330708661
21
1.7130957874015749
0
LINE
8
BLACK
6
CONTINUOUS
10
0.6368604330708661
20
1.7130957874015749
11
0.6347217716535433
21
1.7201459842519684
0
LINE
8
BLACK
6
CONTINUOUS
10
0.6347217716535433
20
1.7201459842519684
11
0.6312487401574803
21
1.7266435433070866
0
LINE
8
BLACK
6
CONTINUOUS
10
0.6312487401574803
20
1.7266435433070866
11
0.6265748818897637
21
1.7323386614173228
0
LINE
8
BLACK
6
CONTINUOUS
10
0.6265748818897637
20
1.7323386614173228
11
0.6208797637795276
21
1.7370125196850392
0
LINE
8
BLACK
6
CONTINUOUS
10
0.6208797637795276
20
1.7370125196850392
11
0.6143822047244094
21
1.7404855511811024
0
LINE
8
BLACK
6
CONTINUOUS
10
0.6143822047244094
20
1.7404855511811024
11
0.6073320078740158
21
1.7426242125984253
0
LINE
8
BLACK
6
CONTINUOUS
10
0.6073320078740158
20
1.7426242125984253
11
0.6
21
1.7433463385826771
0
LINE
8
BLACK
6
CONTINUOUS
10
0.6
20
1.7433463385826771
11
0.5926679921259842
21
1.7426242125984253
0
LINE
8
BLACK
6
CONTINUOUS
10
0.5926679921259842
20
1.7426242125984253
11
0.5856177952755905
21
1.7404855511811024
0
LINE
8
BLACK
6
CONTINUOUS
10
0.5856177952755905
20
1.7404855511811024
11
0.5791202362204724
21
1.7370125196850392
0
LINE
8
BLACK
6
CONTINUOUS
10
0.5791202362204724
20
1.7370125196850392
11
0.5734251181102362
21
1.7323386614173228
0
LINE
8
BLACK
6
CONTINUOUS
10
0.5734251181102362
20
1.7323386614173228
11
0.5687512598425196
21
1.7266435433070866
0
LINE
8
BLACK
6
CONTINUOUS
10
0.5687512598425196
20
1.7266435433070866
11
0.5652782283464567
21
1.7201459842519684
0
LINE
8
BLACK
6
CONTINUOUS
10
0.5652782283464567
20
1.7201459842519684
11
0.5631395669291338
21
1.7130957874015749
0
LINE
8
BLACK
6
CONTINUOUS
10
0.5631395669291338
20
1.7130957874015749
11
0.5624174409448819
21
1.7057637795275591
0
LINE
8
BLACK
6
CONTINUOUS
10
0.5624174409448819
20
1.7057637795275591
11
0.5631395669291338
21
1.6984317716535433
0
CIRCLE
8
BLACK
10
0.8000000393700787
20
1.5999999999999999
40
0.0068897637795276
0
CIRCLE
8
BLACK
10
0.8000000393700787
20
0.4
40
0.0068897637795276
0
CIRCLE
8
BLACK
10
0.4000000393700787
20
0.4
40
0.0068897637795276
0
CIRCLE
8
BLACK
10
0.6425196850393701
20
0.5499999999999999
40
0.0068897637795276
0
CIRCLE
8
BLACK
10
0.5425196850393701
20
0.5499999999999999
40
0.0068897637795276
0
CIRCLE
8
BLACK
10
0.6425196850393701
20
0.65
40
0.0068897637795276
0
CIRCLE
8
BLACK
10
0.5425196850393701
20
0.65
40
0.0068897637795276
0
CIRCLE
8
BLACK
10
0.6425196850393701
20
0.75
40
0.0068897637795276
0
CIRCLE
8
BLACK
10
0.5425196850393701
20
0.75
40
0.0068897637795276
0
CIRCLE
8
BLACK
10
0.6425196850393701
20
0.85
40
0.0068897637795276
0
CIRCLE
8
BLACK
10
0.5425196850393701
20
0.85
40
0.0068897637795276
0
CIRCLE
8
BLACK
10
0.6425196850393701
20
0.95
40
0.0068897637795276
0
CIRCLE
8
BLACK
10
0.5425196850393701
20
0.95
40
0.0068897637795276
0
CIRCLE
8
BLACK
10
0.6425196850393701
20
1.05
40
0.0068897637795276
0
CIRCLE
8
BLACK
10
0.5425196850393701
20
1.05
40
0.0068897637795276
0
CIRCLE
8
BLACK
10
0.6425196850393701
20
1.1499999999999999
40
0.0068897637795276
0
CIRCLE
8
BLACK
10
0.5425196850393701
20
1.1499999999999999
40
0.0068897637795276
0
CIRCLE
8
BLACK
10
0.6425196850393701
20
1.25
40
0.0068897637795276
0
CIRCLE
8
BLACK
10
0.5425196850393701
20
1.25
40
0.0068897637795276
0
CIRCLE
8
BLACK
10
0.6425196850393701
20
1.3499999999999999
40
0.0068897637795276
0
CIRCLE
8
BLACK
10
0.5425196850393701
20
1.3499999999999999
40
0.0068897637795276
0
CIRCLE
8
BLACK
10
0.6425196850393701
20
1.45
40
0.0068897637795276
0
CIRCLE
8
BLACK
10
0.5425196850393701
20
1.45
40
0.0068897637795276
0
CIRCLE
8
BLACK
10
0.4000000393700787
20
1.5999999999999999
40
0.0068897637795276
  0
ENDSEC
  0
EOF
