  0
SECTION
  2
HEADER
  9
$ANGBASE
  50
0.0
  9
$ANGDIR
  70
1
  9
$MEASUREMENT
  70
0
  0
ENDSEC
  0
SECTION
  2
TABLES
  0
TABLE
  2
LTYPE
  70
4
  0
LTYPE
  5
40F
  2
CONTINUOUS
  70
0
  3
Solid line
  72
65
  73
0
  40
0.0
  0
LTYPE
  5
410
  2
DASHDOT
 70
0
  3
Dash Dot ____ _ ____ _
 72
65
 73
4
 40
2.0
 49
1.25
 49
-0.25
 49
0.25
 49
-0.25
  0
LTYPE
  5
411
  2
DASHED
 70
0
  3
Dashed __ __ __ __ __
 72
65
 73
2
 40
0.75
 49
0.5
 49
-0.25
  0
LTYPE
  5
43B
  2
DOTTED
 70
0
  3
Dotted .  .  .  .
 72
65
 73
2
 40
0.2
 49
0.0
 49
-0.2
  0
ENDTAB
  0
TABLE
  2
STYLE
  70
4
  0
STYLE
  2
KICAD
  70
0
  40
0
  41
1
  42
1
  50
0
  71
0
  3
isocp.shx
  0
STYLE
  2
KICADB
  70
0
  40
0
  41
1
  42
1
  50
0
  71
0
  3
isocp.shx
  0
STYLE
  2
KICADI
  70
0
  40
0
  41
1
  42
1
  50
15
  71
0
  3
isocp.shx
  0
STYLE
  2
KICADBI
  70
0
  40
0
  41
1
  42
1
  50
15
  71
0
  3
isocp.shx
  0
ENDTAB
  0
TABLE
  2
LAYER
  70
1
  0
LAYER
  2
BLACK
  70
0
  62
7
  6
CONTINUOUS
  0
ENDTAB
  0
ENDSEC
  0
SECTION
  2
ENTITIES
0
LINE
8
BLACK
6
CONTINUOUS
10
0.4296800393700787
20
1.9796354330708661
11
0.4299724409448819
21
1.9796354330708661
0
LINE
8
BLACK
6
CONTINUOUS
10
0.4299724409448819
20
1.9796354330708661
11
0.43023968503937
21
1.9795247244094487
0
LINE
8
BLACK
6
CONTINUOUS
10
0.43023968503937
20
1.9795247244094487
11
0.4305235039370079
21
1.9794685826771654
0
LINE
8
BLACK
6
CONTINUOUS
10
0.4305235039370079
20
1.9794685826771654
11
0.4307667716535433
21
1.9793064173228345
0
LINE
8
BLACK
6
CONTINUOUS
10
0.4307667716535433
20
1.9793064173228345
11
0.4310368503937008
21
1.979194527559055
0
LINE
8
BLACK
6
CONTINUOUS
10
0.4310368503937008
20
1.979194527559055
11
0.4312412992125984
21
1.9789900787401575
0
LINE
8
BLACK
6
CONTINUOUS
10
0.4312412992125984
20
1.9789900787401575
11
0.431482125984252
21
1.9788295275590551
0
LINE
8
BLACK
6
CONTINUOUS
10
0.431482125984252
20
1.9788295275590551
11
0.431644842519685
21
1.9785865354330707
0
LINE
8
BLACK
6
CONTINUOUS
10
0.431644842519685
20
1.9785865354330707
11
0.4318514960629921
21
1.9783798818897638
0
LINE
8
BLACK
6
CONTINUOUS
10
0.4318514960629921
20
1.9783798818897638
11
0.4319621653543307
21
1.9781126771653543
0
LINE
8
BLACK
6
CONTINUOUS
10
0.4319621653543307
20
1.9781126771653543
11
0.432123188976378
21
1.9778722440944883
0
LINE
8
BLACK
6
CONTINUOUS
10
0.432123188976378
20
1.9778722440944883
11
0.4321805118110236
21
1.977585590551181
0
LINE
8
BLACK
6
CONTINUOUS
10
0.4321805118110236
20
1.977585590551181
11
0.4322924015748031
21
1.9773154724409447
0
LINE
8
BLACK
6
CONTINUOUS
10
0.4322924015748031
20
1.9773154724409447
11
0.4323485039370079
21
1.9767455511811023
0
LINE
8
BLACK
6
CONTINUOUS
10
0.4323485039370079
20
1.9767455511811023
11
0.4323491338582677
21
1.9767425196850392
0
LINE
8
BLACK
6
CONTINUOUS
10
0.4323491338582677
20
1.9767425196850392
11
0.4323488976377953
21
1.9767414960629921
0
LINE
8
BLACK
6
CONTINUOUS
10
0.4323488976377953
20
1.9767414960629921
11
0.4323491338582677
21
1.9767394094488189
0
LINE
8
BLACK
6
CONTINUOUS
10
0.4323491338582677
20
1.9767394094488189
11
0.4323491338582677
21
1.9403220866141733
0
LINE
8
BLACK
6
CONTINUOUS
10
0.4323491338582677
20
1.9403220866141733
11
0.4406449606299213
21
1.9403220866141733
0
LINE
8
BLACK
6
CONTINUOUS
10
0.4406449606299213
20
1.9403220866141733
11
0.4412210236220472
21
1.9402653543307087
0
LINE
8
BLACK
6
CONTINUOUS
10
0.4412210236220472
20
1.9402653543307087
11
0.4422854330708662
21
1.9398244488188976
0
LINE
8
BLACK
6
CONTINUOUS
10
0.4422854330708662
20
1.9398244488188976
11
0.4431000787401574
21
1.9390098031496064
0
LINE
8
BLACK
6
CONTINUOUS
10
0.4431000787401574
20
1.9390098031496064
11
0.4435409842519685
21
1.9379453937007873
0
LINE
8
BLACK
6
CONTINUOUS
10
0.4435409842519685
20
1.9379453937007873
11
0.4435409842519685
21
1.9367932677165354
0
LINE
8
BLACK
6
CONTINUOUS
10
0.4435409842519685
20
1.9367932677165354
11
0.4431114960629921
21
1.9357565354330708
0
LINE
8
BLACK
6
CONTINUOUS
10
0.4431114960629921
20
1.9357565354330708
11
0.4435243307086614
21
1.9359222440944881
0
LINE
8
BLACK
6
CONTINUOUS
10
0.4435243307086614
20
1.9359222440944881
11
0.4446720472440945
21
1.9360226377952756
0
LINE
8
BLACK
6
CONTINUOUS
10
0.4446720472440945
20
1.9360226377952756
11
0.4457708267716535
21
1.9356761811023622
0
LINE
8
BLACK
6
CONTINUOUS
10
0.4457708267716535
20
1.9356761811023622
11
0.4466533858267717
21
1.9349356299212599
0
LINE
8
BLACK
6
CONTINUOUS
10
0.4466533858267717
20
1.9349356299212599
11
0.4471853937007874
21
1.9339137007874014
0
LINE
8
BLACK
6
CONTINUOUS
10
0.4471853937007874
20
1.9339137007874014
11
0.4472857874015748
21
1.9327659842519684
0
LINE
8
BLACK
6
CONTINUOUS
10
0.4472857874015748
20
1.9327659842519684
11
0.4469393307086614
21
1.9316672047244094
0
LINE
8
BLACK
6
CONTINUOUS
10
0.4469393307086614
20
1.9316672047244094
11
0.446198779527559
21
1.9307846456692912
0
LINE
8
BLACK
6
CONTINUOUS
10
0.446198779527559
20
1.9307846456692912
11
0.4457140157480315
21
1.9304683070866142
0
LINE
8
BLACK
6
CONTINUOUS
10
0.4457140157480315
20
1.9304683070866142
11
0.412066968503937
21
1.9129527559055117
0
LINE
8
BLACK
6
CONTINUOUS
10
0.412066968503937
20
1.9129527559055117
11
0.7879331102362205
21
1.9129527559055117
0
LINE
8
BLACK
6
CONTINUOUS
10
0.7879331102362205
20
1.9129527559055117
11
0.754286062992126
21
1.9304683070866142
0
LINE
8
BLACK
6
CONTINUOUS
10
0.754286062992126
20
1.9304683070866142
11
0.7538012598425197
21
1.9307846456692912
0
LINE
8
BLACK
6
CONTINUOUS
10
0.7538012598425197
20
1.9307846456692912
11
0.7530607086614173
21
1.9316672047244094
0
LINE
8
BLACK
6
CONTINUOUS
10
0.7530607086614173
20
1.9316672047244094
11
0.7527142913385827
21
1.9327659842519684
0
LINE
8
BLACK
6
CONTINUOUS
10
0.7527142913385827
20
1.9327659842519684
11
0.7528146850393701
21
1.9339137007874014
0
LINE
8
BLACK
6
CONTINUOUS
10
0.7528146850393701
20
1.9339137007874014
11
0.7533466929133859
21
1.9349356692913386
0
LINE
8
BLACK
6
CONTINUOUS
10
0.7533466929133859
20
1.9349356692913386
11
0.7542292519685039
21
1.9356762204724409
0
LINE
8
BLACK
6
CONTINUOUS
10
0.7542292519685039
20
1.9356762204724409
11
0.755328031496063
21
1.9360226377952756
0
LINE
8
BLACK
6
CONTINUOUS
10
0.755328031496063
20
1.9360226377952756
11
0.7564757480314961
21
1.9359222440944881
0
LINE
8
BLACK
6
CONTINUOUS
10
0.7564757480314961
20
1.9359222440944881
11
0.7570129133858268
21
1.9357065748031497
0
LINE
8
BLACK
6
CONTINUOUS
10
0.7570129133858268
20
1.9357065748031497
11
0.7970472834645669
21
1.9148660236220472
0
LINE
8
BLACK
6
CONTINUOUS
10
0.7970472834645669
20
1.9148660236220472
11
0.7970472834645669
21
1.9330874015748032
0
LINE
8
BLACK
6
CONTINUOUS
10
0.7970472834645669
20
1.9330874015748032
11
0.7971040157480315
21
1.9336634645669291
0
LINE
8
BLACK
6
CONTINUOUS
10
0.7971040157480315
20
1.9336634645669291
11
0.7975449212598426
21
1.9347278740157481
0
LINE
8
BLACK
6
CONTINUOUS
10
0.7975449212598426
20
1.9347278740157481
11
0.7983595669291338
21
1.9355425196850393
0
LINE
8
BLACK
6
CONTINUOUS
10
0.7983595669291338
20
1.9355425196850393
11
0.7994239763779527
21
1.9359834251968504
0
LINE
8
BLACK
6
CONTINUOUS
10
0.7994239763779527
20
1.9359834251968504
11
0.8005761023622047
21
1.9359834251968504
0
LINE
8
BLACK
6
CONTINUOUS
10
0.8005761023622047
20
1.9359834251968504
11
0.8016405118110236
21
1.9355425196850393
0
LINE
8
BLACK
6
CONTINUOUS
10
0.8016405118110236
20
1.9355425196850393
11
0.8024551574803149
21
1.9347278740157481
0
LINE
8
BLACK
6
CONTINUOUS
10
0.8024551574803149
20
1.9347278740157481
11
0.802896062992126
21
1.9336634645669291
0
LINE
8
BLACK
6
CONTINUOUS
10
0.802896062992126
20
1.9336634645669291
11
0.8029527952755905
21
1.9330874015748032
0
LINE
8
BLACK
6
CONTINUOUS
10
0.8029527952755905
20
1.9330874015748032
11
0.8029527952755905
21
1.6196850393700788
0
LINE
8
BLACK
6
CONTINUOUS
10
0.8029527952755905
20
1.6196850393700788
11
0.802896062992126
21
1.6191089763779527
0
LINE
8
BLACK
6
CONTINUOUS
10
0.802896062992126
20
1.6191089763779527
11
0.8024551574803149
21
1.6180445669291339
0
LINE
8
BLACK
6
CONTINUOUS
10
0.8024551574803149
20
1.6180445669291339
11
0.8016405118110236
21
1.6172299212598424
0
LINE
8
BLACK
6
CONTINUOUS
10
0.8016405118110236
20
1.6172299212598424
11
0.8005761023622047
21
1.6167890157480314
0
LINE
8
BLACK
6
CONTINUOUS
10
0.8005761023622047
20
1.6167890157480314
11
0.7994239763779527
21
1.6167890157480314
0
LINE
8
BLACK
6
CONTINUOUS
10
0.7994239763779527
20
1.6167890157480314
11
0.7983595669291338
21
1.6172299212598424
0
LINE
8
BLACK
6
CONTINUOUS
10
0.7983595669291338
20
1.6172299212598424
11
0.7975449212598426
21
1.6180445669291339
0
LINE
8
BLACK
6
CONTINUOUS
10
0.7975449212598426
20
1.6180445669291339
11
0.7971040157480315
21
1.6191089763779527
0
LINE
8
BLACK
6
CONTINUOUS
10
0.7971040157480315
20
1.6191089763779527
11
0.7970472834645669
21
1.6196850393700788
0
LINE
8
BLACK
6
CONTINUOUS
10
0.7970472834645669
20
1.6196850393700788
11
0.7970472834645669
21
1.9051340157480314
0
LINE
8
BLACK
6
CONTINUOUS
10
0.7970472834645669
20
1.9051340157480314
11
0.7570129133858268
21
1.8842934251968504
0
LINE
8
BLACK
6
CONTINUOUS
10
0.7570129133858268
20
1.8842934251968504
11
0.7564757480314961
21
1.8840777559055117
0
LINE
8
BLACK
6
CONTINUOUS
10
0.7564757480314961
20
1.8840777559055117
11
0.755328031496063
21
1.8839773622047244
0
LINE
8
BLACK
6
CONTINUOUS
10
0.755328031496063
20
1.8839773622047244
11
0.7542292519685039
21
1.8843237795275589
0
LINE
8
BLACK
6
CONTINUOUS
10
0.7542292519685039
20
1.8843237795275589
11
0.7533466929133859
21
1.8850643307086614
0
LINE
8
BLACK
6
CONTINUOUS
10
0.7533466929133859
20
1.8850643307086614
11
0.7528146850393701
21
1.8860862992125984
0
LINE
8
BLACK
6
CONTINUOUS
10
0.7528146850393701
20
1.8860862992125984
11
0.7527142913385827
21
1.8872340157480314
0
LINE
8
BLACK
6
CONTINUOUS
10
0.7527142913385827
20
1.8872340157480314
11
0.7530607086614173
21
1.8883327952755906
0
LINE
8
BLACK
6
CONTINUOUS
10
0.7530607086614173
20
1.8883327952755906
11
0.7538012598425197
21
1.8892153543307086
0
LINE
8
BLACK
6
CONTINUOUS
10
0.7538012598425197
20
1.8892153543307086
11
0.754286062992126
21
1.8895316929133859
0
LINE
8
BLACK
6
CONTINUOUS
10
0.754286062992126
20
1.8895316929133859
11
0.7879331102362205
21
1.9070472440944881
0
LINE
8
BLACK
6
CONTINUOUS
10
0.7879331102362205
20
1.9070472440944881
11
0.412066968503937
21
1.9070472440944881
0
LINE
8
BLACK
6
CONTINUOUS
10
0.412066968503937
20
1.9070472440944881
11
0.4457140157480315
21
1.8895316929133859
0
LINE
8
BLACK
6
CONTINUOUS
10
0.4457140157480315
20
1.8895316929133859
11
0.446198779527559
21
1.8892153543307086
0
LINE
8
BLACK
6
CONTINUOUS
10
0.446198779527559
20
1.8892153543307086
11
0.4469393307086614
21
1.8883327952755906
0
LINE
8
BLACK
6
CONTINUOUS
10
0.4469393307086614
20
1.8883327952755906
11
0.4472857874015748
21
1.8872340157480314
0
LINE
8
BLACK
6
CONTINUOUS
10
0.4472857874015748
20
1.8872340157480314
11
0.4471853937007874
21
1.8860862992125984
0
LINE
8
BLACK
6
CONTINUOUS
10
0.4471853937007874
20
1.8860862992125984
11
0.4466533858267717
21
1.8850643700787402
0
LINE
8
BLACK
6
CONTINUOUS
10
0.4466533858267717
20
1.8850643700787402
11
0.4457708267716535
21
1.8843238188976377
0
LINE
8
BLACK
6
CONTINUOUS
10
0.4457708267716535
20
1.8843238188976377
11
0.4446720472440945
21
1.8839773622047244
0
LINE
8
BLACK
6
CONTINUOUS
10
0.4446720472440945
20
1.8839773622047244
11
0.4435243307086614
21
1.8840777559055117
0
LINE
8
BLACK
6
CONTINUOUS
10
0.4435243307086614
20
1.8840777559055117
11
0.4429871653543307
21
1.8842934251968504
0
LINE
8
BLACK
6
CONTINUOUS
10
0.4429871653543307
20
1.8842934251968504
11
0.4029527952755905
21
1.9051340157480314
0
LINE
8
BLACK
6
CONTINUOUS
10
0.4029527952755905
20
1.9051340157480314
11
0.4029527952755905
21
1.6196850393700788
0
LINE
8
BLACK
6
CONTINUOUS
10
0.4029527952755905
20
1.6196850393700788
11
0.402896062992126
21
1.6191089763779527
0
LINE
8
BLACK
6
CONTINUOUS
10
0.402896062992126
20
1.6191089763779527
11
0.402455157480315
21
1.6180445669291339
0
LINE
8
BLACK
6
CONTINUOUS
10
0.402455157480315
20
1.6180445669291339
11
0.4016405118110236
21
1.6172299212598424
0
LINE
8
BLACK
6
CONTINUOUS
10
0.4016405118110236
20
1.6172299212598424
11
0.4005761023622047
21
1.6167890157480314
0
LINE
8
BLACK
6
CONTINUOUS
10
0.4005761023622047
20
1.6167890157480314
11
0.3994239763779527
21
1.6167890157480314
0
LINE
8
BLACK
6
CONTINUOUS
10
0.3994239763779527
20
1.6167890157480314
11
0.3983595669291338
21
1.6172299212598424
0
LINE
8
BLACK
6
CONTINUOUS
10
0.3983595669291338
20
1.6172299212598424
11
0.3975449212598425
21
1.6180445669291339
0
LINE
8
BLACK
6
CONTINUOUS
10
0.3975449212598425
20
1.6180445669291339
11
0.3971040157480315
21
1.6191089763779527
0
LINE
8
BLACK
6
CONTINUOUS
10
0.3971040157480315
20
1.6191089763779527
11
0.3970472834645669
21
1.6196850393700788
0
LINE
8
BLACK
6
CONTINUOUS
10
0.3970472834645669
20
1.6196850393700788
11
0.3970472834645669
21
1.9330874015748032
0
LINE
8
BLACK
6
CONTINUOUS
10
0.3970472834645669
20
1.9330874015748032
11
0.3971040157480315
21
1.9336634645669291
0
LINE
8
BLACK
6
CONTINUOUS
10
0.3971040157480315
20
1.9336634645669291
11
0.3975449212598425
21
1.9347278740157481
0
LINE
8
BLACK
6
CONTINUOUS
10
0.3975449212598425
20
1.9347278740157481
11
0.3983595669291338
21
1.9355425196850393
0
LINE
8
BLACK
6
CONTINUOUS
10
0.3983595669291338
20
1.9355425196850393
11
0.3994239763779527
21
1.9359834251968504
0
LINE
8
BLACK
6
CONTINUOUS
10
0.3994239763779527
20
1.9359834251968504
11
0.4005761023622047
21
1.9359834251968504
0
LINE
8
BLACK
6
CONTINUOUS
10
0.4005761023622047
20
1.9359834251968504
11
0.4016405118110236
21
1.9355425196850393
0
LINE
8
BLACK
6
CONTINUOUS
10
0.4016405118110236
20
1.9355425196850393
11
0.402455157480315
21
1.9347278740157481
0
LINE
8
BLACK
6
CONTINUOUS
10
0.402455157480315
20
1.9347278740157481
11
0.402896062992126
21
1.9336634645669291
0
LINE
8
BLACK
6
CONTINUOUS
10
0.402896062992126
20
1.9336634645669291
11
0.4029527952755905
21
1.9330874015748032
0
LINE
8
BLACK
6
CONTINUOUS
10
0.4029527952755905
20
1.9330874015748032
11
0.4029527952755905
21
1.9148660236220472
0
LINE
8
BLACK
6
CONTINUOUS
10
0.4029527952755905
20
1.9148660236220472
11
0.440509094488189
21
1.9344165748031497
0
LINE
8
BLACK
6
CONTINUOUS
10
0.440509094488189
20
1.9344165748031497
11
0.4181477952755905
21
1.9344165748031497
0
LINE
8
BLACK
6
CONTINUOUS
10
0.4181477952755905
20
1.9344165748031497
11
0.4175717322834646
21
1.934473307086614
0
LINE
8
BLACK
6
CONTINUOUS
10
0.4175717322834646
20
1.934473307086614
11
0.4165073228346456
21
1.9349142125984251
0
LINE
8
BLACK
6
CONTINUOUS
10
0.4165073228346456
20
1.9349142125984251
11
0.4156926771653543
21
1.9357288582677166
0
LINE
8
BLACK
6
CONTINUOUS
10
0.4156926771653543
20
1.9357288582677166
11
0.4152517716535433
21
1.9367932677165354
0
LINE
8
BLACK
6
CONTINUOUS
10
0.4152517716535433
20
1.9367932677165354
11
0.4152517716535433
21
1.9379453937007873
0
LINE
8
BLACK
6
CONTINUOUS
10
0.4152517716535433
20
1.9379453937007873
11
0.4156926771653543
21
1.9390098031496064
0
LINE
8
BLACK
6
CONTINUOUS
10
0.4156926771653543
20
1.9390098031496064
11
0.4165073228346456
21
1.9398244488188976
0
LINE
8
BLACK
6
CONTINUOUS
10
0.4165073228346456
20
1.9398244488188976
11
0.4175717322834646
21
1.9402653543307087
0
LINE
8
BLACK
6
CONTINUOUS
10
0.4175717322834646
20
1.9402653543307087
11
0.4181477952755905
21
1.9403220866141733
0
LINE
8
BLACK
6
CONTINUOUS
10
0.4181477952755905
20
1.9403220866141733
11
0.4264436220472441
21
1.9403220866141733
0
LINE
8
BLACK
6
CONTINUOUS
10
0.4264436220472441
20
1.9403220866141733
11
0.4264436220472441
21
1.9677360629921259
0
LINE
8
BLACK
6
CONTINUOUS
10
0.4264436220472441
20
1.9677360629921259
11
0.4239852362204724
21
1.9652776771653542
0
LINE
8
BLACK
6
CONTINUOUS
10
0.4239852362204724
20
1.9652776771653542
11
0.4237588582677165
21
1.9650919291338582
0
LINE
8
BLACK
6
CONTINUOUS
10
0.4237588582677165
20
1.9650919291338582
11
0.423707716535433
21
1.9650329133858266
0
LINE
8
BLACK
6
CONTINUOUS
10
0.423707716535433
20
1.9650329133858266
11
0.4236187401574803
21
1.9649769685039369
0
LINE
8
BLACK
6
CONTINUOUS
10
0.4236187401574803
20
1.9649769685039369
11
0.4235377952755905
21
1.9649104724409447
0
LINE
8
BLACK
6
CONTINUOUS
10
0.4235377952755905
20
1.9649104724409447
11
0.4234658267716535
21
1.9648806692913385
0
LINE
8
BLACK
6
CONTINUOUS
10
0.4234658267716535
20
1.9648806692913385
11
0.4232178346456693
21
1.9647245669291338
0
LINE
8
BLACK
6
CONTINUOUS
10
0.4232178346456693
20
1.9647245669291338
11
0.4194683070866141
21
1.9628498031496062
0
LINE
8
BLACK
6
CONTINUOUS
10
0.4194683070866141
20
1.9628498031496062
11
0.4189276771653543
21
1.9626429133858267
0
LINE
8
BLACK
6
CONTINUOUS
10
0.4189276771653543
20
1.9626429133858267
11
0.4177784645669291
21
1.9625612598425197
0
LINE
8
BLACK
6
CONTINUOUS
10
0.4177784645669291
20
1.9625612598425197
11
0.4166855118110236
21
1.9629255905511811
0
LINE
8
BLACK
6
CONTINUOUS
10
0.4166855118110236
20
1.9629255905511811
11
0.4158151181102362
21
1.9636804330708661
0
LINE
8
BLACK
6
CONTINUOUS
10
0.4158151181102362
20
1.9636804330708661
11
0.4152998818897637
21
1.9647109448818898
0
LINE
8
BLACK
6
CONTINUOUS
10
0.4152998818897637
20
1.9647109448818898
11
0.4152182283464567
21
1.965860157480315
0
LINE
8
BLACK
6
CONTINUOUS
10
0.4152182283464567
20
1.965860157480315
11
0.4155825590551181
21
1.9669531102362203
0
LINE
8
BLACK
6
CONTINUOUS
10
0.4155825590551181
20
1.9669531102362203
11
0.4163374015748031
21
1.9678235039370078
0
LINE
8
BLACK
6
CONTINUOUS
10
0.4163374015748031
20
1.9678235039370078
11
0.4168272834645669
21
1.9681318503937006
0
LINE
8
BLACK
6
CONTINUOUS
10
0.4168272834645669
20
1.9681318503937006
11
0.4201482283464567
21
1.9697923228346457
0
LINE
8
BLACK
6
CONTINUOUS
10
0.4201482283464567
20
1.9697923228346457
11
0.423352125984252
21
1.9729962204724409
0
LINE
8
BLACK
6
CONTINUOUS
10
0.423352125984252
20
1.9729962204724409
11
0.4269395275590551
21
1.9783773228346457
0
LINE
8
BLACK
6
CONTINUOUS
10
0.4269395275590551
20
1.9783773228346457
11
0.4269408661417323
21
1.9783790157480314
0
LINE
8
BLACK
6
CONTINUOUS
10
0.4269408661417323
20
1.9783790157480314
11
0.4269412598425197
21
1.9783798818897638
0
LINE
8
BLACK
6
CONTINUOUS
10
0.4269412598425197
20
1.9783798818897638
11
0.4269432677165354
21
1.9783819291338582
0
LINE
8
BLACK
6
CONTINUOUS
10
0.4269432677165354
20
1.9783819291338582
11
0.4273062992125984
21
1.9788251574803148
0
LINE
8
BLACK
6
CONTINUOUS
10
0.4273062992125984
20
1.9788251574803148
11
0.4275491732283465
21
1.9789878346456693
0
LINE
8
BLACK
6
CONTINUOUS
10
0.4275491732283465
20
1.9789878346456693
11
0.427755905511811
21
1.979194527559055
0
LINE
8
BLACK
6
CONTINUOUS
10
0.427755905511811
20
1.979194527559055
11
0.4280231889763779
21
1.9793052755905511
0
LINE
8
BLACK
6
CONTINUOUS
10
0.4280231889763779
20
1.9793052755905511
11
0.4282635826771654
21
1.9794662204724409
0
LINE
8
BLACK
6
CONTINUOUS
10
0.4282635826771654
20
1.9794662204724409
11
0.4285501968503937
21
1.9795235826771653
0
LINE
8
BLACK
6
CONTINUOUS
10
0.4285501968503937
20
1.9795235826771653
11
0.4288203149606299
21
1.9796354330708661
0
LINE
8
BLACK
6
CONTINUOUS
10
0.4288203149606299
20
1.9796354330708661
11
0.4291096062992126
21
1.9796354330708661
0
LINE
8
BLACK
6
CONTINUOUS
10
0.4291096062992126
20
1.9796354330708661
11
0.4293932677165354
21
1.9796921653543307
0
LINE
8
BLACK
6
CONTINUOUS
10
0.4293932677165354
20
1.9796921653543307
11
0.4296800393700787
21
1.9796354330708661
0
LINE
8
BLACK
6
CONTINUOUS
10
0.4693425196850394
20
1.9796354330708661
11
0.4694405118110236
21
1.979594842519685
0
LINE
8
BLACK
6
CONTINUOUS
10
0.4694405118110236
20
1.979594842519685
11
0.4695463385826771
21
1.9795873228346457
0
LINE
8
BLACK
6
CONTINUOUS
10
0.4695463385826771
20
1.9795873228346457
11
0.470086968503937
21
1.9793804330708662
0
LINE
8
BLACK
6
CONTINUOUS
10
0.470086968503937
20
1.9793804330708662
11
0.4738364960629921
21
1.9775056692913386
0
LINE
8
BLACK
6
CONTINUOUS
10
0.4738364960629921
20
1.9775056692913386
11
0.4740844881889764
21
1.9773496062992126
0
LINE
8
BLACK
6
CONTINUOUS
10
0.4740844881889764
20
1.9773496062992126
11
0.4741564566929134
21
1.9773197637795275
0
LINE
8
BLACK
6
CONTINUOUS
10
0.4741564566929134
20
1.9773197637795275
11
0.4742374015748032
21
1.9772533070866141
0
LINE
8
BLACK
6
CONTINUOUS
10
0.4742374015748032
20
1.9772533070866141
11
0.4743263779527559
21
1.9771973228346456
0
LINE
8
BLACK
6
CONTINUOUS
10
0.4743263779527559
20
1.9771973228346456
11
0.4743775196850394
21
1.977138346456693
0
LINE
8
BLACK
6
CONTINUOUS
10
0.4743775196850394
20
1.977138346456693
11
0.4746038976377953
21
1.976952559055118
0
LINE
8
BLACK
6
CONTINUOUS
10
0.4746038976377953
20
1.976952559055118
11
0.4764786614173228
21
1.9750777952755905
0
LINE
8
BLACK
6
CONTINUOUS
10
0.4764786614173228
20
1.9750777952755905
11
0.4766644094488189
21
1.9748514566929134
0
LINE
8
BLACK
6
CONTINUOUS
10
0.4766644094488189
20
1.9748514566929134
11
0.4767234251968504
21
1.9748002755905512
0
LINE
8
BLACK
6
CONTINUOUS
10
0.4767234251968504
20
1.9748002755905512
11
0.4767793700787402
21
1.9747113385826771
0
LINE
8
BLACK
6
CONTINUOUS
10
0.4767793700787402
20
1.9747113385826771
11
0.4768458661417323
21
1.9746303543307087
0
LINE
8
BLACK
6
CONTINUOUS
10
0.4768458661417323
20
1.9746303543307087
11
0.4768756692913386
21
1.9745584251968504
0
LINE
8
BLACK
6
CONTINUOUS
10
0.4768756692913386
20
1.9745584251968504
11
0.4770317716535433
21
1.9743103937007873
0
LINE
8
BLACK
6
CONTINUOUS
10
0.4770317716535433
20
1.9743103937007873
11
0.4789065354330709
21
1.9705608661417322
0
LINE
8
BLACK
6
CONTINUOUS
10
0.4789065354330709
20
1.9705608661417322
11
0.4789226377952756
21
1.9705187795275589
0
LINE
8
BLACK
6
CONTINUOUS
10
0.4789226377952756
20
1.9705187795275589
11
0.4789353543307087
21
1.9705016141732283
0
LINE
8
BLACK
6
CONTINUOUS
10
0.4789353543307087
20
1.9705016141732283
11
0.4790216535433071
21
1.9702600393700787
0
LINE
8
BLACK
6
CONTINUOUS
10
0.4790216535433071
20
1.9702600393700787
11
0.4791134251968504
21
1.9700202755905512
0
LINE
8
BLACK
6
CONTINUOUS
10
0.4791134251968504
20
1.9700202755905512
11
0.4791149212598425
21
1.9699990157480314
0
LINE
8
BLACK
6
CONTINUOUS
10
0.4791149212598425
20
1.9699990157480314
11
0.4791301181102362
21
1.9699564960629921
0
LINE
8
BLACK
6
CONTINUOUS
10
0.4791301181102362
20
1.9699564960629921
11
0.4810048818897638
21
1.9624574409448818
0
LINE
8
BLACK
6
CONTINUOUS
10
0.4810048818897638
20
1.9624574409448818
11
0.4810196456692913
21
1.9623575984251969
0
LINE
8
BLACK
6
CONTINUOUS
10
0.4810196456692913
20
1.9623575984251969
11
0.4810362992125984
21
1.9623173622047243
0
LINE
8
BLACK
6
CONTINUOUS
10
0.4810362992125984
20
1.9623173622047243
11
0.4810576377952756
21
1.9621003543307085
0
LINE
8
BLACK
6
CONTINUOUS
10
0.4810576377952756
20
1.9621003543307085
11
0.4810895275590551
21
1.9618848425196851
0
LINE
8
BLACK
6
CONTINUOUS
10
0.4810895275590551
20
1.9618848425196851
11
0.4810831102362205
21
1.9618418503937007
0
LINE
8
BLACK
6
CONTINUOUS
10
0.4810831102362205
20
1.9618418503937007
11
0.481093031496063
21
1.9617412992125984
0
LINE
8
BLACK
6
CONTINUOUS
10
0.481093031496063
20
1.9617412992125984
11
0.481093031496063
21
1.9523674803149607
0
LINE
8
BLACK
6
CONTINUOUS
10
0.481093031496063
20
1.9523674803149607
11
0.4810831102362205
21
1.9522669685039369
0
LINE
8
BLACK
6
CONTINUOUS
10
0.4810831102362205
20
1.9522669685039369
11
0.4810895275590551
21
1.952223937007874
0
LINE
8
BLACK
6
CONTINUOUS
10
0.4810895275590551
20
1.952223937007874
11
0.4810576377952756
21
1.9520084645669291
0
LINE
8
BLACK
6
CONTINUOUS
10
0.4810576377952756
20
1.9520084645669291
11
0.4810362992125984
21
1.9517914173228346
0
LINE
8
BLACK
6
CONTINUOUS
10
0.4810362992125984
20
1.9517914173228346
11
0.4810196456692913
21
1.951751220472441
0
LINE
8
BLACK
6
CONTINUOUS
10
0.4810196456692913
20
1.951751220472441
11
0.4810048818897638
21
1.951651338582677
0
LINE
8
BLACK
6
CONTINUOUS
10
0.4810048818897638
20
1.951651338582677
11
0.4791301181102362
21
1.9441522834645668
0
LINE
8
BLACK
6
CONTINUOUS
10
0.4791301181102362
20
1.9441522834645668
11
0.4791149212598425
21
1.9441098031496062
0
LINE
8
BLACK
6
CONTINUOUS
10
0.4791149212598425
20
1.9441098031496062
11
0.4791134251968504
21
1.9440885039370079
0
LINE
8
BLACK
6
CONTINUOUS
10
0.4791134251968504
20
1.9440885039370079
11
0.4790216535433071
21
1.943848779527559
0
LINE
8
BLACK
6
CONTINUOUS
10
0.4790216535433071
20
1.943848779527559
11
0.4789353543307087
21
1.9436071653543308
0
LINE
8
BLACK
6
CONTINUOUS
10
0.4789353543307087
20
1.9436071653543308
11
0.4789226377952756
21
1.9435900393700787
0
LINE
8
BLACK
6
CONTINUOUS
10
0.4789226377952756
20
1.9435900393700787
11
0.4789065354330709
21
1.9435479133858267
0
LINE
8
BLACK
6
CONTINUOUS
10
0.4789065354330709
20
1.9435479133858267
11
0.4770317716535433
21
1.9397983858267716
0
LINE
8
BLACK
6
CONTINUOUS
10
0.4770317716535433
20
1.9397983858267716
11
0.4768757086614173
21
1.9395505118110237
0
LINE
8
BLACK
6
CONTINUOUS
10
0.4768757086614173
20
1.9395505118110237
11
0.476845905511811
21
1.9394784645669292
0
LINE
8
BLACK
6
CONTINUOUS
10
0.476845905511811
20
1.9394784645669292
11
0.4767793700787402
21
1.9393974409448818
0
LINE
8
BLACK
6
CONTINUOUS
10
0.4767793700787402
20
1.9393974409448818
11
0.4767234251968504
21
1.9393085039370079
0
LINE
8
BLACK
6
CONTINUOUS
10
0.4767234251968504
20
1.9393085039370079
11
0.4766644094488189
21
1.9392573622047244
0
LINE
8
BLACK
6
CONTINUOUS
10
0.4766644094488189
20
1.9392573622047244
11
0.4764786614173228
21
1.9390309842519684
0
LINE
8
BLACK
6
CONTINUOUS
10
0.4764786614173228
20
1.9390309842519684
11
0.474603937007874
21
1.9371562204724408
0
LINE
8
BLACK
6
CONTINUOUS
10
0.474603937007874
20
1.9371562204724408
11
0.4743775590551181
21
1.9369704724409449
0
LINE
8
BLACK
6
CONTINUOUS
10
0.4743775590551181
20
1.9369704724409449
11
0.4743263779527559
21
1.9369114173228346
0
LINE
8
BLACK
6
CONTINUOUS
10
0.4743263779527559
20
1.9369114173228346
11
0.4742374015748032
21
1.9368554330708661
0
LINE
8
BLACK
6
CONTINUOUS
10
0.4742374015748032
20
1.9368554330708661
11
0.4741564566929134
21
1.9367889763779527
0
LINE
8
BLACK
6
CONTINUOUS
10
0.4741564566929134
20
1.9367889763779527
11
0.4740844881889764
21
1.9367591732283465
0
LINE
8
BLACK
6
CONTINUOUS
10
0.4740844881889764
20
1.9367591732283465
11
0.4738364960629921
21
1.9366030708661417
0
LINE
8
BLACK
6
CONTINUOUS
10
0.4738364960629921
20
1.9366030708661417
11
0.470086968503937
21
1.9347283070866141
0
LINE
8
BLACK
6
CONTINUOUS
10
0.470086968503937
20
1.9347283070866141
11
0.4695463385826771
21
1.9345214173228347
0
LINE
8
BLACK
6
CONTINUOUS
10
0.4695463385826771
20
1.9345214173228347
11
0.4694405118110236
21
1.9345139370078739
0
LINE
8
BLACK
6
CONTINUOUS
10
0.4694405118110236
20
1.9345139370078739
11
0.4693425196850394
21
1.934473307086614
0
LINE
8
BLACK
6
CONTINUOUS
10
0.4693425196850394
20
1.934473307086614
11
0.4687664566929134
21
1.9344165748031497
0
LINE
8
BLACK
6
CONTINUOUS
10
0.4687664566929134
20
1.9344165748031497
11
0.4650169291338583
21
1.9344165748031497
0
LINE
8
BLACK
6
CONTINUOUS
10
0.4650169291338583
20
1.9344165748031497
11
0.4644408661417323
21
1.934473307086614
0
LINE
8
BLACK
6
CONTINUOUS
10
0.4644408661417323
20
1.934473307086614
11
0.464342874015748
21
1.9345138976377951
0
LINE
8
BLACK
6
CONTINUOUS
10
0.464342874015748
20
1.9345138976377951
11
0.4642370078740157
21
1.9345214173228347
0
LINE
8
BLACK
6
CONTINUOUS
10
0.4642370078740157
20
1.9345214173228347
11
0.4636964173228346
21
1.9347283070866141
0
LINE
8
BLACK
6
CONTINUOUS
10
0.4636964173228346
20
1.9347283070866141
11
0.4599468897637795
21
1.9366030708661417
0
LINE
8
BLACK
6
CONTINUOUS
10
0.4599468897637795
20
1.9366030708661417
11
0.4596988582677165
21
1.9367591732283465
0
LINE
8
BLACK
6
CONTINUOUS
10
0.4596988582677165
20
1.9367591732283465
11
0.4596269291338583
21
1.9367889763779527
0
LINE
8
BLACK
6
CONTINUOUS
10
0.4596269291338583
20
1.9367889763779527
11
0.4595459448818898
21
1.9368554330708661
0
LINE
8
BLACK
6
CONTINUOUS
10
0.4595459448818898
20
1.9368554330708661
11
0.4594570078740157
21
1.9369114173228346
0
LINE
8
BLACK
6
CONTINUOUS
10
0.4594570078740157
20
1.9369114173228346
11
0.4594057874015748
21
1.9369704724409449
0
LINE
8
BLACK
6
CONTINUOUS
10
0.4594057874015748
20
1.9369704724409449
11
0.4591794488188976
21
1.9371562204724408
0
LINE
8
BLACK
6
CONTINUOUS
10
0.4591794488188976
20
1.9371562204724408
11
0.4573046850393701
21
1.9390310236220472
0
LINE
8
BLACK
6
CONTINUOUS
10
0.4573046850393701
20
1.9390310236220472
11
0.457118937007874
21
1.9392573622047244
0
LINE
8
BLACK
6
CONTINUOUS
10
0.457118937007874
20
1.9392573622047244
11
0.4570599606299213
21
1.9393085039370079
0
LINE
8
BLACK
6
CONTINUOUS
10
0.4570599606299213
20
1.9393085039370079
11
0.4570039763779528
21
1.9393974409448818
0
LINE
8
BLACK
6
CONTINUOUS
10
0.4570039763779528
20
1.9393974409448818
11
0.4569374803149606
21
1.9394784645669292
0
LINE
8
BLACK
6
CONTINUOUS
10
0.4569374803149606
20
1.9394784645669292
11
0.4569076377952756
21
1.9395505118110237
0
LINE
8
BLACK
6
CONTINUOUS
10
0.4569076377952756
20
1.9395505118110237
11
0.4567516141732283
21
1.9397983858267716
0
LINE
8
BLACK
6
CONTINUOUS
10
0.4567516141732283
20
1.9397983858267716
11
0.4548768503937008
21
1.9435479133858267
0
LINE
8
BLACK
6
CONTINUOUS
10
0.4548768503937008
20
1.9435479133858267
11
0.4548607086614173
21
1.9435900393700787
0
LINE
8
BLACK
6
CONTINUOUS
10
0.4548607086614173
20
1.9435900393700787
11
0.454848031496063
21
1.9436071653543308
0
LINE
8
BLACK
6
CONTINUOUS
10
0.454848031496063
20
1.9436071653543308
11
0.4547615748031496
21
1.9438491338582677
0
LINE
8
BLACK
6
CONTINUOUS
10
0.4547615748031496
20
1.9438491338582677
11
0.4546699606299213
21
1.9440885433070865
0
LINE
8
BLACK
6
CONTINUOUS
10
0.4546699606299213
20
1.9440885433070865
11
0.4546684251968504
21
1.9441098031496062
0
LINE
8
BLACK
6
CONTINUOUS
10
0.4546684251968504
20
1.9441098031496062
11
0.4546532677165354
21
1.9441522834645668
0
LINE
8
BLACK
6
CONTINUOUS
10
0.4546532677165354
20
1.9441522834645668
11
0.4527785039370079
21
1.951651338582677
0
LINE
8
BLACK
6
CONTINUOUS
10
0.4527785039370079
20
1.951651338582677
11
0.4527637007874016
21
1.951751220472441
0
LINE
8
BLACK
6
CONTINUOUS
10
0.4527637007874016
20
1.951751220472441
11
0.4527470866141732
21
1.9517914173228346
0
LINE
8
BLACK
6
CONTINUOUS
10
0.4527470866141732
20
1.9517914173228346
11
0.4527257086614173
21
1.9520084645669291
0
LINE
8
BLACK
6
CONTINUOUS
10
0.4527257086614173
20
1.9520084645669291
11
0.4526938582677165
21
1.952223937007874
0
LINE
8
BLACK
6
CONTINUOUS
10
0.4526938582677165
20
1.952223937007874
11
0.4527002362204725
21
1.9522669685039369
0
LINE
8
BLACK
6
CONTINUOUS
10
0.4527002362204725
20
1.9522669685039369
11
0.4526903543307086
21
1.9523674803149607
0
LINE
8
BLACK
6
CONTINUOUS
10
0.4526903543307086
20
1.9523674803149607
11
0.4526903543307086
21
1.9617412992125984
0
LINE
8
BLACK
6
CONTINUOUS
10
0.4526903543307086
20
1.9617412992125984
11
0.4527002362204725
21
1.9618418503937007
0
LINE
8
BLACK
6
CONTINUOUS
10
0.4527002362204725
20
1.9618418503937007
11
0.4526938582677165
21
1.9618848425196851
0
LINE
8
BLACK
6
CONTINUOUS
10
0.4526938582677165
20
1.9618848425196851
11
0.4527257086614173
21
1.9621003543307085
0
LINE
8
BLACK
6
CONTINUOUS
10
0.4527257086614173
20
1.9621003543307085
11
0.4527470866141732
21
1.9623173622047243
0
LINE
8
BLACK
6
CONTINUOUS
10
0.4527470866141732
20
1.9623173622047243
11
0.4527637007874016
21
1.9623575984251969
0
LINE
8
BLACK
6
CONTINUOUS
10
0.4527637007874016
20
1.9623575984251969
11
0.4527785039370079
21
1.9624574409448818
0
LINE
8
BLACK
6
CONTINUOUS
10
0.4527785039370079
20
1.9624574409448818
11
0.4546532677165354
21
1.9699564960629921
0
LINE
8
BLACK
6
CONTINUOUS
10
0.4546532677165354
20
1.9699564960629921
11
0.4546684251968504
21
1.9699990157480314
0
LINE
8
BLACK
6
CONTINUOUS
10
0.4546684251968504
20
1.9699990157480314
11
0.4546699606299213
21
1.9700202362204724
0
LINE
8
BLACK
6
CONTINUOUS
10
0.4546699606299213
20
1.9700202362204724
11
0.4547615748031496
21
1.9702596850393701
0
LINE
8
BLACK
6
CONTINUOUS
10
0.4547615748031496
20
1.9702596850393701
11
0.454848031496063
21
1.9705016141732283
0
LINE
8
BLACK
6
CONTINUOUS
10
0.454848031496063
20
1.9705016141732283
11
0.4548607086614173
21
1.9705187795275589
0
LINE
8
BLACK
6
CONTINUOUS
10
0.4548607086614173
20
1.9705187795275589
11
0.4548768503937008
21
1.9705608661417322
0
LINE
8
BLACK
6
CONTINUOUS
10
0.4548768503937008
20
1.9705608661417322
11
0.4567516141732283
21
1.9743103937007873
0
LINE
8
BLACK
6
CONTINUOUS
10
0.4567516141732283
20
1.9743103937007873
11
0.4569076771653543
21
1.9745584251968504
0
LINE
8
BLACK
6
CONTINUOUS
10
0.4569076771653543
20
1.9745584251968504
11
0.4569375196850394
21
1.9746303543307087
0
LINE
8
BLACK
6
CONTINUOUS
10
0.4569375196850394
20
1.9746303543307087
11
0.4570039763779528
21
1.9747113385826771
0
LINE
8
BLACK
6
CONTINUOUS
10
0.4570039763779528
20
1.9747113385826771
11
0.4570599606299213
21
1.9748002755905512
0
LINE
8
BLACK
6
CONTINUOUS
10
0.4570599606299213
20
1.9748002755905512
11
0.457118937007874
21
1.9748514566929134
0
LINE
8
BLACK
6
CONTINUOUS
10
0.457118937007874
20
1.9748514566929134
11
0.4573047244094488
21
1.9750777952755905
0
LINE
8
BLACK
6
CONTINUOUS
10
0.4573047244094488
20
1.9750777952755905
11
0.4591794881889764
21
1.976952559055118
0
LINE
8
BLACK
6
CONTINUOUS
10
0.4591794881889764
20
1.976952559055118
11
0.4594058267716535
21
1.977138346456693
0
LINE
8
BLACK
6
CONTINUOUS
10
0.4594058267716535
20
1.977138346456693
11
0.4594570078740157
21
1.9771973228346456
0
LINE
8
BLACK
6
CONTINUOUS
10
0.4594570078740157
20
1.9771973228346456
11
0.4595459448818898
21
1.9772533070866141
0
LINE
8
BLACK
6
CONTINUOUS
10
0.4595459448818898
20
1.9772533070866141
11
0.4596269291338583
21
1.9773197637795275
0
LINE
8
BLACK
6
CONTINUOUS
10
0.4596269291338583
20
1.9773197637795275
11
0.4596988582677165
21
1.9773496062992126
0
LINE
8
BLACK
6
CONTINUOUS
10
0.4596988582677165
20
1.9773496062992126
11
0.4599468897637795
21
1.9775056692913386
0
LINE
8
BLACK
6
CONTINUOUS
10
0.4599468897637795
20
1.9775056692913386
11
0.4636964173228346
21
1.9793804330708662
0
LINE
8
BLACK
6
CONTINUOUS
10
0.4636964173228346
20
1.9793804330708662
11
0.4642370078740157
21
1.9795873228346457
0
LINE
8
BLACK
6
CONTINUOUS
10
0.4642370078740157
20
1.9795873228346457
11
0.464342874015748
21
1.9795948818897637
0
LINE
8
BLACK
6
CONTINUOUS
10
0.464342874015748
20
1.9795948818897637
11
0.4644408661417323
21
1.9796354330708661
0
LINE
8
BLACK
6
CONTINUOUS
10
0.4644408661417323
20
1.9796354330708661
11
0.4650169291338583
21
1.9796921653543307
0
LINE
8
BLACK
6
CONTINUOUS
10
0.4650169291338583
20
1.9796921653543307
11
0.4687664566929134
21
1.9796921653543307
0
LINE
8
BLACK
6
CONTINUOUS
10
0.4687664566929134
20
1.9796921653543307
11
0.4693425196850394
21
1.9796354330708661
0
LINE
8
BLACK
6
CONTINUOUS
10
0.4630164960629921
20
1.9724379133858267
11
0.4618193700787401
21
1.9712407874015747
0
LINE
8
BLACK
6
CONTINUOUS
10
0.4618193700787401
20
1.9712407874015747
11
0.4603038582677165
21
1.9682098031496063
0
LINE
8
BLACK
6
CONTINUOUS
10
0.4603038582677165
20
1.9682098031496063
11
0.4585958661417323
21
1.9613777559055117
0
LINE
8
BLACK
6
CONTINUOUS
10
0.4585958661417323
20
1.9613777559055117
11
0.4585958661417323
21
1.9527310236220472
0
LINE
8
BLACK
6
CONTINUOUS
10
0.4585958661417323
20
1.9527310236220472
11
0.4603038582677165
21
1.9458989763779526
0
LINE
8
BLACK
6
CONTINUOUS
10
0.4603038582677165
20
1.9458989763779526
11
0.4618193700787401
21
1.9428679921259842
0
LINE
8
BLACK
6
CONTINUOUS
10
0.4618193700787401
20
1.9428679921259842
11
0.4630164960629921
21
1.9416708267716536
0
LINE
8
BLACK
6
CONTINUOUS
10
0.4630164960629921
20
1.9416708267716536
11
0.4657139763779528
21
1.9403220866141733
0
LINE
8
BLACK
6
CONTINUOUS
10
0.4657139763779528
20
1.9403220866141733
11
0.4680694094488189
21
1.9403220866141733
0
LINE
8
BLACK
6
CONTINUOUS
10
0.4680694094488189
20
1.9403220866141733
11
0.4707668503937008
21
1.9416708267716536
0
LINE
8
BLACK
6
CONTINUOUS
10
0.4707668503937008
20
1.9416708267716536
11
0.4719639763779527
21
1.9428679921259842
0
LINE
8
BLACK
6
CONTINUOUS
10
0.4719639763779527
20
1.9428679921259842
11
0.4734794881889764
21
1.9458989763779526
0
LINE
8
BLACK
6
CONTINUOUS
10
0.4734794881889764
20
1.9458989763779526
11
0.4751875196850394
21
1.9527310236220472
0
LINE
8
BLACK
6
CONTINUOUS
10
0.4751875196850394
20
1.9527310236220472
11
0.4751875196850394
21
1.9613777559055117
0
LINE
8
BLACK
6
CONTINUOUS
10
0.4751875196850394
20
1.9613777559055117
11
0.4734794881889764
21
1.9682098031496063
0
LINE
8
BLACK
6
CONTINUOUS
10
0.4734794881889764
20
1.9682098031496063
11
0.4719640157480315
21
1.9712407874015747
0
LINE
8
BLACK
6
CONTINUOUS
10
0.4719640157480315
20
1.9712407874015747
11
0.4707668897637795
21
1.9724379133858267
0
LINE
8
BLACK
6
CONTINUOUS
10
0.4707668897637795
20
1.9724379133858267
11
0.4680694094488189
21
1.9737866535433071
0
LINE
8
BLACK
6
CONTINUOUS
10
0.4680694094488189
20
1.9737866535433071
11
0.4657139763779528
21
1.9737866535433071
0
LINE
8
BLACK
6
CONTINUOUS
10
0.4657139763779528
20
1.9737866535433071
11
0.4630164960629921
21
1.9724379133858267
0
LINE
8
BLACK
6
CONTINUOUS
10
0.5234183070866142
20
1.9796354330708661
11
0.5237107086614173
21
1.9796354330708661
0
LINE
8
BLACK
6
CONTINUOUS
10
0.5237107086614173
20
1.9796354330708661
11
0.5239779527559055
21
1.9795247244094487
0
LINE
8
BLACK
6
CONTINUOUS
10
0.5239779527559055
20
1.9795247244094487
11
0.5242617716535433
21
1.9794685826771654
0
LINE
8
BLACK
6
CONTINUOUS
10
0.5242617716535433
20
1.9794685826771654
11
0.5245050393700788
21
1.9793064173228345
0
LINE
8
BLACK
6
CONTINUOUS
10
0.5245050393700788
20
1.9793064173228345
11
0.5247751181102362
21
1.979194527559055
0
LINE
8
BLACK
6
CONTINUOUS
10
0.5247751181102362
20
1.979194527559055
11
0.5249795669291338
21
1.9789900787401575
0
LINE
8
BLACK
6
CONTINUOUS
10
0.5249795669291338
20
1.9789900787401575
11
0.5252203937007874
21
1.9788295275590551
0
LINE
8
BLACK
6
CONTINUOUS
10
0.5252203937007874
20
1.9788295275590551
11
0.5253831102362204
21
1.9785865354330707
0
LINE
8
BLACK
6
CONTINUOUS
10
0.5253831102362204
20
1.9785865354330707
11
0.5255897637795276
21
1.9783798818897638
0
LINE
8
BLACK
6
CONTINUOUS
10
0.5255897637795276
20
1.9783798818897638
11
0.5257004330708661
21
1.9781126771653543
0
LINE
8
BLACK
6
CONTINUOUS
10
0.5257004330708661
20
1.9781126771653543
11
0.5258614566929134
21
1.9778722440944883
0
LINE
8
BLACK
6
CONTINUOUS
10
0.5258614566929134
20
1.9778722440944883
11
0.5259187795275591
21
1.977585590551181
0
LINE
8
BLACK
6
CONTINUOUS
10
0.5259187795275591
20
1.977585590551181
11
0.5260306692913386
21
1.9773154724409447
0
LINE
8
BLACK
6
CONTINUOUS
10
0.5260306692913386
20
1.9773154724409447
11
0.5260867716535433
21
1.9767455511811023
0
LINE
8
BLACK
6
CONTINUOUS
10
0.5260867716535433
20
1.9767455511811023
11
0.5260874015748032
21
1.9767425196850392
0
LINE
8
BLACK
6
CONTINUOUS
10
0.5260874015748032
20
1.9767425196850392
11
0.5260871653543306
21
1.9767414960629921
0
LINE
8
BLACK
6
CONTINUOUS
10
0.5260871653543306
20
1.9767414960629921
11
0.5260874015748032
21
1.9767394094488189
0
LINE
8
BLACK
6
CONTINUOUS
10
0.5260874015748032
20
1.9767394094488189
11
0.5260874015748032
21
1.9403220866141733
0
LINE
8
BLACK
6
CONTINUOUS
10
0.5260874015748032
20
1.9403220866141733
11
0.5343832283464567
21
1.9403220866141733
0
LINE
8
BLACK
6
CONTINUOUS
10
0.5343832283464567
20
1.9403220866141733
11
0.5349592913385827
21
1.9402653543307087
0
LINE
8
BLACK
6
CONTINUOUS
10
0.5349592913385827
20
1.9402653543307087
11
0.5360237007874016
21
1.9398244488188976
0
LINE
8
BLACK
6
CONTINUOUS
10
0.5360237007874016
20
1.9398244488188976
11
0.5368383464566929
21
1.9390098031496064
0
LINE
8
BLACK
6
CONTINUOUS
10
0.5368383464566929
20
1.9390098031496064
11
0.5372792519685039
21
1.9379453937007873
0
LINE
8
BLACK
6
CONTINUOUS
10
0.5372792519685039
20
1.9379453937007873
11
0.5372792519685039
21
1.9367932677165354
0
LINE
8
BLACK
6
CONTINUOUS
10
0.5372792519685039
20
1.9367932677165354
11
0.5368383464566929
21
1.9357288582677166
0
LINE
8
BLACK
6
CONTINUOUS
10
0.5368383464566929
20
1.9357288582677166
11
0.5360237007874016
21
1.9349142125984251
0
LINE
8
BLACK
6
CONTINUOUS
10
0.5360237007874016
20
1.9349142125984251
11
0.5349592913385827
21
1.934473307086614
0
LINE
8
BLACK
6
CONTINUOUS
10
0.5349592913385827
20
1.934473307086614
11
0.5343832283464567
21
1.9344165748031497
0
LINE
8
BLACK
6
CONTINUOUS
10
0.5343832283464567
20
1.9344165748031497
11
0.511886062992126
21
1.9344165748031497
0
LINE
8
BLACK
6
CONTINUOUS
10
0.511886062992126
20
1.9344165748031497
11
0.51131
21
1.934473307086614
0
LINE
8
BLACK
6
CONTINUOUS
10
0.51131
20
1.934473307086614
11
0.5102455905511811
21
1.9349142125984251
0
LINE
8
BLACK
6
CONTINUOUS
10
0.5102455905511811
20
1.9349142125984251
11
0.5094309448818898
21
1.9357288582677166
0
LINE
8
BLACK
6
CONTINUOUS
10
0.5094309448818898
20
1.9357288582677166
11
0.5089900393700787
21
1.9367932677165354
0
LINE
8
BLACK
6
CONTINUOUS
10
0.5089900393700787
20
1.9367932677165354
11
0.5089900393700787
21
1.9379453937007873
0
LINE
8
BLACK
6
CONTINUOUS
10
0.5089900393700787
20
1.9379453937007873
11
0.5094309448818898
21
1.9390098031496064
0
LINE
8
BLACK
6
CONTINUOUS
10
0.5094309448818898
20
1.9390098031496064
11
0.5102455905511811
21
1.9398244488188976
0
LINE
8
BLACK
6
CONTINUOUS
10
0.5102455905511811
20
1.9398244488188976
11
0.51131
21
1.9402653543307087
0
LINE
8
BLACK
6
CONTINUOUS
10
0.51131
20
1.9402653543307087
11
0.511886062992126
21
1.9403220866141733
0
LINE
8
BLACK
6
CONTINUOUS
10
0.511886062992126
20
1.9403220866141733
11
0.5201818897637795
21
1.9403220866141733
0
LINE
8
BLACK
6
CONTINUOUS
10
0.5201818897637795
20
1.9403220866141733
11
0.5201818897637795
21
1.9677360629921259
0
LINE
8
BLACK
6
CONTINUOUS
10
0.5201818897637795
20
1.9677360629921259
11
0.5177235039370078
21
1.9652776771653542
0
LINE
8
BLACK
6
CONTINUOUS
10
0.5177235039370078
20
1.9652776771653542
11
0.5174971259842519
21
1.9650919291338582
0
LINE
8
BLACK
6
CONTINUOUS
10
0.5174971259842519
20
1.9650919291338582
11
0.5174459842519685
21
1.9650329133858266
0
LINE
8
BLACK
6
CONTINUOUS
10
0.5174459842519685
20
1.9650329133858266
11
0.5173570078740157
21
1.9649769685039369
0
LINE
8
BLACK
6
CONTINUOUS
10
0.5173570078740157
20
1.9649769685039369
11
0.5172760629921259
21
1.9649104724409447
0
LINE
8
BLACK
6
CONTINUOUS
10
0.5172760629921259
20
1.9649104724409447
11
0.5172040944881889
21
1.9648806692913385
0
LINE
8
BLACK
6
CONTINUOUS
10
0.5172040944881889
20
1.9648806692913385
11
0.5169561023622047
21
1.9647245669291338
0
LINE
8
BLACK
6
CONTINUOUS
10
0.5169561023622047
20
1.9647245669291338
11
0.5132065748031496
21
1.9628498031496062
0
LINE
8
BLACK
6
CONTINUOUS
10
0.5132065748031496
20
1.9628498031496062
11
0.5126659448818898
21
1.9626429133858267
0
LINE
8
BLACK
6
CONTINUOUS
10
0.5126659448818898
20
1.9626429133858267
11
0.5115167322834645
21
1.9625612598425197
0
LINE
8
BLACK
6
CONTINUOUS
10
0.5115167322834645
20
1.9625612598425197
11
0.510423779527559
21
1.9629255905511811
0
LINE
8
BLACK
6
CONTINUOUS
10
0.510423779527559
20
1.9629255905511811
11
0.5095533858267717
21
1.9636804330708661
0
LINE
8
BLACK
6
CONTINUOUS
10
0.5095533858267717
20
1.9636804330708661
11
0.5090381496062992
21
1.9647109448818898
0
LINE
8
BLACK
6
CONTINUOUS
10
0.5090381496062992
20
1.9647109448818898
11
0.5089564960629921
21
1.965860157480315
0
LINE
8
BLACK
6
CONTINUOUS
10
0.5089564960629921
20
1.965860157480315
11
0.5093208267716536
21
1.9669531102362203
0
LINE
8
BLACK
6
CONTINUOUS
10
0.5093208267716536
20
1.9669531102362203
11
0.5100756692913385
21
1.9678235039370078
0
LINE
8
BLACK
6
CONTINUOUS
10
0.5100756692913385
20
1.9678235039370078
11
0.5105655511811024
21
1.9681318503937006
0
LINE
8
BLACK
6
CONTINUOUS
10
0.5105655511811024
20
1.9681318503937006
11
0.5138864960629921
21
1.9697923228346457
0
LINE
8
BLACK
6
CONTINUOUS
10
0.5138864960629921
20
1.9697923228346457
11
0.5170903937007874
21
1.9729962204724409
0
LINE
8
BLACK
6
CONTINUOUS
10
0.5170903937007874
20
1.9729962204724409
11
0.5206777952755905
21
1.9783773228346457
0
LINE
8
BLACK
6
CONTINUOUS
10
0.5206777952755905
20
1.9783773228346457
11
0.5206791338582677
21
1.9783790157480314
0
LINE
8
BLACK
6
CONTINUOUS
10
0.5206791338582677
20
1.9783790157480314
11
0.5206795275590551
21
1.9783798818897638
0
LINE
8
BLACK
6
CONTINUOUS
10
0.5206795275590551
20
1.9783798818897638
11
0.5206815354330708
21
1.9783819291338582
0
LINE
8
BLACK
6
CONTINUOUS
10
0.5206815354330708
20
1.9783819291338582
11
0.5210445669291338
21
1.9788251574803148
0
LINE
8
BLACK
6
CONTINUOUS
10
0.5210445669291338
20
1.9788251574803148
11
0.5212874409448819
21
1.9789878346456693
0
LINE
8
BLACK
6
CONTINUOUS
10
0.5212874409448819
20
1.9789878346456693
11
0.5214941732283465
21
1.979194527559055
0
LINE
8
BLACK
6
CONTINUOUS
10
0.5214941732283465
20
1.979194527559055
11
0.5217614566929134
21
1.9793052755905511
0
LINE
8
BLACK
6
CONTINUOUS
10
0.5217614566929134
20
1.9793052755905511
11
0.5220018503937007
21
1.9794662204724409
0
LINE
8
BLACK
6
CONTINUOUS
10
0.5220018503937007
20
1.9794662204724409
11
0.5222884645669291
21
1.9795235826771653
0
LINE
8
BLACK
6
CONTINUOUS
10
0.5222884645669291
20
1.9795235826771653
11
0.5225585826771654
21
1.9796354330708661
0
LINE
8
BLACK
6
CONTINUOUS
10
0.5225585826771654
20
1.9796354330708661
11
0.5228478740157481
21
1.9796354330708661
0
LINE
8
BLACK
6
CONTINUOUS
10
0.5228478740157481
20
1.9796354330708661
11
0.5231315354330709
21
1.9796921653543307
0
LINE
8
BLACK
6
CONTINUOUS
10
0.5231315354330709
20
1.9796921653543307
11
0.5234183070866142
21
1.9796354330708661
0
LINE
8
BLACK
6
CONTINUOUS
10
0.5687050787401575
20
1.9796354330708661
11
0.5697694881889763
21
1.979194527559055
0
LINE
8
BLACK
6
CONTINUOUS
10
0.5697694881889763
20
1.979194527559055
11
0.5705841338582677
21
1.9783798818897638
0
LINE
8
BLACK
6
CONTINUOUS
10
0.5705841338582677
20
1.9783798818897638
11
0.5710250393700788
21
1.9773154724409447
0
LINE
8
BLACK
6
CONTINUOUS
10
0.5710250393700788
20
1.9773154724409447
11
0.5710250393700788
21
1.9761633464566928
0
LINE
8
BLACK
6
CONTINUOUS
10
0.5710250393700788
20
1.9761633464566928
11
0.5705841338582677
21
1.975098937007874
0
LINE
8
BLACK
6
CONTINUOUS
10
0.5705841338582677
20
1.975098937007874
11
0.5697694881889763
21
1.9742842913385827
0
LINE
8
BLACK
6
CONTINUOUS
10
0.5697694881889763
20
1.9742842913385827
11
0.5687050787401575
21
1.9738433858267717
0
LINE
8
BLACK
6
CONTINUOUS
10
0.5687050787401575
20
1.9738433858267717
11
0.5681290157480314
21
1.9737866535433071
0
LINE
8
BLACK
6
CONTINUOUS
10
0.5681290157480314
20
1.9737866535433071
11
0.5613270078740157
21
1.9737866535433071
0
LINE
8
BLACK
6
CONTINUOUS
10
0.5613270078740157
20
1.9737866535433071
11
0.5586295275590552
21
1.9724379133858267
0
LINE
8
BLACK
6
CONTINUOUS
10
0.5586295275590552
20
1.9724379133858267
11
0.5573003149606299
21
1.9711087401574803
0
LINE
8
BLACK
6
CONTINUOUS
10
0.5573003149606299
20
1.9711087401574803
11
0.5539966929133858
21
1.9661532677165354
0
LINE
8
BLACK
6
CONTINUOUS
10
0.5539966929133858
20
1.9661532677165354
11
0.5532674015748031
21
1.9632360629921259
0
LINE
8
BLACK
6
CONTINUOUS
10
0.5532674015748031
20
1.9632360629921259
11
0.5555599212598425
21
1.9643823228346455
0
LINE
8
BLACK
6
CONTINUOUS
10
0.5555599212598425
20
1.9643823228346455
11
0.5561005118110236
21
1.9645892125984252
0
LINE
8
BLACK
6
CONTINUOUS
10
0.5561005118110236
20
1.9645892125984252
11
0.5562063779527558
21
1.9645967716535433
0
LINE
8
BLACK
6
CONTINUOUS
10
0.5562063779527558
20
1.9645967716535433
11
0.5563043700787401
21
1.9646373228346456
0
LINE
8
BLACK
6
CONTINUOUS
10
0.5563043700787401
20
1.9646373228346456
11
0.5568804330708661
21
1.9646940551181102
0
LINE
8
BLACK
6
CONTINUOUS
10
0.5568804330708661
20
1.9646940551181102
11
0.5643794881889763
21
1.9646940551181102
0
LINE
8
BLACK
6
CONTINUOUS
10
0.5643794881889763
20
1.9646940551181102
11
0.5649555511811023
21
1.9646373228346456
0
LINE
8
BLACK
6
CONTINUOUS
10
0.5649555511811023
20
1.9646373228346456
11
0.5650535433070866
21
1.9645967322834645
0
LINE
8
BLACK
6
CONTINUOUS
10
0.5650535433070866
20
1.9645967322834645
11
0.5651593700787402
21
1.9645892125984252
0
LINE
8
BLACK
6
CONTINUOUS
10
0.5651593700787402
20
1.9645892125984252
11
0.5657
21
1.9643823228346455
0
LINE
8
BLACK
6
CONTINUOUS
10
0.5657
20
1.9643823228346455
11
0.5694495275590551
21
1.962507559055118
0
LINE
8
BLACK
6
CONTINUOUS
10
0.5694495275590551
20
1.962507559055118
11
0.5696975196850393
21
1.962351496062992
0
LINE
8
BLACK
6
CONTINUOUS
10
0.5696975196850393
20
1.962351496062992
11
0.5697694881889763
21
1.962321653543307
0
LINE
8
BLACK
6
CONTINUOUS
10
0.5697694881889763
20
1.962321653543307
11
0.5698504330708661
21
1.9622551968503936
0
LINE
8
BLACK
6
CONTINUOUS
10
0.5698504330708661
20
1.9622551968503936
11
0.5699394094488189
21
1.9621992125984251
0
LINE
8
BLACK
6
CONTINUOUS
10
0.5699394094488189
20
1.9621992125984251
11
0.5699905511811023
21
1.9621402362204723
0
LINE
8
BLACK
6
CONTINUOUS
10
0.5699905511811023
20
1.9621402362204723
11
0.5702169291338582
21
1.9619544488188976
0
LINE
8
BLACK
6
CONTINUOUS
10
0.5702169291338582
20
1.9619544488188976
11
0.5720916929133858
21
1.96007968503937
0
LINE
8
BLACK
6
CONTINUOUS
10
0.5720916929133858
20
1.96007968503937
11
0.5722774409448819
21
1.959853346456693
0
LINE
8
BLACK
6
CONTINUOUS
10
0.5722774409448819
20
1.959853346456693
11
0.5723364566929133
21
1.9598021653543307
0
LINE
8
BLACK
6
CONTINUOUS
10
0.5723364566929133
20
1.9598021653543307
11
0.5723924015748031
21
1.9597132283464567
0
LINE
8
BLACK
6
CONTINUOUS
10
0.5723924015748031
20
1.9597132283464567
11
0.5724588976377952
21
1.9596322440944882
0
LINE
8
BLACK
6
CONTINUOUS
10
0.5724588976377952
20
1.9596322440944882
11
0.5724887007874015
21
1.9595603149606298
0
LINE
8
BLACK
6
CONTINUOUS
10
0.5724887007874015
20
1.9595603149606298
11
0.5726448031496063
21
1.9593122834645669
0
LINE
8
BLACK
6
CONTINUOUS
10
0.5726448031496063
20
1.9593122834645669
11
0.5745195669291339
21
1.9555627559055118
0
LINE
8
BLACK
6
CONTINUOUS
10
0.5745195669291339
20
1.9555627559055118
11
0.5747264566929133
21
1.9550221653543307
0
LINE
8
BLACK
6
CONTINUOUS
10
0.5747264566929133
20
1.9550221653543307
11
0.5747339763779528
21
1.9549162992125984
0
LINE
8
BLACK
6
CONTINUOUS
10
0.5747339763779528
20
1.9549162992125984
11
0.5747745669291339
21
1.9548183070866141
0
LINE
8
BLACK
6
CONTINUOUS
10
0.5747745669291339
20
1.9548183070866141
11
0.5748312992125985
21
1.9542422440944882
0
LINE
8
BLACK
6
CONTINUOUS
10
0.5748312992125985
20
1.9542422440944882
11
0.5748312992125985
21
1.9448684251968504
0
LINE
8
BLACK
6
CONTINUOUS
10
0.5748312992125985
20
1.9448684251968504
11
0.5747745669291339
21
1.9442923622047243
0
LINE
8
BLACK
6
CONTINUOUS
10
0.5747745669291339
20
1.9442923622047243
11
0.5747339763779528
21
1.9441944094488188
0
LINE
8
BLACK
6
CONTINUOUS
10
0.5747339763779528
20
1.9441944094488188
11
0.5747264566929133
21
1.9440885039370079
0
LINE
8
BLACK
6
CONTINUOUS
10
0.5747264566929133
20
1.9440885039370079
11
0.5745195669291339
21
1.9435479133858267
0
LINE
8
BLACK
6
CONTINUOUS
10
0.5745195669291339
20
1.9435479133858267
11
0.5726448031496063
21
1.9397983858267716
0
LINE
8
BLACK
6
CONTINUOUS
10
0.5726448031496063
20
1.9397983858267716
11
0.5724887401574803
21
1.9395505118110237
0
LINE
8
BLACK
6
CONTINUOUS
10
0.5724887401574803
20
1.9395505118110237
11
0.572458937007874
21
1.9394784645669292
0
LINE
8
BLACK
6
CONTINUOUS
10
0.572458937007874
20
1.9394784645669292
11
0.5723924015748031
21
1.9393974409448818
0
LINE
8
BLACK
6
CONTINUOUS
10
0.5723924015748031
20
1.9393974409448818
11
0.5723364566929133
21
1.9393085039370079
0
LINE
8
BLACK
6
CONTINUOUS
10
0.5723364566929133
20
1.9393085039370079
11
0.5722774409448819
21
1.9392573622047244
0
LINE
8
BLACK
6
CONTINUOUS
10
0.5722774409448819
20
1.9392573622047244
11
0.5720916929133858
21
1.9390309842519684
0
LINE
8
BLACK
6
CONTINUOUS
10
0.5720916929133858
20
1.9390309842519684
11
0.570216968503937
21
1.9371562204724408
0
LINE
8
BLACK
6
CONTINUOUS
10
0.570216968503937
20
1.9371562204724408
11
0.5699905905511811
21
1.9369704724409449
0
LINE
8
BLACK
6
CONTINUOUS
10
0.5699905905511811
20
1.9369704724409449
11
0.5699394094488189
21
1.9369114173228346
0
LINE
8
BLACK
6
CONTINUOUS
10
0.5699394094488189
20
1.9369114173228346
11
0.5698504330708661
21
1.9368554330708661
0
LINE
8
BLACK
6
CONTINUOUS
10
0.5698504330708661
20
1.9368554330708661
11
0.5697694881889763
21
1.9367889763779527
0
LINE
8
BLACK
6
CONTINUOUS
10
0.5697694881889763
20
1.9367889763779527
11
0.5696975196850393
21
1.9367591732283465
0
LINE
8
BLACK
6
CONTINUOUS
10
0.5696975196850393
20
1.9367591732283465
11
0.5694495275590551
21
1.9366030708661417
0
LINE
8
BLACK
6
CONTINUOUS
10
0.5694495275590551
20
1.9366030708661417
11
0.5657
21
1.9347283070866141
0
LINE
8
BLACK
6
CONTINUOUS
10
0.5657
20
1.9347283070866141
11
0.5651593700787402
21
1.9345214173228347
0
LINE
8
BLACK
6
CONTINUOUS
10
0.5651593700787402
20
1.9345214173228347
11
0.5650535433070866
21
1.9345139370078739
0
LINE
8
BLACK
6
CONTINUOUS
10
0.5650535433070866
20
1.9345139370078739
11
0.5649555511811023
21
1.934473307086614
0
LINE
8
BLACK
6
CONTINUOUS
10
0.5649555511811023
20
1.934473307086614
11
0.5643794881889763
21
1.9344165748031497
0
LINE
8
BLACK
6
CONTINUOUS
10
0.5643794881889763
20
1.9344165748031497
11
0.5568804330708661
21
1.9344165748031497
0
LINE
8
BLACK
6
CONTINUOUS
10
0.5568804330708661
20
1.9344165748031497
11
0.5563043700787401
21
1.934473307086614
0
LINE
8
BLACK
6
CONTINUOUS
10
0.5563043700787401
20
1.934473307086614
11
0.5562063779527558
21
1.9345138976377951
0
LINE
8
BLACK
6
CONTINUOUS
10
0.5562063779527558
20
1.9345138976377951
11
0.5561005118110236
21
1.9345214173228347
0
LINE
8
BLACK
6
CONTINUOUS
10
0.5561005118110236
20
1.9345214173228347
11
0.5555599212598425
21
1.9347283070866141
0
LINE
8
BLACK
6
CONTINUOUS
10
0.5555599212598425
20
1.9347283070866141
11
0.5518103937007874
21
1.9366030708661417
0
LINE
8
BLACK
6
CONTINUOUS
10
0.5518103937007874
20
1.9366030708661417
11
0.5515623622047244
21
1.9367591732283465
0
LINE
8
BLACK
6
CONTINUOUS
10
0.5515623622047244
20
1.9367591732283465
11
0.5514904330708661
21
1.9367889763779527
0
LINE
8
BLACK
6
CONTINUOUS
10
0.5514904330708661
20
1.9367889763779527
11
0.5514094488188976
21
1.9368554330708661
0
LINE
8
BLACK
6
CONTINUOUS
10
0.5514094488188976
20
1.9368554330708661
11
0.5513205118110236
21
1.9369114173228346
0
LINE
8
BLACK
6
CONTINUOUS
10
0.5513205118110236
20
1.9369114173228346
11
0.5512692913385827
21
1.9369704724409449
0
LINE
8
BLACK
6
CONTINUOUS
10
0.5512692913385827
20
1.9369704724409449
11
0.5510429527559055
21
1.9371562204724408
0
LINE
8
BLACK
6
CONTINUOUS
10
0.5510429527559055
20
1.9371562204724408
11
0.549168188976378
21
1.9390310236220472
0
LINE
8
BLACK
6
CONTINUOUS
10
0.549168188976378
20
1.9390310236220472
11
0.5489824409448819
21
1.9392573622047244
0
LINE
8
BLACK
6
CONTINUOUS
10
0.5489824409448819
20
1.9392573622047244
11
0.5489234645669291
21
1.9393085039370079
0
LINE
8
BLACK
6
CONTINUOUS
10
0.5489234645669291
20
1.9393085039370079
11
0.5488674803149606
21
1.9393974409448818
0
LINE
8
BLACK
6
CONTINUOUS
10
0.5488674803149606
20
1.9393974409448818
11
0.5488009842519684
21
1.9394784645669292
0
LINE
8
BLACK
6
CONTINUOUS
10
0.5488009842519684
20
1.9394784645669292
11
0.5487711417322835
21
1.9395505118110237
0
LINE
8
BLACK
6
CONTINUOUS
10
0.5487711417322835
20
1.9395505118110237
11
0.5486151181102362
21
1.9397983858267716
0
LINE
8
BLACK
6
CONTINUOUS
10
0.5486151181102362
20
1.9397983858267716
11
0.5467403543307087
21
1.9435479133858267
0
LINE
8
BLACK
6
CONTINUOUS
10
0.5467403543307087
20
1.9435479133858267
11
0.5465334645669291
21
1.9440885433070865
0
LINE
8
BLACK
6
CONTINUOUS
10
0.5465334645669291
20
1.9440885433070865
11
0.5465259448818898
21
1.9441943700787401
0
LINE
8
BLACK
6
CONTINUOUS
10
0.5465259448818898
20
1.9441943700787401
11
0.5464853543307087
21
1.9442923622047243
0
LINE
8
BLACK
6
CONTINUOUS
10
0.5464853543307087
20
1.9442923622047243
11
0.5464286220472441
21
1.9448684251968504
0
LINE
8
BLACK
6
CONTINUOUS
10
0.5464286220472441
20
1.9448684251968504
11
0.5464286220472441
21
1.9598665354330709
0
LINE
8
BLACK
6
CONTINUOUS
10
0.5464286220472441
20
1.9598665354330709
11
0.5464385039370079
21
1.9599670866141732
0
LINE
8
BLACK
6
CONTINUOUS
10
0.5464385039370079
20
1.9599670866141732
11
0.5464321259842519
21
1.9600100787401575
0
LINE
8
BLACK
6
CONTINUOUS
10
0.5464321259842519
20
1.9600100787401575
11
0.5464639763779527
21
1.960225590551181
0
LINE
8
BLACK
6
CONTINUOUS
10
0.5464639763779527
20
1.960225590551181
11
0.5464853543307087
21
1.9604425984251967
0
LINE
8
BLACK
6
CONTINUOUS
10
0.5464853543307087
20
1.9604425984251967
11
0.546501968503937
21
1.9604828346456693
0
LINE
8
BLACK
6
CONTINUOUS
10
0.546501968503937
20
1.9604828346456693
11
0.5465167716535433
21
1.9605826771653543
0
LINE
8
BLACK
6
CONTINUOUS
10
0.5465167716535433
20
1.9605826771653543
11
0.5483915354330708
21
1.9680817322834645
0
LINE
8
BLACK
6
CONTINUOUS
10
0.5483915354330708
20
1.9680817322834645
11
0.5485127952755905
21
1.9684212204724409
0
LINE
8
BLACK
6
CONTINUOUS
10
0.5485127952755905
20
1.9684212204724409
11
0.548526968503937
21
1.9684927165354331
0
LINE
8
BLACK
6
CONTINUOUS
10
0.548526968503937
20
1.9684927165354331
11
0.5485615354330708
21
1.9685575984251968
0
LINE
8
BLACK
6
CONTINUOUS
10
0.5485615354330708
20
1.9685575984251968
11
0.5485862992125984
21
1.9686268503937008
0
LINE
8
BLACK
6
CONTINUOUS
10
0.5485862992125984
20
1.9686268503937008
11
0.5486297244094488
21
1.9686854724409448
0
LINE
8
BLACK
6
CONTINUOUS
10
0.5486297244094488
20
1.9686854724409448
11
0.5487992913385826
21
1.9690035039370077
0
LINE
8
BLACK
6
CONTINUOUS
10
0.5487992913385826
20
1.9690035039370077
11
0.5525488188976377
21
1.9746277952755904
0
LINE
8
BLACK
6
CONTINUOUS
10
0.5525488188976377
20
1.9746277952755904
11
0.552550157480315
21
1.9746294881889763
0
LINE
8
BLACK
6
CONTINUOUS
10
0.552550157480315
20
1.9746294881889763
11
0.5525505511811023
21
1.9746303543307087
0
LINE
8
BLACK
6
CONTINUOUS
10
0.5525505511811023
20
1.9746303543307087
11
0.5527272440944881
21
1.9748456692913385
0
LINE
8
BLACK
6
CONTINUOUS
10
0.5527272440944881
20
1.9748456692913385
11
0.5529155905511811
21
1.9750756299212597
0
LINE
8
BLACK
6
CONTINUOUS
10
0.5529155905511811
20
1.9750756299212597
11
0.5529164173228346
21
1.9750762204724408
0
LINE
8
BLACK
6
CONTINUOUS
10
0.5529164173228346
20
1.9750762204724408
11
0.5529177559055118
21
1.9750777952755905
0
LINE
8
BLACK
6
CONTINUOUS
10
0.5529177559055118
20
1.9750777952755905
11
0.5547925196850394
21
1.976952559055118
0
LINE
8
BLACK
6
CONTINUOUS
10
0.5547925196850394
20
1.976952559055118
11
0.5550188582677166
21
1.977138346456693
0
LINE
8
BLACK
6
CONTINUOUS
10
0.5550188582677166
20
1.977138346456693
11
0.5550700393700787
21
1.9771973228346456
0
LINE
8
BLACK
6
CONTINUOUS
10
0.5550700393700787
20
1.9771973228346456
11
0.5551589763779528
21
1.9772533070866141
0
LINE
8
BLACK
6
CONTINUOUS
10
0.5551589763779528
20
1.9772533070866141
11
0.5552399606299212
21
1.9773197637795275
0
LINE
8
BLACK
6
CONTINUOUS
10
0.5552399606299212
20
1.9773197637795275
11
0.5553118897637795
21
1.9773496062992126
0
LINE
8
BLACK
6
CONTINUOUS
10
0.5553118897637795
20
1.9773496062992126
11
0.5555599212598425
21
1.9775056692913386
0
LINE
8
BLACK
6
CONTINUOUS
10
0.5555599212598425
20
1.9775056692913386
11
0.5593094488188977
21
1.9793804330708662
0
LINE
8
BLACK
6
CONTINUOUS
10
0.5593094488188977
20
1.9793804330708662
11
0.5598500393700787
21
1.9795873228346457
0
LINE
8
BLACK
6
CONTINUOUS
10
0.5598500393700787
20
1.9795873228346457
11
0.559955905511811
21
1.9795948818897637
0
LINE
8
BLACK
6
CONTINUOUS
10
0.559955905511811
20
1.9795948818897637
11
0.5600538976377952
21
1.9796354330708661
0
LINE
8
BLACK
6
CONTINUOUS
10
0.5600538976377952
20
1.9796354330708661
11
0.5606299606299212
21
1.9796921653543307
0
LINE
8
BLACK
6
CONTINUOUS
10
0.5606299606299212
20
1.9796921653543307
11
0.5681290157480314
21
1.9796921653543307
0
LINE
8
BLACK
6
CONTINUOUS
10
0.5681290157480314
20
1.9796921653543307
11
0.5687050787401575
21
1.9796354330708661
0
LINE
8
BLACK
6
CONTINUOUS
10
0.55488
20
1.9574398031496063
11
0.553682874015748
21
1.9562426771653543
0
LINE
8
BLACK
6
CONTINUOUS
10
0.553682874015748
20
1.9562426771653543
11
0.5523341338582677
21
1.9535451968503936
0
LINE
8
BLACK
6
CONTINUOUS
10
0.5523341338582677
20
1.9535451968503936
11
0.5523341338582677
21
1.9455654724409448
0
LINE
8
BLACK
6
CONTINUOUS
10
0.5523341338582677
20
1.9455654724409448
11
0.553682874015748
21
1.9428679921259842
0
LINE
8
BLACK
6
CONTINUOUS
10
0.553682874015748
20
1.9428679921259842
11
0.55488
21
1.9416708267716536
0
LINE
8
BLACK
6
CONTINUOUS
10
0.55488
20
1.9416708267716536
11
0.5575774803149606
21
1.9403220866141733
0
LINE
8
BLACK
6
CONTINUOUS
10
0.5575774803149606
20
1.9403220866141733
11
0.5636824409448818
21
1.9403220866141733
0
LINE
8
BLACK
6
CONTINUOUS
10
0.5636824409448818
20
1.9403220866141733
11
0.5663798818897637
21
1.9416708267716536
0
LINE
8
BLACK
6
CONTINUOUS
10
0.5663798818897637
20
1.9416708267716536
11
0.5675770078740158
21
1.9428679921259842
0
LINE
8
BLACK
6
CONTINUOUS
10
0.5675770078740158
20
1.9428679921259842
11
0.5689257874015748
21
1.9455654724409448
0
LINE
8
BLACK
6
CONTINUOUS
10
0.5689257874015748
20
1.9455654724409448
11
0.5689257874015748
21
1.9535451968503936
0
LINE
8
BLACK
6
CONTINUOUS
10
0.5689257874015748
20
1.9535451968503936
11
0.5675770472440945
21
1.9562426771653543
0
LINE
8
BLACK
6
CONTINUOUS
10
0.5675770472440945
20
1.9562426771653543
11
0.5663799212598425
21
1.9574398031496063
0
LINE
8
BLACK
6
CONTINUOUS
10
0.5663799212598425
20
1.9574398031496063
11
0.5636824409448818
21
1.9587885433070866
0
LINE
8
BLACK
6
CONTINUOUS
10
0.5636824409448818
20
1.9587885433070866
11
0.5575774803149606
21
1.9587885433070866
0
LINE
8
BLACK
6
CONTINUOUS
10
0.5575774803149606
20
1.9587885433070866
11
0.55488
21
1.9574398031496063
0
LINE
8
BLACK
6
CONTINUOUS
10
0.6005761023622047
20
1.9796354330708661
11
0.600674094488189
21
1.979594842519685
0
LINE
8
BLACK
6
CONTINUOUS
10
0.600674094488189
20
1.979594842519685
11
0.6007799212598425
21
1.9795873228346457
0
LINE
8
BLACK
6
CONTINUOUS
10
0.6007799212598425
20
1.9795873228346457
11
0.6013205511811024
21
1.9793804330708662
0
LINE
8
BLACK
6
CONTINUOUS
10
0.6013205511811024
20
1.9793804330708662
11
0.6050700787401575
21
1.9775056692913386
0
LINE
8
BLACK
6
CONTINUOUS
10
0.6050700787401575
20
1.9775056692913386
11
0.6053180708661418
21
1.9773496062992126
0
LINE
8
BLACK
6
CONTINUOUS
10
0.6053180708661418
20
1.9773496062992126
11
0.6053900393700787
21
1.9773197637795275
0
LINE
8
BLACK
6
CONTINUOUS
10
0.6053900393700787
20
1.9773197637795275
11
0.6054709842519684
21
1.9772533070866141
0
LINE
8
BLACK
6
CONTINUOUS
10
0.6054709842519684
20
1.9772533070866141
11
0.6055599606299212
21
1.9771973228346456
0
LINE
8
BLACK
6
CONTINUOUS
10
0.6055599606299212
20
1.9771973228346456
11
0.6056111023622047
21
1.977138346456693
0
LINE
8
BLACK
6
CONTINUOUS
10
0.6056111023622047
20
1.977138346456693
11
0.6058374803149607
21
1.976952559055118
0
LINE
8
BLACK
6
CONTINUOUS
10
0.6058374803149607
20
1.976952559055118
11
0.6077122440944882
21
1.9750777952755905
0
LINE
8
BLACK
6
CONTINUOUS
10
0.6077122440944882
20
1.9750777952755905
11
0.6078979921259843
21
1.9748514566929134
0
LINE
8
BLACK
6
CONTINUOUS
10
0.6078979921259843
20
1.9748514566929134
11
0.6079570078740157
21
1.9748002755905512
0
LINE
8
BLACK
6
CONTINUOUS
10
0.6079570078740157
20
1.9748002755905512
11
0.6080129527559055
21
1.9747113385826771
0
LINE
8
BLACK
6
CONTINUOUS
10
0.6080129527559055
20
1.9747113385826771
11
0.6080794488188976
21
1.9746303543307087
0
LINE
8
BLACK
6
CONTINUOUS
10
0.6080794488188976
20
1.9746303543307087
11
0.608109251968504
21
1.9745584251968504
0
LINE
8
BLACK
6
CONTINUOUS
10
0.608109251968504
20
1.9745584251968504
11
0.6082653543307086
21
1.9743103937007873
0
LINE
8
BLACK
6
CONTINUOUS
10
0.6082653543307086
20
1.9743103937007873
11
0.6101401181102362
21
1.9705608661417322
0
LINE
8
BLACK
6
CONTINUOUS
10
0.6101401181102362
20
1.9705608661417322
11
0.6101562204724409
21
1.9705187795275589
0
LINE
8
BLACK
6
CONTINUOUS
10
0.6101562204724409
20
1.9705187795275589
11
0.610168937007874
21
1.9705016141732283
0
LINE
8
BLACK
6
CONTINUOUS
10
0.610168937007874
20
1.9705016141732283
11
0.6102552362204724
21
1.9702600393700787
0
LINE
8
BLACK
6
CONTINUOUS
10
0.6102552362204724
20
1.9702600393700787
11
0.6103470078740157
21
1.9700202755905512
0
LINE
8
BLACK
6
CONTINUOUS
10
0.6103470078740157
20
1.9700202755905512
11
0.6103485039370079
21
1.9699990157480314
0
LINE
8
BLACK
6
CONTINUOUS
10
0.6103485039370079
20
1.9699990157480314
11
0.6103637007874015
21
1.9699564960629921
0
LINE
8
BLACK
6
CONTINUOUS
10
0.6103637007874015
20
1.9699564960629921
11
0.6122384645669291
21
1.9624574409448818
0
LINE
8
BLACK
6
CONTINUOUS
10
0.6122384645669291
20
1.9624574409448818
11
0.6122532283464567
21
1.9623575984251969
0
LINE
8
BLACK
6
CONTINUOUS
10
0.6122532283464567
20
1.9623575984251969
11
0.6122698818897637
21
1.9623173622047243
0
LINE
8
BLACK
6
CONTINUOUS
10
0.6122698818897637
20
1.9623173622047243
11
0.6122912204724409
21
1.9621003543307085
0
LINE
8
BLACK
6
CONTINUOUS
10
0.6122912204724409
20
1.9621003543307085
11
0.6123231102362204
21
1.9618848425196851
0
LINE
8
BLACK
6
CONTINUOUS
10
0.6123231102362204
20
1.9618848425196851
11
0.6123166929133859
21
1.9618418503937007
0
LINE
8
BLACK
6
CONTINUOUS
10
0.6123166929133859
20
1.9618418503937007
11
0.6123266141732283
21
1.9617412992125984
0
LINE
8
BLACK
6
CONTINUOUS
10
0.6123266141732283
20
1.9617412992125984
11
0.6123266141732283
21
1.9523674803149607
0
LINE
8
BLACK
6
CONTINUOUS
10
0.6123266141732283
20
1.9523674803149607
11
0.6123166929133859
21
1.9522669685039369
0
LINE
8
BLACK
6
CONTINUOUS
10
0.6123166929133859
20
1.9522669685039369
11
0.6123231102362204
21
1.952223937007874
0
LINE
8
BLACK
6
CONTINUOUS
10
0.6123231102362204
20
1.952223937007874
11
0.6122912204724409
21
1.9520084645669291
0
LINE
8
BLACK
6
CONTINUOUS
10
0.6122912204724409
20
1.9520084645669291
11
0.6122698818897637
21
1.9517914173228346
0
LINE
8
BLACK
6
CONTINUOUS
10
0.6122698818897637
20
1.9517914173228346
11
0.6122532283464567
21
1.951751220472441
0
LINE
8
BLACK
6
CONTINUOUS
10
0.6122532283464567
20
1.951751220472441
11
0.6122384645669291
21
1.951651338582677
0
LINE
8
BLACK
6
CONTINUOUS
10
0.6122384645669291
20
1.951651338582677
11
0.6103637007874015
21
1.9441522834645668
0
LINE
8
BLACK
6
CONTINUOUS
10
0.6103637007874015
20
1.9441522834645668
11
0.6103485039370079
21
1.9441098031496062
0
LINE
8
BLACK
6
CONTINUOUS
10
0.6103485039370079
20
1.9441098031496062
11
0.6103470078740157
21
1.9440885039370079
0
LINE
8
BLACK
6
CONTINUOUS
10
0.6103470078740157
20
1.9440885039370079
11
0.6102552362204724
21
1.943848779527559
0
LINE
8
BLACK
6
CONTINUOUS
10
0.6102552362204724
20
1.943848779527559
11
0.610168937007874
21
1.9436071653543308
0
LINE
8
BLACK
6
CONTINUOUS
10
0.610168937007874
20
1.9436071653543308
11
0.6101562204724409
21
1.9435900393700787
0
LINE
8
BLACK
6
CONTINUOUS
10
0.6101562204724409
20
1.9435900393700787
11
0.6101401181102362
21
1.9435479133858267
0
LINE
8
BLACK
6
CONTINUOUS
10
0.6101401181102362
20
1.9435479133858267
11
0.6082653543307086
21
1.9397983858267716
0
LINE
8
BLACK
6
CONTINUOUS
10
0.6082653543307086
20
1.9397983858267716
11
0.6081092913385827
21
1.9395505118110237
0
LINE
8
BLACK
6
CONTINUOUS
10
0.6081092913385827
20
1.9395505118110237
11
0.6080794881889764
21
1.9394784645669292
0
LINE
8
BLACK
6
CONTINUOUS
10
0.6080794881889764
20
1.9394784645669292
11
0.6080129527559055
21
1.9393974409448818
0
LINE
8
BLACK
6
CONTINUOUS
10
0.6080129527559055
20
1.9393974409448818
11
0.6079570078740157
21
1.9393085039370079
0
LINE
8
BLACK
6
CONTINUOUS
10
0.6079570078740157
20
1.9393085039370079
11
0.6078979921259843
21
1.9392573622047244
0
LINE
8
BLACK
6
CONTINUOUS
10
0.6078979921259843
20
1.9392573622047244
11
0.6077122440944882
21
1.9390309842519684
0
LINE
8
BLACK
6
CONTINUOUS
10
0.6077122440944882
20
1.9390309842519684
11
0.6058375196850394
21
1.9371562204724408
0
LINE
8
BLACK
6
CONTINUOUS
10
0.6058375196850394
20
1.9371562204724408
11
0.6056111417322835
21
1.9369704724409449
0
LINE
8
BLACK
6
CONTINUOUS
10
0.6056111417322835
20
1.9369704724409449
11
0.6055599606299212
21
1.9369114173228346
0
LINE
8
BLACK
6
CONTINUOUS
10
0.6055599606299212
20
1.9369114173228346
11
0.6054709842519684
21
1.9368554330708661
0
LINE
8
BLACK
6
CONTINUOUS
10
0.6054709842519684
20
1.9368554330708661
11
0.6053900393700787
21
1.9367889763779527
0
LINE
8
BLACK
6
CONTINUOUS
10
0.6053900393700787
20
1.9367889763779527
11
0.6053180708661418
21
1.9367591732283465
0
LINE
8
BLACK
6
CONTINUOUS
10
0.6053180708661418
20
1.9367591732283465
11
0.6050700787401575
21
1.9366030708661417
0
LINE
8
BLACK
6
CONTINUOUS
10
0.6050700787401575
20
1.9366030708661417
11
0.6013205511811024
21
1.9347283070866141
0
LINE
8
BLACK
6
CONTINUOUS
10
0.6013205511811024
20
1.9347283070866141
11
0.6007799212598425
21
1.9345214173228347
0
LINE
8
BLACK
6
CONTINUOUS
10
0.6007799212598425
20
1.9345214173228347
11
0.600674094488189
21
1.9345139370078739
0
LINE
8
BLACK
6
CONTINUOUS
10
0.600674094488189
20
1.9345139370078739
11
0.6005761023622047
21
1.934473307086614
0
LINE
8
BLACK
6
CONTINUOUS
10
0.6005761023622047
20
1.934473307086614
11
0.6000000393700787
21
1.9344165748031497
0
LINE
8
BLACK
6
CONTINUOUS
10
0.6000000393700787
20
1.9344165748031497
11
0.5962505118110236
21
1.9344165748031497
0
LINE
8
BLACK
6
CONTINUOUS
10
0.5962505118110236
20
1.9344165748031497
11
0.5956744488188976
21
1.934473307086614
0
LINE
8
BLACK
6
CONTINUOUS
10
0.5956744488188976
20
1.934473307086614
11
0.5955764566929134
21
1.9345138976377951
0
LINE
8
BLACK
6
CONTINUOUS
10
0.5955764566929134
20
1.9345138976377951
11
0.5954705905511811
21
1.9345214173228347
0
LINE
8
BLACK
6
CONTINUOUS
10
0.5954705905511811
20
1.9345214173228347
11
0.59493
21
1.9347283070866141
0
LINE
8
BLACK
6
CONTINUOUS
10
0.59493
20
1.9347283070866141
11
0.5911804724409448
21
1.9366030708661417
0
LINE
8
BLACK
6
CONTINUOUS
10
0.5911804724409448
20
1.9366030708661417
11
0.5909324409448818
21
1.9367591732283465
0
LINE
8
BLACK
6
CONTINUOUS
10
0.5909324409448818
20
1.9367591732283465
11
0.5908605118110236
21
1.9367889763779527
0
LINE
8
BLACK
6
CONTINUOUS
10
0.5908605118110236
20
1.9367889763779527
11
0.5907795275590551
21
1.9368554330708661
0
LINE
8
BLACK
6
CONTINUOUS
10
0.5907795275590551
20
1.9368554330708661
11
0.5906905905511811
21
1.9369114173228346
0
LINE
8
BLACK
6
CONTINUOUS
10
0.5906905905511811
20
1.9369114173228346
11
0.5906393700787401
21
1.9369704724409449
0
LINE
8
BLACK
6
CONTINUOUS
10
0.5906393700787401
20
1.9369704724409449
11
0.5904130314960629
21
1.9371562204724408
0
LINE
8
BLACK
6
CONTINUOUS
10
0.5904130314960629
20
1.9371562204724408
11
0.5885382677165354
21
1.9390310236220472
0
LINE
8
BLACK
6
CONTINUOUS
10
0.5885382677165354
20
1.9390310236220472
11
0.5883525196850393
21
1.9392573622047244
0
LINE
8
BLACK
6
CONTINUOUS
10
0.5883525196850393
20
1.9392573622047244
11
0.5882935433070866
21
1.9393085039370079
0
LINE
8
BLACK
6
CONTINUOUS
10
0.5882935433070866
20
1.9393085039370079
11
0.5882375590551181
21
1.9393974409448818
0
LINE
8
BLACK
6
CONTINUOUS
10
0.5882375590551181
20
1.9393974409448818
11
0.588171062992126
21
1.9394784645669292
0
LINE
8
BLACK
6
CONTINUOUS
10
0.588171062992126
20
1.9394784645669292
11
0.5881412204724409
21
1.9395505118110237
0
LINE
8
BLACK
6
CONTINUOUS
10
0.5881412204724409
20
1.9395505118110237
11
0.5879851968503936
21
1.9397983858267716
0
LINE
8
BLACK
6
CONTINUOUS
10
0.5879851968503936
20
1.9397983858267716
11
0.5861104330708661
21
1.9435479133858267
0
LINE
8
BLACK
6
CONTINUOUS
10
0.5861104330708661
20
1.9435479133858267
11
0.5860942913385827
21
1.9435900393700787
0
LINE
8
BLACK
6
CONTINUOUS
10
0.5860942913385827
20
1.9435900393700787
11
0.5860816141732283
21
1.9436071653543308
0
LINE
8
BLACK
6
CONTINUOUS
10
0.5860816141732283
20
1.9436071653543308
11
0.5859951574803149
21
1.9438491338582677
0
LINE
8
BLACK
6
CONTINUOUS
10
0.5859951574803149
20
1.9438491338582677
11
0.5859035433070866
21
1.9440885433070865
0
LINE
8
BLACK
6
CONTINUOUS
10
0.5859035433070866
20
1.9440885433070865
11
0.5859020078740157
21
1.9441098031496062
0
LINE
8
BLACK
6
CONTINUOUS
10
0.5859020078740157
20
1.9441098031496062
11
0.5858868503937008
21
1.9441522834645668
0
LINE
8
BLACK
6
CONTINUOUS
10
0.5858868503937008
20
1.9441522834645668
11
0.5840120866141733
21
1.951651338582677
0
LINE
8
BLACK
6
CONTINUOUS
10
0.5840120866141733
20
1.951651338582677
11
0.5839972834645669
21
1.951751220472441
0
LINE
8
BLACK
6
CONTINUOUS
10
0.5839972834645669
20
1.951751220472441
11
0.5839806692913385
21
1.9517914173228346
0
LINE
8
BLACK
6
CONTINUOUS
10
0.5839806692913385
20
1.9517914173228346
11
0.5839592913385827
21
1.9520084645669291
0
LINE
8
BLACK
6
CONTINUOUS
10
0.5839592913385827
20
1.9520084645669291
11
0.5839274409448819
21
1.952223937007874
0
LINE
8
BLACK
6
CONTINUOUS
10
0.5839274409448819
20
1.952223937007874
11
0.5839338188976377
21
1.9522669685039369
0
LINE
8
BLACK
6
CONTINUOUS
10
0.5839338188976377
20
1.9522669685039369
11
0.583923937007874
21
1.9523674803149607
0
LINE
8
BLACK
6
CONTINUOUS
10
0.583923937007874
20
1.9523674803149607
11
0.583923937007874
21
1.9617412992125984
0
LINE
8
BLACK
6
CONTINUOUS
10
0.583923937007874
20
1.9617412992125984
11
0.5839338188976377
21
1.9618418503937007
0
LINE
8
BLACK
6
CONTINUOUS
10
0.5839338188976377
20
1.9618418503937007
11
0.5839274409448819
21
1.9618848425196851
0
LINE
8
BLACK
6
CONTINUOUS
10
0.5839274409448819
20
1.9618848425196851
11
0.5839592913385827
21
1.9621003543307085
0
LINE
8
BLACK
6
CONTINUOUS
10
0.5839592913385827
20
1.9621003543307085
11
0.5839806692913385
21
1.9623173622047243
0
LINE
8
BLACK
6
CONTINUOUS
10
0.5839806692913385
20
1.9623173622047243
11
0.5839972834645669
21
1.9623575984251969
0
LINE
8
BLACK
6
CONTINUOUS
10
0.5839972834645669
20
1.9623575984251969
11
0.5840120866141733
21
1.9624574409448818
0
LINE
8
BLACK
6
CONTINUOUS
10
0.5840120866141733
20
1.9624574409448818
11
0.5858868503937008
21
1.9699564960629921
0
LINE
8
BLACK
6
CONTINUOUS
10
0.5858868503937008
20
1.9699564960629921
11
0.5859020078740157
21
1.9699990157480314
0
LINE
8
BLACK
6
CONTINUOUS
10
0.5859020078740157
20
1.9699990157480314
11
0.5859035433070866
21
1.9700202362204724
0
LINE
8
BLACK
6
CONTINUOUS
10
0.5859035433070866
20
1.9700202362204724
11
0.5859951574803149
21
1.9702596850393701
0
LINE
8
BLACK
6
CONTINUOUS
10
0.5859951574803149
20
1.9702596850393701
11
0.5860816141732283
21
1.9705016141732283
0
LINE
8
BLACK
6
CONTINUOUS
10
0.5860816141732283
20
1.9705016141732283
11
0.5860942913385827
21
1.9705187795275589
0
LINE
8
BLACK
6
CONTINUOUS
10
0.5860942913385827
20
1.9705187795275589
11
0.5861104330708661
21
1.9705608661417322
0
LINE
8
BLACK
6
CONTINUOUS
10
0.5861104330708661
20
1.9705608661417322
11
0.5879851968503936
21
1.9743103937007873
0
LINE
8
BLACK
6
CONTINUOUS
10
0.5879851968503936
20
1.9743103937007873
11
0.5881412598425196
21
1.9745584251968504
0
LINE
8
BLACK
6
CONTINUOUS
10
0.5881412598425196
20
1.9745584251968504
11
0.5881711023622047
21
1.9746303543307087
0
LINE
8
BLACK
6
CONTINUOUS
10
0.5881711023622047
20
1.9746303543307087
11
0.5882375590551181
21
1.9747113385826771
0
LINE
8
BLACK
6
CONTINUOUS
10
0.5882375590551181
20
1.9747113385826771
11
0.5882935433070866
21
1.9748002755905512
0
LINE
8
BLACK
6
CONTINUOUS
10
0.5882935433070866
20
1.9748002755905512
11
0.5883525196850393
21
1.9748514566929134
0
LINE
8
BLACK
6
CONTINUOUS
10
0.5883525196850393
20
1.9748514566929134
11
0.5885383070866141
21
1.9750777952755905
0
LINE
8
BLACK
6
CONTINUOUS
10
0.5885383070866141
20
1.9750777952755905
11
0.5904130708661417
21
1.976952559055118
0
LINE
8
BLACK
6
CONTINUOUS
10
0.5904130708661417
20
1.976952559055118
11
0.5906394094488189
21
1.977138346456693
0
LINE
8
BLACK
6
CONTINUOUS
10
0.5906394094488189
20
1.977138346456693
11
0.5906905905511811
21
1.9771973228346456
0
LINE
8
BLACK
6
CONTINUOUS
10
0.5906905905511811
20
1.9771973228346456
11
0.5907795275590551
21
1.9772533070866141
0
LINE
8
BLACK
6
CONTINUOUS
10
0.5907795275590551
20
1.9772533070866141
11
0.5908605118110236
21
1.9773197637795275
0
LINE
8
BLACK
6
CONTINUOUS
10
0.5908605118110236
20
1.9773197637795275
11
0.5909324409448818
21
1.9773496062992126
0
LINE
8
BLACK
6
CONTINUOUS
10
0.5909324409448818
20
1.9773496062992126
11
0.5911804724409448
21
1.9775056692913386
0
LINE
8
BLACK
6
CONTINUOUS
10
0.5911804724409448
20
1.9775056692913386
11
0.59493
21
1.9793804330708662
0
LINE
8
BLACK
6
CONTINUOUS
10
0.59493
20
1.9793804330708662
11
0.5954705905511811
21
1.9795873228346457
0
LINE
8
BLACK
6
CONTINUOUS
10
0.5954705905511811
20
1.9795873228346457
11
0.5955764566929134
21
1.9795948818897637
0
LINE
8
BLACK
6
CONTINUOUS
10
0.5955764566929134
20
1.9795948818897637
11
0.5956744488188976
21
1.9796354330708661
0
LINE
8
BLACK
6
CONTINUOUS
10
0.5956744488188976
20
1.9796354330708661
11
0.5962505118110236
21
1.9796921653543307
0
LINE
8
BLACK
6
CONTINUOUS
10
0.5962505118110236
20
1.9796921653543307
11
0.6000000393700787
21
1.9796921653543307
0
LINE
8
BLACK
6
CONTINUOUS
10
0.6000000393700787
20
1.9796921653543307
11
0.6005761023622047
21
1.9796354330708661
0
LINE
8
BLACK
6
CONTINUOUS
10
0.5942500787401575
20
1.9724379133858267
11
0.5930529527559055
21
1.9712407874015747
0
LINE
8
BLACK
6
CONTINUOUS
10
0.5930529527559055
20
1.9712407874015747
11
0.5915374409448819
21
1.9682098031496063
0
LINE
8
BLACK
6
CONTINUOUS
10
0.5915374409448819
20
1.9682098031496063
11
0.5898294488188977
21
1.9613777559055117
0
LINE
8
BLACK
6
CONTINUOUS
10
0.5898294488188977
20
1.9613777559055117
11
0.5898294488188977
21
1.9527310236220472
0
LINE
8
BLACK
6
CONTINUOUS
10
0.5898294488188977
20
1.9527310236220472
11
0.5915374409448819
21
1.9458989763779526
0
LINE
8
BLACK
6
CONTINUOUS
10
0.5915374409448819
20
1.9458989763779526
11
0.5930529527559055
21
1.9428679921259842
0
LINE
8
BLACK
6
CONTINUOUS
10
0.5930529527559055
20
1.9428679921259842
11
0.5942500787401575
21
1.9416708267716536
0
LINE
8
BLACK
6
CONTINUOUS
10
0.5942500787401575
20
1.9416708267716536
11
0.5969475590551181
21
1.9403220866141733
0
LINE
8
BLACK
6
CONTINUOUS
10
0.5969475590551181
20
1.9403220866141733
11
0.5993029921259843
21
1.9403220866141733
0
LINE
8
BLACK
6
CONTINUOUS
10
0.5993029921259843
20
1.9403220866141733
11
0.6020004330708661
21
1.9416708267716536
0
LINE
8
BLACK
6
CONTINUOUS
10
0.6020004330708661
20
1.9416708267716536
11
0.6031975590551181
21
1.9428679921259842
0
LINE
8
BLACK
6
CONTINUOUS
10
0.6031975590551181
20
1.9428679921259842
11
0.6047130708661417
21
1.9458989763779526
0
LINE
8
BLACK
6
CONTINUOUS
10
0.6047130708661417
20
1.9458989763779526
11
0.6064211023622047
21
1.9527310236220472
0
LINE
8
BLACK
6
CONTINUOUS
10
0.6064211023622047
20
1.9527310236220472
11
0.6064211023622047
21
1.9613777559055117
0
LINE
8
BLACK
6
CONTINUOUS
10
0.6064211023622047
20
1.9613777559055117
11
0.6047130708661417
21
1.9682098031496063
0
LINE
8
BLACK
6
CONTINUOUS
10
0.6047130708661417
20
1.9682098031496063
11
0.6031975984251968
21
1.9712407874015747
0
LINE
8
BLACK
6
CONTINUOUS
10
0.6031975984251968
20
1.9712407874015747
11
0.6020004724409449
21
1.9724379133858267
0
LINE
8
BLACK
6
CONTINUOUS
10
0.6020004724409449
20
1.9724379133858267
11
0.5993029921259843
21
1.9737866535433071
0
LINE
8
BLACK
6
CONTINUOUS
10
0.5993029921259843
20
1.9737866535433071
11
0.5969475590551181
21
1.9737866535433071
0
LINE
8
BLACK
6
CONTINUOUS
10
0.5969475590551181
20
1.9737866535433071
11
0.5942500787401575
21
1.9724379133858267
0
LINE
8
BLACK
6
CONTINUOUS
10
0.6380714173228347
20
1.9796354330708661
11
0.6381694094488188
21
1.979594842519685
0
LINE
8
BLACK
6
CONTINUOUS
10
0.6381694094488188
20
1.979594842519685
11
0.6382752362204724
21
1.9795873228346457
0
LINE
8
BLACK
6
CONTINUOUS
10
0.6382752362204724
20
1.9795873228346457
11
0.6388158661417322
21
1.9793804330708662
0
LINE
8
BLACK
6
CONTINUOUS
10
0.6388158661417322
20
1.9793804330708662
11
0.6425653937007874
21
1.9775056692913386
0
LINE
8
BLACK
6
CONTINUOUS
10
0.6425653937007874
20
1.9775056692913386
11
0.6428133858267716
21
1.9773496062992126
0
LINE
8
BLACK
6
CONTINUOUS
10
0.6428133858267716
20
1.9773496062992126
11
0.6428853543307086
21
1.9773197637795275
0
LINE
8
BLACK
6
CONTINUOUS
10
0.6428853543307086
20
1.9773197637795275
11
0.6429662992125984
21
1.9772533070866141
0
LINE
8
BLACK
6
CONTINUOUS
10
0.6429662992125984
20
1.9772533070866141
11
0.6430552755905512
21
1.9771973228346456
0
LINE
8
BLACK
6
CONTINUOUS
10
0.6430552755905512
20
1.9771973228346456
11
0.6431064173228346
21
1.977138346456693
0
LINE
8
BLACK
6
CONTINUOUS
10
0.6431064173228346
20
1.977138346456693
11
0.6433327952755905
21
1.976952559055118
0
LINE
8
BLACK
6
CONTINUOUS
10
0.6433327952755905
20
1.976952559055118
11
0.6452075590551181
21
1.9750777952755905
0
LINE
8
BLACK
6
CONTINUOUS
10
0.6452075590551181
20
1.9750777952755905
11
0.6453933070866141
21
1.9748514566929134
0
LINE
8
BLACK
6
CONTINUOUS
10
0.6453933070866141
20
1.9748514566929134
11
0.6454523228346457
21
1.9748002755905512
0
LINE
8
BLACK
6
CONTINUOUS
10
0.6454523228346457
20
1.9748002755905512
11
0.6455082677165355
21
1.9747113385826771
0
LINE
8
BLACK
6
CONTINUOUS
10
0.6455082677165355
20
1.9747113385826771
11
0.6455747637795275
21
1.9746303543307087
0
LINE
8
BLACK
6
CONTINUOUS
10
0.6455747637795275
20
1.9746303543307087
11
0.6456045669291338
21
1.9745584251968504
0
LINE
8
BLACK
6
CONTINUOUS
10
0.6456045669291338
20
1.9745584251968504
11
0.6457606692913386
21
1.9743103937007873
0
LINE
8
BLACK
6
CONTINUOUS
10
0.6457606692913386
20
1.9743103937007873
11
0.6476354330708661
21
1.9705608661417322
0
LINE
8
BLACK
6
CONTINUOUS
10
0.6476354330708661
20
1.9705608661417322
11
0.6476515354330709
21
1.9705187795275589
0
LINE
8
BLACK
6
CONTINUOUS
10
0.6476515354330709
20
1.9705187795275589
11
0.647664251968504
21
1.9705016141732283
0
LINE
8
BLACK
6
CONTINUOUS
10
0.647664251968504
20
1.9705016141732283
11
0.6477505511811024
21
1.9702600393700787
0
LINE
8
BLACK
6
CONTINUOUS
10
0.6477505511811024
20
1.9702600393700787
11
0.6478423228346456
21
1.9700202755905512
0
LINE
8
BLACK
6
CONTINUOUS
10
0.6478423228346456
20
1.9700202755905512
11
0.6478438188976378
21
1.9699990157480314
0
LINE
8
BLACK
6
CONTINUOUS
10
0.6478438188976378
20
1.9699990157480314
11
0.6478590157480315
21
1.9699564960629921
0
LINE
8
BLACK
6
CONTINUOUS
10
0.6478590157480315
20
1.9699564960629921
11
0.6497337795275591
21
1.9624574409448818
0
LINE
8
BLACK
6
CONTINUOUS
10
0.6497337795275591
20
1.9624574409448818
11
0.6497485433070866
21
1.9623575984251969
0
LINE
8
BLACK
6
CONTINUOUS
10
0.6497485433070866
20
1.9623575984251969
11
0.6497651968503937
21
1.9623173622047243
0
LINE
8
BLACK
6
CONTINUOUS
10
0.6497651968503937
20
1.9623173622047243
11
0.6497865354330709
21
1.9621003543307085
0
LINE
8
BLACK
6
CONTINUOUS
10
0.6497865354330709
20
1.9621003543307085
11
0.6498184251968504
21
1.9618848425196851
0
LINE
8
BLACK
6
CONTINUOUS
10
0.6498184251968504
20
1.9618848425196851
11
0.6498120078740157
21
1.9618418503937007
0
LINE
8
BLACK
6
CONTINUOUS
10
0.6498120078740157
20
1.9618418503937007
11
0.6498219291338583
21
1.9617412992125984
0
LINE
8
BLACK
6
CONTINUOUS
10
0.6498219291338583
20
1.9617412992125984
11
0.6498219291338583
21
1.9523674803149607
0
LINE
8
BLACK
6
CONTINUOUS
10
0.6498219291338583
20
1.9523674803149607
11
0.6498120078740157
21
1.9522669685039369
0
LINE
8
BLACK
6
CONTINUOUS
10
0.6498120078740157
20
1.9522669685039369
11
0.6498184251968504
21
1.952223937007874
0
LINE
8
BLACK
6
CONTINUOUS
10
0.6498184251968504
20
1.952223937007874
11
0.6497865354330709
21
1.9520084645669291
0
LINE
8
BLACK
6
CONTINUOUS
10
0.6497865354330709
20
1.9520084645669291
11
0.6497651968503937
21
1.9517914173228346
0
LINE
8
BLACK
6
CONTINUOUS
10
0.6497651968503937
20
1.9517914173228346
11
0.6497485433070866
21
1.951751220472441
0
LINE
8
BLACK
6
CONTINUOUS
10
0.6497485433070866
20
1.951751220472441
11
0.6497337795275591
21
1.951651338582677
0
LINE
8
BLACK
6
CONTINUOUS
10
0.6497337795275591
20
1.951651338582677
11
0.6478590157480315
21
1.9441522834645668
0
LINE
8
BLACK
6
CONTINUOUS
10
0.6478590157480315
20
1.9441522834645668
11
0.6478438188976378
21
1.9441098031496062
0
LINE
8
BLACK
6
CONTINUOUS
10
0.6478438188976378
20
1.9441098031496062
11
0.6478423228346456
21
1.9440885039370079
0
LINE
8
BLACK
6
CONTINUOUS
10
0.6478423228346456
20
1.9440885039370079
11
0.6477505511811024
21
1.943848779527559
0
LINE
8
BLACK
6
CONTINUOUS
10
0.6477505511811024
20
1.943848779527559
11
0.647664251968504
21
1.9436071653543308
0
LINE
8
BLACK
6
CONTINUOUS
10
0.647664251968504
20
1.9436071653543308
11
0.6476515354330709
21
1.9435900393700787
0
LINE
8
BLACK
6
CONTINUOUS
10
0.6476515354330709
20
1.9435900393700787
11
0.6476354330708661
21
1.9435479133858267
0
LINE
8
BLACK
6
CONTINUOUS
10
0.6476354330708661
20
1.9435479133858267
11
0.6457606692913386
21
1.9397983858267716
0
LINE
8
BLACK
6
CONTINUOUS
10
0.6457606692913386
20
1.9397983858267716
11
0.6456046062992126
21
1.9395505118110237
0
LINE
8
BLACK
6
CONTINUOUS
10
0.6456046062992126
20
1.9395505118110237
11
0.6455748031496062
21
1.9394784645669292
0
LINE
8
BLACK
6
CONTINUOUS
10
0.6455748031496062
20
1.9394784645669292
11
0.6455082677165355
21
1.9393974409448818
0
LINE
8
BLACK
6
CONTINUOUS
10
0.6455082677165355
20
1.9393974409448818
11
0.6454523228346457
21
1.9393085039370079
0
LINE
8
BLACK
6
CONTINUOUS
10
0.6454523228346457
20
1.9393085039370079
11
0.6453933070866141
21
1.9392573622047244
0
LINE
8
BLACK
6
CONTINUOUS
10
0.6453933070866141
20
1.9392573622047244
11
0.6452075590551181
21
1.9390309842519684
0
LINE
8
BLACK
6
CONTINUOUS
10
0.6452075590551181
20
1.9390309842519684
11
0.6433328346456693
21
1.9371562204724408
0
LINE
8
BLACK
6
CONTINUOUS
10
0.6433328346456693
20
1.9371562204724408
11
0.6431064566929133
21
1.9369704724409449
0
LINE
8
BLACK
6
CONTINUOUS
10
0.6431064566929133
20
1.9369704724409449
11
0.6430552755905512
21
1.9369114173228346
0
LINE
8
BLACK
6
CONTINUOUS
10
0.6430552755905512
20
1.9369114173228346
11
0.6429662992125984
21
1.9368554330708661
0
LINE
8
BLACK
6
CONTINUOUS
10
0.6429662992125984
20
1.9368554330708661
11
0.6428853543307086
21
1.9367889763779527
0
LINE
8
BLACK
6
CONTINUOUS
10
0.6428853543307086
20
1.9367889763779527
11
0.6428133858267716
21
1.9367591732283465
0
LINE
8
BLACK
6
CONTINUOUS
10
0.6428133858267716
20
1.9367591732283465
11
0.6425653937007874
21
1.9366030708661417
0
LINE
8
BLACK
6
CONTINUOUS
10
0.6425653937007874
20
1.9366030708661417
11
0.6388158661417322
21
1.9347283070866141
0
LINE
8
BLACK
6
CONTINUOUS
10
0.6388158661417322
20
1.9347283070866141
11
0.6382752362204724
21
1.9345214173228347
0
LINE
8
BLACK
6
CONTINUOUS
10
0.6382752362204724
20
1.9345214173228347
11
0.6381694094488188
21
1.9345139370078739
0
LINE
8
BLACK
6
CONTINUOUS
10
0.6381694094488188
20
1.9345139370078739
11
0.6380714173228347
21
1.934473307086614
0
LINE
8
BLACK
6
CONTINUOUS
10
0.6380714173228347
20
1.934473307086614
11
0.6374953543307087
21
1.9344165748031497
0
LINE
8
BLACK
6
CONTINUOUS
10
0.6374953543307087
20
1.9344165748031497
11
0.6337458267716535
21
1.9344165748031497
0
LINE
8
BLACK
6
CONTINUOUS
10
0.6337458267716535
20
1.9344165748031497
11
0.6331697637795275
21
1.934473307086614
0
LINE
8
BLACK
6
CONTINUOUS
10
0.6331697637795275
20
1.934473307086614
11
0.6330717716535433
21
1.9345138976377951
0
LINE
8
BLACK
6
CONTINUOUS
10
0.6330717716535433
20
1.9345138976377951
11
0.632965905511811
21
1.9345214173228347
0
LINE
8
BLACK
6
CONTINUOUS
10
0.632965905511811
20
1.9345214173228347
11
0.6324253149606299
21
1.9347283070866141
0
LINE
8
BLACK
6
CONTINUOUS
10
0.6324253149606299
20
1.9347283070866141
11
0.6286757874015748
21
1.9366030708661417
0
LINE
8
BLACK
6
CONTINUOUS
10
0.6286757874015748
20
1.9366030708661417
11
0.6284277559055118
21
1.9367591732283465
0
LINE
8
BLACK
6
CONTINUOUS
10
0.6284277559055118
20
1.9367591732283465
11
0.6283558267716536
21
1.9367889763779527
0
LINE
8
BLACK
6
CONTINUOUS
10
0.6283558267716536
20
1.9367889763779527
11
0.628274842519685
21
1.9368554330708661
0
LINE
8
BLACK
6
CONTINUOUS
10
0.628274842519685
20
1.9368554330708661
11
0.628185905511811
21
1.9369114173228346
0
LINE
8
BLACK
6
CONTINUOUS
10
0.628185905511811
20
1.9369114173228346
11
0.6281346850393701
21
1.9369704724409449
0
LINE
8
BLACK
6
CONTINUOUS
10
0.6281346850393701
20
1.9369704724409449
11
0.6279083464566929
21
1.9371562204724408
0
LINE
8
BLACK
6
CONTINUOUS
10
0.6279083464566929
20
1.9371562204724408
11
0.6260335826771654
21
1.9390310236220472
0
LINE
8
BLACK
6
CONTINUOUS
10
0.6260335826771654
20
1.9390310236220472
11
0.6258478346456693
21
1.9392573622047244
0
LINE
8
BLACK
6
CONTINUOUS
10
0.6258478346456693
20
1.9392573622047244
11
0.6257888582677166
21
1.9393085039370079
0
LINE
8
BLACK
6
CONTINUOUS
10
0.6257888582677166
20
1.9393085039370079
11
0.6257328740157481
21
1.9393974409448818
0
LINE
8
BLACK
6
CONTINUOUS
10
0.6257328740157481
20
1.9393974409448818
11
0.6256663779527559
21
1.9394784645669292
0
LINE
8
BLACK
6
CONTINUOUS
10
0.6256663779527559
20
1.9394784645669292
11
0.6256365354330709
21
1.9395505118110237
0
LINE
8
BLACK
6
CONTINUOUS
10
0.6256365354330709
20
1.9395505118110237
11
0.6254805118110236
21
1.9397983858267716
0
LINE
8
BLACK
6
CONTINUOUS
10
0.6254805118110236
20
1.9397983858267716
11
0.623605748031496
21
1.9435479133858267
0
LINE
8
BLACK
6
CONTINUOUS
10
0.623605748031496
20
1.9435479133858267
11
0.6235896062992126
21
1.9435900393700787
0
LINE
8
BLACK
6
CONTINUOUS
10
0.6235896062992126
20
1.9435900393700787
11
0.6235769291338582
21
1.9436071653543308
0
LINE
8
BLACK
6
CONTINUOUS
10
0.6235769291338582
20
1.9436071653543308
11
0.6234904724409449
21
1.9438491338582677
0
LINE
8
BLACK
6
CONTINUOUS
10
0.6234904724409449
20
1.9438491338582677
11
0.6233988582677166
21
1.9440885433070865
0
LINE
8
BLACK
6
CONTINUOUS
10
0.6233988582677166
20
1.9440885433070865
11
0.6233973228346457
21
1.9441098031496062
0
LINE
8
BLACK
6
CONTINUOUS
10
0.6233973228346457
20
1.9441098031496062
11
0.6233821653543307
21
1.9441522834645668
0
LINE
8
BLACK
6
CONTINUOUS
10
0.6233821653543307
20
1.9441522834645668
11
0.6215074015748031
21
1.951651338582677
0
LINE
8
BLACK
6
CONTINUOUS
10
0.6215074015748031
20
1.951651338582677
11
0.6214925984251969
21
1.951751220472441
0
LINE
8
BLACK
6
CONTINUOUS
10
0.6214925984251969
20
1.951751220472441
11
0.6214759842519685
21
1.9517914173228346
0
LINE
8
BLACK
6
CONTINUOUS
10
0.6214759842519685
20
1.9517914173228346
11
0.6214546062992126
21
1.9520084645669291
0
LINE
8
BLACK
6
CONTINUOUS
10
0.6214546062992126
20
1.9520084645669291
11
0.6214227559055118
21
1.952223937007874
0
LINE
8
BLACK
6
CONTINUOUS
10
0.6214227559055118
20
1.952223937007874
11
0.6214291338582677
21
1.9522669685039369
0
LINE
8
BLACK
6
CONTINUOUS
10
0.6214291338582677
20
1.9522669685039369
11
0.6214192519685039
21
1.9523674803149607
0
LINE
8
BLACK
6
CONTINUOUS
10
0.6214192519685039
20
1.9523674803149607
11
0.6214192519685039
21
1.9617412992125984
0
LINE
8
BLACK
6
CONTINUOUS
10
0.6214192519685039
20
1.9617412992125984
11
0.6214291338582677
21
1.9618418503937007
0
LINE
8
BLACK
6
CONTINUOUS
10
0.6214291338582677
20
1.9618418503937007
11
0.6214227559055118
21
1.9618848425196851
0
LINE
8
BLACK
6
CONTINUOUS
10
0.6214227559055118
20
1.9618848425196851
11
0.6214546062992126
21
1.9621003543307085
0
LINE
8
BLACK
6
CONTINUOUS
10
0.6214546062992126
20
1.9621003543307085
11
0.6214759842519685
21
1.9623173622047243
0
LINE
8
BLACK
6
CONTINUOUS
10
0.6214759842519685
20
1.9623173622047243
11
0.6214925984251969
21
1.9623575984251969
0
LINE
8
BLACK
6
CONTINUOUS
10
0.6214925984251969
20
1.9623575984251969
11
0.6215074015748031
21
1.9624574409448818
0
LINE
8
BLACK
6
CONTINUOUS
10
0.6215074015748031
20
1.9624574409448818
11
0.6233821653543307
21
1.9699564960629921
0
LINE
8
BLACK
6
CONTINUOUS
10
0.6233821653543307
20
1.9699564960629921
11
0.6233973228346457
21
1.9699990157480314
0
LINE
8
BLACK
6
CONTINUOUS
10
0.6233973228346457
20
1.9699990157480314
11
0.6233988582677166
21
1.9700202362204724
0
LINE
8
BLACK
6
CONTINUOUS
10
0.6233988582677166
20
1.9700202362204724
11
0.6234904724409449
21
1.9702596850393701
0
LINE
8
BLACK
6
CONTINUOUS
10
0.6234904724409449
20
1.9702596850393701
11
0.6235769291338582
21
1.9705016141732283
0
LINE
8
BLACK
6
CONTINUOUS
10
0.6235769291338582
20
1.9705016141732283
11
0.6235896062992126
21
1.9705187795275589
0
LINE
8
BLACK
6
CONTINUOUS
10
0.6235896062992126
20
1.9705187795275589
11
0.623605748031496
21
1.9705608661417322
0
LINE
8
BLACK
6
CONTINUOUS
10
0.623605748031496
20
1.9705608661417322
11
0.6254805118110236
21
1.9743103937007873
0
LINE
8
BLACK
6
CONTINUOUS
10
0.6254805118110236
20
1.9743103937007873
11
0.6256365748031496
21
1.9745584251968504
0
LINE
8
BLACK
6
CONTINUOUS
10
0.6256365748031496
20
1.9745584251968504
11
0.6256664173228347
21
1.9746303543307087
0
LINE
8
BLACK
6
CONTINUOUS
10
0.6256664173228347
20
1.9746303543307087
11
0.6257328740157481
21
1.9747113385826771
0
LINE
8
BLACK
6
CONTINUOUS
10
0.6257328740157481
20
1.9747113385826771
11
0.6257888582677166
21
1.9748002755905512
0
LINE
8
BLACK
6
CONTINUOUS
10
0.6257888582677166
20
1.9748002755905512
11
0.6258478346456693
21
1.9748514566929134
0
LINE
8
BLACK
6
CONTINUOUS
10
0.6258478346456693
20
1.9748514566929134
11
0.6260336220472441
21
1.9750777952755905
0
LINE
8
BLACK
6
CONTINUOUS
10
0.6260336220472441
20
1.9750777952755905
11
0.6279083858267717
21
1.976952559055118
0
LINE
8
BLACK
6
CONTINUOUS
10
0.6279083858267717
20
1.976952559055118
11
0.6281347244094488
21
1.977138346456693
0
LINE
8
BLACK
6
CONTINUOUS
10
0.6281347244094488
20
1.977138346456693
11
0.628185905511811
21
1.9771973228346456
0
LINE
8
BLACK
6
CONTINUOUS
10
0.628185905511811
20
1.9771973228346456
11
0.628274842519685
21
1.9772533070866141
0
LINE
8
BLACK
6
CONTINUOUS
10
0.628274842519685
20
1.9772533070866141
11
0.6283558267716536
21
1.9773197637795275
0
LINE
8
BLACK
6
CONTINUOUS
10
0.6283558267716536
20
1.9773197637795275
11
0.6284277559055118
21
1.9773496062992126
0
LINE
8
BLACK
6
CONTINUOUS
10
0.6284277559055118
20
1.9773496062992126
11
0.6286757874015748
21
1.9775056692913386
0
LINE
8
BLACK
6
CONTINUOUS
10
0.6286757874015748
20
1.9775056692913386
11
0.6324253149606299
21
1.9793804330708662
0
LINE
8
BLACK
6
CONTINUOUS
10
0.6324253149606299
20
1.9793804330708662
11
0.632965905511811
21
1.9795873228346457
0
LINE
8
BLACK
6
CONTINUOUS
10
0.632965905511811
20
1.9795873228346457
11
0.6330717716535433
21
1.9795948818897637
0
LINE
8
BLACK
6
CONTINUOUS
10
0.6330717716535433
20
1.9795948818897637
11
0.6331697637795275
21
1.9796354330708661
0
LINE
8
BLACK
6
CONTINUOUS
10
0.6331697637795275
20
1.9796354330708661
11
0.6337458267716535
21
1.9796921653543307
0
LINE
8
BLACK
6
CONTINUOUS
10
0.6337458267716535
20
1.9796921653543307
11
0.6374953543307087
21
1.9796921653543307
0
LINE
8
BLACK
6
CONTINUOUS
10
0.6374953543307087
20
1.9796921653543307
11
0.6380714173228347
21
1.9796354330708661
0
LINE
8
BLACK
6
CONTINUOUS
10
0.6317453937007874
20
1.9724379133858267
11
0.6305482677165354
21
1.9712407874015747
0
LINE
8
BLACK
6
CONTINUOUS
10
0.6305482677165354
20
1.9712407874015747
11
0.6290327559055118
21
1.9682098031496063
0
LINE
8
BLACK
6
CONTINUOUS
10
0.6290327559055118
20
1.9682098031496063
11
0.6273247637795275
21
1.9613777559055117
0
LINE
8
BLACK
6
CONTINUOUS
10
0.6273247637795275
20
1.9613777559055117
11
0.6273247637795275
21
1.9527310236220472
0
LINE
8
BLACK
6
CONTINUOUS
10
0.6273247637795275
20
1.9527310236220472
11
0.6290327559055118
21
1.9458989763779526
0
LINE
8
BLACK
6
CONTINUOUS
10
0.6290327559055118
20
1.9458989763779526
11
0.6305482677165354
21
1.9428679921259842
0
LINE
8
BLACK
6
CONTINUOUS
10
0.6305482677165354
20
1.9428679921259842
11
0.6317453937007874
21
1.9416708267716536
0
LINE
8
BLACK
6
CONTINUOUS
10
0.6317453937007874
20
1.9416708267716536
11
0.6344428740157481
21
1.9403220866141733
0
LINE
8
BLACK
6
CONTINUOUS
10
0.6344428740157481
20
1.9403220866141733
11
0.6367983070866141
21
1.9403220866141733
0
LINE
8
BLACK
6
CONTINUOUS
10
0.6367983070866141
20
1.9403220866141733
11
0.639495748031496
21
1.9416708267716536
0
LINE
8
BLACK
6
CONTINUOUS
10
0.639495748031496
20
1.9416708267716536
11
0.640692874015748
21
1.9428679921259842
0
LINE
8
BLACK
6
CONTINUOUS
10
0.640692874015748
20
1.9428679921259842
11
0.6422083858267716
21
1.9458989763779526
0
LINE
8
BLACK
6
CONTINUOUS
10
0.6422083858267716
20
1.9458989763779526
11
0.6439164173228347
21
1.9527310236220472
0
LINE
8
BLACK
6
CONTINUOUS
10
0.6439164173228347
20
1.9527310236220472
11
0.6439164173228347
21
1.9613777559055117
0
LINE
8
BLACK
6
CONTINUOUS
10
0.6439164173228347
20
1.9613777559055117
11
0.6422083858267716
21
1.9682098031496063
0
LINE
8
BLACK
6
CONTINUOUS
10
0.6422083858267716
20
1.9682098031496063
11
0.6406929133858268
21
1.9712407874015747
0
LINE
8
BLACK
6
CONTINUOUS
10
0.6406929133858268
20
1.9712407874015747
11
0.6394957874015748
21
1.9724379133858267
0
LINE
8
BLACK
6
CONTINUOUS
10
0.6394957874015748
20
1.9724379133858267
11
0.6367983070866141
21
1.9737866535433071
0
LINE
8
BLACK
6
CONTINUOUS
10
0.6367983070866141
20
1.9737866535433071
11
0.6344428740157481
21
1.9737866535433071
0
LINE
8
BLACK
6
CONTINUOUS
10
0.6344428740157481
20
1.9737866535433071
11
0.6317453937007874
21
1.9724379133858267
0
LINE
8
BLACK
6
CONTINUOUS
10
0.4959333070866142
20
1.943872401574803
11
0.4966536220472441
21
1.9435740551181102
0
LINE
8
BLACK
6
CONTINUOUS
10
0.4966536220472441
20
1.9435740551181102
11
0.4966536614173228
21
1.9435740157480315
0
LINE
8
BLACK
6
CONTINUOUS
10
0.4966536614173228
20
1.9435740157480315
11
0.4971011417322835
21
1.9432067716535433
0
LINE
8
BLACK
6
CONTINUOUS
10
0.4971011417322835
20
1.9432067716535433
11
0.4989758661417323
21
1.9413320078740157
0
LINE
8
BLACK
6
CONTINUOUS
10
0.4989758661417323
20
1.9413320078740157
11
0.4993431102362205
21
1.9408845275590552
0
LINE
8
BLACK
6
CONTINUOUS
10
0.4993431102362205
20
1.9408845275590552
11
0.4997821653543307
21
1.9398244488188976
0
LINE
8
BLACK
6
CONTINUOUS
10
0.4997821653543307
20
1.9398244488188976
11
0.4997839763779527
21
1.9398201181102361
0
LINE
8
BLACK
6
CONTINUOUS
10
0.4997839763779527
20
1.9398201181102361
11
0.4997839763779527
21
1.9386680314960629
0
LINE
8
BLACK
6
CONTINUOUS
10
0.4997839763779527
20
1.9386680314960629
11
0.4993430708661417
21
1.9376036220472441
0
LINE
8
BLACK
6
CONTINUOUS
10
0.4993430708661417
20
1.9376036220472441
11
0.4989758661417323
21
1.9371561811023621
0
LINE
8
BLACK
6
CONTINUOUS
10
0.4989758661417323
20
1.9371561811023621
11
0.4971011023622047
21
1.9352814173228345
0
LINE
8
BLACK
6
CONTINUOUS
10
0.4971011023622047
20
1.9352814173228345
11
0.4966536614173228
21
1.9349142125984251
0
LINE
8
BLACK
6
CONTINUOUS
10
0.4966536614173228
20
1.9349142125984251
11
0.495589251968504
21
1.934473307086614
0
LINE
8
BLACK
6
CONTINUOUS
10
0.495589251968504
20
1.934473307086614
11
0.4955892125984252
21
1.934473307086614
0
LINE
8
BLACK
6
CONTINUOUS
10
0.4955892125984252
20
1.934473307086614
11
0.4944371653543307
21
1.934473307086614
0
LINE
8
BLACK
6
CONTINUOUS
10
0.4944371653543307
20
1.934473307086614
11
0.4944371259842519
21
1.934473307086614
0
LINE
8
BLACK
6
CONTINUOUS
10
0.4944371259842519
20
1.934473307086614
11
0.4933727165354331
21
1.9349142125984251
0
LINE
8
BLACK
6
CONTINUOUS
10
0.4933727165354331
20
1.9349142125984251
11
0.4929252755905512
21
1.9352814173228345
0
LINE
8
BLACK
6
CONTINUOUS
10
0.4929252755905512
20
1.9352814173228345
11
0.4910505118110236
21
1.9371561811023621
0
LINE
8
BLACK
6
CONTINUOUS
10
0.4910505118110236
20
1.9371561811023621
11
0.4906833070866142
21
1.9376036220472441
0
LINE
8
BLACK
6
CONTINUOUS
10
0.4906833070866142
20
1.9376036220472441
11
0.4904407086614173
21
1.9381893307086613
0
LINE
8
BLACK
6
CONTINUOUS
10
0.4904407086614173
20
1.9381893307086613
11
0.4902424015748031
21
1.9386680314960629
0
LINE
8
BLACK
6
CONTINUOUS
10
0.4902424015748031
20
1.9386680314960629
11
0.4902424015748031
21
1.9398201181102361
0
LINE
8
BLACK
6
CONTINUOUS
10
0.4902424015748031
20
1.9398201181102361
11
0.4906832677165354
21
1.9408845275590552
0
LINE
8
BLACK
6
CONTINUOUS
10
0.4906832677165354
20
1.9408845275590552
11
0.4910504724409449
21
1.941331968503937
0
LINE
8
BLACK
6
CONTINUOUS
10
0.4910504724409449
20
1.941331968503937
11
0.4929252362204724
21
1.9432067716535433
0
LINE
8
BLACK
6
CONTINUOUS
10
0.4929252362204724
20
1.9432067716535433
11
0.4933727165354331
21
1.9435740157480315
0
LINE
8
BLACK
6
CONTINUOUS
10
0.4933727165354331
20
1.9435740157480315
11
0.4933727559055118
21
1.9435740551181102
0
LINE
8
BLACK
6
CONTINUOUS
10
0.4933727559055118
20
1.9435740551181102
11
0.4940930708661417
21
1.943872401574803
0
LINE
8
BLACK
6
CONTINUOUS
10
0.4940930708661417
20
1.943872401574803
11
0.4944371259842519
21
1.9440149212598425
0
LINE
8
BLACK
6
CONTINUOUS
10
0.4944371259842519
20
1.9440149212598425
11
0.4955892125984252
21
1.9440149212598425
0
LINE
8
BLACK
6
CONTINUOUS
10
0.4955892125984252
20
1.9440149212598425
11
0.495589251968504
21
1.9440149212598425
0
LINE
8
BLACK
6
CONTINUOUS
10
0.495589251968504
20
1.9440149212598425
11
0.4959333070866142
21
1.943872401574803
0
LINE
8
BLACK
6
CONTINUOUS
10
0.7055629921259843
20
1.9665120866141732
11
0.7056609842519684
21
1.9664714960629921
0
LINE
8
BLACK
6
CONTINUOUS
10
0.7056609842519684
20
1.9664714960629921
11
0.705766811023622
21
1.9664639763779528
0
LINE
8
BLACK
6
CONTINUOUS
10
0.705766811023622
20
1.9664639763779528
11
0.7063074409448818
21
1.9662570866141731
0
LINE
8
BLACK
6
CONTINUOUS
10
0.7063074409448818
20
1.9662570866141731
11
0.710056968503937
21
1.9643823228346455
0
LINE
8
BLACK
6
CONTINUOUS
10
0.710056968503937
20
1.9643823228346455
11
0.7101533070866142
21
1.9643216929133858
0
LINE
8
BLACK
6
CONTINUOUS
10
0.7101533070866142
20
1.9643216929133858
11
0.7101987401574803
21
1.9643065354330709
0
LINE
8
BLACK
6
CONTINUOUS
10
0.7101987401574803
20
1.9643065354330709
11
0.7102552755905511
21
1.9642575196850394
0
LINE
8
BLACK
6
CONTINUOUS
10
0.7102552755905511
20
1.9642575196850394
11
0.7105468503937008
21
1.9640739763779527
0
LINE
8
BLACK
6
CONTINUOUS
10
0.7105468503937008
20
1.9640739763779527
11
0.710611220472441
21
1.9639997637795275
0
LINE
8
BLACK
6
CONTINUOUS
10
0.710611220472441
20
1.9639997637795275
11
0.7106755905511811
21
1.9640739763779527
0
LINE
8
BLACK
6
CONTINUOUS
10
0.7106755905511811
20
1.9640739763779527
11
0.7109671259842519
21
1.9642575196850394
0
LINE
8
BLACK
6
CONTINUOUS
10
0.7109671259842519
20
1.9642575196850394
11
0.7110237007874015
21
1.9643065354330709
0
LINE
8
BLACK
6
CONTINUOUS
10
0.7110237007874015
20
1.9643065354330709
11
0.711069094488189
21
1.9643216929133858
0
LINE
8
BLACK
6
CONTINUOUS
10
0.711069094488189
20
1.9643216929133858
11
0.7111654724409449
21
1.9643823228346455
0
LINE
8
BLACK
6
CONTINUOUS
10
0.7111654724409449
20
1.9643823228346455
11
0.714915
21
1.9662570866141731
0
LINE
8
BLACK
6
CONTINUOUS
10
0.714915
20
1.9662570866141731
11
0.7154555905511811
21
1.9664639763779528
0
LINE
8
BLACK
6
CONTINUOUS
10
0.7154555905511811
20
1.9664639763779528
11
0.7155614566929134
21
1.9664715354330708
0
LINE
8
BLACK
6
CONTINUOUS
10
0.7155614566929134
20
1.9664715354330708
11
0.7156594488188976
21
1.9665120866141732
0
LINE
8
BLACK
6
CONTINUOUS
10
0.7156594488188976
20
1.9665120866141732
11
0.7162355118110236
21
1.9665688188976378
0
LINE
8
BLACK
6
CONTINUOUS
10
0.7162355118110236
20
1.9665688188976378
11
0.7218598031496063
21
1.9665688188976378
0
LINE
8
BLACK
6
CONTINUOUS
10
0.7218598031496063
20
1.9665688188976378
11
0.7224358661417323
21
1.9665120866141732
0
LINE
8
BLACK
6
CONTINUOUS
10
0.7224358661417323
20
1.9665120866141732
11
0.7225338582677165
21
1.9664714960629921
0
LINE
8
BLACK
6
CONTINUOUS
10
0.7225338582677165
20
1.9664714960629921
11
0.72263968503937
21
1.9664639763779528
0
LINE
8
BLACK
6
CONTINUOUS
10
0.72263968503937
20
1.9664639763779528
11
0.72318031496063
21
1.9662570866141731
0
LINE
8
BLACK
6
CONTINUOUS
10
0.72318031496063
20
1.9662570866141731
11
0.7269298818897638
21
1.9643823228346455
0
LINE
8
BLACK
6
CONTINUOUS
10
0.7269298818897638
20
1.9643823228346455
11
0.7270261811023622
21
1.9643216929133858
0
LINE
8
BLACK
6
CONTINUOUS
10
0.7270261811023622
20
1.9643216929133858
11
0.7270716535433071
21
1.9643065354330709
0
LINE
8
BLACK
6
CONTINUOUS
10
0.7270716535433071
20
1.9643065354330709
11
0.7271282283464566
21
1.9642574803149606
0
LINE
8
BLACK
6
CONTINUOUS
10
0.7271282283464566
20
1.9642574803149606
11
0.7274197244094488
21
1.9640739763779527
0
LINE
8
BLACK
6
CONTINUOUS
10
0.7274197244094488
20
1.9640739763779527
11
0.7276622047244095
21
1.9637943700787401
0
LINE
8
BLACK
6
CONTINUOUS
10
0.7276622047244095
20
1.9637943700787401
11
0.7279420472440945
21
1.9635516929133858
0
LINE
8
BLACK
6
CONTINUOUS
10
0.7279420472440945
20
1.9635516929133858
11
0.7281255511811023
21
1.963260157480315
0
LINE
8
BLACK
6
CONTINUOUS
10
0.7281255511811023
20
1.963260157480315
11
0.7281746062992126
21
1.9632035826771652
0
LINE
8
BLACK
6
CONTINUOUS
10
0.7281746062992126
20
1.9632035826771652
11
0.7281897244094488
21
1.9631581889763778
0
LINE
8
BLACK
6
CONTINUOUS
10
0.7281897244094488
20
1.9631581889763778
11
0.7282503937007874
21
1.963061811023622
0
LINE
8
BLACK
6
CONTINUOUS
10
0.7282503937007874
20
1.963061811023622
11
0.7301251574803149
21
1.9593122834645669
0
LINE
8
BLACK
6
CONTINUOUS
10
0.7301251574803149
20
1.9593122834645669
11
0.7303320472440945
21
1.9587716929133858
0
LINE
8
BLACK
6
CONTINUOUS
10
0.7303320472440945
20
1.9587716929133858
11
0.7303395669291338
21
1.9586658267716535
0
LINE
8
BLACK
6
CONTINUOUS
10
0.7303395669291338
20
1.9586658267716535
11
0.7303801574803149
21
1.9585678346456692
0
LINE
8
BLACK
6
CONTINUOUS
10
0.7303801574803149
20
1.9585678346456692
11
0.7304368897637795
21
1.9579917716535433
0
LINE
8
BLACK
6
CONTINUOUS
10
0.7304368897637795
20
1.9579917716535433
11
0.7304368897637795
21
1.9373693307086615
0
LINE
8
BLACK
6
CONTINUOUS
10
0.7304368897637795
20
1.9373693307086615
11
0.7303801574803149
21
1.9367932677165354
0
LINE
8
BLACK
6
CONTINUOUS
10
0.7303801574803149
20
1.9367932677165354
11
0.729939251968504
21
1.9357288582677166
0
LINE
8
BLACK
6
CONTINUOUS
10
0.729939251968504
20
1.9357288582677166
11
0.7291246062992126
21
1.9349142125984251
0
LINE
8
BLACK
6
CONTINUOUS
10
0.7291246062992126
20
1.9349142125984251
11
0.7280601968503937
21
1.934473307086614
0
LINE
8
BLACK
6
CONTINUOUS
10
0.7280601968503937
20
1.934473307086614
11
0.7269080708661417
21
1.934473307086614
0
LINE
8
BLACK
6
CONTINUOUS
10
0.7269080708661417
20
1.934473307086614
11
0.7258436614173228
21
1.9349142125984251
0
LINE
8
BLACK
6
CONTINUOUS
10
0.7258436614173228
20
1.9349142125984251
11
0.7250290157480315
21
1.9357288582677166
0
LINE
8
BLACK
6
CONTINUOUS
10
0.7250290157480315
20
1.9357288582677166
11
0.7245881102362205
21
1.9367932677165354
0
LINE
8
BLACK
6
CONTINUOUS
10
0.7245881102362205
20
1.9367932677165354
11
0.7245313779527559
21
1.9373693307086615
0
LINE
8
BLACK
6
CONTINUOUS
10
0.7245313779527559
20
1.9373693307086615
11
0.7245313779527559
21
1.9572947244094487
0
LINE
8
BLACK
6
CONTINUOUS
10
0.7245313779527559
20
1.9572947244094487
11
0.7234085039370078
21
1.9595404724409449
0
LINE
8
BLACK
6
CONTINUOUS
10
0.7234085039370078
20
1.9595404724409449
11
0.7211627559055118
21
1.9606633070866142
0
LINE
8
BLACK
6
CONTINUOUS
10
0.7211627559055118
20
1.9606633070866142
11
0.7169325590551181
21
1.9606633070866142
0
LINE
8
BLACK
6
CONTINUOUS
10
0.7169325590551181
20
1.9606633070866142
11
0.7146868110236221
21
1.9595404724409449
0
LINE
8
BLACK
6
CONTINUOUS
10
0.7146868110236221
20
1.9595404724409449
11
0.7135639763779528
21
1.9572947244094487
0
LINE
8
BLACK
6
CONTINUOUS
10
0.7135639763779528
20
1.9572947244094487
11
0.7135639763779528
21
1.9373693307086615
0
LINE
8
BLACK
6
CONTINUOUS
10
0.7135639763779528
20
1.9373693307086615
11
0.7135072440944882
21
1.9367932677165354
0
LINE
8
BLACK
6
CONTINUOUS
10
0.7135072440944882
20
1.9367932677165354
11
0.7130663385826771
21
1.9357288582677166
0
LINE
8
BLACK
6
CONTINUOUS
10
0.7130663385826771
20
1.9357288582677166
11
0.7122516929133859
21
1.9349142125984251
0
LINE
8
BLACK
6
CONTINUOUS
10
0.7122516929133859
20
1.9349142125984251
11
0.7111872834645669
21
1.934473307086614
0
LINE
8
BLACK
6
CONTINUOUS
10
0.7111872834645669
20
1.934473307086614
11
0.710035157480315
21
1.934473307086614
0
LINE
8
BLACK
6
CONTINUOUS
10
0.710035157480315
20
1.934473307086614
11
0.7089707480314961
21
1.9349142125984251
0
LINE
8
BLACK
6
CONTINUOUS
10
0.7089707480314961
20
1.9349142125984251
11
0.7081561023622047
21
1.9357288582677166
0
LINE
8
BLACK
6
CONTINUOUS
10
0.7081561023622047
20
1.9357288582677166
11
0.7077151968503936
21
1.9367932677165354
0
LINE
8
BLACK
6
CONTINUOUS
10
0.7077151968503936
20
1.9367932677165354
11
0.7076584645669292
21
1.9373693307086615
0
LINE
8
BLACK
6
CONTINUOUS
10
0.7076584645669292
20
1.9373693307086615
11
0.7076584645669292
21
1.9572947244094487
0
LINE
8
BLACK
6
CONTINUOUS
10
0.7076584645669292
20
1.9572947244094487
11
0.7065355905511811
21
1.9595404724409449
0
LINE
8
BLACK
6
CONTINUOUS
10
0.7065355905511811
20
1.9595404724409449
11
0.7042898818897637
21
1.9606633070866142
0
LINE
8
BLACK
6
CONTINUOUS
10
0.7042898818897637
20
1.9606633070866142
11
0.7000596850393701
21
1.9606633070866142
0
LINE
8
BLACK
6
CONTINUOUS
10
0.7000596850393701
20
1.9606633070866142
11
0.6973622047244095
21
1.9593145669291339
0
LINE
8
BLACK
6
CONTINUOUS
10
0.6973622047244095
20
1.9593145669291339
11
0.6966911023622047
21
1.9586434645669291
0
LINE
8
BLACK
6
CONTINUOUS
10
0.6966911023622047
20
1.9586434645669291
11
0.6966911023622047
21
1.9373693307086615
0
LINE
8
BLACK
6
CONTINUOUS
10
0.6966911023622047
20
1.9373693307086615
11
0.6966343700787402
21
1.9367932677165354
0
LINE
8
BLACK
6
CONTINUOUS
10
0.6966343700787402
20
1.9367932677165354
11
0.6961934645669291
21
1.9357288582677166
0
LINE
8
BLACK
6
CONTINUOUS
10
0.6961934645669291
20
1.9357288582677166
11
0.6953788188976378
21
1.9349142125984251
0
LINE
8
BLACK
6
CONTINUOUS
10
0.6953788188976378
20
1.9349142125984251
11
0.6943144094488188
21
1.934473307086614
0
LINE
8
BLACK
6
CONTINUOUS
10
0.6943144094488188
20
1.934473307086614
11
0.6931622834645669
21
1.934473307086614
0
LINE
8
BLACK
6
CONTINUOUS
10
0.6931622834645669
20
1.934473307086614
11
0.692097874015748
21
1.9349142125984251
0
LINE
8
BLACK
6
CONTINUOUS
10
0.692097874015748
20
1.9349142125984251
11
0.6912832283464567
21
1.9357288582677166
0
LINE
8
BLACK
6
CONTINUOUS
10
0.6912832283464567
20
1.9357288582677166
11
0.6908423228346456
21
1.9367932677165354
0
LINE
8
BLACK
6
CONTINUOUS
10
0.6908423228346456
20
1.9367932677165354
11
0.6907855905511811
21
1.9373693307086615
0
LINE
8
BLACK
6
CONTINUOUS
10
0.6907855905511811
20
1.9373693307086615
11
0.6907855905511811
21
1.963616062992126
0
LINE
8
BLACK
6
CONTINUOUS
10
0.6907855905511811
20
1.963616062992126
11
0.6908423228346456
21
1.9641921259842519
0
LINE
8
BLACK
6
CONTINUOUS
10
0.6908423228346456
20
1.9641921259842519
11
0.6912832283464567
21
1.9652565354330709
0
LINE
8
BLACK
6
CONTINUOUS
10
0.6912832283464567
20
1.9652565354330709
11
0.692097874015748
21
1.9660711811023621
0
LINE
8
BLACK
6
CONTINUOUS
10
0.692097874015748
20
1.9660711811023621
11
0.6931622834645669
21
1.9665120866141732
0
LINE
8
BLACK
6
CONTINUOUS
10
0.6931622834645669
20
1.9665120866141732
11
0.6943144094488188
21
1.9665120866141732
0
LINE
8
BLACK
6
CONTINUOUS
10
0.6943144094488188
20
1.9665120866141732
11
0.6953788188976378
21
1.9660711811023621
0
LINE
8
BLACK
6
CONTINUOUS
10
0.6953788188976378
20
1.9660711811023621
11
0.6961426377952755
21
1.9653073622047244
0
LINE
8
BLACK
6
CONTINUOUS
10
0.6961426377952755
20
1.9653073622047244
11
0.698042125984252
21
1.9662570866141731
0
LINE
8
BLACK
6
CONTINUOUS
10
0.698042125984252
20
1.9662570866141731
11
0.698582716535433
21
1.9664639763779528
0
LINE
8
BLACK
6
CONTINUOUS
10
0.698582716535433
20
1.9664639763779528
11
0.6986885826771654
21
1.9664715354330708
0
LINE
8
BLACK
6
CONTINUOUS
10
0.6986885826771654
20
1.9664715354330708
11
0.6987865748031495
21
1.9665120866141732
0
LINE
8
BLACK
6
CONTINUOUS
10
0.6987865748031495
20
1.9665120866141732
11
0.6993626377952755
21
1.9665688188976378
0
LINE
8
BLACK
6
CONTINUOUS
10
0.6993626377952755
20
1.9665688188976378
11
0.7049869291338583
21
1.9665688188976378
0
LINE
8
BLACK
6
CONTINUOUS
10
0.7049869291338583
20
1.9665688188976378
11
0.7055629921259843
21
1.9665120866141732
0
LINE
8
BLACK
6
CONTINUOUS
10
0.7580564173228346
20
1.9665120866141732
11
0.7581544094488188
21
1.9664714960629921
0
LINE
8
BLACK
6
CONTINUOUS
10
0.7581544094488188
20
1.9664714960629921
11
0.7582602362204724
21
1.9664639763779528
0
LINE
8
BLACK
6
CONTINUOUS
10
0.7582602362204724
20
1.9664639763779528
11
0.7588008661417323
21
1.9662570866141731
0
LINE
8
BLACK
6
CONTINUOUS
10
0.7588008661417323
20
1.9662570866141731
11
0.7625503937007874
21
1.9643823228346455
0
LINE
8
BLACK
6
CONTINUOUS
10
0.7625503937007874
20
1.9643823228346455
11
0.7626467322834646
21
1.9643216929133858
0
LINE
8
BLACK
6
CONTINUOUS
10
0.7626467322834646
20
1.9643216929133858
11
0.7626921653543307
21
1.9643065354330709
0
LINE
8
BLACK
6
CONTINUOUS
10
0.7626921653543307
20
1.9643065354330709
11
0.7627487007874015
21
1.9642575196850394
0
LINE
8
BLACK
6
CONTINUOUS
10
0.7627487007874015
20
1.9642575196850394
11
0.7630402755905512
21
1.9640739763779527
0
LINE
8
BLACK
6
CONTINUOUS
10
0.7630402755905512
20
1.9640739763779527
11
0.7631046456692914
21
1.9639997637795275
0
LINE
8
BLACK
6
CONTINUOUS
10
0.7631046456692914
20
1.9639997637795275
11
0.7631690157480315
21
1.9640739763779527
0
LINE
8
BLACK
6
CONTINUOUS
10
0.7631690157480315
20
1.9640739763779527
11
0.7634605511811023
21
1.9642575196850394
0
LINE
8
BLACK
6
CONTINUOUS
10
0.7634605511811023
20
1.9642575196850394
11
0.7635171259842519
21
1.9643065354330709
0
LINE
8
BLACK
6
CONTINUOUS
10
0.7635171259842519
20
1.9643065354330709
11
0.7635625196850393
21
1.9643216929133858
0
LINE
8
BLACK
6
CONTINUOUS
10
0.7635625196850393
20
1.9643216929133858
11
0.7636588976377953
21
1.9643823228346455
0
LINE
8
BLACK
6
CONTINUOUS
10
0.7636588976377953
20
1.9643823228346455
11
0.7674084251968504
21
1.9662570866141731
0
LINE
8
BLACK
6
CONTINUOUS
10
0.7674084251968504
20
1.9662570866141731
11
0.7679490157480314
21
1.9664639763779528
0
LINE
8
BLACK
6
CONTINUOUS
10
0.7679490157480314
20
1.9664639763779528
11
0.7680548818897638
21
1.9664715354330708
0
LINE
8
BLACK
6
CONTINUOUS
10
0.7680548818897638
20
1.9664715354330708
11
0.7681528740157481
21
1.9665120866141732
0
LINE
8
BLACK
6
CONTINUOUS
10
0.7681528740157481
20
1.9665120866141732
11
0.768728937007874
21
1.9665688188976378
0
LINE
8
BLACK
6
CONTINUOUS
10
0.768728937007874
20
1.9665688188976378
11
0.7743532283464567
21
1.9665688188976378
0
LINE
8
BLACK
6
CONTINUOUS
10
0.7743532283464567
20
1.9665688188976378
11
0.7749292913385827
21
1.9665120866141732
0
LINE
8
BLACK
6
CONTINUOUS
10
0.7749292913385827
20
1.9665120866141732
11
0.775027283464567
21
1.9664714960629921
0
LINE
8
BLACK
6
CONTINUOUS
10
0.775027283464567
20
1.9664714960629921
11
0.7751331102362204
21
1.9664639763779528
0
LINE
8
BLACK
6
CONTINUOUS
10
0.7751331102362204
20
1.9664639763779528
11
0.7756737401574803
21
1.9662570866141731
0
LINE
8
BLACK
6
CONTINUOUS
10
0.7756737401574803
20
1.9662570866141731
11
0.7794233070866141
21
1.9643823228346455
0
LINE
8
BLACK
6
CONTINUOUS
10
0.7794233070866141
20
1.9643823228346455
11
0.7795196062992126
21
1.9643216929133858
0
LINE
8
BLACK
6
CONTINUOUS
10
0.7795196062992126
20
1.9643216929133858
11
0.7795650787401575
21
1.9643065354330709
0
LINE
8
BLACK
6
CONTINUOUS
10
0.7795650787401575
20
1.9643065354330709
11
0.779621653543307
21
1.9642574803149606
0
LINE
8
BLACK
6
CONTINUOUS
10
0.779621653543307
20
1.9642574803149606
11
0.7799131496062992
21
1.9640739763779527
0
LINE
8
BLACK
6
CONTINUOUS
10
0.7799131496062992
20
1.9640739763779527
11
0.7801556299212599
21
1.9637943700787401
0
LINE
8
BLACK
6
CONTINUOUS
10
0.7801556299212599
20
1.9637943700787401
11
0.7804354724409449
21
1.9635516929133858
0
LINE
8
BLACK
6
CONTINUOUS
10
0.7804354724409449
20
1.9635516929133858
11
0.7806189763779527
21
1.963260157480315
0
LINE
8
BLACK
6
CONTINUOUS
10
0.7806189763779527
20
1.963260157480315
11
0.780668031496063
21
1.9632035826771652
0
LINE
8
BLACK
6
CONTINUOUS
10
0.780668031496063
20
1.9632035826771652
11
0.7806831496062991
21
1.9631581889763778
0
LINE
8
BLACK
6
CONTINUOUS
10
0.7806831496062991
20
1.9631581889763778
11
0.7807438188976378
21
1.963061811023622
0
LINE
8
BLACK
6
CONTINUOUS
10
0.7807438188976378
20
1.963061811023622
11
0.7826185826771653
21
1.9593122834645669
0
LINE
8
BLACK
6
CONTINUOUS
10
0.7826185826771653
20
1.9593122834645669
11
0.7828254724409449
21
1.9587716929133858
0
LINE
8
BLACK
6
CONTINUOUS
10
0.7828254724409449
20
1.9587716929133858
11
0.7828329921259842
21
1.9586658267716535
0
LINE
8
BLACK
6
CONTINUOUS
10
0.7828329921259842
20
1.9586658267716535
11
0.7828735826771653
21
1.9585678346456692
0
LINE
8
BLACK
6
CONTINUOUS
10
0.7828735826771653
20
1.9585678346456692
11
0.7829303149606299
21
1.9579917716535433
0
LINE
8
BLACK
6
CONTINUOUS
10
0.7829303149606299
20
1.9579917716535433
11
0.7829303149606299
21
1.9373693307086615
0
LINE
8
BLACK
6
CONTINUOUS
10
0.7829303149606299
20
1.9373693307086615
11
0.7828735826771653
21
1.9367932677165354
0
LINE
8
BLACK
6
CONTINUOUS
10
0.7828735826771653
20
1.9367932677165354
11
0.7824326771653544
21
1.9357288582677166
0
LINE
8
BLACK
6
CONTINUOUS
10
0.7824326771653544
20
1.9357288582677166
11
0.781618031496063
21
1.9349142125984251
0
LINE
8
BLACK
6
CONTINUOUS
10
0.781618031496063
20
1.9349142125984251
11
0.7805536220472441
21
1.934473307086614
0
LINE
8
BLACK
6
CONTINUOUS
10
0.7805536220472441
20
1.934473307086614
11
0.7794014960629921
21
1.934473307086614
0
LINE
8
BLACK
6
CONTINUOUS
10
0.7794014960629921
20
1.934473307086614
11
0.7783370866141732
21
1.9349142125984251
0
LINE
8
BLACK
6
CONTINUOUS
10
0.7783370866141732
20
1.9349142125984251
11
0.7775224409448819
21
1.9357288582677166
0
LINE
8
BLACK
6
CONTINUOUS
10
0.7775224409448819
20
1.9357288582677166
11
0.7770815354330709
21
1.9367932677165354
0
LINE
8
BLACK
6
CONTINUOUS
10
0.7770815354330709
20
1.9367932677165354
11
0.7770248031496063
21
1.9373693307086615
0
LINE
8
BLACK
6
CONTINUOUS
10
0.7770248031496063
20
1.9373693307086615
11
0.7770248031496063
21
1.9572947244094487
0
LINE
8
BLACK
6
CONTINUOUS
10
0.7770248031496063
20
1.9572947244094487
11
0.7759019291338582
21
1.9595404724409449
0
LINE
8
BLACK
6
CONTINUOUS
10
0.7759019291338582
20
1.9595404724409449
11
0.7736561811023622
21
1.9606633070866142
0
LINE
8
BLACK
6
CONTINUOUS
10
0.7736561811023622
20
1.9606633070866142
11
0.7694259842519685
21
1.9606633070866142
0
LINE
8
BLACK
6
CONTINUOUS
10
0.7694259842519685
20
1.9606633070866142
11
0.7671802362204724
21
1.9595404724409449
0
LINE
8
BLACK
6
CONTINUOUS
10
0.7671802362204724
20
1.9595404724409449
11
0.7660574015748032
21
1.9572947244094487
0
LINE
8
BLACK
6
CONTINUOUS
10
0.7660574015748032
20
1.9572947244094487
11
0.7660574015748032
21
1.9373693307086615
0
LINE
8
BLACK
6
CONTINUOUS
10
0.7660574015748032
20
1.9373693307086615
11
0.7660006692913386
21
1.9367932677165354
0
LINE
8
BLACK
6
CONTINUOUS
10
0.7660006692913386
20
1.9367932677165354
11
0.7655597637795275
21
1.9357288582677166
0
LINE
8
BLACK
6
CONTINUOUS
10
0.7655597637795275
20
1.9357288582677166
11
0.7647451181102362
21
1.9349142125984251
0
LINE
8
BLACK
6
CONTINUOUS
10
0.7647451181102362
20
1.9349142125984251
11
0.7636807086614174
21
1.934473307086614
0
LINE
8
BLACK
6
CONTINUOUS
10
0.7636807086614174
20
1.934473307086614
11
0.7625285826771654
21
1.934473307086614
0
LINE
8
BLACK
6
CONTINUOUS
10
0.7625285826771654
20
1.934473307086614
11
0.7614641732283465
21
1.9349142125984251
0
LINE
8
BLACK
6
CONTINUOUS
10
0.7614641732283465
20
1.9349142125984251
11
0.7606495275590551
21
1.9357288582677166
0
LINE
8
BLACK
6
CONTINUOUS
10
0.7606495275590551
20
1.9357288582677166
11
0.760208622047244
21
1.9367932677165354
0
LINE
8
BLACK
6
CONTINUOUS
10
0.760208622047244
20
1.9367932677165354
11
0.7601518897637796
21
1.9373693307086615
0
LINE
8
BLACK
6
CONTINUOUS
10
0.7601518897637796
20
1.9373693307086615
11
0.7601518897637796
21
1.9572947244094487
0
LINE
8
BLACK
6
CONTINUOUS
10
0.7601518897637796
20
1.9572947244094487
11
0.7590290157480315
21
1.9595404724409449
0
LINE
8
BLACK
6
CONTINUOUS
10
0.7590290157480315
20
1.9595404724409449
11
0.7567833070866141
21
1.9606633070866142
0
LINE
8
BLACK
6
CONTINUOUS
10
0.7567833070866141
20
1.9606633070866142
11
0.7525531102362204
21
1.9606633070866142
0
LINE
8
BLACK
6
CONTINUOUS
10
0.7525531102362204
20
1.9606633070866142
11
0.7498556299212599
21
1.9593145669291339
0
LINE
8
BLACK
6
CONTINUOUS
10
0.7498556299212599
20
1.9593145669291339
11
0.7491845275590551
21
1.9586434645669291
0
LINE
8
BLACK
6
CONTINUOUS
10
0.7491845275590551
20
1.9586434645669291
11
0.7491845275590551
21
1.9373693307086615
0
LINE
8
BLACK
6
CONTINUOUS
10
0.7491845275590551
20
1.9373693307086615
11
0.7491277952755905
21
1.9367932677165354
0
LINE
8
BLACK
6
CONTINUOUS
10
0.7491277952755905
20
1.9367932677165354
11
0.7486868897637795
21
1.9357288582677166
0
LINE
8
BLACK
6
CONTINUOUS
10
0.7486868897637795
20
1.9357288582677166
11
0.7478722440944882
21
1.9349142125984251
0
LINE
8
BLACK
6
CONTINUOUS
10
0.7478722440944882
20
1.9349142125984251
11
0.7468078346456692
21
1.934473307086614
0
LINE
8
BLACK
6
CONTINUOUS
10
0.7468078346456692
20
1.934473307086614
11
0.7456557086614173
21
1.934473307086614
0
LINE
8
BLACK
6
CONTINUOUS
10
0.7456557086614173
20
1.934473307086614
11
0.7445912992125984
21
1.9349142125984251
0
LINE
8
BLACK
6
CONTINUOUS
10
0.7445912992125984
20
1.9349142125984251
11
0.743776653543307
21
1.9357288582677166
0
LINE
8
BLACK
6
CONTINUOUS
10
0.743776653543307
20
1.9357288582677166
11
0.743335748031496
21
1.9367932677165354
0
LINE
8
BLACK
6
CONTINUOUS
10
0.743335748031496
20
1.9367932677165354
11
0.7432790157480315
21
1.9373693307086615
0
LINE
8
BLACK
6
CONTINUOUS
10
0.7432790157480315
20
1.9373693307086615
11
0.7432790157480315
21
1.963616062992126
0
LINE
8
BLACK
6
CONTINUOUS
10
0.7432790157480315
20
1.963616062992126
11
0.743335748031496
21
1.9641921259842519
0
LINE
8
BLACK
6
CONTINUOUS
10
0.743335748031496
20
1.9641921259842519
11
0.743776653543307
21
1.9652565354330709
0
LINE
8
BLACK
6
CONTINUOUS
10
0.743776653543307
20
1.9652565354330709
11
0.7445912992125984
21
1.9660711811023621
0
LINE
8
BLACK
6
CONTINUOUS
10
0.7445912992125984
20
1.9660711811023621
11
0.7456557086614173
21
1.9665120866141732
0
LINE
8
BLACK
6
CONTINUOUS
10
0.7456557086614173
20
1.9665120866141732
11
0.7468078346456692
21
1.9665120866141732
0
LINE
8
BLACK
6
CONTINUOUS
10
0.7468078346456692
20
1.9665120866141732
11
0.7478722440944882
21
1.9660711811023621
0
LINE
8
BLACK
6
CONTINUOUS
10
0.7478722440944882
20
1.9660711811023621
11
0.7486360629921259
21
1.9653073622047244
0
LINE
8
BLACK
6
CONTINUOUS
10
0.7486360629921259
20
1.9653073622047244
11
0.7505355511811024
21
1.9662570866141731
0
LINE
8
BLACK
6
CONTINUOUS
10
0.7505355511811024
20
1.9662570866141731
11
0.7510761417322834
21
1.9664639763779528
0
LINE
8
BLACK
6
CONTINUOUS
10
0.7510761417322834
20
1.9664639763779528
11
0.7511820078740157
21
1.9664715354330708
0
LINE
8
BLACK
6
CONTINUOUS
10
0.7511820078740157
20
1.9664715354330708
11
0.7512799999999999
21
1.9665120866141732
0
LINE
8
BLACK
6
CONTINUOUS
10
0.7512799999999999
20
1.9665120866141732
11
0.7518560629921259
21
1.9665688188976378
0
LINE
8
BLACK
6
CONTINUOUS
10
0.7518560629921259
20
1.9665688188976378
11
0.7574803543307086
21
1.9665688188976378
0
LINE
8
BLACK
6
CONTINUOUS
10
0.7574803543307086
20
1.9665688188976378
11
0.7580564173228346
21
1.9665120866141732
0
CIRCLE
8
BLACK
10
0.8000000393700787
20
1.5999999999999999
40
0.0068897637795276
0
CIRCLE
8
BLACK
10
0.8000000393700787
20
0.4
40
0.0068897637795276
0
CIRCLE
8
BLACK
10
0.4000000393700787
20
0.4
40
0.0068897637795276
0
CIRCLE
8
BLACK
10
0.6425196850393701
20
0.5499999999999999
40
0.0068897637795276
0
CIRCLE
8
BLACK
10
0.5425196850393701
20
0.5499999999999999
40
0.0068897637795276
0
CIRCLE
8
BLACK
10
0.6425196850393701
20
0.65
40
0.0068897637795276
0
CIRCLE
8
BLACK
10
0.5425196850393701
20
0.65
40
0.0068897637795276
0
CIRCLE
8
BLACK
10
0.6425196850393701
20
0.75
40
0.0068897637795276
0
CIRCLE
8
BLACK
10
0.5425196850393701
20
0.75
40
0.0068897637795276
0
CIRCLE
8
BLACK
10
0.6425196850393701
20
0.85
40
0.0068897637795276
0
CIRCLE
8
BLACK
10
0.5425196850393701
20
0.85
40
0.0068897637795276
0
CIRCLE
8
BLACK
10
0.6425196850393701
20
0.95
40
0.0068897637795276
0
CIRCLE
8
BLACK
10
0.5425196850393701
20
0.95
40
0.0068897637795276
0
CIRCLE
8
BLACK
10
0.6425196850393701
20
1.05
40
0.0068897637795276
0
CIRCLE
8
BLACK
10
0.5425196850393701
20
1.05
40
0.0068897637795276
0
CIRCLE
8
BLACK
10
0.6425196850393701
20
1.1499999999999999
40
0.0068897637795276
0
CIRCLE
8
BLACK
10
0.5425196850393701
20
1.1499999999999999
40
0.0068897637795276
0
CIRCLE
8
BLACK
10
0.6425196850393701
20
1.25
40
0.0068897637795276
0
CIRCLE
8
BLACK
10
0.5425196850393701
20
1.25
40
0.0068897637795276
0
CIRCLE
8
BLACK
10
0.6425196850393701
20
1.3499999999999999
40
0.0068897637795276
0
CIRCLE
8
BLACK
10
0.5425196850393701
20
1.3499999999999999
40
0.0068897637795276
0
CIRCLE
8
BLACK
10
0.6425196850393701
20
1.45
40
0.0068897637795276
0
CIRCLE
8
BLACK
10
0.5425196850393701
20
1.45
40
0.0068897637795276
0
CIRCLE
8
BLACK
10
0.4000000393700787
20
1.5999999999999999
40
0.0068897637795276
  0
ENDSEC
  0
EOF
