  0
SECTION
  2
HEADER
  9
$ANGBASE
  50
0.0
  9
$ANGDIR
  70
1
  9
$MEASUREMENT
  70
0
  0
ENDSEC
  0
SECTION
  2
TABLES
  0
TABLE
  2
LTYPE
  70
4
  0
LTYPE
  5
40F
  2
CONTINUOUS
  70
0
  3
Solid line
  72
65
  73
0
  40
0.0
  0
LTYPE
  5
410
  2
DASHDOT
 70
0
  3
Dash Dot ____ _ ____ _
 72
65
 73
4
 40
2.0
 49
1.25
 49
-0.25
 49
0.25
 49
-0.25
  0
LTYPE
  5
411
  2
DASHED
 70
0
  3
Dashed __ __ __ __ __
 72
65
 73
2
 40
0.75
 49
0.5
 49
-0.25
  0
LTYPE
  5
43B
  2
DOTTED
 70
0
  3
Dotted .  .  .  .
 72
65
 73
2
 40
0.2
 49
0.0
 49
-0.2
  0
ENDTAB
  0
TABLE
  2
STYLE
  70
4
  0
STYLE
  2
KICAD
  70
0
  40
0
  41
1
  42
1
  50
0
  71
0
  3
isocp.shx
  0
STYLE
  2
KICADB
  70
0
  40
0
  41
1
  42
1
  50
0
  71
0
  3
isocp.shx
  0
STYLE
  2
KICADI
  70
0
  40
0
  41
1
  42
1
  50
15
  71
0
  3
isocp.shx
  0
STYLE
  2
KICADBI
  70
0
  40
0
  41
1
  42
1
  50
15
  71
0
  3
isocp.shx
  0
ENDTAB
  0
TABLE
  2
LAYER
  70
1
  0
LAYER
  2
BLACK
  70
0
  62
7
  6
CONTINUOUS
  0
ENDTAB
  0
ENDSEC
  0
SECTION
  2
ENTITIES
0
LINE
8
BLACK
6
CONTINUOUS
10
0.4135768503937008
20
0.5204974015748032
11
0.426982874015748
21
0.5182196062992126
0
LINE
8
BLACK
6
CONTINUOUS
10
0.426982874015748
20
0.5182196062992126
11
0.4400496456692913
21
0.5144551574803149
0
LINE
8
BLACK
6
CONTINUOUS
10
0.4400496456692913
20
0.5144551574803149
11
0.4526127165354331
21
0.5092513385826771
0
LINE
8
BLACK
6
CONTINUOUS
10
0.4526127165354331
20
0.5092513385826771
11
0.4645141732283464
21
0.5026736614173228
0
LINE
8
BLACK
6
CONTINUOUS
10
0.4645141732283464
20
0.5026736614173228
11
0.4756043307086614
21
0.4948047637795275
0
LINE
8
BLACK
6
CONTINUOUS
10
0.4756043307086614
20
0.4948047637795275
11
0.4857437007874016
21
0.4857436614173228
0
LINE
8
BLACK
6
CONTINUOUS
10
0.4857437007874016
20
0.4857436614173228
11
0.4948048031496063
21
0.4756042913385827
0
LINE
8
BLACK
6
CONTINUOUS
10
0.4948048031496063
20
0.4756042913385827
11
0.5026737007874016
21
0.4645141338582677
0
LINE
8
BLACK
6
CONTINUOUS
10
0.5026737007874016
20
0.4645141338582677
11
0.5092513779527559
21
0.4526126771653543
0
LINE
8
BLACK
6
CONTINUOUS
10
0.5092513779527559
20
0.4526126771653543
11
0.5144551968503936
21
0.4400496062992126
0
LINE
8
BLACK
6
CONTINUOUS
10
0.5144551968503936
20
0.4400496062992126
11
0.5182196456692914
21
0.4269828346456693
0
LINE
8
BLACK
6
CONTINUOUS
10
0.5182196456692914
20
0.4269828346456693
11
0.5204974409448819
21
0.413576811023622
0
LINE
8
BLACK
6
CONTINUOUS
10
0.5204974409448819
20
0.413576811023622
11
0.5212598818897638
21
0.4
0
LINE
8
BLACK
6
CONTINUOUS
10
0.5212598818897638
20
0.4
11
0.5204974409448819
21
0.386423188976378
0
LINE
8
BLACK
6
CONTINUOUS
10
0.5204974409448819
20
0.386423188976378
11
0.5182196456692914
21
0.3730171653543307
0
LINE
8
BLACK
6
CONTINUOUS
10
0.5182196456692914
20
0.3730171653543307
11
0.5144551968503936
21
0.3599503937007874
0
LINE
8
BLACK
6
CONTINUOUS
10
0.5144551968503936
20
0.3599503937007874
11
0.5092513779527559
21
0.3473873228346457
0
LINE
8
BLACK
6
CONTINUOUS
10
0.5092513779527559
20
0.3473873228346457
11
0.5026737007874016
21
0.3354858661417323
0
LINE
8
BLACK
6
CONTINUOUS
10
0.5026737007874016
20
0.3354858661417323
11
0.4948048031496063
21
0.3243957086614173
0
LINE
8
BLACK
6
CONTINUOUS
10
0.4948048031496063
20
0.3243957086614173
11
0.4857437007874016
21
0.3142563385826772
0
LINE
8
BLACK
6
CONTINUOUS
10
0.4857437007874016
20
0.3142563385826772
11
0.4756043307086614
21
0.3051952362204725
0
LINE
8
BLACK
6
CONTINUOUS
10
0.4756043307086614
20
0.3051952362204725
11
0.4645141732283464
21
0.2973263385826772
0
LINE
8
BLACK
6
CONTINUOUS
10
0.4645141732283464
20
0.2973263385826772
11
0.4526127165354331
21
0.2907486614173228
0
LINE
8
BLACK
6
CONTINUOUS
10
0.4526127165354331
20
0.2907486614173228
11
0.4400496456692913
21
0.285544842519685
0
LINE
8
BLACK
6
CONTINUOUS
10
0.4400496456692913
20
0.285544842519685
11
0.426982874015748
21
0.2817803937007874
0
LINE
8
BLACK
6
CONTINUOUS
10
0.426982874015748
20
0.2817803937007874
11
0.4135768503937008
21
0.2795025984251969
0
LINE
8
BLACK
6
CONTINUOUS
10
0.4135768503937008
20
0.2795025984251969
11
0.4000000393700787
21
0.2787401574803149
0
LINE
8
BLACK
6
CONTINUOUS
10
0.4000000393700787
20
0.2787401574803149
11
0.3864232283464567
21
0.2795025984251969
0
LINE
8
BLACK
6
CONTINUOUS
10
0.3864232283464567
20
0.2795025984251969
11
0.3730172047244095
21
0.2817803937007874
0
LINE
8
BLACK
6
CONTINUOUS
10
0.3730172047244095
20
0.2817803937007874
11
0.3599504330708662
21
0.285544842519685
0
LINE
8
BLACK
6
CONTINUOUS
10
0.3599504330708662
20
0.285544842519685
11
0.3473873622047244
21
0.2907486614173228
0
LINE
8
BLACK
6
CONTINUOUS
10
0.3473873622047244
20
0.2907486614173228
11
0.335485905511811
21
0.2973263385826772
0
LINE
8
BLACK
6
CONTINUOUS
10
0.335485905511811
20
0.2973263385826772
11
0.3243957480314961
21
0.3051952362204725
0
LINE
8
BLACK
6
CONTINUOUS
10
0.3243957480314961
20
0.3051952362204725
11
0.3142563779527559
21
0.3142563385826772
0
LINE
8
BLACK
6
CONTINUOUS
10
0.3142563779527559
20
0.3142563385826772
11
0.3051952755905512
21
0.3243957086614173
0
LINE
8
BLACK
6
CONTINUOUS
10
0.3051952755905512
20
0.3243957086614173
11
0.2973263779527559
21
0.3354858661417323
0
LINE
8
BLACK
6
CONTINUOUS
10
0.2973263779527559
20
0.3354858661417323
11
0.2907487007874016
21
0.3473873228346457
0
LINE
8
BLACK
6
CONTINUOUS
10
0.2907487007874016
20
0.3473873228346457
11
0.2855448818897638
21
0.3599503937007874
0
LINE
8
BLACK
6
CONTINUOUS
10
0.2855448818897638
20
0.3599503937007874
11
0.2817804330708661
21
0.3730171653543307
0
LINE
8
BLACK
6
CONTINUOUS
10
0.2817804330708661
20
0.3730171653543307
11
0.2795026377952756
21
0.386423188976378
0
LINE
8
BLACK
6
CONTINUOUS
10
0.2795026377952756
20
0.386423188976378
11
0.2787401968503937
21
0.4
0
LINE
8
BLACK
6
CONTINUOUS
10
0.2787401968503937
20
0.4
11
0.2795026377952756
21
0.413576811023622
0
LINE
8
BLACK
6
CONTINUOUS
10
0.2795026377952756
20
0.413576811023622
11
0.2817804330708661
21
0.4269828346456693
0
LINE
8
BLACK
6
CONTINUOUS
10
0.2817804330708661
20
0.4269828346456693
11
0.2855448818897638
21
0.4400496062992126
0
LINE
8
BLACK
6
CONTINUOUS
10
0.2855448818897638
20
0.4400496062992126
11
0.2907487007874016
21
0.4526126771653543
0
LINE
8
BLACK
6
CONTINUOUS
10
0.2907487007874016
20
0.4526126771653543
11
0.2973263779527559
21
0.4645141338582677
0
LINE
8
BLACK
6
CONTINUOUS
10
0.2973263779527559
20
0.4645141338582677
11
0.3051952755905512
21
0.4756042913385827
0
LINE
8
BLACK
6
CONTINUOUS
10
0.3051952755905512
20
0.4756042913385827
11
0.3142563779527559
21
0.4857436614173228
0
LINE
8
BLACK
6
CONTINUOUS
10
0.3142563779527559
20
0.4857436614173228
11
0.3243957480314961
21
0.4948047637795275
0
LINE
8
BLACK
6
CONTINUOUS
10
0.3243957480314961
20
0.4948047637795275
11
0.335485905511811
21
0.5026736614173228
0
LINE
8
BLACK
6
CONTINUOUS
10
0.335485905511811
20
0.5026736614173228
11
0.3473873622047244
21
0.5092513385826771
0
LINE
8
BLACK
6
CONTINUOUS
10
0.3473873622047244
20
0.5092513385826771
11
0.3599504330708662
21
0.5144551574803149
0
LINE
8
BLACK
6
CONTINUOUS
10
0.3599504330708662
20
0.5144551574803149
11
0.3730172047244095
21
0.5182196062992126
0
LINE
8
BLACK
6
CONTINUOUS
10
0.3730172047244095
20
0.5182196062992126
11
0.3864232283464567
21
0.5204974015748032
0
LINE
8
BLACK
6
CONTINUOUS
10
0.3864232283464567
20
0.5204974015748032
11
0.4000000393700787
21
0.521259842519685
0
LINE
8
BLACK
6
CONTINUOUS
10
0.4000000393700787
20
0.521259842519685
11
0.4135768503937008
21
0.5204974015748032
0
LINE
8
BLACK
6
CONTINUOUS
10
0.8135768503937008
20
0.5204974015748032
11
0.826982874015748
21
0.5182196062992126
0
LINE
8
BLACK
6
CONTINUOUS
10
0.826982874015748
20
0.5182196062992126
11
0.8400496456692913
21
0.5144551574803149
0
LINE
8
BLACK
6
CONTINUOUS
10
0.8400496456692913
20
0.5144551574803149
11
0.852612716535433
21
0.5092513385826771
0
LINE
8
BLACK
6
CONTINUOUS
10
0.852612716535433
20
0.5092513385826771
11
0.8645141732283464
21
0.5026736614173228
0
LINE
8
BLACK
6
CONTINUOUS
10
0.8645141732283464
20
0.5026736614173228
11
0.8756043307086614
21
0.4948047637795275
0
LINE
8
BLACK
6
CONTINUOUS
10
0.8756043307086614
20
0.4948047637795275
11
0.8857437007874015
21
0.4857436614173228
0
LINE
8
BLACK
6
CONTINUOUS
10
0.8857437007874015
20
0.4857436614173228
11
0.8948048031496063
21
0.4756042913385827
0
LINE
8
BLACK
6
CONTINUOUS
10
0.8948048031496063
20
0.4756042913385827
11
0.9026737007874015
21
0.4645141338582677
0
LINE
8
BLACK
6
CONTINUOUS
10
0.9026737007874015
20
0.4645141338582677
11
0.9092513779527559
21
0.4526126771653543
0
LINE
8
BLACK
6
CONTINUOUS
10
0.9092513779527559
20
0.4526126771653543
11
0.9144551968503937
21
0.4400496062992126
0
LINE
8
BLACK
6
CONTINUOUS
10
0.9144551968503937
20
0.4400496062992126
11
0.9182196456692913
21
0.4269828346456693
0
LINE
8
BLACK
6
CONTINUOUS
10
0.9182196456692913
20
0.4269828346456693
11
0.9204974409448818
21
0.413576811023622
0
LINE
8
BLACK
6
CONTINUOUS
10
0.9204974409448818
20
0.413576811023622
11
0.9212598818897637
21
0.4
0
LINE
8
BLACK
6
CONTINUOUS
10
0.9212598818897637
20
0.4
11
0.9204974409448818
21
0.386423188976378
0
LINE
8
BLACK
6
CONTINUOUS
10
0.9204974409448818
20
0.386423188976378
11
0.9182196456692913
21
0.3730171653543307
0
LINE
8
BLACK
6
CONTINUOUS
10
0.9182196456692913
20
0.3730171653543307
11
0.9144551968503937
21
0.3599503937007874
0
LINE
8
BLACK
6
CONTINUOUS
10
0.9144551968503937
20
0.3599503937007874
11
0.9092513779527559
21
0.3473873228346457
0
LINE
8
BLACK
6
CONTINUOUS
10
0.9092513779527559
20
0.3473873228346457
11
0.9026737007874015
21
0.3354858661417323
0
LINE
8
BLACK
6
CONTINUOUS
10
0.9026737007874015
20
0.3354858661417323
11
0.8948048031496063
21
0.3243957086614173
0
LINE
8
BLACK
6
CONTINUOUS
10
0.8948048031496063
20
0.3243957086614173
11
0.8857437007874015
21
0.3142563385826772
0
LINE
8
BLACK
6
CONTINUOUS
10
0.8857437007874015
20
0.3142563385826772
11
0.8756043307086614
21
0.3051952362204725
0
LINE
8
BLACK
6
CONTINUOUS
10
0.8756043307086614
20
0.3051952362204725
11
0.8645141732283464
21
0.2973263385826772
0
LINE
8
BLACK
6
CONTINUOUS
10
0.8645141732283464
20
0.2973263385826772
11
0.852612716535433
21
0.2907486614173228
0
LINE
8
BLACK
6
CONTINUOUS
10
0.852612716535433
20
0.2907486614173228
11
0.8400496456692913
21
0.285544842519685
0
LINE
8
BLACK
6
CONTINUOUS
10
0.8400496456692913
20
0.285544842519685
11
0.826982874015748
21
0.2817803937007874
0
LINE
8
BLACK
6
CONTINUOUS
10
0.826982874015748
20
0.2817803937007874
11
0.8135768503937008
21
0.2795025984251969
0
LINE
8
BLACK
6
CONTINUOUS
10
0.8135768503937008
20
0.2795025984251969
11
0.8000000393700787
21
0.2787401574803149
0
LINE
8
BLACK
6
CONTINUOUS
10
0.8000000393700787
20
0.2787401574803149
11
0.7864232283464567
21
0.2795025984251969
0
LINE
8
BLACK
6
CONTINUOUS
10
0.7864232283464567
20
0.2795025984251969
11
0.7730172047244094
21
0.2817803937007874
0
LINE
8
BLACK
6
CONTINUOUS
10
0.7730172047244094
20
0.2817803937007874
11
0.7599504330708661
21
0.285544842519685
0
LINE
8
BLACK
6
CONTINUOUS
10
0.7599504330708661
20
0.285544842519685
11
0.7473873622047243
21
0.2907486614173228
0
LINE
8
BLACK
6
CONTINUOUS
10
0.7473873622047243
20
0.2907486614173228
11
0.735485905511811
21
0.2973263385826772
0
LINE
8
BLACK
6
CONTINUOUS
10
0.735485905511811
20
0.2973263385826772
11
0.7243957480314961
21
0.3051952362204725
0
LINE
8
BLACK
6
CONTINUOUS
10
0.7243957480314961
20
0.3051952362204725
11
0.7142563779527559
21
0.3142563385826772
0
LINE
8
BLACK
6
CONTINUOUS
10
0.7142563779527559
20
0.3142563385826772
11
0.7051952755905512
21
0.3243957086614173
0
LINE
8
BLACK
6
CONTINUOUS
10
0.7051952755905512
20
0.3243957086614173
11
0.6973263779527559
21
0.3354858661417323
0
LINE
8
BLACK
6
CONTINUOUS
10
0.6973263779527559
20
0.3354858661417323
11
0.6907487007874016
21
0.3473873228346457
0
LINE
8
BLACK
6
CONTINUOUS
10
0.6907487007874016
20
0.3473873228346457
11
0.6855448818897638
21
0.3599503937007874
0
LINE
8
BLACK
6
CONTINUOUS
10
0.6855448818897638
20
0.3599503937007874
11
0.6817804330708661
21
0.3730171653543307
0
LINE
8
BLACK
6
CONTINUOUS
10
0.6817804330708661
20
0.3730171653543307
11
0.6795026377952755
21
0.386423188976378
0
LINE
8
BLACK
6
CONTINUOUS
10
0.6795026377952755
20
0.386423188976378
11
0.6787401968503937
21
0.4
0
LINE
8
BLACK
6
CONTINUOUS
10
0.6787401968503937
20
0.4
11
0.6795026377952755
21
0.413576811023622
0
LINE
8
BLACK
6
CONTINUOUS
10
0.6795026377952755
20
0.413576811023622
11
0.6817804330708661
21
0.4269828346456693
0
LINE
8
BLACK
6
CONTINUOUS
10
0.6817804330708661
20
0.4269828346456693
11
0.6855448818897638
21
0.4400496062992126
0
LINE
8
BLACK
6
CONTINUOUS
10
0.6855448818897638
20
0.4400496062992126
11
0.6907487007874016
21
0.4526126771653543
0
LINE
8
BLACK
6
CONTINUOUS
10
0.6907487007874016
20
0.4526126771653543
11
0.6973263779527559
21
0.4645141338582677
0
LINE
8
BLACK
6
CONTINUOUS
10
0.6973263779527559
20
0.4645141338582677
11
0.7051952755905512
21
0.4756042913385827
0
LINE
8
BLACK
6
CONTINUOUS
10
0.7051952755905512
20
0.4756042913385827
11
0.7142563779527559
21
0.4857436614173228
0
LINE
8
BLACK
6
CONTINUOUS
10
0.7142563779527559
20
0.4857436614173228
11
0.7243957480314961
21
0.4948047637795275
0
LINE
8
BLACK
6
CONTINUOUS
10
0.7243957480314961
20
0.4948047637795275
11
0.735485905511811
21
0.5026736614173228
0
LINE
8
BLACK
6
CONTINUOUS
10
0.735485905511811
20
0.5026736614173228
11
0.7473873622047243
21
0.5092513385826771
0
LINE
8
BLACK
6
CONTINUOUS
10
0.7473873622047243
20
0.5092513385826771
11
0.7599504330708661
21
0.5144551574803149
0
LINE
8
BLACK
6
CONTINUOUS
10
0.7599504330708661
20
0.5144551574803149
11
0.7730172047244094
21
0.5182196062992126
0
LINE
8
BLACK
6
CONTINUOUS
10
0.7730172047244094
20
0.5182196062992126
11
0.7864232283464567
21
0.5204974015748032
0
LINE
8
BLACK
6
CONTINUOUS
10
0.7864232283464567
20
0.5204974015748032
11
0.8000000393700787
21
0.521259842519685
0
LINE
8
BLACK
6
CONTINUOUS
10
0.8000000393700787
20
0.521259842519685
11
0.8135768503937008
21
0.5204974015748032
0
LINE
8
BLACK
6
CONTINUOUS
10
0.6771895669291338
20
0.5863744094488189
11
0.6782113779527559
21
0.5856916929133859
0
LINE
8
BLACK
6
CONTINUOUS
10
0.6782113779527559
20
0.5856916929133859
11
0.6788940944881889
21
0.5846698818897638
0
LINE
8
BLACK
6
CONTINUOUS
10
0.6788940944881889
20
0.5846698818897638
11
0.6791338582677166
21
0.5834645669291338
0
LINE
8
BLACK
6
CONTINUOUS
10
0.6791338582677166
20
0.5834645669291338
11
0.6791338582677166
21
0.5165354330708661
0
LINE
8
BLACK
6
CONTINUOUS
10
0.6791338582677166
20
0.5165354330708661
11
0.6788940944881889
21
0.5153301181102362
0
LINE
8
BLACK
6
CONTINUOUS
10
0.6788940944881889
20
0.5153301181102362
11
0.6782113779527559
21
0.5143083070866141
0
LINE
8
BLACK
6
CONTINUOUS
10
0.6782113779527559
20
0.5143083070866141
11
0.6771895669291338
21
0.5136255905511811
0
LINE
8
BLACK
6
CONTINUOUS
10
0.6771895669291338
20
0.5136255905511811
11
0.6759842519685039
21
0.5133858267716536
0
LINE
8
BLACK
6
CONTINUOUS
10
0.6759842519685039
20
0.5133858267716536
11
0.6090551181102362
21
0.5133858267716536
0
LINE
8
BLACK
6
CONTINUOUS
10
0.6090551181102362
20
0.5133858267716536
11
0.6078498031496062
21
0.5136255905511811
0
LINE
8
BLACK
6
CONTINUOUS
10
0.6078498031496062
20
0.5136255905511811
11
0.6068279921259843
21
0.5143083070866141
0
LINE
8
BLACK
6
CONTINUOUS
10
0.6068279921259843
20
0.5143083070866141
11
0.6061452755905512
21
0.5153301181102362
0
LINE
8
BLACK
6
CONTINUOUS
10
0.6061452755905512
20
0.5153301181102362
11
0.6059055118110236
21
0.5165354330708661
0
LINE
8
BLACK
6
CONTINUOUS
10
0.6059055118110236
20
0.5165354330708661
11
0.6059055118110236
21
0.5834645669291338
0
LINE
8
BLACK
6
CONTINUOUS
10
0.6059055118110236
20
0.5834645669291338
11
0.6061452755905512
21
0.5846698818897638
0
LINE
8
BLACK
6
CONTINUOUS
10
0.6061452755905512
20
0.5846698818897638
11
0.6068279921259843
21
0.5856916929133859
0
LINE
8
BLACK
6
CONTINUOUS
10
0.6068279921259843
20
0.5856916929133859
11
0.6078498031496062
21
0.5863744094488189
0
LINE
8
BLACK
6
CONTINUOUS
10
0.6078498031496062
20
0.5863744094488189
11
0.6090551181102362
21
0.5866141732283464
0
LINE
8
BLACK
6
CONTINUOUS
10
0.6090551181102362
20
0.5866141732283464
11
0.6759842519685039
21
0.5866141732283464
0
LINE
8
BLACK
6
CONTINUOUS
10
0.6759842519685039
20
0.5866141732283464
11
0.6771895669291338
21
0.5863744094488189
0
LINE
8
BLACK
6
CONTINUOUS
10
0.553834094488189
20
0.5848221653543307
11
0.5608267716535433
21
0.5817088188976378
0
LINE
8
BLACK
6
CONTINUOUS
10
0.5608267716535433
20
0.5817088188976378
11
0.5670193307086614
21
0.5772096456692913
0
LINE
8
BLACK
6
CONTINUOUS
10
0.5670193307086614
20
0.5772096456692913
11
0.5721411811023622
21
0.5715212598425197
0
LINE
8
BLACK
6
CONTINUOUS
10
0.5721411811023622
20
0.5715212598425197
11
0.5759683858267717
21
0.5648923228346456
0
LINE
8
BLACK
6
CONTINUOUS
10
0.5759683858267717
20
0.5648923228346456
11
0.5783337401574803
21
0.5576125196850393
0
LINE
8
BLACK
6
CONTINUOUS
10
0.5783337401574803
20
0.5576125196850393
11
0.5791338582677166
21
0.5499999999999999
0
LINE
8
BLACK
6
CONTINUOUS
10
0.5791338582677166
20
0.5499999999999999
11
0.5783337401574803
21
0.5423874803149606
0
LINE
8
BLACK
6
CONTINUOUS
10
0.5783337401574803
20
0.5423874803149606
11
0.5759683858267717
21
0.5351076771653543
0
LINE
8
BLACK
6
CONTINUOUS
10
0.5759683858267717
20
0.5351076771653543
11
0.5721411811023622
21
0.5284787401574803
0
LINE
8
BLACK
6
CONTINUOUS
10
0.5721411811023622
20
0.5284787401574803
11
0.5670193307086614
21
0.5227903543307086
0
LINE
8
BLACK
6
CONTINUOUS
10
0.5670193307086614
20
0.5227903543307086
11
0.5608267716535433
21
0.5182911811023622
0
LINE
8
BLACK
6
CONTINUOUS
10
0.5608267716535433
20
0.5182911811023622
11
0.553834094488189
21
0.5151778346456692
0
LINE
8
BLACK
6
CONTINUOUS
10
0.553834094488189
20
0.5151778346456692
11
0.5463468897637795
21
0.5135864173228346
0
LINE
8
BLACK
6
CONTINUOUS
10
0.5463468897637795
20
0.5135864173228346
11
0.5386924803149606
21
0.5135864173228346
0
LINE
8
BLACK
6
CONTINUOUS
10
0.5386924803149606
20
0.5135864173228346
11
0.5312052755905512
21
0.5151778346456692
0
LINE
8
BLACK
6
CONTINUOUS
10
0.5312052755905512
20
0.5151778346456692
11
0.5242125984251969
21
0.5182911811023622
0
LINE
8
BLACK
6
CONTINUOUS
10
0.5242125984251969
20
0.5182911811023622
11
0.5180200393700787
21
0.5227903543307086
0
LINE
8
BLACK
6
CONTINUOUS
10
0.5180200393700787
20
0.5227903543307086
11
0.512898188976378
21
0.5284787401574803
0
LINE
8
BLACK
6
CONTINUOUS
10
0.512898188976378
20
0.5284787401574803
11
0.5090709842519685
21
0.5351076771653543
0
LINE
8
BLACK
6
CONTINUOUS
10
0.5090709842519685
20
0.5351076771653543
11
0.5067056299212598
21
0.5423874803149606
0
LINE
8
BLACK
6
CONTINUOUS
10
0.5067056299212598
20
0.5423874803149606
11
0.5059055118110236
21
0.5499999999999999
0
LINE
8
BLACK
6
CONTINUOUS
10
0.5059055118110236
20
0.5499999999999999
11
0.5067056299212598
21
0.5576125196850393
0
LINE
8
BLACK
6
CONTINUOUS
10
0.5067056299212598
20
0.5576125196850393
11
0.5090709842519685
21
0.5648923228346456
0
LINE
8
BLACK
6
CONTINUOUS
10
0.5090709842519685
20
0.5648923228346456
11
0.512898188976378
21
0.5715212598425197
0
LINE
8
BLACK
6
CONTINUOUS
10
0.512898188976378
20
0.5715212598425197
11
0.5180200393700787
21
0.5772096456692913
0
LINE
8
BLACK
6
CONTINUOUS
10
0.5180200393700787
20
0.5772096456692913
11
0.5242125984251969
21
0.5817088188976378
0
LINE
8
BLACK
6
CONTINUOUS
10
0.5242125984251969
20
0.5817088188976378
11
0.5312052755905512
21
0.5848221653543307
0
LINE
8
BLACK
6
CONTINUOUS
10
0.5312052755905512
20
0.5848221653543307
11
0.5386924803149606
21
0.5864135826771654
0
LINE
8
BLACK
6
CONTINUOUS
10
0.5386924803149606
20
0.5864135826771654
11
0.5463468897637795
21
0.5864135826771654
0
LINE
8
BLACK
6
CONTINUOUS
10
0.5463468897637795
20
0.5864135826771654
11
0.553834094488189
21
0.5848221653543307
0
LINE
8
BLACK
6
CONTINUOUS
10
0.553834094488189
20
0.6848221653543307
11
0.5608267716535433
21
0.6817088188976378
0
LINE
8
BLACK
6
CONTINUOUS
10
0.5608267716535433
20
0.6817088188976378
11
0.5670193307086614
21
0.6772096456692913
0
LINE
8
BLACK
6
CONTINUOUS
10
0.5670193307086614
20
0.6772096456692913
11
0.5721411811023622
21
0.6715212598425196
0
LINE
8
BLACK
6
CONTINUOUS
10
0.5721411811023622
20
0.6715212598425196
11
0.5759683858267717
21
0.6648923228346456
0
LINE
8
BLACK
6
CONTINUOUS
10
0.5759683858267717
20
0.6648923228346456
11
0.5783337401574803
21
0.6576125196850393
0
LINE
8
BLACK
6
CONTINUOUS
10
0.5783337401574803
20
0.6576125196850393
11
0.5791338582677166
21
0.65
0
LINE
8
BLACK
6
CONTINUOUS
10
0.5791338582677166
20
0.65
11
0.5783337401574803
21
0.6423874803149606
0
LINE
8
BLACK
6
CONTINUOUS
10
0.5783337401574803
20
0.6423874803149606
11
0.5759683858267717
21
0.6351076771653543
0
LINE
8
BLACK
6
CONTINUOUS
10
0.5759683858267717
20
0.6351076771653543
11
0.5721411811023622
21
0.6284787401574803
0
LINE
8
BLACK
6
CONTINUOUS
10
0.5721411811023622
20
0.6284787401574803
11
0.5670193307086614
21
0.6227903543307086
0
LINE
8
BLACK
6
CONTINUOUS
10
0.5670193307086614
20
0.6227903543307086
11
0.5608267716535433
21
0.6182911811023621
0
LINE
8
BLACK
6
CONTINUOUS
10
0.5608267716535433
20
0.6182911811023621
11
0.553834094488189
21
0.6151778346456693
0
LINE
8
BLACK
6
CONTINUOUS
10
0.553834094488189
20
0.6151778346456693
11
0.5463468897637795
21
0.6135864173228346
0
LINE
8
BLACK
6
CONTINUOUS
10
0.5463468897637795
20
0.6135864173228346
11
0.5386924803149606
21
0.6135864173228346
0
LINE
8
BLACK
6
CONTINUOUS
10
0.5386924803149606
20
0.6135864173228346
11
0.5312052755905512
21
0.6151778346456693
0
LINE
8
BLACK
6
CONTINUOUS
10
0.5312052755905512
20
0.6151778346456693
11
0.5242125984251969
21
0.6182911811023621
0
LINE
8
BLACK
6
CONTINUOUS
10
0.5242125984251969
20
0.6182911811023621
11
0.5180200393700787
21
0.6227903543307086
0
LINE
8
BLACK
6
CONTINUOUS
10
0.5180200393700787
20
0.6227903543307086
11
0.512898188976378
21
0.6284787401574803
0
LINE
8
BLACK
6
CONTINUOUS
10
0.512898188976378
20
0.6284787401574803
11
0.5090709842519685
21
0.6351076771653543
0
LINE
8
BLACK
6
CONTINUOUS
10
0.5090709842519685
20
0.6351076771653543
11
0.5067056299212598
21
0.6423874803149606
0
LINE
8
BLACK
6
CONTINUOUS
10
0.5067056299212598
20
0.6423874803149606
11
0.5059055118110236
21
0.65
0
LINE
8
BLACK
6
CONTINUOUS
10
0.5059055118110236
20
0.65
11
0.5067056299212598
21
0.6576125196850393
0
LINE
8
BLACK
6
CONTINUOUS
10
0.5067056299212598
20
0.6576125196850393
11
0.5090709842519685
21
0.6648923228346456
0
LINE
8
BLACK
6
CONTINUOUS
10
0.5090709842519685
20
0.6648923228346456
11
0.512898188976378
21
0.6715212598425196
0
LINE
8
BLACK
6
CONTINUOUS
10
0.512898188976378
20
0.6715212598425196
11
0.5180200393700787
21
0.6772096456692913
0
LINE
8
BLACK
6
CONTINUOUS
10
0.5180200393700787
20
0.6772096456692913
11
0.5242125984251969
21
0.6817088188976378
0
LINE
8
BLACK
6
CONTINUOUS
10
0.5242125984251969
20
0.6817088188976378
11
0.5312052755905512
21
0.6848221653543307
0
LINE
8
BLACK
6
CONTINUOUS
10
0.5312052755905512
20
0.6848221653543307
11
0.5386924803149606
21
0.6864135826771653
0
LINE
8
BLACK
6
CONTINUOUS
10
0.5386924803149606
20
0.6864135826771653
11
0.5463468897637795
21
0.6864135826771653
0
LINE
8
BLACK
6
CONTINUOUS
10
0.5463468897637795
20
0.6864135826771653
11
0.553834094488189
21
0.6848221653543307
0
LINE
8
BLACK
6
CONTINUOUS
10
0.653834094488189
20
0.6848221653543307
11
0.6608267716535433
21
0.6817088188976378
0
LINE
8
BLACK
6
CONTINUOUS
10
0.6608267716535433
20
0.6817088188976378
11
0.6670193307086614
21
0.6772096456692913
0
LINE
8
BLACK
6
CONTINUOUS
10
0.6670193307086614
20
0.6772096456692913
11
0.6721411811023622
21
0.6715212598425196
0
LINE
8
BLACK
6
CONTINUOUS
10
0.6721411811023622
20
0.6715212598425196
11
0.6759683858267717
21
0.6648923228346456
0
LINE
8
BLACK
6
CONTINUOUS
10
0.6759683858267717
20
0.6648923228346456
11
0.6783337401574803
21
0.6576125196850393
0
LINE
8
BLACK
6
CONTINUOUS
10
0.6783337401574803
20
0.6576125196850393
11
0.6791338582677166
21
0.65
0
LINE
8
BLACK
6
CONTINUOUS
10
0.6791338582677166
20
0.65
11
0.6783337401574803
21
0.6423874803149606
0
LINE
8
BLACK
6
CONTINUOUS
10
0.6783337401574803
20
0.6423874803149606
11
0.6759683858267717
21
0.6351076771653543
0
LINE
8
BLACK
6
CONTINUOUS
10
0.6759683858267717
20
0.6351076771653543
11
0.6721411811023622
21
0.6284787401574803
0
LINE
8
BLACK
6
CONTINUOUS
10
0.6721411811023622
20
0.6284787401574803
11
0.6670193307086614
21
0.6227903543307086
0
LINE
8
BLACK
6
CONTINUOUS
10
0.6670193307086614
20
0.6227903543307086
11
0.6608267716535433
21
0.6182911811023621
0
LINE
8
BLACK
6
CONTINUOUS
10
0.6608267716535433
20
0.6182911811023621
11
0.653834094488189
21
0.6151778346456693
0
LINE
8
BLACK
6
CONTINUOUS
10
0.653834094488189
20
0.6151778346456693
11
0.6463468897637795
21
0.6135864173228346
0
LINE
8
BLACK
6
CONTINUOUS
10
0.6463468897637795
20
0.6135864173228346
11
0.6386924803149606
21
0.6135864173228346
0
LINE
8
BLACK
6
CONTINUOUS
10
0.6386924803149606
20
0.6135864173228346
11
0.6312052755905512
21
0.6151778346456693
0
LINE
8
BLACK
6
CONTINUOUS
10
0.6312052755905512
20
0.6151778346456693
11
0.6242125984251968
21
0.6182911811023621
0
LINE
8
BLACK
6
CONTINUOUS
10
0.6242125984251968
20
0.6182911811023621
11
0.6180200393700788
21
0.6227903543307086
0
LINE
8
BLACK
6
CONTINUOUS
10
0.6180200393700788
20
0.6227903543307086
11
0.6128981889763779
21
0.6284787401574803
0
LINE
8
BLACK
6
CONTINUOUS
10
0.6128981889763779
20
0.6284787401574803
11
0.6090709842519685
21
0.6351076771653543
0
LINE
8
BLACK
6
CONTINUOUS
10
0.6090709842519685
20
0.6351076771653543
11
0.6067056299212599
21
0.6423874803149606
0
LINE
8
BLACK
6
CONTINUOUS
10
0.6067056299212599
20
0.6423874803149606
11
0.6059055118110236
21
0.65
0
LINE
8
BLACK
6
CONTINUOUS
10
0.6059055118110236
20
0.65
11
0.6067056299212599
21
0.6576125196850393
0
LINE
8
BLACK
6
CONTINUOUS
10
0.6067056299212599
20
0.6576125196850393
11
0.6090709842519685
21
0.6648923228346456
0
LINE
8
BLACK
6
CONTINUOUS
10
0.6090709842519685
20
0.6648923228346456
11
0.6128981889763779
21
0.6715212598425196
0
LINE
8
BLACK
6
CONTINUOUS
10
0.6128981889763779
20
0.6715212598425196
11
0.6180200393700788
21
0.6772096456692913
0
LINE
8
BLACK
6
CONTINUOUS
10
0.6180200393700788
20
0.6772096456692913
11
0.6242125984251968
21
0.6817088188976378
0
LINE
8
BLACK
6
CONTINUOUS
10
0.6242125984251968
20
0.6817088188976378
11
0.6312052755905512
21
0.6848221653543307
0
LINE
8
BLACK
6
CONTINUOUS
10
0.6312052755905512
20
0.6848221653543307
11
0.6386924803149606
21
0.6864135826771653
0
LINE
8
BLACK
6
CONTINUOUS
10
0.6386924803149606
20
0.6864135826771653
11
0.6463468897637795
21
0.6864135826771653
0
LINE
8
BLACK
6
CONTINUOUS
10
0.6463468897637795
20
0.6864135826771653
11
0.653834094488189
21
0.6848221653543307
0
LINE
8
BLACK
6
CONTINUOUS
10
0.9836775590551181
20
0.727903779527559
11
0.9877669291338582
21
0.7259968503937008
0
LINE
8
BLACK
6
CONTINUOUS
10
0.9877669291338582
20
0.7259968503937008
11
0.9909574803149606
21
0.7228062992125984
0
LINE
8
BLACK
6
CONTINUOUS
10
0.9909574803149606
20
0.7228062992125984
11
0.9928644094488189
21
0.7187169291338582
0
LINE
8
BLACK
6
CONTINUOUS
10
0.9928644094488189
20
0.7187169291338582
11
0.9933070866141732
21
0.7153543307086614
0
LINE
8
BLACK
6
CONTINUOUS
10
0.9933070866141732
20
0.7153543307086614
11
0.9933070866141732
21
0.6956692913385827
0
LINE
8
BLACK
6
CONTINUOUS
10
0.9933070866141732
20
0.6956692913385827
11
0.9928644094488189
21
0.6923066929133858
0
LINE
8
BLACK
6
CONTINUOUS
10
0.9928644094488189
20
0.6923066929133858
11
0.9909574803149606
21
0.6882173228346457
0
LINE
8
BLACK
6
CONTINUOUS
10
0.9909574803149606
20
0.6882173228346457
11
0.9877669291338582
21
0.6850267716535433
0
LINE
8
BLACK
6
CONTINUOUS
10
0.9877669291338582
20
0.6850267716535433
11
0.9836775590551181
21
0.683119842519685
0
LINE
8
BLACK
6
CONTINUOUS
10
0.9836775590551181
20
0.683119842519685
11
0.9803149606299212
21
0.6826771653543307
0
LINE
8
BLACK
6
CONTINUOUS
10
0.9803149606299212
20
0.6826771653543307
11
0.8937007874015748
21
0.6826771653543307
0
LINE
8
BLACK
6
CONTINUOUS
10
0.8937007874015748
20
0.6826771653543307
11
0.890338188976378
21
0.683119842519685
0
LINE
8
BLACK
6
CONTINUOUS
10
0.890338188976378
20
0.683119842519685
11
0.8862488188976377
21
0.6850267716535433
0
LINE
8
BLACK
6
CONTINUOUS
10
0.8862488188976377
20
0.6850267716535433
11
0.8830582677165354
21
0.6882173228346457
0
LINE
8
BLACK
6
CONTINUOUS
10
0.8830582677165354
20
0.6882173228346457
11
0.8811513385826771
21
0.6923066929133858
0
LINE
8
BLACK
6
CONTINUOUS
10
0.8811513385826771
20
0.6923066929133858
11
0.8807086614173228
21
0.6956692913385827
0
LINE
8
BLACK
6
CONTINUOUS
10
0.8807086614173228
20
0.6956692913385827
11
0.8807086614173228
21
0.7153543307086614
0
LINE
8
BLACK
6
CONTINUOUS
10
0.8807086614173228
20
0.7153543307086614
11
0.8811513385826771
21
0.7187169291338582
0
LINE
8
BLACK
6
CONTINUOUS
10
0.8811513385826771
20
0.7187169291338582
11
0.8830582677165354
21
0.7228062992125984
0
LINE
8
BLACK
6
CONTINUOUS
10
0.8830582677165354
20
0.7228062992125984
11
0.8862488188976377
21
0.7259968503937008
0
LINE
8
BLACK
6
CONTINUOUS
10
0.8862488188976377
20
0.7259968503937008
11
0.890338188976378
21
0.727903779527559
0
LINE
8
BLACK
6
CONTINUOUS
10
0.890338188976378
20
0.727903779527559
11
0.8937007874015748
21
0.7283464566929134
0
LINE
8
BLACK
6
CONTINUOUS
10
0.8937007874015748
20
0.7283464566929134
11
0.9803149606299212
21
0.7283464566929134
0
LINE
8
BLACK
6
CONTINUOUS
10
0.9803149606299212
20
0.7283464566929134
11
0.9836775590551181
21
0.727903779527559
0
LINE
8
BLACK
6
CONTINUOUS
10
0.553834094488189
20
0.7848221653543307
11
0.5608267716535433
21
0.7817088188976378
0
LINE
8
BLACK
6
CONTINUOUS
10
0.5608267716535433
20
0.7817088188976378
11
0.5670193307086614
21
0.7772096456692913
0
LINE
8
BLACK
6
CONTINUOUS
10
0.5670193307086614
20
0.7772096456692913
11
0.5721411811023622
21
0.7715212598425196
0
LINE
8
BLACK
6
CONTINUOUS
10
0.5721411811023622
20
0.7715212598425196
11
0.5759683858267717
21
0.7648923228346457
0
LINE
8
BLACK
6
CONTINUOUS
10
0.5759683858267717
20
0.7648923228346457
11
0.5783337401574803
21
0.7576125196850394
0
LINE
8
BLACK
6
CONTINUOUS
10
0.5783337401574803
20
0.7576125196850394
11
0.5791338582677166
21
0.75
0
LINE
8
BLACK
6
CONTINUOUS
10
0.5791338582677166
20
0.75
11
0.5783337401574803
21
0.7423874803149606
0
LINE
8
BLACK
6
CONTINUOUS
10
0.5783337401574803
20
0.7423874803149606
11
0.5759683858267717
21
0.7351076771653543
0
LINE
8
BLACK
6
CONTINUOUS
10
0.5759683858267717
20
0.7351076771653543
11
0.5721411811023622
21
0.7284787401574803
0
LINE
8
BLACK
6
CONTINUOUS
10
0.5721411811023622
20
0.7284787401574803
11
0.5670193307086614
21
0.7227903543307086
0
LINE
8
BLACK
6
CONTINUOUS
10
0.5670193307086614
20
0.7227903543307086
11
0.5608267716535433
21
0.7182911811023622
0
LINE
8
BLACK
6
CONTINUOUS
10
0.5608267716535433
20
0.7182911811023622
11
0.553834094488189
21
0.7151778346456693
0
LINE
8
BLACK
6
CONTINUOUS
10
0.553834094488189
20
0.7151778346456693
11
0.5463468897637795
21
0.7135864173228347
0
LINE
8
BLACK
6
CONTINUOUS
10
0.5463468897637795
20
0.7135864173228347
11
0.5386924803149606
21
0.7135864173228347
0
LINE
8
BLACK
6
CONTINUOUS
10
0.5386924803149606
20
0.7135864173228347
11
0.5312052755905512
21
0.7151778346456693
0
LINE
8
BLACK
6
CONTINUOUS
10
0.5312052755905512
20
0.7151778346456693
11
0.5242125984251969
21
0.7182911811023622
0
LINE
8
BLACK
6
CONTINUOUS
10
0.5242125984251969
20
0.7182911811023622
11
0.5180200393700787
21
0.7227903543307086
0
LINE
8
BLACK
6
CONTINUOUS
10
0.5180200393700787
20
0.7227903543307086
11
0.512898188976378
21
0.7284787401574803
0
LINE
8
BLACK
6
CONTINUOUS
10
0.512898188976378
20
0.7284787401574803
11
0.5090709842519685
21
0.7351076771653543
0
LINE
8
BLACK
6
CONTINUOUS
10
0.5090709842519685
20
0.7351076771653543
11
0.5067056299212598
21
0.7423874803149606
0
LINE
8
BLACK
6
CONTINUOUS
10
0.5067056299212598
20
0.7423874803149606
11
0.5059055118110236
21
0.75
0
LINE
8
BLACK
6
CONTINUOUS
10
0.5059055118110236
20
0.75
11
0.5067056299212598
21
0.7576125196850394
0
LINE
8
BLACK
6
CONTINUOUS
10
0.5067056299212598
20
0.7576125196850394
11
0.5090709842519685
21
0.7648923228346457
0
LINE
8
BLACK
6
CONTINUOUS
10
0.5090709842519685
20
0.7648923228346457
11
0.512898188976378
21
0.7715212598425196
0
LINE
8
BLACK
6
CONTINUOUS
10
0.512898188976378
20
0.7715212598425196
11
0.5180200393700787
21
0.7772096456692913
0
LINE
8
BLACK
6
CONTINUOUS
10
0.5180200393700787
20
0.7772096456692913
11
0.5242125984251969
21
0.7817088188976378
0
LINE
8
BLACK
6
CONTINUOUS
10
0.5242125984251969
20
0.7817088188976378
11
0.5312052755905512
21
0.7848221653543307
0
LINE
8
BLACK
6
CONTINUOUS
10
0.5312052755905512
20
0.7848221653543307
11
0.5386924803149606
21
0.7864135826771653
0
LINE
8
BLACK
6
CONTINUOUS
10
0.5386924803149606
20
0.7864135826771653
11
0.5463468897637795
21
0.7864135826771653
0
LINE
8
BLACK
6
CONTINUOUS
10
0.5463468897637795
20
0.7864135826771653
11
0.553834094488189
21
0.7848221653543307
0
LINE
8
BLACK
6
CONTINUOUS
10
0.653834094488189
20
0.7848221653543307
11
0.6608267716535433
21
0.7817088188976378
0
LINE
8
BLACK
6
CONTINUOUS
10
0.6608267716535433
20
0.7817088188976378
11
0.6670193307086614
21
0.7772096456692913
0
LINE
8
BLACK
6
CONTINUOUS
10
0.6670193307086614
20
0.7772096456692913
11
0.6721411811023622
21
0.7715212598425196
0
LINE
8
BLACK
6
CONTINUOUS
10
0.6721411811023622
20
0.7715212598425196
11
0.6759683858267717
21
0.7648923228346457
0
LINE
8
BLACK
6
CONTINUOUS
10
0.6759683858267717
20
0.7648923228346457
11
0.6783337401574803
21
0.7576125196850394
0
LINE
8
BLACK
6
CONTINUOUS
10
0.6783337401574803
20
0.7576125196850394
11
0.6791338582677166
21
0.75
0
LINE
8
BLACK
6
CONTINUOUS
10
0.6791338582677166
20
0.75
11
0.6783337401574803
21
0.7423874803149606
0
LINE
8
BLACK
6
CONTINUOUS
10
0.6783337401574803
20
0.7423874803149606
11
0.6759683858267717
21
0.7351076771653543
0
LINE
8
BLACK
6
CONTINUOUS
10
0.6759683858267717
20
0.7351076771653543
11
0.6721411811023622
21
0.7284787401574803
0
LINE
8
BLACK
6
CONTINUOUS
10
0.6721411811023622
20
0.7284787401574803
11
0.6670193307086614
21
0.7227903543307086
0
LINE
8
BLACK
6
CONTINUOUS
10
0.6670193307086614
20
0.7227903543307086
11
0.6608267716535433
21
0.7182911811023622
0
LINE
8
BLACK
6
CONTINUOUS
10
0.6608267716535433
20
0.7182911811023622
11
0.653834094488189
21
0.7151778346456693
0
LINE
8
BLACK
6
CONTINUOUS
10
0.653834094488189
20
0.7151778346456693
11
0.6463468897637795
21
0.7135864173228347
0
LINE
8
BLACK
6
CONTINUOUS
10
0.6463468897637795
20
0.7135864173228347
11
0.6386924803149606
21
0.7135864173228347
0
LINE
8
BLACK
6
CONTINUOUS
10
0.6386924803149606
20
0.7135864173228347
11
0.6312052755905512
21
0.7151778346456693
0
LINE
8
BLACK
6
CONTINUOUS
10
0.6312052755905512
20
0.7151778346456693
11
0.6242125984251968
21
0.7182911811023622
0
LINE
8
BLACK
6
CONTINUOUS
10
0.6242125984251968
20
0.7182911811023622
11
0.6180200393700788
21
0.7227903543307086
0
LINE
8
BLACK
6
CONTINUOUS
10
0.6180200393700788
20
0.7227903543307086
11
0.6128981889763779
21
0.7284787401574803
0
LINE
8
BLACK
6
CONTINUOUS
10
0.6128981889763779
20
0.7284787401574803
11
0.6090709842519685
21
0.7351076771653543
0
LINE
8
BLACK
6
CONTINUOUS
10
0.6090709842519685
20
0.7351076771653543
11
0.6067056299212599
21
0.7423874803149606
0
LINE
8
BLACK
6
CONTINUOUS
10
0.6067056299212599
20
0.7423874803149606
11
0.6059055118110236
21
0.75
0
LINE
8
BLACK
6
CONTINUOUS
10
0.6059055118110236
20
0.75
11
0.6067056299212599
21
0.7576125196850394
0
LINE
8
BLACK
6
CONTINUOUS
10
0.6067056299212599
20
0.7576125196850394
11
0.6090709842519685
21
0.7648923228346457
0
LINE
8
BLACK
6
CONTINUOUS
10
0.6090709842519685
20
0.7648923228346457
11
0.6128981889763779
21
0.7715212598425196
0
LINE
8
BLACK
6
CONTINUOUS
10
0.6128981889763779
20
0.7715212598425196
11
0.6180200393700788
21
0.7772096456692913
0
LINE
8
BLACK
6
CONTINUOUS
10
0.6180200393700788
20
0.7772096456692913
11
0.6242125984251968
21
0.7817088188976378
0
LINE
8
BLACK
6
CONTINUOUS
10
0.6242125984251968
20
0.7817088188976378
11
0.6312052755905512
21
0.7848221653543307
0
LINE
8
BLACK
6
CONTINUOUS
10
0.6312052755905512
20
0.7848221653543307
11
0.6386924803149606
21
0.7864135826771653
0
LINE
8
BLACK
6
CONTINUOUS
10
0.6386924803149606
20
0.7864135826771653
11
0.6463468897637795
21
0.7864135826771653
0
LINE
8
BLACK
6
CONTINUOUS
10
0.6463468897637795
20
0.7864135826771653
11
0.653834094488189
21
0.7848221653543307
0
LINE
8
BLACK
6
CONTINUOUS
10
0.8420479133858267
20
0.7926177952755905
11
0.8449856299212598
21
0.7906549212598425
0
LINE
8
BLACK
6
CONTINUOUS
10
0.8449856299212598
20
0.7906549212598425
11
0.8469485039370078
21
0.7877172047244094
0
LINE
8
BLACK
6
CONTINUOUS
10
0.8469485039370078
20
0.7877172047244094
11
0.8476377952755906
21
0.784251968503937
0
LINE
8
BLACK
6
CONTINUOUS
10
0.8476377952755906
20
0.784251968503937
11
0.8476377952755906
21
0.7724409448818897
0
LINE
8
BLACK
6
CONTINUOUS
10
0.8476377952755906
20
0.7724409448818897
11
0.8469485039370078
21
0.7689757086614173
0
LINE
8
BLACK
6
CONTINUOUS
10
0.8469485039370078
20
0.7689757086614173
11
0.8449856299212598
21
0.7660379921259842
0
LINE
8
BLACK
6
CONTINUOUS
10
0.8449856299212598
20
0.7660379921259842
11
0.8420479133858267
21
0.7640751181102362
0
LINE
8
BLACK
6
CONTINUOUS
10
0.8420479133858267
20
0.7640751181102362
11
0.8385826771653543
21
0.7633858267716536
0
LINE
8
BLACK
6
CONTINUOUS
10
0.8385826771653543
20
0.7633858267716536
11
0.7834645669291338
21
0.7633858267716536
0
LINE
8
BLACK
6
CONTINUOUS
10
0.7834645669291338
20
0.7633858267716536
11
0.7799993307086615
21
0.7640751181102362
0
LINE
8
BLACK
6
CONTINUOUS
10
0.7799993307086615
20
0.7640751181102362
11
0.7770616141732283
21
0.7660379921259842
0
LINE
8
BLACK
6
CONTINUOUS
10
0.7770616141732283
20
0.7660379921259842
11
0.7750987401574803
21
0.7689757086614173
0
LINE
8
BLACK
6
CONTINUOUS
10
0.7750987401574803
20
0.7689757086614173
11
0.7744094488188976
21
0.7724409448818897
0
LINE
8
BLACK
6
CONTINUOUS
10
0.7744094488188976
20
0.7724409448818897
11
0.7744094488188976
21
0.784251968503937
0
LINE
8
BLACK
6
CONTINUOUS
10
0.7744094488188976
20
0.784251968503937
11
0.7750987401574803
21
0.7877172047244094
0
LINE
8
BLACK
6
CONTINUOUS
10
0.7750987401574803
20
0.7877172047244094
11
0.7770616141732283
21
0.7906549212598425
0
LINE
8
BLACK
6
CONTINUOUS
10
0.7770616141732283
20
0.7906549212598425
11
0.7799993307086615
21
0.7926177952755905
0
LINE
8
BLACK
6
CONTINUOUS
10
0.7799993307086615
20
0.7926177952755905
11
0.7834645669291338
21
0.7933070866141733
0
LINE
8
BLACK
6
CONTINUOUS
10
0.7834645669291338
20
0.7933070866141733
11
0.8385826771653543
21
0.7933070866141733
0
LINE
8
BLACK
6
CONTINUOUS
10
0.8385826771653543
20
0.7933070866141733
11
0.8420479133858267
21
0.7926177952755905
0
LINE
8
BLACK
6
CONTINUOUS
10
0.8420479133858267
20
0.8418303937007874
11
0.8449856299212598
21
0.8398675196850394
0
LINE
8
BLACK
6
CONTINUOUS
10
0.8449856299212598
20
0.8398675196850394
11
0.8469485039370078
21
0.8369298031496063
0
LINE
8
BLACK
6
CONTINUOUS
10
0.8469485039370078
20
0.8369298031496063
11
0.8476377952755906
21
0.8334645669291338
0
LINE
8
BLACK
6
CONTINUOUS
10
0.8476377952755906
20
0.8334645669291338
11
0.8476377952755906
21
0.8216535433070866
0
LINE
8
BLACK
6
CONTINUOUS
10
0.8476377952755906
20
0.8216535433070866
11
0.8469485039370078
21
0.8181883070866142
0
LINE
8
BLACK
6
CONTINUOUS
10
0.8469485039370078
20
0.8181883070866142
11
0.8449856299212598
21
0.8152505905511811
0
LINE
8
BLACK
6
CONTINUOUS
10
0.8449856299212598
20
0.8152505905511811
11
0.8420479133858267
21
0.8132877165354331
0
LINE
8
BLACK
6
CONTINUOUS
10
0.8420479133858267
20
0.8132877165354331
11
0.8385826771653543
21
0.8125984251968503
0
LINE
8
BLACK
6
CONTINUOUS
10
0.8385826771653543
20
0.8125984251968503
11
0.7834645669291338
21
0.8125984251968503
0
LINE
8
BLACK
6
CONTINUOUS
10
0.7834645669291338
20
0.8125984251968503
11
0.7799993307086615
21
0.8132877165354331
0
LINE
8
BLACK
6
CONTINUOUS
10
0.7799993307086615
20
0.8132877165354331
11
0.7770616141732283
21
0.8152505905511811
0
LINE
8
BLACK
6
CONTINUOUS
10
0.7770616141732283
20
0.8152505905511811
11
0.7750987401574803
21
0.8181883070866142
0
LINE
8
BLACK
6
CONTINUOUS
10
0.7750987401574803
20
0.8181883070866142
11
0.7744094488188976
21
0.8216535433070866
0
LINE
8
BLACK
6
CONTINUOUS
10
0.7744094488188976
20
0.8216535433070866
11
0.7744094488188976
21
0.8334645669291338
0
LINE
8
BLACK
6
CONTINUOUS
10
0.7744094488188976
20
0.8334645669291338
11
0.7750987401574803
21
0.8369298031496063
0
LINE
8
BLACK
6
CONTINUOUS
10
0.7750987401574803
20
0.8369298031496063
11
0.7770616141732283
21
0.8398675196850394
0
LINE
8
BLACK
6
CONTINUOUS
10
0.7770616141732283
20
0.8398675196850394
11
0.7799993307086615
21
0.8418303937007874
0
LINE
8
BLACK
6
CONTINUOUS
10
0.7799993307086615
20
0.8418303937007874
11
0.7834645669291338
21
0.84251968503937
0
LINE
8
BLACK
6
CONTINUOUS
10
0.7834645669291338
20
0.84251968503937
11
0.8385826771653543
21
0.84251968503937
0
LINE
8
BLACK
6
CONTINUOUS
10
0.8385826771653543
20
0.84251968503937
11
0.8420479133858267
21
0.8418303937007874
0
LINE
8
BLACK
6
CONTINUOUS
10
0.553834094488189
20
0.8848221653543307
11
0.5608267716535433
21
0.8817088188976377
0
LINE
8
BLACK
6
CONTINUOUS
10
0.5608267716535433
20
0.8817088188976377
11
0.5670193307086614
21
0.8772096456692913
0
LINE
8
BLACK
6
CONTINUOUS
10
0.5670193307086614
20
0.8772096456692913
11
0.5721411811023622
21
0.8715212598425197
0
LINE
8
BLACK
6
CONTINUOUS
10
0.5721411811023622
20
0.8715212598425197
11
0.5759683858267717
21
0.8648923228346457
0
LINE
8
BLACK
6
CONTINUOUS
10
0.5759683858267717
20
0.8648923228346457
11
0.5783337401574803
21
0.8576125196850394
0
LINE
8
BLACK
6
CONTINUOUS
10
0.5783337401574803
20
0.8576125196850394
11
0.5791338582677166
21
0.85
0
LINE
8
BLACK
6
CONTINUOUS
10
0.5791338582677166
20
0.85
11
0.5783337401574803
21
0.8423874803149606
0
LINE
8
BLACK
6
CONTINUOUS
10
0.5783337401574803
20
0.8423874803149606
11
0.5759683858267717
21
0.8351076771653543
0
LINE
8
BLACK
6
CONTINUOUS
10
0.5759683858267717
20
0.8351076771653543
11
0.5721411811023622
21
0.8284787401574802
0
LINE
8
BLACK
6
CONTINUOUS
10
0.5721411811023622
20
0.8284787401574802
11
0.5670193307086614
21
0.8227903543307087
0
LINE
8
BLACK
6
CONTINUOUS
10
0.5670193307086614
20
0.8227903543307087
11
0.5608267716535433
21
0.8182911811023622
0
LINE
8
BLACK
6
CONTINUOUS
10
0.5608267716535433
20
0.8182911811023622
11
0.553834094488189
21
0.8151778346456693
0
LINE
8
BLACK
6
CONTINUOUS
10
0.553834094488189
20
0.8151778346456693
11
0.5463468897637795
21
0.8135864173228347
0
LINE
8
BLACK
6
CONTINUOUS
10
0.5463468897637795
20
0.8135864173228347
11
0.5386924803149606
21
0.8135864173228347
0
LINE
8
BLACK
6
CONTINUOUS
10
0.5386924803149606
20
0.8135864173228347
11
0.5312052755905512
21
0.8151778346456693
0
LINE
8
BLACK
6
CONTINUOUS
10
0.5312052755905512
20
0.8151778346456693
11
0.5242125984251969
21
0.8182911811023622
0
LINE
8
BLACK
6
CONTINUOUS
10
0.5242125984251969
20
0.8182911811023622
11
0.5180200393700787
21
0.8227903543307087
0
LINE
8
BLACK
6
CONTINUOUS
10
0.5180200393700787
20
0.8227903543307087
11
0.512898188976378
21
0.8284787401574802
0
LINE
8
BLACK
6
CONTINUOUS
10
0.512898188976378
20
0.8284787401574802
11
0.5090709842519685
21
0.8351076771653543
0
LINE
8
BLACK
6
CONTINUOUS
10
0.5090709842519685
20
0.8351076771653543
11
0.5067056299212598
21
0.8423874803149606
0
LINE
8
BLACK
6
CONTINUOUS
10
0.5067056299212598
20
0.8423874803149606
11
0.5059055118110236
21
0.85
0
LINE
8
BLACK
6
CONTINUOUS
10
0.5059055118110236
20
0.85
11
0.5067056299212598
21
0.8576125196850394
0
LINE
8
BLACK
6
CONTINUOUS
10
0.5067056299212598
20
0.8576125196850394
11
0.5090709842519685
21
0.8648923228346457
0
LINE
8
BLACK
6
CONTINUOUS
10
0.5090709842519685
20
0.8648923228346457
11
0.512898188976378
21
0.8715212598425197
0
LINE
8
BLACK
6
CONTINUOUS
10
0.512898188976378
20
0.8715212598425197
11
0.5180200393700787
21
0.8772096456692913
0
LINE
8
BLACK
6
CONTINUOUS
10
0.5180200393700787
20
0.8772096456692913
11
0.5242125984251969
21
0.8817088188976377
0
LINE
8
BLACK
6
CONTINUOUS
10
0.5242125984251969
20
0.8817088188976377
11
0.5312052755905512
21
0.8848221653543307
0
LINE
8
BLACK
6
CONTINUOUS
10
0.5312052755905512
20
0.8848221653543307
11
0.5386924803149606
21
0.8864135826771653
0
LINE
8
BLACK
6
CONTINUOUS
10
0.5386924803149606
20
0.8864135826771653
11
0.5463468897637795
21
0.8864135826771653
0
LINE
8
BLACK
6
CONTINUOUS
10
0.5463468897637795
20
0.8864135826771653
11
0.553834094488189
21
0.8848221653543307
0
LINE
8
BLACK
6
CONTINUOUS
10
0.653834094488189
20
0.8848221653543307
11
0.6608267716535433
21
0.8817088188976377
0
LINE
8
BLACK
6
CONTINUOUS
10
0.6608267716535433
20
0.8817088188976377
11
0.6670193307086614
21
0.8772096456692913
0
LINE
8
BLACK
6
CONTINUOUS
10
0.6670193307086614
20
0.8772096456692913
11
0.6721411811023622
21
0.8715212598425197
0
LINE
8
BLACK
6
CONTINUOUS
10
0.6721411811023622
20
0.8715212598425197
11
0.6759683858267717
21
0.8648923228346457
0
LINE
8
BLACK
6
CONTINUOUS
10
0.6759683858267717
20
0.8648923228346457
11
0.6783337401574803
21
0.8576125196850394
0
LINE
8
BLACK
6
CONTINUOUS
10
0.6783337401574803
20
0.8576125196850394
11
0.6791338582677166
21
0.85
0
LINE
8
BLACK
6
CONTINUOUS
10
0.6791338582677166
20
0.85
11
0.6783337401574803
21
0.8423874803149606
0
LINE
8
BLACK
6
CONTINUOUS
10
0.6783337401574803
20
0.8423874803149606
11
0.6759683858267717
21
0.8351076771653543
0
LINE
8
BLACK
6
CONTINUOUS
10
0.6759683858267717
20
0.8351076771653543
11
0.6721411811023622
21
0.8284787401574802
0
LINE
8
BLACK
6
CONTINUOUS
10
0.6721411811023622
20
0.8284787401574802
11
0.6670193307086614
21
0.8227903543307087
0
LINE
8
BLACK
6
CONTINUOUS
10
0.6670193307086614
20
0.8227903543307087
11
0.6608267716535433
21
0.8182911811023622
0
LINE
8
BLACK
6
CONTINUOUS
10
0.6608267716535433
20
0.8182911811023622
11
0.653834094488189
21
0.8151778346456693
0
LINE
8
BLACK
6
CONTINUOUS
10
0.653834094488189
20
0.8151778346456693
11
0.6463468897637795
21
0.8135864173228347
0
LINE
8
BLACK
6
CONTINUOUS
10
0.6463468897637795
20
0.8135864173228347
11
0.6386924803149606
21
0.8135864173228347
0
LINE
8
BLACK
6
CONTINUOUS
10
0.6386924803149606
20
0.8135864173228347
11
0.6312052755905512
21
0.8151778346456693
0
LINE
8
BLACK
6
CONTINUOUS
10
0.6312052755905512
20
0.8151778346456693
11
0.6242125984251968
21
0.8182911811023622
0
LINE
8
BLACK
6
CONTINUOUS
10
0.6242125984251968
20
0.8182911811023622
11
0.6180200393700788
21
0.8227903543307087
0
LINE
8
BLACK
6
CONTINUOUS
10
0.6180200393700788
20
0.8227903543307087
11
0.6128981889763779
21
0.8284787401574802
0
LINE
8
BLACK
6
CONTINUOUS
10
0.6128981889763779
20
0.8284787401574802
11
0.6090709842519685
21
0.8351076771653543
0
LINE
8
BLACK
6
CONTINUOUS
10
0.6090709842519685
20
0.8351076771653543
11
0.6067056299212599
21
0.8423874803149606
0
LINE
8
BLACK
6
CONTINUOUS
10
0.6067056299212599
20
0.8423874803149606
11
0.6059055118110236
21
0.85
0
LINE
8
BLACK
6
CONTINUOUS
10
0.6059055118110236
20
0.85
11
0.6067056299212599
21
0.8576125196850394
0
LINE
8
BLACK
6
CONTINUOUS
10
0.6067056299212599
20
0.8576125196850394
11
0.6090709842519685
21
0.8648923228346457
0
LINE
8
BLACK
6
CONTINUOUS
10
0.6090709842519685
20
0.8648923228346457
11
0.6128981889763779
21
0.8715212598425197
0
LINE
8
BLACK
6
CONTINUOUS
10
0.6128981889763779
20
0.8715212598425197
11
0.6180200393700788
21
0.8772096456692913
0
LINE
8
BLACK
6
CONTINUOUS
10
0.6180200393700788
20
0.8772096456692913
11
0.6242125984251968
21
0.8817088188976377
0
LINE
8
BLACK
6
CONTINUOUS
10
0.6242125984251968
20
0.8817088188976377
11
0.6312052755905512
21
0.8848221653543307
0
LINE
8
BLACK
6
CONTINUOUS
10
0.6312052755905512
20
0.8848221653543307
11
0.6386924803149606
21
0.8864135826771653
0
LINE
8
BLACK
6
CONTINUOUS
10
0.6386924803149606
20
0.8864135826771653
11
0.6463468897637795
21
0.8864135826771653
0
LINE
8
BLACK
6
CONTINUOUS
10
0.6463468897637795
20
0.8864135826771653
11
0.653834094488189
21
0.8848221653543307
0
LINE
8
BLACK
6
CONTINUOUS
10
0.9836775590551181
20
1.3164864566929133
11
0.9877669291338582
21
1.314579527559055
0
LINE
8
BLACK
6
CONTINUOUS
10
0.9877669291338582
20
1.314579527559055
11
0.9909574803149606
21
1.3113889763779527
0
LINE
8
BLACK
6
CONTINUOUS
10
0.9909574803149606
20
1.3113889763779527
11
0.9928644094488189
21
1.3072996062992126
0
LINE
8
BLACK
6
CONTINUOUS
10
0.9928644094488189
20
1.3072996062992126
11
0.9933070866141732
21
1.3039370078740158
0
LINE
8
BLACK
6
CONTINUOUS
10
0.9933070866141732
20
1.3039370078740158
11
0.9933070866141732
21
1.2842519685039371
0
LINE
8
BLACK
6
CONTINUOUS
10
0.9933070866141732
20
1.2842519685039371
11
0.9928644094488189
21
1.28088937007874
0
LINE
8
BLACK
6
CONTINUOUS
10
0.9928644094488189
20
1.28088937007874
11
0.9909574803149606
21
1.2767999999999999
0
LINE
8
BLACK
6
CONTINUOUS
10
0.9909574803149606
20
1.2767999999999999
11
0.9877669291338582
21
1.2736094488188976
0
LINE
8
BLACK
6
CONTINUOUS
10
0.9877669291338582
20
1.2736094488188976
11
0.9864173228346457
21
1.2729801181102363
0
LINE
8
BLACK
6
CONTINUOUS
10
0.9864173228346457
20
1.2729801181102363
11
0.9864173228346457
21
0.8505905511811024
0
LINE
8
BLACK
6
CONTINUOUS
10
0.9864173228346457
20
0.8505905511811024
11
0.9863605905511811
21
0.8500144881889764
0
LINE
8
BLACK
6
CONTINUOUS
10
0.9863605905511811
20
0.8500144881889764
11
0.9859196850393701
21
0.8489500787401575
0
LINE
8
BLACK
6
CONTINUOUS
10
0.9859196850393701
20
0.8489500787401575
11
0.9851050393700788
21
0.8481354330708661
0
LINE
8
BLACK
6
CONTINUOUS
10
0.9851050393700788
20
0.8481354330708661
11
0.9840406299212598
21
0.8476945275590551
0
LINE
8
BLACK
6
CONTINUOUS
10
0.9840406299212598
20
0.8476945275590551
11
0.9834645669291339
21
0.8476377952755906
0
LINE
8
BLACK
6
CONTINUOUS
10
0.9834645669291339
20
0.8476377952755906
11
0.8818897637795275
21
0.8476377952755906
0
LINE
8
BLACK
6
CONTINUOUS
10
0.8818897637795275
20
0.8476377952755906
11
0.8813137007874016
21
0.8476945275590551
0
LINE
8
BLACK
6
CONTINUOUS
10
0.8813137007874016
20
0.8476945275590551
11
0.8802492913385827
21
0.8481354330708661
0
LINE
8
BLACK
6
CONTINUOUS
10
0.8802492913385827
20
0.8481354330708661
11
0.8794346456692913
21
0.8489500787401575
0
LINE
8
BLACK
6
CONTINUOUS
10
0.8794346456692913
20
0.8489500787401575
11
0.8789937401574803
21
0.8500144881889764
0
LINE
8
BLACK
6
CONTINUOUS
10
0.8789937401574803
20
0.8500144881889764
11
0.8789370078740157
21
0.8505905511811024
0
LINE
8
BLACK
6
CONTINUOUS
10
0.8789370078740157
20
0.8505905511811024
11
0.8789370078740157
21
1.3108267716535433
0
LINE
8
BLACK
6
CONTINUOUS
10
0.8789370078740157
20
1.3108267716535433
11
0.8789937401574803
21
1.3114028346456692
0
LINE
8
BLACK
6
CONTINUOUS
10
0.8789937401574803
20
1.3114028346456692
11
0.8794346456692913
21
1.3124672440944882
0
LINE
8
BLACK
6
CONTINUOUS
10
0.8794346456692913
20
1.3124672440944882
11
0.8802492913385827
21
1.3132818897637795
0
LINE
8
BLACK
6
CONTINUOUS
10
0.8802492913385827
20
1.3132818897637795
11
0.8813137007874016
21
1.3137227952755905
0
LINE
8
BLACK
6
CONTINUOUS
10
0.8813137007874016
20
1.3137227952755905
11
0.8818897637795275
21
1.3137795275590551
0
LINE
8
BLACK
6
CONTINUOUS
10
0.8818897637795275
20
1.3137795275590551
11
0.8854488188976378
21
1.3137795275590551
0
LINE
8
BLACK
6
CONTINUOUS
10
0.8854488188976378
20
1.3137795275590551
11
0.8862488188976377
21
1.314579527559055
0
LINE
8
BLACK
6
CONTINUOUS
10
0.8862488188976377
20
1.314579527559055
11
0.890338188976378
21
1.3164864566929133
0
LINE
8
BLACK
6
CONTINUOUS
10
0.890338188976378
20
1.3164864566929133
11
0.8937007874015748
21
1.3169291338582676
0
LINE
8
BLACK
6
CONTINUOUS
10
0.8937007874015748
20
1.3169291338582676
11
0.9803149606299212
21
1.3169291338582676
0
LINE
8
BLACK
6
CONTINUOUS
10
0.9803149606299212
20
1.3169291338582676
11
0.9836775590551181
21
1.3164864566929133
0
LINE
8
BLACK
6
CONTINUOUS
10
0.8420479133858267
20
0.8910429921259843
11
0.8449856299212598
21
0.8890801181102362
0
LINE
8
BLACK
6
CONTINUOUS
10
0.8449856299212598
20
0.8890801181102362
11
0.8469485039370078
21
0.8861424015748032
0
LINE
8
BLACK
6
CONTINUOUS
10
0.8469485039370078
20
0.8861424015748032
11
0.8476377952755906
21
0.8826771653543307
0
LINE
8
BLACK
6
CONTINUOUS
10
0.8476377952755906
20
0.8826771653543307
11
0.8476377952755906
21
0.8708661417322835
0
LINE
8
BLACK
6
CONTINUOUS
10
0.8476377952755906
20
0.8708661417322835
11
0.8469485039370078
21
0.867400905511811
0
LINE
8
BLACK
6
CONTINUOUS
10
0.8469485039370078
20
0.867400905511811
11
0.8449856299212598
21
0.864463188976378
0
LINE
8
BLACK
6
CONTINUOUS
10
0.8449856299212598
20
0.864463188976378
11
0.8420479133858267
21
0.86250031496063
0
LINE
8
BLACK
6
CONTINUOUS
10
0.8420479133858267
20
0.86250031496063
11
0.8385826771653543
21
0.8618110236220472
0
LINE
8
BLACK
6
CONTINUOUS
10
0.8385826771653543
20
0.8618110236220472
11
0.7834645669291338
21
0.8618110236220472
0
LINE
8
BLACK
6
CONTINUOUS
10
0.7834645669291338
20
0.8618110236220472
11
0.7799993307086615
21
0.86250031496063
0
LINE
8
BLACK
6
CONTINUOUS
10
0.7799993307086615
20
0.86250031496063
11
0.7770616141732283
21
0.864463188976378
0
LINE
8
BLACK
6
CONTINUOUS
10
0.7770616141732283
20
0.864463188976378
11
0.7750987401574803
21
0.867400905511811
0
LINE
8
BLACK
6
CONTINUOUS
10
0.7750987401574803
20
0.867400905511811
11
0.7744094488188976
21
0.8708661417322835
0
LINE
8
BLACK
6
CONTINUOUS
10
0.7744094488188976
20
0.8708661417322835
11
0.7744094488188976
21
0.8826771653543307
0
LINE
8
BLACK
6
CONTINUOUS
10
0.7744094488188976
20
0.8826771653543307
11
0.7750987401574803
21
0.8861424015748032
0
LINE
8
BLACK
6
CONTINUOUS
10
0.7750987401574803
20
0.8861424015748032
11
0.7770616141732283
21
0.8890801181102362
0
LINE
8
BLACK
6
CONTINUOUS
10
0.7770616141732283
20
0.8890801181102362
11
0.7799993307086615
21
0.8910429921259843
0
LINE
8
BLACK
6
CONTINUOUS
10
0.7799993307086615
20
0.8910429921259843
11
0.7834645669291338
21
0.8917322834645669
0
LINE
8
BLACK
6
CONTINUOUS
10
0.7834645669291338
20
0.8917322834645669
11
0.8385826771653543
21
0.8917322834645669
0
LINE
8
BLACK
6
CONTINUOUS
10
0.8385826771653543
20
0.8917322834645669
11
0.8420479133858267
21
0.8910429921259843
0
LINE
8
BLACK
6
CONTINUOUS
10
0.8420479133858267
20
0.9402555905511811
11
0.8449856299212598
21
0.938292716535433
0
LINE
8
BLACK
6
CONTINUOUS
10
0.8449856299212598
20
0.938292716535433
11
0.8469485039370078
21
0.9353549999999999
0
LINE
8
BLACK
6
CONTINUOUS
10
0.8469485039370078
20
0.9353549999999999
11
0.8476377952755906
21
0.9318897637795276
0
LINE
8
BLACK
6
CONTINUOUS
10
0.8476377952755906
20
0.9318897637795276
11
0.8476377952755906
21
0.9200787401574803
0
LINE
8
BLACK
6
CONTINUOUS
10
0.8476377952755906
20
0.9200787401574803
11
0.8469485039370078
21
0.9166135039370078
0
LINE
8
BLACK
6
CONTINUOUS
10
0.8469485039370078
20
0.9166135039370078
11
0.8449856299212598
21
0.9136757874015747
0
LINE
8
BLACK
6
CONTINUOUS
10
0.8449856299212598
20
0.9136757874015747
11
0.8420479133858267
21
0.9117129133858267
0
LINE
8
BLACK
6
CONTINUOUS
10
0.8420479133858267
20
0.9117129133858267
11
0.8385826771653543
21
0.9110236220472441
0
LINE
8
BLACK
6
CONTINUOUS
10
0.8385826771653543
20
0.9110236220472441
11
0.7834645669291338
21
0.9110236220472441
0
LINE
8
BLACK
6
CONTINUOUS
10
0.7834645669291338
20
0.9110236220472441
11
0.7799993307086615
21
0.9117129133858267
0
LINE
8
BLACK
6
CONTINUOUS
10
0.7799993307086615
20
0.9117129133858267
11
0.7770616141732283
21
0.9136757874015747
0
LINE
8
BLACK
6
CONTINUOUS
10
0.7770616141732283
20
0.9136757874015747
11
0.7750987401574803
21
0.9166135039370078
0
LINE
8
BLACK
6
CONTINUOUS
10
0.7750987401574803
20
0.9166135039370078
11
0.7744094488188976
21
0.9200787401574803
0
LINE
8
BLACK
6
CONTINUOUS
10
0.7744094488188976
20
0.9200787401574803
11
0.7744094488188976
21
0.9318897637795276
0
LINE
8
BLACK
6
CONTINUOUS
10
0.7744094488188976
20
0.9318897637795276
11
0.7750987401574803
21
0.9353549999999999
0
LINE
8
BLACK
6
CONTINUOUS
10
0.7750987401574803
20
0.9353549999999999
11
0.7770616141732283
21
0.938292716535433
0
LINE
8
BLACK
6
CONTINUOUS
10
0.7770616141732283
20
0.938292716535433
11
0.7799993307086615
21
0.9402555905511811
0
LINE
8
BLACK
6
CONTINUOUS
10
0.7799993307086615
20
0.9402555905511811
11
0.7834645669291338
21
0.9409448818897638
0
LINE
8
BLACK
6
CONTINUOUS
10
0.7834645669291338
20
0.9409448818897638
11
0.8385826771653543
21
0.9409448818897638
0
LINE
8
BLACK
6
CONTINUOUS
10
0.8385826771653543
20
0.9409448818897638
11
0.8420479133858267
21
0.9402555905511811
0
LINE
8
BLACK
6
CONTINUOUS
10
0.553834094488189
20
0.9848221653543306
11
0.5608267716535433
21
0.9817088188976377
0
LINE
8
BLACK
6
CONTINUOUS
10
0.5608267716535433
20
0.9817088188976377
11
0.5670193307086614
21
0.9772096456692914
0
LINE
8
BLACK
6
CONTINUOUS
10
0.5670193307086614
20
0.9772096456692914
11
0.5721411811023622
21
0.9715212598425197
0
LINE
8
BLACK
6
CONTINUOUS
10
0.5721411811023622
20
0.9715212598425197
11
0.5759683858267717
21
0.9648923228346457
0
LINE
8
BLACK
6
CONTINUOUS
10
0.5759683858267717
20
0.9648923228346457
11
0.5783337401574803
21
0.9576125196850394
0
LINE
8
BLACK
6
CONTINUOUS
10
0.5783337401574803
20
0.9576125196850394
11
0.5791338582677166
21
0.95
0
LINE
8
BLACK
6
CONTINUOUS
10
0.5791338582677166
20
0.95
11
0.5783337401574803
21
0.9423874803149606
0
LINE
8
BLACK
6
CONTINUOUS
10
0.5783337401574803
20
0.9423874803149606
11
0.5759683858267717
21
0.9351076771653543
0
LINE
8
BLACK
6
CONTINUOUS
10
0.5759683858267717
20
0.9351076771653543
11
0.5721411811023622
21
0.9284787401574803
0
LINE
8
BLACK
6
CONTINUOUS
10
0.5721411811023622
20
0.9284787401574803
11
0.5670193307086614
21
0.9227903543307087
0
LINE
8
BLACK
6
CONTINUOUS
10
0.5670193307086614
20
0.9227903543307087
11
0.5608267716535433
21
0.9182911811023622
0
LINE
8
BLACK
6
CONTINUOUS
10
0.5608267716535433
20
0.9182911811023622
11
0.553834094488189
21
0.9151778346456693
0
LINE
8
BLACK
6
CONTINUOUS
10
0.553834094488189
20
0.9151778346456693
11
0.5463468897637795
21
0.9135864173228346
0
LINE
8
BLACK
6
CONTINUOUS
10
0.5463468897637795
20
0.9135864173228346
11
0.5386924803149606
21
0.9135864173228346
0
LINE
8
BLACK
6
CONTINUOUS
10
0.5386924803149606
20
0.9135864173228346
11
0.5312052755905512
21
0.9151778346456693
0
LINE
8
BLACK
6
CONTINUOUS
10
0.5312052755905512
20
0.9151778346456693
11
0.5242125984251969
21
0.9182911811023622
0
LINE
8
BLACK
6
CONTINUOUS
10
0.5242125984251969
20
0.9182911811023622
11
0.5180200393700787
21
0.9227903543307087
0
LINE
8
BLACK
6
CONTINUOUS
10
0.5180200393700787
20
0.9227903543307087
11
0.512898188976378
21
0.9284787401574803
0
LINE
8
BLACK
6
CONTINUOUS
10
0.512898188976378
20
0.9284787401574803
11
0.5090709842519685
21
0.9351076771653543
0
LINE
8
BLACK
6
CONTINUOUS
10
0.5090709842519685
20
0.9351076771653543
11
0.5067056299212598
21
0.9423874803149606
0
LINE
8
BLACK
6
CONTINUOUS
10
0.5067056299212598
20
0.9423874803149606
11
0.5059055118110236
21
0.95
0
LINE
8
BLACK
6
CONTINUOUS
10
0.5059055118110236
20
0.95
11
0.5067056299212598
21
0.9576125196850394
0
LINE
8
BLACK
6
CONTINUOUS
10
0.5067056299212598
20
0.9576125196850394
11
0.5090709842519685
21
0.9648923228346457
0
LINE
8
BLACK
6
CONTINUOUS
10
0.5090709842519685
20
0.9648923228346457
11
0.512898188976378
21
0.9715212598425197
0
LINE
8
BLACK
6
CONTINUOUS
10
0.512898188976378
20
0.9715212598425197
11
0.5180200393700787
21
0.9772096456692914
0
LINE
8
BLACK
6
CONTINUOUS
10
0.5180200393700787
20
0.9772096456692914
11
0.5242125984251969
21
0.9817088188976377
0
LINE
8
BLACK
6
CONTINUOUS
10
0.5242125984251969
20
0.9817088188976377
11
0.5312052755905512
21
0.9848221653543306
0
LINE
8
BLACK
6
CONTINUOUS
10
0.5312052755905512
20
0.9848221653543306
11
0.5386924803149606
21
0.9864135826771653
0
LINE
8
BLACK
6
CONTINUOUS
10
0.5386924803149606
20
0.9864135826771653
11
0.5463468897637795
21
0.9864135826771653
0
LINE
8
BLACK
6
CONTINUOUS
10
0.5463468897637795
20
0.9864135826771653
11
0.553834094488189
21
0.9848221653543306
0
LINE
8
BLACK
6
CONTINUOUS
10
0.653834094488189
20
0.9848221653543306
11
0.6608267716535433
21
0.9817088188976377
0
LINE
8
BLACK
6
CONTINUOUS
10
0.6608267716535433
20
0.9817088188976377
11
0.6670193307086614
21
0.9772096456692914
0
LINE
8
BLACK
6
CONTINUOUS
10
0.6670193307086614
20
0.9772096456692914
11
0.6721411811023622
21
0.9715212598425197
0
LINE
8
BLACK
6
CONTINUOUS
10
0.6721411811023622
20
0.9715212598425197
11
0.6759683858267717
21
0.9648923228346457
0
LINE
8
BLACK
6
CONTINUOUS
10
0.6759683858267717
20
0.9648923228346457
11
0.6783337401574803
21
0.9576125196850394
0
LINE
8
BLACK
6
CONTINUOUS
10
0.6783337401574803
20
0.9576125196850394
11
0.6791338582677166
21
0.95
0
LINE
8
BLACK
6
CONTINUOUS
10
0.6791338582677166
20
0.95
11
0.6783337401574803
21
0.9423874803149606
0
LINE
8
BLACK
6
CONTINUOUS
10
0.6783337401574803
20
0.9423874803149606
11
0.6759683858267717
21
0.9351076771653543
0
LINE
8
BLACK
6
CONTINUOUS
10
0.6759683858267717
20
0.9351076771653543
11
0.6721411811023622
21
0.9284787401574803
0
LINE
8
BLACK
6
CONTINUOUS
10
0.6721411811023622
20
0.9284787401574803
11
0.6670193307086614
21
0.9227903543307087
0
LINE
8
BLACK
6
CONTINUOUS
10
0.6670193307086614
20
0.9227903543307087
11
0.6608267716535433
21
0.9182911811023622
0
LINE
8
BLACK
6
CONTINUOUS
10
0.6608267716535433
20
0.9182911811023622
11
0.653834094488189
21
0.9151778346456693
0
LINE
8
BLACK
6
CONTINUOUS
10
0.653834094488189
20
0.9151778346456693
11
0.6463468897637795
21
0.9135864173228346
0
LINE
8
BLACK
6
CONTINUOUS
10
0.6463468897637795
20
0.9135864173228346
11
0.6386924803149606
21
0.9135864173228346
0
LINE
8
BLACK
6
CONTINUOUS
10
0.6386924803149606
20
0.9135864173228346
11
0.6312052755905512
21
0.9151778346456693
0
LINE
8
BLACK
6
CONTINUOUS
10
0.6312052755905512
20
0.9151778346456693
11
0.6242125984251968
21
0.9182911811023622
0
LINE
8
BLACK
6
CONTINUOUS
10
0.6242125984251968
20
0.9182911811023622
11
0.6180200393700788
21
0.9227903543307087
0
LINE
8
BLACK
6
CONTINUOUS
10
0.6180200393700788
20
0.9227903543307087
11
0.6128981889763779
21
0.9284787401574803
0
LINE
8
BLACK
6
CONTINUOUS
10
0.6128981889763779
20
0.9284787401574803
11
0.6090709842519685
21
0.9351076771653543
0
LINE
8
BLACK
6
CONTINUOUS
10
0.6090709842519685
20
0.9351076771653543
11
0.6067056299212599
21
0.9423874803149606
0
LINE
8
BLACK
6
CONTINUOUS
10
0.6067056299212599
20
0.9423874803149606
11
0.6059055118110236
21
0.95
0
LINE
8
BLACK
6
CONTINUOUS
10
0.6059055118110236
20
0.95
11
0.6067056299212599
21
0.9576125196850394
0
LINE
8
BLACK
6
CONTINUOUS
10
0.6067056299212599
20
0.9576125196850394
11
0.6090709842519685
21
0.9648923228346457
0
LINE
8
BLACK
6
CONTINUOUS
10
0.6090709842519685
20
0.9648923228346457
11
0.6128981889763779
21
0.9715212598425197
0
LINE
8
BLACK
6
CONTINUOUS
10
0.6128981889763779
20
0.9715212598425197
11
0.6180200393700788
21
0.9772096456692914
0
LINE
8
BLACK
6
CONTINUOUS
10
0.6180200393700788
20
0.9772096456692914
11
0.6242125984251968
21
0.9817088188976377
0
LINE
8
BLACK
6
CONTINUOUS
10
0.6242125984251968
20
0.9817088188976377
11
0.6312052755905512
21
0.9848221653543306
0
LINE
8
BLACK
6
CONTINUOUS
10
0.6312052755905512
20
0.9848221653543306
11
0.6386924803149606
21
0.9864135826771653
0
LINE
8
BLACK
6
CONTINUOUS
10
0.6386924803149606
20
0.9864135826771653
11
0.6463468897637795
21
0.9864135826771653
0
LINE
8
BLACK
6
CONTINUOUS
10
0.6463468897637795
20
0.9864135826771653
11
0.653834094488189
21
0.9848221653543306
0
LINE
8
BLACK
6
CONTINUOUS
10
0.8420479133858267
20
0.9894681889763779
11
0.8449856299212598
21
0.9875053149606299
0
LINE
8
BLACK
6
CONTINUOUS
10
0.8449856299212598
20
0.9875053149606299
11
0.8469485039370078
21
0.9845675984251968
0
LINE
8
BLACK
6
CONTINUOUS
10
0.8469485039370078
20
0.9845675984251968
11
0.8476377952755906
21
0.9811023622047244
0
LINE
8
BLACK
6
CONTINUOUS
10
0.8476377952755906
20
0.9811023622047244
11
0.8476377952755906
21
0.9692913385826771
0
LINE
8
BLACK
6
CONTINUOUS
10
0.8476377952755906
20
0.9692913385826771
11
0.8469485039370078
21
0.9658261023622047
0
LINE
8
BLACK
6
CONTINUOUS
10
0.8469485039370078
20
0.9658261023622047
11
0.8449856299212598
21
0.9628883858267716
0
LINE
8
BLACK
6
CONTINUOUS
10
0.8449856299212598
20
0.9628883858267716
11
0.8420479133858267
21
0.9609255118110236
0
LINE
8
BLACK
6
CONTINUOUS
10
0.8420479133858267
20
0.9609255118110236
11
0.8385826771653543
21
0.9602362204724409
0
LINE
8
BLACK
6
CONTINUOUS
10
0.8385826771653543
20
0.9602362204724409
11
0.7834645669291338
21
0.9602362204724409
0
LINE
8
BLACK
6
CONTINUOUS
10
0.7834645669291338
20
0.9602362204724409
11
0.7799993307086615
21
0.9609255118110236
0
LINE
8
BLACK
6
CONTINUOUS
10
0.7799993307086615
20
0.9609255118110236
11
0.7770616141732283
21
0.9628883858267716
0
LINE
8
BLACK
6
CONTINUOUS
10
0.7770616141732283
20
0.9628883858267716
11
0.7750987401574803
21
0.9658261023622047
0
LINE
8
BLACK
6
CONTINUOUS
10
0.7750987401574803
20
0.9658261023622047
11
0.7744094488188976
21
0.9692913385826771
0
LINE
8
BLACK
6
CONTINUOUS
10
0.7744094488188976
20
0.9692913385826771
11
0.7744094488188976
21
0.9811023622047244
0
LINE
8
BLACK
6
CONTINUOUS
10
0.7744094488188976
20
0.9811023622047244
11
0.7750987401574803
21
0.9845675984251968
0
LINE
8
BLACK
6
CONTINUOUS
10
0.7750987401574803
20
0.9845675984251968
11
0.7770616141732283
21
0.9875053149606299
0
LINE
8
BLACK
6
CONTINUOUS
10
0.7770616141732283
20
0.9875053149606299
11
0.7799993307086615
21
0.9894681889763779
0
LINE
8
BLACK
6
CONTINUOUS
10
0.7799993307086615
20
0.9894681889763779
11
0.7834645669291338
21
0.9901574803149606
0
LINE
8
BLACK
6
CONTINUOUS
10
0.7834645669291338
20
0.9901574803149606
11
0.8385826771653543
21
0.9901574803149606
0
LINE
8
BLACK
6
CONTINUOUS
10
0.8385826771653543
20
0.9901574803149606
11
0.8420479133858267
21
0.9894681889763779
0
LINE
8
BLACK
6
CONTINUOUS
10
0.8420479133858267
20
1.0386807874015749
11
0.8449856299212598
21
1.0367179133858266
0
LINE
8
BLACK
6
CONTINUOUS
10
0.8449856299212598
20
1.0367179133858266
11
0.8469485039370078
21
1.0337801968503937
0
LINE
8
BLACK
6
CONTINUOUS
10
0.8469485039370078
20
1.0337801968503937
11
0.8476377952755906
21
1.0303149606299213
0
LINE
8
BLACK
6
CONTINUOUS
10
0.8476377952755906
20
1.0303149606299213
11
0.8476377952755906
21
1.0185039370078739
0
LINE
8
BLACK
6
CONTINUOUS
10
0.8476377952755906
20
1.0185039370078739
11
0.8469485039370078
21
1.0150387007874015
0
LINE
8
BLACK
6
CONTINUOUS
10
0.8469485039370078
20
1.0150387007874015
11
0.8449856299212598
21
1.0121009842519684
0
LINE
8
BLACK
6
CONTINUOUS
10
0.8449856299212598
20
1.0121009842519684
11
0.8420479133858267
21
1.0101381102362204
0
LINE
8
BLACK
6
CONTINUOUS
10
0.8420479133858267
20
1.0101381102362204
11
0.8385826771653543
21
1.0094488188976378
0
LINE
8
BLACK
6
CONTINUOUS
10
0.8385826771653543
20
1.0094488188976378
11
0.7834645669291338
21
1.0094488188976378
0
LINE
8
BLACK
6
CONTINUOUS
10
0.7834645669291338
20
1.0094488188976378
11
0.7799993307086615
21
1.0101381102362204
0
LINE
8
BLACK
6
CONTINUOUS
10
0.7799993307086615
20
1.0101381102362204
11
0.7770616141732283
21
1.0121009842519684
0
LINE
8
BLACK
6
CONTINUOUS
10
0.7770616141732283
20
1.0121009842519684
11
0.7750987401574803
21
1.0150387007874015
0
LINE
8
BLACK
6
CONTINUOUS
10
0.7750987401574803
20
1.0150387007874015
11
0.7744094488188976
21
1.0185039370078739
0
LINE
8
BLACK
6
CONTINUOUS
10
0.7744094488188976
20
1.0185039370078739
11
0.7744094488188976
21
1.0303149606299213
0
LINE
8
BLACK
6
CONTINUOUS
10
0.7744094488188976
20
1.0303149606299213
11
0.7750987401574803
21
1.0337801968503937
0
LINE
8
BLACK
6
CONTINUOUS
10
0.7750987401574803
20
1.0337801968503937
11
0.7770616141732283
21
1.0367179133858266
0
LINE
8
BLACK
6
CONTINUOUS
10
0.7770616141732283
20
1.0367179133858266
11
0.7799993307086615
21
1.0386807874015749
0
LINE
8
BLACK
6
CONTINUOUS
10
0.7799993307086615
20
1.0386807874015749
11
0.7834645669291338
21
1.0393700787401574
0
LINE
8
BLACK
6
CONTINUOUS
10
0.7834645669291338
20
1.0393700787401574
11
0.8385826771653543
21
1.0393700787401574
0
LINE
8
BLACK
6
CONTINUOUS
10
0.8385826771653543
20
1.0393700787401574
11
0.8420479133858267
21
1.0386807874015749
0
LINE
8
BLACK
6
CONTINUOUS
10
0.553834094488189
20
1.0848221653543306
11
0.5608267716535433
21
1.0817088188976378
0
LINE
8
BLACK
6
CONTINUOUS
10
0.5608267716535433
20
1.0817088188976378
11
0.5670193307086614
21
1.0772096456692912
0
LINE
8
BLACK
6
CONTINUOUS
10
0.5670193307086614
20
1.0772096456692912
11
0.5721411811023622
21
1.0715212598425197
0
LINE
8
BLACK
6
CONTINUOUS
10
0.5721411811023622
20
1.0715212598425197
11
0.5759683858267717
21
1.0648923228346456
0
LINE
8
BLACK
6
CONTINUOUS
10
0.5759683858267717
20
1.0648923228346456
11
0.5783337401574803
21
1.0576125196850394
0
LINE
8
BLACK
6
CONTINUOUS
10
0.5783337401574803
20
1.0576125196850394
11
0.5791338582677166
21
1.05
0
LINE
8
BLACK
6
CONTINUOUS
10
0.5791338582677166
20
1.05
11
0.5783337401574803
21
1.0423874803149606
0
LINE
8
BLACK
6
CONTINUOUS
10
0.5783337401574803
20
1.0423874803149606
11
0.5759683858267717
21
1.0351076771653542
0
LINE
8
BLACK
6
CONTINUOUS
10
0.5759683858267717
20
1.0351076771653542
11
0.5721411811023622
21
1.0284787401574802
0
LINE
8
BLACK
6
CONTINUOUS
10
0.5721411811023622
20
1.0284787401574802
11
0.5670193307086614
21
1.0227903543307086
0
LINE
8
BLACK
6
CONTINUOUS
10
0.5670193307086614
20
1.0227903543307086
11
0.5608267716535433
21
1.0182911811023623
0
LINE
8
BLACK
6
CONTINUOUS
10
0.5608267716535433
20
1.0182911811023623
11
0.553834094488189
21
1.0151778346456692
0
LINE
8
BLACK
6
CONTINUOUS
10
0.553834094488189
20
1.0151778346456692
11
0.5463468897637795
21
1.0135864173228346
0
LINE
8
BLACK
6
CONTINUOUS
10
0.5463468897637795
20
1.0135864173228346
11
0.5386924803149606
21
1.0135864173228346
0
LINE
8
BLACK
6
CONTINUOUS
10
0.5386924803149606
20
1.0135864173228346
11
0.5312052755905512
21
1.0151778346456692
0
LINE
8
BLACK
6
CONTINUOUS
10
0.5312052755905512
20
1.0151778346456692
11
0.5242125984251969
21
1.0182911811023623
0
LINE
8
BLACK
6
CONTINUOUS
10
0.5242125984251969
20
1.0182911811023623
11
0.5180200393700787
21
1.0227903543307086
0
LINE
8
BLACK
6
CONTINUOUS
10
0.5180200393700787
20
1.0227903543307086
11
0.512898188976378
21
1.0284787401574802
0
LINE
8
BLACK
6
CONTINUOUS
10
0.512898188976378
20
1.0284787401574802
11
0.5090709842519685
21
1.0351076771653542
0
LINE
8
BLACK
6
CONTINUOUS
10
0.5090709842519685
20
1.0351076771653542
11
0.5067056299212598
21
1.0423874803149606
0
LINE
8
BLACK
6
CONTINUOUS
10
0.5067056299212598
20
1.0423874803149606
11
0.5059055118110236
21
1.05
0
LINE
8
BLACK
6
CONTINUOUS
10
0.5059055118110236
20
1.05
11
0.5067056299212598
21
1.0576125196850394
0
LINE
8
BLACK
6
CONTINUOUS
10
0.5067056299212598
20
1.0576125196850394
11
0.5090709842519685
21
1.0648923228346456
0
LINE
8
BLACK
6
CONTINUOUS
10
0.5090709842519685
20
1.0648923228346456
11
0.512898188976378
21
1.0715212598425197
0
LINE
8
BLACK
6
CONTINUOUS
10
0.512898188976378
20
1.0715212598425197
11
0.5180200393700787
21
1.0772096456692912
0
LINE
8
BLACK
6
CONTINUOUS
10
0.5180200393700787
20
1.0772096456692912
11
0.5242125984251969
21
1.0817088188976378
0
LINE
8
BLACK
6
CONTINUOUS
10
0.5242125984251969
20
1.0817088188976378
11
0.5312052755905512
21
1.0848221653543306
0
LINE
8
BLACK
6
CONTINUOUS
10
0.5312052755905512
20
1.0848221653543306
11
0.5386924803149606
21
1.0864135826771653
0
LINE
8
BLACK
6
CONTINUOUS
10
0.5386924803149606
20
1.0864135826771653
11
0.5463468897637795
21
1.0864135826771653
0
LINE
8
BLACK
6
CONTINUOUS
10
0.5463468897637795
20
1.0864135826771653
11
0.553834094488189
21
1.0848221653543306
0
LINE
8
BLACK
6
CONTINUOUS
10
0.653834094488189
20
1.0848221653543306
11
0.6608267716535433
21
1.0817088188976378
0
LINE
8
BLACK
6
CONTINUOUS
10
0.6608267716535433
20
1.0817088188976378
11
0.6670193307086614
21
1.0772096456692912
0
LINE
8
BLACK
6
CONTINUOUS
10
0.6670193307086614
20
1.0772096456692912
11
0.6721411811023622
21
1.0715212598425197
0
LINE
8
BLACK
6
CONTINUOUS
10
0.6721411811023622
20
1.0715212598425197
11
0.6759683858267717
21
1.0648923228346456
0
LINE
8
BLACK
6
CONTINUOUS
10
0.6759683858267717
20
1.0648923228346456
11
0.6783337401574803
21
1.0576125196850394
0
LINE
8
BLACK
6
CONTINUOUS
10
0.6783337401574803
20
1.0576125196850394
11
0.6791338582677166
21
1.05
0
LINE
8
BLACK
6
CONTINUOUS
10
0.6791338582677166
20
1.05
11
0.6783337401574803
21
1.0423874803149606
0
LINE
8
BLACK
6
CONTINUOUS
10
0.6783337401574803
20
1.0423874803149606
11
0.6759683858267717
21
1.0351076771653542
0
LINE
8
BLACK
6
CONTINUOUS
10
0.6759683858267717
20
1.0351076771653542
11
0.6721411811023622
21
1.0284787401574802
0
LINE
8
BLACK
6
CONTINUOUS
10
0.6721411811023622
20
1.0284787401574802
11
0.6670193307086614
21
1.0227903543307086
0
LINE
8
BLACK
6
CONTINUOUS
10
0.6670193307086614
20
1.0227903543307086
11
0.6608267716535433
21
1.0182911811023623
0
LINE
8
BLACK
6
CONTINUOUS
10
0.6608267716535433
20
1.0182911811023623
11
0.653834094488189
21
1.0151778346456692
0
LINE
8
BLACK
6
CONTINUOUS
10
0.653834094488189
20
1.0151778346456692
11
0.6463468897637795
21
1.0135864173228346
0
LINE
8
BLACK
6
CONTINUOUS
10
0.6463468897637795
20
1.0135864173228346
11
0.6386924803149606
21
1.0135864173228346
0
LINE
8
BLACK
6
CONTINUOUS
10
0.6386924803149606
20
1.0135864173228346
11
0.6312052755905512
21
1.0151778346456692
0
LINE
8
BLACK
6
CONTINUOUS
10
0.6312052755905512
20
1.0151778346456692
11
0.6242125984251968
21
1.0182911811023623
0
LINE
8
BLACK
6
CONTINUOUS
10
0.6242125984251968
20
1.0182911811023623
11
0.6180200393700788
21
1.0227903543307086
0
LINE
8
BLACK
6
CONTINUOUS
10
0.6180200393700788
20
1.0227903543307086
11
0.6128981889763779
21
1.0284787401574802
0
LINE
8
BLACK
6
CONTINUOUS
10
0.6128981889763779
20
1.0284787401574802
11
0.6090709842519685
21
1.0351076771653542
0
LINE
8
BLACK
6
CONTINUOUS
10
0.6090709842519685
20
1.0351076771653542
11
0.6067056299212599
21
1.0423874803149606
0
LINE
8
BLACK
6
CONTINUOUS
10
0.6067056299212599
20
1.0423874803149606
11
0.6059055118110236
21
1.05
0
LINE
8
BLACK
6
CONTINUOUS
10
0.6059055118110236
20
1.05
11
0.6067056299212599
21
1.0576125196850394
0
LINE
8
BLACK
6
CONTINUOUS
10
0.6067056299212599
20
1.0576125196850394
11
0.6090709842519685
21
1.0648923228346456
0
LINE
8
BLACK
6
CONTINUOUS
10
0.6090709842519685
20
1.0648923228346456
11
0.6128981889763779
21
1.0715212598425197
0
LINE
8
BLACK
6
CONTINUOUS
10
0.6128981889763779
20
1.0715212598425197
11
0.6180200393700788
21
1.0772096456692912
0
LINE
8
BLACK
6
CONTINUOUS
10
0.6180200393700788
20
1.0772096456692912
11
0.6242125984251968
21
1.0817088188976378
0
LINE
8
BLACK
6
CONTINUOUS
10
0.6242125984251968
20
1.0817088188976378
11
0.6312052755905512
21
1.0848221653543306
0
LINE
8
BLACK
6
CONTINUOUS
10
0.6312052755905512
20
1.0848221653543306
11
0.6386924803149606
21
1.0864135826771653
0
LINE
8
BLACK
6
CONTINUOUS
10
0.6386924803149606
20
1.0864135826771653
11
0.6463468897637795
21
1.0864135826771653
0
LINE
8
BLACK
6
CONTINUOUS
10
0.6463468897637795
20
1.0864135826771653
11
0.653834094488189
21
1.0848221653543306
0
LINE
8
BLACK
6
CONTINUOUS
10
0.8420479133858267
20
1.0878933858267716
11
0.8449856299212598
21
1.0859305118110236
0
LINE
8
BLACK
6
CONTINUOUS
10
0.8449856299212598
20
1.0859305118110236
11
0.8469485039370078
21
1.0829927952755904
0
LINE
8
BLACK
6
CONTINUOUS
10
0.8469485039370078
20
1.0829927952755904
11
0.8476377952755906
21
1.0795275590551181
0
LINE
8
BLACK
6
CONTINUOUS
10
0.8476377952755906
20
1.0795275590551181
11
0.8476377952755906
21
1.0677165354330709
0
LINE
8
BLACK
6
CONTINUOUS
10
0.8476377952755906
20
1.0677165354330709
11
0.8469485039370078
21
1.0642512992125983
0
LINE
8
BLACK
6
CONTINUOUS
10
0.8469485039370078
20
1.0642512992125983
11
0.8449856299212598
21
1.0613135826771654
0
LINE
8
BLACK
6
CONTINUOUS
10
0.8449856299212598
20
1.0613135826771654
11
0.8420479133858267
21
1.0593507086614173
0
LINE
8
BLACK
6
CONTINUOUS
10
0.8420479133858267
20
1.0593507086614173
11
0.8385826771653543
21
1.0586614173228346
0
LINE
8
BLACK
6
CONTINUOUS
10
0.8385826771653543
20
1.0586614173228346
11
0.7834645669291338
21
1.0586614173228346
0
LINE
8
BLACK
6
CONTINUOUS
10
0.7834645669291338
20
1.0586614173228346
11
0.7799993307086615
21
1.0593507086614173
0
LINE
8
BLACK
6
CONTINUOUS
10
0.7799993307086615
20
1.0593507086614173
11
0.7770616141732283
21
1.0613135826771654
0
LINE
8
BLACK
6
CONTINUOUS
10
0.7770616141732283
20
1.0613135826771654
11
0.7750987401574803
21
1.0642512992125983
0
LINE
8
BLACK
6
CONTINUOUS
10
0.7750987401574803
20
1.0642512992125983
11
0.7744094488188976
21
1.0677165354330709
0
LINE
8
BLACK
6
CONTINUOUS
10
0.7744094488188976
20
1.0677165354330709
11
0.7744094488188976
21
1.0795275590551181
0
LINE
8
BLACK
6
CONTINUOUS
10
0.7744094488188976
20
1.0795275590551181
11
0.7750987401574803
21
1.0829927952755904
0
LINE
8
BLACK
6
CONTINUOUS
10
0.7750987401574803
20
1.0829927952755904
11
0.7770616141732283
21
1.0859305118110236
0
LINE
8
BLACK
6
CONTINUOUS
10
0.7770616141732283
20
1.0859305118110236
11
0.7799993307086615
21
1.0878933858267716
0
LINE
8
BLACK
6
CONTINUOUS
10
0.7799993307086615
20
1.0878933858267716
11
0.7834645669291338
21
1.0885826771653544
0
LINE
8
BLACK
6
CONTINUOUS
10
0.7834645669291338
20
1.0885826771653544
11
0.8385826771653543
21
1.0885826771653544
0
LINE
8
BLACK
6
CONTINUOUS
10
0.8385826771653543
20
1.0885826771653544
11
0.8420479133858267
21
1.0878933858267716
0
LINE
8
BLACK
6
CONTINUOUS
10
0.8420479133858267
20
1.1371059842519684
11
0.8449856299212598
21
1.1351431102362204
0
LINE
8
BLACK
6
CONTINUOUS
10
0.8449856299212598
20
1.1351431102362204
11
0.8469485039370078
21
1.1322053937007874
0
LINE
8
BLACK
6
CONTINUOUS
10
0.8469485039370078
20
1.1322053937007874
11
0.8476377952755906
21
1.1287401574803149
0
LINE
8
BLACK
6
CONTINUOUS
10
0.8476377952755906
20
1.1287401574803149
11
0.8476377952755906
21
1.1169291338582676
0
LINE
8
BLACK
6
CONTINUOUS
10
0.8476377952755906
20
1.1169291338582676
11
0.8469485039370078
21
1.1134638976377953
0
LINE
8
BLACK
6
CONTINUOUS
10
0.8469485039370078
20
1.1134638976377953
11
0.8449856299212598
21
1.1105261811023621
0
LINE
8
BLACK
6
CONTINUOUS
10
0.8449856299212598
20
1.1105261811023621
11
0.8420479133858267
21
1.1085633070866141
0
LINE
8
BLACK
6
CONTINUOUS
10
0.8420479133858267
20
1.1085633070866141
11
0.8385826771653543
21
1.1078740157480316
0
LINE
8
BLACK
6
CONTINUOUS
10
0.8385826771653543
20
1.1078740157480316
11
0.7834645669291338
21
1.1078740157480316
0
LINE
8
BLACK
6
CONTINUOUS
10
0.7834645669291338
20
1.1078740157480316
11
0.7799993307086615
21
1.1085633070866141
0
LINE
8
BLACK
6
CONTINUOUS
10
0.7799993307086615
20
1.1085633070866141
11
0.7770616141732283
21
1.1105261811023621
0
LINE
8
BLACK
6
CONTINUOUS
10
0.7770616141732283
20
1.1105261811023621
11
0.7750987401574803
21
1.1134638976377953
0
LINE
8
BLACK
6
CONTINUOUS
10
0.7750987401574803
20
1.1134638976377953
11
0.7744094488188976
21
1.1169291338582676
0
LINE
8
BLACK
6
CONTINUOUS
10
0.7744094488188976
20
1.1169291338582676
11
0.7744094488188976
21
1.1287401574803149
0
LINE
8
BLACK
6
CONTINUOUS
10
0.7744094488188976
20
1.1287401574803149
11
0.7750987401574803
21
1.1322053937007874
0
LINE
8
BLACK
6
CONTINUOUS
10
0.7750987401574803
20
1.1322053937007874
11
0.7770616141732283
21
1.1351431102362204
0
LINE
8
BLACK
6
CONTINUOUS
10
0.7770616141732283
20
1.1351431102362204
11
0.7799993307086615
21
1.1371059842519684
0
LINE
8
BLACK
6
CONTINUOUS
10
0.7799993307086615
20
1.1371059842519684
11
0.7834645669291338
21
1.1377952755905512
0
LINE
8
BLACK
6
CONTINUOUS
10
0.7834645669291338
20
1.1377952755905512
11
0.8385826771653543
21
1.1377952755905512
0
LINE
8
BLACK
6
CONTINUOUS
10
0.8385826771653543
20
1.1377952755905512
11
0.8420479133858267
21
1.1371059842519684
0
LINE
8
BLACK
6
CONTINUOUS
10
0.553834094488189
20
1.1848221653543307
11
0.5608267716535433
21
1.1817088188976377
0
LINE
8
BLACK
6
CONTINUOUS
10
0.5608267716535433
20
1.1817088188976377
11
0.5670193307086614
21
1.1772096456692913
0
LINE
8
BLACK
6
CONTINUOUS
10
0.5670193307086614
20
1.1772096456692913
11
0.5721411811023622
21
1.1715212598425198
0
LINE
8
BLACK
6
CONTINUOUS
10
0.5721411811023622
20
1.1715212598425198
11
0.5759683858267717
21
1.1648923228346457
0
LINE
8
BLACK
6
CONTINUOUS
10
0.5759683858267717
20
1.1648923228346457
11
0.5783337401574803
21
1.1576125196850393
0
LINE
8
BLACK
6
CONTINUOUS
10
0.5783337401574803
20
1.1576125196850393
11
0.5791338582677166
21
1.1499999999999999
0
LINE
8
BLACK
6
CONTINUOUS
10
0.5791338582677166
20
1.1499999999999999
11
0.5783337401574803
21
1.1423874803149605
0
LINE
8
BLACK
6
CONTINUOUS
10
0.5783337401574803
20
1.1423874803149605
11
0.5759683858267717
21
1.1351076771653543
0
LINE
8
BLACK
6
CONTINUOUS
10
0.5759683858267717
20
1.1351076771653543
11
0.5721411811023622
21
1.1284787401574803
0
LINE
8
BLACK
6
CONTINUOUS
10
0.5721411811023622
20
1.1284787401574803
11
0.5670193307086614
21
1.1227903543307087
0
LINE
8
BLACK
6
CONTINUOUS
10
0.5670193307086614
20
1.1227903543307087
11
0.5608267716535433
21
1.1182911811023621
0
LINE
8
BLACK
6
CONTINUOUS
10
0.5608267716535433
20
1.1182911811023621
11
0.553834094488189
21
1.1151778346456693
0
LINE
8
BLACK
6
CONTINUOUS
10
0.553834094488189
20
1.1151778346456693
11
0.5463468897637795
21
1.1135864173228347
0
LINE
8
BLACK
6
CONTINUOUS
10
0.5463468897637795
20
1.1135864173228347
11
0.5386924803149606
21
1.1135864173228347
0
LINE
8
BLACK
6
CONTINUOUS
10
0.5386924803149606
20
1.1135864173228347
11
0.5312052755905512
21
1.1151778346456693
0
LINE
8
BLACK
6
CONTINUOUS
10
0.5312052755905512
20
1.1151778346456693
11
0.5242125984251969
21
1.1182911811023621
0
LINE
8
BLACK
6
CONTINUOUS
10
0.5242125984251969
20
1.1182911811023621
11
0.5180200393700787
21
1.1227903543307087
0
LINE
8
BLACK
6
CONTINUOUS
10
0.5180200393700787
20
1.1227903543307087
11
0.512898188976378
21
1.1284787401574803
0
LINE
8
BLACK
6
CONTINUOUS
10
0.512898188976378
20
1.1284787401574803
11
0.5090709842519685
21
1.1351076771653543
0
LINE
8
BLACK
6
CONTINUOUS
10
0.5090709842519685
20
1.1351076771653543
11
0.5067056299212598
21
1.1423874803149605
0
LINE
8
BLACK
6
CONTINUOUS
10
0.5067056299212598
20
1.1423874803149605
11
0.5059055118110236
21
1.1499999999999999
0
LINE
8
BLACK
6
CONTINUOUS
10
0.5059055118110236
20
1.1499999999999999
11
0.5067056299212598
21
1.1576125196850393
0
LINE
8
BLACK
6
CONTINUOUS
10
0.5067056299212598
20
1.1576125196850393
11
0.5090709842519685
21
1.1648923228346457
0
LINE
8
BLACK
6
CONTINUOUS
10
0.5090709842519685
20
1.1648923228346457
11
0.512898188976378
21
1.1715212598425198
0
LINE
8
BLACK
6
CONTINUOUS
10
0.512898188976378
20
1.1715212598425198
11
0.5180200393700787
21
1.1772096456692913
0
LINE
8
BLACK
6
CONTINUOUS
10
0.5180200393700787
20
1.1772096456692913
11
0.5242125984251969
21
1.1817088188976377
0
LINE
8
BLACK
6
CONTINUOUS
10
0.5242125984251969
20
1.1817088188976377
11
0.5312052755905512
21
1.1848221653543307
0
LINE
8
BLACK
6
CONTINUOUS
10
0.5312052755905512
20
1.1848221653543307
11
0.5386924803149606
21
1.1864135826771653
0
LINE
8
BLACK
6
CONTINUOUS
10
0.5386924803149606
20
1.1864135826771653
11
0.5463468897637795
21
1.1864135826771653
0
LINE
8
BLACK
6
CONTINUOUS
10
0.5463468897637795
20
1.1864135826771653
11
0.553834094488189
21
1.1848221653543307
0
LINE
8
BLACK
6
CONTINUOUS
10
0.653834094488189
20
1.1848221653543307
11
0.6608267716535433
21
1.1817088188976377
0
LINE
8
BLACK
6
CONTINUOUS
10
0.6608267716535433
20
1.1817088188976377
11
0.6670193307086614
21
1.1772096456692913
0
LINE
8
BLACK
6
CONTINUOUS
10
0.6670193307086614
20
1.1772096456692913
11
0.6721411811023622
21
1.1715212598425198
0
LINE
8
BLACK
6
CONTINUOUS
10
0.6721411811023622
20
1.1715212598425198
11
0.6759683858267717
21
1.1648923228346457
0
LINE
8
BLACK
6
CONTINUOUS
10
0.6759683858267717
20
1.1648923228346457
11
0.6783337401574803
21
1.1576125196850393
0
LINE
8
BLACK
6
CONTINUOUS
10
0.6783337401574803
20
1.1576125196850393
11
0.6791338582677166
21
1.1499999999999999
0
LINE
8
BLACK
6
CONTINUOUS
10
0.6791338582677166
20
1.1499999999999999
11
0.6783337401574803
21
1.1423874803149605
0
LINE
8
BLACK
6
CONTINUOUS
10
0.6783337401574803
20
1.1423874803149605
11
0.6759683858267717
21
1.1351076771653543
0
LINE
8
BLACK
6
CONTINUOUS
10
0.6759683858267717
20
1.1351076771653543
11
0.6721411811023622
21
1.1284787401574803
0
LINE
8
BLACK
6
CONTINUOUS
10
0.6721411811023622
20
1.1284787401574803
11
0.6670193307086614
21
1.1227903543307087
0
LINE
8
BLACK
6
CONTINUOUS
10
0.6670193307086614
20
1.1227903543307087
11
0.6608267716535433
21
1.1182911811023621
0
LINE
8
BLACK
6
CONTINUOUS
10
0.6608267716535433
20
1.1182911811023621
11
0.653834094488189
21
1.1151778346456693
0
LINE
8
BLACK
6
CONTINUOUS
10
0.653834094488189
20
1.1151778346456693
11
0.6463468897637795
21
1.1135864173228347
0
LINE
8
BLACK
6
CONTINUOUS
10
0.6463468897637795
20
1.1135864173228347
11
0.6386924803149606
21
1.1135864173228347
0
LINE
8
BLACK
6
CONTINUOUS
10
0.6386924803149606
20
1.1135864173228347
11
0.6312052755905512
21
1.1151778346456693
0
LINE
8
BLACK
6
CONTINUOUS
10
0.6312052755905512
20
1.1151778346456693
11
0.6242125984251968
21
1.1182911811023621
0
LINE
8
BLACK
6
CONTINUOUS
10
0.6242125984251968
20
1.1182911811023621
11
0.6180200393700788
21
1.1227903543307087
0
LINE
8
BLACK
6
CONTINUOUS
10
0.6180200393700788
20
1.1227903543307087
11
0.6128981889763779
21
1.1284787401574803
0
LINE
8
BLACK
6
CONTINUOUS
10
0.6128981889763779
20
1.1284787401574803
11
0.6090709842519685
21
1.1351076771653543
0
LINE
8
BLACK
6
CONTINUOUS
10
0.6090709842519685
20
1.1351076771653543
11
0.6067056299212599
21
1.1423874803149605
0
LINE
8
BLACK
6
CONTINUOUS
10
0.6067056299212599
20
1.1423874803149605
11
0.6059055118110236
21
1.1499999999999999
0
LINE
8
BLACK
6
CONTINUOUS
10
0.6059055118110236
20
1.1499999999999999
11
0.6067056299212599
21
1.1576125196850393
0
LINE
8
BLACK
6
CONTINUOUS
10
0.6067056299212599
20
1.1576125196850393
11
0.6090709842519685
21
1.1648923228346457
0
LINE
8
BLACK
6
CONTINUOUS
10
0.6090709842519685
20
1.1648923228346457
11
0.6128981889763779
21
1.1715212598425198
0
LINE
8
BLACK
6
CONTINUOUS
10
0.6128981889763779
20
1.1715212598425198
11
0.6180200393700788
21
1.1772096456692913
0
LINE
8
BLACK
6
CONTINUOUS
10
0.6180200393700788
20
1.1772096456692913
11
0.6242125984251968
21
1.1817088188976377
0
LINE
8
BLACK
6
CONTINUOUS
10
0.6242125984251968
20
1.1817088188976377
11
0.6312052755905512
21
1.1848221653543307
0
LINE
8
BLACK
6
CONTINUOUS
10
0.6312052755905512
20
1.1848221653543307
11
0.6386924803149606
21
1.1864135826771653
0
LINE
8
BLACK
6
CONTINUOUS
10
0.6386924803149606
20
1.1864135826771653
11
0.6463468897637795
21
1.1864135826771653
0
LINE
8
BLACK
6
CONTINUOUS
10
0.6463468897637795
20
1.1864135826771653
11
0.653834094488189
21
1.1848221653543307
0
LINE
8
BLACK
6
CONTINUOUS
10
0.8420479133858267
20
1.1863185826771654
11
0.8449856299212598
21
1.1843557086614174
0
LINE
8
BLACK
6
CONTINUOUS
10
0.8449856299212598
20
1.1843557086614174
11
0.8469485039370078
21
1.1814179921259842
0
LINE
8
BLACK
6
CONTINUOUS
10
0.8469485039370078
20
1.1814179921259842
11
0.8476377952755906
21
1.1779527559055119
0
LINE
8
BLACK
6
CONTINUOUS
10
0.8476377952755906
20
1.1779527559055119
11
0.8476377952755906
21
1.1661417322834646
0
LINE
8
BLACK
6
CONTINUOUS
10
0.8476377952755906
20
1.1661417322834646
11
0.8469485039370078
21
1.1626764960629921
0
LINE
8
BLACK
6
CONTINUOUS
10
0.8469485039370078
20
1.1626764960629921
11
0.8449856299212598
21
1.1597387795275591
0
LINE
8
BLACK
6
CONTINUOUS
10
0.8449856299212598
20
1.1597387795275591
11
0.8420479133858267
21
1.1577759055118111
0
LINE
8
BLACK
6
CONTINUOUS
10
0.8420479133858267
20
1.1577759055118111
11
0.8385826771653543
21
1.1570866141732283
0
LINE
8
BLACK
6
CONTINUOUS
10
0.8385826771653543
20
1.1570866141732283
11
0.7834645669291338
21
1.1570866141732283
0
LINE
8
BLACK
6
CONTINUOUS
10
0.7834645669291338
20
1.1570866141732283
11
0.7799993307086615
21
1.1577759055118111
0
LINE
8
BLACK
6
CONTINUOUS
10
0.7799993307086615
20
1.1577759055118111
11
0.7770616141732283
21
1.1597387795275591
0
LINE
8
BLACK
6
CONTINUOUS
10
0.7770616141732283
20
1.1597387795275591
11
0.7750987401574803
21
1.1626764960629921
0
LINE
8
BLACK
6
CONTINUOUS
10
0.7750987401574803
20
1.1626764960629921
11
0.7744094488188976
21
1.1661417322834646
0
LINE
8
BLACK
6
CONTINUOUS
10
0.7744094488188976
20
1.1661417322834646
11
0.7744094488188976
21
1.1779527559055119
0
LINE
8
BLACK
6
CONTINUOUS
10
0.7744094488188976
20
1.1779527559055119
11
0.7750987401574803
21
1.1814179921259842
0
LINE
8
BLACK
6
CONTINUOUS
10
0.7750987401574803
20
1.1814179921259842
11
0.7770616141732283
21
1.1843557086614174
0
LINE
8
BLACK
6
CONTINUOUS
10
0.7770616141732283
20
1.1843557086614174
11
0.7799993307086615
21
1.1863185826771654
0
LINE
8
BLACK
6
CONTINUOUS
10
0.7799993307086615
20
1.1863185826771654
11
0.7834645669291338
21
1.1870078740157479
0
LINE
8
BLACK
6
CONTINUOUS
10
0.7834645669291338
20
1.1870078740157479
11
0.8385826771653543
21
1.1870078740157479
0
LINE
8
BLACK
6
CONTINUOUS
10
0.8385826771653543
20
1.1870078740157479
11
0.8420479133858267
21
1.1863185826771654
0
LINE
8
BLACK
6
CONTINUOUS
10
0.8420479133858267
20
1.2355311811023622
11
0.8449856299212598
21
1.2335683070866141
0
LINE
8
BLACK
6
CONTINUOUS
10
0.8449856299212598
20
1.2335683070866141
11
0.8469485039370078
21
1.2306305905511812
0
LINE
8
BLACK
6
CONTINUOUS
10
0.8469485039370078
20
1.2306305905511812
11
0.8476377952755906
21
1.2271653543307086
0
LINE
8
BLACK
6
CONTINUOUS
10
0.8476377952755906
20
1.2271653543307086
11
0.8476377952755906
21
1.2153543307086614
0
LINE
8
BLACK
6
CONTINUOUS
10
0.8476377952755906
20
1.2153543307086614
11
0.8469485039370078
21
1.211889094488189
0
LINE
8
BLACK
6
CONTINUOUS
10
0.8469485039370078
20
1.211889094488189
11
0.8449856299212598
21
1.2089513779527559
0
LINE
8
BLACK
6
CONTINUOUS
10
0.8449856299212598
20
1.2089513779527559
11
0.8420479133858267
21
1.2069885039370079
0
LINE
8
BLACK
6
CONTINUOUS
10
0.8420479133858267
20
1.2069885039370079
11
0.8385826771653543
21
1.2062992125984251
0
LINE
8
BLACK
6
CONTINUOUS
10
0.8385826771653543
20
1.2062992125984251
11
0.7834645669291338
21
1.2062992125984251
0
LINE
8
BLACK
6
CONTINUOUS
10
0.7834645669291338
20
1.2062992125984251
11
0.7799993307086615
21
1.2069885039370079
0
LINE
8
BLACK
6
CONTINUOUS
10
0.7799993307086615
20
1.2069885039370079
11
0.7770616141732283
21
1.2089513779527559
0
LINE
8
BLACK
6
CONTINUOUS
10
0.7770616141732283
20
1.2089513779527559
11
0.7750987401574803
21
1.211889094488189
0
LINE
8
BLACK
6
CONTINUOUS
10
0.7750987401574803
20
1.211889094488189
11
0.7744094488188976
21
1.2153543307086614
0
LINE
8
BLACK
6
CONTINUOUS
10
0.7744094488188976
20
1.2153543307086614
11
0.7744094488188976
21
1.2271653543307086
0
LINE
8
BLACK
6
CONTINUOUS
10
0.7744094488188976
20
1.2271653543307086
11
0.7750987401574803
21
1.2306305905511812
0
LINE
8
BLACK
6
CONTINUOUS
10
0.7750987401574803
20
1.2306305905511812
11
0.7770616141732283
21
1.2335683070866141
0
LINE
8
BLACK
6
CONTINUOUS
10
0.7770616141732283
20
1.2335683070866141
11
0.7799993307086615
21
1.2355311811023622
0
LINE
8
BLACK
6
CONTINUOUS
10
0.7799993307086615
20
1.2355311811023622
11
0.7834645669291338
21
1.2362204724409449
0
LINE
8
BLACK
6
CONTINUOUS
10
0.7834645669291338
20
1.2362204724409449
11
0.8385826771653543
21
1.2362204724409449
0
LINE
8
BLACK
6
CONTINUOUS
10
0.8385826771653543
20
1.2362204724409449
11
0.8420479133858267
21
1.2355311811023622
0
LINE
8
BLACK
6
CONTINUOUS
10
0.553834094488189
20
1.2848221653543306
11
0.5608267716535433
21
1.2817088188976378
0
LINE
8
BLACK
6
CONTINUOUS
10
0.5608267716535433
20
1.2817088188976378
11
0.5670193307086614
21
1.2772096456692914
0
LINE
8
BLACK
6
CONTINUOUS
10
0.5670193307086614
20
1.2772096456692914
11
0.5721411811023622
21
1.2715212598425196
0
LINE
8
BLACK
6
CONTINUOUS
10
0.5721411811023622
20
1.2715212598425196
11
0.5759683858267717
21
1.2648923228346456
0
LINE
8
BLACK
6
CONTINUOUS
10
0.5759683858267717
20
1.2648923228346456
11
0.5783337401574803
21
1.2576125196850394
0
LINE
8
BLACK
6
CONTINUOUS
10
0.5783337401574803
20
1.2576125196850394
11
0.5791338582677166
21
1.25
0
LINE
8
BLACK
6
CONTINUOUS
10
0.5791338582677166
20
1.25
11
0.5783337401574803
21
1.2423874803149606
0
LINE
8
BLACK
6
CONTINUOUS
10
0.5783337401574803
20
1.2423874803149606
11
0.5759683858267717
21
1.2351076771653544
0
LINE
8
BLACK
6
CONTINUOUS
10
0.5759683858267717
20
1.2351076771653544
11
0.5721411811023622
21
1.2284787401574804
0
LINE
8
BLACK
6
CONTINUOUS
10
0.5721411811023622
20
1.2284787401574804
11
0.5670193307086614
21
1.2227903543307086
0
LINE
8
BLACK
6
CONTINUOUS
10
0.5670193307086614
20
1.2227903543307086
11
0.5608267716535433
21
1.2182911811023622
0
LINE
8
BLACK
6
CONTINUOUS
10
0.5608267716535433
20
1.2182911811023622
11
0.553834094488189
21
1.2151778346456692
0
LINE
8
BLACK
6
CONTINUOUS
10
0.553834094488189
20
1.2151778346456692
11
0.5463468897637795
21
1.2135864173228346
0
LINE
8
BLACK
6
CONTINUOUS
10
0.5463468897637795
20
1.2135864173228346
11
0.5386924803149606
21
1.2135864173228346
0
LINE
8
BLACK
6
CONTINUOUS
10
0.5386924803149606
20
1.2135864173228346
11
0.5312052755905512
21
1.2151778346456692
0
LINE
8
BLACK
6
CONTINUOUS
10
0.5312052755905512
20
1.2151778346456692
11
0.5242125984251969
21
1.2182911811023622
0
LINE
8
BLACK
6
CONTINUOUS
10
0.5242125984251969
20
1.2182911811023622
11
0.5180200393700787
21
1.2227903543307086
0
LINE
8
BLACK
6
CONTINUOUS
10
0.5180200393700787
20
1.2227903543307086
11
0.512898188976378
21
1.2284787401574804
0
LINE
8
BLACK
6
CONTINUOUS
10
0.512898188976378
20
1.2284787401574804
11
0.5090709842519685
21
1.2351076771653544
0
LINE
8
BLACK
6
CONTINUOUS
10
0.5090709842519685
20
1.2351076771653544
11
0.5067056299212598
21
1.2423874803149606
0
LINE
8
BLACK
6
CONTINUOUS
10
0.5067056299212598
20
1.2423874803149606
11
0.5059055118110236
21
1.25
0
LINE
8
BLACK
6
CONTINUOUS
10
0.5059055118110236
20
1.25
11
0.5067056299212598
21
1.2576125196850394
0
LINE
8
BLACK
6
CONTINUOUS
10
0.5067056299212598
20
1.2576125196850394
11
0.5090709842519685
21
1.2648923228346456
0
LINE
8
BLACK
6
CONTINUOUS
10
0.5090709842519685
20
1.2648923228346456
11
0.512898188976378
21
1.2715212598425196
0
LINE
8
BLACK
6
CONTINUOUS
10
0.512898188976378
20
1.2715212598425196
11
0.5180200393700787
21
1.2772096456692914
0
LINE
8
BLACK
6
CONTINUOUS
10
0.5180200393700787
20
1.2772096456692914
11
0.5242125984251969
21
1.2817088188976378
0
LINE
8
BLACK
6
CONTINUOUS
10
0.5242125984251969
20
1.2817088188976378
11
0.5312052755905512
21
1.2848221653543306
0
LINE
8
BLACK
6
CONTINUOUS
10
0.5312052755905512
20
1.2848221653543306
11
0.5386924803149606
21
1.2864135826771654
0
LINE
8
BLACK
6
CONTINUOUS
10
0.5386924803149606
20
1.2864135826771654
11
0.5463468897637795
21
1.2864135826771654
0
LINE
8
BLACK
6
CONTINUOUS
10
0.5463468897637795
20
1.2864135826771654
11
0.553834094488189
21
1.2848221653543306
0
LINE
8
BLACK
6
CONTINUOUS
10
0.653834094488189
20
1.2848221653543306
11
0.6608267716535433
21
1.2817088188976378
0
LINE
8
BLACK
6
CONTINUOUS
10
0.6608267716535433
20
1.2817088188976378
11
0.6670193307086614
21
1.2772096456692914
0
LINE
8
BLACK
6
CONTINUOUS
10
0.6670193307086614
20
1.2772096456692914
11
0.6721411811023622
21
1.2715212598425196
0
LINE
8
BLACK
6
CONTINUOUS
10
0.6721411811023622
20
1.2715212598425196
11
0.6759683858267717
21
1.2648923228346456
0
LINE
8
BLACK
6
CONTINUOUS
10
0.6759683858267717
20
1.2648923228346456
11
0.6783337401574803
21
1.2576125196850394
0
LINE
8
BLACK
6
CONTINUOUS
10
0.6783337401574803
20
1.2576125196850394
11
0.6791338582677166
21
1.25
0
LINE
8
BLACK
6
CONTINUOUS
10
0.6791338582677166
20
1.25
11
0.6783337401574803
21
1.2423874803149606
0
LINE
8
BLACK
6
CONTINUOUS
10
0.6783337401574803
20
1.2423874803149606
11
0.6759683858267717
21
1.2351076771653544
0
LINE
8
BLACK
6
CONTINUOUS
10
0.6759683858267717
20
1.2351076771653544
11
0.6721411811023622
21
1.2284787401574804
0
LINE
8
BLACK
6
CONTINUOUS
10
0.6721411811023622
20
1.2284787401574804
11
0.6670193307086614
21
1.2227903543307086
0
LINE
8
BLACK
6
CONTINUOUS
10
0.6670193307086614
20
1.2227903543307086
11
0.6608267716535433
21
1.2182911811023622
0
LINE
8
BLACK
6
CONTINUOUS
10
0.6608267716535433
20
1.2182911811023622
11
0.653834094488189
21
1.2151778346456692
0
LINE
8
BLACK
6
CONTINUOUS
10
0.653834094488189
20
1.2151778346456692
11
0.6463468897637795
21
1.2135864173228346
0
LINE
8
BLACK
6
CONTINUOUS
10
0.6463468897637795
20
1.2135864173228346
11
0.6386924803149606
21
1.2135864173228346
0
LINE
8
BLACK
6
CONTINUOUS
10
0.6386924803149606
20
1.2135864173228346
11
0.6312052755905512
21
1.2151778346456692
0
LINE
8
BLACK
6
CONTINUOUS
10
0.6312052755905512
20
1.2151778346456692
11
0.6242125984251968
21
1.2182911811023622
0
LINE
8
BLACK
6
CONTINUOUS
10
0.6242125984251968
20
1.2182911811023622
11
0.6180200393700788
21
1.2227903543307086
0
LINE
8
BLACK
6
CONTINUOUS
10
0.6180200393700788
20
1.2227903543307086
11
0.6128981889763779
21
1.2284787401574804
0
LINE
8
BLACK
6
CONTINUOUS
10
0.6128981889763779
20
1.2284787401574804
11
0.6090709842519685
21
1.2351076771653544
0
LINE
8
BLACK
6
CONTINUOUS
10
0.6090709842519685
20
1.2351076771653544
11
0.6067056299212599
21
1.2423874803149606
0
LINE
8
BLACK
6
CONTINUOUS
10
0.6067056299212599
20
1.2423874803149606
11
0.6059055118110236
21
1.25
0
LINE
8
BLACK
6
CONTINUOUS
10
0.6059055118110236
20
1.25
11
0.6067056299212599
21
1.2576125196850394
0
LINE
8
BLACK
6
CONTINUOUS
10
0.6067056299212599
20
1.2576125196850394
11
0.6090709842519685
21
1.2648923228346456
0
LINE
8
BLACK
6
CONTINUOUS
10
0.6090709842519685
20
1.2648923228346456
11
0.6128981889763779
21
1.2715212598425196
0
LINE
8
BLACK
6
CONTINUOUS
10
0.6128981889763779
20
1.2715212598425196
11
0.6180200393700788
21
1.2772096456692914
0
LINE
8
BLACK
6
CONTINUOUS
10
0.6180200393700788
20
1.2772096456692914
11
0.6242125984251968
21
1.2817088188976378
0
LINE
8
BLACK
6
CONTINUOUS
10
0.6242125984251968
20
1.2817088188976378
11
0.6312052755905512
21
1.2848221653543306
0
LINE
8
BLACK
6
CONTINUOUS
10
0.6312052755905512
20
1.2848221653543306
11
0.6386924803149606
21
1.2864135826771654
0
LINE
8
BLACK
6
CONTINUOUS
10
0.6386924803149606
20
1.2864135826771654
11
0.6463468897637795
21
1.2864135826771654
0
LINE
8
BLACK
6
CONTINUOUS
10
0.6463468897637795
20
1.2864135826771654
11
0.653834094488189
21
1.2848221653543306
0
LINE
8
BLACK
6
CONTINUOUS
10
0.553834094488189
20
1.3848221653543307
11
0.5608267716535433
21
1.3817088188976379
0
LINE
8
BLACK
6
CONTINUOUS
10
0.5608267716535433
20
1.3817088188976379
11
0.5670193307086614
21
1.3772096456692913
0
LINE
8
BLACK
6
CONTINUOUS
10
0.5670193307086614
20
1.3772096456692913
11
0.5721411811023622
21
1.3715212598425197
0
LINE
8
BLACK
6
CONTINUOUS
10
0.5721411811023622
20
1.3715212598425197
11
0.5759683858267717
21
1.3648923228346457
0
LINE
8
BLACK
6
CONTINUOUS
10
0.5759683858267717
20
1.3648923228346457
11
0.5783337401574803
21
1.3576125196850393
0
LINE
8
BLACK
6
CONTINUOUS
10
0.5783337401574803
20
1.3576125196850393
11
0.5791338582677166
21
1.3499999999999999
0
LINE
8
BLACK
6
CONTINUOUS
10
0.5791338582677166
20
1.3499999999999999
11
0.5783337401574803
21
1.3423874803149607
0
LINE
8
BLACK
6
CONTINUOUS
10
0.5783337401574803
20
1.3423874803149607
11
0.5759683858267717
21
1.3351076771653543
0
LINE
8
BLACK
6
CONTINUOUS
10
0.5759683858267717
20
1.3351076771653543
11
0.5721411811023622
21
1.3284787401574802
0
LINE
8
BLACK
6
CONTINUOUS
10
0.5721411811023622
20
1.3284787401574802
11
0.5670193307086614
21
1.3227903543307087
0
LINE
8
BLACK
6
CONTINUOUS
10
0.5670193307086614
20
1.3227903543307087
11
0.5608267716535433
21
1.3182911811023621
0
LINE
8
BLACK
6
CONTINUOUS
10
0.5608267716535433
20
1.3182911811023621
11
0.553834094488189
21
1.3151778346456693
0
LINE
8
BLACK
6
CONTINUOUS
10
0.553834094488189
20
1.3151778346456693
11
0.5463468897637795
21
1.3135864173228347
0
LINE
8
BLACK
6
CONTINUOUS
10
0.5463468897637795
20
1.3135864173228347
11
0.5386924803149606
21
1.3135864173228347
0
LINE
8
BLACK
6
CONTINUOUS
10
0.5386924803149606
20
1.3135864173228347
11
0.5312052755905512
21
1.3151778346456693
0
LINE
8
BLACK
6
CONTINUOUS
10
0.5312052755905512
20
1.3151778346456693
11
0.5242125984251969
21
1.3182911811023621
0
LINE
8
BLACK
6
CONTINUOUS
10
0.5242125984251969
20
1.3182911811023621
11
0.5180200393700787
21
1.3227903543307087
0
LINE
8
BLACK
6
CONTINUOUS
10
0.5180200393700787
20
1.3227903543307087
11
0.512898188976378
21
1.3284787401574802
0
LINE
8
BLACK
6
CONTINUOUS
10
0.512898188976378
20
1.3284787401574802
11
0.5090709842519685
21
1.3351076771653543
0
LINE
8
BLACK
6
CONTINUOUS
10
0.5090709842519685
20
1.3351076771653543
11
0.5067056299212598
21
1.3423874803149607
0
LINE
8
BLACK
6
CONTINUOUS
10
0.5067056299212598
20
1.3423874803149607
11
0.5059055118110236
21
1.3499999999999999
0
LINE
8
BLACK
6
CONTINUOUS
10
0.5059055118110236
20
1.3499999999999999
11
0.5067056299212598
21
1.3576125196850393
0
LINE
8
BLACK
6
CONTINUOUS
10
0.5067056299212598
20
1.3576125196850393
11
0.5090709842519685
21
1.3648923228346457
0
LINE
8
BLACK
6
CONTINUOUS
10
0.5090709842519685
20
1.3648923228346457
11
0.512898188976378
21
1.3715212598425197
0
LINE
8
BLACK
6
CONTINUOUS
10
0.512898188976378
20
1.3715212598425197
11
0.5180200393700787
21
1.3772096456692913
0
LINE
8
BLACK
6
CONTINUOUS
10
0.5180200393700787
20
1.3772096456692913
11
0.5242125984251969
21
1.3817088188976379
0
LINE
8
BLACK
6
CONTINUOUS
10
0.5242125984251969
20
1.3817088188976379
11
0.5312052755905512
21
1.3848221653543307
0
LINE
8
BLACK
6
CONTINUOUS
10
0.5312052755905512
20
1.3848221653543307
11
0.5386924803149606
21
1.3864135826771653
0
LINE
8
BLACK
6
CONTINUOUS
10
0.5386924803149606
20
1.3864135826771653
11
0.5463468897637795
21
1.3864135826771653
0
LINE
8
BLACK
6
CONTINUOUS
10
0.5463468897637795
20
1.3864135826771653
11
0.553834094488189
21
1.3848221653543307
0
LINE
8
BLACK
6
CONTINUOUS
10
0.653834094488189
20
1.3848221653543307
11
0.6608267716535433
21
1.3817088188976379
0
LINE
8
BLACK
6
CONTINUOUS
10
0.6608267716535433
20
1.3817088188976379
11
0.6670193307086614
21
1.3772096456692913
0
LINE
8
BLACK
6
CONTINUOUS
10
0.6670193307086614
20
1.3772096456692913
11
0.6721411811023622
21
1.3715212598425197
0
LINE
8
BLACK
6
CONTINUOUS
10
0.6721411811023622
20
1.3715212598425197
11
0.6759683858267717
21
1.3648923228346457
0
LINE
8
BLACK
6
CONTINUOUS
10
0.6759683858267717
20
1.3648923228346457
11
0.6783337401574803
21
1.3576125196850393
0
LINE
8
BLACK
6
CONTINUOUS
10
0.6783337401574803
20
1.3576125196850393
11
0.6791338582677166
21
1.3499999999999999
0
LINE
8
BLACK
6
CONTINUOUS
10
0.6791338582677166
20
1.3499999999999999
11
0.6783337401574803
21
1.3423874803149607
0
LINE
8
BLACK
6
CONTINUOUS
10
0.6783337401574803
20
1.3423874803149607
11
0.6759683858267717
21
1.3351076771653543
0
LINE
8
BLACK
6
CONTINUOUS
10
0.6759683858267717
20
1.3351076771653543
11
0.6721411811023622
21
1.3284787401574802
0
LINE
8
BLACK
6
CONTINUOUS
10
0.6721411811023622
20
1.3284787401574802
11
0.6670193307086614
21
1.3227903543307087
0
LINE
8
BLACK
6
CONTINUOUS
10
0.6670193307086614
20
1.3227903543307087
11
0.6608267716535433
21
1.3182911811023621
0
LINE
8
BLACK
6
CONTINUOUS
10
0.6608267716535433
20
1.3182911811023621
11
0.653834094488189
21
1.3151778346456693
0
LINE
8
BLACK
6
CONTINUOUS
10
0.653834094488189
20
1.3151778346456693
11
0.6463468897637795
21
1.3135864173228347
0
LINE
8
BLACK
6
CONTINUOUS
10
0.6463468897637795
20
1.3135864173228347
11
0.6386924803149606
21
1.3135864173228347
0
LINE
8
BLACK
6
CONTINUOUS
10
0.6386924803149606
20
1.3135864173228347
11
0.6312052755905512
21
1.3151778346456693
0
LINE
8
BLACK
6
CONTINUOUS
10
0.6312052755905512
20
1.3151778346456693
11
0.6242125984251968
21
1.3182911811023621
0
LINE
8
BLACK
6
CONTINUOUS
10
0.6242125984251968
20
1.3182911811023621
11
0.6180200393700788
21
1.3227903543307087
0
LINE
8
BLACK
6
CONTINUOUS
10
0.6180200393700788
20
1.3227903543307087
11
0.6128981889763779
21
1.3284787401574802
0
LINE
8
BLACK
6
CONTINUOUS
10
0.6128981889763779
20
1.3284787401574802
11
0.6090709842519685
21
1.3351076771653543
0
LINE
8
BLACK
6
CONTINUOUS
10
0.6090709842519685
20
1.3351076771653543
11
0.6067056299212599
21
1.3423874803149607
0
LINE
8
BLACK
6
CONTINUOUS
10
0.6067056299212599
20
1.3423874803149607
11
0.6059055118110236
21
1.3499999999999999
0
LINE
8
BLACK
6
CONTINUOUS
10
0.6059055118110236
20
1.3499999999999999
11
0.6067056299212599
21
1.3576125196850393
0
LINE
8
BLACK
6
CONTINUOUS
10
0.6067056299212599
20
1.3576125196850393
11
0.6090709842519685
21
1.3648923228346457
0
LINE
8
BLACK
6
CONTINUOUS
10
0.6090709842519685
20
1.3648923228346457
11
0.6128981889763779
21
1.3715212598425197
0
LINE
8
BLACK
6
CONTINUOUS
10
0.6128981889763779
20
1.3715212598425197
11
0.6180200393700788
21
1.3772096456692913
0
LINE
8
BLACK
6
CONTINUOUS
10
0.6180200393700788
20
1.3772096456692913
11
0.6242125984251968
21
1.3817088188976379
0
LINE
8
BLACK
6
CONTINUOUS
10
0.6242125984251968
20
1.3817088188976379
11
0.6312052755905512
21
1.3848221653543307
0
LINE
8
BLACK
6
CONTINUOUS
10
0.6312052755905512
20
1.3848221653543307
11
0.6386924803149606
21
1.3864135826771653
0
LINE
8
BLACK
6
CONTINUOUS
10
0.6386924803149606
20
1.3864135826771653
11
0.6463468897637795
21
1.3864135826771653
0
LINE
8
BLACK
6
CONTINUOUS
10
0.6463468897637795
20
1.3864135826771653
11
0.653834094488189
21
1.3848221653543307
0
LINE
8
BLACK
6
CONTINUOUS
10
0.553834094488189
20
1.4848221653543308
11
0.5608267716535433
21
1.4817088188976377
0
LINE
8
BLACK
6
CONTINUOUS
10
0.5608267716535433
20
1.4817088188976377
11
0.5670193307086614
21
1.4772096456692914
0
LINE
8
BLACK
6
CONTINUOUS
10
0.5670193307086614
20
1.4772096456692914
11
0.5721411811023622
21
1.4715212598425196
0
LINE
8
BLACK
6
CONTINUOUS
10
0.5721411811023622
20
1.4715212598425196
11
0.5759683858267717
21
1.4648923228346455
0
LINE
8
BLACK
6
CONTINUOUS
10
0.5759683858267717
20
1.4648923228346455
11
0.5783337401574803
21
1.4576125196850394
0
LINE
8
BLACK
6
CONTINUOUS
10
0.5783337401574803
20
1.4576125196850394
11
0.5791338582677166
21
1.45
0
LINE
8
BLACK
6
CONTINUOUS
10
0.5791338582677166
20
1.45
11
0.5783337401574803
21
1.4423874803149606
0
LINE
8
BLACK
6
CONTINUOUS
10
0.5783337401574803
20
1.4423874803149606
11
0.5759683858267717
21
1.4351076771653544
0
LINE
8
BLACK
6
CONTINUOUS
10
0.5759683858267717
20
1.4351076771653544
11
0.5721411811023622
21
1.4284787401574803
0
LINE
8
BLACK
6
CONTINUOUS
10
0.5721411811023622
20
1.4284787401574803
11
0.5670193307086614
21
1.4227903543307086
0
LINE
8
BLACK
6
CONTINUOUS
10
0.5670193307086614
20
1.4227903543307086
11
0.5608267716535433
21
1.4182911811023622
0
LINE
8
BLACK
6
CONTINUOUS
10
0.5608267716535433
20
1.4182911811023622
11
0.553834094488189
21
1.4151778346456692
0
LINE
8
BLACK
6
CONTINUOUS
10
0.553834094488189
20
1.4151778346456692
11
0.5463468897637795
21
1.4135864173228345
0
LINE
8
BLACK
6
CONTINUOUS
10
0.5463468897637795
20
1.4135864173228345
11
0.5386924803149606
21
1.4135864173228345
0
LINE
8
BLACK
6
CONTINUOUS
10
0.5386924803149606
20
1.4135864173228345
11
0.5312052755905512
21
1.4151778346456692
0
LINE
8
BLACK
6
CONTINUOUS
10
0.5312052755905512
20
1.4151778346456692
11
0.5242125984251969
21
1.4182911811023622
0
LINE
8
BLACK
6
CONTINUOUS
10
0.5242125984251969
20
1.4182911811023622
11
0.5180200393700787
21
1.4227903543307086
0
LINE
8
BLACK
6
CONTINUOUS
10
0.5180200393700787
20
1.4227903543307086
11
0.512898188976378
21
1.4284787401574803
0
LINE
8
BLACK
6
CONTINUOUS
10
0.512898188976378
20
1.4284787401574803
11
0.5090709842519685
21
1.4351076771653544
0
LINE
8
BLACK
6
CONTINUOUS
10
0.5090709842519685
20
1.4351076771653544
11
0.5067056299212598
21
1.4423874803149606
0
LINE
8
BLACK
6
CONTINUOUS
10
0.5067056299212598
20
1.4423874803149606
11
0.5059055118110236
21
1.45
0
LINE
8
BLACK
6
CONTINUOUS
10
0.5059055118110236
20
1.45
11
0.5067056299212598
21
1.4576125196850394
0
LINE
8
BLACK
6
CONTINUOUS
10
0.5067056299212598
20
1.4576125196850394
11
0.5090709842519685
21
1.4648923228346455
0
LINE
8
BLACK
6
CONTINUOUS
10
0.5090709842519685
20
1.4648923228346455
11
0.512898188976378
21
1.4715212598425196
0
LINE
8
BLACK
6
CONTINUOUS
10
0.512898188976378
20
1.4715212598425196
11
0.5180200393700787
21
1.4772096456692914
0
LINE
8
BLACK
6
CONTINUOUS
10
0.5180200393700787
20
1.4772096456692914
11
0.5242125984251969
21
1.4817088188976377
0
LINE
8
BLACK
6
CONTINUOUS
10
0.5242125984251969
20
1.4817088188976377
11
0.5312052755905512
21
1.4848221653543308
0
LINE
8
BLACK
6
CONTINUOUS
10
0.5312052755905512
20
1.4848221653543308
11
0.5386924803149606
21
1.4864135826771654
0
LINE
8
BLACK
6
CONTINUOUS
10
0.5386924803149606
20
1.4864135826771654
11
0.5463468897637795
21
1.4864135826771654
0
LINE
8
BLACK
6
CONTINUOUS
10
0.5463468897637795
20
1.4864135826771654
11
0.553834094488189
21
1.4848221653543308
0
LINE
8
BLACK
6
CONTINUOUS
10
0.653834094488189
20
1.4848221653543308
11
0.6608267716535433
21
1.4817088188976377
0
LINE
8
BLACK
6
CONTINUOUS
10
0.6608267716535433
20
1.4817088188976377
11
0.6670193307086614
21
1.4772096456692914
0
LINE
8
BLACK
6
CONTINUOUS
10
0.6670193307086614
20
1.4772096456692914
11
0.6721411811023622
21
1.4715212598425196
0
LINE
8
BLACK
6
CONTINUOUS
10
0.6721411811023622
20
1.4715212598425196
11
0.6759683858267717
21
1.4648923228346455
0
LINE
8
BLACK
6
CONTINUOUS
10
0.6759683858267717
20
1.4648923228346455
11
0.6783337401574803
21
1.4576125196850394
0
LINE
8
BLACK
6
CONTINUOUS
10
0.6783337401574803
20
1.4576125196850394
11
0.6791338582677166
21
1.45
0
LINE
8
BLACK
6
CONTINUOUS
10
0.6791338582677166
20
1.45
11
0.6783337401574803
21
1.4423874803149606
0
LINE
8
BLACK
6
CONTINUOUS
10
0.6783337401574803
20
1.4423874803149606
11
0.6759683858267717
21
1.4351076771653544
0
LINE
8
BLACK
6
CONTINUOUS
10
0.6759683858267717
20
1.4351076771653544
11
0.6721411811023622
21
1.4284787401574803
0
LINE
8
BLACK
6
CONTINUOUS
10
0.6721411811023622
20
1.4284787401574803
11
0.6670193307086614
21
1.4227903543307086
0
LINE
8
BLACK
6
CONTINUOUS
10
0.6670193307086614
20
1.4227903543307086
11
0.6608267716535433
21
1.4182911811023622
0
LINE
8
BLACK
6
CONTINUOUS
10
0.6608267716535433
20
1.4182911811023622
11
0.653834094488189
21
1.4151778346456692
0
LINE
8
BLACK
6
CONTINUOUS
10
0.653834094488189
20
1.4151778346456692
11
0.6463468897637795
21
1.4135864173228345
0
LINE
8
BLACK
6
CONTINUOUS
10
0.6463468897637795
20
1.4135864173228345
11
0.6386924803149606
21
1.4135864173228345
0
LINE
8
BLACK
6
CONTINUOUS
10
0.6386924803149606
20
1.4135864173228345
11
0.6312052755905512
21
1.4151778346456692
0
LINE
8
BLACK
6
CONTINUOUS
10
0.6312052755905512
20
1.4151778346456692
11
0.6242125984251968
21
1.4182911811023622
0
LINE
8
BLACK
6
CONTINUOUS
10
0.6242125984251968
20
1.4182911811023622
11
0.6180200393700788
21
1.4227903543307086
0
LINE
8
BLACK
6
CONTINUOUS
10
0.6180200393700788
20
1.4227903543307086
11
0.6128981889763779
21
1.4284787401574803
0
LINE
8
BLACK
6
CONTINUOUS
10
0.6128981889763779
20
1.4284787401574803
11
0.6090709842519685
21
1.4351076771653544
0
LINE
8
BLACK
6
CONTINUOUS
10
0.6090709842519685
20
1.4351076771653544
11
0.6067056299212599
21
1.4423874803149606
0
LINE
8
BLACK
6
CONTINUOUS
10
0.6067056299212599
20
1.4423874803149606
11
0.6059055118110236
21
1.45
0
LINE
8
BLACK
6
CONTINUOUS
10
0.6059055118110236
20
1.45
11
0.6067056299212599
21
1.4576125196850394
0
LINE
8
BLACK
6
CONTINUOUS
10
0.6067056299212599
20
1.4576125196850394
11
0.6090709842519685
21
1.4648923228346455
0
LINE
8
BLACK
6
CONTINUOUS
10
0.6090709842519685
20
1.4648923228346455
11
0.6128981889763779
21
1.4715212598425196
0
LINE
8
BLACK
6
CONTINUOUS
10
0.6128981889763779
20
1.4715212598425196
11
0.6180200393700788
21
1.4772096456692914
0
LINE
8
BLACK
6
CONTINUOUS
10
0.6180200393700788
20
1.4772096456692914
11
0.6242125984251968
21
1.4817088188976377
0
LINE
8
BLACK
6
CONTINUOUS
10
0.6242125984251968
20
1.4817088188976377
11
0.6312052755905512
21
1.4848221653543308
0
LINE
8
BLACK
6
CONTINUOUS
10
0.6312052755905512
20
1.4848221653543308
11
0.6386924803149606
21
1.4864135826771654
0
LINE
8
BLACK
6
CONTINUOUS
10
0.6386924803149606
20
1.4864135826771654
11
0.6463468897637795
21
1.4864135826771654
0
LINE
8
BLACK
6
CONTINUOUS
10
0.6463468897637795
20
1.4864135826771654
11
0.653834094488189
21
1.4848221653543308
0
LINE
8
BLACK
6
CONTINUOUS
10
0.4135768503937008
20
1.7204974015748031
11
0.426982874015748
21
1.7182196062992126
0
LINE
8
BLACK
6
CONTINUOUS
10
0.426982874015748
20
1.7182196062992126
11
0.4400496456692913
21
1.7144551574803149
0
LINE
8
BLACK
6
CONTINUOUS
10
0.4400496456692913
20
1.7144551574803149
11
0.4526127165354331
21
1.7092513385826771
0
LINE
8
BLACK
6
CONTINUOUS
10
0.4526127165354331
20
1.7092513385826771
11
0.4645141732283464
21
1.7026736614173228
0
LINE
8
BLACK
6
CONTINUOUS
10
0.4645141732283464
20
1.7026736614173228
11
0.4756043307086614
21
1.6948047637795276
0
LINE
8
BLACK
6
CONTINUOUS
10
0.4756043307086614
20
1.6948047637795276
11
0.4857437007874016
21
1.6857436614173229
0
LINE
8
BLACK
6
CONTINUOUS
10
0.4857437007874016
20
1.6857436614173229
11
0.4948048031496063
21
1.6756042913385827
0
LINE
8
BLACK
6
CONTINUOUS
10
0.4948048031496063
20
1.6756042913385827
11
0.5026737007874016
21
1.6645141338582676
0
LINE
8
BLACK
6
CONTINUOUS
10
0.5026737007874016
20
1.6645141338582676
11
0.5092513779527559
21
1.6526126771653542
0
LINE
8
BLACK
6
CONTINUOUS
10
0.5092513779527559
20
1.6526126771653542
11
0.5144551968503936
21
1.6400496062992125
0
LINE
8
BLACK
6
CONTINUOUS
10
0.5144551968503936
20
1.6400496062992125
11
0.5182196456692914
21
1.6269828346456692
0
LINE
8
BLACK
6
CONTINUOUS
10
0.5182196456692914
20
1.6269828346456692
11
0.5204974409448819
21
1.6135768110236219
0
LINE
8
BLACK
6
CONTINUOUS
10
0.5204974409448819
20
1.6135768110236219
11
0.5212598818897638
21
1.5999999999999999
0
LINE
8
BLACK
6
CONTINUOUS
10
0.5212598818897638
20
1.5999999999999999
11
0.5204974409448819
21
1.586423188976378
0
LINE
8
BLACK
6
CONTINUOUS
10
0.5204974409448819
20
1.586423188976378
11
0.5182196456692914
21
1.5730171653543308
0
LINE
8
BLACK
6
CONTINUOUS
10
0.5182196456692914
20
1.5730171653543308
11
0.5144551968503936
21
1.5599503937007875
0
LINE
8
BLACK
6
CONTINUOUS
10
0.5144551968503936
20
1.5599503937007875
11
0.5092513779527559
21
1.5473873228346455
0
LINE
8
BLACK
6
CONTINUOUS
10
0.5092513779527559
20
1.5473873228346455
11
0.5026737007874016
21
1.5354858661417323
0
LINE
8
BLACK
6
CONTINUOUS
10
0.5026737007874016
20
1.5354858661417323
11
0.4948048031496063
21
1.5243957086614173
0
LINE
8
BLACK
6
CONTINUOUS
10
0.4948048031496063
20
1.5243957086614173
11
0.4857437007874016
21
1.5142563385826771
0
LINE
8
BLACK
6
CONTINUOUS
10
0.4857437007874016
20
1.5142563385826771
11
0.4756043307086614
21
1.5051952362204724
0
LINE
8
BLACK
6
CONTINUOUS
10
0.4756043307086614
20
1.5051952362204724
11
0.4645141732283464
21
1.4973263385826772
0
LINE
8
BLACK
6
CONTINUOUS
10
0.4645141732283464
20
1.4973263385826772
11
0.4526127165354331
21
1.4907486614173229
0
LINE
8
BLACK
6
CONTINUOUS
10
0.4526127165354331
20
1.4907486614173229
11
0.4400496456692913
21
1.4855448425196851
0
LINE
8
BLACK
6
CONTINUOUS
10
0.4400496456692913
20
1.4855448425196851
11
0.426982874015748
21
1.4817803937007874
0
LINE
8
BLACK
6
CONTINUOUS
10
0.426982874015748
20
1.4817803937007874
11
0.4135768503937008
21
1.4795025984251968
0
LINE
8
BLACK
6
CONTINUOUS
10
0.4135768503937008
20
1.4795025984251968
11
0.4000000393700787
21
1.478740157480315
0
LINE
8
BLACK
6
CONTINUOUS
10
0.4000000393700787
20
1.478740157480315
11
0.3864232283464567
21
1.4795025984251968
0
LINE
8
BLACK
6
CONTINUOUS
10
0.3864232283464567
20
1.4795025984251968
11
0.3730172047244095
21
1.4817803937007874
0
LINE
8
BLACK
6
CONTINUOUS
10
0.3730172047244095
20
1.4817803937007874
11
0.3599504330708662
21
1.4855448425196851
0
LINE
8
BLACK
6
CONTINUOUS
10
0.3599504330708662
20
1.4855448425196851
11
0.3473873622047244
21
1.4907486614173229
0
LINE
8
BLACK
6
CONTINUOUS
10
0.3473873622047244
20
1.4907486614173229
11
0.335485905511811
21
1.4973263385826772
0
LINE
8
BLACK
6
CONTINUOUS
10
0.335485905511811
20
1.4973263385826772
11
0.3243957480314961
21
1.5051952362204724
0
LINE
8
BLACK
6
CONTINUOUS
10
0.3243957480314961
20
1.5051952362204724
11
0.3142563779527559
21
1.5142563385826771
0
LINE
8
BLACK
6
CONTINUOUS
10
0.3142563779527559
20
1.5142563385826771
11
0.3051952755905512
21
1.5243957086614173
0
LINE
8
BLACK
6
CONTINUOUS
10
0.3051952755905512
20
1.5243957086614173
11
0.2973263779527559
21
1.5354858661417323
0
LINE
8
BLACK
6
CONTINUOUS
10
0.2973263779527559
20
1.5354858661417323
11
0.2907487007874016
21
1.5473873228346455
0
LINE
8
BLACK
6
CONTINUOUS
10
0.2907487007874016
20
1.5473873228346455
11
0.2855448818897638
21
1.5599503937007875
0
LINE
8
BLACK
6
CONTINUOUS
10
0.2855448818897638
20
1.5599503937007875
11
0.2817804330708661
21
1.5730171653543308
0
LINE
8
BLACK
6
CONTINUOUS
10
0.2817804330708661
20
1.5730171653543308
11
0.2795026377952756
21
1.586423188976378
0
LINE
8
BLACK
6
CONTINUOUS
10
0.2795026377952756
20
1.586423188976378
11
0.2787401968503937
21
1.5999999999999999
0
LINE
8
BLACK
6
CONTINUOUS
10
0.2787401968503937
20
1.5999999999999999
11
0.2795026377952756
21
1.6135768110236219
0
LINE
8
BLACK
6
CONTINUOUS
10
0.2795026377952756
20
1.6135768110236219
11
0.2817804330708661
21
1.6269828346456692
0
LINE
8
BLACK
6
CONTINUOUS
10
0.2817804330708661
20
1.6269828346456692
11
0.2855448818897638
21
1.6400496062992125
0
LINE
8
BLACK
6
CONTINUOUS
10
0.2855448818897638
20
1.6400496062992125
11
0.2907487007874016
21
1.6526126771653542
0
LINE
8
BLACK
6
CONTINUOUS
10
0.2907487007874016
20
1.6526126771653542
11
0.2973263779527559
21
1.6645141338582676
0
LINE
8
BLACK
6
CONTINUOUS
10
0.2973263779527559
20
1.6645141338582676
11
0.3051952755905512
21
1.6756042913385827
0
LINE
8
BLACK
6
CONTINUOUS
10
0.3051952755905512
20
1.6756042913385827
11
0.3142563779527559
21
1.6857436614173229
0
LINE
8
BLACK
6
CONTINUOUS
10
0.3142563779527559
20
1.6857436614173229
11
0.3243957480314961
21
1.6948047637795276
0
LINE
8
BLACK
6
CONTINUOUS
10
0.3243957480314961
20
1.6948047637795276
11
0.335485905511811
21
1.7026736614173228
0
LINE
8
BLACK
6
CONTINUOUS
10
0.335485905511811
20
1.7026736614173228
11
0.3473873622047244
21
1.7092513385826771
0
LINE
8
BLACK
6
CONTINUOUS
10
0.3473873622047244
20
1.7092513385826771
11
0.3599504330708662
21
1.7144551574803149
0
LINE
8
BLACK
6
CONTINUOUS
10
0.3599504330708662
20
1.7144551574803149
11
0.3730172047244095
21
1.7182196062992126
0
LINE
8
BLACK
6
CONTINUOUS
10
0.3730172047244095
20
1.7182196062992126
11
0.3864232283464567
21
1.7204974015748031
0
LINE
8
BLACK
6
CONTINUOUS
10
0.3864232283464567
20
1.7204974015748031
11
0.4000000393700787
21
1.721259842519685
0
LINE
8
BLACK
6
CONTINUOUS
10
0.4000000393700787
20
1.721259842519685
11
0.4135768503937008
21
1.7204974015748031
0
LINE
8
BLACK
6
CONTINUOUS
10
0.8135768503937008
20
1.7204974015748031
11
0.826982874015748
21
1.7182196062992126
0
LINE
8
BLACK
6
CONTINUOUS
10
0.826982874015748
20
1.7182196062992126
11
0.8400496456692913
21
1.7144551574803149
0
LINE
8
BLACK
6
CONTINUOUS
10
0.8400496456692913
20
1.7144551574803149
11
0.852612716535433
21
1.7092513385826771
0
LINE
8
BLACK
6
CONTINUOUS
10
0.852612716535433
20
1.7092513385826771
11
0.8645141732283464
21
1.7026736614173228
0
LINE
8
BLACK
6
CONTINUOUS
10
0.8645141732283464
20
1.7026736614173228
11
0.8756043307086614
21
1.6948047637795276
0
LINE
8
BLACK
6
CONTINUOUS
10
0.8756043307086614
20
1.6948047637795276
11
0.8857437007874015
21
1.6857436614173229
0
LINE
8
BLACK
6
CONTINUOUS
10
0.8857437007874015
20
1.6857436614173229
11
0.8948048031496063
21
1.6756042913385827
0
LINE
8
BLACK
6
CONTINUOUS
10
0.8948048031496063
20
1.6756042913385827
11
0.9026737007874015
21
1.6645141338582676
0
LINE
8
BLACK
6
CONTINUOUS
10
0.9026737007874015
20
1.6645141338582676
11
0.9092513779527559
21
1.6526126771653542
0
LINE
8
BLACK
6
CONTINUOUS
10
0.9092513779527559
20
1.6526126771653542
11
0.9144551968503937
21
1.6400496062992125
0
LINE
8
BLACK
6
CONTINUOUS
10
0.9144551968503937
20
1.6400496062992125
11
0.9182196456692913
21
1.6269828346456692
0
LINE
8
BLACK
6
CONTINUOUS
10
0.9182196456692913
20
1.6269828346456692
11
0.9204974409448818
21
1.6135768110236219
0
LINE
8
BLACK
6
CONTINUOUS
10
0.9204974409448818
20
1.6135768110236219
11
0.9212598818897637
21
1.5999999999999999
0
LINE
8
BLACK
6
CONTINUOUS
10
0.9212598818897637
20
1.5999999999999999
11
0.9204974409448818
21
1.586423188976378
0
LINE
8
BLACK
6
CONTINUOUS
10
0.9204974409448818
20
1.586423188976378
11
0.9182196456692913
21
1.5730171653543308
0
LINE
8
BLACK
6
CONTINUOUS
10
0.9182196456692913
20
1.5730171653543308
11
0.9144551968503937
21
1.5599503937007875
0
LINE
8
BLACK
6
CONTINUOUS
10
0.9144551968503937
20
1.5599503937007875
11
0.9092513779527559
21
1.5473873228346455
0
LINE
8
BLACK
6
CONTINUOUS
10
0.9092513779527559
20
1.5473873228346455
11
0.9026737007874015
21
1.5354858661417323
0
LINE
8
BLACK
6
CONTINUOUS
10
0.9026737007874015
20
1.5354858661417323
11
0.8948048031496063
21
1.5243957086614173
0
LINE
8
BLACK
6
CONTINUOUS
10
0.8948048031496063
20
1.5243957086614173
11
0.8857437007874015
21
1.5142563385826771
0
LINE
8
BLACK
6
CONTINUOUS
10
0.8857437007874015
20
1.5142563385826771
11
0.8756043307086614
21
1.5051952362204724
0
LINE
8
BLACK
6
CONTINUOUS
10
0.8756043307086614
20
1.5051952362204724
11
0.8645141732283464
21
1.4973263385826772
0
LINE
8
BLACK
6
CONTINUOUS
10
0.8645141732283464
20
1.4973263385826772
11
0.852612716535433
21
1.4907486614173229
0
LINE
8
BLACK
6
CONTINUOUS
10
0.852612716535433
20
1.4907486614173229
11
0.8400496456692913
21
1.4855448425196851
0
LINE
8
BLACK
6
CONTINUOUS
10
0.8400496456692913
20
1.4855448425196851
11
0.826982874015748
21
1.4817803937007874
0
LINE
8
BLACK
6
CONTINUOUS
10
0.826982874015748
20
1.4817803937007874
11
0.8135768503937008
21
1.4795025984251968
0
LINE
8
BLACK
6
CONTINUOUS
10
0.8135768503937008
20
1.4795025984251968
11
0.8000000393700787
21
1.478740157480315
0
LINE
8
BLACK
6
CONTINUOUS
10
0.8000000393700787
20
1.478740157480315
11
0.7864232283464567
21
1.4795025984251968
0
LINE
8
BLACK
6
CONTINUOUS
10
0.7864232283464567
20
1.4795025984251968
11
0.7730172047244094
21
1.4817803937007874
0
LINE
8
BLACK
6
CONTINUOUS
10
0.7730172047244094
20
1.4817803937007874
11
0.7599504330708661
21
1.4855448425196851
0
LINE
8
BLACK
6
CONTINUOUS
10
0.7599504330708661
20
1.4855448425196851
11
0.7473873622047243
21
1.4907486614173229
0
LINE
8
BLACK
6
CONTINUOUS
10
0.7473873622047243
20
1.4907486614173229
11
0.735485905511811
21
1.4973263385826772
0
LINE
8
BLACK
6
CONTINUOUS
10
0.735485905511811
20
1.4973263385826772
11
0.7243957480314961
21
1.5051952362204724
0
LINE
8
BLACK
6
CONTINUOUS
10
0.7243957480314961
20
1.5051952362204724
11
0.7142563779527559
21
1.5142563385826771
0
LINE
8
BLACK
6
CONTINUOUS
10
0.7142563779527559
20
1.5142563385826771
11
0.7051952755905512
21
1.5243957086614173
0
LINE
8
BLACK
6
CONTINUOUS
10
0.7051952755905512
20
1.5243957086614173
11
0.6973263779527559
21
1.5354858661417323
0
LINE
8
BLACK
6
CONTINUOUS
10
0.6973263779527559
20
1.5354858661417323
11
0.6907487007874016
21
1.5473873228346455
0
LINE
8
BLACK
6
CONTINUOUS
10
0.6907487007874016
20
1.5473873228346455
11
0.6855448818897638
21
1.5599503937007875
0
LINE
8
BLACK
6
CONTINUOUS
10
0.6855448818897638
20
1.5599503937007875
11
0.6817804330708661
21
1.5730171653543308
0
LINE
8
BLACK
6
CONTINUOUS
10
0.6817804330708661
20
1.5730171653543308
11
0.6795026377952755
21
1.586423188976378
0
LINE
8
BLACK
6
CONTINUOUS
10
0.6795026377952755
20
1.586423188976378
11
0.6787401968503937
21
1.5999999999999999
0
LINE
8
BLACK
6
CONTINUOUS
10
0.6787401968503937
20
1.5999999999999999
11
0.6795026377952755
21
1.6135768110236219
0
LINE
8
BLACK
6
CONTINUOUS
10
0.6795026377952755
20
1.6135768110236219
11
0.6817804330708661
21
1.6269828346456692
0
LINE
8
BLACK
6
CONTINUOUS
10
0.6817804330708661
20
1.6269828346456692
11
0.6855448818897638
21
1.6400496062992125
0
LINE
8
BLACK
6
CONTINUOUS
10
0.6855448818897638
20
1.6400496062992125
11
0.6907487007874016
21
1.6526126771653542
0
LINE
8
BLACK
6
CONTINUOUS
10
0.6907487007874016
20
1.6526126771653542
11
0.6973263779527559
21
1.6645141338582676
0
LINE
8
BLACK
6
CONTINUOUS
10
0.6973263779527559
20
1.6645141338582676
11
0.7051952755905512
21
1.6756042913385827
0
LINE
8
BLACK
6
CONTINUOUS
10
0.7051952755905512
20
1.6756042913385827
11
0.7142563779527559
21
1.6857436614173229
0
LINE
8
BLACK
6
CONTINUOUS
10
0.7142563779527559
20
1.6857436614173229
11
0.7243957480314961
21
1.6948047637795276
0
LINE
8
BLACK
6
CONTINUOUS
10
0.7243957480314961
20
1.6948047637795276
11
0.735485905511811
21
1.7026736614173228
0
LINE
8
BLACK
6
CONTINUOUS
10
0.735485905511811
20
1.7026736614173228
11
0.7473873622047243
21
1.7092513385826771
0
LINE
8
BLACK
6
CONTINUOUS
10
0.7473873622047243
20
1.7092513385826771
11
0.7599504330708661
21
1.7144551574803149
0
LINE
8
BLACK
6
CONTINUOUS
10
0.7599504330708661
20
1.7144551574803149
11
0.7730172047244094
21
1.7182196062992126
0
LINE
8
BLACK
6
CONTINUOUS
10
0.7730172047244094
20
1.7182196062992126
11
0.7864232283464567
21
1.7204974015748031
0
LINE
8
BLACK
6
CONTINUOUS
10
0.7864232283464567
20
1.7204974015748031
11
0.8000000393700787
21
1.721259842519685
0
LINE
8
BLACK
6
CONTINUOUS
10
0.8000000393700787
20
1.721259842519685
11
0.8135768503937008
21
1.7204974015748031
  0
ENDSEC
  0
EOF
