  0
SECTION
  2
HEADER
  9
$ANGBASE
  50
0.0
  9
$ANGDIR
  70
1
  9
$MEASUREMENT
  70
0
  0
ENDSEC
  0
SECTION
  2
TABLES
  0
TABLE
  2
LTYPE
  70
4
  0
LTYPE
  5
40F
  2
CONTINUOUS
  70
0
  3
Solid line
  72
65
  73
0
  40
0.0
  0
LTYPE
  5
410
  2
DASHDOT
 70
0
  3
Dash Dot ____ _ ____ _
 72
65
 73
4
 40
2.0
 49
1.25
 49
-0.25
 49
0.25
 49
-0.25
  0
LTYPE
  5
411
  2
DASHED
 70
0
  3
Dashed __ __ __ __ __
 72
65
 73
2
 40
0.75
 49
0.5
 49
-0.25
  0
LTYPE
  5
43B
  2
DOTTED
 70
0
  3
Dotted .  .  .  .
 72
65
 73
2
 40
0.2
 49
0.0
 49
-0.2
  0
ENDTAB
  0
TABLE
  2
STYLE
  70
4
  0
STYLE
  2
KICAD
  70
0
  40
0
  41
1
  42
1
  50
0
  71
0
  3
isocp.shx
  0
STYLE
  2
KICADB
  70
0
  40
0
  41
1
  42
1
  50
0
  71
0
  3
isocp.shx
  0
STYLE
  2
KICADI
  70
0
  40
0
  41
1
  42
1
  50
15
  71
0
  3
isocp.shx
  0
STYLE
  2
KICADBI
  70
0
  40
0
  41
1
  42
1
  50
15
  71
0
  3
isocp.shx
  0
ENDTAB
  0
TABLE
  2
LAYER
  70
1
  0
LAYER
  2
BLACK
  70
0
  62
7
  6
CONTINUOUS
  0
ENDTAB
  0
ENDSEC
  0
SECTION
  2
ENTITIES
0
LINE
8
BLACK
6
CONTINUOUS
10
0.7137624803149606
20
1.5213817716535434
11
0.7142951574803149
21
1.5208490944881889
0
LINE
8
BLACK
6
CONTINUOUS
10
0.7142951574803149
20
1.5208490944881889
11
0.7143700787401575
21
1.5204724409448818
0
LINE
8
BLACK
6
CONTINUOUS
10
0.7143700787401575
20
1.5204724409448818
11
0.7143700787401575
21
0.4791338582677165
0
LINE
8
BLACK
6
CONTINUOUS
10
0.7143700787401575
20
0.4791338582677165
11
0.7142951574803149
21
0.4787572047244094
0
LINE
8
BLACK
6
CONTINUOUS
10
0.7142951574803149
20
0.4787572047244094
11
0.7137624803149606
21
0.4782245275590551
0
LINE
8
BLACK
6
CONTINUOUS
10
0.7137624803149606
20
0.4782245275590551
11
0.7133858267716535
21
0.4781496062992126
0
LINE
8
BLACK
6
CONTINUOUS
10
0.7133858267716535
20
0.4781496062992126
11
0.471259842519685
21
0.4781496062992126
0
LINE
8
BLACK
6
CONTINUOUS
10
0.471259842519685
20
0.4781496062992126
11
0.4708831889763779
21
0.4782245275590551
0
LINE
8
BLACK
6
CONTINUOUS
10
0.4708831889763779
20
0.4782245275590551
11
0.4703505118110236
21
0.4787572047244094
0
LINE
8
BLACK
6
CONTINUOUS
10
0.4703505118110236
20
0.4787572047244094
11
0.4702755905511811
21
0.4791338582677165
0
LINE
8
BLACK
6
CONTINUOUS
10
0.4702755905511811
20
0.4791338582677165
11
0.4702755905511811
21
1.5204724409448818
0
LINE
8
BLACK
6
CONTINUOUS
10
0.4702755905511811
20
1.5204724409448818
11
0.4703505118110236
21
1.5208490944881889
0
LINE
8
BLACK
6
CONTINUOUS
10
0.4703505118110236
20
1.5208490944881889
11
0.4708831889763779
21
1.5213817716535434
0
LINE
8
BLACK
6
CONTINUOUS
10
0.4708831889763779
20
1.5213817716535434
11
0.471259842519685
21
1.5214566929133857
0
LINE
8
BLACK
6
CONTINUOUS
10
0.471259842519685
20
1.5214566929133857
11
0.7133858267716535
21
1.5214566929133857
0
LINE
8
BLACK
6
CONTINUOUS
10
0.7133858267716535
20
1.5214566929133857
11
0.7137624803149606
21
1.5213817716535434
0
LINE
8
BLACK
6
CONTINUOUS
10
0.472244094488189
20
1.5194881889763778
11
0.472244094488189
21
0.4801181102362205
0
LINE
8
BLACK
6
CONTINUOUS
10
0.472244094488189
20
0.4801181102362205
11
0.7124015748031496
21
0.4801181102362205
0
LINE
8
BLACK
6
CONTINUOUS
10
0.7124015748031496
20
0.4801181102362205
11
0.7124015748031496
21
1.5194881889763778
0
LINE
8
BLACK
6
CONTINUOUS
10
0.7124015748031496
20
1.5194881889763778
11
0.472244094488189
21
1.5194881889763778
0
LINE
8
BLACK
6
CONTINUOUS
10
1.0102191732283465
20
1.3345707480314961
11
1.0107518503937007
21
1.3340380708661417
0
LINE
8
BLACK
6
CONTINUOUS
10
1.0107518503937007
20
1.3340380708661417
11
1.0108267716535433
21
1.3336614173228347
0
LINE
8
BLACK
6
CONTINUOUS
10
1.0108267716535433
20
1.3336614173228347
11
1.0108267716535433
21
0.6659448818897638
0
LINE
8
BLACK
6
CONTINUOUS
10
1.0108267716535433
20
0.6659448818897638
11
1.0107518503937007
21
0.6655682283464567
0
LINE
8
BLACK
6
CONTINUOUS
10
1.0107518503937007
20
0.6655682283464567
11
1.0102191732283465
21
0.6650355511811024
0
LINE
8
BLACK
6
CONTINUOUS
10
1.0102191732283465
20
0.6650355511811024
11
1.0098425196850394
21
0.6649606299212598
0
LINE
8
BLACK
6
CONTINUOUS
10
1.0098425196850394
20
0.6649606299212598
11
0.7578740157480315
21
0.6649606299212598
0
LINE
8
BLACK
6
CONTINUOUS
10
0.7578740157480315
20
0.6649606299212598
11
0.7574973622047244
21
0.6650355511811024
0
LINE
8
BLACK
6
CONTINUOUS
10
0.7574973622047244
20
0.6650355511811024
11
0.7569646850393701
21
0.6655682283464567
0
LINE
8
BLACK
6
CONTINUOUS
10
0.7569646850393701
20
0.6655682283464567
11
0.7568897637795275
21
0.6659448818897638
0
LINE
8
BLACK
6
CONTINUOUS
10
0.7568897637795275
20
0.6659448818897638
11
0.7568897637795275
21
1.3336614173228347
0
LINE
8
BLACK
6
CONTINUOUS
10
0.7568897637795275
20
1.3336614173228347
11
0.7569646850393701
21
1.3340380708661417
0
LINE
8
BLACK
6
CONTINUOUS
10
0.7569646850393701
20
1.3340380708661417
11
0.7574973622047244
21
1.3345707480314961
0
LINE
8
BLACK
6
CONTINUOUS
10
0.7574973622047244
20
1.3345707480314961
11
0.7578740157480315
21
1.3346456692913387
0
LINE
8
BLACK
6
CONTINUOUS
10
0.7578740157480315
20
1.3346456692913387
11
1.0098425196850394
21
1.3346456692913387
0
LINE
8
BLACK
6
CONTINUOUS
10
1.0098425196850394
20
1.3346456692913387
11
1.0102191732283465
21
1.3345707480314961
0
LINE
8
BLACK
6
CONTINUOUS
10
0.7588582677165354
20
1.3326771653543308
11
0.7588582677165354
21
0.6669291338582677
0
LINE
8
BLACK
6
CONTINUOUS
10
0.7588582677165354
20
0.6669291338582677
11
1.0088582677165354
21
0.6669291338582677
0
LINE
8
BLACK
6
CONTINUOUS
10
1.0088582677165354
20
0.6669291338582677
11
1.0088582677165354
21
1.3326771653543308
0
LINE
8
BLACK
6
CONTINUOUS
10
1.0088582677165354
20
1.3326771653543308
11
0.7588582677165354
21
1.3326771653543308
0
CIRCLE
8
BLACK
10
0.8000000393700787
20
1.5999999999999999
40
0.0068897637795276
0
CIRCLE
8
BLACK
10
0.8000000393700787
20
0.4
40
0.0068897637795276
0
CIRCLE
8
BLACK
10
0.4000000393700787
20
0.4
40
0.0068897637795276
0
CIRCLE
8
BLACK
10
0.6425196850393701
20
0.5499999999999999
40
0.0068897637795276
0
CIRCLE
8
BLACK
10
0.5425196850393701
20
0.5499999999999999
40
0.0068897637795276
0
CIRCLE
8
BLACK
10
0.6425196850393701
20
0.65
40
0.0068897637795276
0
CIRCLE
8
BLACK
10
0.5425196850393701
20
0.65
40
0.0068897637795276
0
CIRCLE
8
BLACK
10
0.6425196850393701
20
0.75
40
0.0068897637795276
0
CIRCLE
8
BLACK
10
0.5425196850393701
20
0.75
40
0.0068897637795276
0
CIRCLE
8
BLACK
10
0.6425196850393701
20
0.85
40
0.0068897637795276
0
CIRCLE
8
BLACK
10
0.5425196850393701
20
0.85
40
0.0068897637795276
0
CIRCLE
8
BLACK
10
0.6425196850393701
20
0.95
40
0.0068897637795276
0
CIRCLE
8
BLACK
10
0.5425196850393701
20
0.95
40
0.0068897637795276
0
CIRCLE
8
BLACK
10
0.6425196850393701
20
1.05
40
0.0068897637795276
0
CIRCLE
8
BLACK
10
0.5425196850393701
20
1.05
40
0.0068897637795276
0
CIRCLE
8
BLACK
10
0.6425196850393701
20
1.1499999999999999
40
0.0068897637795276
0
CIRCLE
8
BLACK
10
0.5425196850393701
20
1.1499999999999999
40
0.0068897637795276
0
CIRCLE
8
BLACK
10
0.6425196850393701
20
1.25
40
0.0068897637795276
0
CIRCLE
8
BLACK
10
0.5425196850393701
20
1.25
40
0.0068897637795276
0
CIRCLE
8
BLACK
10
0.6425196850393701
20
1.3499999999999999
40
0.0068897637795276
0
CIRCLE
8
BLACK
10
0.5425196850393701
20
1.3499999999999999
40
0.0068897637795276
0
CIRCLE
8
BLACK
10
0.6425196850393701
20
1.45
40
0.0068897637795276
0
CIRCLE
8
BLACK
10
0.5425196850393701
20
1.45
40
0.0068897637795276
0
CIRCLE
8
BLACK
10
0.4000000393700787
20
1.5999999999999999
40
0.0068897637795276
  0
ENDSEC
  0
EOF
