<?xml version='1.0' encoding='ASCII' standalone='yes'?>
<svg xmlns:svg="http://www.w3.org/2000/svg" xmlns="http://www.w3.org/2000/svg" xmlns:xlink="http://www.w3.org/1999/xlink" version="1.1" width="297.0022mm" height="210.0072mm" viewBox="0.0000 0.0000 297.0022 210.0072">
<title>SVG Image created as GH4PIN01-B_Fab.svg date 2024/06/05 20:25:23 </title>
  <desc>Image generated by PCBNEW </desc>
<g style="fill:#000084; fill-opacity:1.0000;stroke:#000084; stroke-opacity:1.0000; stroke-linecap:round; stroke-linejoin:round;" transform="translate(0 0) scale(1 1)">
</g>
<g style="fill:#000084; fill-opacity:0.0;  stroke:#000084; stroke-width:0.0000; stroke-opacity:1;  stroke-linecap:round; stroke-linejoin:round;">
</g>
<g style="fill:#000084; fill-opacity:0.0;  stroke:#000084; stroke-width:0.7820; stroke-opacity:1;  stroke-linecap:round; stroke-linejoin:round;">
<text x="183.7239" y="136.6094" textLength="10.2403" font-size="6.9510" lengthAdjust="spacingAndGlyphs" text-anchor="middle" opacity="0">J4</text>
<g class="stroked-text"><desc>J4</desc>
<path d="M181.9861 131.1606 L181.9861 134.8844 "/>
<path d="M181.9861 134.8844 L181.7379 135.6291 "/>
<path d="M181.7379 135.6291 L181.2414 136.1256 "/>
<path d="M181.2414 136.1256 L180.4966 136.3739 "/>
<path d="M180.4966 136.3739 L180.0001 136.3739 "/>
<path d="M186.7029 132.8984 L186.7029 136.3739 "/>
<path d="M185.4616 130.9124 L184.2204 134.6361 "/>
<path d="M184.2204 134.6361 L187.4476 134.6361 "/>
</g><g transform="rotate(90.000000 90.5632 134.1352)">
<text x="90.5632" y="136.7418" textLength="65.1035" font-size="6.9510" lengthAdjust="spacingAndGlyphs" text-anchor="middle" opacity="0">SM04B-GHS-TB</text>
</g>
<g class="stroked-text"><desc>SM04B-GHS-TB</desc>
<path d="M88.4403 103.2281 L88.1921 103.9729 "/>
<path d="M88.1921 103.9729 L88.1921 105.2141 "/>
<path d="M88.1921 105.2141 L88.4403 105.7106 "/>
<path d="M88.4403 105.7106 L88.6886 105.9589 "/>
<path d="M88.6886 105.9589 L89.1851 106.2071 "/>
<path d="M89.1851 106.2071 L89.6816 106.2071 "/>
<path d="M89.6816 106.2071 L90.1781 105.9589 "/>
<path d="M90.1781 105.9589 L90.4263 105.7106 "/>
<path d="M90.4263 105.7106 L90.6746 105.2141 "/>
<path d="M90.6746 105.2141 L90.9228 104.2211 "/>
<path d="M90.9228 104.2211 L91.1711 103.7246 "/>
<path d="M91.1711 103.7246 L91.4193 103.4764 "/>
<path d="M91.4193 103.4764 L91.9158 103.2281 "/>
<path d="M91.9158 103.2281 L92.4123 103.2281 "/>
<path d="M92.4123 103.2281 L92.9088 103.4764 "/>
<path d="M92.9088 103.4764 L93.1571 103.7246 "/>
<path d="M93.1571 103.7246 L93.4053 104.2211 "/>
<path d="M93.4053 104.2211 L93.4053 105.4624 "/>
<path d="M93.4053 105.4624 L93.1571 106.2071 "/>
<path d="M88.1921 108.4414 L93.4053 108.4414 "/>
<path d="M93.4053 108.4414 L89.6816 110.1791 "/>
<path d="M89.6816 110.1791 L93.4053 111.9169 "/>
<path d="M93.4053 111.9169 L88.1921 111.9169 "/>
<path d="M93.4053 115.3924 L93.4053 115.8889 "/>
<path d="M93.4053 115.8889 L93.1571 116.3854 "/>
<path d="M93.1571 116.3854 L92.9088 116.6336 "/>
<path d="M92.9088 116.6336 L92.4123 116.8819 "/>
<path d="M92.4123 116.8819 L91.4193 117.1301 "/>
<path d="M91.4193 117.1301 L90.1781 117.1301 "/>
<path d="M90.1781 117.1301 L89.1851 116.8819 "/>
<path d="M89.1851 116.8819 L88.6886 116.6336 "/>
<path d="M88.6886 116.6336 L88.4403 116.3854 "/>
<path d="M88.4403 116.3854 L88.1921 115.8889 "/>
<path d="M88.1921 115.8889 L88.1921 115.3924 "/>
<path d="M88.1921 115.3924 L88.4403 114.8959 "/>
<path d="M88.4403 114.8959 L88.6886 114.6476 "/>
<path d="M88.6886 114.6476 L89.1851 114.3994 "/>
<path d="M89.1851 114.3994 L90.1781 114.1511 "/>
<path d="M90.1781 114.1511 L91.4193 114.1511 "/>
<path d="M91.4193 114.1511 L92.4123 114.3994 "/>
<path d="M92.4123 114.3994 L92.9088 114.6476 "/>
<path d="M92.9088 114.6476 L93.1571 114.8959 "/>
<path d="M93.1571 114.8959 L93.4053 115.3924 "/>
<path d="M91.6676 121.5986 L88.1921 121.5986 "/>
<path d="M93.6536 120.3574 L89.9298 119.1161 "/>
<path d="M89.9298 119.1161 L89.9298 122.3434 "/>
<path d="M90.9228 126.0671 L90.6746 126.8119 "/>
<path d="M90.6746 126.8119 L90.4263 127.0601 "/>
<path d="M90.4263 127.0601 L89.9298 127.3084 "/>
<path d="M89.9298 127.3084 L89.1851 127.3084 "/>
<path d="M89.1851 127.3084 L88.6886 127.0601 "/>
<path d="M88.6886 127.0601 L88.4403 126.8119 "/>
<path d="M88.4403 126.8119 L88.1921 126.3154 "/>
<path d="M88.1921 126.3154 L88.1921 124.3294 "/>
<path d="M88.1921 124.3294 L93.4053 124.3294 "/>
<path d="M93.4053 124.3294 L93.4053 126.0671 "/>
<path d="M93.4053 126.0671 L93.1571 126.5636 "/>
<path d="M93.1571 126.5636 L92.9088 126.8119 "/>
<path d="M92.9088 126.8119 L92.4123 127.0601 "/>
<path d="M92.4123 127.0601 L91.9158 127.0601 "/>
<path d="M91.9158 127.0601 L91.4193 126.8119 "/>
<path d="M91.4193 126.8119 L91.1711 126.5636 "/>
<path d="M91.1711 126.5636 L90.9228 126.0671 "/>
<path d="M90.9228 126.0671 L90.9228 124.3294 "/>
<path d="M90.1781 129.5426 L90.1781 133.5146 "/>
<path d="M93.1571 138.7278 L93.4053 138.2313 "/>
<path d="M93.4053 138.2313 L93.4053 137.4866 "/>
<path d="M93.4053 137.4866 L93.1571 136.7418 "/>
<path d="M93.1571 136.7418 L92.6606 136.2453 "/>
<path d="M92.6606 136.2453 L92.1641 135.9971 "/>
<path d="M92.1641 135.9971 L91.1711 135.7488 "/>
<path d="M91.1711 135.7488 L90.4263 135.7488 "/>
<path d="M90.4263 135.7488 L89.4333 135.9971 "/>
<path d="M89.4333 135.9971 L88.9368 136.2453 "/>
<path d="M88.9368 136.2453 L88.4403 136.7418 "/>
<path d="M88.4403 136.7418 L88.1921 137.4866 "/>
<path d="M88.1921 137.4866 L88.1921 137.9831 "/>
<path d="M88.1921 137.9831 L88.4403 138.7278 "/>
<path d="M88.4403 138.7278 L88.6886 138.9761 "/>
<path d="M88.6886 138.9761 L90.4263 138.9761 "/>
<path d="M90.4263 138.9761 L90.4263 137.9831 "/>
<path d="M88.1921 141.2103 L93.4053 141.2103 "/>
<path d="M90.9228 141.2103 L90.9228 144.1893 "/>
<path d="M88.1921 144.1893 L93.4053 144.1893 "/>
<path d="M88.4403 146.4236 L88.1921 147.1683 "/>
<path d="M88.1921 147.1683 L88.1921 148.4096 "/>
<path d="M88.1921 148.4096 L88.4403 148.9061 "/>
<path d="M88.4403 148.9061 L88.6886 149.1543 "/>
<path d="M88.6886 149.1543 L89.1851 149.4026 "/>
<path d="M89.1851 149.4026 L89.6816 149.4026 "/>
<path d="M89.6816 149.4026 L90.1781 149.1543 "/>
<path d="M90.1781 149.1543 L90.4263 148.9061 "/>
<path d="M90.4263 148.9061 L90.6746 148.4096 "/>
<path d="M90.6746 148.4096 L90.9228 147.4166 "/>
<path d="M90.9228 147.4166 L91.1711 146.9201 "/>
<path d="M91.1711 146.9201 L91.4193 146.6718 "/>
<path d="M91.4193 146.6718 L91.9158 146.4236 "/>
<path d="M91.9158 146.4236 L92.4123 146.4236 "/>
<path d="M92.4123 146.4236 L92.9088 146.6718 "/>
<path d="M92.9088 146.6718 L93.1571 146.9201 "/>
<path d="M93.1571 146.9201 L93.4053 147.4166 "/>
<path d="M93.4053 147.4166 L93.4053 148.6578 "/>
<path d="M93.4053 148.6578 L93.1571 149.4026 "/>
<path d="M90.1781 151.6368 L90.1781 155.6088 "/>
<path d="M93.4053 157.3466 L93.4053 160.3256 "/>
<path d="M88.1921 158.8361 L93.4053 158.8361 "/>
<path d="M90.9228 163.8011 L90.6746 164.5458 "/>
<path d="M90.6746 164.5458 L90.4263 164.7941 "/>
<path d="M90.4263 164.7941 L89.9298 165.0423 "/>
<path d="M89.9298 165.0423 L89.1851 165.0423 "/>
<path d="M89.1851 165.0423 L88.6886 164.7941 "/>
<path d="M88.6886 164.7941 L88.4403 164.5458 "/>
<path d="M88.4403 164.5458 L88.1921 164.0493 "/>
<path d="M88.1921 164.0493 L88.1921 162.0633 "/>
<path d="M88.1921 162.0633 L93.4053 162.0633 "/>
<path d="M93.4053 162.0633 L93.4053 163.8011 "/>
<path d="M93.4053 163.8011 L93.1571 164.2976 "/>
<path d="M93.1571 164.2976 L92.9088 164.5458 "/>
<path d="M92.9088 164.5458 L92.4123 164.7941 "/>
<path d="M92.4123 164.7941 L91.9158 164.7941 "/>
<path d="M91.9158 164.7941 L91.4193 164.5458 "/>
<path d="M91.4193 164.5458 L91.1711 164.2976 "/>
<path d="M91.1711 164.2976 L90.9228 163.8011 "/>
<path d="M90.9228 163.8011 L90.9228 162.0633 "/>
</g><g transform="rotate(90.000000 110.8948 134.1352)">
<text x="110.8948" y="136.7418" textLength="10.2403" font-size="6.9510" lengthAdjust="spacingAndGlyphs" text-anchor="middle" opacity="0">J1</text>
</g>
<g class="stroked-text"><desc>J1</desc>
<path d="M113.7370 132.3975 L110.0132 132.3975 "/>
<path d="M110.0132 132.3975 L109.2685 132.1492 "/>
<path d="M109.2685 132.1492 L108.7720 131.6527 "/>
<path d="M108.7720 131.6527 L108.5237 130.9080 "/>
<path d="M108.5237 130.9080 L108.5237 130.4115 "/>
<path d="M108.5237 137.6107 L108.5237 134.6317 "/>
<path d="M108.5237 136.1212 L113.7370 136.1212 "/>
<path d="M113.7370 136.1212 L112.9922 135.6247 "/>
<path d="M112.9922 135.6247 L112.4957 135.1282 "/>
<path d="M112.4957 135.1282 L112.2475 134.6317 "/>
</g><g transform="rotate(90.000000 206.4390 134.1352)">
<text x="206.4390" y="136.7418" textLength="65.1035" font-size="6.9510" lengthAdjust="spacingAndGlyphs" text-anchor="middle" opacity="0">SM04B-GHS-TB</text>
</g>
<g class="stroked-text"><desc>SM04B-GHS-TB</desc>
<path d="M204.3162 103.2281 L204.0680 103.9729 "/>
<path d="M204.0680 103.9729 L204.0680 105.2141 "/>
<path d="M204.0680 105.2141 L204.3162 105.7106 "/>
<path d="M204.3162 105.7106 L204.5645 105.9589 "/>
<path d="M204.5645 105.9589 L205.0610 106.2071 "/>
<path d="M205.0610 106.2071 L205.5575 106.2071 "/>
<path d="M205.5575 106.2071 L206.0540 105.9589 "/>
<path d="M206.0540 105.9589 L206.3022 105.7106 "/>
<path d="M206.3022 105.7106 L206.5505 105.2141 "/>
<path d="M206.5505 105.2141 L206.7987 104.2211 "/>
<path d="M206.7987 104.2211 L207.0470 103.7246 "/>
<path d="M207.0470 103.7246 L207.2952 103.4764 "/>
<path d="M207.2952 103.4764 L207.7917 103.2281 "/>
<path d="M207.7917 103.2281 L208.2882 103.2281 "/>
<path d="M208.2882 103.2281 L208.7847 103.4764 "/>
<path d="M208.7847 103.4764 L209.0330 103.7246 "/>
<path d="M209.0330 103.7246 L209.2812 104.2211 "/>
<path d="M209.2812 104.2211 L209.2812 105.4624 "/>
<path d="M209.2812 105.4624 L209.0330 106.2071 "/>
<path d="M204.0680 108.4414 L209.2812 108.4414 "/>
<path d="M209.2812 108.4414 L205.5575 110.1791 "/>
<path d="M205.5575 110.1791 L209.2812 111.9169 "/>
<path d="M209.2812 111.9169 L204.0680 111.9169 "/>
<path d="M209.2812 115.3924 L209.2812 115.8889 "/>
<path d="M209.2812 115.8889 L209.0330 116.3854 "/>
<path d="M209.0330 116.3854 L208.7847 116.6336 "/>
<path d="M208.7847 116.6336 L208.2882 116.8819 "/>
<path d="M208.2882 116.8819 L207.2952 117.1301 "/>
<path d="M207.2952 117.1301 L206.0540 117.1301 "/>
<path d="M206.0540 117.1301 L205.0610 116.8819 "/>
<path d="M205.0610 116.8819 L204.5645 116.6336 "/>
<path d="M204.5645 116.6336 L204.3162 116.3854 "/>
<path d="M204.3162 116.3854 L204.0680 115.8889 "/>
<path d="M204.0680 115.8889 L204.0680 115.3924 "/>
<path d="M204.0680 115.3924 L204.3162 114.8959 "/>
<path d="M204.3162 114.8959 L204.5645 114.6476 "/>
<path d="M204.5645 114.6476 L205.0610 114.3994 "/>
<path d="M205.0610 114.3994 L206.0540 114.1511 "/>
<path d="M206.0540 114.1511 L207.2952 114.1511 "/>
<path d="M207.2952 114.1511 L208.2882 114.3994 "/>
<path d="M208.2882 114.3994 L208.7847 114.6476 "/>
<path d="M208.7847 114.6476 L209.0330 114.8959 "/>
<path d="M209.0330 114.8959 L209.2812 115.3924 "/>
<path d="M207.5435 121.5986 L204.0680 121.5986 "/>
<path d="M209.5295 120.3574 L205.8057 119.1161 "/>
<path d="M205.8057 119.1161 L205.8057 122.3434 "/>
<path d="M206.7987 126.0671 L206.5505 126.8119 "/>
<path d="M206.5505 126.8119 L206.3022 127.0601 "/>
<path d="M206.3022 127.0601 L205.8057 127.3084 "/>
<path d="M205.8057 127.3084 L205.0610 127.3084 "/>
<path d="M205.0610 127.3084 L204.5645 127.0601 "/>
<path d="M204.5645 127.0601 L204.3162 126.8119 "/>
<path d="M204.3162 126.8119 L204.0680 126.3154 "/>
<path d="M204.0680 126.3154 L204.0680 124.3294 "/>
<path d="M204.0680 124.3294 L209.2812 124.3294 "/>
<path d="M209.2812 124.3294 L209.2812 126.0671 "/>
<path d="M209.2812 126.0671 L209.0330 126.5636 "/>
<path d="M209.0330 126.5636 L208.7847 126.8119 "/>
<path d="M208.7847 126.8119 L208.2882 127.0601 "/>
<path d="M208.2882 127.0601 L207.7917 127.0601 "/>
<path d="M207.7917 127.0601 L207.2952 126.8119 "/>
<path d="M207.2952 126.8119 L207.0470 126.5636 "/>
<path d="M207.0470 126.5636 L206.7987 126.0671 "/>
<path d="M206.7987 126.0671 L206.7987 124.3294 "/>
<path d="M206.0540 129.5426 L206.0540 133.5146 "/>
<path d="M209.0330 138.7278 L209.2812 138.2313 "/>
<path d="M209.2812 138.2313 L209.2812 137.4866 "/>
<path d="M209.2812 137.4866 L209.0330 136.7418 "/>
<path d="M209.0330 136.7418 L208.5365 136.2453 "/>
<path d="M208.5365 136.2453 L208.0400 135.9971 "/>
<path d="M208.0400 135.9971 L207.0470 135.7488 "/>
<path d="M207.0470 135.7488 L206.3022 135.7488 "/>
<path d="M206.3022 135.7488 L205.3092 135.9971 "/>
<path d="M205.3092 135.9971 L204.8127 136.2453 "/>
<path d="M204.8127 136.2453 L204.3162 136.7418 "/>
<path d="M204.3162 136.7418 L204.0680 137.4866 "/>
<path d="M204.0680 137.4866 L204.0680 137.9831 "/>
<path d="M204.0680 137.9831 L204.3162 138.7278 "/>
<path d="M204.3162 138.7278 L204.5645 138.9761 "/>
<path d="M204.5645 138.9761 L206.3022 138.9761 "/>
<path d="M206.3022 138.9761 L206.3022 137.9831 "/>
<path d="M204.0680 141.2103 L209.2812 141.2103 "/>
<path d="M206.7987 141.2103 L206.7987 144.1893 "/>
<path d="M204.0680 144.1893 L209.2812 144.1893 "/>
<path d="M204.3162 146.4236 L204.0680 147.1683 "/>
<path d="M204.0680 147.1683 L204.0680 148.4096 "/>
<path d="M204.0680 148.4096 L204.3162 148.9061 "/>
<path d="M204.3162 148.9061 L204.5645 149.1543 "/>
<path d="M204.5645 149.1543 L205.0610 149.4026 "/>
<path d="M205.0610 149.4026 L205.5575 149.4026 "/>
<path d="M205.5575 149.4026 L206.0540 149.1543 "/>
<path d="M206.0540 149.1543 L206.3022 148.9061 "/>
<path d="M206.3022 148.9061 L206.5505 148.4096 "/>
<path d="M206.5505 148.4096 L206.7987 147.4166 "/>
<path d="M206.7987 147.4166 L207.0470 146.9201 "/>
<path d="M207.0470 146.9201 L207.2952 146.6718 "/>
<path d="M207.2952 146.6718 L207.7917 146.4236 "/>
<path d="M207.7917 146.4236 L208.2882 146.4236 "/>
<path d="M208.2882 146.4236 L208.7847 146.6718 "/>
<path d="M208.7847 146.6718 L209.0330 146.9201 "/>
<path d="M209.0330 146.9201 L209.2812 147.4166 "/>
<path d="M209.2812 147.4166 L209.2812 148.6578 "/>
<path d="M209.2812 148.6578 L209.0330 149.4026 "/>
<path d="M206.0540 151.6368 L206.0540 155.6088 "/>
<path d="M209.2812 157.3466 L209.2812 160.3256 "/>
<path d="M204.0680 158.8361 L209.2812 158.8361 "/>
<path d="M206.7987 163.8011 L206.5505 164.5458 "/>
<path d="M206.5505 164.5458 L206.3022 164.7941 "/>
<path d="M206.3022 164.7941 L205.8057 165.0423 "/>
<path d="M205.8057 165.0423 L205.0610 165.0423 "/>
<path d="M205.0610 165.0423 L204.5645 164.7941 "/>
<path d="M204.5645 164.7941 L204.3162 164.5458 "/>
<path d="M204.3162 164.5458 L204.0680 164.0493 "/>
<path d="M204.0680 164.0493 L204.0680 162.0633 "/>
<path d="M204.0680 162.0633 L209.2812 162.0633 "/>
<path d="M209.2812 162.0633 L209.2812 163.8011 "/>
<path d="M209.2812 163.8011 L209.0330 164.2976 "/>
<path d="M209.0330 164.2976 L208.7847 164.5458 "/>
<path d="M208.7847 164.5458 L208.2882 164.7941 "/>
<path d="M208.2882 164.7941 L207.7917 164.7941 "/>
<path d="M207.7917 164.7941 L207.2952 164.5458 "/>
<path d="M207.2952 164.5458 L207.0470 164.2976 "/>
<path d="M207.0470 164.2976 L206.7987 163.8011 "/>
<path d="M206.7987 163.8011 L206.7987 162.0633 "/>
</g><g transform="rotate(90.000000 186.1074 134.1352)">
<text x="186.1074" y="136.7418" textLength="10.2403" font-size="6.9510" lengthAdjust="spacingAndGlyphs" text-anchor="middle" opacity="0">J5</text>
</g>
<g class="stroked-text"><desc>J5</desc>
<path d="M188.9495 132.3975 L185.2258 132.3975 "/>
<path d="M185.2258 132.3975 L184.4810 132.1492 "/>
<path d="M184.4810 132.1492 L183.9845 131.6527 "/>
<path d="M183.9845 131.6527 L183.7363 130.9080 "/>
<path d="M183.7363 130.9080 L183.7363 130.4115 "/>
<path d="M188.9495 137.3625 L188.9495 134.8800 "/>
<path d="M188.9495 134.8800 L186.4670 134.6317 "/>
<path d="M186.4670 134.6317 L186.7153 134.8800 "/>
<path d="M186.7153 134.8800 L186.9635 135.3765 "/>
<path d="M186.9635 135.3765 L186.9635 136.6177 "/>
<path d="M186.9635 136.6177 L186.7153 137.1142 "/>
<path d="M186.7153 137.1142 L186.4670 137.3625 "/>
<path d="M186.4670 137.3625 L185.9705 137.6107 "/>
<path d="M185.9705 137.6107 L184.7293 137.6107 "/>
<path d="M184.7293 137.6107 L184.2328 137.3625 "/>
<path d="M184.2328 137.3625 L183.9845 137.1142 "/>
<path d="M183.9845 137.1142 L183.7363 136.6177 "/>
<path d="M183.7363 136.6177 L183.7363 135.3765 "/>
<path d="M183.7363 135.3765 L183.9845 134.8800 "/>
<path d="M183.9845 134.8800 L184.2328 134.6317 "/>
</g><text x="148.2363" y="212.3172" textLength="32.0863" font-size="6.9510" lengthAdjust="spacingAndGlyphs" text-anchor="middle" opacity="0">Fiducial</text>
<g class="stroked-text"><desc>Fiducial</desc>
<path d="M135.8238 209.3510 L134.0860 209.3510 "/>
<path d="M134.0860 212.0817 L134.0860 206.8685 "/>
<path d="M134.0860 206.8685 L136.5685 206.8685 "/>
<path d="M138.5545 212.0817 L138.5545 208.6062 "/>
<path d="M138.5545 206.8685 L138.3063 207.1167 "/>
<path d="M138.3063 207.1167 L138.5545 207.3650 "/>
<path d="M138.5545 207.3650 L138.8028 207.1167 "/>
<path d="M138.8028 207.1167 L138.5545 206.8685 "/>
<path d="M138.5545 206.8685 L138.5545 207.3650 "/>
<path d="M143.2713 212.0817 L143.2713 206.8685 "/>
<path d="M143.2713 211.8335 L142.7748 212.0817 "/>
<path d="M142.7748 212.0817 L141.7818 212.0817 "/>
<path d="M141.7818 212.0817 L141.2853 211.8335 "/>
<path d="M141.2853 211.8335 L141.0370 211.5852 "/>
<path d="M141.0370 211.5852 L140.7888 211.0887 "/>
<path d="M140.7888 211.0887 L140.7888 209.5992 "/>
<path d="M140.7888 209.5992 L141.0370 209.1027 "/>
<path d="M141.0370 209.1027 L141.2853 208.8545 "/>
<path d="M141.2853 208.8545 L141.7818 208.6062 "/>
<path d="M141.7818 208.6062 L142.7748 208.6062 "/>
<path d="M142.7748 208.6062 L143.2713 208.8545 "/>
<path d="M147.9880 208.6062 L147.9880 212.0817 "/>
<path d="M145.7538 208.6062 L145.7538 211.3369 "/>
<path d="M145.7538 211.3369 L146.0020 211.8335 "/>
<path d="M146.0020 211.8335 L146.4985 212.0817 "/>
<path d="M146.4985 212.0817 L147.2433 212.0817 "/>
<path d="M147.2433 212.0817 L147.7398 211.8335 "/>
<path d="M147.7398 211.8335 L147.9880 211.5852 "/>
<path d="M152.7048 211.8335 L152.2083 212.0817 "/>
<path d="M152.2083 212.0817 L151.2153 212.0817 "/>
<path d="M151.2153 212.0817 L150.7188 211.8335 "/>
<path d="M150.7188 211.8335 L150.4705 211.5852 "/>
<path d="M150.4705 211.5852 L150.2223 211.0887 "/>
<path d="M150.2223 211.0887 L150.2223 209.5992 "/>
<path d="M150.2223 209.5992 L150.4705 209.1027 "/>
<path d="M150.4705 209.1027 L150.7188 208.8545 "/>
<path d="M150.7188 208.8545 L151.2153 208.6062 "/>
<path d="M151.2153 208.6062 L152.2083 208.6062 "/>
<path d="M152.2083 208.6062 L152.7048 208.8545 "/>
<path d="M154.9390 212.0817 L154.9390 208.6062 "/>
<path d="M154.9390 206.8685 L154.6908 207.1167 "/>
<path d="M154.6908 207.1167 L154.9390 207.3650 "/>
<path d="M154.9390 207.3650 L155.1873 207.1167 "/>
<path d="M155.1873 207.1167 L154.9390 206.8685 "/>
<path d="M154.9390 206.8685 L154.9390 207.3650 "/>
<path d="M159.6558 212.0817 L159.6558 209.3510 "/>
<path d="M159.6558 209.3510 L159.4075 208.8545 "/>
<path d="M159.4075 208.8545 L158.9110 208.6062 "/>
<path d="M158.9110 208.6062 L157.9180 208.6062 "/>
<path d="M157.9180 208.6062 L157.4215 208.8545 "/>
<path d="M159.6558 211.8335 L159.1593 212.0817 "/>
<path d="M159.1593 212.0817 L157.9180 212.0817 "/>
<path d="M157.9180 212.0817 L157.4215 211.8335 "/>
<path d="M157.4215 211.8335 L157.1733 211.3369 "/>
<path d="M157.1733 211.3369 L157.1733 210.8404 "/>
<path d="M157.1733 210.8404 L157.4215 210.3439 "/>
<path d="M157.4215 210.3439 L157.9180 210.0957 "/>
<path d="M157.9180 210.0957 L159.1593 210.0957 "/>
<path d="M159.1593 210.0957 L159.6558 209.8474 "/>
<path d="M162.8830 212.0817 L162.3865 211.8335 "/>
<path d="M162.3865 211.8335 L162.1383 211.3369 "/>
<path d="M162.1383 211.3369 L162.1383 206.8685 "/>
</g></g>
<g style="fill:#000084; fill-opacity:0.0;  stroke:#000084; stroke-width:0.3128; stroke-opacity:1;  stroke-linecap:round; stroke-linejoin:round;">
<text x="148.2363" y="200.3268" textLength="7.3730" font-size="2.7804" lengthAdjust="spacingAndGlyphs" text-anchor="middle" opacity="0">FID2</text>
<g class="stroked-text"><desc>FID2</desc>
<path d="M146.0020 199.1403 L145.3069 199.1403 "/>
<path d="M145.3069 200.2326 L145.3069 198.1473 "/>
<path d="M145.3069 198.1473 L146.2999 198.1473 "/>
<path d="M147.0943 200.2326 L147.0943 198.1473 "/>
<path d="M148.0873 200.2326 L148.0873 198.1473 "/>
<path d="M148.0873 198.1473 L148.5838 198.1473 "/>
<path d="M148.5838 198.1473 L148.8817 198.2466 "/>
<path d="M148.8817 198.2466 L149.0803 198.4452 "/>
<path d="M149.0803 198.4452 L149.1796 198.6438 "/>
<path d="M149.1796 198.6438 L149.2789 199.0410 "/>
<path d="M149.2789 199.0410 L149.2789 199.3389 "/>
<path d="M149.2789 199.3389 L149.1796 199.7361 "/>
<path d="M149.1796 199.7361 L149.0803 199.9347 "/>
<path d="M149.0803 199.9347 L148.8817 200.1333 "/>
<path d="M148.8817 200.1333 L148.5838 200.2326 "/>
<path d="M148.5838 200.2326 L148.0873 200.2326 "/>
<path d="M150.0733 198.3459 L150.1726 198.2466 "/>
<path d="M150.1726 198.2466 L150.3712 198.1473 "/>
<path d="M150.3712 198.1473 L150.8677 198.1473 "/>
<path d="M150.8677 198.1473 L151.0663 198.2466 "/>
<path d="M151.0663 198.2466 L151.1656 198.3459 "/>
<path d="M151.1656 198.3459 L151.2649 198.5445 "/>
<path d="M151.2649 198.5445 L151.2649 198.7431 "/>
<path d="M151.2649 198.7431 L151.1656 199.0410 "/>
<path d="M151.1656 199.0410 L149.9740 200.2326 "/>
<path d="M149.9740 200.2326 L151.2649 200.2326 "/>
</g></g>
<g style="fill:#000084; fill-opacity:0.0;  stroke:#000084; stroke-width:0.7820; stroke-opacity:1;  stroke-linecap:round; stroke-linejoin:round;">
<text x="148.5011" y="24.5820" textLength="32.0863" font-size="6.9510" lengthAdjust="spacingAndGlyphs" text-anchor="middle" opacity="0">Fiducial</text>
<g class="stroked-text"><desc>Fiducial</desc>
<path d="M136.0886 21.6157 L134.3509 21.6157 "/>
<path d="M134.3509 24.3464 L134.3509 19.1332 "/>
<path d="M134.3509 19.1332 L136.8334 19.1332 "/>
<path d="M138.8194 24.3464 L138.8194 20.8709 "/>
<path d="M138.8194 19.1332 L138.5711 19.3814 "/>
<path d="M138.5711 19.3814 L138.8194 19.6297 "/>
<path d="M138.8194 19.6297 L139.0676 19.3814 "/>
<path d="M139.0676 19.3814 L138.8194 19.1332 "/>
<path d="M138.8194 19.1332 L138.8194 19.6297 "/>
<path d="M143.5361 24.3464 L143.5361 19.1332 "/>
<path d="M143.5361 24.0982 L143.0396 24.3464 "/>
<path d="M143.0396 24.3464 L142.0466 24.3464 "/>
<path d="M142.0466 24.3464 L141.5501 24.0982 "/>
<path d="M141.5501 24.0982 L141.3019 23.8499 "/>
<path d="M141.3019 23.8499 L141.0536 23.3534 "/>
<path d="M141.0536 23.3534 L141.0536 21.8639 "/>
<path d="M141.0536 21.8639 L141.3019 21.3674 "/>
<path d="M141.3019 21.3674 L141.5501 21.1192 "/>
<path d="M141.5501 21.1192 L142.0466 20.8709 "/>
<path d="M142.0466 20.8709 L143.0396 20.8709 "/>
<path d="M143.0396 20.8709 L143.5361 21.1192 "/>
<path d="M148.2529 20.8709 L148.2529 24.3464 "/>
<path d="M146.0186 20.8709 L146.0186 23.6017 "/>
<path d="M146.0186 23.6017 L146.2669 24.0982 "/>
<path d="M146.2669 24.0982 L146.7634 24.3464 "/>
<path d="M146.7634 24.3464 L147.5081 24.3464 "/>
<path d="M147.5081 24.3464 L148.0046 24.0982 "/>
<path d="M148.0046 24.0982 L148.2529 23.8499 "/>
<path d="M152.9696 24.0982 L152.4731 24.3464 "/>
<path d="M152.4731 24.3464 L151.4801 24.3464 "/>
<path d="M151.4801 24.3464 L150.9836 24.0982 "/>
<path d="M150.9836 24.0982 L150.7354 23.8499 "/>
<path d="M150.7354 23.8499 L150.4871 23.3534 "/>
<path d="M150.4871 23.3534 L150.4871 21.8639 "/>
<path d="M150.4871 21.8639 L150.7354 21.3674 "/>
<path d="M150.7354 21.3674 L150.9836 21.1192 "/>
<path d="M150.9836 21.1192 L151.4801 20.8709 "/>
<path d="M151.4801 20.8709 L152.4731 20.8709 "/>
<path d="M152.4731 20.8709 L152.9696 21.1192 "/>
<path d="M155.2039 24.3464 L155.2039 20.8709 "/>
<path d="M155.2039 19.1332 L154.9556 19.3814 "/>
<path d="M154.9556 19.3814 L155.2039 19.6297 "/>
<path d="M155.2039 19.6297 L155.4521 19.3814 "/>
<path d="M155.4521 19.3814 L155.2039 19.1332 "/>
<path d="M155.2039 19.1332 L155.2039 19.6297 "/>
<path d="M159.9206 24.3464 L159.9206 21.6157 "/>
<path d="M159.9206 21.6157 L159.6723 21.1192 "/>
<path d="M159.6723 21.1192 L159.1758 20.8709 "/>
<path d="M159.1758 20.8709 L158.1828 20.8709 "/>
<path d="M158.1828 20.8709 L157.6863 21.1192 "/>
<path d="M159.9206 24.0982 L159.4241 24.3464 "/>
<path d="M159.4241 24.3464 L158.1828 24.3464 "/>
<path d="M158.1828 24.3464 L157.6863 24.0982 "/>
<path d="M157.6863 24.0982 L157.4381 23.6017 "/>
<path d="M157.4381 23.6017 L157.4381 23.1052 "/>
<path d="M157.4381 23.1052 L157.6863 22.6087 "/>
<path d="M157.6863 22.6087 L158.1828 22.3604 "/>
<path d="M158.1828 22.3604 L159.4241 22.3604 "/>
<path d="M159.4241 22.3604 L159.9206 22.1122 "/>
<path d="M163.1478 24.3464 L162.6513 24.0982 "/>
<path d="M162.6513 24.0982 L162.4031 23.6017 "/>
<path d="M162.4031 23.6017 L162.4031 19.1332 "/>
</g></g>
<g style="fill:#000084; fill-opacity:0.0;  stroke:#000084; stroke-width:0.3128; stroke-opacity:1;  stroke-linecap:round; stroke-linejoin:round;">
<text x="148.5011" y="12.5915" textLength="7.3730" font-size="2.7804" lengthAdjust="spacingAndGlyphs" text-anchor="middle" opacity="0">FID1</text>
<g class="stroked-text"><desc>FID1</desc>
<path d="M146.2669 11.4050 L145.5718 11.4050 "/>
<path d="M145.5718 12.4973 L145.5718 10.4120 "/>
<path d="M145.5718 10.4120 L146.5648 10.4120 "/>
<path d="M147.3592 12.4973 L147.3592 10.4120 "/>
<path d="M148.3522 12.4973 L148.3522 10.4120 "/>
<path d="M148.3522 10.4120 L148.8487 10.4120 "/>
<path d="M148.8487 10.4120 L149.1466 10.5113 "/>
<path d="M149.1466 10.5113 L149.3452 10.7099 "/>
<path d="M149.3452 10.7099 L149.4445 10.9085 "/>
<path d="M149.4445 10.9085 L149.5438 11.3057 "/>
<path d="M149.5438 11.3057 L149.5438 11.6036 "/>
<path d="M149.5438 11.6036 L149.4445 12.0008 "/>
<path d="M149.4445 12.0008 L149.3452 12.1994 "/>
<path d="M149.3452 12.1994 L149.1466 12.3980 "/>
<path d="M149.1466 12.3980 L148.8487 12.4973 "/>
<path d="M148.8487 12.4973 L148.3522 12.4973 "/>
<path d="M151.5298 12.4973 L150.3382 12.4973 "/>
<path d="M150.9340 12.4973 L150.9340 10.4120 "/>
<path d="M150.9340 10.4120 L150.7354 10.7099 "/>
<path d="M150.7354 10.7099 L150.5368 10.9085 "/>
<path d="M150.5368 10.9085 L150.3382 11.0078 "/>
</g></g>
<g style="fill:#000084; fill-opacity:0.0;  stroke:#000084; stroke-width:0.7820; stroke-opacity:1;  stroke-linecap:round; stroke-linejoin:round;">
<g transform="rotate(90.000000 90.5632 75.6071)">
<text x="90.5632" y="78.2138" textLength="65.1035" font-size="6.9510" lengthAdjust="spacingAndGlyphs" text-anchor="middle" opacity="0">SM04B-GHS-TB</text>
</g>
<g class="stroked-text"><desc>SM04B-GHS-TB</desc>
<path d="M88.4403 44.7000 L88.1921 45.4448 "/>
<path d="M88.1921 45.4448 L88.1921 46.6860 "/>
<path d="M88.1921 46.6860 L88.4403 47.1825 "/>
<path d="M88.4403 47.1825 L88.6886 47.4308 "/>
<path d="M88.6886 47.4308 L89.1851 47.6790 "/>
<path d="M89.1851 47.6790 L89.6816 47.6790 "/>
<path d="M89.6816 47.6790 L90.1781 47.4308 "/>
<path d="M90.1781 47.4308 L90.4263 47.1825 "/>
<path d="M90.4263 47.1825 L90.6746 46.6860 "/>
<path d="M90.6746 46.6860 L90.9228 45.6930 "/>
<path d="M90.9228 45.6930 L91.1711 45.1965 "/>
<path d="M91.1711 45.1965 L91.4193 44.9483 "/>
<path d="M91.4193 44.9483 L91.9158 44.7000 "/>
<path d="M91.9158 44.7000 L92.4123 44.7000 "/>
<path d="M92.4123 44.7000 L92.9088 44.9483 "/>
<path d="M92.9088 44.9483 L93.1571 45.1965 "/>
<path d="M93.1571 45.1965 L93.4053 45.6930 "/>
<path d="M93.4053 45.6930 L93.4053 46.9343 "/>
<path d="M93.4053 46.9343 L93.1571 47.6790 "/>
<path d="M88.1921 49.9133 L93.4053 49.9133 "/>
<path d="M93.4053 49.9133 L89.6816 51.6510 "/>
<path d="M89.6816 51.6510 L93.4053 53.3888 "/>
<path d="M93.4053 53.3888 L88.1921 53.3888 "/>
<path d="M93.4053 56.8643 L93.4053 57.3608 "/>
<path d="M93.4053 57.3608 L93.1571 57.8573 "/>
<path d="M93.1571 57.8573 L92.9088 58.1055 "/>
<path d="M92.9088 58.1055 L92.4123 58.3538 "/>
<path d="M92.4123 58.3538 L91.4193 58.6020 "/>
<path d="M91.4193 58.6020 L90.1781 58.6020 "/>
<path d="M90.1781 58.6020 L89.1851 58.3538 "/>
<path d="M89.1851 58.3538 L88.6886 58.1055 "/>
<path d="M88.6886 58.1055 L88.4403 57.8573 "/>
<path d="M88.4403 57.8573 L88.1921 57.3608 "/>
<path d="M88.1921 57.3608 L88.1921 56.8643 "/>
<path d="M88.1921 56.8643 L88.4403 56.3678 "/>
<path d="M88.4403 56.3678 L88.6886 56.1195 "/>
<path d="M88.6886 56.1195 L89.1851 55.8713 "/>
<path d="M89.1851 55.8713 L90.1781 55.6230 "/>
<path d="M90.1781 55.6230 L91.4193 55.6230 "/>
<path d="M91.4193 55.6230 L92.4123 55.8713 "/>
<path d="M92.4123 55.8713 L92.9088 56.1195 "/>
<path d="M92.9088 56.1195 L93.1571 56.3678 "/>
<path d="M93.1571 56.3678 L93.4053 56.8643 "/>
<path d="M91.6676 63.0705 L88.1921 63.0705 "/>
<path d="M93.6536 61.8293 L89.9298 60.5880 "/>
<path d="M89.9298 60.5880 L89.9298 63.8153 "/>
<path d="M90.9228 67.5390 L90.6746 68.2838 "/>
<path d="M90.6746 68.2838 L90.4263 68.5320 "/>
<path d="M90.4263 68.5320 L89.9298 68.7803 "/>
<path d="M89.9298 68.7803 L89.1851 68.7803 "/>
<path d="M89.1851 68.7803 L88.6886 68.5320 "/>
<path d="M88.6886 68.5320 L88.4403 68.2838 "/>
<path d="M88.4403 68.2838 L88.1921 67.7873 "/>
<path d="M88.1921 67.7873 L88.1921 65.8013 "/>
<path d="M88.1921 65.8013 L93.4053 65.8013 "/>
<path d="M93.4053 65.8013 L93.4053 67.5390 "/>
<path d="M93.4053 67.5390 L93.1571 68.0355 "/>
<path d="M93.1571 68.0355 L92.9088 68.2838 "/>
<path d="M92.9088 68.2838 L92.4123 68.5320 "/>
<path d="M92.4123 68.5320 L91.9158 68.5320 "/>
<path d="M91.9158 68.5320 L91.4193 68.2838 "/>
<path d="M91.4193 68.2838 L91.1711 68.0355 "/>
<path d="M91.1711 68.0355 L90.9228 67.5390 "/>
<path d="M90.9228 67.5390 L90.9228 65.8013 "/>
<path d="M90.1781 71.0145 L90.1781 74.9865 "/>
<path d="M93.1571 80.1998 L93.4053 79.7033 "/>
<path d="M93.4053 79.7033 L93.4053 78.9585 "/>
<path d="M93.4053 78.9585 L93.1571 78.2138 "/>
<path d="M93.1571 78.2138 L92.6606 77.7173 "/>
<path d="M92.6606 77.7173 L92.1641 77.4690 "/>
<path d="M92.1641 77.4690 L91.1711 77.2208 "/>
<path d="M91.1711 77.2208 L90.4263 77.2208 "/>
<path d="M90.4263 77.2208 L89.4333 77.4690 "/>
<path d="M89.4333 77.4690 L88.9368 77.7173 "/>
<path d="M88.9368 77.7173 L88.4403 78.2138 "/>
<path d="M88.4403 78.2138 L88.1921 78.9585 "/>
<path d="M88.1921 78.9585 L88.1921 79.4550 "/>
<path d="M88.1921 79.4550 L88.4403 80.1998 "/>
<path d="M88.4403 80.1998 L88.6886 80.4480 "/>
<path d="M88.6886 80.4480 L90.4263 80.4480 "/>
<path d="M90.4263 80.4480 L90.4263 79.4550 "/>
<path d="M88.1921 82.6823 L93.4053 82.6823 "/>
<path d="M90.9228 82.6823 L90.9228 85.6613 "/>
<path d="M88.1921 85.6613 L93.4053 85.6613 "/>
<path d="M88.4403 87.8955 L88.1921 88.6403 "/>
<path d="M88.1921 88.6403 L88.1921 89.8815 "/>
<path d="M88.1921 89.8815 L88.4403 90.3780 "/>
<path d="M88.4403 90.3780 L88.6886 90.6263 "/>
<path d="M88.6886 90.6263 L89.1851 90.8745 "/>
<path d="M89.1851 90.8745 L89.6816 90.8745 "/>
<path d="M89.6816 90.8745 L90.1781 90.6263 "/>
<path d="M90.1781 90.6263 L90.4263 90.3780 "/>
<path d="M90.4263 90.3780 L90.6746 89.8815 "/>
<path d="M90.6746 89.8815 L90.9228 88.8885 "/>
<path d="M90.9228 88.8885 L91.1711 88.3920 "/>
<path d="M91.1711 88.3920 L91.4193 88.1438 "/>
<path d="M91.4193 88.1438 L91.9158 87.8955 "/>
<path d="M91.9158 87.8955 L92.4123 87.8955 "/>
<path d="M92.4123 87.8955 L92.9088 88.1438 "/>
<path d="M92.9088 88.1438 L93.1571 88.3920 "/>
<path d="M93.1571 88.3920 L93.4053 88.8885 "/>
<path d="M93.4053 88.8885 L93.4053 90.1298 "/>
<path d="M93.4053 90.1298 L93.1571 90.8745 "/>
<path d="M90.1781 93.1088 L90.1781 97.0808 "/>
<path d="M93.4053 98.8185 L93.4053 101.7975 "/>
<path d="M88.1921 100.3080 L93.4053 100.3080 "/>
<path d="M90.9228 105.2730 L90.6746 106.0178 "/>
<path d="M90.6746 106.0178 L90.4263 106.2660 "/>
<path d="M90.4263 106.2660 L89.9298 106.5143 "/>
<path d="M89.9298 106.5143 L89.1851 106.5143 "/>
<path d="M89.1851 106.5143 L88.6886 106.2660 "/>
<path d="M88.6886 106.2660 L88.4403 106.0178 "/>
<path d="M88.4403 106.0178 L88.1921 105.5213 "/>
<path d="M88.1921 105.5213 L88.1921 103.5353 "/>
<path d="M88.1921 103.5353 L93.4053 103.5353 "/>
<path d="M93.4053 103.5353 L93.4053 105.2730 "/>
<path d="M93.4053 105.2730 L93.1571 105.7695 "/>
<path d="M93.1571 105.7695 L92.9088 106.0178 "/>
<path d="M92.9088 106.0178 L92.4123 106.2660 "/>
<path d="M92.4123 106.2660 L91.9158 106.2660 "/>
<path d="M91.9158 106.2660 L91.4193 106.0178 "/>
<path d="M91.4193 106.0178 L91.1711 105.7695 "/>
<path d="M91.1711 105.7695 L90.9228 105.2730 "/>
<path d="M90.9228 105.2730 L90.9228 103.5353 "/>
</g><g transform="rotate(90.000000 110.8948 75.6071)">
<text x="110.8948" y="78.2138" textLength="10.2403" font-size="6.9510" lengthAdjust="spacingAndGlyphs" text-anchor="middle" opacity="0">J2</text>
</g>
<g class="stroked-text"><desc>J2</desc>
<path d="M113.7370 73.8694 L110.0132 73.8694 "/>
<path d="M110.0132 73.8694 L109.2685 73.6211 "/>
<path d="M109.2685 73.6211 L108.7720 73.1246 "/>
<path d="M108.7720 73.1246 L108.5237 72.3799 "/>
<path d="M108.5237 72.3799 L108.5237 71.8834 "/>
<path d="M113.2405 76.1036 L113.4887 76.3519 "/>
<path d="M113.4887 76.3519 L113.7370 76.8484 "/>
<path d="M113.7370 76.8484 L113.7370 78.0896 "/>
<path d="M113.7370 78.0896 L113.4887 78.5861 "/>
<path d="M113.4887 78.5861 L113.2405 78.8344 "/>
<path d="M113.2405 78.8344 L112.7440 79.0826 "/>
<path d="M112.7440 79.0826 L112.2475 79.0826 "/>
<path d="M112.2475 79.0826 L111.5027 78.8344 "/>
<path d="M111.5027 78.8344 L108.5237 75.8554 "/>
<path d="M108.5237 75.8554 L108.5237 79.0826 "/>
</g><g transform="rotate(90.000000 206.4390 75.6071)">
<text x="206.4390" y="78.2138" textLength="65.1035" font-size="6.9510" lengthAdjust="spacingAndGlyphs" text-anchor="middle" opacity="0">SM04B-GHS-TB</text>
</g>
<g class="stroked-text"><desc>SM04B-GHS-TB</desc>
<path d="M204.3162 44.7000 L204.0680 45.4448 "/>
<path d="M204.0680 45.4448 L204.0680 46.6860 "/>
<path d="M204.0680 46.6860 L204.3162 47.1825 "/>
<path d="M204.3162 47.1825 L204.5645 47.4308 "/>
<path d="M204.5645 47.4308 L205.0610 47.6790 "/>
<path d="M205.0610 47.6790 L205.5575 47.6790 "/>
<path d="M205.5575 47.6790 L206.0540 47.4308 "/>
<path d="M206.0540 47.4308 L206.3022 47.1825 "/>
<path d="M206.3022 47.1825 L206.5505 46.6860 "/>
<path d="M206.5505 46.6860 L206.7987 45.6930 "/>
<path d="M206.7987 45.6930 L207.0470 45.1965 "/>
<path d="M207.0470 45.1965 L207.2952 44.9483 "/>
<path d="M207.2952 44.9483 L207.7917 44.7000 "/>
<path d="M207.7917 44.7000 L208.2882 44.7000 "/>
<path d="M208.2882 44.7000 L208.7847 44.9483 "/>
<path d="M208.7847 44.9483 L209.0330 45.1965 "/>
<path d="M209.0330 45.1965 L209.2812 45.6930 "/>
<path d="M209.2812 45.6930 L209.2812 46.9343 "/>
<path d="M209.2812 46.9343 L209.0330 47.6790 "/>
<path d="M204.0680 49.9133 L209.2812 49.9133 "/>
<path d="M209.2812 49.9133 L205.5575 51.6510 "/>
<path d="M205.5575 51.6510 L209.2812 53.3888 "/>
<path d="M209.2812 53.3888 L204.0680 53.3888 "/>
<path d="M209.2812 56.8643 L209.2812 57.3608 "/>
<path d="M209.2812 57.3608 L209.0330 57.8573 "/>
<path d="M209.0330 57.8573 L208.7847 58.1055 "/>
<path d="M208.7847 58.1055 L208.2882 58.3538 "/>
<path d="M208.2882 58.3538 L207.2952 58.6020 "/>
<path d="M207.2952 58.6020 L206.0540 58.6020 "/>
<path d="M206.0540 58.6020 L205.0610 58.3538 "/>
<path d="M205.0610 58.3538 L204.5645 58.1055 "/>
<path d="M204.5645 58.1055 L204.3162 57.8573 "/>
<path d="M204.3162 57.8573 L204.0680 57.3608 "/>
<path d="M204.0680 57.3608 L204.0680 56.8643 "/>
<path d="M204.0680 56.8643 L204.3162 56.3678 "/>
<path d="M204.3162 56.3678 L204.5645 56.1195 "/>
<path d="M204.5645 56.1195 L205.0610 55.8713 "/>
<path d="M205.0610 55.8713 L206.0540 55.6230 "/>
<path d="M206.0540 55.6230 L207.2952 55.6230 "/>
<path d="M207.2952 55.6230 L208.2882 55.8713 "/>
<path d="M208.2882 55.8713 L208.7847 56.1195 "/>
<path d="M208.7847 56.1195 L209.0330 56.3678 "/>
<path d="M209.0330 56.3678 L209.2812 56.8643 "/>
<path d="M207.5435 63.0705 L204.0680 63.0705 "/>
<path d="M209.5295 61.8293 L205.8057 60.5880 "/>
<path d="M205.8057 60.5880 L205.8057 63.8153 "/>
<path d="M206.7987 67.5390 L206.5505 68.2838 "/>
<path d="M206.5505 68.2838 L206.3022 68.5320 "/>
<path d="M206.3022 68.5320 L205.8057 68.7803 "/>
<path d="M205.8057 68.7803 L205.0610 68.7803 "/>
<path d="M205.0610 68.7803 L204.5645 68.5320 "/>
<path d="M204.5645 68.5320 L204.3162 68.2838 "/>
<path d="M204.3162 68.2838 L204.0680 67.7873 "/>
<path d="M204.0680 67.7873 L204.0680 65.8013 "/>
<path d="M204.0680 65.8013 L209.2812 65.8013 "/>
<path d="M209.2812 65.8013 L209.2812 67.5390 "/>
<path d="M209.2812 67.5390 L209.0330 68.0355 "/>
<path d="M209.0330 68.0355 L208.7847 68.2838 "/>
<path d="M208.7847 68.2838 L208.2882 68.5320 "/>
<path d="M208.2882 68.5320 L207.7917 68.5320 "/>
<path d="M207.7917 68.5320 L207.2952 68.2838 "/>
<path d="M207.2952 68.2838 L207.0470 68.0355 "/>
<path d="M207.0470 68.0355 L206.7987 67.5390 "/>
<path d="M206.7987 67.5390 L206.7987 65.8013 "/>
<path d="M206.0540 71.0145 L206.0540 74.9865 "/>
<path d="M209.0330 80.1998 L209.2812 79.7033 "/>
<path d="M209.2812 79.7033 L209.2812 78.9585 "/>
<path d="M209.2812 78.9585 L209.0330 78.2138 "/>
<path d="M209.0330 78.2138 L208.5365 77.7173 "/>
<path d="M208.5365 77.7173 L208.0400 77.4690 "/>
<path d="M208.0400 77.4690 L207.0470 77.2208 "/>
<path d="M207.0470 77.2208 L206.3022 77.2208 "/>
<path d="M206.3022 77.2208 L205.3092 77.4690 "/>
<path d="M205.3092 77.4690 L204.8127 77.7173 "/>
<path d="M204.8127 77.7173 L204.3162 78.2138 "/>
<path d="M204.3162 78.2138 L204.0680 78.9585 "/>
<path d="M204.0680 78.9585 L204.0680 79.4550 "/>
<path d="M204.0680 79.4550 L204.3162 80.1998 "/>
<path d="M204.3162 80.1998 L204.5645 80.4480 "/>
<path d="M204.5645 80.4480 L206.3022 80.4480 "/>
<path d="M206.3022 80.4480 L206.3022 79.4550 "/>
<path d="M204.0680 82.6823 L209.2812 82.6823 "/>
<path d="M206.7987 82.6823 L206.7987 85.6613 "/>
<path d="M204.0680 85.6613 L209.2812 85.6613 "/>
<path d="M204.3162 87.8955 L204.0680 88.6403 "/>
<path d="M204.0680 88.6403 L204.0680 89.8815 "/>
<path d="M204.0680 89.8815 L204.3162 90.3780 "/>
<path d="M204.3162 90.3780 L204.5645 90.6263 "/>
<path d="M204.5645 90.6263 L205.0610 90.8745 "/>
<path d="M205.0610 90.8745 L205.5575 90.8745 "/>
<path d="M205.5575 90.8745 L206.0540 90.6263 "/>
<path d="M206.0540 90.6263 L206.3022 90.3780 "/>
<path d="M206.3022 90.3780 L206.5505 89.8815 "/>
<path d="M206.5505 89.8815 L206.7987 88.8885 "/>
<path d="M206.7987 88.8885 L207.0470 88.3920 "/>
<path d="M207.0470 88.3920 L207.2952 88.1438 "/>
<path d="M207.2952 88.1438 L207.7917 87.8955 "/>
<path d="M207.7917 87.8955 L208.2882 87.8955 "/>
<path d="M208.2882 87.8955 L208.7847 88.1438 "/>
<path d="M208.7847 88.1438 L209.0330 88.3920 "/>
<path d="M209.0330 88.3920 L209.2812 88.8885 "/>
<path d="M209.2812 88.8885 L209.2812 90.1298 "/>
<path d="M209.2812 90.1298 L209.0330 90.8745 "/>
<path d="M206.0540 93.1088 L206.0540 97.0808 "/>
<path d="M209.2812 98.8185 L209.2812 101.7975 "/>
<path d="M204.0680 100.3080 L209.2812 100.3080 "/>
<path d="M206.7987 105.2730 L206.5505 106.0178 "/>
<path d="M206.5505 106.0178 L206.3022 106.2660 "/>
<path d="M206.3022 106.2660 L205.8057 106.5143 "/>
<path d="M205.8057 106.5143 L205.0610 106.5143 "/>
<path d="M205.0610 106.5143 L204.5645 106.2660 "/>
<path d="M204.5645 106.2660 L204.3162 106.0178 "/>
<path d="M204.3162 106.0178 L204.0680 105.5213 "/>
<path d="M204.0680 105.5213 L204.0680 103.5353 "/>
<path d="M204.0680 103.5353 L209.2812 103.5353 "/>
<path d="M209.2812 103.5353 L209.2812 105.2730 "/>
<path d="M209.2812 105.2730 L209.0330 105.7695 "/>
<path d="M209.0330 105.7695 L208.7847 106.0178 "/>
<path d="M208.7847 106.0178 L208.2882 106.2660 "/>
<path d="M208.2882 106.2660 L207.7917 106.2660 "/>
<path d="M207.7917 106.2660 L207.2952 106.0178 "/>
<path d="M207.2952 106.0178 L207.0470 105.7695 "/>
<path d="M207.0470 105.7695 L206.7987 105.2730 "/>
<path d="M206.7987 105.2730 L206.7987 103.5353 "/>
</g><g transform="rotate(90.000000 182.5321 75.6071)">
<text x="182.5321" y="78.2138" textLength="10.2403" font-size="6.9510" lengthAdjust="spacingAndGlyphs" text-anchor="middle" opacity="0">J4</text>
</g>
<g class="stroked-text"><desc>J4</desc>
<path d="M185.3743 73.8694 L181.6506 73.8694 "/>
<path d="M181.6506 73.8694 L180.9058 73.6211 "/>
<path d="M180.9058 73.6211 L180.4093 73.1246 "/>
<path d="M180.4093 73.1246 L180.1611 72.3799 "/>
<path d="M180.1611 72.3799 L180.1611 71.8834 "/>
<path d="M183.6366 78.5861 L180.1611 78.5861 "/>
<path d="M185.6225 77.3449 L181.8988 76.1036 "/>
<path d="M181.8988 76.1036 L181.8988 79.3309 "/>
</g></g>
<g style="fill:#000084; fill-opacity:0.0;  stroke:#000084; stroke-width:0.5213; stroke-opacity:1;  stroke-linecap:round; stroke-linejoin:round;">
<path d="M98.1224 112.6306 L98.1224 155.6399 "/>
<path d="M119.2360 112.6306 L98.1224 112.6306 "/>
<path d="M119.2360 112.6306 L119.2360 155.6399 "/>
<path d="M119.2360 121.7538 L115.5497 124.3604 "/>
<path d="M115.5497 124.3604 L119.2360 126.9670 "/>
<path d="M119.2360 155.6399 L98.1224 155.6399 "/>
<path d="M198.8798 155.6399 L198.8798 112.6306 "/>
<path d="M177.7662 155.6399 L198.8798 155.6399 "/>
<path d="M177.7662 155.6399 L177.7662 112.6306 "/>
<path d="M177.7662 146.5167 L181.4525 143.9101 "/>
<path d="M181.4525 143.9101 L177.7662 141.3034 "/>
<path d="M177.7662 112.6306 L198.8798 112.6306 "/>
<circle cx="148.2363" cy="199.2841" r="5.2132"/> 
<circle cx="148.5011" cy="11.5489" r="5.2132"/> 
<path d="M98.1224 54.1025 L98.1224 97.1118 "/>
<path d="M119.2360 54.1025 L98.1224 54.1025 "/>
<path d="M119.2360 54.1025 L119.2360 97.1118 "/>
<path d="M119.2360 63.2257 L115.5497 65.8323 "/>
<path d="M115.5497 65.8323 L119.2360 68.4389 "/>
<path d="M119.2360 97.1118 L98.1224 97.1118 "/>
<path d="M198.8798 97.1118 L198.8798 54.1025 "/>
<path d="M177.7662 97.1118 L198.8798 97.1118 "/>
<path d="M177.7662 97.1118 L177.7662 54.1025 "/>
<path d="M177.7662 87.9886 L181.4525 85.3820 "/>
<path d="M181.4525 85.3820 L177.7662 82.7754 "/>
<path d="M177.7662 54.1025 L198.8798 54.1025 "/>
<g>
</g>
<g>
</g>
<g>
</g>
<g>
</g>
<g>
</g>
<g>
</g>
<g>
</g>
<g>
</g>
<g>
</g>
<g>
</g>
<g>
</g>
<g>
</g>
<g>
</g>
<g>
</g>
</g> 
<svg:g><svg:g><svg:title>SVG Image created as GH4PIN01-Edge_Cuts.svg date 2024/06/05 20:25:23 </svg:title>
  <svg:desc>Image generated by PCBNEW </svg:desc>
<svg:g style="fill:#C2C200; fill-opacity:1.0000;stroke:#C2C200; stroke-opacity:1.0000; stroke-linecap:round; stroke-linejoin:round;" transform="translate(0 0) scale(1 1)">
</svg:g>
<svg:g style="fill:#C2C200; fill-opacity:0.0;  stroke:#C2C200; stroke-width:0.0000; stroke-opacity:1;  stroke-linecap:round; stroke-linejoin:round;">
</svg:g>
<svg:g style="fill:#C2C200; fill-opacity:0.0;  stroke:#C2C200; stroke-width:0.7820; stroke-opacity:1;  stroke-linecap:round; stroke-linejoin:round;">
<svg:path style="fill:#C2C200; fill-opacity:0.0;  stroke:#C2C200; stroke-width:0.7820; stroke-opacity:1;  stroke-linecap:round; stroke-linejoin:round;fill:none" d="M 200.1435,0.3946 96.8587,0.3946 96.8587,209.6126 200.1435,209.6126 Z"/> 
<svg:g>
</svg:g>
<svg:g>
</svg:g>
<svg:g>
</svg:g>
<svg:g>
</svg:g>
<svg:g>
</svg:g>
<svg:g>
</svg:g>
<svg:g>
</svg:g>
<svg:g>
</svg:g>
<svg:g>
</svg:g>
<svg:g>
</svg:g>
<svg:g>
</svg:g>
<svg:g>
</svg:g>
<svg:g>
</svg:g>
<svg:g>
</svg:g>
</svg:g> 
</svg:g></svg:g></svg>
