<?xml version='1.0' encoding='ASCII' standalone='yes'?>
<svg xmlns:svg="http://www.w3.org/2000/svg" xmlns="http://www.w3.org/2000/svg" xmlns:xlink="http://www.w3.org/1999/xlink" version="1.1" width="297.0022mm" height="210.0072mm" viewBox="0.0000 0.0000 297.0022 210.0072">
<title>SVG Image created as GH4PIN01-B_Fab.svg date 2024/06/06 13:44:42 </title>
  <desc>Image generated by PCBNEW </desc>
<g style="fill:#000084; fill-opacity:1.0000;stroke:#000084; stroke-opacity:1.0000; stroke-linecap:round; stroke-linejoin:round;" transform="translate(0 0) scale(1 1)">
</g>
<g style="fill:#000084; fill-opacity:0.0;  stroke:#000084; stroke-width:0.0000; stroke-opacity:1;  stroke-linecap:round; stroke-linejoin:round;">
</g>
<g style="fill:#000084; fill-opacity:0.0;  stroke:#000084; stroke-width:0.7820; stroke-opacity:1;  stroke-linecap:round; stroke-linejoin:round;">
<text x="183.7239" y="136.6094" textLength="10.2403" font-size="6.9510" lengthAdjust="spacingAndGlyphs" text-anchor="middle" opacity="0">J4</text>
<g class="stroked-text"><desc>J4</desc>
<path d="M181.9861 131.1606 L181.9861 134.8844 "/>
<path d="M181.9861 134.8844 L181.7379 135.6291 "/>
<path d="M181.7379 135.6291 L181.2414 136.1256 "/>
<path d="M181.2414 136.1256 L180.4966 136.3739 "/>
<path d="M180.4966 136.3739 L180.0001 136.3739 "/>
<path d="M186.7029 132.8984 L186.7029 136.3739 "/>
<path d="M185.4616 130.9124 L184.2204 134.6361 "/>
<path d="M184.2204 134.6361 L187.4476 134.6361 "/>
</g><g transform="rotate(90.000000 92.9592 134.1352)">
<text x="92.9592" y="136.7418" textLength="65.1035" font-size="6.9510" lengthAdjust="spacingAndGlyphs" text-anchor="middle" opacity="0">SM04B-GHS-TB</text>
</g>
<g class="stroked-text"><desc>SM04B-GHS-TB</desc>
<path d="M90.8363 103.2281 L90.5881 103.9729 "/>
<path d="M90.5881 103.9729 L90.5881 105.2141 "/>
<path d="M90.5881 105.2141 L90.8363 105.7106 "/>
<path d="M90.8363 105.7106 L91.0846 105.9589 "/>
<path d="M91.0846 105.9589 L91.5811 106.2071 "/>
<path d="M91.5811 106.2071 L92.0776 106.2071 "/>
<path d="M92.0776 106.2071 L92.5741 105.9589 "/>
<path d="M92.5741 105.9589 L92.8223 105.7106 "/>
<path d="M92.8223 105.7106 L93.0706 105.2141 "/>
<path d="M93.0706 105.2141 L93.3188 104.2211 "/>
<path d="M93.3188 104.2211 L93.5671 103.7246 "/>
<path d="M93.5671 103.7246 L93.8153 103.4764 "/>
<path d="M93.8153 103.4764 L94.3118 103.2281 "/>
<path d="M94.3118 103.2281 L94.8083 103.2281 "/>
<path d="M94.8083 103.2281 L95.3048 103.4764 "/>
<path d="M95.3048 103.4764 L95.5531 103.7246 "/>
<path d="M95.5531 103.7246 L95.8013 104.2211 "/>
<path d="M95.8013 104.2211 L95.8013 105.4624 "/>
<path d="M95.8013 105.4624 L95.5531 106.2071 "/>
<path d="M90.5881 108.4414 L95.8013 108.4414 "/>
<path d="M95.8013 108.4414 L92.0776 110.1791 "/>
<path d="M92.0776 110.1791 L95.8013 111.9169 "/>
<path d="M95.8013 111.9169 L90.5881 111.9169 "/>
<path d="M95.8013 115.3924 L95.8013 115.8889 "/>
<path d="M95.8013 115.8889 L95.5531 116.3854 "/>
<path d="M95.5531 116.3854 L95.3048 116.6336 "/>
<path d="M95.3048 116.6336 L94.8083 116.8819 "/>
<path d="M94.8083 116.8819 L93.8153 117.1301 "/>
<path d="M93.8153 117.1301 L92.5741 117.1301 "/>
<path d="M92.5741 117.1301 L91.5811 116.8819 "/>
<path d="M91.5811 116.8819 L91.0846 116.6336 "/>
<path d="M91.0846 116.6336 L90.8363 116.3854 "/>
<path d="M90.8363 116.3854 L90.5881 115.8889 "/>
<path d="M90.5881 115.8889 L90.5881 115.3924 "/>
<path d="M90.5881 115.3924 L90.8363 114.8959 "/>
<path d="M90.8363 114.8959 L91.0846 114.6476 "/>
<path d="M91.0846 114.6476 L91.5811 114.3994 "/>
<path d="M91.5811 114.3994 L92.5741 114.1511 "/>
<path d="M92.5741 114.1511 L93.8153 114.1511 "/>
<path d="M93.8153 114.1511 L94.8083 114.3994 "/>
<path d="M94.8083 114.3994 L95.3048 114.6476 "/>
<path d="M95.3048 114.6476 L95.5531 114.8959 "/>
<path d="M95.5531 114.8959 L95.8013 115.3924 "/>
<path d="M94.0636 121.5986 L90.5881 121.5986 "/>
<path d="M96.0496 120.3574 L92.3258 119.1161 "/>
<path d="M92.3258 119.1161 L92.3258 122.3434 "/>
<path d="M93.3188 126.0671 L93.0706 126.8119 "/>
<path d="M93.0706 126.8119 L92.8223 127.0601 "/>
<path d="M92.8223 127.0601 L92.3258 127.3084 "/>
<path d="M92.3258 127.3084 L91.5811 127.3084 "/>
<path d="M91.5811 127.3084 L91.0846 127.0601 "/>
<path d="M91.0846 127.0601 L90.8363 126.8119 "/>
<path d="M90.8363 126.8119 L90.5881 126.3154 "/>
<path d="M90.5881 126.3154 L90.5881 124.3294 "/>
<path d="M90.5881 124.3294 L95.8013 124.3294 "/>
<path d="M95.8013 124.3294 L95.8013 126.0671 "/>
<path d="M95.8013 126.0671 L95.5531 126.5636 "/>
<path d="M95.5531 126.5636 L95.3048 126.8119 "/>
<path d="M95.3048 126.8119 L94.8083 127.0601 "/>
<path d="M94.8083 127.0601 L94.3118 127.0601 "/>
<path d="M94.3118 127.0601 L93.8153 126.8119 "/>
<path d="M93.8153 126.8119 L93.5671 126.5636 "/>
<path d="M93.5671 126.5636 L93.3188 126.0671 "/>
<path d="M93.3188 126.0671 L93.3188 124.3294 "/>
<path d="M92.5741 129.5426 L92.5741 133.5146 "/>
<path d="M95.5531 138.7278 L95.8013 138.2313 "/>
<path d="M95.8013 138.2313 L95.8013 137.4866 "/>
<path d="M95.8013 137.4866 L95.5531 136.7418 "/>
<path d="M95.5531 136.7418 L95.0566 136.2453 "/>
<path d="M95.0566 136.2453 L94.5601 135.9971 "/>
<path d="M94.5601 135.9971 L93.5671 135.7488 "/>
<path d="M93.5671 135.7488 L92.8223 135.7488 "/>
<path d="M92.8223 135.7488 L91.8293 135.9971 "/>
<path d="M91.8293 135.9971 L91.3328 136.2453 "/>
<path d="M91.3328 136.2453 L90.8363 136.7418 "/>
<path d="M90.8363 136.7418 L90.5881 137.4866 "/>
<path d="M90.5881 137.4866 L90.5881 137.9831 "/>
<path d="M90.5881 137.9831 L90.8363 138.7278 "/>
<path d="M90.8363 138.7278 L91.0846 138.9761 "/>
<path d="M91.0846 138.9761 L92.8223 138.9761 "/>
<path d="M92.8223 138.9761 L92.8223 137.9831 "/>
<path d="M90.5881 141.2103 L95.8013 141.2103 "/>
<path d="M93.3188 141.2103 L93.3188 144.1893 "/>
<path d="M90.5881 144.1893 L95.8013 144.1893 "/>
<path d="M90.8363 146.4236 L90.5881 147.1683 "/>
<path d="M90.5881 147.1683 L90.5881 148.4096 "/>
<path d="M90.5881 148.4096 L90.8363 148.9061 "/>
<path d="M90.8363 148.9061 L91.0846 149.1543 "/>
<path d="M91.0846 149.1543 L91.5811 149.4026 "/>
<path d="M91.5811 149.4026 L92.0776 149.4026 "/>
<path d="M92.0776 149.4026 L92.5741 149.1543 "/>
<path d="M92.5741 149.1543 L92.8223 148.9061 "/>
<path d="M92.8223 148.9061 L93.0706 148.4096 "/>
<path d="M93.0706 148.4096 L93.3188 147.4166 "/>
<path d="M93.3188 147.4166 L93.5671 146.9201 "/>
<path d="M93.5671 146.9201 L93.8153 146.6718 "/>
<path d="M93.8153 146.6718 L94.3118 146.4236 "/>
<path d="M94.3118 146.4236 L94.8083 146.4236 "/>
<path d="M94.8083 146.4236 L95.3048 146.6718 "/>
<path d="M95.3048 146.6718 L95.5531 146.9201 "/>
<path d="M95.5531 146.9201 L95.8013 147.4166 "/>
<path d="M95.8013 147.4166 L95.8013 148.6578 "/>
<path d="M95.8013 148.6578 L95.5531 149.4026 "/>
<path d="M92.5741 151.6368 L92.5741 155.6088 "/>
<path d="M95.8013 157.3466 L95.8013 160.3256 "/>
<path d="M90.5881 158.8361 L95.8013 158.8361 "/>
<path d="M93.3188 163.8011 L93.0706 164.5458 "/>
<path d="M93.0706 164.5458 L92.8223 164.7941 "/>
<path d="M92.8223 164.7941 L92.3258 165.0423 "/>
<path d="M92.3258 165.0423 L91.5811 165.0423 "/>
<path d="M91.5811 165.0423 L91.0846 164.7941 "/>
<path d="M91.0846 164.7941 L90.8363 164.5458 "/>
<path d="M90.8363 164.5458 L90.5881 164.0493 "/>
<path d="M90.5881 164.0493 L90.5881 162.0633 "/>
<path d="M90.5881 162.0633 L95.8013 162.0633 "/>
<path d="M95.8013 162.0633 L95.8013 163.8011 "/>
<path d="M95.8013 163.8011 L95.5531 164.2976 "/>
<path d="M95.5531 164.2976 L95.3048 164.5458 "/>
<path d="M95.3048 164.5458 L94.8083 164.7941 "/>
<path d="M94.8083 164.7941 L94.3118 164.7941 "/>
<path d="M94.3118 164.7941 L93.8153 164.5458 "/>
<path d="M93.8153 164.5458 L93.5671 164.2976 "/>
<path d="M93.5671 164.2976 L93.3188 163.8011 "/>
<path d="M93.3188 163.8011 L93.3188 162.0633 "/>
</g><g transform="rotate(90.000000 113.2908 134.1352)">
<text x="113.2908" y="136.7418" textLength="10.2403" font-size="6.9510" lengthAdjust="spacingAndGlyphs" text-anchor="middle" opacity="0">J1</text>
</g>
<g class="stroked-text"><desc>J1</desc>
<path d="M116.1330 132.3975 L112.4093 132.3975 "/>
<path d="M112.4093 132.3975 L111.6645 132.1492 "/>
<path d="M111.6645 132.1492 L111.1680 131.6527 "/>
<path d="M111.1680 131.6527 L110.9198 130.9080 "/>
<path d="M110.9198 130.9080 L110.9198 130.4115 "/>
<path d="M110.9198 137.6107 L110.9198 134.6317 "/>
<path d="M110.9198 136.1212 L116.1330 136.1212 "/>
<path d="M116.1330 136.1212 L115.3883 135.6247 "/>
<path d="M115.3883 135.6247 L114.8918 135.1282 "/>
<path d="M114.8918 135.1282 L114.6435 134.6317 "/>
</g><g transform="rotate(90.000000 204.0430 134.1352)">
<text x="204.0430" y="136.7418" textLength="65.1035" font-size="6.9510" lengthAdjust="spacingAndGlyphs" text-anchor="middle" opacity="0">SM04B-GHS-TB</text>
</g>
<g class="stroked-text"><desc>SM04B-GHS-TB</desc>
<path d="M201.9202 103.2281 L201.6719 103.9729 "/>
<path d="M201.6719 103.9729 L201.6719 105.2141 "/>
<path d="M201.6719 105.2141 L201.9202 105.7106 "/>
<path d="M201.9202 105.7106 L202.1684 105.9589 "/>
<path d="M202.1684 105.9589 L202.6649 106.2071 "/>
<path d="M202.6649 106.2071 L203.1614 106.2071 "/>
<path d="M203.1614 106.2071 L203.6579 105.9589 "/>
<path d="M203.6579 105.9589 L203.9062 105.7106 "/>
<path d="M203.9062 105.7106 L204.1544 105.2141 "/>
<path d="M204.1544 105.2141 L204.4027 104.2211 "/>
<path d="M204.4027 104.2211 L204.6509 103.7246 "/>
<path d="M204.6509 103.7246 L204.8992 103.4764 "/>
<path d="M204.8992 103.4764 L205.3957 103.2281 "/>
<path d="M205.3957 103.2281 L205.8922 103.2281 "/>
<path d="M205.8922 103.2281 L206.3887 103.4764 "/>
<path d="M206.3887 103.4764 L206.6369 103.7246 "/>
<path d="M206.6369 103.7246 L206.8852 104.2211 "/>
<path d="M206.8852 104.2211 L206.8852 105.4624 "/>
<path d="M206.8852 105.4624 L206.6369 106.2071 "/>
<path d="M201.6719 108.4414 L206.8852 108.4414 "/>
<path d="M206.8852 108.4414 L203.1614 110.1791 "/>
<path d="M203.1614 110.1791 L206.8852 111.9169 "/>
<path d="M206.8852 111.9169 L201.6719 111.9169 "/>
<path d="M206.8852 115.3924 L206.8852 115.8889 "/>
<path d="M206.8852 115.8889 L206.6369 116.3854 "/>
<path d="M206.6369 116.3854 L206.3887 116.6336 "/>
<path d="M206.3887 116.6336 L205.8922 116.8819 "/>
<path d="M205.8922 116.8819 L204.8992 117.1301 "/>
<path d="M204.8992 117.1301 L203.6579 117.1301 "/>
<path d="M203.6579 117.1301 L202.6649 116.8819 "/>
<path d="M202.6649 116.8819 L202.1684 116.6336 "/>
<path d="M202.1684 116.6336 L201.9202 116.3854 "/>
<path d="M201.9202 116.3854 L201.6719 115.8889 "/>
<path d="M201.6719 115.8889 L201.6719 115.3924 "/>
<path d="M201.6719 115.3924 L201.9202 114.8959 "/>
<path d="M201.9202 114.8959 L202.1684 114.6476 "/>
<path d="M202.1684 114.6476 L202.6649 114.3994 "/>
<path d="M202.6649 114.3994 L203.6579 114.1511 "/>
<path d="M203.6579 114.1511 L204.8992 114.1511 "/>
<path d="M204.8992 114.1511 L205.8922 114.3994 "/>
<path d="M205.8922 114.3994 L206.3887 114.6476 "/>
<path d="M206.3887 114.6476 L206.6369 114.8959 "/>
<path d="M206.6369 114.8959 L206.8852 115.3924 "/>
<path d="M205.1474 121.5986 L201.6719 121.5986 "/>
<path d="M207.1334 120.3574 L203.4097 119.1161 "/>
<path d="M203.4097 119.1161 L203.4097 122.3434 "/>
<path d="M204.4027 126.0671 L204.1544 126.8119 "/>
<path d="M204.1544 126.8119 L203.9062 127.0601 "/>
<path d="M203.9062 127.0601 L203.4097 127.3084 "/>
<path d="M203.4097 127.3084 L202.6649 127.3084 "/>
<path d="M202.6649 127.3084 L202.1684 127.0601 "/>
<path d="M202.1684 127.0601 L201.9202 126.8119 "/>
<path d="M201.9202 126.8119 L201.6719 126.3154 "/>
<path d="M201.6719 126.3154 L201.6719 124.3294 "/>
<path d="M201.6719 124.3294 L206.8852 124.3294 "/>
<path d="M206.8852 124.3294 L206.8852 126.0671 "/>
<path d="M206.8852 126.0671 L206.6369 126.5636 "/>
<path d="M206.6369 126.5636 L206.3887 126.8119 "/>
<path d="M206.3887 126.8119 L205.8922 127.0601 "/>
<path d="M205.8922 127.0601 L205.3957 127.0601 "/>
<path d="M205.3957 127.0601 L204.8992 126.8119 "/>
<path d="M204.8992 126.8119 L204.6509 126.5636 "/>
<path d="M204.6509 126.5636 L204.4027 126.0671 "/>
<path d="M204.4027 126.0671 L204.4027 124.3294 "/>
<path d="M203.6579 129.5426 L203.6579 133.5146 "/>
<path d="M206.6369 138.7278 L206.8852 138.2313 "/>
<path d="M206.8852 138.2313 L206.8852 137.4866 "/>
<path d="M206.8852 137.4866 L206.6369 136.7418 "/>
<path d="M206.6369 136.7418 L206.1404 136.2453 "/>
<path d="M206.1404 136.2453 L205.6439 135.9971 "/>
<path d="M205.6439 135.9971 L204.6509 135.7488 "/>
<path d="M204.6509 135.7488 L203.9062 135.7488 "/>
<path d="M203.9062 135.7488 L202.9132 135.9971 "/>
<path d="M202.9132 135.9971 L202.4167 136.2453 "/>
<path d="M202.4167 136.2453 L201.9202 136.7418 "/>
<path d="M201.9202 136.7418 L201.6719 137.4866 "/>
<path d="M201.6719 137.4866 L201.6719 137.9831 "/>
<path d="M201.6719 137.9831 L201.9202 138.7278 "/>
<path d="M201.9202 138.7278 L202.1684 138.9761 "/>
<path d="M202.1684 138.9761 L203.9062 138.9761 "/>
<path d="M203.9062 138.9761 L203.9062 137.9831 "/>
<path d="M201.6719 141.2103 L206.8852 141.2103 "/>
<path d="M204.4027 141.2103 L204.4027 144.1893 "/>
<path d="M201.6719 144.1893 L206.8852 144.1893 "/>
<path d="M201.9202 146.4236 L201.6719 147.1683 "/>
<path d="M201.6719 147.1683 L201.6719 148.4096 "/>
<path d="M201.6719 148.4096 L201.9202 148.9061 "/>
<path d="M201.9202 148.9061 L202.1684 149.1543 "/>
<path d="M202.1684 149.1543 L202.6649 149.4026 "/>
<path d="M202.6649 149.4026 L203.1614 149.4026 "/>
<path d="M203.1614 149.4026 L203.6579 149.1543 "/>
<path d="M203.6579 149.1543 L203.9062 148.9061 "/>
<path d="M203.9062 148.9061 L204.1544 148.4096 "/>
<path d="M204.1544 148.4096 L204.4027 147.4166 "/>
<path d="M204.4027 147.4166 L204.6509 146.9201 "/>
<path d="M204.6509 146.9201 L204.8992 146.6718 "/>
<path d="M204.8992 146.6718 L205.3957 146.4236 "/>
<path d="M205.3957 146.4236 L205.8922 146.4236 "/>
<path d="M205.8922 146.4236 L206.3887 146.6718 "/>
<path d="M206.3887 146.6718 L206.6369 146.9201 "/>
<path d="M206.6369 146.9201 L206.8852 147.4166 "/>
<path d="M206.8852 147.4166 L206.8852 148.6578 "/>
<path d="M206.8852 148.6578 L206.6369 149.4026 "/>
<path d="M203.6579 151.6368 L203.6579 155.6088 "/>
<path d="M206.8852 157.3466 L206.8852 160.3256 "/>
<path d="M201.6719 158.8361 L206.8852 158.8361 "/>
<path d="M204.4027 163.8011 L204.1544 164.5458 "/>
<path d="M204.1544 164.5458 L203.9062 164.7941 "/>
<path d="M203.9062 164.7941 L203.4097 165.0423 "/>
<path d="M203.4097 165.0423 L202.6649 165.0423 "/>
<path d="M202.6649 165.0423 L202.1684 164.7941 "/>
<path d="M202.1684 164.7941 L201.9202 164.5458 "/>
<path d="M201.9202 164.5458 L201.6719 164.0493 "/>
<path d="M201.6719 164.0493 L201.6719 162.0633 "/>
<path d="M201.6719 162.0633 L206.8852 162.0633 "/>
<path d="M206.8852 162.0633 L206.8852 163.8011 "/>
<path d="M206.8852 163.8011 L206.6369 164.2976 "/>
<path d="M206.6369 164.2976 L206.3887 164.5458 "/>
<path d="M206.3887 164.5458 L205.8922 164.7941 "/>
<path d="M205.8922 164.7941 L205.3957 164.7941 "/>
<path d="M205.3957 164.7941 L204.8992 164.5458 "/>
<path d="M204.8992 164.5458 L204.6509 164.2976 "/>
<path d="M204.6509 164.2976 L204.4027 163.8011 "/>
<path d="M204.4027 163.8011 L204.4027 162.0633 "/>
</g><g transform="rotate(90.000000 183.7114 134.1352)">
<text x="183.7114" y="136.7418" textLength="10.2403" font-size="6.9510" lengthAdjust="spacingAndGlyphs" text-anchor="middle" opacity="0">J5</text>
</g>
<g class="stroked-text"><desc>J5</desc>
<path d="M186.5535 132.3975 L182.8298 132.3975 "/>
<path d="M182.8298 132.3975 L182.0850 132.1492 "/>
<path d="M182.0850 132.1492 L181.5885 131.6527 "/>
<path d="M181.5885 131.6527 L181.3403 130.9080 "/>
<path d="M181.3403 130.9080 L181.3403 130.4115 "/>
<path d="M186.5535 137.3625 L186.5535 134.8800 "/>
<path d="M186.5535 134.8800 L184.0710 134.6317 "/>
<path d="M184.0710 134.6317 L184.3193 134.8800 "/>
<path d="M184.3193 134.8800 L184.5675 135.3765 "/>
<path d="M184.5675 135.3765 L184.5675 136.6177 "/>
<path d="M184.5675 136.6177 L184.3193 137.1142 "/>
<path d="M184.3193 137.1142 L184.0710 137.3625 "/>
<path d="M184.0710 137.3625 L183.5745 137.6107 "/>
<path d="M183.5745 137.6107 L182.3333 137.6107 "/>
<path d="M182.3333 137.6107 L181.8368 137.3625 "/>
<path d="M181.8368 137.3625 L181.5885 137.1142 "/>
<path d="M181.5885 137.1142 L181.3403 136.6177 "/>
<path d="M181.3403 136.6177 L181.3403 135.3765 "/>
<path d="M181.3403 135.3765 L181.5885 134.8800 "/>
<path d="M181.5885 134.8800 L181.8368 134.6317 "/>
</g><text x="148.2363" y="212.3172" textLength="32.0863" font-size="6.9510" lengthAdjust="spacingAndGlyphs" text-anchor="middle" opacity="0">Fiducial</text>
<g class="stroked-text"><desc>Fiducial</desc>
<path d="M135.8238 209.3510 L134.0860 209.3510 "/>
<path d="M134.0860 212.0817 L134.0860 206.8685 "/>
<path d="M134.0860 206.8685 L136.5685 206.8685 "/>
<path d="M138.5545 212.0817 L138.5545 208.6062 "/>
<path d="M138.5545 206.8685 L138.3063 207.1167 "/>
<path d="M138.3063 207.1167 L138.5545 207.3650 "/>
<path d="M138.5545 207.3650 L138.8028 207.1167 "/>
<path d="M138.8028 207.1167 L138.5545 206.8685 "/>
<path d="M138.5545 206.8685 L138.5545 207.3650 "/>
<path d="M143.2713 212.0817 L143.2713 206.8685 "/>
<path d="M143.2713 211.8335 L142.7748 212.0817 "/>
<path d="M142.7748 212.0817 L141.7818 212.0817 "/>
<path d="M141.7818 212.0817 L141.2853 211.8335 "/>
<path d="M141.2853 211.8335 L141.0370 211.5852 "/>
<path d="M141.0370 211.5852 L140.7888 211.0887 "/>
<path d="M140.7888 211.0887 L140.7888 209.5992 "/>
<path d="M140.7888 209.5992 L141.0370 209.1027 "/>
<path d="M141.0370 209.1027 L141.2853 208.8545 "/>
<path d="M141.2853 208.8545 L141.7818 208.6062 "/>
<path d="M141.7818 208.6062 L142.7748 208.6062 "/>
<path d="M142.7748 208.6062 L143.2713 208.8545 "/>
<path d="M147.9880 208.6062 L147.9880 212.0817 "/>
<path d="M145.7538 208.6062 L145.7538 211.3369 "/>
<path d="M145.7538 211.3369 L146.0020 211.8335 "/>
<path d="M146.0020 211.8335 L146.4985 212.0817 "/>
<path d="M146.4985 212.0817 L147.2433 212.0817 "/>
<path d="M147.2433 212.0817 L147.7398 211.8335 "/>
<path d="M147.7398 211.8335 L147.9880 211.5852 "/>
<path d="M152.7048 211.8335 L152.2083 212.0817 "/>
<path d="M152.2083 212.0817 L151.2153 212.0817 "/>
<path d="M151.2153 212.0817 L150.7188 211.8335 "/>
<path d="M150.7188 211.8335 L150.4705 211.5852 "/>
<path d="M150.4705 211.5852 L150.2223 211.0887 "/>
<path d="M150.2223 211.0887 L150.2223 209.5992 "/>
<path d="M150.2223 209.5992 L150.4705 209.1027 "/>
<path d="M150.4705 209.1027 L150.7188 208.8545 "/>
<path d="M150.7188 208.8545 L151.2153 208.6062 "/>
<path d="M151.2153 208.6062 L152.2083 208.6062 "/>
<path d="M152.2083 208.6062 L152.7048 208.8545 "/>
<path d="M154.9390 212.0817 L154.9390 208.6062 "/>
<path d="M154.9390 206.8685 L154.6908 207.1167 "/>
<path d="M154.6908 207.1167 L154.9390 207.3650 "/>
<path d="M154.9390 207.3650 L155.1873 207.1167 "/>
<path d="M155.1873 207.1167 L154.9390 206.8685 "/>
<path d="M154.9390 206.8685 L154.9390 207.3650 "/>
<path d="M159.6558 212.0817 L159.6558 209.3510 "/>
<path d="M159.6558 209.3510 L159.4075 208.8545 "/>
<path d="M159.4075 208.8545 L158.9110 208.6062 "/>
<path d="M158.9110 208.6062 L157.9180 208.6062 "/>
<path d="M157.9180 208.6062 L157.4215 208.8545 "/>
<path d="M159.6558 211.8335 L159.1593 212.0817 "/>
<path d="M159.1593 212.0817 L157.9180 212.0817 "/>
<path d="M157.9180 212.0817 L157.4215 211.8335 "/>
<path d="M157.4215 211.8335 L157.1733 211.3369 "/>
<path d="M157.1733 211.3369 L157.1733 210.8404 "/>
<path d="M157.1733 210.8404 L157.4215 210.3439 "/>
<path d="M157.4215 210.3439 L157.9180 210.0957 "/>
<path d="M157.9180 210.0957 L159.1593 210.0957 "/>
<path d="M159.1593 210.0957 L159.6558 209.8474 "/>
<path d="M162.8830 212.0817 L162.3865 211.8335 "/>
<path d="M162.3865 211.8335 L162.1383 211.3369 "/>
<path d="M162.1383 211.3369 L162.1383 206.8685 "/>
</g></g>
<g style="fill:#000084; fill-opacity:0.0;  stroke:#000084; stroke-width:0.3128; stroke-opacity:1;  stroke-linecap:round; stroke-linejoin:round;">
<text x="148.2363" y="200.3268" textLength="7.3730" font-size="2.7804" lengthAdjust="spacingAndGlyphs" text-anchor="middle" opacity="0">FID2</text>
<g class="stroked-text"><desc>FID2</desc>
<path d="M146.0020 199.1403 L145.3069 199.1403 "/>
<path d="M145.3069 200.2326 L145.3069 198.1473 "/>
<path d="M145.3069 198.1473 L146.2999 198.1473 "/>
<path d="M147.0943 200.2326 L147.0943 198.1473 "/>
<path d="M148.0873 200.2326 L148.0873 198.1473 "/>
<path d="M148.0873 198.1473 L148.5838 198.1473 "/>
<path d="M148.5838 198.1473 L148.8817 198.2466 "/>
<path d="M148.8817 198.2466 L149.0803 198.4452 "/>
<path d="M149.0803 198.4452 L149.1796 198.6438 "/>
<path d="M149.1796 198.6438 L149.2789 199.0410 "/>
<path d="M149.2789 199.0410 L149.2789 199.3389 "/>
<path d="M149.2789 199.3389 L149.1796 199.7361 "/>
<path d="M149.1796 199.7361 L149.0803 199.9347 "/>
<path d="M149.0803 199.9347 L148.8817 200.1333 "/>
<path d="M148.8817 200.1333 L148.5838 200.2326 "/>
<path d="M148.5838 200.2326 L148.0873 200.2326 "/>
<path d="M150.0733 198.3459 L150.1726 198.2466 "/>
<path d="M150.1726 198.2466 L150.3712 198.1473 "/>
<path d="M150.3712 198.1473 L150.8677 198.1473 "/>
<path d="M150.8677 198.1473 L151.0663 198.2466 "/>
<path d="M151.0663 198.2466 L151.1656 198.3459 "/>
<path d="M151.1656 198.3459 L151.2649 198.5445 "/>
<path d="M151.2649 198.5445 L151.2649 198.7431 "/>
<path d="M151.2649 198.7431 L151.1656 199.0410 "/>
<path d="M151.1656 199.0410 L149.9740 200.2326 "/>
<path d="M149.9740 200.2326 L151.2649 200.2326 "/>
</g></g>
<g style="fill:#000084; fill-opacity:0.0;  stroke:#000084; stroke-width:0.7820; stroke-opacity:1;  stroke-linecap:round; stroke-linejoin:round;">
<text x="148.5011" y="24.5820" textLength="32.0863" font-size="6.9510" lengthAdjust="spacingAndGlyphs" text-anchor="middle" opacity="0">Fiducial</text>
<g class="stroked-text"><desc>Fiducial</desc>
<path d="M136.0886 21.6157 L134.3509 21.6157 "/>
<path d="M134.3509 24.3464 L134.3509 19.1332 "/>
<path d="M134.3509 19.1332 L136.8334 19.1332 "/>
<path d="M138.8194 24.3464 L138.8194 20.8709 "/>
<path d="M138.8194 19.1332 L138.5711 19.3814 "/>
<path d="M138.5711 19.3814 L138.8194 19.6297 "/>
<path d="M138.8194 19.6297 L139.0676 19.3814 "/>
<path d="M139.0676 19.3814 L138.8194 19.1332 "/>
<path d="M138.8194 19.1332 L138.8194 19.6297 "/>
<path d="M143.5361 24.3464 L143.5361 19.1332 "/>
<path d="M143.5361 24.0982 L143.0396 24.3464 "/>
<path d="M143.0396 24.3464 L142.0466 24.3464 "/>
<path d="M142.0466 24.3464 L141.5501 24.0982 "/>
<path d="M141.5501 24.0982 L141.3019 23.8499 "/>
<path d="M141.3019 23.8499 L141.0536 23.3534 "/>
<path d="M141.0536 23.3534 L141.0536 21.8639 "/>
<path d="M141.0536 21.8639 L141.3019 21.3674 "/>
<path d="M141.3019 21.3674 L141.5501 21.1192 "/>
<path d="M141.5501 21.1192 L142.0466 20.8709 "/>
<path d="M142.0466 20.8709 L143.0396 20.8709 "/>
<path d="M143.0396 20.8709 L143.5361 21.1192 "/>
<path d="M148.2529 20.8709 L148.2529 24.3464 "/>
<path d="M146.0186 20.8709 L146.0186 23.6017 "/>
<path d="M146.0186 23.6017 L146.2669 24.0982 "/>
<path d="M146.2669 24.0982 L146.7634 24.3464 "/>
<path d="M146.7634 24.3464 L147.5081 24.3464 "/>
<path d="M147.5081 24.3464 L148.0046 24.0982 "/>
<path d="M148.0046 24.0982 L148.2529 23.8499 "/>
<path d="M152.9696 24.0982 L152.4731 24.3464 "/>
<path d="M152.4731 24.3464 L151.4801 24.3464 "/>
<path d="M151.4801 24.3464 L150.9836 24.0982 "/>
<path d="M150.9836 24.0982 L150.7354 23.8499 "/>
<path d="M150.7354 23.8499 L150.4871 23.3534 "/>
<path d="M150.4871 23.3534 L150.4871 21.8639 "/>
<path d="M150.4871 21.8639 L150.7354 21.3674 "/>
<path d="M150.7354 21.3674 L150.9836 21.1192 "/>
<path d="M150.9836 21.1192 L151.4801 20.8709 "/>
<path d="M151.4801 20.8709 L152.4731 20.8709 "/>
<path d="M152.4731 20.8709 L152.9696 21.1192 "/>
<path d="M155.2039 24.3464 L155.2039 20.8709 "/>
<path d="M155.2039 19.1332 L154.9556 19.3814 "/>
<path d="M154.9556 19.3814 L155.2039 19.6297 "/>
<path d="M155.2039 19.6297 L155.4521 19.3814 "/>
<path d="M155.4521 19.3814 L155.2039 19.1332 "/>
<path d="M155.2039 19.1332 L155.2039 19.6297 "/>
<path d="M159.9206 24.3464 L159.9206 21.6157 "/>
<path d="M159.9206 21.6157 L159.6723 21.1192 "/>
<path d="M159.6723 21.1192 L159.1758 20.8709 "/>
<path d="M159.1758 20.8709 L158.1828 20.8709 "/>
<path d="M158.1828 20.8709 L157.6863 21.1192 "/>
<path d="M159.9206 24.0982 L159.4241 24.3464 "/>
<path d="M159.4241 24.3464 L158.1828 24.3464 "/>
<path d="M158.1828 24.3464 L157.6863 24.0982 "/>
<path d="M157.6863 24.0982 L157.4381 23.6017 "/>
<path d="M157.4381 23.6017 L157.4381 23.1052 "/>
<path d="M157.4381 23.1052 L157.6863 22.6087 "/>
<path d="M157.6863 22.6087 L158.1828 22.3604 "/>
<path d="M158.1828 22.3604 L159.4241 22.3604 "/>
<path d="M159.4241 22.3604 L159.9206 22.1122 "/>
<path d="M163.1478 24.3464 L162.6513 24.0982 "/>
<path d="M162.6513 24.0982 L162.4031 23.6017 "/>
<path d="M162.4031 23.6017 L162.4031 19.1332 "/>
</g></g>
<g style="fill:#000084; fill-opacity:0.0;  stroke:#000084; stroke-width:0.3128; stroke-opacity:1;  stroke-linecap:round; stroke-linejoin:round;">
<text x="148.5011" y="12.5915" textLength="7.3730" font-size="2.7804" lengthAdjust="spacingAndGlyphs" text-anchor="middle" opacity="0">FID1</text>
<g class="stroked-text"><desc>FID1</desc>
<path d="M146.2669 11.4050 L145.5718 11.4050 "/>
<path d="M145.5718 12.4973 L145.5718 10.4120 "/>
<path d="M145.5718 10.4120 L146.5648 10.4120 "/>
<path d="M147.3592 12.4973 L147.3592 10.4120 "/>
<path d="M148.3522 12.4973 L148.3522 10.4120 "/>
<path d="M148.3522 10.4120 L148.8487 10.4120 "/>
<path d="M148.8487 10.4120 L149.1466 10.5113 "/>
<path d="M149.1466 10.5113 L149.3452 10.7099 "/>
<path d="M149.3452 10.7099 L149.4445 10.9085 "/>
<path d="M149.4445 10.9085 L149.5438 11.3057 "/>
<path d="M149.5438 11.3057 L149.5438 11.6036 "/>
<path d="M149.5438 11.6036 L149.4445 12.0008 "/>
<path d="M149.4445 12.0008 L149.3452 12.1994 "/>
<path d="M149.3452 12.1994 L149.1466 12.3980 "/>
<path d="M149.1466 12.3980 L148.8487 12.4973 "/>
<path d="M148.8487 12.4973 L148.3522 12.4973 "/>
<path d="M151.5298 12.4973 L150.3382 12.4973 "/>
<path d="M150.9340 12.4973 L150.9340 10.4120 "/>
<path d="M150.9340 10.4120 L150.7354 10.7099 "/>
<path d="M150.7354 10.7099 L150.5368 10.9085 "/>
<path d="M150.5368 10.9085 L150.3382 11.0078 "/>
</g></g>
<g style="fill:#000084; fill-opacity:0.0;  stroke:#000084; stroke-width:0.7820; stroke-opacity:1;  stroke-linecap:round; stroke-linejoin:round;">
<g transform="rotate(90.000000 92.9592 75.6071)">
<text x="92.9592" y="78.2138" textLength="65.1035" font-size="6.9510" lengthAdjust="spacingAndGlyphs" text-anchor="middle" opacity="0">SM04B-GHS-TB</text>
</g>
<g class="stroked-text"><desc>SM04B-GHS-TB</desc>
<path d="M90.8363 44.7000 L90.5881 45.4448 "/>
<path d="M90.5881 45.4448 L90.5881 46.6860 "/>
<path d="M90.5881 46.6860 L90.8363 47.1825 "/>
<path d="M90.8363 47.1825 L91.0846 47.4308 "/>
<path d="M91.0846 47.4308 L91.5811 47.6790 "/>
<path d="M91.5811 47.6790 L92.0776 47.6790 "/>
<path d="M92.0776 47.6790 L92.5741 47.4308 "/>
<path d="M92.5741 47.4308 L92.8223 47.1825 "/>
<path d="M92.8223 47.1825 L93.0706 46.6860 "/>
<path d="M93.0706 46.6860 L93.3188 45.6930 "/>
<path d="M93.3188 45.6930 L93.5671 45.1965 "/>
<path d="M93.5671 45.1965 L93.8153 44.9483 "/>
<path d="M93.8153 44.9483 L94.3118 44.7000 "/>
<path d="M94.3118 44.7000 L94.8083 44.7000 "/>
<path d="M94.8083 44.7000 L95.3048 44.9483 "/>
<path d="M95.3048 44.9483 L95.5531 45.1965 "/>
<path d="M95.5531 45.1965 L95.8013 45.6930 "/>
<path d="M95.8013 45.6930 L95.8013 46.9343 "/>
<path d="M95.8013 46.9343 L95.5531 47.6790 "/>
<path d="M90.5881 49.9133 L95.8013 49.9133 "/>
<path d="M95.8013 49.9133 L92.0776 51.6510 "/>
<path d="M92.0776 51.6510 L95.8013 53.3888 "/>
<path d="M95.8013 53.3888 L90.5881 53.3888 "/>
<path d="M95.8013 56.8643 L95.8013 57.3608 "/>
<path d="M95.8013 57.3608 L95.5531 57.8573 "/>
<path d="M95.5531 57.8573 L95.3048 58.1055 "/>
<path d="M95.3048 58.1055 L94.8083 58.3538 "/>
<path d="M94.8083 58.3538 L93.8153 58.6020 "/>
<path d="M93.8153 58.6020 L92.5741 58.6020 "/>
<path d="M92.5741 58.6020 L91.5811 58.3538 "/>
<path d="M91.5811 58.3538 L91.0846 58.1055 "/>
<path d="M91.0846 58.1055 L90.8363 57.8573 "/>
<path d="M90.8363 57.8573 L90.5881 57.3608 "/>
<path d="M90.5881 57.3608 L90.5881 56.8643 "/>
<path d="M90.5881 56.8643 L90.8363 56.3678 "/>
<path d="M90.8363 56.3678 L91.0846 56.1195 "/>
<path d="M91.0846 56.1195 L91.5811 55.8713 "/>
<path d="M91.5811 55.8713 L92.5741 55.6230 "/>
<path d="M92.5741 55.6230 L93.8153 55.6230 "/>
<path d="M93.8153 55.6230 L94.8083 55.8713 "/>
<path d="M94.8083 55.8713 L95.3048 56.1195 "/>
<path d="M95.3048 56.1195 L95.5531 56.3678 "/>
<path d="M95.5531 56.3678 L95.8013 56.8643 "/>
<path d="M94.0636 63.0705 L90.5881 63.0705 "/>
<path d="M96.0496 61.8293 L92.3258 60.5880 "/>
<path d="M92.3258 60.5880 L92.3258 63.8153 "/>
<path d="M93.3188 67.5390 L93.0706 68.2838 "/>
<path d="M93.0706 68.2838 L92.8223 68.5320 "/>
<path d="M92.8223 68.5320 L92.3258 68.7803 "/>
<path d="M92.3258 68.7803 L91.5811 68.7803 "/>
<path d="M91.5811 68.7803 L91.0846 68.5320 "/>
<path d="M91.0846 68.5320 L90.8363 68.2838 "/>
<path d="M90.8363 68.2838 L90.5881 67.7873 "/>
<path d="M90.5881 67.7873 L90.5881 65.8013 "/>
<path d="M90.5881 65.8013 L95.8013 65.8013 "/>
<path d="M95.8013 65.8013 L95.8013 67.5390 "/>
<path d="M95.8013 67.5390 L95.5531 68.0355 "/>
<path d="M95.5531 68.0355 L95.3048 68.2838 "/>
<path d="M95.3048 68.2838 L94.8083 68.5320 "/>
<path d="M94.8083 68.5320 L94.3118 68.5320 "/>
<path d="M94.3118 68.5320 L93.8153 68.2838 "/>
<path d="M93.8153 68.2838 L93.5671 68.0355 "/>
<path d="M93.5671 68.0355 L93.3188 67.5390 "/>
<path d="M93.3188 67.5390 L93.3188 65.8013 "/>
<path d="M92.5741 71.0145 L92.5741 74.9865 "/>
<path d="M95.5531 80.1998 L95.8013 79.7033 "/>
<path d="M95.8013 79.7033 L95.8013 78.9585 "/>
<path d="M95.8013 78.9585 L95.5531 78.2138 "/>
<path d="M95.5531 78.2138 L95.0566 77.7173 "/>
<path d="M95.0566 77.7173 L94.5601 77.4690 "/>
<path d="M94.5601 77.4690 L93.5671 77.2208 "/>
<path d="M93.5671 77.2208 L92.8223 77.2208 "/>
<path d="M92.8223 77.2208 L91.8293 77.4690 "/>
<path d="M91.8293 77.4690 L91.3328 77.7173 "/>
<path d="M91.3328 77.7173 L90.8363 78.2138 "/>
<path d="M90.8363 78.2138 L90.5881 78.9585 "/>
<path d="M90.5881 78.9585 L90.5881 79.4550 "/>
<path d="M90.5881 79.4550 L90.8363 80.1998 "/>
<path d="M90.8363 80.1998 L91.0846 80.4480 "/>
<path d="M91.0846 80.4480 L92.8223 80.4480 "/>
<path d="M92.8223 80.4480 L92.8223 79.4550 "/>
<path d="M90.5881 82.6823 L95.8013 82.6823 "/>
<path d="M93.3188 82.6823 L93.3188 85.6613 "/>
<path d="M90.5881 85.6613 L95.8013 85.6613 "/>
<path d="M90.8363 87.8955 L90.5881 88.6403 "/>
<path d="M90.5881 88.6403 L90.5881 89.8815 "/>
<path d="M90.5881 89.8815 L90.8363 90.3780 "/>
<path d="M90.8363 90.3780 L91.0846 90.6263 "/>
<path d="M91.0846 90.6263 L91.5811 90.8745 "/>
<path d="M91.5811 90.8745 L92.0776 90.8745 "/>
<path d="M92.0776 90.8745 L92.5741 90.6263 "/>
<path d="M92.5741 90.6263 L92.8223 90.3780 "/>
<path d="M92.8223 90.3780 L93.0706 89.8815 "/>
<path d="M93.0706 89.8815 L93.3188 88.8885 "/>
<path d="M93.3188 88.8885 L93.5671 88.3920 "/>
<path d="M93.5671 88.3920 L93.8153 88.1438 "/>
<path d="M93.8153 88.1438 L94.3118 87.8955 "/>
<path d="M94.3118 87.8955 L94.8083 87.8955 "/>
<path d="M94.8083 87.8955 L95.3048 88.1438 "/>
<path d="M95.3048 88.1438 L95.5531 88.3920 "/>
<path d="M95.5531 88.3920 L95.8013 88.8885 "/>
<path d="M95.8013 88.8885 L95.8013 90.1298 "/>
<path d="M95.8013 90.1298 L95.5531 90.8745 "/>
<path d="M92.5741 93.1088 L92.5741 97.0808 "/>
<path d="M95.8013 98.8185 L95.8013 101.7975 "/>
<path d="M90.5881 100.3080 L95.8013 100.3080 "/>
<path d="M93.3188 105.2730 L93.0706 106.0178 "/>
<path d="M93.0706 106.0178 L92.8223 106.2660 "/>
<path d="M92.8223 106.2660 L92.3258 106.5143 "/>
<path d="M92.3258 106.5143 L91.5811 106.5143 "/>
<path d="M91.5811 106.5143 L91.0846 106.2660 "/>
<path d="M91.0846 106.2660 L90.8363 106.0178 "/>
<path d="M90.8363 106.0178 L90.5881 105.5213 "/>
<path d="M90.5881 105.5213 L90.5881 103.5353 "/>
<path d="M90.5881 103.5353 L95.8013 103.5353 "/>
<path d="M95.8013 103.5353 L95.8013 105.2730 "/>
<path d="M95.8013 105.2730 L95.5531 105.7695 "/>
<path d="M95.5531 105.7695 L95.3048 106.0178 "/>
<path d="M95.3048 106.0178 L94.8083 106.2660 "/>
<path d="M94.8083 106.2660 L94.3118 106.2660 "/>
<path d="M94.3118 106.2660 L93.8153 106.0178 "/>
<path d="M93.8153 106.0178 L93.5671 105.7695 "/>
<path d="M93.5671 105.7695 L93.3188 105.2730 "/>
<path d="M93.3188 105.2730 L93.3188 103.5353 "/>
</g><g transform="rotate(90.000000 113.2908 75.6071)">
<text x="113.2908" y="78.2138" textLength="10.2403" font-size="6.9510" lengthAdjust="spacingAndGlyphs" text-anchor="middle" opacity="0">J2</text>
</g>
<g class="stroked-text"><desc>J2</desc>
<path d="M116.1330 73.8694 L112.4093 73.8694 "/>
<path d="M112.4093 73.8694 L111.6645 73.6211 "/>
<path d="M111.6645 73.6211 L111.1680 73.1246 "/>
<path d="M111.1680 73.1246 L110.9198 72.3799 "/>
<path d="M110.9198 72.3799 L110.9198 71.8834 "/>
<path d="M115.6365 76.1036 L115.8848 76.3519 "/>
<path d="M115.8848 76.3519 L116.1330 76.8484 "/>
<path d="M116.1330 76.8484 L116.1330 78.0896 "/>
<path d="M116.1330 78.0896 L115.8848 78.5861 "/>
<path d="M115.8848 78.5861 L115.6365 78.8344 "/>
<path d="M115.6365 78.8344 L115.1400 79.0826 "/>
<path d="M115.1400 79.0826 L114.6435 79.0826 "/>
<path d="M114.6435 79.0826 L113.8988 78.8344 "/>
<path d="M113.8988 78.8344 L110.9198 75.8554 "/>
<path d="M110.9198 75.8554 L110.9198 79.0826 "/>
</g><g transform="rotate(90.000000 204.0430 75.6071)">
<text x="204.0430" y="78.2138" textLength="65.1035" font-size="6.9510" lengthAdjust="spacingAndGlyphs" text-anchor="middle" opacity="0">SM04B-GHS-TB</text>
</g>
<g class="stroked-text"><desc>SM04B-GHS-TB</desc>
<path d="M201.9202 44.7000 L201.6719 45.4448 "/>
<path d="M201.6719 45.4448 L201.6719 46.6860 "/>
<path d="M201.6719 46.6860 L201.9202 47.1825 "/>
<path d="M201.9202 47.1825 L202.1684 47.4308 "/>
<path d="M202.1684 47.4308 L202.6649 47.6790 "/>
<path d="M202.6649 47.6790 L203.1614 47.6790 "/>
<path d="M203.1614 47.6790 L203.6579 47.4308 "/>
<path d="M203.6579 47.4308 L203.9062 47.1825 "/>
<path d="M203.9062 47.1825 L204.1544 46.6860 "/>
<path d="M204.1544 46.6860 L204.4027 45.6930 "/>
<path d="M204.4027 45.6930 L204.6509 45.1965 "/>
<path d="M204.6509 45.1965 L204.8992 44.9483 "/>
<path d="M204.8992 44.9483 L205.3957 44.7000 "/>
<path d="M205.3957 44.7000 L205.8922 44.7000 "/>
<path d="M205.8922 44.7000 L206.3887 44.9483 "/>
<path d="M206.3887 44.9483 L206.6369 45.1965 "/>
<path d="M206.6369 45.1965 L206.8852 45.6930 "/>
<path d="M206.8852 45.6930 L206.8852 46.9343 "/>
<path d="M206.8852 46.9343 L206.6369 47.6790 "/>
<path d="M201.6719 49.9133 L206.8852 49.9133 "/>
<path d="M206.8852 49.9133 L203.1614 51.6510 "/>
<path d="M203.1614 51.6510 L206.8852 53.3888 "/>
<path d="M206.8852 53.3888 L201.6719 53.3888 "/>
<path d="M206.8852 56.8643 L206.8852 57.3608 "/>
<path d="M206.8852 57.3608 L206.6369 57.8573 "/>
<path d="M206.6369 57.8573 L206.3887 58.1055 "/>
<path d="M206.3887 58.1055 L205.8922 58.3538 "/>
<path d="M205.8922 58.3538 L204.8992 58.6020 "/>
<path d="M204.8992 58.6020 L203.6579 58.6020 "/>
<path d="M203.6579 58.6020 L202.6649 58.3538 "/>
<path d="M202.6649 58.3538 L202.1684 58.1055 "/>
<path d="M202.1684 58.1055 L201.9202 57.8573 "/>
<path d="M201.9202 57.8573 L201.6719 57.3608 "/>
<path d="M201.6719 57.3608 L201.6719 56.8643 "/>
<path d="M201.6719 56.8643 L201.9202 56.3678 "/>
<path d="M201.9202 56.3678 L202.1684 56.1195 "/>
<path d="M202.1684 56.1195 L202.6649 55.8713 "/>
<path d="M202.6649 55.8713 L203.6579 55.6230 "/>
<path d="M203.6579 55.6230 L204.8992 55.6230 "/>
<path d="M204.8992 55.6230 L205.8922 55.8713 "/>
<path d="M205.8922 55.8713 L206.3887 56.1195 "/>
<path d="M206.3887 56.1195 L206.6369 56.3678 "/>
<path d="M206.6369 56.3678 L206.8852 56.8643 "/>
<path d="M205.1474 63.0705 L201.6719 63.0705 "/>
<path d="M207.1334 61.8293 L203.4097 60.5880 "/>
<path d="M203.4097 60.5880 L203.4097 63.8153 "/>
<path d="M204.4027 67.5390 L204.1544 68.2838 "/>
<path d="M204.1544 68.2838 L203.9062 68.5320 "/>
<path d="M203.9062 68.5320 L203.4097 68.7803 "/>
<path d="M203.4097 68.7803 L202.6649 68.7803 "/>
<path d="M202.6649 68.7803 L202.1684 68.5320 "/>
<path d="M202.1684 68.5320 L201.9202 68.2838 "/>
<path d="M201.9202 68.2838 L201.6719 67.7873 "/>
<path d="M201.6719 67.7873 L201.6719 65.8013 "/>
<path d="M201.6719 65.8013 L206.8852 65.8013 "/>
<path d="M206.8852 65.8013 L206.8852 67.5390 "/>
<path d="M206.8852 67.5390 L206.6369 68.0355 "/>
<path d="M206.6369 68.0355 L206.3887 68.2838 "/>
<path d="M206.3887 68.2838 L205.8922 68.5320 "/>
<path d="M205.8922 68.5320 L205.3957 68.5320 "/>
<path d="M205.3957 68.5320 L204.8992 68.2838 "/>
<path d="M204.8992 68.2838 L204.6509 68.0355 "/>
<path d="M204.6509 68.0355 L204.4027 67.5390 "/>
<path d="M204.4027 67.5390 L204.4027 65.8013 "/>
<path d="M203.6579 71.0145 L203.6579 74.9865 "/>
<path d="M206.6369 80.1998 L206.8852 79.7033 "/>
<path d="M206.8852 79.7033 L206.8852 78.9585 "/>
<path d="M206.8852 78.9585 L206.6369 78.2138 "/>
<path d="M206.6369 78.2138 L206.1404 77.7173 "/>
<path d="M206.1404 77.7173 L205.6439 77.4690 "/>
<path d="M205.6439 77.4690 L204.6509 77.2208 "/>
<path d="M204.6509 77.2208 L203.9062 77.2208 "/>
<path d="M203.9062 77.2208 L202.9132 77.4690 "/>
<path d="M202.9132 77.4690 L202.4167 77.7173 "/>
<path d="M202.4167 77.7173 L201.9202 78.2138 "/>
<path d="M201.9202 78.2138 L201.6719 78.9585 "/>
<path d="M201.6719 78.9585 L201.6719 79.4550 "/>
<path d="M201.6719 79.4550 L201.9202 80.1998 "/>
<path d="M201.9202 80.1998 L202.1684 80.4480 "/>
<path d="M202.1684 80.4480 L203.9062 80.4480 "/>
<path d="M203.9062 80.4480 L203.9062 79.4550 "/>
<path d="M201.6719 82.6823 L206.8852 82.6823 "/>
<path d="M204.4027 82.6823 L204.4027 85.6613 "/>
<path d="M201.6719 85.6613 L206.8852 85.6613 "/>
<path d="M201.9202 87.8955 L201.6719 88.6403 "/>
<path d="M201.6719 88.6403 L201.6719 89.8815 "/>
<path d="M201.6719 89.8815 L201.9202 90.3780 "/>
<path d="M201.9202 90.3780 L202.1684 90.6263 "/>
<path d="M202.1684 90.6263 L202.6649 90.8745 "/>
<path d="M202.6649 90.8745 L203.1614 90.8745 "/>
<path d="M203.1614 90.8745 L203.6579 90.6263 "/>
<path d="M203.6579 90.6263 L203.9062 90.3780 "/>
<path d="M203.9062 90.3780 L204.1544 89.8815 "/>
<path d="M204.1544 89.8815 L204.4027 88.8885 "/>
<path d="M204.4027 88.8885 L204.6509 88.3920 "/>
<path d="M204.6509 88.3920 L204.8992 88.1438 "/>
<path d="M204.8992 88.1438 L205.3957 87.8955 "/>
<path d="M205.3957 87.8955 L205.8922 87.8955 "/>
<path d="M205.8922 87.8955 L206.3887 88.1438 "/>
<path d="M206.3887 88.1438 L206.6369 88.3920 "/>
<path d="M206.6369 88.3920 L206.8852 88.8885 "/>
<path d="M206.8852 88.8885 L206.8852 90.1298 "/>
<path d="M206.8852 90.1298 L206.6369 90.8745 "/>
<path d="M203.6579 93.1088 L203.6579 97.0808 "/>
<path d="M206.8852 98.8185 L206.8852 101.7975 "/>
<path d="M201.6719 100.3080 L206.8852 100.3080 "/>
<path d="M204.4027 105.2730 L204.1544 106.0178 "/>
<path d="M204.1544 106.0178 L203.9062 106.2660 "/>
<path d="M203.9062 106.2660 L203.4097 106.5143 "/>
<path d="M203.4097 106.5143 L202.6649 106.5143 "/>
<path d="M202.6649 106.5143 L202.1684 106.2660 "/>
<path d="M202.1684 106.2660 L201.9202 106.0178 "/>
<path d="M201.9202 106.0178 L201.6719 105.5213 "/>
<path d="M201.6719 105.5213 L201.6719 103.5353 "/>
<path d="M201.6719 103.5353 L206.8852 103.5353 "/>
<path d="M206.8852 103.5353 L206.8852 105.2730 "/>
<path d="M206.8852 105.2730 L206.6369 105.7695 "/>
<path d="M206.6369 105.7695 L206.3887 106.0178 "/>
<path d="M206.3887 106.0178 L205.8922 106.2660 "/>
<path d="M205.8922 106.2660 L205.3957 106.2660 "/>
<path d="M205.3957 106.2660 L204.8992 106.0178 "/>
<path d="M204.8992 106.0178 L204.6509 105.7695 "/>
<path d="M204.6509 105.7695 L204.4027 105.2730 "/>
<path d="M204.4027 105.2730 L204.4027 103.5353 "/>
</g><g transform="rotate(90.000000 180.1361 75.6071)">
<text x="180.1361" y="78.2138" textLength="10.2403" font-size="6.9510" lengthAdjust="spacingAndGlyphs" text-anchor="middle" opacity="0">J4</text>
</g>
<g class="stroked-text"><desc>J4</desc>
<path d="M182.9783 73.8694 L179.2545 73.8694 "/>
<path d="M179.2545 73.8694 L178.5098 73.6211 "/>
<path d="M178.5098 73.6211 L178.0133 73.1246 "/>
<path d="M178.0133 73.1246 L177.7650 72.3799 "/>
<path d="M177.7650 72.3799 L177.7650 71.8834 "/>
<path d="M181.2405 78.5861 L177.7650 78.5861 "/>
<path d="M183.2265 77.3449 L179.5028 76.1036 "/>
<path d="M179.5028 76.1036 L179.5028 79.3309 "/>
</g></g>
<g style="fill:#000084; fill-opacity:0.0;  stroke:#000084; stroke-width:0.5213; stroke-opacity:1;  stroke-linecap:round; stroke-linejoin:round;">
<path d="M100.5184 112.6306 L100.5184 155.6399 "/>
<path d="M121.6320 112.6306 L100.5184 112.6306 "/>
<path d="M121.6320 112.6306 L121.6320 155.6399 "/>
<path d="M121.6320 121.7538 L117.9457 124.3604 "/>
<path d="M117.9457 124.3604 L121.6320 126.9670 "/>
<path d="M121.6320 155.6399 L100.5184 155.6399 "/>
<path d="M196.4838 155.6399 L196.4838 112.6306 "/>
<path d="M175.3702 155.6399 L196.4838 155.6399 "/>
<path d="M175.3702 155.6399 L175.3702 112.6306 "/>
<path d="M175.3702 146.5167 L179.0565 143.9101 "/>
<path d="M179.0565 143.9101 L175.3702 141.3034 "/>
<path d="M175.3702 112.6306 L196.4838 112.6306 "/>
<circle cx="148.2363" cy="199.2841" r="5.2132"/> 
<circle cx="148.5011" cy="11.5489" r="5.2132"/> 
<path d="M100.5184 54.1025 L100.5184 97.1118 "/>
<path d="M121.6320 54.1025 L100.5184 54.1025 "/>
<path d="M121.6320 54.1025 L121.6320 97.1118 "/>
<path d="M121.6320 63.2257 L117.9457 65.8323 "/>
<path d="M117.9457 65.8323 L121.6320 68.4389 "/>
<path d="M121.6320 97.1118 L100.5184 97.1118 "/>
<path d="M196.4838 97.1118 L196.4838 54.1025 "/>
<path d="M175.3702 97.1118 L196.4838 97.1118 "/>
<path d="M175.3702 97.1118 L175.3702 54.1025 "/>
<path d="M175.3702 87.9886 L179.0565 85.3820 "/>
<path d="M179.0565 85.3820 L175.3702 82.7754 "/>
<path d="M175.3702 54.1025 L196.4838 54.1025 "/>
<g>
</g>
<g>
</g>
<g>
</g>
<g>
</g>
<g>
</g>
<g>
</g>
<g>
</g>
<g>
</g>
<g>
</g>
<g>
</g>
<g>
</g>
<g>
</g>
<g>
</g>
<g>
</g>
</g> 
<svg:g><svg:g><svg:title>SVG Image created as GH4PIN01-Edge_Cuts.svg date 2024/06/06 13:44:42 </svg:title>
  <svg:desc>Image generated by PCBNEW </svg:desc>
<svg:g style="fill:#C2C200; fill-opacity:1.0000;stroke:#C2C200; stroke-opacity:1.0000; stroke-linecap:round; stroke-linejoin:round;" transform="translate(0 0) scale(1 1)">
</svg:g>
<svg:g style="fill:#C2C200; fill-opacity:0.0;  stroke:#C2C200; stroke-width:0.0000; stroke-opacity:1;  stroke-linecap:round; stroke-linejoin:round;">
</svg:g>
<svg:g style="fill:#C2C200; fill-opacity:0.0;  stroke:#C2C200; stroke-width:0.7820; stroke-opacity:1;  stroke-linecap:round; stroke-linejoin:round;">
<svg:path style="fill:#C2C200; fill-opacity:0.0;  stroke:#C2C200; stroke-width:0.7820; stroke-opacity:1;  stroke-linecap:round; stroke-linejoin:round;fill:none" d="M 200.1435,0.3946 96.8587,0.3946 96.8587,209.6126 200.1435,209.6126 Z"/> 
<svg:g>
</svg:g>
<svg:g>
</svg:g>
<svg:g>
</svg:g>
<svg:g>
</svg:g>
<svg:g>
</svg:g>
<svg:g>
</svg:g>
<svg:g>
</svg:g>
<svg:g>
</svg:g>
<svg:g>
</svg:g>
<svg:g>
</svg:g>
<svg:g>
</svg:g>
<svg:g>
</svg:g>
<svg:g>
</svg:g>
<svg:g>
</svg:g>
</svg:g> 
</svg:g></svg:g></svg>
