<?xml version='1.0' encoding='ASCII' standalone='yes'?>
<svg xmlns:svg="http://www.w3.org/2000/svg" xmlns="http://www.w3.org/2000/svg" xmlns:xlink="http://www.w3.org/1999/xlink" version="1.1" width="297.0022mm" height="210.0072mm" viewBox="0.0000 0.0000 297.0022 210.0072">
<title>SVG Image created as GH4PIN01-B_Fab.svg date 2023/07/20 11:13:56 </title>
  <desc>Image generated by PCBNEW </desc>
<g style="fill:#000084; fill-opacity:1.0000;stroke:#000084; stroke-opacity:1.0000; stroke-linecap:round; stroke-linejoin:round;" transform="translate(0 0) scale(1 1)">
</g>
<g style="fill:#000084; fill-opacity:0.0;  stroke:#000084; stroke-width:0.0000; stroke-opacity:1;  stroke-linecap:round; stroke-linejoin:round;">
</g>
<g style="fill:#000084; fill-opacity:0.0;  stroke:#000084; stroke-width:0.7847; stroke-opacity:1;  stroke-linecap:round; stroke-linejoin:round;">
<g transform="rotate(-90.000000 133.4147 144.8644)">
<text x="133.4147" y="147.4799" transform="scale(-1 1) translate(-266.829352 0)" textLength="64.9339" font-size="6.9748" lengthAdjust="spacingAndGlyphs" text-anchor="middle" opacity="0.01" style="font-family:monospace">SM04B-GHS-TB</text>
</g>
<g class="stroked-text"><desc>SM04B-GHS-TB</desc>
<path d="M131.2846 113.8516 L131.0355 114.5989 "/>
<path d="M131.0355 114.5989 L131.0355 115.8444 "/>
<path d="M131.0355 115.8444 L131.2846 116.3426 "/>
<path d="M131.2846 116.3426 L131.5337 116.5917 "/>
<path d="M131.5337 116.5917 L132.0319 116.8408 "/>
<path d="M132.0319 116.8408 L132.5301 116.8408 "/>
<path d="M132.5301 116.8408 L133.0283 116.5917 "/>
<path d="M133.0283 116.5917 L133.2774 116.3426 "/>
<path d="M133.2774 116.3426 L133.5265 115.8444 "/>
<path d="M133.5265 115.8444 L133.7756 114.8480 "/>
<path d="M133.7756 114.8480 L134.0247 114.3498 "/>
<path d="M134.0247 114.3498 L134.2738 114.1007 "/>
<path d="M134.2738 114.1007 L134.7720 113.8516 "/>
<path d="M134.7720 113.8516 L135.2702 113.8516 "/>
<path d="M135.2702 113.8516 L135.7684 114.1007 "/>
<path d="M135.7684 114.1007 L136.0175 114.3498 "/>
<path d="M136.0175 114.3498 L136.2666 114.8480 "/>
<path d="M136.2666 114.8480 L136.2666 116.0935 "/>
<path d="M136.2666 116.0935 L136.0175 116.8408 "/>
<path d="M131.0355 119.0827 L136.2666 119.0827 "/>
<path d="M136.2666 119.0827 L132.5301 120.8264 "/>
<path d="M132.5301 120.8264 L136.2666 122.5701 "/>
<path d="M136.2666 122.5701 L131.0355 122.5701 "/>
<path d="M136.2666 126.0574 L136.2666 126.5556 "/>
<path d="M136.2666 126.5556 L136.0175 127.0538 "/>
<path d="M136.0175 127.0538 L135.7684 127.3029 "/>
<path d="M135.7684 127.3029 L135.2702 127.5520 "/>
<path d="M135.2702 127.5520 L134.2738 127.8011 "/>
<path d="M134.2738 127.8011 L133.0283 127.8011 "/>
<path d="M133.0283 127.8011 L132.0319 127.5520 "/>
<path d="M132.0319 127.5520 L131.5337 127.3029 "/>
<path d="M131.5337 127.3029 L131.2846 127.0538 "/>
<path d="M131.2846 127.0538 L131.0355 126.5556 "/>
<path d="M131.0355 126.5556 L131.0355 126.0574 "/>
<path d="M131.0355 126.0574 L131.2846 125.5592 "/>
<path d="M131.2846 125.5592 L131.5337 125.3101 "/>
<path d="M131.5337 125.3101 L132.0319 125.0610 "/>
<path d="M132.0319 125.0610 L133.0283 124.8119 "/>
<path d="M133.0283 124.8119 L134.2738 124.8119 "/>
<path d="M134.2738 124.8119 L135.2702 125.0610 "/>
<path d="M135.2702 125.0610 L135.7684 125.3101 "/>
<path d="M135.7684 125.3101 L136.0175 125.5592 "/>
<path d="M136.0175 125.5592 L136.2666 126.0574 "/>
<path d="M134.5229 132.2849 L131.0355 132.2849 "/>
<path d="M136.5157 131.0394 L132.7792 129.7939 "/>
<path d="M132.7792 129.7939 L132.7792 133.0322 "/>
<path d="M133.7756 136.7687 L133.5265 137.5160 "/>
<path d="M133.5265 137.5160 L133.2774 137.7651 "/>
<path d="M133.2774 137.7651 L132.7792 138.0142 "/>
<path d="M132.7792 138.0142 L132.0319 138.0142 "/>
<path d="M132.0319 138.0142 L131.5337 137.7651 "/>
<path d="M131.5337 137.7651 L131.2846 137.5160 "/>
<path d="M131.2846 137.5160 L131.0355 137.0178 "/>
<path d="M131.0355 137.0178 L131.0355 135.0250 "/>
<path d="M131.0355 135.0250 L136.2666 135.0250 "/>
<path d="M136.2666 135.0250 L136.2666 136.7687 "/>
<path d="M136.2666 136.7687 L136.0175 137.2669 "/>
<path d="M136.0175 137.2669 L135.7684 137.5160 "/>
<path d="M135.7684 137.5160 L135.2702 137.7651 "/>
<path d="M135.2702 137.7651 L134.7720 137.7651 "/>
<path d="M134.7720 137.7651 L134.2738 137.5160 "/>
<path d="M134.2738 137.5160 L134.0247 137.2669 "/>
<path d="M134.0247 137.2669 L133.7756 136.7687 "/>
<path d="M133.7756 136.7687 L133.7756 135.0250 "/>
<path d="M133.0283 140.2561 L133.0283 144.2417 "/>
<path d="M136.0175 149.4727 L136.2666 148.9745 "/>
<path d="M136.2666 148.9745 L136.2666 148.2272 "/>
<path d="M136.2666 148.2272 L136.0175 147.4799 "/>
<path d="M136.0175 147.4799 L135.5193 146.9817 "/>
<path d="M135.5193 146.9817 L135.0211 146.7326 "/>
<path d="M135.0211 146.7326 L134.0247 146.4835 "/>
<path d="M134.0247 146.4835 L133.2774 146.4835 "/>
<path d="M133.2774 146.4835 L132.2810 146.7326 "/>
<path d="M132.2810 146.7326 L131.7828 146.9817 "/>
<path d="M131.7828 146.9817 L131.2846 147.4799 "/>
<path d="M131.2846 147.4799 L131.0355 148.2272 "/>
<path d="M131.0355 148.2272 L131.0355 148.7254 "/>
<path d="M131.0355 148.7254 L131.2846 149.4727 "/>
<path d="M131.2846 149.4727 L131.5337 149.7218 "/>
<path d="M131.5337 149.7218 L133.2774 149.7218 "/>
<path d="M133.2774 149.7218 L133.2774 148.7254 "/>
<path d="M131.0355 151.9637 L136.2666 151.9637 "/>
<path d="M133.7756 151.9637 L133.7756 154.9529 "/>
<path d="M131.0355 154.9529 L136.2666 154.9529 "/>
<path d="M131.2846 157.1948 L131.0355 157.9421 "/>
<path d="M131.0355 157.9421 L131.0355 159.1876 "/>
<path d="M131.0355 159.1876 L131.2846 159.6858 "/>
<path d="M131.2846 159.6858 L131.5337 159.9349 "/>
<path d="M131.5337 159.9349 L132.0319 160.1840 "/>
<path d="M132.0319 160.1840 L132.5301 160.1840 "/>
<path d="M132.5301 160.1840 L133.0283 159.9349 "/>
<path d="M133.0283 159.9349 L133.2774 159.6858 "/>
<path d="M133.2774 159.6858 L133.5265 159.1876 "/>
<path d="M133.5265 159.1876 L133.7756 158.1912 "/>
<path d="M133.7756 158.1912 L134.0247 157.6930 "/>
<path d="M134.0247 157.6930 L134.2738 157.4439 "/>
<path d="M134.2738 157.4439 L134.7720 157.1948 "/>
<path d="M134.7720 157.1948 L135.2702 157.1948 "/>
<path d="M135.2702 157.1948 L135.7684 157.4439 "/>
<path d="M135.7684 157.4439 L136.0175 157.6930 "/>
<path d="M136.0175 157.6930 L136.2666 158.1912 "/>
<path d="M136.2666 158.1912 L136.2666 159.4367 "/>
<path d="M136.2666 159.4367 L136.0175 160.1840 "/>
<path d="M133.0283 162.4259 L133.0283 166.4115 "/>
<path d="M136.2666 168.1551 L136.2666 171.1443 "/>
<path d="M131.0355 169.6497 L136.2666 169.6497 "/>
<path d="M133.7756 174.6317 L133.5265 175.3790 "/>
<path d="M133.5265 175.3790 L133.2774 175.6281 "/>
<path d="M133.2774 175.6281 L132.7792 175.8772 "/>
<path d="M132.7792 175.8772 L132.0319 175.8772 "/>
<path d="M132.0319 175.8772 L131.5337 175.6281 "/>
<path d="M131.5337 175.6281 L131.2846 175.3790 "/>
<path d="M131.2846 175.3790 L131.0355 174.8808 "/>
<path d="M131.0355 174.8808 L131.0355 172.8880 "/>
<path d="M131.0355 172.8880 L136.2666 172.8880 "/>
<path d="M136.2666 172.8880 L136.2666 174.6317 "/>
<path d="M136.2666 174.6317 L136.0175 175.1299 "/>
<path d="M136.0175 175.1299 L135.7684 175.3790 "/>
<path d="M135.7684 175.3790 L135.2702 175.6281 "/>
<path d="M135.2702 175.6281 L134.7720 175.6281 "/>
<path d="M134.7720 175.6281 L134.2738 175.3790 "/>
<path d="M134.2738 175.3790 L134.0247 175.1299 "/>
<path d="M134.0247 175.1299 L133.7756 174.6317 "/>
<path d="M133.7756 174.6317 L133.7756 172.8880 "/>
</g><g transform="rotate(-90.000000 153.8159 144.8644)">
<text x="153.8159" y="147.4799" transform="scale(-1 1) translate(-307.631749 0)" textLength="9.8830" font-size="6.9748" lengthAdjust="spacingAndGlyphs" text-anchor="middle" opacity="0.01" style="font-family:monospace">J1</text>
</g>
<g class="stroked-text"><desc>J1</desc>
<path d="M156.6678 143.1207 L152.9313 143.1207 "/>
<path d="M152.9313 143.1207 L152.1840 142.8716 "/>
<path d="M152.1840 142.8716 L151.6858 142.3734 "/>
<path d="M151.6858 142.3734 L151.4367 141.6261 "/>
<path d="M151.4367 141.6261 L151.4367 141.1279 "/>
<path d="M151.4367 148.3518 L151.4367 145.3626 "/>
<path d="M151.4367 146.8572 L156.6678 146.8572 "/>
<path d="M156.6678 146.8572 L155.9205 146.3590 "/>
<path d="M155.9205 146.3590 L155.4223 145.8608 "/>
<path d="M155.4223 145.8608 L155.1732 145.3626 "/>
</g><g transform="rotate(-90.000000 133.4147 86.4019)">
<text x="133.4147" y="89.0174" transform="scale(-1 1) translate(-266.829352 0)" textLength="64.9339" font-size="6.9748" lengthAdjust="spacingAndGlyphs" text-anchor="middle" opacity="0.01" style="font-family:monospace">SM04B-GHS-TB</text>
</g>
<g class="stroked-text"><desc>SM04B-GHS-TB</desc>
<path d="M131.2846 55.3891 L131.0355 56.1364 "/>
<path d="M131.0355 56.1364 L131.0355 57.3819 "/>
<path d="M131.0355 57.3819 L131.2846 57.8801 "/>
<path d="M131.2846 57.8801 L131.5337 58.1292 "/>
<path d="M131.5337 58.1292 L132.0319 58.3783 "/>
<path d="M132.0319 58.3783 L132.5301 58.3783 "/>
<path d="M132.5301 58.3783 L133.0283 58.1292 "/>
<path d="M133.0283 58.1292 L133.2774 57.8801 "/>
<path d="M133.2774 57.8801 L133.5265 57.3819 "/>
<path d="M133.5265 57.3819 L133.7756 56.3855 "/>
<path d="M133.7756 56.3855 L134.0247 55.8873 "/>
<path d="M134.0247 55.8873 L134.2738 55.6382 "/>
<path d="M134.2738 55.6382 L134.7720 55.3891 "/>
<path d="M134.7720 55.3891 L135.2702 55.3891 "/>
<path d="M135.2702 55.3891 L135.7684 55.6382 "/>
<path d="M135.7684 55.6382 L136.0175 55.8873 "/>
<path d="M136.0175 55.8873 L136.2666 56.3855 "/>
<path d="M136.2666 56.3855 L136.2666 57.6310 "/>
<path d="M136.2666 57.6310 L136.0175 58.3783 "/>
<path d="M131.0355 60.6202 L136.2666 60.6202 "/>
<path d="M136.2666 60.6202 L132.5301 62.3638 "/>
<path d="M132.5301 62.3638 L136.2666 64.1075 "/>
<path d="M136.2666 64.1075 L131.0355 64.1075 "/>
<path d="M136.2666 67.5949 L136.2666 68.0931 "/>
<path d="M136.2666 68.0931 L136.0175 68.5913 "/>
<path d="M136.0175 68.5913 L135.7684 68.8404 "/>
<path d="M135.7684 68.8404 L135.2702 69.0895 "/>
<path d="M135.2702 69.0895 L134.2738 69.3386 "/>
<path d="M134.2738 69.3386 L133.0283 69.3386 "/>
<path d="M133.0283 69.3386 L132.0319 69.0895 "/>
<path d="M132.0319 69.0895 L131.5337 68.8404 "/>
<path d="M131.5337 68.8404 L131.2846 68.5913 "/>
<path d="M131.2846 68.5913 L131.0355 68.0931 "/>
<path d="M131.0355 68.0931 L131.0355 67.5949 "/>
<path d="M131.0355 67.5949 L131.2846 67.0967 "/>
<path d="M131.2846 67.0967 L131.5337 66.8476 "/>
<path d="M131.5337 66.8476 L132.0319 66.5985 "/>
<path d="M132.0319 66.5985 L133.0283 66.3494 "/>
<path d="M133.0283 66.3494 L134.2738 66.3494 "/>
<path d="M134.2738 66.3494 L135.2702 66.5985 "/>
<path d="M135.2702 66.5985 L135.7684 66.8476 "/>
<path d="M135.7684 66.8476 L136.0175 67.0967 "/>
<path d="M136.0175 67.0967 L136.2666 67.5949 "/>
<path d="M134.5229 73.8224 L131.0355 73.8224 "/>
<path d="M136.5157 72.5769 L132.7792 71.3314 "/>
<path d="M132.7792 71.3314 L132.7792 74.5697 "/>
<path d="M133.7756 78.3062 L133.5265 79.0535 "/>
<path d="M133.5265 79.0535 L133.2774 79.3026 "/>
<path d="M133.2774 79.3026 L132.7792 79.5517 "/>
<path d="M132.7792 79.5517 L132.0319 79.5517 "/>
<path d="M132.0319 79.5517 L131.5337 79.3026 "/>
<path d="M131.5337 79.3026 L131.2846 79.0535 "/>
<path d="M131.2846 79.0535 L131.0355 78.5553 "/>
<path d="M131.0355 78.5553 L131.0355 76.5625 "/>
<path d="M131.0355 76.5625 L136.2666 76.5625 "/>
<path d="M136.2666 76.5625 L136.2666 78.3062 "/>
<path d="M136.2666 78.3062 L136.0175 78.8044 "/>
<path d="M136.0175 78.8044 L135.7684 79.0535 "/>
<path d="M135.7684 79.0535 L135.2702 79.3026 "/>
<path d="M135.2702 79.3026 L134.7720 79.3026 "/>
<path d="M134.7720 79.3026 L134.2738 79.0535 "/>
<path d="M134.2738 79.0535 L134.0247 78.8044 "/>
<path d="M134.0247 78.8044 L133.7756 78.3062 "/>
<path d="M133.7756 78.3062 L133.7756 76.5625 "/>
<path d="M133.0283 81.7936 L133.0283 85.7791 "/>
<path d="M136.0175 91.0102 L136.2666 90.5120 "/>
<path d="M136.2666 90.5120 L136.2666 89.7647 "/>
<path d="M136.2666 89.7647 L136.0175 89.0174 "/>
<path d="M136.0175 89.0174 L135.5193 88.5192 "/>
<path d="M135.5193 88.5192 L135.0211 88.2701 "/>
<path d="M135.0211 88.2701 L134.0247 88.0210 "/>
<path d="M134.0247 88.0210 L133.2774 88.0210 "/>
<path d="M133.2774 88.0210 L132.2810 88.2701 "/>
<path d="M132.2810 88.2701 L131.7828 88.5192 "/>
<path d="M131.7828 88.5192 L131.2846 89.0174 "/>
<path d="M131.2846 89.0174 L131.0355 89.7647 "/>
<path d="M131.0355 89.7647 L131.0355 90.2629 "/>
<path d="M131.0355 90.2629 L131.2846 91.0102 "/>
<path d="M131.2846 91.0102 L131.5337 91.2593 "/>
<path d="M131.5337 91.2593 L133.2774 91.2593 "/>
<path d="M133.2774 91.2593 L133.2774 90.2629 "/>
<path d="M131.0355 93.5012 L136.2666 93.5012 "/>
<path d="M133.7756 93.5012 L133.7756 96.4904 "/>
<path d="M131.0355 96.4904 L136.2666 96.4904 "/>
<path d="M131.2846 98.7323 L131.0355 99.4796 "/>
<path d="M131.0355 99.4796 L131.0355 100.7251 "/>
<path d="M131.0355 100.7251 L131.2846 101.2233 "/>
<path d="M131.2846 101.2233 L131.5337 101.4724 "/>
<path d="M131.5337 101.4724 L132.0319 101.7215 "/>
<path d="M132.0319 101.7215 L132.5301 101.7215 "/>
<path d="M132.5301 101.7215 L133.0283 101.4724 "/>
<path d="M133.0283 101.4724 L133.2774 101.2233 "/>
<path d="M133.2774 101.2233 L133.5265 100.7251 "/>
<path d="M133.5265 100.7251 L133.7756 99.7287 "/>
<path d="M133.7756 99.7287 L134.0247 99.2305 "/>
<path d="M134.0247 99.2305 L134.2738 98.9814 "/>
<path d="M134.2738 98.9814 L134.7720 98.7323 "/>
<path d="M134.7720 98.7323 L135.2702 98.7323 "/>
<path d="M135.2702 98.7323 L135.7684 98.9814 "/>
<path d="M135.7684 98.9814 L136.0175 99.2305 "/>
<path d="M136.0175 99.2305 L136.2666 99.7287 "/>
<path d="M136.2666 99.7287 L136.2666 100.9742 "/>
<path d="M136.2666 100.9742 L136.0175 101.7215 "/>
<path d="M133.0283 103.9634 L133.0283 107.9489 "/>
<path d="M136.2666 109.6926 L136.2666 112.6818 "/>
<path d="M131.0355 111.1872 L136.2666 111.1872 "/>
<path d="M133.7756 116.1692 L133.5265 116.9165 "/>
<path d="M133.5265 116.9165 L133.2774 117.1656 "/>
<path d="M133.2774 117.1656 L132.7792 117.4147 "/>
<path d="M132.7792 117.4147 L132.0319 117.4147 "/>
<path d="M132.0319 117.4147 L131.5337 117.1656 "/>
<path d="M131.5337 117.1656 L131.2846 116.9165 "/>
<path d="M131.2846 116.9165 L131.0355 116.4183 "/>
<path d="M131.0355 116.4183 L131.0355 114.4255 "/>
<path d="M131.0355 114.4255 L136.2666 114.4255 "/>
<path d="M136.2666 114.4255 L136.2666 116.1692 "/>
<path d="M136.2666 116.1692 L136.0175 116.6674 "/>
<path d="M136.0175 116.6674 L135.7684 116.9165 "/>
<path d="M135.7684 116.9165 L135.2702 117.1656 "/>
<path d="M135.2702 117.1656 L134.7720 117.1656 "/>
<path d="M134.7720 117.1656 L134.2738 116.9165 "/>
<path d="M134.2738 116.9165 L134.0247 116.6674 "/>
<path d="M134.0247 116.6674 L133.7756 116.1692 "/>
<path d="M133.7756 116.1692 L133.7756 114.4255 "/>
</g><g transform="rotate(-90.000000 153.8159 86.4019)">
<text x="153.8159" y="89.0174" transform="scale(-1 1) translate(-307.631749 0)" textLength="9.8830" font-size="6.9748" lengthAdjust="spacingAndGlyphs" text-anchor="middle" opacity="0.01" style="font-family:monospace">J2</text>
</g>
<g class="stroked-text"><desc>J2</desc>
<path d="M156.6678 84.6582 L152.9313 84.6582 "/>
<path d="M152.9313 84.6582 L152.1840 84.4091 "/>
<path d="M152.1840 84.4091 L151.6858 83.9109 "/>
<path d="M151.6858 83.9109 L151.4367 83.1636 "/>
<path d="M151.4367 83.1636 L151.4367 82.6654 "/>
<path d="M156.1696 86.9001 L156.4187 87.1492 "/>
<path d="M156.4187 87.1492 L156.6678 87.6474 "/>
<path d="M156.6678 87.6474 L156.6678 88.8929 "/>
<path d="M156.6678 88.8929 L156.4187 89.3911 "/>
<path d="M156.4187 89.3911 L156.1696 89.6402 "/>
<path d="M156.1696 89.6402 L155.6714 89.8893 "/>
<path d="M155.6714 89.8893 L155.1732 89.8893 "/>
<path d="M155.1732 89.8893 L154.4259 89.6402 "/>
<path d="M154.4259 89.6402 L151.4367 86.6510 "/>
<path d="M151.4367 86.6510 L151.4367 89.8893 "/>
</g></g>
<g style="fill:#000084; fill-opacity:0.0;  stroke:#000084; stroke-width:0.5231; stroke-opacity:1;  stroke-linecap:round; stroke-linejoin:round;">
<path d="M140.9997 123.2862 L140.9997 166.4426 "/>
<path d="M162.1856 123.2862 L140.9997 123.2862 "/>
<path d="M162.1856 123.2862 L162.1856 166.4426 "/>
<path d="M162.1856 132.4406 L158.4867 135.0561 "/>
<path d="M158.4867 135.0561 L162.1856 137.6717 "/>
<path d="M162.1856 166.4426 L140.9997 166.4426 "/>
<path d="M140.9997 64.8237 L140.9997 107.9801 "/>
<path d="M162.1856 64.8237 L140.9997 64.8237 "/>
<path d="M162.1856 64.8237 L162.1856 107.9801 "/>
<path d="M162.1856 73.9781 L158.4867 76.5936 "/>
<path d="M158.4867 76.5936 L162.1856 79.2092 "/>
<path d="M162.1856 107.9801 L140.9997 107.9801 "/>
<g>
</g>
<g>
</g>
<g>
</g>
<g>
</g>
<g>
</g>
<g>
</g>
<g>
</g>
<g>
</g>
<g>
</g>
<g>
</g>
</g> 
<svg:g><svg:g><svg:title>SVG Image created as GH4PIN01-Edge_Cuts.svg date 2023/07/20 11:13:56 </svg:title>
  <svg:desc>Image generated by PCBNEW </svg:desc>
<svg:g style="fill:#C2C200; fill-opacity:1.0000;stroke:#C2C200; stroke-opacity:1.0000; stroke-linecap:round; stroke-linejoin:round;" transform="translate(0 0) scale(1 1)">
</svg:g>
<svg:g style="fill:#C2C200; fill-opacity:0.0;  stroke:#C2C200; stroke-width:0.0000; stroke-opacity:1;  stroke-linecap:round; stroke-linejoin:round;">
</svg:g>
<svg:g style="fill:#C2C200; fill-opacity:0.0;  stroke:#C2C200; stroke-width:0.0664; stroke-opacity:1;  stroke-linecap:round; stroke-linejoin:round;">
<svg:path d="M43.5343 209.9704 L43.5343 0.0368 "/>
<svg:path d="M253.4679 0.0368 L253.4679 209.9704 "/>
<svg:path d="M253.4679 209.9704 L43.5343 209.9704 "/>
<svg:path d="M43.5343 0.0368 L253.4679 0.0368 "/>
<svg:circle cx="228.2227" cy="184.7252" r="8.7185"/> 
<svg:path d="M241.3004 184.7252 L215.1450 184.7252 "/>
<svg:path d="M228.2227 171.6475 L228.2227 197.8029 "/>
<svg:circle cx="228.2227" cy="184.7252" r="8.7185"/> 
<svg:path d="M241.3004 184.7252 L215.1450 184.7252 "/>
<svg:path d="M228.2227 171.6475 L228.2227 197.8029 "/>
<svg:circle cx="228.2227" cy="184.7252" r="8.7185"/> 
<svg:path d="M241.3004 184.7252 L215.1450 184.7252 "/>
<svg:path d="M228.2227 171.6475 L228.2227 197.8029 "/>
<svg:g>
</svg:g>
<svg:g>
</svg:g>
<svg:g>
</svg:g>
<svg:g>
</svg:g>
<svg:g>
</svg:g>
<svg:g>
</svg:g>
<svg:g>
</svg:g>
<svg:g>
</svg:g>
<svg:g>
</svg:g>
<svg:g>
</svg:g>
</svg:g> 
</svg:g></svg:g></svg>
