<?xml version='1.0' encoding='ASCII' standalone='yes'?>
<svg xmlns:svg="http://www.w3.org/2000/svg" xmlns="http://www.w3.org/2000/svg" xmlns:xlink="http://www.w3.org/1999/xlink" version="1.1" width="297.0022mm" height="210.0072mm" viewBox="0.0000 0.0000 297.0022 210.0072">
<title>SVG Image created as GHxPIN01-F_Fab0.svg date 2024/11/07 23:08:51 </title>
  <desc>Image generated by PCBNEW </desc>
<g style="fill:#848484; fill-opacity:1.0000;stroke:#848484; stroke-opacity:1.0000; stroke-linecap:round; stroke-linejoin:round;" transform="translate(0 0) scale(1 1)">
</g>
<g style="fill:none;  stroke:#848484; stroke-width:0.7820; stroke-opacity:1;  stroke-linecap:round; stroke-linejoin:round;">
<text x="147.5106" y="35.8760" textLength="94.8935" font-size="6.9510" lengthAdjust="spacingAndGlyphs" text-anchor="middle" opacity="0" stroke-opacity="0">HEADER_2x10_PARALLEL</text>
<g class="stroked-text"><desc>HEADER_2x10_PARALLEL</desc>
<path d="M101.9567 35.6404 L101.9567 30.4272 "/>
<path d="M101.9567 32.9097 L104.9357 32.9097 "/>
<path d="M104.9357 35.6404 L104.9357 30.4272 "/>
<path d="M107.4182 32.9097 L109.1560 32.9097 "/>
<path d="M109.9007 35.6404 L107.4182 35.6404 "/>
<path d="M107.4182 35.6404 L107.4182 30.4272 "/>
<path d="M107.4182 30.4272 L109.9007 30.4272 "/>
<path d="M111.8867 34.1509 L114.3692 34.1509 "/>
<path d="M111.3902 35.6404 L113.1280 30.4272 "/>
<path d="M113.1280 30.4272 L114.8657 35.6404 "/>
<path d="M116.6035 35.6404 L116.6035 30.4272 "/>
<path d="M116.6035 30.4272 L117.8447 30.4272 "/>
<path d="M117.8447 30.4272 L118.5895 30.6754 "/>
<path d="M118.5895 30.6754 L119.0860 31.1719 "/>
<path d="M119.0860 31.1719 L119.3342 31.6684 "/>
<path d="M119.3342 31.6684 L119.5825 32.6614 "/>
<path d="M119.5825 32.6614 L119.5825 33.4062 "/>
<path d="M119.5825 33.4062 L119.3342 34.3992 "/>
<path d="M119.3342 34.3992 L119.0860 34.8957 "/>
<path d="M119.0860 34.8957 L118.5895 35.3922 "/>
<path d="M118.5895 35.3922 L117.8447 35.6404 "/>
<path d="M117.8447 35.6404 L116.6035 35.6404 "/>
<path d="M121.8167 32.9097 L123.5545 32.9097 "/>
<path d="M124.2992 35.6404 L121.8167 35.6404 "/>
<path d="M121.8167 35.6404 L121.8167 30.4272 "/>
<path d="M121.8167 30.4272 L124.2992 30.4272 "/>
<path d="M129.5125 35.6404 L127.7747 33.1579 "/>
<path d="M126.5335 35.6404 L126.5335 30.4272 "/>
<path d="M126.5335 30.4272 L128.5195 30.4272 "/>
<path d="M128.5195 30.4272 L129.0160 30.6754 "/>
<path d="M129.0160 30.6754 L129.2642 30.9237 "/>
<path d="M129.2642 30.9237 L129.5125 31.4202 "/>
<path d="M129.5125 31.4202 L129.5125 32.1649 "/>
<path d="M129.5125 32.1649 L129.2642 32.6614 "/>
<path d="M129.2642 32.6614 L129.0160 32.9097 "/>
<path d="M129.0160 32.9097 L128.5195 33.1579 "/>
<path d="M128.5195 33.1579 L126.5335 33.1579 "/>
<path d="M130.5055 36.1369 L134.4775 36.1369 "/>
<path d="M135.4705 30.9237 L135.7187 30.6754 "/>
<path d="M135.7187 30.6754 L136.2152 30.4272 "/>
<path d="M136.2152 30.4272 L137.4565 30.4272 "/>
<path d="M137.4565 30.4272 L137.9530 30.6754 "/>
<path d="M137.9530 30.6754 L138.2012 30.9237 "/>
<path d="M138.2012 30.9237 L138.4495 31.4202 "/>
<path d="M138.4495 31.4202 L138.4495 31.9167 "/>
<path d="M138.4495 31.9167 L138.2012 32.6614 "/>
<path d="M138.2012 32.6614 L135.2222 35.6404 "/>
<path d="M135.2222 35.6404 L138.4495 35.6404 "/>
<path d="M140.1872 35.6404 L142.9180 32.1649 "/>
<path d="M140.1872 32.1649 L142.9180 35.6404 "/>
<path d="M147.6347 35.6404 L144.6557 35.6404 "/>
<path d="M146.1452 35.6404 L146.1452 30.4272 "/>
<path d="M146.1452 30.4272 L145.6487 31.1719 "/>
<path d="M145.6487 31.1719 L145.1522 31.6684 "/>
<path d="M145.1522 31.6684 L144.6557 31.9167 "/>
<path d="M150.8620 30.4272 L151.3585 30.4272 "/>
<path d="M151.3585 30.4272 L151.8550 30.6754 "/>
<path d="M151.8550 30.6754 L152.1032 30.9237 "/>
<path d="M152.1032 30.9237 L152.3514 31.4202 "/>
<path d="M152.3514 31.4202 L152.5997 32.4132 "/>
<path d="M152.5997 32.4132 L152.5997 33.6544 "/>
<path d="M152.5997 33.6544 L152.3514 34.6474 "/>
<path d="M152.3514 34.6474 L152.1032 35.1439 "/>
<path d="M152.1032 35.1439 L151.8550 35.3922 "/>
<path d="M151.8550 35.3922 L151.3585 35.6404 "/>
<path d="M151.3585 35.6404 L150.8620 35.6404 "/>
<path d="M150.8620 35.6404 L150.3655 35.3922 "/>
<path d="M150.3655 35.3922 L150.1172 35.1439 "/>
<path d="M150.1172 35.1439 L149.8690 34.6474 "/>
<path d="M149.8690 34.6474 L149.6207 33.6544 "/>
<path d="M149.6207 33.6544 L149.6207 32.4132 "/>
<path d="M149.6207 32.4132 L149.8690 31.4202 "/>
<path d="M149.8690 31.4202 L150.1172 30.9237 "/>
<path d="M150.1172 30.9237 L150.3655 30.6754 "/>
<path d="M150.3655 30.6754 L150.8620 30.4272 "/>
<path d="M153.5927 36.1369 L157.5647 36.1369 "/>
<path d="M158.8059 35.6404 L158.8059 30.4272 "/>
<path d="M158.8059 30.4272 L160.7919 30.4272 "/>
<path d="M160.7919 30.4272 L161.2884 30.6754 "/>
<path d="M161.2884 30.6754 L161.5367 30.9237 "/>
<path d="M161.5367 30.9237 L161.7849 31.4202 "/>
<path d="M161.7849 31.4202 L161.7849 32.1649 "/>
<path d="M161.7849 32.1649 L161.5367 32.6614 "/>
<path d="M161.5367 32.6614 L161.2884 32.9097 "/>
<path d="M161.2884 32.9097 L160.7919 33.1579 "/>
<path d="M160.7919 33.1579 L158.8059 33.1579 "/>
<path d="M163.7709 34.1509 L166.2534 34.1509 "/>
<path d="M163.2744 35.6404 L165.0122 30.4272 "/>
<path d="M165.0122 30.4272 L166.7499 35.6404 "/>
<path d="M171.4667 35.6404 L169.7289 33.1579 "/>
<path d="M168.4877 35.6404 L168.4877 30.4272 "/>
<path d="M168.4877 30.4272 L170.4737 30.4272 "/>
<path d="M170.4737 30.4272 L170.9702 30.6754 "/>
<path d="M170.9702 30.6754 L171.2184 30.9237 "/>
<path d="M171.2184 30.9237 L171.4667 31.4202 "/>
<path d="M171.4667 31.4202 L171.4667 32.1649 "/>
<path d="M171.4667 32.1649 L171.2184 32.6614 "/>
<path d="M171.2184 32.6614 L170.9702 32.9097 "/>
<path d="M170.9702 32.9097 L170.4737 33.1579 "/>
<path d="M170.4737 33.1579 L168.4877 33.1579 "/>
<path d="M173.4527 34.1509 L175.9352 34.1509 "/>
<path d="M172.9562 35.6404 L174.6939 30.4272 "/>
<path d="M174.6939 30.4272 L176.4317 35.6404 "/>
<path d="M180.6519 35.6404 L178.1694 35.6404 "/>
<path d="M178.1694 35.6404 L178.1694 30.4272 "/>
<path d="M184.8722 35.6404 L182.3897 35.6404 "/>
<path d="M182.3897 35.6404 L182.3897 30.4272 "/>
<path d="M186.6099 32.9097 L188.3477 32.9097 "/>
<path d="M189.0924 35.6404 L186.6099 35.6404 "/>
<path d="M186.6099 35.6404 L186.6099 30.4272 "/>
<path d="M186.6099 30.4272 L189.0924 30.4272 "/>
<path d="M193.8092 35.6404 L191.3267 35.6404 "/>
<path d="M191.3267 35.6404 L191.3267 30.4272 "/>
</g><g transform="rotate(-90.000000 147.5106 105.0036)">
<text x="147.5106" y="107.6102" textLength="10.2403" font-size="6.9510" lengthAdjust="spacingAndGlyphs" text-anchor="middle" opacity="0" stroke-opacity="0">J7</text>
</g>
<g class="stroked-text"><desc>J7</desc>
<path d="M144.6684 106.7413 L148.3922 106.7413 "/>
<path d="M148.3922 106.7413 L149.1369 106.9896 "/>
<path d="M149.1369 106.9896 L149.6334 107.4861 "/>
<path d="M149.6334 107.4861 L149.8817 108.2308 "/>
<path d="M149.8817 108.2308 L149.8817 108.7273 "/>
<path d="M144.6684 104.7553 L144.6684 101.2799 "/>
<path d="M144.6684 101.2799 L149.8817 103.5141 "/>
</g><g transform="rotate(-90.000000 206.4203 105.0297)">
<text x="206.4203" y="107.6363" textLength="65.1035" font-size="6.9510" lengthAdjust="spacingAndGlyphs" text-anchor="middle" opacity="0" stroke-opacity="0">SM10B-GHS-TB</text>
</g>
<g class="stroked-text"><desc>SM10B-GHS-TB</desc>
<path d="M208.5431 135.9368 L208.7914 135.1920 "/>
<path d="M208.7914 135.1920 L208.7914 133.9508 "/>
<path d="M208.7914 133.9508 L208.5431 133.4543 "/>
<path d="M208.5431 133.4543 L208.2948 133.2060 "/>
<path d="M208.2948 133.2060 L207.7983 132.9578 "/>
<path d="M207.7983 132.9578 L207.3018 132.9578 "/>
<path d="M207.3018 132.9578 L206.8053 133.2060 "/>
<path d="M206.8053 133.2060 L206.5571 133.4543 "/>
<path d="M206.5571 133.4543 L206.3088 133.9508 "/>
<path d="M206.3088 133.9508 L206.0606 134.9438 "/>
<path d="M206.0606 134.9438 L205.8124 135.4403 "/>
<path d="M205.8124 135.4403 L205.5641 135.6885 "/>
<path d="M205.5641 135.6885 L205.0676 135.9368 "/>
<path d="M205.0676 135.9368 L204.5711 135.9368 "/>
<path d="M204.5711 135.9368 L204.0746 135.6885 "/>
<path d="M204.0746 135.6885 L203.8264 135.4403 "/>
<path d="M203.8264 135.4403 L203.5781 134.9438 "/>
<path d="M203.5781 134.9438 L203.5781 133.7025 "/>
<path d="M203.5781 133.7025 L203.8264 132.9578 "/>
<path d="M208.7914 130.7235 L203.5781 130.7235 "/>
<path d="M203.5781 130.7235 L207.3018 128.9858 "/>
<path d="M207.3018 128.9858 L203.5781 127.2480 "/>
<path d="M203.5781 127.2480 L208.7914 127.2480 "/>
<path d="M208.7914 122.0348 L208.7914 125.0138 "/>
<path d="M208.7914 123.5243 L203.5781 123.5243 "/>
<path d="M203.5781 123.5243 L204.3229 124.0208 "/>
<path d="M204.3229 124.0208 L204.8194 124.5173 "/>
<path d="M204.8194 124.5173 L205.0676 125.0138 "/>
<path d="M203.5781 118.8075 L203.5781 118.3110 "/>
<path d="M203.5781 118.3110 L203.8264 117.8145 "/>
<path d="M203.8264 117.8145 L204.0746 117.5663 "/>
<path d="M204.0746 117.5663 L204.5711 117.3180 "/>
<path d="M204.5711 117.3180 L205.5641 117.0698 "/>
<path d="M205.5641 117.0698 L206.8053 117.0698 "/>
<path d="M206.8053 117.0698 L207.7983 117.3180 "/>
<path d="M207.7983 117.3180 L208.2948 117.5663 "/>
<path d="M208.2948 117.5663 L208.5431 117.8145 "/>
<path d="M208.5431 117.8145 L208.7914 118.3110 "/>
<path d="M208.7914 118.3110 L208.7914 118.8075 "/>
<path d="M208.7914 118.8075 L208.5431 119.3040 "/>
<path d="M208.5431 119.3040 L208.2948 119.5523 "/>
<path d="M208.2948 119.5523 L207.7983 119.8005 "/>
<path d="M207.7983 119.8005 L206.8053 120.0488 "/>
<path d="M206.8053 120.0488 L205.5641 120.0488 "/>
<path d="M205.5641 120.0488 L204.5711 119.8005 "/>
<path d="M204.5711 119.8005 L204.0746 119.5523 "/>
<path d="M204.0746 119.5523 L203.8264 119.3040 "/>
<path d="M203.8264 119.3040 L203.5781 118.8075 "/>
<path d="M206.0606 113.0978 L206.3088 112.3530 "/>
<path d="M206.3088 112.3530 L206.5571 112.1048 "/>
<path d="M206.5571 112.1048 L207.0536 111.8565 "/>
<path d="M207.0536 111.8565 L207.7983 111.8565 "/>
<path d="M207.7983 111.8565 L208.2948 112.1048 "/>
<path d="M208.2948 112.1048 L208.5431 112.3530 "/>
<path d="M208.5431 112.3530 L208.7914 112.8495 "/>
<path d="M208.7914 112.8495 L208.7914 114.8355 "/>
<path d="M208.7914 114.8355 L203.5781 114.8355 "/>
<path d="M203.5781 114.8355 L203.5781 113.0978 "/>
<path d="M203.5781 113.0978 L203.8264 112.6013 "/>
<path d="M203.8264 112.6013 L204.0746 112.3530 "/>
<path d="M204.0746 112.3530 L204.5711 112.1048 "/>
<path d="M204.5711 112.1048 L205.0676 112.1048 "/>
<path d="M205.0676 112.1048 L205.5641 112.3530 "/>
<path d="M205.5641 112.3530 L205.8124 112.6013 "/>
<path d="M205.8124 112.6013 L206.0606 113.0978 "/>
<path d="M206.0606 113.0978 L206.0606 114.8355 "/>
<path d="M206.8053 109.6223 L206.8053 105.6503 "/>
<path d="M203.8264 100.4370 L203.5781 100.9335 "/>
<path d="M203.5781 100.9335 L203.5781 101.6783 "/>
<path d="M203.5781 101.6783 L203.8264 102.4230 "/>
<path d="M203.8264 102.4230 L204.3229 102.9195 "/>
<path d="M204.3229 102.9195 L204.8194 103.1678 "/>
<path d="M204.8194 103.1678 L205.8124 103.4160 "/>
<path d="M205.8124 103.4160 L206.5571 103.4160 "/>
<path d="M206.5571 103.4160 L207.5501 103.1678 "/>
<path d="M207.5501 103.1678 L208.0466 102.9195 "/>
<path d="M208.0466 102.9195 L208.5431 102.4230 "/>
<path d="M208.5431 102.4230 L208.7914 101.6783 "/>
<path d="M208.7914 101.6783 L208.7914 101.1818 "/>
<path d="M208.7914 101.1818 L208.5431 100.4370 "/>
<path d="M208.5431 100.4370 L208.2948 100.1888 "/>
<path d="M208.2948 100.1888 L206.5571 100.1888 "/>
<path d="M206.5571 100.1888 L206.5571 101.1818 "/>
<path d="M208.7914 97.9545 L203.5781 97.9545 "/>
<path d="M206.0606 97.9545 L206.0606 94.9755 "/>
<path d="M208.7914 94.9755 L203.5781 94.9755 "/>
<path d="M208.5431 92.7413 L208.7914 91.9965 "/>
<path d="M208.7914 91.9965 L208.7914 90.7553 "/>
<path d="M208.7914 90.7553 L208.5431 90.2588 "/>
<path d="M208.5431 90.2588 L208.2948 90.0106 "/>
<path d="M208.2948 90.0106 L207.7983 89.7623 "/>
<path d="M207.7983 89.7623 L207.3018 89.7623 "/>
<path d="M207.3018 89.7623 L206.8053 90.0106 "/>
<path d="M206.8053 90.0106 L206.5571 90.2588 "/>
<path d="M206.5571 90.2588 L206.3088 90.7553 "/>
<path d="M206.3088 90.7553 L206.0606 91.7483 "/>
<path d="M206.0606 91.7483 L205.8124 92.2448 "/>
<path d="M205.8124 92.2448 L205.5641 92.4930 "/>
<path d="M205.5641 92.4930 L205.0676 92.7413 "/>
<path d="M205.0676 92.7413 L204.5711 92.7413 "/>
<path d="M204.5711 92.7413 L204.0746 92.4930 "/>
<path d="M204.0746 92.4930 L203.8264 92.2448 "/>
<path d="M203.8264 92.2448 L203.5781 91.7483 "/>
<path d="M203.5781 91.7483 L203.5781 90.5070 "/>
<path d="M203.5781 90.5070 L203.8264 89.7623 "/>
<path d="M206.8053 87.5280 L206.8053 83.5561 "/>
<path d="M203.5781 81.8183 L203.5781 78.8393 "/>
<path d="M208.7914 80.3288 L203.5781 80.3288 "/>
<path d="M206.0606 75.3638 L206.3088 74.6191 "/>
<path d="M206.3088 74.6191 L206.5571 74.3708 "/>
<path d="M206.5571 74.3708 L207.0536 74.1226 "/>
<path d="M207.0536 74.1226 L207.7983 74.1226 "/>
<path d="M207.7983 74.1226 L208.2948 74.3708 "/>
<path d="M208.2948 74.3708 L208.5431 74.6191 "/>
<path d="M208.5431 74.6191 L208.7914 75.1156 "/>
<path d="M208.7914 75.1156 L208.7914 77.1016 "/>
<path d="M208.7914 77.1016 L203.5781 77.1016 "/>
<path d="M203.5781 77.1016 L203.5781 75.3638 "/>
<path d="M203.5781 75.3638 L203.8264 74.8673 "/>
<path d="M203.8264 74.8673 L204.0746 74.6191 "/>
<path d="M204.0746 74.6191 L204.5711 74.3708 "/>
<path d="M204.5711 74.3708 L205.0676 74.3708 "/>
<path d="M205.0676 74.3708 L205.5641 74.6191 "/>
<path d="M205.5641 74.6191 L205.8124 74.8673 "/>
<path d="M205.8124 74.8673 L206.0606 75.3638 "/>
<path d="M206.0606 75.3638 L206.0606 77.1016 "/>
</g><g transform="rotate(-90.000000 186.0886 105.0297)">
<text x="186.0886" y="107.6363" textLength="10.2403" font-size="6.9510" lengthAdjust="spacingAndGlyphs" text-anchor="middle" opacity="0" stroke-opacity="0">J6</text>
</g>
<g class="stroked-text"><desc>J6</desc>
<path d="M183.2464 106.7674 L186.9702 106.7674 "/>
<path d="M186.9702 106.7674 L187.7149 107.0157 "/>
<path d="M187.7149 107.0157 L188.2114 107.5122 "/>
<path d="M188.2114 107.5122 L188.4597 108.2569 "/>
<path d="M188.4597 108.2569 L188.4597 108.7534 "/>
<path d="M183.2464 102.0507 L183.2464 103.0437 "/>
<path d="M183.2464 103.0437 L183.4947 103.5402 "/>
<path d="M183.4947 103.5402 L183.7429 103.7884 "/>
<path d="M183.7429 103.7884 L184.4877 104.2849 "/>
<path d="M184.4877 104.2849 L185.4807 104.5332 "/>
<path d="M185.4807 104.5332 L187.4667 104.5332 "/>
<path d="M187.4667 104.5332 L187.9632 104.2849 "/>
<path d="M187.9632 104.2849 L188.2114 104.0367 "/>
<path d="M188.2114 104.0367 L188.4597 103.5402 "/>
<path d="M188.4597 103.5402 L188.4597 102.5472 "/>
<path d="M188.4597 102.5472 L188.2114 102.0507 "/>
<path d="M188.2114 102.0507 L187.9632 101.8024 "/>
<path d="M187.9632 101.8024 L187.4667 101.5542 "/>
<path d="M187.4667 101.5542 L186.2254 101.5542 "/>
<path d="M186.2254 101.5542 L185.7289 101.8024 "/>
<path d="M185.7289 101.8024 L185.4807 102.0507 "/>
<path d="M185.4807 102.0507 L185.2324 102.5472 "/>
<path d="M185.2324 102.5472 L185.2324 103.5402 "/>
<path d="M185.2324 103.5402 L185.4807 104.0367 "/>
<path d="M185.4807 104.0367 L185.7289 104.2849 "/>
<path d="M185.7289 104.2849 L186.2254 104.5332 "/>
</g></g>
<g style="fill:none;  stroke:#848484; stroke-width:1.9862; stroke-opacity:1;  stroke-linecap:round; stroke-linejoin:round;">
<circle cx="174.9844" cy="25.5537" r="15.6384"/> 
<circle cx="174.9844" cy="184.4535" r="15.6384"/> 
<circle cx="122.0178" cy="184.4535" r="15.6384"/> 
</g>
<g style="fill:none;  stroke:#848484; stroke-width:0.5213; stroke-opacity:1;  stroke-linecap:round; stroke-linejoin:round;">
<path d="M134.2689 38.7954 L160.7522 38.7954 "/>
<path d="M134.2689 171.2118 L134.2689 38.7954 "/>
<path d="M154.1314 171.2118 L134.2689 171.2118 "/>
<path d="M160.7522 38.7954 L160.7522 164.5910 "/>
<path d="M160.7522 164.5910 L154.1314 171.2118 "/>
</g>
<g style="fill:none;  stroke:#848484; stroke-width:1.9862; stroke-opacity:1;  stroke-linecap:round; stroke-linejoin:round;">
<circle cx="122.0178" cy="25.5537" r="15.6384"/> 
</g>
<g style="fill:none;  stroke:#848484; stroke-width:0.5213; stroke-opacity:1;  stroke-linecap:round; stroke-linejoin:round;">
<path d="M177.7474 63.9754 L198.8611 63.9754 "/>
<path d="M177.7474 136.9608 L181.4337 134.3542 "/>
<path d="M177.7474 146.0840 L177.7474 63.9754 "/>
<path d="M177.7474 146.0840 L198.8611 146.0840 "/>
<path d="M181.4337 134.3542 L177.7474 131.7476 "/>
<path d="M198.8611 146.0840 L198.8611 63.9754 "/>
</g>
<g style="fill:none;  stroke:#848484; stroke-width:0.1105; stroke-opacity:1;  stroke-linecap:round; stroke-linejoin:round;">
<circle cx="174.9844" cy="25.5537" r="15.6397"/> 
</g>
<g style="fill:none;  stroke:#848484; stroke-width:0.1105; stroke-opacity:1;  stroke-linecap:round; stroke-linejoin:round;">
<circle cx="174.9844" cy="184.4535" r="15.6397"/> 
</g>
<g style="fill:none;  stroke:#848484; stroke-width:0.1105; stroke-opacity:1;  stroke-linecap:round; stroke-linejoin:round;">
<circle cx="122.0178" cy="184.4535" r="15.6397"/> 
<path style="fill:none;  stroke:#848484; stroke-width:0.1105; stroke-opacity:1;  stroke-linecap:round; stroke-linejoin:round;fill:none" d="M 158.5627,160.1598 158.5627,169.0223 149.7001,169.0223 149.7001,160.1598 Z"/> 
</g>
<g style="fill:none;  stroke:#848484; stroke-width:0.1105; stroke-opacity:1;  stroke-linecap:round; stroke-linejoin:round;">
<path d="M145.3210 164.5910 L145.3210 164.5910 "/>
<path d="M145.3210 164.5910 A4.4313 4.4313 0.0 0 0 136.4585 164.5910"/>
<path d="M136.4585 164.5910 L136.4585 164.5910 "/>
<path d="M136.4585 164.5910 A4.4313 4.4313 0.0 0 0 145.3210 164.5910"/>
</g>
<g style="fill:none;  stroke:#848484; stroke-width:0.1105; stroke-opacity:1;  stroke-linecap:round; stroke-linejoin:round;">
<path d="M158.5627 151.3494 L158.5627 151.3494 "/>
<path d="M158.5627 151.3494 A4.4313 4.4313 0.0 0 0 149.7001 151.3494"/>
<path d="M149.7001 151.3494 L149.7001 151.3494 "/>
<path d="M149.7001 151.3494 A4.4313 4.4313 0.0 0 0 158.5627 151.3494"/>
</g>
<g style="fill:none;  stroke:#848484; stroke-width:0.1105; stroke-opacity:1;  stroke-linecap:round; stroke-linejoin:round;">
<path d="M145.3210 151.3494 L145.3210 151.3494 "/>
<path d="M145.3210 151.3494 A4.4313 4.4313 0.0 0 0 136.4585 151.3494"/>
<path d="M136.4585 151.3494 L136.4585 151.3494 "/>
<path d="M136.4585 151.3494 A4.4313 4.4313 0.0 0 0 145.3210 151.3494"/>
</g>
<g style="fill:none;  stroke:#848484; stroke-width:0.1105; stroke-opacity:1;  stroke-linecap:round; stroke-linejoin:round;">
<path d="M158.5627 138.1077 L158.5627 138.1077 "/>
<path d="M158.5627 138.1077 A4.4313 4.4313 0.0 0 0 149.7001 138.1077"/>
<path d="M149.7001 138.1077 L149.7001 138.1077 "/>
<path d="M149.7001 138.1077 A4.4313 4.4313 0.0 0 0 158.5627 138.1077"/>
</g>
<g style="fill:none;  stroke:#848484; stroke-width:0.1105; stroke-opacity:1;  stroke-linecap:round; stroke-linejoin:round;">
<path d="M145.3210 138.1077 L145.3210 138.1077 "/>
<path d="M145.3210 138.1077 A4.4313 4.4313 0.0 0 0 136.4585 138.1077"/>
<path d="M136.4585 138.1077 L136.4585 138.1077 "/>
<path d="M136.4585 138.1077 A4.4313 4.4313 0.0 0 0 145.3210 138.1077"/>
</g>
<g style="fill:none;  stroke:#848484; stroke-width:0.1105; stroke-opacity:1;  stroke-linecap:round; stroke-linejoin:round;">
<path d="M158.5627 124.8661 L158.5627 124.8661 "/>
<path d="M158.5627 124.8661 A4.4313 4.4313 0.0 0 0 149.7001 124.8661"/>
<path d="M149.7001 124.8661 L149.7001 124.8661 "/>
<path d="M149.7001 124.8661 A4.4313 4.4313 0.0 0 0 158.5627 124.8661"/>
</g>
<g style="fill:none;  stroke:#848484; stroke-width:0.1105; stroke-opacity:1;  stroke-linecap:round; stroke-linejoin:round;">
<path d="M145.3210 124.8661 L145.3210 124.8661 "/>
<path d="M145.3210 124.8661 A4.4313 4.4313 0.0 0 0 136.4585 124.8661"/>
<path d="M136.4585 124.8661 L136.4585 124.8661 "/>
<path d="M136.4585 124.8661 A4.4313 4.4313 0.0 0 0 145.3210 124.8661"/>
</g>
<g style="fill:none;  stroke:#848484; stroke-width:0.1105; stroke-opacity:1;  stroke-linecap:round; stroke-linejoin:round;">
<path d="M158.5627 111.6244 L158.5627 111.6244 "/>
<path d="M158.5627 111.6244 A4.4313 4.4313 0.0 0 0 149.7001 111.6244"/>
<path d="M149.7001 111.6244 L149.7001 111.6244 "/>
<path d="M149.7001 111.6244 A4.4313 4.4313 0.0 0 0 158.5627 111.6244"/>
</g>
<g style="fill:none;  stroke:#848484; stroke-width:0.1105; stroke-opacity:1;  stroke-linecap:round; stroke-linejoin:round;">
<path d="M145.3210 111.6244 L145.3210 111.6244 "/>
<path d="M145.3210 111.6244 A4.4313 4.4313 0.0 0 0 136.4585 111.6244"/>
<path d="M136.4585 111.6244 L136.4585 111.6244 "/>
<path d="M136.4585 111.6244 A4.4313 4.4313 0.0 0 0 145.3210 111.6244"/>
</g>
<g style="fill:none;  stroke:#848484; stroke-width:0.1105; stroke-opacity:1;  stroke-linecap:round; stroke-linejoin:round;">
<path d="M158.5627 98.3828 L158.5627 98.3828 "/>
<path d="M158.5627 98.3828 A4.4313 4.4313 0.0 0 0 149.7001 98.3828"/>
<path d="M149.7001 98.3828 L149.7001 98.3828 "/>
<path d="M149.7001 98.3828 A4.4313 4.4313 0.0 0 0 158.5627 98.3828"/>
</g>
<g style="fill:none;  stroke:#848484; stroke-width:0.1105; stroke-opacity:1;  stroke-linecap:round; stroke-linejoin:round;">
<path d="M145.3210 98.3828 L145.3210 98.3828 "/>
<path d="M145.3210 98.3828 A4.4313 4.4313 0.0 0 0 136.4585 98.3828"/>
<path d="M136.4585 98.3828 L136.4585 98.3828 "/>
<path d="M136.4585 98.3828 A4.4313 4.4313 0.0 0 0 145.3210 98.3828"/>
</g>
<g style="fill:none;  stroke:#848484; stroke-width:0.1105; stroke-opacity:1;  stroke-linecap:round; stroke-linejoin:round;">
<path d="M158.5627 85.1411 L158.5627 85.1411 "/>
<path d="M158.5627 85.1411 A4.4313 4.4313 0.0 0 0 149.7001 85.1411"/>
<path d="M149.7001 85.1411 L149.7001 85.1411 "/>
<path d="M149.7001 85.1411 A4.4313 4.4313 0.0 0 0 158.5627 85.1411"/>
</g>
<g style="fill:none;  stroke:#848484; stroke-width:0.1105; stroke-opacity:1;  stroke-linecap:round; stroke-linejoin:round;">
<path d="M145.3210 85.1411 L145.3210 85.1411 "/>
<path d="M145.3210 85.1411 A4.4313 4.4313 0.0 0 0 136.4585 85.1411"/>
<path d="M136.4585 85.1411 L136.4585 85.1411 "/>
<path d="M136.4585 85.1411 A4.4313 4.4313 0.0 0 0 145.3210 85.1411"/>
</g>
<g style="fill:none;  stroke:#848484; stroke-width:0.1105; stroke-opacity:1;  stroke-linecap:round; stroke-linejoin:round;">
<path d="M158.5627 71.8995 L158.5627 71.8995 "/>
<path d="M158.5627 71.8995 A4.4313 4.4313 0.0 0 0 149.7001 71.8995"/>
<path d="M149.7001 71.8995 L149.7001 71.8995 "/>
<path d="M149.7001 71.8995 A4.4313 4.4313 0.0 0 0 158.5627 71.8995"/>
</g>
<g style="fill:none;  stroke:#848484; stroke-width:0.1105; stroke-opacity:1;  stroke-linecap:round; stroke-linejoin:round;">
<path d="M145.3210 71.8995 L145.3210 71.8995 "/>
<path d="M145.3210 71.8995 A4.4313 4.4313 0.0 0 0 136.4585 71.8995"/>
<path d="M136.4585 71.8995 L136.4585 71.8995 "/>
<path d="M136.4585 71.8995 A4.4313 4.4313 0.0 0 0 145.3210 71.8995"/>
</g>
<g style="fill:none;  stroke:#848484; stroke-width:0.1105; stroke-opacity:1;  stroke-linecap:round; stroke-linejoin:round;">
<path d="M158.5627 58.6578 L158.5627 58.6578 "/>
<path d="M158.5627 58.6578 A4.4313 4.4313 0.0 0 0 149.7001 58.6578"/>
<path d="M149.7001 58.6578 L149.7001 58.6578 "/>
<path d="M149.7001 58.6578 A4.4313 4.4313 0.0 0 0 158.5627 58.6578"/>
</g>
<g style="fill:none;  stroke:#848484; stroke-width:0.1105; stroke-opacity:1;  stroke-linecap:round; stroke-linejoin:round;">
<path d="M145.3210 58.6578 L145.3210 58.6578 "/>
<path d="M145.3210 58.6578 A4.4313 4.4313 0.0 0 0 136.4585 58.6578"/>
<path d="M136.4585 58.6578 L136.4585 58.6578 "/>
<path d="M136.4585 58.6578 A4.4313 4.4313 0.0 0 0 145.3210 58.6578"/>
</g>
<g style="fill:none;  stroke:#848484; stroke-width:0.1105; stroke-opacity:1;  stroke-linecap:round; stroke-linejoin:round;">
<path d="M158.5627 45.4162 L158.5627 45.4162 "/>
<path d="M158.5627 45.4162 A4.4313 4.4313 0.0 0 0 149.7001 45.4162"/>
<path d="M149.7001 45.4162 L149.7001 45.4162 "/>
<path d="M149.7001 45.4162 A4.4313 4.4313 0.0 0 0 158.5627 45.4162"/>
</g>
<g style="fill:none;  stroke:#848484; stroke-width:0.1105; stroke-opacity:1;  stroke-linecap:round; stroke-linejoin:round;">
<path d="M145.3210 45.4162 L145.3210 45.4162 "/>
<path d="M145.3210 45.4162 A4.4313 4.4313 0.0 0 0 136.4585 45.4162"/>
<path d="M136.4585 45.4162 L136.4585 45.4162 "/>
<path d="M136.4585 45.4162 A4.4313 4.4313 0.0 0 0 145.3210 45.4162"/>
</g>
<g style="fill:none;  stroke:#848484; stroke-width:0.1105; stroke-opacity:1;  stroke-linecap:round; stroke-linejoin:round;">
<circle cx="122.0178" cy="25.5537" r="15.6397"/> 
<path style="fill:none;  stroke:#848484; stroke-width:0.1105; stroke-opacity:1;  stroke-linecap:round; stroke-linejoin:round;fill:none" d="M 172.7948,135.9182 172.4956,135.8586 172.2419,135.6891 172.0724,135.4354 172.0128,135.1362 172.0128,133.5722 172.0724,133.2729 172.2419,133.0192 172.4956,132.8497 172.7948,132.7902 180.0934,132.7902 180.3926,132.8497 180.6463,133.0192 180.8158,133.2729 180.8754,133.5722 180.8754,135.1362 180.8158,135.4354 180.6463,135.6891 180.3926,135.8586 180.0934,135.9182 Z"/> 
<path style="fill:none;  stroke:#848484; stroke-width:0.1105; stroke-opacity:1;  stroke-linecap:round; stroke-linejoin:round;fill:none" d="M 172.7948,129.4016 172.4956,129.3421 172.2419,129.1726 172.0724,128.9189 172.0128,128.6196 172.0128,127.0556 172.0724,126.7564 172.2419,126.5027 172.4956,126.3332 172.7948,126.2736 180.0934,126.2736 180.3926,126.3332 180.6463,126.5027 180.8158,126.7564 180.8754,127.0556 180.8754,128.6196 180.8158,128.9189 180.6463,129.1726 180.3926,129.3421 180.0934,129.4016 Z"/> 
<path style="fill:none;  stroke:#848484; stroke-width:0.1105; stroke-opacity:1;  stroke-linecap:round; stroke-linejoin:round;fill:none" d="M 172.7948,122.8850 172.4956,122.8255 172.2419,122.6560 172.0724,122.4023 172.0128,122.1031 172.0128,120.5391 172.0724,120.2398 172.2419,119.9861 172.4956,119.8166 172.7948,119.7571 180.0934,119.7571 180.3926,119.8166 180.6463,119.9861 180.8158,120.2398 180.8754,120.5391 180.8754,122.1031 180.8158,122.4023 180.6463,122.6560 180.3926,122.8255 180.0934,122.8850 Z"/> 
<path style="fill:none;  stroke:#848484; stroke-width:0.1105; stroke-opacity:1;  stroke-linecap:round; stroke-linejoin:round;fill:none" d="M 172.7948,116.3685 172.4956,116.3090 172.2419,116.1394 172.0724,115.8857 172.0128,115.5865 172.0128,114.0225 172.0724,113.7233 172.2419,113.4696 172.4956,113.3001 172.7948,113.2405 180.0934,113.2405 180.3926,113.3001 180.6463,113.4696 180.8158,113.7233 180.8754,114.0225 180.8754,115.5865 180.8158,115.8857 180.6463,116.1394 180.3926,116.3090 180.0934,116.3685 Z"/> 
<path style="fill:none;  stroke:#848484; stroke-width:0.1105; stroke-opacity:1;  stroke-linecap:round; stroke-linejoin:round;fill:none" d="M 172.7948,109.8519 172.4956,109.7924 172.2419,109.6229 172.0724,109.3692 172.0128,109.0699 172.0128,107.5060 172.0724,107.2067 172.2419,106.9530 172.4956,106.7835 172.7948,106.7240 180.0934,106.7240 180.3926,106.7835 180.6463,106.9530 180.8158,107.2067 180.8754,107.5060 180.8754,109.0699 180.8158,109.3692 180.6463,109.6229 180.3926,109.7924 180.0934,109.8519 Z"/> 
<path style="fill:none;  stroke:#848484; stroke-width:0.1105; stroke-opacity:1;  stroke-linecap:round; stroke-linejoin:round;fill:none" d="M 172.7948,103.3354 172.4956,103.2758 172.2419,103.1063 172.0724,102.8526 172.0128,102.5534 172.0128,100.9894 172.0724,100.6901 172.2419,100.4365 172.4956,100.2669 172.7948,100.2074 180.0934,100.2074 180.3926,100.2669 180.6463,100.4365 180.8158,100.6901 180.8754,100.9894 180.8754,102.5534 180.8158,102.8526 180.6463,103.1063 180.3926,103.2758 180.0934,103.3354 Z"/> 
<path style="fill:none;  stroke:#848484; stroke-width:0.1105; stroke-opacity:1;  stroke-linecap:round; stroke-linejoin:round;fill:none" d="M 172.7948,96.8188 172.4956,96.7593 172.2419,96.5898 172.0724,96.3361 172.0128,96.0368 172.0128,94.4728 172.0724,94.1736 172.2419,93.9199 172.4956,93.7504 172.7948,93.6909 180.0934,93.6909 180.3926,93.7504 180.6463,93.9199 180.8158,94.1736 180.8754,94.4728 180.8754,96.0368 180.8158,96.3361 180.6463,96.5898 180.3926,96.7593 180.0934,96.8188 Z"/> 
<path style="fill:none;  stroke:#848484; stroke-width:0.1105; stroke-opacity:1;  stroke-linecap:round; stroke-linejoin:round;fill:none" d="M 172.7948,90.3022 172.4956,90.2427 172.2419,90.0732 172.0724,89.8195 172.0128,89.5203 172.0128,87.9563 172.0724,87.6570 172.2419,87.4033 172.4956,87.2338 172.7948,87.1743 180.0934,87.1743 180.3926,87.2338 180.6463,87.4033 180.8158,87.6570 180.8754,87.9563 180.8754,89.5203 180.8158,89.8195 180.6463,90.0732 180.3926,90.2427 180.0934,90.3022 Z"/> 
<path style="fill:none;  stroke:#848484; stroke-width:0.1105; stroke-opacity:1;  stroke-linecap:round; stroke-linejoin:round;fill:none" d="M 172.7948,83.7857 172.4956,83.7262 172.2419,83.5566 172.0724,83.3030 172.0128,83.0037 172.0128,81.4397 172.0724,81.1405 172.2419,80.8868 172.4956,80.7173 172.7948,80.6577 180.0934,80.6577 180.3926,80.7173 180.6463,80.8868 180.8158,81.1405 180.8754,81.4397 180.8754,83.0037 180.8158,83.3030 180.6463,83.5566 180.3926,83.7262 180.0934,83.7857 Z"/> 
<path style="fill:none;  stroke:#848484; stroke-width:0.1105; stroke-opacity:1;  stroke-linecap:round; stroke-linejoin:round;fill:none" d="M 172.7948,77.2691 172.4956,77.2096 172.2419,77.0401 172.0724,76.7864 172.0128,76.4871 172.0128,74.9232 172.0724,74.6239 172.2419,74.3702 172.4956,74.2007 172.7948,74.1412 180.0934,74.1412 180.3926,74.2007 180.6463,74.3702 180.8158,74.6239 180.8754,74.9232 180.8754,76.4871 180.8158,76.7864 180.6463,77.0401 180.3926,77.2096 180.0934,77.2691 Z"/> 
<path style="fill:none;  stroke:#848484; stroke-width:0.1105; stroke-opacity:1;  stroke-linecap:round; stroke-linejoin:round;fill:none" d="M 187.3919,146.6053 186.8932,146.5061 186.4703,146.2236 186.1878,145.8008 186.0886,145.3020 186.0886,142.6954 186.1878,142.1966 186.4703,141.7738 186.8932,141.4913 187.3919,141.3921 198.8611,141.3921 199.3598,141.4913 199.7826,141.7738 200.0652,142.1966 200.1644,142.6954 200.1644,145.3020 200.0652,145.8008 199.7826,146.2236 199.3598,146.5061 198.8611,146.6053 Z"/> 
<path style="fill:none;  stroke:#848484; stroke-width:0.1105; stroke-opacity:1;  stroke-linecap:round; stroke-linejoin:round;fill:none" d="M 187.3919,68.6673 186.8932,68.5681 186.4703,68.2855 186.1878,67.8627 186.0886,67.3640 186.0886,64.7573 186.1878,64.2586 186.4703,63.8358 186.8932,63.5532 187.3919,63.4540 198.8611,63.4540 199.3598,63.5532 199.7826,63.8358 200.0652,64.2586 200.1644,64.7573 200.1644,67.3640 200.0652,67.8627 199.7826,68.2855 199.3598,68.5681 198.8611,68.6673 Z"/> 
</g> 
<svg:g><svg:g><svg:title>SVG Image created as GHxPIN01-Edge_Cuts1.svg date 2024/11/07 23:08:51 </svg:title>
  <svg:desc>Image generated by PCBNEW </svg:desc>
<svg:g style="fill:#C2C200; fill-opacity:1.0000;stroke:#C2C200; stroke-opacity:1.0000; stroke-linecap:round; stroke-linejoin:round;" transform="translate(0 0) scale(1 1)">
<svg:path style="fill:none;  stroke:#C2C200; stroke-width:0.7820; stroke-opacity:1;  stroke-linecap:round; stroke-linejoin:round;fill:none" d="M 96.8587,0.3946 200.1435,0.3946 200.1435,209.6126 96.8587,209.6126 Z"/> 
</svg:g> 
</svg:g></svg:g></svg>
