<?xml version='1.0' encoding='ASCII' standalone='yes'?>
<svg xmlns:svg="http://www.w3.org/2000/svg" xmlns="http://www.w3.org/2000/svg" xmlns:xlink="http://www.w3.org/1999/xlink" version="1.1" width="297.0022mm" height="210.0072mm" viewBox="0.0000 0.0000 297.0022 210.0072">
<title>SVG Image created as GHxPIN01-B_Fab0.svg date 2024/11/07 23:08:51 </title>
  <desc>Image generated by PCBNEW </desc>
<g style="fill:#000084; fill-opacity:1.0000;stroke:#000084; stroke-opacity:1.0000; stroke-linecap:round; stroke-linejoin:round;" transform="translate(0 0) scale(1 1)">
</g>
<g style="fill:none;  stroke:#000084; stroke-width:0.7820; stroke-opacity:1;  stroke-linecap:round; stroke-linejoin:round;">
<text x="148.2363" y="212.3172" textLength="32.0863" font-size="6.9510" lengthAdjust="spacingAndGlyphs" text-anchor="middle" opacity="0" stroke-opacity="0">Fiducial</text>
<g class="stroked-text"><desc>Fiducial</desc>
<path d="M135.8238 209.3510 L134.0860 209.3510 "/>
<path d="M134.0860 212.0817 L134.0860 206.8685 "/>
<path d="M134.0860 206.8685 L136.5685 206.8685 "/>
<path d="M138.5545 212.0817 L138.5545 208.6062 "/>
<path d="M138.5545 206.8685 L138.3063 207.1167 "/>
<path d="M138.3063 207.1167 L138.5545 207.3650 "/>
<path d="M138.5545 207.3650 L138.8028 207.1167 "/>
<path d="M138.8028 207.1167 L138.5545 206.8685 "/>
<path d="M138.5545 206.8685 L138.5545 207.3650 "/>
<path d="M143.2713 212.0817 L143.2713 206.8685 "/>
<path d="M143.2713 211.8335 L142.7748 212.0817 "/>
<path d="M142.7748 212.0817 L141.7818 212.0817 "/>
<path d="M141.7818 212.0817 L141.2853 211.8335 "/>
<path d="M141.2853 211.8335 L141.0370 211.5852 "/>
<path d="M141.0370 211.5852 L140.7888 211.0887 "/>
<path d="M140.7888 211.0887 L140.7888 209.5992 "/>
<path d="M140.7888 209.5992 L141.0370 209.1027 "/>
<path d="M141.0370 209.1027 L141.2853 208.8545 "/>
<path d="M141.2853 208.8545 L141.7818 208.6062 "/>
<path d="M141.7818 208.6062 L142.7748 208.6062 "/>
<path d="M142.7748 208.6062 L143.2713 208.8545 "/>
<path d="M147.9880 208.6062 L147.9880 212.0817 "/>
<path d="M145.7538 208.6062 L145.7538 211.3369 "/>
<path d="M145.7538 211.3369 L146.0020 211.8335 "/>
<path d="M146.0020 211.8335 L146.4985 212.0817 "/>
<path d="M146.4985 212.0817 L147.2433 212.0817 "/>
<path d="M147.2433 212.0817 L147.7398 211.8335 "/>
<path d="M147.7398 211.8335 L147.9880 211.5852 "/>
<path d="M152.7048 211.8335 L152.2083 212.0817 "/>
<path d="M152.2083 212.0817 L151.2153 212.0817 "/>
<path d="M151.2153 212.0817 L150.7188 211.8335 "/>
<path d="M150.7188 211.8335 L150.4705 211.5852 "/>
<path d="M150.4705 211.5852 L150.2223 211.0887 "/>
<path d="M150.2223 211.0887 L150.2223 209.5992 "/>
<path d="M150.2223 209.5992 L150.4705 209.1027 "/>
<path d="M150.4705 209.1027 L150.7188 208.8545 "/>
<path d="M150.7188 208.8545 L151.2153 208.6062 "/>
<path d="M151.2153 208.6062 L152.2083 208.6062 "/>
<path d="M152.2083 208.6062 L152.7048 208.8545 "/>
<path d="M154.9390 212.0817 L154.9390 208.6062 "/>
<path d="M154.9390 206.8685 L154.6908 207.1167 "/>
<path d="M154.6908 207.1167 L154.9390 207.3650 "/>
<path d="M154.9390 207.3650 L155.1873 207.1167 "/>
<path d="M155.1873 207.1167 L154.9390 206.8685 "/>
<path d="M154.9390 206.8685 L154.9390 207.3650 "/>
<path d="M159.6558 212.0817 L159.6558 209.3510 "/>
<path d="M159.6558 209.3510 L159.4075 208.8545 "/>
<path d="M159.4075 208.8545 L158.9110 208.6062 "/>
<path d="M158.9110 208.6062 L157.9180 208.6062 "/>
<path d="M157.9180 208.6062 L157.4215 208.8545 "/>
<path d="M159.6558 211.8335 L159.1593 212.0817 "/>
<path d="M159.1593 212.0817 L157.9180 212.0817 "/>
<path d="M157.9180 212.0817 L157.4215 211.8335 "/>
<path d="M157.4215 211.8335 L157.1733 211.3369 "/>
<path d="M157.1733 211.3369 L157.1733 210.8404 "/>
<path d="M157.1733 210.8404 L157.4215 210.3439 "/>
<path d="M157.4215 210.3439 L157.9180 210.0957 "/>
<path d="M157.9180 210.0957 L159.1593 210.0957 "/>
<path d="M159.1593 210.0957 L159.6558 209.8474 "/>
<path d="M162.8830 212.0817 L162.3865 211.8335 "/>
<path d="M162.3865 211.8335 L162.1383 211.3369 "/>
<path d="M162.1383 211.3369 L162.1383 206.8685 "/>
</g></g>
<g style="fill:none;  stroke:#000084; stroke-width:0.3128; stroke-opacity:1;  stroke-linecap:round; stroke-linejoin:round;">
<text x="148.2363" y="200.3268" textLength="7.3730" font-size="2.7804" lengthAdjust="spacingAndGlyphs" text-anchor="middle" opacity="0" stroke-opacity="0">FID2</text>
<g class="stroked-text"><desc>FID2</desc>
<path d="M146.0020 199.1403 L145.3069 199.1403 "/>
<path d="M145.3069 200.2326 L145.3069 198.1473 "/>
<path d="M145.3069 198.1473 L146.2999 198.1473 "/>
<path d="M147.0943 200.2326 L147.0943 198.1473 "/>
<path d="M148.0873 200.2326 L148.0873 198.1473 "/>
<path d="M148.0873 198.1473 L148.5838 198.1473 "/>
<path d="M148.5838 198.1473 L148.8817 198.2466 "/>
<path d="M148.8817 198.2466 L149.0803 198.4452 "/>
<path d="M149.0803 198.4452 L149.1796 198.6438 "/>
<path d="M149.1796 198.6438 L149.2789 199.0410 "/>
<path d="M149.2789 199.0410 L149.2789 199.3389 "/>
<path d="M149.2789 199.3389 L149.1796 199.7361 "/>
<path d="M149.1796 199.7361 L149.0803 199.9347 "/>
<path d="M149.0803 199.9347 L148.8817 200.1333 "/>
<path d="M148.8817 200.1333 L148.5838 200.2326 "/>
<path d="M148.5838 200.2326 L148.0873 200.2326 "/>
<path d="M150.0733 198.3459 L150.1726 198.2466 "/>
<path d="M150.1726 198.2466 L150.3712 198.1473 "/>
<path d="M150.3712 198.1473 L150.8677 198.1473 "/>
<path d="M150.8677 198.1473 L151.0663 198.2466 "/>
<path d="M151.0663 198.2466 L151.1656 198.3459 "/>
<path d="M151.1656 198.3459 L151.2649 198.5445 "/>
<path d="M151.2649 198.5445 L151.2649 198.7431 "/>
<path d="M151.2649 198.7431 L151.1656 199.0410 "/>
<path d="M151.1656 199.0410 L149.9740 200.2326 "/>
<path d="M149.9740 200.2326 L151.2649 200.2326 "/>
</g></g>
<g style="fill:none;  stroke:#000084; stroke-width:0.7820; stroke-opacity:1;  stroke-linecap:round; stroke-linejoin:round;">
<text x="148.5011" y="24.5820" textLength="32.0863" font-size="6.9510" lengthAdjust="spacingAndGlyphs" text-anchor="middle" opacity="0" stroke-opacity="0">Fiducial</text>
<g class="stroked-text"><desc>Fiducial</desc>
<path d="M136.0886 21.6157 L134.3509 21.6157 "/>
<path d="M134.3509 24.3464 L134.3509 19.1332 "/>
<path d="M134.3509 19.1332 L136.8334 19.1332 "/>
<path d="M138.8194 24.3464 L138.8194 20.8709 "/>
<path d="M138.8194 19.1332 L138.5711 19.3814 "/>
<path d="M138.5711 19.3814 L138.8194 19.6297 "/>
<path d="M138.8194 19.6297 L139.0676 19.3814 "/>
<path d="M139.0676 19.3814 L138.8194 19.1332 "/>
<path d="M138.8194 19.1332 L138.8194 19.6297 "/>
<path d="M143.5361 24.3464 L143.5361 19.1332 "/>
<path d="M143.5361 24.0982 L143.0396 24.3464 "/>
<path d="M143.0396 24.3464 L142.0466 24.3464 "/>
<path d="M142.0466 24.3464 L141.5501 24.0982 "/>
<path d="M141.5501 24.0982 L141.3019 23.8499 "/>
<path d="M141.3019 23.8499 L141.0536 23.3534 "/>
<path d="M141.0536 23.3534 L141.0536 21.8639 "/>
<path d="M141.0536 21.8639 L141.3019 21.3674 "/>
<path d="M141.3019 21.3674 L141.5501 21.1192 "/>
<path d="M141.5501 21.1192 L142.0466 20.8709 "/>
<path d="M142.0466 20.8709 L143.0396 20.8709 "/>
<path d="M143.0396 20.8709 L143.5361 21.1192 "/>
<path d="M148.2529 20.8709 L148.2529 24.3464 "/>
<path d="M146.0186 20.8709 L146.0186 23.6017 "/>
<path d="M146.0186 23.6017 L146.2669 24.0982 "/>
<path d="M146.2669 24.0982 L146.7634 24.3464 "/>
<path d="M146.7634 24.3464 L147.5081 24.3464 "/>
<path d="M147.5081 24.3464 L148.0046 24.0982 "/>
<path d="M148.0046 24.0982 L148.2529 23.8499 "/>
<path d="M152.9696 24.0982 L152.4731 24.3464 "/>
<path d="M152.4731 24.3464 L151.4801 24.3464 "/>
<path d="M151.4801 24.3464 L150.9836 24.0982 "/>
<path d="M150.9836 24.0982 L150.7354 23.8499 "/>
<path d="M150.7354 23.8499 L150.4871 23.3534 "/>
<path d="M150.4871 23.3534 L150.4871 21.8639 "/>
<path d="M150.4871 21.8639 L150.7354 21.3674 "/>
<path d="M150.7354 21.3674 L150.9836 21.1192 "/>
<path d="M150.9836 21.1192 L151.4801 20.8709 "/>
<path d="M151.4801 20.8709 L152.4731 20.8709 "/>
<path d="M152.4731 20.8709 L152.9696 21.1192 "/>
<path d="M155.2039 24.3464 L155.2039 20.8709 "/>
<path d="M155.2039 19.1332 L154.9556 19.3814 "/>
<path d="M154.9556 19.3814 L155.2039 19.6297 "/>
<path d="M155.2039 19.6297 L155.4521 19.3814 "/>
<path d="M155.4521 19.3814 L155.2039 19.1332 "/>
<path d="M155.2039 19.1332 L155.2039 19.6297 "/>
<path d="M159.9206 24.3464 L159.9206 21.6157 "/>
<path d="M159.9206 21.6157 L159.6723 21.1192 "/>
<path d="M159.6723 21.1192 L159.1758 20.8709 "/>
<path d="M159.1758 20.8709 L158.1828 20.8709 "/>
<path d="M158.1828 20.8709 L157.6863 21.1192 "/>
<path d="M159.9206 24.0982 L159.4241 24.3464 "/>
<path d="M159.4241 24.3464 L158.1828 24.3464 "/>
<path d="M158.1828 24.3464 L157.6863 24.0982 "/>
<path d="M157.6863 24.0982 L157.4381 23.6017 "/>
<path d="M157.4381 23.6017 L157.4381 23.1052 "/>
<path d="M157.4381 23.1052 L157.6863 22.6087 "/>
<path d="M157.6863 22.6087 L158.1828 22.3604 "/>
<path d="M158.1828 22.3604 L159.4241 22.3604 "/>
<path d="M159.4241 22.3604 L159.9206 22.1122 "/>
<path d="M163.1478 24.3464 L162.6513 24.0982 "/>
<path d="M162.6513 24.0982 L162.4031 23.6017 "/>
<path d="M162.4031 23.6017 L162.4031 19.1332 "/>
</g></g>
<g style="fill:none;  stroke:#000084; stroke-width:0.3128; stroke-opacity:1;  stroke-linecap:round; stroke-linejoin:round;">
<text x="148.5011" y="12.5915" textLength="7.3730" font-size="2.7804" lengthAdjust="spacingAndGlyphs" text-anchor="middle" opacity="0" stroke-opacity="0">FID1</text>
<g class="stroked-text"><desc>FID1</desc>
<path d="M146.2669 11.4050 L145.5718 11.4050 "/>
<path d="M145.5718 12.4973 L145.5718 10.4120 "/>
<path d="M145.5718 10.4120 L146.5648 10.4120 "/>
<path d="M147.3592 12.4973 L147.3592 10.4120 "/>
<path d="M148.3522 12.4973 L148.3522 10.4120 "/>
<path d="M148.3522 10.4120 L148.8487 10.4120 "/>
<path d="M148.8487 10.4120 L149.1466 10.5113 "/>
<path d="M149.1466 10.5113 L149.3452 10.7099 "/>
<path d="M149.3452 10.7099 L149.4445 10.9085 "/>
<path d="M149.4445 10.9085 L149.5438 11.3057 "/>
<path d="M149.5438 11.3057 L149.5438 11.6036 "/>
<path d="M149.5438 11.6036 L149.4445 12.0008 "/>
<path d="M149.4445 12.0008 L149.3452 12.1994 "/>
<path d="M149.3452 12.1994 L149.1466 12.3980 "/>
<path d="M149.1466 12.3980 L148.8487 12.4973 "/>
<path d="M148.8487 12.4973 L148.3522 12.4973 "/>
<path d="M151.5298 12.4973 L150.3382 12.4973 "/>
<path d="M150.9340 12.4973 L150.9340 10.4120 "/>
<path d="M150.9340 10.4120 L150.7354 10.7099 "/>
<path d="M150.7354 10.7099 L150.5368 10.9085 "/>
<path d="M150.5368 10.9085 L150.3382 11.0078 "/>
</g></g>
<g style="fill:none;  stroke:#000084; stroke-width:0.5213; stroke-opacity:1;  stroke-linecap:round; stroke-linejoin:round;">
<circle cx="148.2363" cy="199.2841" r="5.2132"/> 
<circle cx="148.5011" cy="11.5489" r="5.2132"/> 
</g>
<g style="fill:none;  stroke:#000084; stroke-width:0.1105; stroke-opacity:1;  stroke-linecap:round; stroke-linejoin:round;">
<circle cx="122.0178" cy="25.5537" r="15.6397"/> 
</g>
<g style="fill:none;  stroke:#000084; stroke-width:0.1105; stroke-opacity:1;  stroke-linecap:round; stroke-linejoin:round;">
<circle cx="122.0178" cy="184.4535" r="15.6397"/> 
</g>
<g style="fill:none;  stroke:#000084; stroke-width:0.1105; stroke-opacity:1;  stroke-linecap:round; stroke-linejoin:round;">
<circle cx="174.9844" cy="184.4535" r="15.6397"/> 
<path style="fill:none;  stroke:#000084; stroke-width:0.1105; stroke-opacity:1;  stroke-linecap:round; stroke-linejoin:round;fill:none" d="M 138.4395,160.1598 138.4395,169.0223 147.3021,169.0223 147.3021,160.1598 Z"/> 
</g>
<g style="fill:none;  stroke:#000084; stroke-width:0.1105; stroke-opacity:1;  stroke-linecap:round; stroke-linejoin:round;">
<path d="M151.6812 164.5910 L151.6812 164.5910 "/>
<path d="M160.5437 164.5910 A4.4313 4.4313 0.0 0 0 151.6812 164.5910"/>
<path d="M160.5437 164.5910 L160.5437 164.5910 "/>
<path d="M151.6812 164.5910 A4.4313 4.4313 0.0 0 0 160.5437 164.5910"/>
</g>
<g style="fill:none;  stroke:#000084; stroke-width:0.1105; stroke-opacity:1;  stroke-linecap:round; stroke-linejoin:round;">
<path d="M138.4395 151.3494 L138.4395 151.3494 "/>
<path d="M147.3021 151.3494 A4.4313 4.4313 0.0 0 0 138.4395 151.3494"/>
<path d="M147.3021 151.3494 L147.3021 151.3494 "/>
<path d="M138.4395 151.3494 A4.4313 4.4313 0.0 0 0 147.3021 151.3494"/>
</g>
<g style="fill:none;  stroke:#000084; stroke-width:0.1105; stroke-opacity:1;  stroke-linecap:round; stroke-linejoin:round;">
<path d="M151.6812 151.3494 L151.6812 151.3494 "/>
<path d="M160.5437 151.3494 A4.4313 4.4313 0.0 0 0 151.6812 151.3494"/>
<path d="M160.5437 151.3494 L160.5437 151.3494 "/>
<path d="M151.6812 151.3494 A4.4313 4.4313 0.0 0 0 160.5437 151.3494"/>
</g>
<g style="fill:none;  stroke:#000084; stroke-width:0.1105; stroke-opacity:1;  stroke-linecap:round; stroke-linejoin:round;">
<path d="M138.4395 138.1077 L138.4395 138.1077 "/>
<path d="M147.3021 138.1077 A4.4313 4.4313 0.0 0 0 138.4395 138.1077"/>
<path d="M147.3021 138.1077 L147.3021 138.1077 "/>
<path d="M138.4395 138.1077 A4.4313 4.4313 0.0 0 0 147.3021 138.1077"/>
</g>
<g style="fill:none;  stroke:#000084; stroke-width:0.1105; stroke-opacity:1;  stroke-linecap:round; stroke-linejoin:round;">
<path d="M151.6812 138.1077 L151.6812 138.1077 "/>
<path d="M160.5437 138.1077 A4.4313 4.4313 0.0 0 0 151.6812 138.1077"/>
<path d="M160.5437 138.1077 L160.5437 138.1077 "/>
<path d="M151.6812 138.1077 A4.4313 4.4313 0.0 0 0 160.5437 138.1077"/>
</g>
<g style="fill:none;  stroke:#000084; stroke-width:0.1105; stroke-opacity:1;  stroke-linecap:round; stroke-linejoin:round;">
<path d="M138.4395 124.8661 L138.4395 124.8661 "/>
<path d="M147.3021 124.8661 A4.4313 4.4313 0.0 0 0 138.4395 124.8661"/>
<path d="M147.3021 124.8661 L147.3021 124.8661 "/>
<path d="M138.4395 124.8661 A4.4313 4.4313 0.0 0 0 147.3021 124.8661"/>
</g>
<g style="fill:none;  stroke:#000084; stroke-width:0.1105; stroke-opacity:1;  stroke-linecap:round; stroke-linejoin:round;">
<path d="M151.6812 124.8661 L151.6812 124.8661 "/>
<path d="M160.5437 124.8661 A4.4313 4.4313 0.0 0 0 151.6812 124.8661"/>
<path d="M160.5437 124.8661 L160.5437 124.8661 "/>
<path d="M151.6812 124.8661 A4.4313 4.4313 0.0 0 0 160.5437 124.8661"/>
</g>
<g style="fill:none;  stroke:#000084; stroke-width:0.1105; stroke-opacity:1;  stroke-linecap:round; stroke-linejoin:round;">
<path d="M138.4395 111.6244 L138.4395 111.6244 "/>
<path d="M147.3021 111.6244 A4.4313 4.4313 0.0 0 0 138.4395 111.6244"/>
<path d="M147.3021 111.6244 L147.3021 111.6244 "/>
<path d="M138.4395 111.6244 A4.4313 4.4313 0.0 0 0 147.3021 111.6244"/>
</g>
<g style="fill:none;  stroke:#000084; stroke-width:0.1105; stroke-opacity:1;  stroke-linecap:round; stroke-linejoin:round;">
<path d="M151.6812 111.6244 L151.6812 111.6244 "/>
<path d="M160.5437 111.6244 A4.4313 4.4313 0.0 0 0 151.6812 111.6244"/>
<path d="M160.5437 111.6244 L160.5437 111.6244 "/>
<path d="M151.6812 111.6244 A4.4313 4.4313 0.0 0 0 160.5437 111.6244"/>
</g>
<g style="fill:none;  stroke:#000084; stroke-width:0.1105; stroke-opacity:1;  stroke-linecap:round; stroke-linejoin:round;">
<path d="M138.4395 98.3828 L138.4395 98.3828 "/>
<path d="M147.3021 98.3828 A4.4313 4.4313 0.0 0 0 138.4395 98.3828"/>
<path d="M147.3021 98.3828 L147.3021 98.3828 "/>
<path d="M138.4395 98.3828 A4.4313 4.4313 0.0 0 0 147.3021 98.3828"/>
</g>
<g style="fill:none;  stroke:#000084; stroke-width:0.1105; stroke-opacity:1;  stroke-linecap:round; stroke-linejoin:round;">
<path d="M151.6812 98.3828 L151.6812 98.3828 "/>
<path d="M160.5437 98.3828 A4.4313 4.4313 0.0 0 0 151.6812 98.3828"/>
<path d="M160.5437 98.3828 L160.5437 98.3828 "/>
<path d="M151.6812 98.3828 A4.4313 4.4313 0.0 0 0 160.5437 98.3828"/>
</g>
<g style="fill:none;  stroke:#000084; stroke-width:0.1105; stroke-opacity:1;  stroke-linecap:round; stroke-linejoin:round;">
<path d="M138.4395 85.1411 L138.4395 85.1411 "/>
<path d="M147.3021 85.1411 A4.4313 4.4313 0.0 0 0 138.4395 85.1411"/>
<path d="M147.3021 85.1411 L147.3021 85.1411 "/>
<path d="M138.4395 85.1411 A4.4313 4.4313 0.0 0 0 147.3021 85.1411"/>
</g>
<g style="fill:none;  stroke:#000084; stroke-width:0.1105; stroke-opacity:1;  stroke-linecap:round; stroke-linejoin:round;">
<path d="M151.6812 85.1411 L151.6812 85.1411 "/>
<path d="M160.5437 85.1411 A4.4313 4.4313 0.0 0 0 151.6812 85.1411"/>
<path d="M160.5437 85.1411 L160.5437 85.1411 "/>
<path d="M151.6812 85.1411 A4.4313 4.4313 0.0 0 0 160.5437 85.1411"/>
</g>
<g style="fill:none;  stroke:#000084; stroke-width:0.1105; stroke-opacity:1;  stroke-linecap:round; stroke-linejoin:round;">
<path d="M138.4395 71.8995 L138.4395 71.8995 "/>
<path d="M147.3021 71.8995 A4.4313 4.4313 0.0 0 0 138.4395 71.8995"/>
<path d="M147.3021 71.8995 L147.3021 71.8995 "/>
<path d="M138.4395 71.8995 A4.4313 4.4313 0.0 0 0 147.3021 71.8995"/>
</g>
<g style="fill:none;  stroke:#000084; stroke-width:0.1105; stroke-opacity:1;  stroke-linecap:round; stroke-linejoin:round;">
<path d="M151.6812 71.8995 L151.6812 71.8995 "/>
<path d="M160.5437 71.8995 A4.4313 4.4313 0.0 0 0 151.6812 71.8995"/>
<path d="M160.5437 71.8995 L160.5437 71.8995 "/>
<path d="M151.6812 71.8995 A4.4313 4.4313 0.0 0 0 160.5437 71.8995"/>
</g>
<g style="fill:none;  stroke:#000084; stroke-width:0.1105; stroke-opacity:1;  stroke-linecap:round; stroke-linejoin:round;">
<path d="M138.4395 58.6578 L138.4395 58.6578 "/>
<path d="M147.3021 58.6578 A4.4313 4.4313 0.0 0 0 138.4395 58.6578"/>
<path d="M147.3021 58.6578 L147.3021 58.6578 "/>
<path d="M138.4395 58.6578 A4.4313 4.4313 0.0 0 0 147.3021 58.6578"/>
</g>
<g style="fill:none;  stroke:#000084; stroke-width:0.1105; stroke-opacity:1;  stroke-linecap:round; stroke-linejoin:round;">
<path d="M151.6812 58.6578 L151.6812 58.6578 "/>
<path d="M160.5437 58.6578 A4.4313 4.4313 0.0 0 0 151.6812 58.6578"/>
<path d="M160.5437 58.6578 L160.5437 58.6578 "/>
<path d="M151.6812 58.6578 A4.4313 4.4313 0.0 0 0 160.5437 58.6578"/>
</g>
<g style="fill:none;  stroke:#000084; stroke-width:0.1105; stroke-opacity:1;  stroke-linecap:round; stroke-linejoin:round;">
<path d="M138.4395 45.4162 L138.4395 45.4162 "/>
<path d="M147.3021 45.4162 A4.4313 4.4313 0.0 0 0 138.4395 45.4162"/>
<path d="M147.3021 45.4162 L147.3021 45.4162 "/>
<path d="M138.4395 45.4162 A4.4313 4.4313 0.0 0 0 147.3021 45.4162"/>
</g>
<g style="fill:none;  stroke:#000084; stroke-width:0.1105; stroke-opacity:1;  stroke-linecap:round; stroke-linejoin:round;">
<path d="M151.6812 45.4162 L151.6812 45.4162 "/>
<path d="M160.5437 45.4162 A4.4313 4.4313 0.0 0 0 151.6812 45.4162"/>
<path d="M160.5437 45.4162 L160.5437 45.4162 "/>
<path d="M151.6812 45.4162 A4.4313 4.4313 0.0 0 0 160.5437 45.4162"/>
</g>
<g style="fill:none;  stroke:#000084; stroke-width:0.1105; stroke-opacity:1;  stroke-linecap:round; stroke-linejoin:round;">
<circle cx="174.9844" cy="25.5537" r="15.6397"/> 
</g>
<g style="fill:none;  stroke:#000084; stroke-width:0.1105; stroke-opacity:1;  stroke-linecap:round; stroke-linejoin:round;">
<circle cx="148.2363" cy="199.2841" r="2.6066"/> 
</g>
<g style="fill:none;  stroke:#000084; stroke-width:0.1105; stroke-opacity:1;  stroke-linecap:round; stroke-linejoin:round;">
<circle cx="148.5011" cy="11.5489" r="2.6066"/> 
</g> 
<svg:g><svg:g><svg:title>SVG Image created as GHxPIN01-Edge_Cuts1.svg date 2024/11/07 23:08:51 </svg:title>
  <svg:desc>Image generated by PCBNEW </svg:desc>
<svg:g style="fill:#C2C200; fill-opacity:1.0000;stroke:#C2C200; stroke-opacity:1.0000; stroke-linecap:round; stroke-linejoin:round;" transform="translate(0 0) scale(1 1)">
<svg:path style="fill:none;  stroke:#C2C200; stroke-width:0.7820; stroke-opacity:1;  stroke-linecap:round; stroke-linejoin:round;fill:none" d="M 200.1435,0.3946 96.8587,0.3946 96.8587,209.6126 200.1435,209.6126 Z"/> 
</svg:g> 
</svg:g></svg:g></svg>
