<!DOCTYPE svg PUBLIC "-//W3C//DTD SVG 1.1//EN" "http://www.w3.org/Graphics/SVG/1.1/DTD/svg11.dtd">
<svg xmlns="http://www.w3.org/2000/svg" version="1.1" width="50.1447mm" height="50.1447mm" viewBox="1019276.5 714476.5 501447.0 501447.0">
            <title>Picture generated by PcbDraw </title>
            <desc>Picture generated by PcbDraw</desc>
        <defs><clipPath id="cut-off"><path d=" M 1117600.000000 1117600.000000 m-16666.660000 0 a 16666.660000 16666.660000 0 1 0 33333.32 0 a 16666.660000 16666.660000 0 1 0 -33333.32 0  M 1117600.000000 1117600.000000 m-16666.660000 0 a 16666.660000 16666.660000 0 1 0 33333.32 0 a 16666.660000 16666.660000 0 1 0 -33333.32 0  M 1117600.000000 1117600.000000 m-16666.660000 0 a 16666.660000 16666.660000 0 1 0 33333.32 0 a 16666.660000 16666.660000 0 1 0 -33333.32 0  M 1470660.0 764540.0 L 1069340.0 764540.0 L 1069340.0 1165860.0 L 1470660.0 1165860.0 L 1470660.0 764540.0  M 1092600.0 1117600.0 L 1142600.0 1117600.0 L 1092600.0 1117600.0 L 1142600.0 1117600.0  M 1117600.0 1092600.0 L 1117600.0 1142600.0 L 1117600.0 1092600.0 L 1117600.0 1142600.0 " style="fill-rule: evenodd;"/></clipPath><mask id="pads-mask"><g style="fill:#ffffff; fill-opacity:0.0;  stroke:#ffffff; stroke-width:0.000000; stroke-opacity:1;  stroke-linecap:round; stroke-linejoin:round;">
<g style="fill:#ffffff; fill-opacity:1.0;  stroke:#ffffff; stroke-width:0.010000; stroke-opacity:1;  stroke-linecap:round; stroke-linejoin:round;">
<path style="fill:#ffffff; fill-opacity:1.0;  stroke:#ffffff; stroke-width:0.010000; stroke-opacity:1;  stroke-linecap:round; stroke-linejoin:round;fill-rule:evenodd;" d="M 1300100.000000,897200.000000 1300214.180000,896625.970000 1300539.340000,896139.340000 1301025.970000,895814.180000 1301600.000000,895700.000000 1304600.000000,895700.000000 1305174.030000,895814.180000 1305660.660000,896139.340000 1305985.820000,896625.970000 1306100.000000,897200.000000 1306100.000000,911200.000000 1305985.820000,911774.030000 1305660.660000,912260.660000 1305174.030000,912585.820000 1304600.000000,912700.000000 1301600.000000,912700.000000 1301025.970000,912585.820000 1300539.340000,912260.660000 1300214.180000,911774.030000 1300100.000000,911200.000000 Z"/> 
<path style="fill:#ffffff; fill-opacity:1.0;  stroke:#ffffff; stroke-width:0.010000; stroke-opacity:1;  stroke-linecap:round; stroke-linejoin:round;fill-rule:evenodd;" d="M 1312600.000000,897200.000000 1312714.180000,896625.970000 1313039.340000,896139.340000 1313525.970000,895814.180000 1314100.000000,895700.000000 1317100.000000,895700.000000 1317674.030000,895814.180000 1318160.660000,896139.340000 1318485.820000,896625.970000 1318600.000000,897200.000000 1318600.000000,911200.000000 1318485.820000,911774.030000 1318160.660000,912260.660000 1317674.030000,912585.820000 1317100.000000,912700.000000 1314100.000000,912700.000000 1313525.970000,912585.820000 1313039.340000,912260.660000 1312714.180000,911774.030000 1312600.000000,911200.000000 Z"/> 
<path style="fill:#ffffff; fill-opacity:1.0;  stroke:#ffffff; stroke-width:0.010000; stroke-opacity:1;  stroke-linecap:round; stroke-linejoin:round;fill-rule:evenodd;" d="M 1325100.000000,897200.000000 1325214.180000,896625.970000 1325539.340000,896139.340000 1326025.970000,895814.180000 1326600.000000,895700.000000 1329600.000000,895700.000000 1330174.030000,895814.180000 1330660.660000,896139.340000 1330985.820000,896625.970000 1331100.000000,897200.000000 1331100.000000,911200.000000 1330985.820000,911774.030000 1330660.660000,912260.660000 1330174.030000,912585.820000 1329600.000000,912700.000000 1326600.000000,912700.000000 1326025.970000,912585.820000 1325539.340000,912260.660000 1325214.180000,911774.030000 1325100.000000,911200.000000 Z"/> 
<path style="fill:#ffffff; fill-opacity:1.0;  stroke:#ffffff; stroke-width:0.010000; stroke-opacity:1;  stroke-linecap:round; stroke-linejoin:round;fill-rule:evenodd;" d="M 1337600.000000,897200.000000 1337714.180000,896625.970000 1338039.340000,896139.340000 1338525.970000,895814.180000 1339100.000000,895700.000000 1342100.000000,895700.000000 1342674.030000,895814.180000 1343160.660000,896139.340000 1343485.820000,896625.970000 1343600.000000,897200.000000 1343600.000000,911200.000000 1343485.820000,911774.030000 1343160.660000,912260.660000 1342674.030000,912585.820000 1342100.000000,912700.000000 1339100.000000,912700.000000 1338525.970000,912585.820000 1338039.340000,912260.660000 1337714.180000,911774.030000 1337600.000000,911200.000000 Z"/> 
<path style="fill:#ffffff; fill-opacity:1.0;  stroke:#ffffff; stroke-width:0.010000; stroke-opacity:1;  stroke-linecap:round; stroke-linejoin:round;fill-rule:evenodd;" d="M 1279600.000000,925200.000000 1279790.300000,924243.290000 1280332.230000,923432.230000 1281143.290000,922890.300000 1282100.000000,922700.000000 1287100.000000,922700.000000 1288056.710000,922890.300000 1288867.770000,923432.230000 1289409.700000,924243.290000 1289600.000000,925200.000000 1289600.000000,947200.000000 1289409.700000,948156.710000 1288867.770000,948967.770000 1288056.710000,949509.700000 1287100.000000,949700.000000 1282100.000000,949700.000000 1281143.290000,949509.700000 1280332.230000,948967.770000 1279790.300000,948156.710000 1279600.000000,947200.000000 Z"/> 
<path style="fill:#ffffff; fill-opacity:1.0;  stroke:#ffffff; stroke-width:0.010000; stroke-opacity:1;  stroke-linecap:round; stroke-linejoin:round;fill-rule:evenodd;" d="M 1354100.000000,925200.000000 1354290.300000,924243.290000 1354832.230000,923432.230000 1355643.290000,922890.300000 1356600.000000,922700.000000 1361600.000000,922700.000000 1362556.710000,922890.300000 1363367.770000,923432.230000 1363909.700000,924243.290000 1364100.000000,925200.000000 1364100.000000,947200.000000 1363909.700000,948156.710000 1363367.770000,948967.770000 1362556.710000,949509.700000 1361600.000000,949700.000000 1356600.000000,949700.000000 1355643.290000,949509.700000 1354832.230000,948967.770000 1354290.300000,948156.710000 1354100.000000,947200.000000 Z"/> 
</g>
<g style="fill:#ffffff; fill-opacity:1.0;  stroke:#ffffff; stroke-width:0.010000; stroke-opacity:1;  stroke-linecap:round; stroke-linejoin:round;">
<circle cx="1117600.000000" cy="812800.000000" r="30000.000000"/> 
</g>
<g style="fill:#ffffff; fill-opacity:1.0;  stroke:#ffffff; stroke-width:0.010000; stroke-opacity:1;  stroke-linecap:round; stroke-linejoin:round;">
<circle cx="1422400.000000" cy="1117600.000000" r="30000.000000"/> 
</g>
<g style="fill:#ffffff; fill-opacity:1.0;  stroke:#ffffff; stroke-width:0.010000; stroke-opacity:1;  stroke-linecap:round; stroke-linejoin:round;">
<circle cx="1117600.000000" cy="1117600.000000" r="30000.000000"/> 
</g>
<g style="fill:#ffffff; fill-opacity:1.0;  stroke:#ffffff; stroke-width:0.010000; stroke-opacity:1;  stroke-linecap:round; stroke-linejoin:round;">
<circle cx="1422400.000000" cy="812800.000000" r="30000.000000"/> 
</g>
<g style="fill:#ffffff; fill-opacity:1.0;  stroke:#ffffff; stroke-width:0.010000; stroke-opacity:1;  stroke-linecap:round; stroke-linejoin:round;">
<path style="fill:#ffffff; fill-opacity:1.0;  stroke:#ffffff; stroke-width:0.010000; stroke-opacity:1;  stroke-linecap:round; stroke-linejoin:round;fill-rule:evenodd;" d="M 1170940.000000,894080.000000 1170940.000000,878840.000000 1186180.000000,878840.000000 1186180.000000,894080.000000 Z"/> 
<path style="fill:#ffffff; fill-opacity:1.0;  stroke:#ffffff; stroke-width:0.010000; stroke-opacity:1;  stroke-linecap:round; stroke-linejoin:round;fill-rule:evenodd;" d="M 1196340.000000,894080.000000 1196340.000000,878840.000000 1211580.000000,878840.000000 1211580.000000,894080.000000 Z"/> 
<path style="fill:#ffffff; fill-opacity:1.0;  stroke:#ffffff; stroke-width:0.010000; stroke-opacity:1;  stroke-linecap:round; stroke-linejoin:round;fill-rule:evenodd;" d="M 1170940.000000,919480.000000 1170940.000000,904240.000000 1186180.000000,904240.000000 1186180.000000,919480.000000 Z"/> 
<path style="fill:#ffffff; fill-opacity:1.0;  stroke:#ffffff; stroke-width:0.010000; stroke-opacity:1;  stroke-linecap:round; stroke-linejoin:round;fill-rule:evenodd;" d="M 1196340.000000,919480.000000 1196340.000000,904240.000000 1211580.000000,904240.000000 1211580.000000,919480.000000 Z"/> 
<path style="fill:#ffffff; fill-opacity:1.0;  stroke:#ffffff; stroke-width:0.010000; stroke-opacity:1;  stroke-linecap:round; stroke-linejoin:round;fill-rule:evenodd;" d="M 1170940.000000,944880.000000 1170940.000000,929640.000000 1186180.000000,929640.000000 1186180.000000,944880.000000 Z"/> 
<path style="fill:#ffffff; fill-opacity:1.0;  stroke:#ffffff; stroke-width:0.010000; stroke-opacity:1;  stroke-linecap:round; stroke-linejoin:round;fill-rule:evenodd;" d="M 1196340.000000,944880.000000 1196340.000000,929640.000000 1211580.000000,929640.000000 1211580.000000,944880.000000 Z"/> 
<path style="fill:#ffffff; fill-opacity:1.0;  stroke:#ffffff; stroke-width:0.010000; stroke-opacity:1;  stroke-linecap:round; stroke-linejoin:round;fill-rule:evenodd;" d="M 1170940.000000,970280.000000 1170940.000000,955040.000000 1186180.000000,955040.000000 1186180.000000,970280.000000 Z"/> 
<path style="fill:#ffffff; fill-opacity:1.0;  stroke:#ffffff; stroke-width:0.010000; stroke-opacity:1;  stroke-linecap:round; stroke-linejoin:round;fill-rule:evenodd;" d="M 1196340.000000,970280.000000 1196340.000000,955040.000000 1211580.000000,955040.000000 1211580.000000,970280.000000 Z"/> 
<path style="fill:#ffffff; fill-opacity:1.0;  stroke:#ffffff; stroke-width:0.010000; stroke-opacity:1;  stroke-linecap:round; stroke-linejoin:round;fill-rule:evenodd;" d="M 1170940.000000,995680.000000 1170940.000000,980440.000000 1186180.000000,980440.000000 1186180.000000,995680.000000 Z"/> 
<path style="fill:#ffffff; fill-opacity:1.0;  stroke:#ffffff; stroke-width:0.010000; stroke-opacity:1;  stroke-linecap:round; stroke-linejoin:round;fill-rule:evenodd;" d="M 1196340.000000,995680.000000 1196340.000000,980440.000000 1211580.000000,980440.000000 1211580.000000,995680.000000 Z"/> 
</g>
<g style="fill:#ffffff; fill-opacity:1.0;  stroke:#ffffff; stroke-width:0.010000; stroke-opacity:1;  stroke-linecap:round; stroke-linejoin:round;">
<path style="fill:#ffffff; fill-opacity:1.0;  stroke:#ffffff; stroke-width:0.010000; stroke-opacity:1;  stroke-linecap:round; stroke-linejoin:round;fill-rule:evenodd;" d="M 1299050.000000,806100.000000 1299164.180000,805525.970000 1299489.340000,805039.340000 1299975.970000,804714.180000 1300550.000000,804600.000000 1303550.000000,804600.000000 1304124.030000,804714.180000 1304610.660000,805039.340000 1304935.820000,805525.970000 1305050.000000,806100.000000 1305050.000000,820100.000000 1304935.820000,820674.030000 1304610.660000,821160.660000 1304124.030000,821485.820000 1303550.000000,821600.000000 1300550.000000,821600.000000 1299975.970000,821485.820000 1299489.340000,821160.660000 1299164.180000,820674.030000 1299050.000000,820100.000000 Z"/> 
<path style="fill:#ffffff; fill-opacity:1.0;  stroke:#ffffff; stroke-width:0.010000; stroke-opacity:1;  stroke-linecap:round; stroke-linejoin:round;fill-rule:evenodd;" d="M 1311550.000000,806100.000000 1311664.180000,805525.970000 1311989.340000,805039.340000 1312475.970000,804714.180000 1313050.000000,804600.000000 1316050.000000,804600.000000 1316624.030000,804714.180000 1317110.660000,805039.340000 1317435.820000,805525.970000 1317550.000000,806100.000000 1317550.000000,820100.000000 1317435.820000,820674.030000 1317110.660000,821160.660000 1316624.030000,821485.820000 1316050.000000,821600.000000 1313050.000000,821600.000000 1312475.970000,821485.820000 1311989.340000,821160.660000 1311664.180000,820674.030000 1311550.000000,820100.000000 Z"/> 
<path style="fill:#ffffff; fill-opacity:1.0;  stroke:#ffffff; stroke-width:0.010000; stroke-opacity:1;  stroke-linecap:round; stroke-linejoin:round;fill-rule:evenodd;" d="M 1324050.000000,806100.000000 1324164.180000,805525.970000 1324489.340000,805039.340000 1324975.970000,804714.180000 1325550.000000,804600.000000 1328550.000000,804600.000000 1329124.030000,804714.180000 1329610.660000,805039.340000 1329935.820000,805525.970000 1330050.000000,806100.000000 1330050.000000,820100.000000 1329935.820000,820674.030000 1329610.660000,821160.660000 1329124.030000,821485.820000 1328550.000000,821600.000000 1325550.000000,821600.000000 1324975.970000,821485.820000 1324489.340000,821160.660000 1324164.180000,820674.030000 1324050.000000,820100.000000 Z"/> 
<path style="fill:#ffffff; fill-opacity:1.0;  stroke:#ffffff; stroke-width:0.010000; stroke-opacity:1;  stroke-linecap:round; stroke-linejoin:round;fill-rule:evenodd;" d="M 1336550.000000,806100.000000 1336664.180000,805525.970000 1336989.340000,805039.340000 1337475.970000,804714.180000 1338050.000000,804600.000000 1341050.000000,804600.000000 1341624.030000,804714.180000 1342110.660000,805039.340000 1342435.820000,805525.970000 1342550.000000,806100.000000 1342550.000000,820100.000000 1342435.820000,820674.030000 1342110.660000,821160.660000 1341624.030000,821485.820000 1341050.000000,821600.000000 1338050.000000,821600.000000 1337475.970000,821485.820000 1336989.340000,821160.660000 1336664.180000,820674.030000 1336550.000000,820100.000000 Z"/> 
<path style="fill:#ffffff; fill-opacity:1.0;  stroke:#ffffff; stroke-width:0.010000; stroke-opacity:1;  stroke-linecap:round; stroke-linejoin:round;fill-rule:evenodd;" d="M 1353050.000000,834100.000000 1353240.300000,833143.290000 1353782.230000,832332.230000 1354593.290000,831790.300000 1355550.000000,831600.000000 1360550.000000,831600.000000 1361506.710000,831790.300000 1362317.770000,832332.230000 1362859.700000,833143.290000 1363050.000000,834100.000000 1363050.000000,856100.000000 1362859.700000,857056.710000 1362317.770000,857867.770000 1361506.710000,858409.700000 1360550.000000,858600.000000 1355550.000000,858600.000000 1354593.290000,858409.700000 1353782.230000,857867.770000 1353240.300000,857056.710000 1353050.000000,856100.000000 Z"/> 
<path style="fill:#ffffff; fill-opacity:1.0;  stroke:#ffffff; stroke-width:0.010000; stroke-opacity:1;  stroke-linecap:round; stroke-linejoin:round;fill-rule:evenodd;" d="M 1278550.000000,834100.000000 1278740.300000,833143.290000 1279282.230000,832332.230000 1280093.290000,831790.300000 1281050.000000,831600.000000 1286050.000000,831600.000000 1287006.710000,831790.300000 1287817.770000,832332.230000 1288359.700000,833143.290000 1288550.000000,834100.000000 1288550.000000,856100.000000 1288359.700000,857056.710000 1287817.770000,857867.770000 1287006.710000,858409.700000 1286050.000000,858600.000000 1281050.000000,858600.000000 1280093.290000,858409.700000 1279282.230000,857867.770000 1278740.300000,857056.710000 1278550.000000,856100.000000 Z"/> 
</g>
</g> 
</mask><mask id="pads-mask-silkscreen"><rect x="1069276.5" y="764476.5" width="401447.0" height="401447.0" fill="white"/><g style="fill:#000000; fill-opacity:0.0;  stroke:#000000; stroke-width:0.000000; stroke-opacity:1;  stroke-linecap:round; stroke-linejoin:round;">
<g style="fill:#000000; fill-opacity:1.0;  stroke:#000000; stroke-width:0.010000; stroke-opacity:1;  stroke-linecap:round; stroke-linejoin:round;">
<path style="fill:#000000; fill-opacity:1.0;  stroke:#000000; stroke-width:0.010000; stroke-opacity:1;  stroke-linecap:round; stroke-linejoin:round;fill-rule:evenodd;" d="M 1300100.000000,897200.000000 1300214.180000,896625.970000 1300539.340000,896139.340000 1301025.970000,895814.180000 1301600.000000,895700.000000 1304600.000000,895700.000000 1305174.030000,895814.180000 1305660.660000,896139.340000 1305985.820000,896625.970000 1306100.000000,897200.000000 1306100.000000,911200.000000 1305985.820000,911774.030000 1305660.660000,912260.660000 1305174.030000,912585.820000 1304600.000000,912700.000000 1301600.000000,912700.000000 1301025.970000,912585.820000 1300539.340000,912260.660000 1300214.180000,911774.030000 1300100.000000,911200.000000 Z"/> 
<path style="fill:#000000; fill-opacity:1.0;  stroke:#000000; stroke-width:0.010000; stroke-opacity:1;  stroke-linecap:round; stroke-linejoin:round;fill-rule:evenodd;" d="M 1312600.000000,897200.000000 1312714.180000,896625.970000 1313039.340000,896139.340000 1313525.970000,895814.180000 1314100.000000,895700.000000 1317100.000000,895700.000000 1317674.030000,895814.180000 1318160.660000,896139.340000 1318485.820000,896625.970000 1318600.000000,897200.000000 1318600.000000,911200.000000 1318485.820000,911774.030000 1318160.660000,912260.660000 1317674.030000,912585.820000 1317100.000000,912700.000000 1314100.000000,912700.000000 1313525.970000,912585.820000 1313039.340000,912260.660000 1312714.180000,911774.030000 1312600.000000,911200.000000 Z"/> 
<path style="fill:#000000; fill-opacity:1.0;  stroke:#000000; stroke-width:0.010000; stroke-opacity:1;  stroke-linecap:round; stroke-linejoin:round;fill-rule:evenodd;" d="M 1325100.000000,897200.000000 1325214.180000,896625.970000 1325539.340000,896139.340000 1326025.970000,895814.180000 1326600.000000,895700.000000 1329600.000000,895700.000000 1330174.030000,895814.180000 1330660.660000,896139.340000 1330985.820000,896625.970000 1331100.000000,897200.000000 1331100.000000,911200.000000 1330985.820000,911774.030000 1330660.660000,912260.660000 1330174.030000,912585.820000 1329600.000000,912700.000000 1326600.000000,912700.000000 1326025.970000,912585.820000 1325539.340000,912260.660000 1325214.180000,911774.030000 1325100.000000,911200.000000 Z"/> 
<path style="fill:#000000; fill-opacity:1.0;  stroke:#000000; stroke-width:0.010000; stroke-opacity:1;  stroke-linecap:round; stroke-linejoin:round;fill-rule:evenodd;" d="M 1337600.000000,897200.000000 1337714.180000,896625.970000 1338039.340000,896139.340000 1338525.970000,895814.180000 1339100.000000,895700.000000 1342100.000000,895700.000000 1342674.030000,895814.180000 1343160.660000,896139.340000 1343485.820000,896625.970000 1343600.000000,897200.000000 1343600.000000,911200.000000 1343485.820000,911774.030000 1343160.660000,912260.660000 1342674.030000,912585.820000 1342100.000000,912700.000000 1339100.000000,912700.000000 1338525.970000,912585.820000 1338039.340000,912260.660000 1337714.180000,911774.030000 1337600.000000,911200.000000 Z"/> 
<path style="fill:#000000; fill-opacity:1.0;  stroke:#000000; stroke-width:0.010000; stroke-opacity:1;  stroke-linecap:round; stroke-linejoin:round;fill-rule:evenodd;" d="M 1279600.000000,925200.000000 1279790.300000,924243.290000 1280332.230000,923432.230000 1281143.290000,922890.300000 1282100.000000,922700.000000 1287100.000000,922700.000000 1288056.710000,922890.300000 1288867.770000,923432.230000 1289409.700000,924243.290000 1289600.000000,925200.000000 1289600.000000,947200.000000 1289409.700000,948156.710000 1288867.770000,948967.770000 1288056.710000,949509.700000 1287100.000000,949700.000000 1282100.000000,949700.000000 1281143.290000,949509.700000 1280332.230000,948967.770000 1279790.300000,948156.710000 1279600.000000,947200.000000 Z"/> 
<path style="fill:#000000; fill-opacity:1.0;  stroke:#000000; stroke-width:0.010000; stroke-opacity:1;  stroke-linecap:round; stroke-linejoin:round;fill-rule:evenodd;" d="M 1354100.000000,925200.000000 1354290.300000,924243.290000 1354832.230000,923432.230000 1355643.290000,922890.300000 1356600.000000,922700.000000 1361600.000000,922700.000000 1362556.710000,922890.300000 1363367.770000,923432.230000 1363909.700000,924243.290000 1364100.000000,925200.000000 1364100.000000,947200.000000 1363909.700000,948156.710000 1363367.770000,948967.770000 1362556.710000,949509.700000 1361600.000000,949700.000000 1356600.000000,949700.000000 1355643.290000,949509.700000 1354832.230000,948967.770000 1354290.300000,948156.710000 1354100.000000,947200.000000 Z"/> 
</g>
<g style="fill:#000000; fill-opacity:1.0;  stroke:#000000; stroke-width:0.010000; stroke-opacity:1;  stroke-linecap:round; stroke-linejoin:round;">
<circle cx="1117600.000000" cy="812800.000000" r="30000.000000"/> 
</g>
<g style="fill:#000000; fill-opacity:1.0;  stroke:#000000; stroke-width:0.010000; stroke-opacity:1;  stroke-linecap:round; stroke-linejoin:round;">
<circle cx="1422400.000000" cy="1117600.000000" r="30000.000000"/> 
</g>
<g style="fill:#000000; fill-opacity:1.0;  stroke:#000000; stroke-width:0.010000; stroke-opacity:1;  stroke-linecap:round; stroke-linejoin:round;">
<circle cx="1117600.000000" cy="1117600.000000" r="30000.000000"/> 
</g>
<g style="fill:#000000; fill-opacity:1.0;  stroke:#000000; stroke-width:0.010000; stroke-opacity:1;  stroke-linecap:round; stroke-linejoin:round;">
<circle cx="1422400.000000" cy="812800.000000" r="30000.000000"/> 
</g>
<g style="fill:#000000; fill-opacity:1.0;  stroke:#000000; stroke-width:0.010000; stroke-opacity:1;  stroke-linecap:round; stroke-linejoin:round;">
<path style="fill:#000000; fill-opacity:1.0;  stroke:#000000; stroke-width:0.010000; stroke-opacity:1;  stroke-linecap:round; stroke-linejoin:round;fill-rule:evenodd;" d="M 1170940.000000,894080.000000 1170940.000000,878840.000000 1186180.000000,878840.000000 1186180.000000,894080.000000 Z"/> 
<path style="fill:#000000; fill-opacity:1.0;  stroke:#000000; stroke-width:0.010000; stroke-opacity:1;  stroke-linecap:round; stroke-linejoin:round;fill-rule:evenodd;" d="M 1196340.000000,894080.000000 1196340.000000,878840.000000 1211580.000000,878840.000000 1211580.000000,894080.000000 Z"/> 
<path style="fill:#000000; fill-opacity:1.0;  stroke:#000000; stroke-width:0.010000; stroke-opacity:1;  stroke-linecap:round; stroke-linejoin:round;fill-rule:evenodd;" d="M 1170940.000000,919480.000000 1170940.000000,904240.000000 1186180.000000,904240.000000 1186180.000000,919480.000000 Z"/> 
<path style="fill:#000000; fill-opacity:1.0;  stroke:#000000; stroke-width:0.010000; stroke-opacity:1;  stroke-linecap:round; stroke-linejoin:round;fill-rule:evenodd;" d="M 1196340.000000,919480.000000 1196340.000000,904240.000000 1211580.000000,904240.000000 1211580.000000,919480.000000 Z"/> 
<path style="fill:#000000; fill-opacity:1.0;  stroke:#000000; stroke-width:0.010000; stroke-opacity:1;  stroke-linecap:round; stroke-linejoin:round;fill-rule:evenodd;" d="M 1170940.000000,944880.000000 1170940.000000,929640.000000 1186180.000000,929640.000000 1186180.000000,944880.000000 Z"/> 
<path style="fill:#000000; fill-opacity:1.0;  stroke:#000000; stroke-width:0.010000; stroke-opacity:1;  stroke-linecap:round; stroke-linejoin:round;fill-rule:evenodd;" d="M 1196340.000000,944880.000000 1196340.000000,929640.000000 1211580.000000,929640.000000 1211580.000000,944880.000000 Z"/> 
<path style="fill:#000000; fill-opacity:1.0;  stroke:#000000; stroke-width:0.010000; stroke-opacity:1;  stroke-linecap:round; stroke-linejoin:round;fill-rule:evenodd;" d="M 1170940.000000,970280.000000 1170940.000000,955040.000000 1186180.000000,955040.000000 1186180.000000,970280.000000 Z"/> 
<path style="fill:#000000; fill-opacity:1.0;  stroke:#000000; stroke-width:0.010000; stroke-opacity:1;  stroke-linecap:round; stroke-linejoin:round;fill-rule:evenodd;" d="M 1196340.000000,970280.000000 1196340.000000,955040.000000 1211580.000000,955040.000000 1211580.000000,970280.000000 Z"/> 
<path style="fill:#000000; fill-opacity:1.0;  stroke:#000000; stroke-width:0.010000; stroke-opacity:1;  stroke-linecap:round; stroke-linejoin:round;fill-rule:evenodd;" d="M 1170940.000000,995680.000000 1170940.000000,980440.000000 1186180.000000,980440.000000 1186180.000000,995680.000000 Z"/> 
<path style="fill:#000000; fill-opacity:1.0;  stroke:#000000; stroke-width:0.010000; stroke-opacity:1;  stroke-linecap:round; stroke-linejoin:round;fill-rule:evenodd;" d="M 1196340.000000,995680.000000 1196340.000000,980440.000000 1211580.000000,980440.000000 1211580.000000,995680.000000 Z"/> 
</g>
<g style="fill:#000000; fill-opacity:1.0;  stroke:#000000; stroke-width:0.010000; stroke-opacity:1;  stroke-linecap:round; stroke-linejoin:round;">
<path style="fill:#000000; fill-opacity:1.0;  stroke:#000000; stroke-width:0.010000; stroke-opacity:1;  stroke-linecap:round; stroke-linejoin:round;fill-rule:evenodd;" d="M 1299050.000000,806100.000000 1299164.180000,805525.970000 1299489.340000,805039.340000 1299975.970000,804714.180000 1300550.000000,804600.000000 1303550.000000,804600.000000 1304124.030000,804714.180000 1304610.660000,805039.340000 1304935.820000,805525.970000 1305050.000000,806100.000000 1305050.000000,820100.000000 1304935.820000,820674.030000 1304610.660000,821160.660000 1304124.030000,821485.820000 1303550.000000,821600.000000 1300550.000000,821600.000000 1299975.970000,821485.820000 1299489.340000,821160.660000 1299164.180000,820674.030000 1299050.000000,820100.000000 Z"/> 
<path style="fill:#000000; fill-opacity:1.0;  stroke:#000000; stroke-width:0.010000; stroke-opacity:1;  stroke-linecap:round; stroke-linejoin:round;fill-rule:evenodd;" d="M 1311550.000000,806100.000000 1311664.180000,805525.970000 1311989.340000,805039.340000 1312475.970000,804714.180000 1313050.000000,804600.000000 1316050.000000,804600.000000 1316624.030000,804714.180000 1317110.660000,805039.340000 1317435.820000,805525.970000 1317550.000000,806100.000000 1317550.000000,820100.000000 1317435.820000,820674.030000 1317110.660000,821160.660000 1316624.030000,821485.820000 1316050.000000,821600.000000 1313050.000000,821600.000000 1312475.970000,821485.820000 1311989.340000,821160.660000 1311664.180000,820674.030000 1311550.000000,820100.000000 Z"/> 
<path style="fill:#000000; fill-opacity:1.0;  stroke:#000000; stroke-width:0.010000; stroke-opacity:1;  stroke-linecap:round; stroke-linejoin:round;fill-rule:evenodd;" d="M 1324050.000000,806100.000000 1324164.180000,805525.970000 1324489.340000,805039.340000 1324975.970000,804714.180000 1325550.000000,804600.000000 1328550.000000,804600.000000 1329124.030000,804714.180000 1329610.660000,805039.340000 1329935.820000,805525.970000 1330050.000000,806100.000000 1330050.000000,820100.000000 1329935.820000,820674.030000 1329610.660000,821160.660000 1329124.030000,821485.820000 1328550.000000,821600.000000 1325550.000000,821600.000000 1324975.970000,821485.820000 1324489.340000,821160.660000 1324164.180000,820674.030000 1324050.000000,820100.000000 Z"/> 
<path style="fill:#000000; fill-opacity:1.0;  stroke:#000000; stroke-width:0.010000; stroke-opacity:1;  stroke-linecap:round; stroke-linejoin:round;fill-rule:evenodd;" d="M 1336550.000000,806100.000000 1336664.180000,805525.970000 1336989.340000,805039.340000 1337475.970000,804714.180000 1338050.000000,804600.000000 1341050.000000,804600.000000 1341624.030000,804714.180000 1342110.660000,805039.340000 1342435.820000,805525.970000 1342550.000000,806100.000000 1342550.000000,820100.000000 1342435.820000,820674.030000 1342110.660000,821160.660000 1341624.030000,821485.820000 1341050.000000,821600.000000 1338050.000000,821600.000000 1337475.970000,821485.820000 1336989.340000,821160.660000 1336664.180000,820674.030000 1336550.000000,820100.000000 Z"/> 
<path style="fill:#000000; fill-opacity:1.0;  stroke:#000000; stroke-width:0.010000; stroke-opacity:1;  stroke-linecap:round; stroke-linejoin:round;fill-rule:evenodd;" d="M 1353050.000000,834100.000000 1353240.300000,833143.290000 1353782.230000,832332.230000 1354593.290000,831790.300000 1355550.000000,831600.000000 1360550.000000,831600.000000 1361506.710000,831790.300000 1362317.770000,832332.230000 1362859.700000,833143.290000 1363050.000000,834100.000000 1363050.000000,856100.000000 1362859.700000,857056.710000 1362317.770000,857867.770000 1361506.710000,858409.700000 1360550.000000,858600.000000 1355550.000000,858600.000000 1354593.290000,858409.700000 1353782.230000,857867.770000 1353240.300000,857056.710000 1353050.000000,856100.000000 Z"/> 
<path style="fill:#000000; fill-opacity:1.0;  stroke:#000000; stroke-width:0.010000; stroke-opacity:1;  stroke-linecap:round; stroke-linejoin:round;fill-rule:evenodd;" d="M 1278550.000000,834100.000000 1278740.300000,833143.290000 1279282.230000,832332.230000 1280093.290000,831790.300000 1281050.000000,831600.000000 1286050.000000,831600.000000 1287006.710000,831790.300000 1287817.770000,832332.230000 1288359.700000,833143.290000 1288550.000000,834100.000000 1288550.000000,856100.000000 1288359.700000,857056.710000 1287817.770000,857867.770000 1287006.710000,858409.700000 1286050.000000,858600.000000 1281050.000000,858600.000000 1280093.290000,858409.700000 1279282.230000,857867.770000 1278740.300000,857056.710000 1278550.000000,856100.000000 Z"/> 
</g>
</g> 
</mask><mask id="hole-mask"><g><rect x="1069276.5" y="764476.5" fill="white" width="401447.0" height="401447.0"/><polyline stroke-linecap="round" stroke="black" stroke-width="30000.0" points="-0.0 0 0.0 0" transform="translate(1117600.0 812800.0) rotate(-0.0)"/><polyline stroke-linecap="round" stroke="black" stroke-width="30000.0" points="-0.0 0 0.0 0" transform="translate(1422400.0 1117600.0) rotate(-0.0)"/><polyline stroke-linecap="round" stroke="black" stroke-width="30000.0" points="-0.0 0 0.0 0" transform="translate(1117600.0 1117600.0) rotate(-0.0)"/><polyline stroke-linecap="round" stroke="black" stroke-width="30000.0" points="-0.0 0 0.0 0" transform="translate(1422400.0 812800.0) rotate(-0.0)"/><polyline stroke-linecap="round" stroke="black" stroke-width="8890.0" points="-0.0 0 0.0 0" transform="translate(1178560.0 886460.0) rotate(-0.0)"/><polyline stroke-linecap="round" stroke="black" stroke-width="8890.0" points="-0.0 0 0.0 0" transform="translate(1203960.0 886460.0) rotate(-0.0)"/><polyline stroke-linecap="round" stroke="black" stroke-width="8890.0" points="-0.0 0 0.0 0" transform="translate(1178560.0 911860.0) rotate(-0.0)"/><polyline stroke-linecap="round" stroke="black" stroke-width="8890.0" points="-0.0 0 0.0 0" transform="translate(1203960.0 911860.0) rotate(-0.0)"/><polyline stroke-linecap="round" stroke="black" stroke-width="8890.0" points="-0.0 0 0.0 0" transform="translate(1178560.0 937260.0) rotate(-0.0)"/><polyline stroke-linecap="round" stroke="black" stroke-width="8890.0" points="-0.0 0 0.0 0" transform="translate(1203960.0 937260.0) rotate(-0.0)"/><polyline stroke-linecap="round" stroke="black" stroke-width="8890.0" points="-0.0 0 0.0 0" transform="translate(1178560.0 962660.0) rotate(-0.0)"/><polyline stroke-linecap="round" stroke="black" stroke-width="8890.0" points="-0.0 0 0.0 0" transform="translate(1203960.0 962660.0) rotate(-0.0)"/><polyline stroke-linecap="round" stroke="black" stroke-width="8890.0" points="-0.0 0 0.0 0" transform="translate(1178560.0 988060.0) rotate(-0.0)"/><polyline stroke-linecap="round" stroke="black" stroke-width="8890.0" points="-0.0 0 0.0 0" transform="translate(1203960.0 988060.0) rotate(-0.0)"/></g></mask></defs><g transform="" id="boardContainer"><g id="substrate" clip-path="url(#cut-off)" mask="url(#hole-mask)"><g id="substrate-board" style="fill:#f1f4f3; stroke:#f1f4f3;"><path d=" M 1117600.000000 1117600.000000 m-16666.660000 0 a 16666.660000 16666.660000 0 1 0 33333.32 0 a 16666.660000 16666.660000 0 1 0 -33333.32 0  M 1117600.000000 1117600.000000 m-16666.660000 0 a 16666.660000 16666.660000 0 1 0 33333.32 0 a 16666.660000 16666.660000 0 1 0 -33333.32 0  M 1117600.000000 1117600.000000 m-16666.660000 0 a 16666.660000 16666.660000 0 1 0 33333.32 0 a 16666.660000 16666.660000 0 1 0 -33333.32 0  M 1470660.0 764540.0 L 1069340.0 764540.0 L 1069340.0 1165860.0 L 1470660.0 1165860.0 L 1470660.0 764540.0  M 1092600.0 1117600.0 L 1142600.0 1117600.0 L 1092600.0 1117600.0 L 1142600.0 1117600.0  M 1117600.0 1092600.0 L 1117600.0 1142600.0 L 1117600.0 1092600.0 L 1117600.0 1142600.0 " style="fill-rule: evenodd;"/><g style="fill-opacity: 0.0;stroke-width: 127.000000;stroke-opacity: 1;stroke-linecap: round;stroke-linejoin: round">
<path d="M1470660 1165860 L1470660 764540 "/>
<path d="M1069340 764540 L1069340 1165860 "/>
<path d="M1069340 1165860 L1470660 1165860 "/>
<path d="M1470660 764540 L1069340 764540 "/>
<circle cx="1117600.000000" cy="1117600.000000" r="16666.660000"/> 
<path d="M1092600 1117600 L1142600 1117600 "/>
<path d="M1117600 1092600 L1117600 1142600 "/>
<circle cx="1117600.000000" cy="1117600.000000" r="16666.660000"/> 
<path d="M1092600 1117600 L1142600 1117600 "/>
<path d="M1117600 1092600 L1117600 1142600 "/>
<circle cx="1117600.000000" cy="1117600.000000" r="16666.660000"/> 
<path d="M1092600 1117600 L1142600 1117600 "/>
<path d="M1117600 1092600 L1117600 1142600 "/>
</g> 
</g><g id="substrate-clad" style="fill:#72786c; stroke:#72786c;"><g style="fill-opacity: 0.0;stroke-width: 0.000000;stroke-opacity: 1;stroke-linecap: round;stroke-linejoin: round">
<g style="fill-opacity: 1.0;stroke-width: 0.010000;stroke-opacity: 1;stroke-linecap: round;stroke-linejoin: round">
<path style="fill-opacity: 1.0;stroke-width: 0.010000;stroke-opacity: 1;stroke-linecap: round;stroke-linejoin: round;fill-rule: evenodd" d="M 1300100.000000,897200.000000 1300214.180000,896625.970000 1300539.340000,896139.340000 1301025.970000,895814.180000 1301600.000000,895700.000000 1304600.000000,895700.000000 1305174.030000,895814.180000 1305660.660000,896139.340000 1305985.820000,896625.970000 1306100.000000,897200.000000 1306100.000000,911200.000000 1305985.820000,911774.030000 1305660.660000,912260.660000 1305174.030000,912585.820000 1304600.000000,912700.000000 1301600.000000,912700.000000 1301025.970000,912585.820000 1300539.340000,912260.660000 1300214.180000,911774.030000 1300100.000000,911200.000000 Z"/> 
<path style="fill-opacity: 1.0;stroke-width: 0.010000;stroke-opacity: 1;stroke-linecap: round;stroke-linejoin: round;fill-rule: evenodd" d="M 1312600.000000,897200.000000 1312714.180000,896625.970000 1313039.340000,896139.340000 1313525.970000,895814.180000 1314100.000000,895700.000000 1317100.000000,895700.000000 1317674.030000,895814.180000 1318160.660000,896139.340000 1318485.820000,896625.970000 1318600.000000,897200.000000 1318600.000000,911200.000000 1318485.820000,911774.030000 1318160.660000,912260.660000 1317674.030000,912585.820000 1317100.000000,912700.000000 1314100.000000,912700.000000 1313525.970000,912585.820000 1313039.340000,912260.660000 1312714.180000,911774.030000 1312600.000000,911200.000000 Z"/> 
<path style="fill-opacity: 1.0;stroke-width: 0.010000;stroke-opacity: 1;stroke-linecap: round;stroke-linejoin: round;fill-rule: evenodd" d="M 1325100.000000,897200.000000 1325214.180000,896625.970000 1325539.340000,896139.340000 1326025.970000,895814.180000 1326600.000000,895700.000000 1329600.000000,895700.000000 1330174.030000,895814.180000 1330660.660000,896139.340000 1330985.820000,896625.970000 1331100.000000,897200.000000 1331100.000000,911200.000000 1330985.820000,911774.030000 1330660.660000,912260.660000 1330174.030000,912585.820000 1329600.000000,912700.000000 1326600.000000,912700.000000 1326025.970000,912585.820000 1325539.340000,912260.660000 1325214.180000,911774.030000 1325100.000000,911200.000000 Z"/> 
<path style="fill-opacity: 1.0;stroke-width: 0.010000;stroke-opacity: 1;stroke-linecap: round;stroke-linejoin: round;fill-rule: evenodd" d="M 1337600.000000,897200.000000 1337714.180000,896625.970000 1338039.340000,896139.340000 1338525.970000,895814.180000 1339100.000000,895700.000000 1342100.000000,895700.000000 1342674.030000,895814.180000 1343160.660000,896139.340000 1343485.820000,896625.970000 1343600.000000,897200.000000 1343600.000000,911200.000000 1343485.820000,911774.030000 1343160.660000,912260.660000 1342674.030000,912585.820000 1342100.000000,912700.000000 1339100.000000,912700.000000 1338525.970000,912585.820000 1338039.340000,912260.660000 1337714.180000,911774.030000 1337600.000000,911200.000000 Z"/> 
<path style="fill-opacity: 1.0;stroke-width: 0.010000;stroke-opacity: 1;stroke-linecap: round;stroke-linejoin: round;fill-rule: evenodd" d="M 1279600.000000,925200.000000 1279790.300000,924243.290000 1280332.230000,923432.230000 1281143.290000,922890.300000 1282100.000000,922700.000000 1287100.000000,922700.000000 1288056.710000,922890.300000 1288867.770000,923432.230000 1289409.700000,924243.290000 1289600.000000,925200.000000 1289600.000000,947200.000000 1289409.700000,948156.710000 1288867.770000,948967.770000 1288056.710000,949509.700000 1287100.000000,949700.000000 1282100.000000,949700.000000 1281143.290000,949509.700000 1280332.230000,948967.770000 1279790.300000,948156.710000 1279600.000000,947200.000000 Z"/> 
<path style="fill-opacity: 1.0;stroke-width: 0.010000;stroke-opacity: 1;stroke-linecap: round;stroke-linejoin: round;fill-rule: evenodd" d="M 1354100.000000,925200.000000 1354290.300000,924243.290000 1354832.230000,923432.230000 1355643.290000,922890.300000 1356600.000000,922700.000000 1361600.000000,922700.000000 1362556.710000,922890.300000 1363367.770000,923432.230000 1363909.700000,924243.290000 1364100.000000,925200.000000 1364100.000000,947200.000000 1363909.700000,948156.710000 1363367.770000,948967.770000 1362556.710000,949509.700000 1361600.000000,949700.000000 1356600.000000,949700.000000 1355643.290000,949509.700000 1354832.230000,948967.770000 1354290.300000,948156.710000 1354100.000000,947200.000000 Z"/> 
</g>
<g style="fill-opacity: 1.0;stroke-width: 0.010000;stroke-opacity: 1;stroke-linecap: round;stroke-linejoin: round">
<circle cx="1117600.000000" cy="812800.000000" r="30000.000000"/> 
</g>
<g style="fill-opacity: 1.0;stroke-width: 0.010000;stroke-opacity: 1;stroke-linecap: round;stroke-linejoin: round">
<circle cx="1422400.000000" cy="1117600.000000" r="30000.000000"/> 
</g>
<g style="fill-opacity: 1.0;stroke-width: 0.010000;stroke-opacity: 1;stroke-linecap: round;stroke-linejoin: round">
<circle cx="1117600.000000" cy="1117600.000000" r="30000.000000"/> 
</g>
<g style="fill-opacity: 1.0;stroke-width: 0.010000;stroke-opacity: 1;stroke-linecap: round;stroke-linejoin: round">
<circle cx="1422400.000000" cy="812800.000000" r="30000.000000"/> 
</g>
<g style="fill-opacity: 1.0;stroke-width: 0.010000;stroke-opacity: 1;stroke-linecap: round;stroke-linejoin: round">
<path style="fill-opacity: 1.0;stroke-width: 0.010000;stroke-opacity: 1;stroke-linecap: round;stroke-linejoin: round;fill-rule: evenodd" d="M 1170940.000000,894080.000000 1170940.000000,878840.000000 1186180.000000,878840.000000 1186180.000000,894080.000000 Z"/> 
<path style="fill-opacity: 1.0;stroke-width: 0.010000;stroke-opacity: 1;stroke-linecap: round;stroke-linejoin: round;fill-rule: evenodd" d="M 1196340.000000,894080.000000 1196340.000000,878840.000000 1211580.000000,878840.000000 1211580.000000,894080.000000 Z"/> 
<path style="fill-opacity: 1.0;stroke-width: 0.010000;stroke-opacity: 1;stroke-linecap: round;stroke-linejoin: round;fill-rule: evenodd" d="M 1170940.000000,919480.000000 1170940.000000,904240.000000 1186180.000000,904240.000000 1186180.000000,919480.000000 Z"/> 
<path style="fill-opacity: 1.0;stroke-width: 0.010000;stroke-opacity: 1;stroke-linecap: round;stroke-linejoin: round;fill-rule: evenodd" d="M 1196340.000000,919480.000000 1196340.000000,904240.000000 1211580.000000,904240.000000 1211580.000000,919480.000000 Z"/> 
<path style="fill-opacity: 1.0;stroke-width: 0.010000;stroke-opacity: 1;stroke-linecap: round;stroke-linejoin: round;fill-rule: evenodd" d="M 1170940.000000,944880.000000 1170940.000000,929640.000000 1186180.000000,929640.000000 1186180.000000,944880.000000 Z"/> 
<path style="fill-opacity: 1.0;stroke-width: 0.010000;stroke-opacity: 1;stroke-linecap: round;stroke-linejoin: round;fill-rule: evenodd" d="M 1196340.000000,944880.000000 1196340.000000,929640.000000 1211580.000000,929640.000000 1211580.000000,944880.000000 Z"/> 
<path style="fill-opacity: 1.0;stroke-width: 0.010000;stroke-opacity: 1;stroke-linecap: round;stroke-linejoin: round;fill-rule: evenodd" d="M 1170940.000000,970280.000000 1170940.000000,955040.000000 1186180.000000,955040.000000 1186180.000000,970280.000000 Z"/> 
<path style="fill-opacity: 1.0;stroke-width: 0.010000;stroke-opacity: 1;stroke-linecap: round;stroke-linejoin: round;fill-rule: evenodd" d="M 1196340.000000,970280.000000 1196340.000000,955040.000000 1211580.000000,955040.000000 1211580.000000,970280.000000 Z"/> 
<path style="fill-opacity: 1.0;stroke-width: 0.010000;stroke-opacity: 1;stroke-linecap: round;stroke-linejoin: round;fill-rule: evenodd" d="M 1170940.000000,995680.000000 1170940.000000,980440.000000 1186180.000000,980440.000000 1186180.000000,995680.000000 Z"/> 
<path style="fill-opacity: 1.0;stroke-width: 0.010000;stroke-opacity: 1;stroke-linecap: round;stroke-linejoin: round;fill-rule: evenodd" d="M 1196340.000000,995680.000000 1196340.000000,980440.000000 1211580.000000,980440.000000 1211580.000000,995680.000000 Z"/> 
</g>
<g style="fill-opacity: 1.0;stroke-width: 0.010000;stroke-opacity: 1;stroke-linecap: round;stroke-linejoin: round">
<path style="fill-opacity: 1.0;stroke-width: 0.010000;stroke-opacity: 1;stroke-linecap: round;stroke-linejoin: round;fill-rule: evenodd" d="M 1299050.000000,806100.000000 1299164.180000,805525.970000 1299489.340000,805039.340000 1299975.970000,804714.180000 1300550.000000,804600.000000 1303550.000000,804600.000000 1304124.030000,804714.180000 1304610.660000,805039.340000 1304935.820000,805525.970000 1305050.000000,806100.000000 1305050.000000,820100.000000 1304935.820000,820674.030000 1304610.660000,821160.660000 1304124.030000,821485.820000 1303550.000000,821600.000000 1300550.000000,821600.000000 1299975.970000,821485.820000 1299489.340000,821160.660000 1299164.180000,820674.030000 1299050.000000,820100.000000 Z"/> 
<path style="fill-opacity: 1.0;stroke-width: 0.010000;stroke-opacity: 1;stroke-linecap: round;stroke-linejoin: round;fill-rule: evenodd" d="M 1311550.000000,806100.000000 1311664.180000,805525.970000 1311989.340000,805039.340000 1312475.970000,804714.180000 1313050.000000,804600.000000 1316050.000000,804600.000000 1316624.030000,804714.180000 1317110.660000,805039.340000 1317435.820000,805525.970000 1317550.000000,806100.000000 1317550.000000,820100.000000 1317435.820000,820674.030000 1317110.660000,821160.660000 1316624.030000,821485.820000 1316050.000000,821600.000000 1313050.000000,821600.000000 1312475.970000,821485.820000 1311989.340000,821160.660000 1311664.180000,820674.030000 1311550.000000,820100.000000 Z"/> 
<path style="fill-opacity: 1.0;stroke-width: 0.010000;stroke-opacity: 1;stroke-linecap: round;stroke-linejoin: round;fill-rule: evenodd" d="M 1324050.000000,806100.000000 1324164.180000,805525.970000 1324489.340000,805039.340000 1324975.970000,804714.180000 1325550.000000,804600.000000 1328550.000000,804600.000000 1329124.030000,804714.180000 1329610.660000,805039.340000 1329935.820000,805525.970000 1330050.000000,806100.000000 1330050.000000,820100.000000 1329935.820000,820674.030000 1329610.660000,821160.660000 1329124.030000,821485.820000 1328550.000000,821600.000000 1325550.000000,821600.000000 1324975.970000,821485.820000 1324489.340000,821160.660000 1324164.180000,820674.030000 1324050.000000,820100.000000 Z"/> 
<path style="fill-opacity: 1.0;stroke-width: 0.010000;stroke-opacity: 1;stroke-linecap: round;stroke-linejoin: round;fill-rule: evenodd" d="M 1336550.000000,806100.000000 1336664.180000,805525.970000 1336989.340000,805039.340000 1337475.970000,804714.180000 1338050.000000,804600.000000 1341050.000000,804600.000000 1341624.030000,804714.180000 1342110.660000,805039.340000 1342435.820000,805525.970000 1342550.000000,806100.000000 1342550.000000,820100.000000 1342435.820000,820674.030000 1342110.660000,821160.660000 1341624.030000,821485.820000 1341050.000000,821600.000000 1338050.000000,821600.000000 1337475.970000,821485.820000 1336989.340000,821160.660000 1336664.180000,820674.030000 1336550.000000,820100.000000 Z"/> 
<path style="fill-opacity: 1.0;stroke-width: 0.010000;stroke-opacity: 1;stroke-linecap: round;stroke-linejoin: round;fill-rule: evenodd" d="M 1353050.000000,834100.000000 1353240.300000,833143.290000 1353782.230000,832332.230000 1354593.290000,831790.300000 1355550.000000,831600.000000 1360550.000000,831600.000000 1361506.710000,831790.300000 1362317.770000,832332.230000 1362859.700000,833143.290000 1363050.000000,834100.000000 1363050.000000,856100.000000 1362859.700000,857056.710000 1362317.770000,857867.770000 1361506.710000,858409.700000 1360550.000000,858600.000000 1355550.000000,858600.000000 1354593.290000,858409.700000 1353782.230000,857867.770000 1353240.300000,857056.710000 1353050.000000,856100.000000 Z"/> 
<path style="fill-opacity: 1.0;stroke-width: 0.010000;stroke-opacity: 1;stroke-linecap: round;stroke-linejoin: round;fill-rule: evenodd" d="M 1278550.000000,834100.000000 1278740.300000,833143.290000 1279282.230000,832332.230000 1280093.290000,831790.300000 1281050.000000,831600.000000 1286050.000000,831600.000000 1287006.710000,831790.300000 1287817.770000,832332.230000 1288359.700000,833143.290000 1288550.000000,834100.000000 1288550.000000,856100.000000 1288359.700000,857056.710000 1287817.770000,857867.770000 1287006.710000,858409.700000 1286050.000000,858600.000000 1281050.000000,858600.000000 1280093.290000,858409.700000 1279282.230000,857867.770000 1278740.300000,857056.710000 1278550.000000,856100.000000 Z"/> 
</g>
</g> 
</g><g id="substrate-copper" style="fill:#f8f8f7; stroke:#f8f8f7;"><g style="fill-opacity: 0.0;stroke-width: 0.000000;stroke-opacity: 1;stroke-linecap: round;stroke-linejoin: round">
<g style="fill-opacity: 1.0;stroke-width: 0.010000;stroke-opacity: 1;stroke-linecap: round;stroke-linejoin: round">
<path style="fill-opacity: 1.0;stroke-width: 0.010000;stroke-opacity: 1;stroke-linecap: round;stroke-linejoin: round;fill-rule: evenodd" d="M 1300100.000000,897200.000000 1300214.180000,896625.970000 1300539.340000,896139.340000 1301025.970000,895814.180000 1301600.000000,895700.000000 1304600.000000,895700.000000 1305174.030000,895814.180000 1305660.660000,896139.340000 1305985.820000,896625.970000 1306100.000000,897200.000000 1306100.000000,911200.000000 1305985.820000,911774.030000 1305660.660000,912260.660000 1305174.030000,912585.820000 1304600.000000,912700.000000 1301600.000000,912700.000000 1301025.970000,912585.820000 1300539.340000,912260.660000 1300214.180000,911774.030000 1300100.000000,911200.000000 Z"/> 
<path style="fill-opacity: 1.0;stroke-width: 0.010000;stroke-opacity: 1;stroke-linecap: round;stroke-linejoin: round;fill-rule: evenodd" d="M 1312600.000000,897200.000000 1312714.180000,896625.970000 1313039.340000,896139.340000 1313525.970000,895814.180000 1314100.000000,895700.000000 1317100.000000,895700.000000 1317674.030000,895814.180000 1318160.660000,896139.340000 1318485.820000,896625.970000 1318600.000000,897200.000000 1318600.000000,911200.000000 1318485.820000,911774.030000 1318160.660000,912260.660000 1317674.030000,912585.820000 1317100.000000,912700.000000 1314100.000000,912700.000000 1313525.970000,912585.820000 1313039.340000,912260.660000 1312714.180000,911774.030000 1312600.000000,911200.000000 Z"/> 
<path style="fill-opacity: 1.0;stroke-width: 0.010000;stroke-opacity: 1;stroke-linecap: round;stroke-linejoin: round;fill-rule: evenodd" d="M 1325100.000000,897200.000000 1325214.180000,896625.970000 1325539.340000,896139.340000 1326025.970000,895814.180000 1326600.000000,895700.000000 1329600.000000,895700.000000 1330174.030000,895814.180000 1330660.660000,896139.340000 1330985.820000,896625.970000 1331100.000000,897200.000000 1331100.000000,911200.000000 1330985.820000,911774.030000 1330660.660000,912260.660000 1330174.030000,912585.820000 1329600.000000,912700.000000 1326600.000000,912700.000000 1326025.970000,912585.820000 1325539.340000,912260.660000 1325214.180000,911774.030000 1325100.000000,911200.000000 Z"/> 
<path style="fill-opacity: 1.0;stroke-width: 0.010000;stroke-opacity: 1;stroke-linecap: round;stroke-linejoin: round;fill-rule: evenodd" d="M 1337600.000000,897200.000000 1337714.180000,896625.970000 1338039.340000,896139.340000 1338525.970000,895814.180000 1339100.000000,895700.000000 1342100.000000,895700.000000 1342674.030000,895814.180000 1343160.660000,896139.340000 1343485.820000,896625.970000 1343600.000000,897200.000000 1343600.000000,911200.000000 1343485.820000,911774.030000 1343160.660000,912260.660000 1342674.030000,912585.820000 1342100.000000,912700.000000 1339100.000000,912700.000000 1338525.970000,912585.820000 1338039.340000,912260.660000 1337714.180000,911774.030000 1337600.000000,911200.000000 Z"/> 
<path style="fill-opacity: 1.0;stroke-width: 0.010000;stroke-opacity: 1;stroke-linecap: round;stroke-linejoin: round;fill-rule: evenodd" d="M 1279600.000000,925200.000000 1279790.300000,924243.290000 1280332.230000,923432.230000 1281143.290000,922890.300000 1282100.000000,922700.000000 1287100.000000,922700.000000 1288056.710000,922890.300000 1288867.770000,923432.230000 1289409.700000,924243.290000 1289600.000000,925200.000000 1289600.000000,947200.000000 1289409.700000,948156.710000 1288867.770000,948967.770000 1288056.710000,949509.700000 1287100.000000,949700.000000 1282100.000000,949700.000000 1281143.290000,949509.700000 1280332.230000,948967.770000 1279790.300000,948156.710000 1279600.000000,947200.000000 Z"/> 
<path style="fill-opacity: 1.0;stroke-width: 0.010000;stroke-opacity: 1;stroke-linecap: round;stroke-linejoin: round;fill-rule: evenodd" d="M 1354100.000000,925200.000000 1354290.300000,924243.290000 1354832.230000,923432.230000 1355643.290000,922890.300000 1356600.000000,922700.000000 1361600.000000,922700.000000 1362556.710000,922890.300000 1363367.770000,923432.230000 1363909.700000,924243.290000 1364100.000000,925200.000000 1364100.000000,947200.000000 1363909.700000,948156.710000 1363367.770000,948967.770000 1362556.710000,949509.700000 1361600.000000,949700.000000 1356600.000000,949700.000000 1355643.290000,949509.700000 1354832.230000,948967.770000 1354290.300000,948156.710000 1354100.000000,947200.000000 Z"/> 
</g>
<g style="fill-opacity: 1.0;stroke-width: 0.010000;stroke-opacity: 1;stroke-linecap: round;stroke-linejoin: round">
<circle cx="1117600.000000" cy="812800.000000" r="30000.000000"/> 
</g>
<g style="fill-opacity: 1.0;stroke-width: 0.010000;stroke-opacity: 1;stroke-linecap: round;stroke-linejoin: round">
<circle cx="1422400.000000" cy="1117600.000000" r="30000.000000"/> 
</g>
<g style="fill-opacity: 1.0;stroke-width: 0.010000;stroke-opacity: 1;stroke-linecap: round;stroke-linejoin: round">
<circle cx="1117600.000000" cy="1117600.000000" r="30000.000000"/> 
</g>
<g style="fill-opacity: 1.0;stroke-width: 0.010000;stroke-opacity: 1;stroke-linecap: round;stroke-linejoin: round">
<circle cx="1422400.000000" cy="812800.000000" r="30000.000000"/> 
</g>
<g style="fill-opacity: 1.0;stroke-width: 0.010000;stroke-opacity: 1;stroke-linecap: round;stroke-linejoin: round">
<path style="fill-opacity: 1.0;stroke-width: 0.010000;stroke-opacity: 1;stroke-linecap: round;stroke-linejoin: round;fill-rule: evenodd" d="M 1170940.000000,894080.000000 1170940.000000,878840.000000 1186180.000000,878840.000000 1186180.000000,894080.000000 Z"/> 
<path style="fill-opacity: 1.0;stroke-width: 0.010000;stroke-opacity: 1;stroke-linecap: round;stroke-linejoin: round;fill-rule: evenodd" d="M 1196340.000000,894080.000000 1196340.000000,878840.000000 1211580.000000,878840.000000 1211580.000000,894080.000000 Z"/> 
<path style="fill-opacity: 1.0;stroke-width: 0.010000;stroke-opacity: 1;stroke-linecap: round;stroke-linejoin: round;fill-rule: evenodd" d="M 1170940.000000,919480.000000 1170940.000000,904240.000000 1186180.000000,904240.000000 1186180.000000,919480.000000 Z"/> 
<path style="fill-opacity: 1.0;stroke-width: 0.010000;stroke-opacity: 1;stroke-linecap: round;stroke-linejoin: round;fill-rule: evenodd" d="M 1196340.000000,919480.000000 1196340.000000,904240.000000 1211580.000000,904240.000000 1211580.000000,919480.000000 Z"/> 
<path style="fill-opacity: 1.0;stroke-width: 0.010000;stroke-opacity: 1;stroke-linecap: round;stroke-linejoin: round;fill-rule: evenodd" d="M 1170940.000000,944880.000000 1170940.000000,929640.000000 1186180.000000,929640.000000 1186180.000000,944880.000000 Z"/> 
<path style="fill-opacity: 1.0;stroke-width: 0.010000;stroke-opacity: 1;stroke-linecap: round;stroke-linejoin: round;fill-rule: evenodd" d="M 1196340.000000,944880.000000 1196340.000000,929640.000000 1211580.000000,929640.000000 1211580.000000,944880.000000 Z"/> 
<path style="fill-opacity: 1.0;stroke-width: 0.010000;stroke-opacity: 1;stroke-linecap: round;stroke-linejoin: round;fill-rule: evenodd" d="M 1170940.000000,970280.000000 1170940.000000,955040.000000 1186180.000000,955040.000000 1186180.000000,970280.000000 Z"/> 
<path style="fill-opacity: 1.0;stroke-width: 0.010000;stroke-opacity: 1;stroke-linecap: round;stroke-linejoin: round;fill-rule: evenodd" d="M 1196340.000000,970280.000000 1196340.000000,955040.000000 1211580.000000,955040.000000 1211580.000000,970280.000000 Z"/> 
<path style="fill-opacity: 1.0;stroke-width: 0.010000;stroke-opacity: 1;stroke-linecap: round;stroke-linejoin: round;fill-rule: evenodd" d="M 1170940.000000,995680.000000 1170940.000000,980440.000000 1186180.000000,980440.000000 1186180.000000,995680.000000 Z"/> 
<path style="fill-opacity: 1.0;stroke-width: 0.010000;stroke-opacity: 1;stroke-linecap: round;stroke-linejoin: round;fill-rule: evenodd" d="M 1196340.000000,995680.000000 1196340.000000,980440.000000 1211580.000000,980440.000000 1211580.000000,995680.000000 Z"/> 
</g>
<g style="fill-opacity: 1.0;stroke-width: 0.010000;stroke-opacity: 1;stroke-linecap: round;stroke-linejoin: round">
<path style="fill-opacity: 1.0;stroke-width: 0.010000;stroke-opacity: 1;stroke-linecap: round;stroke-linejoin: round;fill-rule: evenodd" d="M 1299050.000000,806100.000000 1299164.180000,805525.970000 1299489.340000,805039.340000 1299975.970000,804714.180000 1300550.000000,804600.000000 1303550.000000,804600.000000 1304124.030000,804714.180000 1304610.660000,805039.340000 1304935.820000,805525.970000 1305050.000000,806100.000000 1305050.000000,820100.000000 1304935.820000,820674.030000 1304610.660000,821160.660000 1304124.030000,821485.820000 1303550.000000,821600.000000 1300550.000000,821600.000000 1299975.970000,821485.820000 1299489.340000,821160.660000 1299164.180000,820674.030000 1299050.000000,820100.000000 Z"/> 
<path style="fill-opacity: 1.0;stroke-width: 0.010000;stroke-opacity: 1;stroke-linecap: round;stroke-linejoin: round;fill-rule: evenodd" d="M 1311550.000000,806100.000000 1311664.180000,805525.970000 1311989.340000,805039.340000 1312475.970000,804714.180000 1313050.000000,804600.000000 1316050.000000,804600.000000 1316624.030000,804714.180000 1317110.660000,805039.340000 1317435.820000,805525.970000 1317550.000000,806100.000000 1317550.000000,820100.000000 1317435.820000,820674.030000 1317110.660000,821160.660000 1316624.030000,821485.820000 1316050.000000,821600.000000 1313050.000000,821600.000000 1312475.970000,821485.820000 1311989.340000,821160.660000 1311664.180000,820674.030000 1311550.000000,820100.000000 Z"/> 
<path style="fill-opacity: 1.0;stroke-width: 0.010000;stroke-opacity: 1;stroke-linecap: round;stroke-linejoin: round;fill-rule: evenodd" d="M 1324050.000000,806100.000000 1324164.180000,805525.970000 1324489.340000,805039.340000 1324975.970000,804714.180000 1325550.000000,804600.000000 1328550.000000,804600.000000 1329124.030000,804714.180000 1329610.660000,805039.340000 1329935.820000,805525.970000 1330050.000000,806100.000000 1330050.000000,820100.000000 1329935.820000,820674.030000 1329610.660000,821160.660000 1329124.030000,821485.820000 1328550.000000,821600.000000 1325550.000000,821600.000000 1324975.970000,821485.820000 1324489.340000,821160.660000 1324164.180000,820674.030000 1324050.000000,820100.000000 Z"/> 
<path style="fill-opacity: 1.0;stroke-width: 0.010000;stroke-opacity: 1;stroke-linecap: round;stroke-linejoin: round;fill-rule: evenodd" d="M 1336550.000000,806100.000000 1336664.180000,805525.970000 1336989.340000,805039.340000 1337475.970000,804714.180000 1338050.000000,804600.000000 1341050.000000,804600.000000 1341624.030000,804714.180000 1342110.660000,805039.340000 1342435.820000,805525.970000 1342550.000000,806100.000000 1342550.000000,820100.000000 1342435.820000,820674.030000 1342110.660000,821160.660000 1341624.030000,821485.820000 1341050.000000,821600.000000 1338050.000000,821600.000000 1337475.970000,821485.820000 1336989.340000,821160.660000 1336664.180000,820674.030000 1336550.000000,820100.000000 Z"/> 
<path style="fill-opacity: 1.0;stroke-width: 0.010000;stroke-opacity: 1;stroke-linecap: round;stroke-linejoin: round;fill-rule: evenodd" d="M 1353050.000000,834100.000000 1353240.300000,833143.290000 1353782.230000,832332.230000 1354593.290000,831790.300000 1355550.000000,831600.000000 1360550.000000,831600.000000 1361506.710000,831790.300000 1362317.770000,832332.230000 1362859.700000,833143.290000 1363050.000000,834100.000000 1363050.000000,856100.000000 1362859.700000,857056.710000 1362317.770000,857867.770000 1361506.710000,858409.700000 1360550.000000,858600.000000 1355550.000000,858600.000000 1354593.290000,858409.700000 1353782.230000,857867.770000 1353240.300000,857056.710000 1353050.000000,856100.000000 Z"/> 
<path style="fill-opacity: 1.0;stroke-width: 0.010000;stroke-opacity: 1;stroke-linecap: round;stroke-linejoin: round;fill-rule: evenodd" d="M 1278550.000000,834100.000000 1278740.300000,833143.290000 1279282.230000,832332.230000 1280093.290000,831790.300000 1281050.000000,831600.000000 1286050.000000,831600.000000 1287006.710000,831790.300000 1287817.770000,832332.230000 1288359.700000,833143.290000 1288550.000000,834100.000000 1288550.000000,856100.000000 1288359.700000,857056.710000 1287817.770000,857867.770000 1287006.710000,858409.700000 1286050.000000,858600.000000 1281050.000000,858600.000000 1280093.290000,858409.700000 1279282.230000,857867.770000 1278740.300000,857056.710000 1278550.000000,856100.000000 Z"/> 
</g>
</g> 
</g><g id="substrate-pads" style="fill:#c4c1ba; stroke:#c4c1ba;" mask="url(#pads-mask)"><g style="fill-opacity: 0.0;stroke-width: 0.000000;stroke-opacity: 1;stroke-linecap: round;stroke-linejoin: round">
<g style="fill-opacity: 1.0;stroke-width: 0.010000;stroke-opacity: 1;stroke-linecap: round;stroke-linejoin: round">
<path style="fill-opacity: 1.0;stroke-width: 0.010000;stroke-opacity: 1;stroke-linecap: round;stroke-linejoin: round;fill-rule: evenodd" d="M 1300100.000000,897200.000000 1300214.180000,896625.970000 1300539.340000,896139.340000 1301025.970000,895814.180000 1301600.000000,895700.000000 1304600.000000,895700.000000 1305174.030000,895814.180000 1305660.660000,896139.340000 1305985.820000,896625.970000 1306100.000000,897200.000000 1306100.000000,911200.000000 1305985.820000,911774.030000 1305660.660000,912260.660000 1305174.030000,912585.820000 1304600.000000,912700.000000 1301600.000000,912700.000000 1301025.970000,912585.820000 1300539.340000,912260.660000 1300214.180000,911774.030000 1300100.000000,911200.000000 Z"/> 
<path style="fill-opacity: 1.0;stroke-width: 0.010000;stroke-opacity: 1;stroke-linecap: round;stroke-linejoin: round;fill-rule: evenodd" d="M 1312600.000000,897200.000000 1312714.180000,896625.970000 1313039.340000,896139.340000 1313525.970000,895814.180000 1314100.000000,895700.000000 1317100.000000,895700.000000 1317674.030000,895814.180000 1318160.660000,896139.340000 1318485.820000,896625.970000 1318600.000000,897200.000000 1318600.000000,911200.000000 1318485.820000,911774.030000 1318160.660000,912260.660000 1317674.030000,912585.820000 1317100.000000,912700.000000 1314100.000000,912700.000000 1313525.970000,912585.820000 1313039.340000,912260.660000 1312714.180000,911774.030000 1312600.000000,911200.000000 Z"/> 
<path style="fill-opacity: 1.0;stroke-width: 0.010000;stroke-opacity: 1;stroke-linecap: round;stroke-linejoin: round;fill-rule: evenodd" d="M 1325100.000000,897200.000000 1325214.180000,896625.970000 1325539.340000,896139.340000 1326025.970000,895814.180000 1326600.000000,895700.000000 1329600.000000,895700.000000 1330174.030000,895814.180000 1330660.660000,896139.340000 1330985.820000,896625.970000 1331100.000000,897200.000000 1331100.000000,911200.000000 1330985.820000,911774.030000 1330660.660000,912260.660000 1330174.030000,912585.820000 1329600.000000,912700.000000 1326600.000000,912700.000000 1326025.970000,912585.820000 1325539.340000,912260.660000 1325214.180000,911774.030000 1325100.000000,911200.000000 Z"/> 
<path style="fill-opacity: 1.0;stroke-width: 0.010000;stroke-opacity: 1;stroke-linecap: round;stroke-linejoin: round;fill-rule: evenodd" d="M 1337600.000000,897200.000000 1337714.180000,896625.970000 1338039.340000,896139.340000 1338525.970000,895814.180000 1339100.000000,895700.000000 1342100.000000,895700.000000 1342674.030000,895814.180000 1343160.660000,896139.340000 1343485.820000,896625.970000 1343600.000000,897200.000000 1343600.000000,911200.000000 1343485.820000,911774.030000 1343160.660000,912260.660000 1342674.030000,912585.820000 1342100.000000,912700.000000 1339100.000000,912700.000000 1338525.970000,912585.820000 1338039.340000,912260.660000 1337714.180000,911774.030000 1337600.000000,911200.000000 Z"/> 
<path style="fill-opacity: 1.0;stroke-width: 0.010000;stroke-opacity: 1;stroke-linecap: round;stroke-linejoin: round;fill-rule: evenodd" d="M 1279600.000000,925200.000000 1279790.300000,924243.290000 1280332.230000,923432.230000 1281143.290000,922890.300000 1282100.000000,922700.000000 1287100.000000,922700.000000 1288056.710000,922890.300000 1288867.770000,923432.230000 1289409.700000,924243.290000 1289600.000000,925200.000000 1289600.000000,947200.000000 1289409.700000,948156.710000 1288867.770000,948967.770000 1288056.710000,949509.700000 1287100.000000,949700.000000 1282100.000000,949700.000000 1281143.290000,949509.700000 1280332.230000,948967.770000 1279790.300000,948156.710000 1279600.000000,947200.000000 Z"/> 
<path style="fill-opacity: 1.0;stroke-width: 0.010000;stroke-opacity: 1;stroke-linecap: round;stroke-linejoin: round;fill-rule: evenodd" d="M 1354100.000000,925200.000000 1354290.300000,924243.290000 1354832.230000,923432.230000 1355643.290000,922890.300000 1356600.000000,922700.000000 1361600.000000,922700.000000 1362556.710000,922890.300000 1363367.770000,923432.230000 1363909.700000,924243.290000 1364100.000000,925200.000000 1364100.000000,947200.000000 1363909.700000,948156.710000 1363367.770000,948967.770000 1362556.710000,949509.700000 1361600.000000,949700.000000 1356600.000000,949700.000000 1355643.290000,949509.700000 1354832.230000,948967.770000 1354290.300000,948156.710000 1354100.000000,947200.000000 Z"/> 
</g>
<g style="fill-opacity: 1.0;stroke-width: 0.010000;stroke-opacity: 1;stroke-linecap: round;stroke-linejoin: round">
<circle cx="1117600.000000" cy="812800.000000" r="30000.000000"/> 
</g>
<g style="fill-opacity: 1.0;stroke-width: 0.010000;stroke-opacity: 1;stroke-linecap: round;stroke-linejoin: round">
<circle cx="1422400.000000" cy="1117600.000000" r="30000.000000"/> 
</g>
<g style="fill-opacity: 1.0;stroke-width: 0.010000;stroke-opacity: 1;stroke-linecap: round;stroke-linejoin: round">
<circle cx="1117600.000000" cy="1117600.000000" r="30000.000000"/> 
</g>
<g style="fill-opacity: 1.0;stroke-width: 0.010000;stroke-opacity: 1;stroke-linecap: round;stroke-linejoin: round">
<circle cx="1422400.000000" cy="812800.000000" r="30000.000000"/> 
</g>
<g style="fill-opacity: 1.0;stroke-width: 0.010000;stroke-opacity: 1;stroke-linecap: round;stroke-linejoin: round">
<path style="fill-opacity: 1.0;stroke-width: 0.010000;stroke-opacity: 1;stroke-linecap: round;stroke-linejoin: round;fill-rule: evenodd" d="M 1170940.000000,894080.000000 1170940.000000,878840.000000 1186180.000000,878840.000000 1186180.000000,894080.000000 Z"/> 
<path style="fill-opacity: 1.0;stroke-width: 0.010000;stroke-opacity: 1;stroke-linecap: round;stroke-linejoin: round;fill-rule: evenodd" d="M 1196340.000000,894080.000000 1196340.000000,878840.000000 1211580.000000,878840.000000 1211580.000000,894080.000000 Z"/> 
<path style="fill-opacity: 1.0;stroke-width: 0.010000;stroke-opacity: 1;stroke-linecap: round;stroke-linejoin: round;fill-rule: evenodd" d="M 1170940.000000,919480.000000 1170940.000000,904240.000000 1186180.000000,904240.000000 1186180.000000,919480.000000 Z"/> 
<path style="fill-opacity: 1.0;stroke-width: 0.010000;stroke-opacity: 1;stroke-linecap: round;stroke-linejoin: round;fill-rule: evenodd" d="M 1196340.000000,919480.000000 1196340.000000,904240.000000 1211580.000000,904240.000000 1211580.000000,919480.000000 Z"/> 
<path style="fill-opacity: 1.0;stroke-width: 0.010000;stroke-opacity: 1;stroke-linecap: round;stroke-linejoin: round;fill-rule: evenodd" d="M 1170940.000000,944880.000000 1170940.000000,929640.000000 1186180.000000,929640.000000 1186180.000000,944880.000000 Z"/> 
<path style="fill-opacity: 1.0;stroke-width: 0.010000;stroke-opacity: 1;stroke-linecap: round;stroke-linejoin: round;fill-rule: evenodd" d="M 1196340.000000,944880.000000 1196340.000000,929640.000000 1211580.000000,929640.000000 1211580.000000,944880.000000 Z"/> 
<path style="fill-opacity: 1.0;stroke-width: 0.010000;stroke-opacity: 1;stroke-linecap: round;stroke-linejoin: round;fill-rule: evenodd" d="M 1170940.000000,970280.000000 1170940.000000,955040.000000 1186180.000000,955040.000000 1186180.000000,970280.000000 Z"/> 
<path style="fill-opacity: 1.0;stroke-width: 0.010000;stroke-opacity: 1;stroke-linecap: round;stroke-linejoin: round;fill-rule: evenodd" d="M 1196340.000000,970280.000000 1196340.000000,955040.000000 1211580.000000,955040.000000 1211580.000000,970280.000000 Z"/> 
<path style="fill-opacity: 1.0;stroke-width: 0.010000;stroke-opacity: 1;stroke-linecap: round;stroke-linejoin: round;fill-rule: evenodd" d="M 1170940.000000,995680.000000 1170940.000000,980440.000000 1186180.000000,980440.000000 1186180.000000,995680.000000 Z"/> 
<path style="fill-opacity: 1.0;stroke-width: 0.010000;stroke-opacity: 1;stroke-linecap: round;stroke-linejoin: round;fill-rule: evenodd" d="M 1196340.000000,995680.000000 1196340.000000,980440.000000 1211580.000000,980440.000000 1211580.000000,995680.000000 Z"/> 
</g>
<g style="fill-opacity: 1.0;stroke-width: 0.010000;stroke-opacity: 1;stroke-linecap: round;stroke-linejoin: round">
<path style="fill-opacity: 1.0;stroke-width: 0.010000;stroke-opacity: 1;stroke-linecap: round;stroke-linejoin: round;fill-rule: evenodd" d="M 1299050.000000,806100.000000 1299164.180000,805525.970000 1299489.340000,805039.340000 1299975.970000,804714.180000 1300550.000000,804600.000000 1303550.000000,804600.000000 1304124.030000,804714.180000 1304610.660000,805039.340000 1304935.820000,805525.970000 1305050.000000,806100.000000 1305050.000000,820100.000000 1304935.820000,820674.030000 1304610.660000,821160.660000 1304124.030000,821485.820000 1303550.000000,821600.000000 1300550.000000,821600.000000 1299975.970000,821485.820000 1299489.340000,821160.660000 1299164.180000,820674.030000 1299050.000000,820100.000000 Z"/> 
<path style="fill-opacity: 1.0;stroke-width: 0.010000;stroke-opacity: 1;stroke-linecap: round;stroke-linejoin: round;fill-rule: evenodd" d="M 1311550.000000,806100.000000 1311664.180000,805525.970000 1311989.340000,805039.340000 1312475.970000,804714.180000 1313050.000000,804600.000000 1316050.000000,804600.000000 1316624.030000,804714.180000 1317110.660000,805039.340000 1317435.820000,805525.970000 1317550.000000,806100.000000 1317550.000000,820100.000000 1317435.820000,820674.030000 1317110.660000,821160.660000 1316624.030000,821485.820000 1316050.000000,821600.000000 1313050.000000,821600.000000 1312475.970000,821485.820000 1311989.340000,821160.660000 1311664.180000,820674.030000 1311550.000000,820100.000000 Z"/> 
<path style="fill-opacity: 1.0;stroke-width: 0.010000;stroke-opacity: 1;stroke-linecap: round;stroke-linejoin: round;fill-rule: evenodd" d="M 1324050.000000,806100.000000 1324164.180000,805525.970000 1324489.340000,805039.340000 1324975.970000,804714.180000 1325550.000000,804600.000000 1328550.000000,804600.000000 1329124.030000,804714.180000 1329610.660000,805039.340000 1329935.820000,805525.970000 1330050.000000,806100.000000 1330050.000000,820100.000000 1329935.820000,820674.030000 1329610.660000,821160.660000 1329124.030000,821485.820000 1328550.000000,821600.000000 1325550.000000,821600.000000 1324975.970000,821485.820000 1324489.340000,821160.660000 1324164.180000,820674.030000 1324050.000000,820100.000000 Z"/> 
<path style="fill-opacity: 1.0;stroke-width: 0.010000;stroke-opacity: 1;stroke-linecap: round;stroke-linejoin: round;fill-rule: evenodd" d="M 1336550.000000,806100.000000 1336664.180000,805525.970000 1336989.340000,805039.340000 1337475.970000,804714.180000 1338050.000000,804600.000000 1341050.000000,804600.000000 1341624.030000,804714.180000 1342110.660000,805039.340000 1342435.820000,805525.970000 1342550.000000,806100.000000 1342550.000000,820100.000000 1342435.820000,820674.030000 1342110.660000,821160.660000 1341624.030000,821485.820000 1341050.000000,821600.000000 1338050.000000,821600.000000 1337475.970000,821485.820000 1336989.340000,821160.660000 1336664.180000,820674.030000 1336550.000000,820100.000000 Z"/> 
<path style="fill-opacity: 1.0;stroke-width: 0.010000;stroke-opacity: 1;stroke-linecap: round;stroke-linejoin: round;fill-rule: evenodd" d="M 1353050.000000,834100.000000 1353240.300000,833143.290000 1353782.230000,832332.230000 1354593.290000,831790.300000 1355550.000000,831600.000000 1360550.000000,831600.000000 1361506.710000,831790.300000 1362317.770000,832332.230000 1362859.700000,833143.290000 1363050.000000,834100.000000 1363050.000000,856100.000000 1362859.700000,857056.710000 1362317.770000,857867.770000 1361506.710000,858409.700000 1360550.000000,858600.000000 1355550.000000,858600.000000 1354593.290000,858409.700000 1353782.230000,857867.770000 1353240.300000,857056.710000 1353050.000000,856100.000000 Z"/> 
<path style="fill-opacity: 1.0;stroke-width: 0.010000;stroke-opacity: 1;stroke-linecap: round;stroke-linejoin: round;fill-rule: evenodd" d="M 1278550.000000,834100.000000 1278740.300000,833143.290000 1279282.230000,832332.230000 1280093.290000,831790.300000 1281050.000000,831600.000000 1286050.000000,831600.000000 1287006.710000,831790.300000 1287817.770000,832332.230000 1288359.700000,833143.290000 1288550.000000,834100.000000 1288550.000000,856100.000000 1288359.700000,857056.710000 1287817.770000,857867.770000 1287006.710000,858409.700000 1286050.000000,858600.000000 1281050.000000,858600.000000 1280093.290000,858409.700000 1279282.230000,857867.770000 1278740.300000,857056.710000 1278550.000000,856100.000000 Z"/> 
</g>
</g> 
</g><g id="substrate-silk" style="fill:#0b1013; stroke:#0b1013;" mask="url(#pads-mask-silkscreen)"><g style="fill-opacity: 0.0;stroke-width: 1500.000000;stroke-opacity: 1;stroke-linecap: round;stroke-linejoin: round">
<text x="1321850.000000" y="888700.000000" textLength="19092.860000" font-size="13333.330000" lengthAdjust="spacingAndGlyphs" text-anchor="middle" opacity="0">J1</text>
<g class="stroked-text"><desc>J1</desc>
<path d="M1318516 878223 L1318516 885366 L1318040 886795 L1317088 887747 L1315659 888223 L1314707 888223 "/>
<path d="M1328516 888223 L1322802 888223 "/>
<path d="M1325659 888223 L1325659 878223 L1324707 879652 L1323754 880604 L1322802 881080 "/>
</g><text x="1292860.000000" y="1036200.000000" textLength="271235.710000" font-size="20000.000000" lengthAdjust="spacingAndGlyphs" text-anchor="middle" opacity="0">HEADER_2x05_PARALLEL</text>
<g class="stroked-text"><desc>HEADER_2x05_PARALLEL</desc>
<path d="M1161788 1035485 L1161788 1020485 "/>
<path d="M1161788 1027628 L1170360 1027628 "/>
<path d="M1170360 1035485 L1170360 1020485 "/>
<path d="M1177502 1027628 L1182502 1027628 "/>
<path d="M1184645 1035485 L1177502 1035485 L1177502 1020485 L1184645 1020485 "/>
<path d="M1190360 1031200 L1197502 1031200 "/>
<path d="M1188931 1035485 L1193931 1020485 L1198931 1035485 "/>
<path d="M1203931 1035485 L1203931 1020485 L1207502 1020485 L1209645 1021200 L1211074 1022628 L1211788 1024057 L1212502 1026914 L1212502 1029057 L1211788 1031914 L1211074 1033342 L1209645 1034771 L1207502 1035485 L1203931 1035485 "/>
<path d="M1218931 1027628 L1223931 1027628 "/>
<path d="M1226074 1035485 L1218931 1035485 L1218931 1020485 L1226074 1020485 "/>
<path d="M1241074 1035485 L1236074 1028342 "/>
<path d="M1232502 1035485 L1232502 1020485 L1238217 1020485 L1239645 1021200 L1240360 1021914 L1241074 1023342 L1241074 1025485 L1240360 1026914 L1239645 1027628 L1238217 1028342 L1232502 1028342 "/>
<path d="M1243931 1036914 L1255360 1036914 "/>
<path d="M1258217 1021914 L1258931 1021200 L1260360 1020485 L1263931 1020485 L1265360 1021200 L1266074 1021914 L1266788 1023342 L1266788 1024771 L1266074 1026914 L1257502 1035485 L1266788 1035485 "/>
<path d="M1271788 1035485 L1279645 1025485 "/>
<path d="M1271788 1025485 L1279645 1035485 "/>
<path d="M1288217 1020485 L1289645 1020485 L1291074 1021200 L1291788 1021914 L1292502 1023342 L1293217 1026200 L1293217 1029771 L1292502 1032628 L1291788 1034057 L1291074 1034771 L1289645 1035485 L1288217 1035485 L1286788 1034771 L1286074 1034057 L1285360 1032628 L1284645 1029771 L1284645 1026200 L1285360 1023342 L1286074 1021914 L1286788 1021200 L1288217 1020485 "/>
<path d="M1306788 1020485 L1299645 1020485 L1298931 1027628 L1299645 1026914 L1301074 1026200 L1304645 1026200 L1306074 1026914 L1306788 1027628 L1307502 1029057 L1307502 1032628 L1306788 1034057 L1306074 1034771 L1304645 1035485 L1301074 1035485 L1299645 1034771 L1298931 1034057 "/>
<path d="M1310360 1036914 L1321788 1036914 "/>
<path d="M1325360 1035485 L1325360 1020485 L1331074 1020485 L1332502 1021200 L1333217 1021914 L1333931 1023342 L1333931 1025485 L1333217 1026914 L1332502 1027628 L1331074 1028342 L1325360 1028342 "/>
<path d="M1339645 1031200 L1346788 1031200 "/>
<path d="M1338217 1035485 L1343217 1020485 L1348217 1035485 "/>
<path d="M1361788 1035485 L1356788 1028342 "/>
<path d="M1353217 1035485 L1353217 1020485 L1358931 1020485 L1360360 1021200 L1361074 1021914 L1361788 1023342 L1361788 1025485 L1361074 1026914 L1360360 1027628 L1358931 1028342 L1353217 1028342 "/>
<path d="M1367502 1031200 L1374645 1031200 "/>
<path d="M1366074 1035485 L1371074 1020485 L1376074 1035485 "/>
<path d="M1388217 1035485 L1381074 1035485 L1381074 1020485 "/>
<path d="M1400360 1035485 L1393217 1035485 L1393217 1020485 "/>
<path d="M1405360 1027628 L1410360 1027628 "/>
<path d="M1412502 1035485 L1405360 1035485 L1405360 1020485 L1412502 1020485 "/>
<path d="M1426074 1035485 L1418931 1035485 L1418931 1020485 "/>
</g></g>
<g style="fill-opacity: 0.0;stroke-width: 500.000000;stroke-opacity: 1;stroke-linecap: round;stroke-linejoin: round">
<text x="1162050.000000" y="888960.000000" textLength="6711.900000" font-size="6666.660000" lengthAdjust="spacingAndGlyphs" text-anchor="middle" opacity="0">1</text>
<g class="stroked-text"><desc>1</desc>
<path d="M1163478 888721 L1160621 888721 "/>
<path d="M1162050 888721 L1162050 883721 L1161573 884436 L1161097 884912 L1160621 885150 "/>
</g></g>
<g style="fill-opacity: 0.0;stroke-width: 1500.000000;stroke-opacity: 1;stroke-linecap: round;stroke-linejoin: round">
<text x="1320800.000000" y="797600.000000" textLength="17792.860000" font-size="13333.330000" lengthAdjust="spacingAndGlyphs" text-anchor="middle" opacity="0">J2</text>
<g class="stroked-text"><desc>J2</desc>
<path d="M1317466 787123 L1317466 794266 L1316990 795695 L1316038 796647 L1314609 797123 L1313657 797123 "/>
<path d="M1321752 788076 L1322228 787600 L1323180 787123 L1325561 787123 L1326514 787600 L1326990 788076 L1327466 789028 L1327466 789980 L1326990 791409 L1321276 797123 L1327466 797123 "/>
</g></g>
<g style="fill-opacity: 0.0;stroke-width: 1200.000000;stroke-opacity: 1;stroke-linecap: round;stroke-linejoin: round">
<path d="M1364200 905600 L1346200 905600 "/>
<path d="M1297500 905600 L1297500 895700 "/>
<path d="M1364200 920100 L1364200 905600 "/>
<path d="M1279500 905600 L1297500 905600 "/>
<path d="M1292200 948300 L1351500 948300 "/>
<path d="M1279500 920100 L1279500 905600 "/>
</g>
<g style="fill-opacity: 0.0;stroke-width: 1500.000000;stroke-opacity: 1;stroke-linecap: round;stroke-linejoin: round">
<path d="M1165860 873760 L1216660 873760 "/>
<path d="M1216660 1000760 L1165860 1000760 "/>
<path d="M1165860 1000760 L1165860 873760 "/>
<path d="M1216660 873760 L1216660 1000760 "/>
</g>
<g style="fill-opacity: 0.0;stroke-width: 1200.000000;stroke-opacity: 1;stroke-linecap: round;stroke-linejoin: round">
<path d="M1296450 814500 L1296450 804600 "/>
<path d="M1363150 814500 L1345150 814500 "/>
<path d="M1278450 814500 L1296450 814500 "/>
<path d="M1291150 857200 L1350450 857200 "/>
<path d="M1278450 829000 L1278450 814500 "/>
<path d="M1363150 829000 L1363150 814500 "/>
<g style="fill-opacity: 1.0;stroke-width: 0.010000;stroke-opacity: 1;stroke-linecap: round;stroke-linejoin: round">
<path style="fill-opacity: 1.0;stroke-width: 0.010000;stroke-opacity: 1;stroke-linecap: round;stroke-linejoin: round;fill-rule: evenodd" d="M 1170940.000000,894080.000000 1170940.000000,878840.000000 1186180.000000,878840.000000 1186180.000000,894080.000000 Z"/> 
<path style="fill-opacity: 1.0;stroke-width: 0.010000;stroke-opacity: 1;stroke-linecap: round;stroke-linejoin: round;fill-rule: evenodd" d="M 1196340.000000,894080.000000 1196340.000000,878840.000000 1211580.000000,878840.000000 1211580.000000,894080.000000 Z"/> 
<path style="fill-opacity: 1.0;stroke-width: 0.010000;stroke-opacity: 1;stroke-linecap: round;stroke-linejoin: round;fill-rule: evenodd" d="M 1170940.000000,919480.000000 1170940.000000,904240.000000 1186180.000000,904240.000000 1186180.000000,919480.000000 Z"/> 
<path style="fill-opacity: 1.0;stroke-width: 0.010000;stroke-opacity: 1;stroke-linecap: round;stroke-linejoin: round;fill-rule: evenodd" d="M 1196340.000000,919480.000000 1196340.000000,904240.000000 1211580.000000,904240.000000 1211580.000000,919480.000000 Z"/> 
<path style="fill-opacity: 1.0;stroke-width: 0.010000;stroke-opacity: 1;stroke-linecap: round;stroke-linejoin: round;fill-rule: evenodd" d="M 1170940.000000,944880.000000 1170940.000000,929640.000000 1186180.000000,929640.000000 1186180.000000,944880.000000 Z"/> 
<path style="fill-opacity: 1.0;stroke-width: 0.010000;stroke-opacity: 1;stroke-linecap: round;stroke-linejoin: round;fill-rule: evenodd" d="M 1196340.000000,944880.000000 1196340.000000,929640.000000 1211580.000000,929640.000000 1211580.000000,944880.000000 Z"/> 
<path style="fill-opacity: 1.0;stroke-width: 0.010000;stroke-opacity: 1;stroke-linecap: round;stroke-linejoin: round;fill-rule: evenodd" d="M 1170940.000000,970280.000000 1170940.000000,955040.000000 1186180.000000,955040.000000 1186180.000000,970280.000000 Z"/> 
<path style="fill-opacity: 1.0;stroke-width: 0.010000;stroke-opacity: 1;stroke-linecap: round;stroke-linejoin: round;fill-rule: evenodd" d="M 1196340.000000,970280.000000 1196340.000000,955040.000000 1211580.000000,955040.000000 1211580.000000,970280.000000 Z"/> 
<path style="fill-opacity: 1.0;stroke-width: 0.010000;stroke-opacity: 1;stroke-linecap: round;stroke-linejoin: round;fill-rule: evenodd" d="M 1170940.000000,995680.000000 1170940.000000,980440.000000 1186180.000000,980440.000000 1186180.000000,995680.000000 Z"/> 
<path style="fill-opacity: 1.0;stroke-width: 0.010000;stroke-opacity: 1;stroke-linecap: round;stroke-linejoin: round;fill-rule: evenodd" d="M 1196340.000000,995680.000000 1196340.000000,980440.000000 1211580.000000,980440.000000 1211580.000000,995680.000000 Z"/> 
</g>
</g> 
</g><g id="substrate-outline" style="fill:#000000; stroke:#000000; stroke-width: 1500.0"><g style="fill-opacity: 0.0;stroke-opacity: 1;stroke-linecap: round;stroke-linejoin: round">
<path d="M1470660 1165860 L1470660 764540 "/>
<path d="M1069340 764540 L1069340 1165860 "/>
<path d="M1069340 1165860 L1470660 1165860 "/>
<path d="M1470660 764540 L1069340 764540 "/>
<circle cx="1117600.000000" cy="1117600.000000" r="16666.660000"/> 
<path d="M1092600 1117600 L1142600 1117600 "/>
<path d="M1117600 1092600 L1117600 1142600 "/>
<circle cx="1117600.000000" cy="1117600.000000" r="16666.660000"/> 
<path d="M1092600 1117600 L1142600 1117600 "/>
<path d="M1117600 1092600 L1117600 1142600 "/>
<circle cx="1117600.000000" cy="1117600.000000" r="16666.660000"/> 
<path d="M1092600 1117600 L1142600 1117600 "/>
<path d="M1117600 1092600 L1117600 1142600 "/>
</g> 
<path d="M -15000.0 0.0 A 15000.0 15000.0 0 1 1 15000.0 0.0 L 15000.0 -0.0 A 15000.0 15000.0 0 1 1 -15000.0 -0.0 Z" transform="translate(1117600.0 812800.0) rotate(-0.0)"/><path d="M -15000.0 0.0 A 15000.0 15000.0 0 1 1 15000.0 0.0 L 15000.0 -0.0 A 15000.0 15000.0 0 1 1 -15000.0 -0.0 Z" transform="translate(1422400.0 1117600.0) rotate(-0.0)"/><path d="M -15000.0 0.0 A 15000.0 15000.0 0 1 1 15000.0 0.0 L 15000.0 -0.0 A 15000.0 15000.0 0 1 1 -15000.0 -0.0 Z" transform="translate(1117600.0 1117600.0) rotate(-0.0)"/><path d="M -15000.0 0.0 A 15000.0 15000.0 0 1 1 15000.0 0.0 L 15000.0 -0.0 A 15000.0 15000.0 0 1 1 -15000.0 -0.0 Z" transform="translate(1422400.0 812800.0) rotate(-0.0)"/><path d="M -4445.0 0.0 A 4445.0 4445.0 0 1 1 4445.0 0.0 L 4445.0 -0.0 A 4445.0 4445.0 0 1 1 -4445.0 -0.0 Z" transform="translate(1178560.0 886460.0) rotate(-0.0)"/><path d="M -4445.0 0.0 A 4445.0 4445.0 0 1 1 4445.0 0.0 L 4445.0 -0.0 A 4445.0 4445.0 0 1 1 -4445.0 -0.0 Z" transform="translate(1203960.0 886460.0) rotate(-0.0)"/><path d="M -4445.0 0.0 A 4445.0 4445.0 0 1 1 4445.0 0.0 L 4445.0 -0.0 A 4445.0 4445.0 0 1 1 -4445.0 -0.0 Z" transform="translate(1178560.0 911860.0) rotate(-0.0)"/><path d="M -4445.0 0.0 A 4445.0 4445.0 0 1 1 4445.0 0.0 L 4445.0 -0.0 A 4445.0 4445.0 0 1 1 -4445.0 -0.0 Z" transform="translate(1203960.0 911860.0) rotate(-0.0)"/><path d="M -4445.0 0.0 A 4445.0 4445.0 0 1 1 4445.0 0.0 L 4445.0 -0.0 A 4445.0 4445.0 0 1 1 -4445.0 -0.0 Z" transform="translate(1178560.0 937260.0) rotate(-0.0)"/><path d="M -4445.0 0.0 A 4445.0 4445.0 0 1 1 4445.0 0.0 L 4445.0 -0.0 A 4445.0 4445.0 0 1 1 -4445.0 -0.0 Z" transform="translate(1203960.0 937260.0) rotate(-0.0)"/><path d="M -4445.0 0.0 A 4445.0 4445.0 0 1 1 4445.0 0.0 L 4445.0 -0.0 A 4445.0 4445.0 0 1 1 -4445.0 -0.0 Z" transform="translate(1178560.0 962660.0) rotate(-0.0)"/><path d="M -4445.0 0.0 A 4445.0 4445.0 0 1 1 4445.0 0.0 L 4445.0 -0.0 A 4445.0 4445.0 0 1 1 -4445.0 -0.0 Z" transform="translate(1203960.0 962660.0) rotate(-0.0)"/><path d="M -4445.0 0.0 A 4445.0 4445.0 0 1 1 4445.0 0.0 L 4445.0 -0.0 A 4445.0 4445.0 0 1 1 -4445.0 -0.0 Z" transform="translate(1178560.0 988060.0) rotate(-0.0)"/><path d="M -4445.0 0.0 A 4445.0 4445.0 0 1 1 4445.0 0.0 L 4445.0 -0.0 A 4445.0 4445.0 0 1 1 -4445.0 -0.0 Z" transform="translate(1203960.0 988060.0) rotate(-0.0)"/></g></g><g id="substrate-paste" style="fill:#8a8a8a; stroke:#8a8a8a;"><g style="fill-opacity: 0.0;stroke-width: 0.000000;stroke-opacity: 1;stroke-linecap: round;stroke-linejoin: round">
<g style="fill-opacity: 1.0;stroke-width: 0.010000;stroke-opacity: 1;stroke-linecap: round;stroke-linejoin: round">
<path style="fill-opacity: 1.0;stroke-width: 0.010000;stroke-opacity: 1;stroke-linecap: round;stroke-linejoin: round;fill-rule: evenodd" d="M 1300100.000000,897200.000000 1300214.180000,896625.970000 1300539.340000,896139.340000 1301025.970000,895814.180000 1301600.000000,895700.000000 1304600.000000,895700.000000 1305174.030000,895814.180000 1305660.660000,896139.340000 1305985.820000,896625.970000 1306100.000000,897200.000000 1306100.000000,911200.000000 1305985.820000,911774.030000 1305660.660000,912260.660000 1305174.030000,912585.820000 1304600.000000,912700.000000 1301600.000000,912700.000000 1301025.970000,912585.820000 1300539.340000,912260.660000 1300214.180000,911774.030000 1300100.000000,911200.000000 Z"/> 
<path style="fill-opacity: 1.0;stroke-width: 0.010000;stroke-opacity: 1;stroke-linecap: round;stroke-linejoin: round;fill-rule: evenodd" d="M 1312600.000000,897200.000000 1312714.180000,896625.970000 1313039.340000,896139.340000 1313525.970000,895814.180000 1314100.000000,895700.000000 1317100.000000,895700.000000 1317674.030000,895814.180000 1318160.660000,896139.340000 1318485.820000,896625.970000 1318600.000000,897200.000000 1318600.000000,911200.000000 1318485.820000,911774.030000 1318160.660000,912260.660000 1317674.030000,912585.820000 1317100.000000,912700.000000 1314100.000000,912700.000000 1313525.970000,912585.820000 1313039.340000,912260.660000 1312714.180000,911774.030000 1312600.000000,911200.000000 Z"/> 
<path style="fill-opacity: 1.0;stroke-width: 0.010000;stroke-opacity: 1;stroke-linecap: round;stroke-linejoin: round;fill-rule: evenodd" d="M 1325100.000000,897200.000000 1325214.180000,896625.970000 1325539.340000,896139.340000 1326025.970000,895814.180000 1326600.000000,895700.000000 1329600.000000,895700.000000 1330174.030000,895814.180000 1330660.660000,896139.340000 1330985.820000,896625.970000 1331100.000000,897200.000000 1331100.000000,911200.000000 1330985.820000,911774.030000 1330660.660000,912260.660000 1330174.030000,912585.820000 1329600.000000,912700.000000 1326600.000000,912700.000000 1326025.970000,912585.820000 1325539.340000,912260.660000 1325214.180000,911774.030000 1325100.000000,911200.000000 Z"/> 
<path style="fill-opacity: 1.0;stroke-width: 0.010000;stroke-opacity: 1;stroke-linecap: round;stroke-linejoin: round;fill-rule: evenodd" d="M 1337600.000000,897200.000000 1337714.180000,896625.970000 1338039.340000,896139.340000 1338525.970000,895814.180000 1339100.000000,895700.000000 1342100.000000,895700.000000 1342674.030000,895814.180000 1343160.660000,896139.340000 1343485.820000,896625.970000 1343600.000000,897200.000000 1343600.000000,911200.000000 1343485.820000,911774.030000 1343160.660000,912260.660000 1342674.030000,912585.820000 1342100.000000,912700.000000 1339100.000000,912700.000000 1338525.970000,912585.820000 1338039.340000,912260.660000 1337714.180000,911774.030000 1337600.000000,911200.000000 Z"/> 
<path style="fill-opacity: 1.0;stroke-width: 0.010000;stroke-opacity: 1;stroke-linecap: round;stroke-linejoin: round;fill-rule: evenodd" d="M 1279600.000000,925200.000000 1279790.300000,924243.290000 1280332.230000,923432.230000 1281143.290000,922890.300000 1282100.000000,922700.000000 1287100.000000,922700.000000 1288056.710000,922890.300000 1288867.770000,923432.230000 1289409.700000,924243.290000 1289600.000000,925200.000000 1289600.000000,947200.000000 1289409.700000,948156.710000 1288867.770000,948967.770000 1288056.710000,949509.700000 1287100.000000,949700.000000 1282100.000000,949700.000000 1281143.290000,949509.700000 1280332.230000,948967.770000 1279790.300000,948156.710000 1279600.000000,947200.000000 Z"/> 
<path style="fill-opacity: 1.0;stroke-width: 0.010000;stroke-opacity: 1;stroke-linecap: round;stroke-linejoin: round;fill-rule: evenodd" d="M 1354100.000000,925200.000000 1354290.300000,924243.290000 1354832.230000,923432.230000 1355643.290000,922890.300000 1356600.000000,922700.000000 1361600.000000,922700.000000 1362556.710000,922890.300000 1363367.770000,923432.230000 1363909.700000,924243.290000 1364100.000000,925200.000000 1364100.000000,947200.000000 1363909.700000,948156.710000 1363367.770000,948967.770000 1362556.710000,949509.700000 1361600.000000,949700.000000 1356600.000000,949700.000000 1355643.290000,949509.700000 1354832.230000,948967.770000 1354290.300000,948156.710000 1354100.000000,947200.000000 Z"/> 
</g>
<g style="fill-opacity: 1.0;stroke-width: 0.010000;stroke-opacity: 1;stroke-linecap: round;stroke-linejoin: round">
<path style="fill-opacity: 1.0;stroke-width: 0.010000;stroke-opacity: 1;stroke-linecap: round;stroke-linejoin: round;fill-rule: evenodd" d="M 1299050.000000,806100.000000 1299164.180000,805525.970000 1299489.340000,805039.340000 1299975.970000,804714.180000 1300550.000000,804600.000000 1303550.000000,804600.000000 1304124.030000,804714.180000 1304610.660000,805039.340000 1304935.820000,805525.970000 1305050.000000,806100.000000 1305050.000000,820100.000000 1304935.820000,820674.030000 1304610.660000,821160.660000 1304124.030000,821485.820000 1303550.000000,821600.000000 1300550.000000,821600.000000 1299975.970000,821485.820000 1299489.340000,821160.660000 1299164.180000,820674.030000 1299050.000000,820100.000000 Z"/> 
<path style="fill-opacity: 1.0;stroke-width: 0.010000;stroke-opacity: 1;stroke-linecap: round;stroke-linejoin: round;fill-rule: evenodd" d="M 1311550.000000,806100.000000 1311664.180000,805525.970000 1311989.340000,805039.340000 1312475.970000,804714.180000 1313050.000000,804600.000000 1316050.000000,804600.000000 1316624.030000,804714.180000 1317110.660000,805039.340000 1317435.820000,805525.970000 1317550.000000,806100.000000 1317550.000000,820100.000000 1317435.820000,820674.030000 1317110.660000,821160.660000 1316624.030000,821485.820000 1316050.000000,821600.000000 1313050.000000,821600.000000 1312475.970000,821485.820000 1311989.340000,821160.660000 1311664.180000,820674.030000 1311550.000000,820100.000000 Z"/> 
<path style="fill-opacity: 1.0;stroke-width: 0.010000;stroke-opacity: 1;stroke-linecap: round;stroke-linejoin: round;fill-rule: evenodd" d="M 1324050.000000,806100.000000 1324164.180000,805525.970000 1324489.340000,805039.340000 1324975.970000,804714.180000 1325550.000000,804600.000000 1328550.000000,804600.000000 1329124.030000,804714.180000 1329610.660000,805039.340000 1329935.820000,805525.970000 1330050.000000,806100.000000 1330050.000000,820100.000000 1329935.820000,820674.030000 1329610.660000,821160.660000 1329124.030000,821485.820000 1328550.000000,821600.000000 1325550.000000,821600.000000 1324975.970000,821485.820000 1324489.340000,821160.660000 1324164.180000,820674.030000 1324050.000000,820100.000000 Z"/> 
<path style="fill-opacity: 1.0;stroke-width: 0.010000;stroke-opacity: 1;stroke-linecap: round;stroke-linejoin: round;fill-rule: evenodd" d="M 1336550.000000,806100.000000 1336664.180000,805525.970000 1336989.340000,805039.340000 1337475.970000,804714.180000 1338050.000000,804600.000000 1341050.000000,804600.000000 1341624.030000,804714.180000 1342110.660000,805039.340000 1342435.820000,805525.970000 1342550.000000,806100.000000 1342550.000000,820100.000000 1342435.820000,820674.030000 1342110.660000,821160.660000 1341624.030000,821485.820000 1341050.000000,821600.000000 1338050.000000,821600.000000 1337475.970000,821485.820000 1336989.340000,821160.660000 1336664.180000,820674.030000 1336550.000000,820100.000000 Z"/> 
<path style="fill-opacity: 1.0;stroke-width: 0.010000;stroke-opacity: 1;stroke-linecap: round;stroke-linejoin: round;fill-rule: evenodd" d="M 1353050.000000,834100.000000 1353240.300000,833143.290000 1353782.230000,832332.230000 1354593.290000,831790.300000 1355550.000000,831600.000000 1360550.000000,831600.000000 1361506.710000,831790.300000 1362317.770000,832332.230000 1362859.700000,833143.290000 1363050.000000,834100.000000 1363050.000000,856100.000000 1362859.700000,857056.710000 1362317.770000,857867.770000 1361506.710000,858409.700000 1360550.000000,858600.000000 1355550.000000,858600.000000 1354593.290000,858409.700000 1353782.230000,857867.770000 1353240.300000,857056.710000 1353050.000000,856100.000000 Z"/> 
<path style="fill-opacity: 1.0;stroke-width: 0.010000;stroke-opacity: 1;stroke-linecap: round;stroke-linejoin: round;fill-rule: evenodd" d="M 1278550.000000,834100.000000 1278740.300000,833143.290000 1279282.230000,832332.230000 1280093.290000,831790.300000 1281050.000000,831600.000000 1286050.000000,831600.000000 1287006.710000,831790.300000 1287817.770000,832332.230000 1288359.700000,833143.290000 1288550.000000,834100.000000 1288550.000000,856100.000000 1288359.700000,857056.710000 1287817.770000,857867.770000 1287006.710000,858409.700000 1286050.000000,858600.000000 1281050.000000,858600.000000 1280093.290000,858409.700000 1279282.230000,857867.770000 1278740.300000,857056.710000 1278550.000000,856100.000000 Z"/> 
</g>
</g> 
</g></g><g transform="" id="componentContainer"><!--Connector_JST:JST_GH_SM04B-GHS-TB_1x04-1MP_P1.25mm_Horizontal:J1--><g transform="translate(1321850.0 922700.0) scale(10000.0, 9999.999513629109) rotate(-0.0) translate(-4.0769644 -2.4246416)"><g id="pref_12_Connector_JST__JST_GH_SM04BGHSTB_1x041MP_P125mm_Horizontal_SM04BGHSTB"><g id="pref_13pin" transform="translate(2.5124252,0.27816504)">
    <rect style="fill:#f5f6f0;fill-opacity:1;stroke:#000000;stroke-width:0;stroke-miterlimit:4;stroke-dasharray:none" id="pref_13rect178" width="8.2158813" height="4.0158815" x="-2.5124247" y="-0.27816454"/>
    <path style="fill:#a5a5a7;fill-opacity:1;stroke:#000000;stroke-width:0;stroke-miterlimit:4;stroke-dasharray:none" id="pref_13path2279" d="m 19.774406,1.359875 -0.968793,-1.67799872 -0.968793,-1.67799868 1.937586,-2e-7 1.937586,1e-7 -0.968792,1.67799882 z" transform="matrix(0.27234845,0,0,0.27139643,-0.33615615,0.26736706)"/>
    <path style="fill:#f3f6f6;fill-opacity:1;stroke:#000000;stroke-width:0;stroke-miterlimit:4;stroke-dasharray:none" id="pref_13path2153" d="m 19.774406,1.359875 -0.968793,-1.67799872 -0.968793,-1.67799868 1.937586,-2e-7 1.937586,1e-7 -0.968792,1.67799882 z" transform="matrix(0.26458333,0,0,0.26458333,-0.18259561,0.25388166)"/>
    <g id="pref_13g3811" transform="translate(-0.37949425)">
      <rect style="fill:#e2e62c;fill-opacity:1;stroke:#000000;stroke-width:0;stroke-miterlimit:4;stroke-dasharray:none" id="pref_13rect2933" width="0.19999942" height="0.19999918" x="1.051358e-05" y="3.6339235" ry="0.0052916547" rx="0.026458433"/>
      <rect style="fill:#e2e62c;fill-opacity:1;stroke:#000000;stroke-width:0;stroke-miterlimit:4;stroke-dasharray:none" id="pref_13rect3801" width="0.19999942" height="0.19999918" x="1.2500105" y="3.6339235" ry="0.0052916547" rx="0.026458433"/>
      <rect style="fill:#e2e62c;fill-opacity:1;stroke:#000000;stroke-width:0;stroke-miterlimit:4;stroke-dasharray:none" id="pref_13rect3803" width="0.19999942" height="0.19999918" x="2.5000105" y="3.6339235" ry="0.0052916547" rx="0.026458433"/>
      <rect style="fill:#e2e62c;fill-opacity:1;stroke:#000000;stroke-width:0;stroke-miterlimit:4;stroke-dasharray:none" id="pref_13rect3805" width="0.19999942" height="0.19999918" x="3.7500105" y="3.6339235" ry="0.0052916547" rx="0.026458433"/>
    </g>
    <rect style="fill:#c2d0c8;fill-opacity:1;stroke:#000000;stroke-width:0;stroke-miterlimit:4;stroke-dasharray:none" id="pref_13rect3835" width="0.38701597" height="1.7734947" x="5.3164411" y="1.9642222"/>
    <rect style="fill:#545457;fill-opacity:1;stroke:#000000;stroke-width:0;stroke-miterlimit:4;stroke-dasharray:none" id="pref_13rect5017" width="0.10005131" height="0.78580326" x="5.3164411" y="1.9642222" rx="0.0068400046" ry="0.011723206"/>
    <rect style="fill:#545457;fill-opacity:1;stroke:#000000;stroke-width:0;stroke-miterlimit:4;stroke-dasharray:none" id="pref_13rect5193" width="0.10005131" height="0.11041039" x="5.5352831" y="3.5406897" rx="0.0068400046" ry="0.0016471855"/>
    <g id="pref_13g5204" transform="matrix(-1,0,0,1,-6.2541513,0.6368897)">
      <rect style="fill:#c2d0c8;fill-opacity:1;stroke:#000000;stroke-width:0;stroke-miterlimit:4;stroke-dasharray:none" id="pref_13rect5195" width="0.38701597" height="1.7734947" x="-4.1287427" y="1.3273324"/>
      <rect style="fill:#545457;fill-opacity:1;stroke:#000000;stroke-width:0;stroke-miterlimit:4;stroke-dasharray:none" id="pref_13rect5197" width="0.10005131" height="0.78580326" x="-4.1287427" y="1.3273324" rx="0.0068400046" ry="0.011723206"/>
      <rect style="fill:#545457;fill-opacity:1;stroke:#000000;stroke-width:0;stroke-miterlimit:4;stroke-dasharray:none" id="pref_13rect5199" width="0.10005131" height="0.11041039" x="-3.9099009" y="2.9038" rx="0.0068400046" ry="0.0016471855"/>
    </g>
  </g>
  </g></g><!--Connector_JST:JST_GH_SM04B-GHS-TB_1x04-1MP_P1.25mm_Horizontal:J2--><g transform="translate(1320800.0 831600.0) scale(10000.0, 9999.999513629109) rotate(-0.0) translate(-4.0769644 -2.4246416)"><use xmlns:xlink="http://www.w3.org/1999/xlink" xlink:href="#pref_12_Connector_JST__JST_GH_SM04BGHSTB_1x041MP_P125mm_Horizontal_SM04BGHSTB"/></g></g></svg>