<!DOCTYPE svg PUBLIC "-//W3C//DTD SVG 1.1//EN" "http://www.w3.org/Graphics/SVG/1.1/DTD/svg11.dtd">
<svg xmlns="http://www.w3.org/2000/svg" version="1.1" width="50.1447mm" height="50.1447mm" viewBox="-152.07235 71.44765 50.1447 50.1447">
            <title>Picture generated by PcbDraw </title>
            <desc>Picture generated by PcbDraw</desc>
        <defs><clipPath id="cut-off"><path d=" M 111.7600 111.7600 m-1.6667 0 a 1.6667 1.6667 0 1 0 3.3334 0 a 1.6667 1.6667 0 1 0 -3.3334 0  M 111.7600 111.7600 m-1.6667 0 a 1.6667 1.6667 0 1 0 3.3334 0 a 1.6667 1.6667 0 1 0 -3.3334 0  M 111.7600 111.7600 m-1.6667 0 a 1.6667 1.6667 0 1 0 3.3334 0 a 1.6667 1.6667 0 1 0 -3.3334 0  M 147.066 76.454 L 106.934 76.454 L 106.934 116.586 L 147.066 116.586 L 147.066 76.454  M 109.26 111.76 L 114.26 111.76 L 109.26 111.76 L 114.26 111.76  M 111.76 109.26 L 111.76 114.26 L 111.76 109.26 L 111.76 114.26 " style="fill-rule: evenodd;"/></clipPath><mask id="pads-mask"><g style="fill:#ffffff; fill-opacity:0.0;  stroke:#ffffff; stroke-width:0.0000; stroke-opacity:1;  stroke-linecap:round; stroke-linejoin:round;">
<g style="fill:#ffffff; fill-opacity:1.0000;  stroke:#ffffff; stroke-width:0.0000; stroke-opacity:1;  stroke-linecap:round; stroke-linejoin:round;">
<circle cx="111.7600" cy="81.2800" r="3.0000"/> 
</g>
<g style="fill:#ffffff; fill-opacity:1.0000;  stroke:#ffffff; stroke-width:0.0000; stroke-opacity:1;  stroke-linecap:round; stroke-linejoin:round;">
<circle cx="142.2400" cy="111.7600" r="3.0000"/> 
</g>
<g style="fill:#ffffff; fill-opacity:1.0000;  stroke:#ffffff; stroke-width:0.0000; stroke-opacity:1;  stroke-linecap:round; stroke-linejoin:round;">
<circle cx="111.7600" cy="111.7600" r="3.0000"/> 
</g>
<g style="fill:#ffffff; fill-opacity:1.0000;  stroke:#ffffff; stroke-width:0.0000; stroke-opacity:1;  stroke-linecap:round; stroke-linejoin:round;">
<circle cx="142.2400" cy="81.2800" r="3.0000"/> 
</g>
<g style="fill:#ffffff; fill-opacity:1.0000;  stroke:#ffffff; stroke-width:0.0000; stroke-opacity:1;  stroke-linecap:round; stroke-linejoin:round;">
<path style="fill:#ffffff; fill-opacity:1.0000;  stroke:#ffffff; stroke-width:0.0000; stroke-opacity:1;  stroke-linecap:round; stroke-linejoin:round;fill-rule:evenodd;" d="M 109.9820,92.2020 109.9820,90.6780 111.5060,90.6780 111.5060,92.2020 Z"/> 
<path style="fill:#ffffff; fill-opacity:1.0000;  stroke:#ffffff; stroke-width:0.0000; stroke-opacity:1;  stroke-linecap:round; stroke-linejoin:round;fill-rule:evenodd;" d="M 112.5220,92.2020 112.5220,90.6780 114.0460,90.6780 114.0460,92.2020 Z"/> 
<path style="fill:#ffffff; fill-opacity:1.0000;  stroke:#ffffff; stroke-width:0.0000; stroke-opacity:1;  stroke-linecap:round; stroke-linejoin:round;fill-rule:evenodd;" d="M 109.9820,94.7420 109.9820,93.2180 111.5060,93.2180 111.5060,94.7420 Z"/> 
<path style="fill:#ffffff; fill-opacity:1.0000;  stroke:#ffffff; stroke-width:0.0000; stroke-opacity:1;  stroke-linecap:round; stroke-linejoin:round;fill-rule:evenodd;" d="M 112.5220,94.7420 112.5220,93.2180 114.0460,93.2180 114.0460,94.7420 Z"/> 
<path style="fill:#ffffff; fill-opacity:1.0000;  stroke:#ffffff; stroke-width:0.0000; stroke-opacity:1;  stroke-linecap:round; stroke-linejoin:round;fill-rule:evenodd;" d="M 109.9820,97.2820 109.9820,95.7580 111.5060,95.7580 111.5060,97.2820 Z"/> 
<path style="fill:#ffffff; fill-opacity:1.0000;  stroke:#ffffff; stroke-width:0.0000; stroke-opacity:1;  stroke-linecap:round; stroke-linejoin:round;fill-rule:evenodd;" d="M 112.5220,97.2820 112.5220,95.7580 114.0460,95.7580 114.0460,97.2820 Z"/> 
<path style="fill:#ffffff; fill-opacity:1.0000;  stroke:#ffffff; stroke-width:0.0000; stroke-opacity:1;  stroke-linecap:round; stroke-linejoin:round;fill-rule:evenodd;" d="M 109.9820,99.8220 109.9820,98.2980 111.5060,98.2980 111.5060,99.8220 Z"/> 
<path style="fill:#ffffff; fill-opacity:1.0000;  stroke:#ffffff; stroke-width:0.0000; stroke-opacity:1;  stroke-linecap:round; stroke-linejoin:round;fill-rule:evenodd;" d="M 112.5220,99.8220 112.5220,98.2980 114.0460,98.2980 114.0460,99.8220 Z"/> 
<path style="fill:#ffffff; fill-opacity:1.0000;  stroke:#ffffff; stroke-width:0.0000; stroke-opacity:1;  stroke-linecap:round; stroke-linejoin:round;fill-rule:evenodd;" d="M 109.9820,102.3620 109.9820,100.8380 111.5060,100.8380 111.5060,102.3620 Z"/> 
<path style="fill:#ffffff; fill-opacity:1.0000;  stroke:#ffffff; stroke-width:0.0000; stroke-opacity:1;  stroke-linecap:round; stroke-linejoin:round;fill-rule:evenodd;" d="M 112.5220,102.3620 112.5220,100.8380 114.0460,100.8380 114.0460,102.3620 Z"/> 
</g>
<g style="fill:#ffffff; fill-opacity:1.0000;  stroke:#ffffff; stroke-width:0.0000; stroke-opacity:1;  stroke-linecap:round; stroke-linejoin:round;">
<path style="fill:#ffffff; fill-opacity:1.0000;  stroke:#ffffff; stroke-width:0.0000; stroke-opacity:1;  stroke-linecap:round; stroke-linejoin:round;fill-rule:evenodd;" d="M 124.8340,101.9650 124.8914,101.9764 124.9401,102.0089 124.9726,102.0576 124.9840,102.1150 124.9840,102.4150 124.9726,102.4724 124.9401,102.5211 124.8914,102.5536 124.8340,102.5650 123.4340,102.5650 123.3766,102.5536 123.3279,102.5211 123.2954,102.4724 123.2840,102.4150 123.2840,102.1150 123.2954,102.0576 123.3279,102.0089 123.3766,101.9764 123.4340,101.9650 Z"/> 
<path style="fill:#ffffff; fill-opacity:1.0000;  stroke:#ffffff; stroke-width:0.0000; stroke-opacity:1;  stroke-linecap:round; stroke-linejoin:round;fill-rule:evenodd;" d="M 124.8340,103.2150 124.8914,103.2264 124.9401,103.2589 124.9726,103.3076 124.9840,103.3650 124.9840,103.6650 124.9726,103.7224 124.9401,103.7711 124.8914,103.8036 124.8340,103.8150 123.4340,103.8150 123.3766,103.8036 123.3279,103.7711 123.2954,103.7224 123.2840,103.6650 123.2840,103.3650 123.2954,103.3076 123.3279,103.2589 123.3766,103.2264 123.4340,103.2150 Z"/> 
<path style="fill:#ffffff; fill-opacity:1.0000;  stroke:#ffffff; stroke-width:0.0000; stroke-opacity:1;  stroke-linecap:round; stroke-linejoin:round;fill-rule:evenodd;" d="M 124.8340,104.4650 124.8914,104.4764 124.9401,104.5089 124.9726,104.5576 124.9840,104.6150 124.9840,104.9150 124.9726,104.9724 124.9401,105.0211 124.8914,105.0536 124.8340,105.0650 123.4340,105.0650 123.3766,105.0536 123.3279,105.0211 123.2954,104.9724 123.2840,104.9150 123.2840,104.6150 123.2954,104.5576 123.3279,104.5089 123.3766,104.4764 123.4340,104.4650 Z"/> 
<path style="fill:#ffffff; fill-opacity:1.0000;  stroke:#ffffff; stroke-width:0.0000; stroke-opacity:1;  stroke-linecap:round; stroke-linejoin:round;fill-rule:evenodd;" d="M 124.8340,105.7150 124.8914,105.7264 124.9401,105.7589 124.9726,105.8076 124.9840,105.8650 124.9840,106.1650 124.9726,106.2224 124.9401,106.2711 124.8914,106.3036 124.8340,106.3150 123.4340,106.3150 123.3766,106.3036 123.3279,106.2711 123.2954,106.2224 123.2840,106.1650 123.2840,105.8650 123.2954,105.8076 123.3279,105.7589 123.3766,105.7264 123.4340,105.7150 Z"/> 
<path style="fill:#ffffff; fill-opacity:1.0000;  stroke:#ffffff; stroke-width:0.0000; stroke-opacity:1;  stroke-linecap:round; stroke-linejoin:round;fill-rule:evenodd;" d="M 128.4340,99.9150 128.5297,99.9340 128.6108,99.9882 128.6650,100.0693 128.6840,100.1650 128.6840,100.6650 128.6650,100.7607 128.6108,100.8418 128.5297,100.8960 128.4340,100.9150 126.2340,100.9150 126.1383,100.8960 126.0572,100.8418 126.0030,100.7607 125.9840,100.6650 125.9840,100.1650 126.0030,100.0693 126.0572,99.9882 126.1383,99.9340 126.2340,99.9150 Z"/> 
<path style="fill:#ffffff; fill-opacity:1.0000;  stroke:#ffffff; stroke-width:0.0000; stroke-opacity:1;  stroke-linecap:round; stroke-linejoin:round;fill-rule:evenodd;" d="M 128.4340,107.3650 128.5297,107.3840 128.6108,107.4382 128.6650,107.5193 128.6840,107.6150 128.6840,108.1150 128.6650,108.2107 128.6108,108.2918 128.5297,108.3460 128.4340,108.3650 126.2340,108.3650 126.1383,108.3460 126.0572,108.2918 126.0030,108.2107 125.9840,108.1150 125.9840,107.6150 126.0030,107.5193 126.0572,107.4382 126.1383,107.3840 126.2340,107.3650 Z"/> 
</g>
<g style="fill:#ffffff; fill-opacity:1.0000;  stroke:#ffffff; stroke-width:0.0000; stroke-opacity:1;  stroke-linecap:round; stroke-linejoin:round;">
<path style="fill:#ffffff; fill-opacity:1.0000;  stroke:#ffffff; stroke-width:0.0000; stroke-opacity:1;  stroke-linecap:round; stroke-linejoin:round;fill-rule:evenodd;" d="M 124.8340,90.7890 124.8914,90.8004 124.9401,90.8329 124.9726,90.8816 124.9840,90.9390 124.9840,91.2390 124.9726,91.2964 124.9401,91.3451 124.8914,91.3776 124.8340,91.3890 123.4340,91.3890 123.3766,91.3776 123.3279,91.3451 123.2954,91.2964 123.2840,91.2390 123.2840,90.9390 123.2954,90.8816 123.3279,90.8329 123.3766,90.8004 123.4340,90.7890 Z"/> 
<path style="fill:#ffffff; fill-opacity:1.0000;  stroke:#ffffff; stroke-width:0.0000; stroke-opacity:1;  stroke-linecap:round; stroke-linejoin:round;fill-rule:evenodd;" d="M 124.8340,92.0390 124.8914,92.0504 124.9401,92.0829 124.9726,92.1316 124.9840,92.1890 124.9840,92.4890 124.9726,92.5464 124.9401,92.5951 124.8914,92.6276 124.8340,92.6390 123.4340,92.6390 123.3766,92.6276 123.3279,92.5951 123.2954,92.5464 123.2840,92.4890 123.2840,92.1890 123.2954,92.1316 123.3279,92.0829 123.3766,92.0504 123.4340,92.0390 Z"/> 
<path style="fill:#ffffff; fill-opacity:1.0000;  stroke:#ffffff; stroke-width:0.0000; stroke-opacity:1;  stroke-linecap:round; stroke-linejoin:round;fill-rule:evenodd;" d="M 124.8340,93.2890 124.8914,93.3004 124.9401,93.3329 124.9726,93.3816 124.9840,93.4390 124.9840,93.7390 124.9726,93.7964 124.9401,93.8451 124.8914,93.8776 124.8340,93.8890 123.4340,93.8890 123.3766,93.8776 123.3279,93.8451 123.2954,93.7964 123.2840,93.7390 123.2840,93.4390 123.2954,93.3816 123.3279,93.3329 123.3766,93.3004 123.4340,93.2890 Z"/> 
<path style="fill:#ffffff; fill-opacity:1.0000;  stroke:#ffffff; stroke-width:0.0000; stroke-opacity:1;  stroke-linecap:round; stroke-linejoin:round;fill-rule:evenodd;" d="M 124.8340,94.5390 124.8914,94.5504 124.9401,94.5829 124.9726,94.6316 124.9840,94.6890 124.9840,94.9890 124.9726,95.0464 124.9401,95.0951 124.8914,95.1276 124.8340,95.1390 123.4340,95.1390 123.3766,95.1276 123.3279,95.0951 123.2954,95.0464 123.2840,94.9890 123.2840,94.6890 123.2954,94.6316 123.3279,94.5829 123.3766,94.5504 123.4340,94.5390 Z"/> 
<path style="fill:#ffffff; fill-opacity:1.0000;  stroke:#ffffff; stroke-width:0.0000; stroke-opacity:1;  stroke-linecap:round; stroke-linejoin:round;fill-rule:evenodd;" d="M 128.4340,88.7390 128.5297,88.7580 128.6108,88.8122 128.6650,88.8933 128.6840,88.9890 128.6840,89.4890 128.6650,89.5847 128.6108,89.6658 128.5297,89.7200 128.4340,89.7390 126.2340,89.7390 126.1383,89.7200 126.0572,89.6658 126.0030,89.5847 125.9840,89.4890 125.9840,88.9890 126.0030,88.8933 126.0572,88.8122 126.1383,88.7580 126.2340,88.7390 Z"/> 
<path style="fill:#ffffff; fill-opacity:1.0000;  stroke:#ffffff; stroke-width:0.0000; stroke-opacity:1;  stroke-linecap:round; stroke-linejoin:round;fill-rule:evenodd;" d="M 128.4340,96.1890 128.5297,96.2080 128.6108,96.2622 128.6650,96.3433 128.6840,96.4390 128.6840,96.9390 128.6650,97.0347 128.6108,97.1158 128.5297,97.1700 128.4340,97.1890 126.2340,97.1890 126.1383,97.1700 126.0572,97.1158 126.0030,97.0347 125.9840,96.9390 125.9840,96.4390 126.0030,96.3433 126.0572,96.2622 126.1383,96.2080 126.2340,96.1890 Z"/> 
</g>
</g> 
</mask><mask id="pads-mask-silkscreen"><rect x="106.92765" y="76.44765" width="40.1447" height="40.1447" fill="white"/><g style="fill:#000000; fill-opacity:0.0;  stroke:#000000; stroke-width:0.0000; stroke-opacity:1;  stroke-linecap:round; stroke-linejoin:round;">
<g style="fill:#000000; fill-opacity:1.0000;  stroke:#000000; stroke-width:0.0000; stroke-opacity:1;  stroke-linecap:round; stroke-linejoin:round;">
<circle cx="111.7600" cy="81.2800" r="3.0000"/> 
</g>
<g style="fill:#000000; fill-opacity:1.0000;  stroke:#000000; stroke-width:0.0000; stroke-opacity:1;  stroke-linecap:round; stroke-linejoin:round;">
<circle cx="142.2400" cy="111.7600" r="3.0000"/> 
</g>
<g style="fill:#000000; fill-opacity:1.0000;  stroke:#000000; stroke-width:0.0000; stroke-opacity:1;  stroke-linecap:round; stroke-linejoin:round;">
<circle cx="111.7600" cy="111.7600" r="3.0000"/> 
</g>
<g style="fill:#000000; fill-opacity:1.0000;  stroke:#000000; stroke-width:0.0000; stroke-opacity:1;  stroke-linecap:round; stroke-linejoin:round;">
<circle cx="142.2400" cy="81.2800" r="3.0000"/> 
</g>
<g style="fill:#000000; fill-opacity:1.0000;  stroke:#000000; stroke-width:0.0000; stroke-opacity:1;  stroke-linecap:round; stroke-linejoin:round;">
<path style="fill:#000000; fill-opacity:1.0000;  stroke:#000000; stroke-width:0.0000; stroke-opacity:1;  stroke-linecap:round; stroke-linejoin:round;fill-rule:evenodd;" d="M 109.9820,92.2020 109.9820,90.6780 111.5060,90.6780 111.5060,92.2020 Z"/> 
<path style="fill:#000000; fill-opacity:1.0000;  stroke:#000000; stroke-width:0.0000; stroke-opacity:1;  stroke-linecap:round; stroke-linejoin:round;fill-rule:evenodd;" d="M 112.5220,92.2020 112.5220,90.6780 114.0460,90.6780 114.0460,92.2020 Z"/> 
<path style="fill:#000000; fill-opacity:1.0000;  stroke:#000000; stroke-width:0.0000; stroke-opacity:1;  stroke-linecap:round; stroke-linejoin:round;fill-rule:evenodd;" d="M 109.9820,94.7420 109.9820,93.2180 111.5060,93.2180 111.5060,94.7420 Z"/> 
<path style="fill:#000000; fill-opacity:1.0000;  stroke:#000000; stroke-width:0.0000; stroke-opacity:1;  stroke-linecap:round; stroke-linejoin:round;fill-rule:evenodd;" d="M 112.5220,94.7420 112.5220,93.2180 114.0460,93.2180 114.0460,94.7420 Z"/> 
<path style="fill:#000000; fill-opacity:1.0000;  stroke:#000000; stroke-width:0.0000; stroke-opacity:1;  stroke-linecap:round; stroke-linejoin:round;fill-rule:evenodd;" d="M 109.9820,97.2820 109.9820,95.7580 111.5060,95.7580 111.5060,97.2820 Z"/> 
<path style="fill:#000000; fill-opacity:1.0000;  stroke:#000000; stroke-width:0.0000; stroke-opacity:1;  stroke-linecap:round; stroke-linejoin:round;fill-rule:evenodd;" d="M 112.5220,97.2820 112.5220,95.7580 114.0460,95.7580 114.0460,97.2820 Z"/> 
<path style="fill:#000000; fill-opacity:1.0000;  stroke:#000000; stroke-width:0.0000; stroke-opacity:1;  stroke-linecap:round; stroke-linejoin:round;fill-rule:evenodd;" d="M 109.9820,99.8220 109.9820,98.2980 111.5060,98.2980 111.5060,99.8220 Z"/> 
<path style="fill:#000000; fill-opacity:1.0000;  stroke:#000000; stroke-width:0.0000; stroke-opacity:1;  stroke-linecap:round; stroke-linejoin:round;fill-rule:evenodd;" d="M 112.5220,99.8220 112.5220,98.2980 114.0460,98.2980 114.0460,99.8220 Z"/> 
<path style="fill:#000000; fill-opacity:1.0000;  stroke:#000000; stroke-width:0.0000; stroke-opacity:1;  stroke-linecap:round; stroke-linejoin:round;fill-rule:evenodd;" d="M 109.9820,102.3620 109.9820,100.8380 111.5060,100.8380 111.5060,102.3620 Z"/> 
<path style="fill:#000000; fill-opacity:1.0000;  stroke:#000000; stroke-width:0.0000; stroke-opacity:1;  stroke-linecap:round; stroke-linejoin:round;fill-rule:evenodd;" d="M 112.5220,102.3620 112.5220,100.8380 114.0460,100.8380 114.0460,102.3620 Z"/> 
</g>
<g style="fill:#000000; fill-opacity:1.0000;  stroke:#000000; stroke-width:0.0000; stroke-opacity:1;  stroke-linecap:round; stroke-linejoin:round;">
<path style="fill:#000000; fill-opacity:1.0000;  stroke:#000000; stroke-width:0.0000; stroke-opacity:1;  stroke-linecap:round; stroke-linejoin:round;fill-rule:evenodd;" d="M 124.8340,101.9650 124.8914,101.9764 124.9401,102.0089 124.9726,102.0576 124.9840,102.1150 124.9840,102.4150 124.9726,102.4724 124.9401,102.5211 124.8914,102.5536 124.8340,102.5650 123.4340,102.5650 123.3766,102.5536 123.3279,102.5211 123.2954,102.4724 123.2840,102.4150 123.2840,102.1150 123.2954,102.0576 123.3279,102.0089 123.3766,101.9764 123.4340,101.9650 Z"/> 
<path style="fill:#000000; fill-opacity:1.0000;  stroke:#000000; stroke-width:0.0000; stroke-opacity:1;  stroke-linecap:round; stroke-linejoin:round;fill-rule:evenodd;" d="M 124.8340,103.2150 124.8914,103.2264 124.9401,103.2589 124.9726,103.3076 124.9840,103.3650 124.9840,103.6650 124.9726,103.7224 124.9401,103.7711 124.8914,103.8036 124.8340,103.8150 123.4340,103.8150 123.3766,103.8036 123.3279,103.7711 123.2954,103.7224 123.2840,103.6650 123.2840,103.3650 123.2954,103.3076 123.3279,103.2589 123.3766,103.2264 123.4340,103.2150 Z"/> 
<path style="fill:#000000; fill-opacity:1.0000;  stroke:#000000; stroke-width:0.0000; stroke-opacity:1;  stroke-linecap:round; stroke-linejoin:round;fill-rule:evenodd;" d="M 124.8340,104.4650 124.8914,104.4764 124.9401,104.5089 124.9726,104.5576 124.9840,104.6150 124.9840,104.9150 124.9726,104.9724 124.9401,105.0211 124.8914,105.0536 124.8340,105.0650 123.4340,105.0650 123.3766,105.0536 123.3279,105.0211 123.2954,104.9724 123.2840,104.9150 123.2840,104.6150 123.2954,104.5576 123.3279,104.5089 123.3766,104.4764 123.4340,104.4650 Z"/> 
<path style="fill:#000000; fill-opacity:1.0000;  stroke:#000000; stroke-width:0.0000; stroke-opacity:1;  stroke-linecap:round; stroke-linejoin:round;fill-rule:evenodd;" d="M 124.8340,105.7150 124.8914,105.7264 124.9401,105.7589 124.9726,105.8076 124.9840,105.8650 124.9840,106.1650 124.9726,106.2224 124.9401,106.2711 124.8914,106.3036 124.8340,106.3150 123.4340,106.3150 123.3766,106.3036 123.3279,106.2711 123.2954,106.2224 123.2840,106.1650 123.2840,105.8650 123.2954,105.8076 123.3279,105.7589 123.3766,105.7264 123.4340,105.7150 Z"/> 
<path style="fill:#000000; fill-opacity:1.0000;  stroke:#000000; stroke-width:0.0000; stroke-opacity:1;  stroke-linecap:round; stroke-linejoin:round;fill-rule:evenodd;" d="M 128.4340,99.9150 128.5297,99.9340 128.6108,99.9882 128.6650,100.0693 128.6840,100.1650 128.6840,100.6650 128.6650,100.7607 128.6108,100.8418 128.5297,100.8960 128.4340,100.9150 126.2340,100.9150 126.1383,100.8960 126.0572,100.8418 126.0030,100.7607 125.9840,100.6650 125.9840,100.1650 126.0030,100.0693 126.0572,99.9882 126.1383,99.9340 126.2340,99.9150 Z"/> 
<path style="fill:#000000; fill-opacity:1.0000;  stroke:#000000; stroke-width:0.0000; stroke-opacity:1;  stroke-linecap:round; stroke-linejoin:round;fill-rule:evenodd;" d="M 128.4340,107.3650 128.5297,107.3840 128.6108,107.4382 128.6650,107.5193 128.6840,107.6150 128.6840,108.1150 128.6650,108.2107 128.6108,108.2918 128.5297,108.3460 128.4340,108.3650 126.2340,108.3650 126.1383,108.3460 126.0572,108.2918 126.0030,108.2107 125.9840,108.1150 125.9840,107.6150 126.0030,107.5193 126.0572,107.4382 126.1383,107.3840 126.2340,107.3650 Z"/> 
</g>
<g style="fill:#000000; fill-opacity:1.0000;  stroke:#000000; stroke-width:0.0000; stroke-opacity:1;  stroke-linecap:round; stroke-linejoin:round;">
<path style="fill:#000000; fill-opacity:1.0000;  stroke:#000000; stroke-width:0.0000; stroke-opacity:1;  stroke-linecap:round; stroke-linejoin:round;fill-rule:evenodd;" d="M 124.8340,90.7890 124.8914,90.8004 124.9401,90.8329 124.9726,90.8816 124.9840,90.9390 124.9840,91.2390 124.9726,91.2964 124.9401,91.3451 124.8914,91.3776 124.8340,91.3890 123.4340,91.3890 123.3766,91.3776 123.3279,91.3451 123.2954,91.2964 123.2840,91.2390 123.2840,90.9390 123.2954,90.8816 123.3279,90.8329 123.3766,90.8004 123.4340,90.7890 Z"/> 
<path style="fill:#000000; fill-opacity:1.0000;  stroke:#000000; stroke-width:0.0000; stroke-opacity:1;  stroke-linecap:round; stroke-linejoin:round;fill-rule:evenodd;" d="M 124.8340,92.0390 124.8914,92.0504 124.9401,92.0829 124.9726,92.1316 124.9840,92.1890 124.9840,92.4890 124.9726,92.5464 124.9401,92.5951 124.8914,92.6276 124.8340,92.6390 123.4340,92.6390 123.3766,92.6276 123.3279,92.5951 123.2954,92.5464 123.2840,92.4890 123.2840,92.1890 123.2954,92.1316 123.3279,92.0829 123.3766,92.0504 123.4340,92.0390 Z"/> 
<path style="fill:#000000; fill-opacity:1.0000;  stroke:#000000; stroke-width:0.0000; stroke-opacity:1;  stroke-linecap:round; stroke-linejoin:round;fill-rule:evenodd;" d="M 124.8340,93.2890 124.8914,93.3004 124.9401,93.3329 124.9726,93.3816 124.9840,93.4390 124.9840,93.7390 124.9726,93.7964 124.9401,93.8451 124.8914,93.8776 124.8340,93.8890 123.4340,93.8890 123.3766,93.8776 123.3279,93.8451 123.2954,93.7964 123.2840,93.7390 123.2840,93.4390 123.2954,93.3816 123.3279,93.3329 123.3766,93.3004 123.4340,93.2890 Z"/> 
<path style="fill:#000000; fill-opacity:1.0000;  stroke:#000000; stroke-width:0.0000; stroke-opacity:1;  stroke-linecap:round; stroke-linejoin:round;fill-rule:evenodd;" d="M 124.8340,94.5390 124.8914,94.5504 124.9401,94.5829 124.9726,94.6316 124.9840,94.6890 124.9840,94.9890 124.9726,95.0464 124.9401,95.0951 124.8914,95.1276 124.8340,95.1390 123.4340,95.1390 123.3766,95.1276 123.3279,95.0951 123.2954,95.0464 123.2840,94.9890 123.2840,94.6890 123.2954,94.6316 123.3279,94.5829 123.3766,94.5504 123.4340,94.5390 Z"/> 
<path style="fill:#000000; fill-opacity:1.0000;  stroke:#000000; stroke-width:0.0000; stroke-opacity:1;  stroke-linecap:round; stroke-linejoin:round;fill-rule:evenodd;" d="M 128.4340,88.7390 128.5297,88.7580 128.6108,88.8122 128.6650,88.8933 128.6840,88.9890 128.6840,89.4890 128.6650,89.5847 128.6108,89.6658 128.5297,89.7200 128.4340,89.7390 126.2340,89.7390 126.1383,89.7200 126.0572,89.6658 126.0030,89.5847 125.9840,89.4890 125.9840,88.9890 126.0030,88.8933 126.0572,88.8122 126.1383,88.7580 126.2340,88.7390 Z"/> 
<path style="fill:#000000; fill-opacity:1.0000;  stroke:#000000; stroke-width:0.0000; stroke-opacity:1;  stroke-linecap:round; stroke-linejoin:round;fill-rule:evenodd;" d="M 128.4340,96.1890 128.5297,96.2080 128.6108,96.2622 128.6650,96.3433 128.6840,96.4390 128.6840,96.9390 128.6650,97.0347 128.6108,97.1158 128.5297,97.1700 128.4340,97.1890 126.2340,97.1890 126.1383,97.1700 126.0572,97.1158 126.0030,97.0347 125.9840,96.9390 125.9840,96.4390 126.0030,96.3433 126.0572,96.2622 126.1383,96.2080 126.2340,96.1890 Z"/> 
</g>
</g> 
</mask><mask id="hole-mask"><g><rect x="106.92765" y="76.44765" fill="white" width="40.1447" height="40.1447"/><polyline stroke-linecap="round" stroke="black" stroke-width="3.0" points="-0.0 0 0.0 0" transform="translate(111.76 81.28) rotate(-0.0)"/><polyline stroke-linecap="round" stroke="black" stroke-width="3.0" points="-0.0 0 0.0 0" transform="translate(142.24 111.76) rotate(-0.0)"/><polyline stroke-linecap="round" stroke="black" stroke-width="3.0" points="-0.0 0 0.0 0" transform="translate(111.76 111.76) rotate(-0.0)"/><polyline stroke-linecap="round" stroke="black" stroke-width="3.0" points="-0.0 0 0.0 0" transform="translate(142.24 81.28) rotate(-0.0)"/><polyline stroke-linecap="round" stroke="black" stroke-width="0.889" points="-0.0 0 0.0 0" transform="translate(110.744 91.44) rotate(-0.0)"/><polyline stroke-linecap="round" stroke="black" stroke-width="0.889" points="-0.0 0 0.0 0" transform="translate(113.284 91.44) rotate(-0.0)"/><polyline stroke-linecap="round" stroke="black" stroke-width="0.889" points="-0.0 0 0.0 0" transform="translate(110.744 93.98) rotate(-0.0)"/><polyline stroke-linecap="round" stroke="black" stroke-width="0.889" points="-0.0 0 0.0 0" transform="translate(113.284 93.98) rotate(-0.0)"/><polyline stroke-linecap="round" stroke="black" stroke-width="0.889" points="-0.0 0 0.0 0" transform="translate(110.744 96.52) rotate(-0.0)"/><polyline stroke-linecap="round" stroke="black" stroke-width="0.889" points="-0.0 0 0.0 0" transform="translate(113.284 96.52) rotate(-0.0)"/><polyline stroke-linecap="round" stroke="black" stroke-width="0.889" points="-0.0 0 0.0 0" transform="translate(110.744 99.06) rotate(-0.0)"/><polyline stroke-linecap="round" stroke="black" stroke-width="0.889" points="-0.0 0 0.0 0" transform="translate(113.284 99.06) rotate(-0.0)"/><polyline stroke-linecap="round" stroke="black" stroke-width="0.889" points="-0.0 0 0.0 0" transform="translate(110.744 101.6) rotate(-0.0)"/><polyline stroke-linecap="round" stroke="black" stroke-width="0.889" points="-0.0 0 0.0 0" transform="translate(113.284 101.6) rotate(-0.0)"/></g></mask></defs><g transform="scale(-1,1)" id="boardContainer"><g id="substrate" clip-path="url(#cut-off)" mask="url(#hole-mask)"><g id="substrate-board" style="fill:#f1f4f3; stroke:#f1f4f3;"><path d=" M 111.7600 111.7600 m-1.6667 0 a 1.6667 1.6667 0 1 0 3.3334 0 a 1.6667 1.6667 0 1 0 -3.3334 0  M 111.7600 111.7600 m-1.6667 0 a 1.6667 1.6667 0 1 0 3.3334 0 a 1.6667 1.6667 0 1 0 -3.3334 0  M 111.7600 111.7600 m-1.6667 0 a 1.6667 1.6667 0 1 0 3.3334 0 a 1.6667 1.6667 0 1 0 -3.3334 0  M 147.066 76.454 L 106.934 76.454 L 106.934 116.586 L 147.066 116.586 L 147.066 76.454  M 109.26 111.76 L 114.26 111.76 L 109.26 111.76 L 114.26 111.76  M 111.76 109.26 L 111.76 114.26 L 111.76 109.26 L 111.76 114.26 " style="fill-rule: evenodd;"/><g style="fill-opacity: 0.0;stroke-width: 0.0127;stroke-opacity: 1;stroke-linecap: round;stroke-linejoin: round">
<path d="M147.0660 116.5860 L147.0660 76.4540 "/>
<path d="M106.9340 76.4540 L106.9340 116.5860 "/>
<path d="M106.9340 116.5860 L147.0660 116.5860 "/>
<path d="M147.0660 76.4540 L106.9340 76.4540 "/>
<circle cx="111.7600" cy="111.7600" r="1.6667"/> 
<path d="M109.2600 111.7600 L114.2600 111.7600 "/>
<path d="M111.7600 109.2600 L111.7600 114.2600 "/>
<circle cx="111.7600" cy="111.7600" r="1.6667"/> 
<path d="M109.2600 111.7600 L114.2600 111.7600 "/>
<path d="M111.7600 109.2600 L111.7600 114.2600 "/>
<circle cx="111.7600" cy="111.7600" r="1.6667"/> 
<path d="M109.2600 111.7600 L114.2600 111.7600 "/>
<path d="M111.7600 109.2600 L111.7600 114.2600 "/>
</g> 
</g><g id="substrate-clad" style="fill:#72786c; stroke:#72786c;"><g style="fill-opacity: 0.0;stroke-width: 0.0000;stroke-opacity: 1;stroke-linecap: round;stroke-linejoin: round">
<g style="fill-opacity: 1.0000;stroke-width: 0.0000;stroke-opacity: 1;stroke-linecap: round;stroke-linejoin: round">
<circle cx="111.7600" cy="81.2800" r="3.0000"/> 
</g>
<g style="fill-opacity: 1.0000;stroke-width: 0.0000;stroke-opacity: 1;stroke-linecap: round;stroke-linejoin: round">
<circle cx="142.2400" cy="111.7600" r="3.0000"/> 
</g>
<g style="fill-opacity: 1.0000;stroke-width: 0.0000;stroke-opacity: 1;stroke-linecap: round;stroke-linejoin: round">
<circle cx="111.7600" cy="111.7600" r="3.0000"/> 
</g>
<g style="fill-opacity: 1.0000;stroke-width: 0.0000;stroke-opacity: 1;stroke-linecap: round;stroke-linejoin: round">
<circle cx="142.2400" cy="81.2800" r="3.0000"/> 
</g>
<g style="fill-opacity: 1.0000;stroke-width: 0.0000;stroke-opacity: 1;stroke-linecap: round;stroke-linejoin: round">
<path style="fill-opacity: 1.0000;stroke-width: 0.0000;stroke-opacity: 1;stroke-linecap: round;stroke-linejoin: round;fill-rule: evenodd" d="M 109.9820,92.2020 109.9820,90.6780 111.5060,90.6780 111.5060,92.2020 Z"/> 
<path style="fill-opacity: 1.0000;stroke-width: 0.0000;stroke-opacity: 1;stroke-linecap: round;stroke-linejoin: round;fill-rule: evenodd" d="M 112.5220,92.2020 112.5220,90.6780 114.0460,90.6780 114.0460,92.2020 Z"/> 
<path style="fill-opacity: 1.0000;stroke-width: 0.0000;stroke-opacity: 1;stroke-linecap: round;stroke-linejoin: round;fill-rule: evenodd" d="M 109.9820,94.7420 109.9820,93.2180 111.5060,93.2180 111.5060,94.7420 Z"/> 
<path style="fill-opacity: 1.0000;stroke-width: 0.0000;stroke-opacity: 1;stroke-linecap: round;stroke-linejoin: round;fill-rule: evenodd" d="M 112.5220,94.7420 112.5220,93.2180 114.0460,93.2180 114.0460,94.7420 Z"/> 
<path style="fill-opacity: 1.0000;stroke-width: 0.0000;stroke-opacity: 1;stroke-linecap: round;stroke-linejoin: round;fill-rule: evenodd" d="M 109.9820,97.2820 109.9820,95.7580 111.5060,95.7580 111.5060,97.2820 Z"/> 
<path style="fill-opacity: 1.0000;stroke-width: 0.0000;stroke-opacity: 1;stroke-linecap: round;stroke-linejoin: round;fill-rule: evenodd" d="M 112.5220,97.2820 112.5220,95.7580 114.0460,95.7580 114.0460,97.2820 Z"/> 
<path style="fill-opacity: 1.0000;stroke-width: 0.0000;stroke-opacity: 1;stroke-linecap: round;stroke-linejoin: round;fill-rule: evenodd" d="M 109.9820,99.8220 109.9820,98.2980 111.5060,98.2980 111.5060,99.8220 Z"/> 
<path style="fill-opacity: 1.0000;stroke-width: 0.0000;stroke-opacity: 1;stroke-linecap: round;stroke-linejoin: round;fill-rule: evenodd" d="M 112.5220,99.8220 112.5220,98.2980 114.0460,98.2980 114.0460,99.8220 Z"/> 
<path style="fill-opacity: 1.0000;stroke-width: 0.0000;stroke-opacity: 1;stroke-linecap: round;stroke-linejoin: round;fill-rule: evenodd" d="M 109.9820,102.3620 109.9820,100.8380 111.5060,100.8380 111.5060,102.3620 Z"/> 
<path style="fill-opacity: 1.0000;stroke-width: 0.0000;stroke-opacity: 1;stroke-linecap: round;stroke-linejoin: round;fill-rule: evenodd" d="M 112.5220,102.3620 112.5220,100.8380 114.0460,100.8380 114.0460,102.3620 Z"/> 
</g>
<g style="fill-opacity: 1.0000;stroke-width: 0.0000;stroke-opacity: 1;stroke-linecap: round;stroke-linejoin: round">
<path style="fill-opacity: 1.0000;stroke-width: 0.0000;stroke-opacity: 1;stroke-linecap: round;stroke-linejoin: round;fill-rule: evenodd" d="M 124.8340,101.9650 124.8914,101.9764 124.9401,102.0089 124.9726,102.0576 124.9840,102.1150 124.9840,102.4150 124.9726,102.4724 124.9401,102.5211 124.8914,102.5536 124.8340,102.5650 123.4340,102.5650 123.3766,102.5536 123.3279,102.5211 123.2954,102.4724 123.2840,102.4150 123.2840,102.1150 123.2954,102.0576 123.3279,102.0089 123.3766,101.9764 123.4340,101.9650 Z"/> 
<path style="fill-opacity: 1.0000;stroke-width: 0.0000;stroke-opacity: 1;stroke-linecap: round;stroke-linejoin: round;fill-rule: evenodd" d="M 124.8340,103.2150 124.8914,103.2264 124.9401,103.2589 124.9726,103.3076 124.9840,103.3650 124.9840,103.6650 124.9726,103.7224 124.9401,103.7711 124.8914,103.8036 124.8340,103.8150 123.4340,103.8150 123.3766,103.8036 123.3279,103.7711 123.2954,103.7224 123.2840,103.6650 123.2840,103.3650 123.2954,103.3076 123.3279,103.2589 123.3766,103.2264 123.4340,103.2150 Z"/> 
<path style="fill-opacity: 1.0000;stroke-width: 0.0000;stroke-opacity: 1;stroke-linecap: round;stroke-linejoin: round;fill-rule: evenodd" d="M 124.8340,104.4650 124.8914,104.4764 124.9401,104.5089 124.9726,104.5576 124.9840,104.6150 124.9840,104.9150 124.9726,104.9724 124.9401,105.0211 124.8914,105.0536 124.8340,105.0650 123.4340,105.0650 123.3766,105.0536 123.3279,105.0211 123.2954,104.9724 123.2840,104.9150 123.2840,104.6150 123.2954,104.5576 123.3279,104.5089 123.3766,104.4764 123.4340,104.4650 Z"/> 
<path style="fill-opacity: 1.0000;stroke-width: 0.0000;stroke-opacity: 1;stroke-linecap: round;stroke-linejoin: round;fill-rule: evenodd" d="M 124.8340,105.7150 124.8914,105.7264 124.9401,105.7589 124.9726,105.8076 124.9840,105.8650 124.9840,106.1650 124.9726,106.2224 124.9401,106.2711 124.8914,106.3036 124.8340,106.3150 123.4340,106.3150 123.3766,106.3036 123.3279,106.2711 123.2954,106.2224 123.2840,106.1650 123.2840,105.8650 123.2954,105.8076 123.3279,105.7589 123.3766,105.7264 123.4340,105.7150 Z"/> 
<path style="fill-opacity: 1.0000;stroke-width: 0.0000;stroke-opacity: 1;stroke-linecap: round;stroke-linejoin: round;fill-rule: evenodd" d="M 128.4340,99.9150 128.5297,99.9340 128.6108,99.9882 128.6650,100.0693 128.6840,100.1650 128.6840,100.6650 128.6650,100.7607 128.6108,100.8418 128.5297,100.8960 128.4340,100.9150 126.2340,100.9150 126.1383,100.8960 126.0572,100.8418 126.0030,100.7607 125.9840,100.6650 125.9840,100.1650 126.0030,100.0693 126.0572,99.9882 126.1383,99.9340 126.2340,99.9150 Z"/> 
<path style="fill-opacity: 1.0000;stroke-width: 0.0000;stroke-opacity: 1;stroke-linecap: round;stroke-linejoin: round;fill-rule: evenodd" d="M 128.4340,107.3650 128.5297,107.3840 128.6108,107.4382 128.6650,107.5193 128.6840,107.6150 128.6840,108.1150 128.6650,108.2107 128.6108,108.2918 128.5297,108.3460 128.4340,108.3650 126.2340,108.3650 126.1383,108.3460 126.0572,108.2918 126.0030,108.2107 125.9840,108.1150 125.9840,107.6150 126.0030,107.5193 126.0572,107.4382 126.1383,107.3840 126.2340,107.3650 Z"/> 
</g>
<g style="fill-opacity: 1.0000;stroke-width: 0.0000;stroke-opacity: 1;stroke-linecap: round;stroke-linejoin: round">
<path style="fill-opacity: 1.0000;stroke-width: 0.0000;stroke-opacity: 1;stroke-linecap: round;stroke-linejoin: round;fill-rule: evenodd" d="M 124.8340,90.7890 124.8914,90.8004 124.9401,90.8329 124.9726,90.8816 124.9840,90.9390 124.9840,91.2390 124.9726,91.2964 124.9401,91.3451 124.8914,91.3776 124.8340,91.3890 123.4340,91.3890 123.3766,91.3776 123.3279,91.3451 123.2954,91.2964 123.2840,91.2390 123.2840,90.9390 123.2954,90.8816 123.3279,90.8329 123.3766,90.8004 123.4340,90.7890 Z"/> 
<path style="fill-opacity: 1.0000;stroke-width: 0.0000;stroke-opacity: 1;stroke-linecap: round;stroke-linejoin: round;fill-rule: evenodd" d="M 124.8340,92.0390 124.8914,92.0504 124.9401,92.0829 124.9726,92.1316 124.9840,92.1890 124.9840,92.4890 124.9726,92.5464 124.9401,92.5951 124.8914,92.6276 124.8340,92.6390 123.4340,92.6390 123.3766,92.6276 123.3279,92.5951 123.2954,92.5464 123.2840,92.4890 123.2840,92.1890 123.2954,92.1316 123.3279,92.0829 123.3766,92.0504 123.4340,92.0390 Z"/> 
<path style="fill-opacity: 1.0000;stroke-width: 0.0000;stroke-opacity: 1;stroke-linecap: round;stroke-linejoin: round;fill-rule: evenodd" d="M 124.8340,93.2890 124.8914,93.3004 124.9401,93.3329 124.9726,93.3816 124.9840,93.4390 124.9840,93.7390 124.9726,93.7964 124.9401,93.8451 124.8914,93.8776 124.8340,93.8890 123.4340,93.8890 123.3766,93.8776 123.3279,93.8451 123.2954,93.7964 123.2840,93.7390 123.2840,93.4390 123.2954,93.3816 123.3279,93.3329 123.3766,93.3004 123.4340,93.2890 Z"/> 
<path style="fill-opacity: 1.0000;stroke-width: 0.0000;stroke-opacity: 1;stroke-linecap: round;stroke-linejoin: round;fill-rule: evenodd" d="M 124.8340,94.5390 124.8914,94.5504 124.9401,94.5829 124.9726,94.6316 124.9840,94.6890 124.9840,94.9890 124.9726,95.0464 124.9401,95.0951 124.8914,95.1276 124.8340,95.1390 123.4340,95.1390 123.3766,95.1276 123.3279,95.0951 123.2954,95.0464 123.2840,94.9890 123.2840,94.6890 123.2954,94.6316 123.3279,94.5829 123.3766,94.5504 123.4340,94.5390 Z"/> 
<path style="fill-opacity: 1.0000;stroke-width: 0.0000;stroke-opacity: 1;stroke-linecap: round;stroke-linejoin: round;fill-rule: evenodd" d="M 128.4340,88.7390 128.5297,88.7580 128.6108,88.8122 128.6650,88.8933 128.6840,88.9890 128.6840,89.4890 128.6650,89.5847 128.6108,89.6658 128.5297,89.7200 128.4340,89.7390 126.2340,89.7390 126.1383,89.7200 126.0572,89.6658 126.0030,89.5847 125.9840,89.4890 125.9840,88.9890 126.0030,88.8933 126.0572,88.8122 126.1383,88.7580 126.2340,88.7390 Z"/> 
<path style="fill-opacity: 1.0000;stroke-width: 0.0000;stroke-opacity: 1;stroke-linecap: round;stroke-linejoin: round;fill-rule: evenodd" d="M 128.4340,96.1890 128.5297,96.2080 128.6108,96.2622 128.6650,96.3433 128.6840,96.4390 128.6840,96.9390 128.6650,97.0347 128.6108,97.1158 128.5297,97.1700 128.4340,97.1890 126.2340,97.1890 126.1383,97.1700 126.0572,97.1158 126.0030,97.0347 125.9840,96.9390 125.9840,96.4390 126.0030,96.3433 126.0572,96.2622 126.1383,96.2080 126.2340,96.1890 Z"/> 
</g>
</g> 
</g><g id="substrate-copper" style="fill:#f8f8f7; stroke:#f8f8f7;"><g style="fill-opacity: 0.0;stroke-width: 0.0000;stroke-opacity: 1;stroke-linecap: round;stroke-linejoin: round">
<g style="fill-opacity: 1.0000;stroke-width: 0.0000;stroke-opacity: 1;stroke-linecap: round;stroke-linejoin: round">
<circle cx="111.7600" cy="81.2800" r="3.0000"/> 
</g>
<g style="fill-opacity: 1.0000;stroke-width: 0.0000;stroke-opacity: 1;stroke-linecap: round;stroke-linejoin: round">
<circle cx="142.2400" cy="111.7600" r="3.0000"/> 
</g>
<g style="fill-opacity: 1.0000;stroke-width: 0.0000;stroke-opacity: 1;stroke-linecap: round;stroke-linejoin: round">
<circle cx="111.7600" cy="111.7600" r="3.0000"/> 
</g>
<g style="fill-opacity: 1.0000;stroke-width: 0.0000;stroke-opacity: 1;stroke-linecap: round;stroke-linejoin: round">
<circle cx="142.2400" cy="81.2800" r="3.0000"/> 
</g>
<g style="fill-opacity: 1.0000;stroke-width: 0.0000;stroke-opacity: 1;stroke-linecap: round;stroke-linejoin: round">
<path style="fill-opacity: 1.0000;stroke-width: 0.0000;stroke-opacity: 1;stroke-linecap: round;stroke-linejoin: round;fill-rule: evenodd" d="M 109.9820,92.2020 109.9820,90.6780 111.5060,90.6780 111.5060,92.2020 Z"/> 
<path style="fill-opacity: 1.0000;stroke-width: 0.0000;stroke-opacity: 1;stroke-linecap: round;stroke-linejoin: round;fill-rule: evenodd" d="M 112.5220,92.2020 112.5220,90.6780 114.0460,90.6780 114.0460,92.2020 Z"/> 
<path style="fill-opacity: 1.0000;stroke-width: 0.0000;stroke-opacity: 1;stroke-linecap: round;stroke-linejoin: round;fill-rule: evenodd" d="M 109.9820,94.7420 109.9820,93.2180 111.5060,93.2180 111.5060,94.7420 Z"/> 
<path style="fill-opacity: 1.0000;stroke-width: 0.0000;stroke-opacity: 1;stroke-linecap: round;stroke-linejoin: round;fill-rule: evenodd" d="M 112.5220,94.7420 112.5220,93.2180 114.0460,93.2180 114.0460,94.7420 Z"/> 
<path style="fill-opacity: 1.0000;stroke-width: 0.0000;stroke-opacity: 1;stroke-linecap: round;stroke-linejoin: round;fill-rule: evenodd" d="M 109.9820,97.2820 109.9820,95.7580 111.5060,95.7580 111.5060,97.2820 Z"/> 
<path style="fill-opacity: 1.0000;stroke-width: 0.0000;stroke-opacity: 1;stroke-linecap: round;stroke-linejoin: round;fill-rule: evenodd" d="M 112.5220,97.2820 112.5220,95.7580 114.0460,95.7580 114.0460,97.2820 Z"/> 
<path style="fill-opacity: 1.0000;stroke-width: 0.0000;stroke-opacity: 1;stroke-linecap: round;stroke-linejoin: round;fill-rule: evenodd" d="M 109.9820,99.8220 109.9820,98.2980 111.5060,98.2980 111.5060,99.8220 Z"/> 
<path style="fill-opacity: 1.0000;stroke-width: 0.0000;stroke-opacity: 1;stroke-linecap: round;stroke-linejoin: round;fill-rule: evenodd" d="M 112.5220,99.8220 112.5220,98.2980 114.0460,98.2980 114.0460,99.8220 Z"/> 
<path style="fill-opacity: 1.0000;stroke-width: 0.0000;stroke-opacity: 1;stroke-linecap: round;stroke-linejoin: round;fill-rule: evenodd" d="M 109.9820,102.3620 109.9820,100.8380 111.5060,100.8380 111.5060,102.3620 Z"/> 
<path style="fill-opacity: 1.0000;stroke-width: 0.0000;stroke-opacity: 1;stroke-linecap: round;stroke-linejoin: round;fill-rule: evenodd" d="M 112.5220,102.3620 112.5220,100.8380 114.0460,100.8380 114.0460,102.3620 Z"/> 
</g>
<g style="fill-opacity: 1.0000;stroke-width: 0.0000;stroke-opacity: 1;stroke-linecap: round;stroke-linejoin: round">
<path style="fill-opacity: 1.0000;stroke-width: 0.0000;stroke-opacity: 1;stroke-linecap: round;stroke-linejoin: round;fill-rule: evenodd" d="M 124.8340,101.9650 124.8914,101.9764 124.9401,102.0089 124.9726,102.0576 124.9840,102.1150 124.9840,102.4150 124.9726,102.4724 124.9401,102.5211 124.8914,102.5536 124.8340,102.5650 123.4340,102.5650 123.3766,102.5536 123.3279,102.5211 123.2954,102.4724 123.2840,102.4150 123.2840,102.1150 123.2954,102.0576 123.3279,102.0089 123.3766,101.9764 123.4340,101.9650 Z"/> 
<path style="fill-opacity: 1.0000;stroke-width: 0.0000;stroke-opacity: 1;stroke-linecap: round;stroke-linejoin: round;fill-rule: evenodd" d="M 124.8340,103.2150 124.8914,103.2264 124.9401,103.2589 124.9726,103.3076 124.9840,103.3650 124.9840,103.6650 124.9726,103.7224 124.9401,103.7711 124.8914,103.8036 124.8340,103.8150 123.4340,103.8150 123.3766,103.8036 123.3279,103.7711 123.2954,103.7224 123.2840,103.6650 123.2840,103.3650 123.2954,103.3076 123.3279,103.2589 123.3766,103.2264 123.4340,103.2150 Z"/> 
<path style="fill-opacity: 1.0000;stroke-width: 0.0000;stroke-opacity: 1;stroke-linecap: round;stroke-linejoin: round;fill-rule: evenodd" d="M 124.8340,104.4650 124.8914,104.4764 124.9401,104.5089 124.9726,104.5576 124.9840,104.6150 124.9840,104.9150 124.9726,104.9724 124.9401,105.0211 124.8914,105.0536 124.8340,105.0650 123.4340,105.0650 123.3766,105.0536 123.3279,105.0211 123.2954,104.9724 123.2840,104.9150 123.2840,104.6150 123.2954,104.5576 123.3279,104.5089 123.3766,104.4764 123.4340,104.4650 Z"/> 
<path style="fill-opacity: 1.0000;stroke-width: 0.0000;stroke-opacity: 1;stroke-linecap: round;stroke-linejoin: round;fill-rule: evenodd" d="M 124.8340,105.7150 124.8914,105.7264 124.9401,105.7589 124.9726,105.8076 124.9840,105.8650 124.9840,106.1650 124.9726,106.2224 124.9401,106.2711 124.8914,106.3036 124.8340,106.3150 123.4340,106.3150 123.3766,106.3036 123.3279,106.2711 123.2954,106.2224 123.2840,106.1650 123.2840,105.8650 123.2954,105.8076 123.3279,105.7589 123.3766,105.7264 123.4340,105.7150 Z"/> 
<path style="fill-opacity: 1.0000;stroke-width: 0.0000;stroke-opacity: 1;stroke-linecap: round;stroke-linejoin: round;fill-rule: evenodd" d="M 128.4340,99.9150 128.5297,99.9340 128.6108,99.9882 128.6650,100.0693 128.6840,100.1650 128.6840,100.6650 128.6650,100.7607 128.6108,100.8418 128.5297,100.8960 128.4340,100.9150 126.2340,100.9150 126.1383,100.8960 126.0572,100.8418 126.0030,100.7607 125.9840,100.6650 125.9840,100.1650 126.0030,100.0693 126.0572,99.9882 126.1383,99.9340 126.2340,99.9150 Z"/> 
<path style="fill-opacity: 1.0000;stroke-width: 0.0000;stroke-opacity: 1;stroke-linecap: round;stroke-linejoin: round;fill-rule: evenodd" d="M 128.4340,107.3650 128.5297,107.3840 128.6108,107.4382 128.6650,107.5193 128.6840,107.6150 128.6840,108.1150 128.6650,108.2107 128.6108,108.2918 128.5297,108.3460 128.4340,108.3650 126.2340,108.3650 126.1383,108.3460 126.0572,108.2918 126.0030,108.2107 125.9840,108.1150 125.9840,107.6150 126.0030,107.5193 126.0572,107.4382 126.1383,107.3840 126.2340,107.3650 Z"/> 
</g>
<g style="fill-opacity: 1.0000;stroke-width: 0.0000;stroke-opacity: 1;stroke-linecap: round;stroke-linejoin: round">
<path style="fill-opacity: 1.0000;stroke-width: 0.0000;stroke-opacity: 1;stroke-linecap: round;stroke-linejoin: round;fill-rule: evenodd" d="M 124.8340,90.7890 124.8914,90.8004 124.9401,90.8329 124.9726,90.8816 124.9840,90.9390 124.9840,91.2390 124.9726,91.2964 124.9401,91.3451 124.8914,91.3776 124.8340,91.3890 123.4340,91.3890 123.3766,91.3776 123.3279,91.3451 123.2954,91.2964 123.2840,91.2390 123.2840,90.9390 123.2954,90.8816 123.3279,90.8329 123.3766,90.8004 123.4340,90.7890 Z"/> 
<path style="fill-opacity: 1.0000;stroke-width: 0.0000;stroke-opacity: 1;stroke-linecap: round;stroke-linejoin: round;fill-rule: evenodd" d="M 124.8340,92.0390 124.8914,92.0504 124.9401,92.0829 124.9726,92.1316 124.9840,92.1890 124.9840,92.4890 124.9726,92.5464 124.9401,92.5951 124.8914,92.6276 124.8340,92.6390 123.4340,92.6390 123.3766,92.6276 123.3279,92.5951 123.2954,92.5464 123.2840,92.4890 123.2840,92.1890 123.2954,92.1316 123.3279,92.0829 123.3766,92.0504 123.4340,92.0390 Z"/> 
<path style="fill-opacity: 1.0000;stroke-width: 0.0000;stroke-opacity: 1;stroke-linecap: round;stroke-linejoin: round;fill-rule: evenodd" d="M 124.8340,93.2890 124.8914,93.3004 124.9401,93.3329 124.9726,93.3816 124.9840,93.4390 124.9840,93.7390 124.9726,93.7964 124.9401,93.8451 124.8914,93.8776 124.8340,93.8890 123.4340,93.8890 123.3766,93.8776 123.3279,93.8451 123.2954,93.7964 123.2840,93.7390 123.2840,93.4390 123.2954,93.3816 123.3279,93.3329 123.3766,93.3004 123.4340,93.2890 Z"/> 
<path style="fill-opacity: 1.0000;stroke-width: 0.0000;stroke-opacity: 1;stroke-linecap: round;stroke-linejoin: round;fill-rule: evenodd" d="M 124.8340,94.5390 124.8914,94.5504 124.9401,94.5829 124.9726,94.6316 124.9840,94.6890 124.9840,94.9890 124.9726,95.0464 124.9401,95.0951 124.8914,95.1276 124.8340,95.1390 123.4340,95.1390 123.3766,95.1276 123.3279,95.0951 123.2954,95.0464 123.2840,94.9890 123.2840,94.6890 123.2954,94.6316 123.3279,94.5829 123.3766,94.5504 123.4340,94.5390 Z"/> 
<path style="fill-opacity: 1.0000;stroke-width: 0.0000;stroke-opacity: 1;stroke-linecap: round;stroke-linejoin: round;fill-rule: evenodd" d="M 128.4340,88.7390 128.5297,88.7580 128.6108,88.8122 128.6650,88.8933 128.6840,88.9890 128.6840,89.4890 128.6650,89.5847 128.6108,89.6658 128.5297,89.7200 128.4340,89.7390 126.2340,89.7390 126.1383,89.7200 126.0572,89.6658 126.0030,89.5847 125.9840,89.4890 125.9840,88.9890 126.0030,88.8933 126.0572,88.8122 126.1383,88.7580 126.2340,88.7390 Z"/> 
<path style="fill-opacity: 1.0000;stroke-width: 0.0000;stroke-opacity: 1;stroke-linecap: round;stroke-linejoin: round;fill-rule: evenodd" d="M 128.4340,96.1890 128.5297,96.2080 128.6108,96.2622 128.6650,96.3433 128.6840,96.4390 128.6840,96.9390 128.6650,97.0347 128.6108,97.1158 128.5297,97.1700 128.4340,97.1890 126.2340,97.1890 126.1383,97.1700 126.0572,97.1158 126.0030,97.0347 125.9840,96.9390 125.9840,96.4390 126.0030,96.3433 126.0572,96.2622 126.1383,96.2080 126.2340,96.1890 Z"/> 
</g>
</g> 
</g><g id="substrate-pads" style="fill:#c4c1ba; stroke:#c4c1ba;" mask="url(#pads-mask)"><g style="fill-opacity: 0.0;stroke-width: 0.0000;stroke-opacity: 1;stroke-linecap: round;stroke-linejoin: round">
<g style="fill-opacity: 1.0000;stroke-width: 0.0000;stroke-opacity: 1;stroke-linecap: round;stroke-linejoin: round">
<circle cx="111.7600" cy="81.2800" r="3.0000"/> 
</g>
<g style="fill-opacity: 1.0000;stroke-width: 0.0000;stroke-opacity: 1;stroke-linecap: round;stroke-linejoin: round">
<circle cx="142.2400" cy="111.7600" r="3.0000"/> 
</g>
<g style="fill-opacity: 1.0000;stroke-width: 0.0000;stroke-opacity: 1;stroke-linecap: round;stroke-linejoin: round">
<circle cx="111.7600" cy="111.7600" r="3.0000"/> 
</g>
<g style="fill-opacity: 1.0000;stroke-width: 0.0000;stroke-opacity: 1;stroke-linecap: round;stroke-linejoin: round">
<circle cx="142.2400" cy="81.2800" r="3.0000"/> 
</g>
<g style="fill-opacity: 1.0000;stroke-width: 0.0000;stroke-opacity: 1;stroke-linecap: round;stroke-linejoin: round">
<path style="fill-opacity: 1.0000;stroke-width: 0.0000;stroke-opacity: 1;stroke-linecap: round;stroke-linejoin: round;fill-rule: evenodd" d="M 109.9820,92.2020 109.9820,90.6780 111.5060,90.6780 111.5060,92.2020 Z"/> 
<path style="fill-opacity: 1.0000;stroke-width: 0.0000;stroke-opacity: 1;stroke-linecap: round;stroke-linejoin: round;fill-rule: evenodd" d="M 112.5220,92.2020 112.5220,90.6780 114.0460,90.6780 114.0460,92.2020 Z"/> 
<path style="fill-opacity: 1.0000;stroke-width: 0.0000;stroke-opacity: 1;stroke-linecap: round;stroke-linejoin: round;fill-rule: evenodd" d="M 109.9820,94.7420 109.9820,93.2180 111.5060,93.2180 111.5060,94.7420 Z"/> 
<path style="fill-opacity: 1.0000;stroke-width: 0.0000;stroke-opacity: 1;stroke-linecap: round;stroke-linejoin: round;fill-rule: evenodd" d="M 112.5220,94.7420 112.5220,93.2180 114.0460,93.2180 114.0460,94.7420 Z"/> 
<path style="fill-opacity: 1.0000;stroke-width: 0.0000;stroke-opacity: 1;stroke-linecap: round;stroke-linejoin: round;fill-rule: evenodd" d="M 109.9820,97.2820 109.9820,95.7580 111.5060,95.7580 111.5060,97.2820 Z"/> 
<path style="fill-opacity: 1.0000;stroke-width: 0.0000;stroke-opacity: 1;stroke-linecap: round;stroke-linejoin: round;fill-rule: evenodd" d="M 112.5220,97.2820 112.5220,95.7580 114.0460,95.7580 114.0460,97.2820 Z"/> 
<path style="fill-opacity: 1.0000;stroke-width: 0.0000;stroke-opacity: 1;stroke-linecap: round;stroke-linejoin: round;fill-rule: evenodd" d="M 109.9820,99.8220 109.9820,98.2980 111.5060,98.2980 111.5060,99.8220 Z"/> 
<path style="fill-opacity: 1.0000;stroke-width: 0.0000;stroke-opacity: 1;stroke-linecap: round;stroke-linejoin: round;fill-rule: evenodd" d="M 112.5220,99.8220 112.5220,98.2980 114.0460,98.2980 114.0460,99.8220 Z"/> 
<path style="fill-opacity: 1.0000;stroke-width: 0.0000;stroke-opacity: 1;stroke-linecap: round;stroke-linejoin: round;fill-rule: evenodd" d="M 109.9820,102.3620 109.9820,100.8380 111.5060,100.8380 111.5060,102.3620 Z"/> 
<path style="fill-opacity: 1.0000;stroke-width: 0.0000;stroke-opacity: 1;stroke-linecap: round;stroke-linejoin: round;fill-rule: evenodd" d="M 112.5220,102.3620 112.5220,100.8380 114.0460,100.8380 114.0460,102.3620 Z"/> 
</g>
<g style="fill-opacity: 1.0000;stroke-width: 0.0000;stroke-opacity: 1;stroke-linecap: round;stroke-linejoin: round">
<path style="fill-opacity: 1.0000;stroke-width: 0.0000;stroke-opacity: 1;stroke-linecap: round;stroke-linejoin: round;fill-rule: evenodd" d="M 124.8340,101.9650 124.8914,101.9764 124.9401,102.0089 124.9726,102.0576 124.9840,102.1150 124.9840,102.4150 124.9726,102.4724 124.9401,102.5211 124.8914,102.5536 124.8340,102.5650 123.4340,102.5650 123.3766,102.5536 123.3279,102.5211 123.2954,102.4724 123.2840,102.4150 123.2840,102.1150 123.2954,102.0576 123.3279,102.0089 123.3766,101.9764 123.4340,101.9650 Z"/> 
<path style="fill-opacity: 1.0000;stroke-width: 0.0000;stroke-opacity: 1;stroke-linecap: round;stroke-linejoin: round;fill-rule: evenodd" d="M 124.8340,103.2150 124.8914,103.2264 124.9401,103.2589 124.9726,103.3076 124.9840,103.3650 124.9840,103.6650 124.9726,103.7224 124.9401,103.7711 124.8914,103.8036 124.8340,103.8150 123.4340,103.8150 123.3766,103.8036 123.3279,103.7711 123.2954,103.7224 123.2840,103.6650 123.2840,103.3650 123.2954,103.3076 123.3279,103.2589 123.3766,103.2264 123.4340,103.2150 Z"/> 
<path style="fill-opacity: 1.0000;stroke-width: 0.0000;stroke-opacity: 1;stroke-linecap: round;stroke-linejoin: round;fill-rule: evenodd" d="M 124.8340,104.4650 124.8914,104.4764 124.9401,104.5089 124.9726,104.5576 124.9840,104.6150 124.9840,104.9150 124.9726,104.9724 124.9401,105.0211 124.8914,105.0536 124.8340,105.0650 123.4340,105.0650 123.3766,105.0536 123.3279,105.0211 123.2954,104.9724 123.2840,104.9150 123.2840,104.6150 123.2954,104.5576 123.3279,104.5089 123.3766,104.4764 123.4340,104.4650 Z"/> 
<path style="fill-opacity: 1.0000;stroke-width: 0.0000;stroke-opacity: 1;stroke-linecap: round;stroke-linejoin: round;fill-rule: evenodd" d="M 124.8340,105.7150 124.8914,105.7264 124.9401,105.7589 124.9726,105.8076 124.9840,105.8650 124.9840,106.1650 124.9726,106.2224 124.9401,106.2711 124.8914,106.3036 124.8340,106.3150 123.4340,106.3150 123.3766,106.3036 123.3279,106.2711 123.2954,106.2224 123.2840,106.1650 123.2840,105.8650 123.2954,105.8076 123.3279,105.7589 123.3766,105.7264 123.4340,105.7150 Z"/> 
<path style="fill-opacity: 1.0000;stroke-width: 0.0000;stroke-opacity: 1;stroke-linecap: round;stroke-linejoin: round;fill-rule: evenodd" d="M 128.4340,99.9150 128.5297,99.9340 128.6108,99.9882 128.6650,100.0693 128.6840,100.1650 128.6840,100.6650 128.6650,100.7607 128.6108,100.8418 128.5297,100.8960 128.4340,100.9150 126.2340,100.9150 126.1383,100.8960 126.0572,100.8418 126.0030,100.7607 125.9840,100.6650 125.9840,100.1650 126.0030,100.0693 126.0572,99.9882 126.1383,99.9340 126.2340,99.9150 Z"/> 
<path style="fill-opacity: 1.0000;stroke-width: 0.0000;stroke-opacity: 1;stroke-linecap: round;stroke-linejoin: round;fill-rule: evenodd" d="M 128.4340,107.3650 128.5297,107.3840 128.6108,107.4382 128.6650,107.5193 128.6840,107.6150 128.6840,108.1150 128.6650,108.2107 128.6108,108.2918 128.5297,108.3460 128.4340,108.3650 126.2340,108.3650 126.1383,108.3460 126.0572,108.2918 126.0030,108.2107 125.9840,108.1150 125.9840,107.6150 126.0030,107.5193 126.0572,107.4382 126.1383,107.3840 126.2340,107.3650 Z"/> 
</g>
<g style="fill-opacity: 1.0000;stroke-width: 0.0000;stroke-opacity: 1;stroke-linecap: round;stroke-linejoin: round">
<path style="fill-opacity: 1.0000;stroke-width: 0.0000;stroke-opacity: 1;stroke-linecap: round;stroke-linejoin: round;fill-rule: evenodd" d="M 124.8340,90.7890 124.8914,90.8004 124.9401,90.8329 124.9726,90.8816 124.9840,90.9390 124.9840,91.2390 124.9726,91.2964 124.9401,91.3451 124.8914,91.3776 124.8340,91.3890 123.4340,91.3890 123.3766,91.3776 123.3279,91.3451 123.2954,91.2964 123.2840,91.2390 123.2840,90.9390 123.2954,90.8816 123.3279,90.8329 123.3766,90.8004 123.4340,90.7890 Z"/> 
<path style="fill-opacity: 1.0000;stroke-width: 0.0000;stroke-opacity: 1;stroke-linecap: round;stroke-linejoin: round;fill-rule: evenodd" d="M 124.8340,92.0390 124.8914,92.0504 124.9401,92.0829 124.9726,92.1316 124.9840,92.1890 124.9840,92.4890 124.9726,92.5464 124.9401,92.5951 124.8914,92.6276 124.8340,92.6390 123.4340,92.6390 123.3766,92.6276 123.3279,92.5951 123.2954,92.5464 123.2840,92.4890 123.2840,92.1890 123.2954,92.1316 123.3279,92.0829 123.3766,92.0504 123.4340,92.0390 Z"/> 
<path style="fill-opacity: 1.0000;stroke-width: 0.0000;stroke-opacity: 1;stroke-linecap: round;stroke-linejoin: round;fill-rule: evenodd" d="M 124.8340,93.2890 124.8914,93.3004 124.9401,93.3329 124.9726,93.3816 124.9840,93.4390 124.9840,93.7390 124.9726,93.7964 124.9401,93.8451 124.8914,93.8776 124.8340,93.8890 123.4340,93.8890 123.3766,93.8776 123.3279,93.8451 123.2954,93.7964 123.2840,93.7390 123.2840,93.4390 123.2954,93.3816 123.3279,93.3329 123.3766,93.3004 123.4340,93.2890 Z"/> 
<path style="fill-opacity: 1.0000;stroke-width: 0.0000;stroke-opacity: 1;stroke-linecap: round;stroke-linejoin: round;fill-rule: evenodd" d="M 124.8340,94.5390 124.8914,94.5504 124.9401,94.5829 124.9726,94.6316 124.9840,94.6890 124.9840,94.9890 124.9726,95.0464 124.9401,95.0951 124.8914,95.1276 124.8340,95.1390 123.4340,95.1390 123.3766,95.1276 123.3279,95.0951 123.2954,95.0464 123.2840,94.9890 123.2840,94.6890 123.2954,94.6316 123.3279,94.5829 123.3766,94.5504 123.4340,94.5390 Z"/> 
<path style="fill-opacity: 1.0000;stroke-width: 0.0000;stroke-opacity: 1;stroke-linecap: round;stroke-linejoin: round;fill-rule: evenodd" d="M 128.4340,88.7390 128.5297,88.7580 128.6108,88.8122 128.6650,88.8933 128.6840,88.9890 128.6840,89.4890 128.6650,89.5847 128.6108,89.6658 128.5297,89.7200 128.4340,89.7390 126.2340,89.7390 126.1383,89.7200 126.0572,89.6658 126.0030,89.5847 125.9840,89.4890 125.9840,88.9890 126.0030,88.8933 126.0572,88.8122 126.1383,88.7580 126.2340,88.7390 Z"/> 
<path style="fill-opacity: 1.0000;stroke-width: 0.0000;stroke-opacity: 1;stroke-linecap: round;stroke-linejoin: round;fill-rule: evenodd" d="M 128.4340,96.1890 128.5297,96.2080 128.6108,96.2622 128.6650,96.3433 128.6840,96.4390 128.6840,96.9390 128.6650,97.0347 128.6108,97.1158 128.5297,97.1700 128.4340,97.1890 126.2340,97.1890 126.1383,97.1700 126.0572,97.1158 126.0030,97.0347 125.9840,96.9390 125.9840,96.4390 126.0030,96.3433 126.0572,96.2622 126.1383,96.2080 126.2340,96.1890 Z"/> 
</g>
</g> 
</g><g id="substrate-silk" style="fill:#0b1013; stroke:#0b1013;" mask="url(#pads-mask-silkscreen)"><g style="fill-opacity: 0.0;stroke-width: 0.1500;stroke-opacity: 1;stroke-linecap: round;stroke-linejoin: round">
<g transform="rotate(-90.000000 122.0840 104.1400)">
<text x="122.0840" y="104.6400" transform="scale(-1 1) translate(-244.168000 0)" textLength="1.8893" font-size="1.3333" lengthAdjust="spacingAndGlyphs" text-anchor="middle" opacity="0">J1</text>
</g>
<g class="stroked-text"><desc>J1</desc>
<path d="M121.5388 103.8067 L122.2531 103.8067 "/>
<path d="M122.2531 103.8067 L122.3960 103.7590 "/>
<path d="M122.3960 103.7590 L122.4912 103.6638 "/>
<path d="M122.4912 103.6638 L122.5388 103.5210 "/>
<path d="M122.5388 103.5210 L122.5388 103.4257 "/>
<path d="M122.5388 104.8067 L122.5388 104.2352 "/>
<path d="M122.5388 104.5210 L121.5388 104.5210 "/>
<path d="M121.5388 104.5210 L121.6817 104.4257 "/>
<path d="M121.6817 104.4257 L121.7769 104.3305 "/>
<path d="M121.7769 104.3305 L121.8245 104.2352 "/>
</g><g transform="rotate(-90.000000 122.0840 92.9640)">
<text x="122.0840" y="93.4640" transform="scale(-1 1) translate(-244.168000 0)" textLength="1.8893" font-size="1.3333" lengthAdjust="spacingAndGlyphs" text-anchor="middle" opacity="0">J2</text>
</g>
<g class="stroked-text"><desc>J2</desc>
<path d="M121.5388 92.6307 L122.2531 92.6307 "/>
<path d="M122.2531 92.6307 L122.3960 92.5830 "/>
<path d="M122.3960 92.5830 L122.4912 92.4878 "/>
<path d="M122.4912 92.4878 L122.5388 92.3450 "/>
<path d="M122.5388 92.3450 L122.5388 92.2497 "/>
<path d="M121.6341 93.0592 L121.5864 93.1069 "/>
<path d="M121.5864 93.1069 L121.5388 93.2021 "/>
<path d="M121.5388 93.2021 L121.5388 93.4402 "/>
<path d="M121.5388 93.4402 L121.5864 93.5354 "/>
<path d="M121.5864 93.5354 L121.6341 93.5830 "/>
<path d="M121.6341 93.5830 L121.7293 93.6307 "/>
<path d="M121.7293 93.6307 L121.8245 93.6307 "/>
<path d="M121.8245 93.6307 L121.9674 93.5830 "/>
<path d="M121.9674 93.5830 L122.5388 93.0116 "/>
<path d="M122.5388 93.0116 L122.5388 93.6307 "/>
</g></g>
<g style="fill-opacity: 0.0;stroke-width: 0.1200;stroke-opacity: 1;stroke-linecap: round;stroke-linejoin: round">
<path d="M125.7240 99.9050 L124.2740 99.9050 "/>
<path d="M124.2740 99.9050 L124.2740 101.7050 "/>
<path d="M128.5440 101.1750 L128.5440 107.1050 "/>
<path d="M124.2740 101.7050 L123.2840 101.7050 "/>
<path d="M125.7240 108.3750 L124.2740 108.3750 "/>
<path d="M124.2740 108.3750 L124.2740 106.5750 "/>
<path d="M125.7240 88.7290 L124.2740 88.7290 "/>
<path d="M124.2740 88.7290 L124.2740 90.5290 "/>
<path d="M128.5440 89.9990 L128.5440 95.9290 "/>
<path d="M124.2740 90.5290 L123.2840 90.5290 "/>
<path d="M125.7240 97.1990 L124.2740 97.1990 "/>
<path d="M124.2740 97.1990 L124.2740 95.3990 "/>
</g> 
</g><g id="substrate-outline" style="fill:#000000; stroke:#000000; stroke-width: 0.15"><g style="fill-opacity: 0.0;stroke-opacity: 1;stroke-linecap: round;stroke-linejoin: round">
<path d="M147.0660 116.5860 L147.0660 76.4540 "/>
<path d="M106.9340 76.4540 L106.9340 116.5860 "/>
<path d="M106.9340 116.5860 L147.0660 116.5860 "/>
<path d="M147.0660 76.4540 L106.9340 76.4540 "/>
<circle cx="111.7600" cy="111.7600" r="1.6667"/> 
<path d="M109.2600 111.7600 L114.2600 111.7600 "/>
<path d="M111.7600 109.2600 L111.7600 114.2600 "/>
<circle cx="111.7600" cy="111.7600" r="1.6667"/> 
<path d="M109.2600 111.7600 L114.2600 111.7600 "/>
<path d="M111.7600 109.2600 L111.7600 114.2600 "/>
<circle cx="111.7600" cy="111.7600" r="1.6667"/> 
<path d="M109.2600 111.7600 L114.2600 111.7600 "/>
<path d="M111.7600 109.2600 L111.7600 114.2600 "/>
</g> 
<path d="M -1.5 0.0 A 1.5 1.5 0 1 1 1.5 0.0 L 1.5 -0.0 A 1.5 1.5 0 1 1 -1.5 -0.0 Z" transform="translate(111.76 81.28) rotate(-0.0)"/><path d="M -1.5 0.0 A 1.5 1.5 0 1 1 1.5 0.0 L 1.5 -0.0 A 1.5 1.5 0 1 1 -1.5 -0.0 Z" transform="translate(142.24 111.76) rotate(-0.0)"/><path d="M -1.5 0.0 A 1.5 1.5 0 1 1 1.5 0.0 L 1.5 -0.0 A 1.5 1.5 0 1 1 -1.5 -0.0 Z" transform="translate(111.76 111.76) rotate(-0.0)"/><path d="M -1.5 0.0 A 1.5 1.5 0 1 1 1.5 0.0 L 1.5 -0.0 A 1.5 1.5 0 1 1 -1.5 -0.0 Z" transform="translate(142.24 81.28) rotate(-0.0)"/><path d="M -0.4445 0.0 A 0.4445 0.4445 0 1 1 0.4445 0.0 L 0.4445 -0.0 A 0.4445 0.4445 0 1 1 -0.4445 -0.0 Z" transform="translate(110.744 91.44) rotate(-0.0)"/><path d="M -0.4445 0.0 A 0.4445 0.4445 0 1 1 0.4445 0.0 L 0.4445 -0.0 A 0.4445 0.4445 0 1 1 -0.4445 -0.0 Z" transform="translate(113.284 91.44) rotate(-0.0)"/><path d="M -0.4445 0.0 A 0.4445 0.4445 0 1 1 0.4445 0.0 L 0.4445 -0.0 A 0.4445 0.4445 0 1 1 -0.4445 -0.0 Z" transform="translate(110.744 93.98) rotate(-0.0)"/><path d="M -0.4445 0.0 A 0.4445 0.4445 0 1 1 0.4445 0.0 L 0.4445 -0.0 A 0.4445 0.4445 0 1 1 -0.4445 -0.0 Z" transform="translate(113.284 93.98) rotate(-0.0)"/><path d="M -0.4445 0.0 A 0.4445 0.4445 0 1 1 0.4445 0.0 L 0.4445 -0.0 A 0.4445 0.4445 0 1 1 -0.4445 -0.0 Z" transform="translate(110.744 96.52) rotate(-0.0)"/><path d="M -0.4445 0.0 A 0.4445 0.4445 0 1 1 0.4445 0.0 L 0.4445 -0.0 A 0.4445 0.4445 0 1 1 -0.4445 -0.0 Z" transform="translate(113.284 96.52) rotate(-0.0)"/><path d="M -0.4445 0.0 A 0.4445 0.4445 0 1 1 0.4445 0.0 L 0.4445 -0.0 A 0.4445 0.4445 0 1 1 -0.4445 -0.0 Z" transform="translate(110.744 99.06) rotate(-0.0)"/><path d="M -0.4445 0.0 A 0.4445 0.4445 0 1 1 0.4445 0.0 L 0.4445 -0.0 A 0.4445 0.4445 0 1 1 -0.4445 -0.0 Z" transform="translate(113.284 99.06) rotate(-0.0)"/><path d="M -0.4445 0.0 A 0.4445 0.4445 0 1 1 0.4445 0.0 L 0.4445 -0.0 A 0.4445 0.4445 0 1 1 -0.4445 -0.0 Z" transform="translate(110.744 101.6) rotate(-0.0)"/><path d="M -0.4445 0.0 A 0.4445 0.4445 0 1 1 0.4445 0.0 L 0.4445 -0.0 A 0.4445 0.4445 0 1 1 -0.4445 -0.0 Z" transform="translate(113.284 101.6) rotate(-0.0)"/></g></g><g id="substrate-paste" style="fill:#8a8a8a; stroke:#8a8a8a;"><g style="fill-opacity: 0.0;stroke-width: 0.0000;stroke-opacity: 1;stroke-linecap: round;stroke-linejoin: round">
<g style="fill-opacity: 1.0000;stroke-width: 0.0000;stroke-opacity: 1;stroke-linecap: round;stroke-linejoin: round">
<path style="fill-opacity: 1.0000;stroke-width: 0.0000;stroke-opacity: 1;stroke-linecap: round;stroke-linejoin: round;fill-rule: evenodd" d="M 124.8340,101.9650 124.8914,101.9764 124.9401,102.0089 124.9726,102.0576 124.9840,102.1150 124.9840,102.4150 124.9726,102.4724 124.9401,102.5211 124.8914,102.5536 124.8340,102.5650 123.4340,102.5650 123.3766,102.5536 123.3279,102.5211 123.2954,102.4724 123.2840,102.4150 123.2840,102.1150 123.2954,102.0576 123.3279,102.0089 123.3766,101.9764 123.4340,101.9650 Z"/> 
<path style="fill-opacity: 1.0000;stroke-width: 0.0000;stroke-opacity: 1;stroke-linecap: round;stroke-linejoin: round;fill-rule: evenodd" d="M 124.8340,103.2150 124.8914,103.2264 124.9401,103.2589 124.9726,103.3076 124.9840,103.3650 124.9840,103.6650 124.9726,103.7224 124.9401,103.7711 124.8914,103.8036 124.8340,103.8150 123.4340,103.8150 123.3766,103.8036 123.3279,103.7711 123.2954,103.7224 123.2840,103.6650 123.2840,103.3650 123.2954,103.3076 123.3279,103.2589 123.3766,103.2264 123.4340,103.2150 Z"/> 
<path style="fill-opacity: 1.0000;stroke-width: 0.0000;stroke-opacity: 1;stroke-linecap: round;stroke-linejoin: round;fill-rule: evenodd" d="M 124.8340,104.4650 124.8914,104.4764 124.9401,104.5089 124.9726,104.5576 124.9840,104.6150 124.9840,104.9150 124.9726,104.9724 124.9401,105.0211 124.8914,105.0536 124.8340,105.0650 123.4340,105.0650 123.3766,105.0536 123.3279,105.0211 123.2954,104.9724 123.2840,104.9150 123.2840,104.6150 123.2954,104.5576 123.3279,104.5089 123.3766,104.4764 123.4340,104.4650 Z"/> 
<path style="fill-opacity: 1.0000;stroke-width: 0.0000;stroke-opacity: 1;stroke-linecap: round;stroke-linejoin: round;fill-rule: evenodd" d="M 124.8340,105.7150 124.8914,105.7264 124.9401,105.7589 124.9726,105.8076 124.9840,105.8650 124.9840,106.1650 124.9726,106.2224 124.9401,106.2711 124.8914,106.3036 124.8340,106.3150 123.4340,106.3150 123.3766,106.3036 123.3279,106.2711 123.2954,106.2224 123.2840,106.1650 123.2840,105.8650 123.2954,105.8076 123.3279,105.7589 123.3766,105.7264 123.4340,105.7150 Z"/> 
<path style="fill-opacity: 1.0000;stroke-width: 0.0000;stroke-opacity: 1;stroke-linecap: round;stroke-linejoin: round;fill-rule: evenodd" d="M 128.4340,99.9150 128.5297,99.9340 128.6108,99.9882 128.6650,100.0693 128.6840,100.1650 128.6840,100.6650 128.6650,100.7607 128.6108,100.8418 128.5297,100.8960 128.4340,100.9150 126.2340,100.9150 126.1383,100.8960 126.0572,100.8418 126.0030,100.7607 125.9840,100.6650 125.9840,100.1650 126.0030,100.0693 126.0572,99.9882 126.1383,99.9340 126.2340,99.9150 Z"/> 
<path style="fill-opacity: 1.0000;stroke-width: 0.0000;stroke-opacity: 1;stroke-linecap: round;stroke-linejoin: round;fill-rule: evenodd" d="M 128.4340,107.3650 128.5297,107.3840 128.6108,107.4382 128.6650,107.5193 128.6840,107.6150 128.6840,108.1150 128.6650,108.2107 128.6108,108.2918 128.5297,108.3460 128.4340,108.3650 126.2340,108.3650 126.1383,108.3460 126.0572,108.2918 126.0030,108.2107 125.9840,108.1150 125.9840,107.6150 126.0030,107.5193 126.0572,107.4382 126.1383,107.3840 126.2340,107.3650 Z"/> 
</g>
<g style="fill-opacity: 1.0000;stroke-width: 0.0000;stroke-opacity: 1;stroke-linecap: round;stroke-linejoin: round">
<path style="fill-opacity: 1.0000;stroke-width: 0.0000;stroke-opacity: 1;stroke-linecap: round;stroke-linejoin: round;fill-rule: evenodd" d="M 124.8340,90.7890 124.8914,90.8004 124.9401,90.8329 124.9726,90.8816 124.9840,90.9390 124.9840,91.2390 124.9726,91.2964 124.9401,91.3451 124.8914,91.3776 124.8340,91.3890 123.4340,91.3890 123.3766,91.3776 123.3279,91.3451 123.2954,91.2964 123.2840,91.2390 123.2840,90.9390 123.2954,90.8816 123.3279,90.8329 123.3766,90.8004 123.4340,90.7890 Z"/> 
<path style="fill-opacity: 1.0000;stroke-width: 0.0000;stroke-opacity: 1;stroke-linecap: round;stroke-linejoin: round;fill-rule: evenodd" d="M 124.8340,92.0390 124.8914,92.0504 124.9401,92.0829 124.9726,92.1316 124.9840,92.1890 124.9840,92.4890 124.9726,92.5464 124.9401,92.5951 124.8914,92.6276 124.8340,92.6390 123.4340,92.6390 123.3766,92.6276 123.3279,92.5951 123.2954,92.5464 123.2840,92.4890 123.2840,92.1890 123.2954,92.1316 123.3279,92.0829 123.3766,92.0504 123.4340,92.0390 Z"/> 
<path style="fill-opacity: 1.0000;stroke-width: 0.0000;stroke-opacity: 1;stroke-linecap: round;stroke-linejoin: round;fill-rule: evenodd" d="M 124.8340,93.2890 124.8914,93.3004 124.9401,93.3329 124.9726,93.3816 124.9840,93.4390 124.9840,93.7390 124.9726,93.7964 124.9401,93.8451 124.8914,93.8776 124.8340,93.8890 123.4340,93.8890 123.3766,93.8776 123.3279,93.8451 123.2954,93.7964 123.2840,93.7390 123.2840,93.4390 123.2954,93.3816 123.3279,93.3329 123.3766,93.3004 123.4340,93.2890 Z"/> 
<path style="fill-opacity: 1.0000;stroke-width: 0.0000;stroke-opacity: 1;stroke-linecap: round;stroke-linejoin: round;fill-rule: evenodd" d="M 124.8340,94.5390 124.8914,94.5504 124.9401,94.5829 124.9726,94.6316 124.9840,94.6890 124.9840,94.9890 124.9726,95.0464 124.9401,95.0951 124.8914,95.1276 124.8340,95.1390 123.4340,95.1390 123.3766,95.1276 123.3279,95.0951 123.2954,95.0464 123.2840,94.9890 123.2840,94.6890 123.2954,94.6316 123.3279,94.5829 123.3766,94.5504 123.4340,94.5390 Z"/> 
<path style="fill-opacity: 1.0000;stroke-width: 0.0000;stroke-opacity: 1;stroke-linecap: round;stroke-linejoin: round;fill-rule: evenodd" d="M 128.4340,88.7390 128.5297,88.7580 128.6108,88.8122 128.6650,88.8933 128.6840,88.9890 128.6840,89.4890 128.6650,89.5847 128.6108,89.6658 128.5297,89.7200 128.4340,89.7390 126.2340,89.7390 126.1383,89.7200 126.0572,89.6658 126.0030,89.5847 125.9840,89.4890 125.9840,88.9890 126.0030,88.8933 126.0572,88.8122 126.1383,88.7580 126.2340,88.7390 Z"/> 
<path style="fill-opacity: 1.0000;stroke-width: 0.0000;stroke-opacity: 1;stroke-linecap: round;stroke-linejoin: round;fill-rule: evenodd" d="M 128.4340,96.1890 128.5297,96.2080 128.6108,96.2622 128.6650,96.3433 128.6840,96.4390 128.6840,96.9390 128.6650,97.0347 128.6108,97.1158 128.5297,97.1700 128.4340,97.1890 126.2340,97.1890 126.1383,97.1700 126.0572,97.1158 126.0030,97.0347 125.9840,96.9390 125.9840,96.4390 126.0030,96.3433 126.0572,96.2622 126.1383,96.2080 126.2340,96.1890 Z"/> 
</g>
</g> 
</g></g><g transform="scale(-1,1)" id="componentContainer"><!--Connector_JST:JST_GH_SM04B-GHS-TB_1x04-1MP_P1.25mm_Horizontal:J1--><g transform="translate(125.984 104.14) scale(1.0, 0.999999951362911) rotate(90.0) translate(-4.0769644 -2.4246416)"><g id="pref_12_Connector_JST__JST_GH_SM04BGHSTB_1x041MP_P125mm_Horizontal_SM04BGHSTB"><g id="pref_13pin" transform="translate(2.5124252,0.27816504)">
    <rect style="fill:#f5f6f0;fill-opacity:1;stroke:#000000;stroke-width:0;stroke-miterlimit:4;stroke-dasharray:none" id="pref_13rect178" width="8.2158813" height="4.0158815" x="-2.5124247" y="-0.27816454"/>
    <path style="fill:#a5a5a7;fill-opacity:1;stroke:#000000;stroke-width:0;stroke-miterlimit:4;stroke-dasharray:none" id="pref_13path2279" d="m 19.774406,1.359875 -0.968793,-1.67799872 -0.968793,-1.67799868 1.937586,-2e-7 1.937586,1e-7 -0.968792,1.67799882 z" transform="matrix(0.27234845,0,0,0.27139643,-0.33615615,0.26736706)"/>
    <path style="fill:#f3f6f6;fill-opacity:1;stroke:#000000;stroke-width:0;stroke-miterlimit:4;stroke-dasharray:none" id="pref_13path2153" d="m 19.774406,1.359875 -0.968793,-1.67799872 -0.968793,-1.67799868 1.937586,-2e-7 1.937586,1e-7 -0.968792,1.67799882 z" transform="matrix(0.26458333,0,0,0.26458333,-0.18259561,0.25388166)"/>
    <g id="pref_13g3811" transform="translate(-0.37949425)">
      <rect style="fill:#e2e62c;fill-opacity:1;stroke:#000000;stroke-width:0;stroke-miterlimit:4;stroke-dasharray:none" id="pref_13rect2933" width="0.19999942" height="0.19999918" x="1.051358e-05" y="3.6339235" ry="0.0052916547" rx="0.026458433"/>
      <rect style="fill:#e2e62c;fill-opacity:1;stroke:#000000;stroke-width:0;stroke-miterlimit:4;stroke-dasharray:none" id="pref_13rect3801" width="0.19999942" height="0.19999918" x="1.2500105" y="3.6339235" ry="0.0052916547" rx="0.026458433"/>
      <rect style="fill:#e2e62c;fill-opacity:1;stroke:#000000;stroke-width:0;stroke-miterlimit:4;stroke-dasharray:none" id="pref_13rect3803" width="0.19999942" height="0.19999918" x="2.5000105" y="3.6339235" ry="0.0052916547" rx="0.026458433"/>
      <rect style="fill:#e2e62c;fill-opacity:1;stroke:#000000;stroke-width:0;stroke-miterlimit:4;stroke-dasharray:none" id="pref_13rect3805" width="0.19999942" height="0.19999918" x="3.7500105" y="3.6339235" ry="0.0052916547" rx="0.026458433"/>
    </g>
    <rect style="fill:#c2d0c8;fill-opacity:1;stroke:#000000;stroke-width:0;stroke-miterlimit:4;stroke-dasharray:none" id="pref_13rect3835" width="0.38701597" height="1.7734947" x="5.3164411" y="1.9642222"/>
    <rect style="fill:#545457;fill-opacity:1;stroke:#000000;stroke-width:0;stroke-miterlimit:4;stroke-dasharray:none" id="pref_13rect5017" width="0.10005131" height="0.78580326" x="5.3164411" y="1.9642222" rx="0.0068400046" ry="0.011723206"/>
    <rect style="fill:#545457;fill-opacity:1;stroke:#000000;stroke-width:0;stroke-miterlimit:4;stroke-dasharray:none" id="pref_13rect5193" width="0.10005131" height="0.11041039" x="5.5352831" y="3.5406897" rx="0.0068400046" ry="0.0016471855"/>
    <g id="pref_13g5204" transform="matrix(-1,0,0,1,-6.2541513,0.6368897)">
      <rect style="fill:#c2d0c8;fill-opacity:1;stroke:#000000;stroke-width:0;stroke-miterlimit:4;stroke-dasharray:none" id="pref_13rect5195" width="0.38701597" height="1.7734947" x="-4.1287427" y="1.3273324"/>
      <rect style="fill:#545457;fill-opacity:1;stroke:#000000;stroke-width:0;stroke-miterlimit:4;stroke-dasharray:none" id="pref_13rect5197" width="0.10005131" height="0.78580326" x="-4.1287427" y="1.3273324" rx="0.0068400046" ry="0.011723206"/>
      <rect style="fill:#545457;fill-opacity:1;stroke:#000000;stroke-width:0;stroke-miterlimit:4;stroke-dasharray:none" id="pref_13rect5199" width="0.10005131" height="0.11041039" x="-3.9099009" y="2.9038" rx="0.0068400046" ry="0.0016471855"/>
    </g>
  </g>
  </g></g><!--Connector_JST:JST_GH_SM04B-GHS-TB_1x04-1MP_P1.25mm_Horizontal:J2--><g transform="translate(125.984 92.964) scale(1.0, 0.999999951362911) rotate(90.0) translate(-4.0769644 -2.4246416)"><use xmlns:xlink="http://www.w3.org/1999/xlink" xlink:href="#pref_12_Connector_JST__JST_GH_SM04BGHSTB_1x041MP_P125mm_Horizontal_SM04BGHSTB"/></g><!--Mlab_Mechanical:MountingHole_3mm.back:M2--><g transform="translate(111.76 81.28) scale(1.0, 1.0) rotate(-0.0) translate(-0.75 -0.75)"><g id="pref_12_Mlab_Mechanical__MountingHole_3mmback_HOLEM3"><defs xmlns:xlink="http://www.w3.org/1999/xlink" id="pref_14defs13">
    <linearGradient id="pref_14linearGradient3674">
      <stop style="stop-color:#2b2b2b;stop-opacity:1" offset="0" id="pref_14stop3666"/>
      <stop style="stop-color:#5e5e5e;stop-opacity:0.78431374" offset="0.48605427" id="pref_14stop4288"/>
      <stop style="stop-color:#838383;stop-opacity:0" offset="0.53796667" id="pref_14stop3668"/>
      <stop style="stop-color:#dcdcdc;stop-opacity:0" offset="0.76845002" id="pref_14stop3670"/>
      <stop style="stop-color:#e4e4e4;stop-opacity:0.88235301" offset="1" id="pref_14stop3672"/>
    </linearGradient>
    <linearGradient id="pref_14linearGradient2885">
      <stop style="stop-color:#8f8f8f;stop-opacity:1" offset="0" id="pref_14stop2881"/>
      <stop style="stop-color:#e5e5e5;stop-opacity:1" offset="1" id="pref_14stop2883"/>
    </linearGradient>
    <linearGradient id="pref_14linearGradient1894">
      <stop style="stop-color:#b2b2b2;stop-opacity:1" offset="0" id="pref_14stop1890"/>
      <stop style="stop-color:#838383;stop-opacity:1" offset="0.3359659" id="pref_14stop2785"/>
      <stop style="stop-color:#dcdcdc;stop-opacity:1" offset="0.76141548" id="pref_14stop2655"/>
      <stop style="stop-color:#bebebe;stop-opacity:1" offset="1" id="pref_14stop1892"/>
    </linearGradient>
    <linearGradient id="pref_14linearGradient3692-7">
      <stop style="stop-color:#d3d3d3;stop-opacity:1;" offset="0" id="pref_14stop3688"/>
      <stop style="stop-color:#b2b2b2;stop-opacity:1" offset="0.81006318" id="pref_14stop5318"/>
      <stop style="stop-color:#c8c8c8;stop-opacity:1" offset="0.87439835" id="pref_14stop4242"/>
      <stop style="stop-color:#b8b8b8;stop-opacity:1;" offset="0.94349736" id="pref_14stop4310"/>
      <stop style="stop-color:#aeaeae;stop-opacity:1" offset="1" id="pref_14stop3690"/>
    </linearGradient>
    <radialGradient xlink:href="#pref_14linearGradient3692-7" id="pref_14radialGradient1176" cx="0.75" cy="0.75" fx="0.75" fy="0.75" r="1.5" gradientUnits="userSpaceOnUse"/>
    <linearGradient xlink:href="#pref_14linearGradient1894" id="pref_14linearGradient1902" x1="-0.24704969" y1="-10.608996" x2="8.4657993" y2="-5.57863" gradientUnits="userSpaceOnUse"/>
    <linearGradient xlink:href="#pref_14linearGradient2885" id="pref_14linearGradient2887" x1="-0.24704971" y1="-8.0938129" x2="8.4657997" y2="-8.0938129" gradientUnits="userSpaceOnUse"/>
    <radialGradient xlink:href="#pref_14linearGradient3674" id="pref_14radialGradient3506" cx="4.109375" cy="-8.0938129" fx="4.109375" fy="-8.0938129" r="4.3564248" gradientTransform="matrix(1.1330715,0.01077876,-0.01098402,1.1546483,-0.63574335,1.2074004)" gradientUnits="userSpaceOnUse"/>
    <linearGradient xlink:href="#pref_14linearGradient1894" id="pref_14linearGradient1902-1" x1="-0.24704969" y1="-10.608996" x2="8.4657993" y2="-5.57863" gradientUnits="userSpaceOnUse"/>
    <linearGradient xlink:href="#pref_14linearGradient2885" id="pref_14linearGradient2887-3" x1="-0.2470497" y1="-8.0938129" x2="8.4657993" y2="-8.0938129" gradientUnits="userSpaceOnUse"/>
    <radialGradient xlink:href="#pref_14linearGradient3674" id="pref_14radialGradient3506-6" cx="4.109375" cy="-8.0938129" fx="4.109375" fy="-8.0938129" r="4.3564248" gradientTransform="matrix(1.1330715,0.01077876,-0.01098402,1.1546483,-0.63574335,1.2074004)" gradientUnits="userSpaceOnUse"/>
    <linearGradient xlink:href="#pref_14linearGradient3692" id="pref_14linearGradient6924" gradientUnits="userSpaceOnUse" x1="1.4987922" y1="4.3924975" x2="-1.0811033" y2="-3.0084407"/>
    <linearGradient id="pref_14linearGradient3692">
      <stop style="stop-color:#e4e4e4;stop-opacity:1" offset="0" id="pref_14stop6926"/>
      <stop style="stop-color:#e5e5e5;stop-opacity:1" offset="0.1656336" id="pref_14stop6928"/>
      <stop style="stop-color:#f5f5f5;stop-opacity:1" offset="0.29162589" id="pref_14stop6930"/>
      <stop style="stop-color:#c6c6c6;stop-opacity:1;" offset="0.38067153" id="pref_14stop6932"/>
      <stop style="stop-color:#dddddd;stop-opacity:1" offset="0.57577699" id="pref_14stop6934"/>
      <stop style="stop-color:#f2f2f2;stop-opacity:1" offset="0.66836077" id="pref_14stop6936"/>
      <stop style="stop-color:#ebebeb;stop-opacity:1" offset="0.79280978" id="pref_14stop6938"/>
      <stop style="stop-color:#efefef;stop-opacity:1" offset="1" id="pref_14stop6940"/>
    </linearGradient>
  </defs>
  <circle style="fill:url(#pref_14linearGradient6924);fill-opacity:1;stroke:#cecece;stroke-width:0.05;stroke-miterlimit:4;stroke-dasharray:none;stroke-opacity:1" id="pref_14path6642" cx="0.75" cy="0.75" r="3.5"/>
  <g xmlns:sodipodi="http://sodipodi.sourceforge.net/DTD/sodipodi-0.dtd" id="pref_14g5432-9" transform="rotate(16.945707,0.75000009,0.75000001)">
    <path sodipodi:type="star" style="opacity:1;fill:url(#pref_14linearGradient1902-1);fill-opacity:1;stroke:url(#pref_14linearGradient2887-3);stroke-width:0.0984229;stroke-linecap:round;stroke-linejoin:round;stroke-miterlimit:4;stroke-dasharray:none" id="pref_14path1634-2" sodipodi:sides="6" sodipodi:cx="4.109375" sodipodi:cy="-8.0938129" sodipodi:r1="5.0303659" sodipodi:r2="4.3564248" sodipodi:arg1="0.52359878" sodipodi:arg2="1.0471976" transform="matrix(0.47378978,0.39955401,-0.39955401,0.47378978,-4.4308952,2.9428486)" d="m 8.4657997,-5.57863 -4.3564247,2.515183 -4.35642471,-2.515183 2e-8,-5.030366 4.35642469,-2.515183 4.3564247,2.515183 z"/>
    <path sodipodi:type="star" style="opacity:1;fill:url(#pref_14radialGradient3506-6);fill-opacity:1;stroke:none;stroke-width:0.0984229;stroke-linecap:round;stroke-linejoin:round;stroke-miterlimit:4;stroke-dasharray:none" id="pref_14path1634-9-0" sodipodi:sides="6" sodipodi:cx="4.109375" sodipodi:cy="-8.0938129" sodipodi:r1="5.0303659" sodipodi:r2="4.3564248" sodipodi:arg1="0.52359878" sodipodi:arg2="1.0471976" transform="matrix(0.47378978,0.39955401,-0.39955401,0.47378978,-4.4308952,2.9428486)" d="m 8.4657997,-5.57863 -4.3564247,2.515183 -4.35642471,-2.515183 2e-8,-5.030366 4.35642469,-2.515183 4.3564247,2.515183 z"/>
  </g>
  <g xmlns:sodipodi="http://sodipodi.sourceforge.net/DTD/sodipodi-0.dtd" id="pref_14g5432">
    <path sodipodi:type="star" style="opacity:1;fill:url(#pref_14linearGradient1902);fill-opacity:1;stroke:url(#pref_14linearGradient2887);stroke-width:0.0984229;stroke-linecap:round;stroke-linejoin:round;stroke-miterlimit:4;stroke-dasharray:none" id="pref_14path1634" sodipodi:sides="6" sodipodi:cx="4.109375" sodipodi:cy="-8.0938129" sodipodi:r1="5.0303659" sodipodi:r2="4.3564248" sodipodi:arg1="0.52359878" sodipodi:arg2="1.0471976" d="m 8.4657997,-5.57863 -4.3564247,2.515183 -4.35642471,-2.515183 2e-8,-5.030366 4.35642469,-2.515183 4.3564247,2.515183 z" transform="matrix(0.47378978,0.39955401,-0.39955401,0.47378978,-4.4308952,2.9428486)"/>
    <path sodipodi:type="star" style="opacity:1;fill:url(#pref_14radialGradient3506);fill-opacity:1;stroke:none;stroke-width:0.0984229;stroke-linecap:round;stroke-linejoin:round;stroke-miterlimit:4;stroke-dasharray:none" id="pref_14path1634-9" sodipodi:sides="6" sodipodi:cx="4.109375" sodipodi:cy="-8.0938129" sodipodi:r1="5.0303659" sodipodi:r2="4.3564248" sodipodi:arg1="0.52359878" sodipodi:arg2="1.0471976" transform="matrix(0.47378978,0.39955401,-0.39955401,0.47378978,-4.4308952,2.9428486)" d="m 8.4657997,-5.57863 -4.3564247,2.515183 -4.35642471,-2.515183 2e-8,-5.030366 4.35642469,-2.515183 4.3564247,2.515183 z"/>
  </g>
  <circle style="opacity:1;fill:url(#pref_14radialGradient1176);fill-opacity:1;stroke-width:0.0202753;stroke:#848484;stroke-opacity:1" id="pref_14path1030" cx="0.75" cy="0.75" r="1.5"/>
</g></g><!--Mlab_Mechanical:MountingHole_3mm.back:M4--><g transform="translate(142.24 111.76) scale(1.0, 1.0) rotate(-0.0) translate(-0.75 -0.75)"><g id="pref_12_Mlab_Mechanical__MountingHole_3mmback_HOLE"><defs xmlns:xlink="http://www.w3.org/1999/xlink" id="pref_15defs13">
    <linearGradient id="pref_15linearGradient3674">
      <stop style="stop-color:#2b2b2b;stop-opacity:1" offset="0" id="pref_15stop3666"/>
      <stop style="stop-color:#5e5e5e;stop-opacity:0.78431374" offset="0.48605427" id="pref_15stop4288"/>
      <stop style="stop-color:#838383;stop-opacity:0" offset="0.53796667" id="pref_15stop3668"/>
      <stop style="stop-color:#dcdcdc;stop-opacity:0" offset="0.76845002" id="pref_15stop3670"/>
      <stop style="stop-color:#e4e4e4;stop-opacity:0.88235301" offset="1" id="pref_15stop3672"/>
    </linearGradient>
    <linearGradient id="pref_15linearGradient2885">
      <stop style="stop-color:#8f8f8f;stop-opacity:1" offset="0" id="pref_15stop2881"/>
      <stop style="stop-color:#e5e5e5;stop-opacity:1" offset="1" id="pref_15stop2883"/>
    </linearGradient>
    <linearGradient id="pref_15linearGradient1894">
      <stop style="stop-color:#b2b2b2;stop-opacity:1" offset="0" id="pref_15stop1890"/>
      <stop style="stop-color:#838383;stop-opacity:1" offset="0.3359659" id="pref_15stop2785"/>
      <stop style="stop-color:#dcdcdc;stop-opacity:1" offset="0.76141548" id="pref_15stop2655"/>
      <stop style="stop-color:#bebebe;stop-opacity:1" offset="1" id="pref_15stop1892"/>
    </linearGradient>
    <linearGradient id="pref_15linearGradient3692-7">
      <stop style="stop-color:#d3d3d3;stop-opacity:1;" offset="0" id="pref_15stop3688"/>
      <stop style="stop-color:#b2b2b2;stop-opacity:1" offset="0.81006318" id="pref_15stop5318"/>
      <stop style="stop-color:#c8c8c8;stop-opacity:1" offset="0.87439835" id="pref_15stop4242"/>
      <stop style="stop-color:#b8b8b8;stop-opacity:1;" offset="0.94349736" id="pref_15stop4310"/>
      <stop style="stop-color:#aeaeae;stop-opacity:1" offset="1" id="pref_15stop3690"/>
    </linearGradient>
    <radialGradient xlink:href="#pref_15linearGradient3692-7" id="pref_15radialGradient1176" cx="0.75" cy="0.75" fx="0.75" fy="0.75" r="1.5" gradientUnits="userSpaceOnUse"/>
    <linearGradient xlink:href="#pref_15linearGradient1894" id="pref_15linearGradient1902" x1="-0.24704969" y1="-10.608996" x2="8.4657993" y2="-5.57863" gradientUnits="userSpaceOnUse"/>
    <linearGradient xlink:href="#pref_15linearGradient2885" id="pref_15linearGradient2887" x1="-0.24704971" y1="-8.0938129" x2="8.4657997" y2="-8.0938129" gradientUnits="userSpaceOnUse"/>
    <radialGradient xlink:href="#pref_15linearGradient3674" id="pref_15radialGradient3506" cx="4.109375" cy="-8.0938129" fx="4.109375" fy="-8.0938129" r="4.3564248" gradientTransform="matrix(1.1330715,0.01077876,-0.01098402,1.1546483,-0.63574335,1.2074004)" gradientUnits="userSpaceOnUse"/>
    <linearGradient xlink:href="#pref_15linearGradient1894" id="pref_15linearGradient1902-1" x1="-0.24704969" y1="-10.608996" x2="8.4657993" y2="-5.57863" gradientUnits="userSpaceOnUse"/>
    <linearGradient xlink:href="#pref_15linearGradient2885" id="pref_15linearGradient2887-3" x1="-0.2470497" y1="-8.0938129" x2="8.4657993" y2="-8.0938129" gradientUnits="userSpaceOnUse"/>
    <radialGradient xlink:href="#pref_15linearGradient3674" id="pref_15radialGradient3506-6" cx="4.109375" cy="-8.0938129" fx="4.109375" fy="-8.0938129" r="4.3564248" gradientTransform="matrix(1.1330715,0.01077876,-0.01098402,1.1546483,-0.63574335,1.2074004)" gradientUnits="userSpaceOnUse"/>
    <linearGradient xlink:href="#pref_15linearGradient3692" id="pref_15linearGradient6924" gradientUnits="userSpaceOnUse" x1="1.4987922" y1="4.3924975" x2="-1.0811033" y2="-3.0084407"/>
    <linearGradient id="pref_15linearGradient3692">
      <stop style="stop-color:#e4e4e4;stop-opacity:1" offset="0" id="pref_15stop6926"/>
      <stop style="stop-color:#e5e5e5;stop-opacity:1" offset="0.1656336" id="pref_15stop6928"/>
      <stop style="stop-color:#f5f5f5;stop-opacity:1" offset="0.29162589" id="pref_15stop6930"/>
      <stop style="stop-color:#c6c6c6;stop-opacity:1;" offset="0.38067153" id="pref_15stop6932"/>
      <stop style="stop-color:#dddddd;stop-opacity:1" offset="0.57577699" id="pref_15stop6934"/>
      <stop style="stop-color:#f2f2f2;stop-opacity:1" offset="0.66836077" id="pref_15stop6936"/>
      <stop style="stop-color:#ebebeb;stop-opacity:1" offset="0.79280978" id="pref_15stop6938"/>
      <stop style="stop-color:#efefef;stop-opacity:1" offset="1" id="pref_15stop6940"/>
    </linearGradient>
  </defs>
  <circle style="fill:url(#pref_15linearGradient6924);fill-opacity:1;stroke:#cecece;stroke-width:0.05;stroke-miterlimit:4;stroke-dasharray:none;stroke-opacity:1" id="pref_15path6642" cx="0.75" cy="0.75" r="3.5"/>
  <g xmlns:sodipodi="http://sodipodi.sourceforge.net/DTD/sodipodi-0.dtd" id="pref_15g5432-9" transform="rotate(16.945707,0.75000009,0.75000001)">
    <path sodipodi:type="star" style="opacity:1;fill:url(#pref_15linearGradient1902-1);fill-opacity:1;stroke:url(#pref_15linearGradient2887-3);stroke-width:0.0984229;stroke-linecap:round;stroke-linejoin:round;stroke-miterlimit:4;stroke-dasharray:none" id="pref_15path1634-2" sodipodi:sides="6" sodipodi:cx="4.109375" sodipodi:cy="-8.0938129" sodipodi:r1="5.0303659" sodipodi:r2="4.3564248" sodipodi:arg1="0.52359878" sodipodi:arg2="1.0471976" transform="matrix(0.47378978,0.39955401,-0.39955401,0.47378978,-4.4308952,2.9428486)" d="m 8.4657997,-5.57863 -4.3564247,2.515183 -4.35642471,-2.515183 2e-8,-5.030366 4.35642469,-2.515183 4.3564247,2.515183 z"/>
    <path sodipodi:type="star" style="opacity:1;fill:url(#pref_15radialGradient3506-6);fill-opacity:1;stroke:none;stroke-width:0.0984229;stroke-linecap:round;stroke-linejoin:round;stroke-miterlimit:4;stroke-dasharray:none" id="pref_15path1634-9-0" sodipodi:sides="6" sodipodi:cx="4.109375" sodipodi:cy="-8.0938129" sodipodi:r1="5.0303659" sodipodi:r2="4.3564248" sodipodi:arg1="0.52359878" sodipodi:arg2="1.0471976" transform="matrix(0.47378978,0.39955401,-0.39955401,0.47378978,-4.4308952,2.9428486)" d="m 8.4657997,-5.57863 -4.3564247,2.515183 -4.35642471,-2.515183 2e-8,-5.030366 4.35642469,-2.515183 4.3564247,2.515183 z"/>
  </g>
  <g xmlns:sodipodi="http://sodipodi.sourceforge.net/DTD/sodipodi-0.dtd" id="pref_15g5432">
    <path sodipodi:type="star" style="opacity:1;fill:url(#pref_15linearGradient1902);fill-opacity:1;stroke:url(#pref_15linearGradient2887);stroke-width:0.0984229;stroke-linecap:round;stroke-linejoin:round;stroke-miterlimit:4;stroke-dasharray:none" id="pref_15path1634" sodipodi:sides="6" sodipodi:cx="4.109375" sodipodi:cy="-8.0938129" sodipodi:r1="5.0303659" sodipodi:r2="4.3564248" sodipodi:arg1="0.52359878" sodipodi:arg2="1.0471976" d="m 8.4657997,-5.57863 -4.3564247,2.515183 -4.35642471,-2.515183 2e-8,-5.030366 4.35642469,-2.515183 4.3564247,2.515183 z" transform="matrix(0.47378978,0.39955401,-0.39955401,0.47378978,-4.4308952,2.9428486)"/>
    <path sodipodi:type="star" style="opacity:1;fill:url(#pref_15radialGradient3506);fill-opacity:1;stroke:none;stroke-width:0.0984229;stroke-linecap:round;stroke-linejoin:round;stroke-miterlimit:4;stroke-dasharray:none" id="pref_15path1634-9" sodipodi:sides="6" sodipodi:cx="4.109375" sodipodi:cy="-8.0938129" sodipodi:r1="5.0303659" sodipodi:r2="4.3564248" sodipodi:arg1="0.52359878" sodipodi:arg2="1.0471976" transform="matrix(0.47378978,0.39955401,-0.39955401,0.47378978,-4.4308952,2.9428486)" d="m 8.4657997,-5.57863 -4.3564247,2.515183 -4.35642471,-2.515183 2e-8,-5.030366 4.35642469,-2.515183 4.3564247,2.515183 z"/>
  </g>
  <circle style="opacity:1;fill:url(#pref_15radialGradient1176);fill-opacity:1;stroke-width:0.0202753;stroke:#848484;stroke-opacity:1" id="pref_15path1030" cx="0.75" cy="0.75" r="1.5"/>
</g></g><!--Mlab_Mechanical:MountingHole_3mm.back:M3--><g transform="translate(111.76 111.76) scale(1.0, 1.0) rotate(-0.0) translate(-0.75 -0.75)"><use xmlns:xlink="http://www.w3.org/1999/xlink" xlink:href="#pref_12_Mlab_Mechanical__MountingHole_3mmback_HOLE"/></g><!--Mlab_Mechanical:MountingHole_3mm.back:M1--><g transform="translate(142.24 81.28) scale(1.0, 1.0) rotate(-0.0) translate(-0.75 -0.75)"><use xmlns:xlink="http://www.w3.org/1999/xlink" xlink:href="#pref_12_Mlab_Mechanical__MountingHole_3mmback_HOLEM3"/></g></g></svg>