<!DOCTYPE svg PUBLIC "-//W3C//DTD SVG 1.1//EN" "http://www.w3.org/Graphics/SVG/1.1/DTD/svg11.dtd">
<svg xmlns="http://www.w3.org/2000/svg" version="1.1" width="50.1447mm" height="50.1447mm" viewBox="-1520723.5 714476.5 501447.0 501447.0">
            <title>Picture generated by PcbDraw </title>
            <desc>Picture generated by PcbDraw</desc>
        <defs><clipPath id="cut-off"><path d=" M 1117600.000000 1117600.000000 m-16666.660000 0 a 16666.660000 16666.660000 0 1 0 33333.32 0 a 16666.660000 16666.660000 0 1 0 -33333.32 0  M 1117600.000000 1117600.000000 m-16666.660000 0 a 16666.660000 16666.660000 0 1 0 33333.32 0 a 16666.660000 16666.660000 0 1 0 -33333.32 0  M 1117600.000000 1117600.000000 m-16666.660000 0 a 16666.660000 16666.660000 0 1 0 33333.32 0 a 16666.660000 16666.660000 0 1 0 -33333.32 0  M 1470660.0 764540.0 L 1069340.0 764540.0 L 1069340.0 1165860.0 L 1470660.0 1165860.0 L 1470660.0 764540.0  M 1092600.0 1117600.0 L 1142600.0 1117600.0 L 1092600.0 1117600.0 L 1142600.0 1117600.0  M 1117600.0 1092600.0 L 1117600.0 1142600.0 L 1117600.0 1092600.0 L 1117600.0 1142600.0 " style="fill-rule: evenodd;"/></clipPath><mask id="pads-mask"><g style="fill:#ffffff; fill-opacity:0.0;  stroke:#ffffff; stroke-width:0.000000; stroke-opacity:1;  stroke-linecap:round; stroke-linejoin:round;">
<g style="fill:#ffffff; fill-opacity:1.0;  stroke:#ffffff; stroke-width:0.010000; stroke-opacity:1;  stroke-linecap:round; stroke-linejoin:round;">
<circle cx="1117600.000000" cy="812800.000000" r="30000.000000"/> 
</g>
<g style="fill:#ffffff; fill-opacity:1.0;  stroke:#ffffff; stroke-width:0.010000; stroke-opacity:1;  stroke-linecap:round; stroke-linejoin:round;">
<circle cx="1422400.000000" cy="1117600.000000" r="30000.000000"/> 
</g>
<g style="fill:#ffffff; fill-opacity:1.0;  stroke:#ffffff; stroke-width:0.010000; stroke-opacity:1;  stroke-linecap:round; stroke-linejoin:round;">
<circle cx="1117600.000000" cy="1117600.000000" r="30000.000000"/> 
</g>
<g style="fill:#ffffff; fill-opacity:1.0;  stroke:#ffffff; stroke-width:0.010000; stroke-opacity:1;  stroke-linecap:round; stroke-linejoin:round;">
<circle cx="1422400.000000" cy="812800.000000" r="30000.000000"/> 
</g>
<g style="fill:#ffffff; fill-opacity:1.0;  stroke:#ffffff; stroke-width:0.010000; stroke-opacity:1;  stroke-linecap:round; stroke-linejoin:round;">
<path style="fill:#ffffff; fill-opacity:1.0;  stroke:#ffffff; stroke-width:0.010000; stroke-opacity:1;  stroke-linecap:round; stroke-linejoin:round;fill-rule:evenodd;" d="M 1170940.000000,894080.000000 1170940.000000,878840.000000 1186180.000000,878840.000000 1186180.000000,894080.000000 Z"/> 
<path style="fill:#ffffff; fill-opacity:1.0;  stroke:#ffffff; stroke-width:0.010000; stroke-opacity:1;  stroke-linecap:round; stroke-linejoin:round;fill-rule:evenodd;" d="M 1196340.000000,894080.000000 1196340.000000,878840.000000 1211580.000000,878840.000000 1211580.000000,894080.000000 Z"/> 
<path style="fill:#ffffff; fill-opacity:1.0;  stroke:#ffffff; stroke-width:0.010000; stroke-opacity:1;  stroke-linecap:round; stroke-linejoin:round;fill-rule:evenodd;" d="M 1170940.000000,919480.000000 1170940.000000,904240.000000 1186180.000000,904240.000000 1186180.000000,919480.000000 Z"/> 
<path style="fill:#ffffff; fill-opacity:1.0;  stroke:#ffffff; stroke-width:0.010000; stroke-opacity:1;  stroke-linecap:round; stroke-linejoin:round;fill-rule:evenodd;" d="M 1196340.000000,919480.000000 1196340.000000,904240.000000 1211580.000000,904240.000000 1211580.000000,919480.000000 Z"/> 
<path style="fill:#ffffff; fill-opacity:1.0;  stroke:#ffffff; stroke-width:0.010000; stroke-opacity:1;  stroke-linecap:round; stroke-linejoin:round;fill-rule:evenodd;" d="M 1170940.000000,944880.000000 1170940.000000,929640.000000 1186180.000000,929640.000000 1186180.000000,944880.000000 Z"/> 
<path style="fill:#ffffff; fill-opacity:1.0;  stroke:#ffffff; stroke-width:0.010000; stroke-opacity:1;  stroke-linecap:round; stroke-linejoin:round;fill-rule:evenodd;" d="M 1196340.000000,944880.000000 1196340.000000,929640.000000 1211580.000000,929640.000000 1211580.000000,944880.000000 Z"/> 
<path style="fill:#ffffff; fill-opacity:1.0;  stroke:#ffffff; stroke-width:0.010000; stroke-opacity:1;  stroke-linecap:round; stroke-linejoin:round;fill-rule:evenodd;" d="M 1170940.000000,970280.000000 1170940.000000,955040.000000 1186180.000000,955040.000000 1186180.000000,970280.000000 Z"/> 
<path style="fill:#ffffff; fill-opacity:1.0;  stroke:#ffffff; stroke-width:0.010000; stroke-opacity:1;  stroke-linecap:round; stroke-linejoin:round;fill-rule:evenodd;" d="M 1196340.000000,970280.000000 1196340.000000,955040.000000 1211580.000000,955040.000000 1211580.000000,970280.000000 Z"/> 
<path style="fill:#ffffff; fill-opacity:1.0;  stroke:#ffffff; stroke-width:0.010000; stroke-opacity:1;  stroke-linecap:round; stroke-linejoin:round;fill-rule:evenodd;" d="M 1170940.000000,995680.000000 1170940.000000,980440.000000 1186180.000000,980440.000000 1186180.000000,995680.000000 Z"/> 
<path style="fill:#ffffff; fill-opacity:1.0;  stroke:#ffffff; stroke-width:0.010000; stroke-opacity:1;  stroke-linecap:round; stroke-linejoin:round;fill-rule:evenodd;" d="M 1196340.000000,995680.000000 1196340.000000,980440.000000 1211580.000000,980440.000000 1211580.000000,995680.000000 Z"/> 
</g>
</g> 
</mask><mask id="pads-mask-silkscreen"><rect x="1069276.5" y="764476.5" width="401447.0" height="401447.0" fill="white"/><g style="fill:#000000; fill-opacity:0.0;  stroke:#000000; stroke-width:0.000000; stroke-opacity:1;  stroke-linecap:round; stroke-linejoin:round;">
<g style="fill:#000000; fill-opacity:1.0;  stroke:#000000; stroke-width:0.010000; stroke-opacity:1;  stroke-linecap:round; stroke-linejoin:round;">
<circle cx="1117600.000000" cy="812800.000000" r="30000.000000"/> 
</g>
<g style="fill:#000000; fill-opacity:1.0;  stroke:#000000; stroke-width:0.010000; stroke-opacity:1;  stroke-linecap:round; stroke-linejoin:round;">
<circle cx="1422400.000000" cy="1117600.000000" r="30000.000000"/> 
</g>
<g style="fill:#000000; fill-opacity:1.0;  stroke:#000000; stroke-width:0.010000; stroke-opacity:1;  stroke-linecap:round; stroke-linejoin:round;">
<circle cx="1117600.000000" cy="1117600.000000" r="30000.000000"/> 
</g>
<g style="fill:#000000; fill-opacity:1.0;  stroke:#000000; stroke-width:0.010000; stroke-opacity:1;  stroke-linecap:round; stroke-linejoin:round;">
<circle cx="1422400.000000" cy="812800.000000" r="30000.000000"/> 
</g>
<g style="fill:#000000; fill-opacity:1.0;  stroke:#000000; stroke-width:0.010000; stroke-opacity:1;  stroke-linecap:round; stroke-linejoin:round;">
<path style="fill:#000000; fill-opacity:1.0;  stroke:#000000; stroke-width:0.010000; stroke-opacity:1;  stroke-linecap:round; stroke-linejoin:round;fill-rule:evenodd;" d="M 1170940.000000,894080.000000 1170940.000000,878840.000000 1186180.000000,878840.000000 1186180.000000,894080.000000 Z"/> 
<path style="fill:#000000; fill-opacity:1.0;  stroke:#000000; stroke-width:0.010000; stroke-opacity:1;  stroke-linecap:round; stroke-linejoin:round;fill-rule:evenodd;" d="M 1196340.000000,894080.000000 1196340.000000,878840.000000 1211580.000000,878840.000000 1211580.000000,894080.000000 Z"/> 
<path style="fill:#000000; fill-opacity:1.0;  stroke:#000000; stroke-width:0.010000; stroke-opacity:1;  stroke-linecap:round; stroke-linejoin:round;fill-rule:evenodd;" d="M 1170940.000000,919480.000000 1170940.000000,904240.000000 1186180.000000,904240.000000 1186180.000000,919480.000000 Z"/> 
<path style="fill:#000000; fill-opacity:1.0;  stroke:#000000; stroke-width:0.010000; stroke-opacity:1;  stroke-linecap:round; stroke-linejoin:round;fill-rule:evenodd;" d="M 1196340.000000,919480.000000 1196340.000000,904240.000000 1211580.000000,904240.000000 1211580.000000,919480.000000 Z"/> 
<path style="fill:#000000; fill-opacity:1.0;  stroke:#000000; stroke-width:0.010000; stroke-opacity:1;  stroke-linecap:round; stroke-linejoin:round;fill-rule:evenodd;" d="M 1170940.000000,944880.000000 1170940.000000,929640.000000 1186180.000000,929640.000000 1186180.000000,944880.000000 Z"/> 
<path style="fill:#000000; fill-opacity:1.0;  stroke:#000000; stroke-width:0.010000; stroke-opacity:1;  stroke-linecap:round; stroke-linejoin:round;fill-rule:evenodd;" d="M 1196340.000000,944880.000000 1196340.000000,929640.000000 1211580.000000,929640.000000 1211580.000000,944880.000000 Z"/> 
<path style="fill:#000000; fill-opacity:1.0;  stroke:#000000; stroke-width:0.010000; stroke-opacity:1;  stroke-linecap:round; stroke-linejoin:round;fill-rule:evenodd;" d="M 1170940.000000,970280.000000 1170940.000000,955040.000000 1186180.000000,955040.000000 1186180.000000,970280.000000 Z"/> 
<path style="fill:#000000; fill-opacity:1.0;  stroke:#000000; stroke-width:0.010000; stroke-opacity:1;  stroke-linecap:round; stroke-linejoin:round;fill-rule:evenodd;" d="M 1196340.000000,970280.000000 1196340.000000,955040.000000 1211580.000000,955040.000000 1211580.000000,970280.000000 Z"/> 
<path style="fill:#000000; fill-opacity:1.0;  stroke:#000000; stroke-width:0.010000; stroke-opacity:1;  stroke-linecap:round; stroke-linejoin:round;fill-rule:evenodd;" d="M 1170940.000000,995680.000000 1170940.000000,980440.000000 1186180.000000,980440.000000 1186180.000000,995680.000000 Z"/> 
<path style="fill:#000000; fill-opacity:1.0;  stroke:#000000; stroke-width:0.010000; stroke-opacity:1;  stroke-linecap:round; stroke-linejoin:round;fill-rule:evenodd;" d="M 1196340.000000,995680.000000 1196340.000000,980440.000000 1211580.000000,980440.000000 1211580.000000,995680.000000 Z"/> 
</g>
</g> 
</mask><mask id="hole-mask"><g><rect x="1069276.5" y="764476.5" fill="white" width="401447.0" height="401447.0"/><polyline stroke-linecap="round" stroke="black" stroke-width="30000.0" points="-0.0 0 0.0 0" transform="translate(1117600.0 812800.0) rotate(-0.0)"/><polyline stroke-linecap="round" stroke="black" stroke-width="30000.0" points="-0.0 0 0.0 0" transform="translate(1422400.0 1117600.0) rotate(-0.0)"/><polyline stroke-linecap="round" stroke="black" stroke-width="30000.0" points="-0.0 0 0.0 0" transform="translate(1117600.0 1117600.0) rotate(-0.0)"/><polyline stroke-linecap="round" stroke="black" stroke-width="30000.0" points="-0.0 0 0.0 0" transform="translate(1422400.0 812800.0) rotate(-0.0)"/><polyline stroke-linecap="round" stroke="black" stroke-width="8890.0" points="-0.0 0 0.0 0" transform="translate(1178560.0 886460.0) rotate(-0.0)"/><polyline stroke-linecap="round" stroke="black" stroke-width="8890.0" points="-0.0 0 0.0 0" transform="translate(1203960.0 886460.0) rotate(-0.0)"/><polyline stroke-linecap="round" stroke="black" stroke-width="8890.0" points="-0.0 0 0.0 0" transform="translate(1178560.0 911860.0) rotate(-0.0)"/><polyline stroke-linecap="round" stroke="black" stroke-width="8890.0" points="-0.0 0 0.0 0" transform="translate(1203960.0 911860.0) rotate(-0.0)"/><polyline stroke-linecap="round" stroke="black" stroke-width="8890.0" points="-0.0 0 0.0 0" transform="translate(1178560.0 937260.0) rotate(-0.0)"/><polyline stroke-linecap="round" stroke="black" stroke-width="8890.0" points="-0.0 0 0.0 0" transform="translate(1203960.0 937260.0) rotate(-0.0)"/><polyline stroke-linecap="round" stroke="black" stroke-width="8890.0" points="-0.0 0 0.0 0" transform="translate(1178560.0 962660.0) rotate(-0.0)"/><polyline stroke-linecap="round" stroke="black" stroke-width="8890.0" points="-0.0 0 0.0 0" transform="translate(1203960.0 962660.0) rotate(-0.0)"/><polyline stroke-linecap="round" stroke="black" stroke-width="8890.0" points="-0.0 0 0.0 0" transform="translate(1178560.0 988060.0) rotate(-0.0)"/><polyline stroke-linecap="round" stroke="black" stroke-width="8890.0" points="-0.0 0 0.0 0" transform="translate(1203960.0 988060.0) rotate(-0.0)"/></g></mask></defs><g transform="scale(-1,1)" id="boardContainer"><g id="substrate" clip-path="url(#cut-off)" mask="url(#hole-mask)"><g id="substrate-board" style="fill:#f1f4f3; stroke:#f1f4f3;"><path d=" M 1117600.000000 1117600.000000 m-16666.660000 0 a 16666.660000 16666.660000 0 1 0 33333.32 0 a 16666.660000 16666.660000 0 1 0 -33333.32 0  M 1117600.000000 1117600.000000 m-16666.660000 0 a 16666.660000 16666.660000 0 1 0 33333.32 0 a 16666.660000 16666.660000 0 1 0 -33333.32 0  M 1117600.000000 1117600.000000 m-16666.660000 0 a 16666.660000 16666.660000 0 1 0 33333.32 0 a 16666.660000 16666.660000 0 1 0 -33333.32 0  M 1470660.0 764540.0 L 1069340.0 764540.0 L 1069340.0 1165860.0 L 1470660.0 1165860.0 L 1470660.0 764540.0  M 1092600.0 1117600.0 L 1142600.0 1117600.0 L 1092600.0 1117600.0 L 1142600.0 1117600.0  M 1117600.0 1092600.0 L 1117600.0 1142600.0 L 1117600.0 1092600.0 L 1117600.0 1142600.0 " style="fill-rule: evenodd;"/><g style="fill-opacity: 0.0;stroke-width: 127.000000;stroke-opacity: 1;stroke-linecap: round;stroke-linejoin: round">
<path d="M1470660 1165860 L1470660 764540 "/>
<path d="M1069340 764540 L1069340 1165860 "/>
<path d="M1069340 1165860 L1470660 1165860 "/>
<path d="M1470660 764540 L1069340 764540 "/>
<circle cx="1117600.000000" cy="1117600.000000" r="16666.660000"/> 
<path d="M1092600 1117600 L1142600 1117600 "/>
<path d="M1117600 1092600 L1117600 1142600 "/>
<circle cx="1117600.000000" cy="1117600.000000" r="16666.660000"/> 
<path d="M1092600 1117600 L1142600 1117600 "/>
<path d="M1117600 1092600 L1117600 1142600 "/>
<circle cx="1117600.000000" cy="1117600.000000" r="16666.660000"/> 
<path d="M1092600 1117600 L1142600 1117600 "/>
<path d="M1117600 1092600 L1117600 1142600 "/>
</g> 
</g><g id="substrate-clad" style="fill:#72786c; stroke:#72786c;"><g style="fill-opacity: 0.0;stroke-width: 0.000000;stroke-opacity: 1;stroke-linecap: round;stroke-linejoin: round">
<g style="fill-opacity: 1.0;stroke-width: 0.010000;stroke-opacity: 1;stroke-linecap: round;stroke-linejoin: round">
<circle cx="1117600.000000" cy="812800.000000" r="30000.000000"/> 
</g>
<g style="fill-opacity: 1.0;stroke-width: 0.010000;stroke-opacity: 1;stroke-linecap: round;stroke-linejoin: round">
<circle cx="1422400.000000" cy="1117600.000000" r="30000.000000"/> 
</g>
<g style="fill-opacity: 1.0;stroke-width: 0.010000;stroke-opacity: 1;stroke-linecap: round;stroke-linejoin: round">
<circle cx="1117600.000000" cy="1117600.000000" r="30000.000000"/> 
</g>
<g style="fill-opacity: 1.0;stroke-width: 0.010000;stroke-opacity: 1;stroke-linecap: round;stroke-linejoin: round">
<circle cx="1422400.000000" cy="812800.000000" r="30000.000000"/> 
</g>
<g style="fill-opacity: 1.0;stroke-width: 0.010000;stroke-opacity: 1;stroke-linecap: round;stroke-linejoin: round">
<path style="fill-opacity: 1.0;stroke-width: 0.010000;stroke-opacity: 1;stroke-linecap: round;stroke-linejoin: round;fill-rule: evenodd" d="M 1170940.000000,894080.000000 1170940.000000,878840.000000 1186180.000000,878840.000000 1186180.000000,894080.000000 Z"/> 
<path style="fill-opacity: 1.0;stroke-width: 0.010000;stroke-opacity: 1;stroke-linecap: round;stroke-linejoin: round;fill-rule: evenodd" d="M 1196340.000000,894080.000000 1196340.000000,878840.000000 1211580.000000,878840.000000 1211580.000000,894080.000000 Z"/> 
<path style="fill-opacity: 1.0;stroke-width: 0.010000;stroke-opacity: 1;stroke-linecap: round;stroke-linejoin: round;fill-rule: evenodd" d="M 1170940.000000,919480.000000 1170940.000000,904240.000000 1186180.000000,904240.000000 1186180.000000,919480.000000 Z"/> 
<path style="fill-opacity: 1.0;stroke-width: 0.010000;stroke-opacity: 1;stroke-linecap: round;stroke-linejoin: round;fill-rule: evenodd" d="M 1196340.000000,919480.000000 1196340.000000,904240.000000 1211580.000000,904240.000000 1211580.000000,919480.000000 Z"/> 
<path style="fill-opacity: 1.0;stroke-width: 0.010000;stroke-opacity: 1;stroke-linecap: round;stroke-linejoin: round;fill-rule: evenodd" d="M 1170940.000000,944880.000000 1170940.000000,929640.000000 1186180.000000,929640.000000 1186180.000000,944880.000000 Z"/> 
<path style="fill-opacity: 1.0;stroke-width: 0.010000;stroke-opacity: 1;stroke-linecap: round;stroke-linejoin: round;fill-rule: evenodd" d="M 1196340.000000,944880.000000 1196340.000000,929640.000000 1211580.000000,929640.000000 1211580.000000,944880.000000 Z"/> 
<path style="fill-opacity: 1.0;stroke-width: 0.010000;stroke-opacity: 1;stroke-linecap: round;stroke-linejoin: round;fill-rule: evenodd" d="M 1170940.000000,970280.000000 1170940.000000,955040.000000 1186180.000000,955040.000000 1186180.000000,970280.000000 Z"/> 
<path style="fill-opacity: 1.0;stroke-width: 0.010000;stroke-opacity: 1;stroke-linecap: round;stroke-linejoin: round;fill-rule: evenodd" d="M 1196340.000000,970280.000000 1196340.000000,955040.000000 1211580.000000,955040.000000 1211580.000000,970280.000000 Z"/> 
<path style="fill-opacity: 1.0;stroke-width: 0.010000;stroke-opacity: 1;stroke-linecap: round;stroke-linejoin: round;fill-rule: evenodd" d="M 1170940.000000,995680.000000 1170940.000000,980440.000000 1186180.000000,980440.000000 1186180.000000,995680.000000 Z"/> 
<path style="fill-opacity: 1.0;stroke-width: 0.010000;stroke-opacity: 1;stroke-linecap: round;stroke-linejoin: round;fill-rule: evenodd" d="M 1196340.000000,995680.000000 1196340.000000,980440.000000 1211580.000000,980440.000000 1211580.000000,995680.000000 Z"/> 
</g>
</g> 
</g><g id="substrate-copper" style="fill:#f8f8f7; stroke:#f8f8f7;"><g style="fill-opacity: 0.0;stroke-width: 0.000000;stroke-opacity: 1;stroke-linecap: round;stroke-linejoin: round">
<g style="fill-opacity: 1.0;stroke-width: 0.010000;stroke-opacity: 1;stroke-linecap: round;stroke-linejoin: round">
<circle cx="1117600.000000" cy="812800.000000" r="30000.000000"/> 
</g>
<g style="fill-opacity: 1.0;stroke-width: 0.010000;stroke-opacity: 1;stroke-linecap: round;stroke-linejoin: round">
<circle cx="1422400.000000" cy="1117600.000000" r="30000.000000"/> 
</g>
<g style="fill-opacity: 1.0;stroke-width: 0.010000;stroke-opacity: 1;stroke-linecap: round;stroke-linejoin: round">
<circle cx="1117600.000000" cy="1117600.000000" r="30000.000000"/> 
</g>
<g style="fill-opacity: 1.0;stroke-width: 0.010000;stroke-opacity: 1;stroke-linecap: round;stroke-linejoin: round">
<circle cx="1422400.000000" cy="812800.000000" r="30000.000000"/> 
</g>
<g style="fill-opacity: 1.0;stroke-width: 0.010000;stroke-opacity: 1;stroke-linecap: round;stroke-linejoin: round">
<path style="fill-opacity: 1.0;stroke-width: 0.010000;stroke-opacity: 1;stroke-linecap: round;stroke-linejoin: round;fill-rule: evenodd" d="M 1170940.000000,894080.000000 1170940.000000,878840.000000 1186180.000000,878840.000000 1186180.000000,894080.000000 Z"/> 
<path style="fill-opacity: 1.0;stroke-width: 0.010000;stroke-opacity: 1;stroke-linecap: round;stroke-linejoin: round;fill-rule: evenodd" d="M 1196340.000000,894080.000000 1196340.000000,878840.000000 1211580.000000,878840.000000 1211580.000000,894080.000000 Z"/> 
<path style="fill-opacity: 1.0;stroke-width: 0.010000;stroke-opacity: 1;stroke-linecap: round;stroke-linejoin: round;fill-rule: evenodd" d="M 1170940.000000,919480.000000 1170940.000000,904240.000000 1186180.000000,904240.000000 1186180.000000,919480.000000 Z"/> 
<path style="fill-opacity: 1.0;stroke-width: 0.010000;stroke-opacity: 1;stroke-linecap: round;stroke-linejoin: round;fill-rule: evenodd" d="M 1196340.000000,919480.000000 1196340.000000,904240.000000 1211580.000000,904240.000000 1211580.000000,919480.000000 Z"/> 
<path style="fill-opacity: 1.0;stroke-width: 0.010000;stroke-opacity: 1;stroke-linecap: round;stroke-linejoin: round;fill-rule: evenodd" d="M 1170940.000000,944880.000000 1170940.000000,929640.000000 1186180.000000,929640.000000 1186180.000000,944880.000000 Z"/> 
<path style="fill-opacity: 1.0;stroke-width: 0.010000;stroke-opacity: 1;stroke-linecap: round;stroke-linejoin: round;fill-rule: evenodd" d="M 1196340.000000,944880.000000 1196340.000000,929640.000000 1211580.000000,929640.000000 1211580.000000,944880.000000 Z"/> 
<path style="fill-opacity: 1.0;stroke-width: 0.010000;stroke-opacity: 1;stroke-linecap: round;stroke-linejoin: round;fill-rule: evenodd" d="M 1170940.000000,970280.000000 1170940.000000,955040.000000 1186180.000000,955040.000000 1186180.000000,970280.000000 Z"/> 
<path style="fill-opacity: 1.0;stroke-width: 0.010000;stroke-opacity: 1;stroke-linecap: round;stroke-linejoin: round;fill-rule: evenodd" d="M 1196340.000000,970280.000000 1196340.000000,955040.000000 1211580.000000,955040.000000 1211580.000000,970280.000000 Z"/> 
<path style="fill-opacity: 1.0;stroke-width: 0.010000;stroke-opacity: 1;stroke-linecap: round;stroke-linejoin: round;fill-rule: evenodd" d="M 1170940.000000,995680.000000 1170940.000000,980440.000000 1186180.000000,980440.000000 1186180.000000,995680.000000 Z"/> 
<path style="fill-opacity: 1.0;stroke-width: 0.010000;stroke-opacity: 1;stroke-linecap: round;stroke-linejoin: round;fill-rule: evenodd" d="M 1196340.000000,995680.000000 1196340.000000,980440.000000 1211580.000000,980440.000000 1211580.000000,995680.000000 Z"/> 
</g>
</g> 
</g><g id="substrate-pads" style="fill:#c4c1ba; stroke:#c4c1ba;" mask="url(#pads-mask)"><g style="fill-opacity: 0.0;stroke-width: 0.000000;stroke-opacity: 1;stroke-linecap: round;stroke-linejoin: round">
<g style="fill-opacity: 1.0;stroke-width: 0.010000;stroke-opacity: 1;stroke-linecap: round;stroke-linejoin: round">
<circle cx="1117600.000000" cy="812800.000000" r="30000.000000"/> 
</g>
<g style="fill-opacity: 1.0;stroke-width: 0.010000;stroke-opacity: 1;stroke-linecap: round;stroke-linejoin: round">
<circle cx="1422400.000000" cy="1117600.000000" r="30000.000000"/> 
</g>
<g style="fill-opacity: 1.0;stroke-width: 0.010000;stroke-opacity: 1;stroke-linecap: round;stroke-linejoin: round">
<circle cx="1117600.000000" cy="1117600.000000" r="30000.000000"/> 
</g>
<g style="fill-opacity: 1.0;stroke-width: 0.010000;stroke-opacity: 1;stroke-linecap: round;stroke-linejoin: round">
<circle cx="1422400.000000" cy="812800.000000" r="30000.000000"/> 
</g>
<g style="fill-opacity: 1.0;stroke-width: 0.010000;stroke-opacity: 1;stroke-linecap: round;stroke-linejoin: round">
<path style="fill-opacity: 1.0;stroke-width: 0.010000;stroke-opacity: 1;stroke-linecap: round;stroke-linejoin: round;fill-rule: evenodd" d="M 1170940.000000,894080.000000 1170940.000000,878840.000000 1186180.000000,878840.000000 1186180.000000,894080.000000 Z"/> 
<path style="fill-opacity: 1.0;stroke-width: 0.010000;stroke-opacity: 1;stroke-linecap: round;stroke-linejoin: round;fill-rule: evenodd" d="M 1196340.000000,894080.000000 1196340.000000,878840.000000 1211580.000000,878840.000000 1211580.000000,894080.000000 Z"/> 
<path style="fill-opacity: 1.0;stroke-width: 0.010000;stroke-opacity: 1;stroke-linecap: round;stroke-linejoin: round;fill-rule: evenodd" d="M 1170940.000000,919480.000000 1170940.000000,904240.000000 1186180.000000,904240.000000 1186180.000000,919480.000000 Z"/> 
<path style="fill-opacity: 1.0;stroke-width: 0.010000;stroke-opacity: 1;stroke-linecap: round;stroke-linejoin: round;fill-rule: evenodd" d="M 1196340.000000,919480.000000 1196340.000000,904240.000000 1211580.000000,904240.000000 1211580.000000,919480.000000 Z"/> 
<path style="fill-opacity: 1.0;stroke-width: 0.010000;stroke-opacity: 1;stroke-linecap: round;stroke-linejoin: round;fill-rule: evenodd" d="M 1170940.000000,944880.000000 1170940.000000,929640.000000 1186180.000000,929640.000000 1186180.000000,944880.000000 Z"/> 
<path style="fill-opacity: 1.0;stroke-width: 0.010000;stroke-opacity: 1;stroke-linecap: round;stroke-linejoin: round;fill-rule: evenodd" d="M 1196340.000000,944880.000000 1196340.000000,929640.000000 1211580.000000,929640.000000 1211580.000000,944880.000000 Z"/> 
<path style="fill-opacity: 1.0;stroke-width: 0.010000;stroke-opacity: 1;stroke-linecap: round;stroke-linejoin: round;fill-rule: evenodd" d="M 1170940.000000,970280.000000 1170940.000000,955040.000000 1186180.000000,955040.000000 1186180.000000,970280.000000 Z"/> 
<path style="fill-opacity: 1.0;stroke-width: 0.010000;stroke-opacity: 1;stroke-linecap: round;stroke-linejoin: round;fill-rule: evenodd" d="M 1196340.000000,970280.000000 1196340.000000,955040.000000 1211580.000000,955040.000000 1211580.000000,970280.000000 Z"/> 
<path style="fill-opacity: 1.0;stroke-width: 0.010000;stroke-opacity: 1;stroke-linecap: round;stroke-linejoin: round;fill-rule: evenodd" d="M 1170940.000000,995680.000000 1170940.000000,980440.000000 1186180.000000,980440.000000 1186180.000000,995680.000000 Z"/> 
<path style="fill-opacity: 1.0;stroke-width: 0.010000;stroke-opacity: 1;stroke-linecap: round;stroke-linejoin: round;fill-rule: evenodd" d="M 1196340.000000,995680.000000 1196340.000000,980440.000000 1211580.000000,980440.000000 1211580.000000,995680.000000 Z"/> 
</g>
</g> 
</g><g id="substrate-outline" style="fill:#000000; stroke:#000000; stroke-width: 1500.0"><g style="fill-opacity: 0.0;stroke-opacity: 1;stroke-linecap: round;stroke-linejoin: round">
<path d="M1470660 1165860 L1470660 764540 "/>
<path d="M1069340 764540 L1069340 1165860 "/>
<path d="M1069340 1165860 L1470660 1165860 "/>
<path d="M1470660 764540 L1069340 764540 "/>
<circle cx="1117600.000000" cy="1117600.000000" r="16666.660000"/> 
<path d="M1092600 1117600 L1142600 1117600 "/>
<path d="M1117600 1092600 L1117600 1142600 "/>
<circle cx="1117600.000000" cy="1117600.000000" r="16666.660000"/> 
<path d="M1092600 1117600 L1142600 1117600 "/>
<path d="M1117600 1092600 L1117600 1142600 "/>
<circle cx="1117600.000000" cy="1117600.000000" r="16666.660000"/> 
<path d="M1092600 1117600 L1142600 1117600 "/>
<path d="M1117600 1092600 L1117600 1142600 "/>
</g> 
<path d="M -15000.0 0.0 A 15000.0 15000.0 0 1 1 15000.0 0.0 L 15000.0 -0.0 A 15000.0 15000.0 0 1 1 -15000.0 -0.0 Z" transform="translate(1117600.0 812800.0) rotate(-0.0)"/><path d="M -15000.0 0.0 A 15000.0 15000.0 0 1 1 15000.0 0.0 L 15000.0 -0.0 A 15000.0 15000.0 0 1 1 -15000.0 -0.0 Z" transform="translate(1422400.0 1117600.0) rotate(-0.0)"/><path d="M -15000.0 0.0 A 15000.0 15000.0 0 1 1 15000.0 0.0 L 15000.0 -0.0 A 15000.0 15000.0 0 1 1 -15000.0 -0.0 Z" transform="translate(1117600.0 1117600.0) rotate(-0.0)"/><path d="M -15000.0 0.0 A 15000.0 15000.0 0 1 1 15000.0 0.0 L 15000.0 -0.0 A 15000.0 15000.0 0 1 1 -15000.0 -0.0 Z" transform="translate(1422400.0 812800.0) rotate(-0.0)"/><path d="M -4445.0 0.0 A 4445.0 4445.0 0 1 1 4445.0 0.0 L 4445.0 -0.0 A 4445.0 4445.0 0 1 1 -4445.0 -0.0 Z" transform="translate(1178560.0 886460.0) rotate(-0.0)"/><path d="M -4445.0 0.0 A 4445.0 4445.0 0 1 1 4445.0 0.0 L 4445.0 -0.0 A 4445.0 4445.0 0 1 1 -4445.0 -0.0 Z" transform="translate(1203960.0 886460.0) rotate(-0.0)"/><path d="M -4445.0 0.0 A 4445.0 4445.0 0 1 1 4445.0 0.0 L 4445.0 -0.0 A 4445.0 4445.0 0 1 1 -4445.0 -0.0 Z" transform="translate(1178560.0 911860.0) rotate(-0.0)"/><path d="M -4445.0 0.0 A 4445.0 4445.0 0 1 1 4445.0 0.0 L 4445.0 -0.0 A 4445.0 4445.0 0 1 1 -4445.0 -0.0 Z" transform="translate(1203960.0 911860.0) rotate(-0.0)"/><path d="M -4445.0 0.0 A 4445.0 4445.0 0 1 1 4445.0 0.0 L 4445.0 -0.0 A 4445.0 4445.0 0 1 1 -4445.0 -0.0 Z" transform="translate(1178560.0 937260.0) rotate(-0.0)"/><path d="M -4445.0 0.0 A 4445.0 4445.0 0 1 1 4445.0 0.0 L 4445.0 -0.0 A 4445.0 4445.0 0 1 1 -4445.0 -0.0 Z" transform="translate(1203960.0 937260.0) rotate(-0.0)"/><path d="M -4445.0 0.0 A 4445.0 4445.0 0 1 1 4445.0 0.0 L 4445.0 -0.0 A 4445.0 4445.0 0 1 1 -4445.0 -0.0 Z" transform="translate(1178560.0 962660.0) rotate(-0.0)"/><path d="M -4445.0 0.0 A 4445.0 4445.0 0 1 1 4445.0 0.0 L 4445.0 -0.0 A 4445.0 4445.0 0 1 1 -4445.0 -0.0 Z" transform="translate(1203960.0 962660.0) rotate(-0.0)"/><path d="M -4445.0 0.0 A 4445.0 4445.0 0 1 1 4445.0 0.0 L 4445.0 -0.0 A 4445.0 4445.0 0 1 1 -4445.0 -0.0 Z" transform="translate(1178560.0 988060.0) rotate(-0.0)"/><path d="M -4445.0 0.0 A 4445.0 4445.0 0 1 1 4445.0 0.0 L 4445.0 -0.0 A 4445.0 4445.0 0 1 1 -4445.0 -0.0 Z" transform="translate(1203960.0 988060.0) rotate(-0.0)"/></g></g></g></svg>