<!DOCTYPE svg PUBLIC "-//W3C//DTD SVG 1.1//EN" "http://www.w3.org/Graphics/SVG/1.1/DTD/svg11.dtd">
<svg xmlns="http://www.w3.org/2000/svg" version="1.1" width="29.961999mm" height="50.282mm" viewBox="-163.481 79.859 29.96199999999999 50.282">
            <title>Picture generated by PcbDraw </title>
            <desc>Picture generated by PcbDraw</desc>
        <defs><clipPath id="cut-off"><path d="M138.5940 125.0660 L138.5940 84.9340 M 158.406 84.934 L 158.406 125.066 L 138.594 125.066 L 138.594 84.934 L 158.406 84.934 " style="fill-rule: evenodd;"/></clipPath><mask id="pads-mask"><g style="fill:#ffffff; fill-opacity:1.0000; stroke:none;">
<circle cx="153.5800" cy="89.7600" r="3.0800"/> 
</g>
<g style="fill:#ffffff; fill-opacity:1.0000; stroke:none;">
<circle cx="153.5800" cy="120.2400" r="3.0800"/> 
</g>
<g style="fill:#ffffff; fill-opacity:1.0000; stroke:none;">
<circle cx="143.4200" cy="120.2400" r="3.0800"/> 
<path style="fill:#ffffff; fill-opacity:1.0000; stroke:none;fill-rule:evenodd;" d="M 150.5100,117.2800 150.5039,117.3106 150.4866,117.3366 150.4606,117.3539 150.4300,117.3600 148.7300,117.3600 148.6994,117.3539 148.6734,117.3366 148.6561,117.3106 148.6500,117.2800 148.6500,115.5800 148.6561,115.5494 148.6734,115.5234 148.6994,115.5061 148.7300,115.5000 150.4300,115.5000 150.4606,115.5061 150.4866,115.5234 150.5039,115.5494 150.5100,115.5800 Z"/> 
</g>
<g style="fill:#ffffff; fill-opacity:1.0000; stroke:none;">
<circle cx="147.0400" cy="116.4300" r="0.9300"/> 
<circle cx="149.5800" cy="113.8900" r="0.9300"/> 
<circle cx="147.0400" cy="113.8900" r="0.9300"/> 
<circle cx="149.5800" cy="111.3500" r="0.9300"/> 
<circle cx="147.0400" cy="111.3500" r="0.9300"/> 
<circle cx="149.5800" cy="108.8100" r="0.9300"/> 
<circle cx="147.0400" cy="108.8100" r="0.9300"/> 
<circle cx="149.5800" cy="106.2700" r="0.9300"/> 
<circle cx="147.0400" cy="106.2700" r="0.9300"/> 
<circle cx="149.5800" cy="103.7300" r="0.9300"/> 
<circle cx="147.0400" cy="103.7300" r="0.9300"/> 
<circle cx="149.5800" cy="101.1900" r="0.9300"/> 
<circle cx="147.0400" cy="101.1900" r="0.9300"/> 
<circle cx="149.5800" cy="98.6500" r="0.9300"/> 
<circle cx="147.0400" cy="98.6500" r="0.9300"/> 
<circle cx="149.5800" cy="96.1100" r="0.9300"/> 
<circle cx="147.0400" cy="96.1100" r="0.9300"/> 
<circle cx="149.5800" cy="93.5700" r="0.9300"/> 
<circle cx="147.0400" cy="93.5700" r="0.9300"/> 
<circle cx="143.4200" cy="89.7600" r="3.0800"/> 
</g>
<g style="fill:#ffffff; fill-opacity:1.0000; stroke:none;">
<circle cx="148.5508" cy="123.0848" r="1.0000"/> 
</g>
<g style="fill:#ffffff; fill-opacity:1.0000; stroke:none;">
<circle cx="148.5000" cy="87.0736" r="1.0000"/> 
</g> 
</mask><mask id="pads-mask-silkscreen"><rect x="138.519" y="84.859" width="19.962" height="40.282" fill="white"/><g style="fill:#000000; fill-opacity:1.0000; stroke:none;">
<circle cx="153.5800" cy="89.7600" r="3.0800"/> 
</g>
<g style="fill:#000000; fill-opacity:1.0000; stroke:none;">
<circle cx="153.5800" cy="120.2400" r="3.0800"/> 
</g>
<g style="fill:#000000; fill-opacity:1.0000; stroke:none;">
<circle cx="143.4200" cy="120.2400" r="3.0800"/> 
<path style="fill:#000000; fill-opacity:1.0000; stroke:none;fill-rule:evenodd;" d="M 150.5100,117.2800 150.5039,117.3106 150.4866,117.3366 150.4606,117.3539 150.4300,117.3600 148.7300,117.3600 148.6994,117.3539 148.6734,117.3366 148.6561,117.3106 148.6500,117.2800 148.6500,115.5800 148.6561,115.5494 148.6734,115.5234 148.6994,115.5061 148.7300,115.5000 150.4300,115.5000 150.4606,115.5061 150.4866,115.5234 150.5039,115.5494 150.5100,115.5800 Z"/> 
</g>
<g style="fill:#000000; fill-opacity:1.0000; stroke:none;">
<circle cx="147.0400" cy="116.4300" r="0.9300"/> 
<circle cx="149.5800" cy="113.8900" r="0.9300"/> 
<circle cx="147.0400" cy="113.8900" r="0.9300"/> 
<circle cx="149.5800" cy="111.3500" r="0.9300"/> 
<circle cx="147.0400" cy="111.3500" r="0.9300"/> 
<circle cx="149.5800" cy="108.8100" r="0.9300"/> 
<circle cx="147.0400" cy="108.8100" r="0.9300"/> 
<circle cx="149.5800" cy="106.2700" r="0.9300"/> 
<circle cx="147.0400" cy="106.2700" r="0.9300"/> 
<circle cx="149.5800" cy="103.7300" r="0.9300"/> 
<circle cx="147.0400" cy="103.7300" r="0.9300"/> 
<circle cx="149.5800" cy="101.1900" r="0.9300"/> 
<circle cx="147.0400" cy="101.1900" r="0.9300"/> 
<circle cx="149.5800" cy="98.6500" r="0.9300"/> 
<circle cx="147.0400" cy="98.6500" r="0.9300"/> 
<circle cx="149.5800" cy="96.1100" r="0.9300"/> 
<circle cx="147.0400" cy="96.1100" r="0.9300"/> 
<circle cx="149.5800" cy="93.5700" r="0.9300"/> 
<circle cx="147.0400" cy="93.5700" r="0.9300"/> 
<circle cx="143.4200" cy="89.7600" r="3.0800"/> 
</g>
<g style="fill:#000000; fill-opacity:1.0000; stroke:none;">
<circle cx="148.5508" cy="123.0848" r="1.0000"/> 
</g>
<g style="fill:#000000; fill-opacity:1.0000; stroke:none;">
<circle cx="148.5000" cy="87.0736" r="1.0000"/> 
</g> 
</mask><mask id="hole-mask"><g><rect x="138.519" y="84.859" fill="white" width="19.962" height="40.282"/><polyline stroke-linecap="round" stroke="black" stroke-width="3.0" points="-0.0 0 0.0 0" transform="translate(153.58 89.76) rotate(-0.0)"/><polyline stroke-linecap="round" stroke="black" stroke-width="3.0" points="-0.0 0 0.0 0" transform="translate(153.58 120.24) rotate(-0.0)"/><polyline stroke-linecap="round" stroke="black" stroke-width="3.0" points="-0.0 0 0.0 0" transform="translate(143.42 120.24) rotate(-0.0)"/><polyline stroke-linecap="round" stroke="black" stroke-width="1.0" points="-0.0 0 0.0 0" transform="translate(149.579999 116.43) rotate(-180.0)"/><polyline stroke-linecap="round" stroke="black" stroke-width="1.0" points="-0.0 0 0.0 0" transform="translate(147.039999 116.43) rotate(-180.0)"/><polyline stroke-linecap="round" stroke="black" stroke-width="1.0" points="-0.0 0 0.0 0" transform="translate(149.579999 113.89) rotate(-180.0)"/><polyline stroke-linecap="round" stroke="black" stroke-width="1.0" points="-0.0 0 0.0 0" transform="translate(147.039999 113.89) rotate(-180.0)"/><polyline stroke-linecap="round" stroke="black" stroke-width="1.0" points="-0.0 0 0.0 0" transform="translate(149.579999 111.35) rotate(-180.0)"/><polyline stroke-linecap="round" stroke="black" stroke-width="1.0" points="-0.0 0 0.0 0" transform="translate(147.039999 111.35) rotate(-180.0)"/><polyline stroke-linecap="round" stroke="black" stroke-width="1.0" points="-0.0 0 0.0 0" transform="translate(149.579999 108.81) rotate(-180.0)"/><polyline stroke-linecap="round" stroke="black" stroke-width="1.0" points="-0.0 0 0.0 0" transform="translate(147.039999 108.81) rotate(-180.0)"/><polyline stroke-linecap="round" stroke="black" stroke-width="1.0" points="-0.0 0 0.0 0" transform="translate(149.579999 106.27) rotate(-180.0)"/><polyline stroke-linecap="round" stroke="black" stroke-width="1.0" points="-0.0 0 0.0 0" transform="translate(147.039999 106.27) rotate(-180.0)"/><polyline stroke-linecap="round" stroke="black" stroke-width="1.0" points="-0.0 0 0.0 0" transform="translate(149.579999 103.73) rotate(-180.0)"/><polyline stroke-linecap="round" stroke="black" stroke-width="1.0" points="-0.0 0 0.0 0" transform="translate(147.039999 103.73) rotate(-180.0)"/><polyline stroke-linecap="round" stroke="black" stroke-width="1.0" points="-0.0 0 0.0 0" transform="translate(149.579999 101.19) rotate(-180.0)"/><polyline stroke-linecap="round" stroke="black" stroke-width="1.0" points="-0.0 0 0.0 0" transform="translate(147.039999 101.19) rotate(-180.0)"/><polyline stroke-linecap="round" stroke="black" stroke-width="1.0" points="-0.0 0 0.0 0" transform="translate(149.579999 98.65) rotate(-180.0)"/><polyline stroke-linecap="round" stroke="black" stroke-width="1.0" points="-0.0 0 0.0 0" transform="translate(147.039999 98.65) rotate(-180.0)"/><polyline stroke-linecap="round" stroke="black" stroke-width="1.0" points="-0.0 0 0.0 0" transform="translate(149.579999 96.11) rotate(-180.0)"/><polyline stroke-linecap="round" stroke="black" stroke-width="1.0" points="-0.0 0 0.0 0" transform="translate(147.039999 96.11) rotate(-180.0)"/><polyline stroke-linecap="round" stroke="black" stroke-width="1.0" points="-0.0 0 0.0 0" transform="translate(149.579999 93.57) rotate(-180.0)"/><polyline stroke-linecap="round" stroke="black" stroke-width="1.0" points="-0.0 0 0.0 0" transform="translate(147.039999 93.57) rotate(-180.0)"/><polyline stroke-linecap="round" stroke="black" stroke-width="3.0" points="-0.0 0 0.0 0" transform="translate(143.42 89.76) rotate(-0.0)"/></g></mask></defs><g transform="scale(-1,1)" id="boardContainer"><g id="substrate" clip-path="url(#cut-off)" mask="url(#hole-mask)"><g id="substrate-board" style="fill:#f1f4f3; stroke:#f1f4f3;"><path d="M138.5940 125.0660 L138.5940 84.9340 M 158.406 84.934 L 158.406 125.066 L 138.594 125.066 L 138.594 84.934 L 158.406 84.934 " style="fill-rule: evenodd;"/><g style="fill: #f1f4f3;fill-opacity: 1.0000;stroke: #f1f4f3;stroke-opacity: 1.0000;stroke-linecap: round;stroke-linejoin: round" transform="translate(0 0) scale(1 1)">
<path style="fill: none;stroke: #f1f4f3;stroke-width: 0.1500;stroke-opacity: 1;stroke-linecap: round;stroke-linejoin: round" d="M 138.5940,84.9340 158.4060,84.9340 158.4060,125.0660 138.5940,125.0660 Z"/> 
</g> 
</g><g id="substrate-clad" style="fill:#72786c; stroke:#72786c;"><g style="fill: #72786c;fill-opacity: 1.0000;stroke: none">
<circle cx="153.5800" cy="89.7600" r="3.0800"/> 
</g>
<g style="fill: #72786c;fill-opacity: 1.0000;stroke: none">
<circle cx="153.5800" cy="120.2400" r="3.0800"/> 
</g>
<g style="fill: #72786c;fill-opacity: 1.0000;stroke: none">
<circle cx="143.4200" cy="120.2400" r="3.0800"/> 
<path style="fill: #72786c;fill-opacity: 1.0000;stroke: none;fill-rule: evenodd" d="M 150.5100,117.2800 150.5039,117.3106 150.4866,117.3366 150.4606,117.3539 150.4300,117.3600 148.7300,117.3600 148.6994,117.3539 148.6734,117.3366 148.6561,117.3106 148.6500,117.2800 148.6500,115.5800 148.6561,115.5494 148.6734,115.5234 148.6994,115.5061 148.7300,115.5000 150.4300,115.5000 150.4606,115.5061 150.4866,115.5234 150.5039,115.5494 150.5100,115.5800 Z"/> 
</g>
<g style="fill: #72786c;fill-opacity: 1.0000;stroke: none">
<circle cx="147.0400" cy="116.4300" r="0.9300"/> 
<circle cx="149.5800" cy="113.8900" r="0.9300"/> 
<circle cx="147.0400" cy="113.8900" r="0.9300"/> 
<circle cx="149.5800" cy="111.3500" r="0.9300"/> 
<circle cx="147.0400" cy="111.3500" r="0.9300"/> 
<circle cx="149.5800" cy="108.8100" r="0.9300"/> 
<circle cx="147.0400" cy="108.8100" r="0.9300"/> 
<circle cx="149.5800" cy="106.2700" r="0.9300"/> 
<circle cx="147.0400" cy="106.2700" r="0.9300"/> 
<circle cx="149.5800" cy="103.7300" r="0.9300"/> 
<circle cx="147.0400" cy="103.7300" r="0.9300"/> 
<circle cx="149.5800" cy="101.1900" r="0.9300"/> 
<circle cx="147.0400" cy="101.1900" r="0.9300"/> 
<circle cx="149.5800" cy="98.6500" r="0.9300"/> 
<circle cx="147.0400" cy="98.6500" r="0.9300"/> 
<circle cx="149.5800" cy="96.1100" r="0.9300"/> 
<circle cx="147.0400" cy="96.1100" r="0.9300"/> 
<circle cx="149.5800" cy="93.5700" r="0.9300"/> 
<circle cx="147.0400" cy="93.5700" r="0.9300"/> 
<circle cx="143.4200" cy="89.7600" r="3.0800"/> 
</g>
<g style="fill: #72786c;fill-opacity: 1.0000;stroke: none">
<circle cx="148.5508" cy="123.0848" r="1.0000"/> 
</g>
<g style="fill: #72786c;fill-opacity: 1.0000;stroke: none">
<circle cx="148.5000" cy="87.0736" r="1.0000"/> 
</g> 
</g><g id="substrate-copper" style="fill:#f8f8f7; stroke:#f8f8f7;"><g style="fill: none;stroke: #f8f8f7;stroke-width: 0.1500;stroke-opacity: 1;stroke-linecap: round;stroke-linejoin: round">
<g transform="rotate(-90.000000 140.8800 93.9800)">
<text x="140.8800" y="93.9800" transform="scale(-1 1) translate(-281.759998 0)" textLength="8.3929" font-size="1.3333" lengthAdjust="spacingAndGlyphs" text-anchor="start" opacity="0" stroke-opacity="0">GHxPIN01A</text>
</g>
<g class="stroked-text"><desc>GHxPIN01A</desc>
<path d="M139.7974 94.8406 L139.7498 94.7454 "/>
<path d="M139.7498 94.7454 L139.7498 94.6025 "/>
<path d="M139.7498 94.6025 L139.7974 94.4596 "/>
<path d="M139.7974 94.4596 L139.8927 94.3644 "/>
<path d="M139.8927 94.3644 L139.9879 94.3168 "/>
<path d="M139.9879 94.3168 L140.1784 94.2692 "/>
<path d="M140.1784 94.2692 L140.3212 94.2692 "/>
<path d="M140.3212 94.2692 L140.5117 94.3168 "/>
<path d="M140.5117 94.3168 L140.6070 94.3644 "/>
<path d="M140.6070 94.3644 L140.7022 94.4596 "/>
<path d="M140.7022 94.4596 L140.7498 94.6025 "/>
<path d="M140.7498 94.6025 L140.7498 94.6977 "/>
<path d="M140.7498 94.6977 L140.7022 94.8406 "/>
<path d="M140.7022 94.8406 L140.6546 94.8882 "/>
<path d="M140.6546 94.8882 L140.3212 94.8882 "/>
<path d="M140.3212 94.8882 L140.3212 94.6977 "/>
<path d="M140.7498 95.3168 L139.7498 95.3168 "/>
<path d="M140.2260 95.3168 L140.2260 95.8882 "/>
<path d="M140.7498 95.8882 L139.7498 95.8882 "/>
<path d="M140.7498 96.2692 L140.0832 96.7930 "/>
<path d="M140.0832 96.2692 L140.7498 96.7930 "/>
<path d="M140.7498 97.1739 L139.7498 97.1739 "/>
<path d="M139.7498 97.1739 L139.7498 97.5549 "/>
<path d="M139.7498 97.5549 L139.7974 97.6501 "/>
<path d="M139.7974 97.6501 L139.8451 97.6977 "/>
<path d="M139.8451 97.6977 L139.9403 97.7454 "/>
<path d="M139.9403 97.7454 L140.0832 97.7454 "/>
<path d="M140.0832 97.7454 L140.1784 97.6977 "/>
<path d="M140.1784 97.6977 L140.2260 97.6501 "/>
<path d="M140.2260 97.6501 L140.2736 97.5549 "/>
<path d="M140.2736 97.5549 L140.2736 97.1739 "/>
<path d="M140.7498 98.1739 L139.7498 98.1739 "/>
<path d="M140.7498 98.6501 L139.7498 98.6501 "/>
<path d="M139.7498 98.6501 L140.7498 99.2215 "/>
<path d="M140.7498 99.2215 L139.7498 99.2215 "/>
<path d="M139.7498 99.8882 L139.7498 99.9834 "/>
<path d="M139.7498 99.9834 L139.7974 100.0787 "/>
<path d="M139.7974 100.0787 L139.8451 100.1263 "/>
<path d="M139.8451 100.1263 L139.9403 100.1739 "/>
<path d="M139.9403 100.1739 L140.1308 100.2215 "/>
<path d="M140.1308 100.2215 L140.3689 100.2215 "/>
<path d="M140.3689 100.2215 L140.5593 100.1739 "/>
<path d="M140.5593 100.1739 L140.6546 100.1263 "/>
<path d="M140.6546 100.1263 L140.7022 100.0787 "/>
<path d="M140.7022 100.0787 L140.7498 99.9834 "/>
<path d="M140.7498 99.9834 L140.7498 99.8882 "/>
<path d="M140.7498 99.8882 L140.7022 99.7930 "/>
<path d="M140.7022 99.7930 L140.6546 99.7454 "/>
<path d="M140.6546 99.7454 L140.5593 99.6977 "/>
<path d="M140.5593 99.6977 L140.3689 99.6501 "/>
<path d="M140.3689 99.6501 L140.1308 99.6501 "/>
<path d="M140.1308 99.6501 L139.9403 99.6977 "/>
<path d="M139.9403 99.6977 L139.8451 99.7454 "/>
<path d="M139.8451 99.7454 L139.7974 99.7930 "/>
<path d="M139.7974 99.7930 L139.7498 99.8882 "/>
<path d="M140.7498 101.1739 L140.7498 100.6025 "/>
<path d="M140.7498 100.8882 L139.7498 100.8882 "/>
<path d="M139.7498 100.8882 L139.8927 100.7930 "/>
<path d="M139.8927 100.7930 L139.9879 100.6977 "/>
<path d="M139.9879 100.6977 L140.0355 100.6025 "/>
<path d="M140.4641 101.5549 L140.4641 102.0311 "/>
<path d="M140.7498 101.4596 L139.7498 101.7930 "/>
<path d="M139.7498 101.7930 L140.7498 102.1263 "/>
</g></g>
<g style="fill: #f8f8f7;fill-opacity: 1.0000;stroke: none">
<circle cx="153.5800" cy="89.7600" r="3.0000"/> 
</g>
<g style="fill: #f8f8f7;fill-opacity: 1.0000;stroke: none">
<circle cx="153.5800" cy="120.2400" r="3.0000"/> 
</g>
<g style="fill: #f8f8f7;fill-opacity: 1.0000;stroke: none">
<circle cx="143.4200" cy="120.2400" r="3.0000"/> 
<path style="fill: #f8f8f7;fill-opacity: 1.0000;stroke: none;fill-rule: evenodd" d="M 150.4300,115.5800 150.4300,117.2800 148.7300,117.2800 148.7300,115.5800 Z"/> 
</g>
<g style="fill: #f8f8f7;fill-opacity: 1.0000;stroke: none">
<circle cx="147.0400" cy="116.4300" r="0.8500"/> 
<circle cx="149.5800" cy="113.8900" r="0.8500"/> 
<circle cx="147.0400" cy="113.8900" r="0.8500"/> 
<circle cx="149.5800" cy="111.3500" r="0.8500"/> 
<circle cx="147.0400" cy="111.3500" r="0.8500"/> 
<circle cx="149.5800" cy="108.8100" r="0.8500"/> 
<circle cx="147.0400" cy="108.8100" r="0.8500"/> 
<circle cx="149.5800" cy="106.2700" r="0.8500"/> 
<circle cx="147.0400" cy="106.2700" r="0.8500"/> 
<circle cx="149.5800" cy="103.7300" r="0.8500"/> 
<circle cx="147.0400" cy="103.7300" r="0.8500"/> 
<circle cx="149.5800" cy="101.1900" r="0.8500"/> 
<circle cx="147.0400" cy="101.1900" r="0.8500"/> 
<circle cx="149.5800" cy="98.6500" r="0.8500"/> 
<circle cx="147.0400" cy="98.6500" r="0.8500"/> 
<circle cx="149.5800" cy="96.1100" r="0.8500"/> 
<circle cx="147.0400" cy="96.1100" r="0.8500"/> 
<circle cx="149.5800" cy="93.5700" r="0.8500"/> 
<circle cx="147.0400" cy="93.5700" r="0.8500"/> 
<circle cx="143.4200" cy="89.7600" r="3.0000"/> 
</g>
<g style="fill: #f8f8f7;fill-opacity: 1.0000;stroke: none">
<circle cx="148.5508" cy="123.0848" r="0.5000"/> 
</g>
<g style="fill: #f8f8f7;fill-opacity: 1.0000;stroke: none">
<circle cx="148.5000" cy="87.0736" r="0.5000"/> 
<path style="fill: #f8f8f7;fill-opacity: 1.0000;stroke: none;fill-rule: evenodd" d="M 158.1055,114.5388 154.6400,114.5100 154.6600,96.7400 158.1055,96.7288 Z"/> 
<path style="fill: #f8f8f7;fill-opacity: 1.0000;stroke: none;fill-rule: evenodd" d="M 158.0485,85.2542 158.0943,85.3070 158.1055,85.3585 158.1055,96.7288 154.6600,96.7400 154.6400,114.5100 158.1055,114.5388 158.1055,124.6415 158.0858,124.7085 158.0330,124.7543 157.9815,124.7655 139.0185,124.7655 138.9515,124.7458 138.9057,124.6930 138.8945,124.6415 138.8945,123.0848 147.5455,123.0848 147.5648,123.2809 147.6220,123.4695 147.7149,123.6433 147.7149,123.6433 147.8399,123.7957 147.9923,123.9207 147.9923,123.9207 148.1661,124.0136 148.1661,124.0136 148.1661,124.0136 148.3547,124.0708 148.5508,124.0901 148.7469,124.0708 148.9355,124.0136 149.1093,123.9207 149.2617,123.7957 149.3867,123.6433 149.4796,123.4695 149.5368,123.2809 149.5561,123.0848 149.5368,122.8887 149.4796,122.7001 149.4796,122.7001 149.4796,122.7001 149.3867,122.5263 149.3867,122.5263 149.2617,122.3739 149.1093,122.2489 149.1093,122.2489 148.9355,122.1560 148.9355,122.1560 148.7469,122.0988 148.7469,122.0988 148.5508,122.0795 148.3547,122.0988 148.1661,122.1560 147.9923,122.2489 147.9923,122.2489 147.8399,122.3739 147.7149,122.5263 147.7149,122.5263 147.6220,122.7001 147.5648,122.8887 147.5455,123.0848 138.8945,123.0848 138.8945,102.7157 139.1599,102.7157 141.3396,102.7157 141.3396,93.6793 139.1599,93.6793 139.1599,102.7157 138.8945,102.7157 138.8945,93.5700 145.6768,93.5700 145.6768,93.5700 145.6954,93.7944 145.6954,93.7944 145.7507,94.0126 145.8411,94.2188 145.9643,94.4073 145.9643,94.4073 146.1168,94.5729 146.1168,94.5729 146.2944,94.7112 146.2944,94.7112 146.2944,94.7112 146.3309,94.7309 146.3805,94.7802 146.3956,94.8484 146.3715,94.9139 146.3309,94.9491 146.2944,94.9688 146.2944,94.9688 146.1168,95.1071 146.1168,95.1071 145.9643,95.2727 145.9643,95.2727 145.8411,95.4612 145.7507,95.6674 145.6954,95.8856 145.6954,95.8856 145.6768,96.1100 145.6768,96.1100 145.6954,96.3344 145.6954,96.3344 145.7507,96.5526 145.8411,96.7588 145.9643,96.9473 145.9643,96.9473 146.1168,97.1129 146.1168,97.1129 146.2944,97.2512 146.2944,97.2512 146.2944,97.2512 146.3309,97.2709 146.3805,97.3202 146.3956,97.3884 146.3715,97.4539 146.3309,97.4891 146.2944,97.5088 146.2944,97.5088 146.1168,97.6471 146.1168,97.6471 145.9643,97.8127 145.9643,97.8127 145.8411,98.0012 145.7507,98.2074 145.6954,98.4256 145.6954,98.4256 145.6768,98.6500 145.6768,98.6500 145.6954,98.8744 145.6954,98.8744 145.7507,99.0926 145.8411,99.2988 145.9643,99.4873 145.9643,99.4873 146.1168,99.6529 146.1168,99.6529 146.2944,99.7912 146.2944,99.7912 146.2944,99.7912 146.3309,99.8109 146.3805,99.8602 146.3956,99.9284 146.3715,99.9939 146.3309,100.0291 146.2944,100.0488 146.2944,100.0488 146.1168,100.1871 146.1168,100.1871 145.9643,100.3527 145.9643,100.3527 145.8411,100.5412 145.7507,100.7474 145.6954,100.9656 145.6954,100.9656 145.6768,101.1900 145.6768,101.1900 145.6954,101.4144 145.6954,101.4144 145.7507,101.6326 145.8411,101.8388 145.9643,102.0273 145.9643,102.0273 146.1168,102.1929 146.1168,102.1929 146.2944,102.3312 146.2944,102.3312 146.2944,102.3312 146.3309,102.3509 146.3805,102.4002 146.3956,102.4684 146.3715,102.5339 146.3309,102.5691 146.2944,102.5888 146.2944,102.5888 146.1168,102.7271 146.1168,102.7271 145.9643,102.8927 145.9643,102.8927 145.8411,103.0812 145.7507,103.2874 145.6954,103.5056 145.6954,103.5056 145.6768,103.7300 145.6768,103.7300 145.6954,103.9544 145.6954,103.9544 145.7507,104.1726 145.8411,104.3788 145.9643,104.5673 145.9643,104.5673 146.1168,104.7329 146.1168,104.7329 146.2944,104.8712 146.2944,104.8712 146.2944,104.8712 146.3309,104.8909 146.3805,104.9402 146.3956,105.0084 146.3715,105.0739 146.3309,105.1091 146.2944,105.1288 146.2944,105.1288 146.1168,105.2671 146.1168,105.2671 145.9643,105.4327 145.9643,105.4327 145.8411,105.6212 145.7507,105.8274 145.6954,106.0456 145.6954,106.0456 145.6768,106.2700 145.6768,106.2700 145.6954,106.4944 145.6954,106.4944 145.7507,106.7126 145.8411,106.9188 145.9643,107.1073 145.9643,107.1073 146.1168,107.2729 146.1168,107.2729 146.2944,107.4112 146.2944,107.4112 146.2944,107.4112 146.3309,107.4309 146.3805,107.4802 146.3956,107.5484 146.3715,107.6139 146.3309,107.6491 146.2944,107.6688 146.2944,107.6688 146.1168,107.8071 146.1168,107.8071 145.9643,107.9727 145.9643,107.9727 145.8411,108.1612 145.7507,108.3674 145.6954,108.5856 145.6954,108.5856 145.6768,108.8100 145.6768,108.8100 145.6954,109.0344 145.6954,109.0344 145.7507,109.2526 145.8411,109.4588 145.9643,109.6473 145.9643,109.6473 146.1168,109.8129 146.1168,109.8129 146.2944,109.9512 146.2944,109.9512 146.2944,109.9512 146.3309,109.9709 146.3805,110.0202 146.3956,110.0884 146.3715,110.1539 146.3309,110.1891 146.2944,110.2088 146.2944,110.2088 146.1168,110.3471 146.1168,110.3471 145.9643,110.5127 145.9643,110.5127 145.8411,110.7012 145.7507,110.9074 145.6954,111.1256 145.6954,111.1256 145.6768,111.3500 145.6768,111.3500 145.6954,111.5744 145.6954,111.5744 145.7507,111.7926 145.8411,111.9988 145.9643,112.1873 145.9643,112.1873 146.1168,112.3529 146.1168,112.3529 146.2944,112.4912 146.2944,112.4912 146.2944,112.4912 146.3309,112.5109 146.3805,112.5602 146.3956,112.6284 146.3715,112.6939 146.3309,112.7291 146.2944,112.7488 146.2944,112.7488 146.1168,112.8871 146.1168,112.8871 145.9643,113.0527 145.9643,113.0527 145.8411,113.2412 145.7507,113.4474 145.6954,113.6656 145.6954,113.6656 145.6768,113.8900 145.6768,113.8900 145.6954,114.1144 145.6954,114.1144 145.7507,114.3326 145.8411,114.5388 145.9643,114.7273 145.9643,114.7273 146.1095,114.8850 146.1168,114.8929 146.2944,115.0312 146.2944,115.0312 146.2944,115.0312 146.3309,115.0509 146.3805,115.1002 146.3956,115.1684 146.3715,115.2339 146.3309,115.2691 146.2944,115.2888 146.2944,115.2888 146.1168,115.4271 146.1168,115.4271 145.9643,115.5927 145.9643,115.5927 145.8411,115.7812 145.7507,115.9874 145.6954,116.2056 145.6954,116.2056 145.6768,116.4300 145.6768,116.4300 145.6954,116.6544 145.6954,116.6544 145.7507,116.8726 145.8411,117.0788 145.9643,117.2673 145.9643,117.2673 146.0910,117.4049 146.1168,117.4329 146.2944,117.5712 146.2944,117.5712 146.2944,117.5712 146.4211,117.6398 146.4924,117.6783 146.7054,117.7514 146.9274,117.7885 147.1526,117.7885 147.3746,117.7514 147.5876,117.6783 147.7856,117.5712 147.9632,117.4329 148.0265,117.3642 148.0863,117.3282 148.1562,117.3303 148.2138,117.3699 148.2339,117.4049 148.2791,117.5262 148.3667,117.6433 148.4838,117.7309 148.6208,117.7820 148.6480,117.7849 148.6813,117.7885 148.6814,117.7885 150.4786,117.7885 150.4787,117.7885 150.5057,117.7856 150.5392,117.7820 150.6762,117.7309 150.7933,117.6433 150.8809,117.5262 150.9320,117.3892 150.9356,117.3557 150.9385,117.3287 150.9385,117.3286 150.9385,115.5314 150.9385,115.5313 150.9347,115.4958 150.9320,115.4708 150.8809,115.3338 150.7933,115.2167 150.6762,115.1291 150.5584,115.0852 150.5025,115.0433 150.4781,114.9778 150.4929,114.9096 150.5105,114.8850 150.6557,114.7273 150.7789,114.5388 150.8693,114.3326 150.9246,114.1144 150.9432,113.8900 150.9246,113.6656 150.8693,113.4474 150.7789,113.2412 150.7627,113.2165 150.6557,113.0527 150.6557,113.0527 150.5032,112.8871 150.5032,112.8871 150.3256,112.7488 150.3256,112.7488 150.3256,112.7488 150.2891,112.7291 150.2395,112.6798 150.2244,112.6116 150.2485,112.5461 150.2891,112.5109 150.2891,112.5109 150.3256,112.4912 150.5032,112.3529 150.6557,112.1873 150.7789,111.9988 150.8693,111.7926 150.9246,111.5744 150.9432,111.3500 150.9246,111.1256 150.8693,110.9074 150.7789,110.7012 150.7627,110.6765 150.6557,110.5127 150.6557,110.5127 150.5032,110.3471 150.5032,110.3471 150.3256,110.2088 150.3256,110.2088 150.3256,110.2088 150.2891,110.1891 150.2395,110.1398 150.2244,110.0716 150.2485,110.0061 150.2891,109.9709 150.2891,109.9709 150.3256,109.9512 150.5032,109.8129 150.6557,109.6473 150.7789,109.4588 150.8693,109.2526 150.9246,109.0344 150.9432,108.8100 150.9246,108.5856 150.8693,108.3674 150.7789,108.1612 150.7627,108.1365 150.6557,107.9727 150.6557,107.9727 150.5032,107.8071 150.5032,107.8071 150.3256,107.6688 150.3256,107.6688 150.3256,107.6688 150.2891,107.6491 150.2395,107.5998 150.2244,107.5316 150.2485,107.4661 150.2891,107.4309 150.2891,107.4309 150.3256,107.4112 150.5032,107.2729 150.6557,107.1073 150.7789,106.9188 150.8693,106.7126 150.9246,106.4944 150.9432,106.2700 150.9246,106.0456 150.8693,105.8274 150.7789,105.6212 150.7627,105.5965 150.6557,105.4327 150.6557,105.4327 150.5032,105.2671 150.5032,105.2671 150.3256,105.1288 150.3256,105.1288 150.3256,105.1288 150.2891,105.1091 150.2395,105.0598 150.2244,104.9916 150.2485,104.9261 150.2891,104.8909 150.2891,104.8909 150.3256,104.8712 150.5032,104.7329 150.6557,104.5673 150.7789,104.3788 150.8693,104.1726 150.9246,103.9544 150.9432,103.7300 150.9246,103.5056 150.8693,103.2874 150.7789,103.0812 150.7627,103.0565 150.6557,102.8927 150.6557,102.8927 150.5032,102.7271 150.5032,102.7271 150.3256,102.5888 150.3256,102.5888 150.3256,102.5888 150.2891,102.5691 150.2395,102.5198 150.2244,102.4516 150.2485,102.3861 150.2891,102.3509 150.2891,102.3509 150.3256,102.3312 150.5032,102.1929 150.6557,102.0273 150.7789,101.8388 150.8693,101.6326 150.9246,101.4144 150.9432,101.1900 150.9246,100.9656 150.8693,100.7474 150.7789,100.5412 150.7627,100.5165 150.6557,100.3527 150.6557,100.3527 150.5032,100.1871 150.5032,100.1871 150.3256,100.0488 150.3256,100.0488 150.3256,100.0488 150.2891,100.0291 150.2395,99.9798 150.2244,99.9116 150.2485,99.8461 150.2891,99.8109 150.2891,99.8109 150.3256,99.7912 150.5032,99.6529 150.6557,99.4873 150.7789,99.2988 150.8693,99.0926 150.9246,98.8744 150.9432,98.6500 150.9246,98.4256 150.8693,98.2074 150.7789,98.0012 150.7627,97.9765 150.6557,97.8127 150.6557,97.8127 150.5032,97.6471 150.5032,97.6471 150.3256,97.5088 150.3256,97.5088 150.3256,97.5088 150.2891,97.4891 150.2395,97.4398 150.2244,97.3716 150.2485,97.3061 150.2891,97.2709 150.2891,97.2709 150.3256,97.2512 150.5032,97.1129 150.6557,96.9473 150.7789,96.7588 150.8693,96.5526 150.9246,96.3344 150.9432,96.1100 150.9246,95.8856 150.8693,95.6674 150.7789,95.4612 150.7627,95.4365 150.6557,95.2727 150.6557,95.2727 150.5032,95.1071 150.5032,95.1071 150.3256,94.9688 150.3256,94.9688 150.3256,94.9688 150.2891,94.9491 150.2395,94.8998 150.2244,94.8316 150.2485,94.7661 150.2891,94.7309 150.2891,94.7309 150.3256,94.7112 150.5032,94.5729 150.6557,94.4073 150.7789,94.2188 150.8693,94.0126 150.9246,93.7944 150.9432,93.5700 150.9246,93.3456 150.8693,93.1274 150.7789,92.9212 150.7627,92.8965 150.6557,92.7327 150.6557,92.7327 150.5032,92.5671 150.5032,92.5671 150.3256,92.4288 150.3256,92.4288 150.1276,92.3217 150.1276,92.3217 150.1276,92.3217 150.1276,92.3217 150.1276,92.3217 149.9146,92.2486 149.6926,92.2115 149.4674,92.2115 149.2454,92.2486 149.0324,92.3217 149.0324,92.3217 148.8344,92.4288 148.8344,92.4288 148.6568,92.5671 148.6568,92.5671 148.5043,92.7327 148.5043,92.7327 148.4138,92.8712 148.3607,92.9166 148.2914,92.9260 148.2281,92.8965 148.2062,92.8712 148.1157,92.7327 148.1157,92.7327 147.9632,92.5671 147.9632,92.5671 147.7856,92.4288 147.7856,92.4288 147.5876,92.3217 147.5876,92.3217 147.5876,92.3217 147.5876,92.3217 147.5876,92.3217 147.3746,92.2486 147.1526,92.2115 146.9274,92.2115 146.7054,92.2486 146.4924,92.3217 146.4924,92.3217 146.2944,92.4288 146.2944,92.4288 146.1168,92.5671 146.1168,92.5671 145.9643,92.7327 145.9643,92.7327 145.8411,92.9212 145.7507,93.1274 145.6954,93.3456 145.6954,93.3456 145.6768,93.5700 138.8945,93.5700 138.8945,87.0736 147.4947,87.0736 147.5140,87.2697 147.5712,87.4583 147.6641,87.6321 147.6641,87.6321 147.7891,87.7845 147.9415,87.9095 147.9415,87.9095 148.1153,88.0024 148.1153,88.0024 148.1153,88.0024 148.3039,88.0596 148.5000,88.0789 148.6961,88.0596 148.8847,88.0024 149.0585,87.9095 149.2109,87.7845 149.3359,87.6321 149.4288,87.4583 149.4860,87.2697 149.5053,87.0736 149.4860,86.8775 149.4288,86.6889 149.4288,86.6889 149.4288,86.6889 149.3359,86.5151 149.3359,86.5151 149.2109,86.3627 149.0585,86.2377 149.0585,86.2377 148.8847,86.1448 148.8847,86.1448 148.6961,86.0876 148.6961,86.0876 148.5000,86.0683 148.3039,86.0876 148.1153,86.1448 147.9415,86.2377 147.9415,86.2377 147.7891,86.3627 147.6641,86.5151 147.6641,86.5151 147.5712,86.6889 147.5140,86.8775 147.4947,87.0736 138.8945,87.0736 138.8945,85.3585 138.9142,85.2915 138.9670,85.2457 139.0185,85.2345 157.9815,85.2345 Z"/> 
</g> 
</g><g id="substrate-pads" style="fill:#c4c1ba; stroke:#c4c1ba;" mask="url(#pads-mask)"><g style="fill: none;stroke: #c4c1ba;stroke-width: 0.1500;stroke-opacity: 1;stroke-linecap: round;stroke-linejoin: round">
<g transform="rotate(-90.000000 140.8800 93.9800)">
<text x="140.8800" y="93.9800" transform="scale(-1 1) translate(-281.759998 0)" textLength="8.3929" font-size="1.3333" lengthAdjust="spacingAndGlyphs" text-anchor="start" opacity="0" stroke-opacity="0">GHxPIN01A</text>
</g>
<g class="stroked-text"><desc>GHxPIN01A</desc>
<path d="M139.7974 94.8406 L139.7498 94.7454 "/>
<path d="M139.7498 94.7454 L139.7498 94.6025 "/>
<path d="M139.7498 94.6025 L139.7974 94.4596 "/>
<path d="M139.7974 94.4596 L139.8927 94.3644 "/>
<path d="M139.8927 94.3644 L139.9879 94.3168 "/>
<path d="M139.9879 94.3168 L140.1784 94.2692 "/>
<path d="M140.1784 94.2692 L140.3212 94.2692 "/>
<path d="M140.3212 94.2692 L140.5117 94.3168 "/>
<path d="M140.5117 94.3168 L140.6070 94.3644 "/>
<path d="M140.6070 94.3644 L140.7022 94.4596 "/>
<path d="M140.7022 94.4596 L140.7498 94.6025 "/>
<path d="M140.7498 94.6025 L140.7498 94.6977 "/>
<path d="M140.7498 94.6977 L140.7022 94.8406 "/>
<path d="M140.7022 94.8406 L140.6546 94.8882 "/>
<path d="M140.6546 94.8882 L140.3212 94.8882 "/>
<path d="M140.3212 94.8882 L140.3212 94.6977 "/>
<path d="M140.7498 95.3168 L139.7498 95.3168 "/>
<path d="M140.2260 95.3168 L140.2260 95.8882 "/>
<path d="M140.7498 95.8882 L139.7498 95.8882 "/>
<path d="M140.7498 96.2692 L140.0832 96.7930 "/>
<path d="M140.0832 96.2692 L140.7498 96.7930 "/>
<path d="M140.7498 97.1739 L139.7498 97.1739 "/>
<path d="M139.7498 97.1739 L139.7498 97.5549 "/>
<path d="M139.7498 97.5549 L139.7974 97.6501 "/>
<path d="M139.7974 97.6501 L139.8451 97.6977 "/>
<path d="M139.8451 97.6977 L139.9403 97.7454 "/>
<path d="M139.9403 97.7454 L140.0832 97.7454 "/>
<path d="M140.0832 97.7454 L140.1784 97.6977 "/>
<path d="M140.1784 97.6977 L140.2260 97.6501 "/>
<path d="M140.2260 97.6501 L140.2736 97.5549 "/>
<path d="M140.2736 97.5549 L140.2736 97.1739 "/>
<path d="M140.7498 98.1739 L139.7498 98.1739 "/>
<path d="M140.7498 98.6501 L139.7498 98.6501 "/>
<path d="M139.7498 98.6501 L140.7498 99.2215 "/>
<path d="M140.7498 99.2215 L139.7498 99.2215 "/>
<path d="M139.7498 99.8882 L139.7498 99.9834 "/>
<path d="M139.7498 99.9834 L139.7974 100.0787 "/>
<path d="M139.7974 100.0787 L139.8451 100.1263 "/>
<path d="M139.8451 100.1263 L139.9403 100.1739 "/>
<path d="M139.9403 100.1739 L140.1308 100.2215 "/>
<path d="M140.1308 100.2215 L140.3689 100.2215 "/>
<path d="M140.3689 100.2215 L140.5593 100.1739 "/>
<path d="M140.5593 100.1739 L140.6546 100.1263 "/>
<path d="M140.6546 100.1263 L140.7022 100.0787 "/>
<path d="M140.7022 100.0787 L140.7498 99.9834 "/>
<path d="M140.7498 99.9834 L140.7498 99.8882 "/>
<path d="M140.7498 99.8882 L140.7022 99.7930 "/>
<path d="M140.7022 99.7930 L140.6546 99.7454 "/>
<path d="M140.6546 99.7454 L140.5593 99.6977 "/>
<path d="M140.5593 99.6977 L140.3689 99.6501 "/>
<path d="M140.3689 99.6501 L140.1308 99.6501 "/>
<path d="M140.1308 99.6501 L139.9403 99.6977 "/>
<path d="M139.9403 99.6977 L139.8451 99.7454 "/>
<path d="M139.8451 99.7454 L139.7974 99.7930 "/>
<path d="M139.7974 99.7930 L139.7498 99.8882 "/>
<path d="M140.7498 101.1739 L140.7498 100.6025 "/>
<path d="M140.7498 100.8882 L139.7498 100.8882 "/>
<path d="M139.7498 100.8882 L139.8927 100.7930 "/>
<path d="M139.8927 100.7930 L139.9879 100.6977 "/>
<path d="M139.9879 100.6977 L140.0355 100.6025 "/>
<path d="M140.4641 101.5549 L140.4641 102.0311 "/>
<path d="M140.7498 101.4596 L139.7498 101.7930 "/>
<path d="M139.7498 101.7930 L140.7498 102.1263 "/>
</g></g>
<g style="fill: #c4c1ba;fill-opacity: 1.0000;stroke: none">
<circle cx="153.5800" cy="89.7600" r="3.0000"/> 
</g>
<g style="fill: #c4c1ba;fill-opacity: 1.0000;stroke: none">
<circle cx="153.5800" cy="120.2400" r="3.0000"/> 
</g>
<g style="fill: #c4c1ba;fill-opacity: 1.0000;stroke: none">
<circle cx="143.4200" cy="120.2400" r="3.0000"/> 
<path style="fill: #c4c1ba;fill-opacity: 1.0000;stroke: none;fill-rule: evenodd" d="M 150.4300,115.5800 150.4300,117.2800 148.7300,117.2800 148.7300,115.5800 Z"/> 
</g>
<g style="fill: #c4c1ba;fill-opacity: 1.0000;stroke: none">
<circle cx="147.0400" cy="116.4300" r="0.8500"/> 
<circle cx="149.5800" cy="113.8900" r="0.8500"/> 
<circle cx="147.0400" cy="113.8900" r="0.8500"/> 
<circle cx="149.5800" cy="111.3500" r="0.8500"/> 
<circle cx="147.0400" cy="111.3500" r="0.8500"/> 
<circle cx="149.5800" cy="108.8100" r="0.8500"/> 
<circle cx="147.0400" cy="108.8100" r="0.8500"/> 
<circle cx="149.5800" cy="106.2700" r="0.8500"/> 
<circle cx="147.0400" cy="106.2700" r="0.8500"/> 
<circle cx="149.5800" cy="103.7300" r="0.8500"/> 
<circle cx="147.0400" cy="103.7300" r="0.8500"/> 
<circle cx="149.5800" cy="101.1900" r="0.8500"/> 
<circle cx="147.0400" cy="101.1900" r="0.8500"/> 
<circle cx="149.5800" cy="98.6500" r="0.8500"/> 
<circle cx="147.0400" cy="98.6500" r="0.8500"/> 
<circle cx="149.5800" cy="96.1100" r="0.8500"/> 
<circle cx="147.0400" cy="96.1100" r="0.8500"/> 
<circle cx="149.5800" cy="93.5700" r="0.8500"/> 
<circle cx="147.0400" cy="93.5700" r="0.8500"/> 
<circle cx="143.4200" cy="89.7600" r="3.0000"/> 
</g>
<g style="fill: #c4c1ba;fill-opacity: 1.0000;stroke: none">
<circle cx="148.5508" cy="123.0848" r="0.5000"/> 
</g>
<g style="fill: #c4c1ba;fill-opacity: 1.0000;stroke: none">
<circle cx="148.5000" cy="87.0736" r="0.5000"/> 
<path style="fill: #c4c1ba;fill-opacity: 1.0000;stroke: none;fill-rule: evenodd" d="M 158.1055,114.5388 154.6400,114.5100 154.6600,96.7400 158.1055,96.7288 Z"/> 
<path style="fill: #c4c1ba;fill-opacity: 1.0000;stroke: none;fill-rule: evenodd" d="M 158.0485,85.2542 158.0943,85.3070 158.1055,85.3585 158.1055,96.7288 154.6600,96.7400 154.6400,114.5100 158.1055,114.5388 158.1055,124.6415 158.0858,124.7085 158.0330,124.7543 157.9815,124.7655 139.0185,124.7655 138.9515,124.7458 138.9057,124.6930 138.8945,124.6415 138.8945,123.0848 147.5455,123.0848 147.5648,123.2809 147.6220,123.4695 147.7149,123.6433 147.7149,123.6433 147.8399,123.7957 147.9923,123.9207 147.9923,123.9207 148.1661,124.0136 148.1661,124.0136 148.1661,124.0136 148.3547,124.0708 148.5508,124.0901 148.7469,124.0708 148.9355,124.0136 149.1093,123.9207 149.2617,123.7957 149.3867,123.6433 149.4796,123.4695 149.5368,123.2809 149.5561,123.0848 149.5368,122.8887 149.4796,122.7001 149.4796,122.7001 149.4796,122.7001 149.3867,122.5263 149.3867,122.5263 149.2617,122.3739 149.1093,122.2489 149.1093,122.2489 148.9355,122.1560 148.9355,122.1560 148.7469,122.0988 148.7469,122.0988 148.5508,122.0795 148.3547,122.0988 148.1661,122.1560 147.9923,122.2489 147.9923,122.2489 147.8399,122.3739 147.7149,122.5263 147.7149,122.5263 147.6220,122.7001 147.5648,122.8887 147.5455,123.0848 138.8945,123.0848 138.8945,102.7157 139.1599,102.7157 141.3396,102.7157 141.3396,93.6793 139.1599,93.6793 139.1599,102.7157 138.8945,102.7157 138.8945,93.5700 145.6768,93.5700 145.6768,93.5700 145.6954,93.7944 145.6954,93.7944 145.7507,94.0126 145.8411,94.2188 145.9643,94.4073 145.9643,94.4073 146.1168,94.5729 146.1168,94.5729 146.2944,94.7112 146.2944,94.7112 146.2944,94.7112 146.3309,94.7309 146.3805,94.7802 146.3956,94.8484 146.3715,94.9139 146.3309,94.9491 146.2944,94.9688 146.2944,94.9688 146.1168,95.1071 146.1168,95.1071 145.9643,95.2727 145.9643,95.2727 145.8411,95.4612 145.7507,95.6674 145.6954,95.8856 145.6954,95.8856 145.6768,96.1100 145.6768,96.1100 145.6954,96.3344 145.6954,96.3344 145.7507,96.5526 145.8411,96.7588 145.9643,96.9473 145.9643,96.9473 146.1168,97.1129 146.1168,97.1129 146.2944,97.2512 146.2944,97.2512 146.2944,97.2512 146.3309,97.2709 146.3805,97.3202 146.3956,97.3884 146.3715,97.4539 146.3309,97.4891 146.2944,97.5088 146.2944,97.5088 146.1168,97.6471 146.1168,97.6471 145.9643,97.8127 145.9643,97.8127 145.8411,98.0012 145.7507,98.2074 145.6954,98.4256 145.6954,98.4256 145.6768,98.6500 145.6768,98.6500 145.6954,98.8744 145.6954,98.8744 145.7507,99.0926 145.8411,99.2988 145.9643,99.4873 145.9643,99.4873 146.1168,99.6529 146.1168,99.6529 146.2944,99.7912 146.2944,99.7912 146.2944,99.7912 146.3309,99.8109 146.3805,99.8602 146.3956,99.9284 146.3715,99.9939 146.3309,100.0291 146.2944,100.0488 146.2944,100.0488 146.1168,100.1871 146.1168,100.1871 145.9643,100.3527 145.9643,100.3527 145.8411,100.5412 145.7507,100.7474 145.6954,100.9656 145.6954,100.9656 145.6768,101.1900 145.6768,101.1900 145.6954,101.4144 145.6954,101.4144 145.7507,101.6326 145.8411,101.8388 145.9643,102.0273 145.9643,102.0273 146.1168,102.1929 146.1168,102.1929 146.2944,102.3312 146.2944,102.3312 146.2944,102.3312 146.3309,102.3509 146.3805,102.4002 146.3956,102.4684 146.3715,102.5339 146.3309,102.5691 146.2944,102.5888 146.2944,102.5888 146.1168,102.7271 146.1168,102.7271 145.9643,102.8927 145.9643,102.8927 145.8411,103.0812 145.7507,103.2874 145.6954,103.5056 145.6954,103.5056 145.6768,103.7300 145.6768,103.7300 145.6954,103.9544 145.6954,103.9544 145.7507,104.1726 145.8411,104.3788 145.9643,104.5673 145.9643,104.5673 146.1168,104.7329 146.1168,104.7329 146.2944,104.8712 146.2944,104.8712 146.2944,104.8712 146.3309,104.8909 146.3805,104.9402 146.3956,105.0084 146.3715,105.0739 146.3309,105.1091 146.2944,105.1288 146.2944,105.1288 146.1168,105.2671 146.1168,105.2671 145.9643,105.4327 145.9643,105.4327 145.8411,105.6212 145.7507,105.8274 145.6954,106.0456 145.6954,106.0456 145.6768,106.2700 145.6768,106.2700 145.6954,106.4944 145.6954,106.4944 145.7507,106.7126 145.8411,106.9188 145.9643,107.1073 145.9643,107.1073 146.1168,107.2729 146.1168,107.2729 146.2944,107.4112 146.2944,107.4112 146.2944,107.4112 146.3309,107.4309 146.3805,107.4802 146.3956,107.5484 146.3715,107.6139 146.3309,107.6491 146.2944,107.6688 146.2944,107.6688 146.1168,107.8071 146.1168,107.8071 145.9643,107.9727 145.9643,107.9727 145.8411,108.1612 145.7507,108.3674 145.6954,108.5856 145.6954,108.5856 145.6768,108.8100 145.6768,108.8100 145.6954,109.0344 145.6954,109.0344 145.7507,109.2526 145.8411,109.4588 145.9643,109.6473 145.9643,109.6473 146.1168,109.8129 146.1168,109.8129 146.2944,109.9512 146.2944,109.9512 146.2944,109.9512 146.3309,109.9709 146.3805,110.0202 146.3956,110.0884 146.3715,110.1539 146.3309,110.1891 146.2944,110.2088 146.2944,110.2088 146.1168,110.3471 146.1168,110.3471 145.9643,110.5127 145.9643,110.5127 145.8411,110.7012 145.7507,110.9074 145.6954,111.1256 145.6954,111.1256 145.6768,111.3500 145.6768,111.3500 145.6954,111.5744 145.6954,111.5744 145.7507,111.7926 145.8411,111.9988 145.9643,112.1873 145.9643,112.1873 146.1168,112.3529 146.1168,112.3529 146.2944,112.4912 146.2944,112.4912 146.2944,112.4912 146.3309,112.5109 146.3805,112.5602 146.3956,112.6284 146.3715,112.6939 146.3309,112.7291 146.2944,112.7488 146.2944,112.7488 146.1168,112.8871 146.1168,112.8871 145.9643,113.0527 145.9643,113.0527 145.8411,113.2412 145.7507,113.4474 145.6954,113.6656 145.6954,113.6656 145.6768,113.8900 145.6768,113.8900 145.6954,114.1144 145.6954,114.1144 145.7507,114.3326 145.8411,114.5388 145.9643,114.7273 145.9643,114.7273 146.1095,114.8850 146.1168,114.8929 146.2944,115.0312 146.2944,115.0312 146.2944,115.0312 146.3309,115.0509 146.3805,115.1002 146.3956,115.1684 146.3715,115.2339 146.3309,115.2691 146.2944,115.2888 146.2944,115.2888 146.1168,115.4271 146.1168,115.4271 145.9643,115.5927 145.9643,115.5927 145.8411,115.7812 145.7507,115.9874 145.6954,116.2056 145.6954,116.2056 145.6768,116.4300 145.6768,116.4300 145.6954,116.6544 145.6954,116.6544 145.7507,116.8726 145.8411,117.0788 145.9643,117.2673 145.9643,117.2673 146.0910,117.4049 146.1168,117.4329 146.2944,117.5712 146.2944,117.5712 146.2944,117.5712 146.4211,117.6398 146.4924,117.6783 146.7054,117.7514 146.9274,117.7885 147.1526,117.7885 147.3746,117.7514 147.5876,117.6783 147.7856,117.5712 147.9632,117.4329 148.0265,117.3642 148.0863,117.3282 148.1562,117.3303 148.2138,117.3699 148.2339,117.4049 148.2791,117.5262 148.3667,117.6433 148.4838,117.7309 148.6208,117.7820 148.6480,117.7849 148.6813,117.7885 148.6814,117.7885 150.4786,117.7885 150.4787,117.7885 150.5057,117.7856 150.5392,117.7820 150.6762,117.7309 150.7933,117.6433 150.8809,117.5262 150.9320,117.3892 150.9356,117.3557 150.9385,117.3287 150.9385,117.3286 150.9385,115.5314 150.9385,115.5313 150.9347,115.4958 150.9320,115.4708 150.8809,115.3338 150.7933,115.2167 150.6762,115.1291 150.5584,115.0852 150.5025,115.0433 150.4781,114.9778 150.4929,114.9096 150.5105,114.8850 150.6557,114.7273 150.7789,114.5388 150.8693,114.3326 150.9246,114.1144 150.9432,113.8900 150.9246,113.6656 150.8693,113.4474 150.7789,113.2412 150.7627,113.2165 150.6557,113.0527 150.6557,113.0527 150.5032,112.8871 150.5032,112.8871 150.3256,112.7488 150.3256,112.7488 150.3256,112.7488 150.2891,112.7291 150.2395,112.6798 150.2244,112.6116 150.2485,112.5461 150.2891,112.5109 150.2891,112.5109 150.3256,112.4912 150.5032,112.3529 150.6557,112.1873 150.7789,111.9988 150.8693,111.7926 150.9246,111.5744 150.9432,111.3500 150.9246,111.1256 150.8693,110.9074 150.7789,110.7012 150.7627,110.6765 150.6557,110.5127 150.6557,110.5127 150.5032,110.3471 150.5032,110.3471 150.3256,110.2088 150.3256,110.2088 150.3256,110.2088 150.2891,110.1891 150.2395,110.1398 150.2244,110.0716 150.2485,110.0061 150.2891,109.9709 150.2891,109.9709 150.3256,109.9512 150.5032,109.8129 150.6557,109.6473 150.7789,109.4588 150.8693,109.2526 150.9246,109.0344 150.9432,108.8100 150.9246,108.5856 150.8693,108.3674 150.7789,108.1612 150.7627,108.1365 150.6557,107.9727 150.6557,107.9727 150.5032,107.8071 150.5032,107.8071 150.3256,107.6688 150.3256,107.6688 150.3256,107.6688 150.2891,107.6491 150.2395,107.5998 150.2244,107.5316 150.2485,107.4661 150.2891,107.4309 150.2891,107.4309 150.3256,107.4112 150.5032,107.2729 150.6557,107.1073 150.7789,106.9188 150.8693,106.7126 150.9246,106.4944 150.9432,106.2700 150.9246,106.0456 150.8693,105.8274 150.7789,105.6212 150.7627,105.5965 150.6557,105.4327 150.6557,105.4327 150.5032,105.2671 150.5032,105.2671 150.3256,105.1288 150.3256,105.1288 150.3256,105.1288 150.2891,105.1091 150.2395,105.0598 150.2244,104.9916 150.2485,104.9261 150.2891,104.8909 150.2891,104.8909 150.3256,104.8712 150.5032,104.7329 150.6557,104.5673 150.7789,104.3788 150.8693,104.1726 150.9246,103.9544 150.9432,103.7300 150.9246,103.5056 150.8693,103.2874 150.7789,103.0812 150.7627,103.0565 150.6557,102.8927 150.6557,102.8927 150.5032,102.7271 150.5032,102.7271 150.3256,102.5888 150.3256,102.5888 150.3256,102.5888 150.2891,102.5691 150.2395,102.5198 150.2244,102.4516 150.2485,102.3861 150.2891,102.3509 150.2891,102.3509 150.3256,102.3312 150.5032,102.1929 150.6557,102.0273 150.7789,101.8388 150.8693,101.6326 150.9246,101.4144 150.9432,101.1900 150.9246,100.9656 150.8693,100.7474 150.7789,100.5412 150.7627,100.5165 150.6557,100.3527 150.6557,100.3527 150.5032,100.1871 150.5032,100.1871 150.3256,100.0488 150.3256,100.0488 150.3256,100.0488 150.2891,100.0291 150.2395,99.9798 150.2244,99.9116 150.2485,99.8461 150.2891,99.8109 150.2891,99.8109 150.3256,99.7912 150.5032,99.6529 150.6557,99.4873 150.7789,99.2988 150.8693,99.0926 150.9246,98.8744 150.9432,98.6500 150.9246,98.4256 150.8693,98.2074 150.7789,98.0012 150.7627,97.9765 150.6557,97.8127 150.6557,97.8127 150.5032,97.6471 150.5032,97.6471 150.3256,97.5088 150.3256,97.5088 150.3256,97.5088 150.2891,97.4891 150.2395,97.4398 150.2244,97.3716 150.2485,97.3061 150.2891,97.2709 150.2891,97.2709 150.3256,97.2512 150.5032,97.1129 150.6557,96.9473 150.7789,96.7588 150.8693,96.5526 150.9246,96.3344 150.9432,96.1100 150.9246,95.8856 150.8693,95.6674 150.7789,95.4612 150.7627,95.4365 150.6557,95.2727 150.6557,95.2727 150.5032,95.1071 150.5032,95.1071 150.3256,94.9688 150.3256,94.9688 150.3256,94.9688 150.2891,94.9491 150.2395,94.8998 150.2244,94.8316 150.2485,94.7661 150.2891,94.7309 150.2891,94.7309 150.3256,94.7112 150.5032,94.5729 150.6557,94.4073 150.7789,94.2188 150.8693,94.0126 150.9246,93.7944 150.9432,93.5700 150.9246,93.3456 150.8693,93.1274 150.7789,92.9212 150.7627,92.8965 150.6557,92.7327 150.6557,92.7327 150.5032,92.5671 150.5032,92.5671 150.3256,92.4288 150.3256,92.4288 150.1276,92.3217 150.1276,92.3217 150.1276,92.3217 150.1276,92.3217 150.1276,92.3217 149.9146,92.2486 149.6926,92.2115 149.4674,92.2115 149.2454,92.2486 149.0324,92.3217 149.0324,92.3217 148.8344,92.4288 148.8344,92.4288 148.6568,92.5671 148.6568,92.5671 148.5043,92.7327 148.5043,92.7327 148.4138,92.8712 148.3607,92.9166 148.2914,92.9260 148.2281,92.8965 148.2062,92.8712 148.1157,92.7327 148.1157,92.7327 147.9632,92.5671 147.9632,92.5671 147.7856,92.4288 147.7856,92.4288 147.5876,92.3217 147.5876,92.3217 147.5876,92.3217 147.5876,92.3217 147.5876,92.3217 147.3746,92.2486 147.1526,92.2115 146.9274,92.2115 146.7054,92.2486 146.4924,92.3217 146.4924,92.3217 146.2944,92.4288 146.2944,92.4288 146.1168,92.5671 146.1168,92.5671 145.9643,92.7327 145.9643,92.7327 145.8411,92.9212 145.7507,93.1274 145.6954,93.3456 145.6954,93.3456 145.6768,93.5700 138.8945,93.5700 138.8945,87.0736 147.4947,87.0736 147.5140,87.2697 147.5712,87.4583 147.6641,87.6321 147.6641,87.6321 147.7891,87.7845 147.9415,87.9095 147.9415,87.9095 148.1153,88.0024 148.1153,88.0024 148.1153,88.0024 148.3039,88.0596 148.5000,88.0789 148.6961,88.0596 148.8847,88.0024 149.0585,87.9095 149.2109,87.7845 149.3359,87.6321 149.4288,87.4583 149.4860,87.2697 149.5053,87.0736 149.4860,86.8775 149.4288,86.6889 149.4288,86.6889 149.4288,86.6889 149.3359,86.5151 149.3359,86.5151 149.2109,86.3627 149.0585,86.2377 149.0585,86.2377 148.8847,86.1448 148.8847,86.1448 148.6961,86.0876 148.6961,86.0876 148.5000,86.0683 148.3039,86.0876 148.1153,86.1448 147.9415,86.2377 147.9415,86.2377 147.7891,86.3627 147.6641,86.5151 147.6641,86.5151 147.5712,86.6889 147.5140,86.8775 147.4947,87.0736 138.8945,87.0736 138.8945,85.3585 138.9142,85.2915 138.9670,85.2457 139.0185,85.2345 157.9815,85.2345 Z"/> 
</g> 
</g><g id="substrate-outline" style="fill:#000000; stroke:#000000; stroke-width: 0.15"><g style="fill: #000000;fill-opacity: 1.0000;stroke: #000000;stroke-opacity: 1.0000;stroke-linecap: round;stroke-linejoin: round" transform="translate(0 0) scale(1 1)">
<path style="fill: none;stroke: #000000;stroke-width: #000000;stroke-opacity: 1;stroke-linecap: round;stroke-linejoin: round" d="M 138.5940,84.9340 158.4060,84.9340 158.4060,125.0660 138.5940,125.0660 Z"/> 
</g> 
<path d="M -1.5 0.0 A 1.5 1.5 0 1 1 1.5 0.0 L 1.5 -0.0 A 1.5 1.5 0 1 1 -1.5 -0.0 Z" transform="translate(153.58 89.76) rotate(-0.0)"/><path d="M -1.5 0.0 A 1.5 1.5 0 1 1 1.5 0.0 L 1.5 -0.0 A 1.5 1.5 0 1 1 -1.5 -0.0 Z" transform="translate(153.58 120.24) rotate(-0.0)"/><path d="M -1.5 0.0 A 1.5 1.5 0 1 1 1.5 0.0 L 1.5 -0.0 A 1.5 1.5 0 1 1 -1.5 -0.0 Z" transform="translate(143.42 120.24) rotate(-0.0)"/><path d="M -0.5 0.0 A 0.5 0.5 0 1 1 0.5 0.0 L 0.5 -0.0 A 0.5 0.5 0 1 1 -0.5 -0.0 Z" transform="translate(149.579999 116.43) rotate(-180.0)"/><path d="M -0.5 0.0 A 0.5 0.5 0 1 1 0.5 0.0 L 0.5 -0.0 A 0.5 0.5 0 1 1 -0.5 -0.0 Z" transform="translate(147.039999 116.43) rotate(-180.0)"/><path d="M -0.5 0.0 A 0.5 0.5 0 1 1 0.5 0.0 L 0.5 -0.0 A 0.5 0.5 0 1 1 -0.5 -0.0 Z" transform="translate(149.579999 113.89) rotate(-180.0)"/><path d="M -0.5 0.0 A 0.5 0.5 0 1 1 0.5 0.0 L 0.5 -0.0 A 0.5 0.5 0 1 1 -0.5 -0.0 Z" transform="translate(147.039999 113.89) rotate(-180.0)"/><path d="M -0.5 0.0 A 0.5 0.5 0 1 1 0.5 0.0 L 0.5 -0.0 A 0.5 0.5 0 1 1 -0.5 -0.0 Z" transform="translate(149.579999 111.35) rotate(-180.0)"/><path d="M -0.5 0.0 A 0.5 0.5 0 1 1 0.5 0.0 L 0.5 -0.0 A 0.5 0.5 0 1 1 -0.5 -0.0 Z" transform="translate(147.039999 111.35) rotate(-180.0)"/><path d="M -0.5 0.0 A 0.5 0.5 0 1 1 0.5 0.0 L 0.5 -0.0 A 0.5 0.5 0 1 1 -0.5 -0.0 Z" transform="translate(149.579999 108.81) rotate(-180.0)"/><path d="M -0.5 0.0 A 0.5 0.5 0 1 1 0.5 0.0 L 0.5 -0.0 A 0.5 0.5 0 1 1 -0.5 -0.0 Z" transform="translate(147.039999 108.81) rotate(-180.0)"/><path d="M -0.5 0.0 A 0.5 0.5 0 1 1 0.5 0.0 L 0.5 -0.0 A 0.5 0.5 0 1 1 -0.5 -0.0 Z" transform="translate(149.579999 106.27) rotate(-180.0)"/><path d="M -0.5 0.0 A 0.5 0.5 0 1 1 0.5 0.0 L 0.5 -0.0 A 0.5 0.5 0 1 1 -0.5 -0.0 Z" transform="translate(147.039999 106.27) rotate(-180.0)"/><path d="M -0.5 0.0 A 0.5 0.5 0 1 1 0.5 0.0 L 0.5 -0.0 A 0.5 0.5 0 1 1 -0.5 -0.0 Z" transform="translate(149.579999 103.73) rotate(-180.0)"/><path d="M -0.5 0.0 A 0.5 0.5 0 1 1 0.5 0.0 L 0.5 -0.0 A 0.5 0.5 0 1 1 -0.5 -0.0 Z" transform="translate(147.039999 103.73) rotate(-180.0)"/><path d="M -0.5 0.0 A 0.5 0.5 0 1 1 0.5 0.0 L 0.5 -0.0 A 0.5 0.5 0 1 1 -0.5 -0.0 Z" transform="translate(149.579999 101.19) rotate(-180.0)"/><path d="M -0.5 0.0 A 0.5 0.5 0 1 1 0.5 0.0 L 0.5 -0.0 A 0.5 0.5 0 1 1 -0.5 -0.0 Z" transform="translate(147.039999 101.19) rotate(-180.0)"/><path d="M -0.5 0.0 A 0.5 0.5 0 1 1 0.5 0.0 L 0.5 -0.0 A 0.5 0.5 0 1 1 -0.5 -0.0 Z" transform="translate(149.579999 98.65) rotate(-180.0)"/><path d="M -0.5 0.0 A 0.5 0.5 0 1 1 0.5 0.0 L 0.5 -0.0 A 0.5 0.5 0 1 1 -0.5 -0.0 Z" transform="translate(147.039999 98.65) rotate(-180.0)"/><path d="M -0.5 0.0 A 0.5 0.5 0 1 1 0.5 0.0 L 0.5 -0.0 A 0.5 0.5 0 1 1 -0.5 -0.0 Z" transform="translate(149.579999 96.11) rotate(-180.0)"/><path d="M -0.5 0.0 A 0.5 0.5 0 1 1 0.5 0.0 L 0.5 -0.0 A 0.5 0.5 0 1 1 -0.5 -0.0 Z" transform="translate(147.039999 96.11) rotate(-180.0)"/><path d="M -0.5 0.0 A 0.5 0.5 0 1 1 0.5 0.0 L 0.5 -0.0 A 0.5 0.5 0 1 1 -0.5 -0.0 Z" transform="translate(149.579999 93.57) rotate(-180.0)"/><path d="M -0.5 0.0 A 0.5 0.5 0 1 1 0.5 0.0 L 0.5 -0.0 A 0.5 0.5 0 1 1 -0.5 -0.0 Z" transform="translate(147.039999 93.57) rotate(-180.0)"/><path d="M -1.5 0.0 A 1.5 1.5 0 1 1 1.5 0.0 L 1.5 -0.0 A 1.5 1.5 0 1 1 -1.5 -0.0 Z" transform="translate(143.42 89.76) rotate(-0.0)"/></g></g></g><g transform="scale(-1,1)" id="componentContainer"><!--Fiducial:Fiducial_1mm_Mask2mm:FID2--><g transform="translate(148.550799 123.0848) scale(1.0, 1.0) rotate(-180.0) translate(-1.0 -1.0)"><g id="pref_12_Fiducial__Fiducial_1mm_Mask2mm_Fiducial"><circle r="0.5" cy="1" cx="1" id="pref_13mask" style="opacity:0.95;fill:#d6dcdb;fill-opacity:1;fill-rule:nonzero;stroke:url(#radialGradient4909);stroke-width:46.71763611;stroke-linecap:round;stroke-linejoin:round;stroke-miterlimit:4;stroke-dasharray:none;stroke-opacity:1"/>
  </g></g><!--Fiducial:Fiducial_1mm_Mask2mm:FID1--><g transform="translate(148.499999 87.0736) scale(1.0, 1.0) rotate(-180.0) translate(-1.0 -1.0)"><use xmlns:xlink="http://www.w3.org/1999/xlink" xlink:href="#pref_12_Fiducial__Fiducial_1mm_Mask2mm_Fiducial"/></g><!--Mlab_Mechanical:MountingHole_3mm.back:M2--><g transform="translate(153.58 89.76) scale(1.0, 1.0) rotate(-0.0) translate(-0.75 -0.75)"><g id="pref_12_Mlab_Mechanical__MountingHole_3mmback_HOLEM3"><defs xmlns:xlink="http://www.w3.org/1999/xlink" id="pref_14defs13">
    <linearGradient id="pref_14linearGradient3674">
      <stop style="stop-color:#2b2b2b;stop-opacity:1" offset="0" id="pref_14stop3666"/>
      <stop style="stop-color:#5e5e5e;stop-opacity:0.78431374" offset="0.48605427" id="pref_14stop4288"/>
      <stop style="stop-color:#838383;stop-opacity:0" offset="0.53796667" id="pref_14stop3668"/>
      <stop style="stop-color:#dcdcdc;stop-opacity:0" offset="0.76845002" id="pref_14stop3670"/>
      <stop style="stop-color:#e4e4e4;stop-opacity:0.88235301" offset="1" id="pref_14stop3672"/>
    </linearGradient>
    <linearGradient id="pref_14linearGradient2885">
      <stop style="stop-color:#8f8f8f;stop-opacity:1" offset="0" id="pref_14stop2881"/>
      <stop style="stop-color:#e5e5e5;stop-opacity:1" offset="1" id="pref_14stop2883"/>
    </linearGradient>
    <linearGradient id="pref_14linearGradient1894">
      <stop style="stop-color:#b2b2b2;stop-opacity:1" offset="0" id="pref_14stop1890"/>
      <stop style="stop-color:#838383;stop-opacity:1" offset="0.3359659" id="pref_14stop2785"/>
      <stop style="stop-color:#dcdcdc;stop-opacity:1" offset="0.76141548" id="pref_14stop2655"/>
      <stop style="stop-color:#bebebe;stop-opacity:1" offset="1" id="pref_14stop1892"/>
    </linearGradient>
    <linearGradient id="pref_14linearGradient3692-7">
      <stop style="stop-color:#d3d3d3;stop-opacity:1;" offset="0" id="pref_14stop3688"/>
      <stop style="stop-color:#b2b2b2;stop-opacity:1" offset="0.81006318" id="pref_14stop5318"/>
      <stop style="stop-color:#c8c8c8;stop-opacity:1" offset="0.87439835" id="pref_14stop4242"/>
      <stop style="stop-color:#b8b8b8;stop-opacity:1;" offset="0.94349736" id="pref_14stop4310"/>
      <stop style="stop-color:#aeaeae;stop-opacity:1" offset="1" id="pref_14stop3690"/>
    </linearGradient>
    <radialGradient xlink:href="#pref_14linearGradient3692-7" id="pref_14radialGradient1176" cx="0.75" cy="0.75" fx="0.75" fy="0.75" r="1.5" gradientUnits="userSpaceOnUse"/>
    <linearGradient xlink:href="#pref_14linearGradient1894" id="pref_14linearGradient1902" x1="-0.24704969" y1="-10.608996" x2="8.4657993" y2="-5.57863" gradientUnits="userSpaceOnUse"/>
    <linearGradient xlink:href="#pref_14linearGradient2885" id="pref_14linearGradient2887" x1="-0.24704971" y1="-8.0938129" x2="8.4657997" y2="-8.0938129" gradientUnits="userSpaceOnUse"/>
    <radialGradient xlink:href="#pref_14linearGradient3674" id="pref_14radialGradient3506" cx="4.109375" cy="-8.0938129" fx="4.109375" fy="-8.0938129" r="4.3564248" gradientTransform="matrix(1.1330715,0.01077876,-0.01098402,1.1546483,-0.63574335,1.2074004)" gradientUnits="userSpaceOnUse"/>
    <linearGradient xlink:href="#pref_14linearGradient1894" id="pref_14linearGradient1902-1" x1="-0.24704969" y1="-10.608996" x2="8.4657993" y2="-5.57863" gradientUnits="userSpaceOnUse"/>
    <linearGradient xlink:href="#pref_14linearGradient2885" id="pref_14linearGradient2887-3" x1="-0.2470497" y1="-8.0938129" x2="8.4657993" y2="-8.0938129" gradientUnits="userSpaceOnUse"/>
    <radialGradient xlink:href="#pref_14linearGradient3674" id="pref_14radialGradient3506-6" cx="4.109375" cy="-8.0938129" fx="4.109375" fy="-8.0938129" r="4.3564248" gradientTransform="matrix(1.1330715,0.01077876,-0.01098402,1.1546483,-0.63574335,1.2074004)" gradientUnits="userSpaceOnUse"/>
    <linearGradient xlink:href="#pref_14linearGradient3692" id="pref_14linearGradient6924" gradientUnits="userSpaceOnUse" x1="1.4987922" y1="4.3924975" x2="-1.0811033" y2="-3.0084407"/>
    <linearGradient id="pref_14linearGradient3692">
      <stop style="stop-color:#e4e4e4;stop-opacity:1" offset="0" id="pref_14stop6926"/>
      <stop style="stop-color:#e5e5e5;stop-opacity:1" offset="0.1656336" id="pref_14stop6928"/>
      <stop style="stop-color:#f5f5f5;stop-opacity:1" offset="0.29162589" id="pref_14stop6930"/>
      <stop style="stop-color:#c6c6c6;stop-opacity:1;" offset="0.38067153" id="pref_14stop6932"/>
      <stop style="stop-color:#dddddd;stop-opacity:1" offset="0.57577699" id="pref_14stop6934"/>
      <stop style="stop-color:#f2f2f2;stop-opacity:1" offset="0.66836077" id="pref_14stop6936"/>
      <stop style="stop-color:#ebebeb;stop-opacity:1" offset="0.79280978" id="pref_14stop6938"/>
      <stop style="stop-color:#efefef;stop-opacity:1" offset="1" id="pref_14stop6940"/>
    </linearGradient>
  </defs>
  <circle style="fill:url(#pref_14linearGradient6924);fill-opacity:1;stroke:#cecece;stroke-width:0.05;stroke-miterlimit:4;stroke-dasharray:none;stroke-opacity:1" id="pref_14path6642" cx="0.75" cy="0.75" r="3.5"/>
  <g xmlns:sodipodi="http://sodipodi.sourceforge.net/DTD/sodipodi-0.dtd" id="pref_14g5432-9" transform="rotate(16.945707,0.75000009,0.75000001)">
    <path sodipodi:type="star" style="opacity:1;fill:url(#pref_14linearGradient1902-1);fill-opacity:1;stroke:url(#pref_14linearGradient2887-3);stroke-width:0.0984229;stroke-linecap:round;stroke-linejoin:round;stroke-miterlimit:4;stroke-dasharray:none" id="pref_14path1634-2" sodipodi:sides="6" sodipodi:cx="4.109375" sodipodi:cy="-8.0938129" sodipodi:r1="5.0303659" sodipodi:r2="4.3564248" sodipodi:arg1="0.52359878" sodipodi:arg2="1.0471976" transform="matrix(0.47378978,0.39955401,-0.39955401,0.47378978,-4.4308952,2.9428486)" d="m 8.4657997,-5.57863 -4.3564247,2.515183 -4.35642471,-2.515183 2e-8,-5.030366 4.35642469,-2.515183 4.3564247,2.515183 z"/>
    <path sodipodi:type="star" style="opacity:1;fill:url(#pref_14radialGradient3506-6);fill-opacity:1;stroke:none;stroke-width:0.0984229;stroke-linecap:round;stroke-linejoin:round;stroke-miterlimit:4;stroke-dasharray:none" id="pref_14path1634-9-0" sodipodi:sides="6" sodipodi:cx="4.109375" sodipodi:cy="-8.0938129" sodipodi:r1="5.0303659" sodipodi:r2="4.3564248" sodipodi:arg1="0.52359878" sodipodi:arg2="1.0471976" transform="matrix(0.47378978,0.39955401,-0.39955401,0.47378978,-4.4308952,2.9428486)" d="m 8.4657997,-5.57863 -4.3564247,2.515183 -4.35642471,-2.515183 2e-8,-5.030366 4.35642469,-2.515183 4.3564247,2.515183 z"/>
  </g>
  <g xmlns:sodipodi="http://sodipodi.sourceforge.net/DTD/sodipodi-0.dtd" id="pref_14g5432">
    <path sodipodi:type="star" style="opacity:1;fill:url(#pref_14linearGradient1902);fill-opacity:1;stroke:url(#pref_14linearGradient2887);stroke-width:0.0984229;stroke-linecap:round;stroke-linejoin:round;stroke-miterlimit:4;stroke-dasharray:none" id="pref_14path1634" sodipodi:sides="6" sodipodi:cx="4.109375" sodipodi:cy="-8.0938129" sodipodi:r1="5.0303659" sodipodi:r2="4.3564248" sodipodi:arg1="0.52359878" sodipodi:arg2="1.0471976" d="m 8.4657997,-5.57863 -4.3564247,2.515183 -4.35642471,-2.515183 2e-8,-5.030366 4.35642469,-2.515183 4.3564247,2.515183 z" transform="matrix(0.47378978,0.39955401,-0.39955401,0.47378978,-4.4308952,2.9428486)"/>
    <path sodipodi:type="star" style="opacity:1;fill:url(#pref_14radialGradient3506);fill-opacity:1;stroke:none;stroke-width:0.0984229;stroke-linecap:round;stroke-linejoin:round;stroke-miterlimit:4;stroke-dasharray:none" id="pref_14path1634-9" sodipodi:sides="6" sodipodi:cx="4.109375" sodipodi:cy="-8.0938129" sodipodi:r1="5.0303659" sodipodi:r2="4.3564248" sodipodi:arg1="0.52359878" sodipodi:arg2="1.0471976" transform="matrix(0.47378978,0.39955401,-0.39955401,0.47378978,-4.4308952,2.9428486)" d="m 8.4657997,-5.57863 -4.3564247,2.515183 -4.35642471,-2.515183 2e-8,-5.030366 4.35642469,-2.515183 4.3564247,2.515183 z"/>
  </g>
  <circle style="opacity:1;fill:url(#pref_14radialGradient1176);fill-opacity:1;stroke-width:0.0202753;stroke:#848484;stroke-opacity:1" id="pref_14path1030" cx="0.75" cy="0.75" r="1.5"/>
</g></g><!--Mlab_Mechanical:MountingHole_3mm.back:M4--><g transform="translate(153.58 120.24) scale(1.0, 1.0) rotate(-0.0) translate(-0.75 -0.75)"><g id="pref_12_Mlab_Mechanical__MountingHole_3mmback_HOLE"><defs xmlns:xlink="http://www.w3.org/1999/xlink" id="pref_15defs13">
    <linearGradient id="pref_15linearGradient3674">
      <stop style="stop-color:#2b2b2b;stop-opacity:1" offset="0" id="pref_15stop3666"/>
      <stop style="stop-color:#5e5e5e;stop-opacity:0.78431374" offset="0.48605427" id="pref_15stop4288"/>
      <stop style="stop-color:#838383;stop-opacity:0" offset="0.53796667" id="pref_15stop3668"/>
      <stop style="stop-color:#dcdcdc;stop-opacity:0" offset="0.76845002" id="pref_15stop3670"/>
      <stop style="stop-color:#e4e4e4;stop-opacity:0.88235301" offset="1" id="pref_15stop3672"/>
    </linearGradient>
    <linearGradient id="pref_15linearGradient2885">
      <stop style="stop-color:#8f8f8f;stop-opacity:1" offset="0" id="pref_15stop2881"/>
      <stop style="stop-color:#e5e5e5;stop-opacity:1" offset="1" id="pref_15stop2883"/>
    </linearGradient>
    <linearGradient id="pref_15linearGradient1894">
      <stop style="stop-color:#b2b2b2;stop-opacity:1" offset="0" id="pref_15stop1890"/>
      <stop style="stop-color:#838383;stop-opacity:1" offset="0.3359659" id="pref_15stop2785"/>
      <stop style="stop-color:#dcdcdc;stop-opacity:1" offset="0.76141548" id="pref_15stop2655"/>
      <stop style="stop-color:#bebebe;stop-opacity:1" offset="1" id="pref_15stop1892"/>
    </linearGradient>
    <linearGradient id="pref_15linearGradient3692-7">
      <stop style="stop-color:#d3d3d3;stop-opacity:1;" offset="0" id="pref_15stop3688"/>
      <stop style="stop-color:#b2b2b2;stop-opacity:1" offset="0.81006318" id="pref_15stop5318"/>
      <stop style="stop-color:#c8c8c8;stop-opacity:1" offset="0.87439835" id="pref_15stop4242"/>
      <stop style="stop-color:#b8b8b8;stop-opacity:1;" offset="0.94349736" id="pref_15stop4310"/>
      <stop style="stop-color:#aeaeae;stop-opacity:1" offset="1" id="pref_15stop3690"/>
    </linearGradient>
    <radialGradient xlink:href="#pref_15linearGradient3692-7" id="pref_15radialGradient1176" cx="0.75" cy="0.75" fx="0.75" fy="0.75" r="1.5" gradientUnits="userSpaceOnUse"/>
    <linearGradient xlink:href="#pref_15linearGradient1894" id="pref_15linearGradient1902" x1="-0.24704969" y1="-10.608996" x2="8.4657993" y2="-5.57863" gradientUnits="userSpaceOnUse"/>
    <linearGradient xlink:href="#pref_15linearGradient2885" id="pref_15linearGradient2887" x1="-0.24704971" y1="-8.0938129" x2="8.4657997" y2="-8.0938129" gradientUnits="userSpaceOnUse"/>
    <radialGradient xlink:href="#pref_15linearGradient3674" id="pref_15radialGradient3506" cx="4.109375" cy="-8.0938129" fx="4.109375" fy="-8.0938129" r="4.3564248" gradientTransform="matrix(1.1330715,0.01077876,-0.01098402,1.1546483,-0.63574335,1.2074004)" gradientUnits="userSpaceOnUse"/>
    <linearGradient xlink:href="#pref_15linearGradient1894" id="pref_15linearGradient1902-1" x1="-0.24704969" y1="-10.608996" x2="8.4657993" y2="-5.57863" gradientUnits="userSpaceOnUse"/>
    <linearGradient xlink:href="#pref_15linearGradient2885" id="pref_15linearGradient2887-3" x1="-0.2470497" y1="-8.0938129" x2="8.4657993" y2="-8.0938129" gradientUnits="userSpaceOnUse"/>
    <radialGradient xlink:href="#pref_15linearGradient3674" id="pref_15radialGradient3506-6" cx="4.109375" cy="-8.0938129" fx="4.109375" fy="-8.0938129" r="4.3564248" gradientTransform="matrix(1.1330715,0.01077876,-0.01098402,1.1546483,-0.63574335,1.2074004)" gradientUnits="userSpaceOnUse"/>
    <linearGradient xlink:href="#pref_15linearGradient3692" id="pref_15linearGradient6924" gradientUnits="userSpaceOnUse" x1="1.4987922" y1="4.3924975" x2="-1.0811033" y2="-3.0084407"/>
    <linearGradient id="pref_15linearGradient3692">
      <stop style="stop-color:#e4e4e4;stop-opacity:1" offset="0" id="pref_15stop6926"/>
      <stop style="stop-color:#e5e5e5;stop-opacity:1" offset="0.1656336" id="pref_15stop6928"/>
      <stop style="stop-color:#f5f5f5;stop-opacity:1" offset="0.29162589" id="pref_15stop6930"/>
      <stop style="stop-color:#c6c6c6;stop-opacity:1;" offset="0.38067153" id="pref_15stop6932"/>
      <stop style="stop-color:#dddddd;stop-opacity:1" offset="0.57577699" id="pref_15stop6934"/>
      <stop style="stop-color:#f2f2f2;stop-opacity:1" offset="0.66836077" id="pref_15stop6936"/>
      <stop style="stop-color:#ebebeb;stop-opacity:1" offset="0.79280978" id="pref_15stop6938"/>
      <stop style="stop-color:#efefef;stop-opacity:1" offset="1" id="pref_15stop6940"/>
    </linearGradient>
  </defs>
  <circle style="fill:url(#pref_15linearGradient6924);fill-opacity:1;stroke:#cecece;stroke-width:0.05;stroke-miterlimit:4;stroke-dasharray:none;stroke-opacity:1" id="pref_15path6642" cx="0.75" cy="0.75" r="3.5"/>
  <g xmlns:sodipodi="http://sodipodi.sourceforge.net/DTD/sodipodi-0.dtd" id="pref_15g5432-9" transform="rotate(16.945707,0.75000009,0.75000001)">
    <path sodipodi:type="star" style="opacity:1;fill:url(#pref_15linearGradient1902-1);fill-opacity:1;stroke:url(#pref_15linearGradient2887-3);stroke-width:0.0984229;stroke-linecap:round;stroke-linejoin:round;stroke-miterlimit:4;stroke-dasharray:none" id="pref_15path1634-2" sodipodi:sides="6" sodipodi:cx="4.109375" sodipodi:cy="-8.0938129" sodipodi:r1="5.0303659" sodipodi:r2="4.3564248" sodipodi:arg1="0.52359878" sodipodi:arg2="1.0471976" transform="matrix(0.47378978,0.39955401,-0.39955401,0.47378978,-4.4308952,2.9428486)" d="m 8.4657997,-5.57863 -4.3564247,2.515183 -4.35642471,-2.515183 2e-8,-5.030366 4.35642469,-2.515183 4.3564247,2.515183 z"/>
    <path sodipodi:type="star" style="opacity:1;fill:url(#pref_15radialGradient3506-6);fill-opacity:1;stroke:none;stroke-width:0.0984229;stroke-linecap:round;stroke-linejoin:round;stroke-miterlimit:4;stroke-dasharray:none" id="pref_15path1634-9-0" sodipodi:sides="6" sodipodi:cx="4.109375" sodipodi:cy="-8.0938129" sodipodi:r1="5.0303659" sodipodi:r2="4.3564248" sodipodi:arg1="0.52359878" sodipodi:arg2="1.0471976" transform="matrix(0.47378978,0.39955401,-0.39955401,0.47378978,-4.4308952,2.9428486)" d="m 8.4657997,-5.57863 -4.3564247,2.515183 -4.35642471,-2.515183 2e-8,-5.030366 4.35642469,-2.515183 4.3564247,2.515183 z"/>
  </g>
  <g xmlns:sodipodi="http://sodipodi.sourceforge.net/DTD/sodipodi-0.dtd" id="pref_15g5432">
    <path sodipodi:type="star" style="opacity:1;fill:url(#pref_15linearGradient1902);fill-opacity:1;stroke:url(#pref_15linearGradient2887);stroke-width:0.0984229;stroke-linecap:round;stroke-linejoin:round;stroke-miterlimit:4;stroke-dasharray:none" id="pref_15path1634" sodipodi:sides="6" sodipodi:cx="4.109375" sodipodi:cy="-8.0938129" sodipodi:r1="5.0303659" sodipodi:r2="4.3564248" sodipodi:arg1="0.52359878" sodipodi:arg2="1.0471976" d="m 8.4657997,-5.57863 -4.3564247,2.515183 -4.35642471,-2.515183 2e-8,-5.030366 4.35642469,-2.515183 4.3564247,2.515183 z" transform="matrix(0.47378978,0.39955401,-0.39955401,0.47378978,-4.4308952,2.9428486)"/>
    <path sodipodi:type="star" style="opacity:1;fill:url(#pref_15radialGradient3506);fill-opacity:1;stroke:none;stroke-width:0.0984229;stroke-linecap:round;stroke-linejoin:round;stroke-miterlimit:4;stroke-dasharray:none" id="pref_15path1634-9" sodipodi:sides="6" sodipodi:cx="4.109375" sodipodi:cy="-8.0938129" sodipodi:r1="5.0303659" sodipodi:r2="4.3564248" sodipodi:arg1="0.52359878" sodipodi:arg2="1.0471976" transform="matrix(0.47378978,0.39955401,-0.39955401,0.47378978,-4.4308952,2.9428486)" d="m 8.4657997,-5.57863 -4.3564247,2.515183 -4.35642471,-2.515183 2e-8,-5.030366 4.35642469,-2.515183 4.3564247,2.515183 z"/>
  </g>
  <circle style="opacity:1;fill:url(#pref_15radialGradient1176);fill-opacity:1;stroke-width:0.0202753;stroke:#848484;stroke-opacity:1" id="pref_15path1030" cx="0.75" cy="0.75" r="1.5"/>
</g></g><!--Mlab_Mechanical:MountingHole_3mm.back:M3--><g transform="translate(143.42 120.24) scale(1.0, 1.0) rotate(-0.0) translate(-0.75 -0.75)"><use xmlns:xlink="http://www.w3.org/1999/xlink" xlink:href="#pref_12_Mlab_Mechanical__MountingHole_3mmback_HOLE"/></g><!--Mlab_Mechanical:MountingHole_3mm.back:M1--><g transform="translate(143.42 89.76) scale(1.0, 1.0) rotate(-0.0) translate(-0.75 -0.75)"><use xmlns:xlink="http://www.w3.org/1999/xlink" xlink:href="#pref_12_Mlab_Mechanical__MountingHole_3mmback_HOLEM3"/></g></g></svg>