<?xml version='1.0' encoding='ASCII' standalone='yes'?>
<svg xmlns:svg="http://www.w3.org/2000/svg" xmlns="http://www.w3.org/2000/svg" xmlns:xlink="http://www.w3.org/1999/xlink" version="1.1" width="29.700220cm" height="21.000720cm" viewBox="0 0 2970022 2100072">
<title>SVG Picture created as GH4PIN01-F_Fab.svg date 2023/05/28 01:38:41 </title>
  <desc>Picture generated by PCBNEW </desc>
<g style="fill:#848484; fill-opacity:1.000000;stroke:#848484; stroke-opacity:1.000000; stroke-linecap:round; stroke-linejoin:round;" transform="translate(0 0) scale(1 1)">
</g>
<g style="fill:#848484; fill-opacity:0.0;  stroke:#848484; stroke-width:0.000000; stroke-opacity:1;  stroke-linecap:round; stroke-linejoin:round;">
</g>
<g style="fill:#848484; fill-opacity:0.01;  stroke:#848484; stroke-width:7846.614871; stroke-opacity:1;  stroke-linecap:round; stroke-linejoin:round;">
<text x="1213779.686569" y="1057882.604678" textLength="640184.173751" font-size="69747.670303" lengthAdjust="spacingAndGlyphs" text-anchor="middle" opacity="0.01" style="font-family:monospace">SM04B-GHS-TB</text>
<g class="stroked-text"><desc>SM04B-GHS-TB</desc>
<path d="M1523907 1052900 L1516434 1055391 L1503979 1055391 L1498997 1052900 L1496506 1050409 L1494015 1045427 L1494015 1040445 L1496506 1035463 L1498997 1032972 L1503979 1030481 L1513943 1027990 L1518925 1025499 L1521416 1023008 L1523907 1018026 L1523907 1013044 L1521416 1008062 L1518925 1005571 L1513943 1003080 L1501488 1003080 L1494015 1005571 "/>
<path d="M1471597 1055391 L1471597 1003080 L1454160 1040445 L1436723 1003080 L1436723 1055391 "/>
<path d="M1401849 1003080 L1396867 1003080 L1391885 1005571 L1389394 1008062 L1386903 1013044 L1384412 1023008 L1384412 1035463 L1386903 1045427 L1389394 1050409 L1391885 1052900 L1396867 1055391 L1401849 1055391 L1406831 1052900 L1409322 1050409 L1411813 1045427 L1414304 1035463 L1414304 1023008 L1411813 1013044 L1409322 1008062 L1406831 1005571 L1401849 1003080 "/>
<path d="M1339574 1020517 L1339574 1055391 "/>
<path d="M1352029 1000589 L1364484 1037954 L1332101 1037954 "/>
<path d="M1294736 1027990 L1287263 1030481 L1284772 1032972 L1282281 1037954 L1282281 1045427 L1284772 1050409 L1287263 1052900 L1292245 1055391 L1312173 1055391 L1312173 1003080 L1294736 1003080 L1289754 1005571 L1287263 1008062 L1284772 1013044 L1284772 1018026 L1287263 1023008 L1289754 1025499 L1294736 1027990 L1312173 1027990 "/>
<path d="M1259863 1035463 L1220007 1035463 "/>
<path d="M1167696 1005571 L1172678 1003080 L1180151 1003080 L1187624 1005571 L1192606 1010553 L1195097 1015535 L1197588 1025499 L1197588 1032972 L1195097 1042936 L1192606 1047918 L1187624 1052900 L1180151 1055391 L1175169 1055391 L1167696 1052900 L1165205 1050409 L1165205 1032972 L1175169 1032972 "/>
<path d="M1142786 1055391 L1142786 1003080 "/>
<path d="M1142786 1027990 L1112894 1027990 "/>
<path d="M1112894 1055391 L1112894 1003080 "/>
<path d="M1090475 1052900 L1083002 1055391 L1070547 1055391 L1065565 1052900 L1063074 1050409 L1060583 1045427 L1060583 1040445 L1063074 1035463 L1065565 1032972 L1070547 1030481 L1080511 1027990 L1085493 1025499 L1087984 1023008 L1090475 1018026 L1090475 1013044 L1087984 1008062 L1085493 1005571 L1080511 1003080 L1068056 1003080 L1060583 1005571 "/>
<path d="M1038165 1035463 L998309 1035463 "/>
<path d="M980872 1003080 L950980 1003080 "/>
<path d="M965926 1055391 L965926 1003080 "/>
<path d="M916106 1027990 L908633 1030481 L906142 1032972 L903651 1037954 L903651 1045427 L906142 1050409 L908633 1052900 L913615 1055391 L933543 1055391 L933543 1003080 L916106 1003080 L911124 1005571 L908633 1008062 L906142 1013044 L906142 1018026 L908633 1023008 L911124 1025499 L916106 1027990 L933543 1027990 "/>
</g><text x="1213779.686569" y="853870.618039" textLength="99876.212800" font-size="69747.670303" lengthAdjust="spacingAndGlyphs" text-anchor="middle" opacity="0.01" style="font-family:monospace">J1</text>
<g class="stroked-text"><desc>J1</desc>
<path d="M1231216 799068 L1231216 836433 L1233707 843906 L1238689 848888 L1246162 851379 L1251144 851379 "/>
<path d="M1178905 851379 L1208797 851379 "/>
<path d="M1193851 851379 L1193851 799068 L1198833 806541 L1203815 811523 L1208797 814014 "/>
</g><text x="1219272.316978" y="581331.528197" textLength="650384.720773" font-size="69747.670303" lengthAdjust="spacingAndGlyphs" text-anchor="middle" opacity="0.01" style="font-family:monospace">SM04B-GHS-TB</text>
<g class="stroked-text"><desc>SM04B-GHS-TB</desc>
<path d="M1529400 576349 L1521927 578840 L1509472 578840 L1504490 576349 L1501999 573858 L1499508 568876 L1499508 563894 L1501999 558912 L1504490 556421 L1509472 553930 L1519436 551439 L1524418 548948 L1526909 546457 L1529400 541475 L1529400 536493 L1526909 531511 L1524418 529020 L1519436 526529 L1506981 526529 L1499508 529020 "/>
<path d="M1477089 578840 L1477089 526529 L1459652 563894 L1442215 526529 L1442215 578840 "/>
<path d="M1407342 526529 L1402359 526529 L1397378 529020 L1394887 531511 L1392396 536493 L1389905 546457 L1389905 558912 L1392396 568876 L1394887 573858 L1397378 576349 L1402359 578840 L1407342 578840 L1412323 576349 L1414814 573858 L1417305 568876 L1419796 558912 L1419796 546457 L1417305 536493 L1414814 531511 L1412323 529020 L1407342 526529 "/>
<path d="M1345067 543966 L1345067 578840 "/>
<path d="M1357522 524038 L1369977 561403 L1337594 561403 "/>
<path d="M1300229 551439 L1292756 553930 L1290265 556421 L1287774 561403 L1287774 568876 L1290265 573858 L1292756 576349 L1297738 578840 L1317666 578840 L1317666 526529 L1300229 526529 L1295247 529020 L1292756 531511 L1290265 536493 L1290265 541475 L1292756 546457 L1295247 548948 L1300229 551439 L1317666 551439 "/>
<path d="M1265355 558912 L1225499 558912 "/>
<path d="M1173189 529020 L1178171 526529 L1185643 526529 L1193116 529020 L1198098 534002 L1200589 538984 L1203080 548948 L1203080 556421 L1200589 566385 L1198098 571367 L1193116 576349 L1185643 578840 L1180662 578840 L1173189 576349 L1170698 573858 L1170698 556421 L1180662 556421 "/>
<path d="M1148279 578840 L1148279 526529 "/>
<path d="M1148279 551439 L1118387 551439 "/>
<path d="M1118387 578840 L1118387 526529 "/>
<path d="M1095968 576349 L1088495 578840 L1076040 578840 L1071058 576349 L1068567 573858 L1066076 568876 L1066076 563894 L1068567 558912 L1071058 556421 L1076040 553930 L1086004 551439 L1090986 548948 L1093477 546457 L1095968 541475 L1095968 536493 L1093477 531511 L1090986 529020 L1086004 526529 L1073549 526529 L1066076 529020 "/>
<path d="M1043657 558912 L1003801 558912 "/>
<path d="M986364 526529 L956473 526529 "/>
<path d="M971418 578840 L971418 526529 "/>
<path d="M921599 551439 L914126 553930 L911635 556421 L909144 561403 L909144 568876 L911635 573858 L914126 576349 L919108 578840 L939036 578840 L939036 526529 L921599 526529 L916617 529020 L914126 531511 L911635 536493 L911635 541475 L914126 546457 L916617 548948 L921599 551439 L939036 551439 "/>
</g><text x="1219272.316978" y="377319.541558" textLength="99876.212800" font-size="69747.670303" lengthAdjust="spacingAndGlyphs" text-anchor="middle" opacity="0.01" style="font-family:monospace">J2</text>
<g class="stroked-text"><desc>J2</desc>
<path d="M1236709 322517 L1236709 359882 L1239200 367355 L1244182 372337 L1251655 374828 L1256637 374828 "/>
<path d="M1214290 327499 L1211799 325008 L1206817 322517 L1194362 322517 L1189380 325008 L1186889 327499 L1184398 332481 L1184398 337463 L1186889 344936 L1216781 374828 L1184398 374828 "/>
</g></g>
<g style="fill:#848484; fill-opacity:0.0;  stroke:#848484; stroke-width:5231.076580; stroke-opacity:1;  stroke-linecap:round; stroke-linejoin:round;">
<path d="M1429561 955876 L997997 955876 "/>
<path d="M1338017 744018 L1311862 781007 "/>
<path d="M997997 744018 L997997 955876 "/>
<path d="M1429561 744018 L1429561 955876 "/>
<path d="M1311862 781007 L1285706 744018 "/>
<path d="M1429561 744018 L997997 744018 "/>
</g>
<g style="fill:#848484; fill-opacity:0.0;  stroke:#848484; stroke-width:19930.401772; stroke-opacity:1;  stroke-linecap:round; stroke-linejoin:round;">
<circle cx="2282227.078130" cy="252819.918943" r="156918.696615"/> 
<circle cx="687794.936403" cy="1847252.060671" r="156918.696615"/> 
<circle cx="2282227.078130" cy="1847252.060671" r="156918.696615"/> 
<circle cx="687794.936403" cy="252819.918943" r="156918.696615"/> 
</g>
<g style="fill:#848484; fill-opacity:0.0;  stroke:#848484; stroke-width:5231.076580; stroke-opacity:1;  stroke-linecap:round; stroke-linejoin:round;">
<path d="M1343510 267466 L1317355 304456 "/>
<path d="M1435054 267466 L1003490 267466 "/>
<path d="M1435054 267466 L1435054 479325 "/>
<path d="M1435054 479325 L1003490 479325 "/>
<path d="M1317355 304456 L1291199 267466 "/>
<path d="M1003490 267466 L1003490 479325 "/>
<g>
</g>
<g>
</g>
<g>
</g>
<g>
</g>
<g>
</g>
<g>
</g>
<g>
</g>
<g>
</g>
<g>
</g>
<g>
</g>
</g> 
<svg:g><svg:g><svg:title>SVG Picture created as GH4PIN01-Edge_Cuts.svg date 2023/05/28 01:38:41 </svg:title>
  <svg:desc>Picture generated by PCBNEW </svg:desc>
<svg:g style="fill:#C2C200; fill-opacity:1.000000;stroke:#C2C200; stroke-opacity:1.000000; stroke-linecap:round; stroke-linejoin:round;" transform="translate(0 0) scale(1 1)">
</svg:g>
<svg:g style="fill:#C2C200; fill-opacity:0.0;  stroke:#C2C200; stroke-width:0.000000; stroke-opacity:1;  stroke-linecap:round; stroke-linejoin:round;">
</svg:g>
<svg:g style="fill:#C2C200; fill-opacity:0.0;  stroke:#C2C200; stroke-width:664.346726; stroke-opacity:1;  stroke-linecap:round; stroke-linejoin:round;">
<svg:path d="M435343 2099703 L435343 368 "/>
<svg:path d="M2534678 368 L2534678 2099703 "/>
<svg:path d="M2534678 2099703 L435343 2099703 "/>
<svg:path d="M435343 368 L2534678 368 "/>
<svg:circle cx="2282227.078130" cy="1847252.060671" r="87184.574801"/> 
<svg:path d="M2413003 1847252 L2151450 1847252 "/>
<svg:path d="M2282227 1716475 L2282227 1978028 "/>
<svg:circle cx="2282227.078130" cy="1847252.060671" r="87184.574801"/> 
<svg:path d="M2413003 1847252 L2151450 1847252 "/>
<svg:path d="M2282227 1716475 L2282227 1978028 "/>
<svg:circle cx="2282227.078130" cy="1847252.060671" r="87184.574801"/> 
<svg:path d="M2413003 1847252 L2151450 1847252 "/>
<svg:path d="M2282227 1716475 L2282227 1978028 "/>
<svg:g>
</svg:g>
<svg:g>
</svg:g>
<svg:g>
</svg:g>
<svg:g>
</svg:g>
<svg:g>
</svg:g>
<svg:g>
</svg:g>
<svg:g>
</svg:g>
<svg:g>
</svg:g>
<svg:g>
</svg:g>
<svg:g>
</svg:g>
</svg:g> 
</svg:g></svg:g></svg>
