<?xml version='1.0' encoding='ASCII' standalone='yes'?>
<svg xmlns:svg="http://www.w3.org/2000/svg" xmlns="http://www.w3.org/2000/svg" xmlns:xlink="http://www.w3.org/1999/xlink" version="1.1" width="297.0022mm" height="210.0072mm" viewBox="0.0000 0.0000 297.0022 210.0072">
<title>SVG Image created as GH4PIN01-B_Fab.svg date 2023/07/05 14:51:45 </title>
  <desc>Image generated by PCBNEW </desc>
<g style="fill:#000084; fill-opacity:1.0000;stroke:#000084; stroke-opacity:1.0000; stroke-linecap:round; stroke-linejoin:round;" transform="translate(0 0) scale(1 1)">
</g>
<g style="fill:#000084; fill-opacity:0.0;  stroke:#000084; stroke-width:0.0000; stroke-opacity:1;  stroke-linecap:round; stroke-linejoin:round;">
</g>
<g style="fill:#000084; fill-opacity:0.0;  stroke:#000084; stroke-width:0.7847; stroke-opacity:1;  stroke-linecap:round; stroke-linejoin:round;">
<g transform="rotate(-90.000000 163.5875 144.8644)">
<text x="163.5875" y="147.4799" transform="scale(-1 1) translate(-327.175048 0)" textLength="64.9339" font-size="6.9748" lengthAdjust="spacingAndGlyphs" text-anchor="middle" opacity="0.01" style="font-family:monospace">SM04B-GHS-TB</text>
</g>
<g class="stroked-text"><desc>SM04B-GHS-TB</desc>
<path d="M165.7176 113.8516 L165.9667 114.5989 "/>
<path d="M165.9667 114.5989 L165.9667 115.8444 "/>
<path d="M165.9667 115.8444 L165.7176 116.3426 "/>
<path d="M165.7176 116.3426 L165.4685 116.5917 "/>
<path d="M165.4685 116.5917 L164.9703 116.8408 "/>
<path d="M164.9703 116.8408 L164.4721 116.8408 "/>
<path d="M164.4721 116.8408 L163.9739 116.5917 "/>
<path d="M163.9739 116.5917 L163.7248 116.3426 "/>
<path d="M163.7248 116.3426 L163.4757 115.8444 "/>
<path d="M163.4757 115.8444 L163.2266 114.8480 "/>
<path d="M163.2266 114.8480 L162.9775 114.3498 "/>
<path d="M162.9775 114.3498 L162.7284 114.1007 "/>
<path d="M162.7284 114.1007 L162.2302 113.8516 "/>
<path d="M162.2302 113.8516 L161.7320 113.8516 "/>
<path d="M161.7320 113.8516 L161.2338 114.1007 "/>
<path d="M161.2338 114.1007 L160.9847 114.3498 "/>
<path d="M160.9847 114.3498 L160.7356 114.8480 "/>
<path d="M160.7356 114.8480 L160.7356 116.0935 "/>
<path d="M160.7356 116.0935 L160.9847 116.8408 "/>
<path d="M165.9667 119.0827 L160.7356 119.0827 "/>
<path d="M160.7356 119.0827 L164.4721 120.8264 "/>
<path d="M164.4721 120.8264 L160.7356 122.5701 "/>
<path d="M160.7356 122.5701 L165.9667 122.5701 "/>
<path d="M160.7356 126.0574 L160.7356 126.5556 "/>
<path d="M160.7356 126.5556 L160.9847 127.0538 "/>
<path d="M160.9847 127.0538 L161.2338 127.3029 "/>
<path d="M161.2338 127.3029 L161.7320 127.5520 "/>
<path d="M161.7320 127.5520 L162.7284 127.8011 "/>
<path d="M162.7284 127.8011 L163.9739 127.8011 "/>
<path d="M163.9739 127.8011 L164.9703 127.5520 "/>
<path d="M164.9703 127.5520 L165.4685 127.3029 "/>
<path d="M165.4685 127.3029 L165.7176 127.0538 "/>
<path d="M165.7176 127.0538 L165.9667 126.5556 "/>
<path d="M165.9667 126.5556 L165.9667 126.0574 "/>
<path d="M165.9667 126.0574 L165.7176 125.5592 "/>
<path d="M165.7176 125.5592 L165.4685 125.3101 "/>
<path d="M165.4685 125.3101 L164.9703 125.0610 "/>
<path d="M164.9703 125.0610 L163.9739 124.8119 "/>
<path d="M163.9739 124.8119 L162.7284 124.8119 "/>
<path d="M162.7284 124.8119 L161.7320 125.0610 "/>
<path d="M161.7320 125.0610 L161.2338 125.3101 "/>
<path d="M161.2338 125.3101 L160.9847 125.5592 "/>
<path d="M160.9847 125.5592 L160.7356 126.0574 "/>
<path d="M162.4793 132.2849 L165.9667 132.2849 "/>
<path d="M160.4865 131.0394 L164.2230 129.7939 "/>
<path d="M164.2230 129.7939 L164.2230 133.0322 "/>
<path d="M163.2266 136.7687 L163.4757 137.5160 "/>
<path d="M163.4757 137.5160 L163.7248 137.7651 "/>
<path d="M163.7248 137.7651 L164.2230 138.0142 "/>
<path d="M164.2230 138.0142 L164.9703 138.0142 "/>
<path d="M164.9703 138.0142 L165.4685 137.7651 "/>
<path d="M165.4685 137.7651 L165.7176 137.5160 "/>
<path d="M165.7176 137.5160 L165.9667 137.0178 "/>
<path d="M165.9667 137.0178 L165.9667 135.0250 "/>
<path d="M165.9667 135.0250 L160.7356 135.0250 "/>
<path d="M160.7356 135.0250 L160.7356 136.7687 "/>
<path d="M160.7356 136.7687 L160.9847 137.2669 "/>
<path d="M160.9847 137.2669 L161.2338 137.5160 "/>
<path d="M161.2338 137.5160 L161.7320 137.7651 "/>
<path d="M161.7320 137.7651 L162.2302 137.7651 "/>
<path d="M162.2302 137.7651 L162.7284 137.5160 "/>
<path d="M162.7284 137.5160 L162.9775 137.2669 "/>
<path d="M162.9775 137.2669 L163.2266 136.7687 "/>
<path d="M163.2266 136.7687 L163.2266 135.0250 "/>
<path d="M163.9739 140.2561 L163.9739 144.2417 "/>
<path d="M160.9847 149.4727 L160.7356 148.9745 "/>
<path d="M160.7356 148.9745 L160.7356 148.2272 "/>
<path d="M160.7356 148.2272 L160.9847 147.4799 "/>
<path d="M160.9847 147.4799 L161.4829 146.9817 "/>
<path d="M161.4829 146.9817 L161.9811 146.7326 "/>
<path d="M161.9811 146.7326 L162.9775 146.4835 "/>
<path d="M162.9775 146.4835 L163.7248 146.4835 "/>
<path d="M163.7248 146.4835 L164.7212 146.7326 "/>
<path d="M164.7212 146.7326 L165.2194 146.9817 "/>
<path d="M165.2194 146.9817 L165.7176 147.4799 "/>
<path d="M165.7176 147.4799 L165.9667 148.2272 "/>
<path d="M165.9667 148.2272 L165.9667 148.7254 "/>
<path d="M165.9667 148.7254 L165.7176 149.4727 "/>
<path d="M165.7176 149.4727 L165.4685 149.7218 "/>
<path d="M165.4685 149.7218 L163.7248 149.7218 "/>
<path d="M163.7248 149.7218 L163.7248 148.7254 "/>
<path d="M165.9667 151.9637 L160.7356 151.9637 "/>
<path d="M163.2266 151.9637 L163.2266 154.9529 "/>
<path d="M165.9667 154.9529 L160.7356 154.9529 "/>
<path d="M165.7176 157.1948 L165.9667 157.9421 "/>
<path d="M165.9667 157.9421 L165.9667 159.1876 "/>
<path d="M165.9667 159.1876 L165.7176 159.6858 "/>
<path d="M165.7176 159.6858 L165.4685 159.9349 "/>
<path d="M165.4685 159.9349 L164.9703 160.1840 "/>
<path d="M164.9703 160.1840 L164.4721 160.1840 "/>
<path d="M164.4721 160.1840 L163.9739 159.9349 "/>
<path d="M163.9739 159.9349 L163.7248 159.6858 "/>
<path d="M163.7248 159.6858 L163.4757 159.1876 "/>
<path d="M163.4757 159.1876 L163.2266 158.1912 "/>
<path d="M163.2266 158.1912 L162.9775 157.6930 "/>
<path d="M162.9775 157.6930 L162.7284 157.4439 "/>
<path d="M162.7284 157.4439 L162.2302 157.1948 "/>
<path d="M162.2302 157.1948 L161.7320 157.1948 "/>
<path d="M161.7320 157.1948 L161.2338 157.4439 "/>
<path d="M161.2338 157.4439 L160.9847 157.6930 "/>
<path d="M160.9847 157.6930 L160.7356 158.1912 "/>
<path d="M160.7356 158.1912 L160.7356 159.4367 "/>
<path d="M160.7356 159.4367 L160.9847 160.1840 "/>
<path d="M163.9739 162.4259 L163.9739 166.4115 "/>
<path d="M160.7356 168.1551 L160.7356 171.1443 "/>
<path d="M165.9667 169.6497 L160.7356 169.6497 "/>
<path d="M163.2266 174.6317 L163.4757 175.3790 "/>
<path d="M163.4757 175.3790 L163.7248 175.6281 "/>
<path d="M163.7248 175.6281 L164.2230 175.8772 "/>
<path d="M164.2230 175.8772 L164.9703 175.8772 "/>
<path d="M164.9703 175.8772 L165.4685 175.6281 "/>
<path d="M165.4685 175.6281 L165.7176 175.3790 "/>
<path d="M165.7176 175.3790 L165.9667 174.8808 "/>
<path d="M165.9667 174.8808 L165.9667 172.8880 "/>
<path d="M165.9667 172.8880 L160.7356 172.8880 "/>
<path d="M160.7356 172.8880 L160.7356 174.6317 "/>
<path d="M160.7356 174.6317 L160.9847 175.1299 "/>
<path d="M160.9847 175.1299 L161.2338 175.3790 "/>
<path d="M161.2338 175.3790 L161.7320 175.6281 "/>
<path d="M161.7320 175.6281 L162.2302 175.6281 "/>
<path d="M162.2302 175.6281 L162.7284 175.3790 "/>
<path d="M162.7284 175.3790 L162.9775 175.1299 "/>
<path d="M162.9775 175.1299 L163.2266 174.6317 "/>
<path d="M163.2266 174.6317 L163.2266 172.8880 "/>
</g><g transform="rotate(-90.000000 143.1863 144.8644)">
<text x="143.1863" y="147.4799" transform="scale(-1 1) translate(-286.372651 0)" textLength="9.8830" font-size="6.9748" lengthAdjust="spacingAndGlyphs" text-anchor="middle" opacity="0.01" style="font-family:monospace">J1</text>
</g>
<g class="stroked-text"><desc>J1</desc>
<path d="M140.3344 143.1207 L144.0709 143.1207 "/>
<path d="M144.0709 143.1207 L144.8182 142.8716 "/>
<path d="M144.8182 142.8716 L145.3164 142.3734 "/>
<path d="M145.3164 142.3734 L145.5655 141.6261 "/>
<path d="M145.5655 141.6261 L145.5655 141.1279 "/>
<path d="M145.5655 148.3518 L145.5655 145.3626 "/>
<path d="M145.5655 146.8572 L140.3344 146.8572 "/>
<path d="M140.3344 146.8572 L141.0817 146.3590 "/>
<path d="M141.0817 146.3590 L141.5799 145.8608 "/>
<path d="M141.5799 145.8608 L141.8290 145.3626 "/>
</g><g transform="rotate(-90.000000 163.5875 86.4019)">
<text x="163.5875" y="89.0174" transform="scale(-1 1) translate(-327.175048 0)" textLength="64.9339" font-size="6.9748" lengthAdjust="spacingAndGlyphs" text-anchor="middle" opacity="0.01" style="font-family:monospace">SM04B-GHS-TB</text>
</g>
<g class="stroked-text"><desc>SM04B-GHS-TB</desc>
<path d="M165.7176 55.3891 L165.9667 56.1364 "/>
<path d="M165.9667 56.1364 L165.9667 57.3819 "/>
<path d="M165.9667 57.3819 L165.7176 57.8801 "/>
<path d="M165.7176 57.8801 L165.4685 58.1292 "/>
<path d="M165.4685 58.1292 L164.9703 58.3783 "/>
<path d="M164.9703 58.3783 L164.4721 58.3783 "/>
<path d="M164.4721 58.3783 L163.9739 58.1292 "/>
<path d="M163.9739 58.1292 L163.7248 57.8801 "/>
<path d="M163.7248 57.8801 L163.4757 57.3819 "/>
<path d="M163.4757 57.3819 L163.2266 56.3855 "/>
<path d="M163.2266 56.3855 L162.9775 55.8873 "/>
<path d="M162.9775 55.8873 L162.7284 55.6382 "/>
<path d="M162.7284 55.6382 L162.2302 55.3891 "/>
<path d="M162.2302 55.3891 L161.7320 55.3891 "/>
<path d="M161.7320 55.3891 L161.2338 55.6382 "/>
<path d="M161.2338 55.6382 L160.9847 55.8873 "/>
<path d="M160.9847 55.8873 L160.7356 56.3855 "/>
<path d="M160.7356 56.3855 L160.7356 57.6310 "/>
<path d="M160.7356 57.6310 L160.9847 58.3783 "/>
<path d="M165.9667 60.6202 L160.7356 60.6202 "/>
<path d="M160.7356 60.6202 L164.4721 62.3638 "/>
<path d="M164.4721 62.3638 L160.7356 64.1075 "/>
<path d="M160.7356 64.1075 L165.9667 64.1075 "/>
<path d="M160.7356 67.5949 L160.7356 68.0931 "/>
<path d="M160.7356 68.0931 L160.9847 68.5913 "/>
<path d="M160.9847 68.5913 L161.2338 68.8404 "/>
<path d="M161.2338 68.8404 L161.7320 69.0895 "/>
<path d="M161.7320 69.0895 L162.7284 69.3386 "/>
<path d="M162.7284 69.3386 L163.9739 69.3386 "/>
<path d="M163.9739 69.3386 L164.9703 69.0895 "/>
<path d="M164.9703 69.0895 L165.4685 68.8404 "/>
<path d="M165.4685 68.8404 L165.7176 68.5913 "/>
<path d="M165.7176 68.5913 L165.9667 68.0931 "/>
<path d="M165.9667 68.0931 L165.9667 67.5949 "/>
<path d="M165.9667 67.5949 L165.7176 67.0967 "/>
<path d="M165.7176 67.0967 L165.4685 66.8476 "/>
<path d="M165.4685 66.8476 L164.9703 66.5985 "/>
<path d="M164.9703 66.5985 L163.9739 66.3494 "/>
<path d="M163.9739 66.3494 L162.7284 66.3494 "/>
<path d="M162.7284 66.3494 L161.7320 66.5985 "/>
<path d="M161.7320 66.5985 L161.2338 66.8476 "/>
<path d="M161.2338 66.8476 L160.9847 67.0967 "/>
<path d="M160.9847 67.0967 L160.7356 67.5949 "/>
<path d="M162.4793 73.8224 L165.9667 73.8224 "/>
<path d="M160.4865 72.5769 L164.2230 71.3314 "/>
<path d="M164.2230 71.3314 L164.2230 74.5697 "/>
<path d="M163.2266 78.3062 L163.4757 79.0535 "/>
<path d="M163.4757 79.0535 L163.7248 79.3026 "/>
<path d="M163.7248 79.3026 L164.2230 79.5517 "/>
<path d="M164.2230 79.5517 L164.9703 79.5517 "/>
<path d="M164.9703 79.5517 L165.4685 79.3026 "/>
<path d="M165.4685 79.3026 L165.7176 79.0535 "/>
<path d="M165.7176 79.0535 L165.9667 78.5553 "/>
<path d="M165.9667 78.5553 L165.9667 76.5625 "/>
<path d="M165.9667 76.5625 L160.7356 76.5625 "/>
<path d="M160.7356 76.5625 L160.7356 78.3062 "/>
<path d="M160.7356 78.3062 L160.9847 78.8044 "/>
<path d="M160.9847 78.8044 L161.2338 79.0535 "/>
<path d="M161.2338 79.0535 L161.7320 79.3026 "/>
<path d="M161.7320 79.3026 L162.2302 79.3026 "/>
<path d="M162.2302 79.3026 L162.7284 79.0535 "/>
<path d="M162.7284 79.0535 L162.9775 78.8044 "/>
<path d="M162.9775 78.8044 L163.2266 78.3062 "/>
<path d="M163.2266 78.3062 L163.2266 76.5625 "/>
<path d="M163.9739 81.7936 L163.9739 85.7791 "/>
<path d="M160.9847 91.0102 L160.7356 90.5120 "/>
<path d="M160.7356 90.5120 L160.7356 89.7647 "/>
<path d="M160.7356 89.7647 L160.9847 89.0174 "/>
<path d="M160.9847 89.0174 L161.4829 88.5192 "/>
<path d="M161.4829 88.5192 L161.9811 88.2701 "/>
<path d="M161.9811 88.2701 L162.9775 88.0210 "/>
<path d="M162.9775 88.0210 L163.7248 88.0210 "/>
<path d="M163.7248 88.0210 L164.7212 88.2701 "/>
<path d="M164.7212 88.2701 L165.2194 88.5192 "/>
<path d="M165.2194 88.5192 L165.7176 89.0174 "/>
<path d="M165.7176 89.0174 L165.9667 89.7647 "/>
<path d="M165.9667 89.7647 L165.9667 90.2629 "/>
<path d="M165.9667 90.2629 L165.7176 91.0102 "/>
<path d="M165.7176 91.0102 L165.4685 91.2593 "/>
<path d="M165.4685 91.2593 L163.7248 91.2593 "/>
<path d="M163.7248 91.2593 L163.7248 90.2629 "/>
<path d="M165.9667 93.5012 L160.7356 93.5012 "/>
<path d="M163.2266 93.5012 L163.2266 96.4904 "/>
<path d="M165.9667 96.4904 L160.7356 96.4904 "/>
<path d="M165.7176 98.7323 L165.9667 99.4796 "/>
<path d="M165.9667 99.4796 L165.9667 100.7251 "/>
<path d="M165.9667 100.7251 L165.7176 101.2233 "/>
<path d="M165.7176 101.2233 L165.4685 101.4724 "/>
<path d="M165.4685 101.4724 L164.9703 101.7215 "/>
<path d="M164.9703 101.7215 L164.4721 101.7215 "/>
<path d="M164.4721 101.7215 L163.9739 101.4724 "/>
<path d="M163.9739 101.4724 L163.7248 101.2233 "/>
<path d="M163.7248 101.2233 L163.4757 100.7251 "/>
<path d="M163.4757 100.7251 L163.2266 99.7287 "/>
<path d="M163.2266 99.7287 L162.9775 99.2305 "/>
<path d="M162.9775 99.2305 L162.7284 98.9814 "/>
<path d="M162.7284 98.9814 L162.2302 98.7323 "/>
<path d="M162.2302 98.7323 L161.7320 98.7323 "/>
<path d="M161.7320 98.7323 L161.2338 98.9814 "/>
<path d="M161.2338 98.9814 L160.9847 99.2305 "/>
<path d="M160.9847 99.2305 L160.7356 99.7287 "/>
<path d="M160.7356 99.7287 L160.7356 100.9742 "/>
<path d="M160.7356 100.9742 L160.9847 101.7215 "/>
<path d="M163.9739 103.9634 L163.9739 107.9489 "/>
<path d="M160.7356 109.6926 L160.7356 112.6818 "/>
<path d="M165.9667 111.1872 L160.7356 111.1872 "/>
<path d="M163.2266 116.1692 L163.4757 116.9165 "/>
<path d="M163.4757 116.9165 L163.7248 117.1656 "/>
<path d="M163.7248 117.1656 L164.2230 117.4147 "/>
<path d="M164.2230 117.4147 L164.9703 117.4147 "/>
<path d="M164.9703 117.4147 L165.4685 117.1656 "/>
<path d="M165.4685 117.1656 L165.7176 116.9165 "/>
<path d="M165.7176 116.9165 L165.9667 116.4183 "/>
<path d="M165.9667 116.4183 L165.9667 114.4255 "/>
<path d="M165.9667 114.4255 L160.7356 114.4255 "/>
<path d="M160.7356 114.4255 L160.7356 116.1692 "/>
<path d="M160.7356 116.1692 L160.9847 116.6674 "/>
<path d="M160.9847 116.6674 L161.2338 116.9165 "/>
<path d="M161.2338 116.9165 L161.7320 117.1656 "/>
<path d="M161.7320 117.1656 L162.2302 117.1656 "/>
<path d="M162.2302 117.1656 L162.7284 116.9165 "/>
<path d="M162.7284 116.9165 L162.9775 116.6674 "/>
<path d="M162.9775 116.6674 L163.2266 116.1692 "/>
<path d="M163.2266 116.1692 L163.2266 114.4255 "/>
</g><g transform="rotate(-90.000000 143.1863 86.4019)">
<text x="143.1863" y="89.0174" transform="scale(-1 1) translate(-286.372651 0)" textLength="9.8830" font-size="6.9748" lengthAdjust="spacingAndGlyphs" text-anchor="middle" opacity="0.01" style="font-family:monospace">J2</text>
</g>
<g class="stroked-text"><desc>J2</desc>
<path d="M140.3344 84.6582 L144.0709 84.6582 "/>
<path d="M144.0709 84.6582 L144.8182 84.4091 "/>
<path d="M144.8182 84.4091 L145.3164 83.9109 "/>
<path d="M145.3164 83.9109 L145.5655 83.1636 "/>
<path d="M145.5655 83.1636 L145.5655 82.6654 "/>
<path d="M140.8326 86.9001 L140.5835 87.1492 "/>
<path d="M140.5835 87.1492 L140.3344 87.6474 "/>
<path d="M140.3344 87.6474 L140.3344 88.8929 "/>
<path d="M140.3344 88.8929 L140.5835 89.3911 "/>
<path d="M140.5835 89.3911 L140.8326 89.6402 "/>
<path d="M140.8326 89.6402 L141.3308 89.8893 "/>
<path d="M141.3308 89.8893 L141.8290 89.8893 "/>
<path d="M141.8290 89.8893 L142.5763 89.6402 "/>
<path d="M142.5763 89.6402 L145.5655 86.6510 "/>
<path d="M145.5655 86.6510 L145.5655 89.8893 "/>
</g></g>
<g style="fill:#000084; fill-opacity:0.0;  stroke:#000084; stroke-width:0.5231; stroke-opacity:1;  stroke-linecap:round; stroke-linejoin:round;">
<path d="M156.0025 123.2862 L156.0025 166.4426 "/>
<path d="M134.8166 123.2862 L156.0025 123.2862 "/>
<path d="M134.8166 123.2862 L134.8166 166.4426 "/>
<path d="M134.8166 132.4406 L138.5155 135.0561 "/>
<path d="M138.5155 135.0561 L134.8166 137.6717 "/>
<path d="M134.8166 166.4426 L156.0025 166.4426 "/>
<path d="M156.0025 64.8237 L156.0025 107.9801 "/>
<path d="M134.8166 64.8237 L156.0025 64.8237 "/>
<path d="M134.8166 64.8237 L134.8166 107.9801 "/>
<path d="M134.8166 73.9781 L138.5155 76.5936 "/>
<path d="M138.5155 76.5936 L134.8166 79.2092 "/>
<path d="M134.8166 107.9801 L156.0025 107.9801 "/>
<g>
</g>
<g>
</g>
<g>
</g>
<g>
</g>
<g>
</g>
<g>
</g>
<g>
</g>
<g>
</g>
<g>
</g>
<g>
</g>
</g> 
<svg:g><svg:g><svg:title>SVG Image created as GH4PIN01-Edge_Cuts.svg date 2023/07/05 14:51:45 </svg:title>
  <svg:desc>Image generated by PCBNEW </svg:desc>
<svg:g style="fill:#C2C200; fill-opacity:1.0000;stroke:#C2C200; stroke-opacity:1.0000; stroke-linecap:round; stroke-linejoin:round;" transform="translate(0 0) scale(1 1)">
</svg:g>
<svg:g style="fill:#C2C200; fill-opacity:0.0;  stroke:#C2C200; stroke-width:0.0000; stroke-opacity:1;  stroke-linecap:round; stroke-linejoin:round;">
</svg:g>
<svg:g style="fill:#C2C200; fill-opacity:0.0;  stroke:#C2C200; stroke-width:0.0664; stroke-opacity:1;  stroke-linecap:round; stroke-linejoin:round;">
<svg:path d="M253.4679 209.9704 L253.4679 0.0368 "/>
<svg:path d="M43.5343 0.0368 L43.5343 209.9704 "/>
<svg:path d="M43.5343 209.9704 L253.4679 209.9704 "/>
<svg:path d="M253.4679 0.0368 L43.5343 0.0368 "/>
<svg:circle cx="68.7795" cy="184.7252" r="8.7185"/> 
<svg:path d="M55.7018 184.7252 L81.8572 184.7252 "/>
<svg:path d="M68.7795 171.6475 L68.7795 197.8029 "/>
<svg:circle cx="68.7795" cy="184.7252" r="8.7185"/> 
<svg:path d="M55.7018 184.7252 L81.8572 184.7252 "/>
<svg:path d="M68.7795 171.6475 L68.7795 197.8029 "/>
<svg:circle cx="68.7795" cy="184.7252" r="8.7185"/> 
<svg:path d="M55.7018 184.7252 L81.8572 184.7252 "/>
<svg:path d="M68.7795 171.6475 L68.7795 197.8029 "/>
<svg:g>
</svg:g>
<svg:g>
</svg:g>
<svg:g>
</svg:g>
<svg:g>
</svg:g>
<svg:g>
</svg:g>
<svg:g>
</svg:g>
<svg:g>
</svg:g>
<svg:g>
</svg:g>
<svg:g>
</svg:g>
<svg:g>
</svg:g>
</svg:g> 
</svg:g></svg:g></svg>
