M48
; DRILL file {KiCad 7.0.11+1} date Thu Jun  6 13:44:01 2024
; FORMAT={3:3/ absolute / metric / suppress leading zeros}
; #@! TF.CreationDate,2024-06-06T13:44:01+00:00
; #@! TF.GenerationSoftware,Kicad,Pcbnew,7.0.11+1
; #@! TF.FileFunction,Plated,1,2,PTH
FMAT,2
METRIC,TZ
; #@! TA.AperFunction,Plated,PTH,ViaDrill
T1C0.400
; #@! TA.AperFunction,Plated,PTH,ComponentDrill
T2C0.889
; #@! TA.AperFunction,Plated,PTH,ComponentDrill
T3C3.000
%
G90
G05
T1
X6299Y23546
X6325Y34773
X6325Y27305
X6350Y16078
X7849Y23546
X7874Y34773
X7874Y27305
X7899Y16078
X9262Y24536
X10160Y27940
X10287Y22606
X18542Y31750
X20269Y23851
X20344Y27686
X21429Y22622
X22530Y27305
X22530Y16078
X22555Y23546
X22581Y34773
X24079Y27305
X24079Y16078
X24105Y23546
X24130Y34773
T2
X13970Y30480
X13970Y27940
X13970Y25400
X13970Y22860
X13970Y20320
X16510Y30480
X16510Y27940
X16510Y25400
X16510Y22860
X16510Y20320
T3
X10160Y40640
X10160Y10160
X20320Y40640
X20320Y10160
M30
