%TF.GenerationSoftware,KiCad,Pcbnew,8.0.3+1*%
%TF.CreationDate,2024-07-16T01:25:31+00:00*%
%TF.ProjectId,GH4PIN01,47483450-494e-4303-912e-6b696361645f,rev?*%
%TF.SameCoordinates,Original*%
%TF.FileFunction,Copper,L1,Top*%
%TF.FilePolarity,Positive*%
%FSLAX46Y46*%
G04 Gerber Fmt 4.6, Leading zero omitted, Abs format (unit mm)*
G04 Created by KiCad (PCBNEW 8.0.3+1) date 2024-07-16 01:25:31*
%MOMM*%
%LPD*%
G01*
G04 APERTURE LIST*
%ADD10C,0.150000*%
%TA.AperFunction,NonConductor*%
%ADD11C,0.150000*%
%TD*%
%TA.AperFunction,ComponentPad*%
%ADD12C,6.000000*%
%TD*%
%TA.AperFunction,ComponentPad*%
%ADD13R,1.524000X1.524000*%
%TD*%
%TA.AperFunction,ViaPad*%
%ADD14C,0.800000*%
%TD*%
%TA.AperFunction,Conductor*%
%ADD15C,0.450000*%
%TD*%
G04 APERTURE END LIST*
D10*
D11*
X15668619Y38131980D02*
X14668619Y38131980D01*
X14668619Y38131980D02*
X15382904Y38465313D01*
X15382904Y38465313D02*
X14668619Y38798646D01*
X14668619Y38798646D02*
X15668619Y38798646D01*
X15668619Y39751027D02*
X15668619Y39274837D01*
X15668619Y39274837D02*
X14668619Y39274837D01*
X15382904Y40036742D02*
X15382904Y40512932D01*
X15668619Y39941504D02*
X14668619Y40274837D01*
X14668619Y40274837D02*
X15668619Y40608170D01*
X15144809Y41274837D02*
X15192428Y41417694D01*
X15192428Y41417694D02*
X15240047Y41465313D01*
X15240047Y41465313D02*
X15335285Y41512932D01*
X15335285Y41512932D02*
X15478142Y41512932D01*
X15478142Y41512932D02*
X15573380Y41465313D01*
X15573380Y41465313D02*
X15621000Y41417694D01*
X15621000Y41417694D02*
X15668619Y41322456D01*
X15668619Y41322456D02*
X15668619Y40941504D01*
X15668619Y40941504D02*
X14668619Y40941504D01*
X14668619Y40941504D02*
X14668619Y41274837D01*
X14668619Y41274837D02*
X14716238Y41370075D01*
X14716238Y41370075D02*
X14763857Y41417694D01*
X14763857Y41417694D02*
X14859095Y41465313D01*
X14859095Y41465313D02*
X14954333Y41465313D01*
X14954333Y41465313D02*
X15049571Y41417694D01*
X15049571Y41417694D02*
X15097190Y41370075D01*
X15097190Y41370075D02*
X15144809Y41274837D01*
X15144809Y41274837D02*
X15144809Y40941504D01*
X15573380Y41941504D02*
X15621000Y41989123D01*
X15621000Y41989123D02*
X15668619Y41941504D01*
X15668619Y41941504D02*
X15621000Y41893885D01*
X15621000Y41893885D02*
X15573380Y41941504D01*
X15573380Y41941504D02*
X15668619Y41941504D01*
X15621000Y42846265D02*
X15668619Y42751027D01*
X15668619Y42751027D02*
X15668619Y42560551D01*
X15668619Y42560551D02*
X15621000Y42465313D01*
X15621000Y42465313D02*
X15573380Y42417694D01*
X15573380Y42417694D02*
X15478142Y42370075D01*
X15478142Y42370075D02*
X15192428Y42370075D01*
X15192428Y42370075D02*
X15097190Y42417694D01*
X15097190Y42417694D02*
X15049571Y42465313D01*
X15049571Y42465313D02*
X15001952Y42560551D01*
X15001952Y42560551D02*
X15001952Y42751027D01*
X15001952Y42751027D02*
X15049571Y42846265D01*
X15001952Y43179599D02*
X15001952Y43703408D01*
X15001952Y43703408D02*
X15668619Y43179599D01*
X15668619Y43179599D02*
X15668619Y43703408D01*
D12*
%TO.P,M2,1*%
%TO.N,GND*%
X20320001Y40640000D03*
%TD*%
%TO.P,M4,1*%
%TO.N,GND*%
X20320001Y10160000D03*
%TD*%
%TO.P,M3,1*%
%TO.N,GND*%
X10160001Y10160000D03*
%TD*%
%TO.P,M1,1*%
%TO.N,GND*%
X10160001Y40640000D03*
%TD*%
D13*
%TO.P,J3,1*%
%TO.N,GND*%
X13970001Y30480000D03*
%TO.P,J3,2*%
X16510001Y30480000D03*
%TO.P,J3,3*%
%TO.N,/SCL{slash}CAN_H*%
X13970001Y27940000D03*
%TO.P,J3,4*%
X16510001Y27940000D03*
%TO.P,J3,5*%
%TO.N,/+5V*%
X13970001Y25400000D03*
%TO.P,J3,6*%
X16510001Y25400000D03*
%TO.P,J3,7*%
%TO.N,/SDA{slash}CAN_L*%
X13970001Y22860000D03*
%TO.P,J3,8*%
X16510001Y22860000D03*
%TO.P,J3,9*%
%TO.N,GND*%
X13970001Y20320000D03*
%TO.P,J3,10*%
X16510001Y20320000D03*
%TD*%
D14*
%TO.N,/+5V*%
X20269200Y23850600D03*
X10160000Y27940000D03*
X18541996Y31749996D03*
%TO.N,GND*%
X10287000Y22606000D03*
X7848600Y23545800D03*
X24079200Y16078200D03*
X20343999Y27686000D03*
X6299200Y23545800D03*
X6324600Y27305000D03*
X24104600Y23545800D03*
X6324600Y34772600D03*
X24130000Y34772600D03*
X22529800Y16078200D03*
X6350000Y16078200D03*
X22529800Y27305000D03*
X22580600Y34772600D03*
X22555200Y23545800D03*
X7874000Y34772600D03*
X7899400Y16078200D03*
X7874000Y27305000D03*
X24079200Y27305000D03*
%TO.N,/SDA{slash}CAN_L*%
X9262000Y24536404D03*
X21428600Y22621847D03*
%TD*%
D15*
%TO.N,/+5V*%
X18541996Y27432016D02*
X18541996Y31749996D01*
X18542007Y27432005D02*
X18541996Y27432016D01*
X16510001Y25400000D02*
X18542007Y27432005D01*
X20269200Y25704812D02*
X20269200Y23850600D01*
X18542007Y27432005D02*
X20269200Y25704812D01*
X12700000Y25400000D02*
X13970001Y25400000D01*
X18542007Y31749985D02*
X18541996Y31749996D01*
X10160000Y27940000D02*
X12700000Y25400000D01*
%TO.N,/SDA{slash}CAN_L*%
X12293597Y24536404D02*
X9262000Y24536404D01*
X13970001Y22860000D02*
X16510001Y22860000D01*
X16764001Y22606000D02*
X16510001Y22860000D01*
X13970001Y22860000D02*
X12293597Y24536404D01*
X21412753Y22606000D02*
X16764001Y22606000D01*
X21428600Y22621847D02*
X21412753Y22606000D01*
%TD*%
%TA.AperFunction,Conductor*%
%TO.N,GND*%
G36*
X16095793Y20491571D02*
G01*
X16065501Y20378520D01*
X16065501Y20261480D01*
X16095793Y20148429D01*
X16141074Y20070000D01*
X14338928Y20070000D01*
X14384209Y20148429D01*
X14414501Y20261480D01*
X14414501Y20378520D01*
X14384209Y20491571D01*
X14338928Y20570000D01*
X16141074Y20570000D01*
X16095793Y20491571D01*
G37*
%TD.AperFunction*%
%TA.AperFunction,Conductor*%
G36*
X16095793Y30651571D02*
G01*
X16065501Y30538520D01*
X16065501Y30421480D01*
X16095793Y30308429D01*
X16141074Y30230000D01*
X14338928Y30230000D01*
X14384209Y30308429D01*
X14414501Y30421480D01*
X14414501Y30538520D01*
X14384209Y30651571D01*
X14338928Y30730000D01*
X16141074Y30730000D01*
X16095793Y30651571D01*
G37*
%TD.AperFunction*%
%TA.AperFunction,Conductor*%
G36*
X24788540Y45145815D02*
G01*
X24834295Y45093011D01*
X24845501Y45041500D01*
X24845501Y5758500D01*
X24825816Y5691461D01*
X24773012Y5645706D01*
X24721501Y5634500D01*
X5758501Y5634500D01*
X5691462Y5654185D01*
X5645707Y5706989D01*
X5634501Y5758500D01*
X5634501Y24536404D01*
X8348496Y24536404D01*
X8368458Y24346476D01*
X8368459Y24346473D01*
X8427470Y24164855D01*
X8427473Y24164848D01*
X8522960Y23999460D01*
X8650747Y23857538D01*
X8805248Y23745286D01*
X8979712Y23667610D01*
X9166513Y23627904D01*
X9357487Y23627904D01*
X9544288Y23667610D01*
X9718752Y23745286D01*
X9722908Y23748307D01*
X9765462Y23779222D01*
X9831268Y23802702D01*
X9838347Y23802904D01*
X11938410Y23802904D01*
X12005449Y23783219D01*
X12026091Y23766585D01*
X12663182Y23129494D01*
X12696667Y23068171D01*
X12699501Y23041813D01*
X12699501Y22049346D01*
X12706012Y21988798D01*
X12706012Y21988796D01*
X12723101Y21942981D01*
X12757112Y21851796D01*
X12844740Y21734739D01*
X12912576Y21683958D01*
X12954446Y21628025D01*
X12959430Y21558334D01*
X12925945Y21497011D01*
X12912576Y21485426D01*
X12850810Y21439188D01*
X12764650Y21324094D01*
X12764646Y21324087D01*
X12714404Y21189380D01*
X12714402Y21189373D01*
X12708001Y21129845D01*
X12708001Y20570000D01*
X13601074Y20570000D01*
X13555793Y20491571D01*
X13525501Y20378520D01*
X13525501Y20261480D01*
X13555793Y20148429D01*
X13601074Y20070000D01*
X12708001Y20070000D01*
X12708001Y19510156D01*
X12714402Y19450628D01*
X12714404Y19450621D01*
X12764646Y19315914D01*
X12764650Y19315907D01*
X12850810Y19200813D01*
X12850813Y19200810D01*
X12965907Y19114650D01*
X12965914Y19114646D01*
X13100621Y19064404D01*
X13100628Y19064402D01*
X13160156Y19058001D01*
X13160173Y19058000D01*
X13720001Y19058000D01*
X13720001Y19951073D01*
X13798430Y19905792D01*
X13911481Y19875500D01*
X14028521Y19875500D01*
X14141572Y19905792D01*
X14220001Y19951073D01*
X14220001Y19058000D01*
X14779829Y19058000D01*
X14779845Y19058001D01*
X14839373Y19064402D01*
X14839380Y19064404D01*
X14974087Y19114646D01*
X14974094Y19114650D01*
X15089187Y19200809D01*
X15140734Y19269666D01*
X15196668Y19311537D01*
X15266360Y19316521D01*
X15327683Y19283036D01*
X15339268Y19269666D01*
X15390814Y19200809D01*
X15505907Y19114650D01*
X15505914Y19114646D01*
X15640621Y19064404D01*
X15640628Y19064402D01*
X15700156Y19058001D01*
X15700173Y19058000D01*
X16260001Y19058000D01*
X16260001Y19951073D01*
X16338430Y19905792D01*
X16451481Y19875500D01*
X16568521Y19875500D01*
X16681572Y19905792D01*
X16760001Y19951073D01*
X16760001Y19058000D01*
X17319829Y19058000D01*
X17319845Y19058001D01*
X17379373Y19064402D01*
X17379380Y19064404D01*
X17514087Y19114646D01*
X17514094Y19114650D01*
X17629188Y19200810D01*
X17629191Y19200813D01*
X17715351Y19315907D01*
X17715355Y19315914D01*
X17765597Y19450621D01*
X17765599Y19450628D01*
X17772000Y19510156D01*
X17772001Y19510173D01*
X17772001Y20070000D01*
X16878928Y20070000D01*
X16924209Y20148429D01*
X16954501Y20261480D01*
X16954501Y20378520D01*
X16924209Y20491571D01*
X16878928Y20570000D01*
X17772001Y20570000D01*
X17772001Y21129828D01*
X17772000Y21129845D01*
X17765599Y21189373D01*
X17765597Y21189380D01*
X17715355Y21324087D01*
X17715351Y21324094D01*
X17629191Y21439187D01*
X17567426Y21485425D01*
X17525555Y21541359D01*
X17520571Y21611051D01*
X17554056Y21672374D01*
X17567411Y21683947D01*
X17635262Y21734739D01*
X17701192Y21822812D01*
X17757126Y21864682D01*
X17800459Y21872500D01*
X20874065Y21872500D01*
X20941104Y21852815D01*
X20946951Y21848818D01*
X20971849Y21830728D01*
X21038820Y21800912D01*
X21146312Y21753053D01*
X21333113Y21713347D01*
X21524087Y21713347D01*
X21710888Y21753053D01*
X21885352Y21830729D01*
X22039853Y21942981D01*
X22167640Y22084903D01*
X22263127Y22250291D01*
X22322142Y22431919D01*
X22342104Y22621847D01*
X22322142Y22811775D01*
X22263127Y22993403D01*
X22167640Y23158791D01*
X22039853Y23300713D01*
X21885352Y23412965D01*
X21710888Y23490641D01*
X21710886Y23490642D01*
X21524087Y23530347D01*
X21333113Y23530347D01*
X21324974Y23528618D01*
X21311776Y23525812D01*
X21242109Y23531130D01*
X21186377Y23573268D01*
X21162273Y23638849D01*
X21162677Y23660065D01*
X21162740Y23660667D01*
X21162742Y23660672D01*
X21182704Y23850600D01*
X21162742Y24040528D01*
X21103727Y24222156D01*
X21067198Y24285425D01*
X21019313Y24368366D01*
X21002700Y24430366D01*
X21002700Y25777056D01*
X21002699Y25777060D01*
X20974513Y25918759D01*
X20974512Y25918766D01*
X20919219Y26052254D01*
X20919218Y26052256D01*
X20919218Y26052257D01*
X20838948Y26172390D01*
X20838947Y26172391D01*
X20796049Y26215289D01*
X20736779Y26274559D01*
X20736778Y26274560D01*
X19311815Y27699523D01*
X19278330Y27760846D01*
X19275496Y27787204D01*
X19275496Y31170231D01*
X19292109Y31232231D01*
X19376523Y31378440D01*
X19435538Y31560068D01*
X19455500Y31749996D01*
X19435538Y31939924D01*
X19376523Y32121552D01*
X19281036Y32286940D01*
X19153249Y32428862D01*
X18998748Y32541114D01*
X18824284Y32618790D01*
X18824282Y32618791D01*
X18637483Y32658496D01*
X18446509Y32658496D01*
X18259710Y32618791D01*
X18085242Y32541113D01*
X17930741Y32428861D01*
X17802955Y32286939D01*
X17707469Y32121553D01*
X17707466Y32121546D01*
X17648455Y31939928D01*
X17648454Y31939924D01*
X17634365Y31805872D01*
X17607780Y31741258D01*
X17550483Y31701273D01*
X17480664Y31698613D01*
X17467711Y31702652D01*
X17379381Y31735597D01*
X17379373Y31735599D01*
X17319845Y31742000D01*
X16760001Y31742000D01*
X16760001Y30848928D01*
X16681572Y30894208D01*
X16568521Y30924500D01*
X16451481Y30924500D01*
X16338430Y30894208D01*
X16260001Y30848928D01*
X16260001Y31742000D01*
X15700156Y31742000D01*
X15640628Y31735599D01*
X15640621Y31735597D01*
X15505914Y31685355D01*
X15505907Y31685351D01*
X15390813Y31599191D01*
X15339267Y31530334D01*
X15283333Y31488464D01*
X15213642Y31483480D01*
X15152319Y31516966D01*
X15140735Y31530334D01*
X15089188Y31599191D01*
X14974094Y31685351D01*
X14974087Y31685355D01*
X14839380Y31735597D01*
X14839373Y31735599D01*
X14779845Y31742000D01*
X14220001Y31742000D01*
X14220001Y30848928D01*
X14141572Y30894208D01*
X14028521Y30924500D01*
X13911481Y30924500D01*
X13798430Y30894208D01*
X13720001Y30848928D01*
X13720001Y31742000D01*
X13160156Y31742000D01*
X13100628Y31735599D01*
X13100621Y31735597D01*
X12965914Y31685355D01*
X12965907Y31685351D01*
X12850813Y31599191D01*
X12850810Y31599188D01*
X12764650Y31484094D01*
X12764646Y31484087D01*
X12714404Y31349380D01*
X12714402Y31349373D01*
X12708001Y31289845D01*
X12708001Y30730000D01*
X13601074Y30730000D01*
X13555793Y30651571D01*
X13525501Y30538520D01*
X13525501Y30421480D01*
X13555793Y30308429D01*
X13601074Y30230000D01*
X12708001Y30230000D01*
X12708001Y29670156D01*
X12714402Y29610628D01*
X12714404Y29610621D01*
X12764646Y29475914D01*
X12764650Y29475907D01*
X12850810Y29360814D01*
X12912575Y29314576D01*
X12954446Y29258642D01*
X12959430Y29188950D01*
X12925945Y29127627D01*
X12912575Y29116043D01*
X12844742Y29065263D01*
X12844741Y29065262D01*
X12844740Y29065261D01*
X12844739Y29065259D01*
X12757112Y28948205D01*
X12706012Y28811205D01*
X12706012Y28811203D01*
X12699501Y28750655D01*
X12699501Y27129346D01*
X12706012Y27068798D01*
X12706012Y27068796D01*
X12726254Y27014528D01*
X12757112Y26931796D01*
X12844740Y26814739D01*
X12844741Y26814739D01*
X12844742Y26814737D01*
X12905483Y26769266D01*
X12947354Y26713332D01*
X12952338Y26643641D01*
X12918852Y26582318D01*
X12905483Y26570734D01*
X12844741Y26525263D01*
X12844740Y26525262D01*
X12830884Y26506753D01*
X12774948Y26464884D01*
X12705256Y26459903D01*
X12643939Y26493387D01*
X11090011Y28047314D01*
X11056526Y28108637D01*
X11054372Y28122029D01*
X11053542Y28129928D01*
X10994527Y28311556D01*
X10899040Y28476944D01*
X10771253Y28618866D01*
X10616752Y28731118D01*
X10442288Y28808794D01*
X10442286Y28808795D01*
X10255487Y28848500D01*
X10064513Y28848500D01*
X9877714Y28808795D01*
X9703246Y28731117D01*
X9548745Y28618865D01*
X9420959Y28476943D01*
X9325473Y28311557D01*
X9325470Y28311550D01*
X9266459Y28129932D01*
X9266458Y28129928D01*
X9246496Y27940000D01*
X9266458Y27750072D01*
X9266459Y27750069D01*
X9325470Y27568451D01*
X9325473Y27568444D01*
X9420960Y27403056D01*
X9548747Y27261134D01*
X9703248Y27148882D01*
X9877712Y27071206D01*
X9986246Y27048137D01*
X10047728Y27014945D01*
X10048147Y27014528D01*
X11581089Y25481585D01*
X11614574Y25420262D01*
X11609590Y25350570D01*
X11567718Y25294637D01*
X11502254Y25270220D01*
X11493408Y25269904D01*
X9838347Y25269904D01*
X9771308Y25289589D01*
X9765462Y25293586D01*
X9718756Y25327520D01*
X9718752Y25327522D01*
X9544288Y25405198D01*
X9544286Y25405199D01*
X9357487Y25444904D01*
X9166513Y25444904D01*
X8979714Y25405199D01*
X8805246Y25327521D01*
X8650745Y25215269D01*
X8522959Y25073347D01*
X8427473Y24907961D01*
X8427470Y24907954D01*
X8368459Y24726336D01*
X8368458Y24726332D01*
X8348496Y24536404D01*
X5634501Y24536404D01*
X5634501Y37542902D01*
X14079263Y37542902D01*
X16258326Y37542902D01*
X16258326Y44293115D01*
X14079263Y44293115D01*
X14079263Y37542902D01*
X5634501Y37542902D01*
X5634501Y45041500D01*
X5654186Y45108539D01*
X5706990Y45154294D01*
X5758501Y45165500D01*
X24721501Y45165500D01*
X24788540Y45145815D01*
G37*
%TD.AperFunction*%
%TD*%
M02*
