M48
; DRILL file {KiCad 7.0.11+1} date Thu May 30 17:14:53 2024
; FORMAT={3:3/ absolute / metric / suppress leading zeros}
; #@! TF.CreationDate,2024-05-30T17:14:53+00:00
; #@! TF.GenerationSoftware,Kicad,Pcbnew,7.0.11+1
; #@! TF.FileFunction,Plated,1,2,PTH
FMAT,2
METRIC,TZ
; #@! TA.AperFunction,Plated,PTH,ViaDrill
T1C0.400
; #@! TA.AperFunction,Plated,PTH,ComponentDrill
T2C0.889
; #@! TA.AperFunction,Plated,PTH,ComponentDrill
T3C3.000
%
G90
G05
T1
X9525Y24130
X10160Y27940
X10287Y22606
X18542Y31750
X20574Y27686
X20604Y23876
X21802Y22747
T2
X13970Y30480
X13970Y27940
X13970Y25400
X13970Y22860
X13970Y20320
X16510Y30480
X16510Y27940
X16510Y25400
X16510Y22860
X16510Y20320
T3
X10160Y40640
X10160Y10160
X20320Y40640
X20320Y10160
M30
