%TF.GenerationSoftware,KiCad,Pcbnew,7.0.11+1*%
%TF.CreationDate,2024-05-30T17:14:53+00:00*%
%TF.ProjectId,GH4PIN01,47483450-494e-4303-912e-6b696361645f,rev?*%
%TF.SameCoordinates,Original*%
%TF.FileFunction,Legend,Bot*%
%TF.FilePolarity,Positive*%
%FSLAX46Y46*%
G04 Gerber Fmt 4.6, Leading zero omitted, Abs format (unit mm)*
G04 Created by KiCad (PCBNEW 7.0.11+1) date 2024-05-30 17:14:53*
%MOMM*%
%LPD*%
G01*
G04 APERTURE LIST*
%ADD10C,0.150000*%
%ADD11C,0.120000*%
G04 APERTURE END LIST*
D10*
X18008419Y20145334D02*
X18722704Y20145334D01*
X18722704Y20145334D02*
X18865561Y20192953D01*
X18865561Y20192953D02*
X18960800Y20288191D01*
X18960800Y20288191D02*
X19008419Y20431048D01*
X19008419Y20431048D02*
X19008419Y20526286D01*
X19008419Y19145334D02*
X19008419Y19716762D01*
X19008419Y19431048D02*
X18008419Y19431048D01*
X18008419Y19431048D02*
X18151276Y19526286D01*
X18151276Y19526286D02*
X18246514Y19621524D01*
X18246514Y19621524D02*
X18294133Y19716762D01*
X11381219Y20145334D02*
X12095504Y20145334D01*
X12095504Y20145334D02*
X12238361Y20192953D01*
X12238361Y20192953D02*
X12333600Y20288191D01*
X12333600Y20288191D02*
X12381219Y20431048D01*
X12381219Y20431048D02*
X12381219Y20526286D01*
X11381219Y19192953D02*
X11381219Y19669143D01*
X11381219Y19669143D02*
X11857409Y19716762D01*
X11857409Y19716762D02*
X11809790Y19669143D01*
X11809790Y19669143D02*
X11762171Y19573905D01*
X11762171Y19573905D02*
X11762171Y19335810D01*
X11762171Y19335810D02*
X11809790Y19240572D01*
X11809790Y19240572D02*
X11857409Y19192953D01*
X11857409Y19192953D02*
X11952647Y19145334D01*
X11952647Y19145334D02*
X12190742Y19145334D01*
X12190742Y19145334D02*
X12285980Y19192953D01*
X12285980Y19192953D02*
X12333600Y19240572D01*
X12333600Y19240572D02*
X12381219Y19335810D01*
X12381219Y19335810D02*
X12381219Y19573905D01*
X12381219Y19573905D02*
X12333600Y19669143D01*
X12333600Y19669143D02*
X12285980Y19716762D01*
X18008419Y31372134D02*
X18722704Y31372134D01*
X18722704Y31372134D02*
X18865561Y31419753D01*
X18865561Y31419753D02*
X18960800Y31514991D01*
X18960800Y31514991D02*
X19008419Y31657848D01*
X19008419Y31657848D02*
X19008419Y31753086D01*
X18103657Y30943562D02*
X18056038Y30895943D01*
X18056038Y30895943D02*
X18008419Y30800705D01*
X18008419Y30800705D02*
X18008419Y30562610D01*
X18008419Y30562610D02*
X18056038Y30467372D01*
X18056038Y30467372D02*
X18103657Y30419753D01*
X18103657Y30419753D02*
X18198895Y30372134D01*
X18198895Y30372134D02*
X18294133Y30372134D01*
X18294133Y30372134D02*
X18436990Y30419753D01*
X18436990Y30419753D02*
X19008419Y30991181D01*
X19008419Y30991181D02*
X19008419Y30372134D01*
X11381219Y31372134D02*
X12095504Y31372134D01*
X12095504Y31372134D02*
X12238361Y31419753D01*
X12238361Y31419753D02*
X12333600Y31514991D01*
X12333600Y31514991D02*
X12381219Y31657848D01*
X12381219Y31657848D02*
X12381219Y31753086D01*
X11714552Y30467372D02*
X12381219Y30467372D01*
X11333600Y30705467D02*
X12047885Y30943562D01*
X12047885Y30943562D02*
X12047885Y30324515D01*
D11*
%TO.C,J1*%
X22193600Y24047000D02*
X20743600Y24047000D01*
X20743600Y24047000D02*
X20743600Y22247000D01*
X25013600Y22777000D02*
X25013600Y16847000D01*
X20743600Y22247000D02*
X19753600Y22247000D01*
X22193600Y15577000D02*
X20743600Y15577000D01*
X20743600Y15577000D02*
X20743600Y17377000D01*
%TO.C,J5*%
X8286400Y15577000D02*
X9736400Y15577000D01*
X9736400Y15577000D02*
X9736400Y17377000D01*
X5466400Y16847000D02*
X5466400Y22777000D01*
X9736400Y17377000D02*
X10726400Y17377000D01*
X8286400Y24047000D02*
X9736400Y24047000D01*
X9736400Y24047000D02*
X9736400Y22247000D01*
%TO.C,J2*%
X22193600Y35273800D02*
X20743600Y35273800D01*
X20743600Y35273800D02*
X20743600Y33473800D01*
X25013600Y34003800D02*
X25013600Y28073800D01*
X20743600Y33473800D02*
X19753600Y33473800D01*
X22193600Y26803800D02*
X20743600Y26803800D01*
X20743600Y26803800D02*
X20743600Y28603800D01*
%TO.C,J4*%
X8286400Y26803800D02*
X9736400Y26803800D01*
X9736400Y26803800D02*
X9736400Y28603800D01*
X5466400Y28073800D02*
X5466400Y34003800D01*
X9736400Y28603800D02*
X10726400Y28603800D01*
X8286400Y35273800D02*
X9736400Y35273800D01*
X9736400Y35273800D02*
X9736400Y33473800D01*
%TD*%
M02*
