%TF.GenerationSoftware,KiCad,Pcbnew,7.0.5.1-1-g8f565ef7f0-dirty-deb11*%
%TF.CreationDate,2023-07-21T03:27:37+00:00*%
%TF.ProjectId,GH4PIN01,47483450-494e-4303-912e-6b696361645f,rev?*%
%TF.SameCoordinates,Original*%
%TF.FileFunction,Legend,Top*%
%TF.FilePolarity,Positive*%
%FSLAX46Y46*%
G04 Gerber Fmt 4.6, Leading zero omitted, Abs format (unit mm)*
G04 Created by KiCad (PCBNEW 7.0.5.1-1-g8f565ef7f0-dirty-deb11) date 2023-07-21 03:27:37*
%MOMM*%
%LPD*%
G01*
G04 APERTURE LIST*
%ADD10C,0.150000*%
%ADD11R,1.524000X1.524000*%
G04 APERTURE END LIST*
D10*
%TO.C,J3*%
X-2693143Y5409872D02*
X-2693143Y6909872D01*
X-2693143Y6195586D02*
X-1836000Y6195586D01*
X-1836000Y5409872D02*
X-1836000Y6909872D01*
X-1121714Y6195586D02*
X-621714Y6195586D01*
X-407428Y5409872D02*
X-1121714Y5409872D01*
X-1121714Y5409872D02*
X-1121714Y6909872D01*
X-1121714Y6909872D02*
X-407428Y6909872D01*
X164001Y5838443D02*
X878287Y5838443D01*
X21144Y5409872D02*
X521144Y6909872D01*
X521144Y6909872D02*
X1021144Y5409872D01*
X1521143Y5409872D02*
X1521143Y6909872D01*
X1521143Y6909872D02*
X1878286Y6909872D01*
X1878286Y6909872D02*
X2092572Y6838443D01*
X2092572Y6838443D02*
X2235429Y6695586D01*
X2235429Y6695586D02*
X2306858Y6552729D01*
X2306858Y6552729D02*
X2378286Y6267015D01*
X2378286Y6267015D02*
X2378286Y6052729D01*
X2378286Y6052729D02*
X2306858Y5767015D01*
X2306858Y5767015D02*
X2235429Y5624158D01*
X2235429Y5624158D02*
X2092572Y5481300D01*
X2092572Y5481300D02*
X1878286Y5409872D01*
X1878286Y5409872D02*
X1521143Y5409872D01*
X3021143Y6195586D02*
X3521143Y6195586D01*
X3735429Y5409872D02*
X3021143Y5409872D01*
X3021143Y5409872D02*
X3021143Y6909872D01*
X3021143Y6909872D02*
X3735429Y6909872D01*
X5235429Y5409872D02*
X4735429Y6124158D01*
X4378286Y5409872D02*
X4378286Y6909872D01*
X4378286Y6909872D02*
X4949715Y6909872D01*
X4949715Y6909872D02*
X5092572Y6838443D01*
X5092572Y6838443D02*
X5164001Y6767015D01*
X5164001Y6767015D02*
X5235429Y6624158D01*
X5235429Y6624158D02*
X5235429Y6409872D01*
X5235429Y6409872D02*
X5164001Y6267015D01*
X5164001Y6267015D02*
X5092572Y6195586D01*
X5092572Y6195586D02*
X4949715Y6124158D01*
X4949715Y6124158D02*
X4378286Y6124158D01*
X5521144Y5267015D02*
X6664001Y5267015D01*
X6949715Y6767015D02*
X7021143Y6838443D01*
X7021143Y6838443D02*
X7164001Y6909872D01*
X7164001Y6909872D02*
X7521143Y6909872D01*
X7521143Y6909872D02*
X7664001Y6838443D01*
X7664001Y6838443D02*
X7735429Y6767015D01*
X7735429Y6767015D02*
X7806858Y6624158D01*
X7806858Y6624158D02*
X7806858Y6481300D01*
X7806858Y6481300D02*
X7735429Y6267015D01*
X7735429Y6267015D02*
X6878286Y5409872D01*
X6878286Y5409872D02*
X7806858Y5409872D01*
X8306857Y5409872D02*
X9092572Y6409872D01*
X8306857Y6409872D02*
X9092572Y5409872D01*
X9949715Y6909872D02*
X10092572Y6909872D01*
X10092572Y6909872D02*
X10235429Y6838443D01*
X10235429Y6838443D02*
X10306858Y6767015D01*
X10306858Y6767015D02*
X10378286Y6624158D01*
X10378286Y6624158D02*
X10449715Y6338443D01*
X10449715Y6338443D02*
X10449715Y5981300D01*
X10449715Y5981300D02*
X10378286Y5695586D01*
X10378286Y5695586D02*
X10306858Y5552729D01*
X10306858Y5552729D02*
X10235429Y5481300D01*
X10235429Y5481300D02*
X10092572Y5409872D01*
X10092572Y5409872D02*
X9949715Y5409872D01*
X9949715Y5409872D02*
X9806858Y5481300D01*
X9806858Y5481300D02*
X9735429Y5552729D01*
X9735429Y5552729D02*
X9664000Y5695586D01*
X9664000Y5695586D02*
X9592572Y5981300D01*
X9592572Y5981300D02*
X9592572Y6338443D01*
X9592572Y6338443D02*
X9664000Y6624158D01*
X9664000Y6624158D02*
X9735429Y6767015D01*
X9735429Y6767015D02*
X9806858Y6838443D01*
X9806858Y6838443D02*
X9949715Y6909872D01*
X11806857Y6909872D02*
X11092571Y6909872D01*
X11092571Y6909872D02*
X11021143Y6195586D01*
X11021143Y6195586D02*
X11092571Y6267015D01*
X11092571Y6267015D02*
X11235429Y6338443D01*
X11235429Y6338443D02*
X11592571Y6338443D01*
X11592571Y6338443D02*
X11735429Y6267015D01*
X11735429Y6267015D02*
X11806857Y6195586D01*
X11806857Y6195586D02*
X11878286Y6052729D01*
X11878286Y6052729D02*
X11878286Y5695586D01*
X11878286Y5695586D02*
X11806857Y5552729D01*
X11806857Y5552729D02*
X11735429Y5481300D01*
X11735429Y5481300D02*
X11592571Y5409872D01*
X11592571Y5409872D02*
X11235429Y5409872D01*
X11235429Y5409872D02*
X11092571Y5481300D01*
X11092571Y5481300D02*
X11021143Y5552729D01*
X12164000Y5267015D02*
X13306857Y5267015D01*
X13663999Y5409872D02*
X13663999Y6909872D01*
X13663999Y6909872D02*
X14235428Y6909872D01*
X14235428Y6909872D02*
X14378285Y6838443D01*
X14378285Y6838443D02*
X14449714Y6767015D01*
X14449714Y6767015D02*
X14521142Y6624158D01*
X14521142Y6624158D02*
X14521142Y6409872D01*
X14521142Y6409872D02*
X14449714Y6267015D01*
X14449714Y6267015D02*
X14378285Y6195586D01*
X14378285Y6195586D02*
X14235428Y6124158D01*
X14235428Y6124158D02*
X13663999Y6124158D01*
X15092571Y5838443D02*
X15806857Y5838443D01*
X14949714Y5409872D02*
X15449714Y6909872D01*
X15449714Y6909872D02*
X15949714Y5409872D01*
X17306856Y5409872D02*
X16806856Y6124158D01*
X16449713Y5409872D02*
X16449713Y6909872D01*
X16449713Y6909872D02*
X17021142Y6909872D01*
X17021142Y6909872D02*
X17163999Y6838443D01*
X17163999Y6838443D02*
X17235428Y6767015D01*
X17235428Y6767015D02*
X17306856Y6624158D01*
X17306856Y6624158D02*
X17306856Y6409872D01*
X17306856Y6409872D02*
X17235428Y6267015D01*
X17235428Y6267015D02*
X17163999Y6195586D01*
X17163999Y6195586D02*
X17021142Y6124158D01*
X17021142Y6124158D02*
X16449713Y6124158D01*
X17878285Y5838443D02*
X18592571Y5838443D01*
X17735428Y5409872D02*
X18235428Y6909872D01*
X18235428Y6909872D02*
X18735428Y5409872D01*
X19949713Y5409872D02*
X19235427Y5409872D01*
X19235427Y5409872D02*
X19235427Y6909872D01*
X21163999Y5409872D02*
X20449713Y5409872D01*
X20449713Y5409872D02*
X20449713Y6909872D01*
X21663999Y6195586D02*
X22163999Y6195586D01*
X22378285Y5409872D02*
X21663999Y5409872D01*
X21663999Y5409872D02*
X21663999Y6909872D01*
X21663999Y6909872D02*
X22378285Y6909872D01*
X23735428Y5409872D02*
X23021142Y5409872D01*
X23021142Y5409872D02*
X23021142Y6909872D01*
X-2286000Y21590000D02*
X2794000Y21590000D01*
X-2286000Y8890000D02*
X-2286000Y21590000D01*
X2794000Y21590000D02*
X2794000Y8890000D01*
X2794000Y8890000D02*
X-2286000Y8890000D01*
%TD*%
D11*
%TO.C,J3*%
X-1016000Y20320000D03*
X1524000Y20320000D03*
X-1016000Y17780000D03*
X1524000Y17780000D03*
X-1016000Y15240000D03*
X1524000Y15240000D03*
X-1016000Y12700000D03*
X1524000Y12700000D03*
X-1016000Y10160000D03*
X1524000Y10160000D03*
%TD*%
M02*
