%TF.GenerationSoftware,KiCad,Pcbnew,7.0.5.1-1-g8f565ef7f0-dirty-deb11*%
%TF.CreationDate,2023-07-08T01:47:52+00:00*%
%TF.ProjectId,GH4PIN01,47483450-494e-4303-912e-6b696361645f,rev?*%
%TF.SameCoordinates,Original*%
%TF.FileFunction,Legend,Bot*%
%TF.FilePolarity,Positive*%
%FSLAX46Y46*%
G04 Gerber Fmt 4.6, Leading zero omitted, Abs format (unit mm)*
G04 Created by KiCad (PCBNEW 7.0.5.1-1-g8f565ef7f0-dirty-deb11) date 2023-07-08 01:47:52*
%MOMM*%
%LPD*%
G01*
G04 APERTURE LIST*
%ADD10C,0.150000*%
%ADD11C,0.120000*%
G04 APERTURE END LIST*
D10*
%TO.C,J1*%
X9778819Y7953334D02*
X10493104Y7953334D01*
X10493104Y7953334D02*
X10635961Y8000953D01*
X10635961Y8000953D02*
X10731200Y8096191D01*
X10731200Y8096191D02*
X10778819Y8239048D01*
X10778819Y8239048D02*
X10778819Y8334286D01*
X10778819Y6953334D02*
X10778819Y7524762D01*
X10778819Y7239048D02*
X9778819Y7239048D01*
X9778819Y7239048D02*
X9921676Y7334286D01*
X9921676Y7334286D02*
X10016914Y7429524D01*
X10016914Y7429524D02*
X10064533Y7524762D01*
%TO.C,J2*%
X9778819Y19129334D02*
X10493104Y19129334D01*
X10493104Y19129334D02*
X10635961Y19176953D01*
X10635961Y19176953D02*
X10731200Y19272191D01*
X10731200Y19272191D02*
X10778819Y19415048D01*
X10778819Y19415048D02*
X10778819Y19510286D01*
X9874057Y18700762D02*
X9826438Y18653143D01*
X9826438Y18653143D02*
X9778819Y18557905D01*
X9778819Y18557905D02*
X9778819Y18319810D01*
X9778819Y18319810D02*
X9826438Y18224572D01*
X9826438Y18224572D02*
X9874057Y18176953D01*
X9874057Y18176953D02*
X9969295Y18129334D01*
X9969295Y18129334D02*
X10064533Y18129334D01*
X10064533Y18129334D02*
X10207390Y18176953D01*
X10207390Y18176953D02*
X10778819Y18748381D01*
X10778819Y18748381D02*
X10778819Y18129334D01*
D11*
%TO.C,J1*%
X13964000Y11855000D02*
X12514000Y11855000D01*
X12514000Y11855000D02*
X12514000Y10055000D01*
X16784000Y10585000D02*
X16784000Y4655000D01*
X12514000Y10055000D02*
X11524000Y10055000D01*
X13964000Y3385000D02*
X12514000Y3385000D01*
X12514000Y3385000D02*
X12514000Y5185000D01*
%TO.C,J2*%
X13964000Y23031000D02*
X12514000Y23031000D01*
X12514000Y23031000D02*
X12514000Y21231000D01*
X16784000Y21761000D02*
X16784000Y15831000D01*
X12514000Y21231000D02*
X11524000Y21231000D01*
X13964000Y14561000D02*
X12514000Y14561000D01*
X12514000Y14561000D02*
X12514000Y16361000D01*
%TD*%
M02*
