%TF.GenerationSoftware,KiCad,Pcbnew,7.0.11+1*%
%TF.CreationDate,2024-05-30T17:37:28+00:00*%
%TF.ProjectId,GH4PIN01,47483450-494e-4303-912e-6b696361645f,rev?*%
%TF.SameCoordinates,Original*%
%TF.FileFunction,Legend,Bot*%
%TF.FilePolarity,Positive*%
%FSLAX46Y46*%
G04 Gerber Fmt 4.6, Leading zero omitted, Abs format (unit mm)*
G04 Created by KiCad (PCBNEW 7.0.11+1) date 2024-05-30 17:37:28*
%MOMM*%
%LPD*%
G01*
G04 APERTURE LIST*
%ADD10C,0.150000*%
%ADD11C,0.120000*%
G04 APERTURE END LIST*
D10*
X19317619Y16233734D02*
X20031904Y16233734D01*
X20031904Y16233734D02*
X20174761Y16281353D01*
X20174761Y16281353D02*
X20270000Y16376591D01*
X20270000Y16376591D02*
X20317619Y16519448D01*
X20317619Y16519448D02*
X20317619Y16614686D01*
X20317619Y15233734D02*
X20317619Y15805162D01*
X20317619Y15519448D02*
X19317619Y15519448D01*
X19317619Y15519448D02*
X19460476Y15614686D01*
X19460476Y15614686D02*
X19555714Y15709924D01*
X19555714Y15709924D02*
X19603333Y15805162D01*
X10173619Y16386134D02*
X10887904Y16386134D01*
X10887904Y16386134D02*
X11030761Y16433753D01*
X11030761Y16433753D02*
X11126000Y16528991D01*
X11126000Y16528991D02*
X11173619Y16671848D01*
X11173619Y16671848D02*
X11173619Y16767086D01*
X10173619Y15433753D02*
X10173619Y15909943D01*
X10173619Y15909943D02*
X10649809Y15957562D01*
X10649809Y15957562D02*
X10602190Y15909943D01*
X10602190Y15909943D02*
X10554571Y15814705D01*
X10554571Y15814705D02*
X10554571Y15576610D01*
X10554571Y15576610D02*
X10602190Y15481372D01*
X10602190Y15481372D02*
X10649809Y15433753D01*
X10649809Y15433753D02*
X10745047Y15386134D01*
X10745047Y15386134D02*
X10983142Y15386134D01*
X10983142Y15386134D02*
X11078380Y15433753D01*
X11078380Y15433753D02*
X11126000Y15481372D01*
X11126000Y15481372D02*
X11173619Y15576610D01*
X11173619Y15576610D02*
X11173619Y15814705D01*
X11173619Y15814705D02*
X11126000Y15909943D01*
X11126000Y15909943D02*
X11078380Y15957562D01*
X19012819Y27968534D02*
X19727104Y27968534D01*
X19727104Y27968534D02*
X19869961Y28016153D01*
X19869961Y28016153D02*
X19965200Y28111391D01*
X19965200Y28111391D02*
X20012819Y28254248D01*
X20012819Y28254248D02*
X20012819Y28349486D01*
X19108057Y27539962D02*
X19060438Y27492343D01*
X19060438Y27492343D02*
X19012819Y27397105D01*
X19012819Y27397105D02*
X19012819Y27159010D01*
X19012819Y27159010D02*
X19060438Y27063772D01*
X19060438Y27063772D02*
X19108057Y27016153D01*
X19108057Y27016153D02*
X19203295Y26968534D01*
X19203295Y26968534D02*
X19298533Y26968534D01*
X19298533Y26968534D02*
X19441390Y27016153D01*
X19441390Y27016153D02*
X20012819Y27587581D01*
X20012819Y27587581D02*
X20012819Y26968534D01*
X10173619Y27104934D02*
X10887904Y27104934D01*
X10887904Y27104934D02*
X11030761Y27152553D01*
X11030761Y27152553D02*
X11126000Y27247791D01*
X11126000Y27247791D02*
X11173619Y27390648D01*
X11173619Y27390648D02*
X11173619Y27485886D01*
X10506952Y26200172D02*
X11173619Y26200172D01*
X10126000Y26438267D02*
X10840285Y26676362D01*
X10840285Y26676362D02*
X10840285Y26057315D01*
D11*
%TO.C,J1*%
X22193600Y24047000D02*
X20743600Y24047000D01*
X20743600Y24047000D02*
X20743600Y22247000D01*
X25013600Y22777000D02*
X25013600Y16847000D01*
X20743600Y22247000D02*
X19753600Y22247000D01*
X22193600Y15577000D02*
X20743600Y15577000D01*
X20743600Y15577000D02*
X20743600Y17377000D01*
%TO.C,J5*%
X8286400Y15577000D02*
X9736400Y15577000D01*
X9736400Y15577000D02*
X9736400Y17377000D01*
X5466400Y16847000D02*
X5466400Y22777000D01*
X9736400Y17377000D02*
X10726400Y17377000D01*
X8286400Y24047000D02*
X9736400Y24047000D01*
X9736400Y24047000D02*
X9736400Y22247000D01*
%TO.C,J2*%
X22193600Y35273800D02*
X20743600Y35273800D01*
X20743600Y35273800D02*
X20743600Y33473800D01*
X25013600Y34003800D02*
X25013600Y28073800D01*
X20743600Y33473800D02*
X19753600Y33473800D01*
X22193600Y26803800D02*
X20743600Y26803800D01*
X20743600Y26803800D02*
X20743600Y28603800D01*
%TO.C,J4*%
X8286400Y26803800D02*
X9736400Y26803800D01*
X9736400Y26803800D02*
X9736400Y28603800D01*
X5466400Y28073800D02*
X5466400Y34003800D01*
X9736400Y28603800D02*
X10726400Y28603800D01*
X8286400Y35273800D02*
X9736400Y35273800D01*
X9736400Y35273800D02*
X9736400Y33473800D01*
%TD*%
M02*
