%TF.GenerationSoftware,KiCad,Pcbnew,7.0.11+1*%
%TF.CreationDate,2024-05-30T17:14:53+00:00*%
%TF.ProjectId,GH4PIN01,47483450-494e-4303-912e-6b696361645f,rev?*%
%TF.SameCoordinates,Original*%
%TF.FileFunction,Copper,L2,Bot*%
%TF.FilePolarity,Positive*%
%FSLAX46Y46*%
G04 Gerber Fmt 4.6, Leading zero omitted, Abs format (unit mm)*
G04 Created by KiCad (PCBNEW 7.0.11+1) date 2024-05-30 17:14:53*
%MOMM*%
%LPD*%
G01*
G04 APERTURE LIST*
G04 Aperture macros list*
%AMRoundRect*
0 Rectangle with rounded corners*
0 $1 Rounding radius*
0 $2 $3 $4 $5 $6 $7 $8 $9 X,Y pos of 4 corners*
0 Add a 4 corners polygon primitive as box body*
4,1,4,$2,$3,$4,$5,$6,$7,$8,$9,$2,$3,0*
0 Add four circle primitives for the rounded corners*
1,1,$1+$1,$2,$3*
1,1,$1+$1,$4,$5*
1,1,$1+$1,$6,$7*
1,1,$1+$1,$8,$9*
0 Add four rect primitives between the rounded corners*
20,1,$1+$1,$2,$3,$4,$5,0*
20,1,$1+$1,$4,$5,$6,$7,0*
20,1,$1+$1,$6,$7,$8,$9,0*
20,1,$1+$1,$8,$9,$2,$3,0*%
G04 Aperture macros list end*
%TA.AperFunction,ComponentPad*%
%ADD10C,6.000000*%
%TD*%
%TA.AperFunction,ComponentPad*%
%ADD11R,1.524000X1.524000*%
%TD*%
%TA.AperFunction,SMDPad,CuDef*%
%ADD12RoundRect,0.150000X-0.700000X0.150000X-0.700000X-0.150000X0.700000X-0.150000X0.700000X0.150000X0*%
%TD*%
%TA.AperFunction,SMDPad,CuDef*%
%ADD13RoundRect,0.250000X-1.100000X0.250000X-1.100000X-0.250000X1.100000X-0.250000X1.100000X0.250000X0*%
%TD*%
%TA.AperFunction,SMDPad,CuDef*%
%ADD14RoundRect,0.150000X0.700000X-0.150000X0.700000X0.150000X-0.700000X0.150000X-0.700000X-0.150000X0*%
%TD*%
%TA.AperFunction,SMDPad,CuDef*%
%ADD15RoundRect,0.250000X1.100000X-0.250000X1.100000X0.250000X-1.100000X0.250000X-1.100000X-0.250000X0*%
%TD*%
%TA.AperFunction,ViaPad*%
%ADD16C,0.800000*%
%TD*%
%TA.AperFunction,Conductor*%
%ADD17C,0.450000*%
%TD*%
%TA.AperFunction,Conductor*%
%ADD18C,0.700000*%
%TD*%
G04 APERTURE END LIST*
D10*
%TO.P,M2,1*%
%TO.N,GND*%
X20320001Y40640000D03*
%TD*%
%TO.P,M4,1*%
%TO.N,GND*%
X20320001Y10160000D03*
%TD*%
%TO.P,M3,1*%
%TO.N,GND*%
X10160001Y10160000D03*
%TD*%
%TO.P,M1,1*%
%TO.N,GND*%
X10160001Y40640000D03*
%TD*%
D11*
%TO.P,J3,1*%
%TO.N,GND*%
X13970001Y30480000D03*
%TO.P,J3,2*%
X16510001Y30480000D03*
%TO.P,J3,3*%
%TO.N,/SCL*%
X13970001Y27940000D03*
%TO.P,J3,4*%
X16510001Y27940000D03*
%TO.P,J3,5*%
%TO.N,/+5V*%
X13970001Y25400000D03*
%TO.P,J3,6*%
X16510001Y25400000D03*
%TO.P,J3,7*%
%TO.N,/SDA*%
X13970001Y22860000D03*
%TO.P,J3,8*%
X16510001Y22860000D03*
%TO.P,J3,9*%
%TO.N,GND*%
X13970001Y20320000D03*
%TO.P,J3,10*%
X16510001Y20320000D03*
%TD*%
D12*
%TO.P,J1,1*%
%TO.N,/+5V*%
X20603600Y21687000D03*
%TO.P,J1,2*%
%TO.N,/SCL*%
X20603600Y20437000D03*
%TO.P,J1,3*%
%TO.N,/SDA*%
X20603600Y19187000D03*
%TO.P,J1,4*%
%TO.N,GND*%
X20603600Y17937000D03*
D13*
%TO.P,J1,MP*%
X23803600Y23537000D03*
X23803600Y16087000D03*
%TD*%
D14*
%TO.P,J5,1*%
%TO.N,/+5V*%
X9876400Y17937000D03*
%TO.P,J5,2*%
%TO.N,/SCL*%
X9876400Y19187000D03*
%TO.P,J5,3*%
%TO.N,/SDA*%
X9876400Y20437000D03*
%TO.P,J5,4*%
%TO.N,GND*%
X9876400Y21687000D03*
D15*
%TO.P,J5,MP*%
X6676400Y16087000D03*
X6676400Y23537000D03*
%TD*%
D12*
%TO.P,J2,1*%
%TO.N,/+5V*%
X20603600Y32913800D03*
%TO.P,J2,2*%
%TO.N,/SCL*%
X20603600Y31663800D03*
%TO.P,J2,3*%
%TO.N,/SDA*%
X20603600Y30413800D03*
%TO.P,J2,4*%
%TO.N,GND*%
X20603600Y29163800D03*
D13*
%TO.P,J2,MP*%
X23803600Y34763800D03*
X23803600Y27313800D03*
%TD*%
D14*
%TO.P,J4,1*%
%TO.N,/+5V*%
X9876400Y29163800D03*
%TO.P,J4,2*%
%TO.N,/SCL*%
X9876400Y30413800D03*
%TO.P,J4,3*%
%TO.N,/SDA*%
X9876400Y31663800D03*
%TO.P,J4,4*%
%TO.N,GND*%
X9876400Y32913800D03*
D15*
%TO.P,J4,MP*%
X6676400Y27313800D03*
X6676400Y34763800D03*
%TD*%
D16*
%TO.N,/+5V*%
X20603600Y23876000D03*
X10160000Y27940000D03*
X18541996Y31749996D03*
%TO.N,GND*%
X10287000Y22606000D03*
X20574000Y27686000D03*
%TO.N,/SDA*%
X9525000Y24129996D03*
X21801628Y22746952D03*
%TD*%
D17*
%TO.N,/+5V*%
X9876400Y29163800D02*
X9876400Y28223600D01*
X20603600Y32913800D02*
X19705800Y32913800D01*
X19705800Y32913800D02*
X18541996Y31749996D01*
X9876400Y28223600D02*
X10160000Y27940000D01*
X20603600Y21687000D02*
X20603600Y23876000D01*
X16510001Y25400000D02*
X13970001Y25400000D01*
X12192000Y19402601D02*
X12192000Y23621999D01*
X12192000Y23621999D02*
X13970001Y25400000D01*
X10726399Y17937000D02*
X12192000Y19402601D01*
X9876400Y17937000D02*
X10726399Y17937000D01*
D18*
%TO.N,GND*%
X9876400Y21687000D02*
X9876400Y22195400D01*
X20603600Y29163800D02*
X20603600Y27715600D01*
X16510001Y30480000D02*
X13970001Y30480000D01*
X9876400Y22195400D02*
X10287000Y22606000D01*
X20603600Y27715600D02*
X20574000Y27686000D01*
X16510001Y20320000D02*
X13970001Y20320000D01*
D17*
%TO.N,/SCL*%
X10551000Y19187000D02*
X11351400Y19987400D01*
X19753601Y20437000D02*
X19128600Y21062001D01*
X11402200Y27940000D02*
X13970001Y27940000D01*
X19128600Y28092400D02*
X18976200Y27940000D01*
X11351400Y27889200D02*
X11351400Y29390200D01*
X9876400Y19187000D02*
X10551000Y19187000D01*
X19128600Y30711000D02*
X20081400Y31663800D01*
X16510001Y27940000D02*
X13970001Y27940000D01*
X11351400Y19987400D02*
X11351400Y27889200D01*
X20603600Y20437000D02*
X19753601Y20437000D01*
X11351400Y27889200D02*
X11402200Y27940000D01*
X10327800Y30413800D02*
X9876400Y30413800D01*
X20081400Y31663800D02*
X20603600Y31663800D01*
X19128600Y28092400D02*
X19128600Y30711000D01*
X18976200Y27940000D02*
X16510001Y27940000D01*
X11351400Y29390200D02*
X10327800Y30413800D01*
X19128600Y21062001D02*
X19128600Y28092400D01*
%TO.N,/SDA*%
X8382000Y21081401D02*
X9026401Y20437000D01*
X21453599Y19187000D02*
X21941318Y19674719D01*
X9026401Y31663800D02*
X7975600Y30612999D01*
X21941318Y19674719D02*
X21941318Y22804918D01*
X21828600Y28280200D02*
X22078600Y28530200D01*
X7975600Y30612999D02*
X7975600Y28608964D01*
X9876400Y31663800D02*
X9026401Y31663800D01*
X21453599Y30413800D02*
X20603600Y30413800D01*
X21828600Y22917636D02*
X21828600Y28280200D01*
X22078600Y29788799D02*
X21453599Y30413800D01*
X9262000Y27322564D02*
X9262000Y23022772D01*
X9262000Y23022772D02*
X8382000Y22142772D01*
X20603600Y19187000D02*
X21453599Y19187000D01*
X21941318Y22804918D02*
X21828600Y22917636D01*
X8382000Y22142772D02*
X8382000Y21081401D01*
X7975600Y28608964D02*
X9262000Y27322564D01*
X9026401Y20437000D02*
X9876400Y20437000D01*
X22078600Y28530200D02*
X22078600Y29788799D01*
%TD*%
%TA.AperFunction,Conductor*%
%TO.N,GND*%
G36*
X16091554Y20484228D02*
G01*
X16061737Y20353593D01*
X16071750Y20219972D01*
X16120704Y20095240D01*
X16140832Y20070000D01*
X14338928Y20070000D01*
X14388448Y20155772D01*
X14418265Y20286407D01*
X14408252Y20420028D01*
X14359298Y20544760D01*
X14339170Y20570000D01*
X16141074Y20570000D01*
X16091554Y20484228D01*
G37*
%TD.AperFunction*%
%TA.AperFunction,Conductor*%
G36*
X10548611Y23882003D02*
G01*
X10600087Y23834759D01*
X10617900Y23770725D01*
X10617900Y22611000D01*
X10598215Y22543961D01*
X10545411Y22498206D01*
X10493900Y22487000D01*
X10016134Y22487000D01*
X9949095Y22506685D01*
X9903340Y22559489D01*
X9893396Y22628647D01*
X9903749Y22663399D01*
X9911458Y22679932D01*
X9921540Y22701556D01*
X9923067Y22704709D01*
X9955956Y22770193D01*
X9955958Y22770205D01*
X9958425Y22776979D01*
X9958508Y22776949D01*
X9960819Y22783598D01*
X9960737Y22783625D01*
X9963008Y22790479D01*
X9963009Y22790483D01*
X9977832Y22862279D01*
X9978587Y22865684D01*
X9995500Y22937038D01*
X9995500Y22937040D01*
X9995501Y22937044D01*
X9996339Y22944211D01*
X9996422Y22944202D01*
X9997138Y22951206D01*
X9997053Y22951213D01*
X9997682Y22958404D01*
X9995552Y23031613D01*
X9995500Y23035219D01*
X9995500Y23285687D01*
X10015185Y23352726D01*
X10046609Y23386001D01*
X10136253Y23451130D01*
X10264040Y23593052D01*
X10359527Y23758440D01*
X10375969Y23809044D01*
X10415406Y23866718D01*
X10479765Y23893917D01*
X10548611Y23882003D01*
G37*
%TD.AperFunction*%
%TA.AperFunction,Conductor*%
G36*
X20796639Y29394115D02*
G01*
X20842394Y29341311D01*
X20853600Y29289800D01*
X20853600Y28363800D01*
X20971100Y28363800D01*
X21038139Y28344115D01*
X21083894Y28291311D01*
X21095100Y28239800D01*
X21095100Y24842590D01*
X21075415Y24775551D01*
X21022611Y24729796D01*
X20953453Y24719852D01*
X20920667Y24729310D01*
X20885888Y24744794D01*
X20885886Y24744795D01*
X20699087Y24784500D01*
X20508113Y24784500D01*
X20321314Y24744795D01*
X20146846Y24667117D01*
X20058986Y24603282D01*
X19993179Y24579802D01*
X19925125Y24595627D01*
X19876430Y24645733D01*
X19862100Y24703600D01*
X19862100Y28004799D01*
X19863738Y28020834D01*
X19863653Y28020841D01*
X19864282Y28028032D01*
X19862152Y28101241D01*
X19862100Y28104847D01*
X19862100Y28239800D01*
X19881785Y28306839D01*
X19934589Y28352594D01*
X19986100Y28363800D01*
X20353600Y28363800D01*
X20353600Y29289800D01*
X20373285Y29356839D01*
X20426089Y29402594D01*
X20477600Y29413800D01*
X20729600Y29413800D01*
X20796639Y29394115D01*
G37*
%TD.AperFunction*%
%TA.AperFunction,Conductor*%
G36*
X17968882Y31043420D02*
G01*
X18085244Y30958878D01*
X18259708Y30881202D01*
X18295317Y30873633D01*
X18356796Y30840443D01*
X18390573Y30779280D01*
X18393481Y30755953D01*
X18395047Y30702164D01*
X18395100Y30698555D01*
X18395100Y28797500D01*
X18375415Y28730461D01*
X18322611Y28684706D01*
X18271100Y28673500D01*
X17900178Y28673500D01*
X17833139Y28693185D01*
X17787384Y28745989D01*
X17776889Y28784242D01*
X17775420Y28797895D01*
X17773990Y28811201D01*
X17722890Y28948204D01*
X17635262Y29065261D01*
X17567425Y29116044D01*
X17525555Y29171976D01*
X17520571Y29241667D01*
X17554056Y29302991D01*
X17567427Y29314576D01*
X17629190Y29360812D01*
X17629191Y29360813D01*
X17715351Y29475907D01*
X17715355Y29475914D01*
X17765597Y29610621D01*
X17765599Y29610628D01*
X17772000Y29670156D01*
X17772001Y29670173D01*
X17772001Y30230000D01*
X16878928Y30230000D01*
X16928448Y30315772D01*
X16958265Y30446407D01*
X16948252Y30580028D01*
X16899298Y30704760D01*
X16879170Y30730000D01*
X17772001Y30730000D01*
X17772001Y30943100D01*
X17791686Y31010139D01*
X17844490Y31055894D01*
X17913648Y31065838D01*
X17968882Y31043420D01*
G37*
%TD.AperFunction*%
%TA.AperFunction,Conductor*%
G36*
X16091554Y30644228D02*
G01*
X16061737Y30513593D01*
X16071750Y30379972D01*
X16120704Y30255240D01*
X16140832Y30230000D01*
X14338928Y30230000D01*
X14388448Y30315772D01*
X14418265Y30446407D01*
X14408252Y30580028D01*
X14359298Y30704760D01*
X14339170Y30730000D01*
X16141074Y30730000D01*
X16091554Y30644228D01*
G37*
%TD.AperFunction*%
%TA.AperFunction,Conductor*%
G36*
X24588540Y44945815D02*
G01*
X24634295Y44893011D01*
X24645501Y44841500D01*
X24645501Y35887800D01*
X24625816Y35820761D01*
X24573012Y35775006D01*
X24521501Y35763800D01*
X24053600Y35763800D01*
X24053600Y33763801D01*
X24521501Y33763801D01*
X24588540Y33744116D01*
X24634295Y33691312D01*
X24645501Y33639801D01*
X24645501Y28437800D01*
X24625816Y28370761D01*
X24573012Y28325006D01*
X24521501Y28313800D01*
X24053600Y28313800D01*
X24053600Y26313801D01*
X24521501Y26313801D01*
X24588540Y26294116D01*
X24634295Y26241312D01*
X24645501Y26189801D01*
X24645501Y24661000D01*
X24625816Y24593961D01*
X24573012Y24548206D01*
X24521501Y24537000D01*
X24053600Y24537000D01*
X24053600Y22537001D01*
X24521501Y22537001D01*
X24588540Y22517316D01*
X24634295Y22464512D01*
X24645501Y22413001D01*
X24645501Y17211000D01*
X24625816Y17143961D01*
X24573012Y17098206D01*
X24521501Y17087000D01*
X24053600Y17087000D01*
X24053600Y15087001D01*
X24521501Y15087001D01*
X24588540Y15067316D01*
X24634295Y15014512D01*
X24645501Y14963001D01*
X24645501Y5958500D01*
X24625816Y5891461D01*
X24573012Y5845706D01*
X24521501Y5834500D01*
X5958501Y5834500D01*
X5891462Y5854185D01*
X5845707Y5906989D01*
X5834501Y5958500D01*
X5834501Y14963001D01*
X5854186Y15030040D01*
X5906990Y15075795D01*
X5958501Y15087001D01*
X6426400Y15087001D01*
X6426400Y15837000D01*
X6926400Y15837000D01*
X6926400Y15087001D01*
X7826372Y15087001D01*
X7826386Y15087002D01*
X7929097Y15097495D01*
X8095519Y15152642D01*
X8095524Y15152644D01*
X8244745Y15244685D01*
X8368715Y15368655D01*
X8460756Y15517876D01*
X8460758Y15517881D01*
X8515905Y15684303D01*
X8515906Y15684310D01*
X8526399Y15787014D01*
X8526400Y15787027D01*
X8526400Y15837000D01*
X21953601Y15837000D01*
X21953601Y15787014D01*
X21964094Y15684303D01*
X22019241Y15517881D01*
X22019243Y15517876D01*
X22111284Y15368655D01*
X22235254Y15244685D01*
X22384475Y15152644D01*
X22384480Y15152642D01*
X22550902Y15097495D01*
X22550909Y15097494D01*
X22653619Y15087001D01*
X23553599Y15087001D01*
X23553600Y15087002D01*
X23553600Y15837000D01*
X21953601Y15837000D01*
X8526400Y15837000D01*
X6926400Y15837000D01*
X6426400Y15837000D01*
X6426400Y17087000D01*
X6926400Y17087000D01*
X6926400Y16337000D01*
X8526399Y16337000D01*
X21953600Y16337000D01*
X23553600Y16337000D01*
X23553600Y17087000D01*
X22653628Y17087000D01*
X22653612Y17086999D01*
X22550902Y17076506D01*
X22384480Y17021359D01*
X22384475Y17021357D01*
X22235254Y16929316D01*
X22111284Y16805346D01*
X22019243Y16656125D01*
X22019241Y16656120D01*
X21964094Y16489698D01*
X21964093Y16489691D01*
X21953600Y16386987D01*
X21953600Y16337000D01*
X8526399Y16337000D01*
X8526399Y16386972D01*
X8526398Y16386987D01*
X8515905Y16489698D01*
X8460758Y16656120D01*
X8460756Y16656125D01*
X8368715Y16805346D01*
X8244745Y16929316D01*
X8095524Y17021357D01*
X8095519Y17021359D01*
X7929097Y17076506D01*
X7929090Y17076507D01*
X7826386Y17087000D01*
X6926400Y17087000D01*
X6426400Y17087000D01*
X5958501Y17087000D01*
X5891462Y17106685D01*
X5845707Y17159489D01*
X5834501Y17211000D01*
X5834501Y22413001D01*
X5854186Y22480040D01*
X5906990Y22525795D01*
X5958501Y22537001D01*
X6426400Y22537001D01*
X6926400Y22537001D01*
X7562933Y22537001D01*
X7629972Y22517316D01*
X7675727Y22464512D01*
X7685671Y22395354D01*
X7681711Y22378552D01*
X7666180Y22303338D01*
X7665400Y22299822D01*
X7648499Y22228506D01*
X7647661Y22221331D01*
X7647577Y22221341D01*
X7646862Y22214337D01*
X7646947Y22214329D01*
X7646317Y22207140D01*
X7648448Y22133933D01*
X7648500Y22130327D01*
X7648500Y21143871D01*
X7647191Y21125902D01*
X7643818Y21102877D01*
X7648028Y21054770D01*
X7648500Y21043962D01*
X7648500Y21038685D01*
X7652012Y21008634D01*
X7652378Y21005047D01*
X7658762Y20932070D01*
X7660223Y20924994D01*
X7660141Y20924978D01*
X7661665Y20918103D01*
X7661746Y20918122D01*
X7663411Y20911099D01*
X7663412Y20911094D01*
X7663413Y20911093D01*
X7665420Y20905578D01*
X7688469Y20842252D01*
X7689653Y20838847D01*
X7712700Y20769297D01*
X7715752Y20762752D01*
X7715675Y20762717D01*
X7718745Y20756376D01*
X7718821Y20756414D01*
X7722059Y20749965D01*
X7762305Y20688773D01*
X7764242Y20685733D01*
X7802713Y20623362D01*
X7807192Y20617698D01*
X7807125Y20617646D01*
X7811574Y20612185D01*
X7811640Y20612240D01*
X7816285Y20606704D01*
X7869545Y20556456D01*
X7872132Y20553943D01*
X8463564Y19962512D01*
X8475347Y19948877D01*
X8489235Y19930222D01*
X8489240Y19930216D01*
X8489241Y19930215D01*
X8526243Y19899167D01*
X8534219Y19891857D01*
X8537941Y19888134D01*
X8537945Y19888131D01*
X8561692Y19869355D01*
X8564411Y19867140D01*
X8591108Y19844738D01*
X8629809Y19786567D01*
X8630916Y19716706D01*
X8618132Y19686630D01*
X8567255Y19600603D01*
X8567253Y19600597D01*
X8520838Y19440836D01*
X8520837Y19440830D01*
X8517900Y19403508D01*
X8517900Y18970493D01*
X8520837Y18933171D01*
X8520838Y18933165D01*
X8567253Y18773404D01*
X8567255Y18773399D01*
X8654946Y18625121D01*
X8672129Y18557397D01*
X8654946Y18498879D01*
X8567255Y18350602D01*
X8567253Y18350597D01*
X8520838Y18190836D01*
X8520837Y18190830D01*
X8517900Y18153508D01*
X8517900Y17720493D01*
X8520837Y17683171D01*
X8520838Y17683165D01*
X8567253Y17523404D01*
X8567255Y17523399D01*
X8651944Y17380197D01*
X8651951Y17380188D01*
X8769587Y17262552D01*
X8769591Y17262549D01*
X8769593Y17262547D01*
X8912799Y17177855D01*
X8954930Y17165615D01*
X9072564Y17131439D01*
X9072567Y17131439D01*
X9072569Y17131438D01*
X9109898Y17128500D01*
X9109904Y17128500D01*
X10642896Y17128500D01*
X10642902Y17128500D01*
X10680231Y17131438D01*
X10840001Y17177855D01*
X10917693Y17223804D01*
X10938380Y17233583D01*
X10965612Y17243494D01*
X10968888Y17244633D01*
X11038500Y17267699D01*
X11038510Y17267706D01*
X11045049Y17270754D01*
X11045086Y17270674D01*
X11051418Y17273739D01*
X11051379Y17273817D01*
X11057833Y17277058D01*
X11119030Y17317309D01*
X11122077Y17319250D01*
X11184436Y17357712D01*
X11190102Y17362192D01*
X11190155Y17362125D01*
X11195610Y17366569D01*
X11195555Y17366635D01*
X11201084Y17371277D01*
X11201093Y17371282D01*
X11251377Y17424582D01*
X11253822Y17427099D01*
X11513722Y17686999D01*
X19256304Y17686999D01*
X19256499Y17684514D01*
X19302318Y17526802D01*
X19385914Y17385448D01*
X19385921Y17385439D01*
X19502038Y17269322D01*
X19502047Y17269315D01*
X19643403Y17185718D01*
X19643406Y17185717D01*
X19801104Y17139901D01*
X19801110Y17139900D01*
X19837950Y17137001D01*
X19837966Y17137000D01*
X20353600Y17137000D01*
X20353600Y17687000D01*
X20853600Y17687000D01*
X20853600Y17137000D01*
X21369234Y17137000D01*
X21369249Y17137001D01*
X21406089Y17139900D01*
X21406095Y17139901D01*
X21563793Y17185717D01*
X21563796Y17185718D01*
X21705152Y17269315D01*
X21705161Y17269322D01*
X21821278Y17385439D01*
X21821285Y17385448D01*
X21904881Y17526802D01*
X21950700Y17684514D01*
X21950895Y17686999D01*
X21950895Y17687000D01*
X20853600Y17687000D01*
X20353600Y17687000D01*
X19256305Y17687000D01*
X19256304Y17686999D01*
X11513722Y17686999D01*
X12666495Y18839772D01*
X12680121Y18851548D01*
X12698785Y18865441D01*
X12729842Y18902455D01*
X12737134Y18910410D01*
X12740869Y18914144D01*
X12759682Y18937939D01*
X12761909Y18940670D01*
X12809000Y18996790D01*
X12809002Y18996792D01*
X12809004Y18996797D01*
X12812973Y19002830D01*
X12813047Y19002782D01*
X12816824Y19008711D01*
X12816749Y19008757D01*
X12820538Y19014902D01*
X12820544Y19014909D01*
X12833294Y19042254D01*
X12879465Y19094693D01*
X12946658Y19113847D01*
X12989011Y19106032D01*
X13100617Y19064405D01*
X13100628Y19064402D01*
X13160156Y19058001D01*
X13160173Y19058000D01*
X13720001Y19058000D01*
X13720001Y19952468D01*
X13774961Y19914996D01*
X13903003Y19875500D01*
X14003313Y19875500D01*
X14102500Y19890450D01*
X14220001Y19947036D01*
X14220001Y19058000D01*
X14779829Y19058000D01*
X14779845Y19058001D01*
X14839373Y19064402D01*
X14839380Y19064404D01*
X14974087Y19114646D01*
X14974094Y19114650D01*
X15089187Y19200809D01*
X15140734Y19269666D01*
X15196668Y19311537D01*
X15266360Y19316521D01*
X15327683Y19283036D01*
X15339268Y19269666D01*
X15390814Y19200809D01*
X15505907Y19114650D01*
X15505914Y19114646D01*
X15640621Y19064404D01*
X15640628Y19064402D01*
X15700156Y19058001D01*
X15700173Y19058000D01*
X16260001Y19058000D01*
X16260001Y19952468D01*
X16314961Y19914996D01*
X16443003Y19875500D01*
X16543313Y19875500D01*
X16642500Y19890450D01*
X16760001Y19947036D01*
X16760001Y19058000D01*
X17319829Y19058000D01*
X17319845Y19058001D01*
X17379373Y19064402D01*
X17379380Y19064404D01*
X17514087Y19114646D01*
X17514094Y19114650D01*
X17629188Y19200810D01*
X17629191Y19200813D01*
X17715351Y19315907D01*
X17715355Y19315914D01*
X17765597Y19450621D01*
X17765599Y19450628D01*
X17772000Y19510156D01*
X17772001Y19510173D01*
X17772001Y20070000D01*
X16878928Y20070000D01*
X16928448Y20155772D01*
X16958265Y20286407D01*
X16948252Y20420028D01*
X16899298Y20544760D01*
X16879170Y20570000D01*
X17772001Y20570000D01*
X17772001Y21129828D01*
X17772000Y21129845D01*
X17765599Y21189373D01*
X17765597Y21189380D01*
X17715355Y21324087D01*
X17715351Y21324094D01*
X17629191Y21439187D01*
X17567426Y21485425D01*
X17525555Y21541359D01*
X17520571Y21611051D01*
X17554056Y21672374D01*
X17567411Y21683947D01*
X17635262Y21734739D01*
X17722890Y21851796D01*
X17773990Y21988799D01*
X17777592Y22022308D01*
X17780500Y22049346D01*
X17780501Y22049363D01*
X17780501Y23670638D01*
X17780500Y23670655D01*
X17777158Y23701730D01*
X17773990Y23731201D01*
X17763830Y23758440D01*
X17723444Y23866718D01*
X17722890Y23868204D01*
X17635262Y23985261D01*
X17574517Y24030735D01*
X17532647Y24086667D01*
X17527663Y24156359D01*
X17561148Y24217682D01*
X17574517Y24229266D01*
X17635262Y24274739D01*
X17722890Y24391796D01*
X17773990Y24528799D01*
X17777592Y24562308D01*
X17780500Y24589346D01*
X17780501Y24589363D01*
X17780501Y26210638D01*
X17780500Y26210655D01*
X17775534Y26256840D01*
X17773990Y26271201D01*
X17758100Y26313802D01*
X17751523Y26331436D01*
X17722890Y26408204D01*
X17635262Y26525261D01*
X17574517Y26570735D01*
X17532647Y26626667D01*
X17527663Y26696359D01*
X17561148Y26757682D01*
X17574517Y26769266D01*
X17635262Y26814739D01*
X17722890Y26931796D01*
X17773990Y27068799D01*
X17775527Y27083098D01*
X17776889Y27095758D01*
X17803628Y27160308D01*
X17861022Y27200155D01*
X17900178Y27206500D01*
X18271100Y27206500D01*
X18338139Y27186815D01*
X18383894Y27134011D01*
X18395100Y27082500D01*
X18395100Y21124471D01*
X18393791Y21106502D01*
X18390418Y21083477D01*
X18394628Y21035370D01*
X18395100Y21024562D01*
X18395100Y21019283D01*
X18396764Y21005047D01*
X18398612Y20989234D01*
X18398978Y20985647D01*
X18405362Y20912670D01*
X18406823Y20905594D01*
X18406741Y20905578D01*
X18408265Y20898703D01*
X18408346Y20898722D01*
X18410011Y20891699D01*
X18435069Y20822852D01*
X18436253Y20819447D01*
X18459300Y20749897D01*
X18462352Y20743352D01*
X18462275Y20743317D01*
X18465345Y20736976D01*
X18465421Y20737014D01*
X18468659Y20730565D01*
X18508905Y20669373D01*
X18510842Y20666333D01*
X18549313Y20603962D01*
X18553792Y20598298D01*
X18553725Y20598246D01*
X18558174Y20592785D01*
X18558240Y20592840D01*
X18562885Y20587304D01*
X18616143Y20537058D01*
X18618730Y20534545D01*
X19190767Y19962508D01*
X19202548Y19948876D01*
X19216440Y19930216D01*
X19253433Y19899175D01*
X19261408Y19891867D01*
X19265144Y19888131D01*
X19281118Y19875500D01*
X19288862Y19869377D01*
X19291655Y19867102D01*
X19301316Y19858996D01*
X19318304Y19844742D01*
X19357007Y19786573D01*
X19358117Y19716712D01*
X19345332Y19686630D01*
X19294455Y19600603D01*
X19294453Y19600597D01*
X19248038Y19440836D01*
X19248037Y19440830D01*
X19245100Y19403508D01*
X19245100Y18970493D01*
X19248037Y18933171D01*
X19248038Y18933165D01*
X19294453Y18773404D01*
X19294455Y18773399D01*
X19383118Y18623478D01*
X19381922Y18622772D01*
X19404401Y18565513D01*
X19390717Y18496996D01*
X19387618Y18491434D01*
X19302318Y18347199D01*
X19256499Y18189487D01*
X19256304Y18187002D01*
X19256305Y18187000D01*
X21950895Y18187000D01*
X21950895Y18187002D01*
X21950700Y18189487D01*
X21904882Y18347197D01*
X21855755Y18430265D01*
X21838572Y18497989D01*
X21860732Y18564252D01*
X21897394Y18598928D01*
X21911639Y18607714D01*
X21917302Y18612192D01*
X21917355Y18612125D01*
X21922810Y18616569D01*
X21922755Y18616635D01*
X21928284Y18621277D01*
X21928293Y18621282D01*
X21978577Y18674582D01*
X21981022Y18677099D01*
X22415813Y19111890D01*
X22429439Y19123666D01*
X22448103Y19137559D01*
X22479160Y19174573D01*
X22486452Y19182528D01*
X22490187Y19186262D01*
X22509000Y19210057D01*
X22511227Y19212788D01*
X22558320Y19268910D01*
X22558322Y19268915D01*
X22562291Y19274948D01*
X22562365Y19274900D01*
X22566142Y19280829D01*
X22566067Y19280875D01*
X22569858Y19287022D01*
X22569857Y19287022D01*
X22569862Y19287027D01*
X22600870Y19353528D01*
X22602385Y19356656D01*
X22635274Y19422140D01*
X22635276Y19422152D01*
X22637743Y19428926D01*
X22637826Y19428896D01*
X22640137Y19435545D01*
X22640055Y19435572D01*
X22642326Y19442426D01*
X22644018Y19450621D01*
X22657153Y19514240D01*
X22657908Y19517644D01*
X22674818Y19588985D01*
X22674818Y19588987D01*
X22674819Y19588991D01*
X22675657Y19596158D01*
X22675741Y19596149D01*
X22676457Y19603154D01*
X22676372Y19603161D01*
X22677001Y19610351D01*
X22674870Y19683581D01*
X22674818Y19687188D01*
X22674818Y22413001D01*
X22694503Y22480040D01*
X22747307Y22525795D01*
X22798818Y22537001D01*
X23553600Y22537001D01*
X23553600Y24537000D01*
X22686100Y24537000D01*
X22619061Y24556685D01*
X22573306Y24609489D01*
X22562100Y24661000D01*
X22562100Y26189801D01*
X22581785Y26256840D01*
X22634589Y26302595D01*
X22686100Y26313801D01*
X23553599Y26313801D01*
X23553600Y26313802D01*
X23553600Y28313800D01*
X22936100Y28313800D01*
X22869061Y28333485D01*
X22823306Y28386289D01*
X22812100Y28437800D01*
X22812100Y28442599D01*
X22813738Y28458634D01*
X22813653Y28458641D01*
X22814282Y28465832D01*
X22812152Y28539041D01*
X22812100Y28542647D01*
X22812100Y29726331D01*
X22813409Y29744301D01*
X22813578Y29745456D01*
X22816781Y29767321D01*
X22815292Y29784336D01*
X22812572Y29815432D01*
X22812100Y29826240D01*
X22812100Y29831513D01*
X22812100Y29831517D01*
X22808587Y29861565D01*
X22808222Y29865140D01*
X22801837Y29938133D01*
X22800376Y29945212D01*
X22800459Y29945230D01*
X22798935Y29952104D01*
X22798851Y29952083D01*
X22797187Y29959101D01*
X22797187Y29959107D01*
X22772118Y30027980D01*
X22770948Y30031348D01*
X22747902Y30100898D01*
X22744850Y30107442D01*
X22744928Y30107479D01*
X22741863Y30113811D01*
X22741787Y30113772D01*
X22738543Y30120230D01*
X22738541Y30120232D01*
X22738541Y30120234D01*
X22718649Y30150478D01*
X22698284Y30181443D01*
X22696346Y30184485D01*
X22657886Y30246839D01*
X22653408Y30252502D01*
X22653474Y30252555D01*
X22649024Y30258018D01*
X22648959Y30257962D01*
X22644315Y30263496D01*
X22591056Y30313743D01*
X22588468Y30316257D01*
X22016430Y30888295D01*
X22004649Y30901928D01*
X21990759Y30920585D01*
X21986093Y30924500D01*
X21953765Y30951627D01*
X21945790Y30958935D01*
X21942057Y30962668D01*
X21932017Y30970607D01*
X21918306Y30981449D01*
X21915522Y30983717D01*
X21888893Y31006062D01*
X21850192Y31064233D01*
X21849084Y31134094D01*
X21861868Y31164171D01*
X21912745Y31250199D01*
X21959162Y31409969D01*
X21962100Y31447298D01*
X21962100Y31880302D01*
X21959162Y31917631D01*
X21952685Y31939924D01*
X21912746Y32077397D01*
X21912745Y32077401D01*
X21828053Y32220607D01*
X21828051Y32220609D01*
X21825053Y32225679D01*
X21807870Y32293403D01*
X21825053Y32351921D01*
X21829457Y32359367D01*
X21912745Y32500199D01*
X21959162Y32659969D01*
X21962100Y32697298D01*
X21962100Y33130302D01*
X21959162Y33167631D01*
X21912745Y33327401D01*
X21828053Y33470607D01*
X21828051Y33470609D01*
X21828048Y33470613D01*
X21710412Y33588249D01*
X21710403Y33588256D01*
X21567201Y33672945D01*
X21567196Y33672947D01*
X21407435Y33719362D01*
X21407429Y33719363D01*
X21370107Y33722300D01*
X21370102Y33722300D01*
X19837098Y33722300D01*
X19837092Y33722300D01*
X19799770Y33719363D01*
X19799764Y33719362D01*
X19640003Y33672947D01*
X19639995Y33672944D01*
X19607491Y33653720D01*
X19563321Y33639538D01*
X19563536Y33638497D01*
X19549394Y33635577D01*
X19549377Y33635659D01*
X19542493Y33634133D01*
X19542513Y33634051D01*
X19535496Y33632389D01*
X19466627Y33607323D01*
X19463224Y33606141D01*
X19393706Y33583104D01*
X19393700Y33583102D01*
X19393699Y33583101D01*
X19393697Y33583100D01*
X19387158Y33580050D01*
X19387122Y33580128D01*
X19380783Y33577059D01*
X19380821Y33576983D01*
X19374366Y33573742D01*
X19313177Y33533498D01*
X19310138Y33531562D01*
X19247762Y33493089D01*
X19242098Y33488609D01*
X19242046Y33488675D01*
X19236584Y33484226D01*
X19236639Y33484161D01*
X19231103Y33479516D01*
X19180837Y33426239D01*
X19178326Y33423654D01*
X18430142Y32675470D01*
X18368819Y32641985D01*
X18368243Y32641861D01*
X18259709Y32618791D01*
X18085240Y32541112D01*
X17930741Y32428861D01*
X17802955Y32286939D01*
X17707469Y32121553D01*
X17707466Y32121546D01*
X17648455Y31939928D01*
X17648454Y31939924D01*
X17642188Y31880302D01*
X17634365Y31805872D01*
X17607780Y31741258D01*
X17550483Y31701273D01*
X17480664Y31698613D01*
X17467711Y31702652D01*
X17379381Y31735597D01*
X17379373Y31735599D01*
X17319845Y31742000D01*
X16760001Y31742000D01*
X16760001Y30847533D01*
X16705041Y30885004D01*
X16576999Y30924500D01*
X16476689Y30924500D01*
X16377502Y30909550D01*
X16260001Y30852965D01*
X16260001Y31742000D01*
X15700156Y31742000D01*
X15640628Y31735599D01*
X15640621Y31735597D01*
X15505914Y31685355D01*
X15505907Y31685351D01*
X15390813Y31599191D01*
X15339267Y31530334D01*
X15283333Y31488464D01*
X15213642Y31483480D01*
X15152319Y31516966D01*
X15140735Y31530334D01*
X15089188Y31599191D01*
X14974094Y31685351D01*
X14974087Y31685355D01*
X14839380Y31735597D01*
X14839373Y31735599D01*
X14779845Y31742000D01*
X14220001Y31742000D01*
X14220001Y30847533D01*
X14165041Y30885004D01*
X14036999Y30924500D01*
X13936689Y30924500D01*
X13837502Y30909550D01*
X13720001Y30852965D01*
X13720001Y31742000D01*
X13160156Y31742000D01*
X13100628Y31735599D01*
X13100621Y31735597D01*
X12965914Y31685355D01*
X12965907Y31685351D01*
X12850813Y31599191D01*
X12850810Y31599188D01*
X12764650Y31484094D01*
X12764646Y31484087D01*
X12714404Y31349380D01*
X12714402Y31349373D01*
X12708001Y31289845D01*
X12708001Y30730000D01*
X13601074Y30730000D01*
X13551554Y30644228D01*
X13521737Y30513593D01*
X13531750Y30379972D01*
X13580704Y30255240D01*
X13600832Y30230000D01*
X12708001Y30230000D01*
X12708001Y29670156D01*
X12714402Y29610628D01*
X12714404Y29610621D01*
X12764646Y29475914D01*
X12764650Y29475907D01*
X12850810Y29360814D01*
X12912575Y29314576D01*
X12954446Y29258642D01*
X12959430Y29188950D01*
X12925945Y29127627D01*
X12912575Y29116043D01*
X12844742Y29065263D01*
X12844741Y29065262D01*
X12844740Y29065261D01*
X12844739Y29065259D01*
X12757112Y28948205D01*
X12706012Y28811205D01*
X12706012Y28811204D01*
X12703113Y28784242D01*
X12676374Y28719692D01*
X12618980Y28679845D01*
X12579824Y28673500D01*
X12208900Y28673500D01*
X12141861Y28693185D01*
X12096106Y28745989D01*
X12084900Y28797500D01*
X12084900Y29327732D01*
X12086209Y29345702D01*
X12088422Y29360813D01*
X12089581Y29368722D01*
X12087359Y29394115D01*
X12085372Y29416833D01*
X12084900Y29427641D01*
X12084900Y29432914D01*
X12084900Y29432918D01*
X12081387Y29462966D01*
X12081022Y29466541D01*
X12074637Y29539534D01*
X12073176Y29546613D01*
X12073259Y29546631D01*
X12071735Y29553505D01*
X12071651Y29553484D01*
X12069987Y29560502D01*
X12069987Y29560508D01*
X12044918Y29629381D01*
X12043748Y29632749D01*
X12020702Y29702299D01*
X12017650Y29708843D01*
X12017728Y29708880D01*
X12014663Y29715212D01*
X12014587Y29715173D01*
X12011343Y29721631D01*
X12011341Y29721633D01*
X12011341Y29721635D01*
X11981293Y29767321D01*
X11971084Y29782844D01*
X11969146Y29785886D01*
X11930686Y29848240D01*
X11926208Y29853903D01*
X11926274Y29853956D01*
X11921824Y29859419D01*
X11921759Y29859363D01*
X11917115Y29864897D01*
X11863856Y29915144D01*
X11861268Y29917658D01*
X11271219Y30507707D01*
X11237734Y30569030D01*
X11234900Y30595388D01*
X11234900Y30630296D01*
X11234900Y30630302D01*
X11231962Y30667631D01*
X11229133Y30677367D01*
X11185546Y30827397D01*
X11185545Y30827401D01*
X11100853Y30970607D01*
X11100851Y30970609D01*
X11097853Y30975679D01*
X11080670Y31043403D01*
X11097853Y31101921D01*
X11102052Y31109021D01*
X11185545Y31250199D01*
X11231962Y31409969D01*
X11234900Y31447298D01*
X11234900Y31880302D01*
X11231962Y31917631D01*
X11225485Y31939924D01*
X11185546Y32077397D01*
X11185545Y32077401D01*
X11100853Y32220607D01*
X11096882Y32227322D01*
X11098077Y32228029D01*
X11075598Y32285285D01*
X11089280Y32353802D01*
X11092381Y32359367D01*
X11177681Y32503602D01*
X11223500Y32661314D01*
X11223695Y32663799D01*
X11223695Y32663800D01*
X8529105Y32663800D01*
X8529104Y32663799D01*
X8529299Y32661314D01*
X8575118Y32503602D01*
X8624244Y32420535D01*
X8641427Y32352811D01*
X8619267Y32286549D01*
X8582612Y32251877D01*
X8568363Y32243089D01*
X8562699Y32238609D01*
X8562647Y32238675D01*
X8557185Y32234226D01*
X8557240Y32234161D01*
X8551704Y32229516D01*
X8501438Y32176239D01*
X8498927Y32173654D01*
X7501107Y31175834D01*
X7487480Y31164056D01*
X7468813Y31150158D01*
X7437771Y31113164D01*
X7430478Y31105205D01*
X7426735Y31101462D01*
X7407966Y31077726D01*
X7405693Y31074936D01*
X7358597Y31018808D01*
X7354630Y31012775D01*
X7354560Y31012822D01*
X7350777Y31006884D01*
X7350848Y31006840D01*
X7347059Y31000698D01*
X7316087Y30934279D01*
X7314517Y30931036D01*
X7281641Y30865573D01*
X7279174Y30858793D01*
X7279096Y30858822D01*
X7276781Y30852165D01*
X7276861Y30852138D01*
X7274590Y30845287D01*
X7259780Y30773565D01*
X7259000Y30770049D01*
X7242099Y30698733D01*
X7241261Y30691558D01*
X7241177Y30691568D01*
X7240462Y30684564D01*
X7240547Y30684556D01*
X7239917Y30677367D01*
X7242048Y30604160D01*
X7242100Y30600554D01*
X7242100Y28671434D01*
X7240791Y28653465D01*
X7237418Y28630440D01*
X7241628Y28582333D01*
X7242100Y28571525D01*
X7242100Y28566248D01*
X7245612Y28536197D01*
X7245978Y28532610D01*
X7252992Y28452433D01*
X7250820Y28452244D01*
X7245969Y28393234D01*
X7203505Y28337749D01*
X7137785Y28314029D01*
X7130254Y28313800D01*
X6926400Y28313800D01*
X6926400Y26313801D01*
X7826372Y26313801D01*
X7826386Y26313802D01*
X7929097Y26324295D01*
X8095519Y26379442D01*
X8095524Y26379444D01*
X8244745Y26471485D01*
X8316819Y26543558D01*
X8378142Y26577043D01*
X8447834Y26572059D01*
X8503767Y26530187D01*
X8528184Y26464723D01*
X8528500Y26455877D01*
X8528500Y24394923D01*
X8508815Y24327884D01*
X8456011Y24282129D01*
X8386853Y24272185D01*
X8323297Y24301210D01*
X8316819Y24307242D01*
X8244745Y24379316D01*
X8095524Y24471357D01*
X8095519Y24471359D01*
X7929097Y24526506D01*
X7929090Y24526507D01*
X7826386Y24537000D01*
X6926400Y24537000D01*
X6926400Y22537001D01*
X6426400Y22537001D01*
X6426400Y24537000D01*
X5958501Y24537000D01*
X5891462Y24556685D01*
X5845707Y24609489D01*
X5834501Y24661000D01*
X5834501Y26189801D01*
X5854186Y26256840D01*
X5906990Y26302595D01*
X5958501Y26313801D01*
X6426400Y26313801D01*
X6426400Y28313800D01*
X5958501Y28313800D01*
X5891462Y28333485D01*
X5845707Y28386289D01*
X5834501Y28437800D01*
X5834501Y33163802D01*
X8529104Y33163802D01*
X8529105Y33163800D01*
X9626400Y33163800D01*
X9626400Y33713800D01*
X10126400Y33713800D01*
X10126400Y33163800D01*
X11223695Y33163800D01*
X11223695Y33163802D01*
X11223500Y33166287D01*
X11177681Y33323999D01*
X11094085Y33465353D01*
X11094078Y33465362D01*
X10977961Y33581479D01*
X10977952Y33581486D01*
X10836596Y33665083D01*
X10836593Y33665084D01*
X10678895Y33710900D01*
X10678889Y33710901D01*
X10642049Y33713800D01*
X10126400Y33713800D01*
X9626400Y33713800D01*
X9110750Y33713800D01*
X9073910Y33710901D01*
X9073904Y33710900D01*
X8916206Y33665084D01*
X8916203Y33665083D01*
X8774847Y33581486D01*
X8774838Y33581479D01*
X8658721Y33465362D01*
X8658714Y33465353D01*
X8575118Y33323999D01*
X8529299Y33166287D01*
X8529104Y33163802D01*
X5834501Y33163802D01*
X5834501Y33639801D01*
X5854186Y33706840D01*
X5906990Y33752595D01*
X5958501Y33763801D01*
X6426400Y33763801D01*
X6426400Y34513800D01*
X6926400Y34513800D01*
X6926400Y33763801D01*
X7826372Y33763801D01*
X7826386Y33763802D01*
X7929097Y33774295D01*
X8095519Y33829442D01*
X8095524Y33829444D01*
X8244745Y33921485D01*
X8368715Y34045455D01*
X8460756Y34194676D01*
X8460758Y34194681D01*
X8515905Y34361103D01*
X8515906Y34361110D01*
X8526399Y34463814D01*
X8526400Y34463827D01*
X8526400Y34513800D01*
X21953601Y34513800D01*
X21953601Y34463814D01*
X21964094Y34361103D01*
X22019241Y34194681D01*
X22019243Y34194676D01*
X22111284Y34045455D01*
X22235254Y33921485D01*
X22384475Y33829444D01*
X22384480Y33829442D01*
X22550902Y33774295D01*
X22550909Y33774294D01*
X22653619Y33763801D01*
X23553599Y33763801D01*
X23553600Y33763802D01*
X23553600Y34513800D01*
X21953601Y34513800D01*
X8526400Y34513800D01*
X6926400Y34513800D01*
X6426400Y34513800D01*
X6426400Y35763800D01*
X6926400Y35763800D01*
X6926400Y35013800D01*
X8526399Y35013800D01*
X21953600Y35013800D01*
X23553600Y35013800D01*
X23553600Y35763800D01*
X22653628Y35763800D01*
X22653612Y35763799D01*
X22550902Y35753306D01*
X22384480Y35698159D01*
X22384475Y35698157D01*
X22235254Y35606116D01*
X22111284Y35482146D01*
X22019243Y35332925D01*
X22019241Y35332920D01*
X21964094Y35166498D01*
X21964093Y35166491D01*
X21953600Y35063787D01*
X21953600Y35013800D01*
X8526399Y35013800D01*
X8526399Y35063772D01*
X8526398Y35063787D01*
X8515905Y35166498D01*
X8460758Y35332920D01*
X8460756Y35332925D01*
X8368715Y35482146D01*
X8244745Y35606116D01*
X8095524Y35698157D01*
X8095519Y35698159D01*
X7929097Y35753306D01*
X7929090Y35753307D01*
X7826386Y35763800D01*
X6926400Y35763800D01*
X6426400Y35763800D01*
X5958501Y35763800D01*
X5891462Y35783485D01*
X5845707Y35836289D01*
X5834501Y35887800D01*
X5834501Y44841500D01*
X5854186Y44908539D01*
X5906990Y44954294D01*
X5958501Y44965500D01*
X24521501Y44965500D01*
X24588540Y44945815D01*
G37*
%TD.AperFunction*%
%TD*%
M02*
