%TF.GenerationSoftware,KiCad,Pcbnew,7.0.11+1*%
%TF.CreationDate,2024-06-06T21:15:04+00:00*%
%TF.ProjectId,GH4PIN01,47483450-494e-4303-912e-6b696361645f,rev?*%
%TF.SameCoordinates,Original*%
%TF.FileFunction,Copper,L2,Bot*%
%TF.FilePolarity,Positive*%
%FSLAX46Y46*%
G04 Gerber Fmt 4.6, Leading zero omitted, Abs format (unit mm)*
G04 Created by KiCad (PCBNEW 7.0.11+1) date 2024-06-06 21:15:04*
%MOMM*%
%LPD*%
G01*
G04 APERTURE LIST*
G04 Aperture macros list*
%AMRoundRect*
0 Rectangle with rounded corners*
0 $1 Rounding radius*
0 $2 $3 $4 $5 $6 $7 $8 $9 X,Y pos of 4 corners*
0 Add a 4 corners polygon primitive as box body*
4,1,4,$2,$3,$4,$5,$6,$7,$8,$9,$2,$3,0*
0 Add four circle primitives for the rounded corners*
1,1,$1+$1,$2,$3*
1,1,$1+$1,$4,$5*
1,1,$1+$1,$6,$7*
1,1,$1+$1,$8,$9*
0 Add four rect primitives between the rounded corners*
20,1,$1+$1,$2,$3,$4,$5,0*
20,1,$1+$1,$4,$5,$6,$7,0*
20,1,$1+$1,$6,$7,$8,$9,0*
20,1,$1+$1,$8,$9,$2,$3,0*%
G04 Aperture macros list end*
%ADD10C,0.150000*%
%TA.AperFunction,NonConductor*%
%ADD11C,0.150000*%
%TD*%
%TA.AperFunction,ComponentPad*%
%ADD12C,6.000000*%
%TD*%
%TA.AperFunction,ComponentPad*%
%ADD13R,1.524000X1.524000*%
%TD*%
%TA.AperFunction,SMDPad,CuDef*%
%ADD14RoundRect,0.150000X-0.700000X0.150000X-0.700000X-0.150000X0.700000X-0.150000X0.700000X0.150000X0*%
%TD*%
%TA.AperFunction,SMDPad,CuDef*%
%ADD15RoundRect,0.250000X-1.100000X0.250000X-1.100000X-0.250000X1.100000X-0.250000X1.100000X0.250000X0*%
%TD*%
%TA.AperFunction,SMDPad,CuDef*%
%ADD16RoundRect,0.150000X0.700000X-0.150000X0.700000X0.150000X-0.700000X0.150000X-0.700000X-0.150000X0*%
%TD*%
%TA.AperFunction,SMDPad,CuDef*%
%ADD17RoundRect,0.250000X1.100000X-0.250000X1.100000X0.250000X-1.100000X0.250000X-1.100000X-0.250000X0*%
%TD*%
%TA.AperFunction,SMDPad,CuDef*%
%ADD18C,1.000000*%
%TD*%
%TA.AperFunction,ViaPad*%
%ADD19C,0.800000*%
%TD*%
%TA.AperFunction,Conductor*%
%ADD20C,0.450000*%
%TD*%
%TA.AperFunction,Conductor*%
%ADD21C,0.700000*%
%TD*%
G04 APERTURE END LIST*
D10*
D11*
X18443411Y35372562D02*
X18538649Y35420181D01*
X18538649Y35420181D02*
X18681506Y35420181D01*
X18681506Y35420181D02*
X18824363Y35372562D01*
X18824363Y35372562D02*
X18919601Y35277324D01*
X18919601Y35277324D02*
X18967220Y35182086D01*
X18967220Y35182086D02*
X19014839Y34991610D01*
X19014839Y34991610D02*
X19014839Y34848753D01*
X19014839Y34848753D02*
X18967220Y34658277D01*
X18967220Y34658277D02*
X18919601Y34563039D01*
X18919601Y34563039D02*
X18824363Y34467800D01*
X18824363Y34467800D02*
X18681506Y34420181D01*
X18681506Y34420181D02*
X18586268Y34420181D01*
X18586268Y34420181D02*
X18443411Y34467800D01*
X18443411Y34467800D02*
X18395792Y34515420D01*
X18395792Y34515420D02*
X18395792Y34848753D01*
X18395792Y34848753D02*
X18586268Y34848753D01*
X17967220Y34420181D02*
X17967220Y35420181D01*
X17967220Y34943991D02*
X17395792Y34943991D01*
X17395792Y34420181D02*
X17395792Y35420181D01*
X16491030Y35086848D02*
X16491030Y34420181D01*
X16729125Y35467800D02*
X16967220Y34753515D01*
X16967220Y34753515D02*
X16348173Y34753515D01*
X15967220Y34420181D02*
X15967220Y35420181D01*
X15967220Y35420181D02*
X15586268Y35420181D01*
X15586268Y35420181D02*
X15491030Y35372562D01*
X15491030Y35372562D02*
X15443411Y35324943D01*
X15443411Y35324943D02*
X15395792Y35229705D01*
X15395792Y35229705D02*
X15395792Y35086848D01*
X15395792Y35086848D02*
X15443411Y34991610D01*
X15443411Y34991610D02*
X15491030Y34943991D01*
X15491030Y34943991D02*
X15586268Y34896372D01*
X15586268Y34896372D02*
X15967220Y34896372D01*
X14967220Y34420181D02*
X14967220Y35420181D01*
X14491030Y34420181D02*
X14491030Y35420181D01*
X14491030Y35420181D02*
X13919602Y34420181D01*
X13919602Y34420181D02*
X13919602Y35420181D01*
X13252935Y35420181D02*
X13157697Y35420181D01*
X13157697Y35420181D02*
X13062459Y35372562D01*
X13062459Y35372562D02*
X13014840Y35324943D01*
X13014840Y35324943D02*
X12967221Y35229705D01*
X12967221Y35229705D02*
X12919602Y35039229D01*
X12919602Y35039229D02*
X12919602Y34801134D01*
X12919602Y34801134D02*
X12967221Y34610658D01*
X12967221Y34610658D02*
X13014840Y34515420D01*
X13014840Y34515420D02*
X13062459Y34467800D01*
X13062459Y34467800D02*
X13157697Y34420181D01*
X13157697Y34420181D02*
X13252935Y34420181D01*
X13252935Y34420181D02*
X13348173Y34467800D01*
X13348173Y34467800D02*
X13395792Y34515420D01*
X13395792Y34515420D02*
X13443411Y34610658D01*
X13443411Y34610658D02*
X13491030Y34801134D01*
X13491030Y34801134D02*
X13491030Y35039229D01*
X13491030Y35039229D02*
X13443411Y35229705D01*
X13443411Y35229705D02*
X13395792Y35324943D01*
X13395792Y35324943D02*
X13348173Y35372562D01*
X13348173Y35372562D02*
X13252935Y35420181D01*
X11967221Y34420181D02*
X12538649Y34420181D01*
X12252935Y34420181D02*
X12252935Y35420181D01*
X12252935Y35420181D02*
X12348173Y35277324D01*
X12348173Y35277324D02*
X12443411Y35182086D01*
X12443411Y35182086D02*
X12538649Y35134467D01*
X11586268Y34705896D02*
X11110078Y34705896D01*
X11681506Y34420181D02*
X11348173Y35420181D01*
X11348173Y35420181D02*
X11014840Y34420181D01*
D10*
D11*
X17263809Y16624581D02*
X17263809Y17624581D01*
X16692381Y16624581D02*
X17120952Y17196010D01*
X16692381Y17624581D02*
X17263809Y17053153D01*
X15835238Y16624581D02*
X15835238Y17148391D01*
X15835238Y17148391D02*
X15882857Y17243629D01*
X15882857Y17243629D02*
X15978095Y17291248D01*
X15978095Y17291248D02*
X16168571Y17291248D01*
X16168571Y17291248D02*
X16263809Y17243629D01*
X15835238Y16672200D02*
X15930476Y16624581D01*
X15930476Y16624581D02*
X16168571Y16624581D01*
X16168571Y16624581D02*
X16263809Y16672200D01*
X16263809Y16672200D02*
X16311428Y16767439D01*
X16311428Y16767439D02*
X16311428Y16862677D01*
X16311428Y16862677D02*
X16263809Y16957915D01*
X16263809Y16957915D02*
X16168571Y17005534D01*
X16168571Y17005534D02*
X15930476Y17005534D01*
X15930476Y17005534D02*
X15835238Y17053153D01*
X15359047Y16624581D02*
X15359047Y17624581D01*
X15263809Y17005534D02*
X14978095Y16624581D01*
X14978095Y17291248D02*
X15359047Y16910296D01*
X14406666Y16624581D02*
X14501904Y16672200D01*
X14501904Y16672200D02*
X14549523Y16767439D01*
X14549523Y16767439D02*
X14549523Y17624581D01*
X14025713Y16624581D02*
X14025713Y17291248D01*
X14025713Y17624581D02*
X14073332Y17576962D01*
X14073332Y17576962D02*
X14025713Y17529343D01*
X14025713Y17529343D02*
X13978094Y17576962D01*
X13978094Y17576962D02*
X14025713Y17624581D01*
X14025713Y17624581D02*
X14025713Y17529343D01*
X13549523Y16624581D02*
X13549523Y17624581D01*
X13454285Y17005534D02*
X13168571Y16624581D01*
X13168571Y17291248D02*
X13549523Y16910296D01*
X16954285Y15919343D02*
X16906666Y15966962D01*
X16906666Y15966962D02*
X16811428Y16014581D01*
X16811428Y16014581D02*
X16573333Y16014581D01*
X16573333Y16014581D02*
X16478095Y15966962D01*
X16478095Y15966962D02*
X16430476Y15919343D01*
X16430476Y15919343D02*
X16382857Y15824105D01*
X16382857Y15824105D02*
X16382857Y15728867D01*
X16382857Y15728867D02*
X16430476Y15586010D01*
X16430476Y15586010D02*
X17001904Y15014581D01*
X17001904Y15014581D02*
X16382857Y15014581D01*
X15763809Y16014581D02*
X15668571Y16014581D01*
X15668571Y16014581D02*
X15573333Y15966962D01*
X15573333Y15966962D02*
X15525714Y15919343D01*
X15525714Y15919343D02*
X15478095Y15824105D01*
X15478095Y15824105D02*
X15430476Y15633629D01*
X15430476Y15633629D02*
X15430476Y15395534D01*
X15430476Y15395534D02*
X15478095Y15205058D01*
X15478095Y15205058D02*
X15525714Y15109820D01*
X15525714Y15109820D02*
X15573333Y15062200D01*
X15573333Y15062200D02*
X15668571Y15014581D01*
X15668571Y15014581D02*
X15763809Y15014581D01*
X15763809Y15014581D02*
X15859047Y15062200D01*
X15859047Y15062200D02*
X15906666Y15109820D01*
X15906666Y15109820D02*
X15954285Y15205058D01*
X15954285Y15205058D02*
X16001904Y15395534D01*
X16001904Y15395534D02*
X16001904Y15633629D01*
X16001904Y15633629D02*
X15954285Y15824105D01*
X15954285Y15824105D02*
X15906666Y15919343D01*
X15906666Y15919343D02*
X15859047Y15966962D01*
X15859047Y15966962D02*
X15763809Y16014581D01*
X15049523Y15919343D02*
X15001904Y15966962D01*
X15001904Y15966962D02*
X14906666Y16014581D01*
X14906666Y16014581D02*
X14668571Y16014581D01*
X14668571Y16014581D02*
X14573333Y15966962D01*
X14573333Y15966962D02*
X14525714Y15919343D01*
X14525714Y15919343D02*
X14478095Y15824105D01*
X14478095Y15824105D02*
X14478095Y15728867D01*
X14478095Y15728867D02*
X14525714Y15586010D01*
X14525714Y15586010D02*
X15097142Y15014581D01*
X15097142Y15014581D02*
X14478095Y15014581D01*
X13620952Y15681248D02*
X13620952Y15014581D01*
X13859047Y16062200D02*
X14097142Y15347915D01*
X14097142Y15347915D02*
X13478095Y15347915D01*
D12*
%TO.P,M2,1*%
%TO.N,GND*%
X20320001Y40640000D03*
%TD*%
%TO.P,M4,1*%
%TO.N,GND*%
X20320001Y10160000D03*
%TD*%
%TO.P,M3,1*%
%TO.N,GND*%
X10160001Y10160000D03*
%TD*%
%TO.P,M1,1*%
%TO.N,GND*%
X10160001Y40640000D03*
%TD*%
D13*
%TO.P,J3,1*%
%TO.N,GND*%
X13970001Y30480000D03*
%TO.P,J3,2*%
X16510001Y30480000D03*
%TO.P,J3,3*%
%TO.N,/SCL{slash}CAN_H*%
X13970001Y27940000D03*
%TO.P,J3,4*%
X16510001Y27940000D03*
%TO.P,J3,5*%
%TO.N,/+5V*%
X13970001Y25400000D03*
%TO.P,J3,6*%
X16510001Y25400000D03*
%TO.P,J3,7*%
%TO.N,/SDA{slash}CAN_L*%
X13970001Y22860000D03*
%TO.P,J3,8*%
X16510001Y22860000D03*
%TO.P,J3,9*%
%TO.N,GND*%
X13970001Y20320000D03*
%TO.P,J3,10*%
X16510001Y20320000D03*
%TD*%
D14*
%TO.P,J1,1*%
%TO.N,/+5V*%
X20143999Y21687000D03*
%TO.P,J1,2*%
%TO.N,/SCL{slash}CAN_H*%
X20143999Y20437000D03*
%TO.P,J1,3*%
%TO.N,/SDA{slash}CAN_L*%
X20143999Y19187000D03*
%TO.P,J1,4*%
%TO.N,GND*%
X20143999Y17937000D03*
D15*
%TO.P,J1,MP*%
X23343999Y23537000D03*
X23343999Y16087000D03*
%TD*%
D16*
%TO.P,J5,1*%
%TO.N,/+5V*%
X10336001Y17937000D03*
%TO.P,J5,2*%
%TO.N,/SCL{slash}CAN_H*%
X10336001Y19187000D03*
%TO.P,J5,3*%
%TO.N,/SDA{slash}CAN_L*%
X10336001Y20437000D03*
%TO.P,J5,4*%
%TO.N,GND*%
X10336001Y21687000D03*
D17*
%TO.P,J5,MP*%
X7136001Y16087000D03*
X7136001Y23537000D03*
%TD*%
D18*
%TO.P,FID2,*%
%TO.N,*%
X15290800Y7315200D03*
%TD*%
%TO.P,FID1,*%
%TO.N,*%
X15240000Y43326400D03*
%TD*%
D14*
%TO.P,J2,1*%
%TO.N,/+5V*%
X20143999Y32913800D03*
%TO.P,J2,2*%
%TO.N,/SCL{slash}CAN_H*%
X20143999Y31663800D03*
%TO.P,J2,3*%
%TO.N,/SDA{slash}CAN_L*%
X20143999Y30413800D03*
%TO.P,J2,4*%
%TO.N,GND*%
X20143999Y29163800D03*
D15*
%TO.P,J2,MP*%
X23343999Y34763800D03*
X23343999Y27313800D03*
%TD*%
D16*
%TO.P,J4,1*%
%TO.N,/+5V*%
X10336001Y29163800D03*
%TO.P,J4,2*%
%TO.N,/SCL{slash}CAN_H*%
X10336001Y30413800D03*
%TO.P,J4,3*%
%TO.N,/SDA{slash}CAN_L*%
X10336001Y31663800D03*
%TO.P,J4,4*%
%TO.N,GND*%
X10336001Y32913800D03*
D17*
%TO.P,J4,MP*%
X7136001Y27313800D03*
X7136001Y34763800D03*
%TD*%
D19*
%TO.N,/+5V*%
X20269200Y23850600D03*
X10160000Y27940000D03*
X18541996Y31749996D03*
%TO.N,GND*%
X10287000Y22606000D03*
X7848600Y23545800D03*
X24079200Y16078200D03*
X20343999Y27686000D03*
X6299200Y23545800D03*
X6324600Y27305000D03*
X24104600Y23545800D03*
X6324600Y34772600D03*
X24130000Y34772600D03*
X22529800Y16078200D03*
X6350000Y16078200D03*
X22529800Y27305000D03*
X22580600Y34772600D03*
X22555200Y23545800D03*
X7874000Y34772600D03*
X7899400Y16078200D03*
X7874000Y27305000D03*
X24079200Y27305000D03*
%TO.N,/SDA{slash}CAN_L*%
X9262000Y24536404D03*
X21428600Y22621847D03*
%TD*%
D20*
%TO.N,/+5V*%
X9876400Y29163800D02*
X9876400Y28223600D01*
X20603600Y32913800D02*
X19705800Y32913800D01*
X9876400Y17937000D02*
X10753329Y17937000D01*
X19705800Y32913800D02*
X18541996Y31749996D01*
X9876400Y28223600D02*
X10160000Y27940000D01*
X20603600Y23516200D02*
X20269200Y23850600D01*
X20603600Y21687000D02*
X20603600Y23516200D01*
X10753329Y17937000D02*
X12562600Y19746271D01*
X12562600Y23992599D02*
X13970001Y25400000D01*
X16510001Y25400000D02*
X13970001Y25400000D01*
X12562600Y19746271D02*
X12562600Y23992599D01*
D21*
%TO.N,GND*%
X9876400Y21687000D02*
X9876400Y22195400D01*
X23343999Y34763800D02*
X22597200Y34763800D01*
X20603600Y29163800D02*
X20343999Y28904199D01*
X16510001Y30480000D02*
X13970001Y30480000D01*
X22597200Y34763800D02*
X22580600Y34747200D01*
X9876400Y22195400D02*
X10287000Y22606000D01*
X20343999Y28904199D02*
X20343999Y27686000D01*
X16510001Y20320000D02*
X13970001Y20320000D01*
D20*
%TO.N,/SCL{slash}CAN_H*%
X19726671Y31663800D02*
X20603600Y31663800D01*
X10753329Y19187000D02*
X11887200Y20320871D01*
X10886600Y30413800D02*
X9876400Y30413800D01*
X18668999Y30606128D02*
X19726671Y31663800D01*
X18868999Y22079328D02*
X19278600Y22488929D01*
X18868999Y21294672D02*
X18868999Y22079328D01*
X9876400Y19187000D02*
X10753329Y19187000D01*
X11887200Y29413200D02*
X10886600Y30413800D01*
X19726671Y20437000D02*
X18868999Y21294672D01*
X19278600Y22488929D02*
X19278600Y27533600D01*
X18668999Y28143201D02*
X18668999Y30606128D01*
X16713202Y28143201D02*
X16510001Y27940000D01*
X16510001Y27940000D02*
X13970001Y27940000D01*
X11887200Y27940000D02*
X13970001Y27940000D01*
X19278600Y27533600D02*
X18668999Y28143201D01*
X18668999Y28143201D02*
X16713202Y28143201D01*
X11887200Y27051000D02*
X11887200Y29413200D01*
X11887200Y20320871D02*
X11887200Y27940000D01*
X20603600Y20437000D02*
X19726671Y20437000D01*
%TO.N,/SDA{slash}CAN_L*%
X20603600Y19187000D02*
X21463000Y20046400D01*
X21828600Y30038799D02*
X21453599Y30413800D01*
X21368999Y22917636D02*
X21368999Y27933164D01*
X21368999Y27933164D02*
X21828600Y28392765D01*
X21453599Y30413800D02*
X20603600Y30413800D01*
X8915400Y30702800D02*
X8915400Y28128765D01*
X8915400Y28128765D02*
X9262000Y27782165D01*
X9262000Y27782165D02*
X9262000Y22959858D01*
X8861001Y22558859D02*
X8861001Y21211828D01*
X21828600Y28392765D02*
X21828600Y30038799D01*
X8861001Y21211828D02*
X9635829Y20437000D01*
X9262000Y22959858D02*
X8861001Y22558859D01*
X9635829Y20437000D02*
X9876400Y20437000D01*
X21463000Y22823635D02*
X21368999Y22917636D01*
X21463000Y20046400D02*
X21463000Y22823635D01*
X9876400Y31663800D02*
X8915400Y30702800D01*
%TD*%
%TA.AperFunction,Conductor*%
%TO.N,GND*%
G36*
X16091554Y20484228D02*
G01*
X16061737Y20353593D01*
X16071750Y20219972D01*
X16120704Y20095240D01*
X16140832Y20070000D01*
X14338928Y20070000D01*
X14388448Y20155772D01*
X14418265Y20286407D01*
X14408252Y20420028D01*
X14359298Y20544760D01*
X14339170Y20570000D01*
X16141074Y20570000D01*
X16091554Y20484228D01*
G37*
%TD.AperFunction*%
%TA.AperFunction,Conductor*%
G36*
X11106351Y27478837D02*
G01*
X11146880Y27421923D01*
X11153700Y27381366D01*
X11153700Y22611000D01*
X11134015Y22543961D01*
X11081211Y22498206D01*
X11029700Y22487000D01*
X10586001Y22487000D01*
X10586001Y21561000D01*
X10566316Y21493961D01*
X10513512Y21448206D01*
X10462001Y21437000D01*
X10210001Y21437000D01*
X10142962Y21456685D01*
X10097207Y21509489D01*
X10086001Y21561000D01*
X10086001Y22487000D01*
X10046362Y22487000D01*
X9979323Y22506685D01*
X9933568Y22559489D01*
X9923624Y22628647D01*
X9935552Y22666652D01*
X9955953Y22707274D01*
X9955956Y22707279D01*
X9955958Y22707289D01*
X9958425Y22714065D01*
X9958508Y22714035D01*
X9960819Y22720684D01*
X9960737Y22720711D01*
X9963008Y22727565D01*
X9968969Y22756437D01*
X9977832Y22799365D01*
X9978587Y22802770D01*
X9995500Y22874124D01*
X9995500Y22874126D01*
X9995501Y22874130D01*
X9996339Y22881297D01*
X9996422Y22881288D01*
X9997138Y22888292D01*
X9997053Y22888299D01*
X9997682Y22895490D01*
X9995552Y22968699D01*
X9995500Y22972305D01*
X9995500Y23956639D01*
X10012113Y24018639D01*
X10096527Y24164848D01*
X10155542Y24346476D01*
X10175504Y24536404D01*
X10155542Y24726332D01*
X10096527Y24907960D01*
X10059998Y24971229D01*
X10012113Y25054170D01*
X9995500Y25116170D01*
X9995500Y26907500D01*
X10015185Y26974539D01*
X10067989Y27020294D01*
X10119500Y27031500D01*
X10255487Y27031500D01*
X10442288Y27071206D01*
X10616752Y27148882D01*
X10771253Y27261134D01*
X10899040Y27403056D01*
X10909933Y27421923D01*
X10922313Y27443365D01*
X10972879Y27491581D01*
X11041486Y27504805D01*
X11106351Y27478837D01*
G37*
%TD.AperFunction*%
%TA.AperFunction,Conductor*%
G36*
X20337038Y29394115D02*
G01*
X20382793Y29341311D01*
X20393999Y29289800D01*
X20393999Y28363800D01*
X20563432Y28363800D01*
X20630471Y28344115D01*
X20676226Y28291311D01*
X20686170Y28222153D01*
X20676937Y28192735D01*
X20677512Y28192526D01*
X20672573Y28178958D01*
X20672495Y28178987D01*
X20670180Y28172330D01*
X20670260Y28172303D01*
X20667989Y28165452D01*
X20653179Y28093730D01*
X20652399Y28090214D01*
X20635498Y28018898D01*
X20634660Y28011723D01*
X20634576Y28011733D01*
X20633861Y28004729D01*
X20633946Y28004721D01*
X20633316Y27997532D01*
X20635447Y27924325D01*
X20635499Y27920719D01*
X20635499Y24854664D01*
X20615814Y24787625D01*
X20563010Y24741870D01*
X20493852Y24731926D01*
X20485718Y24733374D01*
X20364687Y24759100D01*
X20173713Y24759100D01*
X20166277Y24757520D01*
X20161875Y24756584D01*
X20092208Y24761904D01*
X20036476Y24804044D01*
X20012375Y24869625D01*
X20012100Y24877876D01*
X20012100Y27471132D01*
X20013409Y27489102D01*
X20015709Y27504805D01*
X20016781Y27512122D01*
X20012572Y27560233D01*
X20012100Y27571041D01*
X20012100Y27576314D01*
X20012100Y27576318D01*
X20008587Y27606366D01*
X20008222Y27609941D01*
X20001837Y27682934D01*
X20000376Y27690013D01*
X20000459Y27690031D01*
X19998935Y27696905D01*
X19998851Y27696884D01*
X19997187Y27703902D01*
X19997187Y27703908D01*
X19972118Y27772781D01*
X19970948Y27776149D01*
X19947902Y27845699D01*
X19944850Y27852243D01*
X19944928Y27852280D01*
X19941863Y27858612D01*
X19941787Y27858573D01*
X19938543Y27865031D01*
X19938541Y27865033D01*
X19938541Y27865035D01*
X19912711Y27904308D01*
X19898284Y27926244D01*
X19896346Y27929286D01*
X19857886Y27991640D01*
X19853408Y27997303D01*
X19853474Y27997356D01*
X19849024Y28002819D01*
X19848959Y28002763D01*
X19844315Y28008297D01*
X19791056Y28058544D01*
X19788468Y28061058D01*
X19697407Y28152119D01*
X19663922Y28213442D01*
X19668906Y28283134D01*
X19710778Y28339067D01*
X19776242Y28363484D01*
X19785088Y28363800D01*
X19893999Y28363800D01*
X19893999Y29289800D01*
X19913684Y29356839D01*
X19966488Y29402594D01*
X20017999Y29413800D01*
X20269999Y29413800D01*
X20337038Y29394115D01*
G37*
%TD.AperFunction*%
%TA.AperFunction,Conductor*%
G36*
X16091554Y30644228D02*
G01*
X16061737Y30513593D01*
X16071750Y30379972D01*
X16120704Y30255240D01*
X16140832Y30230000D01*
X14338928Y30230000D01*
X14388448Y30315772D01*
X14418265Y30446407D01*
X14408252Y30580028D01*
X14359298Y30704760D01*
X14339170Y30730000D01*
X16141074Y30730000D01*
X16091554Y30644228D01*
G37*
%TD.AperFunction*%
%TA.AperFunction,Conductor*%
G36*
X24788540Y45145815D02*
G01*
X24834295Y45093011D01*
X24845501Y45041500D01*
X24845501Y35842580D01*
X24825816Y35775541D01*
X24773012Y35729786D01*
X24703854Y35719842D01*
X24682497Y35724874D01*
X24596696Y35753306D01*
X24596689Y35753307D01*
X24493985Y35763800D01*
X23593999Y35763800D01*
X23593999Y33763801D01*
X24493971Y33763801D01*
X24493985Y33763802D01*
X24596698Y33774295D01*
X24682496Y33802726D01*
X24752324Y33805129D01*
X24812366Y33769398D01*
X24843559Y33706878D01*
X24845501Y33685021D01*
X24845501Y28392580D01*
X24825816Y28325541D01*
X24773012Y28279786D01*
X24703854Y28269842D01*
X24682497Y28274874D01*
X24596696Y28303306D01*
X24596689Y28303307D01*
X24493985Y28313800D01*
X23593999Y28313800D01*
X23593999Y26313801D01*
X24493971Y26313801D01*
X24493985Y26313802D01*
X24596698Y26324295D01*
X24682496Y26352726D01*
X24752324Y26355129D01*
X24812366Y26319398D01*
X24843559Y26256878D01*
X24845501Y26235021D01*
X24845501Y24615780D01*
X24825816Y24548741D01*
X24773012Y24502986D01*
X24703854Y24493042D01*
X24682497Y24498074D01*
X24596696Y24526506D01*
X24596689Y24526507D01*
X24493985Y24537000D01*
X23593999Y24537000D01*
X23593999Y22537001D01*
X24493971Y22537001D01*
X24493985Y22537002D01*
X24596698Y22547495D01*
X24682496Y22575926D01*
X24752324Y22578329D01*
X24812366Y22542598D01*
X24843559Y22480078D01*
X24845501Y22458221D01*
X24845501Y17165780D01*
X24825816Y17098741D01*
X24773012Y17052986D01*
X24703854Y17043042D01*
X24682497Y17048074D01*
X24596696Y17076506D01*
X24596689Y17076507D01*
X24493985Y17087000D01*
X23593999Y17087000D01*
X23593999Y15087001D01*
X24493971Y15087001D01*
X24493985Y15087002D01*
X24596698Y15097495D01*
X24682496Y15125926D01*
X24752324Y15128329D01*
X24812366Y15092598D01*
X24843559Y15030078D01*
X24845501Y15008221D01*
X24845501Y5758500D01*
X24825816Y5691461D01*
X24773012Y5645706D01*
X24721501Y5634500D01*
X5758501Y5634500D01*
X5691462Y5654185D01*
X5645707Y5706989D01*
X5634501Y5758500D01*
X5634501Y7315200D01*
X14285459Y7315200D01*
X14304775Y7119071D01*
X14361988Y6930467D01*
X14454886Y6756668D01*
X14454890Y6756661D01*
X14579916Y6604317D01*
X14732260Y6479291D01*
X14732267Y6479287D01*
X14906066Y6386389D01*
X14906069Y6386389D01*
X14906073Y6386386D01*
X15094668Y6329176D01*
X15290800Y6309859D01*
X15486932Y6329176D01*
X15675527Y6386386D01*
X15849338Y6479290D01*
X16001683Y6604317D01*
X16126710Y6756662D01*
X16219614Y6930473D01*
X16276824Y7119068D01*
X16296141Y7315200D01*
X16276824Y7511332D01*
X16219614Y7699927D01*
X16219611Y7699931D01*
X16219611Y7699934D01*
X16126713Y7873733D01*
X16126709Y7873740D01*
X16001683Y8026084D01*
X15849339Y8151110D01*
X15849332Y8151114D01*
X15675533Y8244012D01*
X15675527Y8244014D01*
X15486932Y8301224D01*
X15486929Y8301225D01*
X15290800Y8320541D01*
X15094670Y8301225D01*
X14906066Y8244012D01*
X14732267Y8151114D01*
X14732260Y8151110D01*
X14579916Y8026084D01*
X14454890Y7873740D01*
X14454886Y7873733D01*
X14361988Y7699934D01*
X14304775Y7511330D01*
X14285459Y7315200D01*
X5634501Y7315200D01*
X5634501Y15008220D01*
X5654186Y15075259D01*
X5706990Y15121014D01*
X5776148Y15130958D01*
X5797505Y15125926D01*
X5883303Y15097495D01*
X5883310Y15097494D01*
X5986020Y15087001D01*
X6886000Y15087001D01*
X6886001Y15087002D01*
X6886001Y15837000D01*
X7386001Y15837000D01*
X7386001Y15087001D01*
X8285973Y15087001D01*
X8285987Y15087002D01*
X8388698Y15097495D01*
X8555120Y15152642D01*
X8555125Y15152644D01*
X8704346Y15244685D01*
X8828316Y15368655D01*
X8920357Y15517876D01*
X8920359Y15517881D01*
X8975506Y15684303D01*
X8975507Y15684310D01*
X8986000Y15787014D01*
X8986001Y15787027D01*
X8986001Y15837000D01*
X7386001Y15837000D01*
X6886001Y15837000D01*
X6886001Y17087000D01*
X7386001Y17087000D01*
X7386001Y16337000D01*
X8986000Y16337000D01*
X8986000Y16386972D01*
X8985999Y16386987D01*
X8975506Y16489698D01*
X8920359Y16656120D01*
X8920357Y16656125D01*
X8828316Y16805346D01*
X8704346Y16929316D01*
X8555125Y17021357D01*
X8555120Y17021359D01*
X8388698Y17076506D01*
X8388691Y17076507D01*
X8285987Y17087000D01*
X7386001Y17087000D01*
X6886001Y17087000D01*
X5986029Y17087000D01*
X5986013Y17086999D01*
X5883303Y17076506D01*
X5797505Y17048075D01*
X5727677Y17045673D01*
X5667635Y17081405D01*
X5636442Y17143925D01*
X5634501Y17165781D01*
X5634501Y22458220D01*
X5654186Y22525259D01*
X5706990Y22571014D01*
X5776148Y22580958D01*
X5797505Y22575926D01*
X5883303Y22547495D01*
X5883310Y22547494D01*
X5986020Y22537001D01*
X6886000Y22537001D01*
X7386001Y22537001D01*
X8003501Y22537001D01*
X8070540Y22517316D01*
X8116295Y22464512D01*
X8127501Y22413001D01*
X8127501Y21274298D01*
X8126192Y21256329D01*
X8122819Y21233304D01*
X8127029Y21185197D01*
X8127501Y21174389D01*
X8127501Y21169112D01*
X8131013Y21139061D01*
X8131379Y21135474D01*
X8137763Y21062497D01*
X8139224Y21055421D01*
X8139142Y21055405D01*
X8140666Y21048530D01*
X8140747Y21048549D01*
X8142412Y21041526D01*
X8167470Y20972679D01*
X8168654Y20969274D01*
X8191701Y20899724D01*
X8194753Y20893179D01*
X8194676Y20893144D01*
X8197746Y20886803D01*
X8197822Y20886841D01*
X8201060Y20880392D01*
X8241306Y20819200D01*
X8243243Y20816160D01*
X8281714Y20753789D01*
X8286193Y20748125D01*
X8286126Y20748073D01*
X8290575Y20742612D01*
X8290641Y20742667D01*
X8295286Y20737131D01*
X8348544Y20686885D01*
X8351131Y20684372D01*
X9037129Y19998374D01*
X9056180Y19973814D01*
X9114547Y19875121D01*
X9131730Y19807397D01*
X9114547Y19748879D01*
X9026856Y19600602D01*
X9026854Y19600597D01*
X8980439Y19440836D01*
X8980438Y19440830D01*
X8977501Y19403508D01*
X8977501Y18970493D01*
X8980438Y18933171D01*
X8980439Y18933165D01*
X9026854Y18773404D01*
X9026856Y18773399D01*
X9114547Y18625121D01*
X9131730Y18557397D01*
X9114547Y18498879D01*
X9026856Y18350602D01*
X9026854Y18350597D01*
X8980439Y18190836D01*
X8980438Y18190830D01*
X8977501Y18153508D01*
X8977501Y17720493D01*
X8980438Y17683171D01*
X8980439Y17683165D01*
X9026854Y17523404D01*
X9026856Y17523399D01*
X9111545Y17380197D01*
X9111552Y17380188D01*
X9229188Y17262552D01*
X9229192Y17262549D01*
X9229194Y17262547D01*
X9372400Y17177855D01*
X9413959Y17165781D01*
X9532165Y17131439D01*
X9532168Y17131439D01*
X9532170Y17131438D01*
X9569499Y17128500D01*
X9569505Y17128500D01*
X11102497Y17128500D01*
X11102503Y17128500D01*
X11139832Y17131438D01*
X11139834Y17131439D01*
X11139836Y17131439D01*
X11182813Y17143925D01*
X11299602Y17177855D01*
X11442808Y17262547D01*
X11560454Y17380193D01*
X11645146Y17523399D01*
X11691563Y17683169D01*
X11694501Y17720498D01*
X11694501Y17789486D01*
X11714186Y17856525D01*
X11730815Y17877162D01*
X12066243Y18212590D01*
X12580377Y18212590D01*
X12580377Y14426572D01*
X17849402Y14426572D01*
X17849402Y15837000D01*
X21494000Y15837000D01*
X21494000Y15787014D01*
X21504493Y15684303D01*
X21559640Y15517881D01*
X21559642Y15517876D01*
X21651683Y15368655D01*
X21775653Y15244685D01*
X21924874Y15152644D01*
X21924879Y15152642D01*
X22091301Y15097495D01*
X22091308Y15097494D01*
X22194018Y15087001D01*
X23093998Y15087001D01*
X23093999Y15087002D01*
X23093999Y15837000D01*
X21494000Y15837000D01*
X17849402Y15837000D01*
X17849402Y16337000D01*
X21493999Y16337000D01*
X23093999Y16337000D01*
X23093999Y17087000D01*
X22194027Y17087000D01*
X22194011Y17086999D01*
X22091301Y17076506D01*
X21924879Y17021359D01*
X21924874Y17021357D01*
X21775653Y16929316D01*
X21651683Y16805346D01*
X21559642Y16656125D01*
X21559640Y16656120D01*
X21504493Y16489698D01*
X21504492Y16489691D01*
X21493999Y16386987D01*
X21493999Y16337000D01*
X17849402Y16337000D01*
X17849402Y17686999D01*
X18796703Y17686999D01*
X18796898Y17684514D01*
X18842717Y17526802D01*
X18926313Y17385448D01*
X18926320Y17385439D01*
X19042437Y17269322D01*
X19042446Y17269315D01*
X19183802Y17185718D01*
X19183805Y17185717D01*
X19341503Y17139901D01*
X19341509Y17139900D01*
X19378349Y17137001D01*
X19378365Y17137000D01*
X19893999Y17137000D01*
X19893999Y17687000D01*
X20393999Y17687000D01*
X20393999Y17137000D01*
X20909633Y17137000D01*
X20909648Y17137001D01*
X20946488Y17139900D01*
X20946494Y17139901D01*
X21104192Y17185717D01*
X21104195Y17185718D01*
X21245551Y17269315D01*
X21245560Y17269322D01*
X21361677Y17385439D01*
X21361684Y17385448D01*
X21445280Y17526802D01*
X21491099Y17684514D01*
X21491294Y17686999D01*
X21491294Y17687000D01*
X20393999Y17687000D01*
X19893999Y17687000D01*
X18796704Y17687000D01*
X18796703Y17686999D01*
X17849402Y17686999D01*
X17849402Y18212590D01*
X12580377Y18212590D01*
X12066243Y18212590D01*
X12911305Y19057653D01*
X12972624Y19091135D01*
X13042315Y19086151D01*
X13042317Y19086150D01*
X13100622Y19064403D01*
X13160156Y19058001D01*
X13160173Y19058000D01*
X13720001Y19058000D01*
X13720001Y19952468D01*
X13774961Y19914996D01*
X13903003Y19875500D01*
X14003313Y19875500D01*
X14102500Y19890450D01*
X14220001Y19947036D01*
X14220001Y19058000D01*
X14779829Y19058000D01*
X14779845Y19058001D01*
X14839373Y19064402D01*
X14839380Y19064404D01*
X14974087Y19114646D01*
X14974094Y19114650D01*
X15089187Y19200809D01*
X15140734Y19269666D01*
X15196668Y19311537D01*
X15266360Y19316521D01*
X15327683Y19283036D01*
X15339268Y19269666D01*
X15390814Y19200809D01*
X15505907Y19114650D01*
X15505914Y19114646D01*
X15640621Y19064404D01*
X15640628Y19064402D01*
X15700156Y19058001D01*
X15700173Y19058000D01*
X16260001Y19058000D01*
X16260001Y19952468D01*
X16314961Y19914996D01*
X16443003Y19875500D01*
X16543313Y19875500D01*
X16642500Y19890450D01*
X16760001Y19947036D01*
X16760001Y19058000D01*
X17319829Y19058000D01*
X17319845Y19058001D01*
X17379373Y19064402D01*
X17379380Y19064404D01*
X17514087Y19114646D01*
X17514094Y19114650D01*
X17629188Y19200810D01*
X17629191Y19200813D01*
X17715351Y19315907D01*
X17715355Y19315914D01*
X17765597Y19450621D01*
X17765599Y19450628D01*
X17772000Y19510156D01*
X17772001Y19510173D01*
X17772001Y20070000D01*
X16878928Y20070000D01*
X16928448Y20155772D01*
X16958265Y20286407D01*
X16948252Y20420028D01*
X16899298Y20544760D01*
X16879170Y20570000D01*
X17772001Y20570000D01*
X17772001Y21129828D01*
X17772000Y21129845D01*
X17765599Y21189373D01*
X17765597Y21189380D01*
X17715355Y21324087D01*
X17715351Y21324094D01*
X17629191Y21439187D01*
X17567426Y21485425D01*
X17525555Y21541359D01*
X17520571Y21611051D01*
X17554056Y21672374D01*
X17567411Y21683947D01*
X17635262Y21734739D01*
X17722890Y21851796D01*
X17773990Y21988799D01*
X17777592Y22022308D01*
X17780500Y22049346D01*
X17780501Y22049363D01*
X17780501Y23670638D01*
X17780500Y23670655D01*
X17777158Y23701730D01*
X17773990Y23731201D01*
X17722890Y23868204D01*
X17635262Y23985261D01*
X17574517Y24030735D01*
X17532647Y24086667D01*
X17527663Y24156359D01*
X17561148Y24217682D01*
X17574517Y24229266D01*
X17635262Y24274739D01*
X17722890Y24391796D01*
X17773990Y24528799D01*
X17779863Y24583424D01*
X17780500Y24589346D01*
X17780501Y24589363D01*
X17780501Y26210638D01*
X17780500Y26210655D01*
X17775534Y26256840D01*
X17773990Y26271201D01*
X17762480Y26302059D01*
X17751523Y26331436D01*
X17722890Y26408204D01*
X17635262Y26525261D01*
X17574517Y26570735D01*
X17532647Y26626667D01*
X17527663Y26696359D01*
X17561148Y26757682D01*
X17574517Y26769266D01*
X17635262Y26814739D01*
X17722890Y26931796D01*
X17773990Y27068799D01*
X17777592Y27102308D01*
X17780500Y27129346D01*
X17780501Y27129363D01*
X17780501Y27285701D01*
X17800186Y27352740D01*
X17852990Y27398495D01*
X17904501Y27409701D01*
X18313811Y27409701D01*
X18380850Y27390016D01*
X18401492Y27373382D01*
X18508781Y27266093D01*
X18542266Y27204770D01*
X18545100Y27178412D01*
X18545100Y22844119D01*
X18525415Y22777080D01*
X18508781Y22756437D01*
X18394502Y22642159D01*
X18380875Y22630382D01*
X18362212Y22616487D01*
X18331170Y22579493D01*
X18323877Y22571534D01*
X18320134Y22567791D01*
X18301365Y22544055D01*
X18299092Y22541265D01*
X18251996Y22485137D01*
X18248029Y22479104D01*
X18247959Y22479151D01*
X18244176Y22473213D01*
X18244247Y22473169D01*
X18240458Y22467027D01*
X18209486Y22400608D01*
X18207916Y22397365D01*
X18175040Y22331902D01*
X18172573Y22325122D01*
X18172495Y22325151D01*
X18170180Y22318494D01*
X18170260Y22318467D01*
X18167989Y22311616D01*
X18153179Y22239894D01*
X18152399Y22236378D01*
X18135498Y22165062D01*
X18134660Y22157887D01*
X18134576Y22157897D01*
X18133861Y22150893D01*
X18133946Y22150885D01*
X18133316Y22143696D01*
X18135447Y22070489D01*
X18135499Y22066883D01*
X18135499Y21357142D01*
X18134190Y21339173D01*
X18130817Y21316148D01*
X18135027Y21268041D01*
X18135499Y21257233D01*
X18135499Y21251956D01*
X18139011Y21221905D01*
X18139377Y21218318D01*
X18145761Y21145341D01*
X18147222Y21138265D01*
X18147140Y21138249D01*
X18148664Y21131374D01*
X18148745Y21131393D01*
X18150410Y21124370D01*
X18175468Y21055523D01*
X18176652Y21052118D01*
X18199699Y20982568D01*
X18202751Y20976023D01*
X18202674Y20975988D01*
X18205744Y20969647D01*
X18205820Y20969685D01*
X18209058Y20963236D01*
X18249304Y20902044D01*
X18251241Y20899004D01*
X18289712Y20836633D01*
X18294191Y20830969D01*
X18294124Y20830917D01*
X18298573Y20825456D01*
X18298639Y20825511D01*
X18303284Y20819975D01*
X18356542Y20769729D01*
X18359129Y20767216D01*
X18749180Y20377165D01*
X18782665Y20315842D01*
X18785499Y20289484D01*
X18785499Y20220493D01*
X18788436Y20183171D01*
X18788437Y20183165D01*
X18834852Y20023404D01*
X18834854Y20023399D01*
X18922545Y19875121D01*
X18939728Y19807397D01*
X18922545Y19748879D01*
X18834854Y19600602D01*
X18834852Y19600597D01*
X18788437Y19440836D01*
X18788436Y19440830D01*
X18785499Y19403508D01*
X18785499Y18970493D01*
X18788436Y18933171D01*
X18788437Y18933165D01*
X18834852Y18773404D01*
X18834854Y18773399D01*
X18923517Y18623478D01*
X18922321Y18622772D01*
X18944800Y18565513D01*
X18931116Y18496996D01*
X18928017Y18491434D01*
X18842717Y18347199D01*
X18796898Y18189487D01*
X18796703Y18187002D01*
X18796704Y18187000D01*
X21491294Y18187000D01*
X21491294Y18187002D01*
X21491099Y18189487D01*
X21445280Y18347199D01*
X21359980Y18491434D01*
X21342797Y18559158D01*
X21364957Y18625420D01*
X21368393Y18630095D01*
X21368449Y18630191D01*
X21368452Y18630193D01*
X21453144Y18773399D01*
X21499561Y18933169D01*
X21502499Y18970498D01*
X21502499Y18997212D01*
X21522184Y19064251D01*
X21538814Y19084889D01*
X21937495Y19483571D01*
X21951121Y19495347D01*
X21969785Y19509240D01*
X22000842Y19546254D01*
X22008134Y19554209D01*
X22011869Y19557943D01*
X22030682Y19581738D01*
X22032909Y19584469D01*
X22080002Y19640591D01*
X22080004Y19640596D01*
X22083973Y19646629D01*
X22084047Y19646581D01*
X22087824Y19652510D01*
X22087749Y19652556D01*
X22091540Y19658703D01*
X22091539Y19658703D01*
X22091544Y19658708D01*
X22122552Y19725209D01*
X22124067Y19728337D01*
X22156956Y19793821D01*
X22156958Y19793833D01*
X22159425Y19800607D01*
X22159508Y19800577D01*
X22161819Y19807226D01*
X22161737Y19807253D01*
X22164008Y19814107D01*
X22164009Y19814111D01*
X22178832Y19885907D01*
X22179587Y19889312D01*
X22196500Y19960666D01*
X22196500Y19960668D01*
X22196501Y19960672D01*
X22197339Y19967839D01*
X22197422Y19967830D01*
X22198138Y19974834D01*
X22198053Y19974841D01*
X22198682Y19982032D01*
X22196552Y20055241D01*
X22196500Y20058847D01*
X22196500Y22101665D01*
X22213113Y22163665D01*
X22213920Y22165062D01*
X22263127Y22250291D01*
X22322142Y22431919D01*
X22322142Y22431921D01*
X22322143Y22431923D01*
X22323495Y22438281D01*
X22326344Y22437676D01*
X22348073Y22490543D01*
X22405356Y22530548D01*
X22444837Y22537001D01*
X23093999Y22537001D01*
X23093999Y24537000D01*
X22226499Y24537000D01*
X22159460Y24556685D01*
X22113705Y24609489D01*
X22102499Y24661000D01*
X22102499Y26189801D01*
X22122184Y26256840D01*
X22174988Y26302595D01*
X22226499Y26313801D01*
X23093998Y26313801D01*
X23093999Y26313802D01*
X23093999Y28313800D01*
X22686100Y28313800D01*
X22619061Y28333485D01*
X22573306Y28386289D01*
X22562100Y28437800D01*
X22562100Y29976329D01*
X22563409Y29994298D01*
X22566781Y30017323D01*
X22562572Y30065431D01*
X22562100Y30076239D01*
X22562100Y30081513D01*
X22562100Y30081517D01*
X22558582Y30111606D01*
X22558222Y30115138D01*
X22551837Y30188131D01*
X22551837Y30188135D01*
X22551834Y30188142D01*
X22550377Y30195205D01*
X22550460Y30195223D01*
X22548935Y30202100D01*
X22548852Y30202080D01*
X22547187Y30209101D01*
X22547187Y30209107D01*
X22522130Y30277949D01*
X22520947Y30281353D01*
X22519089Y30286961D01*
X22497902Y30350899D01*
X22497897Y30350906D01*
X22494848Y30357447D01*
X22494926Y30357484D01*
X22491859Y30363819D01*
X22491782Y30363780D01*
X22488541Y30370234D01*
X22482136Y30379972D01*
X22448287Y30431437D01*
X22446368Y30434450D01*
X22407888Y30496835D01*
X22403408Y30502501D01*
X22403475Y30502554D01*
X22399029Y30508012D01*
X22398964Y30507957D01*
X22394320Y30513491D01*
X22341039Y30563759D01*
X22338452Y30566272D01*
X22016430Y30888295D01*
X22004649Y30901928D01*
X21990759Y30920585D01*
X21986093Y30924500D01*
X21953765Y30951627D01*
X21945790Y30958935D01*
X21942057Y30962668D01*
X21932017Y30970607D01*
X21918306Y30981449D01*
X21915523Y30983716D01*
X21859412Y31030799D01*
X21859410Y31030801D01*
X21859408Y31030802D01*
X21859405Y31030804D01*
X21853374Y31034770D01*
X21853420Y31034842D01*
X21847480Y31038626D01*
X21847436Y31038553D01*
X21841289Y31042345D01*
X21832995Y31046213D01*
X21774879Y31073312D01*
X21771661Y31074871D01*
X21706179Y31107756D01*
X21699388Y31110228D01*
X21699416Y31110308D01*
X21692765Y31112620D01*
X21692739Y31112539D01*
X21685886Y31114810D01*
X21614171Y31129618D01*
X21610650Y31130398D01*
X21557578Y31142976D01*
X21496885Y31177590D01*
X21464541Y31239523D01*
X21467098Y31298229D01*
X21499560Y31409965D01*
X21499561Y31409971D01*
X21502499Y31447298D01*
X21502499Y31880302D01*
X21499561Y31917631D01*
X21493084Y31939924D01*
X21453145Y32077397D01*
X21453144Y32077401D01*
X21368452Y32220607D01*
X21368450Y32220609D01*
X21365452Y32225679D01*
X21348269Y32293403D01*
X21365452Y32351921D01*
X21369856Y32359367D01*
X21453144Y32500199D01*
X21499561Y32659969D01*
X21502499Y32697298D01*
X21502499Y33130302D01*
X21499561Y33167631D01*
X21453144Y33327401D01*
X21368452Y33470607D01*
X21368450Y33470609D01*
X21368447Y33470613D01*
X21250811Y33588249D01*
X21250802Y33588256D01*
X21107600Y33672945D01*
X21107595Y33672947D01*
X20947834Y33719362D01*
X20947828Y33719363D01*
X20910506Y33722300D01*
X20910501Y33722300D01*
X19726720Y33722300D01*
X19659681Y33741985D01*
X19613926Y33794789D01*
X19602720Y33846300D01*
X19602720Y34513800D01*
X21494000Y34513800D01*
X21494000Y34463814D01*
X21504493Y34361103D01*
X21559640Y34194681D01*
X21559642Y34194676D01*
X21651683Y34045455D01*
X21775653Y33921485D01*
X21924874Y33829444D01*
X21924879Y33829442D01*
X22091301Y33774295D01*
X22091308Y33774294D01*
X22194018Y33763801D01*
X23093998Y33763801D01*
X23093999Y33763802D01*
X23093999Y34513800D01*
X21494000Y34513800D01*
X19602720Y34513800D01*
X19602720Y35013800D01*
X21493999Y35013800D01*
X23093999Y35013800D01*
X23093999Y35763800D01*
X22194027Y35763800D01*
X22194011Y35763799D01*
X22091301Y35753306D01*
X21924879Y35698159D01*
X21924874Y35698157D01*
X21775653Y35606116D01*
X21651683Y35482146D01*
X21559642Y35332925D01*
X21559640Y35332920D01*
X21504493Y35166498D01*
X21504492Y35166491D01*
X21493999Y35063787D01*
X21493999Y35013800D01*
X19602720Y35013800D01*
X19602720Y36055249D01*
X10431007Y36055249D01*
X10431007Y33831869D01*
X10462001Y33831869D01*
X10529040Y33812184D01*
X10574795Y33759380D01*
X10586001Y33707869D01*
X10586001Y33163800D01*
X11683296Y33163800D01*
X11683296Y33163802D01*
X11683101Y33166287D01*
X11637282Y33323999D01*
X11553686Y33465353D01*
X11553679Y33465362D01*
X11437562Y33581479D01*
X11437554Y33581485D01*
X11404324Y33601137D01*
X11356641Y33652206D01*
X11344137Y33720948D01*
X11370782Y33785537D01*
X11428117Y33825467D01*
X11467445Y33831869D01*
X18995856Y33831869D01*
X19062895Y33812184D01*
X19108650Y33759380D01*
X19118594Y33690222D01*
X19089569Y33626666D01*
X19058978Y33601137D01*
X19037192Y33588253D01*
X19037186Y33588249D01*
X18919550Y33470613D01*
X18919543Y33470604D01*
X18834854Y33327402D01*
X18834852Y33327397D01*
X18788437Y33167636D01*
X18788436Y33167630D01*
X18785499Y33130308D01*
X18785499Y33082188D01*
X18765814Y33015149D01*
X18749180Y32994507D01*
X18430142Y32675470D01*
X18368819Y32641985D01*
X18368243Y32641861D01*
X18259709Y32618791D01*
X18085240Y32541112D01*
X17930741Y32428861D01*
X17802955Y32286939D01*
X17707469Y32121553D01*
X17707466Y32121546D01*
X17648455Y31939928D01*
X17648454Y31939924D01*
X17642188Y31880302D01*
X17634365Y31805872D01*
X17607780Y31741258D01*
X17550483Y31701273D01*
X17480664Y31698613D01*
X17467711Y31702652D01*
X17379381Y31735597D01*
X17379373Y31735599D01*
X17319845Y31742000D01*
X16760001Y31742000D01*
X16760001Y30847533D01*
X16705041Y30885004D01*
X16576999Y30924500D01*
X16476689Y30924500D01*
X16377502Y30909550D01*
X16260001Y30852965D01*
X16260001Y31742000D01*
X15700156Y31742000D01*
X15640628Y31735599D01*
X15640621Y31735597D01*
X15505914Y31685355D01*
X15505907Y31685351D01*
X15390813Y31599191D01*
X15339267Y31530334D01*
X15283333Y31488464D01*
X15213642Y31483480D01*
X15152319Y31516966D01*
X15140735Y31530334D01*
X15089188Y31599191D01*
X14974094Y31685351D01*
X14974087Y31685355D01*
X14839380Y31735597D01*
X14839373Y31735599D01*
X14779845Y31742000D01*
X14220001Y31742000D01*
X14220001Y30847533D01*
X14165041Y30885004D01*
X14036999Y30924500D01*
X13936689Y30924500D01*
X13837502Y30909550D01*
X13720001Y30852965D01*
X13720001Y31742000D01*
X13160156Y31742000D01*
X13100628Y31735599D01*
X13100621Y31735597D01*
X12965914Y31685355D01*
X12965907Y31685351D01*
X12850813Y31599191D01*
X12850810Y31599188D01*
X12764650Y31484094D01*
X12764646Y31484087D01*
X12714404Y31349380D01*
X12714402Y31349373D01*
X12708001Y31289845D01*
X12708001Y30730000D01*
X13601074Y30730000D01*
X13551554Y30644228D01*
X13521737Y30513593D01*
X13531750Y30379972D01*
X13580704Y30255240D01*
X13600832Y30230000D01*
X12708001Y30230000D01*
X12708001Y29916920D01*
X12688316Y29849881D01*
X12635512Y29804126D01*
X12566354Y29794182D01*
X12502798Y29823207D01*
X12478462Y29851823D01*
X12466484Y29871243D01*
X12462008Y29876903D01*
X12462074Y29876956D01*
X12457624Y29882419D01*
X12457559Y29882363D01*
X12452915Y29887897D01*
X12399656Y29938144D01*
X12397068Y29940658D01*
X11722866Y30614860D01*
X11691472Y30667944D01*
X11645146Y30827401D01*
X11560454Y30970607D01*
X11560452Y30970609D01*
X11557454Y30975679D01*
X11540271Y31043403D01*
X11557454Y31101921D01*
X11560905Y31107756D01*
X11645146Y31250199D01*
X11691563Y31409969D01*
X11694501Y31447298D01*
X11694501Y31880302D01*
X11691563Y31917631D01*
X11685086Y31939924D01*
X11645147Y32077397D01*
X11645146Y32077401D01*
X11560454Y32220607D01*
X11556483Y32227322D01*
X11557678Y32228029D01*
X11535199Y32285285D01*
X11548881Y32353802D01*
X11551982Y32359367D01*
X11637282Y32503602D01*
X11683101Y32661314D01*
X11683296Y32663799D01*
X11683296Y32663800D01*
X8988706Y32663800D01*
X8988705Y32663799D01*
X8988900Y32661314D01*
X9034719Y32503602D01*
X9120019Y32359367D01*
X9137202Y32291643D01*
X9115042Y32225380D01*
X9111609Y32220711D01*
X9026856Y32077402D01*
X9026854Y32077397D01*
X8980439Y31917636D01*
X8980438Y31917630D01*
X8977501Y31880308D01*
X8977501Y31853590D01*
X8957816Y31786551D01*
X8941182Y31765909D01*
X8440907Y31265635D01*
X8427280Y31253857D01*
X8408613Y31239959D01*
X8377571Y31202965D01*
X8370278Y31195006D01*
X8366535Y31191263D01*
X8347766Y31167527D01*
X8345493Y31164737D01*
X8298397Y31108609D01*
X8294430Y31102576D01*
X8294360Y31102623D01*
X8290577Y31096685D01*
X8290648Y31096641D01*
X8286859Y31090499D01*
X8255887Y31024080D01*
X8254317Y31020837D01*
X8221441Y30955374D01*
X8218974Y30948594D01*
X8218896Y30948623D01*
X8216581Y30941966D01*
X8216661Y30941939D01*
X8214390Y30935088D01*
X8199580Y30863366D01*
X8198800Y30859850D01*
X8181899Y30788534D01*
X8181061Y30781359D01*
X8180977Y30781369D01*
X8180262Y30774365D01*
X8180347Y30774357D01*
X8179717Y30767168D01*
X8181848Y30693961D01*
X8181900Y30690355D01*
X8181900Y28437800D01*
X8162215Y28370761D01*
X8109411Y28325006D01*
X8057900Y28313800D01*
X7386001Y28313800D01*
X7386001Y26313801D01*
X8285973Y26313801D01*
X8285987Y26313802D01*
X8391898Y26324621D01*
X8460591Y26311851D01*
X8511475Y26263971D01*
X8528500Y26201263D01*
X8528500Y25116170D01*
X8511887Y25054170D01*
X8427473Y24907961D01*
X8427470Y24907954D01*
X8368459Y24726336D01*
X8368458Y24726332D01*
X8360228Y24648037D01*
X8333646Y24583424D01*
X8276348Y24543439D01*
X8236909Y24537000D01*
X7386001Y24537000D01*
X7386001Y22537001D01*
X6886000Y22537001D01*
X6886001Y22537002D01*
X6886001Y24537000D01*
X5986029Y24537000D01*
X5986013Y24536999D01*
X5883303Y24526506D01*
X5797505Y24498075D01*
X5727677Y24495673D01*
X5667635Y24531405D01*
X5636442Y24593925D01*
X5634501Y24615781D01*
X5634501Y26235020D01*
X5654186Y26302059D01*
X5706990Y26347814D01*
X5776148Y26357758D01*
X5797505Y26352726D01*
X5883303Y26324295D01*
X5883310Y26324294D01*
X5986020Y26313801D01*
X6886000Y26313801D01*
X6886001Y26313802D01*
X6886001Y28313800D01*
X5986029Y28313800D01*
X5986013Y28313799D01*
X5883303Y28303306D01*
X5797505Y28274875D01*
X5727677Y28272473D01*
X5667635Y28308205D01*
X5636442Y28370725D01*
X5634501Y28392581D01*
X5634501Y33163802D01*
X8988705Y33163802D01*
X8988706Y33163800D01*
X10086001Y33163800D01*
X10086001Y33713800D01*
X9570351Y33713800D01*
X9533511Y33710901D01*
X9533505Y33710900D01*
X9375807Y33665084D01*
X9375804Y33665083D01*
X9234448Y33581486D01*
X9234439Y33581479D01*
X9118322Y33465362D01*
X9118315Y33465353D01*
X9034719Y33323999D01*
X8988900Y33166287D01*
X8988705Y33163802D01*
X5634501Y33163802D01*
X5634501Y33685020D01*
X5654186Y33752059D01*
X5706990Y33797814D01*
X5776148Y33807758D01*
X5797505Y33802726D01*
X5883303Y33774295D01*
X5883310Y33774294D01*
X5986020Y33763801D01*
X6886000Y33763801D01*
X6886001Y33763802D01*
X6886001Y34513800D01*
X7386001Y34513800D01*
X7386001Y33763801D01*
X8285973Y33763801D01*
X8285987Y33763802D01*
X8388698Y33774295D01*
X8555120Y33829442D01*
X8555125Y33829444D01*
X8704346Y33921485D01*
X8828316Y34045455D01*
X8920357Y34194676D01*
X8920359Y34194681D01*
X8975506Y34361103D01*
X8975507Y34361110D01*
X8986000Y34463814D01*
X8986001Y34463827D01*
X8986001Y34513800D01*
X7386001Y34513800D01*
X6886001Y34513800D01*
X6886001Y35763800D01*
X7386001Y35763800D01*
X7386001Y35013800D01*
X8986000Y35013800D01*
X8986000Y35063772D01*
X8985999Y35063787D01*
X8975506Y35166498D01*
X8920359Y35332920D01*
X8920357Y35332925D01*
X8828316Y35482146D01*
X8704346Y35606116D01*
X8555125Y35698157D01*
X8555120Y35698159D01*
X8388698Y35753306D01*
X8388691Y35753307D01*
X8285987Y35763800D01*
X7386001Y35763800D01*
X6886001Y35763800D01*
X5986029Y35763800D01*
X5986013Y35763799D01*
X5883303Y35753306D01*
X5797505Y35724875D01*
X5727677Y35722473D01*
X5667635Y35758205D01*
X5636442Y35820725D01*
X5634501Y35842581D01*
X5634501Y43326400D01*
X14234659Y43326400D01*
X14253975Y43130271D01*
X14311188Y42941667D01*
X14404086Y42767868D01*
X14404090Y42767861D01*
X14529116Y42615517D01*
X14681460Y42490491D01*
X14681467Y42490487D01*
X14855266Y42397589D01*
X14855269Y42397589D01*
X14855273Y42397586D01*
X15043868Y42340376D01*
X15240000Y42321059D01*
X15436132Y42340376D01*
X15624727Y42397586D01*
X15798538Y42490490D01*
X15950883Y42615517D01*
X16075910Y42767862D01*
X16168814Y42941673D01*
X16226024Y43130268D01*
X16245341Y43326400D01*
X16226024Y43522532D01*
X16168814Y43711127D01*
X16168811Y43711131D01*
X16168811Y43711134D01*
X16075913Y43884933D01*
X16075909Y43884940D01*
X15950883Y44037284D01*
X15798539Y44162310D01*
X15798532Y44162314D01*
X15624733Y44255212D01*
X15624727Y44255214D01*
X15436132Y44312424D01*
X15436129Y44312425D01*
X15240000Y44331741D01*
X15043870Y44312425D01*
X14855266Y44255212D01*
X14681467Y44162314D01*
X14681460Y44162310D01*
X14529116Y44037284D01*
X14404090Y43884940D01*
X14404086Y43884933D01*
X14311188Y43711134D01*
X14253975Y43522530D01*
X14234659Y43326400D01*
X5634501Y43326400D01*
X5634501Y45041500D01*
X5654186Y45108539D01*
X5706990Y45154294D01*
X5758501Y45165500D01*
X24721501Y45165500D01*
X24788540Y45145815D01*
G37*
%TD.AperFunction*%
%TD*%
M02*
