%TF.GenerationSoftware,KiCad,Pcbnew,8.0.6+1*%
%TF.CreationDate,2024-11-07T23:08:08+00:00*%
%TF.ProjectId,GHxPIN01,47487850-494e-4303-912e-6b696361645f,rev?*%
%TF.SameCoordinates,Original*%
%TF.FileFunction,Soldermask,Top*%
%TF.FilePolarity,Negative*%
%FSLAX46Y46*%
G04 Gerber Fmt 4.6, Leading zero omitted, Abs format (unit mm)*
G04 Created by KiCad (PCBNEW 8.0.6+1) date 2024-11-07 23:08:08*
%MOMM*%
%LPD*%
G01*
G04 APERTURE LIST*
G04 Aperture macros list*
%AMRoundRect*
0 Rectangle with rounded corners*
0 $1 Rounding radius*
0 $2 $3 $4 $5 $6 $7 $8 $9 X,Y pos of 4 corners*
0 Add a 4 corners polygon primitive as box body*
4,1,4,$2,$3,$4,$5,$6,$7,$8,$9,$2,$3,0*
0 Add four circle primitives for the rounded corners*
1,1,$1+$1,$2,$3*
1,1,$1+$1,$4,$5*
1,1,$1+$1,$6,$7*
1,1,$1+$1,$8,$9*
0 Add four rect primitives between the rounded corners*
20,1,$1+$1,$2,$3,$4,$5,0*
20,1,$1+$1,$4,$5,$6,$7,0*
20,1,$1+$1,$6,$7,$8,$9,0*
20,1,$1+$1,$8,$9,$2,$3,0*%
G04 Aperture macros list end*
%ADD10C,0.150000*%
%ADD11C,6.160000*%
%ADD12RoundRect,0.080000X0.850000X0.850000X-0.850000X0.850000X-0.850000X-0.850000X0.850000X-0.850000X0*%
%ADD13O,1.860000X1.860000*%
%ADD14RoundRect,0.190000X0.740000X-0.190000X0.740000X0.190000X-0.740000X0.190000X-0.740000X-0.190000X0*%
%ADD15RoundRect,0.290000X1.140000X-0.290000X1.140000X0.290000X-1.140000X0.290000X-1.140000X-0.290000X0*%
G04 APERTURE END LIST*
D10*
X22400000Y33295000D02*
X24980000Y33295000D01*
X24980000Y21605000D01*
X22400000Y21605000D01*
X22400000Y33295000D01*
G36*
X22400000Y33295000D02*
G01*
X24980000Y33295000D01*
X24980000Y21605000D01*
X22400000Y21605000D01*
X22400000Y33295000D01*
G37*
D11*
%TO.C,M2*%
X20320001Y40640000D03*
%TD*%
%TO.C,M4*%
X20320001Y10160000D03*
%TD*%
%TO.C,M3*%
X10160001Y10160000D03*
%TD*%
D12*
%TO.C,J7*%
X16320000Y13970000D03*
D13*
X13780000Y13970000D03*
X16320000Y16510000D03*
X13780000Y16510000D03*
X16320000Y19050000D03*
X13780000Y19050000D03*
X16320000Y21590000D03*
X13780000Y21590000D03*
X16320000Y24130000D03*
X13780000Y24130000D03*
X16320000Y26670000D03*
X13780000Y26670000D03*
X16320000Y29210000D03*
X13780000Y29210000D03*
X16320000Y31750000D03*
X13780000Y31750000D03*
X16320000Y34290000D03*
X13780000Y34290000D03*
X16320000Y36830000D03*
X13780000Y36830000D03*
%TD*%
D11*
%TO.C,M1*%
X10160001Y40640000D03*
%TD*%
D14*
%TO.C,J6*%
X20600000Y19770000D03*
X20600000Y21020000D03*
X20600000Y22270000D03*
X20600000Y23520000D03*
X20600000Y24770000D03*
X20600000Y26020000D03*
X20600000Y27270000D03*
X20600000Y28520000D03*
X20600000Y29770000D03*
X20600000Y31020000D03*
D15*
X23800000Y17920000D03*
X23800000Y32870000D03*
%TD*%
M02*
