%TF.GenerationSoftware,KiCad,Pcbnew,8.0.6+1*%
%TF.CreationDate,2024-11-07T23:08:08+00:00*%
%TF.ProjectId,GHxPIN01,47487850-494e-4303-912e-6b696361645f,rev?*%
%TF.SameCoordinates,Original*%
%TF.FileFunction,Copper,L2,Bot*%
%TF.FilePolarity,Positive*%
%FSLAX46Y46*%
G04 Gerber Fmt 4.6, Leading zero omitted, Abs format (unit mm)*
G04 Created by KiCad (PCBNEW 8.0.6+1) date 2024-11-07 23:08:08*
%MOMM*%
%LPD*%
G01*
G04 APERTURE LIST*
%ADD10C,0.150000*%
%TA.AperFunction,NonConductor*%
%ADD11C,0.150000*%
%TD*%
%TA.AperFunction,ComponentPad*%
%ADD12C,6.000000*%
%TD*%
%TA.AperFunction,ComponentPad*%
%ADD13R,1.700000X1.700000*%
%TD*%
%TA.AperFunction,ComponentPad*%
%ADD14O,1.700000X1.700000*%
%TD*%
%TA.AperFunction,SMDPad,CuDef*%
%ADD15C,1.000000*%
%TD*%
G04 APERTURE END LIST*
D10*
D11*
X6537438Y35559412D02*
X6489819Y35654650D01*
X6489819Y35654650D02*
X6489819Y35797507D01*
X6489819Y35797507D02*
X6537438Y35940364D01*
X6537438Y35940364D02*
X6632676Y36035602D01*
X6632676Y36035602D02*
X6727914Y36083221D01*
X6727914Y36083221D02*
X6918390Y36130840D01*
X6918390Y36130840D02*
X7061247Y36130840D01*
X7061247Y36130840D02*
X7251723Y36083221D01*
X7251723Y36083221D02*
X7346961Y36035602D01*
X7346961Y36035602D02*
X7442200Y35940364D01*
X7442200Y35940364D02*
X7489819Y35797507D01*
X7489819Y35797507D02*
X7489819Y35702269D01*
X7489819Y35702269D02*
X7442200Y35559412D01*
X7442200Y35559412D02*
X7394580Y35511793D01*
X7394580Y35511793D02*
X7061247Y35511793D01*
X7061247Y35511793D02*
X7061247Y35702269D01*
X7489819Y35083221D02*
X6489819Y35083221D01*
X6966009Y35083221D02*
X6966009Y34511793D01*
X7489819Y34511793D02*
X6489819Y34511793D01*
X7489819Y34130840D02*
X6823152Y33607031D01*
X6823152Y34130840D02*
X7489819Y33607031D01*
X7489819Y33226078D02*
X6489819Y33226078D01*
X6489819Y33226078D02*
X6489819Y32845126D01*
X6489819Y32845126D02*
X6537438Y32749888D01*
X6537438Y32749888D02*
X6585057Y32702269D01*
X6585057Y32702269D02*
X6680295Y32654650D01*
X6680295Y32654650D02*
X6823152Y32654650D01*
X6823152Y32654650D02*
X6918390Y32702269D01*
X6918390Y32702269D02*
X6966009Y32749888D01*
X6966009Y32749888D02*
X7013628Y32845126D01*
X7013628Y32845126D02*
X7013628Y33226078D01*
X7489819Y32226078D02*
X6489819Y32226078D01*
X7489819Y31749888D02*
X6489819Y31749888D01*
X6489819Y31749888D02*
X7489819Y31178460D01*
X7489819Y31178460D02*
X6489819Y31178460D01*
X6489819Y30511793D02*
X6489819Y30416555D01*
X6489819Y30416555D02*
X6537438Y30321317D01*
X6537438Y30321317D02*
X6585057Y30273698D01*
X6585057Y30273698D02*
X6680295Y30226079D01*
X6680295Y30226079D02*
X6870771Y30178460D01*
X6870771Y30178460D02*
X7108866Y30178460D01*
X7108866Y30178460D02*
X7299342Y30226079D01*
X7299342Y30226079D02*
X7394580Y30273698D01*
X7394580Y30273698D02*
X7442200Y30321317D01*
X7442200Y30321317D02*
X7489819Y30416555D01*
X7489819Y30416555D02*
X7489819Y30511793D01*
X7489819Y30511793D02*
X7442200Y30607031D01*
X7442200Y30607031D02*
X7394580Y30654650D01*
X7394580Y30654650D02*
X7299342Y30702269D01*
X7299342Y30702269D02*
X7108866Y30749888D01*
X7108866Y30749888D02*
X6870771Y30749888D01*
X6870771Y30749888D02*
X6680295Y30702269D01*
X6680295Y30702269D02*
X6585057Y30654650D01*
X6585057Y30654650D02*
X6537438Y30607031D01*
X6537438Y30607031D02*
X6489819Y30511793D01*
X7489819Y29226079D02*
X7489819Y29797507D01*
X7489819Y29511793D02*
X6489819Y29511793D01*
X6489819Y29511793D02*
X6632676Y29607031D01*
X6632676Y29607031D02*
X6727914Y29702269D01*
X6727914Y29702269D02*
X6775533Y29797507D01*
X7204104Y28845126D02*
X7204104Y28368936D01*
X7489819Y28940364D02*
X6489819Y28607031D01*
X6489819Y28607031D02*
X7489819Y28273698D01*
D12*
%TO.P,M2,1*%
%TO.N,GND*%
X20320001Y40640000D03*
%TD*%
%TO.P,M4,1*%
%TO.N,GND*%
X20320001Y10160000D03*
%TD*%
%TO.P,M3,1*%
%TO.N,GND*%
X10160001Y10160000D03*
%TD*%
D13*
%TO.P,J7,1*%
%TO.N,Net-(J6-Pad1)*%
X16320000Y13970000D03*
D14*
%TO.P,J7,2*%
X13780000Y13970000D03*
%TO.P,J7,3*%
%TO.N,Net-(J6-Pad2)*%
X16320000Y16510000D03*
%TO.P,J7,4*%
X13780000Y16510000D03*
%TO.P,J7,5*%
%TO.N,Net-(J6-Pad3)*%
X16320000Y19050000D03*
%TO.P,J7,6*%
X13780000Y19050000D03*
%TO.P,J7,7*%
%TO.N,Net-(J6-Pad4)*%
X16320000Y21590000D03*
%TO.P,J7,8*%
X13780000Y21590000D03*
%TO.P,J7,9*%
%TO.N,Net-(J6-Pad5)*%
X16320000Y24130000D03*
%TO.P,J7,10*%
X13780000Y24130000D03*
%TO.P,J7,11*%
%TO.N,Net-(J6-Pad6)*%
X16320000Y26670000D03*
%TO.P,J7,12*%
X13780000Y26670000D03*
%TO.P,J7,13*%
%TO.N,Net-(J6-Pad7)*%
X16320000Y29210000D03*
%TO.P,J7,14*%
X13780000Y29210000D03*
%TO.P,J7,15*%
%TO.N,Net-(J6-Pad8)*%
X16320000Y31750000D03*
%TO.P,J7,16*%
X13780000Y31750000D03*
%TO.P,J7,17*%
%TO.N,Net-(J6-Pad9)*%
X16320000Y34290000D03*
%TO.P,J7,18*%
X13780000Y34290000D03*
%TO.P,J7,19*%
%TO.N,Net-(J6-Pad10)*%
X16320000Y36830000D03*
%TO.P,J7,20*%
X13780000Y36830000D03*
%TD*%
D12*
%TO.P,M1,1*%
%TO.N,GND*%
X10160001Y40640000D03*
%TD*%
D15*
%TO.P,FID2,*%
%TO.N,*%
X15290800Y7315200D03*
%TD*%
%TO.P,FID1,*%
%TO.N,*%
X15240000Y43326400D03*
%TD*%
%TA.AperFunction,Conductor*%
%TO.N,GND*%
G36*
X24845501Y15861217D02*
G01*
X21380000Y15890000D01*
X21400000Y33660000D01*
X24845501Y33671242D01*
X24845501Y15861217D01*
G37*
%TD.AperFunction*%
%TD*%
%TA.AperFunction,Conductor*%
%TO.N,GND*%
G36*
X24788540Y45145815D02*
G01*
X24834295Y45093011D01*
X24845501Y45041500D01*
X24845501Y33671242D01*
X21400000Y33660000D01*
X21380000Y15890000D01*
X24845501Y15861217D01*
X24845501Y5758500D01*
X24825816Y5691461D01*
X24773012Y5645706D01*
X24721501Y5634500D01*
X5758501Y5634500D01*
X5691462Y5654185D01*
X5645707Y5706989D01*
X5634501Y5758500D01*
X5634501Y7315200D01*
X14285459Y7315200D01*
X14304775Y7119071D01*
X14361988Y6930467D01*
X14454886Y6756668D01*
X14454890Y6756661D01*
X14579916Y6604317D01*
X14732260Y6479291D01*
X14732267Y6479287D01*
X14906066Y6386389D01*
X14906069Y6386389D01*
X14906073Y6386386D01*
X15094668Y6329176D01*
X15290800Y6309859D01*
X15486932Y6329176D01*
X15675527Y6386386D01*
X15849338Y6479290D01*
X16001683Y6604317D01*
X16126710Y6756662D01*
X16219614Y6930473D01*
X16276824Y7119068D01*
X16296141Y7315200D01*
X16276824Y7511332D01*
X16219614Y7699927D01*
X16219611Y7699931D01*
X16219611Y7699934D01*
X16126713Y7873733D01*
X16126709Y7873740D01*
X16001683Y8026084D01*
X15849339Y8151110D01*
X15849332Y8151114D01*
X15675533Y8244012D01*
X15675527Y8244014D01*
X15486932Y8301224D01*
X15486929Y8301225D01*
X15290800Y8320541D01*
X15094670Y8301225D01*
X14906066Y8244012D01*
X14732267Y8151114D01*
X14732260Y8151110D01*
X14579916Y8026084D01*
X14454890Y7873740D01*
X14454886Y7873733D01*
X14361988Y7699934D01*
X14304775Y7511330D01*
X14285459Y7315200D01*
X5634501Y7315200D01*
X5634501Y27684342D01*
X5899945Y27684342D01*
X8079562Y27684342D01*
X8079562Y36720665D01*
X5899945Y36720665D01*
X5899945Y27684342D01*
X5634501Y27684342D01*
X5634501Y36830006D01*
X12416844Y36830006D01*
X12416844Y36829995D01*
X12435434Y36605641D01*
X12435436Y36605629D01*
X12490703Y36387386D01*
X12581140Y36181208D01*
X12704276Y35992735D01*
X12704284Y35992724D01*
X12856756Y35827098D01*
X12856760Y35827094D01*
X13034424Y35688811D01*
X13034429Y35688809D01*
X13034431Y35688807D01*
X13070930Y35669054D01*
X13120520Y35619835D01*
X13135628Y35551618D01*
X13111457Y35486063D01*
X13070930Y35450946D01*
X13034431Y35431194D01*
X13034422Y35431188D01*
X12856761Y35292908D01*
X12856756Y35292903D01*
X12704284Y35127277D01*
X12704276Y35127266D01*
X12581140Y34938793D01*
X12490703Y34732615D01*
X12435436Y34514372D01*
X12435434Y34514360D01*
X12416844Y34290006D01*
X12416844Y34289995D01*
X12435434Y34065641D01*
X12435436Y34065629D01*
X12490703Y33847386D01*
X12581140Y33641208D01*
X12704276Y33452735D01*
X12704284Y33452724D01*
X12856756Y33287098D01*
X12856760Y33287094D01*
X13034424Y33148811D01*
X13034429Y33148809D01*
X13034431Y33148807D01*
X13070930Y33129054D01*
X13120520Y33079835D01*
X13135628Y33011618D01*
X13111457Y32946063D01*
X13070930Y32910946D01*
X13034431Y32891194D01*
X13034422Y32891188D01*
X12856761Y32752908D01*
X12856756Y32752903D01*
X12704284Y32587277D01*
X12704276Y32587266D01*
X12581140Y32398793D01*
X12490703Y32192615D01*
X12435436Y31974372D01*
X12435434Y31974360D01*
X12416844Y31750006D01*
X12416844Y31749995D01*
X12435434Y31525641D01*
X12435436Y31525629D01*
X12490703Y31307386D01*
X12581140Y31101208D01*
X12704276Y30912735D01*
X12704284Y30912724D01*
X12856756Y30747098D01*
X12856760Y30747094D01*
X13034424Y30608811D01*
X13034429Y30608809D01*
X13034431Y30608807D01*
X13070930Y30589054D01*
X13120520Y30539835D01*
X13135628Y30471618D01*
X13111457Y30406063D01*
X13070930Y30370946D01*
X13034431Y30351194D01*
X13034422Y30351188D01*
X12856761Y30212908D01*
X12856756Y30212903D01*
X12704284Y30047277D01*
X12704276Y30047266D01*
X12581140Y29858793D01*
X12490703Y29652615D01*
X12435436Y29434372D01*
X12435434Y29434360D01*
X12416844Y29210006D01*
X12416844Y29209995D01*
X12435434Y28985641D01*
X12435436Y28985629D01*
X12490703Y28767386D01*
X12581140Y28561208D01*
X12704276Y28372735D01*
X12704284Y28372724D01*
X12856756Y28207098D01*
X12856760Y28207094D01*
X13034424Y28068811D01*
X13034429Y28068809D01*
X13034431Y28068807D01*
X13070930Y28049054D01*
X13120520Y27999835D01*
X13135628Y27931618D01*
X13111457Y27866063D01*
X13070930Y27830946D01*
X13034431Y27811194D01*
X13034422Y27811188D01*
X12856761Y27672908D01*
X12856756Y27672903D01*
X12704284Y27507277D01*
X12704276Y27507266D01*
X12581140Y27318793D01*
X12490703Y27112615D01*
X12435436Y26894372D01*
X12435434Y26894360D01*
X12416844Y26670006D01*
X12416844Y26669995D01*
X12435434Y26445641D01*
X12435436Y26445629D01*
X12490703Y26227386D01*
X12581140Y26021208D01*
X12704276Y25832735D01*
X12704284Y25832724D01*
X12856756Y25667098D01*
X12856760Y25667094D01*
X13034424Y25528811D01*
X13034429Y25528809D01*
X13034431Y25528807D01*
X13070930Y25509054D01*
X13120520Y25459835D01*
X13135628Y25391618D01*
X13111457Y25326063D01*
X13070930Y25290946D01*
X13034431Y25271194D01*
X13034422Y25271188D01*
X12856761Y25132908D01*
X12856756Y25132903D01*
X12704284Y24967277D01*
X12704276Y24967266D01*
X12581140Y24778793D01*
X12490703Y24572615D01*
X12435436Y24354372D01*
X12435434Y24354360D01*
X12416844Y24130006D01*
X12416844Y24129995D01*
X12435434Y23905641D01*
X12435436Y23905629D01*
X12490703Y23687386D01*
X12581140Y23481208D01*
X12704276Y23292735D01*
X12704284Y23292724D01*
X12856756Y23127098D01*
X12856760Y23127094D01*
X13034424Y22988811D01*
X13034429Y22988809D01*
X13034431Y22988807D01*
X13070930Y22969054D01*
X13120520Y22919835D01*
X13135628Y22851618D01*
X13111457Y22786063D01*
X13070930Y22750946D01*
X13034431Y22731194D01*
X13034422Y22731188D01*
X12856761Y22592908D01*
X12856756Y22592903D01*
X12704284Y22427277D01*
X12704276Y22427266D01*
X12581140Y22238793D01*
X12490703Y22032615D01*
X12435436Y21814372D01*
X12435434Y21814360D01*
X12416844Y21590006D01*
X12416844Y21589995D01*
X12435434Y21365641D01*
X12435436Y21365629D01*
X12490703Y21147386D01*
X12581140Y20941208D01*
X12704276Y20752735D01*
X12704284Y20752724D01*
X12856756Y20587098D01*
X12856760Y20587094D01*
X13034424Y20448811D01*
X13034429Y20448809D01*
X13034431Y20448807D01*
X13070930Y20429054D01*
X13120520Y20379835D01*
X13135628Y20311618D01*
X13111457Y20246063D01*
X13070930Y20210946D01*
X13034431Y20191194D01*
X13034422Y20191188D01*
X12856761Y20052908D01*
X12856756Y20052903D01*
X12704284Y19887277D01*
X12704276Y19887266D01*
X12581140Y19698793D01*
X12490703Y19492615D01*
X12435436Y19274372D01*
X12435434Y19274360D01*
X12416844Y19050006D01*
X12416844Y19049995D01*
X12435434Y18825641D01*
X12435436Y18825629D01*
X12490703Y18607386D01*
X12581140Y18401208D01*
X12704276Y18212735D01*
X12704284Y18212724D01*
X12856756Y18047098D01*
X12856760Y18047094D01*
X13034424Y17908811D01*
X13034429Y17908809D01*
X13034431Y17908807D01*
X13070930Y17889054D01*
X13120520Y17839835D01*
X13135628Y17771618D01*
X13111457Y17706063D01*
X13070930Y17670946D01*
X13034431Y17651194D01*
X13034422Y17651188D01*
X12856761Y17512908D01*
X12856756Y17512903D01*
X12704284Y17347277D01*
X12704276Y17347266D01*
X12581140Y17158793D01*
X12490703Y16952615D01*
X12435436Y16734372D01*
X12435434Y16734360D01*
X12416844Y16510006D01*
X12416844Y16509995D01*
X12435434Y16285641D01*
X12435436Y16285629D01*
X12490703Y16067386D01*
X12581140Y15861208D01*
X12704276Y15672735D01*
X12704284Y15672724D01*
X12849488Y15514993D01*
X12856760Y15507094D01*
X13034424Y15368811D01*
X13034429Y15368809D01*
X13034431Y15368807D01*
X13070930Y15349054D01*
X13120520Y15299835D01*
X13135628Y15231618D01*
X13111457Y15166063D01*
X13070930Y15130946D01*
X13034431Y15111194D01*
X13034422Y15111188D01*
X12856761Y14972908D01*
X12856756Y14972903D01*
X12704284Y14807277D01*
X12704276Y14807266D01*
X12581140Y14618793D01*
X12490703Y14412615D01*
X12435436Y14194372D01*
X12435434Y14194360D01*
X12416844Y13970006D01*
X12416844Y13969995D01*
X12435434Y13745641D01*
X12435436Y13745629D01*
X12490703Y13527386D01*
X12581140Y13321208D01*
X12704276Y13132735D01*
X12704284Y13132724D01*
X12830967Y12995112D01*
X12856760Y12967094D01*
X13034424Y12828811D01*
X13034425Y12828811D01*
X13034427Y12828809D01*
X13161135Y12760239D01*
X13232426Y12721658D01*
X13445365Y12648556D01*
X13667431Y12611500D01*
X13892569Y12611500D01*
X14114635Y12648556D01*
X14327574Y12721658D01*
X14525576Y12828811D01*
X14703240Y12967094D01*
X14766452Y13035761D01*
X14826337Y13071750D01*
X14896175Y13069651D01*
X14953791Y13030127D01*
X14973861Y12995112D01*
X15019111Y12873796D01*
X15106739Y12756739D01*
X15223796Y12669111D01*
X15360799Y12618011D01*
X15388050Y12615082D01*
X15421345Y12611501D01*
X15421362Y12611500D01*
X17218638Y12611500D01*
X17218654Y12611501D01*
X17245692Y12614409D01*
X17279201Y12618011D01*
X17416204Y12669111D01*
X17533261Y12756739D01*
X17620889Y12873796D01*
X17671989Y13010799D01*
X17675591Y13044308D01*
X17678499Y13071346D01*
X17678500Y13071363D01*
X17678500Y14868638D01*
X17678499Y14868655D01*
X17674672Y14904241D01*
X17671989Y14929201D01*
X17620889Y15066204D01*
X17533261Y15183261D01*
X17416204Y15270889D01*
X17298404Y15314828D01*
X17242471Y15356700D01*
X17218055Y15422165D01*
X17232908Y15490438D01*
X17250504Y15514986D01*
X17395722Y15672732D01*
X17518860Y15861209D01*
X17609296Y16067384D01*
X17664564Y16285632D01*
X17683156Y16510000D01*
X17664564Y16734368D01*
X17609296Y16952616D01*
X17518860Y17158791D01*
X17502706Y17183516D01*
X17395723Y17347266D01*
X17395715Y17347277D01*
X17243243Y17512903D01*
X17243238Y17512908D01*
X17065577Y17651188D01*
X17065578Y17651188D01*
X17065576Y17651189D01*
X17029070Y17670945D01*
X16979479Y17720164D01*
X16964371Y17788381D01*
X16988541Y17853936D01*
X17029070Y17889055D01*
X17029084Y17889064D01*
X17065576Y17908811D01*
X17243240Y18047094D01*
X17395722Y18212732D01*
X17518860Y18401209D01*
X17609296Y18607384D01*
X17664564Y18825632D01*
X17683156Y19050000D01*
X17664564Y19274368D01*
X17609296Y19492616D01*
X17518860Y19698791D01*
X17502706Y19723516D01*
X17395723Y19887266D01*
X17395715Y19887277D01*
X17243243Y20052903D01*
X17243238Y20052908D01*
X17065577Y20191188D01*
X17065578Y20191188D01*
X17065576Y20191189D01*
X17029070Y20210945D01*
X16979479Y20260164D01*
X16964371Y20328381D01*
X16988541Y20393936D01*
X17029070Y20429055D01*
X17029084Y20429064D01*
X17065576Y20448811D01*
X17243240Y20587094D01*
X17395722Y20752732D01*
X17518860Y20941209D01*
X17609296Y21147384D01*
X17664564Y21365632D01*
X17683156Y21590000D01*
X17664564Y21814368D01*
X17609296Y22032616D01*
X17518860Y22238791D01*
X17502706Y22263516D01*
X17395723Y22427266D01*
X17395715Y22427277D01*
X17243243Y22592903D01*
X17243238Y22592908D01*
X17065577Y22731188D01*
X17065578Y22731188D01*
X17065576Y22731189D01*
X17029070Y22750945D01*
X16979479Y22800164D01*
X16964371Y22868381D01*
X16988541Y22933936D01*
X17029070Y22969055D01*
X17029084Y22969064D01*
X17065576Y22988811D01*
X17243240Y23127094D01*
X17395722Y23292732D01*
X17518860Y23481209D01*
X17609296Y23687384D01*
X17664564Y23905632D01*
X17683156Y24130000D01*
X17664564Y24354368D01*
X17609296Y24572616D01*
X17518860Y24778791D01*
X17502706Y24803516D01*
X17395723Y24967266D01*
X17395715Y24967277D01*
X17243243Y25132903D01*
X17243238Y25132908D01*
X17065577Y25271188D01*
X17065578Y25271188D01*
X17065576Y25271189D01*
X17029070Y25290945D01*
X16979479Y25340164D01*
X16964371Y25408381D01*
X16988541Y25473936D01*
X17029070Y25509055D01*
X17029084Y25509064D01*
X17065576Y25528811D01*
X17243240Y25667094D01*
X17395722Y25832732D01*
X17518860Y26021209D01*
X17609296Y26227384D01*
X17664564Y26445632D01*
X17683156Y26670000D01*
X17664564Y26894368D01*
X17609296Y27112616D01*
X17518860Y27318791D01*
X17502706Y27343516D01*
X17395723Y27507266D01*
X17395715Y27507277D01*
X17243243Y27672903D01*
X17243238Y27672908D01*
X17065577Y27811188D01*
X17065578Y27811188D01*
X17065576Y27811189D01*
X17029070Y27830945D01*
X16979479Y27880164D01*
X16964371Y27948381D01*
X16988541Y28013936D01*
X17029070Y28049055D01*
X17029084Y28049064D01*
X17065576Y28068811D01*
X17243240Y28207094D01*
X17395722Y28372732D01*
X17518860Y28561209D01*
X17609296Y28767384D01*
X17664564Y28985632D01*
X17683156Y29210000D01*
X17664564Y29434368D01*
X17609296Y29652616D01*
X17518860Y29858791D01*
X17502706Y29883516D01*
X17395723Y30047266D01*
X17395715Y30047277D01*
X17243243Y30212903D01*
X17243238Y30212908D01*
X17065577Y30351188D01*
X17065578Y30351188D01*
X17065576Y30351189D01*
X17029070Y30370945D01*
X16979479Y30420164D01*
X16964371Y30488381D01*
X16988541Y30553936D01*
X17029070Y30589055D01*
X17029084Y30589064D01*
X17065576Y30608811D01*
X17243240Y30747094D01*
X17395722Y30912732D01*
X17518860Y31101209D01*
X17609296Y31307384D01*
X17664564Y31525632D01*
X17683156Y31750000D01*
X17664564Y31974368D01*
X17609296Y32192616D01*
X17518860Y32398791D01*
X17502706Y32423516D01*
X17395723Y32587266D01*
X17395715Y32587277D01*
X17243243Y32752903D01*
X17243238Y32752908D01*
X17065577Y32891188D01*
X17065578Y32891188D01*
X17065576Y32891189D01*
X17029070Y32910945D01*
X16979479Y32960164D01*
X16964371Y33028381D01*
X16988541Y33093936D01*
X17029070Y33129055D01*
X17029084Y33129064D01*
X17065576Y33148811D01*
X17243240Y33287094D01*
X17395722Y33452732D01*
X17518860Y33641209D01*
X17609296Y33847384D01*
X17664564Y34065632D01*
X17683156Y34290000D01*
X17664564Y34514368D01*
X17609296Y34732616D01*
X17518860Y34938791D01*
X17502706Y34963516D01*
X17395723Y35127266D01*
X17395715Y35127277D01*
X17243243Y35292903D01*
X17243238Y35292908D01*
X17065577Y35431188D01*
X17065578Y35431188D01*
X17065576Y35431189D01*
X17029070Y35450945D01*
X16979479Y35500164D01*
X16964371Y35568381D01*
X16988541Y35633936D01*
X17029070Y35669055D01*
X17029084Y35669064D01*
X17065576Y35688811D01*
X17243240Y35827094D01*
X17395722Y35992732D01*
X17518860Y36181209D01*
X17609296Y36387384D01*
X17664564Y36605632D01*
X17683156Y36830000D01*
X17664564Y37054368D01*
X17609296Y37272616D01*
X17518860Y37478791D01*
X17502706Y37503516D01*
X17395723Y37667266D01*
X17395715Y37667277D01*
X17243243Y37832903D01*
X17243238Y37832908D01*
X17065577Y37971188D01*
X17065572Y37971192D01*
X16867580Y38078339D01*
X16867577Y38078341D01*
X16867574Y38078342D01*
X16867571Y38078343D01*
X16867569Y38078344D01*
X16654637Y38151444D01*
X16432569Y38188500D01*
X16207431Y38188500D01*
X15985362Y38151444D01*
X15772430Y38078344D01*
X15772419Y38078339D01*
X15574427Y37971192D01*
X15574422Y37971188D01*
X15396761Y37832908D01*
X15396756Y37832903D01*
X15244284Y37667277D01*
X15244276Y37667266D01*
X15153808Y37528794D01*
X15100662Y37483438D01*
X15031431Y37474014D01*
X14968095Y37503516D01*
X14946192Y37528794D01*
X14855723Y37667266D01*
X14855715Y37667277D01*
X14703243Y37832903D01*
X14703238Y37832908D01*
X14525577Y37971188D01*
X14525572Y37971192D01*
X14327580Y38078339D01*
X14327577Y38078341D01*
X14327574Y38078342D01*
X14327571Y38078343D01*
X14327569Y38078344D01*
X14114637Y38151444D01*
X13892569Y38188500D01*
X13667431Y38188500D01*
X13445362Y38151444D01*
X13232430Y38078344D01*
X13232419Y38078339D01*
X13034427Y37971192D01*
X13034422Y37971188D01*
X12856761Y37832908D01*
X12856756Y37832903D01*
X12704284Y37667277D01*
X12704276Y37667266D01*
X12581140Y37478793D01*
X12490703Y37272615D01*
X12435436Y37054372D01*
X12435434Y37054360D01*
X12416844Y36830006D01*
X5634501Y36830006D01*
X5634501Y43326400D01*
X14234659Y43326400D01*
X14253975Y43130271D01*
X14311188Y42941667D01*
X14404086Y42767868D01*
X14404090Y42767861D01*
X14529116Y42615517D01*
X14681460Y42490491D01*
X14681467Y42490487D01*
X14855266Y42397589D01*
X14855269Y42397589D01*
X14855273Y42397586D01*
X15043868Y42340376D01*
X15240000Y42321059D01*
X15436132Y42340376D01*
X15624727Y42397586D01*
X15798538Y42490490D01*
X15950883Y42615517D01*
X16075910Y42767862D01*
X16168814Y42941673D01*
X16226024Y43130268D01*
X16245341Y43326400D01*
X16226024Y43522532D01*
X16168814Y43711127D01*
X16168811Y43711131D01*
X16168811Y43711134D01*
X16075913Y43884933D01*
X16075909Y43884940D01*
X15950883Y44037284D01*
X15798539Y44162310D01*
X15798532Y44162314D01*
X15624733Y44255212D01*
X15624727Y44255214D01*
X15436132Y44312424D01*
X15436129Y44312425D01*
X15240000Y44331741D01*
X15043870Y44312425D01*
X14855266Y44255212D01*
X14681467Y44162314D01*
X14681460Y44162310D01*
X14529116Y44037284D01*
X14404090Y43884940D01*
X14404086Y43884933D01*
X14311188Y43711134D01*
X14253975Y43522530D01*
X14234659Y43326400D01*
X5634501Y43326400D01*
X5634501Y45041500D01*
X5654186Y45108539D01*
X5706990Y45154294D01*
X5758501Y45165500D01*
X24721501Y45165500D01*
X24788540Y45145815D01*
G37*
%TD.AperFunction*%
%TD*%
M02*
