%TF.GenerationSoftware,KiCad,Pcbnew,8.0.6+1*%
%TF.CreationDate,2024-11-07T23:08:08+00:00*%
%TF.ProjectId,GHxPIN01,47487850-494e-4303-912e-6b696361645f,rev?*%
%TF.SameCoordinates,Original*%
%TF.FileFunction,Copper,L1,Top*%
%TF.FilePolarity,Positive*%
%FSLAX46Y46*%
G04 Gerber Fmt 4.6, Leading zero omitted, Abs format (unit mm)*
G04 Created by KiCad (PCBNEW 8.0.6+1) date 2024-11-07 23:08:08*
%MOMM*%
%LPD*%
G01*
G04 APERTURE LIST*
G04 Aperture macros list*
%AMRoundRect*
0 Rectangle with rounded corners*
0 $1 Rounding radius*
0 $2 $3 $4 $5 $6 $7 $8 $9 X,Y pos of 4 corners*
0 Add a 4 corners polygon primitive as box body*
4,1,4,$2,$3,$4,$5,$6,$7,$8,$9,$2,$3,0*
0 Add four circle primitives for the rounded corners*
1,1,$1+$1,$2,$3*
1,1,$1+$1,$4,$5*
1,1,$1+$1,$6,$7*
1,1,$1+$1,$8,$9*
0 Add four rect primitives between the rounded corners*
20,1,$1+$1,$2,$3,$4,$5,0*
20,1,$1+$1,$4,$5,$6,$7,0*
20,1,$1+$1,$6,$7,$8,$9,0*
20,1,$1+$1,$8,$9,$2,$3,0*%
G04 Aperture macros list end*
%ADD10C,0.150000*%
%TA.AperFunction,NonConductor*%
%ADD11C,0.150000*%
%TD*%
%TA.AperFunction,ComponentPad*%
%ADD12C,6.000000*%
%TD*%
%TA.AperFunction,ComponentPad*%
%ADD13R,1.700000X1.700000*%
%TD*%
%TA.AperFunction,ComponentPad*%
%ADD14O,1.700000X1.700000*%
%TD*%
%TA.AperFunction,SMDPad,CuDef*%
%ADD15RoundRect,0.150000X0.700000X-0.150000X0.700000X0.150000X-0.700000X0.150000X-0.700000X-0.150000X0*%
%TD*%
%TA.AperFunction,SMDPad,CuDef*%
%ADD16RoundRect,0.250000X1.100000X-0.250000X1.100000X0.250000X-1.100000X0.250000X-1.100000X-0.250000X0*%
%TD*%
%TA.AperFunction,Conductor*%
%ADD17C,0.450000*%
%TD*%
G04 APERTURE END LIST*
D10*
D11*
X15668619Y38131980D02*
X14668619Y38131980D01*
X14668619Y38131980D02*
X15382904Y38465313D01*
X15382904Y38465313D02*
X14668619Y38798646D01*
X14668619Y38798646D02*
X15668619Y38798646D01*
X15668619Y39751027D02*
X15668619Y39274837D01*
X15668619Y39274837D02*
X14668619Y39274837D01*
X15382904Y40036742D02*
X15382904Y40512932D01*
X15668619Y39941504D02*
X14668619Y40274837D01*
X14668619Y40274837D02*
X15668619Y40608170D01*
X15144809Y41274837D02*
X15192428Y41417694D01*
X15192428Y41417694D02*
X15240047Y41465313D01*
X15240047Y41465313D02*
X15335285Y41512932D01*
X15335285Y41512932D02*
X15478142Y41512932D01*
X15478142Y41512932D02*
X15573380Y41465313D01*
X15573380Y41465313D02*
X15621000Y41417694D01*
X15621000Y41417694D02*
X15668619Y41322456D01*
X15668619Y41322456D02*
X15668619Y40941504D01*
X15668619Y40941504D02*
X14668619Y40941504D01*
X14668619Y40941504D02*
X14668619Y41274837D01*
X14668619Y41274837D02*
X14716238Y41370075D01*
X14716238Y41370075D02*
X14763857Y41417694D01*
X14763857Y41417694D02*
X14859095Y41465313D01*
X14859095Y41465313D02*
X14954333Y41465313D01*
X14954333Y41465313D02*
X15049571Y41417694D01*
X15049571Y41417694D02*
X15097190Y41370075D01*
X15097190Y41370075D02*
X15144809Y41274837D01*
X15144809Y41274837D02*
X15144809Y40941504D01*
X15573380Y41941504D02*
X15621000Y41989123D01*
X15621000Y41989123D02*
X15668619Y41941504D01*
X15668619Y41941504D02*
X15621000Y41893885D01*
X15621000Y41893885D02*
X15573380Y41941504D01*
X15573380Y41941504D02*
X15668619Y41941504D01*
X15621000Y42846265D02*
X15668619Y42751027D01*
X15668619Y42751027D02*
X15668619Y42560551D01*
X15668619Y42560551D02*
X15621000Y42465313D01*
X15621000Y42465313D02*
X15573380Y42417694D01*
X15573380Y42417694D02*
X15478142Y42370075D01*
X15478142Y42370075D02*
X15192428Y42370075D01*
X15192428Y42370075D02*
X15097190Y42417694D01*
X15097190Y42417694D02*
X15049571Y42465313D01*
X15049571Y42465313D02*
X15001952Y42560551D01*
X15001952Y42560551D02*
X15001952Y42751027D01*
X15001952Y42751027D02*
X15049571Y42846265D01*
X15001952Y43179599D02*
X15001952Y43703408D01*
X15001952Y43703408D02*
X15668619Y43179599D01*
X15668619Y43179599D02*
X15668619Y43703408D01*
D12*
%TO.P,M2,1*%
%TO.N,GND*%
X20320001Y40640000D03*
%TD*%
%TO.P,M4,1*%
%TO.N,GND*%
X20320001Y10160000D03*
%TD*%
%TO.P,M3,1*%
%TO.N,GND*%
X10160001Y10160000D03*
%TD*%
D13*
%TO.P,J7,1*%
%TO.N,Net-(J6-Pad1)*%
X16320000Y13970000D03*
D14*
%TO.P,J7,2*%
X13780000Y13970000D03*
%TO.P,J7,3*%
%TO.N,Net-(J6-Pad2)*%
X16320000Y16510000D03*
%TO.P,J7,4*%
X13780000Y16510000D03*
%TO.P,J7,5*%
%TO.N,Net-(J6-Pad3)*%
X16320000Y19050000D03*
%TO.P,J7,6*%
X13780000Y19050000D03*
%TO.P,J7,7*%
%TO.N,Net-(J6-Pad4)*%
X16320000Y21590000D03*
%TO.P,J7,8*%
X13780000Y21590000D03*
%TO.P,J7,9*%
%TO.N,Net-(J6-Pad5)*%
X16320000Y24130000D03*
%TO.P,J7,10*%
X13780000Y24130000D03*
%TO.P,J7,11*%
%TO.N,Net-(J6-Pad6)*%
X16320000Y26670000D03*
%TO.P,J7,12*%
X13780000Y26670000D03*
%TO.P,J7,13*%
%TO.N,Net-(J6-Pad7)*%
X16320000Y29210000D03*
%TO.P,J7,14*%
X13780000Y29210000D03*
%TO.P,J7,15*%
%TO.N,Net-(J6-Pad8)*%
X16320000Y31750000D03*
%TO.P,J7,16*%
X13780000Y31750000D03*
%TO.P,J7,17*%
%TO.N,Net-(J6-Pad9)*%
X16320000Y34290000D03*
%TO.P,J7,18*%
X13780000Y34290000D03*
%TO.P,J7,19*%
%TO.N,Net-(J6-Pad10)*%
X16320000Y36830000D03*
%TO.P,J7,20*%
X13780000Y36830000D03*
%TD*%
D12*
%TO.P,M1,1*%
%TO.N,GND*%
X10160001Y40640000D03*
%TD*%
D15*
%TO.P,J6,1*%
%TO.N,Net-(J6-Pad1)*%
X20600000Y19770000D03*
%TO.P,J6,2*%
%TO.N,Net-(J6-Pad2)*%
X20600000Y21020000D03*
%TO.P,J6,3*%
%TO.N,Net-(J6-Pad3)*%
X20600000Y22270000D03*
%TO.P,J6,4*%
%TO.N,Net-(J6-Pad4)*%
X20600000Y23520000D03*
%TO.P,J6,5*%
%TO.N,Net-(J6-Pad5)*%
X20600000Y24770000D03*
%TO.P,J6,6*%
%TO.N,Net-(J6-Pad6)*%
X20600000Y26020000D03*
%TO.P,J6,7*%
%TO.N,Net-(J6-Pad7)*%
X20600000Y27270000D03*
%TO.P,J6,8*%
%TO.N,Net-(J6-Pad8)*%
X20600000Y28520000D03*
%TO.P,J6,9*%
%TO.N,Net-(J6-Pad9)*%
X20600000Y29770000D03*
%TO.P,J6,10*%
%TO.N,Net-(J6-Pad10)*%
X20600000Y31020000D03*
D16*
%TO.P,J6,MP*%
%TO.N,GND*%
X23800000Y17920000D03*
X23800000Y32870000D03*
%TD*%
D17*
%TO.N,Net-(J6-Pad6)*%
X16970000Y26020000D02*
X16320000Y26670000D01*
X20600000Y26020000D02*
X16970000Y26020000D01*
X16320000Y26670000D02*
X13780000Y26670000D01*
%TO.N,Net-(J6-Pad2)*%
X20600000Y21020000D02*
X19760000Y21020000D01*
X18310000Y17060000D02*
X17730000Y16480000D01*
X17700000Y16510000D02*
X13780000Y16510000D01*
X19760000Y21020000D02*
X18310000Y19570000D01*
X17730000Y16480000D02*
X17700000Y16510000D01*
X18310000Y19570000D02*
X18310000Y17060000D01*
%TO.N,Net-(J6-Pad1)*%
X17600000Y13970000D02*
X13780000Y13970000D01*
X20600000Y19770000D02*
X20600000Y16970000D01*
X20600000Y16970000D02*
X17600000Y13970000D01*
%TO.N,Net-(J6-Pad9)*%
X18300000Y33660000D02*
X17670000Y34290000D01*
X16320000Y34290000D02*
X13780000Y34290000D01*
X19750001Y29770000D02*
X18300000Y31220001D01*
X17670000Y34290000D02*
X16320000Y34290000D01*
X20600000Y29770000D02*
X19750001Y29770000D01*
X18300000Y31220001D02*
X18300000Y33660000D01*
%TO.N,Net-(J6-Pad3)*%
X19400000Y22270000D02*
X16320000Y19190000D01*
X16320000Y19050000D02*
X13780000Y19050000D01*
X20600000Y22270000D02*
X19400000Y22270000D01*
X16320000Y19190000D02*
X16320000Y19050000D01*
%TO.N,Net-(J6-Pad5)*%
X16960000Y24770000D02*
X16320000Y24130000D01*
X20600000Y24770000D02*
X16960000Y24770000D01*
X13780000Y24130000D02*
X16320000Y24130000D01*
%TO.N,Net-(J6-Pad7)*%
X18370000Y27270000D02*
X16430000Y29210000D01*
X16430000Y29210000D02*
X13780000Y29210000D01*
X20600000Y27270000D02*
X18370000Y27270000D01*
%TO.N,Net-(J6-Pad8)*%
X20600000Y28520000D02*
X19510000Y28520000D01*
X16280000Y31750000D02*
X13780000Y31750000D01*
X19510000Y28520000D02*
X16280000Y31750000D01*
%TO.N,Net-(J6-Pad10)*%
X17370000Y36830000D02*
X13780000Y36830000D01*
X20600000Y33600000D02*
X17370000Y36830000D01*
X20600000Y31020000D02*
X20600000Y33600000D01*
%TO.N,Net-(J6-Pad4)*%
X16320000Y21590000D02*
X13780000Y21590000D01*
X18250000Y23520000D02*
X16320000Y21590000D01*
X20600000Y23520000D02*
X18250000Y23520000D01*
%TD*%
%TA.AperFunction,Conductor*%
%TO.N,GND*%
G36*
X24845501Y15861217D02*
G01*
X21380000Y15890000D01*
X21383437Y18944157D01*
X21405989Y18963698D01*
X21422890Y18969976D01*
X21563601Y19010855D01*
X21706807Y19095547D01*
X21824453Y19213193D01*
X21909145Y19356399D01*
X21955562Y19516169D01*
X21958500Y19553498D01*
X21958500Y19986502D01*
X21955562Y20023831D01*
X21909145Y20183601D01*
X21824453Y20326807D01*
X21824451Y20326809D01*
X21821453Y20331879D01*
X21804270Y20399603D01*
X21821453Y20458121D01*
X21877222Y20552421D01*
X21909145Y20606399D01*
X21955562Y20766169D01*
X21958500Y20803498D01*
X21958500Y21236502D01*
X21955562Y21273831D01*
X21909145Y21433601D01*
X21824453Y21576807D01*
X21824451Y21576809D01*
X21821453Y21581879D01*
X21804270Y21649603D01*
X21821453Y21708121D01*
X21877222Y21802421D01*
X21909145Y21856399D01*
X21955562Y22016169D01*
X21958500Y22053498D01*
X21958500Y22486502D01*
X21955562Y22523831D01*
X21909145Y22683601D01*
X21824453Y22826807D01*
X21824451Y22826809D01*
X21821453Y22831879D01*
X21804270Y22899603D01*
X21821453Y22958121D01*
X21877222Y23052421D01*
X21909145Y23106399D01*
X21955562Y23266169D01*
X21958500Y23303498D01*
X21958500Y23736502D01*
X21955562Y23773831D01*
X21909145Y23933601D01*
X21824453Y24076807D01*
X21824451Y24076809D01*
X21821453Y24081879D01*
X21804270Y24149603D01*
X21821453Y24208121D01*
X21877222Y24302421D01*
X21909145Y24356399D01*
X21955562Y24516169D01*
X21958500Y24553498D01*
X21958500Y24986502D01*
X21955562Y25023831D01*
X21909145Y25183601D01*
X21824453Y25326807D01*
X21824451Y25326809D01*
X21821453Y25331879D01*
X21804270Y25399603D01*
X21821453Y25458121D01*
X21877222Y25552421D01*
X21909145Y25606399D01*
X21955562Y25766169D01*
X21958500Y25803498D01*
X21958500Y26236502D01*
X21955562Y26273831D01*
X21909145Y26433601D01*
X21824453Y26576807D01*
X21824451Y26576809D01*
X21821453Y26581879D01*
X21804270Y26649603D01*
X21821453Y26708121D01*
X21831620Y26725312D01*
X21909145Y26856399D01*
X21955562Y27016169D01*
X21958500Y27053498D01*
X21958500Y27486502D01*
X21955562Y27523831D01*
X21909145Y27683601D01*
X21824453Y27826807D01*
X21824451Y27826809D01*
X21821453Y27831879D01*
X21804270Y27899603D01*
X21821453Y27958121D01*
X21831620Y27975312D01*
X21909145Y28106399D01*
X21955562Y28266169D01*
X21958500Y28303498D01*
X21958500Y28736502D01*
X21955562Y28773831D01*
X21909145Y28933601D01*
X21824453Y29076807D01*
X21824451Y29076809D01*
X21821453Y29081879D01*
X21804270Y29149603D01*
X21821453Y29208121D01*
X21824453Y29213193D01*
X21909145Y29356399D01*
X21955562Y29516169D01*
X21958500Y29553498D01*
X21958500Y29986502D01*
X21955562Y30023831D01*
X21909145Y30183601D01*
X21824453Y30326807D01*
X21824451Y30326809D01*
X21821453Y30331879D01*
X21804270Y30399603D01*
X21821453Y30458121D01*
X21824453Y30463193D01*
X21909145Y30606399D01*
X21955562Y30766169D01*
X21958500Y30803498D01*
X21958500Y31236502D01*
X21955562Y31273831D01*
X21909145Y31433601D01*
X21824453Y31576807D01*
X21824451Y31576809D01*
X21824448Y31576813D01*
X21706812Y31694449D01*
X21706803Y31694456D01*
X21563601Y31779145D01*
X21563596Y31779147D01*
X21422905Y31820021D01*
X21397947Y31835961D01*
X21400000Y33660000D01*
X24845501Y33671242D01*
X24845501Y15861217D01*
G37*
%TD.AperFunction*%
%TD*%
%TA.AperFunction,Conductor*%
%TO.N,GND*%
G36*
X24788540Y45145815D02*
G01*
X24834295Y45093011D01*
X24845501Y45041500D01*
X24845501Y33994000D01*
X24825816Y33926961D01*
X24773012Y33881206D01*
X24721501Y33870000D01*
X24050000Y33870000D01*
X24050000Y33668647D01*
X23550000Y33667015D01*
X23550000Y33870000D01*
X22650028Y33870000D01*
X22650012Y33869999D01*
X22547302Y33859506D01*
X22380880Y33804359D01*
X22380875Y33804357D01*
X22231654Y33712316D01*
X22181889Y33662552D01*
X21400000Y33660000D01*
X21397947Y31835961D01*
X21364020Y31857627D01*
X21334813Y31921099D01*
X21333500Y31939097D01*
X21333500Y33672244D01*
X21333499Y33672248D01*
X21307221Y33804357D01*
X21305312Y33813954D01*
X21250019Y33947442D01*
X21250018Y33947444D01*
X21250018Y33947445D01*
X21169748Y34067578D01*
X21169742Y34067585D01*
X21064483Y34172844D01*
X21064452Y34172873D01*
X17944087Y37293238D01*
X17944067Y37293260D01*
X17837581Y37399746D01*
X17819454Y37411858D01*
X17765562Y37447867D01*
X17765560Y37447868D01*
X17765560Y37447869D01*
X17717448Y37480016D01*
X17717444Y37480018D01*
X17717445Y37480018D01*
X17717443Y37480019D01*
X17678344Y37496214D01*
X17678342Y37496215D01*
X17678341Y37496216D01*
X17583954Y37535312D01*
X17583948Y37535314D01*
X17517807Y37548470D01*
X17455896Y37580855D01*
X17438190Y37602266D01*
X17395721Y37667270D01*
X17243243Y37832903D01*
X17243238Y37832908D01*
X17065577Y37971188D01*
X17065572Y37971192D01*
X16867580Y38078339D01*
X16867577Y38078341D01*
X16867574Y38078342D01*
X16867571Y38078343D01*
X16867569Y38078344D01*
X16654637Y38151444D01*
X16432569Y38188500D01*
X16382326Y38188500D01*
X16315287Y38208185D01*
X16269532Y38260989D01*
X16258326Y38312500D01*
X16258326Y44293115D01*
X14079263Y44293115D01*
X14079263Y38303754D01*
X14059578Y38236715D01*
X14006774Y38190960D01*
X13937616Y38181016D01*
X13934856Y38181445D01*
X13892572Y38188500D01*
X13892569Y38188500D01*
X13667431Y38188500D01*
X13445362Y38151444D01*
X13232430Y38078344D01*
X13232419Y38078339D01*
X13034427Y37971192D01*
X13034422Y37971188D01*
X12856761Y37832908D01*
X12856756Y37832903D01*
X12704284Y37667277D01*
X12704276Y37667266D01*
X12581140Y37478793D01*
X12490703Y37272615D01*
X12435436Y37054372D01*
X12435434Y37054360D01*
X12416844Y36830006D01*
X12416844Y36829995D01*
X12435434Y36605641D01*
X12435436Y36605629D01*
X12490703Y36387386D01*
X12581140Y36181208D01*
X12704276Y35992735D01*
X12704284Y35992724D01*
X12856756Y35827098D01*
X12856761Y35827093D01*
X12875731Y35812328D01*
X13034424Y35688811D01*
X13034429Y35688809D01*
X13034431Y35688807D01*
X13070930Y35669054D01*
X13120520Y35619835D01*
X13135628Y35551618D01*
X13111457Y35486063D01*
X13070930Y35450946D01*
X13034431Y35431194D01*
X13034422Y35431188D01*
X12856761Y35292908D01*
X12856756Y35292903D01*
X12704284Y35127277D01*
X12704276Y35127266D01*
X12581140Y34938793D01*
X12490703Y34732615D01*
X12435436Y34514372D01*
X12435434Y34514360D01*
X12416844Y34290006D01*
X12416844Y34289995D01*
X12435434Y34065641D01*
X12435436Y34065629D01*
X12490703Y33847386D01*
X12581140Y33641208D01*
X12704276Y33452735D01*
X12704284Y33452724D01*
X12856756Y33287098D01*
X12856761Y33287093D01*
X12911082Y33244813D01*
X13034424Y33148811D01*
X13034429Y33148809D01*
X13034431Y33148807D01*
X13070930Y33129054D01*
X13120520Y33079835D01*
X13135628Y33011618D01*
X13111457Y32946063D01*
X13070930Y32910946D01*
X13034431Y32891194D01*
X13034422Y32891188D01*
X12856761Y32752908D01*
X12856756Y32752903D01*
X12704284Y32587277D01*
X12704276Y32587266D01*
X12581140Y32398793D01*
X12490703Y32192615D01*
X12435436Y31974372D01*
X12435434Y31974360D01*
X12416844Y31750006D01*
X12416844Y31749995D01*
X12435434Y31525641D01*
X12435436Y31525629D01*
X12490703Y31307386D01*
X12581140Y31101208D01*
X12704276Y30912735D01*
X12704284Y30912724D01*
X12856756Y30747098D01*
X12856760Y30747094D01*
X13034424Y30608811D01*
X13034429Y30608809D01*
X13034431Y30608807D01*
X13070930Y30589054D01*
X13120520Y30539835D01*
X13135628Y30471618D01*
X13111457Y30406063D01*
X13070930Y30370946D01*
X13034431Y30351194D01*
X13034422Y30351188D01*
X12856761Y30212908D01*
X12856756Y30212903D01*
X12704284Y30047277D01*
X12704276Y30047266D01*
X12581140Y29858793D01*
X12490703Y29652615D01*
X12435436Y29434372D01*
X12435434Y29434360D01*
X12416844Y29210006D01*
X12416844Y29209995D01*
X12435434Y28985641D01*
X12435436Y28985629D01*
X12490703Y28767386D01*
X12581140Y28561208D01*
X12704276Y28372735D01*
X12704284Y28372724D01*
X12856756Y28207098D01*
X12856760Y28207094D01*
X13034424Y28068811D01*
X13034429Y28068809D01*
X13034431Y28068807D01*
X13070930Y28049054D01*
X13120520Y27999835D01*
X13135628Y27931618D01*
X13111457Y27866063D01*
X13070930Y27830946D01*
X13034431Y27811194D01*
X13034422Y27811188D01*
X12856761Y27672908D01*
X12856756Y27672903D01*
X12704284Y27507277D01*
X12704276Y27507266D01*
X12581140Y27318793D01*
X12490703Y27112615D01*
X12435436Y26894372D01*
X12435434Y26894360D01*
X12416844Y26670006D01*
X12416844Y26669995D01*
X12435434Y26445641D01*
X12435436Y26445629D01*
X12490703Y26227386D01*
X12581140Y26021208D01*
X12704276Y25832735D01*
X12704284Y25832724D01*
X12856756Y25667098D01*
X12856760Y25667094D01*
X13034424Y25528811D01*
X13034429Y25528809D01*
X13034431Y25528807D01*
X13070930Y25509054D01*
X13120520Y25459835D01*
X13135628Y25391618D01*
X13111457Y25326063D01*
X13070930Y25290946D01*
X13034431Y25271194D01*
X13034422Y25271188D01*
X12856761Y25132908D01*
X12856756Y25132903D01*
X12704284Y24967277D01*
X12704276Y24967266D01*
X12581140Y24778793D01*
X12490703Y24572615D01*
X12435436Y24354372D01*
X12435434Y24354360D01*
X12416844Y24130006D01*
X12416844Y24129995D01*
X12435434Y23905641D01*
X12435436Y23905629D01*
X12490703Y23687386D01*
X12581140Y23481208D01*
X12704276Y23292735D01*
X12704284Y23292724D01*
X12856756Y23127098D01*
X12856761Y23127093D01*
X12915981Y23081000D01*
X13034424Y22988811D01*
X13034429Y22988809D01*
X13034431Y22988807D01*
X13070930Y22969054D01*
X13120520Y22919835D01*
X13135628Y22851618D01*
X13111457Y22786063D01*
X13070930Y22750946D01*
X13034431Y22731194D01*
X13034422Y22731188D01*
X12856761Y22592908D01*
X12856756Y22592903D01*
X12704284Y22427277D01*
X12704276Y22427266D01*
X12581140Y22238793D01*
X12490703Y22032615D01*
X12435436Y21814372D01*
X12435434Y21814360D01*
X12416844Y21590006D01*
X12416844Y21589995D01*
X12435434Y21365641D01*
X12435436Y21365629D01*
X12490703Y21147386D01*
X12581140Y20941208D01*
X12704276Y20752735D01*
X12704284Y20752724D01*
X12838988Y20606399D01*
X12856760Y20587094D01*
X13034424Y20448811D01*
X13034429Y20448809D01*
X13034431Y20448807D01*
X13070930Y20429054D01*
X13120520Y20379835D01*
X13135628Y20311618D01*
X13111457Y20246063D01*
X13070930Y20210946D01*
X13034431Y20191194D01*
X13034422Y20191188D01*
X12856761Y20052908D01*
X12856756Y20052903D01*
X12704284Y19887277D01*
X12704276Y19887266D01*
X12581140Y19698793D01*
X12490703Y19492615D01*
X12435436Y19274372D01*
X12435434Y19274360D01*
X12416844Y19050006D01*
X12416844Y19049995D01*
X12435434Y18825641D01*
X12435436Y18825629D01*
X12490703Y18607386D01*
X12581140Y18401208D01*
X12704276Y18212735D01*
X12704284Y18212724D01*
X12816042Y18091325D01*
X12856760Y18047094D01*
X13034424Y17908811D01*
X13034429Y17908809D01*
X13034431Y17908807D01*
X13070930Y17889054D01*
X13120520Y17839835D01*
X13135628Y17771618D01*
X13111457Y17706063D01*
X13070930Y17670946D01*
X13034431Y17651194D01*
X13034422Y17651188D01*
X12856761Y17512908D01*
X12856756Y17512903D01*
X12704284Y17347277D01*
X12704276Y17347266D01*
X12581140Y17158793D01*
X12490703Y16952615D01*
X12435436Y16734372D01*
X12435434Y16734360D01*
X12416844Y16510006D01*
X12416844Y16509995D01*
X12435434Y16285641D01*
X12435436Y16285629D01*
X12490703Y16067386D01*
X12581140Y15861208D01*
X12704276Y15672735D01*
X12704284Y15672724D01*
X12849488Y15514993D01*
X12856760Y15507094D01*
X13034424Y15368811D01*
X13034429Y15368809D01*
X13034431Y15368807D01*
X13070930Y15349054D01*
X13120520Y15299835D01*
X13135628Y15231618D01*
X13111457Y15166063D01*
X13070930Y15130946D01*
X13034431Y15111194D01*
X13034422Y15111188D01*
X12856761Y14972908D01*
X12856756Y14972903D01*
X12704284Y14807277D01*
X12704276Y14807266D01*
X12581140Y14618793D01*
X12490703Y14412615D01*
X12435436Y14194372D01*
X12435434Y14194360D01*
X12416844Y13970006D01*
X12416844Y13969995D01*
X12435434Y13745641D01*
X12435436Y13745629D01*
X12490703Y13527386D01*
X12581140Y13321208D01*
X12704276Y13132735D01*
X12704284Y13132724D01*
X12830967Y12995112D01*
X12856760Y12967094D01*
X13034424Y12828811D01*
X13034425Y12828811D01*
X13034427Y12828809D01*
X13161135Y12760239D01*
X13232426Y12721658D01*
X13445365Y12648556D01*
X13667431Y12611500D01*
X13892569Y12611500D01*
X14114635Y12648556D01*
X14327574Y12721658D01*
X14525576Y12828811D01*
X14703240Y12967094D01*
X14766452Y13035761D01*
X14826337Y13071750D01*
X14896175Y13069651D01*
X14953791Y13030127D01*
X14973861Y12995112D01*
X15019111Y12873796D01*
X15106739Y12756739D01*
X15223796Y12669111D01*
X15360799Y12618011D01*
X15388050Y12615082D01*
X15421345Y12611501D01*
X15421362Y12611500D01*
X17218638Y12611500D01*
X17218654Y12611501D01*
X17245692Y12614409D01*
X17279201Y12618011D01*
X17416204Y12669111D01*
X17533261Y12756739D01*
X17620889Y12873796D01*
X17671989Y13010799D01*
X17675591Y13044308D01*
X17678499Y13071346D01*
X17678500Y13071363D01*
X17678500Y13135981D01*
X17698185Y13203020D01*
X17750989Y13248775D01*
X17778304Y13257598D01*
X17813954Y13264688D01*
X17908344Y13303787D01*
X17947443Y13319981D01*
X17995562Y13352134D01*
X18067579Y13400253D01*
X18169747Y13502421D01*
X18169747Y13502423D01*
X18179951Y13512626D01*
X18179954Y13512631D01*
X21169747Y16502421D01*
X21218519Y16575414D01*
X21250018Y16622556D01*
X21250018Y16622557D01*
X21250019Y16622558D01*
X21305312Y16756046D01*
X21333500Y16897757D01*
X21333500Y17042244D01*
X21333500Y18850904D01*
X21353185Y18917943D01*
X21383437Y18944157D01*
X21380000Y15890000D01*
X24845501Y15861217D01*
X24845501Y5758500D01*
X24825816Y5691461D01*
X24773012Y5645706D01*
X24721501Y5634500D01*
X5758501Y5634500D01*
X5691462Y5654185D01*
X5645707Y5706989D01*
X5634501Y5758500D01*
X5634501Y45041500D01*
X5654186Y45108539D01*
X5706990Y45154294D01*
X5758501Y45165500D01*
X24721501Y45165500D01*
X24788540Y45145815D01*
G37*
%TD.AperFunction*%
%TD*%
M02*
