M48
; DRILL file {KiCad 8.0.6+1} date 2024-11-07T23:08:08+0000
; FORMAT={3:3/ absolute / metric / suppress leading zeros}
; #@! TF.CreationDate,2024-11-07T23:08:08+00:00
; #@! TF.GenerationSoftware,Kicad,Pcbnew,8.0.6+1
; #@! TF.FileFunction,Plated,1,2,PTH
FMAT,2
METRIC,TZ
; #@! TA.AperFunction,Plated,PTH,ComponentDrill
T1C1.000
; #@! TA.AperFunction,Plated,PTH,ComponentDrill
T2C3.000
%
G90
G05
T1
X13780Y36830
X13780Y34290
X13780Y31750
X13780Y29210
X13780Y26670
X13780Y24130
X13780Y21590
X13780Y19050
X13780Y16510
X13780Y13970
X16320Y36830
X16320Y34290
X16320Y31750
X16320Y29210
X16320Y26670
X16320Y24130
X16320Y21590
X16320Y19050
X16320Y16510
X16320Y13970
T2
X10160Y40640
X10160Y10160
X20320Y40640
X20320Y10160
M30
