%TF.GenerationSoftware,KiCad,Pcbnew,8.0.6+1*%
%TF.CreationDate,2024-11-07T23:08:08+00:00*%
%TF.ProjectId,GHxPIN01,47487850-494e-4303-912e-6b696361645f,rev?*%
%TF.SameCoordinates,Original*%
%TF.FileFunction,Legend,Top*%
%TF.FilePolarity,Positive*%
%FSLAX46Y46*%
G04 Gerber Fmt 4.6, Leading zero omitted, Abs format (unit mm)*
G04 Created by KiCad (PCBNEW 8.0.6+1) date 2024-11-07 23:08:08*
%MOMM*%
%LPD*%
G01*
G04 APERTURE LIST*
%ADD10C,0.150000*%
%ADD11C,0.250000*%
%ADD12C,0.120000*%
G04 APERTURE END LIST*
D10*
X23390000Y19330000D02*
X24000000Y20290000D01*
X22680000Y20270000D02*
X23390000Y19330000D01*
X22543409Y16392858D02*
X22543409Y15707144D01*
X22543409Y16050001D02*
X21343409Y16050001D01*
X21343409Y16050001D02*
X21514838Y15935715D01*
X21514838Y15935715D02*
X21629124Y15821430D01*
X21629124Y15821430D02*
X21686267Y15707144D01*
X24018200Y15592858D02*
X24018200Y16507143D01*
X24475342Y16050001D02*
X23561057Y16050001D01*
X7409819Y14986780D02*
X6409819Y14986780D01*
X6409819Y14986780D02*
X7124104Y15320113D01*
X7124104Y15320113D02*
X6409819Y15653446D01*
X6409819Y15653446D02*
X7409819Y15653446D01*
X7409819Y16605827D02*
X7409819Y16129637D01*
X7409819Y16129637D02*
X6409819Y16129637D01*
X7124104Y16891542D02*
X7124104Y17367732D01*
X7409819Y16796304D02*
X6409819Y17129637D01*
X6409819Y17129637D02*
X7409819Y17462970D01*
X6886009Y18129637D02*
X6933628Y18272494D01*
X6933628Y18272494D02*
X6981247Y18320113D01*
X6981247Y18320113D02*
X7076485Y18367732D01*
X7076485Y18367732D02*
X7219342Y18367732D01*
X7219342Y18367732D02*
X7314580Y18320113D01*
X7314580Y18320113D02*
X7362200Y18272494D01*
X7362200Y18272494D02*
X7409819Y18177256D01*
X7409819Y18177256D02*
X7409819Y17796304D01*
X7409819Y17796304D02*
X6409819Y17796304D01*
X6409819Y17796304D02*
X6409819Y18129637D01*
X6409819Y18129637D02*
X6457438Y18224875D01*
X6457438Y18224875D02*
X6505057Y18272494D01*
X6505057Y18272494D02*
X6600295Y18320113D01*
X6600295Y18320113D02*
X6695533Y18320113D01*
X6695533Y18320113D02*
X6790771Y18272494D01*
X6790771Y18272494D02*
X6838390Y18224875D01*
X6838390Y18224875D02*
X6886009Y18129637D01*
X6886009Y18129637D02*
X6886009Y17796304D01*
X7314580Y18796304D02*
X7362200Y18843923D01*
X7362200Y18843923D02*
X7409819Y18796304D01*
X7409819Y18796304D02*
X7362200Y18748685D01*
X7362200Y18748685D02*
X7314580Y18796304D01*
X7314580Y18796304D02*
X7409819Y18796304D01*
X7362200Y19701065D02*
X7409819Y19605827D01*
X7409819Y19605827D02*
X7409819Y19415351D01*
X7409819Y19415351D02*
X7362200Y19320113D01*
X7362200Y19320113D02*
X7314580Y19272494D01*
X7314580Y19272494D02*
X7219342Y19224875D01*
X7219342Y19224875D02*
X6933628Y19224875D01*
X6933628Y19224875D02*
X6838390Y19272494D01*
X6838390Y19272494D02*
X6790771Y19320113D01*
X6790771Y19320113D02*
X6743152Y19415351D01*
X6743152Y19415351D02*
X6743152Y19605827D01*
X6743152Y19605827D02*
X6790771Y19701065D01*
X6743152Y20034399D02*
X6743152Y20558208D01*
X6743152Y20558208D02*
X7409819Y20034399D01*
X7409819Y20034399D02*
X7409819Y20558208D01*
D11*
X11567904Y36069524D02*
X11567904Y35498096D01*
X11567904Y35783810D02*
X10267904Y35783810D01*
X10267904Y35783810D02*
X10453619Y35688572D01*
X10453619Y35688572D02*
X10577428Y35593334D01*
X10577428Y35593334D02*
X10639333Y35498096D01*
X10267904Y36688572D02*
X10267904Y36783810D01*
X10267904Y36783810D02*
X10329809Y36879048D01*
X10329809Y36879048D02*
X10391714Y36926667D01*
X10391714Y36926667D02*
X10515523Y36974286D01*
X10515523Y36974286D02*
X10763142Y37021905D01*
X10763142Y37021905D02*
X11072666Y37021905D01*
X11072666Y37021905D02*
X11320285Y36974286D01*
X11320285Y36974286D02*
X11444095Y36926667D01*
X11444095Y36926667D02*
X11506000Y36879048D01*
X11506000Y36879048D02*
X11567904Y36783810D01*
X11567904Y36783810D02*
X11567904Y36688572D01*
X11567904Y36688572D02*
X11506000Y36593334D01*
X11506000Y36593334D02*
X11444095Y36545715D01*
X11444095Y36545715D02*
X11320285Y36498096D01*
X11320285Y36498096D02*
X11072666Y36450477D01*
X11072666Y36450477D02*
X10763142Y36450477D01*
X10763142Y36450477D02*
X10515523Y36498096D01*
X10515523Y36498096D02*
X10391714Y36545715D01*
X10391714Y36545715D02*
X10329809Y36593334D01*
X10329809Y36593334D02*
X10267904Y36688572D01*
X11583428Y14814286D02*
X11583428Y13985715D01*
X11583428Y14400001D02*
X10083428Y14400001D01*
X10083428Y14400001D02*
X10297714Y14261905D01*
X10297714Y14261905D02*
X10440571Y14123810D01*
X10440571Y14123810D02*
X10512000Y13985715D01*
D10*
X6417438Y28800589D02*
X6369819Y28705351D01*
X6369819Y28705351D02*
X6369819Y28562494D01*
X6369819Y28562494D02*
X6417438Y28419637D01*
X6417438Y28419637D02*
X6512676Y28324399D01*
X6512676Y28324399D02*
X6607914Y28276780D01*
X6607914Y28276780D02*
X6798390Y28229161D01*
X6798390Y28229161D02*
X6941247Y28229161D01*
X6941247Y28229161D02*
X7131723Y28276780D01*
X7131723Y28276780D02*
X7226961Y28324399D01*
X7226961Y28324399D02*
X7322200Y28419637D01*
X7322200Y28419637D02*
X7369819Y28562494D01*
X7369819Y28562494D02*
X7369819Y28657732D01*
X7369819Y28657732D02*
X7322200Y28800589D01*
X7322200Y28800589D02*
X7274580Y28848208D01*
X7274580Y28848208D02*
X6941247Y28848208D01*
X6941247Y28848208D02*
X6941247Y28657732D01*
X7369819Y29276780D02*
X6369819Y29276780D01*
X6846009Y29276780D02*
X6846009Y29848208D01*
X7369819Y29848208D02*
X6369819Y29848208D01*
X7369819Y30229161D02*
X6703152Y30752970D01*
X6703152Y30229161D02*
X7369819Y30752970D01*
X7369819Y31133923D02*
X6369819Y31133923D01*
X6369819Y31133923D02*
X6369819Y31514875D01*
X6369819Y31514875D02*
X6417438Y31610113D01*
X6417438Y31610113D02*
X6465057Y31657732D01*
X6465057Y31657732D02*
X6560295Y31705351D01*
X6560295Y31705351D02*
X6703152Y31705351D01*
X6703152Y31705351D02*
X6798390Y31657732D01*
X6798390Y31657732D02*
X6846009Y31610113D01*
X6846009Y31610113D02*
X6893628Y31514875D01*
X6893628Y31514875D02*
X6893628Y31133923D01*
X7369819Y32133923D02*
X6369819Y32133923D01*
X7369819Y32610113D02*
X6369819Y32610113D01*
X6369819Y32610113D02*
X7369819Y33181541D01*
X7369819Y33181541D02*
X6369819Y33181541D01*
X6369819Y33848208D02*
X6369819Y33943446D01*
X6369819Y33943446D02*
X6417438Y34038684D01*
X6417438Y34038684D02*
X6465057Y34086303D01*
X6465057Y34086303D02*
X6560295Y34133922D01*
X6560295Y34133922D02*
X6750771Y34181541D01*
X6750771Y34181541D02*
X6988866Y34181541D01*
X6988866Y34181541D02*
X7179342Y34133922D01*
X7179342Y34133922D02*
X7274580Y34086303D01*
X7274580Y34086303D02*
X7322200Y34038684D01*
X7322200Y34038684D02*
X7369819Y33943446D01*
X7369819Y33943446D02*
X7369819Y33848208D01*
X7369819Y33848208D02*
X7322200Y33752970D01*
X7322200Y33752970D02*
X7274580Y33705351D01*
X7274580Y33705351D02*
X7179342Y33657732D01*
X7179342Y33657732D02*
X6988866Y33610113D01*
X6988866Y33610113D02*
X6750771Y33610113D01*
X6750771Y33610113D02*
X6560295Y33657732D01*
X6560295Y33657732D02*
X6465057Y33705351D01*
X6465057Y33705351D02*
X6417438Y33752970D01*
X6417438Y33752970D02*
X6369819Y33848208D01*
X7369819Y35133922D02*
X7369819Y34562494D01*
X7369819Y34848208D02*
X6369819Y34848208D01*
X6369819Y34848208D02*
X6512676Y34752970D01*
X6512676Y34752970D02*
X6607914Y34657732D01*
X6607914Y34657732D02*
X6655533Y34562494D01*
X7084104Y35514875D02*
X7084104Y35991065D01*
X7369819Y35419637D02*
X6369819Y35752970D01*
X6369819Y35752970D02*
X7369819Y36086303D01*
X19432057Y19830113D02*
X19432057Y19401542D01*
X19432057Y19615827D02*
X18532057Y19615827D01*
X18532057Y19615827D02*
X18660628Y19544399D01*
X18660628Y19544399D02*
X18746342Y19472970D01*
X18746342Y19472970D02*
X18789200Y19401542D01*
X18617771Y20687257D02*
X18574914Y20722971D01*
X18574914Y20722971D02*
X18532057Y20794399D01*
X18532057Y20794399D02*
X18532057Y20972971D01*
X18532057Y20972971D02*
X18574914Y21044399D01*
X18574914Y21044399D02*
X18617771Y21080114D01*
X18617771Y21080114D02*
X18703485Y21115828D01*
X18703485Y21115828D02*
X18789200Y21115828D01*
X18789200Y21115828D02*
X18917771Y21080114D01*
X18917771Y21080114D02*
X19432057Y20651542D01*
X19432057Y20651542D02*
X19432057Y21115828D01*
X18532057Y21937257D02*
X18532057Y22401543D01*
X18532057Y22401543D02*
X18874914Y22151543D01*
X18874914Y22151543D02*
X18874914Y22258686D01*
X18874914Y22258686D02*
X18917771Y22330114D01*
X18917771Y22330114D02*
X18960628Y22365829D01*
X18960628Y22365829D02*
X19046342Y22401543D01*
X19046342Y22401543D02*
X19260628Y22401543D01*
X19260628Y22401543D02*
X19346342Y22365829D01*
X19346342Y22365829D02*
X19389200Y22330114D01*
X19389200Y22330114D02*
X19432057Y22258686D01*
X19432057Y22258686D02*
X19432057Y22044400D01*
X19432057Y22044400D02*
X19389200Y21972972D01*
X19389200Y21972972D02*
X19346342Y21937257D01*
X18832057Y23615829D02*
X19432057Y23615829D01*
X18489200Y23437258D02*
X19132057Y23258687D01*
X19132057Y23258687D02*
X19132057Y23722972D01*
X18532057Y24937259D02*
X18532057Y24580116D01*
X18532057Y24580116D02*
X18960628Y24544402D01*
X18960628Y24544402D02*
X18917771Y24580116D01*
X18917771Y24580116D02*
X18874914Y24651544D01*
X18874914Y24651544D02*
X18874914Y24830116D01*
X18874914Y24830116D02*
X18917771Y24901544D01*
X18917771Y24901544D02*
X18960628Y24937259D01*
X18960628Y24937259D02*
X19046342Y24972973D01*
X19046342Y24972973D02*
X19260628Y24972973D01*
X19260628Y24972973D02*
X19346342Y24937259D01*
X19346342Y24937259D02*
X19389200Y24901544D01*
X19389200Y24901544D02*
X19432057Y24830116D01*
X19432057Y24830116D02*
X19432057Y24651544D01*
X19432057Y24651544D02*
X19389200Y24580116D01*
X19389200Y24580116D02*
X19346342Y24544402D01*
X18532057Y26187259D02*
X18532057Y26044402D01*
X18532057Y26044402D02*
X18574914Y25972974D01*
X18574914Y25972974D02*
X18617771Y25937259D01*
X18617771Y25937259D02*
X18746342Y25865831D01*
X18746342Y25865831D02*
X18917771Y25830117D01*
X18917771Y25830117D02*
X19260628Y25830117D01*
X19260628Y25830117D02*
X19346342Y25865831D01*
X19346342Y25865831D02*
X19389200Y25901545D01*
X19389200Y25901545D02*
X19432057Y25972974D01*
X19432057Y25972974D02*
X19432057Y26115831D01*
X19432057Y26115831D02*
X19389200Y26187259D01*
X19389200Y26187259D02*
X19346342Y26222974D01*
X19346342Y26222974D02*
X19260628Y26258688D01*
X19260628Y26258688D02*
X19046342Y26258688D01*
X19046342Y26258688D02*
X18960628Y26222974D01*
X18960628Y26222974D02*
X18917771Y26187259D01*
X18917771Y26187259D02*
X18874914Y26115831D01*
X18874914Y26115831D02*
X18874914Y25972974D01*
X18874914Y25972974D02*
X18917771Y25901545D01*
X18917771Y25901545D02*
X18960628Y25865831D01*
X18960628Y25865831D02*
X19046342Y25830117D01*
X18532057Y27080117D02*
X18532057Y27580117D01*
X18532057Y27580117D02*
X19432057Y27258689D01*
X18917771Y28544404D02*
X18874914Y28472975D01*
X18874914Y28472975D02*
X18832057Y28437261D01*
X18832057Y28437261D02*
X18746342Y28401547D01*
X18746342Y28401547D02*
X18703485Y28401547D01*
X18703485Y28401547D02*
X18617771Y28437261D01*
X18617771Y28437261D02*
X18574914Y28472975D01*
X18574914Y28472975D02*
X18532057Y28544404D01*
X18532057Y28544404D02*
X18532057Y28687261D01*
X18532057Y28687261D02*
X18574914Y28758689D01*
X18574914Y28758689D02*
X18617771Y28794404D01*
X18617771Y28794404D02*
X18703485Y28830118D01*
X18703485Y28830118D02*
X18746342Y28830118D01*
X18746342Y28830118D02*
X18832057Y28794404D01*
X18832057Y28794404D02*
X18874914Y28758689D01*
X18874914Y28758689D02*
X18917771Y28687261D01*
X18917771Y28687261D02*
X18917771Y28544404D01*
X18917771Y28544404D02*
X18960628Y28472975D01*
X18960628Y28472975D02*
X19003485Y28437261D01*
X19003485Y28437261D02*
X19089200Y28401547D01*
X19089200Y28401547D02*
X19260628Y28401547D01*
X19260628Y28401547D02*
X19346342Y28437261D01*
X19346342Y28437261D02*
X19389200Y28472975D01*
X19389200Y28472975D02*
X19432057Y28544404D01*
X19432057Y28544404D02*
X19432057Y28687261D01*
X19432057Y28687261D02*
X19389200Y28758689D01*
X19389200Y28758689D02*
X19346342Y28794404D01*
X19346342Y28794404D02*
X19260628Y28830118D01*
X19260628Y28830118D02*
X19089200Y28830118D01*
X19089200Y28830118D02*
X19003485Y28794404D01*
X19003485Y28794404D02*
X18960628Y28758689D01*
X18960628Y28758689D02*
X18917771Y28687261D01*
X19432057Y29758690D02*
X19432057Y29901547D01*
X19432057Y29901547D02*
X19389200Y29972976D01*
X19389200Y29972976D02*
X19346342Y30008690D01*
X19346342Y30008690D02*
X19217771Y30080119D01*
X19217771Y30080119D02*
X19046342Y30115833D01*
X19046342Y30115833D02*
X18703485Y30115833D01*
X18703485Y30115833D02*
X18617771Y30080119D01*
X18617771Y30080119D02*
X18574914Y30044404D01*
X18574914Y30044404D02*
X18532057Y29972976D01*
X18532057Y29972976D02*
X18532057Y29830119D01*
X18532057Y29830119D02*
X18574914Y29758690D01*
X18574914Y29758690D02*
X18617771Y29722976D01*
X18617771Y29722976D02*
X18703485Y29687262D01*
X18703485Y29687262D02*
X18917771Y29687262D01*
X18917771Y29687262D02*
X19003485Y29722976D01*
X19003485Y29722976D02*
X19046342Y29758690D01*
X19046342Y29758690D02*
X19089200Y29830119D01*
X19089200Y29830119D02*
X19089200Y29972976D01*
X19089200Y29972976D02*
X19046342Y30044404D01*
X19046342Y30044404D02*
X19003485Y30080119D01*
X19003485Y30080119D02*
X18917771Y30115833D01*
X19432057Y31401548D02*
X19432057Y30972977D01*
X19432057Y31187262D02*
X18532057Y31187262D01*
X18532057Y31187262D02*
X18660628Y31115834D01*
X18660628Y31115834D02*
X18746342Y31044405D01*
X18746342Y31044405D02*
X18789200Y30972977D01*
X18532057Y31865834D02*
X18532057Y31937263D01*
X18532057Y31937263D02*
X18574914Y32008691D01*
X18574914Y32008691D02*
X18617771Y32044405D01*
X18617771Y32044405D02*
X18703485Y32080120D01*
X18703485Y32080120D02*
X18874914Y32115834D01*
X18874914Y32115834D02*
X19089200Y32115834D01*
X19089200Y32115834D02*
X19260628Y32080120D01*
X19260628Y32080120D02*
X19346342Y32044405D01*
X19346342Y32044405D02*
X19389200Y32008691D01*
X19389200Y32008691D02*
X19432057Y31937263D01*
X19432057Y31937263D02*
X19432057Y31865834D01*
X19432057Y31865834D02*
X19389200Y31794405D01*
X19389200Y31794405D02*
X19346342Y31758691D01*
X19346342Y31758691D02*
X19260628Y31722977D01*
X19260628Y31722977D02*
X19089200Y31687263D01*
X19089200Y31687263D02*
X18874914Y31687263D01*
X18874914Y31687263D02*
X18703485Y31722977D01*
X18703485Y31722977D02*
X18617771Y31758691D01*
X18617771Y31758691D02*
X18574914Y31794405D01*
X18574914Y31794405D02*
X18532057Y31865834D01*
D11*
X10226285Y16275716D02*
X10154857Y16344764D01*
X10154857Y16344764D02*
X10083428Y16482859D01*
X10083428Y16482859D02*
X10083428Y16828097D01*
X10083428Y16828097D02*
X10154857Y16966192D01*
X10154857Y16966192D02*
X10226285Y17035240D01*
X10226285Y17035240D02*
X10369142Y17104287D01*
X10369142Y17104287D02*
X10512000Y17104287D01*
X10512000Y17104287D02*
X10726285Y17035240D01*
X10726285Y17035240D02*
X11583428Y16206668D01*
X11583428Y16206668D02*
X11583428Y17104287D01*
X10083428Y18692382D02*
X10083428Y19590001D01*
X10083428Y19590001D02*
X10654857Y19106668D01*
X10654857Y19106668D02*
X10654857Y19313811D01*
X10654857Y19313811D02*
X10726285Y19451906D01*
X10726285Y19451906D02*
X10797714Y19520954D01*
X10797714Y19520954D02*
X10940571Y19590001D01*
X10940571Y19590001D02*
X11297714Y19590001D01*
X11297714Y19590001D02*
X11440571Y19520954D01*
X11440571Y19520954D02*
X11512000Y19451906D01*
X11512000Y19451906D02*
X11583428Y19313811D01*
X11583428Y19313811D02*
X11583428Y18899525D01*
X11583428Y18899525D02*
X11512000Y18761430D01*
X11512000Y18761430D02*
X11440571Y18692382D01*
X10583428Y21937620D02*
X11583428Y21937620D01*
X10012000Y21592382D02*
X11083428Y21247144D01*
X11083428Y21247144D02*
X11083428Y22144763D01*
X10083428Y24492382D02*
X10083428Y23801906D01*
X10083428Y23801906D02*
X10797714Y23732858D01*
X10797714Y23732858D02*
X10726285Y23801906D01*
X10726285Y23801906D02*
X10654857Y23940001D01*
X10654857Y23940001D02*
X10654857Y24285239D01*
X10654857Y24285239D02*
X10726285Y24423334D01*
X10726285Y24423334D02*
X10797714Y24492382D01*
X10797714Y24492382D02*
X10940571Y24561429D01*
X10940571Y24561429D02*
X11297714Y24561429D01*
X11297714Y24561429D02*
X11440571Y24492382D01*
X11440571Y24492382D02*
X11512000Y24423334D01*
X11512000Y24423334D02*
X11583428Y24285239D01*
X11583428Y24285239D02*
X11583428Y23940001D01*
X11583428Y23940001D02*
X11512000Y23801906D01*
X11512000Y23801906D02*
X11440571Y23732858D01*
X10083428Y26909048D02*
X10083428Y26632858D01*
X10083428Y26632858D02*
X10154857Y26494762D01*
X10154857Y26494762D02*
X10226285Y26425715D01*
X10226285Y26425715D02*
X10440571Y26287620D01*
X10440571Y26287620D02*
X10726285Y26218572D01*
X10726285Y26218572D02*
X11297714Y26218572D01*
X11297714Y26218572D02*
X11440571Y26287620D01*
X11440571Y26287620D02*
X11512000Y26356667D01*
X11512000Y26356667D02*
X11583428Y26494762D01*
X11583428Y26494762D02*
X11583428Y26770953D01*
X11583428Y26770953D02*
X11512000Y26909048D01*
X11512000Y26909048D02*
X11440571Y26978096D01*
X11440571Y26978096D02*
X11297714Y27047143D01*
X11297714Y27047143D02*
X10940571Y27047143D01*
X10940571Y27047143D02*
X10797714Y26978096D01*
X10797714Y26978096D02*
X10726285Y26909048D01*
X10726285Y26909048D02*
X10654857Y26770953D01*
X10654857Y26770953D02*
X10654857Y26494762D01*
X10654857Y26494762D02*
X10726285Y26356667D01*
X10726285Y26356667D02*
X10797714Y26287620D01*
X10797714Y26287620D02*
X10940571Y26218572D01*
X10083428Y28635238D02*
X10083428Y29601905D01*
X10083428Y29601905D02*
X11583428Y28980476D01*
X10726285Y31466190D02*
X10654857Y31328095D01*
X10654857Y31328095D02*
X10583428Y31259048D01*
X10583428Y31259048D02*
X10440571Y31190000D01*
X10440571Y31190000D02*
X10369142Y31190000D01*
X10369142Y31190000D02*
X10226285Y31259048D01*
X10226285Y31259048D02*
X10154857Y31328095D01*
X10154857Y31328095D02*
X10083428Y31466190D01*
X10083428Y31466190D02*
X10083428Y31742381D01*
X10083428Y31742381D02*
X10154857Y31880476D01*
X10154857Y31880476D02*
X10226285Y31949524D01*
X10226285Y31949524D02*
X10369142Y32018571D01*
X10369142Y32018571D02*
X10440571Y32018571D01*
X10440571Y32018571D02*
X10583428Y31949524D01*
X10583428Y31949524D02*
X10654857Y31880476D01*
X10654857Y31880476D02*
X10726285Y31742381D01*
X10726285Y31742381D02*
X10726285Y31466190D01*
X10726285Y31466190D02*
X10797714Y31328095D01*
X10797714Y31328095D02*
X10869142Y31259048D01*
X10869142Y31259048D02*
X11012000Y31190000D01*
X11012000Y31190000D02*
X11297714Y31190000D01*
X11297714Y31190000D02*
X11440571Y31259048D01*
X11440571Y31259048D02*
X11512000Y31328095D01*
X11512000Y31328095D02*
X11583428Y31466190D01*
X11583428Y31466190D02*
X11583428Y31742381D01*
X11583428Y31742381D02*
X11512000Y31880476D01*
X11512000Y31880476D02*
X11440571Y31949524D01*
X11440571Y31949524D02*
X11297714Y32018571D01*
X11297714Y32018571D02*
X11012000Y32018571D01*
X11012000Y32018571D02*
X10869142Y31949524D01*
X10869142Y31949524D02*
X10797714Y31880476D01*
X10797714Y31880476D02*
X10726285Y31742381D01*
X11583428Y33813809D02*
X11583428Y34090000D01*
X11583428Y34090000D02*
X11512000Y34228095D01*
X11512000Y34228095D02*
X11440571Y34297143D01*
X11440571Y34297143D02*
X11226285Y34435238D01*
X11226285Y34435238D02*
X10940571Y34504285D01*
X10940571Y34504285D02*
X10369142Y34504285D01*
X10369142Y34504285D02*
X10226285Y34435238D01*
X10226285Y34435238D02*
X10154857Y34366190D01*
X10154857Y34366190D02*
X10083428Y34228095D01*
X10083428Y34228095D02*
X10083428Y33951904D01*
X10083428Y33951904D02*
X10154857Y33813809D01*
X10154857Y33813809D02*
X10226285Y33744762D01*
X10226285Y33744762D02*
X10369142Y33675714D01*
X10369142Y33675714D02*
X10726285Y33675714D01*
X10726285Y33675714D02*
X10869142Y33744762D01*
X10869142Y33744762D02*
X10940571Y33813809D01*
X10940571Y33813809D02*
X11012000Y33951904D01*
X11012000Y33951904D02*
X11012000Y34228095D01*
X11012000Y34228095D02*
X10940571Y34366190D01*
X10940571Y34366190D02*
X10869142Y34435238D01*
X10869142Y34435238D02*
X10726285Y34504285D01*
D12*
%TO.C,J7*%
X12450000Y12640000D02*
X12450000Y38160000D01*
X15050000Y15240000D02*
X15050000Y12640000D01*
X15050000Y12640000D02*
X12450000Y12640000D01*
X17650000Y38160000D02*
X12450000Y38160000D01*
X17650000Y15240000D02*
X15050000Y15240000D01*
X17650000Y15240000D02*
X17650000Y38160000D01*
X17650000Y13970000D02*
X17650000Y12640000D01*
X17650000Y12640000D02*
X16320000Y12640000D01*
%TO.C,J6*%
X20740000Y33380000D02*
X20740000Y31580000D01*
X20740000Y19210000D02*
X19750000Y19210000D01*
X20740000Y17410000D02*
X20740000Y19210000D01*
X22190000Y33380000D02*
X20740000Y33380000D01*
X22190000Y17410000D02*
X20740000Y17410000D01*
X25010000Y18680000D02*
X25010000Y32110000D01*
%TD*%
M02*
